<?xml version="1.0" encoding="UTF-8" standalone="no"?>
<!-- Created with Inkscape (http://www.inkscape.org/) -->

<svg
   width="180mm"
   height="180mm"
   viewBox="0 0 180 180"
   version="1.1"
   id="svg1"
   sodipodi:docname="food_mushroom_edible_psychedelic.svg"
   inkscape:version="1.4.2 (f4327f4, 2025-05-13)"
   xml:space="preserve"
   xmlns:inkscape="http://www.inkscape.org/namespaces/inkscape"
   xmlns:sodipodi="http://sodipodi.sourceforge.net/DTD/sodipodi-0.dtd"
   xmlns="http://www.w3.org/2000/svg"
   xmlns:svg="http://www.w3.org/2000/svg"><sodipodi:namedview
     id="namedview1"
     pagecolor="#505050"
     bordercolor="#ffffff"
     borderopacity="1"
     inkscape:showpageshadow="0"
     inkscape:pageopacity="0"
     inkscape:pagecheckerboard="1"
     inkscape:deskcolor="#505050"
     inkscape:document-units="mm"
     inkscape:zoom="1"
     inkscape:cx="447.5"
     inkscape:cy="327"
     inkscape:window-width="2560"
     inkscape:window-height="1351"
     inkscape:window-x="-9"
     inkscape:window-y="-9"
     inkscape:window-maximized="1"
     inkscape:current-layer="layer1"
     showguides="true" /><defs
     id="defs1"><rect
       x="101.82338"
       y="91.923881"
       width="384.66609"
       height="299.81327"
       id="rect3" /><rect
       x="2.8284271"
       y="2.1213203"
       width="662.55905"
       height="647.0027"
       id="rect2" /></defs><g
     inkscape:label="Icon"
     inkscape:groupmode="layer"
     id="layer1"><path
       style="fill:#000000;stroke-width:2.06226"
       d="m 3.7834608,172.49559 c -0.5672008,-0.49431 -0.8041225,-1.18724 -0.6110065,-1.78703 0.2739657,-0.85089 1.3356384,-0.97964 8.0780977,-0.97964 9.203147,0 8.951415,0.33345 5.732205,-7.59317 -1.635163,-4.0262 -2.875859,-6.00626 -6.372529,-10.17001 -2.779538,-3.3098 -5.4211965,-5.82806 -7.3408857,-6.99804 -2.1860432,-1.3323 -3.04477696,-2.20413 -3.16835797,-3.21656 -0.16396759,-1.34285 -0.0821734,-1.37658 2.46367447,-1.01722 2.8249125,0.39874 8.5745152,3.38625 12.1334682,6.30455 1.203538,0.9869 3.522172,3.35965 5.152519,5.2728 l 2.964285,3.47843 -1.183591,-3.90149 c -3.092588,-10.19426 -7.394496,-19.1904 -13.4806109,-28.19052 -1.7226253,-2.54746 -3.1320688,-5.03537 -3.1320688,-5.5287 0,-4.93083 11.7686957,6.32855 18.4686327,17.66933 1.431187,2.42253 3.397441,6.0938 4.369479,8.15838 0.97202,2.06456 1.865644,3.63658 1.985806,3.49336 0.120141,-0.14319 -0.799684,-5.1831 -2.044121,-11.19975 -2.40891,-11.64647 -3.970345,-21.73247 -4.52912,-29.2556 l -0.342821,-4.61572 -2.618159,0.36673 c -4.415249,0.61846 -6.79299,-1.85048 -6.79299,-7.053483 0,-2.352936 2.224465,-10.103545 4.110851,-14.323322 4.378036,-9.793441 9.563802,-10.064124 15.117135,-0.789063 4.146687,6.92573 6.510204,14.849334 5.259893,17.633701 -0.713639,1.589182 -3.379835,2.972537 -5.729109,2.972537 h -1.765374 v 2.91921 c 0,4.1407 1.646743,15.18278 4.228481,28.35383 1.220162,6.2248 2.367333,12.32306 2.549265,13.55164 0.181914,1.22857 0.486407,2.23379 0.676594,2.23379 0.190188,0 0.864307,-1.94342 1.49802,-4.31866 1.523465,-5.71009 3.50963,-10.07255 4.484067,-9.84888 0.653982,0.15016 0.765587,2.06481 0.79124,13.57467 0.02418,10.88155 0.200558,14.21155 0.938073,17.71857 0.906547,4.3109 0.911268,4.31866 2.621805,4.31866 h 1.713633 l -0.240492,-3.12731 c -0.132231,-1.72002 -0.369796,-5.67381 -0.527814,-8.78623 -0.652112,-12.84401 -3.212391,-28.70893 -6.778503,-42.00332 -2.001899,-7.46306 -2.304824,-9.49495 -1.503536,-10.08517 0.897517,-0.66108 1.82386,0.35689 3.643733,4.00423 3.323276,6.66043 7.058608,16.66171 9.170941,24.55504 l 2.072323,7.74379 0.353721,-5.36109 c 0.541169,-8.20227 0.422822,-33.11995 -0.193796,-40.803859 -0.302358,-3.767656 -1.007212,-10.16708 -1.566365,-14.220975 -1.02189,-7.408807 -0.901256,-8.816637 0.693009,-8.087506 2.145108,0.981038 7.245944,23.411637 8.827799,38.81961 0.784212,7.6385 1.130509,23.04773 0.676461,30.10059 -0.226721,3.52193 -0.36088,6.40351 -0.298107,6.40351 0.06272,0 0.704665,-1.20095 1.426425,-2.6688 1.27793,-2.5989 1.314992,-2.96166 1.414978,-13.84948 0.05648,-6.14939 0.413982,-15.61158 0.79447,-21.0271 C 68.81422,99.392585 68.423739,93.081174 65.69137,74.420644 l -1.875279,-12.807042 -7.052884,0.202172 c -8.454356,0.242293 -12.484886,-0.495482 -14.252679,-2.608895 -1.149871,-1.374689 -1.250877,-1.914974 -1.195983,-6.397645 0.07897,-6.446365 1.074652,-9.853755 7.188763,-24.600178 4.545158,-10.962343 5.26282,-12.334183 8.601322,-16.441753 3.977581,-4.8938965 5.562893,-5.7259171 8.881013,-4.6610562 4.23853,1.3602426 10.132192,8.1031262 16.682424,19.0862502 4.605381,7.722087 6.8691,12.500339 8.30686,17.534146 0.834895,2.923029 0.850725,2.938923 1.213117,1.218017 0.201956,-0.959018 1.385263,-4.288713 2.629568,-7.399329 5.067532,-12.668245 10.159878,-19.713906 14.248428,-19.713906 1.64899,0 2.35505,0.51783 5.48246,4.020825 4.34167,4.863085 9.42068,13.802511 12.32269,21.688767 1.15465,3.137788 2.09935,6.00827 2.09935,6.378847 0,1.48996 0.82665,0.496562 2.24915,-2.702846 2.90207,-6.527301 7.2969,-12.802901 10.43723,-14.903884 4.01301,-2.684834 8.3381,-0.783682 13.65069,6.000345 5.74065,7.330638 11.08351,15.541384 12.48191,19.181768 1.57444,4.098699 2.04083,8.414091 1.07491,9.945815 -0.89347,1.416836 -5.49139,2.606463 -11.90474,3.080153 -8.53831,0.630611 -7.79659,0.01129 -8.17153,6.829481 -0.34759,6.321528 -1.34394,13.350367 -2.84444,20.066585 -2.15294,9.636369 -4.05566,21.101389 -4.28986,25.848919 l -0.24979,5.06324 2.95837,-7.14812 c 3.29653,-7.96516 7.78212,-16.34696 12.1137,-22.635715 3.79851,-5.514861 11.15485,-13.998407 12.13841,-13.998407 1.51181,0 1.44461,1.3395 -0.2047,4.080936 -8.60889,14.309496 -14.73277,28.576256 -18.70336,43.573206 -1.65322,6.24419 -3.3403,14.37853 -3.05313,14.72078 0.13224,0.1576 0.73763,-0.87862 1.34529,-2.30278 3.13247,-7.34144 8.89949,-15.17759 14.56554,-19.79139 2.82847,-2.3032 4.39161,-2.53843 4.39161,-0.66084 0,0.51605 -1.1434,2.57577 -2.5409,4.57716 -1.39751,2.00135 -3.12358,4.73718 -3.83574,6.07959 -3.09143,5.82729 -7.01404,16.78968 -7.80064,21.8002 l -0.32729,2.0849 1.23663,-1.78704 c 0.68017,-0.98288 1.24475,-1.96501 1.25462,-2.1825 0.0274,-0.60293 5.94488,-6.01115 8.76457,-8.01031 3.25553,-2.30816 6.61405,-3.60711 7.27859,-2.8151 0.79336,0.94554 0.11618,2.07448 -3.14355,5.24034 -3.61755,3.51342 -6.89066,8.60205 -9.20011,14.30321 -2.73426,6.74977 -3.48278,6.2714 9.81323,6.2714 h 11.49554 v 1.78703 1.78703 H 92.330326 c -72.941133,0 -87.7756312,-0.1353 -88.5468652,-0.80738 z m 69.0305352,-3.65256 c -0.156978,-0.48725 -0.887711,-3.18889 -1.624056,-6.00362 -0.905204,-3.46017 -1.478241,-4.86139 -1.769265,-4.32629 -0.48467,0.89117 -2.925882,9.77773 -2.925882,10.65085 0,0.31073 1.486006,0.56495 3.302214,0.56495 2.717332,0 3.251702,-0.15692 3.016989,-0.88589 z m 24.8549,-4.3263 c -0.341047,-2.86668 -0.634885,-7.83992 -0.653001,-11.05161 -0.02965,-5.24628 -0.162078,-6.06314 -1.304375,-8.04162 l -1.27145,-2.2022 0.296351,11.31786 c 0.389915,14.8918 0.432532,15.18976 2.17248,15.18976 h 1.380068 z m 22.274424,2.9784 c -0.017,-1.22858 -0.41727,-5.85253 -0.88972,-10.27542 l -0.85903,-8.04164 -0.86239,5.712 c -0.47434,3.14163 -1.28281,7.62041 -1.79662,9.95288 -0.51382,2.33251 -0.81244,4.38604 -0.66361,4.56343 0.14886,0.17741 1.35771,0.32254 2.68636,0.32254 h 2.41573 z m 13.14909,-1.93596 c 0.20534,-2.12954 0.70839,-6.15036 1.11789,-8.93516 0.68713,-4.67272 0.67506,-5.4078 -0.15641,-9.53081 l -0.90099,-4.46756 -1.14796,5.65892 c -0.76268,3.75962 -1.23728,8.32568 -1.41402,13.60439 l -0.26606,7.94549 1.19714,-0.20173 c 1.07608,-0.18122 1.23488,-0.59314 1.57044,-4.07358 z M 87.006641,136.66886 C 86.554822,124.26578 85.05038,98.968665 84.201809,89.505674 l -0.276461,-3.083126 -4.092074,-0.199696 c -2.250628,-0.109862 -4.170185,-0.148141 -4.265676,-0.08555 -0.09539,0.06282 0.107108,2.562967 0.450364,5.556036 0.637888,5.563173 0.475563,16.351662 -0.48839,32.461152 -0.254698,4.25636 -0.378543,7.8396 -0.275194,7.96277 0.10333,0.12316 2.010949,-1.29854 4.239136,-3.15935 3.851845,-3.21678 5.897099,-3.98494 6.339378,-2.38089 0.09558,0.3468 -0.742011,1.82112 -1.861413,3.27623 -2.589464,3.36612 -6.145828,8.78794 -6.941733,10.58298 -0.731281,1.64928 -0.465363,4.07802 1.343194,12.26812 l 1.304886,5.90918 1.056157,-5.17385 c 1.083529,-5.30794 2.035808,-7.23491 3.290238,-6.65797 0.52687,0.2423 0.725766,1.53343 0.760429,4.9362 0.0272,2.67492 0.439029,6.10746 0.981559,8.18214 l 0.934617,3.57405 0.413301,-6.2546 c 0.240379,-3.63768 0.195401,-12.23613 -0.107486,-20.55085 z m 23.753979,12.44505 c 0.93847,-6.11731 1.53226,-24.64654 0.95471,-29.79185 l -0.39307,-3.50187 -0.62024,4.46757 c -0.34114,2.45717 -1.44018,8.22033 -2.44232,12.80704 -1.00216,4.5867 -1.95669,10.26789 -2.12118,12.62484 -0.287,4.112 -0.23235,4.40932 1.35075,7.3496 1.97288,3.66422 2.13193,3.47192 3.27135,-3.95533 z m 20.38664,-12.22954 c 1.61125,-2.66643 1.67951,-3.00947 1.95645,-9.82867 0.30191,-7.43427 1.5739,-15.55496 4.88561,-31.190699 2.12185,-10.017994 2.95123,-15.810672 2.96667,-20.720271 l 0.009,-3.147827 -2.62398,0.459955 c -1.4432,0.252987 -4.47661,0.459281 -6.7409,0.458471 -3.51794,-0.0012 -4.26998,-0.183939 -5.16898,-1.255368 -1.14874,-1.369108 -1.46246,-4.424247 -0.82372,-8.022126 l 0.38089,-2.145494 -3.8327,-0.386133 c -2.10799,-0.212305 -5.03579,-0.386111 -6.50623,-0.386111 -2.51855,0 -2.67352,0.08622 -2.67352,1.489172 0,1.240126 0.23824,1.489196 1.42444,1.489196 3.13873,0 8.35962,6.490131 12.10182,15.043919 2.26986,5.188387 3.65474,11.6916 2.9561,13.881581 -0.69404,2.175639 -3.9604,3.790574 -9.48508,4.689529 l -2.24912,0.365953 0.32477,5.794153 c 0.17871,3.18678 0.34926,9.27884 0.3792,13.53793 0.0299,4.25908 0.19796,9.16826 0.37339,10.90927 l 0.31898,3.16547 1.10378,-4.9525 c 1.39155,-6.24377 2.66682,-10.00752 5.86606,-17.3128 1.74505,-3.98467 2.81847,-5.80784 3.41953,-5.80784 1.30369,0 1.36931,1.008 0.3466,5.32506 -2.91446,12.30235 -4.89554,26.70278 -4.85982,35.32595 l 0.0253,6.10962 2.22752,-5.06326 c 1.22515,-2.78479 2.97881,-6.30655 3.89703,-7.82613 z m -30.46595,-7.97873 c 2.59735,-11.56004 3.10876,-15.09944 3.5889,-24.83798 0.32142,-6.519438 0.28143,-7.010778 -0.5975,-7.340543 -4.66215,-1.749158 -5.7276,-4.090679 -4.476665,-9.838263 0.387099,-1.778475 0.666019,-3.274536 0.619829,-3.324562 -0.16435,-0.178083 -8.416538,2.077862 -8.659297,2.367209 -0.13601,0.162099 0.09388,3.609271 0.510699,7.660534 0.416852,4.051235 1.252805,15.534885 1.857692,25.519215 l 1.099773,18.15329 1.553955,1.59551 c 1.096677,1.12596 1.653694,1.3832 1.892865,0.87408 0.186447,-0.39677 1.360782,-5.26959 2.609749,-10.82849 z M 22.504677,85.755489 c 1.718678,-4.057744 1.744671,-4.186728 0.844018,-4.186728 -1.559526,0 -4.343881,5.686145 -3.541781,7.232929 0.58031,1.119047 1.257377,0.354526 2.697763,-3.046201 z m 54.123386,-5.526994 c 0.287963,-3.406782 -0.123166,-4.582766 -1.107955,-3.168653 -0.664107,0.953682 -0.856128,4.586796 -0.299184,5.660769 0.692839,1.336079 1.152365,0.522207 1.407139,-2.492116 z m 3.540855,-2.382697 c 0.169257,-2.539081 0.11183,-4.616493 -0.12751,-4.616493 -0.669208,0 -1.03721,2.29762 -1.044709,6.522642 -0.0095,5.190773 0.785231,3.89882 1.172142,-1.906149 z m 3.81909,2.531626 c 0,-1.310504 -0.224908,-2.382721 -0.499799,-2.382721 -0.274892,0 -0.49982,1.072217 -0.49982,2.382721 0,1.310481 0.224928,2.382699 0.49982,2.382699 0.274891,0 0.499799,-1.072218 0.499799,-2.382699 z m 5.497872,1.280223 c 0,-1.314219 -1.147794,-4.219778 -1.54995,-3.923563 -0.403968,0.297563 -0.152067,2.812982 0.39902,3.983606 0.28753,0.610799 1.15093,0.565771 1.15093,-0.06012 z m 4.498254,-1.464227 c 0,-1.428904 -1.227209,-3.913051 -1.671528,-3.383504 -0.35153,0.418936 0.828567,4.758845 1.294005,4.758845 0.207642,0 0.377523,-0.618902 0.377523,-1.375341 z m 4.176042,-1.454119 c -0.575513,-2.762686 -1.664237,-5.509996 -2.183531,-5.509996 -0.271208,0 -0.493093,0.100407 -0.493093,0.222886 0,0.189792 0.987982,3.695183 1.741969,6.180569 0.460507,1.518011 1.27485,0.739532 0.934655,-0.893527 z m 11.942704,-1.992423 c 2.01881,-3.852442 2.24035,-4.708934 1.21806,-4.708934 -1.41868,0 -4.34186,4.786133 -4.34186,7.108968 0,2.187257 1.20512,1.261357 3.1238,-2.400034 z m -4.62322,-10.382267 c 0,-3.810026 -0.1634,-5.048845 -0.66634,-5.048845 -0.80888,0 -6.508388,1.303118 -6.76031,1.545636 -0.0988,0.09501 0.279351,0.94076 0.840128,1.879382 0.560797,0.938622 1.843712,3.663641 2.850972,6.055594 l 1.83132,4.348982 0.95212,-1.86594 c 0.73825,-1.446824 0.95211,-3.000026 0.95211,-6.914809 z m 26.22344,-0.03579 c 0.1918,-1.829491 0.22401,-3.474999 0.0716,-3.656662 -0.44691,-0.532655 -1.30471,2.713201 -1.30471,4.936953 0,3.254162 0.85034,2.371305 1.23313,-1.280291 z m 3.02305,0.901069 c 0.37933,-2.058275 -0.0706,-3.058427 -0.77707,-1.727166 -0.60173,1.133951 -0.61548,3.556792 -0.0202,3.556792 0.25305,0 0.61182,-0.823328 0.79726,-1.829626 z m 3.72482,-2.191175 c -0.0132,-3.288787 -0.12676,-3.847263 -0.62516,-3.067544 -0.68808,1.076584 -0.52738,7.088345 0.18948,7.088345 0.24835,0 0.44442,-1.809364 0.43568,-4.020801 z M 75.253944,63.477333 c 0.955225,-1.923508 1.736774,-3.558817 1.736774,-3.634013 0,-0.2051 -5.096453,0.795456 -5.302584,1.041104 -0.09804,0.116846 0.04288,1.131023 0.313069,2.253852 0.270207,1.122806 0.504484,2.847406 0.520654,3.83245 0.03287,2.007282 -0.0561,2.121156 2.732087,-3.493393 z m 67.211356,3.23462 c 0,-0.963521 -0.2249,-1.917519 -0.4998,-2.120008 -0.29744,-0.219059 -0.49981,0.490214 -0.49981,1.751863 0,1.16601 0.22492,2.120031 0.49981,2.120031 0.2749,0 0.4998,-0.788342 0.4998,-1.751886 z m 4.7364,0.709454 c -0.20276,-0.573335 -0.47958,-2.449723 -0.61517,-4.169728 -0.35814,-4.542715 -1.12239,-3.832901 -1.12239,1.042431 0,3.843189 0.0826,4.169729 1.05308,4.169729 0.81016,0 0.96805,-0.240469 0.68448,-1.042432 z m 3.76032,0.521216 c 0,-1.51727 -0.6824,-4.244205 -1.06209,-4.244205 -0.5007,0 -0.58551,2.420748 -0.13394,3.823198 0.32086,0.996549 1.19605,1.304605 1.19605,0.421007 z m 4.25536,-3.499607 c -0.3851,-3.683769 -0.98421,-5.509995 -1.8076,-5.509995 -0.28375,0 -0.40378,0.469097 -0.26675,1.042433 0.13695,0.573335 0.5055,2.583747 0.81882,4.467562 0.31332,1.883839 0.80456,3.425153 1.09164,3.425153 0.34372,0 0.3997,-1.1695 0.16396,-3.425153 z m 3.74152,0.858451 c 0,-0.756441 -0.33022,-1.89566 -0.73381,-2.531627 -0.80977,-1.27597 -0.92406,-0.760224 -0.45321,2.045487 0.36312,2.163909 1.18702,2.501323 1.18702,0.48614 z m 3.99845,-0.11392 c 0,-0.81905 -0.16868,-1.490188 -0.37485,-1.491425 -0.20617,-0.0012 -0.79073,-1.20748 -1.29903,-2.680534 -0.50828,-1.473075 -1.14328,-2.678326 -1.4111,-2.678326 -0.54731,0 -0.52265,0.149716 0.81006,4.914348 0.98181,3.510032 2.27492,4.610481 2.27492,1.935937 z m 3.49865,0.893526 c 0.41233,-0.317602 0.49668,-0.581554 0.18739,-0.586575 -0.30926,-0.0045 -0.6983,-0.81959 -0.86454,-1.810195 -0.27865,-1.660525 -1.51079,-2.938023 -2.12624,-2.204526 -0.46874,0.558657 0.82607,5.197212 1.44813,5.187847 0.33304,-0.0045 0.94288,-0.268973 1.35522,-0.586551 z M 96.845373,57.570242 c -0.114665,-0.397188 -0.03854,-1.439125 0.168878,-2.315428 0.442658,-1.86979 0.08426,-2.538719 -0.859923,-1.604849 -0.691858,0.684328 -0.940096,5.359085 -0.323573,6.093867 0.453651,0.540668 1.284334,-1.238842 1.014655,-2.17359 z M 55.748968,55.61508 c 2.017012,-2.177329 2.258015,-2.623282 1.249518,-2.311985 -0.687229,0.21208 -2.598985,1.429174 -4.248355,2.704534 l -2.998835,2.31885 1.749318,-0.0068 c 1.36949,-0.0045 2.291942,-0.592608 4.248354,-2.704534 z m 4.260973,0.01129 c 0.605792,-1.491402 1.019452,-2.784344 0.919259,-2.873207 -0.100119,-0.08893 -1.300259,1.131363 -2.666821,2.711649 l -2.484642,2.873206 h 1.565402 c 1.363446,0 1.707495,-0.349843 2.666802,-2.711648 z m 2.986216,0.626783 c 0,-2.184284 -0.703173,-2.830385 -1.134513,-1.042433 -0.138277,0.573336 -0.413528,1.51153 -0.611574,2.084865 -0.275912,0.798744 -0.113909,1.042433 0.69301,1.042433 0.870314,0 1.053077,-0.361843 1.053077,-2.084865 z m 38.754973,0.712741 c 0.15887,-0.754639 0.21943,-2.832074 0.1345,-4.616493 l -0.15452,-3.244368 -0.87466,1.906354 c -0.48107,1.048509 -0.874666,2.70192 -0.874666,3.674268 0,3.421935 1.202526,4.971713 1.769336,2.280239 z M 49.376436,56.55692 c 0.893417,-0.649208 1.624377,-1.308815 1.624377,-1.465803 0,-0.287771 -4.54002,1.906171 -4.946161,2.390218 -0.673817,0.803043 1.948969,0.07317 3.321784,-0.924415 z m 57.008714,-0.767607 c 0.16624,-1.667616 -0.71855,-4.212347 -1.31246,-3.774883 -0.19625,0.144539 -0.27391,1.505338 -0.17266,3.023959 0.19863,2.976275 1.21213,3.488777 1.48505,0.750924 z m 8.946,-0.502417 c -0.32194,-2.860486 -1.15263,-4.227206 -1.64322,-2.70352 -0.5304,1.647333 0.23642,5.158352 1.12661,5.158352 0.64037,0 0.73974,-0.472089 0.51661,-2.454832 z m -43.346136,1.4124 c -0.0038,-0.245716 -0.225682,-0.848835 -0.492149,-1.340265 -0.391785,-0.722535 -0.485972,-0.637028 -0.492167,0.446762 -0.0038,0.737146 0.217276,1.340268 0.492167,1.340268 0.274892,0 0.496362,-0.20105 0.492149,-0.446765 z M 110.47008,51.9339 c -0.008,-4.761302 -0.50431,-7.599342 -1.10715,-6.318217 -0.41171,0.874906 0.21313,11.530378 0.67613,11.530378 0.24127,0 0.43521,-2.345485 0.43102,-5.212161 z m 9.19667,4.727145 c 0.45027,-0.868288 -1.01201,-7.895057 -1.85106,-8.89505 -1.17324,-1.398308 -1.54293,-0.558635 -0.65502,1.487754 0.41743,0.96208 0.91282,3.131438 1.10085,4.82078 0.31808,2.857695 0.80237,3.749083 1.40523,2.586516 z m 4.30574,-0.678316 c 0,-1.542035 -1.03624,-4.197758 -1.63793,-4.197758 -0.26565,0 -0.32309,0.59524 -0.12941,1.340266 0.1917,0.737168 0.46906,1.94341 0.61635,2.680556 0.32898,1.646251 1.15091,1.772622 1.15091,0.176958 z m -46.523607,0.325413 c -0.663936,-0.772267 -5.624058,-4.521708 -5.762884,-4.356255 -0.09162,0.109195 0.397774,1.188615 1.087629,2.398571 1.05916,1.857656 1.536613,2.199932 3.068899,2.199932 0.998033,0 1.720888,-0.108968 1.606356,-0.242248 z m 5.46846,-1.295688 c 0.317433,-0.317715 -6.125086,-3.602406 -7.891519,-4.023457 -2.107572,-0.502372 -1.903689,-0.247697 2.06131,2.574876 2.205104,1.569727 3.527784,2.151415 4.401838,1.935801 0.687249,-0.169529 1.329991,-0.38879 1.428371,-0.48722 z m 5.0102,-1.980131 c 0.553638,-0.417901 0.504013,-0.59157 -0.249899,-0.874706 -1.624454,-0.610031 -7.188272,-1.38428 -7.188272,-1.000285 0,0.541703 4.051178,2.261462 5.497853,2.333889 0.687249,0.03444 1.560378,-0.172005 1.940318,-0.458898 z M 48.972789,46.835478 c 0.01511,-0.592674 -0.187393,-0.918335 -0.451649,-0.723682 -0.687625,0.50647 -1.198647,4.281216 -0.747281,5.519766 0.291325,0.799373 0.47477,0.483529 0.775825,-1.335786 0.21686,-1.310482 0.407256,-2.867624 0.423105,-3.460298 z m 89.199661,1.821588 c 0.80019,-1.719691 2.20589,-4.132671 3.12377,-5.362192 1.73634,-2.325851 1.99211,-3.115027 1.19901,-3.699236 -1.31985,-0.972167 -7.02721,7.898097 -7.02721,10.921582 0,2.202297 1.19728,1.378788 2.70443,-1.860154 z M 53.781221,45.809728 c 0.07972,-3.951435 -0.318093,-5.257369 -0.977611,-3.209021 -0.409637,1.272275 -0.38676,7.099309 0.02985,7.595804 0.641439,0.764479 0.864685,-0.268746 0.947783,-4.386783 z m 4.216883,1.686371 c 0,-1.456708 -0.181914,-2.265448 -0.435289,-1.935936 -0.613066,0.797032 -1.110392,3.588424 -0.721837,4.05151 0.772387,0.920541 1.157126,0.217257 1.157126,-2.115574 z m 4.498254,-1.370053 c 0,-1.474291 -0.224927,-2.680554 -0.499818,-2.680554 -0.274893,0 -0.499801,1.206263 -0.499801,2.680554 0,1.474292 0.224908,2.680534 0.499801,2.680534 0.274891,0 0.499818,-1.206242 0.499818,-2.680534 z m 5.485631,0.972956 c -0.01134,-0.855231 -0.361069,-3.004687 -1.25086,-7.674312 -0.140354,-0.737145 -0.475998,-1.340287 -0.745656,-1.340287 -0.63566,0 -0.642044,6.370357 -0.0075,6.838238 0.265901,0.19587 0.353136,1.132622 0.193853,2.081713 -0.257022,1.53161 -0.170958,1.688645 0.766096,1.396618 0.580612,-0.181011 1.05015,-0.766841 1.043425,-1.30197 z m 4.003025,-0.824027 c -0.0075,-2.12566 -0.693199,-3.887518 -1.160639,-2.986113 -0.410713,0.792012 0.205092,4.922048 0.73387,4.922048 0.238943,0 0.430982,-0.871168 0.426769,-1.935935 z m 4.467161,0.297835 c -0.06763,-1.820913 -1.752851,-6.916724 -2.368202,-7.161178 -0.803462,-0.319199 -0.7439,0.803404 0.212913,4.013957 0.442617,1.485255 0.885388,3.03553 0.98392,3.445056 0.271812,1.129874 1.215516,0.889945 1.171369,-0.297835 z m 3.574876,0.282931 c -0.02059,-0.237522 -0.0374,-1.101982 -0.0374,-1.921054 0,-0.819051 -0.224908,-1.489195 -0.499799,-1.489195 -0.274892,0 -0.4998,0.960548 -0.4998,2.134529 0,1.257527 0.220733,2.046793 0.537279,1.921053 0.295519,-0.117296 0.520427,-0.407791 0.499818,-0.645333 z m 4.724333,-1.474292 c -0.366245,-2.354219 -1.769115,-5.471498 -3.018539,-6.707322 -1.077503,-1.065802 -0.948595,0.175382 0.262066,2.523184 0.553146,1.072691 1.236559,2.955563 1.518686,4.184138 0.282108,1.228576 0.754214,2.233793 1.049111,2.233793 0.348129,0 0.414302,-0.783366 0.188714,-2.233793 z M 103.60881,34.053492 c 1.03273,-2.205898 2.14933,-4.466955 2.48135,-5.024575 0.70646,-1.186498 0.26291,-1.965001 -0.83376,-1.46344 -1.04619,0.478462 -4.22773,6.514311 -4.59856,8.72415 -0.53135,3.166403 0.94567,2.047176 2.95097,-2.236135 z M 56.237811,28.106821 c 0.745563,-1.883817 2.253103,-4.997087 3.350101,-6.918345 1.948969,-3.41343 2.049107,-5.032346 0.260667,-4.214422 -1.87252,0.856385 -6.791669,11.727356 -6.174314,13.644784 0.523431,1.625629 1.181003,0.981285 2.563546,-2.512017 z"
       id="path1" /></g></svg>
