<?xml version="1.0" encoding="UTF-8" standalone="no"?>
<!-- Created with Inkscape (http://www.inkscape.org/) -->

<svg
   width="180mm"
   height="240mm"
   viewBox="0 0 180 240"
   version="1.1"
   id="svg1"
   sodipodi:docname="other_question_mark.svg"
   inkscape:version="1.4.2 (f4327f4, 2025-05-13)"
   xml:space="preserve"
   xmlns:inkscape="http://www.inkscape.org/namespaces/inkscape"
   xmlns:sodipodi="http://sodipodi.sourceforge.net/DTD/sodipodi-0.dtd"
   xmlns="http://www.w3.org/2000/svg"
   xmlns:svg="http://www.w3.org/2000/svg"><sodipodi:namedview
     id="namedview1"
     pagecolor="#505050"
     bordercolor="#ffffff"
     borderopacity="1"
     inkscape:showpageshadow="0"
     inkscape:pageopacity="0"
     inkscape:pagecheckerboard="1"
     inkscape:deskcolor="#505050"
     inkscape:document-units="mm"
     inkscape:zoom="0.70710678"
     inkscape:cx="138.59293"
     inkscape:cy="606.69762"
     inkscape:window-width="2560"
     inkscape:window-height="1351"
     inkscape:window-x="-9"
     inkscape:window-y="-9"
     inkscape:window-maximized="1"
     inkscape:current-layer="layer1"
     showguides="true" /><defs
     id="defs1"><rect
       x="101.82338"
       y="91.923882"
       width="384.66608"
       height="299.81326"
       id="rect3" /><rect
       x="2.8284271"
       y="2.1213202"
       width="662.55902"
       height="647.00269"
       id="rect2" /></defs><g
     inkscape:label="Icon"
     inkscape:groupmode="layer"
     id="layer1"><path
       style="fill:#000000;stroke-width:3.27083"
       d="m 66.97334,227.82771 c -0.825912,-0.32942 -1.088002,-5.17673 -1.088002,-20.12222 0,-18.58455 0.09442,-19.73816 1.683601,-20.57895 2.248739,-1.18973 37.033641,-1.18973 39.282381,0 1.58711,0.83969 1.6836,1.98839 1.6836,20.04835 0,13.7531 -0.29476,19.44891 -1.04448,20.19015 -0.7536,0.74496 -6.38974,1.01361 -20.236809,0.96461 -10.555749,-0.0374 -19.681896,-0.2631 -20.280291,-0.50194 z m 1.520267,-60.09493 c -1.544743,-1.83999 -0.645241,-24.1437 1.249098,-30.97246 3.688014,-13.29477 9.314186,-21.01453 24.462121,-33.56505 16.198514,-13.420921 19.930864,-19.496148 19.885404,-32.367523 -0.0197,-5.377788 -0.45381,-7.431959 -2.40937,-11.383324 -4.01882,-8.120228 -11.63655,-12.600509 -21.424327,-12.600509 -14.642047,0 -23.53219,9.218745 -26.238822,27.208653 -0.654188,4.348051 -1.417333,6.628177 -2.376774,7.101028 -1.458124,0.718708 -26.771982,-0.327386 -34.488329,-1.425221 L 22.800602,79.109213 22.940743,72.10012 C 23.200299,59.121557 29.501715,42.496057 37.650032,33.291914 l 3.999153,-4.517323 h 7.289344 7.289376 l 0.259229,-5.317202 0.259228,-5.317203 6.527976,-2.351573 c 9.317508,-3.35643 18.708278,-4.549322 31.431119,-3.992633 32.622613,1.4274 55.546023,18.390076 61.358553,45.403538 1.99454,9.269575 1.28551,24.179738 -1.53291,32.236355 l -2.10707,6.023135 -5.84208,0.25431 -5.84207,0.254309 v 7.646303 7.64627 l -7.18079,6.27127 c -3.94945,3.44921 -10.55861,9.61455 -14.68706,13.70081 -9.33191,9.23656 -11.15523,13.30458 -11.85908,26.45905 -0.32174,6.01084 -0.87632,9.28132 -1.71479,10.1102 -1.87595,1.8545 -35.242045,1.79199 -36.804355,-0.0689 z"
       id="path1" /></g></svg>
