<?xml version="1.0" encoding="UTF-8" standalone="no"?>
<!-- Created with Inkscape (http://www.inkscape.org/) -->

<svg
   width="180"
   height="180"
   viewBox="0 0 180 180"
   version="1.1"
   id="svg1"
   xml:space="preserve"
   inkscape:version="1.4.2 (f4327f4, 2025-05-13)"
   sodipodi:docname="food_berry_black_rasp_berry.svg"
   xmlns:inkscape="http://www.inkscape.org/namespaces/inkscape"
   xmlns:sodipodi="http://sodipodi.sourceforge.net/DTD/sodipodi-0.dtd"
   xmlns="http://www.w3.org/2000/svg"
   xmlns:svg="http://www.w3.org/2000/svg"><sodipodi:namedview
     id="namedview1"
     pagecolor="#505050"
     bordercolor="#ffffff"
     borderopacity="1"
     inkscape:showpageshadow="0"
     inkscape:pageopacity="0"
     inkscape:pagecheckerboard="1"
     inkscape:deskcolor="#505050"
     inkscape:document-units="px"
     inkscape:zoom="2.192031"
     inkscape:cx="-97.398258"
     inkscape:cy="62.499116"
     inkscape:window-width="2560"
     inkscape:window-height="1351"
     inkscape:window-x="-9"
     inkscape:window-y="-9"
     inkscape:window-maximized="1"
     inkscape:current-layer="layer1" /><defs
     id="defs1" /><g
     inkscape:label="Warstwa 1"
     inkscape:groupmode="layer"
     id="layer1"><path
       style="fill:#000000;stroke-width:0.881764"
       d="m 80.694696,174.83426 c -2.35592,-1.12624 -5.166391,-3.078 -6.245484,-4.33722 -1.755226,-2.04823 -2.486821,-2.26719 -6.94237,-2.07774 -3.335008,0.14181 -6.29869,-0.32351 -8.970704,-1.40844 -6.374048,-2.58808 -11.75247,-9.56841 -11.75247,-15.25285 0,-2.06601 -0.679935,-2.76858 -4.36324,-4.50848 -6.192047,-2.92495 -9.676362,-7.77445 -10.180272,-14.16902 -0.217929,-2.76555 0.03304,-6.15853 0.55765,-7.53995 0.898021,-2.3646 0.740485,-2.64132 -2.689897,-4.72508 -4.338952,-2.63567 -6.764975,-6.04846 -8.198364,-11.53299 -1.373529,-5.2555 0.592916,-11.987139 4.507247,-15.429446 l 2.709353,-2.382639 -1.735044,-3.507467 c -4.437862,-8.971312 0.83138,-21.808252 9.799837,-23.874403 1.226467,-0.28256 2.229934,-0.711563 2.229934,-0.953362 0,-0.241788 -1.435037,-1.897639 -3.188976,-3.679669 -1.753928,-1.782022 -4.274665,-5.206682 -5.601633,-7.610346 -2.519356,-4.563572 -4.044477,-12.837506 -2.525191,-13.699392 0.484158,-0.274661 3.331822,1.194837 6.328131,3.265551 4.61501,3.189367 17.714282,8.82991 20.506097,8.82991 0.513795,0 0.491219,-1.425745 -0.05687,-3.590383 -1.861369,-7.351678 0.858649,-21.753501 4.108516,-21.753501 0.691356,0 1.95022,1.334331 2.797476,2.965175 2.183612,4.203182 8.248026,9.986978 15.043408,14.347334 6.655738,4.27074 5.826136,4.946214 7.646918,-6.226308 1.593107,-9.775466 5.419811,-19.246826 10.622961,-26.2925332 3.47721,-4.7085825 5.275321,-6.400743 7.000631,-6.58815 2.75072,-0.2987909 11.24017,4.603677 11.68442,6.747494 0.16259,0.7845962 -1.66243,3.6331472 -4.05561,6.3301122 -6.42823,7.244229 -12.328291,20.219274 -12.328291,27.111535 v 1.988557 L 101.02679,43.411 c 6.00438,-3.097623 12.90254,-9.181718 15.8553,-13.98419 4.3228,-7.030814 6.08785,-5.941204 8.17209,5.044853 0.73687,3.88406 0.74604,6.758006 0.0329,10.299121 -0.54406,2.701447 -0.85116,5.038424 -0.68246,5.193274 0.47838,0.439108 9.91076,-2.685362 14.45826,-4.789293 2.25351,-1.042605 5.78315,-3.149906 7.84364,-4.682907 4.89346,-3.640717 6.41575,-2.905736 5.58498,2.696487 -0.74872,5.048967 -4.09228,11.485452 -8.32332,16.022683 l -3.19596,3.427237 4.73269,2.883044 c 8.22607,5.011128 11.22749,14.269781 7.23342,22.313347 l -1.67795,3.379185 2.99861,3.085069 c 7.10289,7.30771 5.50382,20.44277 -3.13964,25.78942 -1.64202,1.01572 -3.47845,1.99759 -4.08097,2.18195 -0.84084,0.25726 -0.83058,0.86889 0.0441,2.63103 0.62679,1.26273 1.13961,4.19097 1.13961,6.50723 0,7.53187 -4.04023,13.50757 -11.11156,16.43454 -3.06682,1.2694 -3.61708,1.89219 -3.63423,4.11319 -0.0477,6.17474 -6.35511,13.60022 -13.35322,15.72021 -1.87411,0.56774 -5.42737,0.85409 -7.89614,0.63634 -4.20183,-0.3706 -4.63452,-0.22041 -6.77032,2.34989 -5.19475,6.25159 -16.274514,8.13335 -24.56195,4.17155 z m -6.488574,-16.73765 0.272137,-5.63505 h 3.502271 c 1.946309,0 5.380705,-0.91678 7.730375,-2.06356 l 4.228105,-2.06354 4.882379,2.47063 c 2.68531,1.35887 6.021311,2.47754 7.413341,2.48596 2.49975,0.0152 2.53096,0.083 2.53096,5.50647 0,4.25924 0.30246,5.49118 1.34815,5.49118 2.07698,0 3.41138,-3.09947 3.13168,-7.27422 l -0.2533,-3.78081 4.66699,-1.98474 c 9.04334,-3.84589 12.25311,-11.19615 9.15753,-20.9704 -0.8166,-2.57845 -1.48474,-4.86957 -1.48474,-5.09138 0,-0.22181 1.83911,-0.82838 4.08693,-1.34792 2.24782,-0.51954 4.34375,-1.32601 4.65761,-1.79216 0.37865,-0.56235 1.18307,-0.5467 2.39068,0.0466 2.67786,1.3155 9.57264,0.68315 9.57264,-0.87795 0,-0.69059 -0.82833,-1.37066 -1.84071,-1.51128 -5.74143,-0.79744 -6.07358,-0.9891 -4.97618,-2.87129 1.09133,-1.87175 0.73735,-15.11398 -0.47313,-17.701226 -0.53352,-1.1403 0.2092,-1.47248 4.35552,-1.948002 4.74891,-0.544632 8.91677,-2.770595 8.91677,-4.762252 0,-1.525194 -2.38184,-1.710653 -5.12243,-0.398827 -2.30816,1.104832 -12.36421,1.908427 -12.36421,0.988039 0,-0.173251 0.87383,-2.128253 1.94182,-4.344449 4.02714,-8.356656 0.4178,-19.965549 -7.46393,-24.006487 -5.23235,-2.682634 -14.38639,-2.956982 -19.23239,-0.576414 -3.0814,1.513731 -3.18047,1.507616 -6.902621,-0.426258 -4.689056,-2.43624 -12.064315,-2.625458 -18.216926,-0.467358 -3.994454,1.401102 -4.632442,1.415759 -8.545389,0.19633 -5.381111,-1.676953 -10.071995,-1.670372 -15.482187,0.02171 -3.469443,1.085116 -4.895671,1.153933 -7.508756,0.362334 -1.774194,-0.537469 -3.648053,-0.737668 -4.164149,-0.444895 -1.592785,0.903585 -1.036765,3.10155 0.902356,3.567016 2.059265,0.494299 2.38483,1.941781 0.770113,3.42395 -0.588831,0.540485 -1.23996,3.9429 -1.446956,7.560926 -0.297825,5.205346 -0.02632,7.195306 1.300676,9.535003 0.922374,1.626232 1.544704,3.812142 1.382943,4.857578 -0.244333,1.579161 -0.867263,1.899913 -3.681397,1.895587 -1.863009,-0.0025 -4.573567,-0.573092 -6.023459,-1.267194 -3.168423,-1.516789 -4.851567,-1.598549 -5.740147,-0.278825 -1.017234,1.510808 3.659348,4.692674 7.852958,5.343018 3.264287,0.50622 3.612058,0.77055 2.814216,2.138936 -1.377939,2.36334 -1.090099,10.62455 0.491229,14.09851 1.633473,3.58851 0.885624,4.43607 -3.932535,4.45691 -2.315462,0.01 -2.991137,0.37392 -2.991137,1.61095 0,2.05325 3.082095,2.76768 7.754647,1.79751 2.958978,-0.61436 4.008149,-0.46492 5.795403,0.82553 1.200283,0.86664 3.373413,1.81583 4.829167,2.10931 2.623069,0.52883 2.635072,0.55944 1.337306,3.41047 -1.665926,3.6598 -1.669257,8.10867 -0.0093,11.75645 1.275816,2.80279 1.249955,2.8768 -1.350004,3.86534 -3.868038,1.47066 -4.895902,2.89192 -3.087682,4.26942 1.25624,0.95699 1.926337,0.90196 4.310476,-0.35402 2.781895,-1.46552 2.850838,-1.45693 4.736229,0.58894 2.195264,2.38216 5.186346,3.9254 7.604914,3.92373 1.451621,-8.4e-4 1.62947,0.61304 1.354056,4.67482 -0.317826,4.68727 0.912443,7.53128 2.986156,6.90308 0.562895,-0.17052 1.133116,-2.8083 1.284439,-5.9417 z m 22.736607,-10.98145 c -2.611461,-1.37576 -3.59826,-2.41521 -3.395322,-3.57649 0.157333,-0.90038 0.489505,-3.72794 0.738139,-6.28344 0.676093,-6.94889 1.166343,-8.44796 2.762733,-8.44796 1.3161,0 6.593941,-2.92261 7.717411,-4.27352 0.2531,-0.30433 2.99509,-0.16336 6.09332,0.31326 l 5.63315,0.86658 1.49956,4.36668 c 3.09321,9.00726 1.42427,13.89992 -5.91356,17.33607 -4.77166,2.2345 -10.54012,2.1197 -15.135431,-0.30118 z m -31.956183,-0.35598 c -2.331973,-2.4455 -5.317982,-9.52598 -5.317982,-12.61008 0,-1.59024 0.631875,-4.01295 1.404158,-5.38379 1.127815,-2.00192 2.006437,-2.49244 4.464413,-2.49244 1.683136,0 4.392866,-0.42641 6.021628,-0.94759 2.583329,-0.82662 3.518082,-0.66946 7.322384,1.23113 2.398569,1.19828 6.024747,2.4229 8.058196,2.72137 l 3.697162,0.54268 -0.335495,4.77338 c -0.709091,10.08876 -5.02474,13.64374 -16.563099,13.64374 -5.841394,0 -7.629688,-0.3021 -8.751365,-1.4784 z m 6.02968,-12.86711 c 1.255191,-1.95044 1.396419,-2.90302 0.626224,-4.22399 -0.546945,-0.93809 -1.571056,-1.70561 -2.275794,-1.70561 -1.632637,0 -5.096345,4.00087 -5.096345,5.8867 0,3.51567 4.492641,3.54425 6.745915,0.043 z m 10.722681,-10.78719 c -6.035506,-2.83273 -8.317899,-5.55825 -8.947382,-10.68455 -0.538736,-4.38724 1.491068,-10.37227 4.312621,-12.716116 1.441443,-1.19739 2.302023,-1.28421 5.258933,-0.53056 4.445491,1.133066 14.1587,1.176216 17.30875,0.0769 2.207281,-0.77032 2.596381,-0.53313 5.121851,3.122166 1.50318,2.17572 2.73076,5.11692 2.72793,6.53604 -0.008,4.34354 -1.72686,8.693 -3.61297,9.14574 -0.96142,0.23078 -1.88667,1.27632 -2.0561,2.32344 -0.42152,2.60494 -5.719831,5.05014 -10.942783,5.05014 -2.791181,0 -5.897692,-0.78696 -9.17085,-2.32319 z m 2.36076,-14.11193 c 2.603983,-2.39022 2.842343,-4.02867 0.851886,-5.85573 -1.991131,-1.82768 -5.928441,-0.34314 -7.855397,2.96183 -0.665936,1.14217 -0.3887,1.92663 1.144142,3.23747 2.579712,2.20606 3.115973,2.17461 5.859369,-0.34357 z M 55.987164,121.1021 C 49.97511,118.90805 45.05457,110.64217 46.25733,104.75724 c 0.812521,-3.97557 5.797807,-8.315226 8.809485,-7.66861 1.265481,0.271703 5.670983,0.727604 9.789998,1.013134 l 7.489125,0.51912 -1.899703,2.955436 c -2.450734,3.8127 -2.733521,12.89092 -0.524166,16.82718 1.311332,2.33633 1.331718,2.75344 0.154811,3.16799 -2.164764,0.76251 -11.572991,0.44908 -14.089716,-0.46939 z m 1.790808,-14.62675 c 0.602709,-0.66661 0.964038,-2.47236 0.80295,-4.01278 -0.259962,-2.485956 -0.601845,-2.800766 -3.041526,-2.800766 -2.094761,0 -3.038922,0.555896 -3.968806,2.336776 -1.729593,3.31243 -0.674744,5.68878 2.52521,5.68878 1.422483,0 3.079464,-0.54541 3.682172,-1.21201 z m 52.061408,13.90141 c -0.30638,-0.45504 -0.12375,-1.57051 0.40585,-2.47885 1.69856,-2.91324 1.17101,-12.85785 -0.87778,-16.54652 -1.01239,-1.822716 -1.84071,-3.331506 -1.84071,-3.352876 0,-0.0214 3.31865,0.0995 7.3748,0.26858 5.65141,0.23558 7.90207,-0.01 9.63127,-1.049735 1.24109,-0.746427 2.50146,-1.357139 2.80083,-1.357139 1.55017,0 4.10677,7.88826 4.22864,13.04727 0.1259,5.32895 -0.04,5.82636 -2.67962,8.03945 -1.54759,1.29748 -4.14848,2.78612 -5.77974,3.30811 -3.65081,1.16819 -12.50423,1.24944 -13.26354,0.12171 z M 87.279052,95.889264 c -7.201239,-1.112571 -9.896215,-2.479325 -12.269557,-6.222507 -3.119977,-4.920743 -3.582785,-7.886121 -2.04927,-13.13043 2.237968,-7.65338 7.334109,-11.102522 16.360061,-11.072717 9.469873,0.03126 17.213124,6.980051 17.265894,15.494422 0.0222,3.57081 -4.76584,12.791574 -7.284691,14.028956 -2.42768,1.19259 -7.620727,1.582328 -12.022437,0.902276 z m -1.59919,-20.523731 c 2.215548,-3.933422 1.596807,-5.693994 -2.001135,-5.693994 -3.177276,0 -5.603171,2.580701 -5.603171,5.960746 0,2.80202 0.754918,3.471386 3.56341,3.159597 1.532079,-0.170091 2.823596,-1.265183 4.040896,-3.426349 z M 57.178171,93.05036 c -1.622816,-0.545451 -3.452507,-1.454714 -4.065995,-2.020583 -1.986592,-1.832422 -3.539407,-7.297425 -3.553598,-12.506599 -0.01205,-4.420877 0.349392,-5.492003 2.758416,-8.174645 3.31162,-3.687763 7.906467,-5.271494 13.172771,-4.540348 6.034116,0.83775 6.242335,1.150646 4.264947,6.409164 -2.33397,6.206777 -2.318839,13.069292 0.03773,17.105145 1.012386,1.733826 1.840701,3.533951 1.840701,4.000271 0,1.163089 -10.789001,0.959764 -14.454938,-0.272405 z m 2.648011,-16.328989 c 2.068081,-1.717943 2.232492,-6.064546 0.255729,-6.760827 -2.133186,-0.751387 -5.935445,2.946057 -5.935445,5.771825 0,1.886691 0.418925,2.387131 1.998318,2.387131 1.099082,0 2.755711,-0.629162 3.681398,-1.398129 z m 47.950638,16.895881 c -0.81272,-0.301947 -0.45823,-1.637663 1.2612,-4.752266 2.02276,-3.663998 2.31698,-5.08857 1.90734,-9.235151 -0.27529,-2.786779 -1.33932,-6.233032 -2.46532,-7.98476 -1.8137,-2.821644 -1.85693,-3.195584 -0.51215,-4.428496 2.1209,-1.944417 10.32758,-1.713265 14.34343,0.403998 4.16025,2.193395 7.30382,7.903879 7.30382,13.267853 0,4.700657 -0.92174,6.685632 -4.89273,10.53661 -2.69125,2.609922 -3.15194,2.742293 -9.32314,2.678891 -3.57059,-0.03666 -7.00071,-0.255686 -7.62245,-0.486679 z M 39.133207,79.145362 c 1.478275,-0.862799 3.235821,-5.273369 2.654988,-6.662721 -1.172912,-2.805653 -7.889421,0.546549 -7.889421,3.937603 0,2.620709 2.861183,4.110288 5.234433,2.725118 z"
       id="path2" /></g></svg>
