<?xml version="1.0" encoding="UTF-8" standalone="no"?>
<!-- Created with Inkscape (http://www.inkscape.org/) -->

<svg
   width="180"
   height="180"
   viewBox="0 0 180 180"
   version="1.1"
   id="svg1"
   xml:space="preserve"
   inkscape:version="1.4.2 (f4327f4, 2025-05-13)"
   sodipodi:docname="food_berry_blueberry.svg"
   xmlns:inkscape="http://www.inkscape.org/namespaces/inkscape"
   xmlns:sodipodi="http://sodipodi.sourceforge.net/DTD/sodipodi-0.dtd"
   xmlns="http://www.w3.org/2000/svg"
   xmlns:svg="http://www.w3.org/2000/svg"><sodipodi:namedview
     id="namedview1"
     pagecolor="#505050"
     bordercolor="#ffffff"
     borderopacity="1"
     inkscape:showpageshadow="0"
     inkscape:pageopacity="0"
     inkscape:pagecheckerboard="1"
     inkscape:deskcolor="#505050"
     inkscape:document-units="px"
     inkscape:zoom="2.192031"
     inkscape:cx="-113.36519"
     inkscape:cy="40.145418"
     inkscape:window-width="2560"
     inkscape:window-height="1351"
     inkscape:window-x="-9"
     inkscape:window-y="-9"
     inkscape:window-maximized="1"
     inkscape:current-layer="layer1" /><defs
     id="defs1" /><g
     inkscape:label="Warstwa 1"
     inkscape:groupmode="layer"
     id="layer1"><path
       style="fill:#000000;stroke-width:0.865964"
       d="m 77.651789,174.96826 c -2.672691,-0.42093 -7.79408,-2.09994 -11.380867,-3.73112 -7.902207,-3.59372 -16.351886,-11.43693 -19.965921,-18.53289 l -2.434879,-4.78073 h -4.341864 c -5.348104,0 -13.97184,-2.70758 -18.81139,-5.90616 C 3.9684449,130.94789 -1.310557,110.44293 8.1435783,93.17956 13.68626,83.058549 23.163234,76.49952 36.21928,73.748301 c 2.185502,-0.460536 2.326647,-0.819963 2.779282,-7.077455 0.66288,-9.163979 4.010936,-16.845423 10.092752,-23.155847 8.856123,-9.189002 17.79052,-13.049546 30.327543,-13.104505 8.567057,-0.03756 13.791969,1.395483 21.639923,5.935187 2.79411,1.61627 5.22509,2.938672 5.4022,2.938672 0.1771,0 1.57398,-2.382497 3.10418,-5.294437 4.3156,-8.21252 12.68983,-15.697894 22.8703,-20.442802 9.96178,-4.6429884 23.69503,-8.090786 35.04298,-8.797708 l 8.09975,-0.504573 0.64086,4.1052678 c 0.35247,2.2578982 0.40318,8.7095352 0.1127,14.3369722 -0.9029,17.491229 -5.70065,30.992294 -14.26533,40.143172 l -4.10709,4.388194 5.76774,5.432614 c 20.74282,19.537591 15.3474,51.609957 -10.76797,64.008637 -6.13966,2.9149 -7.39428,3.19353 -15.71169,3.4893 l -9.03921,0.32143 -0.5267,3.16403 c -1.0026,6.02309 -6.41269,14.83709 -12.42126,20.23648 -6.60854,5.93855 -12.72385,9.03559 -21.278476,10.7763 -6.849158,1.39368 -9.223064,1.44034 -16.329975,0.32103 z m 16.255122,-23.97114 c -0.536439,-5.3049 -0.532949,-5.31521 3.199966,-9.45842 4.169233,-4.62748 4.230203,-4.51117 -3.327204,-6.34727 -3.044686,-0.73973 -4.430668,-1.79446 -7.355167,-5.59733 -1.981935,-2.57721 -3.939635,-4.56804 -4.350425,-4.42407 -0.410799,0.14399 -2.070854,2.16936 -3.689012,4.50083 -2.664668,3.83929 -3.435349,4.35953 -8.172497,5.51683 -2.876709,0.70278 -5.407363,1.79148 -5.623687,2.41933 -0.216316,0.62785 1.301923,2.80084 3.373882,4.82888 l 3.767195,3.68734 -0.559674,5.14386 c -0.64453,5.92368 -0.593444,5.9519 6.249484,3.45345 l 4.627423,-1.68952 5.533222,2.00836 c 3.043272,1.1046 5.832536,1.84188 6.198372,1.63839 0.365827,-0.20348 0.423488,-2.75979 0.128122,-5.68066 z M 45.996162,136.02159 c -0.267853,-7.42502 0.645183,-13.19388 3.019336,-19.07721 2.571164,-6.37155 9.786812,-13.38978 17.689858,-17.205867 9.700959,-4.684235 24.972706,-4.589805 35.516174,0.219587 12.95357,5.90876 19.45146,14.7746 21.73676,29.65805 1.02186,6.65516 2.05952,8.3577 3.80376,6.24103 1.43756,-1.74452 -0.3295,-13.49556 -2.99912,-19.9443 -3.11188,-7.51707 -10.45058,-14.69068 -19.72158,-19.277933 -3.64458,-1.803319 -6.721629,-3.346221 -6.837889,-3.428677 -0.46453,-0.329449 2.865319,-7.823657 4.537269,-10.211631 3.53828,-5.053613 12.5362,-13.399723 15.99541,-14.836716 5.12544,-2.129166 12.36497,-2.757998 19.43774,-1.688384 12.73366,1.925706 14.26888,1.973456 14.87242,0.462577 0.31232,-0.781824 0.0781,-1.567178 -0.52988,-1.777051 -4.75505,-1.64133 -13.95936,-2.930933 -20.96904,-2.937947 l -8.39358,-0.0084 7.36252,-7.430654 c 15.27401,-15.415365 27.01991,-29.478509 26.24384,-31.421267 -0.67117,-1.680173 -2.89927,0.292807 -14.63233,12.956956 -10.74485,11.597504 -23.2933,24.189187 -24.10615,24.189187 -0.33597,0 -0.61085,-0.449524 -0.61085,-0.998943 0,-0.549419 -1.60173,-4.177798 -3.55939,-8.063062 -3.27562,-6.500957 -3.76868,-7.06412 -6.18474,-7.06412 -2.59355,0 -3.47541,1.092623 -1.72204,2.133597 1.0921,0.648386 5.31625,8.662877 7.46266,14.158935 l 1.55658,3.985752 -5.55557,4.926052 c -7.39318,6.555456 -12.507873,13.363677 -14.003688,18.64045 l -1.224313,4.319026 -8.34529,-0.255717 -8.34529,-0.255719 -2.518232,-3.24416 C 68.663118,80.658108 59.42127,75.312017 49.746367,74.193127 c -6.075597,-0.702632 -7.435949,-0.482426 -7.435949,1.203688 0,1.713647 2.884749,2.919211 7.697669,3.216916 6.210849,0.384184 11.473576,3.053371 17.803604,9.029781 l 5.621752,5.307702 -4.415127,1.435811 c -7.121692,2.316002 -15.442252,8.029085 -18.9669,13.023105 -7.080132,10.03172 -9.075293,16.60035 -8.334176,27.43848 0.607227,8.8802 0.942996,9.9069 3.105279,9.49521 1.26447,-0.24075 1.424293,-1.37404 1.173643,-8.32223 z M 118.29436,62.624797 c 0,-0.735601 0.5261,-1.025905 1.32531,-0.731299 0.72891,0.268696 1.3253,0.597781 1.3253,0.731299 0,0.133517 -0.59639,0.462602 -1.3253,0.7313 -0.79921,0.294605 -1.32531,0.0043 -1.32531,-0.7313 z M 68.153911,113.96341 c 3.367829,-3.17131 9.85343,-5.93083 13.938971,-5.93083 0.808381,0 2.182657,-0.75671 3.053954,-1.68156 2.227275,-2.36422 0.424591,-4.25965 -4.051216,-4.25965 -8.77521,0 -22.670517,9.30922 -20.817879,13.94701 0.919195,2.30106 4.126211,1.45616 7.87617,-2.07497 z m -48.00573,-7.96718 c 0.564322,-0.65318 2.10397,-3.23124 3.421443,-5.72903 1.868418,-3.542289 3.323547,-5.022207 6.61419,-6.726831 5.770185,-2.989078 6.320415,-3.612269 5.109099,-5.78652 -3.813723,-6.845404 -20.279692,5.841332 -20.352653,15.681361 -0.01069,1.43934 0.245658,2.87159 0.569623,3.18279 1.005533,0.96595 3.562764,0.62314 4.638298,-0.62177 z m 137.553959,-4.82555 c -0.47256,-2.83882 -0.1765,-3.653216 2.3217,-6.386447 2.70536,-2.95992 2.7712,-3.184218 1.19361,-4.06619 -3.12229,-1.745551 -7.58172,-5.773484 -7.58172,-6.84812 0,-0.588909 -0.845,-2.102677 -1.87778,-3.363952 l -1.87779,-2.293212 -2.319,2.035151 c -1.59365,1.398593 -3.56243,2.105156 -6.29435,2.258939 -4.40016,0.247698 -5.79488,1.408456 -3.89049,3.237855 2.55843,2.457688 3.44817,5.021803 3.44817,9.937249 v 5.048627 l 4.4474,-0.22153 c 3.81534,-0.19005 4.92902,0.14614 7.83618,2.36549 4.08123,3.11565 5.31987,2.65625 4.59407,-1.70386 z M 68.458739,59.229823 c 2.470573,-1.610561 4.396157,-2.121858 7.991046,-2.121858 5.064489,0 5.765573,-0.810062 3.782189,-4.37012 -0.73738,-1.32354 -0.637081,-2.048655 0.441767,-3.193821 2.429057,-2.578394 1.752013,-3.674318 -1.917534,-3.10386 -2.181482,0.339128 -4.177713,0.07469 -5.84397,-0.774142 -3.522713,-1.794562 -3.800089,-1.705446 -6.237796,2.004069 -1.257463,1.913507 -3.298039,3.67298 -4.870518,4.199566 -3.176624,1.063769 -3.400263,2.15401 -0.858619,4.185685 1.016251,0.812347 2.199179,2.336347 2.628736,3.386667 0.967752,2.366316 0.926571,2.368104 4.884699,-0.212186 z"
       id="path1" /></g></svg>
