<?xml version="1.0" encoding="UTF-8" standalone="no"?>
<!-- Created with Inkscape (http://www.inkscape.org/) -->

<svg
   width="180"
   height="180"
   viewBox="0 0 180 180"
   version="1.1"
   id="svg1"
   xml:space="preserve"
   inkscape:version="1.4.2 (f4327f4, 2025-05-13)"
   sodipodi:docname="food_berry_cloudberry.svg"
   xmlns:inkscape="http://www.inkscape.org/namespaces/inkscape"
   xmlns:sodipodi="http://sodipodi.sourceforge.net/DTD/sodipodi-0.dtd"
   xmlns="http://www.w3.org/2000/svg"
   xmlns:svg="http://www.w3.org/2000/svg"><sodipodi:namedview
     id="namedview1"
     pagecolor="#505050"
     bordercolor="#ffffff"
     borderopacity="1"
     inkscape:showpageshadow="0"
     inkscape:pageopacity="0"
     inkscape:pagecheckerboard="1"
     inkscape:deskcolor="#505050"
     inkscape:document-units="px"
     inkscape:zoom="2.192031"
     inkscape:cx="-113.36519"
     inkscape:cy="40.145418"
     inkscape:window-width="2560"
     inkscape:window-height="1351"
     inkscape:window-x="-9"
     inkscape:window-y="-9"
     inkscape:window-maximized="1"
     inkscape:current-layer="layer1" /><defs
     id="defs1" /><g
     inkscape:label="Warstwa 1"
     inkscape:groupmode="layer"
     id="layer1"><path
       style="fill:#000000;stroke-width:0.902152"
       d="m 91.395728,176.99029 c -2.676814,-0.82508 -4.644985,-6.85258 -6.884734,-21.08437 -0.82683,-5.25382 -1.632682,-9.71666 -1.790778,-9.91744 -0.158097,-0.20077 -2.317277,1.56575 -4.798179,3.9256 -2.480893,2.35985 -7.217379,5.59453 -10.525513,7.18818 -5.637829,2.71594 -6.631532,2.89642 -15.85556,2.8798 -8.566084,-0.0155 -10.56519,-0.32587 -15.433462,-2.39662 -6.399513,-2.72207 -12.17106,-6.95466 -15.621054,-11.45577 -3.12413,-4.07597 -2.443623,-5.68952 2.399537,-5.68952 2.889472,0 4.627128,-0.66276 7.209658,-2.74982 3.784607,-3.05851 6.672756,-4.0716 9.479557,-3.32519 1.362087,0.36222 2.881332,-0.49955 5.576995,-3.16348 3.232513,-3.19447 3.419747,-3.58104 1.468385,-3.03173 -1.230096,0.34628 -6.188607,0.84112 -11.018911,1.09965 -8.714438,0.46642 -8.83377,0.44422 -15.426225,-2.86906 -7.613076,-3.82625 -11.6868936,-8.45162 -14.7554236,-16.75316 -2.135813,-5.77819 -3.284401,-14.179616 -2.045037,-14.958556 0.448587,-0.28193 3.358117,1.13129 6.465625,3.14048 3.1075086,2.00919 7.7226846,4.375856 10.2559576,5.259266 5.161258,1.79983 13.104788,3.20122 13.104788,2.31193 0,-0.31933 -1.27472,-1.87689 -2.83271,-3.46125 -8.174984,-8.313286 -10.776605,-23.283597 -5.832309,-33.560365 1.371767,-2.851233 3.712438,-6.226547 5.201489,-7.500697 2.571053,-2.200004 2.6541,-2.480736 1.649509,-5.576171 -0.584792,-1.801902 -0.903015,-6.175126 -0.711612,-9.779332 0.880766,-16.585521 13.458097,-29.718456 28.461196,-29.718456 5.503718,0 6.064624,-0.183141 7.206591,-2.353024 C 69.727827,7.0205271 79.393625,2.6071081 90.05453,2.6246961 c 6.428194,0.01061 7.870064,0.352733 13.41923,3.18413 4.16173,2.123471 7.10449,4.3839689 8.90103,6.8373529 l 2.68385,3.665106 5.59273,-0.35961 c 4.74135,-0.304866 6.36979,0.027 10.69728,2.18007 6.24113,3.105163 11.92696,8.890485 14.95302,15.214673 2.95252,6.170511 3.90535,15.959624 2.07257,21.293193 l -1.30922,3.809974 3.08578,3.013161 c 5.57382,5.442652 6.94958,9.189768 6.95161,18.93381 0.002,9.894074 -1.5738,14.523608 -7.0369,20.672924 -4.5561,5.12839 -3.91386,5.39982 6.59273,2.78627 4.75198,-1.18208 9.73108,-3.59224 14.99233,-7.257126 4.84924,-3.3779 5.94424,-2.70914 5.32897,3.25457 -1.15902,11.234266 -7.59678,21.335866 -16.86742,26.466956 -3.87572,2.14512 -6.16029,2.7161 -12.14563,3.03557 -4.08017,0.21777 -9.227,-0.0815 -11.52625,-0.67027 -2.28483,-0.58506 -4.36038,-0.85414 -4.61231,-0.59794 -0.25193,0.2562 1.02172,1.79808 2.83036,3.42642 2.56896,2.31287 3.95216,2.90244 6.32223,2.6948 3.29583,-0.28875 6.02432,0.8398 9.2425,3.82289 1.30401,1.20875 3.7477,2.0878 6.6388,2.38813 2.51636,0.2614 4.73668,0.97304 4.93404,1.58144 0.55324,1.70539 -7.54029,9.9686 -12.70998,12.97644 -8.18448,4.7619 -20.71492,6.66659 -29.81487,4.532 -5.97518,-1.40161 -11.46356,-4.36761 -16.3514,-8.83656 -2.46459,-2.25336 -4.638119,-3.93731 -4.830076,-3.7421 -0.656442,0.66754 2.145906,13.67646 4.590586,21.31024 1.34305,4.1938 2.19334,7.87786 1.88954,8.18679 -0.87271,0.88748 -10.751019,1.30911 -13.173932,0.56229 z m 6.594611,-10.57876 c -1.229139,-3.93607 -2.73805,-10.46872 -3.353134,-14.517 l -1.118332,-7.3605 -3.320301,-0.28236 c -4.000039,-0.34016 -3.979132,-0.50082 -1.592227,12.23764 3.102534,16.55767 3.102078,16.55664 7.462629,16.87805 2.079667,0.15329 3.865578,0.26114 3.968686,0.23968 0.10311,-0.0215 -0.818183,-3.25944 -2.047321,-7.19551 z m 0.180641,-24.57027 c 0.456101,-1.20871 -1.18983,-5.50124 -5.944235,-15.50226 l -1.729953,-3.63901 5.571314,-1.24173 c 6.363884,-1.41839 9.391214,-1.51249 17.870234,-0.55547 10.96112,1.23718 19.35516,-3.98719 23.07143,-14.35942 1.11878,-3.12257 2.37419,-6.06633 2.78978,-6.54168 1.35434,-1.549056 0.79607,-11.012974 -0.95495,-16.188511 -1.81297,-5.35865 -3.75672,-8.945309 -6.65376,-12.277699 -1.56963,-1.805506 -1.63668,-2.324314 -0.5879,-4.548757 0.65109,-1.380949 1.22073,-3.329592 1.26589,-4.330318 0.0701,-1.554182 0.86483,-1.885833 5.4498,-2.274379 4.62219,-0.391698 5.3677,-0.707584 5.3677,-2.274378 0,-1.596532 -0.68519,-1.852693 -5.59135,-2.090351 l -5.59135,-0.270849 v -4.183744 c 0,-5.088288 -4.03104,-11.924819 -11.25308,-19.084871 -4.27158,-4.234913 -4.77383,-5.144795 -5.02178,-9.097514 -0.36118,-5.757587 -2.59441,-6.066267 -3.80214,-0.525537 l -0.84278,3.866444 -6.31414,0.01096 c -5.07438,0.0088 -7.078611,0.455375 -10.207572,2.274379 -4.439903,2.58111 -6.605051,2.833341 -8.14318,0.948651 -0.59016,-0.723123 -3.018897,-1.972023 -5.397196,-2.775335 -2.985527,-1.008408 -5.629669,-2.879842 -8.541168,-6.045133 -3.889339,-4.228367 -4.329722,-4.469922 -5.667994,-3.109 -1.338282,1.360923 -1.225382,1.655143 1.453096,3.786834 1.597263,1.271196 2.904108,2.645421 2.904108,3.053832 0,0.408413 -1.509663,1.025176 -3.354806,1.370585 -10.086106,1.888108 -15.972611,8.12432 -19.580361,20.743602 -1.162732,4.067028 -2.114057,8.746133 -2.114057,10.398011 0,3.219738 -0.915612,3.642035 -4.713163,2.173781 -2.508894,-0.970017 -4.704629,0.08705 -4.009164,1.930071 0.469431,1.244007 6.18773,3.448321 8.945435,3.448321 2.588498,0 2.38967,3.2894 -0.296359,4.902922 -3.693946,2.218986 -6.203977,6.297193 -7.5874,12.327718 -1.289141,5.619554 -0.88999,10.146604 1.757945,19.938145 2.354367,8.70595 9.884952,17.3866 16.70267,19.25348 3.869086,1.05946 15.653905,0.43879 17.847689,-0.93998 1.176732,-0.73956 10.54074,3.23661 11.813267,5.01618 0.831259,1.16249 0.173708,3.47178 -2.520936,8.85333 -2.760675,5.51343 -2.797873,7.24817 -0.142494,6.64401 1.107086,-0.25188 3.727915,-0.63441 5.824061,-0.85005 3.081895,-0.31706 3.986655,-0.0587 4.728211,1.35039 1.091216,2.07345 2.505477,2.25653 3.200638,0.41433 z m -10.398103,-2.66842 c 0,-0.19664 0.624781,-0.60134 1.388389,-0.89932 0.796145,-0.31068 1.155234,-0.15816 0.841815,0.35754 -0.525363,0.86445 -2.230204,1.27861 -2.230204,0.54178 z m -8.044818,-22.17869 c -3.047676,-1.57566 -5.02516,-3.22025 -5.207259,-4.33065 -0.161478,-0.98465 -1.213966,-2.60905 -2.338873,-3.60978 -5.889904,-5.23974 -5.304057,-22.514274 1.0551,-31.110996 3.045681,-4.117356 8.904239,-6.157627 17.730619,-6.174777 9.553854,-0.01856 13.426004,2.320371 15.940774,9.628887 0.9298,2.702208 2.03688,5.302025 2.46019,5.77737 1.65408,1.857424 0.76549,13.532026 -1.42297,18.695386 -3.25184,7.67229 -6.61722,10.52844 -13.770432,11.68673 -3.275258,0.53036 -6.760177,1.19242 -7.744254,1.47125 -1.043515,0.29567 -3.837147,-0.55182 -6.702895,-2.03342 z m 0.57157,-26.129837 c 8.634816,-10.751004 8.608881,-10.69544 5.725635,-12.264612 -2.605701,-1.418121 -7.569965,3.364552 -9.442251,9.096844 -2.255701,6.906189 -0.492772,8.408779 3.716616,3.167768 z m -24.30222,25.564247 c -2.945208,-1.30503 -7.722703,-6.40276 -9.694015,-10.34381 -3.187173,-6.371826 -5.232049,-20.590921 -3.250933,-22.60555 0.497719,-0.506143 1.806094,-2.711373 2.9075,-4.900509 2.724998,-5.416196 4.480859,-6.388814 7.106375,-3.936417 1.129201,1.054744 4.603412,3.21379 7.720476,4.797881 4.492685,2.283181 5.537542,3.199357 5.040932,4.4201 -3.936798,9.677319 -2.523611,20.579925 3.752087,28.947015 1.991029,2.65454 2.188462,3.35853 1.13244,4.03814 -1.908339,1.22809 -11.623627,0.95287 -14.714862,-0.41685 z M 51.703873,91.995886 c 0.456111,-0.625454 1.29203,-2.24092 1.857597,-3.589924 0.854769,-2.038803 0.758258,-2.791879 -0.571892,-4.462335 l -1.600207,-2.009602 -1.489775,2.162945 c -2.919864,4.239213 -1.156505,11.958964 1.804277,7.898916 z m 58.881687,24.554754 c -1.47611,-0.5806 -2.82027,-1.14258 -2.98702,-1.24884 -0.16675,-0.10625 0.73648,-1.74907 2.00717,-3.65071 4.91553,-7.35625 5.95306,-15.292756 3.57795,-27.36925 -0.49955,-2.540015 -0.30641,-2.843279 2.1619,-3.394585 1.49075,-0.332964 4.92379,-2.217136 7.62897,-4.18705 2.70519,-1.969912 5.12333,-3.58166 5.37366,-3.58166 0.25033,0 1.33012,1.249576 2.39953,2.776833 2.97276,4.245489 5.33647,11.702793 5.31551,16.769976 -0.0211,5.10896 -3.48951,16.070146 -5.96621,18.855156 -4.11487,4.6271 -14.03444,7.1844 -19.51146,5.03013 z M 63.170961,76.12742 C 61.694846,75.320551 59.078096,73.613603 57.355962,72.3342 55.633828,71.054798 54.113913,69.946908 53.978361,69.872222 53.842817,69.797532 53.106487,66.096484 52.342074,61.64766 51.0578,54.173321 51.068643,53.109706 52.484756,47.645507 54.521562,39.786306 59.68096,32.632565 64.285741,31.282898 c 10.520987,-3.083717 18.398583,-1.575572 23.855816,4.567129 3.875097,4.361842 4.51005,6.59173 4.524417,15.889361 0.01423,9.202026 -1.542987,14.840717 -4.25419,15.404504 -10.448514,2.172735 -11.490446,2.612743 -15.447284,6.523412 -4.401461,4.350109 -5.726833,4.683041 -9.793539,2.460116 z m 0.94449,-27.799599 c 1.841878,-2.626907 3.828111,-5.066923 4.41387,-5.422259 0.585749,-0.355336 1.999241,-1.415373 3.141101,-2.355637 l 2.076106,-1.709574 -1.828826,-1.85977 c -2.50749,-2.549915 -5.563235,-1.784006 -10.494953,2.630511 -4.352921,3.896424 -5.887955,8.212957 -4.117198,11.577626 1.571015,2.985132 3.186887,2.306289 6.8099,-2.860897 z m 41.660779,24.755623 c -2.1531,-1.979715 -5.47436,-4.074667 -7.380577,-4.655448 -3.949243,-1.20324 -3.95359,-1.221193 -2.069352,-8.537146 1.683997,-6.538441 1.068188,-14.271894 -1.655432,-20.789464 l -1.859708,-4.450241 1.977127,-1.628065 c 2.441234,-2.010236 10.116852,-3.065011 16.156812,-2.220248 3.85456,0.539106 5.20118,1.311583 9.01904,5.173684 2.46838,2.496977 4.48796,5.08911 4.48796,5.760295 0,0.671186 0.99977,2.428596 2.2217,3.905355 2.02105,2.442512 2.19694,3.332114 1.94743,9.849628 -0.38278,9.998723 -2.61381,13.817341 -10.56226,18.078333 -3.2702,1.753083 -6.49082,3.170633 -7.15692,3.150112 -0.6661,-0.02052 -2.97272,-1.657078 -5.12582,-3.636795 z M 48.807968,36.19022 c 4.516751,-5.638602 4.655551,-6.026922 2.73381,-7.648809 -1.0703,-0.903295 -1.89424,-0.898868 -4.080233,0.02192 -2.856613,1.203266 -7.10327,6.093285 -7.10327,8.1794 0,1.35088 2.575238,4.534519 3.667966,4.534519 0.388746,0 2.540519,-2.289162 4.781727,-5.087028 z M 84.25958,18.023322 c 1.265925,-0.654164 2.841656,-1.851012 3.501604,-2.659661 1.01385,-1.242276 0.971042,-1.703021 -0.276024,-2.97119 -2.207884,-2.245239 -7.287061,-1.909652 -9.975899,0.659116 -2.658116,2.539426 -2.774774,3.396652 -0.768975,5.650541 1.554045,1.746251 3.095664,1.607081 7.519294,-0.678806 z"
       id="path2" /></g></svg>
