<?xml version="1.0" encoding="UTF-8" standalone="no"?>
<!-- Created with Inkscape (http://www.inkscape.org/) -->

<svg
   width="180"
   height="180"
   viewBox="0 0 180 180"
   version="1.1"
   id="svg1"
   xml:space="preserve"
   inkscape:version="1.4.2 (f4327f4, 2025-05-13)"
   sodipodi:docname="raspberry.svg"
   xmlns:inkscape="http://www.inkscape.org/namespaces/inkscape"
   xmlns:sodipodi="http://sodipodi.sourceforge.net/DTD/sodipodi-0.dtd"
   xmlns="http://www.w3.org/2000/svg"
   xmlns:svg="http://www.w3.org/2000/svg"><sodipodi:namedview
     id="namedview1"
     pagecolor="#505050"
     bordercolor="#ffffff"
     borderopacity="1"
     inkscape:showpageshadow="0"
     inkscape:pageopacity="0"
     inkscape:pagecheckerboard="1"
     inkscape:deskcolor="#505050"
     inkscape:document-units="px"
     inkscape:zoom="2.192031"
     inkscape:cx="-97.626357"
     inkscape:cy="62.499116"
     inkscape:window-width="2560"
     inkscape:window-height="1351"
     inkscape:window-x="-9"
     inkscape:window-y="-9"
     inkscape:window-maximized="1"
     inkscape:current-layer="layer1" /><defs
     id="defs1" /><g
     inkscape:label="Warstwa 1"
     inkscape:groupmode="layer"
     id="layer1"><path
       style="fill:#000000;stroke-width:0.738071"
       d="m 84.491086,177.05051 c -1.891625,-0.50136 -4.674427,-1.63915 -6.184014,-2.52844 -2.699341,-1.59017 -7.399357,-6.16171 -7.372754,-7.17122 0.0076,-0.28345 1.733314,-1.58741 3.835208,-2.89767 l 3.821623,-2.38231 3.817902,1.20873 c 4.769825,1.51009 14.065827,1.12017 18.102549,-0.75932 l 2.75342,-1.28198 3.10547,2.37876 c 1.70801,1.30832 3.09631,2.72981 3.08512,3.15888 -0.0296,1.13268 -3.71732,4.98078 -6.78352,7.07837 -4.854115,3.32071 -12.583982,4.67962 -18.181004,3.1962 z M 52.862355,163.84717 c -7.336581,-2.56797 -13.692974,-11.52443 -13.692974,-19.29404 0,-3.69159 1.826262,-9.4766 3.76509,-11.9266 l 1.373639,-1.73579 3.856096,4.02161 c 4.193174,4.37315 8.825054,6.85075 14.094508,7.5392 2.06371,0.26961 3.370127,0.81084 3.370127,1.39619 0,2.48458 3.526471,9.48823 6.136447,12.18712 l 2.908371,3.00746 -1.687463,1.47039 c -4.67479,4.07345 -13.727251,5.57342 -20.123841,3.33446 z m 62.661475,0.12659 c -1.87107,-0.57545 -4.59261,-2.00233 -6.04788,-3.17084 l -2.64595,-2.12456 2.02476,-2.0464 c 2.38894,-2.41448 5.91308,-8.87529 5.91308,-10.84045 0,-2.10015 1.57748,-3.56386 4.9139,-4.55957 4.19569,-1.25212 8.85924,-4.57759 11.69174,-8.33707 2.08229,-2.76375 2.65334,-3.114 4.4215,-2.71187 2.99942,0.68214 3.7063,1.43562 5.40378,5.76009 5.3471,13.62216 -3.53424,27.85266 -17.97172,28.79593 -2.51384,0.16424 -5.71498,-0.15377 -7.70321,-0.76526 z m -31.60315,-4.63035 c -5.415638,-1.78293 -9.724569,-5.47854 -12.268827,-10.5225 -2.101569,-4.16634 -1.936976,-5.99444 0.591853,-6.57378 5.547959,-1.27099 11.53017,-5.15561 14.482879,-9.40463 l 2.10826,-3.03384 2.302759,3.11397 c 3.8295,5.17853 12.178806,9.77332 17.759366,9.77332 2.07811,0 2.21533,0.15533 1.75056,1.9816 -1.74303,6.84908 -7.70483,13.09683 -14.270945,14.95544 -4.916924,1.39179 -7.533523,1.33097 -12.455905,-0.28958 z M 32.360628,141.98229 C 21.33256,139.01983 14.098906,126.07247 17.311115,115.04549 l 0.812842,-2.79035 1.755434,3.6115 c 0.965483,1.98631 3.064209,4.99498 4.663827,6.68593 2.826203,2.98754 10.585939,7.17115 13.30319,7.17232 1.659197,7.1e-4 1.651418,0.16491 -0.168963,3.56606 -0.820568,1.53313 -1.715737,4.12149 -1.989268,5.75193 -0.576453,3.43615 -0.786775,3.62195 -3.327549,2.93941 z m 114.617442,-1.14673 c -0.25238,-0.6269 -0.46219,-1.68075 -0.46625,-2.3419 -0.004,-0.66115 -0.81235,-2.84984 -1.79618,-4.86375 l -1.78879,-3.66166 4.78636,-1.98752 c 5.55908,-2.30839 10.13517,-6.62325 12.76739,-12.03858 1.14406,-2.3537 1.95896,-3.30417 2.33528,-2.72377 1.01554,1.56623 1.28876,10.99612 0.40848,14.09841 -1.36868,4.82351 -5.2776,9.70067 -9.86786,12.31212 -4.64171,2.64072 -5.71904,2.84453 -6.37843,1.20665 z m -84.75116,-2.4303 c -4.406649,-1.10995 -6.452011,-2.1877 -9.939058,-5.2371 -6.074033,-5.31172 -8.367229,-13.23415 -6.039689,-20.86567 1.747814,-5.73073 3.473946,-7.51057 7.827646,-8.07113 1.98836,-0.25601 5.067039,-1.25642 6.841516,-2.22312 l 3.226323,-1.75764 1.786936,2.69814 c 3.630321,5.48149 10.308349,9.6576 17.289798,10.81218 l 3.198034,0.52888 -0.03145,5.41669 c -0.02646,4.55272 -0.35718,5.94645 -2.073636,8.73819 -2.560202,4.16409 -7.226229,8.01949 -10.929918,9.03108 -4.396882,1.20093 -8.666577,1.55666 -11.156502,0.9295 z m 44.07634,-0.31242 C 96.638231,135.59052 90.574879,127.95356 90.577382,118.28567 l 7.56e-4,-4.05276 4.723852,-1.30517 c 4.104399,-1.134 5.38806,-1.95929 9.78889,-6.29349 l 5.06503,-4.98834 3.82782,1.83259 c 2.49746,1.19565 5.6783,1.98045 9.15208,2.25804 5.30868,0.42422 5.32905,0.43409 6.97374,3.38004 2.38918,4.27946 2.36407,13.92305 -0.0475,18.24784 -4.80479,8.61664 -14.68457,13.07785 -23.7591,10.72842 z m -70.348339,-12.9984 c -5.45752,-1.8564 -10.450005,-6.54124 -12.726629,-11.9424 -1.497477,-3.55269 -1.349841,-11.19134 0.294849,-15.255639 2.252569,-5.56646 2.861689,-5.626535 7.857824,-0.774994 2.98208,2.895773 5.596713,4.682433 8.166418,5.580393 2.078957,0.72647 4.030123,1.52195 4.335912,1.76774 0.305795,0.24578 -0.153533,2.21882 -1.020738,4.38454 -1.298759,3.24348 -1.523891,5.11272 -1.277032,10.60306 0.338061,7.5187 0.227082,7.62981 -5.630604,5.6373 z m 99.777099,-0.9535 c 1.14665,-3.90821 0.53632,-11.88972 -1.1932,-15.60391 -0.90512,-1.94377 -1.55649,-3.60629 -1.4475,-3.69448 0.10899,-0.0882 1.63494,-0.85094 3.39102,-1.69499 3.95547,-1.90117 7.81914,-5.524711 10.44539,-9.79621 2.24163,-3.645943 3.83992,-4.069339 6.17825,-1.636666 4.79867,4.992283 6.58592,13.213976 4.41781,20.322766 -2.39496,7.8526 -11.17836,14.08509 -19.85002,14.08509 -2.38946,0 -2.49234,-0.10499 -1.94175,-1.9816 z M 81.882508,109.30177 C 70.358688,105.67536 64.648087,96.730915 66.533671,85.261089 68.580545,72.810163 80.748297,65.684667 93.978859,69.189055 c 5.380251,1.425072 11.880101,7.659481 13.539931,12.986984 1.54157,4.947964 1.52074,8.970471 -0.0708,13.667627 -1.54644,4.564064 -6.59387,10.139074 -11.029454,12.182284 -4.180617,1.92577 -10.662708,2.4947 -14.536018,1.27582 z M 77.787711,83.427977 c 0.922913,-1.288042 2.873474,-3.339836 4.334565,-4.559541 2.89744,-2.418748 2.760304,-3.907312 -0.359977,-3.907312 -3.688168,0 -8.805012,6.596218 -7.544892,9.726263 0.673643,1.673269 1.737964,1.297834 3.570304,-1.25941 z M 12.846126,102.30357 C 5.2515953,95.064669 3.6976917,83.646876 9.1379986,75.056975 l 1.5365994,-2.426192 1.319253,4.06415 c 1.45986,4.497332 4.085228,8.300349 8.029593,11.631399 l 2.600526,2.196168 -2.044885,3.75686 c -1.124686,2.066273 -2.207959,5.374472 -2.407259,7.35156 -0.223772,2.21973 -0.725314,3.5947 -1.311233,3.5947 -0.521871,0 -2.328379,-1.31492 -4.014467,-2.92205 z M 162.4574,100.86611 c -0.9091,-4.04049 -2.40552,-7.115717 -5.11749,-10.516727 l -1.80694,-2.26603 2.48597,-1.471654 c 4.04434,-2.394182 7.95802,-6.69886 9.88833,-10.876228 l 1.80651,-3.909445 2.18039,4.247881 c 1.80789,3.522154 2.18366,5.177187 2.19943,9.687371 0.0166,4.72139 -0.31133,6.079387 -2.48344,10.286594 -2.1104,4.087688 -6.19255,8.457168 -7.90103,8.457168 -0.23814,0 -0.80142,-1.63752 -1.25173,-3.63893 z m -41.38181,0.71557 c -1.72814,-0.31974 -4.56814,-1.27481 -6.31112,-2.122368 -2.62465,-1.276292 -3.09038,-1.810832 -2.7111,-3.111587 2.18896,-7.506861 0.79906,-15.395796 -3.86764,-21.952577 l -2.71073,-3.808601 2.26308,-2.676648 c 4.74901,-5.61688 12.36843,-8.428289 19.80526,-7.307735 7.61859,1.147941 13.2724,5.268718 16.52767,12.046189 1.62244,3.377931 1.83027,4.655314 1.53191,9.415558 -0.39709,6.335241 -2.13325,10.187054 -6.352,14.092384 -4.98212,4.611995 -11.71276,6.621115 -18.17533,5.425385 z M 44.31251,99.928552 C 31.900483,96.621947 25.529015,84.488939 29.852853,72.393419 31.53724,67.681498 37.467644,62.073198 42.571311,60.365751 c 9.153537,-3.062342 19.570974,-0.03289 24.830684,7.220918 l 2.151139,2.966698 -1.875794,2.384025 c -4.589938,5.833534 -5.441041,8.377581 -5.498405,16.435397 l -0.05383,7.566123 -3.351007,1.589938 c -4.322796,2.05102 -9.966326,2.59725 -14.461554,1.399702 z M 40.243325,75.373868 c 1.50199,-2.926199 2.856593,-4.385139 5.380606,-5.795042 3.59408,-2.007637 3.896118,-2.47809 2.466067,-3.841166 -1.436068,-1.368821 -3.166789,-1.027017 -6.518696,1.28739 -5.512662,3.80635 -8.44629,12.259574 -4.254598,12.259574 0.505595,0 1.822573,-1.759841 2.926621,-3.910756 z M 21.17911,83.790875 c -4.033836,-4.076827 -5.736593,-8.301845 -5.736593,-14.234124 0,-16.28659 17.767641,-25.763637 32.802186,-17.496293 l 4.154408,2.284466 -5.534624,0.901035 c -3.044047,0.495568 -7.02256,1.587601 -8.841141,2.426735 -4.55477,2.101672 -9.295723,6.797747 -11.6339,11.523765 -1.669153,3.373777 -1.96085,4.954394 -1.961266,10.627739 -2.72e-4,3.665492 -0.130422,6.664919 -0.289224,6.665394 -0.158802,4.76e-4 -1.490726,-1.213948 -2.959846,-2.698717 z m 128.70859,-3.75943 c -0.0368,-6.090418 -1.94874,-10.918225 -6.30868,-15.93002 -2.9108,-3.345982 -10.37204,-7.104079 -15.18243,-7.64712 -2.09052,-0.235997 -3.80095,-0.649814 -3.80095,-0.919594 0,-1.351288 5.59167,-6.441059 9.0436,-8.231848 14.63541,-7.59258 32.06826,2.475499 31.91077,18.429585 -0.0874,8.857995 -5.95186,17.193579 -13.55297,19.263958 l -2.07592,0.565435 z M 11.919092,56.105953 c -2.4342024,-8.607355 2.512107,-18.809851 11.115552,-22.92749 4.357797,-2.085655 11.677194,-2.742799 16.428051,-1.47493 7.349705,1.961428 13.881699,9.196095 15.292321,16.937378 l 0.521773,2.863408 -1.816828,-1.266499 C 40.844778,41.443869 24.133369,43.716575 15.609552,55.385369 l -2.807371,3.8432 z M 58.621657,48.071115 C 57.474912,37.480576 47.511436,27.970421 36.419638,26.879254 c -2.229762,-0.219355 -4.054119,-0.611003 -4.054119,-0.870329 0,-0.259327 1.107782,-2.240601 2.461743,-4.402834 C 42.068959,10.04128 59.00132,8.4985228 68.69308,18.520478 c 4.342572,4.490517 5.531222,7.497735 5.504574,13.926238 -0.02601,6.273888 -1.266365,9.480969 -5.321489,13.759314 -2.499232,2.636811 -7.418809,5.696432 -9.159313,5.696432 -0.374189,0 -0.867023,-1.724106 -1.095195,-3.831347 z m 104.151203,0.223021 c -3.68734,-3.606134 -10.74348,-6.946882 -15.99551,-7.573115 -7.26788,-0.866597 -17.97396,3.071966 -22.29762,8.202875 l -1.59913,1.897691 0.41818,-4.612359 c 0.78757,-8.686477 6.96144,-16.453078 14.87558,-18.713176 7.25072,-2.070642 15.56917,-0.553423 21.02241,3.834318 4.97132,3.999989 8.27188,12.1433 7.1109,17.54441 l -0.51087,2.376693 z m -49.00372,1.055503 c -4.36628,-1.5268 -8.27817,-4.837236 -10.75764,-9.103656 -2.00526,-3.450421 -2.22938,-4.488021 -2.22938,-10.321308 0,-5.773199 0.22768,-6.854412 2.07364,-9.847523 7.0331,-11.4037754 22.8093,-14.2175028 33.01759,-5.888773 1.72598,1.408194 3.79467,3.78698 4.59709,5.286189 l 1.45894,2.725835 -3.56397,0.84716 c -10.89149,2.588919 -18.74638,12.018611 -19.2456,23.104082 -0.21565,4.788694 -0.43195,4.917972 -5.35067,3.197994 z M 85.662431,44.138449 C 84.415056,44.025959 81.936175,43.425644 80.153806,42.804415 77.323809,41.818044 76.988507,41.47828 77.507861,40.12329 77.83496,39.269901 78.094134,35.491179 78.083807,31.726133 78.062417,23.935415 76.882714,20.979829 71.623904,15.54186 l -2.969341,-3.070504 2.994568,-3.2426954 c 3.143384,-3.4038444 8.187312,-5.9393548 13.393952,-6.7329417 4.903686,-0.7474113 11.749346,1.484686 16.168647,5.2719437 l 3.7471,3.2112034 -2.27875,2.473819 c -5.923711,6.43079 -8.015528,14.840906 -5.769672,23.196836 0.674179,2.508325 1.225768,4.685124 1.225768,4.837331 0,1.295878 -8.193466,3.037598 -12.473745,2.651597 z"
       id="path1" /></g></svg>
