<?xml version="1.0" encoding="UTF-8" standalone="no"?>
<!-- Created with Inkscape (http://www.inkscape.org/) -->

<svg
   width="180mm"
   height="240mm"
   viewBox="0 0 180 240"
   version="1.1"
   id="svg1"
   sodipodi:docname="reeds.svg"
   inkscape:version="1.4.2 (f4327f4, 2025-05-13)"
   xml:space="preserve"
   xmlns:inkscape="http://www.inkscape.org/namespaces/inkscape"
   xmlns:sodipodi="http://sodipodi.sourceforge.net/DTD/sodipodi-0.dtd"
   xmlns="http://www.w3.org/2000/svg"
   xmlns:svg="http://www.w3.org/2000/svg"><sodipodi:namedview
     id="namedview1"
     pagecolor="#505050"
     bordercolor="#ffffff"
     borderopacity="1"
     inkscape:showpageshadow="0"
     inkscape:pageopacity="0"
     inkscape:pagecheckerboard="1"
     inkscape:deskcolor="#505050"
     inkscape:document-units="mm"
     inkscape:zoom="0.5"
     inkscape:cx="-310"
     inkscape:cy="622"
     inkscape:window-width="2560"
     inkscape:window-height="1351"
     inkscape:window-x="-9"
     inkscape:window-y="-9"
     inkscape:window-maximized="1"
     inkscape:current-layer="layer1"
     showguides="true" /><defs
     id="defs1"><rect
       x="101.82338"
       y="91.923882"
       width="384.66608"
       height="299.81326"
       id="rect3" /><rect
       x="2.8284271"
       y="2.1213202"
       width="662.55902"
       height="647.00269"
       id="rect2" /></defs><g
     inkscape:label="Icon"
     inkscape:groupmode="layer"
     id="layer1"><path
       style="fill:#000000;stroke-width:1.16448"
       d="m 91.420476,234.47444 c -0.08253,-0.0911 -1.408538,-0.39424 -2.946777,-0.67355 -4.046953,-0.73484 -4.464098,-1.02469 -4.699155,-3.26505 -2.215827,-21.11945 -7.617048,-48.60916 -14.100542,-71.76522 -5.642676,-20.15304 -11.62563,-37.37578 -18.552405,-53.4056 -0.432489,-1.00086 -0.732627,-1.81975 -0.666971,-1.81975 0.14734,0 2.969377,4.75754 4.599284,7.7537 1.848873,3.39869 6.706689,13.73316 8.752396,18.61976 5.147046,12.29482 10.293298,27.35114 13.809867,40.40333 3.49709,12.9799 7.831281,34.50809 9.163146,45.51392 0.111937,0.92497 0.261471,1.62062 0.332302,1.54589 0.07083,-0.0748 -0.151199,-2.68292 -0.493401,-5.79598 -2.740756,-24.93296 -8.528767,-48.26495 -17.945329,-72.33921 -1.798779,-4.59874 -2.92,-8.14674 -4.53138,-14.33916 C 56.769288,96.576563 54.428871,88.27368 48.842202,70.631609 42.991092,52.15444 37.496605,37.210977 33.324535,28.427954 c -0.732084,-1.541198 -1.266048,-2.870778 -1.186591,-2.954622 0.191022,-0.201547 5.308541,8.036701 7.606229,12.244592 5.985016,10.960724 13.137356,27.906743 18.784458,44.505963 6.276514,18.449313 14.178116,48.461853 18.673767,70.928303 0.287251,1.43551 0.579971,2.54912 0.650487,2.47472 0.502336,-0.53002 -5.137538,-42.78762 -7.320491,-54.84988 -0.417292,-2.305811 -0.70832,-4.351897 -0.646726,-4.546868 0.155241,-0.491384 2.937521,8.886868 4.564403,15.385298 4.615669,18.43683 7.872331,38.4515 10.530784,64.71967 1.180234,11.66189 1.310685,12.57007 1.159203,8.07018 -0.733898,-21.80099 -3.552362,-62.12912 -5.971881,-85.448962 -0.936575,-9.026904 -0.829599,-8.530903 -1.857416,-8.612108 -2.332975,-0.184337 -4.285911,-1.048629 -3.309727,-1.464753 0.20474,-0.08732 10e-4,-0.169935 -0.4526,-0.183678 -0.887321,-0.02691 -1.173576,-0.656643 -0.299947,-0.659885 0.340949,-0.0012 0.20955,-0.174564 -0.374934,-0.494494 -1.279247,-0.700206 -1.584124,-1.081762 -0.884845,-1.107371 0.530116,-0.01938 0.521688,-0.05359 -0.08998,-0.364834 -0.718991,-0.365862 -0.907444,-0.87965 -0.322648,-0.87965 0.193728,0 0.03522,-0.356042 -0.352232,-0.791196 -0.460072,-0.516707 -0.56238,-0.791197 -0.294905,-0.791197 0.26517,0 0.204459,-0.158236 -0.172203,-0.448838 -0.31997,-0.246858 -0.481916,-0.554193 -0.359879,-0.682958 0.122038,-0.128764 0.07156,-0.425238 -0.112187,-0.658831 -0.24982,-0.317598 -0.237441,-0.424712 0.04909,-0.424712 0.253078,0 0.189172,-0.233115 -0.188234,-0.686618 -0.512969,-0.616417 -0.517723,-0.665973 -0.04649,-0.484651 0.705691,0.271535 0.661145,-0.05909 -0.127271,-0.944565 -0.596463,-0.669896 -0.605304,-0.732465 -0.103492,-0.732465 0.494329,0 0.50403,-0.0549 0.09791,-0.553835 -0.861411,-1.05833 -0.990898,-1.473042 -0.383094,-1.226961 0.52655,0.213199 0.529265,0.192961 0.0492,-0.366735 -0.557249,-0.649678 -0.682999,-1.168658 -0.208142,-0.859002 0.164971,0.107533 0.299947,0.06005 0.299947,-0.105738 0,-0.165713 -0.202466,-0.383278 -0.449922,-0.483467 -0.247456,-0.100236 -0.449921,-0.344283 -0.449921,-0.542435 0,-0.211214 0.214243,-0.273521 0.517851,-0.150594 0.376334,0.152364 0.321061,-0.01077 -0.202258,-0.599097 -0.43,-0.48294 -0.56341,-0.808767 -0.331151,-0.808767 0.311734,0 0.314821,-0.09426 0.01556,-0.474723 -0.30835,-0.392009 -0.27951,-0.47471 0.165531,-0.47471 0.471506,0 0.44894,-0.101074 -0.180373,-0.807858 -0.60295,-0.677193 -0.648203,-0.854233 -0.279753,-1.094501 0.350065,-0.22827 0.363731,-0.366628 0.06713,-0.679585 -0.483519,-0.510164 -0.481763,-1.00412 0.0025,-0.705349 0.206214,0.127221 0.130474,-0.06328 -0.168311,-0.423217 -0.387491,-0.466876 -0.437392,-0.691761 -0.174049,-0.784378 0.280023,-0.09844 0.255572,-0.370168 -0.101235,-1.124823 -0.334081,-0.706581 -0.370571,-1.031966 -0.125898,-1.122645 0.224555,-0.08325 0.145555,-0.364188 -0.226865,-0.806878 -0.542083,-0.644346 -0.543545,-0.67919 -0.0285,-0.67919 0.488809,0 0.497986,-0.05514 0.09211,-0.553835 -0.814119,-1.000221 -0.918702,-1.355342 -0.332651,-1.129499 0.492153,0.189647 0.487907,0.145151 -0.04747,-0.497664 -0.356919,-0.428528 -0.470843,-0.791627 -0.289912,-0.92398 0.380339,-0.278233 0.350517,-0.672826 -0.118132,-1.563063 -0.275095,-0.522568 -0.282449,-0.712083 -0.02763,-0.712083 0.251373,0 0.244147,-0.131049 -0.02617,-0.474711 -0.29877,-0.379833 -0.29682,-0.474722 0.0098,-0.474722 0.269635,0 0.236081,-0.171478 -0.113241,-0.578751 -0.563082,-0.656487 -0.662448,-1.149259 -0.166538,-0.825884 0.239866,0.156419 0.239866,0.03768 0,-0.435226 -0.41915,-0.826351 -0.41915,-1.10401 0,-0.830681 0.237847,0.155103 0.240791,0.03947 0.01055,-0.414425 -0.175625,-0.346246 -0.253318,-0.699177 -0.17265,-0.784294 0.08067,-0.08516 -0.05906,-0.334895 -0.310501,-0.555079 -0.613356,-0.537089 -0.581171,-0.986119 0.05229,-0.729631 0.411377,0.16655 0.378569,0.01232 -0.170397,-0.801137 -0.561188,-0.831541 -0.596555,-1.007397 -0.202606,-1.007397 0.43084,0 0.432724,-0.07177 0.01938,-0.737335 -0.251839,-0.405538 -0.370692,-0.829341 -0.26412,-0.941789 0.106575,-0.112437 0.02046,-0.424772 -0.191348,-0.694058 -0.329389,-0.418756 -0.303022,-0.457092 0.182218,-0.264873 0.495736,0.196382 0.516758,0.159098 0.166577,-0.295362 -0.220416,-0.286067 -0.315406,-0.665817 -0.211089,-0.843909 0.104319,-0.178093 0.02909,-0.640376 -0.167164,-1.02729 -0.258991,-0.510607 -0.264925,-0.735815 -0.02164,-0.821375 0.225683,-0.07942 0.179467,-0.368661 -0.141458,-0.885439 -0.338941,-0.545797 -0.37006,-0.767561 -0.107709,-0.767561 0.260518,0 0.226289,-0.229706 -0.116474,-0.781663 -0.389149,-0.626644 -0.40033,-0.747214 -0.05637,-0.60796 0.556246,0.22522 0.294591,-1.040696 -0.394353,-1.907932 -0.447266,-0.563013 -0.444168,-0.592709 0.0423,-0.405529 0.558627,0.214943 0.732799,-0.238201 0.220068,-0.57255 -0.167663,-0.109327 -0.232949,-0.321518 -0.145082,-0.471526 0.08787,-0.150008 0.0082,-0.371592 -0.177104,-0.492408 -0.24078,-0.157012 -0.225651,-0.292187 0.05304,-0.473921 0.30732,-0.200402 0.315465,-0.426632 0.03845,-1.068112 -0.269269,-0.623549 -0.268787,-0.813859 0.002,-0.813859 0.267805,0 0.266244,-0.09207 -0.0064,-0.379773 -0.435258,-0.459246 -0.47997,-1.001765 -0.05999,-0.727898 0.426129,0.277877 0.372378,-0.271702 -0.07249,-0.741077 -0.292877,-0.309018 -0.294059,-0.444054 -0.0056,-0.632202 0.201792,-0.131588 0.309646,-0.552902 0.239675,-0.936254 -0.06997,-0.383353 0.01575,-0.697005 0.190472,-0.697005 0.179055,0 0.253684,-0.353284 0.171018,-0.809561 -0.107947,-0.59584 -0.038,-0.765559 0.264981,-0.642887 0.283243,0.114686 0.411654,-0.08759 0.411654,-0.648449 0,-0.594529 0.121759,-0.765823 0.449921,-0.632955 0.299805,0.121387 0.449921,-0.01277 0.449921,-0.402106 0,-0.643487 0.802487,-1.502941 1.105147,-1.183602 0.104943,0.110727 0.383796,-0.08939 0.61967,-0.444705 0.323993,-0.488057 0.525743,-0.561195 0.825055,-0.299098 0.217908,0.190814 0.456707,0.233207 0.530667,0.09421 0.07391,-0.138999 -0.242347,-3.457063 -0.70284,-7.373473 C 69.08304,10.37735 68.731576,5.4371663 69.134106,5.4371663 c 0.401509,0 1.317506,4.2075583 2.790372,12.8173447 0.684866,4.003442 1.369808,7.41428 1.522097,7.57964 0.174077,0.189018 0.276888,0.170642 0.276888,-0.0495 0,-0.194333 0.266948,-0.276489 0.599894,-0.184622 0.329942,0.09104 0.601962,0.32693 0.604488,0.524206 0.0025,0.197278 0.135436,0.145064 0.295354,-0.116025 0.258455,-0.42197 0.291782,-0.42197 0.299947,0 0.008,0.415691 0.04391,0.416794 0.288406,0.0089 0.23932,-0.399283 0.307445,-0.388238 0.476757,0.07731 0.10865,0.298731 0.308654,0.470691 0.444462,0.382132 0.135806,-0.08856 0.333846,0.127949 0.440086,0.48113 0.106246,0.353181 0.327507,0.554542 0.491705,0.447469 0.164198,-0.107079 0.373431,0.107484 0.464962,0.476791 0.122185,0.492987 0.26565,0.584577 0.539731,0.344574 0.282441,-0.247324 0.465539,0.02067 0.752213,1.101002 0.230526,0.868731 0.552562,1.427896 0.822361,1.427896 0.327077,0 0.392409,0.214595 0.248943,0.817711 -0.139722,0.58738 -0.09432,0.752373 0.161202,0.585752 0.256131,-0.167022 0.300443,3.94e-4 0.158287,0.598007 -0.157758,0.663197 -0.105158,0.792606 0.261795,0.644035 0.384741,-0.155775 0.409667,-0.04841 0.153683,0.661989 -0.389213,1.080122 -0.383854,1.211616 0.03815,0.936428 0.241481,-0.157469 0.284979,0.0227 0.146265,0.605847 -0.162032,0.681163 -0.10984,0.794505 0.291095,0.632171 0.413308,-0.167341 0.43697,-0.09616 0.153683,0.462342 -0.414811,0.817797 -0.426895,1.115609 -0.0349,0.859988 0.430209,-0.280537 0.37077,0.584097 -0.07499,1.090804 -0.299947,0.340962 -0.299947,0.381534 0,0.202857 0.357706,-0.213083 0.468632,0.424128 0.498401,2.863073 0.0054,0.446302 0.150385,0.617924 0.427204,0.505846 0.337797,-0.136766 0.354092,-0.04174 0.08411,0.490512 -0.408424,0.805202 -0.427831,1.11621 -0.05446,0.872736 0.162179,-0.105738 0.234554,0.345456 0.171674,1.070279 -0.08546,0.985114 -0.01713,1.216028 0.319509,1.079728 0.557202,-0.225603 0.541005,0.05143 -0.05954,1.018546 -0.459273,0.739559 -0.456231,0.77268 0.05207,0.566873 0.440607,-0.178392 0.498614,-0.106696 0.315568,0.390203 -0.258289,0.701127 -0.262816,0.73261 -0.215344,1.497778 0.01953,0.314883 0.170497,0.484495 0.335468,0.376914 0.431679,-0.281498 0.370216,0.589911 -0.07499,1.063126 -0.300774,0.319704 -0.26081,0.352645 0.202048,0.166598 0.460147,-0.18497 0.536068,-0.124685 0.374934,0.297718 -0.111121,0.291319 -0.292473,0.766652 -0.402994,1.056296 -0.147477,0.386508 -0.09401,0.4569 0.200947,0.264562 0.294957,-0.192339 0.348425,-0.121946 0.200947,0.264561 -0.110521,0.289644 -0.283464,0.741868 -0.384317,1.004934 -0.132291,0.345073 -0.04802,0.423516 0.302518,0.281582 0.402075,-0.162794 0.440882,-0.0683 0.224976,0.54746 -0.192203,0.548201 -0.136765,0.839962 0.21052,1.107897 0.390528,0.301307 0.410229,0.505451 0.114798,1.189581 -0.203683,0.471672 -0.233967,0.825872 -0.07061,0.825872 0.160958,0 0.203249,0.43665 0.09672,0.998642 -0.14809,0.781257 -0.10272,0.942185 0.208446,0.739272 0.290266,-0.189276 0.343442,-0.117101 0.196795,0.267265 -0.110521,0.289656 -0.283464,0.741879 -0.384318,1.004946 -0.132006,0.344331 -0.04799,0.423492 0.299949,0.282623 0.573129,-0.232063 0.637501,0.215711 0.110894,0.77134 -0.296604,0.312957 -0.290299,0.446506 0.03097,0.656009 0.312654,0.203881 0.327396,0.412882 0.06554,0.929135 -0.287116,0.566047 -0.264004,0.636177 0.153899,0.466971 0.419291,-0.169767 0.44139,-0.09976 0.149973,0.474723 -0.293715,0.579049 -0.270611,0.645004 0.164285,0.468921 0.367984,-0.148991 0.439353,-0.09103 0.261564,0.212517 -0.34974,0.597076 -0.457987,2.578523 -0.129149,2.364092 0.411644,-0.268425 0.331969,0.616237 -0.0997,1.106916 -0.299947,0.340959 -0.299947,0.381532 0,0.202853 0.467636,-0.278556 0.475194,-0.02644 0.02589,0.863371 -0.317857,0.62949 -0.30355,0.651655 0.160094,0.248066 0.468599,-0.407918 0.498769,-0.326006 0.378838,1.028546 -0.07167,0.809473 -0.03475,1.471762 0.08206,1.471762 0.27515,0 0.162558,1.726299 -0.148123,2.271055 -0.187507,0.328782 -0.129682,0.325481 0.268532,-0.01531 0.300405,-0.257098 0.507498,-0.297013 0.507498,-0.09784 0,0.185102 -0.149387,0.43397 -0.33197,0.553034 -0.23739,0.154803 -0.228566,0.283902 0.03097,0.453144 0.282577,0.184265 0.278794,0.403253 -0.01708,0.988985 -0.346476,0.685913 -0.335972,0.713986 0.119007,0.317981 0.574598,-0.500128 0.608902,-0.386495 0.214103,0.70913 -0.202825,0.562877 -0.181219,0.827546 0.07499,0.918572 0.26305,0.09342 0.238824,0.285817 -0.09001,0.714799 -0.259214,0.338148 -0.290998,0.486194 -0.07499,0.34926 0.49737,-0.315278 0.472781,-0.05203 -0.105295,1.127454 -0.440347,0.898466 -0.440347,0.963691 0,0.785407 0.61599,-0.249406 0.608587,0.07859 -0.02394,1.060303 l -0.504174,0.7825 0.654148,-0.602888 c 0.838513,-0.7728 0.836426,-0.397871 -0.0048,0.848527 -0.362385,0.536981 -0.497363,0.87099 -0.299947,0.742262 0.528828,-0.344846 0.436422,0.134697 -0.165971,0.861326 -0.288699,0.348231 -0.356187,0.529063 -0.149974,0.401841 0.652027,-0.402272 0.405655,0.298209 -0.378143,1.075123 -0.559882,0.554972 -0.656069,0.811447 -0.374935,0.999755 0.272503,0.18253 0.231501,0.254633 -0.146764,0.258126 -0.288699,0.0024 -0.491163,0.170258 -0.44992,0.372429 0.04124,0.202171 -0.262455,0.472809 -0.674883,0.601405 -0.412427,0.128609 -0.638994,0.248031 -0.503483,0.265375 0.135512,0.01734 0.03532,0.254251 -0.222659,0.526444 -0.257975,0.272192 -0.605057,0.406207 -0.771293,0.297802 -0.166237,-0.10837 -0.304315,-0.01077 -0.306841,0.217182 -0.0034,0.302551 -0.08614,0.286259 -0.306987,-0.06041 -0.213783,-0.335612 -0.253464,-0.01077 -0.135412,1.10767 1.099578,10.420137 1.494488,14.474997 2.38124,24.450147 0.568545,6.39557 1.446757,17.46731 1.951585,24.60388 1.363342,19.27301 1.161539,18.29884 2.130648,10.28553 2.257059,-18.66304 6.600244,-41.35363 10.631203,-55.541825 0.395616,-1.392506 1.329741,-4.689679 2.075821,-7.327063 6.45151,-22.805803 17.22161,-48.137074 28.28423,-66.524429 3.67705,-6.11167 9.59462,-14.8020279 9.87662,-14.5044854 0.0554,0.058479 -0.93195,2.0894153 -2.19414,4.5131994 -18.05174,34.664519 -32.81854,88.383659 -39.995287,145.496093 -0.498938,3.97056 -1.373821,9.81907 -1.944169,12.99667 -3.788168,21.10488 -5.252413,35.56408 -5.388147,53.20694 -0.04557,5.91813 -0.03537,9.62091 0.02257,8.22842 1.473031,-35.39967 6.671635,-68.23589 16.158683,-102.06405 1.49569,-5.33324 6.09873,-20.20448 7.19992,-23.26111 0.37623,-1.04437 1.39237,-3.89266 2.25803,-6.32954 3.38302,-9.52317 10.84549,-27.422793 11.25334,-26.992459 0.0638,0.06734 -0.54423,2.251846 -1.35134,4.854348 -9.15488,29.520001 -15.97596,62.389891 -22.78592,109.802421 -1.99825,13.91223 -2.07697,14.97968 -0.66516,9.0196 5.02472,-21.21229 9.8322,-37.91893 17.93357,-62.32162 1.8736,-5.64357 3.40654,-10.3548 3.40654,-10.46939 0,-0.11459 -0.33744,-0.39892 -0.74988,-0.6318 -0.41241,-0.23289 -0.74985,-0.59556 -0.74985,-0.80592 0,-0.21037 -0.20098,-0.55848 -0.44662,-0.77358 -0.24564,-0.2151 -0.3821,-0.50123 -0.30326,-0.63584 0.0789,-0.13463 -0.0637,-0.42614 -0.31689,-0.64781 -0.25316,-0.22166 -0.39592,-0.58 -0.31725,-0.79629 0.0787,-0.21628 -0.0459,-0.65632 -0.27675,-0.97785 -0.55488,-0.77273 -0.54726,-1.17092 0.018,-0.94205 0.3838,0.1554 0.4009,0.0746 0.10691,-0.50486 -0.25943,-0.51145 -0.26185,-0.72079 -0.009,-0.80959 0.25117,-0.0883 0.25329,-0.29183 0.008,-0.77519 -0.26536,-0.52316 -0.24975,-0.62208 0.0774,-0.49019 0.31503,0.127 0.41474,-0.2462 0.43104,-1.61352 0.0144,-1.20842 0.13662,-1.75267 0.38117,-1.69743 0.24663,0.0557 0.297,-0.18336 0.16,-0.75929 -0.15243,-0.64078 -0.10792,-0.78054 0.18749,-0.58793 0.29724,0.19382 0.33879,0.0481 0.17848,-0.62579 -0.16781,-0.70545 -0.11989,-0.84236 0.24332,-0.69531 0.37315,0.15108 0.40108,0.041 0.15961,-0.62905 -0.23144,-0.64229 -0.20717,-0.77756 0.11603,-0.6467 0.29952,0.12128 0.36951,-0.0507 0.26205,-0.64387 -0.10327,-0.57013 -0.0416,-0.74083 0.20882,-0.57754 0.25748,0.16789 0.29874,-0.007 0.14972,-0.63312 -0.14551,-0.61171 -0.10509,-0.7993 0.13796,-0.6408 0.21697,0.14149 0.34369,-0.023 0.34369,-0.44619 0,-0.36867 0.13295,-0.58361 0.29543,-0.47766 0.1846,0.12037 0.22329,-0.18793 0.10317,-0.82171 -0.13773,-0.72659 -0.0939,-0.95023 0.15448,-0.78826 0.21951,0.14315 0.34677,-0.013 0.34677,-0.4255 0,-0.3584 0.11156,-0.65164 0.24801,-0.65164 0.13638,0 0.18574,-0.44748 0.10962,-0.99439 -0.10577,-0.760285 -0.0463,-0.934323 0.2529,-0.739269 0.2816,0.183631 0.33754,0.107533 0.19968,-0.271523 -0.12505,-0.343877 -0.0387,-0.526634 0.24898,-0.526634 0.52147,0 0.52647,-0.03672 0.14798,-1.087073 -0.29161,-0.809258 0.0792,-1.177333 0.41929,-0.416195 0.0973,0.217577 0.10158,-0.01412 0.0102,-0.514746 -0.13436,-0.732418 -0.0761,-0.873538 0.29816,-0.722011 0.54991,0.222648 0.55632,0.185915 0.15963,-0.914997 -0.25455,-0.706378 -0.23002,-0.817343 0.14691,-0.664728 0.47028,0.190413 0.88546,-0.823026 0.70208,-1.713729 -0.0515,-0.249872 0.0593,-0.424293 0.2461,-0.387607 0.18681,0.03672 0.33426,-0.105739 0.32769,-0.316474 -0.0362,-1.158613 0.11764,-1.821799 0.38248,-1.649101 0.17547,0.11447 0.29995,-0.213929 0.29995,-0.791196 0,-0.542735 0.12504,-0.905248 0.27786,-0.805598 0.15283,0.09964 0.37065,-0.602398 0.48406,-1.560132 0.11341,-0.957722 0.32581,-1.663311 0.47201,-1.567979 0.1462,0.09533 0.26581,-0.199516 0.26581,-0.65522 0,-0.493059 0.12633,-0.746173 0.31198,-0.625112 0.20426,0.133213 0.24094,-0.09509 0.10621,-0.661476 -0.1455,-0.611715 -0.10508,-0.799306 0.13796,-0.640794 0.22486,0.146623 0.34369,-0.06232 0.34369,-0.604431 0,-0.47178 0.12916,-0.744332 0.29994,-0.632959 0.17852,0.116384 0.29996,-0.260447 0.29996,-0.93075 0,-0.619503 0.13498,-1.126353 0.29994,-1.126353 0.16497,0 0.29995,-0.293233 0.29995,-0.651631 0,-0.416938 0.12639,-0.569218 0.35092,-0.422799 0.23753,0.154876 0.28762,0.05478 0.15503,-0.309787 -0.11923,-0.327837 -0.0293,-0.606094 0.23004,-0.711055 0.2439,-0.0988 0.34813,-0.386328 0.24392,-0.672898 -0.12047,-0.331234 -0.0634,-0.423074 0.1689,-0.271607 0.23302,0.151945 0.35093,-0.0433 0.35093,-0.581031 0,-0.44543 0.13497,-0.80988 0.29994,-0.80988 0.16497,0 0.29995,-0.284824 0.29995,-0.632948 0,-0.348135 0.14942,-0.632959 0.33205,-0.632959 0.18261,0 0.25434,-0.213618 0.15938,-0.474723 -0.10577,-0.290864 1.6e-4,-0.47471 0.27357,-0.47471 0.33354,0 0.39556,-0.212948 0.24564,-0.843228 -0.16554,-0.695924 -0.11477,-0.808493 0.29064,-0.644347 0.27016,0.109327 0.47685,0.09725 0.45929,-0.02703 -0.11655,-0.824952 0.0864,-1.294626 0.48904,-1.131617 0.2898,0.117341 0.44993,-0.0072 0.44993,-0.349009 0,-0.542124 0.81846,-1.593648 1.24043,-1.593648 0.12841,0 0.43746,-0.284824 0.68676,-0.632959 0.26577,-0.371077 0.45725,-0.464184 0.46284,-0.225029 0.005,0.263903 0.24148,0.179935 0.66645,-0.237804 0.36131,-0.355157 0.73248,-0.535091 0.82486,-0.399856 0.0924,0.135235 0.57286,0.23351 1.06778,0.218378 0.49491,-0.01519 0.9818,0.09916 1.08199,0.253964 0.10021,0.154816 0.76426,-1.189366 1.47577,-2.987099 4.01438,-10.142935 6.3423,-15.294574 6.52013,-14.428918 0.12525,0.609706 -2.01608,7.859787 -4.02659,13.633117 -1.39572,4.007917 -1.59661,5.151471 -0.85204,4.849997 0.30877,-0.125008 0.44992,0.01914 0.44992,0.459532 0,0.352943 0.13593,0.553069 0.30208,0.444735 0.16613,-0.10837 0.38273,0.02488 0.48133,0.295972 0.0986,0.271128 0.30013,0.414174 0.44781,0.317861 0.14768,-0.09629 0.26852,0.268963 0.26852,0.811698 0,0.640926 0.11639,0.910882 0.33208,0.77024 0.22347,-0.145725 0.26591,0.0036 0.12976,0.456039 -0.11133,0.369917 -0.0805,0.672587 0.0685,0.672587 0.3188,0 0.28148,3.496386 -0.0432,4.050735 -0.12648,0.215915 -0.0653,0.379941 0.14159,0.379941 0.22595,0 0.15813,0.240184 -0.17877,0.632959 -0.37851,0.441291 -0.42392,0.63296 -0.14998,0.63296 0.27395,0 0.22854,0.191657 -0.14996,0.632947 -0.30788,0.358949 -0.39294,0.63296 -0.19648,0.63296 0.19055,0 0.34644,0.142411 0.34644,0.316473 0,0.174062 -0.20247,0.316486 -0.44991,0.316486 -0.24745,0 -0.44992,0.150809 -0.44992,0.335145 0,0.184337 0.13498,0.247146 0.29995,0.139565 0.16497,-0.107532 0.29994,-0.05179 0.29994,0.123836 0,0.175689 -0.23621,0.464592 -0.5249,0.642014 -0.28871,0.177411 -0.40717,0.326904 -0.26323,0.332203 0.14393,0.0048 0.0986,0.217003 -0.10078,0.470477 -0.19937,0.253461 -0.28055,0.600747 -0.18039,0.771735 0.10011,0.170999 -0.0569,0.457737 -0.34912,0.637193 -0.3718,0.228391 -0.40475,0.329201 -0.10974,0.335935 0.32309,0.0072 0.29475,0.157328 -0.12146,0.642576 -0.41566,0.484591 -0.44412,0.63461 -0.12148,0.639993 0.25392,0.0048 0.12337,0.253031 -0.32845,0.625926 -0.43314,0.357477 -0.576,0.621847 -0.33821,0.625914 0.33187,0.006 0.33929,0.09904 0.0382,0.481756 -0.20536,0.261093 -0.26846,0.474711 -0.14021,0.474711 0.12825,0 -0.0113,0.284835 -0.3097,0.632959 -0.2986,0.348123 -0.43797,0.632959 -0.30972,0.632959 0.12826,0 0.0652,0.213618 -0.14021,0.474711 -0.30897,0.392799 -0.27649,0.478406 0.18823,0.496133 0.4865,0.01854 0.47135,0.06734 -0.11325,0.364846 -0.37119,0.188881 -0.67488,0.472473 -0.67488,0.630208 0,0.157734 0.13498,0.198774 0.29994,0.09126 0.16497,-0.107533 0.29995,-0.07906 0.29995,0.06339 0,0.14246 -0.25883,0.429581 -0.57519,0.638031 -0.37786,0.248988 -0.5202,0.600807 -0.41493,1.025555 0.10339,0.417117 0.0147,0.648282 -0.24968,0.651404 -0.34315,0.0036 -0.34388,0.04904 -0.004,0.275961 0.31808,0.212673 0.25343,0.390562 -0.29995,0.825286 -0.44545,0.349941 -0.51198,0.485164 -0.18052,0.366938 0.28869,-0.102987 0.52491,-0.05897 0.52491,0.09796 0,0.156873 -0.25749,0.371448 -0.57219,0.47684 -0.58841,0.197039 -1.11812,1.11694 -0.64319,1.11694 0.14605,0 0.33363,-0.178009 0.41683,-0.395587 0.12104,-0.316485 0.15602,-0.316485 0.17498,0 0.0131,0.217578 -0.2512,0.685614 -0.58716,1.040089 -0.33596,0.354475 -0.53992,0.765587 -0.45323,0.913573 0.0867,0.147997 -0.0434,0.44507 -0.289,0.660171 -0.49624,0.43452 -0.61943,1.09657 -0.14668,0.788302 0.55972,-0.365001 0.3034,0.211799 -0.37493,0.84369 -0.37118,0.34577 -0.50616,0.53822 -0.29996,0.42765 0.61082,-0.32749 0.42768,0.16316 -0.29994,0.80362 -0.64668,0.56922 -0.64982,0.59477 -0.075,0.61161 0.55189,0.0161 0.53988,0.0671 -0.14998,0.63644 -0.45181,0.3729 -0.58236,0.62167 -0.32845,0.62591 0.33521,0.006 0.31974,0.12559 -0.0756,0.58656 -0.27338,0.31873 -0.39944,0.68251 -0.28013,0.8084 0.11931,0.12589 0.0184,0.36137 -0.22431,0.52331 -0.29882,0.19939 -0.32021,0.29599 -0.0663,0.29927 0.62735,0.008 0.41836,0.55199 -0.28685,0.74658 -0.36398,0.10047 -0.56761,0.28195 -0.45252,0.40338 0.11509,0.12144 0.0589,0.41192 -0.12482,0.64551 -0.25175,0.32005 -0.23262,0.42731 0.0776,0.43525 0.24861,0.006 0.11466,0.27786 -0.33821,0.68549 -0.47605,0.42851 -0.5582,0.60163 -0.22495,0.47412 0.7453,-0.28517 0.65262,0.31786 -0.11552,0.7516 -0.46063,0.26011 -0.53627,0.42956 -0.26939,0.60357 0.26978,0.17593 0.19326,0.37332 -0.28046,0.72341 -0.47146,0.34841 -0.54207,0.52903 -0.25552,0.6536 0.2971,0.12914 0.25058,0.29563 -0.18626,0.66672 -0.42513,0.36115 -0.46561,0.49744 -0.14997,0.50513 0.2875,0.007 0.19512,0.21898 -0.27586,0.63296 -0.62822,0.55221 -0.64514,0.62351 -0.14997,0.63205 0.52273,0.01 0.52484,0.03 0.0332,0.3322 -0.2887,0.17741 -0.5249,0.51726 -0.5249,0.75519 0,0.23794 -0.16872,0.50445 -0.37495,0.59225 -0.20621,0.0878 -0.10497,0.17657 0.22497,0.19729 0.50361,0.0316 0.46079,0.1171 -0.26672,0.5329 -0.65715,0.37553 -0.76795,0.5596 -0.45834,0.7615 0.32567,0.21236 0.29868,0.31063 -0.13334,0.48556 -0.38926,0.1576 -0.43879,0.28638 -0.17604,0.45771 0.25863,0.16866 0.17574,0.34565 -0.2832,0.6048 -0.35685,0.2015 -0.569,0.50264 -0.47143,0.6692 0.0976,0.16657 -0.0574,0.39795 -0.3446,0.51419 -0.48134,0.19488 -0.47745,0.22783 0.05,0.42306 0.48277,0.17868 0.39046,0.30261 -0.59153,0.79428 -0.97921,0.49027 -1.07331,0.61605 -0.59396,0.79379 0.52823,0.19587 0.52026,0.22776 -0.10962,0.43907 -0.3736,0.12532 -0.60183,0.36001 -0.50721,0.52154 0.0947,0.16154 -0.25531,0.2937 -0.7776,0.2937 -0.68742,0 -0.90547,0.12144 -0.78968,0.43982 0.19178,0.52734 -1.28524,0.92032 -2.37468,0.63181 -0.46847,-0.12407 -0.72057,-0.0546 -0.72057,0.19871 0,0.30369 -0.10079,0.30131 -0.45717,-0.0108 -0.25145,-0.22018 -0.51988,-0.33417 -0.59651,-0.25331 -0.40927,0.43183 -8.29934,24.98074 -11.88257,36.97107 -2.45454,8.21346 -3.46932,11.91247 -6.41571,23.38604 -1.65028,6.42638 -1.96184,8.15995 -0.9005,5.01064 0.93871,-2.78546 5.44787,-13.90542 7.35345,-18.13416 0.99052,-2.19813 1.80096,-4.06591 1.80096,-4.15061 0,-0.30096 6.57256,-13.29431 8.61464,-17.03039 5.81753,-10.64338 11.67579,-19.78313 18.25659,-28.48299 4.25062,-5.61936 5.89413,-7.58019 10.58105,-12.62396 5.00723,-5.38848 10.14075,-10.192994 8.23646,-7.70858 -9.11507,11.89182 -12.84791,17.41736 -18.76016,27.76976 -9.03267,15.8163 -20.59289,40.52786 -28.94382,61.87139 -5.85987,14.97679 -9.02617,24.15203 -11.66855,33.81288 -2.394089,8.75305 -2.325314,8.58256 -3.644507,9.0341 -1.176781,0.40279 -6.710198,0.86032 -6.967437,0.57611 z M 130.81707,90.397803 c -0.0977,-0.268593 -0.24195,-0.42049 -0.32057,-0.337526 -0.0787,0.08301 -0.054,0.302718 0.0547,0.488358 0.29577,0.504925 0.46863,0.406842 0.26581,-0.150832 z m 7.33725,-16.135084 c -0.0924,-0.09749 -0.26007,0.07823 -0.37271,0.390324 -0.16278,0.451051 -0.12832,0.487401 0.16791,0.177159 0.20499,-0.21467 0.29715,-0.470045 0.2048,-0.567483 z m -0.93696,-1.47511 c -0.0958,-0.252469 -0.16683,-0.177471 -0.18121,0.191202 -0.0131,0.333626 0.0578,0.520546 0.15753,0.415382 0.0996,-0.10514 0.1103,-0.378122 0.0237,-0.606584 z M 71.061273,59.154013 c -0.296233,-0.310242 -0.330686,-0.273879 -0.167908,0.17716 0.11264,0.31212 0.280357,0.48776 0.372707,0.390323 0.09235,-0.09748 1.91e-4,-0.352812 -0.204799,-0.567483 z M 71.324,57.863299 c 0,-0.06005 -0.303696,-0.380479 -0.674881,-0.712072 l -0.674881,-0.602889 0.571396,0.712084 c 0.536971,0.669166 0.778366,0.856146 0.778366,0.602877 z m -0.299947,-1.909165 c 0,-0.06567 -0.236208,-0.314943 -0.524907,-0.553835 -0.475733,-0.393649 -0.486344,-0.382465 -0.113242,0.119494 0.391842,0.527173 0.638155,0.694823 0.638155,0.434353 z m 0,-1.602452 c 0,-0.07679 -0.134976,-0.227589 -0.299947,-0.335157 -0.164972,-0.107533 -0.299947,-0.04474 -0.299947,0.139553 0,0.184337 0.134975,0.335157 0.299947,0.335157 0.164971,0 0.299947,-0.0628 0.299947,-0.139553 z m -0.299947,-1.567213 c 0,-0.06842 -0.209476,-0.209192 -0.4655,-0.31285 -0.26693,-0.10813 -0.387328,-0.05502 -0.282245,0.124375 0.176145,0.30072 0.747745,0.444795 0.747745,0.188475 z m 0,-1.261015 c 0,-0.06567 -0.236208,-0.314942 -0.524909,-0.553835 -0.475732,-0.39366 -0.486342,-0.382464 -0.113241,0.119494 0.391843,0.527173 0.638156,0.694812 0.638156,0.434341 z M 70.424159,49.93617 c 0,-0.06842 -0.209476,-0.209193 -0.4655,-0.31285 -0.266932,-0.10813 -0.387328,-0.05502 -0.282246,0.124374 0.176147,0.300721 0.747746,0.444796 0.747746,0.188476 z M 69.949207,48.048739 C 69.845193,47.76273 69.638403,47.52873 69.489684,47.52873 c -0.14872,0 -0.105646,0.278353 0.09573,0.618558 0.42457,0.717323 0.63936,0.659131 0.363799,-0.09856 z m -0.42489,-1.905409 c 0,-0.06567 -0.23621,-0.314943 -0.524909,-0.553835 -0.475733,-0.393661 -0.486342,-0.382465 -0.113252,0.119494 0.391843,0.527173 0.638155,0.694823 0.638155,0.434353 z m -0.262728,-2.180246 c -0.296233,-0.310229 -0.330687,-0.273879 -0.167908,0.17716 0.112639,0.31212 0.280357,0.487761 0.372707,0.390323 0.09235,-0.09749 1.91e-4,-0.352812 -0.204799,-0.567483 z m -0.337167,-5.098738 c 0,-0.06572 -0.236208,-0.314944 -0.524909,-0.553836 -0.475733,-0.393657 -0.486341,-0.382463 -0.113252,0.119494 0.391843,0.527172 0.638155,0.69482 0.638155,0.434348 z m -0.49639,-4.799565 c -0.09769,-0.268601 -0.241945,-0.420491 -0.320569,-0.337533 -0.07862,0.08296 -0.05398,0.302723 0.05476,0.488365 0.295763,0.504929 0.468631,0.406836 0.265812,-0.150832 z m 1.001235,-3.368706 c -0.09575,-0.252465 -0.166825,-0.177473 -0.181217,0.191206 -0.01302,0.33362 0.05787,0.520539 0.157537,0.415376 0.09967,-0.105164 0.110329,-0.378125 0.02368,-0.606582 z M 101.31874,231.85109 c 0,-0.76296 1.59331,-6.49339 3.6446,-13.10795 4.31627,-13.91824 7.99845,-21.92241 13.91179,-30.24099 4.61448,-6.4914 10.17311,-12.31929 15.73775,-16.50006 4.39336,-3.30077 4.45508,-3.18189 0.51292,0.98792 -12.91046,13.65607 -22.53788,32.01136 -27.39628,52.2327 -0.5844,2.43235 -1.18554,4.66493 -1.33586,4.96129 -0.25712,0.50691 -2.4103,1.50547 -4.25007,1.97101 -0.64178,0.1624 -0.82485,0.095 -0.82485,-0.30392 z m -22.403433,-0.74847 c -1.389926,-0.6658 -1.226582,-0.26518 -2.652128,-6.50464 C 73.277736,211.53101 61.778713,173.35519 54.508744,152.37501 44.078824,122.27564 32.634306,98.259754 21.001952,82.062289 l -2.814093,-3.91847 1.981852,1.847265 c 6.597511,6.149503 15.830259,18.702963 23.258893,31.624376 10.105616,17.57774 17.423215,34.9399 24.742981,58.7066 3.551252,11.53063 8.38326,29.06515 10.509059,38.13555 2.181049,9.30615 4.757727,22.48976 4.486141,22.9534 -0.303705,0.51849 -2.921751,0.32858 -4.251478,-0.30839 z m -6.541491,-0.34954 c -3.442876,-0.71048 -3.783202,-1.16134 -5.362857,-7.10454 -3.531464,-13.28657 -9.232987,-27.09836 -14.19367,-34.38381 l -1.110484,-1.6309 -1.457689,1.67266 c -1.860609,2.13501 -5.862704,8.5446 -8.452599,13.53733 -2.713348,5.23072 -3.194763,4.85184 -1.838187,-1.44667 1.618121,-7.51285 4.604483,-14.72964 7.377875,-17.82923 1.490375,-1.66566 1.780175,-1.85267 2.871055,-1.85267 3.201129,0 5.52556,1.9499 9.620333,8.07019 3.914542,5.8509 6.850761,11.74043 9.836201,19.72968 2.363216,6.32413 6.123975,20.42037 5.596209,20.97596 -0.365131,0.38437 -1.704153,0.50593 -2.886187,0.262 z"
       id="path1" /></g></svg>
