<?xml version="1.0" encoding="UTF-8" standalone="no"?>
<!-- Created with Inkscape (http://www.inkscape.org/) -->

<svg
   width="180mm"
   height="240mm"
   viewBox="0 0 180 240"
   version="1.1"
   id="svg1"
   sodipodi:docname="reeds.svg"
   inkscape:version="1.4.2 (f4327f4, 2025-05-13)"
   xml:space="preserve"
   xmlns:inkscape="http://www.inkscape.org/namespaces/inkscape"
   xmlns:sodipodi="http://sodipodi.sourceforge.net/DTD/sodipodi-0.dtd"
   xmlns="http://www.w3.org/2000/svg"
   xmlns:svg="http://www.w3.org/2000/svg"><sodipodi:namedview
     id="namedview1"
     pagecolor="#505050"
     bordercolor="#ffffff"
     borderopacity="1"
     inkscape:showpageshadow="0"
     inkscape:pageopacity="0"
     inkscape:pagecheckerboard="1"
     inkscape:deskcolor="#505050"
     inkscape:document-units="mm"
     inkscape:zoom="0.70710678"
     inkscape:cx="138.59293"
     inkscape:cy="606.69762"
     inkscape:window-width="2560"
     inkscape:window-height="1351"
     inkscape:window-x="-9"
     inkscape:window-y="-9"
     inkscape:window-maximized="1"
     inkscape:current-layer="layer1"
     showguides="true" /><defs
     id="defs1"><rect
       x="101.82338"
       y="91.923882"
       width="384.66608"
       height="299.81326"
       id="rect3" /><rect
       x="2.8284271"
       y="2.1213202"
       width="662.55902"
       height="647.00269"
       id="rect2" /></defs><g
     inkscape:label="Icon"
     inkscape:groupmode="layer"
     id="layer1"><path
       style="fill:#000000;stroke-width:0.944956"
       d="m 47.479356,236.04021 c -0.660106,-0.19881 -2.199146,-1.40118 -2.336699,-1.82555 -0.256799,-0.7922 0.385077,-2.55292 1.279331,-3.50931 2.075757,-2.22002 5.343769,-1.87139 6.942085,0.74058 0.526433,0.86029 0.658567,1.33749 0.605224,2.18573 -0.06348,1.00911 -0.154637,1.13847 -1.300896,1.84573 -1.057081,0.65225 -1.482561,0.7561 -2.987285,0.72904 -0.965055,-0.0174 -1.955843,-0.0921 -2.20176,-0.16622 z m -0.366317,-2.64547 c 0.396653,-0.56578 0.199373,-1.3732 -0.335529,-1.3732 -0.469226,0 -0.710731,0.68345 -0.486222,1.37603 0.162244,0.50052 0.469616,0.49946 0.821751,-0.003 z m 2.992349,-1.42881 0.488828,-0.73569 -0.529604,-0.48239 c -0.656624,-0.5981 -1.085577,-0.61559 -1.742321,-0.071 -0.601326,0.49859 -0.648877,1.00629 -0.149618,1.59731 0.551647,0.65304 1.38198,0.52063 1.932715,-0.3082 z m -27.863411,2.09102 c -2.254139,-0.30616 -4.576229,-1.06608 -4.464974,-1.46119 0.04655,-0.16537 1.420419,-1.4991 3.053014,-2.96384 3.053856,-2.73987 3.937411,-3.63791 3.759854,-3.82152 -0.05619,-0.0581 -2.325357,0.42427 -5.042642,1.07189 -2.717286,0.64762 -5.665723,1.25811 -6.552091,1.35665 -1.591289,0.1769 -1.615868,0.16964 -1.953229,-0.57677 -0.485598,-1.07442 -0.407441,-3.10106 0.140888,-3.65299 0.240141,-0.24172 0.469339,-0.61884 0.509317,-0.83805 0.112662,-0.61771 0.482688,-0.95503 2.344463,-2.1372 1.844388,-1.17114 4.997462,-2.28305 7.808563,-2.75364 2.294377,-0.38409 7.533639,-0.38865 9.536346,-0.008 7.204833,1.3683 11.451413,4.88929 10.487991,8.69596 -0.317333,1.25385 -2.084529,3.26293 -3.747617,4.26058 -3.783477,2.26964 -10.796804,3.5188 -15.879883,2.82842 z m 64.978829,-3.64902 c -1.011085,-0.20545 -3.389428,-1.00221 -5.285206,-1.77056 -5.184303,-2.10116 -6.647948,-2.46107 -9.995923,-2.45797 -1.897949,0.002 -3.573995,0.17434 -4.940515,0.5087 -1.13747,0.27832 -2.100995,0.47198 -2.141164,0.43036 -0.161428,-0.16727 3.835987,-1.84018 5.237726,-2.19198 1.981506,-0.4973 6.399234,-0.4868 8.654858,0.0206 0.993446,0.22347 3.305661,0.9073 5.138247,1.51963 2.769899,0.92553 3.797955,1.13812 6.094303,1.2602 3.090864,0.16433 4.232546,-0.0923 9.374065,-2.10737 3.769973,-1.47752 8.455513,-2.51653 9.128413,-2.0242 0.12843,0.094 0.82521,0.2101 1.5484,0.2581 0.72318,0.048 1.76362,0.25288 2.31206,0.45531 0.95801,0.3536 0.88587,0.36821 -1.83834,0.3724 -3.38309,0.005 -4.86846,0.45588 -9.60518,2.9143 -1.701163,0.88293 -3.975075,1.90791 -5.053131,2.27774 -2.462258,0.84469 -6.018709,1.0651 -8.628613,0.53476 z m 23.266384,-6.32671 c -0.22117,-0.0685 -0.58309,-0.0685 -0.80426,0 -0.22118,0.0685 -0.0403,0.1244 0.40213,0.1244 0.44235,0 0.62331,-0.0559 0.40213,-0.1244 z m 26.8609,4.53208 c -1.59733,-0.56614 -2.06476,-2.48576 -0.97143,-3.98937 0.48884,-0.67226 0.70883,-0.76151 1.84541,-0.74869 1.05587,0.0119 1.39347,0.13655 1.85742,0.68577 0.79697,0.94345 0.86218,2.8481 0.12182,3.55779 -0.28825,0.27631 -0.76269,0.50238 -1.05431,0.50238 -0.29162,0 -0.66795,0.0506 -0.83626,0.11243 -0.16832,0.0618 -0.60151,0.007 -0.96265,-0.12031 z m 0.89993,-2.83248 c 0.35628,-0.3132 0.3951,-0.49112 0.1928,-0.88409 -0.35988,-0.69911 -1.07946,-0.74534 -1.57201,-0.10097 -0.77877,1.01869 0.39075,1.85402 1.37921,0.98511 z m -52.291068,-2.3458 c -1.764703,-0.36718 -3.475064,-1.06844 -3.321825,-1.36196 0.07078,-0.13549 -0.0297,-0.17443 -0.223213,-0.0866 -0.193512,0.0879 -1.517614,-0.50378 -2.942455,-1.31486 -5.350413,-3.04567 -6.976928,-3.10271 -13.523964,-0.47432 -3.946192,1.58425 -4.403876,1.70788 -6.787188,1.83339 -1.455437,0.0766 -3.374516,-0.007 -4.457791,-0.19468 -2.315681,-0.40084 -5.231142,-1.60632 -4.780831,-1.97678 0.212652,-0.17494 0.160768,-0.20327 -0.17173,-0.0938 -0.306946,0.10107 -1.65574,-0.46301 -3.791554,-1.58572 -1.823326,-0.95845 -3.751221,-1.8961 -4.284222,-2.08369 -0.533,-0.18757 -0.914767,-0.4451 -0.84837,-0.57227 0.06636,-0.12718 -0.06627,-0.20328 -0.294762,-0.16913 -0.22852,0.0341 -1.336158,-0.10374 -2.461424,-0.30645 -1.247032,-0.22465 -2.817294,-0.30674 -4.021343,-0.21022 -1.921016,0.15399 -1.953524,0.14677 -1.180548,-0.262 1.033727,-0.54665 3.887611,-1.18844 5.28472,-1.18844 1.738482,0 4.701346,0.71325 7.937684,1.91084 9.614624,3.55786 11.986688,3.70252 17.546428,1.07011 1.561872,-0.73951 2.932006,-1.27708 3.044737,-1.1946 0.112723,0.0824 0.204958,0.0238 0.204958,-0.1303 0,-0.15414 0.749701,-0.55921 1.665989,-0.90015 1.346909,-0.50116 2.194125,-0.61989 4.423486,-0.61989 3.210265,0 4.738813,0.46121 8.521057,2.57105 1.274172,0.71078 3.083785,1.52139 4.021352,1.80136 3.12893,0.93439 7.252026,0.53241 10.217052,-0.99611 0.626365,-0.32289 1.552472,-0.80412 2.058012,-1.06935 3.542513,-1.85867 7.696773,-2.38145 11.144893,-1.40248 2.3907,0.67875 6.50764,2.58247 6.26587,2.8974 -0.097,0.12637 -0.0671,0.15632 0.0665,0.0665 0.13359,-0.0898 1.11594,0.14052 2.18302,0.51176 2.4827,0.86375 5.18949,1.10244 7.50136,0.6615 2.68765,-0.51261 4.46522,-1.2061 10.60127,-4.13592 1.95932,-0.93553 4.62754,-1.59549 6.31983,-1.56315 l 1.18618,0.0226 -1.29042,0.37077 c -1.67271,0.48062 -4.44302,2.01625 -7.96289,4.41398 -4.15433,2.82992 -8.37029,4.77 -9.37438,4.31388 -0.19468,-0.0884 -0.29592,-0.0497 -0.225,0.0862 0.35507,0.68012 -5.15258,0.68301 -7.60851,0.004 -2.0236,-0.55949 -5.3649,-1.92961 -5.3649,-2.19991 0,-0.1461 -0.0811,-0.20632 -0.18018,-0.13382 -0.0991,0.0725 -0.90049,-0.11272 -1.78088,-0.41163 -2.1191,-0.71945 -5.26015,-0.77479 -7.1006,-0.12511 -0.75002,0.26476 -2.146,0.94622 -3.102193,1.51436 -0.95619,0.56813 -2.772585,1.42695 -4.036439,1.90849 -1.947323,0.74193 -2.718623,0.89019 -5.055409,0.97171 -1.516624,0.0529 -3.326237,-0.0221 -4.021352,-0.16676 z m 33.564558,-7.62337 c -1.68395,-0.39099 -4.70828,-1.66768 -4.97811,-2.10145 -0.13881,-0.22315 -0.35323,-0.33194 -0.47649,-0.24176 -0.12326,0.0902 -1.14716,-0.20136 -2.27533,-0.64788 -2.33816,-0.92543 -5.35372,-1.61008 -7.07927,-1.60728 -1.69851,0.003 -4.61283,0.90064 -7.557873,2.32855 -1.410367,0.68382 -3.132522,1.41852 -3.826995,1.63265 -1.521096,0.46902 -4.5078,0.50539 -6.31036,0.0768 -1.461093,-0.34735 -8.032282,-4.116 -7.772139,-4.45738 0.08962,-0.11762 0.0423,-0.13207 -0.10522,-0.0321 -0.147497,0.0999 -0.923044,-0.001 -1.723439,-0.2244 -2.973312,-0.82978 -5.743707,-0.32716 -11.995774,2.17631 -5.159186,2.06587 -7.330001,2.52503 -9.829604,2.07912 -1.817865,-0.3243 -4.90158,-1.71554 -4.619334,-2.08403 0.09459,-0.1235 0.0442,-0.13753 -0.112046,-0.0311 -0.156209,0.10633 -0.72494,-0.10375 -1.263854,-0.46684 -0.538906,-0.36309 -1.651971,-0.80143 -2.47347,-0.97411 -1.570766,-0.33017 -6.237477,-1.92958 -6.434158,-2.20517 -0.06322,-0.0885 -1.541663,-0.17058 -3.285478,-0.18231 -1.743815,-0.0117 -3.113219,0.0466 -3.043113,0.12957 0.160204,0.18967 -4.998565,2.14935 -6.999318,2.65887 -2.511981,0.63971 -8.502281,0.32573 -8.502281,-0.44564 0,-0.12957 -0.129259,-0.17992 -0.287239,-0.11189 -0.279632,0.12039 -1.921485,-0.51934 -7.250855,-2.82524 -1.4286706,-0.61816 -2.7988036,-1.12392 -3.0447376,-1.12392 -0.245934,0 -0.447157,-0.0961 -0.447157,-0.2136 0,-0.27066 -1.9959856,-0.45941 -4.9001121,-0.46338 -2.10928153,-0.003 -2.20797783,-0.027 -1.5030487,-0.36711 1.5596232,-0.75251 4.1720367,-1.18061 6.2323688,-1.02134 2.5298726,0.19559 5.2876126,0.91165 5.0755246,1.31789 -0.09982,0.1912 -0.01329,0.23178 0.244553,0.11467 0.219479,-0.0997 1.658277,0.21183 3.197325,0.69231 2.509504,0.78343 3.130267,0.87373 6.015356,0.8751 l 3.217074,0.001 3.561775,-1.5815 c 1.958969,-0.86982 4.233899,-1.75158 5.055408,-1.95946 3.21704,-0.81408 7.057048,-0.3338 11.086824,1.38666 2.759538,1.17815 4.487477,1.52515 7.756071,1.55758 3.625905,0.036 4.56388,-0.1882 8.42349,-2.01311 1.536486,-0.72647 2.932466,-1.2792 3.102189,-1.22828 0.169723,0.0509 0.214807,0.0349 0.100182,-0.0358 -0.302995,-0.18658 1.74741,-1.05697 3.703679,-1.57219 1.962088,-0.51677 6.252918,-0.41651 7.764504,0.1814 l 0.919163,0.36358 -2.068123,0.1794 c -1.13747,0.0987 -2.791968,0.3979 -3.67666,0.66495 -1.515564,0.45746 -5.461738,2.46063 -7.238434,3.67438 -3.614806,2.46946 -6.323953,3.58456 -9.608597,3.95495 -2.238532,0.25242 -1.832586,0.68665 0.800933,0.85671 3.04842,0.19687 5.108622,-0.50147 11.755911,-3.98488 5.499352,-2.88184 8.510009,-3.20792 15.43507,-1.6717 3.747956,0.83143 4.263491,0.88297 7.583119,0.7581 3.673515,-0.13817 5.046818,-0.38047 7.540347,-1.33031 0.79798,-0.30398 1.50498,-0.48862 1.57112,-0.41033 0.16816,0.19907 -3.093993,2.02552 -4.438374,2.48502 -2.123542,0.7258 -4.590786,1.02062 -7.740916,0.92499 l -3.164686,-0.096 0.565066,0.57511 c 0.310793,0.3163 1.377028,0.98133 2.369432,1.47785 2.40122,1.20137 4.458512,1.25568 6.945706,0.18333 0.931964,-0.40182 1.80104,-0.6526 1.931281,-0.55731 0.13025,0.0953 0.174248,0.0535 0.09777,-0.093 -0.155081,-0.29705 3.899291,-2.35311 4.202581,-2.13122 0.10574,0.0773 0.22721,0.0164 0.269963,-0.13535 0.14208,-0.50457 3.86823,-1.16329 5.60765,-0.99132 2.30016,0.2274 4.04036,0.70433 3.85631,1.05687 -0.0924,0.17698 -0.043,0.21134 0.12613,0.0876 0.36532,-0.26727 2.1927,0.60646 5.99726,2.86749 4.06172,2.41387 6.74134,3.51194 9.07676,3.7195 l 1.83833,0.16338 -0.91917,0.336 c -1.05257,0.38477 -4.56549,0.43196 -6.07446,0.0816 z m -12.36629,-4.78044 c -0.15799,-0.0755 -0.4165,-0.0755 -0.57449,0 -0.15797,0.0755 -0.0287,0.13721 0.28725,0.13721 0.31596,0 0.44522,-0.0618 0.28724,-0.13721 z m 16.60243,1.51353 c -2.84,-0.6755 -5.48648,-1.87273 -8.42215,-3.81009 -1.18154,-0.77974 -2.8721,-1.8423 -3.75681,-2.36122 -0.88469,-0.51893 -1.66023,-1.01983 -1.72343,-1.1131 -0.0633,-0.0933 -0.3217,-0.21141 -0.57447,-0.26253 -0.25278,-0.0511 -0.49427,-0.20489 -0.53665,-0.34172 -0.0424,-0.13685 -0.15551,-0.19143 -0.25137,-0.1213 -0.0959,0.0701 -0.56346,3.1e-4 -1.03912,-0.15518 -0.47566,-0.15547 -1.91365,-0.3651 -3.19552,-0.46585 l -2.33067,-0.18316 1.37875,-0.54406 c 2.20519,-0.87017 5.85909,-0.76974 8.38597,0.2305 2.72219,1.07754 5.53649,2.63929 5.36117,2.9751 -0.0801,0.15335 -0.0395,0.20116 0.0903,0.10625 0.12973,-0.0949 1.10221,0.1733 2.16108,0.59604 5.32133,2.12448 7.95298,1.84968 13.87434,-1.44874 3.51778,-1.95952 5.41637,-2.62879 8.2725,-2.91611 7.49922,-0.75441 11.33099,-1.59159 14.07053,-3.07421 2.9958,-1.6213 3.10014,-3.67438 0.2637,-5.18854 -0.4834,-0.25805 -0.81307,-0.59531 -0.73258,-0.74947 0.0885,-0.16963 -8.7e-4,-0.21331 -0.2271,-0.11064 -0.2054,0.0934 -1.12716,-0.13495 -2.04838,-0.50724 -0.92121,-0.37228 -2.76071,-1.04694 -4.08774,-1.49924 -1.32705,-0.4523 -4.94627,-1.78717 -8.0427,-2.96638 -3.09644,-1.1792 -6.45714,-2.45441 -7.46823,-2.83379 -1.73195,-0.64988 -1.77183,-0.68168 -0.68937,-0.5496 2.16527,0.26423 6.31603,1.26448 6.19659,1.49326 -0.0657,0.12577 0.10223,0.17816 0.37308,0.11641 0.52394,-0.11944 0.68896,-0.0792 5.49438,1.34102 1.7062,0.50425 4.34305,1.24555 5.85969,1.64732 4.02231,1.0656 6.4606,1.97405 8.21724,3.06158 3.9775,2.46245 3.97209,5.20789 -0.015,7.636 -2.02766,1.23484 -4.06238,2.0792 -4.40548,1.82818 -0.12922,-0.0946 -0.23495,-0.0645 -0.23495,0.0668 0,0.22727 -3.82791,1.45165 -5.92884,1.89638 -0.54358,0.11506 -0.98907,0.33161 -0.98995,0.48123 -0.002,0.29375 2.28317,1.4815 4.50598,2.34232 0.7583,0.29368 2.3094,0.60114 3.44687,0.68324 1.80889,0.13057 2.41078,0.0451 4.80187,-0.68145 1.50357,-0.4569 2.83797,-0.75449 2.96535,-0.6613 0.12737,0.0932 0.16511,0.0422 0.0839,-0.11351 -0.0812,-0.15563 0.0837,-0.34242 0.36663,-0.4151 0.28289,-0.0727 1.4045,-0.44492 2.49246,-0.8272 3.05846,-1.07466 6.1158,-1.40238 8.33088,-0.893 1.53904,0.35391 5.11944,1.97846 4.90913,2.22743 -0.0378,0.0448 -0.8923,-0.0921 -1.89871,-0.30441 -2.46115,-0.51909 -4.71431,-0.47669 -6.65545,0.12523 -0.8847,0.27434 -1.6861,0.44368 -1.78088,0.37631 -0.0948,-0.0673 -0.17235,-0.0175 -0.17235,0.11095 0,0.12839 -0.38777,0.39702 -0.86172,0.59694 -0.47394,0.19992 -2.26141,1.13497 -3.97213,2.07789 -3.98514,2.19651 -6.30574,2.93866 -9.18343,2.93696 -2.18197,-10e-4 -5.09095,-0.66709 -5.24737,-1.20098 -0.0424,-0.14469 -0.1637,-0.1997 -0.26956,-0.12225 -0.10585,0.0774 -0.89842,-0.17739 -1.76125,-0.56632 -3.21727,-1.4502 -4.45286,-1.76891 -6.6242,-1.70869 -1.13747,0.0316 -2.11982,0.13444 -2.18301,0.22867 -0.23747,0.35407 -4.1914,1.90068 -4.42402,1.73048 -0.13356,-0.0977 -0.179,-0.0554 -0.10098,0.0941 0.0814,0.15596 -0.71101,0.59061 -1.86027,1.02036 -2.25376,0.84275 -6.1437,1.16007 -8.20648,0.66943 z M 86.7778,204.62395 c -2.349197,-0.29958 -4.982064,-1.34088 -6.514685,-2.57657 -1.608598,-1.29694 -1.692105,-1.54406 -0.288395,-0.85349 0.636135,0.31297 1.156612,0.64451 1.156612,0.73678 0,0.0922 0.232663,0.18282 0.517028,0.20126 0.284365,0.0184 1.292576,0.25132 2.240469,0.51755 1.259537,0.35376 2.682154,0.48544 5.285206,0.4892 3.917375,0.006 5.828767,-0.36023 9.062762,-1.73485 l 1.852333,-0.78733 -0.689383,0.68425 c -2.560573,2.54157 -7.843704,3.93255 -12.621947,3.3232 z m 33.76276,-0.60298 c 0.12639,-0.0571 1.58838,-0.60415 3.24889,-1.2158 10.30958,-3.79755 12.30298,-8.63126 5.34358,-12.95744 -1.06069,-0.65935 -1.86908,-1.2024 -1.79642,-1.20677 0.0727,-0.004 0.86961,0.28901 1.77103,0.65196 4.66712,1.87916 6.97282,4.33861 6.58896,7.02832 -0.49751,3.48603 -6.67153,6.8598 -14.00707,7.65413 -0.75832,0.0822 -1.27535,0.10261 -1.14897,0.0455 z m -71.350236,-0.59958 c -5.324514,-0.9557 -9.456713,-2.86818 -11.335989,-5.24656 -0.954927,-1.20855 -1.072748,-1.49487 -1.072748,-2.60694 0,-2.19666 0.918364,-3.51968 3.524003,-5.07677 1.142585,-0.68279 4.702101,-2.14073 5.191121,-2.12622 0.07252,0.002 -0.902218,0.59388 -2.166073,1.31495 -7.113899,4.05871 -5.167298,8.71767 5.363979,12.83806 3.680074,1.43984 3.7015,1.47888 0.495707,0.90348 z m 64.111806,-1.71699 c 1.49916,-0.4628 6.5467,-1.73152 6.9512,-1.74719 0.22117,-0.008 0.40213,-0.0876 0.40213,-0.17559 0,-0.088 0.51711,-0.38012 1.14914,-0.64918 1.81811,-0.77395 3.85497,-2.4648 4.3,-3.56954 0.3688,-0.91554 0.36769,-1.01505 -0.0205,-1.84066 -0.58949,-1.25373 -1.52283,-2.04141 -3.78985,-3.19842 -2.17671,-1.11093 -5.06136,-2.07502 -9.3368,-3.12051 -2.66945,-0.65277 -2.70247,-0.6693 -1.03407,-0.51781 4.3683,0.39666 10.092,1.95667 13.09719,3.56969 1.81214,0.97265 2.81466,1.90803 3.3534,3.12883 0.47011,1.06521 0.40578,1.6106 -0.34903,2.95962 -1.10579,1.97626 -4.35449,3.74348 -8.74823,4.75881 -1.9582,0.45251 -7.30315,0.81211 -5.97458,0.40195 z m -58.481917,-0.46381 c -1.011085,-0.17899 -1.97369,-0.33463 -2.139132,-0.34587 -0.165441,-0.0112 -0.237622,-0.14144 -0.160412,-0.28934 0.07791,-0.14919 -0.0061,-0.20254 -0.187771,-0.11983 -0.718452,0.32636 -5.900071,-1.75388 -5.900071,-2.36869 0,-0.12919 -0.188787,-0.23488 -0.41953,-0.23488 -0.467168,0 -1.418804,-1.07166 -1.418804,-1.59775 0,-0.1862 -0.09333,-0.27027 -0.207408,-0.18681 -0.114069,0.0835 -0.318584,-0.2258 -0.45447,-0.68725 -0.844306,-2.86716 2.94267,-5.62385 10.020493,-7.2943 2.588443,-0.61091 6.48183,-1.22365 6.633592,-1.044 0.0568,0.0672 -1.062275,0.39677 -2.486897,0.73221 -7.214508,1.69872 -12.126562,4.40819 -12.126562,6.68895 0,2.44388 5.205851,5.25493 11.881652,6.41585 1.03714,0.18036 1.828573,0.43738 1.758728,0.57117 -0.157434,0.30156 -2.358264,0.19161 -4.793408,-0.23946 z m 5.342649,0.26963 c 0.157981,-0.0755 0.416499,-0.0755 0.574479,0 0.157982,0.0755 0.02875,0.13721 -0.287239,0.13721 -0.315961,0 -0.445221,-0.0617 -0.28724,-0.13721 z m -31.397576,-1.76277 c -4.23371,-0.52396 -6.921613,-1.62433 -8.303723,-3.39934 -0.858559,-1.10263 -0.952036,-1.35007 -0.834336,-2.20864 0.278989,-2.0352 2.649794,-3.75349 7.388225,-5.35477 4.277725,-1.44558 12.449948,-3.16178 14.821543,-3.11258 0.976128,0.0203 0.931062,0.0515 -0.804269,0.55783 -13.817996,4.03164 -16.194438,4.94333 -17.326584,6.64717 -1.272487,1.91506 -0.149817,3.0703 5.262539,5.41517 1.327037,0.57494 2.616773,1.20747 2.866068,1.40563 0.41683,0.33132 0.389116,0.35738 -0.344682,0.32414 -0.438872,-0.0198 -1.665025,-0.14345 -2.724781,-0.27461 z m 7.556715,-12.7466 c 0,-0.14962 -0.161212,-0.27204 -0.35825,-0.27204 -0.197036,0 -0.294334,0.12242 -0.21623,0.27204 0.07807,0.14961 0.239324,0.27202 0.358248,0.27202 0.118934,0 0.216232,-0.12241 0.216232,-0.27202 z m 50.504044,12.87152 c -0.354245,-0.11013 -0.382636,-0.46283 -0.276635,-3.43681 0.65314,-18.32552 2.506613,-36.82326 5.401906,-53.91135 4.545477,-26.82749 11.907644,-54.398613 20.140934,-75.427226 0.95349,-2.435301 1.76788,-4.387253 1.80978,-4.337666 0.0419,0.04956 -0.33943,1.613674 -0.84738,3.475736 -7.18497,26.338888 -12.97791,58.593616 -18.025289,100.363666 -0.316387,2.61827 -0.611453,5.03593 -0.655711,5.37256 -0.04429,0.33663 0.007,0.61206 0.11307,0.61206 0.106453,0 0.244562,-0.27543 0.306912,-0.61206 0.574914,-3.10412 1.9768,-9.73337 3.134275,-14.82143 0.77484,-3.40602 1.46089,-6.46818 1.52456,-6.80483 0.0637,-0.33663 0.21321,-0.61206 0.33232,-0.61206 0.11911,0 0.15362,-0.12057 0.0767,-0.26793 -0.29587,-0.56673 4.347673,-17.99574 9.211983,-34.57607 1.69384,-5.77361 3.07972,-10.57831 3.07972,-10.67712 0,-0.0988 -0.1612,-0.17964 -0.35824,-0.17964 -0.19704,0 -0.29435,-0.12241 -0.21624,-0.27203 0.0781,-0.14961 0.0251,-0.27202 -0.11775,-0.27202 -0.32493,0 -0.77723,-0.56456 -0.87696,-1.0946 -0.0415,-0.22086 -0.22274,-0.59512 -0.40262,-0.83169 -0.17991,-0.23656 -0.26691,-0.50137 -0.19335,-0.58845 0.0735,-0.0871 -0.0555,-0.50087 -0.28673,-0.91951 -0.23127,-0.418634 -0.29124,-0.666853 -0.13325,-0.551603 0.34958,0.25505 0.37568,-0.206724 0.0521,-0.922421 -0.18057,-0.399391 -0.16461,-0.488027 0.0688,-0.382016 0.21162,0.09613 0.31041,-0.132784 0.32544,-0.754201 0.0412,-1.701179 0.0718,-1.875613 0.30049,-1.708324 0.12639,0.09243 0.22979,0.04575 0.22979,-0.103904 0,-0.149615 -0.10958,-0.35221 -0.24353,-0.450212 -0.15358,-0.112365 -0.0901,-0.311053 0.17198,-0.537871 0.22854,-0.197824 0.33903,-0.450242 0.24554,-0.560921 -0.0935,-0.110679 -0.0552,-0.364856 0.0849,-0.564849 0.1402,-0.199983 0.20066,-0.609255 0.13433,-0.909492 -0.0664,-0.300237 -0.0268,-0.477282 0.0877,-0.393438 0.11459,0.08379 0.209,-0.06899 0.20976,-0.339655 7.8e-4,-0.270658 0.15534,-0.841481 0.34348,-1.268497 0.18813,-0.427017 0.28712,-0.881598 0.21999,-1.010188 -0.0671,-0.128589 0.0901,-0.484942 0.34941,-0.791913 0.33466,-0.396173 0.42988,-0.754253 0.32816,-1.234055 -0.0825,-0.38914 -0.0437,-0.675919 0.0912,-0.675919 0.12897,0 0.30438,-0.489651 0.38979,-1.08812 0.0853,-0.598459 0.25657,-1.08811 0.38037,-1.08811 0.1238,0 0.15944,-0.24483 0.0792,-0.54406 -0.10352,-0.386097 -0.0413,-0.54405 0.2143,-0.54405 0.42305,0 0.42727,-0.02766 0.14025,-0.921377 -0.18355,-0.57148 -0.16014,-0.657607 0.14141,-0.520608 0.28845,0.131026 0.32785,0.03928 0.1953,-0.455136 -0.12255,-0.457131 -0.0913,-0.564623 0.11926,-0.410546 0.21033,0.153881 0.25836,-0.0082 0.18281,-0.617799 -0.0749,-0.603753 -0.0213,-0.78962 0.19891,-0.689613 0.30916,0.140443 0.41278,-0.340839 0.32515,-1.510285 -0.029,-0.386806 0.0472,-0.567429 0.19405,-0.459989 0.25126,0.183821 0.34345,-0.322321 0.27092,-1.487388 -0.0303,-0.486463 0.0167,-0.574996 0.16533,-0.310991 0.26861,0.477396 0.44044,0.129926 0.6301,-1.274172 0.0873,-0.645764 0.24996,-1.053565 0.38189,-0.957033 0.1431,0.104696 0.19356,-0.20023 0.13365,-0.807716 -0.0764,-0.775134 -0.0351,-0.915835 0.20099,-0.683887 0.23026,0.226222 0.29723,0.131293 0.29723,-0.421362 0,-0.392358 0.11037,-0.713374 0.24527,-0.713374 0.14071,0 0.18309,-0.231958 0.0994,-0.54406 -0.0837,-0.312102 -0.0413,-0.54406 0.0994,-0.54406 0.1349,0 0.24527,-0.244821 0.24527,-0.54405 0,-0.29924 0.1034,-0.54406 0.22979,-0.54406 0.12639,0 0.2298,-0.435674 0.2298,-0.968157 0,-0.576159 0.0931,-0.900084 0.22979,-0.800026 0.12639,0.09243 0.22979,-0.0839 0.22979,-0.391988 0,-0.308061 0.11037,-0.560109 0.24528,-0.560109 0.14552,0 0.18224,-0.235125 0.0903,-0.578123 -0.1043,-0.389037 -0.0719,-0.517246 0.0994,-0.391988 0.14599,0.106803 0.25441,-10e-4 0.25441,-0.254022 0,-0.242086 0.0937,-0.371549 0.20836,-0.287704 0.11461,0.08379 0.15425,-0.09253 0.0881,-0.391988 -0.0699,-0.316564 -0.007,-0.544431 0.14988,-0.544431 0.14858,0 0.20624,-0.12242 0.12813,-0.272035 -0.0781,-0.149615 -0.044,-0.272025 0.0757,-0.272025 0.11978,0 0.28568,-0.428446 0.36867,-0.952097 0.083,-0.523652 0.2496,-0.952098 0.37025,-0.952098 0.12067,0 0.21939,-0.244831 0.21939,-0.54406 0,-0.299229 0.1034,-0.54406 0.22979,-0.54406 0.12639,0 0.22979,-0.187461 0.22979,-0.416581 0,-0.229111 0.15511,-0.48704 0.34469,-0.573157 0.18957,-0.08616 0.34468,-0.263666 0.34468,-0.394558 0,-0.130882 0.36193,-0.679158 0.80428,-1.218376 0.44235,-0.539217 0.80427,-0.893699 0.80427,-0.787729 0,0.105981 0.1525,0.04287 0.33889,-0.140279 0.43497,-0.427346 1.98074,-0.541644 2.3834,-0.176233 0.39108,0.354934 0.52383,0.08924 1.88587,-3.773865 1.725,-4.892686 4.17201,-11.292263 4.37444,-11.440377 0.26447,-0.193485 -0.25342,1.820649 -2.24215,8.720097 -0.94876,3.291544 -1.78191,6.208436 -1.85144,6.481972 -0.0847,0.332993 0.11181,0.754941 0.59447,1.276804 0.39648,0.428693 0.72088,0.908762 0.72088,1.066807 0,0.158056 0.1034,0.287365 0.22979,0.287365 0.12638,0 0.22979,0.252048 0.22979,0.560109 0,0.340273 0.0999,0.48706 0.25441,0.373975 0.1712,-0.125258 0.20371,0.0031 0.0994,0.391989 -0.0873,0.325477 -0.0548,0.578122 0.074,0.578122 0.13203,0 0.18631,0.489558 0.12816,1.156121 -0.0555,0.635873 -0.13234,1.528894 -0.17086,1.984514 -0.0385,0.455609 -0.14704,0.975868 -0.24115,1.156121 -0.0941,0.180253 -0.1116,0.441678 -0.0389,0.58096 0.0727,0.139282 0.02,0.335276 -0.117,0.435561 -0.13706,0.100243 -0.19627,0.34565 -0.13155,0.545273 0.0647,0.199623 -0.006,0.432065 -0.15668,0.516547 -0.20835,0.116643 -0.20494,0.191871 0.0141,0.31277 0.20361,0.112345 0.13598,0.30982 -0.22979,0.671025 -0.28508,0.281505 -0.4281,0.51591 -0.31783,0.520886 0.11026,0.0051 0.0718,0.192663 -0.0855,0.417085 -0.19284,0.275068 -0.20329,0.408048 -0.032,0.408048 0.14695,0 0.0601,0.408716 -0.20605,0.969648 -0.25302,0.533306 -0.40026,1.084162 -0.3272,1.224122 0.073,0.139971 0.0234,0.254485 -0.11049,0.254485 -0.13385,0 -0.24335,0.175647 -0.24335,0.390333 0,0.214686 -0.12059,0.734934 -0.26798,1.156121 -0.14741,0.421177 -0.27666,0.847392 -0.28725,0.947142 -0.0105,0.09973 -0.0968,0.273156 -0.19159,0.385367 -0.2797,0.331112 -0.19684,0.704193 0.11489,0.517267 0.15798,-0.09469 0.12281,-0.01028 -0.0782,0.187975 -0.35495,0.349906 -1.27332,3.138917 -1.1736,3.564104 0.0273,0.116375 -0.10585,0.282224 -0.29587,0.368547 -0.19003,0.08636 -0.28548,0.271891 -0.21214,0.412386 0.0734,0.140495 0.0161,0.422801 -0.12737,0.62735 -0.19539,0.278697 -0.19163,0.422472 0.015,0.57366 0.20815,0.152288 0.19611,0.274955 -0.049,0.500272 -0.40883,0.375671 -0.93773,1.762353 -0.78428,2.056256 0.0634,0.121454 -0.0375,0.370973 -0.22434,0.554496 -0.1868,0.183523 -0.28738,0.433751 -0.22352,0.556079 0.0638,0.122328 0.011,0.299302 -0.11742,0.393274 -0.12845,0.09397 -0.23354,0.39827 -0.23354,0.676196 0,0.277937 -0.10161,0.546147 -0.22581,0.596012 -0.12421,0.04986 -0.25346,0.549479 -0.28724,1.110236 -0.0338,0.560767 -0.15005,1.01981 -0.25836,1.020109 -0.10831,2.98e-4 -0.13741,0.18417 -0.0647,0.408592 0.0728,0.224422 0.0488,0.408038 -0.0534,0.408038 -0.25096,0 -0.75451,1.344188 -0.6084,1.624047 0.064,0.122729 -0.038,0.293339 -0.22687,0.379127 -0.48899,0.222129 -0.43212,0.81191 0.0588,0.609532 0.32306,-0.133185 0.31176,-0.08246 -0.0574,0.258083 -0.25277,0.23312 -0.42887,0.602304 -0.39135,0.820393 0.0375,0.218089 -0.0843,0.465778 -0.27054,0.550424 -0.18633,0.08462 -0.30052,0.389027 -0.25377,0.676423 0.0467,0.287396 -0.0235,0.522541 -0.15618,0.522541 -0.13265,0 -0.18166,0.183615 -0.10891,0.408038 0.0727,0.224422 0.0321,0.408047 -0.0903,0.408047 -0.12241,0 -0.22257,0.238744 -0.22257,0.53054 0,0.291796 -0.1706,0.643554 -0.37908,0.781684 -0.24001,0.158991 -0.33364,0.456925 -0.2552,0.812034 0.0804,0.364054 -0.006,0.619916 -0.2464,0.729105 -0.291,0.132198 -0.30605,0.21522 -0.0702,0.387752 0.23664,0.173134 0.22313,0.254481 -0.064,0.384869 -0.20018,0.09089 -0.36397,0.298804 -0.36397,0.461954 0,0.16313 0.12927,0.22252 0.28725,0.13195 0.15798,-0.0906 0.0546,0.0396 -0.22979,0.28915 -0.28437,0.2496 -0.51703,0.62251 -0.51703,0.82868 0,0.20619 -0.11447,0.37487 -0.25438,0.37487 -0.13991,0 -0.1928,0.18998 -0.11753,0.42217 0.0786,0.24208 0.04,0.35128 -0.0903,0.25597 -0.12495,-0.0914 -0.22717,-0.0366 -0.22717,0.12189 0,0.15845 -0.15511,0.28808 -0.34468,0.28808 -0.41423,0 -0.46779,0.53245 -0.0575,0.57118 0.15798,0.0149 0.0287,0.11756 -0.28724,0.2281 -0.31596,0.11055 -0.54862,0.34317 -0.51703,0.51694 0.0321,0.17689 -0.20779,0.31596 -0.54517,0.31596 -0.45616,0 -0.54462,0.0827 -0.36398,0.34003 0.18311,0.26091 0.0641,0.33389 -0.51147,0.3136 -0.41256,-0.0145 -0.86206,-0.10835 -0.99889,-0.20846 -0.13684,-0.10014 -0.31634,-0.0526 -0.39889,0.10551 -0.0826,0.15815 -0.33823,0.21685 -0.56813,0.13047 -0.45289,-0.17016 -0.37139,-0.37286 -1.9683,4.89543 -0.95151,3.13903 -6.27433,21.97079 -7.68894,27.20283 -1.12715,4.16889 -4.20231,16.88623 -5.393853,22.30632 -0.46048,2.09462 -0.89384,4.05323 -0.96305,4.35246 -0.31952,1.38172 0.41908,-0.19824 1.06682,-2.28205 2.510753,-8.07729 9.028303,-24.3795 13.117103,-32.8096 7.41967,-15.29757 15.54388,-28.20986 23.87624,-37.947963 1.34419,-1.570955 3.00217,-3.407149 3.68441,-4.080416 1.18795,-1.172345 1.14864,-1.091749 -0.92922,1.904956 -9.99859,14.420013 -18.77975,32.460173 -29.79224,61.205623 -6.28428,16.40359 -11.298383,31.90072 -14.082369,43.52453 -0.662928,2.76788 -1.289848,5.22389 -1.393157,5.45778 -0.1033,0.2339 -0.719433,0.57054 -1.369187,0.74809 -1.126621,0.30785 -4.727513,0.39653 -5.562406,0.13697 z m 3.388413,-16.81593 c 0.727632,-7.62983 2.140165,-19.51396 3.233298,-27.20284 0.446689,-3.14193 0.950151,-6.7531 1.118797,-8.02483 0.62289,-4.69707 2.195271,-14.70763 3.119164,-19.85807 1.22362,-6.8214 1.23499,-6.90446 0.78821,-5.7606 -1.17719,3.01385 -5.767742,29.33975 -7.099861,40.71623 -0.915533,7.81885 -1.991122,21.9945 -1.940184,25.57067 0.03144,2.20544 0.09101,1.7901 0.780576,-5.44056 z m 6.403933,-4.55648 c 5.409249,-17.94013 15.852309,-44.28087 23.808639,-60.05296 0.77108,-1.52853 1.35986,-2.829 1.3084,-2.88991 -0.10999,-0.13021 -0.69931,0.90675 -2.72611,4.79681 -6.95553,13.34981 -12.85631,27.2584 -17.94613,42.30041 -2.111443,6.23995 -5.994685,19.45003 -5.717546,19.45003 0.102284,0 0.675017,-1.62197 1.272747,-3.60438 z M 113.76171,90.958787 c 0,-0.546723 -0.33527,-0.714165 -0.56166,-0.280527 -0.18352,0.351531 0.10902,1.139702 0.35596,0.959037 0.11313,-0.08276 0.2057,-0.388112 0.2057,-0.67851 z m 0.0531,-2.315234 c -0.0671,-0.415913 -0.19695,-0.599642 -0.32035,-0.453533 -0.22419,0.265383 -0.0242,1.152646 0.2599,1.152646 0.0953,0 0.12254,-0.3146 0.0605,-0.699113 z m 1.32376,-0.725907 c 0.37994,-0.555463 0.38618,-0.678387 0.071,-1.399791 -0.31306,-0.716664 -0.31096,-0.775175 0.0224,-0.62373 0.23444,0.106494 0.36792,0.02221 0.36792,-0.23237 0,-0.219734 0.11447,-0.399504 0.25438,-0.399504 0.1399,0 0.19485,-0.183625 0.1221,-0.408047 -0.0727,-0.224422 -0.0493,-0.408038 0.052,-0.408038 0.10136,0 0.18428,-0.188889 0.18428,-0.419758 0,-0.230858 -0.12502,-0.362953 -0.27783,-0.293534 -0.15279,0.0694 -0.26482,-0.06518 -0.24893,-0.299054 0.0159,-0.233891 -0.0875,-0.474137 -0.22963,-0.533882 -0.34158,-0.143518 -0.3443,1.29198 -0.004,1.802461 0.20143,0.301656 0.19558,0.345074 -0.0252,0.187964 -0.17109,-0.12167 -0.28866,-0.06025 -0.29076,0.151805 -0.003,0.262792 -0.0595,0.251236 -0.2173,-0.04411 -0.11757,-0.220084 -0.28583,-0.314857 -0.37391,-0.210594 -0.088,0.104264 -0.0429,0.356805 0.10041,0.56121 0.1433,0.204404 0.19235,0.45237 0.10898,0.551041 -0.0834,0.0987 -0.0134,0.485065 0.15555,0.85865 0.16889,0.373595 0.23389,0.765902 0.14442,0.87181 -0.0895,0.105898 -0.22232,-0.07752 -0.29523,-0.407636 -0.0729,-0.330105 -0.2867,-0.600187 -0.47506,-0.600187 -0.23603,0 -0.29102,0.14795 -0.17692,0.476049 0.091,0.261826 0.21758,0.690272 0.28118,0.952098 0.15012,0.618065 0.24775,0.600751 0.74957,-0.132887 z m 1.61036,-2.655395 c 0,-0.149625 -0.1034,-0.272035 -0.22979,-0.272035 -0.12639,0 -0.22979,0.12241 -0.22979,0.272035 0,0.149615 0.1034,0.272025 0.22979,0.272025 0.12639,0 0.22979,-0.12241 0.22979,-0.272025 z m -0.45958,-2.992315 c 0,-0.29923 0.1034,-0.54406 0.22979,-0.54406 0.12639,0 0.22979,0.12241 0.22979,0.272035 0,0.149615 0.15511,0.272025 0.34469,0.272025 0.5123,0 0.41714,-0.377409 -0.17235,-0.683579 -0.36745,-0.190832 -0.49499,-0.454293 -0.44083,-0.910653 0.0495,-0.417033 -0.0233,-0.602839 -0.20785,-0.530046 -0.30332,0.119695 -0.76768,1.32125 -0.49183,1.27264 0.51228,-0.09027 0.54914,0.08667 0.0963,0.46221 -0.53499,0.44359 -0.49238,0.933488 0.0812,0.933488 0.18211,0 0.33113,-0.244831 0.33113,-0.54406 z m 0.99364,-2.074218 c -0.0222,-0.130913 -0.11736,-0.472327 -0.2114,-0.758695 -0.11963,-0.364352 -0.0903,-0.461624 0.0979,-0.323987 0.15886,0.116242 0.26883,0.03249 0.26883,-0.204733 0,-0.220783 -0.12925,-0.472831 -0.28723,-0.560109 -0.2298,-0.126945 -0.2298,-0.190422 0,-0.317366 0.15798,-0.08729 0.28723,-0.38947 0.28723,-0.671539 0,-0.350154 0.11233,-0.46182 0.35409,-0.351994 0.19475,0.08842 0.33761,0.05398 0.31747,-0.07649 -0.0906,-0.587407 0.0396,-0.933653 0.28381,-0.754973 0.18414,0.134727 0.22399,0.0041 0.12948,-0.423326 -0.0751,-0.339872 -0.0148,-0.848667 0.13397,-1.130654 0.35658,-0.675909 0.70414,-0.664147 0.39781,0.01347 -0.30859,0.682582 -0.30227,1.106 0.0165,1.106 0.13991,0 0.19486,-0.183615 0.12211,-0.408048 -0.0727,-0.224422 -0.0431,-0.408037 0.0658,-0.408037 0.32246,0 0.51189,-0.883541 0.25469,-1.188004 -0.30367,-0.359499 -0.30906,-1.260251 -0.008,-1.260251 0.28292,0 0.30703,-1.27153 0.028,-1.475688 -0.111,-0.08122 -0.26489,0.225708 -0.34199,0.682047 -0.0778,0.460729 -0.24356,0.754057 -0.37266,0.659602 -0.29997,-0.219466 -0.29857,0.295683 0.003,0.961886 0.19544,0.432322 0.16982,0.490401 -0.15183,0.344272 -0.31156,-0.141523 -0.36063,-0.05665 -0.25188,0.435653 0.10219,0.462601 0.0531,0.574205 -0.20155,0.458509 -0.44621,-0.202698 -0.70824,0.639759 -0.29526,0.949321 0.25672,0.192427 0.24047,0.241233 -0.0814,0.244574 -0.22116,0.0021 -0.40213,0.17758 -0.40213,0.389541 0,0.211951 -0.10288,0.426174 -0.22862,0.476049 -0.26869,0.106556 -0.54689,2.071093 -0.48797,3.445683 0.0166,0.38435 0.14053,0.585556 0.31445,0.51006 0.15799,-0.06858 0.26906,-0.231794 0.24683,-0.362707 z m 1.07449,-0.766025 c 0,-0.06601 -0.10343,-0.195614 -0.2298,-0.288085 -0.12639,-0.09243 -0.22979,-0.03845 -0.22979,0.119963 0,0.158447 0.1034,0.288085 0.22979,0.288085 0.12637,0 0.2298,-0.05398 0.2298,-0.119963 z m 0.25133,-1.867542 c -0.18193,-0.215365 -0.25133,-0.144783 -0.25133,0.255585 0,0.719172 0.32134,1.10091 0.42367,0.503294 0.0434,-0.253734 -0.0341,-0.595231 -0.17234,-0.758879 z m 0.61517,-0.511756 c -0.05,-0.177673 -0.21382,-0.371518 -0.364,-0.43078 -0.16792,-0.06632 -0.21927,0.05809 -0.13339,0.323041 0.16027,0.494463 0.63524,0.597349 0.49739,0.107739 z m 0.69799,-1.057513 c -0.0453,-0.160842 -0.18058,-0.292433 -0.30065,-0.292433 -0.12007,0 -0.25536,0.131591 -0.30064,0.292433 -0.0453,0.160832 0.09,0.292434 0.30064,0.292434 0.21064,0 0.34593,-0.131602 0.30065,-0.292434 z m 0.27382,-2.819845 c 0,-0.06601 -0.1034,-0.195614 -0.22979,-0.288085 -0.12637,-0.09243 -0.22978,-0.03845 -0.22978,0.119964 0,0.158446 0.10341,0.288084 0.22978,0.288084 0.12639,0 0.22979,-0.05398 0.22979,-0.119963 z m 0.2298,-2.056267 c 0,-0.149615 -0.10341,-0.272025 -0.2298,-0.272025 -0.12637,0 -0.22979,0.12241 -0.22979,0.272025 0,0.149615 0.10342,0.272035 0.22979,0.272035 0.12639,0 0.2298,-0.12242 0.2298,-0.272035 z m 0.1397,-1.020099 c 0.36682,-0.572046 0.40945,-1.156121 0.0845,-1.156121 -0.12951,0 -0.34225,0.332479 -0.47277,0.738851 -0.18649,0.580652 -0.281,0.655151 -0.44141,0.347922 -0.11225,-0.215025 -0.27178,-0.310827 -0.3545,-0.212907 -0.22773,0.269599 0.10466,0.758304 0.51577,0.758304 0.19979,0 0.50062,-0.214223 0.66851,-0.476049 z m 1.00925,-0.06796 c 0,-0.149615 -0.1095,-0.272025 -0.24334,-0.272025 -0.13384,0 -0.17945,0.12241 -0.10134,0.272025 0.0781,0.149615 0.18762,0.272025 0.24335,0.272025 0.0557,0 0.10133,-0.12241 0.10133,-0.272025 z m -2.5277,-0.272025 c 0,-0.149614 -0.10341,-0.272035 -0.22979,-0.272035 -0.12639,0 -0.22979,0.122421 -0.22979,0.272035 0,0.149615 0.1034,0.272025 0.22979,0.272025 0.12638,0 0.22979,-0.12241 0.22979,-0.272025 z m 0.91916,-0.664023 c 0,-0.408356 -0.41254,-0.842477 -0.59517,-0.62628 -0.16027,0.189732 0.15704,1.018268 0.38997,1.018268 0.11287,0 0.2052,-0.176387 0.2052,-0.391988 z m 1.14897,-2.245085 c 0,-0.634917 -0.0942,-0.907404 -0.28724,-0.831075 -0.17681,0.06991 -0.25661,0.465849 -0.20759,1.029886 0.0706,0.812765 0.0382,0.875594 -0.28724,0.555884 -0.31905,-0.313469 -0.3669,-0.273361 -0.3669,0.307578 0,0.367426 0.076,0.758047 0.16897,0.868047 0.30567,0.361854 0.98,-0.966378 0.98,-1.93032 z m 0.45957,1.548963 c 0,-0.149615 -0.1034,-0.272025 -0.22978,-0.272025 -0.12639,0 -0.22979,0.12241 -0.22979,0.272025 0,0.149615 0.1034,0.272025 0.22979,0.272025 0.12638,0 0.22978,-0.12241 0.22978,-0.272025 z m 0.83534,-0.40596 c 0.36246,-0.429074 0.243,-0.954309 -0.21697,-0.95399 -0.15052,1.03e-4 -0.28858,0.306139 -0.30682,0.680073 -0.0384,0.786845 0.051,0.833584 0.52379,0.273917 z m -0.7932,-1.829203 c -0.16489,-0.195203 -0.27192,-0.211262 -0.27192,-0.04082 0,0.363097 0.27175,0.684802 0.42511,0.503253 0.0653,-0.07732 -0.004,-0.285401 -0.15319,-0.462446 z m 0.90526,-0.247093 c -0.0477,-0.20572 -0.0907,-0.527054 -0.0958,-0.714073 -0.02,-0.753512 -0.39206,-0.280363 -0.39206,0.498709 0,0.556151 0.0968,0.796746 0.28724,0.714084 0.15798,-0.06858 0.24824,-0.292999 0.20057,-0.49872 z m -0.75449,-0.930897 c 0.14668,-0.38108 0.27485,-0.962543 0.28482,-1.292134 0.0161,-0.530941 0.0445,-0.513977 0.24894,0.148813 0.26893,0.871635 0.65208,0.991516 0.65208,0.204024 0,-0.29924 -0.0904,-0.54406 -0.20106,-0.54406 -0.11059,0 -0.26311,-0.367241 -0.33895,-0.816085 -0.0758,-0.448845 -0.25083,-0.816086 -0.38888,-0.816086 -0.14646,0 -0.19027,0.226643 -0.10516,0.544061 0.0836,0.312101 0.0412,0.544049 -0.0994,0.544049 -0.13491,0 -0.24529,0.306036 -0.24529,0.680073 0,0.374037 -0.1034,0.680073 -0.22978,0.680073 -0.12639,0 -0.22979,0.306035 -0.22979,0.680072 0,0.876612 0.31252,0.870484 0.65248,-0.01285 z m 2.10502,-1.243441 c 0,-0.149615 -0.10341,-0.196375 -0.2298,-0.103904 -0.12639,0.09243 -0.22979,0.290542 -0.22979,0.440157 0,0.149614 0.1034,0.196364 0.22979,0.103903 0.12639,-0.09243 0.2298,-0.290541 0.2298,-0.440156 z m -0.45959,-0.63942 c 0,-0.219734 0.13236,-0.339379 0.29414,-0.265887 0.35209,0.159937 0.50345,-1.127529 0.16193,-1.377398 -0.34438,-0.251945 -0.26999,-0.677492 0.11841,-0.677492 0.33778,0 0.4297,-0.271315 0.36864,-1.08812 -0.0167,-0.224422 0.12938,-0.07146 0.3248,0.340036 0.3635,0.765357 0.85005,1.018896 0.78305,0.408048 -0.0746,-0.680114 0.0247,-0.965299 0.39435,-1.133245 0.31095,-0.141256 0.32765,-0.100655 0.0951,0.231002 -0.41507,0.592043 -0.12346,0.915845 0.82473,0.915845 0.4915,0 0.71943,-0.08729 0.55058,-0.21083 -0.19097,-0.139724 -0.20715,-0.270081 -0.048,-0.386559 0.13211,-0.09665 0.35597,0.04102 0.49745,0.306036 0.17934,0.335851 0.29323,0.380843 0.37605,0.148535 0.0653,-0.183276 0.0852,-0.420828 0.0441,-0.527878 -0.11942,-0.311238 -1.30148,-0.382056 -1.45541,-0.08719 -0.077,0.147528 -0.26318,0.265517 -0.41372,0.262186 -0.15051,-0.0031 -0.0242,-0.233151 0.28088,-0.510718 l 0.55453,-0.504662 -0.51592,-0.326876 c -0.4339,-0.274903 -0.56782,-0.247761 -0.84235,0.170682 -0.29396,0.448083 -0.31248,0.450222 -0.18637,0.02149 0.16259,-0.552676 -0.19882,-0.62954 -0.63953,-0.136013 -0.16702,0.187019 -0.45776,0.340026 -0.64609,0.340026 -0.19452,0 -0.40611,0.352498 -0.48985,0.816085 -0.11403,0.631349 -0.15355,0.677533 -0.17459,0.204024 -0.0149,-0.336633 -0.1306,-0.612061 -0.25698,-0.612061 -0.33504,0 -0.2819,1.835988 0.0575,1.984925 0.21037,0.09233 0.17963,0.259584 -0.1149,0.625015 -0.38774,0.481087 -0.40214,0.472523 -0.40214,-0.239412 0,-0.406094 -0.10341,-0.738358 -0.22979,-0.738358 -0.12638,0 -0.22979,0.237603 -0.22979,0.528001 0,0.290398 0.10341,0.603661 0.22979,0.696122 0.12638,0.09243 0.22979,0.405724 0.22979,0.696132 0,0.290398 0.10341,0.528 0.22979,0.528 0.12639,0 0.22979,-0.17978 0.22979,-0.399503 z m 1.49365,-0.960642 c 0.0781,-0.149614 0.0325,-0.272025 -0.10133,-0.272025 -0.13385,0 -0.24336,0.122411 -0.24336,0.272025 0,0.149615 0.0456,0.272036 0.10132,0.272036 0.0557,0 0.16525,-0.122421 0.24337,-0.272036 z m 0.34469,-0.699494 c 0,-0.08554 -0.14852,-0.331266 -0.33005,-0.546147 -0.23327,-0.276148 -0.37664,-0.301409 -0.48901,-0.08616 -0.0875,0.167484 -0.0165,0.411379 0.15769,0.541973 0.36581,0.274297 0.66137,0.314662 0.66137,0.09037 z M 84.861083,199.48384 c -1.782802,-0.35152 -2.775458,-0.91585 -2.905715,-1.65194 -0.06132,-0.34649 -0.275933,-2.44693 -0.476905,-4.66764 -0.652228,-7.20679 -2.2645,-18.03807 -4.592826,-30.85469 -4.409659,-24.27368 -11.547539,-50.59824 -19.287013,-71.13071 -0.324282,-0.860284 -0.551066,-1.564158 -0.503966,-1.564158 0.04708,0 0.500787,0.826284 1.008202,1.836194 5.611971,11.169544 11.297297,26.442274 15.815692,42.486364 4.436201,15.75224 7.92616,33.63005 10.212597,52.31551 0.160196,1.30913 0.37152,2.38025 0.469609,2.38025 0.09809,0 0.133827,-0.39785 0.07947,-0.8841 -0.05437,-0.48624 -0.30996,-3.20993 -0.567922,-6.05263 -1.945378,-21.43838 -6.431631,-42.02366 -13.727387,-62.98841 -1.761289,-5.06116 -2.392326,-7.42065 -4.761567,-17.804 C 61.024298,80.748291 55.782586,60.854733 51.068812,45.665865 48.927657,38.766602 46.61135,31.965496 44.51956,26.436115 43.571511,23.930057 42.827387,21.87964 42.865956,21.87964 c 0.03856,0 0.791815,1.315936 1.673884,2.924304 8.115562,14.798 15.990496,36.491315 22.539591,62.090477 2.963741,11.584676 6.746958,28.913389 9.235071,42.300399 0.914135,4.91838 1.544885,7.35775 1.266087,4.89651 -0.06783,-0.59846 -0.535606,-5.12773 -1.039589,-10.06504 -1.268545,-12.42732 -3.533088,-30.623463 -4.705768,-37.811941 -0.682105,-4.181255 -0.425314,-3.872454 0.814847,0.979898 4.808529,18.814133 8.24563,42.099483 10.576345,71.651663 0.256894,3.25733 0.639643,5.40596 0.654174,3.67239 0.01164,-1.38295 -0.691286,-19.04661 -0.920102,-23.12241 -1.252068,-22.30255 -2.846675,-44.942377 -4.022706,-57.113431 -0.310151,-3.209839 -0.56391,-5.913844 -0.56391,-6.008895 0,-0.095 -0.31022,-0.150972 -0.689374,-0.124271 -0.379155,0.02673 -0.689375,-0.06847 -0.689375,-0.211468 0,-0.143014 -0.206816,-0.196004 -0.459586,-0.117753 -0.252769,0.07824 -0.459577,0.02406 -0.459577,-0.120343 0,-0.144433 -0.102587,-0.187553 -0.227973,-0.09582 -0.125386,0.09171 -0.409751,0.02848 -0.631932,-0.140495 -0.381976,-0.290572 -0.382071,-0.29924 -0.0017,-0.159279 0.221173,0.08143 0.402135,0.0294 0.402135,-0.11547 0,-0.144927 -0.217873,-0.263492 -0.484165,-0.263492 -0.335962,0 -0.443683,-0.124908 -0.3519,-0.408047 0.07756,-0.239238 0.0035,-0.408038 -0.179754,-0.408038 -0.171607,0 -0.556137,-0.238487 -0.854503,-0.529964 l -0.542484,-0.529954 0.574471,0.142109 c 0.527747,0.130543 0.541764,0.110361 0.172346,-0.24811 -0.221173,-0.214624 -0.402134,-0.540719 -0.402134,-0.724663 0,-0.183945 -0.232663,-0.564222 -0.517029,-0.845058 -0.284365,-0.280826 -0.396393,-0.514676 -0.248939,-0.519652 0.147446,-0.0051 0.320243,0.14397 0.383992,0.330988 0.08738,0.256367 0.120366,0.250362 0.134044,-0.02437 0.01,-0.200435 -0.21452,-0.607609 -0.498894,-0.904813 -0.284365,-0.297204 -0.387769,-0.462621 -0.229788,-0.367591 0.341695,0.205556 0.391286,-0.295127 0.05367,-0.542127 -0.128443,-0.09397 -0.171243,-0.290182 -0.09511,-0.436013 0.07617,-0.145831 0.01347,-0.443405 -0.139291,-0.661268 -0.217846,-0.310744 -0.21604,-0.396131 0.0087,-0.396131 0.227774,0 0.227982,-0.08287 8.68e-4,-0.406588 -0.156773,-0.223631 -0.230822,-0.652076 -0.164546,-0.952098 0.06627,-0.300031 0.0304,-0.545509 -0.07964,-0.545509 -0.110109,0 -0.30963,-0.242076 -0.443388,-0.537933 -0.19841,-0.438881 -0.178738,-0.508661 0.106809,-0.378941 0.388029,0.176274 0.485709,-0.311876 0.116466,-0.582029 -0.128443,-0.09397 -0.170019,-0.292526 -0.09238,-0.441236 0.07765,-0.1487 -0.04994,-0.528525 -0.283489,-0.844051 -0.233557,-0.315515 -0.295395,-0.484202 -0.137414,-0.374838 0.371433,0.257096 0.380534,-0.430112 0.01146,-0.866989 -0.214468,-0.253899 -0.208214,-0.326434 0.02814,-0.326434 0.244066,0 0.247575,-0.0803 0.0178,-0.408047 -0.22654,-0.323134 -0.226897,-0.408038 -0.0017,-0.408038 0.199026,0 0.167751,-0.210676 -0.10422,-0.702054 -0.213714,-0.386128 -0.327227,-0.891293 -0.252249,-1.122594 0.07495,-0.2313 0.0185,-0.58864 -0.125577,-0.794103 -0.196916,-0.280888 -0.194536,-0.373564 0.0097,-0.373564 0.153239,0 0.196968,-0.142747 0.100391,-0.32773 -0.0941,-0.180253 -0.204385,-0.687681 -0.245075,-1.127621 -0.04064,-0.439941 -0.254158,-0.966029 -0.474385,-1.169097 -0.37323,-0.344138 -0.370407,-0.356712 0.0416,-0.185291 0.368541,0.153327 0.411193,0.09695 0.256564,-0.339368 -0.102014,-0.287807 -0.176367,-0.764616 -0.165241,-1.059579 0.01112,-0.294963 -0.156026,-0.775052 -0.37145,-1.066869 -0.215433,-0.291806 -0.276532,-0.451404 -0.13579,-0.354656 0.275602,0.189435 0.382028,-1.895363 0.122249,-2.394627 -0.07782,-0.149615 -0.166977,-0.639266 -0.198062,-1.08811 -0.1599,-2.3092 -0.243554,-3.277285 -0.29384,-3.400353 -0.03057,-0.07485 -0.03969,-0.240708 -0.02033,-0.36867 0.01937,-0.127962 -0.08442,-0.40339 -0.230709,-0.612061 -0.176576,-0.251864 -0.183862,-0.379414 -0.02171,-0.379414 0.153126,0 0.12364,-0.275336 -0.07903,-0.7377 -0.243355,-0.555298 -0.256452,-0.786609 -0.05298,-0.935493 0.196628,-0.143868 0.163052,-0.338135 -0.123163,-0.712521 -0.216422,-0.283108 -0.326834,-0.593647 -0.245352,-0.690107 0.08147,-0.09644 0.01537,-0.364753 -0.146898,-0.596218 -0.251232,-0.358358 -0.233445,-0.392862 0.119844,-0.23237 0.289967,0.131715 0.36366,0.09037 0.244745,-0.137431 -0.09357,-0.179235 -0.21043,-0.702733 -0.259666,-1.163318 -0.04924,-0.460586 -0.211081,-1.010804 -0.359638,-1.222714 -0.21974,-0.313438 -0.19444,-0.350914 0.135669,-0.20096 0.383323,0.174136 0.384487,0.145862 0.0211,-0.510656 -0.299842,-0.541737 -0.318819,-0.721239 -0.08606,-0.813947 0.212592,-0.08472 0.230987,-0.229655 0.06383,-0.503212 -0.129138,-0.211354 -0.221755,-0.751055 -0.205827,-1.199354 0.01633,-0.459619 -0.131804,-0.964096 -0.339688,-1.15678 -0.327591,-0.30365 -0.320903,-0.32191 0.06001,-0.163885 0.367021,0.152267 0.403368,0.0839 0.252812,-0.475381 -0.09672,-0.359272 -0.163651,-1.046244 -0.148748,-1.526621 0.01485,-0.480367 -0.08407,-0.954719 -0.219896,-1.054109 -0.168159,-0.123027 -0.152197,-0.250064 0.05003,-0.397993 0.239638,-0.175339 0.233289,-0.310179 -0.03291,-0.698291 -0.206173,-0.300587 -0.222181,-0.404367 -0.04265,-0.276703 0.37224,0.264735 0.38142,-0.423614 0.01146,-0.861529 -0.214468,-0.253899 -0.208519,-0.326434 0.02675,-0.326434 0.1988,0 0.264876,-0.233202 0.192721,-0.680073 -0.06036,-0.374036 -0.01876,-0.680072 0.09259,-0.680072 0.111334,0 0.156687,-0.298561 0.10079,-0.663468 -0.0773,-0.504642 -0.01928,-0.626034 0.242539,-0.507119 0.211801,0.09623 0.32706,0.01141 0.299694,-0.220629 -0.09022,-0.764883 0.01867,-1.036034 0.35468,-0.883387 0.253272,0.115059 0.344683,-0.03578 0.344683,-0.568643 0,-0.414216 0.09855,-0.653135 0.229797,-0.557107 0.126384,0.09243 0.231368,-0.05336 0.233305,-0.323977 0.0026,-0.373368 0.05038,-0.404552 0.197811,-0.129268 0.154471,0.288476 0.224977,0.268211 0.343962,-0.09891 0.09887,-0.304997 0.309491,-0.412242 0.620519,-0.315957 0.28731,0.08893 0.519825,-0.0051 0.596505,-0.24189 0.06913,-0.213215 -0.148827,-3.049809 -0.484312,-6.303549 -0.335494,-3.25373 -0.654347,-7.1400122 -0.708576,-8.6361704 l -0.0986,-2.7202801 0.523803,2.4482551 c 0.2881,1.3465435 0.924739,5.1413414 1.414757,8.4328764 0.890685,5.982934 1.194201,7.217811 1.527549,6.215026 0.151667,-0.456267 0.168499,-0.458693 0.183158,-0.02642 0.0089,0.261836 0.09372,0.461563 0.188501,0.443838 0.09479,-0.01768 0.224048,-0.0082 0.28724,0.02025 0.06322,0.02889 0.373404,0.108078 0.689374,0.176099 0.315961,0.06806 0.608943,0.242538 0.651073,0.387825 0.04212,0.145296 0.167943,0.26417 0.27958,0.26417 0.343902,0 1.826845,1.897347 1.826845,2.33736 0,0.228267 0.103404,0.339368 0.229788,0.246907 0.126384,-0.09243 0.229789,0.02272 0.229789,0.255966 0,0.233253 0.114615,0.424097 0.254705,0.424097 0.156939,0 0.199356,0.261044 0.110518,0.680072 -0.08753,0.412839 -0.04612,0.680073 0.10547,0.680073 0.150929,0 0.187614,0.231413 0.09276,0.585206 -0.123379,0.460164 -0.07973,0.550137 0.204437,0.421064 0.298687,-0.135683 0.324734,-0.05017 0.15019,0.49328 -0.134739,0.419532 -0.127782,0.718402 0.01919,0.825956 0.126698,0.09274 0.162514,0.421578 0.07964,0.730852 -0.119219,0.44466 -0.072,0.52652 0.225759,0.391268 0.310594,-0.141091 0.335355,-0.07999 0.141418,0.349012 -0.380221,0.841038 -0.299694,1.225696 0.167022,0.797836 0.382983,-0.351099 0.382983,-0.341949 0,0.192128 -0.495177,0.69055 -0.517029,1.036395 -0.05211,0.825205 0.285547,-0.12972 0.305219,-0.05994 0.106809,0.378941 -0.133758,0.295867 -0.155974,0.537932 -0.04933,0.537932 0.106609,0 0.172354,0.498021 0.1461,1.10672 -0.03708,0.859616 0.02527,1.073562 0.279154,0.958215 0.2451,-0.111337 0.276992,-0.03095 0.127462,0.321437 -0.109684,0.258464 -0.152283,0.998055 -0.09466,1.643552 0.08112,0.908648 0.183358,1.137913 0.452889,1.015472 0.295891,-0.134409 0.291261,-0.05542 -0.03083,0.526551 -0.3311,0.598212 -0.334765,0.684709 -0.029,0.684709 0.399356,0 0.468028,0.425578 0.110848,0.68691 -0.263687,0.19292 -0.05837,1.254637 0.294639,1.523321 0.139334,0.106052 0.127679,0.240019 -0.03101,0.356085 -0.395325,0.289236 -0.299217,0.776626 0.115945,0.588024 0.372179,-0.169067 0.371207,-0.15382 -0.07217,1.130099 -0.06462,0.187029 6.77e-4,0.340036 0.145031,0.340036 0.188283,0 0.195231,0.148721 0.02458,0.526181 -0.327938,0.725383 -0.298244,0.919588 0.112124,0.733176 0.29404,-0.133576 0.307145,-0.06416 0.08189,0.433947 -0.198748,0.439621 -0.200598,0.619556 -0.007,0.695895 0.180413,0.07115 0.191148,0.257261 0.03483,0.603117 -0.159648,0.353135 -0.144276,0.532462 0.05228,0.610025 0.167577,0.06611 0.263174,0.562156 0.240132,1.246073 -0.02102,0.624913 0.06331,1.136217 0.187423,1.136217 0.140993,0 0.133385,0.204199 -0.02024,0.54405 -0.236475,0.523076 -0.14715,0.667385 0.344683,0.55684 0.126385,-0.02838 0.100538,0.103996 -0.05741,0.294222 -0.438682,0.528207 -0.362453,1.145244 0.114894,0.930116 0.322431,-0.145317 0.345203,-0.113342 0.114894,0.161315 -0.382724,0.456412 -0.382724,1.417773 0,1.161982 0.229789,-0.153583 0.229789,-0.118709 0,0.174362 -0.405496,0.517174 -0.356616,0.891314 0.08995,0.688452 0.309204,-0.140464 0.326922,-0.09963 0.09829,0.226478 -0.357103,0.509371 -0.230354,1.950811 0.163226,1.856192 0.20791,-0.04997 0.183341,0.129267 -0.0839,0.612061 -0.267247,0.482855 -0.294639,0.682746 -0.09353,0.682746 0.225195,0 0.224839,0.08492 -0.0017,0.408047 -0.250962,0.357967 -0.177313,0.501537 0.236181,0.460401 0.0667,-0.0062 0.09421,0.535742 0.06114,1.205297 -0.04481,0.906376 0.01225,1.165858 0.223406,1.01575 0.170348,-0.121115 0.151857,-0.0093 -0.04629,0.279376 -0.266204,0.388112 -0.272562,0.522952 -0.03291,0.698291 0.209152,0.153018 0.221772,0.272323 0.04264,0.403359 -0.412982,0.30215 -0.291904,0.773161 0.14781,0.574997 0.322432,-0.145317 0.345204,-0.113342 0.114895,0.161315 -0.157982,0.188396 -0.287241,0.508908 -0.287241,0.712243 0,0.223353 0.113705,0.288825 0.287241,0.165397 0.190063,-0.135169 0.178981,-0.04637 -0.03274,0.262556 -0.415343,0.605954 -0.152691,0.914837 0.360916,0.424436 0.375115,-0.358162 0.375419,-0.342165 0.0052,0.293801 -0.461132,0.79288 -0.521449,1.489906 -0.103925,1.200897 0.157981,-0.109353 0.09024,0.06703 -0.150511,0.391988 -0.409839,0.553138 -0.411706,0.59082 -0.02927,0.59082 0.335416,0 0.357736,0.07228 0.124847,0.404511 -0.159466,0.227455 -0.221703,0.696409 -0.142191,1.071433 0.07782,0.366819 0.04212,0.739561 -0.07921,0.82833 -0.12133,0.08873 -0.161837,0.342658 -0.09003,0.564191 0.07182,0.221544 -0.01024,0.607774 -0.182377,0.858311 -0.276401,0.402311 -0.260785,0.432312 0.13375,0.25686 0.431281,-0.191799 0.43248,-0.180058 0.03492,0.339964 -0.226471,0.296248 -0.343832,0.668753 -0.260795,0.827796 0.08303,0.159043 0.03535,0.289164 -0.105948,0.289164 -0.141306,0 -0.199704,0.109589 -0.129781,0.243525 0.06992,0.133936 -0.03396,0.316697 -0.230786,0.406125 -0.196865,0.08945 -0.293581,0.285874 -0.214912,0.436548 0.07868,0.150673 -0.01815,0.273947 -0.215232,0.273947 -0.197037,0 -0.358249,0.183615 -0.358249,0.408038 0,0.224432 -0.07756,0.388615 -0.172337,0.364855 -0.337683,-0.08462 -0.971777,0.376443 -0.846843,0.615752 0.06992,0.133936 0.02623,0.243525 -0.09706,0.243525 -0.12331,0 -0.276358,-0.153018 -0.340106,-0.340036 -0.08914,-0.261517 -0.120097,-0.257806 -0.134045,0.01604 -0.01,0.19585 -0.119993,0.281576 -0.244476,0.190504 -0.136711,-0.100038 -0.182958,0.135992 -0.116796,0.596012 0.417281,2.901417 2.546989,29.140559 3.208103,39.525639 0.195257,3.06712 0.507284,7.90242 0.693396,10.74512 0.186111,2.84269 0.340566,5.93362 0.343232,6.86872 0.0026,0.94827 0.106479,1.70017 0.234644,1.70017 0.126384,0 0.229788,-0.20041 0.229788,-0.44535 0,-1.26967 1.060885,-10.85668 1.862218,-16.82845 C 89.341357,97.865114 92.954902,80.696359 98.096577,63.481545 104.37546,42.459286 112.25167,23.885117 120.9583,9.5677102 c 1.25191,-2.0586626 2.36052,-3.8047099 2.46357,-3.8801136 0.10305,-0.075363 -0.39182,1.119314 -1.09971,2.6549116 -6.559,14.2281138 -12.82496,32.9632158 -18.09502,54.1037518 -1.62673,6.525514 -5.198393,22.9493 -6.204073,28.528566 -2.467475,13.688874 -4.510125,27.244224 -5.738865,38.083974 -0.887524,7.82956 -1.461456,12.18164 -2.188307,16.59373 -0.756762,4.5936 -1.90798,12.9287 -2.404589,17.40981 -1.012997,9.14063 -1.857937,25.50363 -1.689126,32.71141 0.05167,2.20683 0.08856,3.9981 0.08189,3.98061 -0.007,-0.0175 -0.556884,-0.13923 -1.222799,-0.27053 z m 2.119556,-47.98364 c 2.840023,-35.39303 8.621778,-68.422877 16.999311,-97.113169 2.11543,-7.244656 1.97167,-7.547926 -0.25792,-0.54406 -2.71995,8.544264 -5.031253,17.001517 -7.731714,28.290953 -3.269046,13.666502 -6.378972,32.833926 -7.944605,48.965096 -0.882816,9.09584 -1.886441,25.55785 -1.532631,25.13901 0.05307,-0.0628 0.263504,-2.19489 0.467559,-4.73783 z M 74.122694,63.227954 c 0.07808,-0.149614 0.03248,-0.272035 -0.101337,-0.272035 -0.133844,0 -0.243355,0.122421 -0.243355,0.272035 0,0.149615 0.0456,0.272025 0.101338,0.272025 0.05575,0 0.165241,-0.12241 0.243354,-0.272025 z m 0.114894,-0.835517 c 0,-0.160307 -0.156061,-0.476203 -0.346802,-0.702002 -0.19074,-0.2258 -0.278164,-0.542004 -0.194284,-0.702672 0.0904,-0.173169 0.04446,-0.213092 -0.112784,-0.09798 -0.145908,0.106762 -0.265292,0.06446 -0.265292,-0.09397 0,-0.158446 -0.09373,-0.288084 -0.208285,-0.288084 -0.313894,0 -0.0044,1.113032 0.355062,1.276259 0.172041,0.07814 0.312799,0.312616 0.312799,0.52103 0,0.208414 0.103414,0.378941 0.229797,0.378941 0.126385,0 0.229789,-0.13116 0.229789,-0.291457 z m -1.608536,-1.900822 c 0,-0.140783 -0.155115,-0.255976 -0.344692,-0.255976 -0.355348,0 -0.456529,0.320985 -0.197741,0.627339 0.183593,0.217328 0.542433,-0.02838 0.542433,-0.371363 z m 0.459577,-0.800036 c 0,-0.149615 0.129259,-0.272272 0.287239,-0.27257 0.164017,-3.09e-4 0.311828,-0.408767 0.344552,-0.952098 0.03196,-0.530766 -0.05029,-0.951552 -0.185903,-0.951552 -0.133775,0 -0.169991,0.140258 -0.08051,0.311701 0.112863,0.216176 -0.0087,0.260838 -0.395872,0.145728 -0.408301,-0.12131 -0.635327,-0.02056 -0.843751,0.374541 -0.235581,0.446572 -0.224334,0.568139 0.06479,0.699463 0.192444,0.08739 0.349895,0.329467 0.349895,0.537881 0,0.208414 0.103404,0.378941 0.229789,0.378941 0.126383,0 0.229787,-0.12242 0.229787,-0.272035 z m 1.838333,-0.664013 c 0,-0.06601 -0.103404,-0.195614 -0.229788,-0.288085 -0.126385,-0.09243 -0.229798,-0.03845 -0.229798,0.119963 0,0.158447 0.103413,0.288085 0.229798,0.288085 0.126384,0 0.229788,-0.05398 0.229788,-0.119963 z m -1.176464,-1.944149 c 0.169722,-0.179318 -1.240961,-1.977316 -1.566581,-1.996676 -0.211333,-0.01254 -0.106757,0.25649 0.290463,0.747303 0.341373,0.421814 0.55096,0.849479 0.465735,0.95036 -0.0852,0.10086 -0.300555,-0.06261 -0.47852,-0.363447 -0.177964,-0.300782 -0.427685,-0.470703 -0.554921,-0.377615 -0.417994,0.30582 0.751845,1.496898 1.281467,1.304728 0.261228,-0.09479 0.514293,-0.213873 0.562357,-0.264653 z m 0.372196,-1.200228 c 0.07808,-0.149615 0.03248,-0.272036 -0.101337,-0.272036 -0.133844,0 -0.243355,0.122421 -0.243355,0.272036 0,0.149614 0.0456,0.272025 0.101338,0.272025 0.05575,0 0.165241,-0.122411 0.243354,-0.272025 z m -0.712033,-1.549405 c -0.526574,-0.455815 -0.684138,-0.06765 -0.309179,0.761737 0.256373,0.567101 0.28625,0.573424 0.506624,0.107256 0.180944,-0.382766 0.13606,-0.580313 -0.197445,-0.868993 z m -0.781609,-0.196118 c 0,-0.211951 -0.12926,-0.45565 -0.287241,-0.541541 -0.157981,-0.08585 -0.06913,-0.09336 0.19735,-0.01655 0.295343,0.08513 0.609428,-0.04246 0.804269,-0.326753 0.211897,-0.309151 0.222831,-0.397519 0.03248,-0.262113 -0.16188,0.11513 -0.287241,0.07063 -0.287241,-0.101992 0,-0.16843 -0.263686,-0.715492 -0.585978,-1.215712 -0.359951,-0.55865 -0.494144,-0.97667 -0.347897,-1.083669 0.359379,-0.262926 0.137693,-1.35852 -0.295195,-1.458856 -0.413304,-0.09582 -0.520833,0.360455 -0.149052,0.632459 0.151267,0.110679 0.140758,0.366902 -0.03057,0.745915 -0.214363,0.474146 -0.183671,0.653495 0.17172,1.003597 0.237997,0.234446 0.467125,0.661196 0.509178,0.948334 0.07339,0.501249 0.05254,0.503511 -0.523525,0.05675 -0.329988,-0.255956 -0.702142,-0.390621 -0.827024,-0.299251 -0.331316,0.242405 -3.98e-4,0.735623 0.378173,0.563647 0.176793,-0.0803 0.337196,0.0031 0.356442,0.185476 0.01928,0.18232 0.04785,0.453913 0.06348,0.603528 0.08503,0.811396 0.820649,1.319379 0.820649,0.56672 z m 0.689374,-3.406964 c 0,-0.367343 -0.418897,-0.621993 -0.693127,-0.421351 -0.128443,0.09397 -0.174048,0.284815 -0.101337,0.424097 0.172502,0.330402 0.794464,0.328253 0.794464,-0.0031 z m 0,-2.065839 c 0,-0.605347 -0.05619,-0.65405 -0.459586,-0.398475 -0.522943,0.331317 -0.594152,0.706475 -0.172346,0.907959 0.537499,0.256747 0.631932,0.180613 0.631932,-0.509484 z m -1.581414,-1.031315 c -0.336441,-0.398281 -0.486709,-0.459136 -0.486709,-0.197105 0,0.544544 0.769302,1.498173 0.882963,1.094516 0.04976,-0.176686 -0.128565,-0.580518 -0.396254,-0.897411 z m -0.946295,0.63284 c 0,-0.149615 -0.103404,-0.272025 -0.229789,-0.272025 -0.126384,0 -0.229797,0.12241 -0.229797,0.272025 0,0.149614 0.103413,0.272035 0.229797,0.272035 0.126385,0 0.229789,-0.122421 0.229789,-0.272035 z m 2.757497,-0.816085 c 0,-0.149615 -0.103404,-0.272025 -0.229788,-0.272025 -0.126385,0 -0.229797,0.12241 -0.229797,0.272025 0,0.149614 0.103412,0.272035 0.229797,0.272035 0.126384,0 0.229788,-0.122421 0.229788,-0.272035 z m -0.346228,-0.541099 c 0.122197,-0.234067 -0.626009,-0.40739 -0.8935,-0.206975 -0.04994,0.03742 -0.304584,-0.161058 -0.565916,-0.44103 -0.261332,-0.279973 -0.634112,-0.436836 -0.828396,-0.348581 -0.501664,0.227898 -0.438194,0.7216 0.09277,0.7216 0.245309,0 0.495968,0.09572 0.557006,0.212598 0.169427,0.324511 1.475213,0.374253 1.638032,0.06241 z m 0.346228,-1.428527 c 0,-0.11363 -0.142452,-0.206594 -0.316552,-0.206594 -0.37654,0 -0.887307,0.660404 -0.690738,0.893103 0.161742,0.19148 1.00729,-0.384792 1.00729,-0.686509 z m -1.608537,0.107595 c 0,-0.126431 -0.206816,-0.451436 -0.459586,-0.722237 -0.521623,-0.558824 -0.595089,-0.38549 -0.174517,0.411739 0.29206,0.553621 0.634103,0.721105 0.634103,0.310498 z m 1.148952,-0.85825 c 0,-0.149614 -0.103405,-0.272024 -0.229789,-0.272024 -0.126385,0 -0.229788,0.12241 -0.229788,0.272024 0,0.149615 0.103403,0.272025 0.229788,0.272025 0.126384,0 0.229789,-0.12241 0.229789,-0.272025 z m -1.505994,-0.932069 c -0.517801,-0.4516 -0.744246,-0.06354 -0.317837,0.544698 0.198957,0.283797 0.361367,0.323257 0.5264,0.12789 0.165032,-0.195367 0.100685,-0.402876 -0.208563,-0.672588 z M 73.318426,43.5059 c 0,-0.224432 -0.155115,-0.408048 -0.344692,-0.408048 -0.35883,0 -0.455895,0.321725 -0.191488,0.634732 0.264399,0.313007 0.53618,0.198102 0.53618,-0.226684 z m -1.441073,-0.666604 c -0.01815,-0.285936 -0.14088,-0.497753 -0.272623,-0.470702 -0.131744,0.02704 -0.210942,-0.155805 -0.175994,-0.406352 0.03491,-0.250547 -0.04343,-0.533778 -0.174109,-0.629406 -0.152309,-0.11144 -0.113244,-0.321139 0.108806,-0.584003 0.371885,-0.440228 0.479996,-1.045134 0.142696,-0.79836 -0.112063,0.08205 -0.331543,-0.03321 -0.487717,-0.255965 -0.156183,-0.222777 -0.387378,-0.405056 -0.513763,-0.405056 -0.137605,0 -0.124726,0.149861 0.03214,0.373564 0.144032,0.205463 0.195856,0.577259 0.115154,0.826222 -0.08303,0.256151 0.01754,0.667509 0.231631,0.947574 0.338021,0.442161 0.340991,0.53162 0.02788,0.839259 -0.454645,0.446675 -0.452708,0.926425 0.0026,0.719461 0.200745,-0.0912 0.409654,0.01306 0.483661,0.241356 0.175037,0.539999 0.520788,0.25323 0.479378,-0.397592 z m 0.751699,-0.02951 c 0,-0.140783 -0.103413,-0.255975 -0.229798,-0.255975 -0.126384,0 -0.229788,0.190843 -0.229788,0.424097 0,0.233253 0.103404,0.348446 0.229788,0.255975 0.126385,-0.09243 0.229798,-0.283303 0.229798,-0.424097 z m -0.131674,-1.213913 c 0.521709,-0.467248 0.283236,-0.920636 -0.267812,-0.509154 -0.418992,0.312872 -0.665499,0.927895 -0.366492,0.914385 0.105324,-0.0051 0.390758,-0.187111 0.634304,-0.405231 z m -0.09812,-2.034367 c 0,-0.149615 -0.103404,-0.272036 -0.229788,-0.272036 -0.126385,0 -0.229789,0.122421 -0.229789,0.272036 0,0.149614 0.103404,0.272025 0.229789,0.272025 0.126384,0 0.229788,-0.122411 0.229788,-0.272025 z m -0.689374,-0.510749 c 0,-0.131293 -0.155106,-0.391114 -0.344683,-0.577372 -0.189577,-0.186247 -0.344692,-0.235207 -0.344692,-0.108787 0,0.12642 -0.165649,-0.05017 -0.368124,-0.392327 -0.450371,-0.761193 -0.289411,-1.054501 0.236815,-0.431551 0.571631,0.6767 0.714283,0.250619 0.154316,-0.460905 -0.265528,-0.337404 -0.461045,-0.743344 -0.434477,-0.902078 0.02658,-0.158735 -0.08042,-0.564047 -0.23777,-0.900681 -0.332437,-0.711214 -0.01415,-0.814501 0.528874,-0.171637 0.204628,0.24224 0.434495,0.366501 0.510819,0.276148 0.07634,-0.09037 -0.13176,-0.484531 -0.462417,-0.875954 -0.330647,-0.391423 -0.663501,-0.94414 -0.739669,-1.228245 -0.07617,-0.284116 -0.234939,-0.516578 -0.352804,-0.516578 -0.269392,0 -0.268307,0.293842 0.0026,0.801434 0.129545,0.242404 0.121164,0.590398 -0.0218,0.906715 -0.174934,0.386951 -0.133923,0.641723 0.166544,1.034771 0.219237,0.286778 0.303542,0.52142 0.187337,0.52142 -0.116206,0 -0.209788,0.439036 -0.207964,0.975632 0.0026,0.728744 0.166475,1.141758 0.648069,1.63217 0.663788,0.675939 1.07869,0.836648 1.07869,0.417825 z m 0.689374,-0.697325 c 0,-0.06601 -0.103404,-0.195613 -0.229788,-0.288084 -0.126385,-0.09243 -0.229789,-0.03845 -0.229789,0.119963 0,0.158447 0.103404,0.288074 0.229789,0.288074 0.126384,0 0.229788,-0.05398 0.229788,-0.119953 z m 0.689375,-0.136012 c 0,-0.140793 -0.103405,-0.331636 -0.229789,-0.424097 -0.126385,-0.09243 -0.229788,0.02272 -0.229788,0.255965 0,0.233254 0.103403,0.424097 0.229788,0.424097 0.126384,0 0.229789,-0.115182 0.229789,-0.255965 z m -0.741121,-1.276074 c 0.346812,-0.410557 0.337145,-0.429711 -0.128486,-0.254763 -0.463086,0.173992 -0.491825,0.120148 -0.358145,-0.671076 0.139334,-0.824742 0.124987,-0.845212 -0.347513,-0.495892 -0.596054,0.44066 -0.600813,0.506944 -0.09073,1.262678 0.483687,0.716602 0.457667,0.712119 0.924869,0.159053 z M 72.16947,34.39296 c 0,-0.299229 -0.103404,-0.54405 -0.229789,-0.54405 -0.126385,0 -0.229797,0.244821 -0.229797,0.54405 0,0.29924 0.103412,0.54406 0.229797,0.54406 0.126385,0 0.229789,-0.24482 0.229789,-0.54406 z m -0.901855,-0.803418 c -0.177912,-0.130163 -0.250449,-0.426051 -0.167316,-0.68252 0.08069,-0.249005 0.243754,-0.381779 0.362296,-0.295045 0.118542,0.08677 0.274716,0.04431 0.347053,-0.09418 0.221712,-0.424673 -0.087,-1.000184 -0.559116,-1.042276 -0.246046,-0.0219 -0.676477,-0.292577 -0.9565,-0.60142 -0.592249,-0.653177 -0.739999,-0.683887 -1.06435,-0.221225 -0.17443,0.24881 -0.04863,0.559616 0.468053,1.156122 0.444414,0.513092 0.65308,0.639173 0.56233,0.339779 -0.160108,-0.528206 0.207703,-0.626887 0.760444,-0.204024 0.241018,0.184397 0.256131,0.264952 0.05029,0.267871 -0.497122,0.0072 -0.588306,0.81076 -0.156113,1.376102 0.225194,0.294572 0.467403,0.466981 0.538246,0.383126 0.07087,-0.0839 -0.01251,-0.255883 -0.185269,-0.382262 z m 0.701378,-3.185225 c 0.270504,-0.387938 0.266335,-0.43187 -0.02927,-0.308792 -0.189578,0.07896 -0.534504,0.02766 -0.766507,-0.113815 -0.543465,-0.331513 -0.760896,-0.073 -0.387065,0.460267 0.377763,0.538837 0.790042,0.525708 1.182883,-0.03763 z m -1.847766,-0.863884 c -0.124344,-0.275037 -0.174734,-0.734091 -0.111977,-1.020109 0.0628,-0.286018 -0.04265,-0.764853 -0.234278,-1.064082 -0.345213,-0.539105 -0.348452,-0.538632 -0.355687,0.05192 -0.0044,0.327801 0.10713,0.679744 0.247011,0.782085 0.181735,0.132958 0.174717,0.244316 -0.02458,0.390137 -0.368505,0.269609 -0.07322,1.360094 0.368315,1.360094 0.256191,0 0.282932,-0.120231 0.111203,-0.500077 z m 1.044548,-0.891293 c -0.187214,-0.31641 -0.285755,-0.743817 -0.218984,-0.949805 0.06678,-0.205987 -0.04446,-0.449852 -0.247124,-0.541932 -0.202692,-0.09212 -0.368532,-0.391916 -0.368532,-0.666306 0,-0.2744 -0.103404,-0.574554 -0.229788,-0.667025 -0.375663,-0.274842 -0.260777,0.954277 0.132741,1.420127 0.199392,0.23604 0.310829,0.663201 0.247636,0.949249 -0.09822,0.444639 0.282785,0.849531 0.953956,1.013735 0.03874,0.0093 -0.08268,-0.241633 -0.269905,-0.558043 z m 1.116965,-0.608052 c 0.260447,-0.308318 0.202491,-0.37088 -0.361107,-0.389849 -0.646096,-0.0218 -0.840433,0.194205 -0.518132,0.575747 0.236859,0.280404 0.539358,0.216444 0.879239,-0.185898 z m -0.670962,-2.897089 c -0.05168,-0.374037 -0.102397,-0.771875 -0.112785,-0.884086 -0.01042,-0.112211 -0.126992,-0.204024 -0.2591,-0.204024 -0.145596,0 -0.193199,0.401807 -0.120869,1.020109 0.11465,0.980063 0.108806,0.990745 -0.148844,0.272025 -0.147498,-0.41144 -0.397219,-0.748084 -0.554947,-0.748084 -0.507745,0 -0.54536,0.457943 -0.07868,0.957907 0.249789,0.267614 0.454166,0.626722 0.454166,0.798041 0,0.171308 0.127748,0.462703 0.283896,0.647542 0.225325,0.266751 0.319696,0.17977 0.457467,-0.42164 0.09548,-0.416745 0.131334,-1.063753 0.07973,-1.43779 z m 0.557692,1.360145 c 0,-0.149614 -0.103404,-0.272035 -0.229789,-0.272035 -0.126385,0 -0.229797,0.122421 -0.229797,0.272035 0,0.149615 0.103412,0.272025 0.229797,0.272025 0.126385,0 0.229789,-0.12241 0.229789,-0.272025 z m 0.229788,-1.512217 c 0,-0.233243 -0.103404,-0.348436 -0.229788,-0.255965 -0.126385,0.09243 -0.229789,0.283303 -0.229789,0.424097 0,0.140783 0.103404,0.255965 0.229789,0.255965 0.126384,0 0.229788,-0.190843 0.229788,-0.424097 z M 73.16526,24.35043 c 0.10733,-0.635317 0.227626,-0.764616 0.603201,-0.648344 0.327226,0.101272 0.469131,0.01429 0.469131,-0.287807 0,-0.359221 -0.106921,-0.384914 -0.62725,-0.150725 -0.344986,0.15527 -0.714778,0.427675 -0.82176,0.605327 -0.148749,0.24701 -0.221946,0.243011 -0.311072,-0.01707 -0.16393,-0.47828 -0.767626,-0.424796 -0.767626,0.06806 0,0.224422 0.158354,0.408037 0.3519,0.408037 0.193546,0 0.411418,0.183626 0.484172,0.408048 0.208589,0.643491 0.473291,0.478701 0.619304,-0.385532 z m 0.488038,0.268314 c 0.07269,-0.139282 0.0271,-0.330125 -0.101328,-0.424097 -0.128452,-0.09397 -0.23354,0.01995 -0.23354,0.25323 0,0.477828 0.137883,0.548183 0.334868,0.170867 z M 107.67224,198.18756 c 2.82436,-1.13449 3.63982,-1.59279 4.68318,-2.6321 1.89792,-1.89053 -0.25164,-3.99688 -5.83212,-5.71491 -1.76333,-0.54287 -1.92864,-0.63868 -1.12162,-0.65008 1.94772,-0.0276 7.44087,1.3763 7.44087,1.90159 0,0.1343 0.13162,0.18439 0.29251,0.11131 0.16088,-0.0731 0.78297,0.23534 1.38243,0.68538 3.50845,2.63396 0.76238,5.51892 -6.61545,6.95004 -3.01146,0.58414 -3.04794,0.48076 -0.2298,-0.65123 z m -44.98167,0.31568 c -0.347557,-0.0623 -0.631931,-0.197 -0.631931,-0.29928 0,-0.1023 -0.463789,-0.20713 -1.030644,-0.23303 -1.478366,-0.0675 -4.370846,-1.76031 -4.83896,-2.83194 -0.445846,-1.02063 -0.286754,-1.65114 0.654139,-2.59242 1.385167,-1.38575 4.93222,-2.74783 8.317653,-3.194 1.008785,-0.13295 0.846905,-0.0234 -1.326959,0.89777 -3.442103,1.45861 -4.762515,2.51766 -4.762515,3.81979 0,1.2877 1.667178,2.65864 4.825621,3.96817 l 1.493642,0.61929 -1.034056,-0.0205 c -0.56874,-0.0113 -1.318432,-0.0715 -1.66599,-0.13384 z m 32.941497,-2.32142 c 1.71063,-7.4282 4.29726,-16.27145 6.446263,-22.03867 4.12483,-11.06972 11.28826,-21.45166 19.3814,-28.08939 l 1.60855,-1.31927 -2.88811,3.51935 c -3.47833,4.23857 -6.09021,8.07182 -8.60737,12.63231 -5.40827,9.79848 -9.37698,20.56645 -11.829493,32.09597 -0.39743,1.86834 -0.83067,3.55113 -0.96274,3.73952 -0.21117,0.30121 -2.905475,1.43239 -3.411734,1.43239 -0.10502,0 0.01346,-0.88749 0.263234,-1.97221 z m -16.735446,1.43606 c -1.597846,-0.44941 -1.76188,-0.7552 -2.581096,-4.81129 -2.999201,-14.84962 -14.607196,-57.12633 -20.094,-73.18304 -5.509384,-16.12276 -10.166931,-27.556676 -15.60363,-38.305691 -2.423107,-4.790766 -3.776833,-7.214274 -6.000644,-10.742661 -2.401072,-3.809634 -2.410748,-3.83797 -0.604522,-1.77065 5.209646,5.962731 11.924417,16.508535 17.407321,27.338855 2.702555,5.338337 3.46022,7.006797 6.60883,14.553517 5.62711,13.48729 10.084702,27.65126 15.281546,48.55706 0.650856,2.61827 1.5362,6.16823 1.967412,7.88881 1.341429,5.35237 3.667254,16.70563 4.837241,23.61253 0.964003,5.6909 1.072653,6.64607 0.780801,6.86455 -0.391286,0.29292 -0.952696,0.29237 -1.999259,-0.002 z m -4.82496,-25.37455 c -1.407539,-7.00965 -5.695999,-23.93069 -8.221416,-32.43938 -1.697254,-5.71845 -4.178055,-13.28298 -6.200252,-18.90597 -2.666209,-7.41379 -8.040879,-20.36387 -8.316299,-20.03783 -0.05793,0.0686 0.200069,0.84096 0.573343,1.71639 1.271358,2.98168 4.615894,11.72594 6.034524,15.77722 4.519039,12.90533 11.439393,36.06836 14.577346,48.79162 0.719199,2.91608 1.354518,5.39378 1.411821,5.50599 0.198506,0.3887 0.263271,0.2012 0.140933,-0.40804 z m -1.524606,24.24942 c -0.487447,-0.13557 -1.188181,-0.45762 -1.557191,-0.71567 -0.708837,-0.49567 -0.63656,-0.27375 -2.25347,-6.91928 -1.292072,-5.31044 -3.330657,-11.8174 -5.085597,-16.23271 -0.49635,-1.24878 -0.834849,-2.40002 -0.75222,-2.55829 0.08259,-0.15828 0.05055,-0.21483 -0.0713,-0.12567 -0.12186,0.0891 -0.601665,-0.74726 -1.066235,-1.85871 -0.996234,-2.38341 -3.095988,-6.40282 -4.031062,-7.71636 l -0.660705,-0.92813 -0.807812,1.06415 c -0.4443,0.58527 -1.066556,1.43137 -1.382787,1.88023 -1.032842,1.46596 -4.435949,7.82582 -5.703833,10.65954 -0.681845,1.52391 -1.261405,2.74506 -1.287921,2.71367 -0.140828,-0.16672 1.161137,-6.61233 1.789508,-8.85922 1.445944,-5.17035 3.686135,-10.06041 5.043666,-11.00972 0.831505,-0.58147 2.404555,-0.55034 3.547018,0.0702 2.643898,1.43602 7.849801,10.56349 11.034602,19.34687 1.425386,3.93109 2.620481,7.8658 3.571041,11.75721 0.775564,3.17504 2.054235,9.14736 2.054235,9.59479 0,0.20946 -1.380946,0.11494 -2.379907,-0.16289 z M 55.825514,158.09297 c 0.514988,-0.55077 1.197458,-1.079 1.516615,-1.17382 0.843985,-0.25077 0.710365,-0.65749 -0.216006,-0.65749 -1.371661,0 -2.877168,1.93506 -4.574987,5.88032 -1.290604,2.99901 -0.989477,2.91675 0.752462,-0.20557 0.872064,-1.56311 2.00692,-3.29265 2.521916,-3.84344 z m 53.402196,28.44736 c 0.22358,-0.069 0.53379,-0.0645 0.68938,0.0103 0.15558,0.0745 -0.0274,0.13095 -0.40651,0.1254 -0.37916,-0.005 -0.50644,-0.0665 -0.28287,-0.13548 z m 42.69898,-0.92252 c -0.81072,-0.12427 -1.53457,-0.32297 -1.60853,-0.44156 -0.074,-0.11857 -0.49497,-0.25058 -0.93551,-0.29334 -0.44056,-0.0428 -0.88746,-0.18009 -0.99315,-0.30519 -0.20772,-0.24591 1.7571,-2.39368 4.30288,-4.70351 0.87425,-0.79323 1.62828,-1.58003 1.67561,-1.74845 0.0944,-0.33598 -1.54559,-0.0182 -7.93705,1.53812 -4.16679,1.0146 -4.30941,0.99519 -4.84109,-0.65851 -0.9542,-2.96791 1.69446,-5.79418 6.8885,-7.3504 4.20645,-1.26031 7.59207,-1.50451 11.75786,-0.84809 4.99876,0.78767 8.19724,2.34422 9.76695,4.75312 1.30421,2.00146 0.98113,3.89275 -1.02636,6.00825 -3.13782,3.30667 -10.4958,5.05425 -17.05011,4.04956 z M 48.730738,184.82464 c 0.449599,-0.34395 0.919163,-0.34395 0.919163,0 0,0.14961 -0.284365,0.27015 -0.631922,0.26786 -0.492424,-0.003 -0.555834,-0.0624 -0.287241,-0.26786 z m 1.14896,-0.24069 c 0,-0.16685 0.0476,-0.30337 0.105688,-0.30337 0.05811,0 1.118042,-0.29823 2.355364,-0.66273 4.820165,-1.41998 12.010851,-2.16202 12.733376,-1.31401 0.157216,0.18453 0.238942,0.39104 0.181603,0.45892 -0.05732,0.0679 -1.601537,0.31515 -3.431551,0.54949 -1.830014,0.23434 -4.671583,0.60538 -6.31459,0.82453 -1.643009,0.21915 -3.581872,0.47768 -4.308592,0.5745 -0.907578,0.12093 -1.321298,0.081 -1.321298,-0.12733 z m 69.971492,-0.46035 c -1.39024,-0.19952 -5.16363,-0.68469 -8.3853,-1.07815 -3.22168,-0.39346 -6.0085,-0.81536 -6.19292,-0.93754 -0.23652,-0.15669 0.0291,-0.35027 0.90133,-0.65691 2.48481,-0.87354 8.1382,-0.40896 13.2173,1.08614 2.34551,0.69044 5.17031,1.73733 5.17031,1.91617 0,0.18619 -2.17832,0.0337 -4.71072,-0.32971 z m -93.410218,-0.28 c 2.546659,-1.31624 7.526378,-2.53924 13.098112,-3.21683 1.832584,-0.22286 4.088426,-0.59364 5.012982,-0.82395 2.100684,-0.52329 2.360348,-0.52495 2.194733,-0.0141 -0.224229,0.69176 -2.864522,2.00397 -4.909804,2.44017 -1.731013,0.36917 -14.917522,2.06827 -15.840028,2.04101 -0.198149,-0.006 0.0017,-0.19771 0.444005,-0.42634 z m -11.216448,-2.02187 c -0.465187,-0.51305 -0.616099,-1.14357 -0.518331,-2.16563 0.07712,-0.80586 1.147335,-1.63217 2.114032,-1.63217 0.7149,0 1.076041,0.17996 1.595727,0.79516 0.828907,0.98127 0.86654,1.99122 0.107659,2.88959 -0.748467,0.88604 -2.542473,0.94751 -3.299087,0.11305 z m 1.795752,-2.84462 c -0.452342,-0.64523 -1.476446,-0.42274 -1.568013,0.34064 -0.107078,0.89275 0.832225,1.28524 1.433456,0.59898 0.373378,-0.42619 0.393927,-0.56966 0.134557,-0.93962 z m 11.029233,-2.28875 c -2.954396,-0.50097 -5.0449,-1.62483 -5.73681,-3.08414 -0.778804,-1.64257 1.038217,-3.48431 4.358061,-4.41732 3.105029,-0.87265 8.716749,-0.77754 9.204118,0.15599 0.09127,0.17482 0.279727,0.23463 0.418783,0.13288 0.51755,-0.37865 3.245423,1.53154 3.245423,2.27261 0,0.31291 -0.753166,0.51561 -2.719648,0.73197 -0.90551,0.0996 -1.646387,0.27718 -1.646387,0.39456 0,0.21117 1.965249,1.16315 3.092818,1.49817 0.766436,0.22772 0.737776,0.55034 -0.09413,1.05961 -1.773787,1.08585 -7.17341,1.75569 -10.122221,1.25567 z m 97.546461,-1.02689 c -5.80968,-0.88255 -8.75195,-3.62482 -6.45299,-6.01435 1.67472,-1.7407 5.92745,-2.92689 9.67007,-2.69725 5.13606,0.31516 8.59858,2.42834 8.06931,4.92472 -0.18741,0.88398 -0.39372,0.88993 -4.43132,0.12784 -1.69281,-0.3195 -3.14278,-0.50402 -3.22216,-0.41005 -0.0793,0.094 0.44086,0.89717 1.15611,1.78486 0.71524,0.8877 1.30045,1.72947 1.30045,1.87062 0,0.50871 -3.77535,0.76514 -6.08947,0.41361 z m 16.95496,-8.70944 c -0.73765,-0.16901 -1.67384,-1.60715 -1.67384,-2.57131 0,-0.53934 0.22781,-1.08582 0.6717,-1.6113 0.56863,-0.67315 0.85343,-0.79516 1.85602,-0.79516 1.00257,0 1.28736,0.12201 1.856,0.79516 1.13618,1.34502 0.84469,3.27216 -0.60327,3.98837 -0.77473,0.38319 -1.13645,0.41655 -2.10661,0.19424 z m 0.86898,-2.81111 c 0.58381,-0.36988 0.5637,-0.94884 -0.0506,-1.45822 -0.84238,-0.69848 -1.97547,0.42992 -1.34079,1.33524 0.33291,0.47487 0.77442,0.51388 1.39143,0.12298 z m -11.73566,-3.4588 c -0.13892,-0.56105 -0.31252,-1.94906 -0.38578,-3.08445 -0.11771,-1.82427 -0.0446,-2.40953 0.62872,-5.03253 0.99145,-3.86238 1.00061,-5.42149 0.0518,-8.81678 -1.30076,-4.6546 -1.19469,-6.68319 0.55629,-10.6401 1.15758,-2.6159 1.25667,-4.50074 0.4326,-8.22764 -0.90394,-4.08813 -0.92381,-3.93314 1.52148,-11.87147 0.37093,-1.20418 0.44249,-1.97391 0.36669,-3.9444 l -0.0942,-2.44825 0.4326,1.63217 c 0.57287,2.16134 0.42638,4.96415 -0.41231,7.88881 -0.88161,3.07431 -0.86016,4.96682 0.0969,8.54925 0.64221,2.40392 0.74519,3.1509 0.67505,4.89651 -0.0733,1.82419 -0.22484,2.41441 -1.32463,5.15879 -1.47987,3.69285 -1.56037,4.80527 -0.62136,8.58653 0.94867,3.82017 0.80973,5.42017 -0.89478,10.30387 -0.81076,2.32299 -0.83619,2.49799 -0.76098,5.23686 0.0429,1.55845 0.0568,2.83342 0.0311,2.83325 -0.0256,-1.7e-4 -0.16032,-0.45936 -0.29924,-1.02042 z m -89.42901,-3.60437 c 0.0859,-0.52365 0.147976,-1.9314 0.137884,-3.12833 -0.01607,-1.90637 -0.151432,-2.58813 -1.091509,-5.49792 -1.320437,-4.08708 -1.39875,-5.67014 -0.450648,-9.10956 0.438186,-1.5896 0.622638,-2.82843 0.622925,-4.1838 3.56e-4,-1.70177 -0.109214,-2.19174 -0.942891,-4.21644 -1.189015,-2.88769 -1.210233,-2.96744 -1.345945,-5.05897 -0.12509,-1.92787 0.265979,-4.34372 1.049116,-6.48091 0.668514,-1.82438 0.640574,-4.23636 -0.08198,-7.07273 -0.972593,-3.8181 -0.988131,-6.16168 -0.05706,-8.60823 l 0.347357,-0.91277 -0.155532,1.08811 c -0.368983,2.58145 -0.135677,4.49801 0.976911,8.02484 0.860269,2.72703 1.074824,3.75049 1.083491,5.16854 0.01025,1.67417 -0.636378,4.89651 -0.982563,4.89651 -0.08715,0 -0.175672,1.03461 -0.196716,2.29915 -0.03474,2.09004 0.02814,2.45486 0.691797,4.0112 1.936345,4.54094 2.055218,6.71054 0.64106,11.70038 -1.073027,3.78615 -1.083432,4.55457 -0.112393,8.29763 0.302291,1.16523 0.613675,2.64168 0.691962,3.281 0.163713,1.33687 -0.190193,4.33391 -0.660618,5.59447 l -0.320911,0.85992 z m 104.98683,-0.48428 c -0.45359,-0.59333 -0.51231,-1.71084 -0.11464,-2.1816 0.15165,-0.17954 0.6663,-0.32644 1.14366,-0.32644 0.68239,0 0.95206,0.15207 1.26167,0.71142 0.35266,0.63717 0.35846,0.78623 0.0555,1.42815 -0.43771,0.92753 -1.76007,1.13521 -2.34622,0.36847 z m 1.18331,-0.84462 c 0.45025,-0.33778 0.2255,-1.2417 -0.33231,-1.3365 -0.26254,-0.0446 -0.6195,0.12164 -0.79324,0.36947 -0.27253,0.38871 -0.25585,0.50261 0.12147,0.82921 0.5076,0.43939 0.58748,0.45035 1.00408,0.13782 z m -10.74505,-1.16728 c -0.13993,-0.47521 -0.31771,-1.67017 -0.39507,-2.65549 -0.12253,-1.56082 -0.0483,-2.10494 0.57663,-4.22624 0.39451,-1.33912 0.71729,-2.92481 0.71729,-3.52374 0,-0.59894 -0.37348,-2.36946 -0.82997,-3.93448 -1.01914,-3.49407 -0.97188,-4.22823 0.51457,-7.99262 1.16412,-2.94808 1.18203,-3.19912 0.53046,-7.43568 -0.25876,-1.68249 -0.24819,-2.16904 0.0816,-3.75062 0.20837,-0.99954 0.54982,-2.08816 0.75879,-2.41917 0.33191,-0.52576 0.35704,-0.53307 0.19871,-0.0578 -0.0997,0.29923 -0.22631,1.48128 -0.28142,2.62677 -0.082,1.70599 0.0132,2.53841 0.52601,4.60214 0.81121,3.26382 0.72481,5.08598 -0.36037,7.60007 -0.90624,2.09956 -1.26906,4.67594 -0.78234,5.55532 0.56185,1.01509 1.08257,3.9848 0.93078,5.3084 -0.0781,0.68096 -0.52762,2.33982 -0.99898,3.68636 -0.77741,2.22083 -0.85726,2.682 -0.85962,4.96452 -0.002,1.38394 -0.0183,2.51626 -0.0376,2.51626 -0.0192,0 -0.14946,-0.3888 -0.2894,-0.86401 z M 36.702883,151.46918 c 0.164581,-1.76469 -0.189325,-3.72147 -1.119119,-6.18769 -1.021376,-2.70911 -1.113464,-5.01488 -0.31029,-7.76942 0.847008,-2.9049 0.791181,-4.4571 -0.258787,-7.19487 -1.081869,-2.82096 -1.131225,-4.77915 -0.192843,-7.65104 0.67659,-2.07067 0.82982,-4.55251 0.367637,-5.95434 -0.39734,-1.20512 -0.07477,-1.20868 0.366396,-0.004 0.568435,1.55222 0.652914,4.3192 0.203325,6.65924 -0.483044,2.51413 -0.333262,3.59337 0.879742,6.33891 0.896052,2.02814 0.945383,2.26192 0.918398,4.35245 -0.02362,1.82918 -0.152083,2.54589 -0.746826,4.16649 -0.938374,2.55696 -0.972193,4.54508 -0.118351,6.95704 0.735075,2.07647 0.854251,5.20862 0.255957,6.7273 l -0.375081,0.9521 z M 35.7896,143.15329 c -0.07339,-0.21699 -0.1278,-0.15254 -0.138831,0.16436 -0.01,0.28676 0.04438,0.44743 0.120687,0.35703 0.07634,-0.0904 0.08451,-0.32501 0.01815,-0.52139 z M 71.268445,82.655334 c 0.01103,-0.316903 0.06549,-0.381357 0.13883,-0.164358 0.06636,0.196374 0.05819,0.430995 -0.01815,0.521389 -0.07634,0.09037 -0.130667,-0.07022 -0.120687,-0.357031 z"
       id="path1" /></g></svg>
