<?xml version="1.0" encoding="UTF-8" standalone="no"?>
<!-- Created with Inkscape (http://www.inkscape.org/) -->

<svg
   width="240mm"
   height="180mm"
   viewBox="0 0 240 180"
   version="1.1"
   id="svg1"
   sodipodi:docname="ore_gold.svg"
   inkscape:version="1.4.2 (f4327f4, 2025-05-13)"
   xmlns:inkscape="http://www.inkscape.org/namespaces/inkscape"
   xmlns:sodipodi="http://sodipodi.sourceforge.net/DTD/sodipodi-0.dtd"
   xmlns="http://www.w3.org/2000/svg"
   xmlns:svg="http://www.w3.org/2000/svg">
  <sodipodi:namedview
     id="namedview1"
     pagecolor="#505050"
     bordercolor="#ffffff"
     borderopacity="1"
     inkscape:showpageshadow="0"
     inkscape:pageopacity="0"
     inkscape:pagecheckerboard="1"
     inkscape:deskcolor="#505050"
     inkscape:document-units="mm"
     inkscape:zoom="0.70710678"
     inkscape:cx="-19.79899"
     inkscape:cy="313.95541"
     inkscape:window-width="2560"
     inkscape:window-height="1351"
     inkscape:window-x="-9"
     inkscape:window-y="-9"
     inkscape:window-maximized="1"
     inkscape:current-layer="layer1"
     showguides="true" />
  <defs
     id="defs1">
    <rect
       x="2744"
       y="-392"
       width="880"
       height="4816"
       id="rect6" />
    <rect
       x="101.82338"
       y="91.923882"
       width="384.66608"
       height="299.81326"
       id="rect3" />
    <rect
       x="2.8284271"
       y="2.1213202"
       width="662.55902"
       height="647.00269"
       id="rect2" />
  </defs>
  <g
     inkscape:label="Icon"
     inkscape:groupmode="layer"
     id="layer1">
    <path
       id="rect5"
       style="fill:#000000;stroke:#000000;stroke-width:0.264583"
       d="M 66.056524,24.074051 16.317958,153.75554 H 33.22907 l 12.932028,-36.35385 h 54.983722 l 13.74593,36.35385 h 16.82068 L 81.791998,24.074051 Z m 7.415569,15.735473 h 0.361734 c 0.66318,3.979078 1.326363,6.872969 1.989543,8.681641 L 96.170961,103.74619 H 51.225388 L 71.392116,48.491165 c 0.783759,-2.110117 1.477086,-5.004008 2.079977,-8.681641 z m 73.341777,21.342367 v 55.345459 c 0,26.28603 11.03244,39.4286 33.09824,39.4286 12.90185,0 22.42758,-5.60691 28.57706,-16.82068 h 0.36174 v 14.65027 h 14.83113 V 61.151891 h -14.83113 v 53.355919 c 0,8.62133 -2.35129,15.61439 -7.05384,20.98011 -4.64225,5.30544 -10.58076,7.95817 -17.81545,7.95817 -14.95168,0 -22.42705,-9.76636 -22.42705,-29.30002 V 61.151891 Z" />
  </g>
</svg>
