<?xml version="1.0" encoding="UTF-8" standalone="no"?>
<!-- Created with Inkscape (http://www.inkscape.org/) -->

<svg
   width="240mm"
   height="180mm"
   viewBox="0 0 240 180"
   version="1.1"
   id="svg1"
   sodipodi:docname="ore_silicon.svg"
   inkscape:version="1.4.2 (f4327f4, 2025-05-13)"
   xmlns:inkscape="http://www.inkscape.org/namespaces/inkscape"
   xmlns:sodipodi="http://sodipodi.sourceforge.net/DTD/sodipodi-0.dtd"
   xmlns="http://www.w3.org/2000/svg"
   xmlns:svg="http://www.w3.org/2000/svg">
  <sodipodi:namedview
     id="namedview1"
     pagecolor="#505050"
     bordercolor="#ffffff"
     borderopacity="1"
     inkscape:showpageshadow="0"
     inkscape:pageopacity="0"
     inkscape:pagecheckerboard="1"
     inkscape:deskcolor="#505050"
     inkscape:document-units="mm"
     inkscape:zoom="0.70710678"
     inkscape:cx="364.8671"
     inkscape:cy="258.80108"
     inkscape:window-width="2560"
     inkscape:window-height="1351"
     inkscape:window-x="-9"
     inkscape:window-y="-9"
     inkscape:window-maximized="1"
     inkscape:current-layer="layer1"
     showguides="true" />
  <defs
     id="defs1">
    <rect
       x="101.82338"
       y="91.923882"
       width="384.66608"
       height="299.81326"
       id="rect3" />
    <rect
       x="2.8284271"
       y="2.1213202"
       width="662.55902"
       height="647.00269"
       id="rect2" />
  </defs>
  <g
     inkscape:label="Icon"
     inkscape:groupmode="layer"
     id="layer1">
    <path
       id="text1"
       style="font-size:185.208px;line-height:0;font-family:'Segoe UI';-inkscape-font-specification:'Segoe UI, Normal';text-align:start;writing-mode:lr-tb;direction:ltr;text-anchor:start;fill:#000000;stroke:#000000;stroke-width:0.264583"
       d="m 170.14526,21.225131 c -2.65272,0 -4.91305,0.934486 -6.78201,2.803446 -1.86897,1.808672 -2.80345,4.099669 -2.80345,6.872966 0,2.773297 0.93448,5.064294 2.80345,6.872965 1.86896,1.808672 4.12929,2.713013 6.78201,2.713013 2.71301,0 5.004,-0.934485 6.87297,-2.803446 1.92925,-1.868961 2.89388,-4.129813 2.89388,-6.782532 0,-2.773297 -0.96463,-5.064294 -2.89388,-6.872966 -1.86897,-1.86896 -4.15996,-2.803446 -6.87297,-2.803446 z m -64.84049,3.526917 c -5.606882,0 -11.123362,0.693328 -16.549377,2.079976 -5.365726,1.386648 -10.158733,3.496777 -14.378967,6.330363 -4.220235,2.833586 -7.626585,6.450949 -10.219015,10.852051 -2.592429,4.340812 -3.888651,9.46541 -3.888651,15.373738 0,4.823125 0.813907,9.043383 2.441711,12.660726 1.688094,3.557055 3.979091,6.752393 6.872966,9.585978 2.893874,2.833586 6.300225,5.42603 10.219014,7.777303 3.918789,2.351274 8.139047,4.672415 12.660726,6.9634 4.280523,2.170406 8.259623,4.250387 11.937263,6.239927 3.73792,1.92925 6.9634,3.97909 9.67641,6.1495 2.71301,2.11011 4.82313,4.4614 6.33036,7.05383 1.56752,2.59243 2.35128,5.63704 2.35128,9.13381 0,6.51122 -2.32114,11.51524 -6.9634,15.012 -4.58197,3.43648 -11.54539,5.15473 -20.890202,5.15473 -2.713007,0 -5.667188,-0.2713 -8.862508,-0.81391 -3.19532,-0.5426 -6.390658,-1.29622 -9.585978,-2.26084 -3.135031,-1.02491 -6.149501,-2.26085 -9.043376,-3.70778 -2.833585,-1.44694 -5.275306,-3.07476 -7.325133,-4.88343 v 17.90589 c 1.688094,1.14549 3.9188,2.20055 6.692097,3.16518 2.833586,0.90433 5.817911,1.65795 8.952942,2.26084 3.135031,0.66318 6.20979,1.1455 9.224243,1.44694 3.014453,0.36174 5.546608,0.5426 7.596436,0.5426 6.149484,0 11.997559,-0.63303 17.544149,-1.8991 5.5466,-1.20579 10.43004,-3.19534 14.65027,-5.96863 4.28052,-2.7733 7.65673,-6.36052 10.12858,-10.76162 2.53214,-4.46139 3.79822,-9.88743 3.79822,-16.27808 0,-4.82312 -0.93449,-9.10367 -2.80345,-12.84159 -1.80867,-3.73792 -4.28053,-7.14427 -7.41556,-10.21901 -3.13504,-3.074745 -6.78254,-5.878202 -10.94249,-8.410343 -4.15994,-2.53214 -8.56107,-4.943716 -13.20333,-7.2347 -4.52168,-2.230695 -8.530925,-4.280535 -12.027691,-6.149496 -3.436476,-1.86896 -6.360511,-3.798221 -8.772074,-5.78776 -2.411562,-1.989539 -4.250389,-4.190102 -5.516459,-6.601664 -1.205781,-2.411563 -1.808675,-5.275309 -1.808675,-8.591207 0,-3.557055 0.813907,-6.571524 2.441711,-9.043376 1.627805,-2.471851 3.737934,-4.491546 6.330363,-6.059061 2.59243,-1.567516 5.54661,-2.68287 8.862508,-3.346049 3.315899,-0.723469 6.631817,-1.085205 9.947717,-1.085205 11.99752,0 21.82469,2.652733 29.4814,7.95817 v -17.09198 c -5.84803,-3.074742 -15.16275,-4.612121 -27.94403,-4.612121 z m 57.24457,39.24825 v 92.604162 h 14.83062 V 64.000298 Z" />
  </g>
</svg>
