<?xml version="1.0" encoding="UTF-8" standalone="no"?>
<!-- Created with Inkscape (http://www.inkscape.org/) -->

<svg
   width="240mm"
   height="180mm"
   viewBox="0 0 240 180"
   version="1.1"
   id="svg1"
   sodipodi:docname="ore_iron_meteoritic.svg"
   inkscape:version="1.4.2 (f4327f4, 2025-05-13)"
   xml:space="preserve"
   xmlns:inkscape="http://www.inkscape.org/namespaces/inkscape"
   xmlns:sodipodi="http://sodipodi.sourceforge.net/DTD/sodipodi-0.dtd"
   xmlns="http://www.w3.org/2000/svg"
   xmlns:svg="http://www.w3.org/2000/svg"><sodipodi:namedview
     id="namedview1"
     pagecolor="#505050"
     bordercolor="#ffffff"
     borderopacity="1"
     inkscape:showpageshadow="0"
     inkscape:pageopacity="0"
     inkscape:pagecheckerboard="1"
     inkscape:deskcolor="#505050"
     inkscape:document-units="mm"
     inkscape:zoom="0.70710678"
     inkscape:cx="582.65599"
     inkscape:cy="316.78384"
     inkscape:window-width="2560"
     inkscape:window-height="1351"
     inkscape:window-x="-9"
     inkscape:window-y="-9"
     inkscape:window-maximized="1"
     inkscape:current-layer="layer1"
     showguides="true" /><defs
     id="defs1"><rect
       x="2744"
       y="-392"
       width="880"
       height="4816"
       id="rect6" /><rect
       x="101.82338"
       y="91.923882"
       width="384.66608"
       height="299.81326"
       id="rect3" /><rect
       x="2.8284271"
       y="2.1213202"
       width="662.55902"
       height="647.00269"
       id="rect2" /></defs><g
     inkscape:label="Icon"
     inkscape:groupmode="layer"
     id="layer1"><path
       id="rect4"
       style="fill:#000000;stroke:#000000;stroke-width:0.264583"
       d="M 208.52009 0.24597982 C 208.45272 0.25167557 208.3535 0.43577454 208.29788 0.65990804 C 208.2413 0.88760038 207.74697 2.3950544 207.19924 4.0095744 C 206.6515 5.6240955 205.4166 9.2818222 204.45522 12.138277 C 203.49384 14.994731 202.35683 18.364595 201.92876 19.626709 L 201.15051 21.921659 L 189.24013 21.9599 L 177.32974 21.998657 L 183.57949 26.363765 C 195.22304 34.495928 196.39957 35.335235 196.44847 35.545634 C 196.47534 35.661186 195.5477 38.55357 194.3871 41.973665 C 192.40947 47.801461 189.62057 56.050815 189.37139 56.810486 C 189.31039 56.996776 189.29972 57.149483 189.34762 57.149483 C 189.39553 57.149483 190.9666 56.07747 192.83888 54.767716 C 194.71117 53.457952 198.97255 50.477606 202.30858 48.144348 C 205.64462 45.811088 208.44001 43.901713 208.52061 43.901713 C 208.6013 43.901713 209.85384 44.731794 211.3039 45.746045 C 212.75393 46.760296 216.07055 49.080287 218.67451 50.901803 C 221.27848 52.72331 224.36154 54.878676 225.52525 55.691174 C 226.68895 56.503674 227.66718 57.143176 227.69928 57.112276 C 227.75643 57.057287 226.82952 54.273064 222.74868 42.238765 C 221.63832 38.96432 220.6885 36.085036 220.6377 35.84019 C 220.56115 35.471815 220.62118 35.340802 220.98703 35.081063 C 221.23019 34.908415 224.03418 32.948428 227.21766 30.725773 C 230.40115 28.503118 234.51438 25.63032 236.3587 24.341667 L 239.71198 21.998657 L 227.80418 21.9599 L 215.89587 21.921659 L 215.2742 20.078361 C 213.68458 15.363543 210.59852 6.2279329 209.76962 3.7837484 C 209.26419 2.2934174 208.80428 0.88760038 208.74798 0.65990804 C 208.69165 0.43221686 208.59059 0.24597982 208.52319 0.24597982 C 208.52214 0.24597982 208.52116 0.24588941 208.52009 0.24597982 z M 38.564571 24.073983 L 38.564571 153.75547 L 53.757442 153.75547 L 53.757442 96.330554 L 100.60213 96.330554 L 100.60213 82.675057 L 53.757442 82.675057 L 53.757442 37.819914 L 104.40035 37.819914 L 104.40035 24.073983 L 38.564571 24.073983 z M 163.36316 58.981413 C 151.24505 58.981413 141.08629 63.533262 132.88698 72.63691 C 124.74796 81.680269 120.67842 93.406558 120.67842 107.81564 C 120.67842 123.06877 124.41636 134.91512 131.89221 143.35559 C 139.36805 151.73577 149.64739 155.92588 162.73012 155.92588 C 176.11429 155.92588 186.87543 152.9717 195.01445 147.06337 L 195.01445 133.13658 C 186.27254 140.00953 176.68704 143.44602 166.25704 143.44602 C 156.97252 143.44602 149.6775 140.64257 144.37207 135.03569 C 139.06663 129.4288 136.29332 121.47112 136.05216 111.16169 L 201.43525 111.16169 L 201.43525 103.38439 C 201.43525 89.457608 198.11933 78.575379 191.48754 70.737801 C 184.85574 62.900223 175.48126 58.981413 163.36316 58.981413 z M 163.09185 71.461271 C 170.32654 71.461271 175.96308 73.842702 180.00245 78.605538 C 184.10211 83.368374 186.18209 90.030352 186.24238 98.591398 L 136.23303 98.591398 C 137.37852 90.512664 140.39299 83.971265 145.2764 78.967273 C 150.15982 73.963281 156.09832 71.461271 163.09185 71.461271 z " /></g></svg>
