<?xml version="1.0" encoding="UTF-8" standalone="no"?>
<!-- Created with Inkscape (http://www.inkscape.org/) -->

<svg
   width="240mm"
   height="180mm"
   viewBox="0 0 240 180"
   version="1.1"
   id="svg1"
   sodipodi:docname="ore_sulfur.svg"
   inkscape:version="1.4.2 (f4327f4, 2025-05-13)"
   xmlns:inkscape="http://www.inkscape.org/namespaces/inkscape"
   xmlns:sodipodi="http://sodipodi.sourceforge.net/DTD/sodipodi-0.dtd"
   xmlns="http://www.w3.org/2000/svg"
   xmlns:svg="http://www.w3.org/2000/svg">
  <sodipodi:namedview
     id="namedview1"
     pagecolor="#505050"
     bordercolor="#ffffff"
     borderopacity="1"
     inkscape:showpageshadow="0"
     inkscape:pageopacity="0"
     inkscape:pagecheckerboard="1"
     inkscape:deskcolor="#505050"
     inkscape:document-units="mm"
     inkscape:zoom="0.70710678"
     inkscape:cx="-42.426407"
     inkscape:cy="329.51176"
     inkscape:window-width="2560"
     inkscape:window-height="1351"
     inkscape:window-x="-9"
     inkscape:window-y="-9"
     inkscape:window-maximized="1"
     inkscape:current-layer="layer1"
     showguides="true" />
  <defs
     id="defs1">
    <rect
       x="2744"
       y="-392"
       width="880"
       height="4816"
       id="rect6" />
    <rect
       x="101.82338"
       y="91.923882"
       width="384.66608"
       height="299.81326"
       id="rect3" />
    <rect
       x="2.8284271"
       y="2.1213202"
       width="662.55902"
       height="647.00269"
       id="rect2" />
  </defs>
  <g
     inkscape:label="Icon"
     inkscape:groupmode="layer"
     id="layer1">
    <path
       id="text1"
       style="font-size:185.208px;line-height:0;font-family:'Segoe UI';-inkscape-font-specification:'Segoe UI, Normal';text-align:start;writing-mode:lr-tb;direction:ltr;text-anchor:start;fill:#000000;stroke:#000000;stroke-width:0.264583"
       d="M 125.92358 22.988778 C 120.3167 22.988778 114.80022 23.682106 109.3742 25.068754 C 104.00848 26.455402 99.215469 28.565531 94.995235 31.399117 C 90.775001 34.232703 87.36865 37.850066 84.776221 42.251168 C 82.183791 46.59198 80.887569 51.716579 80.887569 57.624906 C 80.887569 62.448031 81.701476 66.668289 83.329281 70.285632 C 85.017374 73.842687 87.308371 77.038025 90.202246 79.871611 C 93.096121 82.705196 96.502472 85.29764 100.42126 87.648914 C 104.34005 90.000187 108.56031 92.321329 113.08199 94.612313 C 117.36251 96.782719 121.34161 98.862703 125.01924 100.85224 C 128.75716 102.78149 131.98265 104.83133 134.69565 107.00174 C 137.40866 109.11185 139.51879 111.46314 141.02602 114.05557 C 142.59353 116.648 143.37729 119.69261 143.37729 123.18938 C 143.37729 129.7006 141.05615 134.7041 136.4139 138.20087 C 131.83193 141.63734 124.8685 143.35559 115.5237 143.35559 C 112.81069 143.35559 109.85651 143.08429 106.66119 142.54169 C 103.46587 141.99909 100.27053 141.24547 97.075212 140.28084 C 93.94018 139.25593 90.925711 138.02 88.031836 136.57306 C 85.19825 135.12612 82.75653 133.49831 80.706702 131.68964 L 80.706702 149.59552 C 82.394795 150.74101 84.625503 151.79608 87.3988 152.7607 C 90.232385 153.66504 93.21671 154.41865 96.351742 155.02155 C 99.486773 155.68473 102.56153 156.16704 105.57598 156.46849 C 108.59044 156.83022 111.12259 157.01109 113.17242 157.01109 C 119.3219 157.01109 125.16998 156.37805 130.71657 155.11198 C 136.26316 153.9062 141.1466 151.91665 145.36684 149.14335 C 149.64736 146.37005 153.02357 142.78284 155.49542 138.38173 C 158.02756 133.92034 159.29364 128.49482 159.29364 122.10417 C 159.29364 117.28105 158.35915 113.0005 156.49019 109.26258 C 154.68152 105.52466 152.20965 102.11831 149.07462 99.043567 C 145.93959 95.968825 142.29208 93.165368 138.13214 90.633228 C 133.97219 88.101087 129.57107 85.689511 124.92881 83.398527 C 120.40713 81.167832 116.39788 79.117992 112.90112 77.249032 C 109.46464 75.380071 106.54061 73.45081 104.12904 71.461271 C 101.71748 69.471732 99.878656 67.271169 98.612585 64.859607 C 97.406804 62.448045 96.80391 59.584298 96.80391 56.2684 C 96.80391 52.711346 97.617817 49.696876 99.245622 47.225024 C 100.87343 44.753173 102.98356 42.733478 105.57598 41.165963 C 108.16841 39.598447 111.12259 38.483093 114.43849 37.819914 C 117.75439 37.096445 121.07031 36.734709 124.38621 36.734709 C 136.38373 36.734709 146.2109 39.387442 153.86761 44.692879 L 153.86761 27.600899 C 148.01957 24.526157 138.70486 22.988778 125.92358 22.988778 z " />
  </g>
</svg>
