<?xml version="1.0" encoding="UTF-8" standalone="no"?>
<!-- Created with Inkscape (http://www.inkscape.org/) -->

<svg
   width="240"
   height="240"
   viewBox="0 0 240 240"
   version="1.1"
   id="svg1"
   xml:space="preserve"
   inkscape:version="1.4.2 (f4327f4, 2025-05-13)"
   sodipodi:docname="conveyance_boat.svg"
   xmlns:inkscape="http://www.inkscape.org/namespaces/inkscape"
   xmlns:sodipodi="http://sodipodi.sourceforge.net/DTD/sodipodi-0.dtd"
   xmlns="http://www.w3.org/2000/svg"
   xmlns:svg="http://www.w3.org/2000/svg"><sodipodi:namedview
     id="namedview1"
     pagecolor="#505050"
     bordercolor="#ffffff"
     borderopacity="1"
     inkscape:showpageshadow="0"
     inkscape:pageopacity="0"
     inkscape:pagecheckerboard="1"
     inkscape:deskcolor="#505050"
     inkscape:document-units="px"
     inkscape:zoom="2.8284271"
     inkscape:cx="21.213203"
     inkscape:cy="229.8097"
     inkscape:window-width="2560"
     inkscape:window-height="1351"
     inkscape:window-x="-9"
     inkscape:window-y="-9"
     inkscape:window-maximized="1"
     inkscape:current-layer="layer1" /><defs
     id="defs1" /><g
     inkscape:label="Warstwa 1"
     inkscape:groupmode="layer"
     id="layer1"><path
       id="path2"
       style="fill:#000000;stroke-width:0.719801"
       d="M 116.80469 3.15625 C 110.41457 3.15625 109.29548 3.3567729 106.57617 4.9980469 C 104.12768 6.4758559 103.36259 7.4531495 102.71094 9.9296875 C 100.65797 17.731729 97.855829 22.554059 93.917969 25.060547 C 91.438999 26.638447 91.366515 26.639868 65.359375 26.027344 C 51.019185 25.689649 37.37187 25.666487 35.03125 25.976562 C 24.83562 27.327253 19.195966 36.861903 23.253906 45.888672 C 24.730066 49.172355 27.847591 52.416461 30.244141 53.162109 C 31.121871 53.435203 31.839844 54.030349 31.839844 54.486328 C 31.839844 54.942306 30.557174 59.347452 28.990234 64.275391 C 24.172984 79.425379 22.738727 93.409284 25.060547 102.58984 C 25.623467 104.81564 26.287756 108.41812 26.535156 110.5957 C 27.198776 116.4369 32.10635 129.85594 36.125 136.81445 C 38.05892 140.16314 39.640625 143.18904 39.640625 143.53906 C 39.640625 144.30145 42.252229 145.37702 46.449219 146.3457 C 48.139879 146.7359 60.558765 147.11123 74.046875 147.17773 C 90.814375 147.26045 98.728516 147.54845 99.072266 148.0918 C 99.348786 148.52888 99.576172 158.99582 99.576172 171.34961 C 99.576172 175.61781 99.576472 179.07489 99.5625 181.875 L 105.65234 181.875 C 105.64184 178.05396 105.64882 173.77077 105.67773 169.29492 C 105.77394 154.40455 105.60858 141.81501 105.31055 141.31836 C 104.91627 140.66133 104.51689 140.63196 103.8418 141.20898 C 103.17446 141.77932 94.978244 141.77633 74.646484 141.19727 C 42.793594 140.2901 43.899296 140.34419 44.291016 139.69141 C 44.450126 139.42628 43.821541 138.3661 42.894531 137.33594 C 41.967531 136.30578 41.327796 135.34059 41.472656 135.19141 C 41.931726 134.71861 38.902399 127.16452 37.537109 125.37695 C 36.816529 124.43347 35.339256 120.72648 34.253906 117.14062 C 33.202275 113.66619 32.164577 110.91036 31.902344 110.86914 C 31.901335 110.86906 31.899422 110.86913 31.898438 110.86914 L 31.896484 110.86914 L 31.894531 110.86914 L 31.892578 110.87109 L 31.890625 110.87109 C 31.889719 110.87146 31.885646 110.87259 31.884766 110.87305 L 31.882812 110.875 C 31.664102 111.01421 31.447644 110.09159 31.402344 108.82422 C 31.357014 107.55686 31.038139 101.91768 30.693359 96.292969 C 30.345642 90.620328 30.190276 88.094358 30.052734 87.966797 C 30.051767 87.966136 30.04784 87.963314 30.046875 87.962891 C 30.046393 87.962797 30.044193 87.961409 30.042969 87.960938 L 30.041016 87.960938 C 30.040535 87.96108 30.036381 87.962503 30.035156 87.962891 C 29.932479 88.04359 29.832041 89.46761 29.664062 91.910156 C 29.262172 97.754009 29.262679 97.754001 29.136719 92.275391 C 28.992129 85.986655 30.065094 78.153544 31.121094 77.791016 C 31.516044 77.655439 31.839844 76.943239 31.839844 76.208984 C 31.839844 74.766295 33.163022 70.4403 37.076172 59.095703 C 38.450972 55.110031 39.381801 51.526236 39.144531 51.130859 C 38.907271 50.735481 39.058169 50.631598 39.480469 50.900391 C 40.294039 51.418241 41.487761 48.642046 40.769531 47.902344 C 40.538271 47.664173 39.555608 47.906938 38.585938 48.441406 C 36.333137 49.683112 31.744101 48.415734 29.269531 45.867188 C 26.373241 42.884306 26.932775 39.543805 31.078125 35.068359 C 34.573095 31.295084 34.574324 31.294966 62.464844 31.457031 C 92.249244 31.630097 97.254283 31.203226 98.789062 28.363281 C 100.32912 25.513562 102.9004 22.497731 104.75 21.371094 C 106.4096 20.36018 106.63606 19.750717 106.69336 16.130859 C 106.729 13.878294 107.17058 11.52146 107.67578 10.894531 C 108.88569 9.39309 112.86074 8.4115084 116.7793 8.2832031 C 119.13043 8.20622 121.46186 8.4357465 123.16406 9.046875 C 125.33695 9.827 126.398 11.605358 127.2793 15.939453 C 128.07819 19.868283 129.58874 22.518057 132.69531 25.4375 C 134.37427 27.015319 135.99983 28.317861 136.30664 28.332031 C 136.61345 28.346164 137.15991 28.850477 137.52148 29.453125 C 138.26109 30.685813 139.38552 30.710579 177.5957 30.292969 C 190.07896 30.156519 201.00519 30.074781 201.875 30.113281 C 204.42211 30.225964 206.32227 34.925175 206.32227 41.111328 C 206.32227 45.313382 206.05728 46.526512 204.875 47.744141 C 203.03963 49.634387 200.11417 50.793297 198.50586 50.267578 C 197.00597 49.7773 193.23178 52.8612 191.77148 55.769531 C 191.20934 56.889095 190.69761 58.904438 190.63281 60.248047 C 190.52089 62.567012 187.99212 70.974311 186.55859 73.794922 C 184.73824 77.376625 184.25342 81.500719 184.4707 91.544922 C 184.65054 99.85892 185.03851 103.31488 186.27734 107.61523 C 187.14538 110.62847 188.37258 115.68976 189.00391 118.86328 C 189.89047 123.31963 190.59996 125.06577 192.11914 126.5332 C 194.5798 128.91006 195.68164 131.07717 195.68164 133.53516 C 195.68164 136.08928 193.89396 139.51784 192.02344 140.54883 C 190.98016 141.12387 180.63033 141.49988 158.87109 141.75195 C 139.00974 141.98203 132.61555 142.33585 130.41406 142.80859 C 130.65386 142.83652 130.81883 142.86946 130.8457 142.91406 C 130.84675 142.91622 130.84905 142.92163 130.84961 142.92383 C 130.85009 142.92715 130.85021 142.93408 130.84961 142.9375 C 130.83258 142.99856 130.64627 143.07836 130.29492 143.17383 C 129.63624 143.35279 128.96278 144.21838 128.79688 145.09766 C 128.69182 145.65432 128.61419 145.96453 128.55859 146.00977 C 128.55759 146.01027 128.55373 146.0114 128.55273 146.01172 L 128.55078 146.01367 L 128.54883 146.01367 L 128.54688 146.01367 L 128.54492 146.01172 L 128.54297 146.01172 L 128.54102 146.01172 L 128.53906 146.00977 L 128.53711 146.00781 C 128.47849 145.94728 128.43818 145.51416 128.39844 144.6875 C 128.34548 143.58603 128.44739 143.06607 128.91211 142.86328 C 128.80193 142.90119 126.74199 142.90521 126.7168 142.94531 C 126.43067 143.40071 126.43067 144.9239 126.7168 146.33008 C 127.27903 149.0932 127.38876 158.63488 126.98438 169.70508 C 126.88726 172.3636 126.91709 177.13647 127.04297 181.875 L 132.58203 181.875 L 132.58203 172.88672 L 132.6582 172.88672 C 132.51389 172.36651 132.31304 172.02528 132.04883 171.72461 C 131.06225 170.60185 131.01983 169.77642 131.72461 165.50195 C 132.17143 162.79195 132.74315 157.73148 132.99414 154.25586 C 133.44539 148.00695 133.47295 147.93086 135.50781 147.51172 C 136.63958 147.2786 149.22494 147.42269 163.47461 147.83203 C 189.38309 148.57631 189.38139 148.57717 194.30078 145.20898 C 199.94506 141.3445 201.35956 139.59373 201.34766 136.48828 C 201.33504 133.17197 199.68853 127.46624 197.44141 122.95508 C 196.3407 120.74537 194.84353 116.80091 194.11523 114.18945 C 192.10093 106.96675 189.34371 91.630447 189.32031 87.523438 C 189.29392 82.88833 191.4215 75.108672 194.51367 68.535156 C 195.83659 65.7228 196.95856 62.499197 197.00586 61.373047 C 197.14604 58.036746 198.30096 56.674274 202.08203 55.380859 C 209.36219 52.890483 212.48942 47.790868 211.82422 39.496094 C 211.62293 36.985981 210.97796 33.781177 210.39062 32.375 C 209.80329 30.968822 209.03777 28.832248 208.68945 27.626953 C 208.05613 25.435508 208.05458 25.435547 174.73828 25.435547 C 141.42198 25.435547 141.42236 25.435999 138.53711 23.501953 C 135.06892 21.177202 133.88 19.407323 132.23242 14.113281 C 130.68083 9.1276199 128.09924 5.0899845 125.75977 3.9921875 C 124.78027 3.5325535 120.75061 3.15625 116.80469 3.15625 z M 128.91211 142.86328 C 128.98749 142.83734 130.29787 142.83354 130.41406 142.80859 C 130.26982 142.7918 130.11878 142.77548 129.89648 142.76367 C 129.46215 142.74058 129.14278 142.76262 128.91211 142.86328 z M 116.59766 14.84375 C 111.98735 14.84375 111.98828 14.843773 111.98828 17.390625 C 111.98828 19.393914 112.55632 20.481167 114.64844 22.484375 C 117.69679 25.40319 118.13516 25.517519 119.91211 23.861328 C 120.86051 22.977379 121.20898 21.602893 121.20898 18.748047 C 121.20898 14.843615 121.20795 14.84375 116.59766 14.84375 z M 107.86914 26.53125 C 106.19938 26.53125 104.89453 27.929917 104.89453 29.71875 C 104.89453 31.067927 106.65889 33.462102 118.56055 48.263672 C 121.22574 51.578233 123.7306 54.289063 124.12695 54.289062 C 125.80056 54.289063 127.5918 52.66101 127.5918 51.138672 C 127.5918 48.957292 109.61749 26.53125 107.86914 26.53125 z M 126.50391 28.408203 C 126.04856 28.434983 125.52411 28.678653 124.69336 29.121094 C 122.31154 30.389605 122.18553 31.003522 123.79492 33.533203 C 125.29378 35.88913 127.5417 35.605962 128.98633 32.878906 C 130.01466 30.937723 129.9832 30.749937 128.41602 29.423828 C 127.55913 28.698753 127.08935 28.373771 126.50391 28.408203 z M 197.76953 35.462891 C 197.0464 35.467025 196.08048 35.573541 194.79492 35.714844 C 191.96667 36.025708 177.56515 36.242916 162.79102 36.197266 C 135.92896 36.114276 135.92878 36.11391 133.50586 38.759766 C 130.24626 42.31927 130.61014 43.588322 135.04492 44.130859 C 136.99204 44.369063 152.3898 44.616568 169.26172 44.679688 C 199.93792 44.794449 199.9375 44.792972 199.9375 39.970703 C 199.9375 36.354003 199.93892 35.450486 197.76953 35.462891 z M 95.751953 36.783203 C 91.320665 36.671721 83.123398 36.756333 67.845703 36.953125 C 37.611763 37.342574 35.022871 37.472928 34.175781 38.666016 C 33.089411 40.196144 33.072022 40.437337 33.951172 41.871094 C 34.517982 42.795447 38.260656 43.026843 57.878906 43.351562 C 70.669346 43.563268 84.662479 43.810771 88.974609 43.900391 C 96.814839 44.063334 96.814991 44.063225 99.175781 41.554688 C 100.78424 39.845557 101.38764 38.64595 101.06836 37.789062 C 100.84978 37.202413 100.18324 36.894686 95.751953 36.783203 z M 106.3125 45.144531 C 104.14805 45.101674 101.81644 48.941916 103.48438 51.011719 C 105.5921 53.627304 110.76938 50.829819 109.24609 47.898438 C 108.84618 47.128884 108.04855 46.097699 107.47266 45.605469 C 107.10982 45.295342 106.71332 45.152468 106.3125 45.144531 z M 50.765625 50.814453 C 47.237734 50.893282 46.57935 52.318015 43.945312 58.015625 C 39.691652 67.216597 37.824596 73.928911 36.728516 83.960938 C 35.025416 99.548711 38.589781 116.4393 46.613281 130.80664 C 49.163971 135.37406 49.163947 135.37305 77.029297 135.37305 C 104.89464 135.37305 104.89453 135.37369 104.89453 97.445312 C 104.89453 59.516909 104.89459 59.516366 102.4043 58.669922 C 99.977747 57.845149 96.382812 53.95747 96.382812 52.158203 C 96.382812 51.467852 92.580848 51.316699 79.892578 51.498047 C 70.822708 51.627678 59.814387 51.437651 55.429688 51.076172 C 53.436642 50.911863 51.941589 50.788177 50.765625 50.814453 z M 136.21289 51.466797 C 134.76628 51.666979 134.63946 52.185543 134.38672 53.222656 C 133.70657 56.013548 131.41796 59.214211 129.70117 59.775391 C 128.33104 60.223236 128.30078 61.038528 128.30078 97.802734 C 128.30078 135.37329 128.30077 135.37305 159.1543 135.37305 C 183.36449 135.37305 190.00813 135.17743 190.00781 134.46094 C 190.00759 133.95874 188.7534 131.44716 187.2207 128.88086 C 183.55621 122.74514 181.92544 117.73467 180.41992 107.98047 C 177.84884 91.322448 179.43089 74.213531 184.77539 60.863281 C 186.14253 57.448279 187.43638 54.080042 187.65234 53.376953 C 188.0181 52.186177 186.98418 52.098003 172.53711 52.095703 C 164.00689 52.094365 152.04606 51.881115 145.95898 51.621094 C 140.42527 51.384711 137.6595 51.266614 136.21289 51.466797 z M 114.67773 55.304688 C 114.3197 55.290124 113.96753 55.592004 113.37891 56.140625 C 112.01416 57.412705 111.98828 58.812248 111.98828 127.73828 C 111.98828 154.73906 111.96832 171.49901 111.86719 181.875 L 121.4082 181.875 C 121.33547 169.20747 121.28017 150.71839 121.26367 130.12695 C 121.20862 61.423298 121.18408 60.225079 119.82031 59.779297 C 119.05724 59.529866 117.61048 58.316481 116.60352 57.083984 C 115.60814 55.865688 115.13806 55.323412 114.67773 55.304688 z M 182.83789 142.75781 C 183.86634 142.75884 184.86747 142.79848 185.59375 142.87695 C 185.95689 142.91619 186.14433 142.95243 186.17188 142.98633 L 186.17188 142.98828 L 186.17383 142.99023 L 186.17383 142.99219 L 186.17578 142.99414 L 186.17578 142.99609 L 186.17578 142.99805 L 186.17383 143 L 186.17383 143.00195 L 186.17188 143.00391 C 186.08275 143.09544 184.75487 143.15836 182.56055 143.15625 C 180.48813 143.1545 179.2674 143.09711 179.16992 143.01367 L 179.16797 143.01367 L 179.16797 143.01172 L 179.16602 143.00977 L 179.16602 143.00781 L 179.16406 143.00781 L 179.16406 143.00586 L 179.16406 143.00391 L 179.16406 143.00195 L 179.16406 143 L 179.16602 142.99805 L 179.16602 142.99609 L 179.16797 142.99414 C 179.20579 142.95706 179.45073 142.91449 179.91992 142.87109 C 180.75405 142.79452 181.80944 142.75679 182.83789 142.75781 z M 103.47656 142.77344 C 103.79795 142.77344 104.11947 142.82251 104.36328 142.92383 C 104.85091 143.12649 104.45181 143.29297 103.47656 143.29297 C 102.50126 143.29297 102.10221 143.12649 102.58984 142.92383 C 102.83366 142.82251 103.15517 142.77344 103.47656 142.77344 z " /><path
       style="fill:#000000"
       d="m 81.500001,234.77578 c -24.19192,-4.24577 -35.63842,-7.58162 -51,-14.8629 -11.0036,-5.21563 -16.27777,-9.74276 -20.099611,-17.25266 -2.0085997,-3.94688 -2.4003897,-6.19116 -2.4003897,-13.75 v -9.03324 H 120 232 v 9.06574 c 0,10.06994 -0.32037,10.96409 -6.89153,19.2343 -11.16475,14.05153 -32.0254,21.59564 -72.31065,26.15067 -15.0538,1.70212 -62.455069,2.00003 -71.297819,0.44809 z M 101,207.20612 c -0.44415,-12.58801 -1.078499,-16.60609 -2.406899,-15.24581 -0.58927,0.60341 -1.06334,13.23599 -0.81035,21.59335 0.17898,5.91259 0.52549,7.24524 1.96725,7.56593 0.962499,0.21409 1.749999,0.35959 1.749999,0.32332 0,-0.0363 -0.225,-6.44282 -0.5,-14.23679 z m 18.21308,2.83123 c 0.6194,-15.03957 0.19954,-18.16037 -2.44321,-18.16037 -1.58932,0 -1.87857,0.46482 -1.40016,2.25 0.33164,1.2375 0.60913,7.9875 0.61664,15 0.0108,10.08918 0.29804,12.75 1.37638,12.75 1.04612,0 1.47602,-2.75078 1.85035,-11.83963 z m 18.38145,10.08963 c -0.29713,-0.9625 -0.75098,-7.825 -1.00855,-15.25 -0.38756,-11.1721 -0.73711,-13.55575 -2.02715,-13.82332 -1.89398,-0.39284 -1.96526,1.76284 -0.47359,14.32332 0.58786,4.95 1.06237,10.6875 1.05448,12.75 -0.0103,2.67825 0.41569,3.75 1.49035,3.75 0.97219,0 1.31351,-0.61932 0.96446,-1.75 z m 18.90547,-14.25 v -13.5 l -3,-0.29563 -3,-0.29564 0.64403,10.29564 c 0.35422,5.6626 0.69172,12.01443 0.75,14.11518 0.0933,3.36445 0.37406,3.78148 2.35597,3.5 2.20644,-0.31336 2.25,-0.5809 2.25,-13.81955 z m -73.747599,7.75 c -0.53602,-2.8875 -0.72149,-8.9625 -0.41217,-13.5 0.4637,-6.80203 0.30769,-8.25 -0.88891,-8.25 -1.12579,0 -1.44973,1.51402 -1.44421,6.75 0.0116,11.05835 1.14686,20.25 2.50098,20.25 0.92748,0 0.98589,-1.25511 0.24431,-5.25 z M 174,213.53058 c 0,-1.8405 -0.29238,-7.4655 -0.64974,-12.5 -0.56828,-8.00591 -0.88174,-9.15362 -2.5,-9.15362 -1.66877,0 -1.85026,0.91958 -1.85026,9.375 0,12.13132 0.69874,15.625 3.125,15.625 1.45979,0 1.875,-0.74103 1.875,-3.34638 z m -106.358149,-1.4036 c -0.34091,-2.0625 -0.62479,-7.4625 -0.63084,-12 -0.009,-6.93012 -0.26991,-8.25 -1.62929,-8.25 -1.41917,0 -1.53521,1.07653 -0.94315,8.75 0.89187,11.55918 1.57039,15.25 2.80356,15.25 0.62168,0 0.77767,-1.46343 0.39972,-3.75 z m 122.975919,-0.69632 c 0.9791,-2.55149 -1.02118,-18.86219 -2.36777,-19.30723 -1.43055,-0.47279 -1.59717,3.42706 -0.59829,14.00355 0.60619,6.41849 1.75203,8.4674 2.96606,5.30368 z M 50.000001,201.37698 c 0,-8.96665 -0.11722,-9.5 -2.0879,-9.5 -1.84577,0 -2.02282,0.43487 -1.52676,3.75 0.30862,2.0625 0.85551,6 1.21531,8.75 0.64959,4.96492 1.11209,6.5 1.95837,6.5 0.24254,0 0.44098,-4.275 0.44098,-9.5 z m 151.799999,5.3 c 0.69804,-0.69804 1.2,-4.04444 1.2,-8 0,-6.58667 -0.0784,-6.8 -2.5,-6.8 -2.43939,0 -2.5,0.17778 -2.5,7.33333 0,8.57447 0.90802,10.35865 3.8,7.46667 z m -169.000099,-9.55 -0.2999,-5.75 -3.75,-0.31037 c -2.92316,-0.24193 -3.75,0.0482 -3.75,1.31575 0,3.09041 5.09686,10.49462 7.22422,10.49462 0.48157,0 0.74063,-2.5875 0.57568,-5.75 z m 181.051089,-1.72203 c 2.12448,-3.60071 1.51747,-5.09708 -1.65873,-4.08899 -1.38513,0.43962 -1.69754,1.35866 -1.38164,4.06455 0.2245,1.92306 0.53951,3.49647 0.70001,3.49647 0.1605,0 1.21366,-1.56241 2.34036,-3.47203 z"
       id="path6" /></g></svg>
