<?xml version="1.0" encoding="UTF-8" standalone="no"?>
<!-- Created with Inkscape (http://www.inkscape.org/) -->

<svg
   width="240"
   height="240"
   viewBox="0 0 240 240"
   version="1.1"
   id="svg1"
   xml:space="preserve"
   inkscape:version="1.4.2 (f4327f4, 2025-05-13)"
   sodipodi:docname="conveyance_raft.svg"
   xmlns:inkscape="http://www.inkscape.org/namespaces/inkscape"
   xmlns:sodipodi="http://sodipodi.sourceforge.net/DTD/sodipodi-0.dtd"
   xmlns="http://www.w3.org/2000/svg"
   xmlns:svg="http://www.w3.org/2000/svg"><sodipodi:namedview
     id="namedview1"
     pagecolor="#505050"
     bordercolor="#ffffff"
     borderopacity="1"
     inkscape:showpageshadow="0"
     inkscape:pageopacity="0"
     inkscape:pagecheckerboard="1"
     inkscape:deskcolor="#505050"
     inkscape:document-units="px"
     inkscape:zoom="2.192031"
     inkscape:cx="10.036354"
     inkscape:cy="156.93209"
     inkscape:window-width="2560"
     inkscape:window-height="1351"
     inkscape:window-x="-9"
     inkscape:window-y="-9"
     inkscape:window-maximized="1"
     inkscape:current-layer="layer1" /><defs
     id="defs1" /><g
     inkscape:label="Warstwa 1"
     inkscape:groupmode="layer"
     id="layer1"><path
       style="fill:#000000;stroke-width:0.719801"
       d="m 192.13594,236.71811 c -1.15556,-1.20319 -92.961629,-2.93808 -101.781185,-1.92342 -8.940389,1.02859 -68.494347,1.66706 -71.636932,0.76803 -3.532431,-1.01057 -8.483082,-5.85919 -9.6691276,-9.46986 -0.4871734,-1.48309 -0.8936738,-5.65498 -0.9033341,-9.27086 -0.022908,-8.58457 1.6218668,-14.33021 5.1377017,-17.94695 2.372018,-2.4401 3.136562,-2.75085 8.801895,-3.57765 3.412336,-0.49798 10.114999,-0.78943 14.894807,-0.64764 8.690567,0.25778 8.690567,0.25778 8.690567,-5.34727 0,-4.55672 0.279016,-5.99042 1.491821,-7.66552 2.314845,-3.19724 7.280036,-5.47818 12.177407,-5.59413 3.606174,-0.0854 4.954963,0.3023 9.454053,2.71742 2.88628,1.54934 6.688733,4.19571 8.449903,5.8808 1.761161,1.68508 4.633732,3.92042 6.383488,4.96739 3.397406,2.03286 10.590144,4.20393 13.922894,4.20251 2.025452,-7.2e-4 2.025452,-7.2e-4 2.025452,-22.46231 0,-12.35379 -0.226238,-22.81906 -0.502757,-23.25614 -0.34375,-0.54335 -8.259086,-0.83296 -25.026588,-0.91568 -13.488114,-0.0665 -25.907107,-0.44027 -27.597767,-0.83047 -4.196988,-0.96868 -6.806756,-2.04512 -6.806756,-2.80751 0,-0.35002 -1.582305,-3.37623 -3.516225,-6.72492 -4.018647,-6.95851 -8.927443,-20.37743 -9.591071,-26.21863 -0.247396,-2.17758 -0.910385,-5.78035 -1.473302,-8.00615 -2.321825,-9.180566 -0.887688,-23.163384 3.929569,-38.313372 1.56694,-4.927939 2.848986,-9.332962 2.848986,-9.78894 0,-0.455979 -0.718142,-1.05249 -1.595872,-1.325584 -2.396546,-0.745648 -5.513143,-3.988294 -6.989311,-7.271977 -4.057934,-9.026769 1.58129,-18.561411 11.776927,-19.912101 2.340613,-0.310076 15.988548,-0.287445 30.328738,0.05025 26.007142,0.612524 26.079368,0.61007 28.558346,-0.96783 3.93786,-2.506488 6.739913,-7.32804 8.792883,-15.1300816 0.65165,-2.476538 1.41714,-3.452944 3.86563,-4.930753 2.71931,-1.6412745 3.83734,-1.8427128 10.22746,-1.8427128 3.94592,0 7.9758,0.3760595 8.9553,0.8356932 2.33947,1.0977976 4.92226,5.1358716 6.47385,10.1215332 1.64758,5.294042 2.83584,7.063708 6.30403,9.388459 2.88525,1.934046 2.88525,1.934046 36.20155,1.934046 33.3163,0 33.3163,0 33.94962,2.191445 0.34832,1.205295 1.11386,3.341954 1.70119,4.748132 0.58733,1.406177 1.23257,4.610421 1.43386,7.120534 0.6652,8.294774 -2.4624,13.394046 -9.74256,15.884422 -3.78107,1.293415 -4.93573,2.656672 -5.07591,5.992973 -0.0473,1.12615 -1.16843,4.348564 -2.49135,7.16092 -3.09217,6.573516 -5.22056,14.355095 -5.19417,18.990202 0.0234,4.107009 2.78151,19.442212 4.79581,26.664912 0.7283,2.61146 2.22476,6.55607 3.32547,8.76578 2.24712,4.51116 3.89456,10.21768 3.90718,13.53399 0.0119,3.10545 -1.40226,4.85533 -7.04654,8.71981 -4.91939,3.36819 -4.91939,3.36819 -30.82787,2.62391 -14.24967,-0.40934 -26.83449,-0.55353 -27.96626,-0.32041 -2.03486,0.41914 -2.06286,0.49428 -2.51411,6.74319 -0.25099,3.47562 -0.82192,8.53659 -1.26874,11.24659 -0.70478,4.27447 -0.66174,5.09874 0.32484,6.2215 0.97744,1.11233 1.07833,2.7925 0.71786,11.95496 -0.41941,10.66072 -0.41941,10.66072 2.21773,11.17025 1.45043,0.28023 13.54624,0.29242 26.8796,0.027 26.80929,-0.5335 52.60262,0.41489 58.1424,2.13781 4.73829,1.47364 7.84219,4.14518 10.00188,8.60872 1.60194,3.31076 1.84646,4.74067 1.84597,10.79502 -5.1e-4,6.1674 -0.23628,7.48836 -2.02789,11.36168 -3.07623,6.65051 -3.71923,7.03218 -13.02456,7.73122 -14.85412,1.1159 -24.30999,1.57884 -24.66648,1.20765 z m -90.7874,-6.66876 c 6.04659,-0.0432 34.77228,0.0773 63.83489,0.26786 50.24598,0.32953 52.99048,0.28023 55.88278,-1.00364 4.2535,-1.88811 5.4317,-4.45273 5.45275,-11.86916 0.0156,-5.52059 -0.14424,-6.18229 -2.20661,-9.13102 -1.22291,-1.74849 -3.20163,-3.7749 -4.39713,-4.50313 -2.7208,-1.65731 -13.5679,-2.59394 -32.74421,-2.82741 -13.83089,-0.16838 -13.83089,-0.16838 -3.90103,-0.59669 8.24842,-0.35578 6.98732,-0.43162 -7.4474,-0.4478 -9.5575,-0.0108 -14.98346,0.16785 -12.0577,0.39679 4.90044,0.38345 4.47177,0.46209 -5.44064,0.99808 -20.83856,1.12677 -67.080825,0.22904 -68.596272,-1.33171 -0.471861,-0.48598 -1.623159,-1.13371 -2.558446,-1.43943 -0.935288,-0.30573 -2.197099,-1.10421 -2.804027,-1.77439 -0.606926,-0.67019 -0.788978,-0.74739 -0.404556,-0.17154 1.711398,2.56357 -7.515346,-3.45024 -11.743407,-7.65413 -2.883628,-2.86713 -5.276067,-4.64647 -6.247506,-4.64647 -0.865871,0 -2.544827,-0.51687 -3.731022,-1.14861 -1.959803,-1.04376 -2.410605,-1.04401 -4.937544,-0.003 -1.529456,0.63027 -3.16177,1.06497 -3.62736,0.966 -0.465584,-0.099 -0.865921,0.14879 -0.889625,0.55055 -0.07325,1.2415 -1.15295,2.59984 -1.759594,2.21371 -1.074902,-0.68418 -0.224515,7.26645 1.072702,10.02918 0.982023,2.09143 1.092421,2.94975 0.462818,3.59819 -0.565691,0.58259 -5.480666,0.90305 -15.561522,1.01459 -8.104072,0.0897 -15.453376,0.29966 -16.331794,0.46664 -2.269996,0.43154 -5.838963,4.13779 -5.321602,5.52634 0.260049,0.69792 0.129507,0.94573 -0.340581,0.6465 -0.527432,-0.33572 -0.749252,2.09447 -0.720064,7.88871 0.02319,4.60564 0.278532,8.22347 0.567392,8.03961 0.28886,-0.18386 0.714582,0.17396 0.946041,0.79516 0.276603,0.74236 0.119754,0.97273 -0.457633,0.67213 -0.483159,-0.25155 -0.240125,0.0699 0.540079,0.71422 0.780204,0.64438 2.004805,1.90144 2.721338,2.79348 0.716525,0.89204 1.096662,1.211 0.844735,0.70879 -0.560279,-1.1169 -0.710363,-1.12619 3.172054,0.1963 2.723892,0.92785 7.922285,1.01806 35.463827,0.61546 17.749646,-0.25949 37.219288,-0.50719 43.265869,-0.55045 z m -77.090522,-5.93077 c -2.930667,-1.26908 -4.969795,-5.06136 -3.634248,-6.75879 0.684856,-0.87043 0.696644,-1.03836 0.04455,-0.6349 -1.289778,0.79804 -1.144376,-2.74921 0.224429,-5.47533 1.945106,-3.87383 4.121932,-4.28906 22.485123,-4.28906 17.265983,0 18.25119,-0.17153 18.25119,-3.17755 0,-0.78342 -1.276698,-3.705 -2.837105,-6.49241 -1.560409,-2.78741 -2.837107,-5.30604 -2.837107,-5.59696 0,-0.78451 4.053473,-3.72763 5.113536,-3.71281 0.503423,0.007 5.224169,3.48141 10.490547,7.72085 5.266378,4.23941 10.692344,8.42478 12.057702,9.30082 2.482468,1.59281 2.482468,1.59281 67.971705,1.95806 65.48923,0.36524 65.48923,0.36524 67.6367,2.84087 1.98218,2.28508 2.12415,2.80765 1.8445,6.7893 -0.24394,3.47324 -0.67689,4.69875 -2.22227,6.29016 -1.9193,1.97647 -1.9193,1.97647 -97.12595,2.09573 -78.098378,0.0978 -95.612154,-0.0563 -97.463295,-0.85798 z m -11.08012,-8.94017 c -0.178405,-0.70308 -0.324374,-0.12783 -0.324374,1.27834 0,1.40619 0.145969,1.98144 0.324374,1.27836 0.178397,-0.7031 0.178397,-1.8536 0,-2.5567 z m 25.222349,-15.33309 c -2.438138,-0.14265 -6.427818,-0.14265 -8.865957,0 -2.438138,0.14264 -0.443298,0.25933 4.432979,0.25933 4.876276,0 6.871116,-0.11669 4.432978,-0.25933 z m 60.661892,0.01 c -1.45257,-0.15697 -4.005966,-0.15914 -5.674212,-0.006 -1.668247,0.15432 -0.479777,0.28274 2.641041,0.28539 3.120816,0.003 4.485742,-0.1236 3.033171,-0.28056 z m 5.640691,0.0896 c -0.23569,-0.24273 -0.84745,-0.26867 -1.35945,-0.0577 -0.56582,0.23318 -0.39775,0.40628 0.42853,0.44133 0.74769,0.0317 1.1666,-0.14094 0.93092,-0.38367 z m 29.27244,0.15283 c 0,-0.15868 -1.27671,-0.41391 -2.83712,-0.56716 -1.56041,-0.15326 -2.8371,-0.0234 -2.8371,0.28851 0,0.31193 1.27669,0.56716 2.8371,0.56716 1.56041,0 2.83712,-0.12982 2.83712,-0.28851 z m -9.11548,-1.28733 c 2.93012,0.28779 2.93012,0.28779 2.40023,-10.9385 -0.29143,-6.17448 -0.41581,-14.34912 -0.27639,-18.16589 0.4044,-11.0702 0.2955,-20.6123 -0.26673,-23.37542 -0.28613,-1.40618 -0.28613,-2.92928 0,-3.38468 0.36906,-0.5874 9.71298,-0.93449 32.1548,-1.19446 21.75924,-0.25207 32.10806,-0.62745 33.15134,-1.20249 1.87052,-1.03099 3.65929,-4.45943 3.65929,-7.01355 0,-2.45799 -1.10277,-4.6248 -3.56343,-7.00166 -1.51918,-1.46743 -2.22837,-3.2137 -3.11493,-7.67005 -0.63133,-3.17352 -1.85811,-8.2354 -2.72615,-11.24864 -1.23883,-4.30035 -1.62753,-7.756586 -1.80737,-16.070584 -0.21728,-10.044203 0.26794,-14.168551 2.08829,-17.750254 1.43353,-2.820611 3.96154,-11.227743 4.07346,-13.546708 0.0648,-1.343609 0.57785,-3.358934 1.13999,-4.478498 1.4603,-2.908331 5.23443,-5.991267 6.73432,-5.500989 1.60831,0.525719 4.53272,-0.633046 6.36809,-2.523292 1.18228,-1.217629 1.44687,-2.430554 1.44687,-6.632608 0,-6.186153 -1.90028,-10.885408 -4.44739,-10.998091 -0.86981,-0.0385 -11.79505,0.04164 -24.27831,0.17809 -38.21018,0.41761 -39.33463,0.394081 -40.07424,-0.838607 -0.36157,-0.602648 -0.90844,-1.107294 -1.21525,-1.121427 -0.30681,-0.01417 -1.93151,-1.316651 -3.61047,-2.89447 -3.10657,-2.919443 -4.61766,-5.569186 -5.41655,-9.498016 -0.8813,-4.334095 -1.94308,-6.1120436 -4.11597,-6.8921686 -4.53921,-1.629676 -13.55113,-0.554356 -15.48699,1.8479506 -0.5052,0.626929 -0.9477,2.982878 -0.98334,5.235443 -0.0573,3.619858 -0.28289,4.22843 -1.94249,5.239344 -1.8496,1.126637 -4.42148,4.143681 -5.961538,6.9934 -1.534775,2.839945 -6.540295,3.266174 -36.324705,3.093108 -27.890519,-0.162065 -27.890519,-0.162065 -31.385487,3.61121 -4.145345,4.475446 -4.704744,7.81572 -1.80845,10.798601 2.474567,2.548546 7.062494,3.816841 9.315291,2.575135 0.969673,-0.534468 1.952248,-0.776892 2.183508,-0.538721 0.718227,0.739702 -0.474691,3.515416 -1.288259,2.997566 -0.422296,-0.268793 -0.573677,-0.165224 -0.336417,0.230154 0.237267,0.395377 -0.693453,3.979872 -2.06825,7.965544 -3.913157,11.344597 -5.236724,15.669701 -5.236724,17.11239 0,0.734255 -0.323132,1.445944 -0.718079,1.581521 -1.055999,0.362528 -2.129439,8.196135 -1.984853,14.484871 0.12596,5.47861 0.12596,5.47861 0.527851,-0.365243 0.40189,-5.84385 0.40189,-5.84385 1.028762,4.382883 0.34478,5.624716 0.663954,11.263696 0.709278,12.531056 0.04532,1.26737 0.261353,2.19041 0.480066,2.0512 0.218713,-0.13921 1.285677,2.68074 2.371027,6.26658 1.085349,3.58585 2.562935,7.29164 3.283524,8.23512 1.365286,1.78757 4.394337,9.34294 3.935265,9.81574 -0.144855,0.14918 0.49509,1.11411 1.422092,2.14427 0.927011,1.03016 1.555296,2.08994 1.39619,2.35507 -0.391726,0.65278 -1.497112,0.59797 30.355781,1.50514 20.331761,0.57906 28.527177,0.58244 29.194517,0.0121 0.67509,-0.57702 1.07536,-0.54707 1.46964,0.10996 0.29803,0.49665 0.46315,13.08603 0.36694,27.9764 -0.0962,14.89039 0.0417,27.64868 0.30644,28.35177 0.48179,1.27947 2.76781,1.67046 4.88188,0.83495 1.0123,-0.40006 1.12192,-7.31285 1.12192,-70.74351 0,-68.926036 0.0273,-70.325472 1.39205,-71.597552 1.34542,-1.253991 1.45334,-1.222396 3.2229,0.943464 1.00696,1.232497 2.45518,2.444983 3.21825,2.694414 1.36377,0.445782 1.38835,1.644244 1.4434,70.347904 0.0308,38.44193 0.19311,69.55726 0.36069,69.14522 0.16758,-0.41207 1.62325,-0.6197 3.23482,-0.46142 z M 46.613527,130.80585 C 38.590028,116.43851 35.026162,99.547794 36.729255,83.96002 37.825336,73.927995 39.692179,67.216446 43.94584,58.015474 c 3.512046,-7.596813 3.512046,-7.596813 11.484229,-6.939577 4.384698,0.361479 15.392983,0.551172 24.462857,0.421541 12.688263,-0.181348 16.490679,-0.02882 16.490679,0.661531 0,1.799267 3.594479,5.686305 6.021025,6.511078 2.49029,0.846444 2.49029,0.846444 2.49029,38.774847 0,37.928376 0,37.928376 -27.86535,37.928376 -27.865348,0 -27.865348,0 -30.416043,-4.56742 z M 128.30105,97.802714 c 0,-36.764206 0.03,-37.580415 1.40013,-38.02826 1.71679,-0.56118 4.00511,-3.761361 4.68526,-6.552253 0.50548,-2.074226 0.50548,-2.074226 11.5729,-1.601461 6.08708,0.260021 18.04668,0.473861 26.5769,0.475199 14.44707,0.0023 15.48259,0.09 15.11683,1.280776 -0.21596,0.703089 -1.5112,4.072436 -2.87834,7.487438 -5.3445,13.35025 -6.92561,30.458035 -4.35453,47.116057 1.50552,9.7542 3.13591,14.76515 6.8004,20.90087 1.5327,2.5663 2.78689,5.0769 2.78711,5.5791 3.2e-4,0.71649 -6.64294,0.91309 -30.85313,0.91309 -30.85353,0 -30.85353,0 -30.85353,-37.570556 z m -9.74011,-49.539372 c -11.90166,-14.80157 -13.66602,-17.195834 -13.66602,-18.545011 0,-1.788833 1.30492,-3.186822 2.97468,-3.186822 1.74835,0 19.72217,22.425638 19.72217,24.607018 0,1.522338 -1.79083,3.151291 -3.46444,3.151291 -0.39635,0 -2.9012,-2.711915 -5.56639,-6.026476 z m -15.07692,2.748794 c -1.9768,-2.453099 1.66554,-7.392306 3.98767,-5.407496 0.57589,0.49223 1.37424,1.524597 1.77415,2.294151 1.52329,2.931383 -3.6541,5.72893 -5.76182,3.113345 z m 31.56132,-6.881205 c -4.43478,-0.542537 -4.7985,-1.812106 -1.5389,-5.37161 2.42292,-2.645856 2.42292,-2.645856 29.28498,-2.562866 14.77413,0.04565 29.17606,-0.171364 32.00431,-0.482228 5.14225,-0.56521 5.14225,-0.56521 5.14225,4.257057 0,4.822269 0,4.822269 -30.6762,4.707508 -16.87192,-0.06312 -32.26932,-0.309657 -34.21644,-0.547861 z M 57.878818,43.352268 C 38.260569,43.027549 34.518397,42.79598 33.951594,41.871627 33.072438,40.43787 33.089277,40.19705 34.175647,38.666922 c 0.847089,-1.193088 3.436566,-1.32494 33.6705,-1.714389 30.5554,-0.393583 32.784273,-0.337511 33.221433,0.835787 0.31928,0.856886 -0.28372,2.057082 -1.892177,3.766213 -2.360791,2.508539 -2.360791,2.508539 -10.201021,2.345596 -4.312125,-0.08962 -18.305123,-0.336156 -31.095564,-0.547861 z M 123.79564,33.53344 c -1.60939,-2.529681 -1.48448,-3.143884 0.89734,-4.412395 1.89886,-1.011294 2.20036,-0.98683 3.72371,0.302193 1.56718,1.326109 1.59826,1.514515 0.56993,3.455698 -1.44463,2.727056 -3.69212,3.010431 -5.19098,0.654504 z m -9.14816,-11.04918 c -2.09212,-2.003208 -2.6598,-3.090318 -2.6598,-5.093607 0,-2.546852 0,-2.546852 4.61031,-2.546852 4.61029,0 4.61029,0 4.61029,3.904432 0,2.854846 -0.34868,4.229424 -1.29708,5.113373 -1.77695,1.656191 -2.21537,1.541469 -5.26372,-1.377346 z M 130.29517,143.173 c 0.84853,-0.23057 0.73245,-0.35012 -0.39825,-0.41016 -1.30937,-0.0696 -1.57853,0.2759 -1.49928,1.92409 0.0795,1.65373 0.14991,1.72623 0.39826,0.41016 0.16591,-0.87928 0.84059,-1.74513 1.49927,-1.92409 z m -25.93221,-0.24821 c -0.48762,-0.20264 -1.28556,-0.20264 -1.77319,0 -0.48763,0.20266 -0.0887,0.36845 0.8866,0.36845 0.97525,0 1.37422,-0.16579 0.88659,-0.36845 z m 81.23091,-0.0472 c -1.45256,-0.15695 -4.00596,-0.15914 -5.67421,-0.006 -1.66824,0.15431 -0.47977,0.28275 2.64105,0.28539 3.12081,0.003 4.48573,-0.12359 3.03316,-0.28055 z"
       id="path2" /></g></svg>
