<?xml version="1.0" encoding="UTF-8" standalone="no"?>
<!-- Created with Inkscape (http://www.inkscape.org/) -->

<svg
   width="180mm"
   height="180mm"
   viewBox="0 0 180 180"
   version="1.1"
   id="svg840"
   inkscape:version="1.4.2 (f4327f4, 2025-05-13)"
   sodipodi:docname="gear.svg"
   xml:space="preserve"
   xmlns:inkscape="http://www.inkscape.org/namespaces/inkscape"
   xmlns:sodipodi="http://sodipodi.sourceforge.net/DTD/sodipodi-0.dtd"
   xmlns="http://www.w3.org/2000/svg"
   xmlns:svg="http://www.w3.org/2000/svg"
   xmlns:rdf="http://www.w3.org/1999/02/22-rdf-syntax-ns#"
   xmlns:cc="http://creativecommons.org/ns#"
   xmlns:dc="http://purl.org/dc/elements/1.1/"><defs
     id="defs834" /><sodipodi:namedview
     id="base"
     pagecolor="#000000"
     bordercolor="#666666"
     borderopacity="1.0"
     inkscape:pageopacity="0.0"
     inkscape:pageshadow="2"
     inkscape:zoom="0.7"
     inkscape:cx="55.714286"
     inkscape:cy="212.85714"
     inkscape:document-units="mm"
     inkscape:current-layer="layer1"
     showgrid="false"
     inkscape:window-width="2560"
     inkscape:window-height="1351"
     inkscape:window-x="-9"
     inkscape:window-y="-9"
     inkscape:window-maximized="1"
     inkscape:showpageshadow="0"
     inkscape:pagecheckerboard="1"
     inkscape:deskcolor="#505050" /><metadata
     id="metadata837"><rdf:RDF><cc:Work
         rdf:about=""><dc:format>image/svg+xml</dc:format><dc:type
           rdf:resource="http://purl.org/dc/dcmitype/StillImage" /></cc:Work></rdf:RDF></metadata><g
     inkscape:label="Layer 1"
     inkscape:groupmode="layer"
     id="layer1"
     transform="translate(0,-247)"><path
       style="fill:#000000;stroke-width:2.83913"
       d="m 83.130725,422.70269 c -1.291281,-0.54236 -1.922422,-1.93826 -2.940337,-6.5031 -0.712868,-3.19688 -1.551066,-6.28128 -1.862662,-6.85417 -0.311598,-0.57291 -2.913415,-1.63233 -5.781815,-2.35427 l -5.215275,-1.31261 -5.360853,5.17724 c -5.136639,4.96071 -5.453854,5.14301 -7.584476,4.35848 -3.323003,-1.22361 -14.737988,-8.41109 -14.738186,-9.27995 -9.8e-5,-0.41534 0.889535,-3.72168 1.976957,-7.34741 l 1.97713,-6.59222 -3.932513,-3.90608 -3.932514,-3.90606 -6.158805,1.75639 c -3.387342,0.96603 -6.781054,1.75642 -7.541582,1.75642 -1.526991,0 -5.83729,-6.08522 -8.92598,-12.60161 l -1.887923,-3.98303 5.570428,-4.99822 5.570428,-4.99825 -1.786383,-5.48636 -1.786387,-5.48637 -6.446805,-1.49685 c -3.5457434,-0.82326 -6.8734346,-1.76765 -7.3948675,-2.09872 -1.3335333,-0.84663 -1.3335333,-17.88487 0,-18.9324 0.5214329,-0.4096 3.6784713,-1.34471 7.0156435,-2.078 3.33717,-0.7333 6.438156,-1.69464 6.89108,-2.13634 0.452925,-0.44167 1.410231,-2.95655 2.12735,-5.58861 l 1.303853,-4.78558 -5.540366,-4.98729 -5.540364,-4.98733 3.139649,-6.2542 c 1.726808,-3.43981 4.020339,-7.28091 5.096734,-8.53574 l 1.957083,-2.28155 6.1763,1.75482 c 3.396969,0.96517 6.747742,1.75481 7.446168,1.75481 0.698427,0 2.936455,-1.65976 4.973398,-3.68839 l 3.703531,-3.68841 -2.035129,-6.54146 c -1.119321,-3.59781 -2.030811,-6.93575 -2.025536,-7.4176 0.0093,-0.84245 4.294481,-3.58513 12.69995,-8.12828 l 3.968206,-2.14482 5.512389,5.35073 5.512392,5.35071 5.477973,-1.59366 5.477975,-1.59366 1.633376,-6.93373 c 1.930132,-8.1935 1.442359,-7.91436 13.179579,-7.54201 6.115371,0.19403 8.210111,0.52216 8.751911,1.37102 0.39175,0.61382 1.27282,3.62699 1.95795,6.69593 0.68513,3.06898 1.48167,5.83467 1.77005,6.14605 0.2884,0.31133 2.89271,1.22155 5.78734,2.02273 l 5.26296,1.45667 4.95967,-5.29898 c 4.4671,-4.7727 5.14525,-5.2322 6.82812,-4.62673 3.55255,1.27821 11.50609,5.80295 13.64412,7.76212 l 2.14602,1.96647 -2.14015,6.63169 -2.14019,6.63172 3.89936,3.95256 c 4.32248,4.38142 3.91971,4.3212 12.8218,1.91744 3.73623,-1.00889 5.47249,-1.17345 6.39005,-0.60571 1.47935,0.91536 8.55231,13.52787 8.56792,15.27839 0.006,0.65942 -2.25524,3.37848 -5.02475,6.04236 l -5.03548,4.84348 1.32303,5.29589 c 1.47795,5.91585 0.68129,5.37798 11.28356,7.61837 3.62392,0.76576 4.56782,1.28503 5.17832,2.84855 0.80048,2.05017 0.58615,16.71461 -0.25627,17.53811 -0.27836,0.27219 -3.63427,1.27547 -7.45758,2.22975 -3.82334,0.95429 -7.03599,1.84685 -7.13928,1.98351 -0.10314,0.13667 -0.80808,2.55381 -1.56626,5.37144 l -1.3785,5.12299 5.04202,4.82598 c 2.77312,2.6543 5.04202,5.30052 5.04202,5.88051 0,1.27151 -2.27488,5.79624 -5.83056,11.59716 -3.06609,5.00212 -3.34368,5.05914 -11.94894,2.45456 l -6.02361,-1.82315 -3.89648,4.20593 -3.89655,4.20592 1.76679,5.4576 c 2.62221,8.09999 2.53245,8.46077 -2.97352,11.95053 -2.60716,1.65243 -6.38597,3.77889 -8.39731,4.72547 l -3.65701,1.72104 -5.06514,-5.44587 -5.06514,-5.4459 -4.92992,1.30199 c -2.71145,0.71606 -5.31742,1.66545 -5.79104,2.10974 -0.47364,0.44431 -1.42001,3.31879 -2.10311,6.38772 -0.68307,3.06898 -1.55929,6.0763 -1.94717,6.68291 -0.53869,0.84254 -2.63894,1.14835 -8.89439,1.29518 -4.50405,0.10571 -8.929074,-0.11867 -9.833389,-0.4984 z M 107.9076,395.01653 c 19.85803,-4.89895 34.9886,-18.85773 41.8065,-38.5688 2.106,-6.08854 2.4911,-8.36526 2.77909,-16.43051 0.27777,-7.77577 0.0676,-10.39737 -1.23956,-15.46794 -1.4207,-5.51106 -5.31509,-15.32746 -5.86624,-14.78684 -0.12184,0.11951 0.7753,2.97964 1.99331,6.35608 1.21805,3.37642 2.59045,9.17097 3.0498,12.87676 3.30756,26.68457 -14.62115,54.09862 -41.00602,62.7006 -12.993185,4.23605 -26.341621,4.14613 -39.249668,-0.26432 -3.441458,-1.17592 -6.257191,-1.99118 -6.257191,-1.81169 0,0.17939 1.938178,1.16712 4.307064,2.19479 12.643794,5.4851 26.045,6.56643 39.682915,3.20195 z m -12.882839,-10.9001 c 3.386255,-2.68976 1.245801,-8.32493 -3.162125,-8.32493 -1.186785,0 -2.840396,0.66958 -3.674688,1.48796 -4.493167,4.40754 1.876326,10.77716 6.836813,6.83697 z M 64.107229,370.72715 c 1.349641,-1.13703 1.758568,-4.31182 0.746834,-5.79815 -0.753364,-1.10675 -3.598168,-2.52933 -5.058046,-2.52933 -3.475247,0 -5.574716,6.05274 -2.89404,8.34348 2.555482,2.18378 4.599588,2.17923 7.205252,-0.0168 z m 62.891451,0.11304 c 1.70114,-1.51017 1.80457,-4.94872 0.1963,-6.52636 -4.90407,-4.81057 -11.96124,1.39174 -7.34545,6.45567 1.49912,1.64464 5.33344,1.68257 7.14916,0.0705 z m -22.0207,-4.18404 c 12.49627,-5.99733 19.61546,-16.75989 19.61546,-29.65407 0,-19.58597 -18.3809,-35.32743 -37.499742,-32.11494 -7.399417,1.2433 -12.767412,4.00481 -18.119329,9.32131 -5.632765,5.59547 -8.563894,11.21383 -9.604225,18.40931 -2.198136,15.20343 7.086849,29.84028 22.305027,35.16167 2.965402,1.03693 5.615492,1.29942 11.452198,1.13436 6.474132,-0.18306 8.221711,-0.51602 11.850611,-2.25764 z M 82.008063,363.2516 c -7.818058,-3.09282 -14.138931,-9.48731 -17.021551,-17.21982 -1.849731,-4.96177 -1.66768,-13.50201 0.400485,-18.78732 9.062774,-23.16044 40.940933,-24.41602 51.906223,-2.04441 2.14249,4.37113 2.3703,5.5153 2.3703,11.90384 0,6.09873 -0.27668,7.64692 -2.01778,11.2902 -2.70495,5.66015 -7.21494,10.29319 -12.95996,13.3135 -4.27523,2.2476 -5.450979,2.51488 -11.947147,2.71579 -5.673387,0.17547 -7.954748,-0.0737 -10.73057,-1.17178 z m -45.349004,-3.53022 c -11.029375,-28.47369 2.689749,-61.83337 30.764868,-74.80854 9.585647,-4.43008 17.873669,-6.0923 27.969274,-5.60947 8.667159,0.41451 16.987559,2.28149 22.531049,5.05567 1.66953,0.8355 2.83562,1.20182 2.59132,0.81405 -0.7524,-1.1942 -8.6021,-4.54816 -14.35094,-6.13176 -27.564884,-7.59307 -57.836014,6.18701 -69.626974,31.69572 -7.169869,15.5114 -7.403012,33.94144 -0.624887,49.39729 2.109142,4.8094 2.652679,4.50862 0.74629,-0.41296 z M 139.95203,339.93282 c 1.83144,-2.07775 1.66113,-4.05701 -0.53437,-6.2107 -2.01669,-1.97822 -3.4949,-2.2518 -5.75534,-1.06511 -2.44957,1.28599 -3.25795,3.53093 -2.18573,6.07012 1.58372,3.75063 5.71416,4.3382 8.47544,1.20569 z m -88.798131,0.40373 c 3.025689,-2.68601 0.610228,-8.44058 -3.542905,-8.44058 -4.085994,0 -6.43692,5.31726 -3.674689,8.31131 1.564022,1.6953 5.376624,1.76356 7.217594,0.12935 z M 64.253836,309.4107 c 1.610425,-2.25537 1.482164,-4.74665 -0.336215,-6.53039 -4.421729,-4.33743 -11.28693,2.27169 -7.087706,6.82334 1.803322,1.95468 5.935462,1.79161 7.423921,-0.29295 z m 62.744844,0.42224 c 2.95517,-2.62343 0.62972,-8.44062 -3.37416,-8.44062 -4.42404,0 -6.79036,5.11711 -3.84344,8.31133 1.56401,1.69528 5.37661,1.76358 7.2176,0.12934 z M 95.024761,297.06942 c 3.448279,-2.73901 1.239386,-8.32492 -3.292015,-8.32492 -4.91434,0 -6.870681,5.19209 -3.063292,8.12989 2.457637,1.89634 4.148163,1.94822 6.355307,0.19515 z"
       id="path1" /></g></svg>
