<?xml version="1.0" encoding="UTF-8" standalone="no"?>
<!-- Created with Inkscape (http://www.inkscape.org/) -->

<svg
   width="180mm"
   height="180mm"
   viewBox="0 0 180 179.99999"
   version="1.1"
   id="svg8"
   inkscape:version="1.4.2 (f4327f4, 2025-05-13)"
   sodipodi:docname="home.svg"
   xml:space="preserve"
   xmlns:inkscape="http://www.inkscape.org/namespaces/inkscape"
   xmlns:sodipodi="http://sodipodi.sourceforge.net/DTD/sodipodi-0.dtd"
   xmlns="http://www.w3.org/2000/svg"
   xmlns:svg="http://www.w3.org/2000/svg"
   xmlns:rdf="http://www.w3.org/1999/02/22-rdf-syntax-ns#"
   xmlns:cc="http://creativecommons.org/ns#"
   xmlns:dc="http://purl.org/dc/elements/1.1/"><defs
     id="defs2" /><sodipodi:namedview
     id="base"
     pagecolor="#000000"
     bordercolor="#666666"
     borderopacity="1.0"
     inkscape:pageopacity="0.0"
     inkscape:pageshadow="2"
     inkscape:zoom="0.70000001"
     inkscape:cx="-101.42857"
     inkscape:cy="248.57143"
     inkscape:document-units="mm"
     inkscape:current-layer="layer1"
     showgrid="false"
     inkscape:window-width="2560"
     inkscape:window-height="1351"
     inkscape:window-x="-9"
     inkscape:window-y="-9"
     inkscape:window-maximized="1"
     inkscape:showpageshadow="0"
     inkscape:pagecheckerboard="1"
     inkscape:deskcolor="#505050" /><metadata
     id="metadata5"><rdf:RDF><cc:Work
         rdf:about=""><dc:format>image/svg+xml</dc:format><dc:type
           rdf:resource="http://purl.org/dc/dcmitype/StillImage" /></cc:Work></rdf:RDF></metadata><g
     inkscape:label="Layer 1"
     inkscape:groupmode="layer"
     id="layer1"
     transform="translate(-99.346932,-69.56784)"><path
       style="fill:#000000;stroke-width:3.06358"
       d="m 159.44952,237.73481 c -20.69821,-3.04825 -38.10361,-5.99268 -38.67869,-6.54321 -0.86055,-0.82387 -1.04559,-7.46192 -1.04559,-37.51256 V 157.16747 L 138.78156,132.415 c 10.48098,-13.61389 19.42056,-24.75458 19.86568,-24.75704 0.44515,-0.003 8.59597,10.05872 18.11298,22.35822 9.51696,12.29954 19.08655,24.63648 21.26575,27.41541 l 3.96223,5.05262 v 40.48906 40.48907 l -2.45281,-0.0928 c -1.34902,-0.051 -19.38768,-2.58666 -40.08587,-5.63487 z m 16.87866,-34.28806 c 0,-28.93644 -0.10012,-31.37 -1.32073,-32.103 -0.7264,-0.43623 -7.94328,-0.93971 -16.03748,-1.11884 l -14.71678,-0.32575 -0.19853,30.25231 -0.19853,30.25229 h 1.89655 1.89655 v -27.85823 -27.85826 h 1.88674 1.88677 v 28.19562 28.19559 l 7.35839,1.03842 c 4.04712,0.57114 9.22628,1.34984 11.50928,1.73046 2.28297,0.38063 4.57539,0.74092 5.09424,0.80064 0.73899,0.0853 0.94339,-6.67581 0.94339,-31.20127 z m -20.94309,2.00452 c -0.51886,-0.24152 -0.94336,-1.54906 -0.94336,-2.9057 0,-2.73481 1.19854,-3.65531 3.20748,-2.46346 1.52342,0.90383 1.73319,3.38057 0.41511,4.90103 -0.96526,1.11346 -1.20341,1.15505 -2.67923,0.46813 z m 51.10979,26.81137 c -0.0454,-21.38625 -0.69723,-53.85688 -1.16876,-58.22827 -0.27127,-2.51375 -0.27469,-4.57049 -0.009,-4.57049 0.26671,0 9.73025,-0.7806 21.03005,-1.73469 20.41376,-1.72363 24.46045,-2.12149 32.05436,-3.15179 l 3.9622,-0.53755 -0.0114,28.61149 c -0.006,15.73629 -0.26756,29.07578 -0.58033,29.64326 -0.51221,0.92916 -13.15093,5.58408 -44.50178,16.39032 l -10.75455,3.70697 z m 0.45213,-70.85151 c -2.12737,-2.51379 -10.31143,-12.96392 -18.18676,-23.22256 -15.85416,-20.65201 -25.75512,-33.48047 -29.84833,-38.673708 l -2.69954,-3.42502 -14.28135,18.590768 c -36.05743,46.93781 -34.29519,44.77171 -36.42467,44.77171 -1.67655,0 -2.00729,-0.38645 -2.00729,-2.34546 0,-1.84223 5.20121,-9.12676 24.24216,-33.95223 13.3332,-17.38371 25.07681,-32.743562 26.09693,-34.132975 l 1.85476,-2.526228 24.84574,2.759612 c 32.01704,3.556105 29.75129,3.076077 29.75129,6.303181 0,2.585222 -0.0493,2.618092 -3.2075,2.136782 -8.28067,-1.26191 -42.29748,-4.921005 -43.4983,-4.678968 -0.99981,0.201698 5.23834,8.814076 23.83471,32.906826 13.85392,17.9486 25.43157,32.90492 25.72811,33.23626 0.47984,0.53609 54.39787,-4.05992 54.89667,-4.67943 0.11097,-0.13787 -5.96084,-7.87804 -13.49308,-17.20027 l -13.69501,-16.94948 -0.23704,3.29126 c -0.20309,2.82196 -0.47221,3.2526 -1.88676,3.02034 -1.64044,-0.26949 -1.65094,-0.39501 -1.85126,-22.16531 -0.16059,-17.456684 -0.40879,-21.986171 -1.22427,-22.347122 -0.56249,-0.249079 -2.61565,-0.728285 -4.56249,-1.065052 l -3.53976,-0.612299 0.2359,22.742553 c 0.12978,12.50844 0.0256,22.74224 -0.22876,22.74185 -0.25558,-4.3e-4 -3.22716,-3.53897 -6.60367,-7.86343 l -6.13911,-7.86268 V 93.773273 77.336492 l 2.83015,-0.488518 c 8.25754,-1.425311 10.34893,-1.496152 15.41654,-0.522178 8.83044,1.69716 8.16802,0.116808 8.16802,19.488577 V 112.6429 l 5.47162,6.99343 c 3.00937,3.84638 10.65078,13.48883 16.98087,21.42771 6.33011,7.93884 11.50927,14.80625 11.50927,15.26087 0,1.70572 -2.45525,3.5644 -4.77083,3.61162 -3.02977,0.0619 -12.10149,0.95936 -38.2474,3.78415 -11.41491,1.23329 -20.89101,2.24652 -21.05794,2.25162 -0.16686,0.007 -2.04411,-2.04742 -4.17148,-4.56117 z M 192.2543,127.51548 C 170.40896,99.779532 166.98585,94.602605 171.23391,95.725534 c 0.93397,0.246776 9.12299,1.353778 18.19786,2.459758 14.93844,1.820578 16.55249,2.175218 17.05677,3.747698 0.30635,0.95529 4.76806,7.73413 9.91494,15.06409 l 9.35794,13.32724 6.41501,-0.49197 c 3.52826,-0.27047 7.26403,-0.64231 8.30177,-0.82604 1.59178,-0.28198 3.24362,1.35443 10.56587,10.46645 4.77351,5.94029 8.78893,11.39673 8.92314,12.12541 0.17458,0.94805 -0.38316,1.32489 -1.9611,1.32489 -2.36362,0 -31.6989,2.26784 -38.77105,2.99731 l -4.26224,0.43962 z"
       id="path1" /></g></svg>
