<?xml version="1.0" encoding="UTF-8" standalone="no"?>
<!-- Created with Inkscape (http://www.inkscape.org/) -->

<svg
   width="180mm"
   height="180mm"
   viewBox="0 0 180 180"
   version="1.1"
   id="svg8"
   inkscape:version="1.4.2 (f4327f4, 2025-05-13)"
   sodipodi:docname="ruins.svg"
   xml:space="preserve"
   xmlns:inkscape="http://www.inkscape.org/namespaces/inkscape"
   xmlns:sodipodi="http://sodipodi.sourceforge.net/DTD/sodipodi-0.dtd"
   xmlns="http://www.w3.org/2000/svg"
   xmlns:svg="http://www.w3.org/2000/svg"
   xmlns:rdf="http://www.w3.org/1999/02/22-rdf-syntax-ns#"
   xmlns:cc="http://creativecommons.org/ns#"
   xmlns:dc="http://purl.org/dc/elements/1.1/"><defs
     id="defs2" /><sodipodi:namedview
     id="base"
     pagecolor="#000000"
     bordercolor="#666666"
     borderopacity="1.0"
     inkscape:pageopacity="0.0"
     inkscape:pageshadow="2"
     inkscape:zoom="0.98994949"
     inkscape:cx="-91.923881"
     inkscape:cy="311.12698"
     inkscape:document-units="mm"
     inkscape:current-layer="layer1"
     showgrid="false"
     inkscape:window-width="2560"
     inkscape:window-height="1351"
     inkscape:window-x="-9"
     inkscape:window-y="-9"
     inkscape:window-maximized="1"
     inkscape:showpageshadow="0"
     inkscape:pagecheckerboard="1"
     inkscape:deskcolor="#505050" /><metadata
     id="metadata5"><rdf:RDF><cc:Work
         rdf:about=""><dc:format>image/svg+xml</dc:format><dc:type
           rdf:resource="http://purl.org/dc/dcmitype/StillImage" /></cc:Work></rdf:RDF></metadata><g
     inkscape:label="Layer 1"
     inkscape:groupmode="layer"
     id="layer1"
     transform="translate(-99.986194,-42.64751)"><path
       style="fill:#000000;stroke-width:3.06844"
       d="m 106.08915,200.57458 c 0,-13.63398 0.47433,-15.03538 5.47591,-16.17832 l 2.6156,-0.59773 0.0222,-5.50048 c 0.0139,-3.4094 0.43396,-6.16167 1.1034,-7.23979 0.59398,-0.9566 1.07999,-2.98377 1.07999,-4.50479 0,-3.97817 1.80751,-6.55773 5.35995,-7.64926 6.00336,-1.84466 6.18468,-2.057 6.56835,-7.69277 0.29225,-4.2929 0.69355,-5.48738 2.40044,-7.14524 1.12725,-1.09488 3.08139,-2.35601 4.34257,-2.80249 l 2.29301,-0.81183 -0.2466,-6.67593 c -0.16459,-4.45843 0.13734,-8.01531 0.90878,-10.70812 0.63539,-2.21766 1.16006,-5.65372 1.16596,-7.63564 0.006,-1.98196 0.6869,-6.41729 1.51339,-9.85636 0.82647,-3.43907 1.92456,-8.280653 2.44023,-10.759085 1.19648,-5.750847 4.65625,-13.51393 7.04112,-15.799056 1.01735,-0.974792 2.73167,-1.987209 3.80958,-2.249804 1.0779,-0.26246 2.60912,-1.544957 3.40267,-2.849669 0.79354,-1.304712 4.10102,-4.178392 7.34997,-6.385965 5.14543,-3.496166 5.98969,-4.420499 6.54734,-7.168231 0.80422,-3.96287 3.68916,-5.818409 11.26203,-7.243582 6.60249,-1.242535 15.19602,-0.133093 24.09228,3.110469 7.04354,2.568074 8.96871,3.893783 9.52422,6.558579 0.23075,1.106631 1.99311,3.177895 3.95576,4.648922 4.64277,3.479809 15.8252,16.645091 17.25446,20.313972 0.61732,1.584647 1.12239,3.918676 1.12239,5.186779 0,1.654004 0.62176,2.697341 2.19985,3.691368 3.04239,1.916434 4.1933,4.401463 5.28294,11.406803 l 0.93737,6.02624 4.06532,0.98651 c 10.3049,2.50058 9.89854,2.16907 12.02427,9.80983 1.71702,6.17159 2.18517,6.84952 5.20687,7.54004 1.34606,0.3075 3.07211,1.39971 3.83566,2.42689 1.30683,1.75804 1.40146,4.0964 1.61331,39.85587 l 0.22492,37.98828 H 189.9862 106.08772 Z m 163.9242,-27.33096 c 0.0111,-38.99433 0.45022,-35.90455 -5.29278,-37.21695 -1.54203,-0.35237 -2.90301,-1.09376 -3.02448,-1.64757 -1.38742,-6.32683 -3.08756,-11.94903 -3.85617,-12.75212 -0.52262,-0.54605 -3.5166,-1.51221 -6.65329,-2.14702 -7.9071,-1.60029 -8.04213,-1.7256 -8.41501,-7.80938 -0.42067,-6.86323 -1.84274,-10.20169 -5.19564,-12.197359 -2.55432,-1.520337 -2.75847,-1.928555 -2.75847,-5.515447 0,-3.123643 -0.51072,-4.627215 -2.63801,-7.76647 -1.45089,-2.141095 -3.68524,-4.591452 -4.96524,-5.445242 -1.27997,-0.85379 -2.84777,-2.66825 -3.48399,-4.032126 -0.63622,-1.363909 -3.2621,-3.977195 -5.83533,-5.807267 -3.26244,-2.320313 -4.71347,-3.904722 -4.7939,-5.234529 -0.1404,-2.321871 -1.12475,-3.147484 -5.82213,-4.883477 -11.11042,-4.105987 -24.19328,-4.904711 -30.20674,-1.844093 -2.19985,1.119636 -2.57442,1.738668 -2.58221,4.267425 -0.008,2.801579 -0.34338,3.170818 -6.33682,6.989961 -3.55983,2.268431 -7.1079,5.265246 -8.11138,6.85118 -1.10771,1.750657 -2.70384,3.029259 -4.21162,3.373843 -2.96654,0.677891 -4.88926,3.084019 -7.45557,9.330051 -1.34299,3.268656 -1.81223,5.488015 -1.49048,7.049599 0.30943,1.501845 0.065,2.823562 -0.7166,3.875701 -1.61011,2.16717 -3.27945,10.17717 -3.29007,15.78686 -0.006,2.53096 -0.50321,5.75667 -1.1076,7.16823 -1.27624,2.98083 -1.46985,11.28814 -0.31591,13.55508 1.24455,2.44497 -0.28677,6.20648 -2.80048,6.87902 -1.15316,0.30851 -3.15912,1.34799 -4.45764,2.30991 -2.13281,1.57994 -2.36096,2.1666 -2.36096,6.07102 0,2.37714 -0.41588,5.01487 -0.92419,5.86165 -0.50833,0.84675 -3.07369,2.43587 -5.70085,3.53136 -4.72453,1.9701 -4.77922,2.03089 -5.01484,5.57593 -0.13095,1.97129 -0.75388,4.27937 -1.38414,5.1291 -0.71954,0.97012 -1.28503,3.97076 -1.51979,8.06429 -0.20574,3.58563 -0.74131,6.81555 -1.19042,7.17761 -0.44911,0.36206 -1.90057,0.66448 -3.22543,0.67203 -3.14303,0.0169 -3.84367,2.23599 -3.84367,12.16848 v 7.55792 h 80.48609 80.48608 z m -137.62684,31.29132 c -0.96776,-0.68662 -1.28729,-2.08298 -1.28729,-5.62571 0,-7.33604 0.61573,-7.86234 8.83907,-7.55538 6.6052,0.24654 6.98867,0.36788 7.21178,2.28197 0.17292,1.48261 -0.36904,2.43813 -2.03248,3.58412 -1.2475,0.85941 -2.65038,2.83615 -3.11757,4.39273 -0.61831,2.06019 -1.44124,2.97436 -3.0247,3.36012 -3.08247,0.75098 -5.10239,0.61673 -6.58881,-0.43785 z m 16.91859,0.26077 c -5.77097,-0.23198 -6.43641,-0.43585 -6.43641,-1.97048 0,-0.94137 1.15853,-2.788 2.57457,-4.10362 1.416,-1.31561 2.57456,-3.10122 2.57456,-3.96801 0,-2.8961 1.82349,-3.79822 6.03428,-2.98527 l 3.89618,0.75219 0.21797,5.54136 c 0.26912,6.84257 -0.0539,7.08807 -8.86104,6.73383 z m 100.77593,-0.23943 c -0.97134,-0.70542 -1.28731,-2.1179 -1.28731,-5.75454 0,-6.30201 1.09887,-7.63575 6.29106,-7.63575 4.61803,0 4.98827,0.7247 4.60238,9.00823 l -0.22742,4.88026 -4.04576,0.21843 c -2.22515,0.12023 -4.625,-0.20218 -5.333,-0.71653 z m -138.10715,-6.11751 c 0,-5.63872 0.14207,-6.21407 1.65508,-6.708 2.52471,-0.82419 13.29059,-0.64067 14.44003,0.24621 1.13712,0.87729 1.74532,6.40764 1.11797,10.16545 l -0.41139,2.46411 h -8.40086 -8.40083 z m 56.9164,3.70362 c -0.0506,-1.35524 -0.1201,-8.91553 -0.15458,-16.8006 -0.10008,-22.83148 -0.16458,-25.88899 -0.58328,-27.59595 -0.21741,-0.8861 0.0111,-2.20653 0.50644,-2.93427 0.64837,-0.95163 0.74662,-3.14125 0.34994,-7.79729 -0.30337,-3.56075 -0.51848,-7.4821 -0.47802,-8.71413 0.0406,-1.23204 0.19628,-6.07061 0.34649,-10.75238 0.33671,-10.50228 1.78824,-18.50673 3.96685,-21.87539 0.91029,-1.40753 1.65507,-2.9428 1.65507,-3.41174 0,-0.46894 1.90335,-3.094719 4.22964,-5.835102 3.26558,-3.846846 5.23564,-5.359426 8.64321,-6.635996 6.10131,-2.28577 7.98291,-2.105672 13.00698,1.244939 3.35635,2.238391 5.31997,4.466826 8.48752,9.632339 5.46834,8.91746 6.1871,12.9654 6.44355,36.28926 0.10843,9.85636 0.21713,18.52546 0.2416,19.26468 0.025,0.73922 -0.12706,4.28608 -0.33696,7.88192 -0.21046,3.60971 -0.0651,7.02084 0.325,7.61627 0.39487,0.60281 0.44489,1.86871 0.11343,2.87046 -0.32614,0.98563 -0.61622,3.71999 -0.64467,6.07633 -0.0389,3.23574 -0.36676,4.41942 -1.33899,4.83647 -2.36733,1.01547 -5.66843,2.93776 -9.37879,5.46144 -3.06351,2.08372 -4.04658,3.43026 -5.8847,8.06045 -1.21375,3.05734 -2.41073,5.56408 -2.65997,5.57058 -0.24939,0.007 -1.10991,-2.10509 -1.91258,-4.69237 -1.35047,-4.353 -1.69774,-4.77575 -4.65191,-5.66324 -1.75586,-0.52746 -3.33825,-1.5355 -3.51644,-2.24008 -0.56243,-2.2242 -2.51523,-4.41711 -3.93346,-4.41711 -0.9112,0 -1.91029,-1.41857 -2.99759,-4.25615 -0.89698,-2.3409 -1.64988,-4.33851 -1.67312,-4.43912 -0.0222,-0.10059 -1.43669,-0.45458 -3.14094,-0.78657 l -3.09866,-0.60356 v 13.55501 c 0,10.24663 -0.22436,13.55498 -0.91949,13.55498 -0.50571,0 -0.96083,-1.10883 -1.01135,-2.46408 z m 32.37023,-13.91815 c 10.53406,-6.64283 10.01317,-6.14931 10.08729,-9.55722 0.44249,-20.34706 -0.0762,-60.87764 -0.82905,-64.78754 -0.96281,-5.00018 -6.57236,-15.256089 -9.67244,-17.684094 -5.04625,-3.95227 -6.53866,-4.37295 -10.48068,-2.95428 -4.43996,1.597923 -4.37387,1.554033 -8.27667,5.493875 -6.24532,6.304619 -9.94881,17.493359 -9.6853,29.260799 0.0662,2.95692 0.0512,14.15091 -0.0334,24.87555 -0.0845,10.72465 0.0484,19.89776 0.29533,20.38472 0.24716,0.48696 1.56419,0.88535 2.92698,0.88535 2.64985,0 5.16456,2.8576 5.97468,6.78941 0.22881,1.10995 1.38864,2.50891 2.57767,3.10884 1.18901,0.59994 2.83785,2.2472 3.66404,3.66055 0.89424,1.52979 2.17424,2.56977 3.16285,2.56977 0.91337,0 2.44823,1.02119 3.41084,2.26931 l 1.75015,2.26931 0.98889,-2.29897 c 0.54389,-1.26445 2.40639,-3.19287 4.13889,-4.28538 z m -1.75135,15.90445 c 0,-0.2628 0.83311,-2.4805 1.85138,-4.92818 1.24449,-2.9916 2.31103,-4.45037 3.2537,-4.45037 0.77131,0 2.37478,-0.9967 3.56328,-2.21489 2.55138,-2.61511 6.09742,-4.41609 6.73111,-3.41861 0.24632,0.38793 0.33284,4.03182 0.19211,8.09758 l -0.25605,7.39225 h -2.76206 c -2.1929,0 -2.96474,-0.46132 -3.74566,-2.23873 -0.54097,-1.23129 -1.12025,-2.07225 -1.28728,-1.86878 -0.16709,0.20353 0.0659,1.21087 0.51739,2.23873 0.79016,1.7984 0.6539,1.86878 -3.61836,1.86878 -2.44167,0 -4.43942,-0.21505 -4.43942,-0.47778 z m 18.38975,-5.73954 v -6.21731 l 3.22605,-0.5893 c 5.22408,-0.95427 6.33665,0.31529 6.33665,7.23126 v 5.79267 h -4.78133 -4.78137 z m 11.76947,3.47033 c 0,-3.10221 0.95683,-5.72758 3.16249,-8.67739 1.29674,-1.73423 2.24831,-2.0161 6.80615,-2.0161 6.11626,0 6.72804,0.55022 6.97412,6.27225 0.33131,7.70398 0.96533,7.16823 -8.48346,7.16823 h -8.4593 z m -40.35508,-0.0169 c -0.9551,-0.94323 -2.6102,-1.72922 -3.67796,-1.7467 l -1.94138,-0.0305 1.83898,-1.28053 c 2.81177,-1.95795 4.14715,-1.60259 5.15891,1.37278 1.16563,3.42786 0.81696,3.85437 -1.37855,1.68618 z m -8.80029,-3.21491 c 0.67069,-2.95886 0.57166,-3.45556 -0.97879,-4.90824 -0.94874,-0.88894 -2.26351,-1.62518 -2.92175,-1.63615 -0.84437,-0.0136 -1.5241,-1.60294 -2.30853,-5.39611 -0.94142,-4.55243 -0.95438,-5.37619 -0.0845,-5.37619 0.56497,0 1.56208,1.62834 2.21581,3.61856 0.72149,2.19637 2.01736,4.14056 3.2973,4.94681 1.15976,0.73055 2.62886,2.29535 3.26466,3.47737 1.07788,2.00383 1.04104,2.36518 -0.54478,5.34645 -2.1843,4.10636 -2.88068,4.08035 -1.93934,-0.0725 z m 83.36033,-6.52475 c -1.74421,-0.42424 -1.9371,-0.66651 -0.9203,-1.1557 1.37146,-0.65981 4.94767,0.5215 3.80454,1.25675 -0.3726,0.23977 -1.67053,0.19406 -2.88424,-0.10092 z m -100.54604,-1.5477 c 0.53101,-0.25873 1.16545,-0.2269 1.40989,0.0708 0.24437,0.29768 -0.19017,0.50954 -0.96548,0.47063 -0.85691,-0.043 -1.03123,-0.25535 -0.44441,-0.54134 z m -42.77154,-1.77731 c -0.26968,-0.3285 -0.4904,-3.53599 -0.4904,-7.12766 v -6.5303 l 2.39266,-0.54676 c 1.31594,-0.30073 4.02465,-0.4198 6.01935,-0.26449 3.30055,0.2567 3.6776,0.5155 4.19271,2.87679 0.76319,3.49844 3.95682,7.39872 6.58193,8.03828 1.18002,0.28752 2.14549,1.0772 2.14549,1.75495 0,0.91353 -1.74167,1.38288 -6.73333,1.81446 -8.61596,0.74498 -13.48868,0.73973 -14.10841,-0.0169 z m 98.98193,-0.39853 c -1.46638,-0.66076 -1.63878,-1.35649 -1.63878,-6.61368 0,-7.07175 0.5966,-7.55108 8.4414,-6.78199 4.53203,0.44432 5.2394,0.76462 6.05777,2.74312 1.44748,3.49946 1.23329,10.52355 -0.33904,11.11966 -1.88894,0.71616 -10.61814,0.39051 -12.52135,-0.46711 z m 17.94902,-1.88507 c -2.07875,-3.23547 -1.5385,-5.18333 1.43761,-5.18333 0.94595,0 2.14674,-0.64321 2.66842,-1.42937 3.68847,-5.55845 3.9817,-5.73889 9.32643,-5.73889 2.82409,0 5.99898,0.40026 7.05528,0.88948 1.84093,0.85257 1.91157,1.13911 1.70298,6.90693 -0.26329,7.28178 -0.15625,7.21689 -12.11766,7.3468 l -8.2221,0.0894 z m -93.14777,0.63952 c -0.9672,-1.41959 -0.72666,-10.61556 0.31046,-11.87002 0.30607,-0.37018 3.19747,-0.6531 6.42534,-0.62865 6.7474,0.0511 7.21303,0.49068 7.23007,6.82653 0.0195,6.90827 -0.0898,7.01752 -6.96548,7.01752 -4.51313,0 -6.32039,-0.34732 -7.00039,-1.34538 z m -5.14821,-2.9217 c -2.69686,-1.07825 -6.87498,-8.26582 -5.66304,-9.7421 0.23075,-0.28108 2.09598,-0.23029 4.14475,0.11278 l 3.72506,0.62407 v 4.34319 c 0,4.55975 -0.39186,5.38763 -2.20677,4.66202 z m 95.63462,-6.01212 c -1.00885,-3.23222 -0.43693,-4.0599 2.79403,-4.04357 3.79679,0.0203 4.93277,1.03415 3.86852,3.45647 -0.4606,1.04828 -1.23955,1.91152 -1.73103,1.91823 -0.49148,0.007 -1.6325,0.25331 -2.53558,0.54835 -1.30533,0.4262 -1.79656,0.041 -2.39594,-1.87948 z m 26.84121,-3.16127 c 0.24994,-0.49281 1.42813,-0.89602 2.61799,-0.89602 1.18984,0 2.16335,0.40321 2.16335,0.89602 0,0.49281 -1.17808,0.89605 -2.61796,0.89605 -1.55802,0 -2.43392,-0.3628 -2.16338,-0.89605 z m -130.22618,-4.19261 c -1.66964,-2.03384 -1.00898,-7.81845 1.22356,-10.7132 1.55507,-2.01633 2.14252,-2.16534 7.60011,-1.92801 l 5.91479,0.25738 0.22019,6.19202 c 0.15458,4.34775 -0.0645,6.41197 -0.73558,6.93052 -0.52568,0.40619 -3.66304,0.74468 -6.97187,0.75223 -4.66276,0.0102 -6.29393,-0.32477 -7.2512,-1.49077 z m 18.51762,0.36141 c -1.03804,-0.9246 -1.24069,-2.25204 -1.06009,-6.94424 l 0.22325,-5.80117 3.55122,-0.27601 c 4.79587,-0.37266 5.64369,0.69005 5.64369,7.07439 0,4.25859 -0.26523,5.40792 -1.42284,6.16249 -1.95044,1.27156 -5.38558,1.16478 -6.93526,-0.21573 z m 69.14551,0 c -1.03803,-0.9246 -1.24065,-2.25204 -1.06005,-6.94424 l 0.22325,-5.80117 h 4.41354 4.41354 l 0.22075,5.67844 c 0.13261,3.41513 -0.12316,6.18294 -0.64178,6.94424 -1.07468,1.57737 -5.84915,1.65475 -7.56919,0.1226 z m 11.71273,-0.0505 c -1.79325,-1.59727 -2.41615,-9.33133 -0.94407,-11.72161 0.93656,-1.52075 2.09551,-1.7236 10.23851,-1.79208 10.92346,-0.0918 11.62542,0.31597 11.62542,6.75273 0,7.10626 -1.20092,7.95456 -11.26105,7.95456 -5.76744,0 -8.7297,-0.36605 -9.65881,-1.1936 z m -108.5441,-1.93668 c 0,-1.82018 0.56443,-2.62459 2.55095,-3.63566 3.76546,-1.91646 4.18521,-1.69627 3.92988,2.06178 -0.22158,3.26158 -0.31997,3.36823 -3.35457,3.63566 -2.93677,0.25874 -3.12626,0.13377 -3.12626,-2.06178 z m 131.08592,-4.20846 0.21714,-6.54974 3.15937,-0.27736 3.15935,-0.27736 -0.21686,6.54974 -0.21713,6.5497 -3.15937,0.27736 -3.15938,0.27736 z m -92.83519,-6.10173 c -0.82246,-0.64741 -0.41214,-0.87208 1.61164,-0.88231 1.4933,-0.007 2.91964,0.38949 3.16969,0.88231 0.58635,1.1557 -3.31325,1.1557 -4.78133,0 z m 63.07679,-3.33503 c -3.79699,-0.30378 -4.34263,-0.60441 -5.33304,-2.93739 -1.38556,-3.26381 -1.42493,-8.97781 -0.0773,-11.22277 0.91749,-1.52843 2.04783,-1.71236 10.6907,-1.73931 7.80877,-0.0237 9.7991,0.22791 10.36442,1.31389 1.04427,2.00604 0.89272,12.15977 -0.19739,13.21598 -1.11369,1.07913 -9.63579,1.83471 -15.44751,1.3696 z m -89.0792,-0.9262 c -0.18905,-0.37242 -0.17292,-1.76454 0.0356,-3.09357 0.31527,-2.00895 1.0791,-2.69964 4.52981,-4.09613 3.55541,-1.43886 4.18446,-2.02981 4.387,-4.12123 0.25105,-2.59154 2.38189,-4.14053 5.69618,-4.14053 2.87927,0 1.9292,3.83615 -1.51907,6.13357 -1.3738,0.91532 -1.38036,0.982 -0.0992,1.00744 0.7546,0.0135 2.45649,-1.41502 3.782,-3.17777 1.87848,-2.49814 2.87379,-3.1404 4.51277,-2.91208 2.06451,0.28752 2.10674,0.40646 2.32401,6.54382 0.18099,5.11291 -0.0111,6.4587 -1.06009,7.39225 -1.41586,1.26113 -21.97038,1.68353 -22.58903,0.46423 z m 113.30476,0.0948 c -0.26301,-0.32037 -1.53188,-0.62275 -2.81978,-0.67203 -1.29206,-0.0494 -2.49455,-0.64846 -2.68282,-1.33644 -0.25216,-0.92142 0.16375,-1.12926 1.59377,-0.79629 2.4688,0.57487 2.54862,-0.87123 0.0895,-1.62301 -3.26786,-0.99908 -3.52261,-8.02148 -0.3614,-9.9627 1.07313,-0.65896 4.63983,-1.13474 8.5645,-1.14246 7.80209,-0.0169 7.61849,-0.23029 7.61849,8.9245 0,4.73864 -0.26023,6.22467 -1.16354,6.64697 -1.55748,0.72802 -10.23486,0.69716 -10.83883,-0.0386 z m 14.25912,-7.03385 c -0.0364,-0.98563 -0.27134,-3.30411 -0.52212,-5.15216 -0.43907,-3.23584 -0.37755,-3.35962 1.66319,-3.34642 3.27923,0.0203 4.36084,1.26716 2.16029,2.48849 -1.07401,0.59611 -2.02784,2.05911 -2.29201,3.51554 -0.69875,3.85274 -0.93742,4.44258 -1.00935,2.49455 z m -98.98691,-6.46314 c -2.23607,-0.65514 -3.12771,-2.04915 -1.31066,-2.04915 2.05356,0 3.88522,0.89006 3.88522,1.88791 0,0.84194 -0.20712,0.85491 -2.57456,0.1612 z m 57.16092,-4.57286 -2.42191,-0.2838 0.21519,-6.43659 0.21519,-6.43663 4.20658,-0.26788 c 3.89413,-0.2479 4.23904,-0.1104 4.64327,1.85144 0.24021,1.16563 0.33329,4.09407 0.20685,6.50765 -0.21407,4.08953 -0.37997,4.42104 -2.43647,4.86881 -1.21375,0.26415 -3.29663,0.35285 -4.6287,0.19676 z m 10.3551,0.0135 c -1.1004,-0.85172 -1.54167,-11.45675 -0.52809,-12.69139 0.3994,-0.48649 3.6136,-1.15489 7.14271,-1.48536 6.16164,-0.5769 6.41653,-0.52695 6.41653,1.25825 0,1.03331 1.13859,3.00224 2.56349,4.43296 1.49093,1.49697 2.7515,3.7188 3.01278,5.31026 0.42809,2.60732 0.31591,2.76317 -2.37959,3.30563 -3.9507,0.79507 -15.14848,0.70516 -16.22783,-0.13038 z m -86.51878,-0.774 c -0.96119,-1.17081 -0.52195,-10.79972 0.54169,-11.87499 0.65457,-0.66174 3.27801,-0.9477 7.17202,-0.78176 l 6.1399,0.26178 0.22102,3.21281 c 0.14318,2.07848 -0.18154,3.61991 -0.91949,4.36587 -1.2029,1.21606 -1.60911,3.18416 -0.48208,2.33569 0.75724,-0.57006 1.67028,1.73478 1.0072,2.54247 -0.6043,0.73608 -13.07156,0.67983 -13.68034,-0.0616 z m 103.94195,-10.81185 c -2.5075,-2.1394 -1.70753,-3.08324 2.04441,-2.41205 4.11351,0.73587 6.80439,1.85225 6.8037,2.82271 -9.2e-4,1.21727 -7.33925,0.87668 -8.84811,-0.41066 z m -86.41038,-2.03127 c -0.5805,-1.14415 1.85675,-1.14415 3.31017,0 0.863,0.67939 0.67217,0.87157 -0.87609,0.88231 -1.08869,0.007 -2.18403,-0.38949 -2.43408,-0.88231 z m -15.78845,-3.54503 c -0.9211,-0.70966 -0.9464,-1.75482 -0.17515,-7.23339 1.19542,-8.4916 1.84902,-9.83526 4.77172,-9.80939 3.50231,0.0305 9.78856,4.50046 9.46327,6.72828 -0.30854,2.11336 -1.40093,3.07491 -3.51435,3.09344 -0.86077,0.007 -1.92035,0.53528 -2.35467,1.1727 -0.62507,0.91746 -0.27869,1.08635 1.66202,0.81038 3.02162,-0.42969 3.86407,0.99416 2.30411,3.89425 -1.06434,1.97865 -1.68293,2.19928 -6.13204,2.18695 -2.72155,-0.007 -5.43276,-0.38701 -6.02491,-0.84322 z m 73.08938,0.001 c -1.10554,-0.55794 -1.67935,-1.88816 -2.01291,-4.6664 -0.25661,-2.1373 -0.67473,-4.79106 -0.92909,-5.89722 -0.41194,-1.79133 0.14541,-2.36288 5.09761,-5.22765 3.0581,-1.76901 6.1543,-3.07701 6.88052,-2.90667 2.21069,0.51863 1.97448,3.29575 -0.5219,6.13638 -1.2882,1.46581 -2.08494,2.6651 -1.77059,2.6651 0.31436,0 1.17894,-0.66956 1.92128,-1.48789 1.91093,-2.10655 2.31959,-1.12208 2.38581,5.74773 l 0.0584,6.04453 -4.78134,0.18626 c -2.62975,0.10228 -5.47719,-0.16492 -6.32767,-0.59414 z m -53.99076,-10.38978 -1.83898,-1.32585 2.15003,0.23774 c 1.18252,0.13072 2.28592,0.74159 2.45198,1.35761 0.39312,1.45833 -0.48553,1.37272 -2.76303,-0.26923 z m 70.14027,-3.98086 c -2.38298,-1.17118 -3.13474,-3.11937 -0.92589,-2.39945 0.97357,0.31732 2.18387,0.58245 2.68961,0.58916 0.50572,0.007 0.91946,0.61707 0.91946,1.35629 0,1.50554 -0.40443,1.57398 -2.68318,0.454 z m -80.2682,-4.45659 c -2.53606,-1.461449 -4.82685,-3.342284 -5.09063,-4.179615 -0.28317,-0.898865 0.37009,-3.499349 1.59485,-6.348814 2.06301,-4.799693 4.76412,-7.42175 7.64556,-7.42175 1.52463,0 8.18493,8.730424 8.18493,10.728945 0,1.950228 -5.21661,9.879824 -6.49908,9.879084 -0.67355,-4.1e-4 -3.29958,-1.19645 -5.83563,-2.65785 z m 2.36652,-8.234566 c -1.67723,-4.020543 -2.57996,-5.308797 -3.32635,-4.746862 -0.34255,0.258057 0.43974,2.210723 1.73842,4.339627 2.74588,4.501301 3.36171,4.659217 1.58793,0.407235 z m 53.86144,5.884549 -2.81671,-4.940574 1.84968,-2.865687 c 4.63235,-7.176867 5.4153,-8.082607 6.53463,-7.559381 1.74996,0.817994 8.06134,12.067117 7.77832,13.863696 -0.28413,1.803584 -6.83911,6.475303 -9.05801,6.455593 -0.94629,-0.007 -2.47611,-1.77575 -4.28791,-4.953647 z m -37.64076,-3.951642 c -1.30363,-0.682361 -1.24082,-0.777253 0.5517,-0.83303 1.11258,-0.03454 2.02289,0.340216 2.02289,0.83303 0,1.051702 -0.5654,1.051702 -2.57459,0 z m -8.08291,-9.042192 c -2.58933,-4.284528 -3.14695,-5.803102 -2.59347,-7.062841 1.46043,-3.32406 4.00861,-2.490996 5.40954,1.768538 0.24327,0.739222 0.37892,-0.414111 0.30174,-2.562995 -0.12984,-3.613443 0.0514,-4.031482 2.41239,-5.562655 4.27237,-2.770863 4.74734,-2.410362 6.54556,4.968175 0.89794,3.684392 1.44267,7.073204 1.21052,7.530764 -0.53708,1.058542 -8.24333,6.379091 -9.23947,6.379091 -0.41155,0 -2.2326,-2.456115 -4.04681,-5.458077 z m 35.85146,2.230534 c -2.30519,-1.848766 -3.86185,-3.752428 -3.86185,-4.72275 0,-1.622509 2.45574,-10.974404 3.33887,-12.714969 0.28452,-0.560783 2.37631,0.353186 5.36787,2.345442 5.81723,3.874006 7.47625,5.543317 7.47625,7.5225 0,1.623152 -6.66833,10.835859 -7.76812,10.732128 -0.38013,-0.0359 -2.42899,-1.458903 -4.55302,-3.162351 z m 25.52079,-0.865202 c -1.39345,-1.265395 -3.02734,-2.646407 -3.63084,-3.068916 -1.70711,-1.19519 -0.62215,-1.610588 1.97369,-0.755681 1.2912,0.425219 3.05155,1.977389 3.91194,3.449195 1.91988,3.284301 1.09906,3.42095 -2.25479,0.375402 z M 181.047,81.180898 c -0.42434,-1.35524 -1.5867,-5.88614 -2.58301,-10.06863 -1.66692,-6.997784 -1.71474,-7.690712 -0.59916,-8.684367 2.68341,-2.39011 18.5162,-2.664423 20.41321,-0.35366 0.80533,0.980989 -2.65672,18.375428 -4.07022,20.450078 -0.49318,0.723847 -2.82175,1.120652 -6.57639,1.120652 -5.66385,0 -5.83264,-0.06333 -6.58443,-2.464073 z m 32.43837,-7.392252 c -2.26663,-1.835457 -2.86673,-2.681661 -1.90359,-2.684269 1.34177,-0.0034 7.78832,4.103583 7.78832,4.962114 0,1.224247 -2.98833,0.06739 -5.88473,-2.277845 z m -8.27539,-7.785909 c -2.3192,-0.738273 -1.34708,-2.039396 1.1034,-1.476818 3.58352,0.822701 5.08646,2.056973 2.39066,1.963266 -1.21372,-0.04233 -2.78606,-0.261105 -3.49406,-0.486448 z"
       id="path1" /></g></svg>
