<?xml version="1.0" encoding="UTF-8" standalone="no"?>
<svg
   viewBox="0 0 180.00001 179.99999"
   version="1.1"
   id="svg1"
   sodipodi:docname="skull_and_crossbones.svg"
   xml:space="preserve"
   width="180"
   height="180"
   inkscape:version="1.4.2 (f4327f4, 2025-05-13)"
   xmlns:inkscape="http://www.inkscape.org/namespaces/inkscape"
   xmlns:sodipodi="http://sodipodi.sourceforge.net/DTD/sodipodi-0.dtd"
   xmlns="http://www.w3.org/2000/svg"
   xmlns:svg="http://www.w3.org/2000/svg"><sodipodi:namedview
     id="namedview1"
     pagecolor="#000000"
     bordercolor="#ffffff"
     borderopacity="1"
     inkscape:showpageshadow="0"
     inkscape:pageopacity="0"
     inkscape:pagecheckerboard="1"
     inkscape:deskcolor="#505050"
     inkscape:zoom="2.0214461"
     inkscape:cx="158.79721"
     inkscape:cy="232.50682"
     inkscape:window-width="2560"
     inkscape:window-height="1351"
     inkscape:window-x="-9"
     inkscape:window-y="-9"
     inkscape:window-maximized="1"
     inkscape:current-layer="svg1" /><defs
     id="defs1"><style
       id="style1">.cls-1{fill:#1d1d1b;}</style></defs><path
     id="path1"
     style="fill:#000000;stroke-width:0.773118"
     d="M 89.938751,10.375059 C 75.206014,10.313315 60.837355,15.04936 50.208282,24.152402 43.556885,29.848854 39.053778,36.825838 37.53836,43.781308 c -1.188221,5.453734 -1.023723,15.420136 0.345703,20.933594 1.255316,5.05405 4.474573,11.976828 4.570313,9.828125 0.03229,-0.724677 1.181187,-3.529204 2.552734,-6.232422 2.782862,-5.48482 3.049505,-8.568759 1.246094,-14.380859 -1.909138,-6.152858 -1.393698,-6.598948 1.246094,-1.078125 2.85504,5.970999 3.15052,10.904585 0.908203,15.175781 -1.975822,3.76355 -3.400391,9.503972 -3.400391,13.697266 0,2.44569 -0.526888,3.819316 -2.078125,5.414062 -1.142958,1.175013 -2.078125,2.722336 -2.078125,3.439454 0,1.371511 6.119973,8.969933 8.701172,10.802736 1.102054,0.78252 3.157361,1.01878 7.603516,0.87109 6.561108,-0.21794 10.358192,0.86692 11.93164,3.41016 1.434996,2.31946 0.95509,3.17991 -0.769531,1.37891 l -1.625,-1.69922 0.494141,3.95508 c 0.272339,2.17516 0.582894,4.04942 0.689453,4.16406 0.547554,0.58903 9.359942,3.02734 10.941406,3.02734 1.00813,0 2.065106,0.32327 2.347656,0.71875 0.643426,0.90058 0.970935,0.8977 2.964844,-0.0254 1.130083,-0.52316 2.132622,-0.50096 3.375,0.0742 1.301195,0.6024 2.299802,0.6077 3.787109,0.0215 1.42449,-0.56147 2.501582,-0.57287 3.650391,-0.041 1.21515,0.56256 2.072902,0.48503 3.373047,-0.30273 0.958887,-0.58101 2.287046,-0.87476 2.951176,-0.6543 0.66413,0.22045 2.02366,0.0769 3.02148,-0.31836 0.99782,-0.39521 2.90628,-1.00408 4.24219,-1.35352 2.14086,-0.55999 2.54241,-1.12722 3.38281,-4.77148 1.00975,-4.3785 0.51576,-5.15732 -1.60742,-2.53516 -1.73434,2.14196 -1.65306,0.94707 0.11133,-1.63671 1.99621,-2.92328 5.15825,-3.83978 11.49218,-3.32813 4.86965,0.39336 5.56039,0.27298 7.81641,-1.36914 3.8011,-2.766782 8.37891,-8.550827 8.37891,-10.585942 0,-1.004249 -0.88362,-2.739499 -1.96485,-3.857422 -1.60203,-1.656388 -2.03918,-3.097361 -2.36133,-7.785156 -0.26789,-3.898278 -1.04117,-7.028918 -2.39843,-9.708985 -2.66112,-5.254711 -2.51126,-9.698123 0.55468,-16.392578 1.3217,-2.885936 2.51313,-4.963296 2.64649,-4.617187 0.13338,0.346109 -0.48242,3.250606 -1.36719,6.455078 -1.74883,6.333898 -1.48554,8.943004 1.48438,14.71289 0.87136,1.692857 1.94622,3.888246 2.38671,4.876954 0.7331,1.645523 0.95279,1.371137 2.60938,-3.236328 5.62237,-15.637373 3.89382,-30.35807 -4.82812,-41.101563 C 129.51404,23.1336 124.33686,19.275738 116.12234,15.759824 107.74912,12.175987 98.778393,10.412106 89.938751,10.375059 Z m 20.791019,51.535156 c 1.14584,-0.0095 0.27636,0.564714 -3.08204,1.644531 -2.80734,0.902637 -7.01559,2.856504 -9.351558,4.339844 -4.792912,3.043505 -5.722526,2.150512 -1.417968,-1.361328 1.764717,-1.439728 4.675286,-2.755605 7.742186,-3.5 3.1075,-0.754249 5.21816,-1.115649 6.10938,-1.123047 z m -41.732426,0.15039 c 0.360841,0.01054 1.077474,0.09759 2.19336,0.244141 1.828726,0.240163 4.634228,0.896853 6.234375,1.460938 2.933235,1.034029 7.480469,4.315923 7.480469,5.398437 0,1.000515 -1.343261,0.643541 -2.792969,-0.742187 -1.216716,-1.163019 -3.571804,-2.269741 -12.169922,-5.720704 -0.770076,-0.30908 -1.197785,-0.497224 -1.224609,-0.583984 v -0.002 l -0.002,-0.002 c -3.8e-5,-7.65e-4 -3.4e-5,-0.0051 0,-0.0059 v -0.002 l 0.002,-0.002 v -0.002 -0.002 l 0.002,-0.002 0.002,-0.002 v -0.002 c 0.02574,-0.02537 0.117523,-0.03782 0.27539,-0.0332 z m -9.527343,7.644532 c 3.247453,-0.160909 7.171771,1.003655 13.125,3.638671 8.34455,3.693459 10.412803,4.140654 13.197265,2.851563 0.990507,-0.458562 1.607422,-0.477704 1.607422,-0.05078 0,0.796558 -2.329143,2.953125 -3.189453,2.953125 -0.317223,0 -1.231036,1.594002 -2.03125,3.542969 -1.783906,4.344881 -4.825095,6.153736 -12.798828,7.615234 -6.989089,1.281025 -9.095934,1.28484 -12.474609,0.01367 -3.994299,-1.502788 -5.585957,-4.754279 -5.628907,-11.501953 -0.03641,-5.718633 -0.0332,-5.7251 2.789063,-7.371094 1.751321,-1.021404 3.455824,-1.594861 5.404297,-1.691405 z m 58.847659,0.08008 c 1.71398,-0.03957 3.28527,0.293372 5.06054,0.943359 2.65774,0.973092 6.52871,4.055234 5.08985,4.052734 -0.41377,-7.2e-4 -0.62971,1.889284 -0.47852,4.199219 0.3256,4.974666 -1.26101,8.812274 -4.37304,10.576172 -5.75924,3.26433 -20.71945,0.649337 -25.337896,-4.429687 -0.954739,-1.049944 -1.734375,-2.683744 -1.734375,-3.628907 0,-1.144904 -0.656036,-1.932831 -1.964843,-2.363281 -1.080455,-0.355353 -2.167725,-1.319317 -2.416016,-2.140625 -0.462727,-1.530685 0.549496,-2.06282 1.470703,-0.773437 1.112508,1.557145 5.733251,0.556922 13.298827,-2.876954 5.27148,-2.392625 8.52813,-3.492647 11.38477,-3.558593 z M 89.526641,87.726621 c 2.463368,0 4.020984,1.968602 6.646485,8.404297 2.445545,5.994572 2.512986,7.719422 0.371093,9.572272 -0.914366,0.79096 -1.978915,1.4375 -2.365234,1.4375 -0.944349,0 -3.054413,-2.1801 -3.828125,-3.95508 -0.56886,-1.30504 -0.748167,-1.22225 -1.939453,0.89843 -1.464616,2.60728 -4.147759,3.11681 -6.355469,1.20703 -1.684659,-1.45729 -1.651739,-2.05675 0.4375,-7.962886 2.351127,-6.646473 4.516811,-9.601563 7.033203,-9.601563 z m -65.546875,8.277344 c -2.576668,-0.02592 -4.604323,0.938475 -6.085937,2.894531 -1.3819,1.824434 -1.354534,2.019464 0.787109,5.796874 l 2.216797,3.91016 -1.869141,-0.38867 c -2.464384,-0.51246 -7.077912,1.98389 -8.142578,4.40625 -1.2253058,2.78787 1.259708,6.73742 5.316406,8.45117 3.096353,1.30806 3.353753,1.31095 8.105469,0.0664 6.327673,-1.65731 8.92486,-1.16259 28.179688,5.37304 8.000702,2.71566 15.365505,4.96826 16.367187,5.00586 4.803026,0.18024 1.205424,-1.52046 -14.982422,-7.08203 -19.020515,-6.53476 -17.037805,-6.19709 -32.875,-5.60156 -4.015967,0.15102 -4.648165,-0.0327 -6.177734,-1.79687 -2.168115,-2.50076 -1.186224,-3.4606 1.394531,-1.36329 1.848685,1.50236 2.432007,1.5635 10.59375,1.11524 l 8.638672,-0.47461 8.3125,2.88086 c 4.57183,1.58377 13.446883,4.68117 19.720703,6.88476 10.190389,3.57921 11.682712,3.9234 14,3.22461 l 2.59375,-0.78125 -6.935547,-2.96289 c -5.467634,-2.33537 -7.182672,-3.44878 -8.105468,-5.26172 -0.903972,-1.77595 -2.228609,-2.66346 -5.81836,-3.89648 -10.115765,-3.47462 -18.912798,-7.74075 -21.941406,-10.64063 -1.689939,-1.61813 -3.072266,-3.23951 -3.072266,-3.60351 0,-1.5945 -4.532971,-5.118773 -7.460937,-5.800786 -0.981439,-0.22861 -1.900876,-0.346829 -2.759766,-0.355469 z m 131.246094,0.002 c -3.12622,0.09225 -6.40417,1.673954 -8.39258,4.552735 -3.71791,5.38272 -7.36843,8.13772 -15.33398,11.57226 -4.36711,1.88299 -9.75041,4.01319 -11.96289,4.73242 -2.38887,0.77657 -4.29428,1.91454 -4.69141,2.80274 -1.54382,3.45271 -7.60509,6.52661 -17.074218,8.66015 -2.696239,0.6075 -6.306435,1.10547 -8.023438,1.10547 -1.88183,0 -10.480485,2.38683 -21.646484,6.00977 -10.187988,3.3056 -21.141513,6.76663 -24.341797,7.6914 -6.17282,1.7838 -12.940897,2.12932 -21.251953,1.08594 -3.677778,-0.46172 -5.182059,-0.33069 -7.335938,0.63282 -2.835416,1.26836 -5.2155881,4.92197 -4.451171,6.83203 0.53283,1.33136 5.256844,5.79101 6.134765,5.79101 0.338524,0 0.744073,-1.05257 0.902344,-2.33789 l 0.289062,-2.33594 1.146485,1.98047 c 0.988397,1.70702 0.9647,2.54963 -0.171875,6.08203 -1.489833,4.63026 -1.026469,6.04836 2.523437,7.71485 5.069653,2.3799 9.645196,0.68058 15.150391,-5.62696 3.561786,-4.08089 8.447863,-7.23871 14.96875,-9.67382 4.930076,-1.84106 49.88316,-17.96492 59.42578,-21.31446 12.373,-4.34301 33.06537,-10.95148 36.00586,-11.5 1.75887,-0.32811 4.66296,-0.068 8.03125,0.72071 5.06776,1.18664 5.40229,1.18332 8.4668,-0.11133 4.26056,-1.79996 6.84999,-5.8224 5.45508,-8.4707 -1.40843,-2.67402 -5.85613,-4.8907 -8.8418,-4.40626 -2.28347,0.37052 -2.34354,0.32055 -1.07031,-0.89648 0.74222,-0.70947 1.95419,-2.54192 2.69336,-4.07226 1.27139,-2.63221 1.25824,-2.88181 -0.25977,-4.640627 -1.57193,-1.821293 -3.91225,-2.651825 -6.34375,-2.580078 z m -88.984375,0.347656 c 3.368463,0 7.027344,2.605059 7.027344,5.001949 -3e-6,1.87367 -0.567512,1.88551 -1.25,0.0254 -0.59629,-1.625181 -4.436932,-3.587887 -7.021485,-3.587887 -0.937075,0 -1.703125,-0.323269 -1.703125,-0.71875 0,-0.395489 1.326337,-0.720703 2.947266,-0.720702 z m 46.945315,0.01953 c 1.21123,-0.03517 2.37869,0.18242 3.30664,0.701172 0.92333,0.516167 0.40904,0.698431 -1.98047,0.707031 -2.61459,0.0089 -3.7569,0.499378 -6.02539,2.580076 -2.87663,2.63849 -3.4982,2.41985 -1.87695,-0.6582 1.03184,-1.959036 3.91145,-3.252698 6.57617,-3.330079 z m 52.51562,18.121089 c 0.49554,-0.004 0.34138,0.66122 -0.43359,2.00586 -1.5414,2.67451 -4.55302,3.25696 -11.21289,2.16992 -5.35361,-0.87382 -6.19886,-0.82653 -11.89649,0.66407 -9.78847,2.56084 -82.438751,28.20686 -94.773434,33.45508 -4.616379,1.96419 -7.550797,3.9126 -11.939453,7.93359 -5.929194,5.43244 -8.455511,6.5792 -11.84375,5.37305 -2.868801,-1.02125 -2.228011,-1.78683 1.53125,-1.82813 3.121072,-0.0343 3.847184,-0.45334 8.933594,-5.17383 6.87936,-6.38445 6.528293,-6.24252 74.113283,-30.04492 38.47134,-13.54901 35.74902,-12.80694 44.94726,-12.26367 7.33362,0.43314 8.13495,0.34901 10.22657,-1.07422 1.18464,-0.80608 1.96223,-1.21383 2.34765,-1.2168 z m -97.142576,1.62891 c -0.993136,0.0218 -1.311399,1.57159 -0.300781,3.20508 0.515326,0.83296 1.292319,1.32395 1.726563,1.09179 1.202512,-0.64289 0.94225,-2.92625 -0.447266,-3.92382 -0.369651,-0.26538 -0.700438,-0.37916 -0.978516,-0.37305 z m 41.613286,0.17969 c -0.43155,0.0338 -0.87594,0.99553 -1.01368,2.24023 -0.19374,1.75086 0.0354,2.32737 0.83204,2.09766 1.27418,-0.36742 1.50263,-4.06494 0.26757,-4.33203 -0.0286,-0.006 -0.0572,-0.008 -0.0859,-0.006 z m -36.246098,0.93359 c -0.277962,-0.004 -0.615815,0.0783 -1.039063,0.21875 -1.521899,0.5052 -1.700766,3.41803 -0.285156,4.64258 2.086557,1.80497 3.40507,1.00862 2.888672,-1.74414 -0.43538,-2.3208 -0.730568,-3.10625 -1.564453,-3.11719 z m 31.146488,0.0684 c -0.85102,-0.007 -1.04883,0.63323 -1.04883,2.7793 0,2.45265 0.2585,2.93762 1.45508,2.73828 1.05235,-0.17532 1.45312,-0.93186 1.45312,-2.73828 0,-1.80641 -0.40077,-2.56493 -1.45312,-2.74024 -0.14958,-0.0249 -0.28468,-0.0381 -0.40625,-0.0391 z m -5.205082,0.62109 c -0.314866,0 -0.628964,0.34627 -1.246094,1.03711 -1.275067,1.42735 -1.689062,4.8125 -0.693359,5.67383 1.610655,1.39329 4.433595,-0.36469 4.433595,-2.76172 0,-0.83403 -0.56227,-2.14443 -1.24805,-2.91211 -0.61713,-0.69084 -0.93123,-1.03711 -1.246092,-1.03711 z m -20.777344,0.008 c -0.319961,-0.005 -0.633798,0.33949 -1.25,1.02929 -1.616373,1.80944 -1.58293,3.60457 0.0957,5.05664 0.738832,0.63913 1.766746,1.04151 2.285156,0.89454 1.473314,-0.41774 1.57137,-4.31579 0.148437,-5.91016 -0.634295,-0.71071 -0.959335,-1.06496 -1.279297,-1.07031 z m 6.910157,0.73632 c -1.415608,0.008 -2.757813,1.51289 -2.757813,3.95508 0,1.23919 0.249895,2.46877 0.554688,2.73242 0.304782,0.26365 1.418506,0.47852 2.476562,0.47852 2.355411,0 3.445791,-2.85241 2.080078,-5.44531 -0.627349,-1.19107 -1.504151,-1.72568 -2.353515,-1.72071 z m 6.75,0.10352 c -0.224011,-0.008 -0.44793,0.022 -0.669922,0.0957 -1.105999,0.36714 -2.338955,5.29668 -1.607422,6.42774 0.595219,0.92029 5.036246,0.59075 5.478515,-0.40625 1.063031,-2.39635 -1.035739,-6.03992 -3.201171,-6.11719 z m 19.666019,16.4043 -4.4043,1.44531 c -2.4225,0.79444 -4.89355,1.71618 -5.49219,2.04883 -0.72475,0.40273 3.99683,2.47504 14.13086,6.20312 21.69193,7.97999 22.8307,8.53982 29.43359,14.48047 5.34558,4.80944 6.20539,5.31031 9.14258,5.32031 2.39961,0.008 2.91885,0.19314 1.9961,0.70899 -0.68577,0.38337 -2.59431,0.70103 -4.24219,0.70703 -2.66432,0.01 -3.56084,-0.53696 -8.08399,-4.93945 -5.75473,-5.60126 -10.92893,-8.19575 -31.65039,-15.86524 -12.75984,-4.72271 -16.703121,-5.77138 -16.703121,-4.4414 0,0.44491 0.113594,0.80859 0.253907,0.80859 1.306571,0 35.974804,13.52517 39.064454,15.24023 2.22953,1.23761 5.60726,4.03173 7.50586,6.20704 1.89861,2.1753 4.57822,4.54812 5.95312,5.27343 3.22345,1.7005 5.99162,1.6678 9.35743,-0.10742 2.94964,-1.55572 3.49388,-3.8625 1.81445,-7.68359 -0.96786,-2.20212 -0.34749,-6.70508 0.92383,-6.70508 0.43647,0 0.79492,0.81012 0.79492,1.79883 0,2.38246 0.82471,2.26566 3.87109,-0.54102 3.29635,-3.03696 3.66028,-4.09764 2.33594,-6.82226 -1.5534,-3.19585 -5.47588,-4.77244 -10.50195,-4.22266 -2.2102,0.24177 -5.79518,0.6327 -7.9668,0.86914 -5.09933,0.55519 -11.58943,-0.90665 -26.14258,-5.88672 z" /></svg>
