<?xml version="1.0" encoding="UTF-8" standalone="no"?>
<!-- Created with Inkscape (http://www.inkscape.org/) -->

<svg
   width="180"
   height="240"
   viewBox="0 0 180 240"
   version="1.1"
   id="svg1"
   xml:space="preserve"
   inkscape:version="1.4.2 (f4327f4, 2025-05-13)"
   sodipodi:docname="food_fruit_pineapple.svg"
   xmlns:inkscape="http://www.inkscape.org/namespaces/inkscape"
   xmlns:sodipodi="http://sodipodi.sourceforge.net/DTD/sodipodi-0.dtd"
   xmlns="http://www.w3.org/2000/svg"
   xmlns:svg="http://www.w3.org/2000/svg"><sodipodi:namedview
     id="namedview1"
     pagecolor="#505050"
     bordercolor="#ffffff"
     borderopacity="1"
     inkscape:showpageshadow="0"
     inkscape:pageopacity="0"
     inkscape:pagecheckerboard="1"
     inkscape:deskcolor="#505050"
     inkscape:document-units="px"
     inkscape:zoom="2.192031"
     inkscape:cx="-75.272658"
     inkscape:cy="174.26761"
     inkscape:window-width="2560"
     inkscape:window-height="1351"
     inkscape:window-x="-9"
     inkscape:window-y="-9"
     inkscape:window-maximized="1"
     inkscape:current-layer="layer1" /><defs
     id="defs1" /><g
     inkscape:label="Warstwa 1"
     inkscape:groupmode="layer"
     id="layer1"><path
       style="fill:#000000;stroke-width:1.09089"
       d="m 81.595849,231.92161 c -0.5384,-1.23799 0.403003,-2.62326 3.165763,-4.65838 4.921915,-3.62561 5.809549,-3.61182 10.387277,0.16136 5.246921,4.32476 4.17431,5.5962 -5.024339,5.95564 -6.468161,0.25275 -7.890201,0.009 -8.528701,-1.45862 z M 66.860843,231.05914 C 60.56249,229.0782 59.864537,228.17362 62.4558,225.35001 l 2.219959,-2.41903 5.955781,4.39985 c 3.275671,2.41992 5.955769,4.58746 5.955769,4.81679 0,0.87426 -5.411391,0.26868 -9.726466,-1.08848 z m 37.598627,0.63071 c 0,-0.57063 2.40902,-2.7793 5.35336,-4.90815 5.15298,-3.72574 5.41438,-3.79699 6.98369,-1.9033 0.89669,1.08203 1.45405,2.44709 1.2386,3.03348 -0.83943,2.28456 -13.57565,5.82893 -13.57565,3.77797 z m -32.939877,-6.55451 -5.584791,-4.35506 3.591525,-4.35506 c 1.975346,-2.39528 4.321597,-4.35505 5.2139,-4.35505 0.892303,0 4.155293,2.03726 7.25109,4.52725 l 5.628721,4.52725 -4.590717,4.18286 c -2.524893,2.30058 -4.890916,4.18287 -5.257829,4.18287 -0.366913,0 -3.180269,-1.95978 -6.251899,-4.35506 z m 25.336516,0.17219 -4.59071,-4.18286 5.62872,-4.52725 c 3.095801,-2.48999 6.039961,-4.52725 6.542571,-4.52725 1.13649,0 9.3135,7.90763 9.3135,9.0067 0,0.70068 -10.93482,8.41353 -11.92821,8.41353 -0.20633,0 -2.440971,-1.88229 -4.965871,-4.18287 z m -45.74732,-3.43873 c -4.861741,-4.371 -5.000846,-4.66921 -3.584929,-7.6854 0.810198,-1.72587 1.821272,-3.13795 2.246845,-3.13795 0.425573,0 3.263934,2.23076 6.307469,4.95725 5.180807,4.64113 5.443874,5.13124 4.124963,7.6854 -0.774811,1.50047 -1.999967,2.72814 -2.722552,2.72814 -0.722586,0 -3.589899,-2.04635 -6.371796,-4.54744 z m 68.217731,1.94873 c -1.23505,-2.39178 -0.88975,-3.00377 4.33626,-7.6854 3.12301,-2.79768 6.03866,-5.08668 6.47924,-5.08668 0.44057,0 1.37768,1.45951 2.08244,3.24337 1.38411,3.50338 0.5667,4.90877 -5.69123,9.78495 -3.81502,2.97268 -5.57162,2.91021 -7.20671,-0.25624 z m -35.655554,-9.28845 c -3.257275,-2.58405 -5.922317,-5.24928 -5.922317,-5.92273 0,-0.67346 2.552087,-3.44247 5.671305,-6.15335 4.796911,-4.16896 6.020969,-4.76377 7.939215,-3.85793 2.68209,1.26656 10.777621,8.98785 10.777621,10.27942 0,0.4935 -2.822291,3.02479 -6.271751,5.62508 l -6.271755,4.72779 z m -27.310854,-1.34797 c -4.549223,-4.07534 -5.488329,-5.5113 -4.917275,-7.51889 0.889482,-3.12704 5.118257,-7.93813 6.97733,-7.93813 0.773882,0 4.218428,2.51185 7.654542,5.58187 l 6.247493,5.58188 -4.332571,4.66532 c -2.382907,2.56593 -4.709176,4.66532 -5.169473,4.66532 -0.460308,0 -3.367328,-2.26681 -6.460046,-5.03737 z m 55.170398,0.33503 -3.96169,-4.63898 6.86504,-6.14464 6.86504,-6.14464 3.23899,3.38609 c 5.49546,5.74501 5.3611,7.49742 -1.01256,13.20714 -3.09273,2.77056 -6.16538,5.02312 -6.82813,5.00569 -0.66275,-0.0174 -2.98776,-2.11922 -5.16669,-4.67066 z m -69.736828,-2.41299 c -2.559175,-3.17122 -6.379113,-14.28136 -5.252172,-15.27573 0.898866,-0.79312 3.836057,1.94332 7.513591,7.00007 3.373982,4.63935 3.500429,5.15447 2.040393,8.31171 l -1.556509,3.36582 z m 91.697118,0.4496 c -0.63754,-1.47959 -1.15917,-3.19464 -1.15917,-3.81124 0,-1.27922 8.99965,-12.06686 10.06686,-12.06686 1.37406,0 -0.77292,9.29856 -3.06052,13.25511 -3.05024,5.27558 -4.43628,5.89736 -5.84717,2.62299 z M 66.854235,199.89687 c -6.114698,-5.45226 -6.626512,-6.24016 -5.384157,-8.28843 1.773261,-2.92359 9.29987,-10.27986 10.517907,-10.27986 1.518261,0 7.713023,4.92847 11.505727,9.15381 l 3.517253,3.91847 -6.272855,5.76049 c -3.45007,3.16828 -6.465006,5.7605 -6.699857,5.7605 -0.234851,0 -3.467661,-2.71125 -7.184018,-6.02498 z m 31.934594,0.51059 c -7.17301,-6.40879 -7.13403,-6.67574 2.085701,-14.28519 5.75077,-4.74636 5.94736,-4.81796 8.7615,-3.19099 1.5833,0.91539 4.47348,3.78873 6.42263,6.38524 l 3.54391,4.7209 -6.66419,5.94221 c -3.66531,3.26822 -6.9597,5.94222 -7.32089,5.94222 -0.36118,0 -3.43407,-2.48147 -6.828661,-5.51439 z m -55.874547,-2.4094 c -3.670311,-4.52256 -4.60181,-6.46796 -4.047909,-8.45393 0.978511,-3.50841 4.361122,-8.51103 5.784089,-8.5542 0.638737,-0.0194 3.429355,2.82598 6.201369,6.32303 l 5.040029,6.35826 -3.709424,5.1006 c -2.040172,2.80532 -3.887481,5.10059 -4.105104,5.10059 -0.217635,0 -2.541,-2.64346 -5.16305,-5.87435 z m 84.425498,0.64672 -3.24982,-5.1981 3.55343,-4.88611 c 1.95439,-2.68736 4.555,-5.68587 5.77913,-6.66337 2.1363,-1.70588 2.30005,-1.65038 4.07716,1.3819 4.32521,7.38007 4.31198,7.7205 -0.55857,14.36968 -2.50735,3.42299 -4.96218,6.21699 -5.45516,6.20886 -0.49299,-0.008 -2.35876,-2.3539 -4.14617,-5.21286 z m -45.469959,-14.19168 -6.83885,-6.09795 3.308106,-4.21202 c 3.686512,-4.69385 9.319041,-9.2273 11.402409,-9.17747 2.065143,0.0494 4.802183,2.15097 9.924073,7.62001 l 4.646551,4.96148 -6.604031,6.46851 c -3.63221,3.55769 -7.142984,6.48358 -7.801715,6.50196 -0.658732,0.0184 -4.275177,-2.71064 -8.036543,-6.06452 z m -26.996804,2.76762 c -1.307019,-1.26809 -3.791043,-4.22776 -5.52007,-6.57703 -2.725409,-3.70312 -2.954611,-4.5893 -1.722685,-6.66068 2.129003,-3.57977 8.10484,-10.07466 9.269513,-10.07466 1.204391,0 12.719494,12.00746 12.719494,13.26333 0,1.05093 -10.669345,12.35466 -11.661281,12.35466 -0.389722,0 -1.777965,-1.03753 -3.084971,-2.30562 z M 115.582,184.03608 c -2.9237,-3.01964 -5.31583,-5.99301 -5.31583,-6.60748 0,-1.40807 11.35555,-13.52025 12.67565,-13.52025 0.53767,0 2.93506,2.50782 5.32752,5.57292 3.18933,4.08599 4.16451,6.22485 3.65493,8.01634 -0.7956,2.79703 -8.47653,12.02873 -10.00809,12.02873 -0.5601,0 -3.41048,-2.47062 -6.33418,-5.49026 z m -80.892966,0.23702 c -1.954396,-4.08971 -2.139757,-15.9363 -0.29354,-18.76004 1.160921,-1.7756 1.673061,-1.32229 4.922014,4.35672 l 3.626272,6.33852 -3.301388,5.76084 -3.301387,5.76083 z m 105.068926,-2.19437 -3.25208,-5.85081 3.63671,-6.41597 3.63671,-6.41596 1.24421,2.88469 c 1.75765,4.07513 1.5444,14.18261 -0.38463,18.23073 l -1.62884,3.41813 z M 66.318021,167.90622 c -3.29421,-3.43712 -5.989471,-6.9016 -5.989471,-7.69884 0,-1.75504 11.075397,-11.66982 13.035887,-11.66982 0.765515,0 4.128949,2.59505 7.474298,5.76679 l 6.082452,5.76678 -7.145659,7.04221 c -3.930112,3.87321 -7.218191,7.0422 -7.306842,7.0422 -0.08864,0 -2.856443,-2.81218 -6.150665,-6.24932 z m 32.976208,-0.8695 c -7.67521,-6.84372 -7.73447,-5.99495 0.987611,-14.1441 2.56367,-2.39529 5.3015,-4.35506 6.08403,-4.35506 1.99547,0 13.19102,9.80471 13.19102,11.55228 0,1.72076 -10.51817,12.87851 -12.23042,12.97411 -0.65873,0.0368 -4.27324,-2.67547 -8.032241,-6.02723 z m 30.891061,0.17491 c -2.65193,-3.44575 -4.8217,-6.82633 -4.8217,-7.5124 0,-1.68232 6.95672,-11.16167 8.19134,-11.16167 1.08542,0 5.86511,5.37819 7.94976,8.94519 1.12813,1.93033 0.72791,3.34732 -2.58128,9.1392 l -3.91643,6.85467 z m -88.453821,1.56414 c -1.267313,-1.83169 -2.877824,-4.85534 -3.578913,-6.71922 -1.133863,-3.01438 -0.926053,-3.83284 1.880395,-7.40613 1.735309,-2.20948 3.89244,-4.55717 4.793616,-5.2171 1.856205,-1.35929 2.949548,-0.35465 7.350898,6.75458 l 2.597813,4.19607 -4.481738,5.82201 c -2.464956,3.20209 -4.881367,5.83958 -5.369815,5.86105 -0.488436,0.0215 -1.924956,-1.45958 -3.192256,-3.29126 z m 13.02553,-14.85843 c -1.235132,-1.54989 -3.115922,-4.32121 -4.179546,-6.15848 l -1.933852,-3.34049 5.420728,-5.11344 c 2.981392,-2.8124 5.823144,-5.11344 6.314995,-5.11344 0.491851,0 3.073323,2.29644 5.736589,5.10321 l 4.8423,5.10322 -6.153847,6.1687 c -3.384621,3.39278 -6.524617,6.16869 -6.97776,6.16869 -0.453155,0 -1.834476,-1.26809 -3.069607,-2.81797 z m 27.771603,-2.69773 c -6.045876,-5.40174 -6.13477,-5.56777 -4.302234,-8.03556 1.02916,-1.38592 3.951047,-3.99464 6.493083,-5.79715 5.37023,-3.80794 6.143572,-3.6267 13.685698,3.20744 l 4.978411,4.51108 -6.231861,5.81495 c -3.42752,3.19822 -6.730865,5.81494 -7.340761,5.81494 -0.609898,0 -3.886949,-2.48206 -7.282336,-5.5157 z m 32.551388,-0.0589 c -3.28633,-3.06604 -5.97516,-6.01872 -5.97516,-6.56153 0,-0.5428 2.25379,-3.18345 5.00842,-5.86811 l 5.0084,-4.88119 4.9239,3.92513 c 7.48496,5.96672 7.61419,6.54975 2.9193,13.17252 -2.25663,3.18329 -4.50948,5.7878 -5.00633,5.7878 -0.49686,0 -3.59219,-2.50857 -6.87853,-5.57461 z m -79.139578,0.48684 c 0,-2.9019 3.431156,-11.5732 5.237109,-13.23532 1.292142,-1.18924 1.7333,-0.79012 2.762677,2.49942 1.134884,3.62668 0.949778,4.23725 -2.516392,8.3004 -4.141512,4.85479 -5.483394,5.45081 -5.483394,2.4355 z m 102.425328,-2.09903 c -3.23152,-3.87173 -3.71932,-5.16364 -3.0901,-8.184 0.41094,-1.97258 0.92708,-3.74797 1.14698,-3.94531 1.92751,-1.72966 6.7656,9.19405 6.15152,13.88923 -0.36996,2.8287 -0.3831,2.82321 -4.2084,-1.75992 z M 68.681685,137.26176 c -2.678015,-2.74324 -4.869115,-5.38378 -4.869115,-5.86786 0,-0.48409 2.593574,-2.62536 5.763497,-4.7584 6.689102,-4.50107 8.594388,-4.35969 13.963618,1.03613 4.115612,4.13599 4.101546,4.1685 -4.577823,10.58041 l -5.411057,3.99744 z m -22.063124,2.42607 c -0.6497,-1.07115 -1.529276,-3.58437 -1.954616,-5.58492 -0.698709,-3.28628 -0.282438,-4.11583 4.312543,-8.59408 l 5.085913,-4.95671 2.588116,5.49507 2.588116,5.49508 -5.719402,5.04657 c -5.246666,4.62944 -5.817035,4.88559 -6.90067,3.09899 z m 51.824878,-3.42749 -6.17804,-5.10417 4.89072,-4.1183 c 2.6899,-2.26506 5.644311,-4.1183 6.565351,-4.1183 0.92105,0 4.1716,1.99471 7.22346,4.43269 l 5.54882,4.43269 -5.00371,4.78979 c -2.75204,2.63438 -5.4233,4.78978 -5.93613,4.78978 -0.51284,0 -3.71255,-2.29688 -7.110471,-5.10418 z m 27.541901,0.0174 -5.66402,-5.074 2.15415,-4.39825 c 1.18477,-2.41904 2.51427,-4.77782 2.95446,-5.24173 0.44017,-0.46392 2.76309,1.27004 5.16204,3.85324 3.97159,4.27663 4.30814,5.11619 3.76263,9.38652 -0.32949,2.5794 -1.07297,5.10795 -1.65217,5.61901 -0.62988,0.55579 -3.32926,-1.10986 -6.71709,-4.14479 z M 84.37171,125.18199 c -2.365211,-2.13725 -4.300382,-4.38159 -4.300382,-4.98743 0,-0.60584 2.102124,-2.329 4.671388,-3.82923 l 4.671386,-2.72771 5.200007,2.68891 c 2.86,1.47889 5.2,3.24319 5.2,3.92064 0,1.47331 -8.3089,8.82072 -9.975001,8.82072 -0.641859,0 -3.102189,-1.74865 -5.467398,-3.8859 z m 27.22784,-0.38291 c -3.2883,-2.36024 -5.97874,-4.82111 -5.97874,-5.4686 0,-1.63514 5.01335,-5.63338 7.06364,-5.63338 0.92834,0 3.61104,1.15307 5.96154,2.56238 4.08657,2.45022 4.2175,2.70813 2.99131,5.89214 -2.78926,7.24276 -3.40812,7.40599 -10.03775,2.64746 z m -52.393261,-0.0111 c -1.294185,-1.87303 -2.355034,-4.2031 -2.357415,-5.17794 -0.0046,-1.78423 7.605081,-5.91297 10.897828,-5.91297 1.592893,0 6.571134,4.6371 6.473963,6.03033 -0.05058,0.72513 -9.855878,7.63702 -11.540053,8.13473 -0.616683,0.18225 -2.180125,-1.20112 -3.474323,-3.07416 z m 13.808384,-10.6193 c -4.509349,-3.97515 -13.041203,-5.98806 -21.231099,-5.00903 l -4.810433,0.57503 3.48402,-2.63833 c 6.163974,-4.66777 12.927548,-5.57185 24.190866,-3.23355 l 6.770766,1.40563 -0.677317,-2.38117 c -1.363065,-4.791997 4.697007,-21.378659 8.585636,-23.499244 1.726788,-0.941666 7.746357,8.022815 8.618397,12.834724 0.68427,3.775773 0.9216,4.011356 2.573051,2.554174 7.6575,-6.756651 21.2112,-11.829187 31.54925,-11.807442 11.21383,0.02357 15.98245,2.152546 7.84033,3.500318 -5.28516,0.874865 -15.69804,5.750316 -21.9761,10.289536 -2.75095,1.989012 -6.29197,3.616384 -7.86893,3.616384 -3.57312,0 -13.733021,2.99263 -13.733021,4.0451 0,0.42806 2.7269,0.15415 6.059791,-0.60869 11.23978,-2.57257 20.802,-1.41953 27.0384,3.26036 l 3.48402,2.61446 -4.88326,-0.639 c -8.22251,-1.07593 -17.50865,1.21606 -21.84382,5.39147 l -3.74843,3.6103 -4.484281,-2.68868 c -5.58575,-3.3491 -9.914979,-3.39957 -16.125754,-0.188 l -4.836009,2.50069 z M 71.361279,100.99487 C 67.959006,100.25894 62.909698,97.962234 59.16721,95.44832 51.744483,90.462322 46.703838,88.165495 39.424432,86.452287 l -5.226029,-1.22995 3.484019,-1.230104 c 5.445871,-1.922763 18.767822,-0.790643 26.246665,2.230486 9.58681,3.872672 14.980901,8.453444 14.980901,12.722098 0,1.914203 -0.391952,3.441153 -0.871005,3.393213 -0.479052,-0.048 -3.484019,-0.65236 -6.677704,-1.34316 z M 75.92113,90.039718 C 74.690686,88.837035 70.174912,86.29239 65.886073,84.384957 60.020691,81.776359 56.965716,79.582312 53.558856,75.531709 48.012506,68.937352 38.215953,60.693361 31.260108,56.766906 c -6.422082,-3.62516 -4.331542,-4.317194 5.944191,-1.967728 15.388705,3.518508 31.798821,13.693579 42.596473,26.411874 2.069402,2.4375 2.24815,3.35817 1.193704,6.148317 -1.784822,4.722799 -2.56309,5.133968 -5.073346,2.680349 z m 23.538799,-1.704427 c -0.35447,-1.549888 -0.96639,-3.551534 -1.3598,-4.448102 -0.89631,-2.042614 7.602021,-10.563515 16.672261,-16.716535 11.24811,-7.630431 29.73698,-14.602618 36.42713,-13.73675 2.21283,0.286399 1.59604,0.922626 -3.99466,4.12053 -9.17156,5.24617 -14.88843,10.004721 -21.35161,17.772443 -3.16826,3.807735 -6.70262,6.91203 -8.2631,7.257607 -1.49974,0.332132 -5.86923,2.395978 -9.70994,4.586337 -3.84073,2.190348 -7.16148,3.982449 -7.37945,3.982449 -0.21797,0 -0.686351,-1.26809 -1.040831,-2.817979 z M 82.37792,81.162255 C 82.344636,79.572075 69.905052,67.544635 65.150596,64.505696 61.901748,62.429102 59.397643,59.684299 57.866486,56.521414 54.499065,49.565393 49.187909,42.38964 41.875208,34.916028 c -7.431043,-7.594552 -6.475295,-7.682268 8.498755,-0.780001 6.221657,2.867862 12.499524,6.998019 19.359036,12.736157 11.005405,9.206265 16.644766,16.05692 19.069263,23.165194 1.417513,4.155955 1.361779,4.68969 -0.658138,6.30264 -1.21374,0.9692 -2.51666,2.62362 -2.895378,3.676478 -0.664541,1.847477 -2.837979,2.714902 -2.870826,1.145759 z m 11.114459,-6.529133 c -0.99421,-2.95402 -1.80765,-6.137168 -1.80765,-7.07368 0,-4.864538 17.434991,-22.29785 29.818471,-29.815605 6.06383,-3.681233 20.08932,-9.46634 21.0007,-8.662181 0.34711,0.306277 -1.77488,2.82647 -4.71553,5.60043 -6.37405,6.012724 -12.45473,14.191386 -16.39308,22.049047 -1.57956,3.1515 -3.39638,5.729992 -4.0374,5.729992 -0.641,0 -5.86625,3.947158 -11.61167,8.771465 L 95.300019,80.004045 Z M 85.007023,57.7723 c -4.289544,-5.703989 -4.935695,-7.292621 -4.935695,-12.134954 0,-10.840311 5.362452,-36.3922369 8.170904,-38.9341132 0.61362,-0.5553765 1.55738,0.2772522 2.322979,2.0494391 2.638688,6.1079781 8.158628,27.8208091 8.839638,34.7710161 0.698081,7.124362 0.658891,7.255588 -4.11301,13.770098 -2.6498,3.617451 -4.937363,6.68171 -5.083471,6.809452 C 90.06226,64.23099 87.721655,61.382064 85.007023,57.7723 Z M 71.6197,44.410199 C 67.922749,41.420762 66.537468,38.962432 62.623636,28.445633 60.079222,21.608578 58.131748,15.896106 58.295927,15.75125 c 0.604419,-0.533318 9.149302,6.9358 14.224194,12.433423 4.846549,5.250265 5.227228,6.091608 5.210744,11.516324 -0.02505,8.243136 -0.903612,8.920148 -6.111165,4.709202 z m 30.1383,-3.048049 -0.71468,-6.752906 6.19884,-6.855138 c 6.73114,-7.443798 15.79908,-14.39896 14.11823,-10.828767 -2.74117,5.822366 -7.53571,18.623478 -7.57031,20.212209 -0.031,1.422938 -9.61494,10.977508 -11.01126,10.977508 -0.16839,0 -0.62776,-3.038805 -1.02082,-6.752906 z"
       id="path1" /></g></svg>
