<?xml version="1.0" encoding="UTF-8" standalone="no"?>
<!-- Created with Inkscape (http://www.inkscape.org/) -->

<svg
   width="180mm"
   height="180mm"
   viewBox="0 0 180 180"
   version="1.1"
   id="svg1"
   sodipodi:docname="place_windmill.svg"
   inkscape:version="1.4.2 (f4327f4, 2025-05-13)"
   xml:space="preserve"
   xmlns:inkscape="http://www.inkscape.org/namespaces/inkscape"
   xmlns:sodipodi="http://sodipodi.sourceforge.net/DTD/sodipodi-0.dtd"
   xmlns="http://www.w3.org/2000/svg"
   xmlns:svg="http://www.w3.org/2000/svg"><sodipodi:namedview
     id="namedview1"
     pagecolor="#505050"
     bordercolor="#ffffff"
     borderopacity="1"
     inkscape:showpageshadow="0"
     inkscape:pageopacity="0"
     inkscape:pagecheckerboard="1"
     inkscape:deskcolor="#505050"
     inkscape:document-units="mm"
     inkscape:zoom="1"
     inkscape:cx="73"
     inkscape:cy="204"
     inkscape:window-width="2560"
     inkscape:window-height="1351"
     inkscape:window-x="-9"
     inkscape:window-y="-9"
     inkscape:window-maximized="1"
     inkscape:current-layer="layer1"
     showguides="true" /><defs
     id="defs1"><rect
       x="101.82338"
       y="91.923881"
       width="384.66609"
       height="299.81327"
       id="rect3" /><rect
       x="2.8284271"
       y="2.1213203"
       width="662.55905"
       height="647.0027"
       id="rect2" /></defs><g
     inkscape:label="Icon"
     inkscape:groupmode="layer"
     id="layer1"><path
       style="fill:#000000;stroke-width:4.35642"
       d="m 51.17912,169.95997 c 0.02328,-1.33479 1.850733,-14.12893 4.059985,-28.43149 l 4.016828,-26.00463 14.005969,-15.35305 c 7.703306,-8.444215 15.16071,-15.731409 16.571968,-16.193816 1.916235,-0.627796 3.752725,-0.02038 7.252425,2.395853 4.627105,3.1956 4.657555,3.265595 2.40506,5.526106 -5.75811,5.77861 -6.22087,4.699863 8.733145,20.358907 l 13.96589,14.62433 3.27315,20.89339 c 1.80028,11.49134 3.27322,21.72986 3.27322,22.75227 0,1.65628 -1.61172,1.85897 -14.7811,1.85897 H 99.174545 v -10.24668 c 0,-8.80858 -0.3459,-10.54944 -2.46353,-12.40388 -2.97368,-2.60393 -9.430156,-2.8365 -13.275291,-0.47815 -2.516838,1.54369 -2.737554,2.54388 -2.737554,12.40389 v 10.72482 H 65.917067 c -14.520165,0 -14.780359,-0.0428 -14.737947,-2.42684 z m 45.531895,-48.72954 c 0,-6.74562 -2.01018,-9.24514 -7.435196,-9.24514 -4.519898,0 -6.114163,2.51269 -6.114163,9.63649 v 5.4639 h 6.774681 6.774678 z m 24.358975,-1.56647 c -10.65268,-11.1653 -19.67944,-21.010185 -20.05951,-21.877521 -0.37988,-0.867295 0.40595,-2.446281 1.74683,-3.508845 2.38048,-1.886443 2.90817,-1.567246 22.4014,13.550506 10.97992,8.51535 21.86272,16.88366 24.18403,18.59619 l 4.2205,3.11371 -5.90021,5.24543 c -3.24512,2.885 -6.19819,5.23096 -6.56238,5.21327 -0.36405,-0.0163 -9.37801,-9.1674 -20.03066,-20.33274 z M 30.970209,134.33129 C 28.635865,132.83661 28.965984,132.47184 68.755178,92.584993 82.680514,78.625478 83.261563,77.849906 82.502629,74.234336 82.066877,72.158046 81.62107,70.429816 81.512132,70.39386 81.008876,70.227535 38.530266,39.654726 31.385849,34.316714 26.959246,31.009293 22.020961,27.49576 20.411846,26.508858 c -2.49114,-1.527907 -2.684668,-2.048692 -1.303112,-3.506359 0.892406,-0.941611 2.325778,-1.569814 3.18527,-1.396069 1.632951,0.330204 27.986425,20.196945 49.226195,37.109666 17.672753,14.072395 15.616713,14.781641 42.561111,-14.682499 32.6882,-35.7450679 31.03487,-34.2521791 34.21627,-30.895472 1.09348,1.153716 -3.07907,5.992264 -19.76566,22.92019 -11.63345,11.801775 -23.76462,24.127718 -26.95817,27.390949 -5.272975,5.388031 -5.734845,6.296704 -5.026655,9.889526 0.5196,2.636333 2.01275,4.773364 4.475075,6.405101 11.2369,7.446262 58.50854,42.249269 58.50854,43.075999 0,0.4212 -0.83142,1.37007 -1.84761,2.10858 -2.22145,1.61441 1.62312,4.24059 -34.34361,-23.45952 C 97.432615,81.516597 94.587235,79.627341 90.444015,79.627341 c -3.338853,0 -5.01943,0.640311 -6.369608,2.426836 -1.008793,1.334799 -6.19973,7.089887 -11.535452,12.789126 C 67.203232,100.5425 56.507533,112.07004 48.770708,120.46 c -7.736826,8.38995 -14.420957,15.25448 -14.853636,15.25448 -0.432493,0 -1.758742,-0.62245 -2.946863,-1.38319 z M 19.366694,124.618 c -2.850915,-2.54367 -5.183489,-4.92502 -5.183489,-5.29187 0,-0.36689 10.796677,-8.73915 23.99264,-18.60512 l 23.992687,-17.938142 3.106034,1.782082 c 1.708277,0.980135 3.105987,2.016201 3.105987,2.302378 0,0.942345 -41.943883,42.375562 -42.897881,42.375562 -0.512846,0 -3.265064,-2.08122 -6.115978,-4.62489 z M 109.42435,80.744287 c -9.777595,-6.9437 -10.490305,-8.845879 -5.13698,-13.710028 l 4.12535,-3.748426 4.31115,4.244181 c 2.37117,2.334297 5.59377,6.253818 7.16145,8.710046 2.77637,4.350172 2.78648,4.465907 0.38967,4.465907 -1.70647,0 -2.57998,0.834071 -2.85031,2.721573 -0.38361,2.67983 -0.50638,2.638738 -8.00042,-2.683253 z m -41.904546,0.608798 c -2.447844,-1.803607 -4.54136,-2.493611 -6.32594,-2.084932 -1.575223,0.360778 -2.667349,0.110883 -2.667349,-0.610184 0,-1.498189 8.656047,-13.052392 9.77848,-13.052392 1.603435,0 9.928432,8.218206 9.879596,9.752839 -0.02793,0.864849 -1.615214,3.173994 -3.528098,5.131451 l -3.478052,3.558987 z m 13.941397,-20.467468 -4.528092,-3.369548 6.802985,-6.47159 6.803032,-6.47159 4.317709,4.22445 c 2.37471,2.323454 4.31771,4.562237 4.31771,4.975033 0,0.412836 -1.7086,2.637473 -3.7969,4.943642 -5.306626,5.860305 -8.324392,6.330784 -13.916444,2.169603 z m 32.479469,0.93089 -2.90445,-2.707224 3.71627,-3.49311 c 2.04393,-1.921175 11.33419,-11.137657 20.64499,-20.481002 9.31078,-9.343345 17.30254,-16.966165 17.75947,-16.939585 0.45671,0.02446 3.49239,2.137724 6.74535,4.691424 l 5.9145,4.643116 -22.54325,17.065307 c -12.39878,9.385905 -23.41742,17.70949 -24.48584,18.496803 -1.65502,1.219594 -2.37257,1.030725 -4.84704,-1.275729 z M 48.93742,36.252524 25.183139,17.758412 l 5.85895,-5.208743 c 3.222374,-2.8648256 6.199172,-5.0828585 6.614998,-4.9289264 0.415733,0.1536875 8.696456,8.5310844 18.401333,18.6160024 9.704877,10.084877 18.741974,19.410204 20.082422,20.722907 2.303245,2.25562 2.32466,2.537068 0.389197,5.123339 -1.126251,1.505119 -2.450637,2.720188 -2.943139,2.700131 -0.492502,-0.02038 -11.584847,-8.358848 -24.649713,-18.530598 z"
       id="path1" /></g></svg>
