<?xml version="1.0" encoding="UTF-8" standalone="no"?>
<!-- Created with Inkscape (http://www.inkscape.org/) -->

<svg
   width="180mm"
   height="180mm"
   viewBox="0 0 180 180"
   version="1.1"
   id="svg1"
   sodipodi:docname="place_butcher.svg"
   inkscape:version="1.4.2 (f4327f4, 2025-05-13)"
   xml:space="preserve"
   xmlns:inkscape="http://www.inkscape.org/namespaces/inkscape"
   xmlns:sodipodi="http://sodipodi.sourceforge.net/DTD/sodipodi-0.dtd"
   xmlns="http://www.w3.org/2000/svg"
   xmlns:svg="http://www.w3.org/2000/svg"><sodipodi:namedview
     id="namedview1"
     pagecolor="#505050"
     bordercolor="#ffffff"
     borderopacity="1"
     inkscape:showpageshadow="0"
     inkscape:pageopacity="0"
     inkscape:pagecheckerboard="1"
     inkscape:deskcolor="#505050"
     inkscape:document-units="mm"
     inkscape:zoom="0.70710678"
     inkscape:cx="98.994949"
     inkscape:cy="350.72496"
     inkscape:window-width="2560"
     inkscape:window-height="1351"
     inkscape:window-x="-9"
     inkscape:window-y="-9"
     inkscape:window-maximized="1"
     inkscape:current-layer="layer1"
     showguides="true" /><defs
     id="defs1"><rect
       x="101.82338"
       y="91.923881"
       width="384.66609"
       height="299.81327"
       id="rect3" /><rect
       x="2.8284271"
       y="2.1213203"
       width="662.55905"
       height="647.0027"
       id="rect2" /></defs><g
     inkscape:label="Icon"
     inkscape:groupmode="layer"
     id="layer1"><path
       id="path1"
       style="fill:#000000;stroke-width:1.03676"
       d="m 161.25651,8.0827799 c -4.86917,0.022582 -6.83172,1.4655601 -32.29182,23.7427661 -6.52323,5.707715 -33.05207,29.045313 -33.555406,29.518841 -0.629282,0.59201 4.283248,7.311932 8.239646,11.271355 2.15771,2.159374 4.06381,3.926342 4.23543,3.926342 0.67772,0 1.56769,-1.519112 2.29595,-3.918869 1.52128,-5.012884 4.39093,-7.830681 12.6638,-12.435111 12.5415,-6.980239 17.8516,-11.330559 27.14016,-22.234153 5.23583,-6.146223 9.11668,-8.228514 15.5367,-8.335272 3.25176,-0.0541 3.34515,-0.08192 4.21338,-1.264651 1.26701,-1.725953 2.16639,-5.713355 1.93355,-8.572294 -0.56884,-6.985356 -4.78694,-11.7250381 -10.41139,-11.6989541 z m 1.73353,2.5244971 c 0.56905,0 0.54784,0.113449 -0.16723,0.904313 -0.44962,0.497276 -1.53496,1.303759 -2.41209,1.792078 l -1.5948,0.887765 1.76202,-1.792078 c 0.96895,-0.985596 2.05429,-1.792078 2.4121,-1.792078 z m -10.33772,4.647018 c 0.11149,-0.01069 -0.53073,0.646894 -1.7217,1.83959 -12.35007,12.368003 -28.65546,26.570041 -45.62183,39.735874 -7.429508,5.765254 -6.627606,4.980113 9.7796,-9.567892 14.97811,-13.28085 23.91905,-20.981617 32.4983,-27.990477 3.39414,-2.772852 4.91526,-4.002679 5.06563,-4.017095 z m 6.02379,1.205396 c 2.63694,0 3.95588,3.678405 2.03463,5.674646 -1.29191,1.342329 -2.96403,1.272533 -4.36446,-0.182571 -1.22321,-1.270945 -1.3627,-2.266819 -0.54792,-3.903922 0.61576,-1.23721 1.25208,-1.588153 2.87775,-1.588153 z m 9.55162,1.102365 c 0.12582,0.0026 0.16345,0.14473 0.16345,0.398773 0,0.541206 -0.74811,1.445314 -2.15938,2.610444 -2.99161,2.469829 -3.91985,2.986 -2.70945,1.506478 0.5092,-0.622416 1.81288,-1.989417 2.89711,-3.038044 1.07821,-1.042804 1.58398,-1.482303 1.80827,-1.477651 z m 0.0253,5.316979 c 0.0993,0.0017 0.13818,0.104415 0.13818,0.300548 0,0.342955 -0.52008,1.078 -1.1555,1.63353 -0.6354,0.555527 -1.51783,1.010012 -1.96097,1.010012 -0.77443,0 -0.76985,-0.02481 0.12259,-0.644871 0.51061,-0.35478 1.39303,-1.090375 1.96097,-1.634063 0.47472,-0.454458 0.74962,-0.667612 0.89473,-0.665156 z m -19.03495,0.213 c 0.84446,0 -0.58923,1.644962 -2.74225,3.146412 -2.6453,1.844759 -3.40911,1.975551 -1.90504,0.326172 1.27198,-1.394868 4.05256,-3.472584 4.64729,-3.472584 z m 5.04143,0.561592 c 0.12019,0.0063 -0.0212,0.267213 -0.30487,0.716938 -0.76113,1.206964 -6.27706,6.233714 -10.0221,9.132818 -2.87253,2.223664 -4.07896,3.018417 -4.07896,2.687317 0,-0.365501 8.4468,-8.0983 11.07707,-10.140696 2.20224,-1.710011 3.12856,-2.406909 3.32886,-2.396377 z m -1.5163,6.476464 c 0.2421,0.0086 -0.38619,0.805995 -1.39639,1.771793 -1.01021,0.965814 -2.18876,1.951543 -2.61912,2.190851 -0.75529,0.419987 -0.76183,0.402615 -0.1898,-0.503405 0.70489,-1.116454 3.57958,-3.481212 4.20531,-3.459239 z m -19.26078,7.007095 c 1.38646,0 3.36759,1.830014 3.36759,3.110647 0,1.130567 -0.96435,2.98391 -1.70664,3.279871 -1.17647,0.469075 -2.70861,0.233659 -3.68752,-0.566397 -2.14494,-1.753071 -0.72834,-5.824121 2.02657,-5.824121 z m 12.56702,0.200721 -0.76945,0.972645 c -4.1175,5.204459 -8.24848,9.085459 -13.34559,12.539208 -8.00117,5.421502 -7.86033,4.877472 0.42425,-1.641537 3.28723,-2.586674 7.29083,-5.965497 8.89724,-7.508898 1.60644,-1.543401 3.34248,-3.155998 3.85742,-3.583623 z m -23.83227,10.961732 c 0.39675,0.01449 -2.36249,2.874135 -4.19241,4.278673 -1.62262,1.245406 -2.20239,1.556487 -2.20239,1.181372 0,-0.259863 5.39565,-4.950134 6.19533,-5.385309 0.0965,-0.05251 0.16218,-0.0761 0.19947,-0.07474 z m 6.0636,0.713735 c 0.0995,-0.0028 0.0263,0.09721 -0.22583,0.302149 -0.6034,0.490456 -2.71986,2.222146 -4.70323,3.848403 -1.98337,1.626259 -4.23514,3.720809 -5.00433,4.654492 -1.6613,2.01662 -1.8216,1.622758 -0.33229,-0.817298 1.52238,-2.494249 4.65518,-5.194511 8.13318,-7.009764 1.2307,-0.642282 1.95526,-0.973061 2.1325,-0.977982 z m -17.98268,7.103719 c 0.45631,-0.03207 0.94063,0.03161 1.43403,0.21033 2.21745,0.803183 2.69457,4.24166 0.80278,5.78782 -1.85177,1.513452 -4.193,0.692779 -4.96616,-1.741365 -0.69226,-2.179452 0.75202,-4.117852 2.72935,-4.256785 z m -5.95014,6.094239 c 0.0366,-0.0026 0.0644,0.0044 0.0812,0.02189 0.11671,0.121268 -0.27155,0.686289 -0.86246,1.255576 -1.33462,1.285809 -2.38845,1.901512 -2.38845,1.39544 0,-0.467614 2.62051,-2.634182 3.16972,-2.672903 z m -11.162553,0.430804 c -0.223194,-0.0071 -1.41691,0.853549 -2.803005,2.030701 -14.588577,12.389466 -28.292168,21.014696 -44.968516,28.304371 -4.744363,2.073889 -6.472649,2.967151 -7.479877,3.864957 -2.306422,2.055813 -3.116912,4.698445 -2.351341,7.665305 0.453504,1.75746 2.893744,6.84615 3.519752,7.33968 0.202846,0.15992 1.025016,0.37377 1.827088,0.47512 2.492703,0.31477 6.711221,1.51682 8.773572,2.49993 2.506791,1.19497 4.706327,3.18209 5.717312,5.1659 0.788597,1.54745 0.856002,2.03966 1.327569,9.64691 0.01164,0.1879 0.09642,0.34165 0.188193,0.34165 0.780086,0 13.143531,-7.35926 20.251211,-12.05449 10.762365,-7.10947 19.305057,-13.68433 29.432895,-22.65268 7.19657,-6.372657 7.45593,-6.456778 2.11637,-0.684372 C 96.314031,108.01472 77.019367,121.8393 60.360177,129.24691 l -3.571371,1.58816 -0.273687,1.48405 c -0.147093,0.79704 -0.2223,1.4527 -0.170987,1.48299 l 5.38e-4,5.3e-4 h 5.37e-4 c 2.17e-4,6e-5 0.0014,5e-4 0.0017,5.4e-4 h 5.36e-4 5.38e-4 c 0.05877,0 0.435814,-0.23071 0.83773,-0.51249 3.026169,-2.12171 11.430066,-5.33486 17.581554,-6.72202 2.989596,-0.67414 3.122793,-0.74017 8.162212,-4.05179 7.53569,-4.95202 16.076487,-11.42583 22.738043,-17.23535 4.54688,-3.9653 11.00061,-10.006761 11.31741,-10.594452 0.1986,-0.368399 -0.50703,-1.431491 -3.3665,-5.069282 -1.98996,-2.531597 -4.32464,-5.463677 -5.18768,-6.515969 -1.95968,-2.389378 -2.81366,-4.031767 -2.85518,-5.490475 -0.0307,-1.079688 -0.14993,-1.231535 -2.50995,-3.19766 -3.165534,-2.63719 -5.881312,-5.637214 -8.035852,-8.876579 -0.937192,-1.409072 -1.751163,-2.70261 -1.808807,-2.874158 -0.0045,-0.0134 -0.01658,-0.02022 -0.03549,-0.02081 z m -0.856548,4.198597 1.238849,1.322306 c 4.024189,4.294854 6.349145,6.875771 6.193173,6.875771 -0.269865,0 -3.286382,-2.34721 -5.325332,-4.144146 -0.995689,-0.877506 -1.982484,-1.595628 -2.193259,-1.595628 -0.210785,0 -1.330653,0.776993 -2.488453,1.726951 -3.288584,2.698231 -6.215128,4.834879 -10.093075,7.368499 -3.102885,2.027248 -10.811235,6.272772 -8.947246,4.927814 0.376194,-0.271444 2.508464,-1.789801 4.738169,-3.373826 4.929053,-3.501689 9.771274,-7.205377 13.834357,-10.580573 z m 16.782001,0.728149 c 0.2643,0 -0.17948,0.702063 -0.98612,1.560395 -1.59833,1.700737 -1.68945,1.762241 -1.68945,1.140268 0,-0.588147 2.09293,-2.700663 2.67557,-2.700663 z M 43.836795,99.766498 c 0.360005,0.01434 0.724129,0.09104 1.078617,0.238092 1.091779,0.4529 2.123427,1.83816 2.125508,2.85334 0.0019,1.10423 -0.755895,2.47035 -1.615236,2.91153 -2.537299,1.30268 -5.343263,-0.59038 -4.899477,-3.3055 0.269524,-1.64892 1.750568,-2.759578 3.310588,-2.697462 z m 78.646515,8.210362 c -2.40019,-0.0236 -4.75923,0.18339 -6.40771,0.62832 -4.77847,1.28974 -7.72734,2.87254 -10.53721,5.65543 -2.13396,2.11347 -3.20268,3.86593 -3.84022,6.29603 -1.58321,6.03471 1.55563,11.60701 8.49075,15.07438 1.041,0.52048 3.47846,1.54094 5.41674,2.2672 7.99883,2.99705 10.6443,5.13797 14.029,11.35302 2.47741,4.54907 5.29476,6.86795 9.0822,7.4758 5.75804,0.92412 10.76025,-2.37309 13.00846,-8.57443 2.22955,-6.14987 1.57736,-13.63715 -1.8529,-21.27218 -4.24143,-9.44052 -11.35881,-15.6697 -20.73459,-18.14659 -1.81318,-0.47901 -4.25433,-0.73336 -6.65452,-0.75698 z m -100.206475,2.9633 c -0.750542,-0.008 -1.448967,0.0485 -2.122821,0.16496 -3.306928,0.57174 -5.743734,2.27739 -7.169088,5.0175 -1.03888,1.99716 -1.166231,5.53886 -0.381764,10.62168 1.06457,6.8977 0.746868,9.2127 -2.063137,15.01993 -2.7013962,5.58279 -2.8898338,7.6629 -0.9667751,10.67346 0.8969661,1.40421 2.6757431,2.59208 4.6887011,3.13093 2.72176,0.7286 5.896724,0.26318 8.843472,-1.29614 2.090351,-1.10614 5.263378,-4.33402 7.844971,-7.98081 3.939482,-5.56495 6.472051,-7.78718 12.522381,-10.98843 7.159112,-3.78792 10.051964,-6.9802 10.028552,-11.06635 -0.01217,-2.12489 -0.655712,-3.52229 -2.301872,-4.99882 -2.255677,-2.02323 -5.43894,-3.15393 -12.141156,-4.31284 -1.980734,-0.34249 -5.310715,-1.21239 -7.846047,-2.04938 -3.959956,-1.3073 -6.683792,-1.91175 -8.935417,-1.93569 z m 106.999715,1.15522 c 0.48455,-0.0177 1.18507,0.25081 2.31747,0.87922 l 1.82494,1.01268 -2.52825,0.0389 c -2.84398,0.0437 -5.27462,0.5741 -7.3019,1.59403 -1.72509,0.86793 -2.07249,0.87131 -1.50661,0.0138 0.81396,-1.23335 3.97277,-2.81908 6.99917,-3.51369 0.0611,-0.014 0.12597,-0.0225 0.19518,-0.0251 z M 22.855932,116.5625 c 0.869271,-0.0257 3.346638,0.43302 5.044118,0.98332 1.76049,0.57073 2.483128,0.98329 3.661166,2.08942 1.354194,1.27153 1.546478,1.36567 2.486303,1.21394 3.930491,-0.63455 6.160333,-0.48237 10.173191,0.69505 1.508439,0.44259 1.927663,0.66794 1.715785,0.9214 -0.409303,0.48965 -2.992442,0.92023 -6.602896,1.10076 -4.104318,0.20521 -4.222401,0.2351 -5.517828,1.39705 -1.130351,1.01386 -2.165733,2.74928 -6.577624,11.02631 -1.402255,2.63074 -3.186111,5.79787 -3.963888,7.03806 -1.213331,1.9347 -1.835153,2.65369 -1.835153,2.12093 0,-0.0739 0.568488,-1.51903 1.263045,-3.21155 0.694547,-1.69251 2.31906,-5.96793 3.610085,-9.50063 2.654543,-7.26377 3.037674,-9.28023 2.056147,-10.82347 -0.29644,-0.46607 -1.729257,-1.73544 -3.183694,-2.82077 -1.454447,-1.08533 -2.644384,-2.04394 -2.644384,-2.13 0,-0.0624 0.115026,-0.0939 0.315627,-0.0998 z m 103.227248,2.90032 c 1.70136,0.0656 3.43593,0.63621 4.67472,1.73655 2.47795,2.20101 1.49559,5.64473 -1.87547,6.57416 -5.12628,1.41336 -10.31341,-2.51309 -8.0735,-6.11132 0.95441,-1.53317 3.08679,-2.28377 5.27425,-2.19939 z m -0.11507,2.23462 c -1.66352,-0.007 -3.21864,0.69143 -3.21864,1.8508 0,0.70868 0.92382,1.60285 2.06476,1.99867 1.25756,0.43629 2.64884,0.3806 3.71654,-0.14894 0.81722,-0.40532 0.96355,-0.6187 0.96355,-1.40504 0,-0.68396 -0.19097,-1.06821 -0.7275,-1.46592 -0.76359,-0.56599 -1.80058,-0.8251 -2.79871,-0.82957 z m 13.70425,1.45577 c 0.87523,0.0178 2.00086,0.12336 2.8987,0.30748 1.518,0.31128 1.56424,0.34878 2.41856,1.96611 0.47898,0.90675 0.84315,1.66883 0.80923,1.69331 -0.0339,0.0245 -0.61069,-0.30516 -1.28133,-0.73241 -0.67064,-0.42727 -2.31697,-1.22829 -3.65848,-1.78034 -1.34151,-0.55206 -2.50324,-1.10719 -2.58201,-1.23368 -0.10456,-0.16801 0.52009,-0.23827 1.39533,-0.22047 z m -55.55306,5.29828 c -2.591667,-0.0244 -5.293859,0.1458 -7.163712,0.51943 -13.397097,2.67707 -25.415013,9.65082 -29.028546,16.84457 -0.942738,1.87687 -1.022522,2.21817 -1.017319,4.37316 0.0044,1.86079 0.138612,2.63133 0.657063,3.78008 1.213123,2.68792 4.266027,4.75473 8.648826,5.85508 2.044798,0.51337 2.653054,0.54407 6.65559,0.33739 2.422917,-0.12506 6.759146,-0.22188 9.636034,-0.21568 l 5.230699,0.0113 5.505997,1.44082 c 3.028292,0.79238 6.373188,1.60007 7.433097,1.79475 2.599989,0.47755 6.478069,0.47849 8.739697,0.003 4.240534,-0.89217 7.985014,-3.58888 9.636574,-6.94037 0.81864,-1.6612 0.89469,-2.03603 0.89365,-4.41212 -0.001,-2.31508 -0.0854,-2.75483 -0.77428,-4.05554 -0.96729,-1.82649 -2.66622,-3.5273 -5.06992,-5.07569 -2.92046,-1.88125 -3.15985,-2.22926 -3.37351,-4.90005 -0.1341,-1.6762 -0.35131,-2.55604 -0.813533,-3.29855 -1.274461,-2.04732 -4.925874,-4.17385 -9.296749,-5.41361 -1.426707,-0.40468 -3.907991,-0.62314 -6.499658,-0.64754 z m 33.69628,0.19913 c 0.66695,-0.003 0.35823,0.6302 -1.22056,1.86201 -0.97209,0.75845 -1.97263,1.80872 -2.22391,2.33445 -0.25128,0.52573 -0.48216,0.95389 -0.51296,0.95182 -0.0308,-0.002 -0.85797,-0.4552 -1.83838,-1.0068 -1.68019,-0.94529 -1.74148,-1.01383 -1.06625,-1.19312 0.39401,-0.10461 1.75352,-0.74634 3.0213,-1.42587 1.90425,-1.02067 3.25228,-1.51951 3.84076,-1.52249 z m -64.024435,1.59936 c -0.115569,0 -0.703738,0.55686 -1.307137,1.23743 -1.437372,1.62121 -3.674615,3.17388 -8.057361,5.59244 -6.101243,3.36689 -8.40453,5.4261 -12.031466,10.7562 -2.196628,3.22814 -6.414419,7.4167 -8.641835,8.5819 -4.29034,2.24432 -8.860972,2.26438 -13.149335,0.0582 -1.1897634,-0.61208 -2.2133724,-1.06318 -2.27445,-1.00254 -0.1824523,0.18114 0.6887756,2.41592 1.4334955,3.67758 0.7955585,1.34775 2.2725905,2.41086 4.3295205,3.11652 3.718885,1.27583 8.851081,0.0462 12.679926,-3.03805 1.800519,-1.45035 3.684697,-3.58842 7.155109,-8.11907 2.913785,-3.80398 5.241142,-5.90336 8.848849,-7.98187 6.837138,-3.93912 8.565986,-5.34259 9.90757,-8.0422 0.90478,-1.82065 1.595214,-4.83653 1.107114,-4.83653 z m 47.890355,1.92447 c -0.28004,0.0214 -0.12415,0.72965 0.31348,2.19406 0.99672,3.33522 2.88783,5.8725 5.8141,7.8009 0.83093,0.54758 3.13877,1.6618 5.12854,2.47646 8.5947,3.5189 11.11913,5.45937 14.48657,11.13575 2.82884,4.76849 5.19298,6.95189 8.81175,8.13669 2.35948,0.7725 6.7766,0.58267 8.87305,-0.38116 1.8354,-0.84382 4.10277,-2.85127 5.06885,-4.48793 0.7691,-1.30294 1.5974,-3.56089 1.87494,-5.11145 l 0.18712,-1.04738 -1.8002,1.89457 c -4.44407,4.6771 -10.52321,5.74796 -16.26528,2.86508 -2.19805,-1.10355 -4.43203,-3.62012 -6.6072,-7.4427 -2.1233,-3.73142 -3.97896,-5.80826 -6.56096,-7.34341 -0.84683,-0.50349 -3.75683,-1.80115 -6.46632,-2.88377 -5.98382,-2.39092 -8.37998,-3.76531 -10.99264,-6.30511 -1.03222,-1.00343 -1.61871,-1.51947 -1.8658,-1.5006 z m -26.735816,0.80876 c 0.0021,0 0.0038,5.2e-4 0.0054,10e-4 h 5.38e-4 c 2.16e-4,1.2e-4 0.0015,3.9e-4 0.0016,5.3e-4 l 5.38e-4,5.3e-4 5.38e-4,5.4e-4 v 5.3e-4 l 5.38e-4,5.3e-4 c 1.15e-4,2.2e-4 4.39e-4,10e-4 5.37e-4,0.002 0.01963,0.0579 -0.439875,0.53931 -1.073239,1.11891 -1.234297,1.12957 -1.783101,2.32807 -1.786223,3.90073 -0.0029,1.50324 -0.6686,2.98369 -1.983558,4.41213 -1.521289,1.65258 -1.679479,2.46367 -0.56458,2.89604 1.521081,0.58988 5.160963,1.08468 6.713124,0.91232 1.123733,-0.12479 1.772481,-0.0591 2.352416,0.23863 0.440372,0.22609 2.518701,0.92118 4.618802,1.54491 7.079607,2.10265 10.008542,4.17013 12.487968,8.81466 0.502595,0.94147 1.09158,1.98442 1.308213,2.31736 0.216622,0.33295 0.393592,0.67116 0.393592,0.75164 0,9.5e-4 -2.87e-4,0.002 -5.38e-4,0.003 -0.02805,0.0787 -0.934491,0.14307 -2.038401,0.14307 -1.882022,0 -2.028513,-0.0404 -1.899678,-0.52956 0.247057,-0.93793 -0.738037,-3.23389 -1.972803,-4.59738 -1.575166,-1.73938 -3.084057,-2.51499 -8.060587,-4.14361 -2.282376,-0.74692 -5.024311,-1.79552 -6.093699,-2.33018 l -1.944306,-0.97212 -3.792364,0.003 c -4.192761,0.003 -5.802533,0.31053 -8.460094,1.61218 -2.696329,1.32063 -6.841817,5.06024 -7.377177,6.65477 -0.08401,0.25021 -1.37026,-0.32388 -2.366396,-1.05592 l -5.37e-4,-5.4e-4 -5.38e-4,-5.3e-4 -5.38e-4,-5.3e-4 c -1.22e-4,-2.6e-4 -4.37e-4,-0.001 -5.38e-4,-0.002 -0.01986,-0.0761 0.611311,-0.94415 1.429194,-1.96184 2.417017,-3.00753 4.349742,-4.31275 8.571398,-5.78995 2.730728,-0.95552 2.752897,-0.97076 2.916995,-1.97305 0.09095,-0.55555 0.805594,-1.95096 1.587814,-3.10051 1.604207,-2.35753 1.792483,-3.41053 0.82805,-4.6278 -0.326666,-0.4123 -1.087281,-0.95798 -1.690513,-1.21233 l -1.096898,-0.4623 4.410713,-1.28494 c 2.425726,-0.70656 4.48462,-1.2844 4.575248,-1.2844 z m 22.711165,5.48033 0.708145,2.11238 c 0.3897,1.16175 0.708682,2.20408 0.708682,2.31631 0,0.32077 -0.277096,0.2268 -2.477699,-0.8424 -2.026204,-0.98412 -2.123858,-1.00301 -5.230698,-0.98225 -2.724693,0.0182 -3.568837,0.14186 -6.056598,0.88669 -1.589858,0.476 -3.324249,0.86144 -3.854198,0.85627 l -0.96355,-0.009 0.8259,-0.36675 c 0.454252,-0.20162 1.69309,-0.87602 2.752998,-1.49901 3.539887,-2.0807 5.920599,-2.52785 10.097378,-1.89671 1.849849,0.27953 2.200101,0.2634 2.801928,-0.12811 z m -50.97941,19.01141 0.176363,1.48084 c 0.313473,2.62769 1.009451,4.09171 2.800855,5.89246 1.937428,1.94753 4.203948,3.11579 7.391156,3.80944 2.387706,0.51965 5.629611,0.47484 12.227725,-0.16976 4.773633,-0.46636 7.589296,-0.15002 14.763495,1.66021 3.010197,0.75956 6.478969,1.49139 7.708396,1.62606 2.977235,0.32615 6.780849,0.0794 8.980041,-0.58241 3.65044,-1.09855 6.67378,-3.33258 7.95629,-5.87965 0.66168,-1.31409 1.40392,-3.95286 1.40392,-4.9908 0,-0.64954 -0.12377,-0.58161 -1.74214,0.95556 -3.33043,3.16333 -7.62954,4.77834 -12.719178,4.77834 -3.481171,0 -6.402662,-0.48655 -12.24278,-2.03924 -2.498343,-0.66423 -5.277522,-1.33804 -6.175966,-1.4974 -2.382514,-0.42259 -7.779545,-0.35472 -12.162125,0.15321 -3.208705,0.37187 -4.244228,0.39025 -6.4389,0.11424 -4.42447,-0.55641 -7.748259,-1.87637 -10.574849,-4.19967 z" /></g></svg>
