<?xml version="1.0" encoding="UTF-8" standalone="no"?>
<!-- Created with Inkscape (http://www.inkscape.org/) -->

<svg
   width="180mm"
   height="180mm"
   viewBox="0 0 180 180"
   version="1.1"
   id="svg1"
   sodipodi:docname="place_farmland.svg"
   inkscape:version="1.4.2 (f4327f4, 2025-05-13)"
   xml:space="preserve"
   xmlns:inkscape="http://www.inkscape.org/namespaces/inkscape"
   xmlns:sodipodi="http://sodipodi.sourceforge.net/DTD/sodipodi-0.dtd"
   xmlns="http://www.w3.org/2000/svg"
   xmlns:svg="http://www.w3.org/2000/svg"><sodipodi:namedview
     id="namedview1"
     pagecolor="#505050"
     bordercolor="#ffffff"
     borderopacity="1"
     inkscape:showpageshadow="0"
     inkscape:pageopacity="0"
     inkscape:pagecheckerboard="1"
     inkscape:deskcolor="#505050"
     inkscape:document-units="mm"
     inkscape:zoom="1"
     inkscape:cx="73"
     inkscape:cy="204"
     inkscape:window-width="2560"
     inkscape:window-height="1351"
     inkscape:window-x="-9"
     inkscape:window-y="-9"
     inkscape:window-maximized="1"
     inkscape:current-layer="layer1"
     showguides="true" /><defs
     id="defs1"><rect
       x="101.82338"
       y="91.923881"
       width="384.66609"
       height="299.81327"
       id="rect3" /><rect
       x="2.8284271"
       y="2.1213203"
       width="662.55905"
       height="647.0027"
       id="rect2" /></defs><g
     inkscape:label="Icon"
     inkscape:groupmode="layer"
     id="layer1"><path
       style="fill:#000000;stroke-width:4.42477"
       d="m 29.544796,172.29367 c 0.01693,-0.50478 2.257193,-4.14014 4.979447,-8.07859 31.117093,-45.01849 74.547597,-79.995435 120.857057,-97.332733 16.57074,-6.203731 18.61856,-6.711131 18.61856,-4.613184 0,0.976921 -4.35217,3.619489 -10.36033,6.290658 -40.8431,18.158324 -77.642568,51.433739 -106.600172,96.391659 l -5.320263,8.25997 H 40.617023 c -6.106115,0 -11.088651,-0.41302 -11.072227,-0.91778 z m 46.391253,-1.2237 c 1.283384,-3.71795 12.124986,-22.08998 18.802629,-31.86266 18.637322,-27.27554 42.365512,-49.712282 69.460862,-65.680348 9.48147,-5.587714 9.79778,-5.682429 9.72205,-2.911267 -0.0593,2.166836 -2.69402,4.950277 -10.81996,11.430237 -24.6222,19.634708 -47.3157,49.824808 -63.04879,83.876428 l -3.367857,7.28909 H 85.940914 c -9.767339,0 -10.676846,-0.19467 -10.004865,-2.14148 z m 42.061941,1.60579 c 0,-1.6347 7.20396,-20.14897 11.32123,-29.09575 9.62811,-20.92161 21.6871,-39.17775 36.18009,-54.773113 l 8.50055,-9.14711 v 5.286876 c 0,4.434289 -1.09865,7.081418 -6.81281,16.414817 -11.09304,18.11919 -17.72505,34.07591 -24.01362,57.77743 l -3.57143,13.46069 -10.80203,0.35025 c -5.9411,0.19263 -10.80198,0.0693 -10.80198,-0.27408 z M 5.9941507,158.5631 V 145.13845 L 16.354522,135.22907 C 39.834217,112.77142 69.211163,91.672242 93.026978,80.161188 l 8.070162,-3.900592 0.33019,-7.411643 c 0.44266,-9.937531 3.13025,-11.302147 3.13025,-1.589377 0,3.757777 0.37802,6.831844 0.83999,6.831266 0.46202,-5.83e-4 5.62819,-1.865999 11.4804,-4.14537 11.97775,-4.665206 13.34064,-6.665057 8.4619,-12.4165 -2.87876,-3.393757 -3.76786,-6.687345 -1.80517,-6.687345 0.58109,0 1.84111,1.223854 2.8001,2.719677 1.69748,2.647776 1.74358,2.584982 1.74358,-2.375179 0,-2.802168 0.50401,-5.435181 1.12002,-5.85114 0.68413,-0.461945 1.14767,1.533988 1.19102,5.128497 0.055,4.572346 0.28743,5.298661 1.04154,3.256686 1.04285,-2.823772 3.15506,-4.742384 4.09293,-3.717733 0.72337,0.790343 -1.26663,4.926907 -3.59295,7.468525 -0.96928,1.058959 -1.60256,3.199826 -1.40737,4.75748 l 0.35474,2.832096 10.36037,-3.017036 10.36037,-3.017041 v -4.776484 c 0,-2.872717 0.4464,-4.475049 1.12003,-4.020198 0.61602,0.415972 1.12002,2.375784 1.12002,4.355164 0,4.209376 -0.68764,4.093455 10.45887,1.76312 10.53528,-2.20255 9.70553,-2.176359 9.68517,-0.305713 -0.008,0.932872 -5.04747,2.863699 -12.91197,4.9492 -53.10374,14.082019 -104.642453,49.735002 -144.089582,99.676992 -4.917346,6.22557 -9.401167,11.31921 -9.9640576,11.31921 -0.5628906,0 -1.0234644,-6.04109 -1.0234644,-13.42464 z m 6.4402443,-41.24667 c -6.2291339,-5.52402 -6.4402443,-5.9049 -6.4402443,-11.61906 0,-3.2493 0.2298635,-5.907816 0.5107374,-5.907816 0.7811551,0 11.1436849,6.787126 17.4757709,11.446066 l 5.649479,4.1567 -4.418926,3.82375 c -2.430374,2.10306 -4.850376,3.82102 -5.37775,3.81767 -0.527374,-0.003 -3.856967,-2.57613 -7.399067,-5.71731 z M 33.145273,104.1911 C 31.137798,102.63976 24.218523,98.674448 17.76905,95.379301 6.3144357,89.526926 6.0421977,89.292906 6.0184493,85.278442 c -0.021166,-3.875436 0.1511258,-4.06169 3.055831,-3.267739 9.3736927,2.562274 39.4813337,16.564724 39.4813337,18.361967 0,1.14258 -8.430829,6.75658 -10.060321,6.69906 -0.935074,-0.0328 -3.342545,-1.32929 -5.35002,-2.88063 z M 48.555614,89.248446 C 40.756762,85.383508 21.8624,78.424361 10.754316,75.325514 6.7601509,74.211249 5.9941507,73.509114 5.9941507,70.962167 c 0,-2.505941 0.439577,-2.933004 2.5200752,-2.448397 1.3860817,0.322825 5.5442001,1.196604 9.2403471,1.941682 16.740291,3.374577 50.961728,14.769479 50.961728,16.969009 0,0.943722 -9.637507,6.327173 -10.950354,6.116791 -0.445504,-0.07141 -4.59016,-2.003158 -9.210333,-4.292806 z M 63.676108,76.357384 C 51.533173,71.995272 25.052001,65.577926 11.314328,63.668221 6.9674091,63.063946 5.9941507,62.481136 5.9941507,60.4824 c 0,-2.334085 0.487878,-2.407123 10.6403553,-1.59291 l 10.640398,0.853336 v -5.746518 c 0,-3.519404 0.434074,-5.453408 1.120024,-4.990228 0.616018,0.415972 1.120024,3.090846 1.120024,5.944195 v 5.18791 l 14.280496,2.850707 c 7.854265,1.567885 14.910527,3.114392 15.680548,3.436681 0.995018,0.416481 1.400052,-1.044815 1.400052,-5.051588 0,-3.100661 0.504006,-5.637567 1.120024,-5.637567 0.616017,0 1.120024,2.495272 1.120024,5.545048 0,3.362709 0.551037,5.73509 1.400051,6.027922 0.770022,0.265567 6.566225,2.191649 12.880446,4.280156 6.314221,2.088512 11.47849,4.194256 11.476204,4.679442 -0.0042,0.998362 -8.946689,5.231575 -10.647933,5.040853 -0.609541,-0.06836 -7.156504,-2.296937 -14.548756,-4.952455 z M 95.602593,54.706865 c -4.234612,-4.626532 -4.77367,-10.591881 -0.845416,-9.355452 3.56441,1.121905 7.744113,6.540409 7.340733,9.516463 -0.53004,3.910914 -2.820294,3.854143 -6.495317,-0.160997 z m 8.425367,2.307118 c -1.35916,-2.402707 2.47525,-9.413302 6.02789,-11.021054 4.48424,-2.029344 5.1246,-1.267237 3.48787,4.151063 -1.81795,6.018324 -7.62567,10.211249 -9.51576,6.869991 z M 55.35712,50.064752 c -1.276737,-1.77335 -2.321368,-3.976007 -2.321368,-4.894791 0,-4.215157 7.025994,0.284483 8.378464,5.365741 1.064485,3.999488 -3.06997,3.678027 -6.057096,-0.47095 z m 7.758976,0.354691 c 0,-3.250034 3.165302,-6.919996 5.96841,-6.919996 2.53777,0 2.354937,2.670064 -0.449483,6.565314 -2.896451,4.023006 -5.518927,4.191546 -5.518927,0.354691 z m 84.890054,-3.554827 c -2.54386,-2.184771 -3.71346,-7.036263 -1.69629,-7.036263 2.09015,0 5.28928,3.943955 5.28928,6.52077 0,2.435211 -1.16342,2.602123 -3.59299,0.515493 z m 4.71301,-0.305943 c 0,-2.064481 3.88237,-6.730339 5.60021,-6.730339 1.8911,0 1.24384,3.5358 -1.12007,6.118493 -2.65935,2.905467 -4.48014,3.154135 -4.48014,0.611846 z M 22.408315,44.932698 c -1.906343,-2.301433 -2.531716,-6.328061 -0.982825,-6.328061 2.062211,0 5.849414,4.006334 5.849414,6.187877 0,2.996488 -2.442353,3.066838 -4.866589,0.140184 z m 5.986613,0.449966 c 0,-1.856605 4.219542,-6.778008 5.8114,-6.778008 1.406571,0 1.072358,5.450328 -0.435217,7.097448 -1.872605,2.04592 -5.376183,1.837744 -5.376183,-0.319449 z M 95.51107,42.369879 c -1.967767,-2.149886 -3.273968,-4.867948 -3.273968,-6.812804 0,-2.78728 0.34924,-3.120095 2.520075,-2.40088 4.146392,1.373783 7.560263,5.58809 7.560263,9.332861 0,4.561823 -2.562995,4.516947 -6.80637,-0.119187 z m 8.5246,2.420744 c -1.91977,-3.393734 4.51298,-12.304461 8.88272,-12.304461 2.12545,0 2.15877,1.37727 0.16002,6.60405 -1.53861,4.0232 -7.76944,7.951089 -9.04262,5.700411 z M 55.319487,40.821308 c -2.553179,-2.994152 -3.046983,-7.111449 -0.852866,-7.111449 2.801161,0 6.409427,3.827976 6.409427,6.799728 0,3.757892 -2.498444,3.898053 -5.556561,0.311721 z m 8.002216,-0.648435 c 0.22309,-2.092123 1.473836,-4.009946 3.371036,-5.168125 3.482878,-2.12622 4.781459,-1.334114 3.732511,2.276746 -1.81351,6.242674 -7.716559,8.645417 -7.103547,2.891379 z m 83.410847,-2.582346 c -2.27777,-2.749809 -2.39473,-5.104365 -0.25357,-5.104365 2.06302,0 5.1202,3.340097 5.1202,5.594051 0,2.446196 -2.65613,2.178935 -4.86659,-0.489686 z m 5.98661,-0.1665 c 0,-2.28817 2.96558,-4.937847 5.52655,-4.937847 1.88835,0 1.39053,3.097128 -0.8546,5.316986 -2.74427,2.713377 -4.67195,2.556941 -4.67195,-0.379157 z M 22.314719,36.681718 c -1.812832,-1.980588 -2.436935,-6.642936 -0.889229,-6.642936 2.062211,0 5.849414,4.006334 5.849414,6.187882 0,2.867419 -2.538998,3.100343 -4.960185,0.455054 z m 6.080209,0.176212 c 0,-2.100573 5.473039,-7.049459 6.802946,-6.151445 1.009029,0.681313 0.248913,3.879964 -1.513755,6.368552 -1.481287,2.09151 -5.289191,1.935204 -5.289191,-0.217097 z m 26.880915,-5.595456 c -2.63378,-2.877518 -2.9743,-7.342189 -0.560012,-7.342189 2.411451,0 6.160217,4.46801 6.160217,7.342189 0,1.359663 -0.746697,2.447394 -1.680079,2.447394 -0.924026,0 -2.688091,-1.101329 -3.920126,-2.447394 z m 7.840253,0.04768 c 0,-2.724916 4.098683,-7.389854 6.49282,-7.389854 1.168241,0 1.393194,0.893115 0.847575,3.365169 -1.246386,5.646992 -7.340395,8.988301 -7.340395,4.024685 z m 35.066514,1.114001 c -3.379375,-1.417974 -6.181425,-6.467333 -5.746886,-10.35603 l 0.361517,-3.234055 3.905353,2.886894 c 6.435676,4.757354 7.613816,13.276879 1.480143,10.703191 z m 5.25486,-0.589123 c 0,-3.278067 3.65487,-8.974907 6.61838,-10.316038 1.94359,-0.879568 3.756,-1.356466 4.02756,-1.059772 1.11101,1.213845 -1.93559,9.639626 -3.90107,10.788865 -2.22934,1.303524 -6.74487,1.696469 -6.74487,0.586945 z m 43.29508,-1.586672 c -2.04443,-2.468122 -2.49188,-6.32806 -0.73362,-6.32806 1.7178,0 5.60021,4.665858 5.60021,6.730338 0,2.522115 -2.62392,2.305221 -4.86659,-0.402278 z m 5.98661,0.449967 c 0,-1.856605 4.21954,-6.778009 5.8114,-6.778009 1.7015,0 0.91615,4.508229 -1.13945,6.540681 -2.53231,2.503828 -4.67195,2.61252 -4.67195,0.237309 z M 22.794723,28.815113 c -2.562322,-2.799471 -2.960287,-6.118492 -0.733616,-6.118492 2.027118,0 5.213797,3.985521 5.213797,6.52077 0,2.738047 -1.749672,2.580941 -4.480181,-0.402278 z m 6.359686,1.532934 c -0.883599,-1.639318 1.292613,-6.231708 3.589513,-7.574739 2.701384,-1.579535 3.550651,-0.39627 2.302911,3.208488 -0.992012,2.865933 -5.071646,5.888922 -5.892424,4.366251 z M 150.45122,24.452049 c -1.10961,-3.188531 0.19092,-7.873921 2.1859,-7.873921 1.61485,0 2.44871,6.020993 1.18979,8.591 -1.55109,3.166447 -2.06204,3.057907 -3.37569,-0.717079 z m -90.785914,-0.87234 c -1.289988,-3.093214 0.275159,-9.448974 2.32704,-9.448974 2.267099,0 3.830383,5.861925 2.447603,9.177737 -1.587075,3.805631 -3.261015,3.900725 -4.774643,0.271256 z M 26.139175,22.664607 c -0.988329,-2.017569 -0.961194,-3.509807 0.115143,-6.349304 1.310815,-3.457433 1.509184,-3.559613 2.893911,-1.490637 1.948464,2.911345 1.893644,7.203217 -0.115567,9.024829 -1.283807,1.16409 -1.858508,0.928783 -2.893868,-1.184888 z m 74.426015,-3.02723 c -1.437218,-3.758109 -1.437218,-4.807777 0,-8.56589 0.90087,-2.3556154 2.08676,-4.2829412 2.63535,-4.2829412 1.27703,0 3.59704,5.5247722 3.59704,8.5658862 0,3.041118 -2.32001,8.56589 -3.59704,8.56589 -0.54859,0 -1.73448,-1.927326 -2.63535,-4.282945 z"
       id="path1" /></g></svg>
