<?xml version="1.0" encoding="UTF-8" standalone="no"?>
<!-- Created with Inkscape (http://www.inkscape.org/) -->

<svg
   width="180mm"
   height="180mm"
   viewBox="0 0 180 180"
   version="1.1"
   id="svg1"
   sodipodi:docname="place_hunter.svg"
   inkscape:version="1.4.2 (f4327f4, 2025-05-13)"
   xml:space="preserve"
   xmlns:inkscape="http://www.inkscape.org/namespaces/inkscape"
   xmlns:sodipodi="http://sodipodi.sourceforge.net/DTD/sodipodi-0.dtd"
   xmlns="http://www.w3.org/2000/svg"
   xmlns:svg="http://www.w3.org/2000/svg"><sodipodi:namedview
     id="namedview1"
     pagecolor="#505050"
     bordercolor="#ffffff"
     borderopacity="1"
     inkscape:showpageshadow="0"
     inkscape:pageopacity="0"
     inkscape:pagecheckerboard="1"
     inkscape:deskcolor="#505050"
     inkscape:document-units="mm"
     inkscape:zoom="1"
     inkscape:cx="73"
     inkscape:cy="204"
     inkscape:window-width="2560"
     inkscape:window-height="1351"
     inkscape:window-x="-9"
     inkscape:window-y="-9"
     inkscape:window-maximized="1"
     inkscape:current-layer="layer1"
     showguides="true" /><defs
     id="defs1"><rect
       x="101.82338"
       y="91.923881"
       width="384.66609"
       height="299.81327"
       id="rect3" /><rect
       x="2.8284271"
       y="2.1213203"
       width="662.55905"
       height="647.0027"
       id="rect2" /></defs><g
     inkscape:label="Icon"
     inkscape:groupmode="layer"
     id="layer1"><path
       style="fill:#000000;stroke-width:4.00864"
       d="m 86.822337,175.46642 c 0.421529,-1.41394 -0.264572,-5.63592 -1.701617,-10.47071 -2.286358,-7.69249 -2.563558,-8.10235 -5.491689,-8.12017 -1.696062,-0.008 -6.090415,1.5051 -9.765255,3.36757 -6.492868,3.29076 -6.962223,3.36567 -16.627476,2.65309 -11.125337,-0.8202 -12.492063,-0.39335 -18.578865,5.80108 -2.120077,2.15762 -3.854679,3.42717 -3.854679,2.82118 0,-2.30747 6.948198,-8.11728 13.362977,-11.1736 3.674839,-1.75083 12.739424,-5.24361 20.143611,-7.7617 16.925927,-5.75636 24.479572,-10.40461 34.850236,-21.44548 7.42307,-7.90286 11.5506,-13.16305 26.06153,-33.213335 9.04353,-12.495808 15.205,-30.293541 17.11144,-49.427333 0.60036,-6.025544 0.61112,-6.041221 6.38187,-9.302038 7.80575,-4.410708 7.81185,-4.412197 7.00671,-1.711498 -0.62655,2.101661 -0.4126,2.283114 1.94801,1.652351 2.62742,-0.70207 3.73948,0.872563 1.60713,2.275628 -1.71576,1.128921 0.0311,2.867428 2.15912,2.148441 2.41989,-0.817676 2.52152,0.301525 0.26807,2.952549 -1.58297,1.86222 -1.58297,2.001318 0,2.001318 3.13478,0 1.74389,2.246551 -2.66744,4.30838 -8.04084,3.758231 -14.38114,10.055686 -15.68271,15.576703 -0.48221,2.045533 0.0637,3.650608 2.13142,6.266806 l 2.77968,3.516928 -2.70909,5.700484 c -1.74956,3.681464 -2.70909,7.470343 -2.70909,10.697534 0,8.836312 3.79174,28.074742 6.58013,33.386182 l 2.61527,4.98158 -2.13516,3.07457 c -3.5065,5.04933 -1.93643,9.10755 7.12684,18.42055 6.96762,7.15968 7.53903,8.04936 5.52914,8.6089 -2.63062,0.73239 -2.82941,1.77011 -0.69966,3.65189 2.262,1.99863 1.8799,3.55267 -0.53521,2.17661 -2.82382,-1.60892 -4.3888,-0.43756 -3.02914,2.26723 1.20588,2.3988 0.71333,2.62476 -2.15679,0.98941 -1.5644,-0.89134 -1.98826,-0.7747 -1.98826,0.54721 0,2.65434 -1.57361,2.00918 -6.76362,-2.77308 -8.4314,-7.76889 -8.96182,-7.9929 -16.66225,-7.0365 -10.45877,1.29896 -12.77606,1.00053 -20.59288,-2.65202 -3.96439,-1.85246 -8.36185,-3.36807 -9.77213,-3.36807 -2.197544,0 -2.66515,0.63643 -3.27052,4.45116 -0.388506,2.44815 -0.947567,4.19439 -1.242365,3.8805 -0.294876,-0.31393 -1.681959,1.87756 -3.082523,4.86982 -2.717018,5.80472 -7.308032,9.98264 -5.944804,5.40988 z m -64.749895,-3.27827 c -0.689248,-1.18728 2.217826,-8.41082 3.805262,-9.45533 0.545851,-0.35901 1.491902,-0.12119 2.102323,0.52856 0.794533,0.84585 0.578679,2.43562 -0.759646,5.5953 -1.805194,4.26198 -3.842442,5.58038 -5.147939,3.33147 z m -4.944555,-9.53259 c -1.47271,-0.40658 -0.461079,-1.87033 4.921983,-7.12167 9.939073,-9.69596 11.990967,-15.18434 7.555899,-20.21039 -2.02334,-2.29291 -2.081149,-2.6959 -0.637927,-4.44797 3.184468,-3.8659 4.722369,-8.76843 6.932502,-22.09954 2.505747,-15.114404 2.242651,-19.274089 -1.61739,-25.5708 l -2.549065,-4.158237 2.618181,-3.312644 c 1.440036,-1.821974 2.616471,-4.382913 2.614373,-5.690971 -0.0078,-5.639145 -6.9339,-13.134264 -16.280579,-17.621408 -4.302549,-2.065553 -5.59068,-3.908167 -2.73213,-3.908167 1.995251,0 1.949834,-0.989243 -0.159287,-3.47052 -1.607522,-1.891048 -1.550916,-2.001276 1.027909,-2.001276 2.987417,0 3.422622,-0.965916 1.444232,-3.205476 -1.05763,-1.19725 -0.761199,-1.322741 1.675666,-0.709474 2.625019,0.660626 2.898061,0.490589 2.409048,-1.500223 -0.303423,-1.23493 -0.351986,-2.245309 -0.108004,-2.245309 0.243981,0 3.55417,1.655701 7.356206,3.679313 8.859842,4.715625 13.464455,5.619912 18.105237,3.555559 3.533773,-1.571944 4.631575,-3.811339 5.960732,-12.159498 0.259133,-1.628733 1.396951,-2.344039 4.446685,-2.795831 7.577266,-1.12251 9.581763,-3.224129 13.80902,-14.477975 1.307789,-3.4816467 3.283653,-6.8464053 4.390818,-7.4772097 1.107125,-0.6308043 6.652972,-1.1294173 12.324072,-1.1079507 12.170802,0.045911 13.109862,0.6306389 16.388002,10.2021884 2.39137,6.982484 6.49252,11.545693 11.29574,12.568439 1.61715,0.344127 2.94025,0.885095 2.94025,1.201676 0,0.316415 -3.39893,5.056568 -7.55314,10.533204 -4.15426,5.476636 -26.80999,35.68857 -50.346152,67.13767 -23.536124,31.44906 -43.149814,57.12301 -43.58595,57.05315 -0.436176,-0.0699 -1.627219,-0.35736 -2.646776,-0.63866 z m 11.690846,-0.78376 c -2.215222,-2.84166 8.023777,-9.01478 27.496439,-16.57765 14.124292,-5.48565 23.01133,-10.86244 31.049209,-18.78524 l 7.164013,-7.06148 3.0725,2.7524 3.072466,2.7524 -6.891636,6.72306 c -8.159676,7.96011 -16.060141,12.20314 -35.385986,19.0045 -13.90875,4.89493 -23.762506,9.47538 -25.011126,11.62622 -0.923013,1.59002 -3.153232,1.37792 -4.565879,-0.43421 z M 51.670349,128.12817 C 103.91831,58.256136 130.9069,22.073295 134.77218,16.715905 c 1.49552,-2.072791 3.00137,-3.478834 3.34632,-3.124449 0.89018,0.914462 -6.29648,11.181464 -28.67971,40.972214 -10.74177,14.296688 -30.804529,41.067924 -44.583867,59.49166 -25.243453,33.7519 -30.681993,40.61101 -32.200314,40.61101 -0.455718,0 8.101361,-11.94219 19.01574,-26.53817 z m -3.698423,15.13865 C 48.422632,142.41957 66.095617,118.5321 87.245265,90.183621 123.94794,40.988244 125.78534,38.723949 127.59123,40.463863 c 2.29448,2.21069 2.34704,4.454882 0.34694,14.818049 -1.95994,10.15545 -8.5938,24.631233 -14.18129,30.945067 -2.37498,2.683742 -8.24997,10.413753 -13.05551,17.177811 -12.572137,17.69598 -20.454381,25.80693 -30.323717,31.20366 -10.569501,5.77956 -23.540825,10.79212 -22.405804,8.65837 z M 98.47344,119.80198 c -2.934154,-2.79112 -3.178485,-3.41866 -1.946532,-4.99904 1.289374,-1.65396 1.656861,-1.55424 4.333592,1.17595 5.25287,5.35785 3.00731,8.9544 -2.38706,3.82309 z m 3.66248,-5.99477 c -2.72082,-2.49162 -2.72649,-5.10385 -0.0117,-5.10385 1.91533,0 6.10017,5.11563 5.30517,6.48511 -1.01952,1.75625 -2.20594,1.44666 -5.29406,-1.38126 z m 4.35772,-5.18326 c -5.05796,-4.23575 -1.83977,-7.20145 3.36718,-3.10298 2.40882,1.89601 2.87114,2.80162 2.0005,3.9185 -1.51789,1.94714 -2.19079,1.84489 -5.36768,-0.81552 z m 3.47884,-5.91722 c -1.77365,-2.00996 -2.14735,-3.119529 -1.34011,-3.978938 1.31323,-1.398102 7.75679,3.096778 7.16277,4.996598 -0.69244,2.21453 -3.38591,1.74384 -5.82266,-1.01766 z m 4.67691,-4.250104 c -2.00814,-1.704715 -2.77234,-3.130818 -2.33212,-4.352099 0.87336,-2.423123 1.6961,-2.292255 5.34491,0.850144 2.76041,2.377377 2.92075,2.833098 1.52893,4.346681 -1.4001,1.522638 -1.85201,1.438598 -4.54172,-0.844726 z m 3.74291,-6.142018 -2.35361,-2.089336 3.61326,-5.354454 c 8.05303,-11.933663 10.89962,-21.513237 15.39778,-51.818028 0.86015,-5.794995 2.53648,-13.303639 3.72511,-16.685935 1.96029,-5.57793 2.35295,-6.040352 4.22396,-4.974342 1.41665,0.80717 1.8266,1.748889 1.30884,3.006527 -2.2045,5.354413 -4.46025,17.650031 -5.51329,30.052031 -1.80411,21.247282 -5.18578,33.027453 -13.16698,45.867306 -2.91752,4.69358 -3.89322,4.962761 -7.23507,1.996231 z M 143.77647,9.5387315 c -1.18634,-1.5218139 -0.98203,-2.1289181 1.47333,-4.3774124 3.09449,-2.8337597 6.84777,-3.4770965 6.84777,-1.1737569 0,1.3851969 -5.15202,7.3180508 -6.35491,7.3180508 -0.32401,0 -1.20864,-0.795092 -1.96619,-1.7668815 z"
       id="path1" /></g></svg>
