<?xml version="1.0" encoding="UTF-8" standalone="no"?>
<!-- Created with Inkscape (http://www.inkscape.org/) -->

<svg
   width="180mm"
   height="240mm"
   viewBox="0 0 180 240"
   version="1.1"
   id="svg1"
   sodipodi:docname="lighthouse.svg"
   inkscape:version="1.4.2 (f4327f4, 2025-05-13)"
   xml:space="preserve"
   xmlns:inkscape="http://www.inkscape.org/namespaces/inkscape"
   xmlns:sodipodi="http://sodipodi.sourceforge.net/DTD/sodipodi-0.dtd"
   xmlns="http://www.w3.org/2000/svg"
   xmlns:svg="http://www.w3.org/2000/svg"><sodipodi:namedview
     id="namedview1"
     pagecolor="#505050"
     bordercolor="#ffffff"
     borderopacity="1"
     inkscape:showpageshadow="0"
     inkscape:pageopacity="0"
     inkscape:pagecheckerboard="1"
     inkscape:deskcolor="#505050"
     inkscape:document-units="mm"
     inkscape:zoom="0.70710678"
     inkscape:cx="545.88644"
     inkscape:cy="650.53824"
     inkscape:window-width="2560"
     inkscape:window-height="1351"
     inkscape:window-x="-9"
     inkscape:window-y="-9"
     inkscape:window-maximized="1"
     inkscape:current-layer="layer1"
     showguides="true" /><defs
     id="defs1"><rect
       x="101.82338"
       y="91.923882"
       width="384.66608"
       height="299.81326"
       id="rect3" /><rect
       x="2.8284271"
       y="2.1213202"
       width="662.55902"
       height="647.00269"
       id="rect2" /></defs><g
     inkscape:label="Icon"
     inkscape:groupmode="layer"
     id="layer1"><path
       id="path1"
       style="fill:#000000;stroke-width:3.23955"
       d="m 90.038545,4.9915176 c -0.724576,0 -4.145317,2.2068786 -7.601196,4.9043451 -3.455877,2.6974323 -10.533926,8.0850513 -15.729402,11.9728033 -5.921982,4.431458 -9.624069,7.808629 -9.922466,9.051758 -0.864461,3.602464 -0.04797,5.089311 3.240649,5.902735 l 3.137213,0.776025 v 15.568799 15.568238 l -4.740779,0.512109 c -2.607321,0.281445 -5.052927,1.026779 -5.434791,1.656494 -0.881655,1.453807 -0.913276,15.686108 -0.03814,17.127027 0.360798,0.594099 2.146476,2.259479 3.968178,3.701003 l 3.312305,2.622305 29.654141,0.02304 c 28.602173,0.02358 29.754313,-0.04053 32.477573,-1.800802 4.68881,-3.030826 5.33656,-4.688732 5.33656,-13.658495 0,-4.936602 -0.35904,-8.312785 -0.92285,-8.677222 -0.50762,-0.328126 -2.86491,-0.84438 -5.23832,-1.147193 l -4.31547,-0.550855 -0.0589,-15.443579 -0.0584,-15.443017 2.99217,-0.773779 c 2.52153,-0.651846 3.02598,-1.186723 3.21003,-3.402833 0.12009,-1.446354 -0.0685,-3.067872 -0.41896,-3.602734 C 121.62078,27.944766 91.323009,4.9915176 90.038545,4.9915176 Z M 143.12788,33.918398 c -0.31909,0 -4.67596,2.03427 -9.6815,4.520264 -7.75762,3.852863 -9.10075,4.823194 -9.10075,6.574315 0,1.129888 0.47146,2.051825 1.04766,2.049 1.94956,-0.0096 19.33792,-5.186699 20.10093,-5.984717 0.78872,-0.824954 -1.30496,-7.158862 -2.36634,-7.158862 z M 37.008156,34.473744 c -0.603352,0.02749 -0.907573,0.358605 -1.278808,0.889454 -1.197796,1.712756 -2.316574,5.435024 -1.791372,5.959448 0.17058,0.170325 4.458916,1.505958 9.52952,2.968212 10.420853,3.005118 11.632809,3.05617 11.983123,0.504811 0.21008,-1.529743 -1.232583,-2.542435 -9.168357,-6.435621 -5.879862,-2.884576 -8.122251,-3.938779 -9.274106,-3.886304 z m 32.860118,2.950806 h 3.771127 3.771705 V 52.764809 68.105068 H 73.639401 69.868274 V 52.764809 Z m 13.409865,0 h 6.70493 6.704933 v 15.340259 15.340259 h -6.704933 -6.70493 V 52.764809 Z m 19.276321,0 h 3.77171 3.7717 v 15.340259 15.340259 h -3.7717 -3.77171 V 52.764809 Z m 23.25779,19.290577 c -0.98204,-0.0037 -1.46662,0.674891 -1.46662,2.053491 0,1.772293 1.31284,2.685061 9.42897,6.556909 5.18584,2.473901 9.54217,4.505322 9.68092,4.51521 0.13877,0.0096 0.82436,-1.415012 1.52382,-3.165869 0.82283,-2.0597 0.98439,-3.483616 0.45768,-4.034546 -0.91342,-0.955289 -17.34582,-5.915307 -19.62477,-5.925195 z m -71.671066,0.08591 c -1.221875,-0.04429 -3.408471,0.500217 -7.267769,1.607642 -3.256125,0.934351 -7.523019,2.132683 -9.482136,2.663305 -3.964988,1.073863 -4.089285,1.386336 -2.316649,5.82356 0.684885,1.71438 1.564561,2.984097 1.955485,2.821094 0.390923,-0.163003 4.733576,-2.249202 9.650294,-4.635937 7.566075,-3.672766 8.939524,-4.64926 8.939524,-6.355323 0,-1.247319 -0.256874,-1.880049 -1.478749,-1.924341 z m 58.254836,42.039578 c -4.11056,-0.107466 -11.03894,-0.02608 -22.735397,0.192603 -15.159199,0.283432 -27.856508,0.836866 -28.21642,1.229732 -0.81647,0.89125 -9.358768,74.1875 -9.011178,77.31953 l 0.253681,2.28709 34.362559,0.45315 h 5.79e-4 c 18.899536,0.2492 35.305446,0.53843 36.457876,0.6435 4.96897,0.45281 4.96352,1.89025 0.15199,-40.68967 -2.51681,-22.27256 -4.86678,-39.77996 -5.43538,-40.496502 -0.42503,-0.535647 -1.71774,-0.831945 -5.82831,-0.939433 z M 75.734728,112.81076 c 4.575749,0 5.029132,1.00287 5.029132,11.13276 v 9.02874 h -5.029132 -5.028554 v -9.02874 c 0,-10.12989 0.452773,-11.13276 5.028554,-11.13276 z m 30.112972,35.17045 c 0.51294,-0.0178 1.08824,0.004 1.733,0.0528 3.58708,0.26962 3.73034,0.39265 4.401,3.78467 0.38135,1.92847 0.58487,6.26762 0.45247,9.64248 l -0.24097,6.13633 -4.64313,0.25718 c -2.55359,0.14156 -4.91091,-0.0226 -5.23831,-0.36499 -0.32733,-0.34247 -0.5952,-4.22916 -0.5952,-8.63679 0,-8.66634 0.54051,-10.74667 4.13114,-10.87167 z m -48.657716,37.35592 c -8.058395,0.24768 -11.639363,0.76882 -12.44888,1.6155 -0.485986,0.50829 -1.638465,7.40591 -2.561084,15.32846 -0.922587,7.92257 -1.952961,16.57436 -2.290067,19.22601 l -0.613111,4.82123 -5.447504,0.438 c -6.05246,0.48695 -7.549707,1.15104 -7.530697,3.33938 0.02718,3.14188 1.542096,4.10615 7.289729,4.64267 3.128816,0.29188 30.957648,0.34668 61.842204,0.12073 49.850016,-0.3645 56.271346,-0.56628 57.201386,-1.79463 2.7637,-3.65021 0.0228,-6.30815 -6.50556,-6.30815 -2.70564,0 -5.11453,-0.32973 -5.35274,-0.73279 -0.38198,-0.64642 -1.4788,-9.68073 -3.84393,-31.65589 -0.45394,-4.21761 -1.16551,-6.88365 -2.00923,-7.5289 -0.90696,-0.69366 -12.64946,-1.14823 -38.417414,-1.48748 -18.718675,-0.24644 -31.254707,-0.27182 -39.313102,-0.0241 z m 32.530737,13.13235 c 2.812149,-0.0941 5.66208,0.88423 7.470021,2.97046 1.363627,1.5735 1.632022,3.52464 1.867071,13.58212 l 0.274485,11.74427 H 90.04779 80.76386 v -11.27708 c 0,-10.03362 0.188637,-11.52877 1.713939,-13.55686 1.656239,-2.20221 4.430771,-3.36877 7.242922,-3.46291 z" /></g></svg>
