<?xml version="1.0" encoding="UTF-8" standalone="no"?>
<!-- Created with Inkscape (http://www.inkscape.org/) -->

<svg
   width="180mm"
   height="180mm"
   viewBox="0 0 180 180"
   version="1.1"
   id="svg1"
   sodipodi:docname="place_village.svg"
   inkscape:version="1.4.2 (f4327f4, 2025-05-13)"
   xml:space="preserve"
   xmlns:inkscape="http://www.inkscape.org/namespaces/inkscape"
   xmlns:sodipodi="http://sodipodi.sourceforge.net/DTD/sodipodi-0.dtd"
   xmlns="http://www.w3.org/2000/svg"
   xmlns:svg="http://www.w3.org/2000/svg"><sodipodi:namedview
     id="namedview1"
     pagecolor="#505050"
     bordercolor="#ffffff"
     borderopacity="1"
     inkscape:showpageshadow="0"
     inkscape:pageopacity="0"
     inkscape:pagecheckerboard="1"
     inkscape:deskcolor="#505050"
     inkscape:document-units="mm"
     inkscape:zoom="1"
     inkscape:cx="73"
     inkscape:cy="204"
     inkscape:window-width="2560"
     inkscape:window-height="1351"
     inkscape:window-x="-9"
     inkscape:window-y="-9"
     inkscape:window-maximized="1"
     inkscape:current-layer="layer1"
     showguides="true" /><defs
     id="defs1"><rect
       x="101.82338"
       y="91.923881"
       width="384.66609"
       height="299.81327"
       id="rect3" /><rect
       x="2.8284271"
       y="2.1213203"
       width="662.55905"
       height="647.0027"
       id="rect2" /></defs><g
     inkscape:label="Icon"
     inkscape:groupmode="layer"
     id="layer1"><path
       style="fill:#000000;stroke-width:4.27245"
       d="m 11.859958,139.42998 v -19.46667 h 34.117754 34.117714 v 19.46667 19.46671 H 67.098194 54.100962 V 144.7391 130.5815 h -8.12325 -8.123291 v 14.1576 14.15759 H 24.857191 11.859958 Z m 18.41276,-0.5899 v -5.89901 h -5.957072 -5.957071 v 5.89901 5.89902 h 5.957071 5.957072 z m 43.324092,0 v -5.89901 h -5.415486 -5.415527 v 5.89901 5.89902 h 5.415527 5.415486 z m 35.92292,-2.17812 c 0.19854,-0.54909 4.0165,-8.51494 8.48431,-17.70186 l 8.12325,-16.7035 12.28572,0.29964 12.28572,0.29966 8.0045,16.51716 c 4.40244,9.08445 8.01256,16.9154 8.02247,17.40206 0.008,0.48668 -4.61228,0.88482 -10.2715,0.88482 h -10.28947 v -12.97777 -12.9778 h -7.58175 -7.58171 v 12.9778 12.97777 h -10.92128 c -6.00673,0 -10.75883,-0.44925 -10.56026,-0.99829 z m -2.3467,-19.41218 v -14.98346 h 7.67176 7.67181 l -6.72446,13.86262 c -3.69847,7.62446 -7.15077,14.36699 -7.67181,14.98346 -0.54531,0.64519 -0.9473,-5.23755 -0.9473,-13.86262 z m 54.42591,0.37992 c -3.72319,-7.74522 -6.76943,-14.39469 -6.76943,-14.7767 0,-0.38215 3.28997,-0.53764 7.31098,-0.34558 l 7.31095,0.34869 0.30415,14.45252 c 0.16743,7.94891 -0.0765,14.44142 -0.54155,14.42787 -0.46511,-0.0135 -3.89191,-6.36169 -7.61506,-14.10686 z M 3.1951645,116.44183 C 1.7972764,115.47323 1.778937,114.95 3.0637595,112.69358 6.8582553,106.02902 44.946939,57.391521 46.138919,57.688542 c 1.066141,0.265761 41.027288,51.431788 43.307802,55.451208 0.742949,1.30941 -1.619435,4.46395 -3.34293,4.46395 -0.719494,0 -9.381791,-10.50694 -19.249535,-23.348747 C 56.986511,81.413145 48.190271,70.252904 47.307032,69.454461 45.602,67.913044 40.674636,73.656836 17.971974,103.65038 10.089429,114.06429 6.6591419,117.74996 5.0020868,117.58564 4.9017929,117.57635 4.088801,117.06098 3.1952465,116.44183 Z m 14.2502465,-6.03768 c 2.587207,-3.31083 5.546155,-7.15995 6.575371,-8.55356 1.815274,-2.457837 1.872094,-2.277427 1.895427,6.01977 l 0.02456,8.55355 h -6.599483 -6.599483 z m 12.827307,-3.41865 v -9.438397 h 7.040159 7.04016 v 9.438397 9.43841 h -7.04016 -7.040159 z m 17.329627,0 v -9.438397 h 7.040161 7.040202 v 9.438397 9.43841 h -7.040202 -7.040161 z m 18.456766,0.88486 0.04421,-8.553547 3.285004,4.129297 c 1.806758,2.27109 4.752279,6.12022 6.545611,8.55354 l 3.260606,4.42426 h -6.58966 -6.589618 z m 33.600731,-9.643387 c -1.675435,-2.19901 -2.810963,-0.47967 19.401618,-29.375916 9.81502,-12.76832 18.45112,-23.215108 19.19132,-23.215108 0.74017,0 4.40723,4.001716 8.14896,8.892663 l 6.80314,8.892707 0.32749,-5.943202 0.32749,-5.943201 h 4.81737 4.81738 v 12.908203 c 0,7.099486 0.45476,13.214274 1.01055,13.588435 0.55579,0.374118 4.01792,4.752493 7.69367,9.729633 6.1168,8.282486 6.52252,9.177246 4.78756,10.559156 -1.04256,0.83042 -2.48732,1.12886 -3.21058,0.66324 -0.72322,-0.46561 -8.76153,-10.40295 -17.86287,-22.082941 -9.10135,-11.680038 -17.01164,-21.236391 -17.57849,-21.236391 -0.5668,0 -8.66291,9.786531 -17.99132,21.747892 -9.32841,11.961359 -17.49681,21.93356 -18.15203,22.16054 -0.65523,0.22696 -1.79419,-0.37858 -2.531012,-1.34571 z m 9.859888,-0.6014 c 0.61752,-1.88369 26.32433,-35.187616 26.89707,-34.845917 0.29801,0.177918 0.39544,8.338534 0.21655,18.135187 l -0.32503,17.81208 h -13.57476 c -7.94084,0 -13.42493,-0.4571 -13.21375,-1.10135 z m 30.14638,-16.693964 c 0,-10.479072 0.41456,-17.633628 1.00834,-17.402068 1.10331,0.430302 27.15232,33.620432 27.15232,34.595942 0,0.33086 -6.33615,0.60144 -14.08035,0.60144 H 139.66611 Z M 34.434369,88.403652 C 36.2277,85.97033 39.173221,82.121249 40.97998,79.850103 l 3.285045,-4.129291 0.04421,8.55355 0.04421,8.55355 h -6.589622 -6.589616 z m 13.21489,-4.12929 0.04667,-8.55355 5.416673,6.488904 c 8.683215,10.402108 8.704093,10.618196 1.02627,10.618196 H 47.602141 Z M 68.372824,79.691315 C 64.316132,74.259124 63.848886,72.979724 63.848886,67.303398 V 60.973327 H 84.969409 106.0899 v 8.961332 c 0,7.168558 -0.44809,9.646828 -2.23995,12.387872 -2.00177,3.062232 -2.86553,3.426583 -8.123295,3.426583 h -5.883304 v -8.848472 -8.848519 h -5.415486 -5.415528 v 8.848519 8.848472 h -3.057808 c -2.370573,0 -4.074459,-1.361402 -7.581705,-6.057799 z M 57.891814,57.433928 c -0.368016,-0.648885 -0.357372,-1.729991 0.02456,-2.402465 1.398993,-2.46574 25.71659,-33.592246 26.503096,-33.923913 1.047884,-0.441895 27.6277,33.771768 27.6277,35.562492 0,4.080106 -4.81769,-0.267545 -15.169187,-13.688676 -6.381008,-8.27334 -11.914514,-15.003481 -12.296653,-14.955903 -0.382343,0.04772 -5.952692,6.949395 -12.379014,15.337378 -6.426282,8.387984 -12.124392,15.250871 -12.662497,15.250871 -0.538106,0 -1.279624,-0.530898 -1.647804,-1.179784 z m 7.049658,0.295192 c 0.01228,-1.259602 19.036463,-25.366127 19.92793,-25.253224 0.698289,0.08829 17.875148,21.925587 19.502518,24.793759 0.56026,0.98742 -4.573635,1.344325 -19.338609,1.344325 -11.055712,0 -20.097037,-0.398197 -20.091839,-0.88486 z"
       id="path1" /></g></svg>
