<?xml version="1.0" encoding="UTF-8" standalone="no"?>
<!-- Created with Inkscape (http://www.inkscape.org/) -->

<svg
   width="180mm"
   height="180mm"
   viewBox="0 0 180 180"
   version="1.1"
   id="svg1"
   sodipodi:docname="place_fisherman.svg"
   inkscape:version="1.4.2 (f4327f4, 2025-05-13)"
   xml:space="preserve"
   xmlns:inkscape="http://www.inkscape.org/namespaces/inkscape"
   xmlns:sodipodi="http://sodipodi.sourceforge.net/DTD/sodipodi-0.dtd"
   xmlns="http://www.w3.org/2000/svg"
   xmlns:svg="http://www.w3.org/2000/svg"><sodipodi:namedview
     id="namedview1"
     pagecolor="#505050"
     bordercolor="#ffffff"
     borderopacity="1"
     inkscape:showpageshadow="0"
     inkscape:pageopacity="0"
     inkscape:pagecheckerboard="1"
     inkscape:deskcolor="#505050"
     inkscape:document-units="mm"
     inkscape:zoom="1"
     inkscape:cx="73"
     inkscape:cy="204"
     inkscape:window-width="2560"
     inkscape:window-height="1351"
     inkscape:window-x="-9"
     inkscape:window-y="-9"
     inkscape:window-maximized="1"
     inkscape:current-layer="layer1"
     showguides="true" /><defs
     id="defs1"><rect
       x="101.82338"
       y="91.923881"
       width="384.66609"
       height="299.81327"
       id="rect3" /><rect
       x="2.8284271"
       y="2.1213203"
       width="662.55905"
       height="647.0027"
       id="rect2" /></defs><g
     inkscape:label="Icon"
     inkscape:groupmode="layer"
     id="layer1"><path
       style="fill:#000000;stroke-width:4.20367"
       d="m 15.065955,172.05506 c -1.045405,-1.08333 -1.900768,-2.4944 -1.900768,-3.13568 0,-1.53327 10.155661,-23.7323 14.809696,-32.37222 2.008985,-3.72953 4.361895,-7.03622 5.228718,-7.34817 1.457612,-0.52452 8.674479,2.26802 8.674479,3.3566 0,0.26461 -3.79637,8.85539 -8.43634,19.09038 -4.63997,10.23496 -8.758388,19.45721 -9.152059,20.49389 -0.958675,2.52464 -6.756999,2.47131 -9.223726,-0.0847 z m 107.208135,-6.32167 c 0,-2.44457 2.48474,-6.03577 7.85072,-11.34677 l 4.0622,-4.02059 -5.23506,-9.44281 c -2.87932,-5.19356 -5.86499,-11.86626 -6.63489,-14.82819 -1.42184,-5.47034 -1.86235,-21.26771 -0.64461,-23.11554 0.3668,-0.55664 2.53336,0.17546 4.81443,1.62732 4.90068,3.11882 13.4988,3.57406 18.81455,0.99617 4.16917,-2.02186 4.4429,-2.98766 0.44247,-1.56133 -6.65017,2.37114 -16.05895,0.36923 -20.65664,-4.395189 -1.86109,-1.928553 -1.86843,-2.359735 -0.11373,-6.668827 1.90055,-4.666917 8.15588,-12.658233 9.90849,-12.658233 0.52559,0 0.73196,2.059919 0.45857,4.577562 l -0.49698,4.577563 2.55532,-4.577563 c 1.40543,-2.517643 3.12389,-4.577562 3.81877,-4.577562 1.51035,0 8.57455,6.887797 11.29383,11.011788 2.89335,4.388065 5.36645,14.452291 5.36645,21.838971 0,9.1254 -2.68845,17.87821 -8.69362,28.304 l -5.13591,8.9167 2.67465,2.39254 c 4.01797,3.59422 8.45883,9.61204 9.19608,12.46166 0.61926,2.39364 0.42714,2.49151 -3.57456,1.82128 -2.32595,-0.38957 -6.20532,-1.60598 -8.62082,-2.70311 -4.24886,-1.92985 -4.54782,-1.93136 -9.18809,-0.0456 -2.63797,1.07205 -6.47606,2.27918 -8.52902,2.68251 -3.15188,0.61922 -3.73269,0.42211 -3.73269,-1.26676 z m 22.75422,-72.207456 c -0.5766,-2.807649 -4.37796,-3.120777 -4.37796,-0.360675 0,1.541377 0.7376,2.233092 2.38121,2.233092 1.64366,0 2.26215,-0.580011 1.99675,-1.872499 z M 55.240887,150.25098 c -1.76108,-1.29908 -3.026175,-3.30844 -3.026175,-4.80642 0,-3.30364 4.445804,-14.50273 5.757302,-14.50273 2.215132,0 2.371663,2.52502 0.502062,8.09924 -1.964274,5.85657 -1.963146,5.8698 0.672093,7.87094 1.692104,1.28496 2.37774,2.64474 1.909971,3.7879 -0.958415,2.34219 -2.157008,2.24967 -5.815253,-0.44893 z m 7.310456,-16.40103 c 0,-5.71011 -7.042453,-7.14031 -9.016017,-1.83102 -0.660633,1.77716 -1.46651,3.23118 -1.790858,3.23118 -0.324261,0 -1.153579,-1.96368 -1.842731,-4.36372 -1.422451,-4.95399 -4.185874,-6.60903 -6.366149,-3.81274 -1.344446,1.72424 -1.723488,1.73739 -4.95186,0.17179 l -3.495984,-1.69537 3.134913,-6.18994 c 1.724139,-3.40447 3.540912,-6.79579 4.037157,-7.53632 1.245388,-1.85817 4.833658,-1.68683 6.988236,0.33381 1.583669,1.48516 1.600338,2.10922 0.143681,5.37846 -1.490081,3.34446 -1.459781,3.7927 0.316882,4.68434 1.323219,0.66411 2.687025,0.49057 4.177627,-0.53157 8.073142,-5.53604 18.409469,4.49301 12.619827,12.24468 -2.305334,3.08662 -3.954681,3.05181 -3.954681,-0.0835 z m 93.574417,0.70161 c 2.64752,-6.0002 4.10709,-12.39408 4.31649,-18.90968 0.12936,-4.02523 0.60381,-7.31857 1.05435,-7.31857 0.45049,0 1.94257,1.47958 3.31566,3.288 2.03429,2.67922 2.3573,4.15909 1.74428,7.9925 -1.01211,6.32944 -6.3925,16.08697 -9.13317,16.56338 -1.7254,0.30002 -1.99479,-0.0366 -1.29761,-1.61563 z m -43.51868,-9.59807 c -1.6158,-1.51529 -1.61857,-2.0699 -0.0304,-5.65462 3.28176,-7.39727 4.68195,-7.55668 5.44537,-0.61995 0.37462,3.4059 0.42019,6.58904 0.10071,7.07359 -0.9269,1.40651 -3.57512,1.02304 -5.51804,-0.79902 z M 64.578343,105.79081 c 0.808134,-17.173844 -0.226592,-18.098736 -7.131657,-6.374228 -3.05947,5.194908 -5.702392,9.605688 -5.873204,9.801778 -0.170595,0.19621 -1.412076,-0.19621 -2.758301,-0.87197 -2.41607,-1.21258 -2.375656,-1.35681 3.116681,-11.12724 C 70.597051,64.015051 95.02983,35.429548 122.19904,15.008941 133.11296,6.8059823 137.20481,4.5729714 137.20481,6.8200673 c 0,0.4502741 -5.76139,5.4084997 -12.80306,11.0183427 -13.71172,10.923573 -29.7787,27.090044 -27.600118,27.771052 2.803446,0.876368 14.287498,-5.282751 20.215398,-10.841871 3.40235,-3.190754 7.74419,-8.666178 9.64852,-12.167658 1.90432,-3.501481 4.26301,-7.33571 5.24152,-8.520483 3.01619,-3.651939 2.31337,0.823324 -1.14737,7.306033 -6.67387,12.501629 -19.70161,24.135276 -29.22381,26.0966 -3.935369,0.810583 -5.195082,2.89452 -6.221561,10.292269 -1.609715,11.601122 -11.381472,24.342074 -22.424575,29.238342 l -5.552502,2.461832 0.622954,8.078065 c 0.616487,7.994329 -1.236966,20.464369 -3.041672,20.464369 -0.503537,0 -0.656595,-5.50176 -0.340322,-12.22615 z M 75.280212,82.954854 c 5.65703,-3.347807 10.029343,-8.456531 13.778225,-16.098855 3.180362,-6.483401 5.564005,-17.777786 3.749186,-17.764678 -1.970873,0.01628 -26.810736,34.153213 -26.810736,36.847692 0,1.346141 4.303815,-0.03664 9.283325,-2.984159 z M 132.21449,69.733137 c -1.98507,-2.05703 -2.65569,-8.801045 -0.87516,-8.801045 1.12124,0 2.70725,2.895904 2.88319,5.264311 0.0612,0.821981 0.97213,2.005574 2.02461,2.630201 4.25129,2.523017 7.72566,-4.861665 3.74502,-7.959849 -4.49928,-3.501765 -7.60529,-13.942294 -4.14559,-13.934925 0.43104,9.36e-4 0.62695,-7.132373 0.43504,-15.851838 -0.36507,-16.59578 0.21226,-21.8679073 2.19173,-20.011488 0.6915,0.648482 1.00599,7.923333 0.79785,18.455863 -0.26002,13.158538 0.004,17.510617 1.09202,17.900358 1.80549,0.647546 1.84291,3.231422 0.0851,5.871067 -1.12763,1.693301 -0.84321,2.593605 1.72275,5.45336 3.57429,3.983589 3.9782,8.620666 0.97304,11.17112 -2.78778,2.365964 -8.56118,2.267125 -10.92959,-0.187258 z"
       id="path1" /></g></svg>
