<?xml version="1.0" encoding="UTF-8" standalone="no"?>
<!-- Created with Inkscape (http://www.inkscape.org/) -->

<svg
   width="180mm"
   height="240mm"
   viewBox="0 0 180 240"
   version="1.1"
   id="svg1"
   sodipodi:docname="place_tavern.svg"
   inkscape:version="1.4.2 (f4327f4, 2025-05-13)"
   xml:space="preserve"
   xmlns:inkscape="http://www.inkscape.org/namespaces/inkscape"
   xmlns:sodipodi="http://sodipodi.sourceforge.net/DTD/sodipodi-0.dtd"
   xmlns="http://www.w3.org/2000/svg"
   xmlns:svg="http://www.w3.org/2000/svg"><sodipodi:namedview
     id="namedview1"
     pagecolor="#505050"
     bordercolor="#ffffff"
     borderopacity="1"
     inkscape:showpageshadow="0"
     inkscape:pageopacity="0"
     inkscape:pagecheckerboard="1"
     inkscape:deskcolor="#505050"
     inkscape:document-units="mm"
     inkscape:zoom="1"
     inkscape:cx="73"
     inkscape:cy="444"
     inkscape:window-width="2560"
     inkscape:window-height="1351"
     inkscape:window-x="-9"
     inkscape:window-y="-9"
     inkscape:window-maximized="1"
     inkscape:current-layer="layer1"
     showguides="true" /><defs
     id="defs1"><rect
       x="101.82338"
       y="91.923882"
       width="384.66608"
       height="299.81326"
       id="rect3" /><rect
       x="2.8284271"
       y="2.1213202"
       width="662.55902"
       height="647.00269"
       id="rect2" /></defs><g
     inkscape:label="Icon"
     inkscape:groupmode="layer"
     id="layer1"><path
       style="fill:#000000;stroke-width:5.86868"
       d="m 57.041619,229.03464 c -0.460725,-1.21031 -0.624186,-5.97549 -0.36323,-10.58926 l 0.474455,-8.38866 12.83098,-0.454 12.830999,-0.45394 -0.458732,10.58749 -0.458732,10.58747 -12.009017,0.45577 c -9.225101,0.35012 -12.20322,-0.054 -12.846707,-1.74483 z M 39.367776,228.50568 C 27.912202,226.68681 28.356299,227.18835 28.856134,216.63441 l 0.459197,-9.6957 7.73265,0.36909 c 14.668968,0.70021 14.692026,0.71923 14.692026,12.13263 0,11.10063 0.07944,11.04238 -12.372231,9.06528 z m 47.942403,-8.85 c 0,-11.49749 -0.825967,-10.75409 14.108001,-12.69755 6.51772,-0.8482 7.2324,-0.61494 8.09815,2.64313 1.38879,5.22635 1.19845,16.51219 -0.29418,17.4421 -0.70727,0.44062 -5.92682,1.28049 -11.598977,1.8663 l -10.31301,1.06512 z m -71.913621,3.326 c -8.4950496,-3.00164 -10.450634,-5.86055 -9.6627602,-14.1262 0.3901649,-4.09302 1.1129172,-7.84865 1.6061717,-8.34591 0.4932725,-0.49723 4.4216055,0.27611 8.7296695,1.71858 l 7.832836,2.62263 v 7.5422 c 0,7.75174 -1.119878,12.56799 -2.871892,12.35114 -0.546931,-0.0679 -3.082249,-0.86079 -5.634025,-1.76244 z m 99.751162,-6.689 c 0,-4.71595 -0.17395,-9.10065 -0.38666,-9.74374 -0.34907,-1.05561 15.9336,-7.10293 16.74297,-6.21828 0.4343,0.47503 1.13835,13.78039 0.86321,16.3201 -0.23381,2.15703 -11.17645,8.21643 -14.83813,8.21643 -1.85554,0 -2.3814,-1.89347 -2.3814,-8.57451 z M 42.842619,202.98786 c -12.02433,-1.52519 -28.731912,-5.51514 -33.2093976,-7.93072 -2.0365727,-1.09873 -2.736478,-3.37179 -2.7188959,-8.83003 0.034483,-10.77127 1.1264195,-11.80364 9.3648385,-8.85572 25.065882,8.96925 81.175094,8.98952 106.342276,0.0384 7.40412,-2.63337 7.18633,-2.85511 8.74973,8.90947 0.97012,7.30044 0.89109,7.48377 -4.13755,9.60097 -15.67016,6.59754 -59.294232,10.251 -84.391001,7.06766 z m 79.867441,-12.99129 c 1.33702,-1.62396 1.1823,-2.61077 -0.64946,-4.14324 -2.95583,-2.47294 -6.25433,0.13468 -4.84697,3.8316 1.14552,3.00923 3.18053,3.12461 5.49643,0.31164 z m 13.53532,-7.28525 c -0.54594,-2.75214 -0.99279,-6.92844 -0.99279,-9.2807 0,-3.82804 0.66516,-4.36679 6.33812,-5.13385 13.74388,-1.85829 17.54493,-10.5255 16.46534,-37.54455 -0.88205,-22.07482 -4.4494,-35.691831 -10.55408,-40.286418 -3.52492,-2.652938 -4.75251,-2.775663 -11.25518,-1.125058 -4.01434,1.018986 -7.64171,1.506992 -8.06083,1.084498 -0.41909,-0.42254 -1.16481,-4.196498 -1.65716,-8.386614 l -0.89506,-7.618413 10.18167,-1.947008 c 19.99719,-3.824039 23.37348,-2.371169 29.32676,12.619735 8.16393,20.557538 11.8369,57.697948 7.34753,74.296278 -3.98248,14.7243 -14.54506,24.4101 -29.75696,27.2869 -5.24,0.99092 -5.54061,0.80723 -6.48736,-3.9648 z m -94.402176,-4.77724 c -5.017946,-0.73804 -9.341237,-1.56136 -9.607314,-1.82959 -0.266071,-0.26821 0.359826,-11.94105 1.390888,-25.93962 l 1.874669,-25.45194 5.412855,-1.75961 c 3.775424,-1.22732 6.082069,-3.29236 7.625119,-6.82638 1.216739,-2.78671 3.130568,-5.06674 4.252945,-5.06674 1.563784,0 2.039048,3.9166 2.033674,16.75925 -0.0083,21.47289 -1.738155,51.89314 -2.935693,51.64665 -0.507998,-0.1045 -5.0292,-0.79395 -10.047143,-1.53202 z m 16.609965,-20.49362 c 0.554463,-12.21868 1.010721,-27.65276 1.013821,-34.29801 l 0.005,-12.08225 h 10.052434 10.052451 l 0.005,9.74374 c 0.0033,5.35907 0.459786,20.79319 1.015403,34.298 l 1.010227,24.55427 H 69.525815 57.444156 Z m 27.310484,11.67449 c 0,-5.93395 -0.453869,-21.35998 -1.008629,-34.28005 l -1.008645,-23.49106 8.812008,-1.10987 c 4.846605,-0.61041 9.070053,-0.84962 9.385413,-0.53158 0.31535,0.31806 1.32761,11.80309 2.24943,25.52228 0.92182,13.7192 2.06539,28.5584 2.54129,32.976 l 0.86525,8.03197 -6.66509,1.01573 c -3.665803,0.55865 -8.578949,1.38469 -10.918066,1.83562 l -4.252961,0.81995 z m -68.704348,3.40314 c -3.338453,-1.23277 -6.32511,-2.49867 -6.637017,-2.81309 -0.8011076,-0.80758 5.646018,-63.73913 6.631645,-64.73271 1.796372,-1.81085 6.107161,2.78721 6.585749,7.02464 0.280743,2.48589 1.943349,6.07188 3.69464,7.96888 2.956448,3.20248 3.110029,4.65187 2.147478,20.26702 -1.632965,26.49104 -2.735186,34.75593 -4.619189,34.63654 -0.953374,-0.0603 -4.46486,-1.11851 -7.803306,-2.35128 z m 94.325285,-7.28265 c -0.93162,-9.90686 -3.95174,-51.9405 -3.96323,-55.15942 -0.005,-1.53992 13.67976,-6.14383 14.66135,-4.93227 0.20516,0.25295 1.52973,13.08784 2.94389,28.52196 1.41413,15.43411 2.88014,29.9705 3.25775,32.30316 0.63635,3.93106 0.10407,4.41553 -7.27902,6.62576 -4.38104,1.31152 -8.13179,2.38458 -8.33501,2.38458 -0.20318,0 -0.78179,-4.3847 -1.28573,-9.74377 z M 31.056285,116.48998 C 27.905211,113.31351 27.83953,106.419 30.890224,99.058778 c 2.202781,-5.314502 2.154909,-5.872605 -0.773266,-9.014645 -1.716786,-1.842182 -3.121428,-5.24333 -3.121428,-7.558161 0,-2.750856 -1.683544,-5.725102 -4.860197,-8.586344 -4.351229,-3.919168 -4.698964,-4.855614 -3.320555,-8.942277 1.340213,-3.973387 0.968133,-5.228025 -2.872446,-9.685651 -6.1841996,-7.177848 -6.1413196,-15.981197 0.108541,-22.281455 2.486347,-2.506381 5.98326,-4.557067 7.770931,-4.557067 1.945359,0 3.784577,-1.408297 4.581066,-3.507744 3.143915,-8.287004 12.562497,-12.281424 20.063831,-8.509089 4.34121,2.183145 4.803683,2.101649 8.091086,-1.425856 7.633145,-8.1906246 22.450149,-7.7648703 29.642546,0.851741 3.366074,4.032597 4.425206,4.387682 10.894835,3.652582 8.207282,-0.932538 14.345522,2.092868 15.802812,7.788828 0.49081,1.918414 3.10846,4.540365 5.81699,5.826538 2.70852,1.286172 5.73121,4.004571 6.71705,6.040898 3.60764,7.451766 -3.99053,17.51409 -11.42819,15.134418 -1.86166,-0.59562 -3.82391,-0.0496 -5.01323,1.394988 -2.43831,2.961704 -10.842745,3.086696 -14.733005,0.219122 -2.583918,-1.904629 -3.248881,-1.736883 -5.732617,1.446139 -4.014078,5.144215 -12.430599,7.655832 -18.503569,5.52171 -2.653295,-0.932409 -4.999548,-1.695278 -5.213907,-1.695278 -0.214341,0 -1.826866,2.455429 -3.583383,5.456496 -1.915559,3.272815 -4.401751,5.456495 -6.212398,5.456495 -6.69348,0 -7.911276,1.573625 -7.911276,10.222841 0,5.961775 -0.692902,8.721134 -2.437024,9.705045 -2.062453,1.163524 -2.200151,2.673032 -0.895887,9.821238 1.117102,6.12244 1.039831,9.51875 -0.280866,12.3439 -2.20409,4.71495 -8.824955,5.94626 -12.43039,2.31176 z m 18.2017,-14.10083 c -0.605362,-2.431368 0.04567,-6.318451 1.663177,-9.935058 l 2.657596,-5.941035 24.984998,-0.822648 c 14.681814,-0.483418 28.383994,-1.770163 33.227484,-3.120302 9.17012,-2.55619 8.76703,-2.89345 10.2955,8.614987 0.91575,6.894933 0.71444,7.510623 -2.90978,8.899646 -8.69205,3.33138 -32.192184,6.28879 -50.009031,6.29348 l -18.915523,0.005 z M 114.46617,90.942789 c -1.32792,-2.165932 -5.01257,-2.213346 -6.3197,-0.08126 -0.54874,0.895016 -0.12758,2.684099 0.93578,3.975755 1.69157,2.054649 2.2148,2.06482 4.18244,0.08126 1.23697,-1.246934 1.77763,-3.036017 1.20148,-3.975755 z M 19.649513,100.0986 c -2.855345,-1.156938 -3.475439,-2.607763 -3.456009,-8.085922 0.01286,-3.671799 0.631159,-7.642793 1.373628,-8.824462 1.677838,-2.670365 4.788809,-0.933806 4.788809,2.673104 0,1.473511 0.954777,4.062906 2.121732,5.754245 1.411031,2.045077 1.686734,4.250095 0.823096,6.582873 -0.714242,1.929282 -1.495037,3.463292 -1.735091,3.408922 -0.240061,-0.0541 -2.002333,-0.73327 -3.916165,-1.50876 z M 52.513264,79.8802 c -0.525701,-0.857448 -0.218776,-1.559017 0.682006,-1.559017 0.900782,0 1.637792,0.701569 1.637792,1.559017 0,0.857448 -0.306876,1.558992 -0.68199,1.558992 -0.375081,0 -1.112109,-0.701544 -1.637808,-1.558992 z m 6.959396,0.473546 c 0,-0.596993 1.756665,-3.640763 3.903724,-6.763957 3.601994,-5.23959 4.34909,-5.606168 9.665815,-4.742663 5.341731,0.86757 5.797083,1.361009 6.242068,6.763958 l 0.479994,5.828133 H 69.618469 c -5.580187,0 -10.145809,-0.488479 -10.145809,-1.085471 z m 24.744465,-5.636855 c 0,-5.544119 0.745417,-7.26455 4.252963,-9.816053 2.339117,-1.701534 5.510365,-2.826691 7.047199,-2.500325 3.190568,0.677587 5.711673,6.287394 5.711673,12.709305 0,3.65911 -0.79602,4.541137 -4.832911,5.35501 -10.925377,2.202701 -12.178924,1.611068 -12.178924,-5.747937 z m 21.630305,0.270101 c -0.0115,-2.024683 -0.42699,-5.206609 -0.923,-7.070902 -0.70728,-2.658223 0.11488,-3.919766 3.81063,-5.846256 7.59402,-3.958704 9.0118,-3.253895 9.95469,4.948647 0.46819,4.072877 0.38467,7.876825 -0.18554,8.453201 -0.57018,0.576376 -3.64649,1.531371 -6.8362,2.122256 -5.3617,0.99321 -5.80108,0.796422 -5.8206,-2.606946 z"
       id="path1" /></g></svg>
