<?xml version="1.0" encoding="UTF-8" standalone="no"?>
<!-- Created with Inkscape (http://www.inkscape.org/) -->

<svg
   width="180mm"
   height="180mm"
   viewBox="0 0 180 180"
   version="1.1"
   id="svg1"
   sodipodi:docname="place_warehouses.svg"
   inkscape:version="1.4.2 (f4327f4, 2025-05-13)"
   xml:space="preserve"
   xmlns:inkscape="http://www.inkscape.org/namespaces/inkscape"
   xmlns:sodipodi="http://sodipodi.sourceforge.net/DTD/sodipodi-0.dtd"
   xmlns="http://www.w3.org/2000/svg"
   xmlns:svg="http://www.w3.org/2000/svg"><sodipodi:namedview
     id="namedview1"
     pagecolor="#505050"
     bordercolor="#ffffff"
     borderopacity="1"
     inkscape:showpageshadow="0"
     inkscape:pageopacity="0"
     inkscape:pagecheckerboard="1"
     inkscape:deskcolor="#505050"
     inkscape:document-units="mm"
     inkscape:zoom="1"
     inkscape:cx="73"
     inkscape:cy="204"
     inkscape:window-width="2560"
     inkscape:window-height="1351"
     inkscape:window-x="-9"
     inkscape:window-y="-9"
     inkscape:window-maximized="1"
     inkscape:current-layer="layer1"
     showguides="true" /><defs
     id="defs1"><rect
       x="101.82338"
       y="91.923881"
       width="384.66609"
       height="299.81327"
       id="rect3" /><rect
       x="2.8284271"
       y="2.1213203"
       width="662.55905"
       height="647.0027"
       id="rect2" /></defs><g
     inkscape:label="Icon"
     inkscape:groupmode="layer"
     id="layer1"><path
       style="fill:#000000;stroke-width:4.03587"
       d="m 16.206316,118.96631 0.277499,-53.930104 7.224435,-4.079972 7.224395,-4.079972 v 4.209104 c 0,3.966544 -0.184865,4.209105 -3.210856,4.209105 h -3.210855 v 53.800979 53.80094 H 20.219977 15.92906 Z m 11.515352,5.45594 V 75.948116 h 2.675719 2.67572 v 48.474134 48.47414 h -2.67572 -2.675719 z m 13.913734,26.10149 v -22.37268 l 17.927273,0.0121 c 9.859986,0.008 19.733361,0.30884 21.940852,0.67208 l 4.013539,0.66036 v 21.70056 21.70061 H 63.576214 41.635402 Z m 39.091371,-4e-4 0.02427,-17.04548 -17.150519,0.002 -17.150559,0.002 -0.313097,17.04423 -0.313096,17.04419 17.437686,-4.1e-4 17.437645,-4e-4 z m -32.66966,13.54372 c 0,-0.75446 2.384265,-3.70936 5.298366,-6.56646 4.583221,-4.49354 5.529508,-5.00375 7.01089,-3.77995 1.526203,1.26084 1.15785,1.97536 -3.385121,6.56646 -4.900605,4.95258 -8.924135,6.65683 -8.924135,3.77995 z m 8.128814,-0.87392 c 1.121402,-1.23516 3.286823,-3.13119 4.812056,-4.21346 l 2.773167,-1.96771 4.133317,4.21342 4.133317,4.21345 H 63.092411 54.147038 Z M 62.20935,152.56808 C 50.09232,140.13819 47.038457,136.26744 48.332427,134.97942 c 0.336558,-0.33502 1.495743,-0.12926 2.576289,0.45717 2.969076,1.611 28.186639,27.34648 28.186639,28.76553 0,0.68021 -0.976302,1.23672 -2.169547,1.23672 -1.367187,0 -6.810048,-4.76026 -14.716458,-12.87076 z m -14.152237,-2.04434 c 0,-4.68762 0.400876,-8.52294 0.891151,-8.52294 1.073184,0 7.671103,8.01338 7.671103,9.31683 0,1.08323 -6.715876,7.72901 -7.8105,7.72901 -0.413497,0 -0.751754,-3.83531 -0.751754,-8.5229 z m 25.481065,3.84998 -3.951809,-4.60307 4.219357,-4.10111 4.219357,-4.10115 v 3.7963 c 0,2.08794 0.30622,6.02058 0.680601,8.73913 0.374178,2.71854 0.254036,4.92712 -0.267386,4.90787 -0.521504,-0.0201 -2.726487,-2.1063 -4.899958,-4.63797 z m -7.162543,-7.43041 c -0.945519,-1.13405 -0.0623,-2.5086 4.106254,-6.38978 4.622782,-4.30421 8.613466,-6.30288 8.613466,-4.31396 0,1.10168 -3.612865,5.24752 -7.63053,8.7562 -3.175217,2.77295 -4.104474,3.12858 -5.08919,1.94754 z m -7.080549,-7.07325 -4.180402,-4.26145 h 8.46153 8.46157 l -4.180403,4.26145 c -2.299235,2.34383 -4.225749,4.26149 -4.281167,4.26149 -0.05542,0 -1.981892,-1.91766 -4.281128,-4.26149 z m 53.514274,32.32776 c -2.35466,-0.18724 -8.7362,-0.63081 -14.181284,-0.98571 l -9.900155,-0.6453 v -20.30693 -20.30692 l 13.646149,0.69277 c 7.50537,0.38091 16.41551,0.69471 19.80027,0.69708 l 6.15416,0.004 v 20.77465 20.77462 l -5.61903,-0.17919 c -3.09043,-0.0986 -7.5455,-0.33219 -9.90011,-0.51951 z m 11.23797,-20.60872 v -15.98049 l -9.90011,-0.008 c -5.44509,-0.004 -12.42871,-0.31166 -15.519144,-0.6811 l -5.618987,-0.67179 v 16.07805 16.07801 l 6.689259,0.3781 c 3.679122,0.20817 10.662712,0.47062 15.519142,0.58353 l 8.82984,0.20535 z m -21.23145,13.11304 c -1.01683,-0.40367 -0.41196,-1.61494 2.08901,-4.18346 l 3.52023,-3.61526 4.06511,3.95124 c 7.4301,7.22195 4.2035,2.46849 -6.37017,-9.38459 -10.46106,-11.72689 -12.451203,-14.79611 -9.59422,-14.79611 1.352423,0 25.41238,25.36794 26.23909,27.66554 0.3495,0.97138 -17.59403,1.29753 -19.94905,0.3628 z m -7.666248,-1.45605 c 0,-0.62006 2.139047,-3.37669 4.753401,-6.12584 3.572737,-3.75696 5.059497,-4.69612 5.985727,-3.78112 1.61224,1.59259 0.0413,4.5566 -4.37538,8.25602 -3.421694,2.86592 -6.363748,3.62919 -6.363748,1.65094 z m 22.790498,-7.78842 -3.43152,-4.39622 3.43152,-3.53686 3.43152,-3.53691 0.33049,3.77254 c 0.18163,2.0749 0.18163,5.64482 0,7.93313 l -0.33049,4.16054 z M 95.149632,151.2654 c 0,-4.50957 0.247565,-8.19924 0.550225,-8.19924 0.968293,0 6.877843,6.88207 6.910403,8.0476 0.0162,0.61752 -1.65431,2.74907 -3.714636,4.73679 l -3.745992,3.61405 z m 16.261918,-3.09189 c -1.00753,-1.0029 -0.30096,-2.28875 3.21963,-5.85952 7.41945,-7.52511 10.11042,-5.57431 3.45794,2.50683 -4.12345,5.00902 -4.71514,5.30611 -6.67757,3.35269 z m -6.61382,-6.68944 c -1.98836,-2.04204 -3.30875,-4.01788 -2.93416,-4.39074 0.37458,-0.37286 3.88542,-0.33622 7.80184,0.0813 l 7.12076,0.75905 -3.53621,3.63169 c -1.94492,1.99743 -3.82892,3.63169 -4.18659,3.63169 -0.3576,0 -2.27723,-1.67079 -4.26564,-3.71283 z m 42.7959,-17.06182 c 0,-28.727345 0.40047,-48.474134 0.98274,-48.474134 4.47663,0 4.36866,-1.213893 4.36866,49.120804 v 47.82747 h -2.67568 -2.67572 z m 8.56226,-5.3268 V 65.294471 h -3.21086 c -3.03711,0 -3.21085,-0.232736 -3.21085,-4.298938 0,-4.862779 -0.34142,-4.912507 9.09743,1.325067 l 5.35143,3.536424 0.2775,53.519676 0.2775,53.51969 h -4.29104 -4.29103 z m -25.66302,31.34764 c -0.0243,-19.32343 0.0364,-19.84451 2.45331,-22.10632 1.36242,-1.27405 2.80731,-2.31645 3.21086,-2.31645 1.1333,0 0.86716,33.63092 -0.28802,36.4194 -0.56207,1.35656 -1.99625,3.66496 -3.18707,5.12987 l -2.16509,2.66338 z M 104.7822,128.34724 c 0,-0.47808 1.8717,-1.91629 4.15929,-3.1961 3.39758,-1.90079 5.79871,-2.31319 13.11101,-2.25203 4.92341,0.0411 9.81613,0.41454 10.87265,0.82972 1.69448,0.6658 1.54186,1.03382 -1.2945,3.1212 -2.86543,2.10876 -4.50187,2.36638 -15.03198,2.36638 -6.49905,0 -11.81647,-0.39098 -11.81647,-0.86917 z m -22.475989,-1.44635 c -6.180902,-0.51499 -13.284912,-1.19292 -15.78669,-1.50642 l -4.548715,-0.57009 V 105.01599 85.207598 l 13.646146,0.692773 c 7.505372,0.380915 15.933852,0.694706 18.729997,0.697082 l 5.083851,0.004 v 20.774647 20.77461 l -2.943308,-0.15704 c -1.618797,-0.0862 -8.00038,-0.57824 -14.181281,-1.09325 z M 95.36079,107.64277 C 95.538778,99.292978 95.44412,92.155018 95.149632,91.780667 94.855144,91.406195 88.232914,90.885357 80.433215,90.622945 L 66.251933,90.145836 v 15.656504 15.65651 l 8.802133,0.21139 c 4.841181,0.11597 9.015273,0.42336 9.275782,0.68271 0.260509,0.25931 2.776202,0.47147 5.590348,0.47147 h 5.116617 z m -5.88528,11.29467 C 76.00092,103.62653 67.357519,93.391541 67.3415,92.727638 c -0.07039,-2.924182 4.512188,0.833824 14.092855,11.556722 12.495537,13.98527 13.299434,15.11847 11.790868,16.62015 -0.721133,0.71778 -1.957823,0.0688 -3.749713,-1.96707 z m -12.912756,0.80584 -4.138009,-0.64783 4.260092,-3.39626 4.260092,-3.39626 3.35636,3.44699 c 1.846015,1.89584 3.356361,3.7837 3.356361,4.19525 0,0.84849 -4.962415,0.75821 -11.094896,-0.20173 z m -9.240509,-1.4914 c 0,-0.75692 2.1653,-3.49157 4.811854,-6.077 3.760878,-3.67405 5.094288,-4.41961 6.105055,-3.41349 1.010727,1.00612 0.261723,2.3334 -3.429295,6.07699 -4.699317,4.76627 -7.487614,6.03742 -7.487614,3.4135 z m 22.743536,-7.39727 c -1.913123,-1.9688 -3.478403,-4.06641 -3.478403,-4.66129 0,-1.46024 6.243602,-7.339522 6.99746,-6.589132 0.328873,0.32736 0.454395,3.798142 0.278713,7.712702 l -0.319164,7.11739 z m -22.743536,-5.8596 v -8.240913 l 4.511702,4.490953 4.511702,4.49097 -3.651374,3.74995 c -2.008267,2.0625 -4.038539,3.74996 -4.511702,3.74996 -0.473205,0 -0.860328,-3.7084 -0.860328,-8.24092 z m 15.893725,-1.34738 c -0.08818,-0.58594 -0.208731,-1.43773 -0.267386,-1.89289 -0.05866,-0.45513 1.961059,-2.687292 4.488725,-4.960377 3.486858,-3.135739 4.895346,-3.834673 5.837467,-2.896883 0.942161,0.937831 0.102343,2.391708 -3.480709,6.025778 -4.754048,4.821742 -6.282152,5.686972 -6.577895,3.724372 z m -6.389148,-7.618357 -3.543813,-4.453921 4.244033,0.697605 c 2.334226,0.383733 5.568503,0.702839 7.18734,0.709282 3.7754,0.01611 3.62043,0.922811 -0.777482,4.55535 l -3.566223,2.945551 z M 43.775945,126.63989 c 0,-1.57621 7.875627,-4.88102 11.631893,-4.88102 4.003709,0 4.422384,0.25206 4.422384,2.66338 0,2.60423 -0.178392,2.66342 -8.027118,2.66342 -4.414942,0 -8.027159,-0.20052 -8.027159,-0.44578 z m 57.795395,-19.6535 V 86.887125 l 5.61903,-2.159777 c 3.09043,-1.187881 5.91469,-1.851341 6.27609,-1.474372 0.36123,0.376888 0.42296,8.849777 0.13672,18.828484 l -0.52029,18.14308 -5.20824,3.43056 c -2.86455,1.88682 -5.45463,3.43057 -5.75579,3.43057 -0.30137,0 -0.5476,-9.04467 -0.5476,-20.09928 z m 6.6893,11.6375 2.94327,-1.46853 v -14.74409 c 0,-8.109279 -0.2868,-14.744116 -0.63748,-14.744116 -0.35072,0 -2.03634,0.991465 -3.74599,2.203264 l -3.10851,2.203304 v 14.398638 c 0,7.91928 0.36123,14.22349 0.80272,14.0094 0.44149,-0.21422 2.1272,-1.05018 3.74599,-1.85787 z m -2.40813,-13.87342 c 0,-11.656534 0.18325,-12.844415 2.14054,-13.887219 2.08452,-1.11049 2.14059,-0.810188 2.14059,11.468459 0,11.9682 -0.72211,15.16567 -3.42493,15.16567 -0.4709,0 -0.8562,-5.73611 -0.8562,-12.74691 z M 73.20878,83.466465 66.787069,82.820078 71.603372,81.248504 c 4.9216,-1.605961 24.046405,-1.8482 34.236558,-0.433663 l 4.80376,0.666802 -4.26858,1.478681 c -4.3963,1.522893 -20.607526,1.770286 -33.16633,0.506141 z M 27.721668,71.162566 v -2.671998 h 62.686133 62.686129 l -0.34222,2.397064 -0.34222,2.397063 -62.344113,0.275015 -62.344114,0.275015 z M 171.13989,64.97927 C 169.62291,63.589818 144.85663,48.341846 108.15227,26.199403 99.115681,20.747937 91.092082,16.287655 90.322043,16.287655 c -1.378757,0 -19.054905,10.497776 -60.829278,36.12619 C 17.810713,59.580754 7.6076157,65.198155 6.8192116,64.897007 6.0307671,64.595819 4.890069,63.427547 4.284264,62.300789 3.0630265,60.029396 -1.3947938,62.961591 60.43449,25.366948 l 30.037103,-18.2637205 3.6769,2.34198 c 2.022262,1.2881025 12.346187,7.6104365 22.941987,14.0497025 10.59585,6.439226 26.08983,15.961402 34.43114,21.160441 8.3413,5.199039 17.37183,10.759383 20.06785,12.356284 5.45641,3.232015 5.71858,3.850458 3.02887,7.144401 -1.60752,1.968554 -2.10058,2.085245 -3.47845,0.823234 z M 34.143379,60.059031 c 0,-5.168799 0.0716,-5.279248 5.619027,-8.674983 3.090431,-1.891728 6.702648,-4.145324 8.027118,-5.008059 l 2.408132,-1.568514 V 55.050973 65.294471 H 42.170538 34.143379 Z M 53.408511,54.258945 V 43.223459 l 5.619028,-3.706225 c 3.09043,-2.038415 6.702648,-4.280536 8.027118,-4.982489 L 69.462789,33.25852 V 49.276495 65.294471 H 61.43567 53.408511 Z M 72.673644,48.404902 V 31.515374 l 7.4792,-4.950438 c 4.113536,-2.722774 7.725753,-4.950479 8.027118,-4.950479 0.301366,0 0.547959,9.827995 0.547959,21.840007 V 65.294471 H 80.700803 72.673644 Z M 91.938777,43.36757 v -21.9269 l 4.013579,2.421062 c 2.207451,1.331589 5.819664,3.534048 8.027164,4.894388 l 4.01353,2.473366 v 17.032513 17.032472 h -8.027114 -8.027159 z m 19.265133,5.883518 c 0,-12.543319 0.29166,-15.872012 1.33786,-15.257959 0.73582,0.431972 4.34803,2.660603 8.02716,4.952532 l 6.68926,4.167107 V 54.20362 65.294471 h -8.02712 -8.02716 z m 19.26513,5.884926 V 44.977558 l 2.37371,1.264507 c 1.3055,0.695471 4.91772,2.88444 8.02712,4.86439 5.5808,3.553537 5.65345,3.667892 5.65345,8.893909 v 5.294107 h -8.02712 -8.02716 z"
       id="path1" /></g></svg>
