<?xml version="1.0" encoding="UTF-8" standalone="no"?>
<!-- Created with Inkscape (http://www.inkscape.org/) -->

<svg
   width="180mm"
   height="180mm"
   viewBox="0 0 180 180"
   version="1.1"
   id="svg1"
   sodipodi:docname="place_granary.svg"
   inkscape:version="1.4.2 (f4327f4, 2025-05-13)"
   xml:space="preserve"
   xmlns:inkscape="http://www.inkscape.org/namespaces/inkscape"
   xmlns:sodipodi="http://sodipodi.sourceforge.net/DTD/sodipodi-0.dtd"
   xmlns="http://www.w3.org/2000/svg"
   xmlns:svg="http://www.w3.org/2000/svg"><sodipodi:namedview
     id="namedview1"
     pagecolor="#505050"
     bordercolor="#ffffff"
     borderopacity="1"
     inkscape:showpageshadow="0"
     inkscape:pageopacity="0"
     inkscape:pagecheckerboard="1"
     inkscape:deskcolor="#505050"
     inkscape:document-units="mm"
     inkscape:zoom="1"
     inkscape:cx="73"
     inkscape:cy="204"
     inkscape:window-width="2560"
     inkscape:window-height="1351"
     inkscape:window-x="-9"
     inkscape:window-y="-9"
     inkscape:window-maximized="1"
     inkscape:current-layer="layer1"
     showguides="true" /><defs
     id="defs1"><rect
       x="101.82338"
       y="91.923881"
       width="384.66609"
       height="299.81327"
       id="rect3" /><rect
       x="2.8284271"
       y="2.1213203"
       width="662.55905"
       height="647.0027"
       id="rect2" /></defs><g
     inkscape:label="Icon"
     inkscape:groupmode="layer"
     id="layer1"><path
       style="fill:#000000;stroke-width:4.16765"
       d="m 109.49826,173.12371 c -2.16561,-0.55838 -4.95418,-0.79976 -6.19682,-0.5364 -3.775069,0.80005 -5.729955,-1.02149 -4.243934,-3.95444 0.69728,-1.37619 1.575394,-6.63628 1.951444,-11.68914 1.21117,-16.275 6.78852,-23.23768 18.61431,-23.23768 12.21966,0 16.71913,5.68787 18.00476,22.75994 0.46767,6.21083 1.46089,11.99923 2.20715,12.86309 1.96267,2.27199 0.44995,3.82262 -3.68106,3.77335 -1.97631,-0.0245 -7.89646,0.20017 -13.15585,0.49686 -5.25934,0.29698 -11.33434,0.0829 -13.5,-0.47558 z m 34.02214,-6.18305 c -0.82671,-0.55393 -1.83358,-5.19473 -2.42082,-11.15801 -0.55297,-5.61528 -1.89327,-11.99837 -2.97846,-14.18463 -1.84655,-3.7202 -1.85292,-4.15113 -0.0999,-6.72161 2.70144,-3.96106 8.31604,-6.4146 14.87428,-6.50005 4.62921,-0.0605 6.5147,0.51503 9.96313,3.04034 5.61596,4.11257 7.29426,8.3644 7.97704,20.20922 0.31209,5.40984 1.06801,10.73546 1.68033,11.83465 0.61233,1.09923 0.68427,2.25332 0.15988,2.56468 -1.7772,1.05524 -27.73071,1.87011 -29.15555,0.91541 z m -54.351616,-6.48424 c -0.04379,-0.44584 -0.01276,-8.97437 0.06761,-18.95227 l 0.147118,-18.14168 -7.564595,-7.52788 -7.564637,-7.52787 h 4.185512 c 3.279842,0 4.902053,0.75372 7.497073,3.48336 l 3.311562,3.48332 v -3.48332 c 0,-3.26044 0.252142,-3.48336 3.937494,-3.48336 h 3.937537 l -0.0085,19.18462 c -0.0043,10.55151 -0.330803,22.46757 -0.725216,26.48014 -0.702128,7.14266 -0.784489,7.29557 -3.929501,7.29557 -1.766778,0 -3.24808,-0.36479 -3.29179,-0.81063 z m -75.29554,-1.26737 c -5.766181,-0.49212 -7.2139342,-0.96692 -6.8464365,-2.24532 0.2563938,-0.89167 0.8545609,-5.8469 1.3294209,-11.01164 0.9687264,-10.5355 2.0259366,-13.18519 6.8314276,-17.12142 l 3.337456,-2.73376 -2.345727,-2.86501 c -2.842357,-3.47156 -2.036013,-4.09889 6.083378,-4.73292 6.942786,-0.54212 8.378166,0.56593 6.086907,4.69877 -1.165253,2.10189 -1.211174,2.88159 -0.189213,3.21142 0.742394,0.23938 2.640813,1.41116 4.218762,2.60361 2.799242,2.11546 2.868932,2.49316 2.868932,15.54914 v 13.38102 l -4.21872,1.12563 c -4.377488,1.16794 -5.052318,1.17345 -17.156272,0.14052 z m 24.749993,-26.0234 v -25.93974 h 3.937494 c 3.685523,0 3.937537,0.22304 3.937537,3.48332 v 3.48336 l 3.311562,-3.48336 c 3.318407,-3.49051 5.049299,-4.06584 8.454744,-2.81036 1.446605,0.5333 0.415418,2.08376 -4.970468,7.4722 l -6.795838,6.79923 v 18.46755 18.46754 h -3.937537 -3.937494 z m 74.446123,-4.66315 c -3.52603,-3.60591 -3.05657,-4.6906 2.33518,-5.39559 4.70315,-0.61495 14.34373,0.13603 14.34373,1.11741 0,0.27574 -1.04697,1.91407 -2.3266,3.64055 -1.94438,2.62343 -3.1135,3.13912 -7.11639,3.13912 -3.55214,0 -5.42186,-0.64637 -7.23592,-2.50149 z m 22.30392,-3.0684 c 0,-5.23056 -0.35971,-5.93837 -5.90624,-11.61884 l -5.90628,-6.04895 3.21092,-0.35294 c 2.12343,-0.23325 4.09247,0.44277 5.81371,1.9963 l 2.6028,2.3492 0.37375,-2.53674 c 0.29169,-1.9791 1.1775,-2.61118 4.03006,-2.87539 3.63076,-0.3362 3.65623,-0.30515 3.65623,4.47785 0,3.28434 -0.53681,5.01446 -1.68748,5.43868 -2.06846,0.76255 -2.10855,3.60448 -0.0999,7.08752 1.37815,2.38984 1.23983,2.83127 -1.60852,5.1339 -1.71397,1.38555 -3.42292,2.51922 -3.79769,2.51922 -0.3746,0 -0.68134,-2.50643 -0.68134,-5.5699 z m 10.75128,-2.23634 c -2.44935,-3.35966 -2.18245,-5.13239 0.77998,-5.18076 1.39218,-0.0245 3.79688,-0.0568 5.34375,-0.0756 3.99222,-0.0486 10.125,1.27701 10.125,2.1887 0,0.42337 -1.17167,1.82726 -2.60378,3.1198 -3.65329,3.29733 -11.22409,3.26845 -13.64495,-0.0523 z m -102.157575,-18.93825 -9.843735,-0.3603 -10e-4,-2.93017 -9.78e-4,-2.930171 28.969734,0.301882 c 15.933407,0.16585 29.602597,0.515485 30.376031,0.77668 0.773433,0.261032 1.406254,1.706099 1.406254,3.210889 v 2.73593 l -20.531275,-0.22222 c -11.292169,-0.12214 -24.960934,-0.3844 -30.37501,-0.58248 z M 98.248271,102.484 c 0,-1.59045 0.632821,-3.083192 1.406254,-3.317263 0.773435,-0.23407 11.910915,-0.744532 24.749995,-1.134281 l 23.34378,-0.708707 v 2.640176 c 0,2.448795 -0.50972,2.687275 -7.03127,3.289655 -3.86717,0.35702 -15.00469,0.9808 -24.74999,1.38579 l -17.718769,0.73632 z M 86.1319,95.634194 82.453053,95.19665 l 0.304016,-22.356951 0.304016,-22.356991 5.906284,-0.3268 5.906241,-0.3268 V 73.12328 96.417452 l -2.53124,-0.172796 c -1.39218,-0.09518 -4.186745,-0.369692 -6.21013,-0.610503 z M 38.000281,93.953993 C 37.69669,93.193408 37.585714,83.101215 37.754517,71.526904 l 0.306567,-21.044196 5.343748,-0.329251 5.343748,-0.329251 v 22.756505 22.756504 h -5.097814 c -3.103045,0 -5.313942,-0.541099 -5.650145,-1.382895 z M 52.123241,72.639575 V 49.942304 h 14.062498 14.06254 V 72.639575 95.336847 H 76.873278 73.498277 V 81.286169 67.23549 h -7.875031 -7.874989 v 14.050679 14.050678 h -2.812508 -2.812508 z m 46.12503,1.260958 c 0,-11.789959 0.22663,-21.654209 0.504071,-21.92055 0.277228,-0.266342 2.555348,-0.296163 5.062478,-0.06659 l 4.55845,0.41765 v 21.5029 21.502941 h -5.06252 -5.062479 z m 13.500009,-0.180149 c 0,-23.604223 -0.28701,-22.674641 6.46873,-20.935207 2.51461,0.647431 2.53128,0.789425 2.53128,21.601675 v 20.949995 h -4.50003 -4.49998 z m 12.37501,0.540445 V 53.184771 h 4.49999 4.49999 v 20.420008 c 0,22.102537 0.10715,21.732068 -6.27948,21.732068 h -2.7205 z m 12.37498,0 V 54.265621 h 3.93749 3.93754 v 19.995208 19.995209 h -3.93754 -3.93749 z M 118.61074,49.413827 C 102.6457,48.3552 98.781468,47.781789 97.657162,46.304654 95.626804,43.636986 65.473534,11.032695 65.036814,11.032695 c -0.204945,0 -7.520544,8.511462 -16.256812,18.9144 -12.778657,15.216496 -16.423956,18.9144 -18.64544,18.9144 -1.518719,0 -2.761315,-0.391752 -2.761315,-0.870187 0,-0.772023 30.553806,-37.429327 34.275853,-41.1229007 1.23626,-1.2268067 5.705676,-0.742857 27.755116,3.0052923 14.454874,2.4571674 27.616124,4.7223804 29.247214,5.0337794 2.05081,0.391343 7.42981,5.446733 17.4375,16.387747 19.91491,21.772265 18.91123,19.758361 9.7544,19.572248 -4.21166,-0.08578 -16.4663,-0.739752 -27.23259,-1.453647 z M 40.661759,47.240894 c -0.795586,-0.78869 21.477635,-28.477748 22.99274,-28.583509 0.46406,-0.03268 0.843761,6.263896 0.843761,13.991773 v 14.050678 h -4.897462 c -2.693623,0 -7.882684,0.294529 -11.531257,0.654172 -3.648573,0.359888 -6.982075,0.308826 -7.407782,-0.113155 z M 67.656325,33.187602 c -0.190063,-7.431756 -0.04464,-13.511377 0.322725,-13.510274 0.698046,0.002 22.418384,23.315372 23.917373,25.671477 0.667389,1.049027 -1.907434,1.351031 -11.517566,1.351031 H 68.001755 Z"
       id="path1" /></g></svg>
