<?xml version="1.0" encoding="UTF-8" standalone="no"?>
<!-- Created with Inkscape (http://www.inkscape.org/) -->

<svg
   width="180mm"
   height="180mm"
   viewBox="0 0 180 180"
   version="1.1"
   id="svg1"
   sodipodi:docname="place_orchard.svg"
   inkscape:version="1.4.2 (f4327f4, 2025-05-13)"
   xml:space="preserve"
   xmlns:inkscape="http://www.inkscape.org/namespaces/inkscape"
   xmlns:sodipodi="http://sodipodi.sourceforge.net/DTD/sodipodi-0.dtd"
   xmlns="http://www.w3.org/2000/svg"
   xmlns:svg="http://www.w3.org/2000/svg"><sodipodi:namedview
     id="namedview1"
     pagecolor="#505050"
     bordercolor="#ffffff"
     borderopacity="1"
     inkscape:showpageshadow="0"
     inkscape:pageopacity="0"
     inkscape:pagecheckerboard="1"
     inkscape:deskcolor="#505050"
     inkscape:document-units="mm"
     inkscape:zoom="1"
     inkscape:cx="73"
     inkscape:cy="204"
     inkscape:window-width="2560"
     inkscape:window-height="1351"
     inkscape:window-x="-9"
     inkscape:window-y="-9"
     inkscape:window-maximized="1"
     inkscape:current-layer="layer1"
     showguides="true" /><defs
     id="defs1"><rect
       x="101.82338"
       y="91.923881"
       width="384.66609"
       height="299.81327"
       id="rect3" /><rect
       x="2.8284271"
       y="2.1213203"
       width="662.55905"
       height="647.0027"
       id="rect2" /></defs><g
     inkscape:label="Icon"
     inkscape:groupmode="layer"
     id="layer1"><path
       style="fill:#000000;stroke-width:4.05869"
       d="m 82.420862,154.59568 c 1.030499,-2.76395 2.571592,-14.45224 2.596265,-19.6909 l 0.01965,-4.43741 h 4.677811 4.677773 v 5.67265 c 0,5.65313 1.302847,14.76745 2.638108,18.45566 0.632113,1.74597 -0.104115,1.94135 -7.315881,1.94135 -7.219662,0 -7.946618,-0.19329 -7.294978,-1.94135 z M 35.630055,125.19797 c 1.373134,-4.68873 2.506059,-12.47495 2.568095,-17.64929 l 0.06208,-5.16919 4.583009,0.0738 4.583008,0.0738 0.477788,10.08731 c 0.26284,5.54801 0.82777,11.21048 1.255544,12.58329 0.758701,2.43493 0.59365,2.49606 -6.741325,2.49606 -7.321105,0 -7.49979,-0.0658 -6.788078,-2.49606 z m 94.586065,0 c 1.62847,-5.63237 2.55132,-11.68716 2.59407,-17.01915 l 0.0452,-5.64839 4.57794,-0.0738 4.5779,-0.0738 0.52175,9.60492 c 0.28681,5.28273 0.85425,10.97778 1.26058,12.65566 l 0.73882,3.05073 h -7.51901 c -7.31827,0 -7.49971,-0.0667 -6.79731,-2.49606 z m -47.776871,-0.51668 c -1.82287,-1.06065 -4.946035,-1.6993 -7.517195,-1.53708 -7.9432,0.50108 -16.911281,-7.67779 -16.911281,-15.42304 0,-1.36174 -1.333414,-4.09658 -2.963142,-6.07747 -5.144442,-6.252777 -5.107786,-16.580797 0.07976,-22.473033 1.648115,-1.872047 2.401905,-4.148155 2.489872,-7.518292 0.06954,-2.658366 1.015609,-6.487113 2.102801,-8.508298 2.181143,-4.055116 9.600273,-8.666954 13.9426,-8.666954 1.505419,0 3.627158,-1.049543 4.714939,-2.332291 5.975591,-7.046559 16.80811,-7.065427 22.674127,-0.03773 1.08915,1.304508 3.21199,2.371829 4.71741,2.371829 3.78093,0 11.48078,4.389451 13.8861,7.916022 1.09686,1.608193 2.24943,5.352245 2.56122,8.320125 0.31196,2.967837 1.65358,7.151505 2.98165,9.296965 1.32811,2.145501 2.69999,5.42315 3.04867,7.2837 0.88404,4.71703 -1.11292,11.76297 -4.21538,14.873397 -1.52715,1.53105 -2.61045,3.84992 -2.61045,5.58775 0,3.84485 -3.77626,9.77273 -8.29633,13.02345 -2.64384,1.9014 -4.81657,2.50605 -8.38122,2.33246 -3.11676,-0.15178 -5.686036,0.41886 -7.292466,1.61968 -3.166303,2.36676 -10.902885,2.34131 -15.011602,-0.0495 z m 18.140191,-10.2702 c 4.61605,-2.6364 3.24032,-11.11945 -1.804487,-11.12687 l -2.822056,-0.004 3.378382,-2.19821 c 1.858111,-1.209037 3.378421,-2.704817 3.378421,-3.323927 0,-1.60933 -2.721988,-1.39038 -4.352973,0.3501 -0.760587,0.81172 -1.963759,1.2692 -2.673703,1.01667 -0.763298,-0.2717 -1.061695,0.17777 -0.730178,1.099937 0.340632,0.94774 -0.474213,2.06227 -2.078324,2.84226 -2.023478,0.98393 -2.638933,2.10919 -2.638933,4.825 0,6.2467 5.144245,9.48883 10.343851,6.51911 z M 75.479912,99.665153 c 1.7307,-3.87222 0.747818,-7.30391 -2.465316,-8.60762 -1.798158,-0.72959 -2.305059,-1.55956 -1.824442,-2.98717 0.366169,-1.08728 0.295842,-1.6201 -0.156369,-1.18401 -0.452093,0.43606 -1.800122,0.0616 -2.995712,-0.83202 -2.700419,-2.01854 -3.790205,-2.05846 -3.790205,-0.13878 0,0.81726 1.286425,2.15125 2.858674,2.9644 l 2.858634,1.47843 -3.118528,0.64586 c -2.626596,0.54393 -3.171057,1.23017 -3.451498,4.35012 -0.465373,5.176767 2.237246,8.141377 7.02927,7.710607 2.842644,-0.25534 3.997255,-1.03197 5.055532,-3.399687 z m 37.029298,-11.43052 c 4.03811,-4.30941 2.78528,-10.46122 -2.13046,-10.46122 -3.25753,0 -3.17232,-1.790454 0.12729,-2.674256 1.42932,-0.382804 2.59874,-1.435366 2.59874,-2.338958 0,-2.371117 -2.75353,-2.019383 -4.45217,0.568754 -0.79839,1.216417 -1.83545,1.840391 -2.30463,1.386687 -0.46918,-0.453745 -0.51602,-0.199997 -0.10412,0.563807 0.47905,0.888247 -0.21019,1.777919 -1.91237,2.468558 -5.447629,2.210323 -2.44704,12.228198 3.6626,12.228198 1.58573,0 3.61753,-0.78372 4.51512,-1.74157 z M 88.182252,76.612802 c 0.626102,-1.248492 0.99341,-3.869333 0.816219,-5.824062 -0.245946,-2.711447 -0.876724,-3.638183 -2.661052,-3.908619 -2.648834,-0.401671 -2.920042,-1.306731 -1.039496,-3.469633 1.053483,-1.21168 0.996043,-1.381992 -0.303308,-0.899944 -0.881556,0.327039 -2.491247,-0.09895 -3.577104,-0.946108 -2.555366,-1.994057 -3.655917,-1.949739 -3.655917,0.147168 0,0.928288 1.260927,2.300929 2.80202,3.050268 l 2.802059,1.362495 -3.039087,0.561752 c -4.131544,0.76372 -5.705757,5.310024 -3.233133,9.337258 2.311738,3.765184 9.309735,4.13717 11.088917,0.589383 z M 36.181076,97.186953 c -1.429317,-0.87194 -4.610039,-1.60308 -7.068283,-1.62471 C 21.051177,95.491343 14.896587,90.122703 13.696676,82.114731 13.349758,79.79963 11.95085,76.795609 10.579169,75.420451 5.4396381,70.2677 5.2299159,58.716052 10.189034,53.92665 c 1.413995,-1.365598 2.083432,-3.417894 2.083432,-6.387241 0,-9.142795 6.113494,-16.358576 13.859623,-16.358576 2.668517,0 4.055756,-0.631898 4.84577,-2.20722 3.592151,-7.162951 17.148781,-7.376868 23.095416,-0.364355 0.976163,1.151094 3.281104,2.215396 5.122165,2.365079 7.632742,0.620704 13.771852,7.829692 13.167712,15.462616 -0.282877,3.573027 -0.730806,4.141278 -3.957181,5.019378 -8.108016,2.206717 -14.553144,10.894425 -14.553144,19.616891 0,2.464868 -0.426045,4.481567 -0.946775,4.481567 -2.184875,0 -5.290281,9.647824 -5.290281,16.435764 v 6.86053 l -4.417918,-0.0377 c -2.429839,-0.021 -5.587342,-0.75273 -7.016698,-1.62471 z m 2.257049,-12.37474 c 2.237521,-2.16097 2.507355,-7.339466 0.476177,-9.138432 -1.29774,-1.149375 -8.209066,-0.738354 -10.269672,0.610766 -1.414387,0.926024 -0.811347,6.268793 0.940764,8.334926 2.14209,2.526 6.342153,2.61744 8.852731,0.19287 z M 36.181076,72.031824 c 0,-0.575002 -0.471344,-0.734538 -1.047471,-0.354712 -0.576128,0.379869 -1.783268,-0.09434 -2.682583,-1.054072 -2.263413,-2.415476 -4.131072,-0.924598 -1.995897,1.593309 1.687207,1.989572 5.725951,1.859343 5.725951,-0.184483 z M 28.366664,61.548713 c 1.024999,-1.093861 1.565334,-3.164773 1.373645,-5.264531 -0.262054,-2.872158 -0.846904,-3.560659 -3.434565,-4.044425 -2.049447,-0.383223 -2.673074,-0.88267 -1.819138,-1.457001 1.773721,-1.193021 1.649608,-3.035509 -0.154797,-2.29661 -0.799757,0.327458 -1.762955,0.06205 -2.140361,-0.589509 -0.377563,-0.65173 -1.464284,-1.184972 -2.415185,-1.184972 -1.448097,0 -1.360994,0.392447 0.536407,2.417532 l 2.265338,2.417531 -2.284982,1.215704 c -2.942712,1.565637 -3.428122,4.446893 -1.326028,7.870614 1.972599,3.212823 6.805836,3.683676 9.399587,0.915667 z m 24.47409,-10.454515 c 0.627085,-1.250463 0.994393,-3.621664 0.81622,-5.269395 -0.283664,-2.622728 -0.8869,-3.076012 -4.844042,-3.639568 -6.809058,-0.969754 -9.513485,3.083601 -5.816079,8.717016 2.178667,3.319488 8.216413,3.437222 9.843901,0.192031 z M 51.198336,39.681542 c 1.045547,-0.815879 1.690429,-2.157535 1.433089,-2.98138 -0.351633,-1.125224 -1.012152,-0.917135 -2.655159,0.836297 -1.203015,1.283838 -2.460209,2.04303 -2.793691,1.687144 -0.333559,-0.355969 -0.606379,-0.06457 -0.606379,0.647118 0,1.732301 2.279325,1.639011 4.62214,-0.189095 z M 132.2992,97.678603 c -0.37324,-0.64481 -0.39579,-2.37648 -0.0495,-3.84812 0.83979,-3.57089 -1.08067,-12.353101 -3.49146,-15.966211 -1.06727,-1.599557 -2.26506,-5.218034 -2.66176,-8.04101 -1.25978,-8.96523 -7.22127,-16.230695 -15.07053,-18.367015 -3.18611,-0.867115 -3.6767,-1.46916 -3.9474,-4.844077 -0.55204,-6.882536 6.32659,-15.022286 13.30298,-15.74194 2.1516,-0.2218 4.87948,-1.606013 6.67579,-3.38716 3.69753,-3.666317 6.55483,-4.515319 12.706,-3.775414 3.28483,0.394962 5.69778,1.550458 7.99431,3.827698 1.8092,1.793935 4.59142,3.343849 6.18272,3.444224 7.24442,0.456975 13.33001,7.155531 13.58594,14.954279 0.0919,2.801761 0.91825,5.54545 2.07188,6.879225 5.38182,6.22242 4.99216,18.650574 -0.74408,23.731084 -0.85858,0.760408 -1.8813,2.970479 -2.27277,4.911246 -1.89614,9.400361 -7.00149,14.033961 -15.53426,14.098651 -2.90617,0.021 -6.08713,0.75747 -7.21538,1.66819 -2.32266,1.87478 -10.52292,2.19926 -11.53232,0.45635 z m 16.86351,-11.902 c 0.6789,-0.46066 1.72913,-2.22634 2.33382,-3.923713 0.9571,-2.686458 0.76066,-3.421206 -1.5167,-5.673624 -2.12889,-2.105545 -2.3216,-2.708135 -1.03447,-3.235213 0.86997,-0.356389 1.58176,-1.465638 1.58176,-2.465287 0,-1.201575 -0.55723,-1.589326 -1.64426,-1.144176 -0.90439,0.370225 -1.83993,0.673365 -2.07904,0.673365 -0.23926,0 -0.46761,1.123212 -0.5078,2.496063 -0.0695,2.381641 -0.11394,2.394345 -0.96646,0.277145 -0.49134,-1.220275 -0.92623,-1.844291 -0.96642,-1.386688 -0.0401,0.457603 0.044,1.072017 0.18701,1.365346 0.14301,0.293497 -0.79264,1.320022 -2.07903,2.281601 -2.51608,1.880726 -3.0517,5.893662 -1.26281,9.460821 1.09729,2.18806 5.55548,2.90218 7.95459,1.27419 z m 12.57897,-26.008911 c 1.99476,-4.463328 0.24673,-7.167731 -4.97684,-7.699337 -4.74409,-0.482802 -6.23772,0.56301 -6.23772,4.367564 0,5.008813 1.85968,7.072848 6.03778,6.701282 2.97831,-0.264986 4.12188,-1.009209 5.17678,-3.369509 z M 137.6239,50.602465 c 2.07333,-3.376887 1.19076,-8.323311 -1.62533,-9.109211 -1.26808,-0.353873 -1.73934,-1.159856 -1.33526,-2.283613 0.40165,-1.117006 0.20548,-1.460438 -0.54941,-0.962459 -0.64563,0.425822 -2.10716,0.152199 -3.24791,-0.608041 -3.01201,-2.007432 -4.15232,0.02096 -1.36665,2.431661 l 2.36116,2.042946 -2.36116,0.357647 c -1.82857,0.276725 -2.43581,1.187235 -2.69197,4.035452 -0.42817,4.760262 1.29613,6.860943 5.63166,6.860943 2.56971,0 3.93369,-0.727452 5.18487,-2.765283 z m 20.63187,-0.535295 c 1.46656,-0.595044 2.66643,-1.860601 2.66643,-2.81241 0,-1.465093 -0.3587,-1.518258 -2.33889,-0.346326 -1.28638,0.761204 -2.68973,1.277968 -3.11852,1.148368 -0.4288,-0.129558 -0.77965,0.513116 -0.77965,1.428322 0,1.965966 0.11394,1.984582 3.57063,0.582129 z"
       id="path1" /></g></svg>
