<?xml version="1.0" encoding="UTF-8" standalone="no"?>
<!-- Created with Inkscape (http://www.inkscape.org/) -->

<svg
   width="180mm"
   height="180mm"
   viewBox="0 0 180 180"
   version="1.1"
   id="svg1"
   sodipodi:docname="place_bakery.svg"
   inkscape:version="1.4.2 (f4327f4, 2025-05-13)"
   xml:space="preserve"
   xmlns:inkscape="http://www.inkscape.org/namespaces/inkscape"
   xmlns:sodipodi="http://sodipodi.sourceforge.net/DTD/sodipodi-0.dtd"
   xmlns="http://www.w3.org/2000/svg"
   xmlns:svg="http://www.w3.org/2000/svg"><sodipodi:namedview
     id="namedview1"
     pagecolor="#505050"
     bordercolor="#ffffff"
     borderopacity="1"
     inkscape:showpageshadow="0"
     inkscape:pageopacity="0"
     inkscape:pagecheckerboard="1"
     inkscape:deskcolor="#505050"
     inkscape:document-units="mm"
     inkscape:zoom="1"
     inkscape:cx="73"
     inkscape:cy="204"
     inkscape:window-width="2560"
     inkscape:window-height="1351"
     inkscape:window-x="-9"
     inkscape:window-y="-9"
     inkscape:window-maximized="1"
     inkscape:current-layer="layer1"
     showguides="true" /><defs
     id="defs1"><rect
       x="101.82338"
       y="91.923881"
       width="384.66609"
       height="299.81327"
       id="rect3" /><rect
       x="2.8284271"
       y="2.1213203"
       width="662.55905"
       height="647.0027"
       id="rect2" /></defs><g
     inkscape:label="Icon"
     inkscape:groupmode="layer"
     id="layer1"><path
       style="fill:#000000;stroke-width:4.48913"
       d="M 110.14393,171.59755 C 99.905949,169.66459 94.2941,167.37749 89.09744,163.02011 79.923245,155.32753 81.424072,145.77112 93.384072,135.725 l 7.624728,-6.40457 8.23083,0.554 c 4.52699,0.3046 9.49892,1.12304 11.04882,1.81856 2.78193,1.24838 2.75895,1.30799 -1.79404,4.66 -4.38663,3.22948 -9.64756,10.26358 -9.64756,12.89919 0,0.67501 3.89354,-1.76427 8.65232,-5.4206 4.75884,-3.65638 10.01801,-6.93531 11.68708,-7.28658 3.25649,-0.68533 7.86211,1.79067 18.43364,9.91001 5.11436,3.92801 5.59445,4.09746 4.69392,1.65649 -1.38679,-3.75915 -4.97253,-7.82877 -10.45298,-11.86357 l -4.64113,-3.41685 4.64995,-1.62914 c 2.5575,-0.89602 7.19921,-1.72214 10.31494,-1.83585 7.07468,-0.25814 14.56656,3.77263 20.15052,10.84138 14.56936,18.44347 -4.33565,33.10063 -42.34222,32.82818 -6.9932,-0.0502 -15.92526,-0.6973 -19.84896,-1.4381 z M 27.129617,161.57101 C 7.9878696,158.46021 -1.3262399,149.19236 4.4433208,138.99744 c 3.6072015,-6.37395 8.8256812,-9.37545 16.3003052,-9.37545 3.51229,0 6.385991,0.29638 6.385991,0.65869 0,0.36216 -1.459255,2.11286 -3.242756,3.89012 -5.042336,5.0247 -3.826486,5.78644 2.40351,1.50591 3.105439,-2.13374 6.525416,-3.87951 7.599978,-3.87951 1.074561,0 5.246227,1.47324 9.270379,3.27384 4.024152,1.8006 7.316667,2.87239 7.316667,2.38173 0,-1.21171 -7.80485,-7.83078 -9.233611,-7.83078 -0.628785,0 -1.143196,-0.42583 -1.143196,-0.94628 0,-0.52046 2.650886,-1.5686 5.890798,-2.32924 6.546006,-1.53678 8.584383,-1.03063 15.835603,3.93204 5.309469,3.63373 5.475563,1.71009 0.280908,-3.25099 -4.135927,-3.94983 -3.947968,-4.65514 1.340617,-5.02988 5.224705,-0.37037 6.079344,-0.13523 10.277287,2.82672 4.571655,3.22557 5.263338,2.09694 1.302475,-2.12523 l -2.68834,-2.86572 h 3.422184 c 4.187206,0 7.962414,1.56029 12.65555,5.23064 4.286475,3.35232 4.431741,4.65569 0.822381,7.3803 -4.744465,3.58156 -10.201153,12.66273 -10.214145,16.99877 -0.0098,3.35761 -0.650943,4.32761 -3.745743,5.66954 -10.321704,4.47556 -37.730109,8.15183 -48.1504,6.45835 z m 97.930963,-33.80583 c -2.8536,-0.90496 -6.06396,-1.88877 -7.13406,-2.18626 -3.78467,-1.05213 2.97288,-2.32977 12.32243,-2.32977 4.99385,0 10.24709,0.40243 11.67389,0.89444 l 2.59421,0.89444 -2.59421,0.73993 c -1.4268,0.40695 -4.51101,1.43837 -6.85378,2.29199 -2.34276,0.85363 -4.3857,1.50448 -4.53984,1.44635 -0.15394,-0.058 -2.61505,-0.84614 -5.46864,-1.75112 z m -99.876636,-2.45275 -5.188379,-0.738 6.100671,-2.39895 c 5.497573,-2.16182 6.711903,-2.26993 12.28321,-1.09362 l 6.182541,1.3054 -5.14916,1.90526 c -5.580032,2.06472 -6.446879,2.12683 -14.228883,1.01991 z m 23.023532,-5.95603 c -2.3186,-0.58327 -4.215592,-1.44869 -4.215592,-1.92315 0,-1.13126 13.134222,-1.08764 15.273444,0.0506 2.873259,1.52897 -6.269216,3.07706 -11.057852,1.87242 z M 5.9530218,107.15238 C 4.4804323,105.91761 4.9829798,98.596476 6.6354384,97.210877 7.813196,96.223322 28.131965,95.905738 90.139498,95.905738 c 90.825042,0 85.378212,-0.467677 84.618782,7.265562 l -0.40789,4.15446 -83.761585,0.27995 C 44.519973,107.75945 6.4339002,107.55551 5.9531199,107.15255 Z M 12.892447,79.319553 c 0.02941,-12.239455 1.201927,-20.701557 3.090389,-22.285036 0.414745,-0.347765 4.048517,-0.01234 8.075119,0.741568 l 7.32108,1.373792 -0.827627,8.209624 c -0.454945,4.515305 -0.827626,12.051268 -0.827626,16.74654 v 8.536834 h -8.431134 -8.431135 z m 20.722631,8.44977 c 0,-4.225419 0.410333,-4.959958 3.086024,-5.523041 1.697316,-0.357219 4.761722,-0.488884 6.809757,-0.292681 3.451353,0.330499 3.752705,0.734787 4.119112,5.523041 l 0.395135,5.16619 h -7.205088 -7.205136 z m 42.79975,3.443977 c -3.901199,-1.630834 -9.076537,-7.887797 -9.071145,-10.966992 0.0022,-1.25746 1.998325,-5.606281 4.435907,-9.664068 4.354819,-7.249447 4.466986,-7.335812 6.447957,-4.964356 1.996854,2.39049 2.042251,2.363729 4.77432,-2.815124 1.766735,-3.34902 2.489891,-6.353852 2.011611,-8.359006 -0.893515,-3.746071 0.236787,-3.919378 5.01346,-0.768781 4.190248,2.763741 8.37397,9.902406 8.414609,14.357735 0.02446,2.595367 0.344646,2.904039 1.897143,1.82375 1.02775,-0.71522 2.0596,-2.610494 2.29301,-4.211772 0.40543,-2.780348 0.61305,-2.669277 4.61685,2.46777 6.40296,8.215296 5.52067,16.925067 -2.23348,22.048713 -3.42268,2.261535 -5.383553,1.682053 -4.48348,-1.324957 0.4476,-1.495469 0.43093,-3.997564 -0.0392,-5.56016 -0.792667,-2.64819 -1.007353,-2.722059 -3.161224,-1.087648 -1.27095,0.96445 -3.024253,1.753538 -3.896254,1.753538 -1.855072,0 -5.32025,-6.435326 -5.398345,-10.025561 -0.04902,-2.262812 -0.443669,-2.112114 -4.465272,1.705402 -5.128864,4.868618 -6.523896,8.884063 -4.577685,13.176323 1.715259,3.78294 1.398759,4.079073 -2.581419,2.415194 z m 56.296222,-0.09825 c -0.38485,-0.840349 -0.51216,-3.165109 -0.28336,-5.166192 0.35394,-3.098104 0.96857,-3.691277 4.1394,-3.995138 2.04809,-0.196081 5.11249,-0.06454 6.80981,0.29268 2.67559,0.563082 3.08603,1.297622 3.08603,5.523042 v 4.873548 h -6.52626 c -4.40791,0 -6.75313,-0.49591 -7.22543,-1.527858 z m 17.55728,0.712177 c -0.049,-0.448641 -0.0441,-4.975868 0.002,-10.060462 0.049,-5.084635 -0.40592,-12.100145 -1.00911,-15.590038 -1.06942,-6.185848 -1.01245,-6.373008 2.26776,-7.451489 1.85056,-0.608463 5.4661,-1.356075 8.03452,-1.661375 3.70487,-0.440379 4.88772,-0.136887 5.72437,1.469612 0.57995,1.113586 1.31473,9.243749 1.63275,18.067058 l 0.57823,16.042424 h -8.57251 c -4.71485,0 -8.61105,-0.367087 -8.65817,-0.81573 z M 33.615078,74.153444 c 0,-5.413285 0.01961,-5.438032 4.215591,-5.423274 8.660322,0.02878 10.052512,0.874466 10.052512,6.093933 v 4.767413 h -7.134052 -7.134051 z m 98.579542,0.59309 c 0,-4.648944 0.17846,-4.873099 4.41032,-5.538784 7.82579,-1.231029 9.16527,-0.501998 9.60453,5.227359 l 0.39513,5.156407 h -7.20509 -7.20509 z M 37.830669,65.772528 c -3.289083,-0.531183 -3.64642,-2.512002 -1.451018,-8.043017 2.632256,-6.63157 4.021799,-7.112356 10.853616,-3.755238 4.532092,2.227048 5.812604,3.413269 5.153277,4.773661 -0.482398,0.995651 -1.458518,3.156188 -2.168733,4.801204 -1.321153,3.060039 -4.108669,3.560392 -12.387142,2.22339 z m 91.324261,-4.120761 -1.98641,-4.888309 5.54547,-2.725018 c 3.05004,-1.498757 5.9605,-2.725017 6.46776,-2.725017 1.35464,0 5.92217,8.863017 5.95536,11.555972 0.0196,1.726324 -0.99724,2.483185 -4.02493,2.990937 -8.61591,1.444867 -9.83411,1.016081 -11.95725,-4.208565 z M 24.859697,54.83279 C 16.806099,52.913551 16.454448,51.737976 21.437514,43.391919 28.830511,31.009533 43.535126,18.285469 47.36877,20.953307 c 0.931705,0.648378 3.233146,3.381083 5.114352,6.07268 l 3.42037,4.893818 -7.058849,5.618204 c -3.882324,3.090004 -8.932994,8.422021 -11.223699,11.84898 -2.290656,3.426959 -4.56685,6.419336 -5.058171,6.64974 -0.491321,0.230199 -3.957724,-0.311179 -7.703076,-1.203939 z m 121.871693,0.457849 c -0.63017,-0.692035 -3.31365,-4.300973 -5.96341,-8.019874 -2.64977,-3.7189 -7.48296,-8.671871 -10.74042,-11.006578 l -5.92271,-4.244985 3.45507,-4.943516 c 5.24211,-7.500366 5.99179,-7.751035 12.03584,-4.024037 8.42927,5.197844 22.4321,22.453781 22.4321,27.643444 0,2.94642 -13.19001,6.909124 -15.29647,4.595546 z m -98.54921,-4.14152 -5.537921,-3.247198 2.492635,-2.916658 c 1.370962,-1.604197 3.937771,-4.047139 5.703966,-5.428783 l 3.211282,-2.512043 4.049595,4.119364 c 2.227219,2.265689 4.049547,4.646025 4.049547,5.289677 0,0.643651 -1.897041,2.694105 -4.215591,4.556576 l -4.215543,3.386263 z m 73.16202,0.08509 c -1.87974,-1.239784 -3.41768,-3.028961 -3.41768,-3.975899 0,-2.325254 6.18906,-8.996574 8.34623,-8.996574 0.95077,0 3.87604,1.993027 6.50065,4.42894 5.25883,4.880827 4.96757,6.19892 -2.04126,9.237994 -4.68191,2.030105 -5.32977,1.982175 -9.38794,-0.694461 z M 61.835519,40.274824 c -1.919297,-2.481953 -3.177504,-4.936077 -2.796047,-5.453654 1.02142,-1.385754 10.464511,-5.260407 12.820468,-5.260407 2.011855,0 3.386445,2.145204 5.034099,7.856267 0.761347,2.639187 0.293165,3.202228 -4.298246,5.166192 -2.83404,1.212325 -5.629302,2.204234 -6.21171,2.204234 -0.582456,0 -2.629315,-2.030681 -4.548564,-4.512632 z m 45.389951,2.263344 c -2.6753,-1.184248 -4.86413,-2.299026 -4.86413,-2.477265 0,-2.47813 4.59199,-10.50014 6.01056,-10.50014 2.3787,0 11.70678,3.958471 12.78944,5.427302 0.94411,1.280891 -5.83653,9.76519 -7.77466,9.728071 -0.71339,-0.01234 -3.48596,-0.99376 -6.16121,-2.177968 z M 78.969283,32.98809 c -1.399542,-3.797783 -2.219571,-7.34613 -1.82218,-7.885247 0.397586,-0.539077 6.233084,-0.980195 12.968324,-0.980195 h 12.245913 l -0.0995,3.534783 c -0.0549,1.944109 -0.8034,5.492457 -1.66348,7.885248 l -1.563829,4.350466 H 90.274315 81.51413 Z M 54.407077,23.850768 c -2.147946,-3.140527 -3.910808,-5.986974 -3.917524,-6.325448 -0.01962,-1.076878 9.98025,-5.372754 17.680579,-7.5942117 10.143551,-2.9262777 22.882294,-3.7569248 33.668068,-2.195315 9.03178,1.307652 27.76221,7.9772467 27.76221,9.8856757 0,2.037998 -8.04247,11.939294 -9.69787,11.939294 -3.07127,0 -12.40646,-3.996291 -14.23966,-6.095867 -1.57124,-1.799536 -3.55187,-2.061305 -15.596723,-2.061305 -12.458031,0 -14.00999,0.221977 -15.991794,2.285627 -1.979744,2.061592 -11.399794,5.871545 -14.517293,5.871545 -0.684525,0 -3.002046,-2.56951 -5.149993,-5.709995 z"
       id="path1" /></g></svg>
