<?xml version="1.0" encoding="UTF-8" standalone="no"?>
<!-- Created with Inkscape (http://www.inkscape.org/) -->

<svg
   width="240mm"
   height="180mm"
   viewBox="0 0 240 180"
   version="1.1"
   id="svg1"
   sodipodi:docname="place_bridge.svg"
   inkscape:version="1.4.2 (f4327f4, 2025-05-13)"
   xml:space="preserve"
   xmlns:inkscape="http://www.inkscape.org/namespaces/inkscape"
   xmlns:sodipodi="http://sodipodi.sourceforge.net/DTD/sodipodi-0.dtd"
   xmlns="http://www.w3.org/2000/svg"
   xmlns:svg="http://www.w3.org/2000/svg"><sodipodi:namedview
     id="namedview1"
     pagecolor="#505050"
     bordercolor="#ffffff"
     borderopacity="1"
     inkscape:showpageshadow="0"
     inkscape:pageopacity="0"
     inkscape:pagecheckerboard="1"
     inkscape:deskcolor="#505050"
     inkscape:document-units="mm"
     inkscape:zoom="1"
     inkscape:cx="614"
     inkscape:cy="364"
     inkscape:window-width="2560"
     inkscape:window-height="1351"
     inkscape:window-x="-9"
     inkscape:window-y="-9"
     inkscape:window-maximized="1"
     inkscape:current-layer="layer1"
     showguides="true" /><defs
     id="defs1"><rect
       x="101.82338"
       y="91.923882"
       width="384.66608"
       height="299.81326"
       id="rect3" /><rect
       x="2.8284271"
       y="2.1213202"
       width="662.55902"
       height="647.00269"
       id="rect2" /></defs><g
     inkscape:label="Icon"
     inkscape:groupmode="layer"
     id="layer1"><path
       style="fill:#000000;stroke-width:5.16245"
       d="m 22.302448,169.10071 c 0,-2.37735 7.663835,-10.82833 13.508026,-14.89539 7.451243,-5.18548 16.741718,-8.66365 38.763642,-14.51249 13.740551,-3.64934 21.362322,-6.37446 24.406518,-8.72636 7.360306,-5.68643 5.900676,-8.87845 -8.090435,-17.69283 -16.089638,-10.13646 4.532394,-20.677125 50.065481,-25.59026 24.56954,-2.65111 30.03873,-2.84083 30.03873,-1.041975 0,1.089227 -4.03079,2.483748 -11.2451,3.890374 -21.74424,4.239641 -33.58851,11.752371 -27.73103,17.589581 1.15116,1.14718 9.0708,4.89791 17.59918,8.33503 16.93754,6.82617 21.37695,10.26254 21.37695,16.5471 0,3.43295 -1.6381,5.46005 -9.76258,12.08099 -13.24522,10.794 -13.27213,15.05845 -0.14147,22.42813 l 5.81735,3.265 H 94.605146 c -59.696231,0 -72.302698,-0.29241 -72.302698,-1.6769 z M 3.7785605,115.29339 c -0.5506319,-0.45544 -1.001299,-4.08882 -1.001299,-8.07419 V 99.973126 H 17.09744 31.417567 l -0.923813,6.521464 c -1.421653,10.03548 -0.831684,9.62693 -13.901589,9.62693 -6.496776,0 -12.2629146,-0.37264 -12.8136045,-0.82813 z m 30.5394185,-2.96945 c 0,-4.88217 2.971881,-14.672207 4.726125,-15.56889 1.579634,-0.807402 14.799056,3.142464 14.799056,4.42186 0,0.47644 -0.769118,4.03389 -1.709289,7.90544 l -1.709219,7.03917 h -8.053369 c -7.980303,0 -8.053304,-0.0342 -8.053304,-3.79758 z m 153.914401,0.38157 c -0.46321,-1.87882 -1.44071,-5.2701 -2.17175,-7.53618 -1.30307,-4.03918 -1.19342,-4.16831 5.58322,-6.570732 3.80186,-1.34782 7.71299,-2.196522 8.69136,-1.886016 2.06379,0.654999 5.20381,10.074898 5.20381,15.611348 0,3.77338 -0.0511,3.79756 -8.23207,3.79756 -7.77485,0 -8.27883,-0.18972 -9.07457,-3.41598 z m 22.80956,1.2908 c -0.40986,-1.22235 -1.18078,-4.87764 -1.71389,-8.12282 l -0.96921,-5.900364 h 14.43211 14.43213 l -0.44733,7.763664 -0.44731,7.76363 -12.27115,0.35921 c -10.72739,0.31399 -12.36483,0.0795 -13.01569,-1.86327 z M 2.7772615,88.215849 V 80.098188 H 22.209863 41.642406 l -4.257634,7.763654 -4.257691,7.763634 -15.174909,0.354007 -15.1749105,0.353984 z m 44.6827145,5.87818 c -6.654588,-2.257988 -6.894252,-3.698312 -1.809422,-10.874324 5.849012,-8.254459 6.812904,-8.564263 13.167706,-4.232016 3.046197,2.076652 5.538515,4.271238 5.538515,4.876859 0,2.041543 -8.224917,12.383129 -9.7517,12.261306 -0.832074,-0.06637 -4.047363,-0.98071 -7.145099,-2.031825 z M 179.42543,90.785083 c -2.15888,-3.046703 -3.92519,-6.080739 -3.92519,-6.742322 0,-0.661564 2.4922,-3.01257 5.53816,-5.224442 l 5.53815,-4.021608 3.29841,3.421177 c 1.81413,1.881636 4.77966,5.600895 6.59005,8.264997 l 3.29163,4.843818 -4.99395,1.690059 c -11.04469,3.737659 -11.1147,3.727486 -15.33726,-2.231679 z m 23.65699,-1.635507 c -2.11307,-3.953449 -4.15439,-7.60736 -4.53619,-8.119759 -0.38204,-0.512401 8.16428,-0.931629 18.9913,-0.931629 h 19.68555 l -0.44733,7.763654 -0.44731,7.763634 -14.70223,0.356119 -14.70215,0.356105 z M 62.455624,76.287732 C 59.370938,74.18479 56.84706,71.958919 56.84706,71.341341 c 0,-1.31925 14.663222,-11.118096 16.637376,-11.118096 1.425628,0 8.935743,9.214478 8.838605,10.844421 -0.0454,0.769159 -10.375214,7.453995 -13.484173,8.726502 -0.426326,0.174492 -3.298518,-1.403491 -6.383244,-3.506436 z m 100.728566,-0.838013 -7.05935,-4.490698 3.6356,-5.057347 c 1.99961,-2.78153 4.56924,-5.222111 5.71028,-5.423518 2.08929,-0.368731 14.31542,7.330603 16.41553,10.337659 0.73853,1.057438 -0.89524,2.942987 -4.72191,5.44963 -3.21819,2.108014 -6.09187,3.797241 -6.38605,3.753856 -0.29404,-0.04323 -3.71152,-2.099706 -7.5941,-4.569582 z M 2.7772615,68.354191 V 60.223245 H 13.36251 23.947759 l -0.447316,7.763639 -0.447318,7.763654 -10.138102,0.36729 -10.1381009,0.367274 z m 26.5342795,7.189318 c -0.550632,-0.455443 -1.001299,-4.088842 -1.001299,-8.074202 v -7.246062 h 17.440221 17.440221 l -8.804091,7.985446 c -8.564774,7.768404 -9.011581,7.987864 -16.438927,8.074205 -4.199166,0.04893 -8.085438,-0.283906 -8.636125,-0.739387 z m 156.163869,-7.32854 -8.79904,-8.075609 17.05972,0.352493 17.0597,0.352489 0.48026,4.850324 c 0.26395,2.667688 0.0824,6.161319 -0.40418,7.763655 -0.78873,2.598995 -1.73175,2.908936 -8.74069,2.872795 -7.74577,-0.03984 -7.9806,-0.154393 -16.65561,-8.116147 z m 31.64198,7.381086 c -0.58565,-0.484367 -1.06483,-4.141388 -1.06483,-8.126748 v -7.246062 h 10.58528 10.58524 l -0.44733,7.763639 -0.44731,7.763654 -9.07328,0.36311 c -4.99031,0.199715 -9.55245,-0.03326 -10.1381,-0.517576 z M 83.077076,63.364685 c -2.236258,-3.155917 -3.814805,-5.921192 -3.507933,-6.145044 2.062543,-1.50449 10.988129,-4.561047 16.084477,-5.508079 l 6.0795,-1.129727 1.58797,6.124037 c 0.8734,3.368208 1.58804,6.323449 1.58804,6.567207 0,0.243757 -2.87248,1.275067 -6.383249,2.291827 -3.510762,1.016761 -7.508183,2.228717 -8.883055,2.693233 -1.879596,0.635026 -3.508665,-0.579102 -6.56575,-4.893454 z m 64.637294,4.276198 c -1.65212,-0.610229 -5.48306,-1.922207 -8.51318,-2.915523 l -5.50932,-1.806001 1.85875,-6.006249 c 1.74299,-5.63225 2.13282,-5.979725 6.26029,-5.580205 2.42085,0.234311 7.60941,1.559967 11.53014,2.945884 l 7.12857,2.519844 -3.98793,6.059948 c -4.2674,6.484692 -4.22335,6.460644 -8.76732,4.782302 z m -39.07644,-7.728186 c -0.45867,-1.537199 -0.97864,-4.47186 -1.15508,-6.52146 l -0.32072,-3.726552 12.49236,-0.362114 12.49243,-0.362133 -1.04376,5.951962 c -0.57403,3.273598 -1.33544,6.371209 -1.69197,6.883609 -0.3565,0.512399 -4.98863,0.931647 -10.29359,0.931647 -8.75409,0 -9.7224,-0.258273 -10.47956,-2.794924 z M 4.2791824,56.030291 c 0,-0.911495 32.5185696,-11.95544 35.2024186,-11.95544 2.058116,0 2.428175,1.063497 2.052893,5.900365 l -0.457536,5.900378 -18.398775,0.348791 C 12.558872,56.416204 4.279464,56.328972 4.279464,56.030291 Z m 41.8199396,-5.96315 c -0.309378,-3.797349 0.190166,-7.020262 1.220358,-7.872465 1.627765,-1.346259 31.208628,-7.579859 39.56637,-8.33785 3.570889,-0.323854 3.776827,0.0071 4.203594,6.755876 l 0.449026,7.096409 -10.54937,4.39379 c -9.429041,3.927175 -11.813953,4.393792 -22.457384,4.393792 H 46.623641 Z m 112.508018,2.27402 -10.13443,-3.918671 -0.004,-7.787315 c -0.004,-7.429792 0.15158,-7.759183 3.37573,-7.174636 10.89546,1.975339 31.22025,5.910327 36.04652,6.978794 l 5.63224,1.246908 v 7.40523 7.405222 l -12.391,-0.118464 c -10.58289,-0.10103 -13.87005,-0.69029 -22.52552,-4.037103 z m 40.42347,3.327406 c -1.96121,-1.622027 -1.09831,-11.593716 1.00324,-11.593716 2.68793,0 31.32007,9.673752 33.17653,11.209154 0.95368,0.788779 -4.58886,1.212688 -15.8561,1.212688 -9.52729,0 -17.77298,-0.372681 -18.32367,-0.828126 z M 2.7772615,46.623762 c 0,-5.07228 0.1561077,-5.227096 8.2603885,-8.191329 14.206423,-5.196182 47.379622,-13.99931 63.832684,-16.939217 22.523735,-4.024644 67.204816,-4.011694 89.365396,0.02583 24.3009,4.427567 67.33576,16.413141 71.82002,20.002499 0.67591,0.541018 1.01382,2.982256 0.75094,5.42498 l -0.47798,4.441301 -14.26847,-4.970058 C 187.85521,34.503326 151.78246,27.926457 120.63893,27.926457 c -37.74487,0 -69.650477,6.378196 -115.9842397,23.186238 -1.3330979,0.483607 -1.8774288,-0.817839 -1.8774288,-4.488933 z m 93.1202325,-6.25223 c 0,-7.031942 0.08749,-7.180296 4.693546,-7.942158 2.58145,-0.427 11.2833,-0.776363 19.33746,-0.776363 8.05416,0 16.75603,0.349345 19.33747,0.776363 4.55176,0.752903 4.69354,0.976254 4.69354,7.391847 v 6.615489 l -17.64776,-0.686012 c -9.75312,-0.379112 -20.50333,-0.132961 -24.03101,0.550308 l -6.383246,1.236314 z"
       id="path1" /></g></svg>
