<?xml version="1.0" encoding="UTF-8" standalone="no"?>
<!-- Created with Inkscape (http://www.inkscape.org/) -->

<svg
   width="180mm"
   height="180mm"
   viewBox="0 0 180 180"
   version="1.1"
   id="svg1"
   sodipodi:docname="place_tailor.svg"
   inkscape:version="1.4.2 (f4327f4, 2025-05-13)"
   xml:space="preserve"
   xmlns:inkscape="http://www.inkscape.org/namespaces/inkscape"
   xmlns:sodipodi="http://sodipodi.sourceforge.net/DTD/sodipodi-0.dtd"
   xmlns="http://www.w3.org/2000/svg"
   xmlns:svg="http://www.w3.org/2000/svg"><sodipodi:namedview
     id="namedview1"
     pagecolor="#505050"
     bordercolor="#ffffff"
     borderopacity="1"
     inkscape:showpageshadow="0"
     inkscape:pageopacity="0"
     inkscape:pagecheckerboard="1"
     inkscape:deskcolor="#505050"
     inkscape:document-units="mm"
     inkscape:zoom="1"
     inkscape:cx="73"
     inkscape:cy="204"
     inkscape:window-width="2560"
     inkscape:window-height="1351"
     inkscape:window-x="-9"
     inkscape:window-y="-9"
     inkscape:window-maximized="1"
     inkscape:current-layer="layer1"
     showguides="true" /><defs
     id="defs1"><rect
       x="101.82338"
       y="91.923881"
       width="384.66609"
       height="299.81327"
       id="rect3" /><rect
       x="2.8284271"
       y="2.1213203"
       width="662.55905"
       height="647.0027"
       id="rect2" /></defs><g
     inkscape:label="Icon"
     inkscape:groupmode="layer"
     id="layer1"><path
       style="fill:#000000;stroke-width:5.2"
       d="M 37.937354,171.8141 C 21.227321,168.65776 11.958973,163.55981 11.958973,157.52501 v -3.86826 l 6.676982,2.82333 c 11.991188,5.0704 20.459995,6.61224 40.464349,7.36713 22.445841,0.84695 37.9534,-1.24529 50.755086,-6.84769 l 7.64395,-3.34521 v 3.7526 c 0,6.60604 -8.10901,11.02211 -26.373073,14.36255 -12.468529,2.28046 -41.224584,2.30456 -53.188913,0.0458 z m 8.93466,-12.89493 c -19.387293,-2.34823 -34.074303,-8.40921 -33.247159,-13.72039 0.244654,-1.57148 2.028023,-3.97005 3.96297,-5.33014 3.467919,-2.43766 3.636039,-2.41564 11.807698,1.54653 4.559394,2.21065 9.78361,4.01936 11.609474,4.01936 2.347881,0 3.31969,0.76429 3.31969,2.61093 0,3.6861 2.203801,4.54383 5.940892,2.31228 1.934788,-1.15535 9.064327,-2.2437 17.981596,-2.74499 16.459795,-0.9253 27.113523,-3.22793 34.680245,-7.49555 4.64811,-2.62155 5.3249,-2.68515 8.35808,-0.78533 1.81522,1.13695 3.95951,3.2444 4.76506,4.68324 5.23725,9.35449 -38.031954,18.67654 -69.178546,14.90406 z m 6.631349,-17.52012 C 54.66313,139.40528 67.199577,123.6323 93.960851,90.496618 101.5247,81.131148 116.34122,62.572609 126.8864,49.255544 152.59794,16.785511 160.88677,8.5388415 165.94595,10.39463 c 4.51605,1.656543 1.49468,10.321682 -6.78915,19.470672 -2.4016,2.652411 -19.56435,21.077849 -38.13944,40.945333 -18.5751,19.867535 -36.880275,39.488945 -40.678104,43.603175 -11.481988,12.43844 -28.086767,29.1356 -26.835893,26.98524 z M 157.53905,26.25073 c 6.28644,-7.376987 7.95376,-11.296807 4.80517,-11.296807 -3.4308,0 -16.68307,15.786704 -16.69557,19.888482 -0.0106,3.073219 5.08976,-0.611258 11.8904,-8.591675 z M 61.211137,141.78122 c 0,-3.15736 5.52264,-5.53117 14.905762,-6.40695 5.489293,-0.51232 14.196372,-2.28773 19.349053,-3.94529 8.799938,-2.83091 9.368548,-2.8666 9.368548,-0.58838 0,3.07744 -4.36436,5.745 -13.620795,8.32527 -9.310896,2.59547 -30.002568,4.39915 -30.002568,2.61535 z M 36.232009,138.584 c -5.862444,-1.77541 -9.563475,-3.78316 -11.096446,-6.01964 -3.273259,-4.77532 -1.587858,-5.38871 6.129649,-2.23089 3.699861,1.51393 9.734945,3.17846 13.411298,3.69891 7.333293,1.03822 7.320422,1.02648 5.22746,4.76474 -1.771083,3.16346 -2.563283,3.15111 -13.671961,-0.21302 z m 13.721477,-8.81985 c -9.316959,-1.34321 -21.132103,-5.0011 -23.784844,-7.36356 -3.702308,-3.29713 -4.038494,-7.2987 -0.489308,-5.82462 8.62629,3.58274 18.732365,6.22539 26.437692,6.91322 l 8.904025,0.79484 -2.177581,3.17683 c -1.197635,1.7473 -2.896278,3.09447 -3.774693,2.99371 -0.878468,-0.10067 -3.18029,-0.4113 -5.115185,-0.69042 z m 23.758995,-2.30639 c 2.220502,-2.27034 6.02615,-3.94747 11.257651,-4.96119 4.346706,-0.84222 10.594373,-2.65027 13.883748,-4.01784 5.84213,-2.42891 5.98062,-2.42769 5.98062,0.0519 0,4.78787 -10.875564,9.32734 -27.440507,11.45375 l -7.035985,0.90319 z M 43.29698,117.11341 c -9.622351,-1.81543 -18.162161,-5.98513 -19.072434,-9.31245 -0.897615,-3.28116 -1.025792,-3.28858 9.993587,0.5774 3.341975,1.17244 12.523949,2.82847 20.404469,3.68 7.880468,0.85153 14.576703,1.73367 14.8805,1.96032 0.30369,0.22675 -0.248909,1.33472 -1.227685,2.46237 -1.981432,2.28219 -14.547557,2.60035 -24.978437,0.63236 z m 43.095071,-3.13881 c 2.687153,-2.73421 18.189769,-9.67295 19.186309,-8.58756 0.18455,0.20083 -0.18084,1.66824 -0.81188,3.26083 -0.74157,1.87195 -3.93585,3.89302 -9.035557,5.71693 -10.865354,3.88601 -13.435923,3.77864 -9.338872,-0.39045 z m 65.500069,-0.093 c -5.71826,-2.29835 -11.55507,-9.15351 -12.68175,-14.894441 -1.8514,-9.433698 1.37697,-17.501001 11.69861,-29.233157 2.75874,-3.135754 6.58194,-8.949339 8.49604,-12.919033 2.99823,-6.218175 3.3541,-8.393548 2.57004,-15.709222 -0.97596,-9.105979 0.91415,-12.839314 3.37186,-6.660032 2.25061,5.658572 1.60929,18.264629 -1.23353,24.247005 -1.41698,2.981757 -5.58838,8.956405 -9.26984,13.276951 -8.82478,10.356712 -12.55756,18.467788 -11.34429,24.650121 1.32379,6.745138 3.51339,9.642898 9.53199,12.614898 7.82675,3.86486 6.84872,7.8375 -1.13913,4.62691 z M 48.476786,106.3429 c -11.509805,-1.61989 -23.537637,-6.26546 -24.613849,-9.506699 -1.322994,-3.98454 -0.354217,-4.179158 6.52402,-1.310369 8.510558,3.549699 25.136079,5.858168 38.215286,5.306188 6.000035,-0.25318 10.907636,-0.005 10.905828,0.54847 -0.0018,0.55488 -1.269755,2.21955 -2.817671,3.69922 -3.09381,2.95741 -13.018309,3.40176 -28.213614,1.26319 z M 100.5087,98.493761 c 1.72359,-2.313863 3.74937,-3.843304 4.50174,-3.398804 1.64328,0.970804 -0.82959,4.123945 -4.84543,6.178363 -2.600298,1.3303 -2.57695,1.14122 0.34358,-2.779559 z M 42.028927,93.723071 C 30.861798,91.314543 25.184335,88.441687 24.154926,84.67861 c -1.10323,-4.032686 -0.405807,-4.421668 3.519987,-1.962808 8.433279,5.282045 43.034014,8.266497 57.810535,4.986407 6.211555,-1.378902 6.602044,-0.423504 1.645937,4.027703 -3.366174,3.023192 -4.829099,3.282734 -20.052699,3.557579 C 57.04989,95.468484 47.298244,94.859412 42.028927,93.723071 Z M 38.401984,81.128657 c -9.529542,-2.457895 -15.18536,-5.889643 -15.18536,-9.213863 0,-2.413053 1.321717,-2.289154 8.653575,0.811062 9.934498,4.200765 30.1325,6.119544 45.461408,4.318766 7.136666,-0.838364 15.709876,-2.446455 19.051638,-3.573492 3.341705,-1.127037 6.279105,-1.854873 6.527585,-1.617345 1.25991,1.204366 -4.70215,6.865988 -9.166073,8.704185 -8.115282,3.34176 -43.19639,3.703542 -55.342773,0.570687 z M 50.657079,72.003511 C 43.060623,70.972308 29.59933,67.293068 27.214857,65.596259 c -2.677952,-1.905663 -3.986,-6.092396 -1.887453,-6.041352 0.774011,0.02034 3.411808,0.834906 5.861859,1.813438 17.112276,6.834721 61.33983,5.475087 71.663917,-2.203081 2.12487,-1.580333 3.22459,-0.18506 2.35607,2.98979 -0.87278,3.190458 -4.22044,5.029316 -13.678293,7.513393 -7.217029,1.895597 -33.183496,3.378976 -40.873878,2.335064 z M 40.111424,58.664635 C 30.291701,56.54168 24.219227,53.11649 23.425697,49.253002 c -0.388787,-1.893156 0.06223,-2.177253 2.110833,-1.329179 1.432928,0.593209 7.038006,2.231754 12.455711,3.641212 14.145846,3.680105 48.470335,2.895836 59.722348,-1.364616 4.210661,-1.594314 7.937591,-2.62938 8.282021,-2.300085 0.34464,0.329448 -0.4074,2.10689 -1.67104,3.950273 -3.60817,5.263946 -14.259293,7.710605 -36.078395,8.287443 -13.326946,0.352326 -21.724963,-0.08745 -28.135751,-1.473415 z m 8.583423,-10.11237 C 32.893278,46.455594 21.436021,41.332375 14.452903,33.240617 c -3.876863,-4.492336 -3.002704,-4.716442 5.597525,-1.435182 12.654254,4.828037 27.039329,6.415539 51.933041,5.731172 19.249542,-0.529201 23.739423,-1.086771 32.851031,-4.079459 5.80469,-1.906578 10.72723,-3.304443 10.93896,-3.106419 2.72604,2.55012 -13.68307,13.5127 -24.113421,16.109694 -10.263877,2.555509 -31.630422,3.595761 -42.965192,2.091842 z M 38.24248,31.643354 C 19.792691,28.456353 9.3645232,22.745365 12.667247,17.637093 14.37089,15.002019 25.001801,10.697691 34.982199,8.6019857 c 13.36609,-2.8066617 45.909975,-2.792833 59.493914,0.02542 11.163037,2.3158973 21.326817,6.7314133 22.558857,9.8004133 2.0993,5.229527 -11.1676,11.452176 -29.657814,13.910528 -14.55229,1.934794 -35.63743,1.636613 -49.134676,-0.694891 z M 78.613594,21.36204 c 2.301504,-1.130342 2.372666,-1.533 0.574671,-3.251722 -4.731131,-4.522535 -29.234779,-3.199965 -29.234779,1.577893 0,4.139858 21.12673,5.373711 28.660108,1.673829 z m 50.796246,-2.451031 c -0.98361,-1.521358 4.00345,-3.961509 8.04965,-3.938681 5.26746,0.0305 9.74564,1.556234 9.19528,3.134533 -0.60281,1.728686 -16.1776,2.454946 -17.24493,0.804148 z"
       id="path1" /></g></svg>
