<?xml version="1.0" encoding="UTF-8" standalone="no"?>
<!-- Created with Inkscape (http://www.inkscape.org/) -->

<svg
   width="180mm"
   height="180mm"
   viewBox="0 0 180 180"
   version="1.1"
   id="svg1"
   sodipodi:docname="rapid.svg"
   inkscape:version="1.4.2 (f4327f4, 2025-05-13)"
   xml:space="preserve"
   xmlns:inkscape="http://www.inkscape.org/namespaces/inkscape"
   xmlns:sodipodi="http://sodipodi.sourceforge.net/DTD/sodipodi-0.dtd"
   xmlns="http://www.w3.org/2000/svg"
   xmlns:svg="http://www.w3.org/2000/svg"><sodipodi:namedview
     id="namedview1"
     pagecolor="#505050"
     bordercolor="#ffffff"
     borderopacity="1"
     inkscape:showpageshadow="0"
     inkscape:pageopacity="0"
     inkscape:pagecheckerboard="1"
     inkscape:deskcolor="#505050"
     inkscape:document-units="mm"
     inkscape:zoom="0.70710678"
     inkscape:cx="138.59293"
     inkscape:cy="606.69762"
     inkscape:window-width="2560"
     inkscape:window-height="1351"
     inkscape:window-x="-9"
     inkscape:window-y="-9"
     inkscape:window-maximized="1"
     inkscape:current-layer="layer1"
     showguides="true" /><defs
     id="defs1"><rect
       x="101.82338"
       y="91.923881"
       width="384.66609"
       height="299.81327"
       id="rect3" /><rect
       x="2.8284271"
       y="2.1213203"
       width="662.55905"
       height="647.0027"
       id="rect2" /></defs><g
     inkscape:label="Icon"
     inkscape:groupmode="layer"
     id="layer1"><path
       style="fill:#000000;stroke-width:2.85165"
       d="m 61.743696,176.47381 c 0.712631,-0.19711 1.701423,-0.18418 2.1973,0.0294 0.495876,0.21297 -0.0872,0.37413 -1.29568,0.35829 -1.208536,-0.0147 -1.614251,-0.19006 -0.90162,-0.38708 z M 91.57642,164.66719 c 0,-1.22414 5.941138,-6.42253 9.05506,-7.92298 1.66654,-0.80304 3.85407,-1.46972 4.86116,-1.4815 3.87339,-0.0452 7.29971,-1.58117 7.74712,-3.47273 1.04684,-4.42602 -4.12769,-8.52095 -10.13944,-8.02392 -2.10836,0.1742 -4.410159,0.59354 -5.115122,0.93159 -1.195414,0.57324 -1.281755,-0.35409 -1.281755,-13.76491 0,-21.25047 1.760497,-37.072708 5.215217,-46.871032 0.86724,-2.459591 2.99877,-5.961135 5.1477,-8.456212 2.12095,-2.462587 3.56465,-4.82565 3.42347,-5.603575 -0.34146,-1.881508 -4.81161,-2.753406 -12.334191,-2.405775 -5.111935,0.23618 -7.12988,0.731012 -11.175845,2.740158 -6.595303,3.275087 -12.475346,9.274351 -15.65471,15.972168 -4.595103,9.680206 -9.326183,30.857028 -10.887532,48.733528 -0.812897,9.30734 -0.646608,9.09413 -4.375885,5.61069 -4.509925,-4.21256 -11.362454,-7.94238 -14.592034,-7.94238 -2.125214,0 -2.827215,0.38991 -3.492758,1.93994 -1.078898,2.51273 0.665875,4.72921 4.609858,5.85617 3.254661,0.93001 5.043699,2.59537 5.043699,4.69508 0,0.82443 -0.119866,1.49895 -0.266306,1.49895 -2.192012,0 -8.375704,1.87552 -9.387583,2.84726 -1.517694,1.4575 -1.750864,3.78182 -0.464042,4.62575 0.477772,0.31332 4.109607,0.83609 8.070781,1.16169 5.451351,0.44809 7.928687,1.02929 10.190874,2.39079 2.88939,1.73901 5.785894,5.54115 4.920705,6.45926 -0.232533,0.24675 -2.195915,-0.31711 -4.363179,-1.25287 -2.8348,-1.224 -6.345884,-1.85965 -12.512856,-2.26542 -9.546674,-0.62808 -13.436094,-2.09416 -15.094222,-5.68953 -1.138775,-2.46919 -0.687827,-4.3547 1.788263,-7.47736 l 1.824527,-2.30093 -1.692038,-0.39763 c -0.930603,-0.21855 -4.328798,-0.76282 -7.551485,-1.20921 -8.211353,-1.13734 -14.1966999,-3.04176 -15.0829832,-4.79907 -0.5834643,-1.1569 0.1738462,-3.63553 3.5873492,-11.74129 2.379782,-5.65113 5.87171,-14.99645 7.759823,-20.76738 7.817514,-23.894099 6.766354,-21.590257 12.943872,-28.368886 3.916162,-4.297271 7.856187,-9.938652 12.755687,-18.26379 7.891232,-13.408676 11.392987,-18.31367 13.60673,-19.059252 1.609987,-0.542245 3.196693,0.35192 9.17559,5.170754 2.051385,1.653407 4.09596,3.006154 4.543475,3.006154 0.447516,0 4.347207,-5.508604 8.665955,-12.241377 16.05093,-25.02262 23.104851,-34.3924134 25.891901,-34.3924134 1.57508,0 3.30994,2.0696296 8.03332,9.5834424 2.2504,3.579918 5.16863,7.090363 7.08692,8.525185 2.73642,2.046776 4.01377,4.006541 7.93818,12.179013 5.39563,11.236203 6.57161,12.765351 11.75306,15.282576 2.09105,1.015868 4.33538,2.472546 4.98736,3.237046 2.41674,2.833807 12.63117,31.750106 19.54892,55.341548 1.6922,5.77093 4.69063,14.94097 6.66315,20.37786 1.97252,5.43687 3.58641,10.41281 3.58641,11.0576 0,2.28022 -3.48764,3.6256 -12.20577,4.70844 -7.34354,0.91209 -9.6202,1.54851 -14.89425,4.16344 -7.1959,3.56781 -12.48489,4.77198 -20.95951,4.77198 -5.40396,0 -6.09104,0.1645 -6.50799,1.55867 -0.61051,2.04116 -3.7932,6.02608 -5.65944,7.08596 -0.81088,0.46052 -4.64806,1.14045 -8.52707,1.51096 -3.87904,0.37054 -8.786708,1.38488 -10.905915,2.25414 -4.249459,1.74297 -5.302281,1.9204 -5.302281,0.89363 z M 51.159315,127.65832 c -0.842628,-1.96246 -2.355699,-2.55144 -3.131695,-1.21903 -0.403694,0.69312 2.26061,3.16211 3.41223,3.16211 0.30459,0 0.178275,-0.87439 -0.280535,-1.94308 z M 64.664506,62.940757 c 1.513375,-2.878223 3.16137,-5.875476 3.662147,-6.660598 0.802682,-1.258363 0.397631,-1.925836 -3.41951,-5.634918 C 62.525616,48.331147 60.33258,46.4378 60.033747,46.4378 c -0.849631,0 -11.779047,18.22666 -11.078071,18.47459 0.343236,0.121321 2.049309,-0.45638 3.791314,-1.284008 3.770663,-1.791414 4.250263,-1.6542 6.513668,1.863736 0.958313,1.489461 1.947105,2.702174 2.197299,2.694919 0.25025,-0.0059 1.693146,-2.368086 3.206549,-5.24628 z M 110.90679,43.292935 c 1.88747,-3.012087 3.94904,-5.687178 4.58131,-5.944655 0.63224,-0.257331 3.00904,0.190354 5.28177,0.995216 2.27274,0.804804 4.56175,1.58549 5.08672,1.734836 1.95646,0.55658 -4.85034,-11.897771 -8.63072,-15.791567 -2.07511,-2.137399 -5.2685,-6.421862 -7.09646,-9.521078 -1.82794,-3.099216 -3.53661,-5.6240792 -3.79705,-5.6108308 -1.15259,0.058457 -20.404169,30.7711338 -19.734059,31.4822298 0.201529,0.213854 2.640054,-0.626288 5.418907,-1.867026 8.591272,-3.835956 7.707033,-4.100043 11.313922,3.378901 1.7561,3.641283 3.40689,6.620529 3.66841,6.620529 0.2616,0 2.01977,-2.464438 3.90725,-5.476555 z M 82.812995,148.306 c -1.540117,-3.05368 -0.491503,-23.48645 1.835572,-35.76783 1.130941,-5.96854 4.402433,-14.633203 5.203924,-13.782721 0.693198,0.735625 -1.243747,48.122401 -2.030789,49.682981 -0.927115,1.83827 -4.056567,1.75552 -5.008707,-0.13249 z M 71.57705,127.55052 c -0.797616,-0.8464 -0.595423,-16.10078 0.294016,-22.18397 1.554346,-10.630742 5.749603,-19.777075 10.93869,-23.848183 4.089344,-3.208288 4.655728,-1.864794 1.722793,4.086618 -3.728585,7.565925 -5.912874,14.621565 -8.760657,28.298265 -2.521295,12.10866 -3.289513,14.60797 -4.194842,13.64727 z"
       id="path1" /></g></svg>
