<?xml version="1.0" encoding="UTF-8" standalone="no"?>
<!-- Created with Inkscape (http://www.inkscape.org/) -->

<svg
   width="240mm"
   height="180mm"
   viewBox="0 0 240 180"
   version="1.1"
   id="svg1"
   sodipodi:docname="other_torf.svg"
   inkscape:version="1.4.2 (f4327f4, 2025-05-13)"
   xml:space="preserve"
   xmlns:inkscape="http://www.inkscape.org/namespaces/inkscape"
   xmlns:sodipodi="http://sodipodi.sourceforge.net/DTD/sodipodi-0.dtd"
   xmlns="http://www.w3.org/2000/svg"
   xmlns:svg="http://www.w3.org/2000/svg"><sodipodi:namedview
     id="namedview1"
     pagecolor="#505050"
     bordercolor="#ffffff"
     borderopacity="1"
     inkscape:showpageshadow="0"
     inkscape:pageopacity="0"
     inkscape:pagecheckerboard="1"
     inkscape:deskcolor="#505050"
     inkscape:document-units="mm"
     inkscape:zoom="0.70710678"
     inkscape:cx="-91.923882"
     inkscape:cy="431.33514"
     inkscape:window-width="2560"
     inkscape:window-height="1351"
     inkscape:window-x="-9"
     inkscape:window-y="-9"
     inkscape:window-maximized="1"
     inkscape:current-layer="layer1"
     showguides="true" /><defs
     id="defs1"><rect
       x="101.82338"
       y="91.923882"
       width="384.66608"
       height="299.81326"
       id="rect3" /><rect
       x="2.8284271"
       y="2.1213202"
       width="662.55902"
       height="647.00269"
       id="rect2" /></defs><g
     inkscape:label="Icon"
     inkscape:groupmode="layer"
     id="layer1"><path
       style="fill:#000000;stroke-width:1.18926"
       d="m 194.02878,158.8241 c -3.97186,-0.94796 -28.93678,-9.14477 -30.08076,-9.87651 -1.5347,-0.98164 -3.12653,-3.13003 -3.62872,-4.89747 -0.3608,-1.26977 -0.45413,-3.76501 -0.45175,-12.07723 0.004,-10.34293 0.012,-10.49734 0.73054,-12.08522 1.49802,-3.31182 3.85189,-4.56491 10.50064,-5.59011 2.36996,-0.36542 6.52506,-1.01844 9.23358,-1.45114 14.8703,-2.37559 15.91844,-2.50814 18.73103,-2.36873 2.50131,0.12398 8.86323,1.39246 20.35778,4.05907 3.56309,0.8266 5.5722,1.21548 8.618,1.66809 3.05812,0.45445 5.12236,1.35366 6.28525,2.73792 1.22791,1.46165 1.32048,2.7741 1.20119,17.02914 -0.0931,11.14158 -0.13892,11.98459 -0.71516,13.18908 l -0.61556,1.28674 -6.6174,1.68688 c -3.63956,0.92779 -10.35699,2.69547 -14.92762,3.92817 -12.87545,3.47255 -14.58128,3.7255 -18.62104,2.76132 z m 3.96392,-7.97875 c 0.52005,-1.71643 0.91169,-5.5641 1.121,-11.01322 0.22423,-5.83748 0.64404,-7.85221 1.98986,-9.54968 1.42732,-1.80025 3.50781,-2.64543 11.23848,-4.56553 9.34138,-2.32019 17.15376,-5.02504 16.23351,-5.62048 -0.57249,-0.37041 -8.43683,0.2024 -11.92451,0.86856 -18.68992,3.56987 -19.65525,3.67486 -24.31508,2.64441 -1.52353,-0.33691 -4.77837,-1.06445 -7.23296,-1.61675 -10.00857,-2.252 -15.06618,-3.06503 -16.46655,-2.64707 l -0.92336,0.2756 1.3551,0.7278 c 2.1943,1.17849 5.76211,2.38658 15.67941,5.3092 5.7465,1.69347 6.24404,1.92378 7.80401,3.61225 1.84431,1.99624 2.44169,3.83235 2.74923,8.45026 0.14805,2.22284 0.47931,5.9234 0.73614,8.22345 0.67614,6.05503 1.20475,7.37981 1.95572,4.9012 z m -82.44931,6.37034 c -3.97185,-0.94797 -28.936776,-9.14479 -30.080762,-9.87652 -1.534699,-0.98165 -3.126527,-3.13004 -3.628717,-4.89748 -0.360793,-1.26977 -0.454123,-3.76501 -0.451738,-12.07723 0.0035,-10.34293 0.01231,-10.49734 0.730531,-12.08522 0.400146,-0.88463 1.131179,-2.00416 1.624527,-2.48786 1.242947,-1.21863 4.107036,-2.36343 7.029396,-2.80973 1.354261,-0.20681 5.509375,-0.85993 9.233573,-1.45138 17.41561,-2.76577 17.7061,-2.80334 20.57775,-2.661 2.50131,0.12398 8.86323,1.39246 20.35778,4.05906 3.56309,0.8266 5.5722,1.21548 8.618,1.66809 3.05812,0.45445 5.12236,1.35366 6.28524,2.73793 1.22791,1.46165 1.32048,2.77409 1.20121,17.02914 -0.0931,11.14157 -0.13894,11.98459 -0.71517,13.18909 l -0.61557,1.28672 -6.61738,1.68689 c -3.63958,0.92779 -10.357,2.69546 -14.92762,3.92816 -12.87546,3.47256 -14.58129,3.72552 -18.62105,2.76134 z m 3.96393,-7.97877 c 0.52004,-1.71643 0.91168,-5.5641 1.12099,-11.01322 0.22423,-5.83748 0.64404,-7.8522 1.98987,-9.54967 1.42731,-1.80026 3.5078,-2.64543 11.23846,-4.56554 9.3414,-2.32019 17.15377,-5.02503 16.23353,-5.62048 -0.57251,-0.37041 -8.43685,0.2024 -11.92451,0.86858 -18.68992,3.56985 -19.65525,3.67484 -24.31509,2.64439 -1.52353,-0.33691 -4.77837,-1.06443 -7.23296,-1.61673 -10.00857,-2.25201 -15.066185,-3.06504 -16.466547,-2.64707 l -0.923358,0.27558 1.355099,0.72781 c 2.194293,1.17849 5.762111,2.38659 15.679406,5.30919 5.7465,1.69349 6.24404,1.92378 7.80402,3.61225 1.84431,1.99624 2.44168,3.83235 2.74924,8.45026 0.14804,2.22286 0.47929,5.9234 0.73612,8.22345 0.67614,6.05504 1.20476,7.37982 1.95573,4.9012 z m -80.910392,5.72697 c -3.971861,-0.94798 -28.9367748,-9.14478 -30.080761,-9.87652 -1.5346989,-0.98164 -3.1265266,-3.13004 -3.6287285,-4.89747 -0.3607811,-1.26977 -0.4541232,-3.765 -0.4517268,-12.07723 0.00349,-10.34293 0.012335,-10.49734 0.7305314,-12.08522 0.4001352,-0.88463 1.1311785,-2.00417 1.6245277,-2.48787 1.2429469,-1.21862 4.1070362,-2.36344 7.0293942,-2.80973 1.354263,-0.20682 5.509365,-0.85993 9.233576,-1.45137 17.415612,-2.76579 17.706084,-2.80334 20.577735,-2.66101 2.501307,0.12398 8.863244,1.39246 20.357792,4.05907 3.563095,0.8266 5.572205,1.21548 8.618,1.66809 3.058125,0.45444 5.122364,1.35365 6.285253,2.73793 1.227895,1.46165 1.32048,2.7741 1.201197,17.02914 -0.09318,11.14157 -0.138931,11.98458 -0.715164,13.18907 l -0.615564,1.28675 -6.617406,1.68687 c -3.639559,0.92779 -10.356996,2.69546 -14.927613,3.92817 -12.875449,3.47255 -14.581278,3.72551 -18.621043,2.76133 z m 3.963918,-7.97875 c 0.520047,-1.71644 0.911689,-5.56411 1.121,-11.01323 0.224224,-5.83748 0.64403,-7.8522 1.989869,-9.54968 1.427316,-1.80025 3.507805,-2.64542 11.238475,-4.56554 9.341389,-2.32018 17.153767,-5.02503 16.233516,-5.62046 -0.572511,-0.37043 -8.436842,0.20239 -11.92451,0.86856 -18.689922,3.56986 -19.65525,3.67485 -24.315091,2.6444 -1.523544,-0.33691 -4.778369,-1.06444 -7.232969,-1.61675 -10.008568,-2.25199 -15.066172,-3.06502 -16.466535,-2.64707 l -0.923357,0.27561 1.3551,0.72779 c 2.19428,1.17848 5.762099,2.38659 15.679396,5.3092 5.7465,1.69347 6.244049,1.92378 7.804014,3.61225 1.844319,1.99624 2.441689,3.83235 2.749239,8.45026 0.148051,2.22284 0.479309,5.9234 0.736138,8.22345 0.676137,6.05503 1.204757,7.3798 1.955715,4.90121 z M 158.32563,112.82317 c -3.97187,-0.94796 -28.93678,-9.14479 -30.08077,-9.87652 -1.5347,-0.98163 -3.12653,-3.130041 -3.62872,-4.897461 -0.36079,-1.269788 -0.45412,-3.765021 -0.45174,-12.077239 0.003,-10.342931 0.0123,-10.497345 0.73055,-12.08522 1.49801,-3.311808 3.85188,-4.564912 10.50064,-5.590107 2.36995,-0.365432 6.52505,-1.018444 9.23357,-1.451141 14.87029,-2.37559 15.91843,-2.508137 18.73102,-2.368731 2.5013,0.123977 8.86322,1.392461 20.35777,4.059066 3.56309,0.826599 5.57222,1.215482 8.61801,1.668094 3.05811,0.454446 5.12236,1.353649 6.28526,2.737922 1.2279,1.461652 1.32047,2.774102 1.20119,17.029143 -0.0933,11.141574 -0.13893,11.984584 -0.71516,13.189074 l -0.61557,1.28674 -6.6174,1.68688 c -3.63957,0.92778 -10.357,2.69546 -14.92761,3.92817 -12.87545,3.47256 -14.58129,3.72551 -18.62104,2.76133 z m 3.96391,-7.97875 c 0.52004,-1.71645 0.9117,-5.56412 1.12101,-11.013229 0.22421,-5.837486 0.64403,-7.852206 1.98985,-9.549675 1.42733,-1.800248 3.50782,-2.64543 11.23848,-4.565543 9.34138,-2.320177 17.15378,-5.025027 16.23351,-5.620464 -0.5725,-0.370426 -8.43684,0.202398 -11.92451,0.86856 -18.6899,3.569863 -19.65524,3.674848 -24.31507,2.644399 -1.52356,-0.336907 -4.77839,-1.064441 -7.23297,-1.616742 -10.00857,-2.252003 -15.06619,-3.065034 -16.46655,-2.647064 l -0.92335,0.275598 1.35511,0.727792 c 2.19428,1.178491 5.76209,2.386589 15.67939,5.309195 5.7465,1.693483 6.24403,1.923779 7.80401,3.612253 1.84431,1.996237 2.44167,3.832356 2.74924,8.450257 0.14804,2.222851 0.4793,5.923397 0.73614,8.223455 0.67613,6.055038 1.20474,7.379818 1.95571,4.901208 z m -83.064877,7.33538 c -3.971863,-0.94797 -28.936788,-9.1448 -30.080762,-9.87652 -1.534699,-0.98163 -3.126527,-3.130032 -3.62873,-4.897465 -0.36078,-1.269775 -0.454123,-3.765008 -0.451737,-12.077236 0.0035,-10.342931 0.01231,-10.497345 0.730543,-12.085217 1.498009,-3.311809 3.851881,-4.564914 10.500637,-5.590109 2.369949,-0.365432 6.525064,-1.018445 9.233575,-1.45114 14.87031,-2.37559 15.918441,-2.508139 18.73102,-2.368731 2.501307,0.123978 8.863244,1.39246 20.357781,4.059066 3.56311,0.826599 5.57222,1.215482 8.61801,1.668094 3.05813,0.454446 5.12237,1.353648 6.28526,2.737922 1.22789,1.46165 1.32048,2.774101 1.20119,17.029142 -0.0932,11.141584 -0.13894,11.984584 -0.71516,13.189074 l -0.61558,1.28675 -6.61739,1.68688 c -3.63956,0.92777 -10.357,2.69545 -14.927616,3.92817 -12.875448,3.47253 -14.581278,3.7255 -18.621041,2.76132 z m 3.963917,-7.97875 c 0.520046,-1.71645 0.91169,-5.564112 1.120999,-11.013225 0.224224,-5.837491 0.64403,-7.852208 1.98987,-9.549679 1.427316,-1.800249 3.507805,-2.645431 11.238474,-4.565543 9.341387,-2.320178 17.153767,-5.025025 16.233517,-5.620462 -0.57251,-0.370427 -8.43684,0.202396 -11.92452,0.868558 C 83.157009,77.890562 82.191679,77.995547 77.531838,76.965098 76.008295,76.628191 72.75347,75.900658 70.298869,75.348356 60.290301,73.096353 55.232697,72.283322 53.832335,72.701294 l -0.923359,0.275596 1.355101,0.727791 c 2.194281,1.178491 5.7621,2.38659 15.679397,5.309197 5.7465,1.693482 6.244038,1.923778 7.804015,3.612253 1.844318,1.996237 2.441688,3.832356 2.749237,8.450257 0.148039,2.222851 0.479309,5.923404 0.736139,8.22345 0.676136,6.055032 1.204756,7.379812 1.955715,4.901212 z M 117.39011,69.074029 C 113.41825,68.126056 88.453329,59.92924 87.309343,59.197511 85.774644,58.215868 84.182816,56.067467 83.680627,54.300039 83.319833,53.03026 83.226502,50.535027 83.228888,42.222804 c 0.0035,-10.342931 0.01231,-10.497344 0.730531,-12.085217 1.498021,-3.311809 3.851882,-4.564912 10.500637,-5.590109 2.369961,-0.365431 6.525064,-1.018444 9.233574,-1.451139 14.87031,-2.375591 15.91844,-2.508139 18.73103,-2.368731 2.50131,0.123978 8.86324,1.39246 20.35778,4.059066 3.5631,0.826597 5.57221,1.215482 8.618,1.668094 3.05812,0.454444 5.12237,1.353648 6.28525,2.73792 1.22791,1.461651 1.32048,2.774102 1.2012,17.029143 -0.0931,11.141576 -0.13893,11.984585 -0.71517,13.189079 l -0.61556,1.286741 -6.6174,1.686879 c -3.63956,0.927782 -10.35698,2.695459 -14.92761,3.92817 -12.87545,3.472548 -14.58128,3.725507 -18.62104,2.761329 z m 3.96393,-7.978752 c 0.52003,-1.716447 0.91167,-5.564119 1.12098,-11.013227 0.22424,-5.83749 0.64404,-7.852208 1.98987,-9.549679 1.42732,-1.800248 3.50781,-2.64543 11.23848,-4.565543 9.34139,-2.320178 17.15376,-5.025026 16.23351,-5.620462 -0.57251,-0.370427 -8.43684,0.202396 -11.92451,0.868558 -18.68992,3.569864 -19.65525,3.674848 -24.31509,2.6444 -1.52353,-0.336907 -4.77837,-1.06444 -7.23296,-1.616743 C 98.455755,29.990578 93.39814,29.177547 91.997777,29.595519 l -0.923357,0.275597 1.355099,0.72779 c 2.194293,1.178493 5.762113,2.38659 15.679411,5.309197 5.7465,1.693482 6.24404,1.923778 7.80401,3.612253 1.84431,1.996238 2.44168,3.832356 2.74923,8.450257 0.14805,2.222851 0.47931,5.923402 0.73614,8.223448 0.67614,6.05504 1.20476,7.37982 1.95573,4.901216 z"
       id="path1" /></g></svg>
