<?xml version="1.0" encoding="UTF-8" standalone="no"?>
<!-- Created with Inkscape (http://www.inkscape.org/) -->

<svg
   width="180mm"
   height="180mm"
   viewBox="0 0 180 180"
   version="1.1"
   id="svg1"
   sodipodi:docname="other_resin.svg"
   inkscape:version="1.4.2 (f4327f4, 2025-05-13)"
   xml:space="preserve"
   xmlns:inkscape="http://www.inkscape.org/namespaces/inkscape"
   xmlns:sodipodi="http://sodipodi.sourceforge.net/DTD/sodipodi-0.dtd"
   xmlns="http://www.w3.org/2000/svg"
   xmlns:svg="http://www.w3.org/2000/svg"><sodipodi:namedview
     id="namedview1"
     pagecolor="#505050"
     bordercolor="#ffffff"
     borderopacity="1"
     inkscape:showpageshadow="0"
     inkscape:pageopacity="0"
     inkscape:pagecheckerboard="1"
     inkscape:deskcolor="#505050"
     inkscape:document-units="mm"
     inkscape:zoom="1"
     inkscape:cx="410"
     inkscape:cy="454"
     inkscape:window-width="2560"
     inkscape:window-height="1351"
     inkscape:window-x="-9"
     inkscape:window-y="-9"
     inkscape:window-maximized="1"
     inkscape:current-layer="layer1"
     showguides="true" /><defs
     id="defs1"><rect
       x="101.82338"
       y="91.923881"
       width="384.66609"
       height="299.81327"
       id="rect3" /><rect
       x="2.8284271"
       y="2.1213203"
       width="662.55905"
       height="647.0027"
       id="rect2" /></defs><g
     inkscape:label="Icon"
     inkscape:groupmode="layer"
     id="layer1"><path
       style="fill:#000000"
       d="m 85.618788,176.58936 c -9.864865,-0.98953 -18.087965,-3.68726 -26.063045,-8.55044 -7.779,-4.74361 -15.73736,-12.77735 -20.57812,-20.77303 -8.55917,-14.13753 -11.73688,-30.85681 -8.89617,-46.80647 4.09905,-23.01482 21.09944,-52.849053 47.88264,-84.029988 4.95821,-5.772329 11.570295,-12.9947201 12.036885,-13.1479059 0.15587,-0.051173 0.60145,1.0416261 0.99996,2.4524369 2.30149,8.147769 7.14672,19.117948 12.086022,27.364218 5.73081,9.567702 10.35294,15.766015 23.75256,31.852398 8.30107,9.965516 11.13742,13.602224 14.26177,18.286143 8.77689,13.15805 11.26091,23.642728 9.09356,38.382548 -4.35783,29.63678 -26.87615,52.14201 -54.898572,54.86664 -2.70276,0.2628 -7.57022,0.31482 -9.67749,0.10345 z m 0.50771,-63.06832 c 12.4647,-1.27912 23.547072,-10.73689 28.181012,-24.049847 1.96738,-5.652127 2.68084,-11.632191 1.91228,-16.028163 -1.05353,-6.025859 -3.03246,-10.094503 -10.48622,-21.559432 -4.65186,-7.155222 -6.135382,-9.608816 -8.228242,-13.608702 -3.21059,-6.136095 -5.64355,-12.644148 -6.90524,-18.471203 -0.33862,-1.563895 -0.72937,-2.843817 -0.86832,-2.84427 -0.3357,-0.0011 -6.847065,6.667432 -10.720615,10.979383 -16.30864,18.154413 -25.58766,34.8345 -26.41753,47.48845 -0.78676,11.99676 2.92409,22.383371 10.67637,29.883004 3.80699,3.68292 7.6062,5.90584 12.46667,7.29425 2.06325,0.58938 4.86588,1.05207 7.00982,1.15726 0.38476,0.0189 1.905765,-0.0895 3.380015,-0.24073 z"
       id="path5" /></g></svg>
