<?xml version="1.0" encoding="UTF-8" standalone="no"?>
<!-- Created with Inkscape (http://www.inkscape.org/) -->

<svg
   width="180mm"
   height="180mm"
   viewBox="0 0 180 180"
   version="1.1"
   id="svg1"
   sodipodi:docname="crystal.svg"
   inkscape:version="1.4.2 (f4327f4, 2025-05-13)"
   xml:space="preserve"
   xmlns:inkscape="http://www.inkscape.org/namespaces/inkscape"
   xmlns:sodipodi="http://sodipodi.sourceforge.net/DTD/sodipodi-0.dtd"
   xmlns="http://www.w3.org/2000/svg"
   xmlns:svg="http://www.w3.org/2000/svg"><sodipodi:namedview
     id="namedview1"
     pagecolor="#505050"
     bordercolor="#ffffff"
     borderopacity="1"
     inkscape:showpageshadow="0"
     inkscape:pageopacity="0"
     inkscape:pagecheckerboard="1"
     inkscape:deskcolor="#505050"
     inkscape:document-units="mm"
     inkscape:zoom="0.70710678"
     inkscape:cx="138.59293"
     inkscape:cy="606.69762"
     inkscape:window-width="2560"
     inkscape:window-height="1351"
     inkscape:window-x="-9"
     inkscape:window-y="-9"
     inkscape:window-maximized="1"
     inkscape:current-layer="layer1"
     showguides="true" /><defs
     id="defs1"><rect
       x="101.82338"
       y="91.923881"
       width="384.66609"
       height="299.81327"
       id="rect3" /><rect
       x="2.8284271"
       y="2.1213203"
       width="662.55905"
       height="647.0027"
       id="rect2" /></defs><g
     inkscape:label="Icon"
     inkscape:groupmode="layer"
     id="layer1"><path
       id="path1"
       style="fill:#000000;stroke-width:2.75936"
       d="m 98.506973,6.3457071 c -0.261863,-0.0069 -0.664535,1.238491 -0.895036,2.767273 -0.230496,1.5288099 -1.88969,12.2136769 -3.686596,23.7442869 -1.796909,11.530611 -3.075694,21.283141 -2.842204,21.672579 0.254606,0.424652 1.057208,0.303923 2.005046,-0.301791 0.869262,-0.555482 7.162227,-4.239606 13.984677,-8.187097 6.82245,-3.947492 12.40926,-7.40882 12.41526,-7.69152 C 119.50432,37.561234 99.049185,6.3597171 98.506973,6.3457071 Z m -4.791955,1.469678 c -0.582145,0 -25.056394,29.5037089 -26.270748,31.6693839 -0.822868,1.467514 -0.02332,2.222137 10.108427,9.537403 4.749651,3.429297 8.763635,5.848544 9.115722,5.494238 0.571328,-0.574926 7.586451,-42.350432 7.624341,-45.4034299 0.0089,-0.713432 -0.25101,-1.297595 -0.577742,-1.297595 z M 119.34394,43.394608 c -1.27032,0 -25.855827,14.910129 -27.731636,16.818095 l -1.617989,1.645378 V 93.76466 c 0,17.54866 0.176617,31.9071 0.392224,31.9071 0.215613,0 2.805027,-1.67883 5.754687,-3.73052 2.94966,-2.05168 5.871284,-3.93132 6.492624,-4.17701 0.73186,-0.28948 2.22518,0.66075 4.23954,2.69854 2.7061,2.73758 3.16335,2.96714 3.52588,1.76837 0.52468,-1.73494 9.79733,-74.67875 9.79733,-77.071265 0,-0.970778 -0.38377,-1.765267 -0.85266,-1.765267 z m -53.264962,2.30942 c -0.09023,-3.65e-4 -0.157687,0.02049 -0.199471,0.06356 -0.247333,0.254937 0.41182,11.082968 1.46451,24.062097 l 1.914096,23.598043 6.894669,17.975132 c 7.059428,18.40436 7.895834,19.78216 10.240719,16.86977 1.131174,-1.40492 0.348705,-64.075634 -0.839742,-67.258425 C 84.578484,58.402328 68.298524,45.713009 66.078978,45.704028 Z m 86.332712,5.789311 c -0.20975,-0.629415 -21.5629,12.516779 -23.45541,14.440462 -0.78278,0.795684 -0.29992,2.562525 2.77192,10.151835 2.04554,5.053695 3.86631,9.438868 4.04626,9.744625 0.17995,0.305756 0.58165,0.556038 0.89297,0.556038 0.70145,0 16.04224,-33.998775 15.74426,-34.89296 z m 3.78323,2.094445 c -0.49082,-0.57585 -15.86363,32.467337 -15.86363,34.098178 0,0.508249 0.0809,0.920573 0.17984,0.917773 0.0989,-0.0034 5.03368,-1.131812 10.96625,-2.507857 9.25073,-2.145674 10.77861,-2.699113 10.73061,-3.885551 -0.092,-2.27404 -5.50122,-28.022012 -6.01307,-28.622543 z M 28.340713,57.77771 c -0.220896,0.227706 8.259622,22.501313 12.829708,33.696134 1.499383,3.672888 1.698864,3.870243 2.617928,2.594157 1.700572,-2.361166 11.689209,-20.683874 11.689209,-21.442102 0,-0.730437 -26.673932,-15.325342 -27.136845,-14.848189 z m -3.758426,1.925463 c -0.555214,0.0017 -7.224202,31.369772 -6.769097,31.838884 0.209082,0.21552 4.481236,1.448891 9.493995,2.740918 5.012762,1.292027 9.836998,2.3787 10.720276,2.41484 l 1.606103,0.06563 -1.246435,-3.179134 C 30.344974,73.073021 24.896767,59.702173 24.582287,59.703173 Z M 125.98798,70.820324 c -0.23784,0 -1.35104,2.584842 -2.47375,5.744353 -1.12271,3.159483 -2.80518,7.749849 -3.73879,10.200411 -1.10504,2.900541 -2.58278,10.593315 -4.23385,22.042062 -1.39493,9.67265 -2.53628,17.87976 -2.53628,18.23765 0,0.35789 0.67335,1.53262 1.49603,2.6107 0.82267,1.07804 1.74829,1.79887 2.05673,1.60248 0.82196,-0.52363 17.30127,-38.564846 17.30127,-39.938649 0,-1.49578 -7.29701,-20.499007 -7.87136,-20.499007 z m -68.04959,5.734534 c -0.533626,-0.02094 -1.311236,1.314246 -3.443717,5.072559 -1.832119,3.228961 -4.697721,8.595845 -6.368087,11.92692 l -3.037024,6.056995 1.297595,2.838068 c 0.713842,1.56105 6.653663,13.64218 13.199194,26.84694 7.667517,15.46824 12.088086,23.64186 12.427149,22.97793 0.289451,-0.56674 1.246812,-4.19891 2.127519,-8.07186 1.371334,-6.03046 1.953818,-7.3729 4.0566,-9.34723 2.435684,-2.28693 2.447465,-2.32877 1.453141,-5.18883 C 78.195137,125.47939 59.811829,79.672188 58.735757,77.550663 58.430624,76.949066 58.217909,76.565828 57.93839,76.554858 Z m 102.28368,10.852051 c -0.1964,0.01085 -0.41627,0.04627 -0.65474,0.107487 -0.88989,0.228295 -6.07476,1.520841 -11.52178,2.872176 -5.44702,1.351335 -10.05549,2.613654 -10.24123,2.804997 -0.78447,0.808627 -19.04587,39.985691 -19.04587,40.860041 0,0.52767 0.38788,1.35976 0.86248,1.84898 1.27307,1.31226 1.52579,1.19715 5.53196,-2.5156 3.41483,-3.16473 4.06709,-3.45737 9.24647,-4.14911 3.06479,-0.4093 5.94899,-1.12851 6.40942,-1.59835 1.12981,-1.1529 20.37654,-38.659833 20.37654,-39.708689 0,-0.366857 -0.37406,-0.554473 -0.96325,-0.521932 z m -140.998113,7.18044 c -1.148104,0.02406 0.160491,2.451602 5.466333,10.226771 15.771547,23.11157 24.709666,35.89917 26.747722,38.26743 1.232873,1.43258 5.47797,4.43555 9.433016,6.67298 3.955043,2.23739 7.457334,4.06972 7.782987,4.07572 0.325656,0.004 -0.357508,-1.74316 -1.518254,-3.88348 -1.160747,-2.1403 -5.292374,-9.89539 -9.180835,-17.23358 -3.888464,-7.33821 -9.224438,-17.34476 -11.85819,-22.23689 l -4.788855,-8.89506 -10.713042,-3.467491 c -5.89209,-1.907378 -10.955397,-3.492102 -11.252026,-3.521232 -0.0421,-0.0041 -0.08182,-0.0059 -0.118856,-0.0052 z m 84.902313,28.212231 c -0.27044,0.004 -0.47553,0.31292 -0.48059,0.77153 -0.006,0.54358 -0.65333,5.64882 -1.43816,11.34453 -0.78482,5.69575 -1.42678,10.77479 -1.42678,11.28665 0,0.51187 1.64676,2.27222 3.6592,3.91191 l 3.6587,2.98121 5.24929,-3.74034 c 7.8317,-5.58068 7.98104,-5.82125 5.58829,-9.00668 -3.69826,-4.92342 -14.02637,-17.27038 -14.65389,-17.51832 -0.0537,-0.0212 -0.10598,-0.0312 -0.15606,-0.0305 z m -3.94756,1.55081 c -0.866169,-0.0132 -3.181913,1.51538 -9.105908,5.78156 -5.141557,3.70272 -9.77809,7.17105 -10.303764,7.70703 -0.793776,0.80936 -0.451254,2.00948 2.022615,7.08122 1.638301,3.3587 2.819543,6.27109 2.624646,6.47196 -0.194911,0.2009 -1.752559,-1.82809 -3.461287,-4.50877 -1.708726,-2.68068 -3.295818,-4.88111 -3.526917,-4.88911 -0.231105,-0.008 -1.328013,3.15298 -2.437577,7.02593 -1.109567,3.87294 -2.378009,7.55054 -2.818949,8.17211 -0.692528,0.97624 -2.118134,0.47145 -10.466545,-3.70624 -5.315505,-2.65997 -10.126047,-4.83639 -10.690303,-4.83639 -1.282833,0 -13.795541,7.39485 -13.795541,8.15299 0,0.30592 4.934816,2.39137 10.966256,4.63434 l 10.966256,4.0783 5.461682,-0.894 c 6.054993,-0.99086 7.36029,-0.70516 11.281998,2.46962 3.232347,2.61671 3.887639,2.82902 15.256434,4.94595 13.443234,2.5032 12.991604,2.57402 20.464384,-3.20756 l 6.4425,-4.98419 1.2485,-7.78299 c 0.68671,-4.28062 1.26608,-8.19994 1.28778,-8.70954 0.0748,-1.75651 -1.55511,-0.91347 -6.45129,3.33571 -4.58782,3.98159 -5.05663,4.67632 -7.12463,10.56215 l -2.21381,6.30091 0.31005,-5.76761 c 0.34154,-6.34499 0.0309,-6.96424 -5.16402,-10.28464 -2.234219,-1.42804 -2.506633,-1.44335 -5.700946,-0.32143 -1.845094,0.64804 -4.156496,1.17822 -5.13612,1.17822 -1.453633,0 -0.970935,-0.53958 2.624129,-2.9347 2.725086,-1.81552 4.54448,-3.58238 4.770768,-4.6328 1.362395,-6.3241 3.315539,-18.7663 3.132629,-19.95537 -0.0466,-0.30275 -0.1743,-0.47827 -0.46302,-0.48266 z m 44.45051,7.3086 c -0.28689,-0.007 -0.6058,-0.002 -0.96686,0.005 -4.21808,0.0888 -11.10657,1.03396 -11.65511,1.59939 -0.25499,0.26283 1.53393,2.99864 3.97599,6.07921 2.44205,3.08054 4.91008,5.60069 5.4839,5.60069 1.57125,0 9.91652,-2.39068 10.65723,-3.05304 0.36268,-0.32433 -0.7019,-2.71313 -2.42156,-5.43378 -2.60998,-4.12922 -3.06536,-4.74816 -5.07359,-4.79764 z m -15.79283,2.93522 c -0.20357,0.0153 -1.61862,1.12974 -3.14451,2.47634 l -2.77451,2.44791 1.18494,2.36265 c 1.11369,2.21991 1.09456,2.87785 -0.3235,10.92078 -0.82996,4.70737 -1.3837,8.95118 -1.23041,9.43043 0.15328,0.47926 2.19439,1.25205 4.53616,1.71721 6.14387,1.22039 5.98072,1.2418 11.59102,-1.52962 4.34311,-2.14545 5.51343,-3.1462 7.58558,-6.48591 4.13321,-6.66153 5.93137,-10.13 5.48804,-10.58695 -0.23309,-0.24029 -2.79125,0.4944 -5.68441,1.63245 -5.09876,2.00569 -5.33643,2.21239 -7.73854,6.72466 -1.36302,2.56035 -2.6351,4.4929 -2.82722,4.29483 -0.19212,-0.19801 0.35516,-2.54113 1.21595,-5.20744 0.86081,-2.66628 1.32296,-5.27263 1.02732,-5.79189 -1.33838,-2.35063 -8.57459,-12.43065 -8.90591,-12.40545 z m -87.021564,1.48674 c -2.57692,0.0353 -3.354812,1.78631 -4.196126,9.4449 -0.460644,4.1933 -0.837675,8.11262 -0.837675,8.70954 0,0.59692 0.202669,1.08521 0.450619,1.08521 0.959014,0 10.960036,-9.3187 11.006046,-10.25519 0.07732,-1.57397 -5.231895,-9.00126 -6.422864,-8.98446 z m 44.309957,20.93929 c 0.150691,0.008 0.23888,0.10954 0.223242,0.29507 -0.0278,0.32982 -0.328268,1.26668 -0.668176,2.08204 -0.595827,1.42935 -0.619963,1.42468 -0.668693,-0.14108 -0.0278,-0.89321 0.273188,-1.8307 0.668693,-2.08256 0.173033,-0.11027 0.32773,-0.15992 0.444934,-0.15347 z" /></g></svg>
