<?xml version="1.0" encoding="UTF-8" standalone="no"?>
<!-- Created with Inkscape (http://www.inkscape.org/) -->

<svg
   width="180mm"
   height="180mm"
   viewBox="0 0 180 180"
   version="1.1"
   id="svg1"
   sodipodi:docname="flora_flower.svg"
   inkscape:version="1.4.2 (f4327f4, 2025-05-13)"
   xmlns:inkscape="http://www.inkscape.org/namespaces/inkscape"
   xmlns:sodipodi="http://sodipodi.sourceforge.net/DTD/sodipodi-0.dtd"
   xmlns="http://www.w3.org/2000/svg"
   xmlns:svg="http://www.w3.org/2000/svg">
  <sodipodi:namedview
     id="namedview1"
     pagecolor="#505050"
     bordercolor="#ffffff"
     borderopacity="1"
     inkscape:showpageshadow="0"
     inkscape:pageopacity="0"
     inkscape:pagecheckerboard="1"
     inkscape:deskcolor="#505050"
     inkscape:document-units="mm"
     inkscape:zoom="1"
     inkscape:cx="73"
     inkscape:cy="204"
     inkscape:window-width="2560"
     inkscape:window-height="1351"
     inkscape:window-x="-9"
     inkscape:window-y="-9"
     inkscape:window-maximized="1"
     inkscape:current-layer="layer1"
     showguides="true" />
  <defs
     id="defs1">
    <rect
       x="101.82338"
       y="91.923881"
       width="384.66609"
       height="299.81327"
       id="rect3" />
    <rect
       x="2.8284271"
       y="2.1213203"
       width="662.55905"
       height="647.0027"
       id="rect2" />
  </defs>
  <g
     inkscape:label="Icon"
     inkscape:groupmode="layer"
     id="layer1">
    <path
       id="rect1"
       style="fill:#000000;fill-opacity:1;stroke:#000000;stroke-width:0.662909"
       inkscape:label="Background"
       d="m 90.068136,1.8627239 a 32.295223,34.104043 1.2732401 0 0 -3.093339,1.9340759 h -0.02556 A 32.29512,34.104152 0 0 0 81.74958,8.3986711 32.295223,34.104043 1.2732401 0 0 74.108922,21.903944 l 0.0491,9.75e-4 a 32.29512,34.104152 0 0 0 -1.474021,10.298779 32.29512,34.104152 0 0 0 15.790863,29.203136 1.5105126,34.70992 0 0 1 0,-0.25146 1.5105126,34.70992 0 0 1 1.502579,-34.823446 1.5105126,34.70992 0 0 1 1.518111,34.481278 v 0.228281 a 1.5105126,34.70992 0 0 1 0,0.475203 32.29512,34.104152 0 0 0 15.791866,-29.315008 l -9.7e-4,-0.224752 a 32.29512,34.104152 0 0 0 -1.3202,-9.304528 l 0.0271,5.04e-4 A 32.295223,34.104043 1.2732401 0 0 105.73324,21.749238 32.295223,34.104043 1.2732401 0 0 90.068136,1.8627239 Z M 41.227542,24.796491 A 32.29512,34.104152 0 0 0 32.584329,26.106704 32.29512,34.104152 0 0 0 39.77757,60.575888 32.29512,34.104152 0 0 0 70.252526,70.33496 33.853197,1.5487392 48.158853 0 1 70.089191,70.152539 33.853197,1.5487392 48.158853 0 1 48.52149,43.76132 33.853197,1.5487392 48.158853 0 1 72.061233,67.712015 l 0.147803,0.165792 A 33.853197,1.5487392 48.158853 0 1 72.518169,68.222493 32.29512,34.104152 0 0 0 64.91659,35.465656 L 64.770291,35.302887 A 32.29512,34.104152 0 0 0 41.227542,24.796491 Z m 99.304018,1.603499 a 32.29512,34.104152 0 0 0 -23.82933,9.947541 32.29512,34.104152 0 0 0 -8.52047,32.401568 1.5514505,33.794038 43.67976 0 1 0.16834,-0.175872 1.5514505,33.794038 43.67976 0 1 24.47667,-23.391333 1.5514505,33.794038 43.67976 0 1 -22.11933,25.415109 l -0.15382,0.160753 a 1.5514505,33.794038 43.67976 0 1 -0.31865,0.335112 32.29512,34.104152 0 0 0 30.83169,-8.796568 l 0.1498,-0.158234 a 32.29512,34.104152 0 0 0 7.94829,-34.197064 32.29512,34.104152 0 0 0 -8.63319,-1.541012 z M 89.858206,62.508453 A 25.836096,27.283321 0 0 0 64.149017,89.881323 25.836096,27.283321 0 0 0 90.027553,117.0748 25.836096,27.283321 0 0 0 115.82141,89.791624 l -9.6e-4,-0.179903 A 25.836096,27.283321 0 0 0 89.858206,62.508453 Z M 35.706226,69.54329 A 32.29512,34.104152 0 0 0 6.6126012,86.742859 32.29512,34.104152 0 0 0 34.582925,106.06599 32.29512,34.104152 0 0 0 62.826306,90.532398 32.871587,1.5949875 2.3417501 0 1 62.58882,90.522319 32.871587,1.5949875 2.3417501 0 1 29.694907,87.589962 32.871587,1.5949875 2.3417501 0 1 62.381395,87.322376 l 0.215942,0.0081 a 32.871587,1.5949875 2.3417501 0 1 0.450423,0.01814 32.29512,34.104152 0 0 0 -27.128597,-17.79776 z m 108.589054,0.747829 a 32.29512,34.104152 0 0 0 -27.23682,17.42281 1.595064,32.870011 88.440583 0 1 0.23748,-0.006 1.595064,32.870011 88.440583 0 1 33.00414,0.68887 1.595064,32.870011 88.440583 0 1 -32.60182,2.49142 l -0.21644,0.0051 a 1.595064,32.870011 88.440583 0 1 -0.45042,0.01209 32.29512,34.104152 0 0 0 28.1577,15.915561 l 0.21294,-0.006 A 32.29512,34.104152 0 0 0 173.3874,87.67124 v -5.03e-4 A 32.29512,34.104152 0 0 0 144.29528,70.291119 Z m -24.72117,35.734551 a 32.29512,34.104152 0 0 0 -8.15521,1.64129 33.676479,1.5568661 42.646664 0 1 0.17986,0.16529 33.676479,1.5568661 42.646664 0 1 23.86592,24.08222 33.676479,1.5568661 42.646664 0 1 -25.60749,-21.45322 l -0.16283,-0.15018 a 33.676479,1.5568661 42.646664 0 1 -0.33869,-0.31192 32.29512,34.104152 0 0 0 10.54361,31.83514 l 0.16032,0.14665 a 32.29512,34.104152 0 0 0 32.87337,5.89092 32.29512,34.104152 0 0 0 -10.29309,-33.58126 32.29512,34.104152 0 0 0 -23.06577,-8.26493 z m -58.913742,0.35678 a 32.29512,34.104152 0 0 0 -23.008153,8.67865 l -0.157323,0.15017 a 32.29512,34.104152 0 0 0 -9.559591,33.73396 32.29512,34.104152 0 0 0 32.820763,-6.68007 32.29512,34.104152 0 0 0 10.045588,-31.91075 1.5556922,33.701892 46.554754 0 1 -0.176863,0.16781 1.5556922,33.701892 46.554754 0 1 -25.554371,22.06702 1.5556922,33.701892 46.554754 0 1 23.296243,-24.21375 l 0.161331,-0.15219 a 1.5556922,33.701892 46.554754 0 1 0.334686,-0.31747 32.29512,34.104152 0 0 0 -8.20231,-1.52338 z m 28.270939,12.21723 a 32.29512,34.104152 0 0 0 -15.319396,29.59268 l 0.0046,0.22475 a 32.29512,34.104152 0 0 0 17.87864,29.72017 32.29512,34.104152 0 0 0 16.715259,-30.56526 32.29512,34.104152 0 0 0 -16.255817,-28.9169 34.709407,1.5105348 89.082916 0 1 0.0035,0.25095 34.709407,1.5105348 89.082916 0 1 -0.944937,34.84613 34.709407,1.5105348 89.082916 0 1 -2.069241,-34.44953 l -0.0046,-0.22778 a 34.709407,1.5105348 89.082916 0 1 -0.008,-0.47521 z" />
  </g>
</svg>
