<?xml version="1.0" encoding="UTF-8" standalone="no"?>
<!-- Created with Inkscape (http://www.inkscape.org/) -->

<svg
   width="180mm"
   height="180mm"
   viewBox="0 0 180 180"
   version="1.1"
   id="svg1"
   sodipodi:docname="coral_reef.svg"
   inkscape:version="1.4.2 (f4327f4, 2025-05-13)"
   xml:space="preserve"
   xmlns:inkscape="http://www.inkscape.org/namespaces/inkscape"
   xmlns:sodipodi="http://sodipodi.sourceforge.net/DTD/sodipodi-0.dtd"
   xmlns="http://www.w3.org/2000/svg"
   xmlns:svg="http://www.w3.org/2000/svg"><sodipodi:namedview
     id="namedview1"
     pagecolor="#505050"
     bordercolor="#ffffff"
     borderopacity="1"
     inkscape:showpageshadow="0"
     inkscape:pageopacity="0"
     inkscape:pagecheckerboard="1"
     inkscape:deskcolor="#505050"
     inkscape:document-units="mm"
     inkscape:zoom="0.70710678"
     inkscape:cx="141.42136"
     inkscape:cy="606.69762"
     inkscape:window-width="2560"
     inkscape:window-height="1351"
     inkscape:window-x="-9"
     inkscape:window-y="-9"
     inkscape:window-maximized="1"
     inkscape:current-layer="layer1"
     showguides="true" /><defs
     id="defs1"><rect
       x="101.82338"
       y="91.923881"
       width="384.66609"
       height="299.81327"
       id="rect3" /><rect
       x="2.8284271"
       y="2.1213203"
       width="662.55905"
       height="647.0027"
       id="rect2" /></defs><g
     inkscape:label="Icon"
     inkscape:groupmode="layer"
     id="layer1"><path
       style="fill:#000000;stroke-width:3.00196"
       d="m 73.938028,174.312 c -1.42195,-1.51174 -1.511448,-2.31468 -1.044714,-9.37375 0.482368,-7.29532 0.395636,-7.96991 -1.575063,-12.25223 -3.548848,-7.71158 -10.429439,-12.11845 -20.660928,-13.23291 -4.337443,-0.47243 -5.558881,-0.24576 -10.881848,2.02035 -7.131819,3.03604 -12.062119,3.35018 -14.353078,0.91457 -3.015355,-3.20575 -1.317283,-9.00854 2.636198,-9.00854 2.440403,0 6.607642,-1.63396 6.607642,-2.59084 0,-3.30684 -6.180329,-8.18689 -12.639168,-9.98001 -5.747834,-1.59575 -7.389161,-3.19334 -7.389161,-7.19223 0,-9.07963 12.716088,-6.78371 24.876643,4.49156 7.094727,6.57821 10.293241,8.71278 13.061618,8.71677 1.165103,0.002 2.118368,-0.19036 2.118368,-0.42687 0,-0.23647 -1.179892,-2.92079 -2.62196,-5.96522 -3.035852,-6.40899 -6.346224,-9.8645 -16.988256,-17.73292 L 27.414059,97.028533 19.197435,96.452099 C 14.67829,96.13505 10.227155,95.446845 9.306032,94.922752 5.9261057,92.999624 5.4936395,86.757405 8.617213,84.980157 c 0.915475,-0.520874 3.422463,-0.638185 6.398047,-0.299314 2.69102,0.306433 5.247561,0.323921 5.681191,0.039 0.502574,-0.330235 0.05998,-2.671288 -1.221002,-6.457744 -1.315391,-3.888259 -1.834239,-6.681563 -1.502306,-8.087656 0.619614,-2.624612 3.841595,-4.026959 6.803437,-2.961161 2.049833,0.737636 2.551999,1.588962 6.350533,10.766373 2.776092,6.707161 7.074376,12.63682 11.154039,15.387409 4.204098,2.834533 5.178967,2.910306 5.760295,0.447825 0.641595,-2.717749 -0.856401,-7.750054 -3.542647,-11.900855 -1.277076,-1.973365 -2.321936,-4.539599 -2.321936,-5.702712 0,-2.199661 3.248213,-5.891618 5.183509,-5.891618 1.980016,0 5.534745,4.006809 8.136471,9.171221 2.490596,4.943812 2.617419,5.62499 3.019082,16.216511 0.343318,9.052764 0.699358,11.563404 1.965051,13.856574 0.850142,1.54034 1.936461,2.93909 2.414025,3.10831 1.091385,0.38676 2.584025,-4.04321 2.584025,-7.66905 0,-3.01836 2.219074,-6.019976 4.450523,-6.019976 2.359173,0 4.711883,2.391036 5.227442,5.312586 0.315775,1.78953 -0.142661,5.62294 -1.263131,10.56456 -1.508187,6.65107 -1.627905,8.2201 -0.840418,11.01442 1.108155,3.93225 4.963578,8.5579 6.816655,8.17851 3.767673,-0.77141 4.971527,-20.51236 1.839044,-30.15632 C 78.365696,93.603668 74.15825,86.337592 65.979213,76.732227 56.236992,65.291114 54.212838,64.092715 42.754582,62.982035 35.275311,62.257028 33.557966,61.781036 28.118512,58.925207 18.162882,53.698301 14.446539,48.312731 17.731552,43.872831 c 2.426311,-3.279325 5.879257,-3.016195 10.121495,0.771251 5.351237,4.777564 10.222056,6.822275 16.273787,6.831561 3.965214,0.0062 5.331934,-0.291576 5.672544,-1.235141 0.936234,-2.593844 -1.575383,-6.303134 -7.53223,-11.124032 -10.911254,-8.830493 -14.01305,-13.339448 -12.264232,-17.828099 1.130224,-2.900896 3.991563,-4.432007 6.436071,-3.443932 0.978362,0.395453 3.224484,2.754675 4.991382,5.242692 3.223873,4.539568 5.851395,6.303444 7.22091,4.847455 0.403992,-0.429501 1.251601,-4.978974 1.883588,-10.109926 0.631988,-5.130983 1.64389,-10.1319338 2.248685,-11.1132613 2.421827,-3.9295504 7.557326,-3.4220174 9.261949,0.9153051 0.965318,2.4561972 0.906857,3.8037892 -0.52278,12.0505122 -2.492255,14.376552 -1.232123,24.892982 4.196587,35.022161 2.420081,4.515486 6.679642,9.887623 7.839912,9.887623 1.607176,0 2.91392,-5.393618 2.550775,-10.528532 -0.214282,-3.031393 -1.343952,-7.005051 -3.282043,-11.54561 -2.187806,-5.125597 -3.052738,-8.373134 -3.330927,-12.506415 -0.460649,-6.844964 0.734325,-8.824302 5.32748,-8.824302 3.687841,0 4.950971,1.899511 5.520829,8.30219 0.415841,4.672448 2.290201,9.714906 3.611153,9.714906 1.496629,0 3.851755,-3.682887 5.441928,-8.509976 1.065211,-3.233484 1.789986,-7.899246 2.049251,-13.192422 0.330565,-6.748329 0.680201,-8.5139074 1.986624,-10.0322659 2.577096,-2.9951783 6.80699,-2.3400933 8.5731,1.3276892 1.84868,3.8391997 2.16131,9.9271507 0.85503,16.6505927 -1.56979,8.079671 -2.72071,10.976512 -7.74316,19.489119 -4.697384,7.961647 -7.927749,17.361021 -8.601021,25.026327 -0.386174,4.396597 -0.115293,6.423881 1.611951,12.069331 2.727675,8.914746 6.663338,16.469116 8.752184,16.799599 1.207988,0.190979 2.121398,-0.689195 3.715296,-3.580681 2.86748,-5.201958 2.69134,-8.849188 -0.887408,-18.375159 -2.46512,-6.561714 -2.929934,-8.766946 -2.967929,-14.081449 -0.05415,-7.567494 1.550579,-10.727032 5.667677,-11.159164 4.26591,-0.447763 5.43663,1.494773 5.43663,9.020976 0,4.954614 0.37846,7.246081 1.62634,9.846549 l 1.62633,3.389176 1.40541,-1.980824 c 4.02965,-5.679559 5.58774,-22.26187 3.50701,-37.324275 -1.35428,-9.803679 -1.00739,-12.59395 1.76154,-14.169416 2.36392,-1.344992 4.44043,-1.038869 6.60645,0.97393 2.63259,2.446354 4.23456,10.632161 4.25217,21.72812 0.0146,9.538259 0.56601,10.430102 4.81338,7.792893 3.128,-1.942196 5.50336,-5.623257 7.18897,-11.140655 1.70584,-5.583575 3.77122,-7.938649 6.96222,-7.938649 3.5683,0 5.98658,3.381562 5.45407,7.626583 -0.51387,4.096417 -3.66149,10.845024 -6.98167,14.968834 -1.46132,1.815011 -6.0117,5.828164 -10.11195,8.918151 -8.90789,6.713012 -10.61437,8.846371 -13.84238,17.304564 -3.55985,9.32781 -6.86059,15.972231 -12.55942,25.282145 -8.67378,14.16998 -11.656848,21.63629 -11.703808,29.29336 -0.0233,3.81326 0.86534,3.88984 5.692578,0.49051 4.60969,-3.24612 6.81546,-6.83748 8.97787,-14.61755 2.30899,-8.30736 3.67955,-11.00447 9.09137,-17.89081 5.27802,-6.716045 5.17021,-6.447406 6.21017,-15.476832 1.12076,-9.731157 2.74358,-12.494096 7.33839,-12.494096 3.2805,0 3.89056,1.872396 2.81901,8.652142 -0.5282,3.341912 -0.7444,6.447653 -0.48051,6.901638 2.00046,3.441177 7.14716,-3.802334 9.88762,-13.915851 2.11726,-7.813631 9.00988,-15.560249 13.84489,-15.560249 2.73367,0 5.15826,2.675466 5.15826,5.691971 0,1.865154 -0.79887,3.125737 -3.50322,5.527984 -3.99314,3.547036 -7.19628,9.798355 -7.47599,14.59022 -0.18458,3.162633 -0.11733,3.259639 2.18464,3.156999 1.42934,-0.06376 3.83006,-1.286646 6.02899,-3.071105 4.09326,-3.321731 5.68492,-3.620828 8.11871,-1.525633 2.34919,2.022394 2.33242,6.198824 -0.0358,8.894101 -4.24576,4.832196 -8.08485,6.364911 -17.2801,6.899031 -7.92062,0.46005 -9.01512,0.73523 -14.6676,3.68769 -6.87296,3.58997 -13.71262,10.14496 -14.36367,13.76585 -0.59106,3.28703 0.98319,3.55524 6.21541,1.0589 9.39564,-4.48277 19.4178,-5.78585 22.097,-2.8731 2.03751,2.2151 2.12582,5.24764 0.2201,7.55978 -1.48105,1.79697 -2.65265,2.25293 -6.79659,2.64508 -8.71917,0.82507 -20.02833,5.42481 -20.02833,8.14603 0,1.48805 1.91541,2.47684 6.12434,3.16152 1.88551,0.30674 3.87871,0.95517 4.42933,1.44097 1.65047,1.45627 1.20915,5.92223 -0.78176,7.91067 -2.37972,2.37681 -6.13563,2.29695 -12.54215,-0.26681 -6.0616,-2.42562 -8.13417,-2.51328 -12.25102,-0.51812 -7.22434,3.50119 -11.13942,9.31806 -11.21311,16.65994 -0.0577,5.75029 -1.449198,9.78987 -3.80811,11.05516 -1.2454,0.66803 -5.395928,1.03726 -11.747392,1.04506 -8.833733,0.0124 -9.97799,-0.15414 -11.376736,-1.6413 z"
       id="path1" /></g></svg>
