<?xml version="1.0" encoding="UTF-8" standalone="no"?>
<!-- Created with Inkscape (http://www.inkscape.org/) -->

<svg
   width="180mm"
   height="180mm"
   viewBox="0 0 180 180"
   version="1.1"
   id="svg1"
   sodipodi:docname="other_high_fertility_soil.svg"
   inkscape:version="1.4.2 (f4327f4, 2025-05-13)"
   xml:space="preserve"
   xmlns:inkscape="http://www.inkscape.org/namespaces/inkscape"
   xmlns:sodipodi="http://sodipodi.sourceforge.net/DTD/sodipodi-0.dtd"
   xmlns="http://www.w3.org/2000/svg"
   xmlns:svg="http://www.w3.org/2000/svg"><sodipodi:namedview
     id="namedview1"
     pagecolor="#505050"
     bordercolor="#ffffff"
     borderopacity="1"
     inkscape:showpageshadow="0"
     inkscape:pageopacity="0"
     inkscape:pagecheckerboard="1"
     inkscape:deskcolor="#505050"
     inkscape:document-units="mm"
     inkscape:zoom="1"
     inkscape:cx="410"
     inkscape:cy="454"
     inkscape:window-width="2560"
     inkscape:window-height="1351"
     inkscape:window-x="-9"
     inkscape:window-y="-9"
     inkscape:window-maximized="1"
     inkscape:current-layer="layer1"
     showguides="true" /><defs
     id="defs1"><rect
       x="101.82338"
       y="91.923881"
       width="384.66609"
       height="299.81327"
       id="rect3" /><rect
       x="2.8284271"
       y="2.1213203"
       width="662.55905"
       height="647.0027"
       id="rect2" /></defs><g
     inkscape:label="Icon"
     inkscape:groupmode="layer"
     id="layer1"><path
       style="fill:#000000;stroke-width:1.99425"
       d="m 11.470651,174.16805 c 2.018198,-10.28565 13.526181,-19.47676 25.646527,-20.4832 2.355839,-0.19562 3.12708,-0.49186 3.739668,-1.43645 0.424464,-0.65451 2.731334,-3.06749 5.126393,-5.36217 3.56113,-3.4119 5.288799,-4.61043 9.481056,-6.57728 13.585266,-6.37366 27.50132,-4.63126 37.900587,4.74551 3.405923,3.07104 3.762829,3.26093 5.532247,2.94357 2.440401,-0.43773 7.973131,0.52669 10.769681,1.87729 1.20332,0.58111 3.32812,2.06931 4.7218,3.30709 2.53815,2.25417 3.79521,2.49446 4.45464,0.85147 0.52215,-1.30099 -2.27071,-4.61215 -5.78006,-6.85274 -1.77111,-1.13078 -3.55678,-2.05597 -3.96813,-2.05597 -1.32295,0 -0.80914,-1.05882 1.95015,-4.01877 1.48396,-1.59186 2.6981,-3.08015 2.6981,-3.30727 0,-1.45673 8.55887,1.08696 13.93803,4.14236 4.02082,2.28388 8.36255,6.12818 10.89381,9.64575 1.56832,2.17942 1.80358,2.30912 4.1987,2.3149 6.21821,0.0156 12.7963,2.89941 18.22365,7.99081 3.98603,3.73932 6.76068,8.25235 7.53351,12.2534 l 0.37371,1.93473 H 90.000015 11.095279 Z m 42.412186,-19.23416 c 3.752313,-3.46715 8.203833,-5.82079 12.794425,-6.76475 3.522522,-0.72435 4.436019,-1.24495 4.436019,-2.52803 0,-2.65415 -4.759485,-2.33428 -11.601842,0.7797 -4.22348,1.92214 -10.350784,6.89905 -10.854075,8.81624 -0.314573,1.19835 0.507553,2.78643 1.442506,2.78643 0.2416,0 1.94394,-1.39032 3.782967,-3.08959 z m 42.173179,-13.04415 c -2.812058,-2.74077 -8.64557,-6.1489 -13.200331,-7.71206 -2.908649,-0.99826 -4.521922,-1.16629 -11.605063,-1.20884 -4.524738,-0.0272 -8.34256,-0.1601 -8.484041,-0.29537 -0.141542,-0.13532 -0.479856,-2.14844 -0.751947,-4.47373 -0.942417,-8.05369 -0.0569,-11.711 7.580395,-31.306816 2.418227,-6.204796 2.832105,-6.897486 4.467426,-7.476973 1.197397,-0.424319 2.136326,-0.142937 10.253766,3.072828 3.189385,1.263509 5.846468,2.018408 6.528357,1.854759 0.809949,-0.194409 1.726481,-1.499093 3.100099,-4.413248 1.072589,-2.275505 2.262917,-4.139782 2.645177,-4.142844 1.362004,-0.0117 11.887396,4.372865 12.166006,5.067036 0.15602,0.388829 -0.36835,2.497925 -1.16532,4.686871 -0.79699,2.188958 -1.30809,4.315558 -1.13582,4.725777 0.17235,0.41022 3.63809,2.13888 7.70174,3.84146 5.93529,2.48674 7.48161,3.34973 7.86218,4.38774 0.37759,1.02988 -0.0979,2.60065 -2.34296,7.73898 -8.39782,19.22057 -13.5681,26.65951 -19.15307,27.55715 -2.03052,0.32634 -2.295311,0.21356 -4.466594,-1.90272 z m -8.520368,-27.97846 c 0.435541,-2.83762 1.530944,-7.59709 2.434218,-10.5766 0.903286,-2.97951 1.643828,-5.550784 1.645661,-5.713944 0.0024,-0.163215 -0.834948,-0.279255 -1.859546,-0.257976 -1.86258,0.03884 -1.86305,0.0394 -2.675137,3.65023 -2.083896,9.2657 -2.523104,15.33862 -1.312879,18.15302 0.721047,1.67679 0.689253,1.77136 1.767683,-5.25473 z m 6.687044,-8.51485 c 1.791856,-4.11562 3.991819,-9.046825 4.888781,-10.958219 1.618647,-3.449327 1.622527,-3.479475 0.518699,-4.044295 -0.611649,-0.312986 -1.312768,-0.373416 -1.558036,-0.134347 -0.680033,0.662987 -5.106922,12.316141 -6.339034,16.686611 -2.594952,9.2048 -2.043202,8.86133 2.48959,-1.54979 z M 107.67258,87.815404 c -0.51938,-0.289239 -0.94433,-0.75351 -0.94433,-1.031733 0,-0.478466 7.85521,-19.361262 13.18243,-31.68862 3.0895,-7.149168 3.13171,-8.154849 0.0843,-2.007931 -1.28131,2.58454 -2.63107,4.877268 -2.99944,5.094944 -0.83643,0.494241 -0.48638,-0.696709 1.66269,-5.656908 1.82089,-4.202712 1.90588,-4.91112 0.58919,-4.91112 -0.53421,0 -1.25866,-0.274732 -1.60987,-0.610519 -0.3512,-0.335786 -0.72936,-0.50992 -0.8404,-0.386954 -0.11096,0.123044 -3.81049,8.755366 -8.22108,19.183093 -7.30653,17.274472 -8.11669,18.931526 -9.115592,18.644548 -0.60301,-0.173159 -1.285429,-0.481255 -1.516498,-0.684463 -0.231058,-0.203226 0.907129,-3.60163 2.52932,-7.552015 4.02062,-9.791058 11.53256,-27.417814 12.16939,-28.555509 0.28568,-0.510368 0.66275,-1.705764 0.83791,-2.656457 0.1752,-0.950673 1.03444,-3.43797 1.90946,-5.527318 0.87503,-2.089346 1.58985,-4.419735 1.58849,-5.178641 -0.001,-0.758907 -0.74148,-3.196283 -1.64472,-5.416394 -1.72892,-4.249645 -2.18033,-9.188101 -1.14013,-12.473258 0.73233,-2.312833 3.96862,-9.6347323 4.84861,-10.9696141 1.48284,-2.2493943 4.99737,-1.9254505 6.00352,0.5533618 0.67691,1.6676763 18.13705,8.3525253 21.81591,8.3525253 2.2299,0 2.79776,0.213025 3.73357,1.400584 1.00495,1.27529 1.04183,1.598375 0.41235,3.611525 -1.18595,3.792732 -5.15182,11.420396 -6.96367,13.393375 -1.08826,1.185052 -3.62313,2.765597 -6.82079,4.252873 -5.52007,2.567474 -6.23821,3.335477 -8.96481,9.587387 -0.68065,1.560704 -1.46606,2.987269 -1.74533,3.170159 -0.45859,0.300296 -3.35163,6.938004 -13.40344,30.752375 -1.82655,4.327373 -3.58463,7.860891 -3.90685,7.852273 -0.32223,-0.0078 -1.01083,-0.252328 -1.53021,-0.541569 z m 16.21559,-45.97981 c 0.96182,-0.919585 0.78741,-1.852675 -0.46618,-2.494123 -1.32318,-0.677058 -2.6636,0.120879 -2.6636,1.585623 0,1.411144 1.99759,1.991002 3.12978,0.9085 z m 10.62815,-10.716573 c 0.88904,-0.330847 2.35224,-1.138117 3.25155,-1.793933 1.86623,-1.360956 4.92983,-6.382515 4.23044,-6.934148 -0.25548,-0.201532 -2.28575,-1.095203 -4.51169,-1.985936 -2.22594,-0.890735 -6.40235,-2.562514 -9.28094,-3.715067 -2.87858,-1.152552 -5.46948,-2.095551 -5.75756,-2.095551 -0.28806,0 -0.93586,1.186255 -1.43954,2.63612 -1.20059,3.455915 -0.83472,6.824622 1.15161,10.60373 1.2518,2.38162 2.03869,3.202147 3.92085,4.088499 2.48117,1.168428 3.361,1.084598 8.43528,-0.803714 z m -29.5855,55.318899 c -0.33387,-0.533281 4.15728,-12.397225 6.55199,-17.307935 2.36225,-4.844156 4.70987,-7.445896 2.59706,-2.878207 -0.71867,1.553665 -2.5551,6.151227 -4.08099,10.216836 -2.64979,7.060132 -4.11438,10.35626 -4.6017,10.35626 -0.12319,0 -0.33312,-0.174133 -0.46636,-0.386954 z m -2.81445,-2.063741 c 1.92698,-4.830565 4.33965,-10.315309 4.77142,-10.84703 1.06131,-1.306856 0.88535,-0.214517 -0.65254,4.051218 -2.62787,7.289059 -2.82287,7.698712 -3.66467,7.698712 -0.55308,0 -0.69881,-0.289729 -0.45421,-0.9029 z m 9.27317,-21.089235 c 0.78408,-1.950584 2.07776,-5.171695 2.87486,-7.158021 3.48596,-8.686826 5.20636,-9.511198 2.11275,-1.012372 -1.93704,5.321532 -4.32187,10.057465 -5.5587,11.03889 -0.63073,0.500462 -0.48117,-0.25069 0.57109,-2.868497 z"
       id="path1" /></g></svg>
