<?xml version="1.0" encoding="UTF-8" standalone="no"?>
<!-- Created with Inkscape (http://www.inkscape.org/) -->

<svg
   width="180mm"
   height="180mm"
   viewBox="0 0 180 180"
   version="1.1"
   id="svg1"
   sodipodi:docname="anchor.svg"
   inkscape:version="1.4.2 (f4327f4, 2025-05-13)"
   xml:space="preserve"
   xmlns:inkscape="http://www.inkscape.org/namespaces/inkscape"
   xmlns:sodipodi="http://sodipodi.sourceforge.net/DTD/sodipodi-0.dtd"
   xmlns="http://www.w3.org/2000/svg"
   xmlns:svg="http://www.w3.org/2000/svg"><sodipodi:namedview
     id="namedview1"
     pagecolor="#505050"
     bordercolor="#ffffff"
     borderopacity="1"
     inkscape:showpageshadow="0"
     inkscape:pageopacity="0"
     inkscape:pagecheckerboard="1"
     inkscape:deskcolor="#505050"
     inkscape:document-units="mm"
     inkscape:zoom="0.70710678"
     inkscape:cx="138.59293"
     inkscape:cy="606.69762"
     inkscape:window-width="2560"
     inkscape:window-height="1351"
     inkscape:window-x="-9"
     inkscape:window-y="-9"
     inkscape:window-maximized="1"
     inkscape:current-layer="layer1"
     showguides="true" /><defs
     id="defs1"><rect
       x="101.82338"
       y="91.923881"
       width="384.66609"
       height="299.81327"
       id="rect3" /><rect
       x="2.8284271"
       y="2.1213203"
       width="662.55905"
       height="647.0027"
       id="rect2" /></defs><g
     inkscape:label="Icon"
     inkscape:groupmode="layer"
     id="layer1"><path
       id="path1"
       style="fill:#000000;stroke-width:2.9568"
       d="M 91.224032,3.4541007 C 79.116444,3.0236385 67.019587,13.709707 71.054204,27.071781 c 1.085401,3.594637 2.176882,5.158418 6.081283,8.711096 l 4.758882,4.329968 v 5.280815 5.281331 l -9.126574,0.533301 c -8.912238,0.52057 -9.197626,0.486984 -12.161015,-1.420585 -8.826989,-5.682016 -19.146539,2.326786 -15.163932,11.768274 2.496161,5.917608 9.489337,7.788528 15.250748,4.079854 3.016244,-1.941578 3.400338,-1.994113 11.451498,-1.561662 4.581927,0.246131 8.53057,0.63715 8.774658,0.868681 0.639819,0.606905 0.318474,13.694711 -1.114144,45.369846 -1.49522,33.0596 -1.078008,31.62874 -9.041309,31.03428 -6.279672,-0.4688 -12.17252,-2.62762 -19.426721,-7.11636 -4.922982,-3.04625 -11.664218,-9.55927 -12.185303,-11.77293 -0.154558,-0.65661 1.374304,-1.2591 4.578016,-1.80351 7.121016,-1.2101 6.796359,-2.3035 -2.71198,-9.13381 -4.419506,-3.17477 -10.856236,-8.0091 -14.304036,-10.74301 -3.447799,-2.733886 -6.785161,-4.878487 -7.416085,-4.765601 -1.807615,0.323366 -2.513265,3.970347 -2.987931,15.444021 -0.436899,10.56121 0.507358,22.00747 1.926497,23.35361 1.143994,1.08517 2.802413,0.10127 5.374866,-3.18843 1.299676,-1.66204 2.649197,-3.02204 2.998783,-3.02204 0.349616,0 1.532116,1.6792 2.628264,3.73104 3.179395,5.95145 11.461324,15.11858 17.639233,19.5249 3.133521,2.23493 11.300007,6.63467 18.14773,9.77667 9.271811,4.25424 13.886057,6.88311 18.073315,10.29756 v 0.001 c 3.092537,2.52176 6.084161,4.60515 6.648173,4.62815 0.564013,0.0239 3.455685,-1.86214 6.425964,-4.19148 3.45217,-2.70721 10.202176,-6.53866 18.708936,-10.61951 7.50024,-3.59801 15.79861,-8.23255 19.01538,-10.62002 5.81751,-4.31774 13.40909,-13.06442 17.07596,-19.67374 l 2.00763,-3.61838 3.74603,4.00182 c 4.46644,4.77127 5.50627,4.39966 6.38617,-2.28203 1.50202,-11.40568 0.36719,-32.50767 -1.81694,-33.788118 -0.61438,-0.360169 -2.018,0.208545 -3.58842,1.453658 -9.09458,7.21079 -15.1428,11.79378 -20.6406,15.64091 -8.02772,5.61748 -7.80987,7.788 0.80667,8.04343 1.40973,0.0418 2.76604,0.38702 3.01377,0.7674 0.75946,1.16563 -5.80021,8.33031 -10.86497,11.86698 -5.81293,4.05911 -16.27851,8.02158 -21.75422,8.2367 -5.9419,0.23337 -6.74242,-1.04343 -7.39439,-11.79514 -0.63302,-10.43897 -1.94124,-42.364718 -2.27273,-55.466904 l -0.240296,-9.513114 2.409676,-0.49196 c 1.32539,-0.270782 5.39162,-0.53338 9.03614,-0.58291 5.78012,-0.07862 7.11441,0.168565 10.44846,1.934249 3.13173,1.658529 4.38153,1.924666 6.91792,1.473295 8.25872,-1.469618 11.0048,-12.302265 4.44573,-17.537431 -3.44339,-2.749319 -9.24215,-2.759641 -12.67055,-0.02325 -2.393,1.910016 -2.56417,1.930899 -11.70884,1.412316 L 97.959022,50.658429 V 45.14352 c 0,-4.875976 0.209781,-5.646402 1.807641,-6.64714 6.262347,-3.922005 9.393317,-9.37542 9.420617,-16.401583 0.0204,-5.5289 -1.17279,-8.700958 -4.71082,-12.5232662 C 100.70123,5.4930155 95.961785,3.6225425 91.224032,3.4541007 Z M 88.918747,14.218302 c 0.676008,-0.04856 1.443949,-0.04203 2.351794,0.0036 2.525154,0.12691 6.486336,3.574432 7.086906,6.168099 0.73105,3.157175 -1.516851,7.241139 -4.798673,8.718331 -3.18322,1.432963 -3.324369,1.43467 -6.583578,0.08992 -5.579407,-2.302064 -7.093291,-8.795375 -2.948657,-12.648324 1.664099,-1.546939 2.864184,-2.185956 4.892208,-2.33164 z" /></g></svg>
