<?xml version="1.0" encoding="UTF-8" standalone="no"?>
<!-- Created with Inkscape (http://www.inkscape.org/) -->

<svg
   width="180"
   height="180"
   viewBox="0 0 180 180"
   version="1.1"
   id="svg1"
   xml:space="preserve"
   inkscape:version="1.4.2 (f4327f4, 2025-05-13)"
   sodipodi:docname="food_berry_black_red_white_currant.svg"
   xmlns:inkscape="http://www.inkscape.org/namespaces/inkscape"
   xmlns:sodipodi="http://sodipodi.sourceforge.net/DTD/sodipodi-0.dtd"
   xmlns="http://www.w3.org/2000/svg"
   xmlns:svg="http://www.w3.org/2000/svg"><sodipodi:namedview
     id="namedview1"
     pagecolor="#505050"
     bordercolor="#ffffff"
     borderopacity="1"
     inkscape:showpageshadow="0"
     inkscape:pageopacity="0"
     inkscape:pagecheckerboard="1"
     inkscape:deskcolor="#505050"
     inkscape:document-units="px"
     inkscape:zoom="3.1"
     inkscape:cx="4.6774194"
     inkscape:cy="103.87097"
     inkscape:window-width="2560"
     inkscape:window-height="1351"
     inkscape:window-x="-9"
     inkscape:window-y="-9"
     inkscape:window-maximized="1"
     inkscape:current-layer="layer1" /><defs
     id="defs1" /><g
     inkscape:label="Warstwa 1"
     inkscape:groupmode="layer"
     id="layer1"><path
       style="fill:#000000;stroke-width:0.874298"
       d="m 1.7085856,161.35456 c 0.1622794,-0.45112 1.2067781,-1.27146 2.3211125,-1.82298 1.6312432,-0.80737 1.8730042,-1.37999 1.2407204,-2.93863 -2.5630035,-6.31806 0.057714,-14.50242 6.3086665,-19.70156 6.857095,-5.70331 13.763531,-6.31349 21.48948,-1.89859 l 3.876283,2.21505 7.554824,-7.03976 c 4.155164,-3.87185 10.014337,-9.39658 13.020381,-12.27715 l 5.465534,-5.23739 -6.006931,0.8581 c -5.941614,0.84876 -6.020833,0.88956 -7.287264,3.75315 -7.030143,15.89628 -28.023481,16.92611 -34.502468,1.69252 -0.93647,-2.20186 -1.331272,-2.46917 -2.682406,-1.81623 -1.56427,0.75592 -4.4839847,-1.46592 -3.2619807,-2.48231 0.334907,-0.27855 0.274958,-1.24104 -0.133223,-2.13885 -0.40819,-0.89781 -0.35865,-1.81229 0.110071,-2.03216 0.468728,-0.21987 0.8250987,-1.31783 0.7919557,-2.43992 -0.05864,-1.98515 0.0086,-2.03316 2.495845,-1.78079 2.423188,0.24589 2.643109,0.0996 4.229414,-2.81363 4.616019,-8.477194 15.695351,-11.93536 24.50811,-7.649649 3.914904,1.903822 8.300605,7.262719 9.059576,11.069859 l 0.612654,3.07325 4.897623,-0.74778 c 10.334921,-1.57798 13.876851,-3.37553 26.517434,-13.457803 l 11.568197,-9.22691 -3.843117,0.432068 c -2.11372,0.237637 -5.616999,0.131815 -7.785071,-0.235162 l -3.941941,-0.667235 -1.966113,3.241882 c -6.118371,10.088474 -19.59889,14.00616 -29.055164,8.443971 -5.06659,-2.98018 -7.866776,-6.689974 -9.21454,-12.207759 l -1.15597,-4.732556 -2.233593,0.654802 c -2.311568,0.677672 -3.927166,-1.330791 -2.215544,-2.754409 0.483911,-0.402487 0.529204,-1.502999 0.100667,-2.44559 -0.494718,-1.088152 -0.299699,-1.885612 0.5342,-2.184422 0.810161,-0.290313 1.042735,-1.065877 0.607024,-2.02423 -1.028652,-2.262589 0.573227,-3.096374 3.202609,-1.666983 2.280109,1.239513 2.282692,1.238298 4.325677,-2.041077 5.249683,-8.426726 17.684965,-12.002583 27.034061,-7.773826 6.423022,2.90524 12.132812,12.277862 10.927744,17.937933 -0.615559,2.891271 0.488162,3.445625 7.382404,3.707891 8.821094,0.33557 14.649363,-1.33269 26.780123,-7.665436 5.70536,-2.978431 11.17566,-5.693861 12.15621,-6.034296 1.6728,-0.580768 1.57016,-0.677575 -1.66325,-1.568633 -1.89533,-0.522316 -4.34778,-1.329619 -5.44988,-1.794003 -1.54494,-0.650987 -2.23703,-0.456269 -3.02222,0.850322 -0.56013,0.932063 -3.04969,3.3716 -5.53239,5.421192 -7.19252,5.937827 -15.403664,6.677083 -23.379973,2.104952 -5.305471,-3.041164 -7.781877,-6.751512 -9.142623,-13.698249 l -1.217578,-6.215864 -2.244762,0.295819 c -1.928831,0.254178 -2.238808,0.03708 -2.202484,-1.542602 0.02326,-1.011129 0.403578,-1.897767 0.845163,-1.970322 0.441582,-0.07254 0.613551,-0.720088 0.382145,-1.438968 -0.231404,-0.718881 0.209392,-1.831154 0.979544,-2.471719 0.770152,-0.640563 1.154536,-1.459281 0.854189,-1.819375 -1.121368,-1.344437 2.116688,-2.867091 3.505759,-1.648548 1.273491,1.117145 1.834926,0.860074 6.673873,-3.055851 4.59209,-3.716179 5.941051,-4.383454 10.309484,-5.099908 13.267443,-2.17595 25.055823,8.537965 23.554723,21.4078 l -0.47826,4.100465 5.87648,1.683939 c 6.22885,1.784908 14.23577,1.84762 11.40656,0.08934 -2.89971,-1.802107 -8.78387,-6.847171 -10.78698,-9.248773 -5.49742,-6.591007 -7.91657,-18.879082 -5.66852,-28.793432 1.41075,-6.221677 5.51189,-15.745499 6.8769,-15.9697547 1.41133,-0.2318751 7.6858,4.0134417 13.40697,9.0711927 6.46115,5.711923 10.68815,13.450475 11.45028,20.962517 0.57277,5.645674 -1.11728,14.328757 -3.82171,19.635121 l -1.75022,3.434086 3.29383,-0.721769 c 5.39989,-1.183253 19.57139,-2.12517 24.91883,-1.656227 4.66153,0.408786 4.97084,0.571148 4.74681,2.491769 -0.22402,1.920623 -0.65592,2.038651 -6.62838,1.81145 -10.60404,-0.403388 -17.96879,0.947145 -22.45658,4.118001 -4.02546,2.84422 -9.18303,9.392643 -10.14232,12.877421 -0.49494,1.797975 -0.37694,1.94256 2.58449,3.166568 4.99749,2.065541 9.51739,7.297612 11.03276,12.771119 3.09868,11.192361 -4.15345,24.000031 -15.08508,26.641141 -2.52277,0.6095 -2.64476,0.77695 -2.10844,2.89429 0.3131,1.23605 0.17062,2.5703 -0.31659,2.96501 -1.07365,0.86977 -6.34095,0.47642 -7.1859,-0.53662 -0.33309,-0.39937 -1.07093,-0.33911 -1.63962,0.13388 -1.01749,0.8463 -3.70693,-1.33615 -2.70968,-2.19888 1.82789,-1.58133 1.30278,-2.99639 -1.65892,-4.47055 -3.87927,-1.93086 -8.68154,-7.67141 -9.87384,-11.80303 -3.41689,-11.840014 4.6279,-24.914564 17.00501,-27.636958 l 4.78817,-1.053168 1.26424,-3.271301 c 0.69534,-1.799211 2.49877,-4.914931 4.00766,-6.923819 l 2.7434,-3.652535 -4.11021,1.313942 c -6.45207,2.062567 -21.41226,9.20499 -24.28496,11.594324 -5.81298,4.834881 -11.94061,14.20952 -13.629989,20.852485 l -0.87234,3.43019 3.641999,1.67246 c 2.38503,1.09523 4.87004,3.13873 7.2002,5.92088 5.94168,7.0943 6.24673,16.02168 0.8412,24.61984 -2.35061,3.73894 -5.21646,5.90974 -10.62556,8.0485 -4.489349,1.7751 -4.582669,1.85456 -3.583999,3.05187 1.40658,1.6864 -0.11683,4.03931 -2.29849,3.55008 -0.960196,-0.2153 -2.099365,-0.0975 -2.531475,0.26198 -0.43212,0.35941 -1.248477,0.0986 -1.814142,-0.5796 -0.569221,-0.68244 -1.771632,-0.87396 -2.692722,-0.42882 -2.281328,1.10243 -3.106666,-0.21146 -1.780816,-2.83497 1.269459,-2.51189 1.20644,-2.63288 -1.941735,-3.72777 -3.411475,-1.18648 -9.257668,-8.48345 -10.39659,-12.97659 -2.789222,-11.00387 4.948384,-22.99573 16.80353,-26.0423 l 5.052755,-1.29848 0.391556,-2.59743 c 0.215359,-1.428591 1.516269,-5.014819 2.890909,-7.969404 l 2.499359,-5.371979 -4.274819,2.773688 c -2.351145,1.525533 -9.27146,7.106509 -15.37849,12.402195 l -11.103685,9.62851 -3.12217,6.68015 c -1.717196,3.6741 -3.268033,8.22222 -3.4463,10.10691 l -0.32414,3.42675 4.376963,1.78226 c 13.392817,5.45335 14.657997,22.34673 2.282999,30.48396 -3.03231,1.99389 -3.772956,2.85066 -3.716271,4.29885 0.05982,1.52798 -0.214329,1.81615 -1.766617,1.85685 -1.01059,0.0266 -2.152954,-0.33008 -2.538569,-0.79241 -0.430864,-0.51656 -1.119928,-0.27007 -1.787538,0.63943 -1.450103,1.97554 -4.118526,0.61172 -3.462142,-1.76948 0.435917,-1.58136 0.192482,-1.83488 -2.999576,-3.12383 -1.910699,-0.77152 -4.535746,-2.67573 -5.833444,-4.23158 -7.693545,-9.22401 -3.860258,-22.89982 7.656897,-27.31709 3.108808,-1.19234 3.176635,-1.30732 4.111189,-6.96909 l 0.950213,-5.75672 -7.15857,6.68273 c -3.937215,3.67552 -8.657131,7.92916 -10.488699,9.45256 -3.164634,2.63213 -3.28448,2.92789 -2.411913,5.95159 1.494346,5.17828 1.353533,9.24513 -0.459514,13.27107 -2.306861,5.12251 -7.902502,9.75359 -13.420103,11.10684 -4.105081,1.00679 -12.039058,-0.10498 -13.533225,-1.89639 -0.577534,-0.69242 -1.210806,-0.39399 -2.434514,1.14728 -1.8371327,2.31384 -3.8171157,2.28924 -3.7633897,-0.0468 0.01856,-0.80721 -0.320623,-1.49102 -0.75374,-1.51955 -1.2299636,-0.081 -4.4627815,-3.65491 -4.1336576,-4.56977 z M 24.015502,144.07938 c 3.483582,-0.25874 4.65919,-1.21336 3.694177,-2.99972 -1.02462,-1.89671 -4.897446,-2.22035 -6.876094,-0.57465 -2.199182,1.82915 -0.408169,3.84106 3.181936,3.57439 z m 38.034918,0.903 c 3.335861,0.11581 5.004487,-1.76999 3.336078,-3.77029 -1.299854,-1.55842 -6.007931,-1.12514 -7.039543,0.64786 -1.057556,1.8176 0.352096,3.00609 3.703465,3.12243 z M 34.312941,106.02797 c 2.804128,0.0973 3.048116,-0.0447 3.264632,-1.90106 0.216515,-1.85631 0.0431,-2.05965 -2.32022,-2.72061 -1.60254,-0.4482 -3.190351,-0.18526 -4.261608,0.70575 -2.273853,1.89124 -0.676176,3.7773 3.317196,3.91592 z m 60.637272,11.58315 c 5.310997,0.29684 6.731797,-0.42637 5.463627,-2.78107 -1.859019,-3.45174 -10.399835,-3.56566 -11.12238,-0.14834 -0.495606,2.34403 0.0271,2.61463 5.658753,2.92941 z M 60.277938,72.059886 c 5.583071,0.650707 7.532624,-0.729996 5.11816,-3.624764 -2.613712,-3.13365 -12.049919,-2.087906 -11.048298,1.224407 0.532158,1.759822 0.571708,1.775829 5.930138,2.400357 z m 72.704912,22.980137 c 5.0983,0.335855 7.15649,-0.553985 6.43873,-2.783759 -1.10635,-3.43701 -9.80561,-3.650346 -11.76167,-0.28843 -1.14908,1.974866 0.16326,2.732302 5.32294,3.072189 z M 98.338111,47.72526 c 1.37342,0.09892 3.708649,0.41973 5.189399,0.712899 2.55535,0.505931 2.70586,0.424142 2.95994,-1.60839 0.25137,-2.010826 0.0826,-2.222128 -2.7685,-3.464853 -3.46486,-1.51028 -7.993659,-1.185077 -9.061789,0.650712 -1.014138,1.74298 0.72613,3.496802 3.68094,3.709637 z"
       id="path1" /></g></svg>
