<?xml version="1.0" encoding="UTF-8" standalone="no"?>
<!-- Created with Inkscape (http://www.inkscape.org/) -->

<svg
   width="180"
   height="180"
   viewBox="0 0 180 180"
   version="1.1"
   id="svg1"
   xml:space="preserve"
   inkscape:version="1.4.2 (f4327f4, 2025-05-13)"
   sodipodi:docname="food_berry_beautyberry.svg"
   xmlns:inkscape="http://www.inkscape.org/namespaces/inkscape"
   xmlns:sodipodi="http://sodipodi.sourceforge.net/DTD/sodipodi-0.dtd"
   xmlns="http://www.w3.org/2000/svg"
   xmlns:svg="http://www.w3.org/2000/svg"><sodipodi:namedview
     id="namedview1"
     pagecolor="#505050"
     bordercolor="#ffffff"
     borderopacity="1"
     inkscape:showpageshadow="0"
     inkscape:pageopacity="0"
     inkscape:pagecheckerboard="1"
     inkscape:deskcolor="#505050"
     inkscape:document-units="px"
     inkscape:zoom="2.192031"
     inkscape:cx="-113.36519"
     inkscape:cy="40.145418"
     inkscape:window-width="2560"
     inkscape:window-height="1351"
     inkscape:window-x="-9"
     inkscape:window-y="-9"
     inkscape:window-maximized="1"
     inkscape:current-layer="layer1" /><defs
     id="defs1" /><g
     inkscape:label="Warstwa 1"
     inkscape:groupmode="layer"
     id="layer1"><path
       style="fill:#000000;stroke-width:0.876742"
       d="m 53.309585,174.0062 c -2.540429,-1.23233 -5.806816,-3.64341 -7.258634,-5.35794 -2.541548,-3.00147 -5.349585,-9.41083 -5.36024,-12.23481 -0.0044,-1.07257 -1.083751,-1.36948 -5.112903,-1.40604 -8.727565,-0.0791 -16.705837,-5.50222 -20.253108,-13.76658 -1.324674,-3.0862 -1.590051,-11.33595 -0.487834,-15.16534 0.522828,-1.81647 -0.05092,-2.80235 -3.585037,-6.16024 C 4.3296801,113.33824 2.5291063,103.60235 6.6655759,95.116868 8.5523101,91.246449 13.990295,86.006544 17.652945,84.52971 19.86215,83.638926 20.278584,83.072758 19.8,81.610671 18.570089,77.853247 18.334996,70.126847 19.340024,66.493563 20.674641,61.668809 27.150561,54.832329 32.14509,52.975548 c 2.049014,-0.761744 6.248514,-1.461389 9.332227,-1.554766 l 5.606761,-0.169775 1.181686,-3.349805 c 2.848149,-8.073815 11.801824,-14.383166 20.411337,-14.383166 10.831087,0 19.245156,5.859783 22.579123,15.724716 1.033029,3.056632 1.204648,3.161897 4.35977,2.67416 5.514536,-0.852468 15.316626,-4.400068 19.633336,-7.105763 2.24913,-1.409734 6.47606,-4.916655 9.39322,-7.793156 6.01821,-5.93436 5.41575,-6.51029 -3.60971,-3.450757 -10.83136,3.671719 -21.807088,3.087613 -30.901395,-1.64451 C 84.760487,29.128011 77.370526,21.289071 73.5794,14.365078 70.118388,8.0439721 70.452891,7.4724441 78.906468,5.2633305 87.33568,3.0605871 99.221735,3.2937194 105.85619,5.791921 c 6.49773,2.4467211 14.31939,9.74879 17.88518,16.697073 1.40388,2.735635 2.90989,4.973882 3.34666,4.973882 4.17598,0 9.28145,-2.531666 15.91599,-7.892335 10.49413,-8.479175 20.16554,-14.8415321 21.69317,-14.2708905 3.00619,1.1229506 0.82205,3.8097106 -8.52388,10.4854155 -15.78985,11.278531 -18.27728,14.103421 -17.57658,19.961149 0.27141,2.268944 0.69322,2.509051 6.10934,3.477646 7.61244,1.361369 13.20462,3.992405 18.69016,8.793414 6.64811,5.818501 9.81471,12.579208 11.4983,24.548935 1.25741,8.939734 0.76752,11.123156 -2.49568,11.123156 -3.64748,0 -14.83908,-3.206599 -19.89351,-5.699859 -11.62238,-5.733118 -18.38324,-17.838781 -18.55639,-33.226173 -0.0402,-3.568219 -0.3688,-7.220953 -0.73034,-8.117185 -0.57634,-1.428747 -1.03396,-1.16691 -3.71417,2.125191 -5.57017,6.841821 -8.60646,15.087224 -9.42454,25.59339 l -0.54963,7.058562 6.12452,-0.03506 c 6.9593,-0.03983 11.09863,1.393837 15.91861,5.513457 5.16701,4.416225 7.04849,8.768032 7.04849,16.302932 0,7.032599 -1.75414,11.563689 -5.95305,15.377259 l -2.16841,1.96941 2.96126,3.05646 c 5.7356,5.92003 7.09189,16.73181 3.06323,24.41895 -3.87546,7.39482 -10.42423,11.5152 -19.22231,12.09439 l -5.36531,0.3532 -1.08018,4.42654 c -3.36981,13.80946 -20.51877,20.45252 -33.117314,12.8288 l -4.231223,-2.56043 -2.708672,3.28107 c -6.282733,7.61043 -18.263445,10.03178 -27.490326,5.55593 z m 30.602982,-15.48154 c 0.278973,-0.70769 0.08726,-2.45936 -0.425968,-3.8926 -0.757424,-2.11504 -0.69123,-2.60589 0.351448,-2.60589 0.706551,0 3.30426,-1.41242 5.772676,-3.13872 5.10103,-3.5674 8.84537,-9.73314 8.84537,-14.5655 0,-2.92212 0.137967,-3.05633 3.141757,-3.05633 2.86146,0 3.28965,0.33591 4.7998,3.76539 3.11088,7.06469 9.71968,12.49159 10.95242,8.9937 0.20958,-0.59471 -1.08204,-2.7079 -2.87028,-4.696 -3.59047,-3.99177 -7.39786,-13.30321 -5.67118,-13.86959 0.56211,-0.18437 2.84203,-1.71552 5.06648,-3.40257 3.04309,-2.30789 4.41256,-4.14613 5.53114,-7.42443 l 1.48668,-4.3571 5.67698,0.51605 c 6.54373,0.59483 8.31959,0.15743 8.31959,-2.04915 0,-1.34556 -1.04728,-1.66697 -7.10895,-2.1817 l -7.10896,-0.60365 v -2.74605 c 0,-4.453699 -3.90055,-11.006935 -8.1467,-13.68708 -4.1917,-2.645777 -5.66281,-2.92761 -6.33823,-1.21426 -0.58703,1.489147 -0.02,2.212028 4.05388,5.168234 5.72306,4.152907 7.80955,12.864226 4.77208,19.923946 -2.58395,6.00565 -8.22869,9.04203 -17.000817,9.14499 -8.012396,0.094 -13.490378,-4.01336 -15.14744,-11.35758 -0.299535,-1.32756 -0.963592,-2.41374 -1.475676,-2.41374 -0.578128,0 -0.773891,-1.59241 -0.516431,-4.20068 0.495228,-5.017119 3.306348,-8.937735 9.082525,-12.66727 4.174929,-2.695635 5.049037,-4.441808 2.668639,-5.330998 -1.928046,-0.720214 -4.575403,0.6288 -9.410194,4.795147 -3.52103,3.034226 -4.720638,3.563433 -8.07755,3.563433 -3.636194,0 -4.358926,-0.405459 -9.305016,-5.22021 -5.003229,-4.87038 -5.401313,-5.553248 -5.940189,-10.189795 -1.338439,-11.51613 4.57127,-17.346943 18.396045,-18.150445 6.448231,-0.374775 6.914489,-0.531173 6.664645,-2.235506 -0.225824,-1.540417 -0.976912,-1.878545 -4.711744,-2.121146 -5.831208,-0.378775 -12.933357,1.194912 -16.739224,3.709063 l -3.055428,2.018413 -1.122913,-2.042459 c -1.137797,-2.069551 -7.143478,-6.423991 -8.860015,-6.423991 -0.514563,0 -1.169085,0.592397 -1.454509,1.316436 -0.33525,0.850459 0.968097,2.664458 3.682109,5.124753 4.093078,3.710435 4.184509,3.904491 3.557197,7.550051 -0.354115,2.057951 -0.640055,6.271923 -0.635416,9.364379 l 0.0089,5.62265 -5.906812,0.247088 c -11.018214,0.460905 -14.041972,2.011289 -19.534785,10.016159 -1.96017,2.856619 -2.346862,4.520599 -2.657559,11.435648 -0.310066,6.90123 -0.603141,8.1666 -1.990755,8.59531 -2.433849,0.75196 -7.049373,5.23267 -7.049373,6.84347 0,2.63245 2.603086,2.48589 5.542993,-0.31208 3.815172,-3.631 6.469238,-4.21274 8.946264,-1.96092 3.023696,2.74879 14.896325,7.95396 18.142434,7.95396 h 2.913081 v 5.8858 c 0,5.01922 -0.3824,6.47278 -2.597248,9.87248 -1.428482,2.19268 -3.827754,4.87229 -5.331716,5.95468 -3.175374,2.28533 -3.671641,5.10274 -0.898811,5.10274 2.954117,0 4.865537,-1.40343 8.35981,-6.13805 l 3.284382,-4.45022 3.257038,3.03987 c 4.023197,3.75492 9.880691,6.68338 13.368096,6.68338 3.482925,0 5.439789,0.79098 5.439789,2.1988 0,4.17608 3.776268,7.41948 5.006099,4.29969 z M 73.130443,147.75723 c -8.529981,-2.02148 -13.173346,-7.42906 -14.421963,-16.79559 -0.585387,-4.39129 0.830824,-6.75437 6.580484,-10.98013 2.602224,-1.91253 4.730769,-3.95129 4.730103,-4.53058 -8.45e-4,-0.73406 1.457389,-0.96475 4.811847,-0.7612 4.351497,0.26404 4.915486,0.53274 5.881069,2.80198 1.447969,3.40288 7.149876,8.27111 10.535284,8.99493 2.68339,0.57373 2.765729,0.73195 2.765729,5.31469 0,7.28699 -2.402542,11.04478 -9.072305,14.18986 -5.587638,2.63482 -7.155163,2.86922 -11.810248,1.76604 z m -1.161416,-19.73545 c 4.760279,-5.39543 1.276056,-10.53649 -4.480695,-6.61136 -4.377578,2.98475 -3.967462,8.12516 0.648248,8.12516 1.373273,0 3.097878,-0.68121 3.832447,-1.5138 z m -28.607331,-8.92279 c -3.176814,-1.4575 -7.075631,-3.86912 -8.664038,-5.35914 -2.640141,-2.47661 -2.886333,-3.15859 -2.868499,-7.94584 0.01226,-3.28063 0.64241,-6.529149 1.687088,-8.696789 1.619056,-3.359432 5.716924,-8.190354 6.993399,-8.244426 0.346775,-0.01469 3.531737,-0.393534 7.077683,-0.841877 7.800737,-0.986311 9.951026,-0.33717 15.101837,4.559036 3.765258,3.579127 3.776633,3.609067 3.776633,9.940466 0,3.87595 -0.505581,7.30226 -1.297492,8.79295 -0.713614,1.34335 -1.111299,2.6237 -0.883732,2.84522 0.227567,0.22152 -1.559607,2.02254 -3.971497,4.00228 -5.489739,4.50609 -8.79359,4.69088 -16.951382,0.94812 z m 1.713685,-17.64467 c 2.314986,-1.16534 3.618031,-2.908619 3.618031,-4.840419 0,-0.42589 -0.999697,-1.411963 -2.221548,-2.191293 -2.030984,-1.295412 -2.405493,-1.299641 -4.365876,-0.04925 -2.160064,1.377742 -3.800127,5.816572 -2.756479,7.460392 0.785281,1.23686 2.777291,1.10487 5.725872,-0.37942 z m 25.833513,3.4281 v -5.622639 l 2.888013,-0.002 2.888013,-0.002 -0.29798,5.624469 c -0.295075,5.56978 -0.323156,5.62446 -2.888013,5.62446 h -2.590033 z m -40.552016,25.4554 c 3.630276,-2.77974 2.933598,-9.45248 -0.986892,-9.45248 -3.804988,0 -7.155466,7.61411 -4.491571,10.20728 1.513496,1.47331 2.800119,1.29604 5.478463,-0.7548 z m 65.757828,-28.54576 c 2.651444,-2.030239 2.998102,-4.364489 0.944984,-6.363099 -1.65253,-1.608641 -5.802285,-1.79099 -7.312066,-0.321295 -1.128307,1.098345 -1.47773,6.923394 -0.473927,7.900544 1.172524,1.14138 4.545145,0.54183 6.841009,-1.21615 z M 125.11467,86.284435 c 3.17894,-3.094521 1.76843,-6.920183 -2.55146,-6.920183 -4.27854,0 -7.12228,4.942519 -4.37977,7.612201 1.61833,1.57536 4.94299,1.243424 6.93123,-0.692018 z m -19.18629,-3.243836 c 1.42316,-2.609039 4.85184,-6.348106 7.47137,-8.147736 1.41878,-0.97471 1.74827,-2.653391 2.1485,-10.94642 l 0.47274,-9.795161 -3.39425,4.605024 c -7.14873,9.698777 -11.34867,17.465893 -11.96197,22.121736 -0.58627,4.450754 -0.55267,4.54137 1.6839,4.54137 1.5826,0 2.67985,-0.729154 3.57971,-2.378813 z M 73.206988,73.98377 c 5.14301,-4.722203 3.401706,-9.717101 -2.544428,-7.298622 -3.466672,1.410005 -4.707639,4.338274 -3.331584,7.861446 1.135246,2.906646 2.209418,2.803758 5.876012,-0.562824 z M 37.698819,66.399374 c 1.263776,-3.806277 0.720635,-5.200604 -2.025848,-5.200604 -3.886714,0 -8.171264,5.898386 -5.894478,8.114716 0.349085,0.339818 2.048569,0.502009 3.776632,0.360426 2.714137,-0.222374 3.27832,-0.668219 4.143694,-3.274538 z M 105.09969,61.09546 c 3.11846,-4.451716 5.56095,-8.200087 5.4278,-8.329711 -0.13316,-0.129624 -1.88873,0.329852 -3.90126,1.021058 -2.01253,0.691206 -6.07368,1.719157 -9.024802,2.284337 -6.484904,1.24195 -6.8059,2.410929 -2.255502,8.213979 1.710591,2.181491 3.110167,4.390666 3.110167,4.909281 0,1.324213 0.292027,0.968221 6.643597,-8.098944 z m 55.8666,5.76274 c 1.10813,-2.811075 -18.1193,-25.39728 -20.86328,-24.507818 -2.55122,0.826976 -1.51294,3.068301 4.12796,8.911062 3.20975,3.324598 7.65452,8.4776 9.87726,11.451116 4.03108,5.392659 5.91707,6.532717 6.85806,4.14564 z M 68.178541,48.539281 c 2.190998,-2.711432 2.349109,-4.884256 0.466125,-6.405498 -1.130058,-0.912961 -1.923168,-0.857162 -4.443097,0.3126 -2.595888,1.205023 -3.067487,1.869385 -3.067487,4.321344 0,1.593572 0.266586,3.156911 0.592416,3.474086 1.354496,1.318528 4.73076,0.427615 6.452043,-1.702532 z M 120.51123,27.24662 c -0.32812,-2.248968 -7.0312,-5.734744 -19.66197,-10.224738 -5.585425,-1.985511 -8.099667,-2.515523 -8.782029,-1.851284 -1.840081,1.791221 0.01626,3.232345 7.836524,6.083783 4.335555,1.580834 10.082175,3.960766 12.770245,5.288736 6.29484,3.109797 8.21342,3.282017 7.83723,0.703503 z"
       id="path2" /></g></svg>
