<?xml version="1.0" encoding="UTF-8" standalone="no"?>
<!-- Created with Inkscape (http://www.inkscape.org/) -->

<svg
   width="180"
   height="180"
   viewBox="0 0 180 180"
   version="1.1"
   id="svg1"
   xml:space="preserve"
   inkscape:version="1.4.2 (f4327f4, 2025-05-13)"
   sodipodi:docname="food_berry_strawberry.svg"
   xmlns:inkscape="http://www.inkscape.org/namespaces/inkscape"
   xmlns:sodipodi="http://sodipodi.sourceforge.net/DTD/sodipodi-0.dtd"
   xmlns="http://www.w3.org/2000/svg"
   xmlns:svg="http://www.w3.org/2000/svg"><sodipodi:namedview
     id="namedview1"
     pagecolor="#505050"
     bordercolor="#ffffff"
     borderopacity="1"
     inkscape:showpageshadow="0"
     inkscape:pageopacity="0"
     inkscape:pagecheckerboard="1"
     inkscape:deskcolor="#505050"
     inkscape:document-units="px"
     inkscape:zoom="3.1"
     inkscape:cx="-14.193548"
     inkscape:cy="103.87097"
     inkscape:window-width="2560"
     inkscape:window-height="1351"
     inkscape:window-x="-9"
     inkscape:window-y="-9"
     inkscape:window-maximized="1"
     inkscape:current-layer="layer1" /><defs
     id="defs1" /><g
     inkscape:label="Warstwa 1"
     inkscape:groupmode="layer"
     id="layer1"><path
       style="fill:#000000;stroke-width:0.798723"
       d="M 80.703282,174.7575 C 63.400571,169.05833 38.867399,141.33774 29.511687,116.91496 19.653312,91.180002 24.721837,70.670501 43.717277,59.432841 l 4.739414,-2.803828 -4.192175,-3.493188 c -5.216454,-4.34668 -7.82182,-8.217912 -9.389739,-13.951909 -1.04162,-3.809293 -1.052669,-4.610776 -0.07635,-5.540762 0.976313,-0.929984 1.597912,-0.789441 4.297178,0.971598 2.948432,1.923588 18.825671,7.219328 19.556693,6.522994 0.182284,-0.173634 -0.06963,-1.699149 -0.559853,-3.390031 -1.537655,-5.303913 0.633596,-17.49584 3.115813,-17.49584 0.706677,0 2.68714,1.376379 4.401033,3.058621 3.638312,3.571125 17.716367,12.785416 18.242371,11.939894 0.197424,-0.317353 0.630281,-2.491535 0.961887,-4.831515 C 86.503355,18.49491 94.57001,3.8815139 99.46227,3.8815139 c 2.12072,0 9.33787,4.1801344 9.9833,5.7822564 0.25251,0.6267937 -1.23949,3.0815817 -3.42985,5.6431427 -2.13224,2.49357 -4.61124,6.115347 -5.50891,8.048395 -1.70397,3.669287 -3.96339,11.064339 -3.51191,11.494393 0.55524,0.528887 14.96513,-9.084645 17.63871,-11.767648 3.7787,-3.791964 5.33663,-3.675076 6.43592,0.482872 1.56851,5.932715 1.73828,8.191804 0.95851,12.755489 -0.42226,2.471315 -0.65804,4.597783 -0.52398,4.725487 0.71466,0.680749 13.11368,-3.340822 17.52731,-5.684909 2.81704,-1.496125 5.53039,-2.47973 6.02967,-2.185788 1.25151,0.736766 0.3187,6.595917 -1.77013,11.118198 -0.98211,2.12631 -3.70056,5.443513 -6.5569,8.001143 l -4.87925,4.368966 4.7801,2.810438 c 18.24211,10.725353 23.54866,31.495061 14.33967,56.125121 -3.06079,8.18633 -10.20223,20.91029 -16.48358,29.36901 -6.8376,9.20775 -20.26503,22.20144 -26.76947,25.90471 -9.17198,5.22204 -18.768837,6.6019 -27.018195,3.88471 z m 11.012456,-11.40546 c 1.381518,-1.58564 0.748136,-6.73843 -0.953047,-7.75334 -1.952548,-1.16487 -3.418784,0.38436 -3.418784,3.61229 0,4.82254 2.069854,6.78314 4.371831,4.14105 z M 79.004365,148.22482 c -0.08287,-3.73423 -1.885972,-6.0824 -4.060243,-5.28765 -1.108326,0.40512 -1.30563,1.15787 -0.955406,3.64511 0.510978,3.62885 1.929249,5.58634 3.786768,5.2265 0.961812,-0.18633 1.283467,-1.1244 1.228881,-3.58396 z m 25.219965,2.40528 c 2.84304,-3.08402 2.71292,-7.9903 -0.2119,-7.9903 -1.9594,0 -3.24715,2.2468 -3.24715,5.66539 0,3.88778 1.24616,4.72536 3.45905,2.32491 z M 91.599464,135.46802 c 0.540129,-0.51448 0.982053,-2.2255 0.982053,-3.80226 0,-5.02156 -4.191217,-6.2874 -5.182697,-1.56528 -0.944676,4.49924 1.64213,7.80465 4.200644,5.36754 z m -25.467251,-1.09951 c 0.755771,-1.87604 -0.760878,-6.65622 -2.421764,-7.63293 -2.690247,-1.58204 -4.035356,2.84813 -2.095878,6.90283 1.063693,2.22376 3.741567,2.65655 4.517642,0.7301 z m 51.790177,-0.25241 c 1.10548,-1.9676 1.09068,-6.83174 -0.0229,-7.48724 -2.18267,-1.28495 -5.20627,4.05273 -4.25614,7.51358 0.5283,1.92431 3.19217,1.90792 4.27892,-0.0264 z M 54.117826,116.79445 c 0,-2.91399 -2.3067,-6.89537 -3.994977,-6.89537 -2.15499,0 -2.893927,2.49774 -1.731506,5.85279 1.527181,4.40779 5.726483,5.17235 5.726483,1.04258 z m 24.522493,1.73084 c 1.817679,-3.2352 0.28278,-8.62621 -2.455997,-8.62621 -1.004402,0 -2.425464,2.68062 -2.425464,4.57525 0,4.58817 3.123352,7.18014 4.881461,4.05096 z m 26.196951,0.36133 c 2.70035,-3.09932 0.1556,-10.57964 -2.80336,-8.24047 -1.27731,1.00978 -1.72877,5.77866 -0.77189,8.1539 0.62305,1.5466 2.26846,1.58644 3.57525,0.0865 z m 25.35768,-0.55957 c 2.11719,-2.1647 2.31986,-7.45931 0.31359,-8.19267 -3.07369,-1.12349 -5.96338,6.51349 -3.39154,8.96329 1.25494,1.19539 1.12268,1.22852 3.07795,-0.77062 z M 64.593044,101.16823 c 1.039885,-0.99055 1.318601,-5.117478 0.485304,-7.185969 -0.64253,-1.594948 -3.274242,-1.594948 -3.916765,0 -1.271977,3.157411 -0.07497,8.121419 1.958382,8.121419 0.270066,0 0.932951,-0.42095 1.473079,-0.93545 z m 27.00642,0 c 1.383761,-1.318103 1.224832,-6.477138 -0.235095,-7.631261 -2.821647,-2.230629 -5.426358,2.275413 -3.747165,6.482431 0.890247,2.23039 2.391983,2.66364 3.98226,1.14883 z m 27.469066,-2.009823 c 1.38796,-4.609885 -2.23722,-8.683282 -4.36207,-4.901384 -1.76264,3.137234 -0.29506,8.159947 2.24794,7.693437 0.74136,-0.136 1.69271,-1.39242 2.11413,-2.792053 z m 23.43393,-2.683577 c 0,-2.83582 -1.32729,-5.284719 -2.8643,-5.284719 -2.75917,0 -3.91005,6.687936 -1.53951,8.946009 1.22087,1.16291 1.44566,1.1578 2.86434,-0.0651 0.84673,-0.729903 1.53947,-2.348173 1.53947,-3.596151 z m -99.795787,2.428607 c 1.147812,-2.042927 0.288452,-6.860422 -1.329257,-7.451735 -2.771857,-1.013191 -4.727138,3.896179 -3.130371,7.859825 0.711176,1.765363 3.375457,1.521553 4.459628,-0.40809 z M 78.640319,83.445945 c 1.793693,-3.192492 0.776001,-7.846658 -1.715767,-7.846658 -2.636947,0 -4.29817,6.404856 -2.18364,8.419044 1.433999,1.365954 2.934074,1.145762 3.899407,-0.572386 z m 26.626021,-3.169412 c 0,-4.053614 -0.1116,-4.287476 -2.04593,-4.287476 -1.72769,0 -2.08714,0.410889 -2.31084,2.641376 -0.43233,4.311001 0.4535,6.462274 2.54436,6.179067 1.62004,-0.219434 1.81241,-0.700564 1.81241,-4.532967 z m -53.216396,0.323701 c 1.68503,-3.382431 1.103672,-6.560029 -1.200197,-6.560029 -2.61964,0 -5.445976,7.030437 -3.55173,8.834798 1.375502,1.310223 3.464065,0.310417 4.751927,-2.274769 z m 80.838696,1.820036 c 0.54027,-1.534518 -0.78066,-6.142725 -2.12895,-7.42704 -3.11762,-2.969672 -5.01945,1.567121 -2.55779,6.101556 1.27298,2.34487 4.05119,3.130589 4.68674,1.325484 z M 66.026037,68.998226 c 1.55981,-3.555987 1.500476,-5.805509 -0.169224,-6.415827 -1.896448,-0.693202 -4.3736,2.460266 -4.3736,5.567685 0,4.464102 2.732902,4.974333 4.542824,0.848142 z m 52.260403,-1.066119 c -0.0809,-3.647111 -1.88838,-6.081534 -3.9545,-5.32631 -2.97803,1.088545 -0.44916,9.52354 2.67419,8.919696 1.02083,-0.197362 1.33604,-1.082009 1.28031,-3.593386 z m -26.570702,1.875025 c 2.441372,-2.802079 -0.728125,-10.1513 -3.315175,-7.687014 -1.035656,0.98651 -1.30279,6.507839 -0.383419,7.924823 0.785454,1.210583 2.534643,1.098117 3.698594,-0.237809 z M 59.208667,56.541277 C 68.645439,52.78545 94.4941,51.731123 110.1766,54.462375 c 5.40128,0.940682 10.84769,2.095439 12.10312,2.566125 1.93011,0.723638 2.45788,0.628569 3.41767,-0.615627 1.01567,-1.316617 0.91449,-1.582398 -0.96162,-2.526236 -4.21448,-2.120229 -23.79773,-4.749532 -35.427759,-4.75663 -15.244012,-0.0093 -34.371809,3.041992 -34.371809,5.483044 0,0.745121 0.918963,3.056793 1.215175,3.056793 0.12193,0 1.49771,-0.507856 3.05729,-1.128567 z"
       id="path1" /></g></svg>
