<?xml version="1.0" encoding="UTF-8" standalone="no"?>
<!-- Created with Inkscape (http://www.inkscape.org/) -->

<svg
   width="180"
   height="180"
   viewBox="0 0 180 180"
   version="1.1"
   id="svg1"
   xml:space="preserve"
   inkscape:version="1.4.2 (f4327f4, 2025-05-13)"
   sodipodi:docname="food_fruit_tree_pear.svg"
   xmlns:inkscape="http://www.inkscape.org/namespaces/inkscape"
   xmlns:sodipodi="http://sodipodi.sourceforge.net/DTD/sodipodi-0.dtd"
   xmlns="http://www.w3.org/2000/svg"
   xmlns:svg="http://www.w3.org/2000/svg"><sodipodi:namedview
     id="namedview1"
     pagecolor="#505050"
     bordercolor="#ffffff"
     borderopacity="1"
     inkscape:showpageshadow="0"
     inkscape:pageopacity="0"
     inkscape:pagecheckerboard="1"
     inkscape:deskcolor="#505050"
     inkscape:document-units="px"
     inkscape:zoom="3.1"
     inkscape:cx="-88.709677"
     inkscape:cy="103.87097"
     inkscape:window-width="2560"
     inkscape:window-height="1351"
     inkscape:window-x="-9"
     inkscape:window-y="-9"
     inkscape:window-maximized="1"
     inkscape:current-layer="layer1" /><defs
     id="defs1" /><g
     inkscape:label="Warstwa 1"
     inkscape:groupmode="layer"
     id="layer1"><path
       style="fill:#000000;stroke-width:1.12287"
       d="m 66.430836,174.87862 c -22.00474,-5.17783 -36.918571,-27.46182 -32.759761,-48.94905 1.75378,-9.0612 4.971639,-15.6387 13.502009,-27.598884 7.201935,-10.097648 8.989825,-14.048104 12.510797,-27.643523 2.845065,-10.985569 4.75535,-15.42417 8.68621,-20.182698 3.148656,-3.811631 10.568656,-7.8707 14.38766,-7.8707 3.712747,0 3.970754,-1.78739 1.390298,-9.631656 C 82.368515,27.5925 80.30467,24.165718 76.429061,20.185571 l -5.290015,-5.432696 2.874899,-3.05344 c 2.346112,-2.4918148 3.264064,-2.8402261 4.990698,-1.8942418 3.69634,2.0251508 10.132246,14.5757508 12.13077,23.6561438 1.877506,8.53053 1.945691,8.637855 5.875069,9.248156 7.916248,1.229536 14.052748,5.752241 18.412968,13.570689 0.71073,1.274439 2.83973,7.89684 4.73111,14.716448 3.79428,13.680709 5.07773,16.348989 14.56178,30.27351 11.46831,16.83784 14.56313,29.11908 10.77551,42.76084 -3.64892,13.14217 -11.6634,22.26178 -24.81958,28.24202 -7.49437,3.40661 -7.55037,3.41384 -28.204812,3.6379 -12.737137,0.13817 -22.749431,-0.25879 -26.036622,-1.03228 z M 55.501525,142.70887 c -2.029175,-11.59472 -2.049811,-14.70681 -0.138439,-20.88308 1.082708,-3.49859 3.245671,-8.17145 4.806591,-10.38412 3.447085,-4.88638 3.720879,-8.3852 0.656194,-8.3852 -3.891467,0 -12.105551,13.33651 -13.97669,22.69274 -2.04356,10.21844 1.631677,21.54531 6.990822,21.54531 2.245732,0 2.392949,-0.4063 1.661522,-4.58565 z M 101.57029,36.594483 c -0.96407,-0.333052 -2.499531,-0.826272 -3.412118,-1.096044 -3.60241,-1.064903 16.363068,-16.653435 26.180188,-20.440828 6.7306,-2.596629 4.06776,-2.994407 -3.21139,-0.479719 -7.45624,2.57586 -18.85923,9.19517 -22.973942,13.33611 -3.937319,3.962417 -4.691403,3.578974 -3.399802,-1.728778 2.707003,-11.124359 9.996234,-18.036762 22.004144,-20.866587 6.41323,-1.5113617 9.02773,-1.60148 16.84561,-0.5806449 5.08977,0.6646076 9.51915,1.4530516 9.84302,1.7520965 0.84884,0.7837699 -4.35332,10.7534374 -9.35583,17.9299704 -5.78725,8.302298 -12.46659,11.911393 -22.9667,12.409751 -4.29019,0.203622 -8.58912,0.09772 -9.55318,-0.235327 z"
       id="path1" /></g></svg>
