<?xml version="1.0" encoding="UTF-8" standalone="no"?>
<!-- Created with Inkscape (http://www.inkscape.org/) -->

<svg
   width="180"
   height="180"
   viewBox="0 0 180 180"
   version="1.1"
   id="svg1"
   xml:space="preserve"
   inkscape:version="1.4.2 (f4327f4, 2025-05-13)"
   sodipodi:docname="food_fruit_tree_cherry.svg"
   xmlns:inkscape="http://www.inkscape.org/namespaces/inkscape"
   xmlns:sodipodi="http://sodipodi.sourceforge.net/DTD/sodipodi-0.dtd"
   xmlns="http://www.w3.org/2000/svg"
   xmlns:svg="http://www.w3.org/2000/svg"><sodipodi:namedview
     id="namedview1"
     pagecolor="#505050"
     bordercolor="#ffffff"
     borderopacity="1"
     inkscape:showpageshadow="0"
     inkscape:pageopacity="0"
     inkscape:pagecheckerboard="1"
     inkscape:deskcolor="#505050"
     inkscape:document-units="px"
     inkscape:zoom="2.192031"
     inkscape:cx="64.780105"
     inkscape:cy="124.99823"
     inkscape:window-width="2560"
     inkscape:window-height="1351"
     inkscape:window-x="-9"
     inkscape:window-y="-9"
     inkscape:window-maximized="1"
     inkscape:current-layer="layer1" /><defs
     id="defs1" /><g
     inkscape:label="Warstwa 1"
     inkscape:groupmode="layer"
     id="layer1"><path
       style="fill:#000000;stroke-width:1.20994"
       d="m 31.760073,171.36797 c -10.469775,-2.95088 -18.996112,-9.55006 -24.1304933,-18.67638 -2.51526,-4.47085 -2.9432002,-6.93517 -2.9432002,-16.9483 0,-11.02034 0.2271928,-12.05603 3.822277,-17.4245 6.5144845,-9.72794 18.8614615,-13.72381 28.3735465,-9.18257 4.319199,2.06206 4.01115,2.54166 5.999782,-9.341143 C 46.351448,79.063806 56.93541,55.256981 70.365726,37.975109 79.438827,26.300024 98.60964,7.2184268 100.85493,7.6278108 c 3.67098,0.669321 4.59453,4.0320742 2.31788,8.4397022 -1.64179,3.178546 -2.14924,7.273747 -2.13257,17.21041 0.0335,19.951599 4.11163,34.421898 15.30634,54.310266 9.2129,16.367531 8.69443,15.926211 14.46088,12.308646 3.74002,-2.34628 6.33891,-3.00816 11.81166,-3.00816 10.4621,0 17.29835,4.374895 22.71796,14.538455 3.60594,6.76232 4.14061,8.92782 4.11611,16.67088 -0.0375,11.82421 -3.4743,19.18636 -12.51982,26.81873 -8.01603,6.76372 -15.5715,9.40459 -26.86195,9.3891 -10.65253,-0.0146 -18.8571,-3.46429 -26.66495,-11.21146 -18.680126,-18.53497 -12.360248,-48.06778 10.28629,-48.06778 2.03267,0 3.69575,-0.30109 3.69575,-0.6691 0,-0.36799 -2.26665,-4.25215 -5.03702,-8.631468 C 101.06323,77.881808 94.821047,58.597541 93.804176,38.426904 93.424227,30.89015 92.677075,24.873899 92.143822,25.057456 c -0.533243,0.183556 -4.323537,4.040491 -8.422855,8.570978 -16.053833,17.74235 -27.938884,40.567544 -32.451287,62.322577 -1.101648,5.311269 -2.250367,10.763549 -2.552696,12.116189 -0.524789,2.34794 -0.165678,2.43674 7.93166,1.96073 9.657639,-0.56773 14.009755,1.20886 19.544992,7.9785 12.934361,15.8188 2.536906,44.71597 -18.732693,52.06296 -7.068514,2.44161 -19.429456,3.06617 -25.70087,1.29858 z m 76.813737,-41.18953 c 0,-4.57191 0.70464,-7.06433 2.63901,-9.33467 3.11229,-3.65287 2.32257,-6.84065 -1.5626,-6.30759 -4.16656,0.57168 -7.58355,5.71053 -7.67363,11.54045 -0.10817,6.99953 1.23671,10.33911 4.1636,10.33911 2.10295,0 2.43362,-0.84754 2.43362,-6.2373 z m -88.315574,0.48581 c 0.901894,-2.77913 3.282868,-5.95389 6.037195,-8.04994 5.028215,-3.82645 5.062088,-7.12467 0.07317,-7.12467 -5.476668,0 -12.237902,8.62876 -12.237902,15.61815 0,3.25159 0.500045,4.14539 2.319158,4.14539 1.609512,0 2.774852,-1.40419 3.808375,-4.58893 z M 145.69892,59.156849 c -4.86049,-0.815431 -11.66039,-2.817699 -15.1109,-4.44948 -11.13041,-5.26368 -21.48035,-17.152909 -23.88701,-27.439618 -0.90429,-3.865154 -0.8559,-3.922201 2.67961,-3.158735 6.54688,1.413755 29.56402,12.268491 39.74682,18.744361 5.50927,3.503667 10.31627,6.370309 10.68226,6.370309 1.35784,0 -12.72455,-11.198877 -19.58145,-15.57193 -3.90457,-2.490194 -12.48248,-6.907855 -19.06202,-9.817047 -10.54473,-4.662426 -11.58962,-5.386725 -8.81469,-6.110198 6.09092,-1.588 23.31476,-1.103549 29.4566,0.82851 7.13613,2.244847 19.27275,12.187729 24.0358,19.691256 3.23542,5.096957 9.46968,19.230834 9.46968,21.468997 0,1.594894 -18.9092,1.239615 -29.6147,-0.556425 z"
       id="path1" /></g></svg>
