<?xml version="1.0" encoding="UTF-8" standalone="no"?>
<!-- Created with Inkscape (http://www.inkscape.org/) -->

<svg
   width="180"
   height="180"
   viewBox="0 0 180 180"
   version="1.1"
   id="svg1"
   xml:space="preserve"
   inkscape:version="1.4.2 (f4327f4, 2025-05-13)"
   sodipodi:docname="food_fruit_tree_breadfruit.svg"
   xmlns:inkscape="http://www.inkscape.org/namespaces/inkscape"
   xmlns:sodipodi="http://sodipodi.sourceforge.net/DTD/sodipodi-0.dtd"
   xmlns="http://www.w3.org/2000/svg"
   xmlns:svg="http://www.w3.org/2000/svg"><sodipodi:namedview
     id="namedview1"
     pagecolor="#505050"
     bordercolor="#ffffff"
     borderopacity="1"
     inkscape:showpageshadow="0"
     inkscape:pageopacity="0"
     inkscape:pagecheckerboard="1"
     inkscape:deskcolor="#505050"
     inkscape:document-units="px"
     inkscape:zoom="1.55"
     inkscape:cx="-239.35484"
     inkscape:cy="120"
     inkscape:window-width="2560"
     inkscape:window-height="1351"
     inkscape:window-x="-9"
     inkscape:window-y="-9"
     inkscape:window-maximized="1"
     inkscape:current-layer="layer1" /><defs
     id="defs1" /><g
     inkscape:label="Warstwa 1"
     inkscape:groupmode="layer"
     id="layer1"><path
       style="fill:#000000;stroke-width:1.16492"
       d="m 77.216316,172.70635 c -2.959082,-1.62308 -5.20977,-2.05018 -8.170583,-1.55045 -4.904269,0.82775 -11.914328,-1.83457 -14.622783,-5.55349 -1.07486,-1.47586 -3.65172,-2.83744 -6.176492,-3.26357 -5.89462,-0.99489 -11.473264,-5.48154 -12.949815,-10.41494 -0.807101,-2.69663 -2.487326,-4.7577 -4.94207,-6.06227 -4.58823,-2.43842 -7.391091,-7.10688 -7.391091,-12.31065 0,-2.40293 -1.252697,-5.64887 -3.203668,-8.30122 -2.687735,-3.65397 -3.075375,-5.11821 -2.407043,-9.09201 0.848637,-5.04578 0.925113,-7.96804 0.408151,-15.59572 -0.256965,-3.791608 0.375382,-5.607046 3.053304,-8.765746 1.857572,-2.19107 3.380484,-4.887075 3.384255,-5.991119 0.01941,-5.689284 2.711967,-10.415728 7.474494,-13.120559 2.692538,-1.529202 5.463541,-4.129293 6.157776,-5.777978 1.959469,-4.653389 5.984312,-7.869034 10.813184,-8.639183 2.425011,-0.386762 5.790781,-1.825281 7.479482,-3.196706 6.421176,-5.214752 13.602204,-6.426547 19.650331,-3.315983 5.511145,2.834384 6.142141,2.236535 6.122576,-5.800898 -0.02322,-9.520552 -2.65433,-19.529436 -7.319846,-27.844541 l -3.676196,-6.551893 3.000544,-2.1234426 c 1.650297,-1.1678932 4.732205,-2.7687585 6.848681,-3.5574785 4.666365,-1.7389604 5.024344,-1.369794 8.594392,8.8630011 3.566081,10.221449 5.228659,22.470685 4.311664,31.76682 -0.434604,4.40592 -0.388979,8.010764 0.101443,8.010764 0.490387,0 3.306532,-1.051762 6.258094,-2.337247 5.15291,-2.244217 5.57787,-2.264627 10.6766,-0.512758 2.92054,1.003472 6.29241,2.801061 7.49305,3.994647 1.20063,1.193585 3.53188,2.170156 5.18052,2.170156 4.73226,0 10.02516,3.460617 12.25859,8.014934 1.1629,2.371339 3.83253,5.128833 6.1631,6.365951 4.5774,2.429786 7.67556,7.914509 7.67556,13.588163 0,2.304386 0.92173,4.48197 2.41006,5.693761 3.75097,3.054028 5.32891,8.599885 3.83336,13.472895 -0.90043,2.93395 -0.87573,5.35392 0.0841,8.23611 1.69569,5.09188 0.52521,11.10692 -2.66709,13.70606 -1.62755,1.32515 -2.43227,3.3977 -2.43227,6.26431 0,5.92516 -2.94146,11.69033 -6.764,13.25727 -1.95663,0.80206 -4.35642,3.50024 -6.15447,6.9197 -2.96601,5.64063 -8.01463,9.44948 -12.52527,9.44948 -1.28923,0 -3.92028,1.48016 -5.84677,3.28925 -4.19551,3.93982 -10.39373,5.98285 -15.24359,5.02452 -2.47113,-0.4883 -4.788232,-0.0153 -7.671642,1.5663 -5.422166,2.97402 -13.872938,2.98533 -19.268576,0.0257 z m 12.031468,-8.75774 c 2.047799,-1.16512 1.916448,-1.31649 -2.68389,-3.09256 -3.822186,-1.47564 -5.747243,-0.0246 -3.376616,2.54534 1.706091,1.84947 3.48883,2.01044 6.060506,0.54722 z M 110.074,157.86918 c 3.61391,-1.68133 5.00042,-3.70914 5.00042,-7.31329 0,-2.944 -0.79678,-2.68833 -5.4471,1.74776 -2.22973,2.127 -5.23227,3.86727 -6.67234,3.86727 -3.151322,0 -3.489902,1.84291 -0.46905,2.55314 3.63149,0.8538 4.00613,0.81159 7.58807,-0.85488 z m -42.439371,-2.47853 c 0.477001,-0.42914 -0.95072,-1.54789 -3.172717,-2.48609 -2.36585,-0.99897 -4.767994,-3.19391 -5.796799,-5.29687 -2.230976,-4.56022 -3.769842,-4.5893 -3.769842,-0.0712 0,4.41587 4.204888,8.63444 8.606415,8.63444 1.796114,0 3.655944,-0.35111 4.132943,-0.78025 z m 21.859055,-4.36318 c 2.379447,-1.93733 3.029774,-4.80095 1.090298,-4.80095 -0.635614,0 -1.497232,0.49721 -1.914704,1.10493 -0.417458,0.60772 -2.628121,1.10493 -4.912583,1.10493 -2.284449,0 -4.49511,-0.49721 -4.912583,-1.10493 -1.052693,-1.53241 -4.298509,-1.38952 -4.298509,0.18923 0,4.74599 10.422891,7.19118 14.948081,3.50679 z m 42.047106,-9.30073 c 2.57683,-2.75515 2.92888,-3.80884 1.86825,-5.59181 -1.73477,-2.91627 -3.88026,-2.11492 -5.0328,1.87975 -0.51408,1.78181 -2.47382,4.09655 -4.35494,5.14387 l -3.42023,1.90425 3.88231,0.0294 c 2.84986,0.0215 4.72667,-0.8734 7.05741,-3.36545 z m -22.30006,-0.72975 c 2.27228,-1.84232 3.0328,-9.13459 0.95265,-9.13459 -0.65813,0 -2.01935,1.43141 -3.02494,3.1809 -1.97529,3.43655 -4.12778,4.55362 -8.774432,4.55362 -3.727951,0 -3.827567,1.49252 -0.2066,3.09541 3.286542,1.45488 8.073452,0.72066 11.053322,-1.69534 z m -66.626917,-6.38725 c 0,-0.91982 -0.512321,-2.53578 -1.138492,-3.59103 -0.626169,-1.05525 -1.461701,-2.84478 -1.856746,-3.97671 -0.587595,-1.68369 -1.05074,-1.80984 -2.545947,-0.69342 -2.532485,1.89092 -2.283516,4.65693 0.676451,7.51534 2.918394,2.81825 4.864734,3.11664 4.864734,0.74582 z M 61.036,134.41972 c 0,-0.41663 -1.196153,-1.90301 -2.658126,-3.30309 -1.913352,-1.83233 -2.604061,-3.78725 -2.465134,-6.97704 0.215503,-4.94797 -0.01683,-5.17385 -2.771962,-2.69513 -2.916379,2.62381 -2.398396,7.88706 1.084601,11.02063 2.809628,2.52776 6.810621,3.67602 6.810621,1.95463 z m 24.021142,-0.821 c 2.769235,-1.83356 1.956719,-2.24663 -6.520066,-3.31465 -5.886564,-0.74168 -7.3772,1.40939 -2.456292,3.54456 3.844404,1.66808 6.200982,1.60771 8.976358,-0.22991 z m 33.701718,-8.36592 c 4.83277,-4.34792 2.68223,-12.15426 -3.3483,-12.15426 -1.25143,0 -1.34318,0.51696 -0.37934,2.13723 1.61845,2.72073 1.64301,7.47009 0.0432,8.35964 -0.67548,0.37557 -1.22815,1.39937 -1.22815,2.27506 0,2.23481 2.02502,1.9802 4.91259,-0.61767 z m 20.88866,-1.38117 c 6.85896,-4.20222 7.35877,-5.98139 2.73376,-9.73114 -2.20596,-1.7885 -4.55478,-3.25182 -5.21962,-3.25182 -1.5736,0 -1.56038,1.88394 0.0193,2.76234 0.67548,0.37558 1.22815,2.1525 1.22815,3.94872 0,2.44323 -0.92692,3.77296 -3.68004,5.27927 -3.49603,1.91277 -3.76406,3.47873 -0.59539,3.47873 0.80074,0 3.28193,-1.11874 5.51376,-2.4861 z M 31.560502,117.87637 c 0,-0.93574 1.712588,-3.14065 3.805753,-4.89979 3.23663,-2.72013 3.497784,-3.30475 1.746325,-3.90943 -4.606995,-1.5905 -10.716775,5.57674 -8.728235,10.23891 0.850453,1.99391 3.176157,0.94704 3.176157,-1.42969 z m 62.635432,1.80442 c 0,-0.62275 1.381665,-1.60489 3.070364,-2.18252 1.68869,-0.57763 3.070372,-1.55976 3.070372,-2.18253 0,-1.78788 -5.103984,-1.31895 -7.579201,0.69638 -2.717347,2.21246 -2.935035,4.80094 -0.403752,4.80094 1.013218,0 1.842217,-0.50951 1.842217,-1.13227 z M 69.63302,116.39334 c 0,-2.11208 4.931066,-5.52467 7.982947,-5.52467 3.43015,0 4.117617,-1.61188 1.127708,-2.64412 -5.939043,-2.05038 -11.566947,0.93226 -11.566947,6.13017 0,1.72895 0.552666,3.14355 1.228146,3.14355 0.675479,0 1.228146,-0.49722 1.228146,-1.10493 z m -18.422186,-6.4806 c 0,-1.13345 1.145454,-3.37095 2.54543,-4.9722 1.984782,-2.27008 3.617367,-2.91134 7.412092,-2.91134 4.476445,0 4.761878,-0.17615 3.559843,-2.19682 -1.963252,-3.300357 -6.670232,-3.902436 -11.337297,-1.45018 -4.561516,2.3968 -6.593017,6.40979 -5.40346,10.6739 0.931045,3.33742 3.223392,3.94662 3.223392,0.85664 z m 79.145756,-5.91953 c 2.69432,-3.46074 2.38258,-6.060707 -1.10267,-9.196297 -3.39567,-3.055 -8.20409,-3.538225 -10.49506,-1.054713 -1.27092,1.377729 -1.12118,1.657398 0.88741,1.657398 3.485,0 6.87233,3.879398 6.75061,7.731222 -0.12435,3.93481 1.32244,4.24989 3.95971,0.86239 z m -22.44666,-1.99666 c 0.22533,-0.92954 -0.14297,-1.81512 -0.81846,-1.96799 -0.67548,-0.152855 -1.40883,1.10489 -1.62968,2.79499 -0.41699,3.19121 1.64279,2.4954 2.44814,-0.827 z m -75.121283,-0.5061 c 0,-2.382122 3.573376,-4.985918 6.842529,-4.985918 1.640458,0 2.982637,-0.467873 2.982637,-1.03972 0,-3.569115 -10.141953,-2.343742 -12.992111,1.569734 -1.501187,2.061251 -1.619715,3.141744 -0.543147,4.951504 1.438195,2.41772 3.710092,2.11422 3.710092,-0.4956 z m 112.758333,0.24984 c 0.23802,-1.11197 -0.33923,-1.920959 -1.37071,-1.920959 -2.19361,0 -4.83123,2.683529 -3.66706,3.730889 1.46986,1.32241 4.60865,0.19472 5.03777,-1.80993 z M 81.907169,95.959999 c 0.836872,-0.907206 3.703622,-2.178078 6.370539,-2.824164 4.88931,-1.184471 5.832957,-3.4714 1.727842,-4.187444 -5.02195,-0.875969 -13.003656,3.449342 -13.003656,7.046723 0,2.097637 2.9574,2.076466 4.905275,-0.03514 z M 57.956436,87.68108 c 2.163072,-3.763268 6.068084,-5.006421 12.379881,-3.941115 4.112274,0.69407 4.292247,0.604477 3.034134,-1.51047 -1.692139,-2.844601 -5.116615,-4.508817 -9.277818,-4.508817 -4.590366,0 -10.425508,5.518289 -10.425508,9.8594 0,4.310237 1.844944,4.353679 4.289311,0.101004 z M 39.781587,86.56014 c 1.017555,-2.425361 2.188272,-3.314798 4.363073,-3.314798 3.797047,0 4.95547,-1.056345 3.220702,-2.936901 -1.698808,-1.84159 -8.660061,-1.944185 -10.646649,-0.156912 -1.566782,1.4096 -2.028958,7.750678 -0.655007,8.986787 1.490994,1.341406 2.312415,0.771789 3.717881,-2.578176 z m 97.153823,0.883946 c 2.21769,-1.995202 1.77352,-5.0816 -0.91779,-6.377443 -2.19649,-1.057601 -2.37555,-0.790421 -2.1953,3.275924 0.20812,4.695855 0.74569,5.231416 3.11309,3.101519 z m -20.63284,-2.541345 c 0,-6.51059 -9.92807,-9.556357 -15.57971,-4.779592 -1.563372,1.321359 -2.842492,3.061628 -2.842492,3.867265 0,1.894462 0.66791,1.845997 4.332792,-0.314409 3.63907,-2.145197 8.53809,-1.320847 10.70538,1.801379 2.06409,2.973539 3.38403,2.749398 3.38403,-0.574643 z M 56.790029,71.556676 c 3.847744,0.868836 4.186296,-2.035105 0.447143,-3.835472 -5.4391,-2.618883 -12.573756,2.362976 -10.464881,7.307242 0.692317,1.623177 1.204025,1.473228 3.898416,-1.142392 2.358862,-2.289911 3.824065,-2.847654 6.119322,-2.329378 z m 28.739778,0.639337 c 1.130765,0 3.128725,0.730017 4.439918,1.622259 3.1351,2.133374 4.226209,2.093591 4.226209,-0.154089 0,-3.291112 -3.791605,-5.887901 -8.59702,-5.887901 -4.511201,0 -7.437674,1.86358 -8.939795,5.692873 -1.133518,2.889642 0.408346,3.260578 3.743229,0.900532 1.68935,-1.195521 3.996705,-2.173674 5.127459,-2.173674 z m 42.821283,0.811689 c 0.57653,-2.673719 -3.626,-4.252639 -7.11673,-2.673811 -4.46168,2.01798 -4.37138,3.86568 0.21326,4.363281 5.51818,0.598922 6.4597,0.368506 6.90347,-1.68947 z M 72.02056,64.688095 c 4.18741,0.552925 4.766507,-0.702642 1.720631,-3.73064 -4.235677,-4.210808 -11.477047,-1.073239 -11.477047,4.972818 v 3.336152 l 3.001615,-2.536959 c 2.189833,-1.850857 4.016626,-2.402932 6.754801,-2.041371 z m 39.40333,-2.379479 c -1.60389,-2.696249 -5.79542,-2.935349 -9.5858,-0.546811 -3.840082,2.419848 -3.450542,4.122665 0.75305,3.292025 2.48274,-0.490595 4.3339,-0.06345 6.44777,1.487814 2.86849,2.105055 2.97766,2.108475 3.3493,0.104913 0.21129,-1.139091 -0.22267,-3.091161 -0.96432,-4.337937 z m 1.8083,-17.135172 c -0.67546,-0.253432 -4.4758,-1.037793 -8.44515,-1.743021 l -7.217012,-1.282235 3.532582,-2.161013 c 7.67103,-4.692675 20.09721,-9.693019 29.98729,-12.067014 16.44518,-3.947472 15.76023,-5.642727 -1.27773,-3.162342 -9.3875,1.366631 -20.62139,5.664914 -27.93821,10.689654 -6.473865,4.445853 -6.9777,2.523941 -1.56438,-5.967622 9.91697,-15.556272 31.03995,-19.032818 56.19531,-9.248957 l 6.42829,2.500211 -4.77276,3.462498 c -2.62502,1.904373 -7.72843,5.65094 -11.34089,8.325708 -3.61247,2.674768 -9.46797,6.066774 -13.01225,7.537793 -5.90712,2.451711 -17.61865,4.22556 -20.57509,3.11634 z M 56.08581,40.665712 C 49.108801,38.730706 41.459528,32.909179 36.645836,25.870785 c -4.449388,-6.505706 -4.157016,-6.711549 9.532646,-6.711549 7.933292,0 10.606783,0.502309 16.17248,3.038566 6.849616,3.121331 12.875413,9.573268 15.665098,16.77292 l 1.314362,3.392103 -8.840181,-0.07696 C 65.628159,42.243539 59.146154,41.51447 56.08581,40.665714 Z"
       id="path1" /></g></svg>
