<?xml version="1.0" encoding="UTF-8" standalone="no"?>
<!-- Created with Inkscape (http://www.inkscape.org/) -->

<svg
   width="180"
   height="180"
   viewBox="0 0 180 180"
   version="1.1"
   id="svg1"
   xml:space="preserve"
   inkscape:version="1.4.2 (f4327f4, 2025-05-13)"
   sodipodi:docname="food_vegetable_licorice.svg"
   xmlns:inkscape="http://www.inkscape.org/namespaces/inkscape"
   xmlns:sodipodi="http://sodipodi.sourceforge.net/DTD/sodipodi-0.dtd"
   xmlns="http://www.w3.org/2000/svg"
   xmlns:svg="http://www.w3.org/2000/svg"><sodipodi:namedview
     id="namedview1"
     pagecolor="#505050"
     bordercolor="#ffffff"
     borderopacity="1"
     inkscape:showpageshadow="0"
     inkscape:pageopacity="0"
     inkscape:pagecheckerboard="1"
     inkscape:deskcolor="#505050"
     inkscape:document-units="px"
     inkscape:zoom="3.1"
     inkscape:cx="50.645161"
     inkscape:cy="133.22581"
     inkscape:window-width="2560"
     inkscape:window-height="1351"
     inkscape:window-x="-9"
     inkscape:window-y="-9"
     inkscape:window-maximized="1"
     inkscape:current-layer="layer1" /><defs
     id="defs1" /><g
     inkscape:label="Warstwa 1"
     inkscape:groupmode="layer"
     id="layer1"><path
       style="fill:#000000;stroke-width:0.971417"
       d="m 123.66801,169.43386 -5.13584,-3.52172 v -5.13271 -5.13273 l 5.54671,-3.49834 c 7.70285,-4.85821 9.62736,-5.07765 15.40753,-1.75682 l 4.93041,2.83262 0.24413,5.68186 0.24415,5.68186 -5.58541,3.73189 c -7.72796,5.16348 -9.55649,5.29362 -15.65168,1.11409 z m 12.17542,-9.13633 c 2.71611,-1.91607 4.75789,-3.89185 4.53731,-4.39064 -0.22059,-0.49878 -1.92468,-1.6096 -3.78688,-2.46845 -3.0074,-1.38705 -3.88981,-1.32218 -7.89527,0.58048 -2.48021,1.17817 -5.13517,2.78656 -5.89989,3.57428 -1.23073,1.26763 -0.96566,1.70243 2.30735,3.78491 4.77851,3.04035 4.91534,3.02659 10.73738,-1.08058 z m -7.03957,0.0388 c -0.27932,-0.63159 0.16107,-1.1648 0.97867,-1.18488 0.8176,-0.0201 2.20433,-0.79524 3.08162,-1.72255 0.87731,-0.9273 2.35644,-1.66267 3.28695,-1.63414 1.18655,0.0364 0.58741,0.87837 -2.00596,2.81902 -4.22886,3.16452 -4.64431,3.29852 -5.34128,1.72255 z m -3.18046,-2.05595 c -0.44446,-1.00502 7.61248,-5.33931 8.25528,-4.441 0.22169,0.30976 -1.3387,1.63994 -3.46751,2.9559 -4.43066,2.73893 -4.25708,2.68508 -4.78777,1.4851 z m -34.354937,10.44477 c -1.501293,-1.588 -4.985787,-4.3274 -7.743324,-6.0876 -5.427593,-3.46455 -6.079714,-4.71314 -6.079714,-11.64063 0,-4.16834 0.259242,-4.7095 3.031414,-6.32819 1.667283,-0.97353 4.341587,-3.01423 5.942903,-4.53486 3.67954,-3.49416 4.42487,-3.46281 9.031657,0.37997 2.073498,1.7296 5.973521,4.53064 8.666701,6.22453 5.29652,3.33122 6.05075,4.80323 6.13897,11.98109 l 0.0578,4.69912 -5.60762,3.07456 c -9.845503,5.39815 -10.364026,5.48426 -13.438746,2.23201 z m 12.966797,-15.279 c 2.43829,0 0.96966,-1.93322 -2.97428,-3.91516 -2.267897,-1.13968 -5.42745,-3.30882 -7.021239,-4.8203 -3.334056,-3.16189 -5.140509,-3.48052 -5.814596,-1.02562 -0.260154,0.9474 -1.08055,1.74087 -1.823119,1.76324 -0.74256,0.0224 -2.225626,0.71905 -3.295691,1.54816 -1.90737,1.47787 -1.841253,1.589 3.366895,5.65925 2.92186,2.28349 5.758826,4.90341 6.304367,5.82202 0.853669,1.43748 1.627102,1.20326 5.550192,-1.68068 2.507071,-1.84301 5.075431,-3.35091 5.707471,-3.35091 z m -14.052942,0 c -0.279323,-0.63159 -0.138075,-1.14835 0.313878,-1.14835 0.451956,0 1.050268,0.51676 1.329592,1.14835 0.279326,0.63161 0.138077,1.14837 -0.313878,1.14837 -0.451954,0 -1.050268,-0.51676 -1.329592,-1.14837 z m 2.876072,-0.57417 c -1.129885,-0.90264 -2.864518,-1.65947 -3.854741,-1.68185 -0.990224,-0.0224 -2.025503,-0.54968 -2.300621,-1.17177 -0.732157,-1.65553 4.366915,-0.0909 7.798833,2.39301 1.58184,1.14491 2.321402,2.08617 1.643471,2.09172 -0.677932,0.007 -2.157055,-0.72848 -3.286942,-1.63111 z m 2.054339,-2.37254 c -2.259771,-1.52105 -4.570902,-2.7722 -5.135844,-2.78032 -0.564943,-0.008 -1.027169,-0.53154 -1.027169,-1.16313 0,-1.99389 2.353943,-1.25992 7.419051,2.31326 7.352953,5.18712 6.217593,6.66073 -1.256038,1.63019 z m -55.918726,9.36996 c -5.018507,-3.05477 -9.463201,-14.02283 -8.30223,-20.48716 0.812347,-4.52314 3.291661,-8.09384 12.058546,-17.36672 4.556167,-4.81912 7.948586,-8.76207 7.538704,-8.76207 -1.5127,0 -18.852549,10.97123 -25.775643,16.30868 -4.515951,3.48164 -8.155538,5.51022 -9.886209,5.51022 -6.9450235,0 -12.6485528,-11.59585 -11.9872952,-24.37137 0.2407978,-4.65221 0.8407595,-7.41222 1.9474233,-8.95877 2.3972501,-3.350183 37.7481589,-20.32992 65.6733789,-31.544278 8.736612,-3.508504 11.876576,-5.20227 10.782634,-5.816401 -0.848869,-0.476549 -3.437334,-0.199345 -5.752146,0.615992 -9.785441,3.446708 -29.602643,11.781582 -39.337927,16.54505 -5.762417,2.81954 -10.49182,5.035962 -10.509783,4.925373 -0.01796,-0.110591 -0.153299,-2.948168 -0.300744,-6.30574 -0.534462,-12.170567 -4.597005,-10.059233 -4.597005,2.3891 0,5.818823 -0.199277,6.699906 -1.438036,6.358075 -1.210139,-0.333947 -1.438037,-1.707366 -1.438037,-8.666307 0,-7.00428 0.278252,-8.658128 1.818696,-10.809793 1.759145,-2.457152 2.404902,-2.544623 19.721642,-2.671264 20.930881,-0.153088 32.466859,-2.447425 34.059357,-6.77394 1.872742,-5.087867 4.212403,-7.597895 7.082222,-7.597895 1.838352,0 3.704144,-1.040089 5.36118,-2.988609 2.235825,-2.629124 3.017544,-2.900363 6.49889,-2.254981 l 3.957352,0.733626 7.393977,-10.6641 c 4.0667,-5.865256 8.96097,-13.7327 10.87618,-17.483206 5.3549,-10.4864528 6.71322,-12.1288829 10.03076,-12.1288829 2.1648,0 3.67079,0.9704635 5.79173,3.7321809 4.21314,5.486014 4.38818,9.247639 0.79439,17.07084 -2.89984,6.312581 -3.23982,6.635997 -16.13181,15.345703 -8.63352,5.832735 -12.89112,9.286275 -12.36124,10.026777 0.52988,0.740502 3.45179,-0.510231 8.48328,-3.631298 10.96484,-6.801543 19.43153,-13.875441 30.63568,-25.596033 9.17483,-9.597737 9.97654,-10.194012 12.73689,-9.473264 1.62018,0.423037 3.50046,1.343026 4.17838,2.04442 4.27464,4.422576 5.75414,7.306284 6.66419,12.989159 1.30374,8.141282 0.37235,9.97005 -9.98643,19.608398 -4.5078,4.194296 -8.10043,7.753434 -7.9836,7.909197 0.11683,0.155764 5.13182,-0.239386 11.14443,-0.878119 10.16178,-1.079495 11.05064,-1.011292 12.6156,0.967909 4.02218,5.086881 5.23555,15.316946 2.70174,22.778927 -1.41955,4.180568 -3.6418,5.15206 -11.869,5.188763 -8.6018,0.03834 -42.74992,8.430562 -46.88333,11.521981 -0.81825,0.611981 -1.71952,2.133281 -2.00282,3.38069 -0.6976,3.07163 -4.33995,6.92132 -6.54852,6.92132 -0.99016,0 -2.65869,1.27691 -3.70784,2.83759 -2.3751,3.53312 -6.69344,5.60585 -9.734493,4.67243 -1.93304,-0.59333 -3.561366,0.5277 -9.960974,6.85776 -11.715838,11.58851 -20.182485,20.78408 -25.778338,27.99767 -2.796916,3.6055 -6.152068,7.69219 -7.45589,9.08154 -2.705414,2.88285 -6.986063,3.24326 -10.817912,0.91077 z m 8.625795,-5.78484 c 2.577511,-3.83419 1.758628,-9.95437 -2.042686,-15.26665 -2.419533,-3.38126 -3.229484,-3.8363 -6.277464,-3.52677 -2.78163,0.28249 -3.746628,0.9734 -4.704187,3.3681 -1.833405,4.58503 0.630855,12.89215 4.719915,15.91101 4.037645,2.98091 6.05327,2.863 8.304422,-0.48569 z m -9.14158,-3.79639 c -4.028441,-6.06781 -3.410283,-11.77074 1.275857,-11.77074 3.08398,0 5.832899,3.41837 6.707133,8.34056 1.199315,6.75249 -4.228812,9.08488 -7.98299,3.43018 z m 6.038396,-2.58382 c -0.31682,-3.36528 -2.26457,-6.3363 -4.865568,-7.42174 -1.635539,-0.68255 -1.848903,-0.36508 -1.848903,2.75089 0,4.28947 2.695423,8.39493 5.186373,7.89946 1.393079,-0.27709 1.73746,-1.00473 1.528098,-3.22861 z m -4.523175,-0.76559 c -0.301306,-0.42106 -0.536585,-1.58377 -0.522837,-2.58381 0.02054,-1.49322 0.180872,-1.44361 0.897055,0.27752 0.884828,2.12641 0.628307,3.70733 -0.374218,2.30629 z m 35.197649,-29.10368 c 7.047002,-7.52468 7.983271,-8.72524 5.341278,-6.84903 -6.181198,4.38956 -20.543377,21.53589 -20.543377,24.52578 0,0.6661 2.126239,-1.65671 4.724977,-5.1618 2.598737,-3.50508 7.313442,-9.13682 10.477122,-12.51495 z m -4.93041,-6.24033 c 4.971495,-5.23456 11.719996,-11.712511 14.996664,-14.395481 3.276669,-2.682982 5.95758,-5.071117 5.95758,-5.306972 0,-0.690261 -9.118458,5.138496 -13.147761,8.404403 -5.765992,4.67353 -12.557814,12.28177 -19.936756,22.33321 -6.413288,8.73605 -6.510105,8.93881 -1.839224,3.85182 2.711726,-2.9533 8.997999,-9.65244 13.969497,-14.88698 z m -53.260307,16.38717 c 3.254799,-4.27313 2.17141,-16.79222 -1.887964,-21.81633 -4.581957,-5.67089 -9.3579307,-2.53163 -9.3579307,6.15104 0,6.71308 2.8941959,14.58427 6.0737277,16.51839 3.279116,1.99469 2.963358,2.04678 5.172167,-0.8531 z m -6.228004,-3.89244 c -2.6806685,-3.15223 -3.91984,-8.79122 -3.0257973,-13.76927 0.4506637,-2.50932 0.9229371,-2.89513 3.1719453,-2.59137 2.224032,0.3004 2.941562,1.19903 4.531496,5.67527 3.323618,9.35714 0.220682,16.44535 -4.677644,10.68537 z m 3.883138,-3.85782 c 0.337507,-3.22017 -1.276765,-8.90666 -2.753172,-9.69841 -3.0488002,-1.63498 -3.4920156,6.58477 -0.597105,11.07369 1.649124,2.55717 2.996066,2.00426 3.350277,-1.37528 z m -2.738016,-1.23647 c -0.279323,-0.63161 -0.116256,-1.14836 0.362371,-1.14836 0.478627,0 0.870232,0.51675 0.870232,1.14836 0,0.6316 -0.163068,1.14837 -0.362371,1.14837 -0.199305,0 -0.590909,-0.51677 -0.870232,-1.14837 z m 38.548396,5.22931 c 8.505796,-9.13222 10.012743,-10.91716 9.240945,-10.94559 -0.75386,-0.0278 -16.152542,15.89885 -16.152542,16.70631 0,1.29126 1.534944,0.0123 6.911597,-5.76072 z m 1.716621,-20.70112 c 1.355863,-0.48864 2.022586,-1.11704 1.481597,-1.39644 -1.76217,-0.91008 -22.43584,10.83371 -22.43584,12.74483 0,0.24032 4.160032,-2.01485 9.24452,-5.01149 5.084485,-2.99666 10.35386,-5.84825 11.709723,-6.3369 z m 48.932564,0.9727 c 1.95122,-7.171986 0.19447,-19.373326 -3.727112,-25.886345 -1.135398,-1.885692 -2.064173,-3.259698 -2.06395,-3.053336 2.29e-4,0.206359 0.693872,2.959009 1.541435,6.117007 2.364414,8.809831 2.909623,17.875204 1.382277,22.983654 -1.622134,5.42551 -1.616308,5.48308 0.402155,3.97346 0.925528,-0.69224 2.034865,-2.55272 2.465195,-4.13444 z M 38.645759,101.3257 C 45.370231,96.570706 56.270053,91.732398 68.497642,88.074823 82.523583,83.879302 87.23445,82.092392 85.951089,81.454431 84.47886,80.722566 60.608658,87.735689 53.967033,90.851398 47.336116,93.962105 32.066561,103.86763 33.715348,103.98888 c 0.579972,0.0426 2.798657,-1.15578 4.930411,-2.66318 z m -3.049632,-5.467368 c 6.834305,-3.64713 8.347825,-5.149328 3.844052,-3.815329 -3.542311,1.04921 -17.249503,8.409317 -18.248939,9.798797 -1.011688,1.4065 6.065781,-1.53331 14.404887,-5.983468 z m 74.260373,2.98054 c 1.81636,-3.874022 1.89404,-14.570114 0.15863,-21.843028 -3.18306,-13.339741 -15.428591,-28.149903 -20.85814,-25.226527 -1.326198,0.714048 -1.310124,0.870518 0.203594,1.981874 7.717177,5.665869 13.821056,13.374128 16.597586,20.960145 2.38846,6.525789 3.28852,16.499912 2.05312,22.752021 -0.98352,4.977343 -0.13879,5.607043 1.84521,1.375515 z m -4.75485,-14.861684 c -0.6242,-6.364284 -3.73696,-15.128555 -6.732165,-18.955083 -2.170324,-2.772688 -2.214057,-2.78191 -1.278289,-0.269476 0.873544,2.345371 0.540765,2.222197 -3.380848,-1.251416 -5.002501,-4.431028 -8.933575,-6.517649 -12.278867,-6.517649 -3.540979,0 -2.809684,1.815482 1.393795,3.46019 4.535575,1.774634 14.017905,10.877476 17.525324,16.823941 1.40919,2.389111 2.96206,6.03723 3.45084,8.106935 1.26109,5.33998 1.89428,4.659444 1.30021,-1.397442 z m 20.0044,-3.710246 c 9.84741,-7.620857 19.40947,-17.166131 20.87877,-20.842142 0.68651,-1.717537 0.62069,-1.71926 -0.82173,-0.02159 -0.8624,1.015005 -7.76473,7.142887 -15.33852,13.617516 -7.57378,6.474632 -13.97363,12.231341 -14.22188,12.792695 -0.67948,1.536428 3.51238,-0.910079 9.50336,-5.546467 z M 68.688679,78.014268 c 3.544949,-1.553598 6.297762,-3.03099 6.117359,-3.283101 -0.407408,-0.569348 -18.84168,6.133924 -19.488425,7.086594 -0.849896,1.25191 6.803087,-0.925029 13.371066,-3.803493 z m 83.466161,1.215059 c 0.64866,-0.808699 -9.3858,-0.1535 -11.84669,0.773526 -1.47133,0.55427 0.35075,0.671586 4.51954,0.290996 3.84162,-0.35071 7.13883,-0.829751 7.32715,-1.064522 z m 11.28698,-7.345353 c 2.97902,-1.321548 -13.41116,-0.08417 -17.1916,1.297902 -1.65865,0.60637 0.63001,0.739764 6.09816,0.355432 4.81433,-0.338378 9.80637,-1.08238 11.09344,-1.653334 z m -37.27376,-5.509569 c 2.16595,-2.16393 3.76581,-4.175183 3.55525,-4.469441 -0.38718,-0.541062 -9.54767,8.706957 -9.54767,9.638889 0,0.654784 1.19226,-0.373725 5.99242,-5.169448 z m -1.06201,-6.774147 c 8.26058,-5.054633 17.81556,-13.86168 22.18685,-20.450089 1.16155,-1.75069 -0.73046,-0.315572 -4.35357,3.302248 -3.52434,3.519206 -11.93686,10.31225 -18.69446,15.095648 -16.89408,11.958546 -16.57418,12.720875 0.86118,2.052193 z m 37.79981,5.48047 3.69782,-0.919505 -3.69782,-0.05857 c -2.03379,-0.03228 -5.36182,0.355155 -7.39562,0.860882 l -3.69779,0.919505 3.69779,0.05857 c 2.0338,0.03228 5.36183,-0.355153 7.39562,-0.860882 z m -23.41945,-27.15227 c 7.92204,-7.801002 14.27427,-15.159283 11.40583,-13.212269 -1.63425,1.109285 -24.89488,23.697105 -25.78619,25.040333 -1.45687,2.195556 8.23241,-5.774036 14.38036,-11.828064 z m 16.34226,1.938248 c 1.75697,-1.954517 2.93294,-3.553667 2.61327,-3.553667 -0.84733,0 -7.68146,6.701026 -8.33022,8.167965 -0.80753,1.825995 1.87095,-0.335886 5.71695,-4.614298 z M 110.4156,38.896855 c 3.79861,-5.661318 9.09112,-15.675018 5.91766,-11.196538 -5.7557,8.122637 -11.07651,16.651261 -10.38833,16.651261 0.44586,0 2.45768,-2.454624 4.47067,-5.454723 z m 10.55713,-8.987673 c 1.90287,-3.522118 3.30186,-6.624502 3.10889,-6.894186 -0.19298,-0.269682 -2.07483,2.612053 -4.1819,6.403855 -2.10706,3.791803 -3.50607,6.894188 -3.10889,6.894188 0.39718,0 2.27905,-2.881734 4.1819,-6.403857 z m 31.25058,120.381078 c -1.58184,-1.00105 -5.27965,-2.93949 -8.21735,-4.30767 l -5.34128,-2.4876 v -4.49848 c 0,-3.8728 -0.28572,-4.5819 -2.05433,-5.09843 -1.69027,-0.49361 -2.12786,-0.0925 -2.46914,2.26327 -0.50359,3.47622 -4.86236,7.17443 -12.30867,10.44336 l -5.32787,2.33893 -7.81989,-5.50026 -7.81991,-5.50023 v -6.8565 -6.85648 l 7.39563,-3.69024 c 4.06757,-2.02963 8.54809,-3.72429 9.95668,-3.76587 2.28064,-0.0674 2.74806,-0.70438 4.26857,-5.81746 1.67668,-5.63817 1.77134,-5.74144 5.2454,-5.72152 1.94586,0.0115 7.03258,1.56145 11.30384,3.4451 4.27125,1.88363 8.39173,3.42479 9.1566,3.42479 1.74188,0 2.38824,2.29196 2.38824,8.46847 0,4.74814 0.0657,4.86009 3.63428,6.19393 2.97513,1.11201 4.31648,2.59734 7.39563,8.18949 2.06872,3.75711 3.76133,7.56539 3.76133,8.46289 0,1.98861 -1.99725,4.53396 -5.5059,7.0169 -3.1508,2.22969 -3.91014,2.21515 -7.64186,-0.14639 z m 8.91664,-10.20749 c 0.86728,-0.80058 -4.468,-8.46565 -6.62338,-9.51568 -3.84983,-1.87551 -5.59215,-1.36361 -2.15181,0.63221 1.65964,0.96278 3.22288,2.4984 3.47387,3.41249 0.38345,1.39638 0.16389,1.4331 -1.37405,0.2297 -2.17647,-1.70304 -5.75316,-2.35532 -5.12487,-0.93464 0.2427,0.54879 1.73037,1.59236 3.30592,2.31902 1.57555,0.72667 2.86461,1.85318 2.86461,2.50336 0,0.6502 -0.53153,0.89713 -1.18119,0.54872 -2.64059,-1.41604 -8.04623,-3.17693 -8.36881,-2.72612 -0.18976,0.26519 2.15868,1.77139 5.21878,3.34715 5.25109,2.70394 7.192,2.73975 9.96093,0.18379 z m -39.54216,-4.07349 c 2.3815,-1.37942 4.33,-2.9297 4.33,-3.44508 0,-1.32706 -0.95108,-1.17657 -4.91459,0.77769 -4.64494,2.29024 -6.01156,0.83503 -1.9877,-2.11653 2.26012,-1.65782 2.79339,-2.474 1.80951,-2.76952 -0.76724,-0.23047 -2.1296,0.13043 -3.02748,0.80196 -0.89788,0.67155 -2.2115,1.22098 -2.91915,1.22098 -2.37941,0 -1.30806,-1.70667 2.41428,-3.84594 2.03209,-1.16786 3.69471,-2.58141 3.69471,-3.14123 0,-0.55983 -1.94134,0.0718 -4.3141,1.40328 -2.37277,1.33164 -5.05367,2.70943 -5.95758,3.0618 -3.62276,1.41218 1.38502,-3.64425 5.64888,-5.70376 2.74686,-1.32679 3.49736,-2.02236 2.1576,-1.99971 -2.56982,0.0434 -13.34146,5.84744 -13.68477,7.37368 -0.13972,0.62114 1.74628,2.33952 4.19111,3.81863 2.44483,1.47911 5.08371,3.67535 5.86417,4.88054 1.7494,2.70145 1.4607,2.71512 6.69511,-0.31679 z m 25.69273,-15.00449 -0.003,-4.88054 -7.59867,-3.10282 c -4.17926,-1.70652 -8.8929,-3.25683 -10.47473,-3.44508 l -2.87608,-0.34228 v 5.05931 5.0593 l 4.51954,2.15035 c 2.48575,1.1827 6.92312,2.58719 9.86083,3.12108 2.93771,0.53388 5.61862,1.03606 5.95759,1.11595 0.33895,0.0798 0.61521,-2.05097 0.6139,-4.73527 z m -15.40515,-1.46437 c -2.59353,-1.69499 -4.31411,-3.55996 -4.31411,-4.67615 0,-1.31726 0.41778,-1.61674 1.43803,-1.03085 0.79092,0.45418 3.23275,1.51033 5.42628,2.34696 5.04765,1.92528 5.7752,2.87638 1.66029,2.17046 -2.4147,-0.41425 -2.78651,-0.28324 -1.53985,0.54259 0.9039,0.59876 2.9377,1.16131 4.51954,1.25009 1.58184,0.0888 3.61563,0.60555 4.51954,1.14835 1.18762,0.7132 0.38988,0.99819 -2.87607,1.02748 -3.1273,0.028 -5.84851,-0.82799 -8.83365,-2.77893 z m 5.13584,-3.99035 c -1.80782,-1.16952 -4.09713,-2.16473 -5.08735,-2.21156 -0.99022,-0.0468 -2.05337,-0.6572 -2.36258,-1.35633 -0.39242,-0.88733 0.27527,-1.03425 2.21128,-0.48659 3.55141,1.00464 9.93746,4.14973 10.94971,5.39266 1.40558,1.7259 -2.32634,0.85147 -5.71106,-1.33818 z"
       id="path1" /></g></svg>
