<?xml version="1.0" encoding="UTF-8" standalone="no"?>
<!-- Created with Inkscape (http://www.inkscape.org/) -->

<svg
   width="180mm"
   height="180mm"
   viewBox="0 0 180 180"
   version="1.1"
   id="svg1"
   xml:space="preserve"
   inkscape:version="1.4.2 (f4327f4, 2025-05-13)"
   sodipodi:docname="knives.svg"
   xmlns:inkscape="http://www.inkscape.org/namespaces/inkscape"
   xmlns:sodipodi="http://sodipodi.sourceforge.net/DTD/sodipodi-0.dtd"
   xmlns="http://www.w3.org/2000/svg"
   xmlns:svg="http://www.w3.org/2000/svg"><sodipodi:namedview
     id="namedview1"
     pagecolor="#505050"
     bordercolor="#ffffff"
     borderopacity="1"
     inkscape:showpageshadow="0"
     inkscape:pageopacity="0"
     inkscape:pagecheckerboard="1"
     inkscape:deskcolor="#505050"
     inkscape:document-units="mm"
     inkscape:zoom="1.0960155"
     inkscape:cx="413.31532"
     inkscape:cy="416.05251"
     inkscape:window-width="2560"
     inkscape:window-height="1351"
     inkscape:window-x="-9"
     inkscape:window-y="-9"
     inkscape:window-maximized="1"
     inkscape:current-layer="layer1" /><defs
     id="defs1" /><g
     inkscape:label="Warstwa 1"
     inkscape:groupmode="layer"
     id="layer1"><path
       id="path1"
       style="fill:#000000;stroke-width:2.44799"
       d="M 164.52277 13.083956 C 164.47967 13.082256 164.44197 13.085751 164.41012 13.094291 C 164.05215 13.190311 147.9347 27.362629 128.5937 44.588493 C 109.25268 61.814335 90.780904 78.249862 87.545044 81.111845 L 81.661682 86.315662 L 81.804309 86.415397 L 76.610311 90.932951 L 75.083789 92.260518 L 75.092057 92.268787 C 71.15759 95.342739 62.729275 102.86543 38.373885 124.57276 L 11.479403 148.54287 L 11.479403 151.7649 L 11.479403 154.98692 L 19.3151 160.73334 C 23.624788 163.8938 27.175568 166.49698 27.205058 166.51748 C 27.234598 166.53818 37.097537 157.75933 49.1231 147.00911 L 70.987915 127.46302 L 73.349011 129.02055 L 75.710107 130.57756 L 80.802303 126.13029 C 100.60081 108.84115 145.90686 68.014132 145.90686 67.462032 C 145.90686 67.089906 144.30964 65.662144 142.35772 64.289099 L 138.8091 61.792611 L 152.45736 49.736499 C 159.96398 43.105496 166.1008 37.337158 166.0958 36.91816 C 166.0908 36.499163 164.57438 35.072351 162.7265 33.747294 L 159.3665 31.338139 L 165.69635 25.427389 C 169.17775 22.176663 172.11664 19.176406 172.22721 18.760095 C 172.44525 17.939046 165.85988 13.135219 164.52277 13.083956 z M 80.432817 90.495251 L 84.142151 94.171513 L 66.666215 109.54784 C 56.820992 118.20995 42.648874 130.66014 35.17253 137.21488 L 21.579045 149.1325 L 24.364921 151.19594 C 25.897246 152.33069 27.354712 153.2702 27.603483 153.2816 C 28.075118 153.30515 81.258955 107.2291 89.627604 99.607357 L 92.717338 102.66919 C 86.724195 108.09452 75.27171 118.19745 62.203955 129.55902 L 27.257251 159.94269 L 25.637195 158.62649 C 24.746069 157.9026 24.016622 156.95104 24.016622 156.51189 C 24.016622 156.07273 23.781484 155.71307 23.494173 155.71246 C 23.206861 155.71187 21.103092 154.26479 18.819006 152.49715 L 14.666288 149.28339 L 34.461462 131.86947 C 45.348681 122.29182 60.217743 109.24172 67.50389 102.86917 C 77.409391 94.205692 79.89085 91.970521 79.937756 90.925716 L 80.432817 90.495251 z " /></g></svg>
