<?xml version="1.0" encoding="UTF-8" standalone="no"?>
<!-- Created with Inkscape (http://www.inkscape.org/) -->

<svg
   width="180mm"
   height="180mm"
   viewBox="0 0 180 180"
   version="1.1"
   id="svg1"
   xml:space="preserve"
   inkscape:version="1.4.2 (f4327f4, 2025-05-13)"
   sodipodi:docname="sword.svg"
   xmlns:inkscape="http://www.inkscape.org/namespaces/inkscape"
   xmlns:sodipodi="http://sodipodi.sourceforge.net/DTD/sodipodi-0.dtd"
   xmlns="http://www.w3.org/2000/svg"
   xmlns:svg="http://www.w3.org/2000/svg"><sodipodi:namedview
     id="namedview1"
     pagecolor="#505050"
     bordercolor="#ffffff"
     borderopacity="1"
     inkscape:showpageshadow="0"
     inkscape:pageopacity="0"
     inkscape:pagecheckerboard="1"
     inkscape:deskcolor="#505050"
     inkscape:document-units="mm"
     inkscape:zoom="0.775"
     inkscape:cx="96.774194"
     inkscape:cy="487.74194"
     inkscape:window-width="2560"
     inkscape:window-height="1351"
     inkscape:window-x="-9"
     inkscape:window-y="-9"
     inkscape:window-maximized="1"
     inkscape:current-layer="layer1" /><defs
     id="defs1" /><g
     inkscape:label="Warstwa 1"
     inkscape:groupmode="layer"
     id="layer1"><path
       style="fill:#000000;stroke-width:1.82188"
       d="m 144.73287,165.72972 c -1.46599,-3.29978 -1.57063,-3.40962 -3.5362,-3.712 l -2.02551,-0.3116 v -3.07278 c 0,-3.01261 0.038,-3.10362 1.94503,-4.64869 1.06976,-0.86676 2.12428,-2.05828 2.34339,-2.64783 0.2669,-0.71814 1.1057,-1.27448 2.54166,-1.68577 l 2.1433,-0.61391 -2.13944,-3.60501 c -1.17669,-1.98275 -2.29536,-3.60501 -2.48593,-3.60501 -0.4551,0 0.29618,-5.43485 1.17942,-8.53217 0.39333,-1.37932 1.47266,-3.3395 2.48583,-4.51454 l 1.79067,-2.07679 2.60433,0.47493 c 1.43236,0.26122 3.35494,0.59457 4.27237,0.74081 1.44156,0.22977 1.93495,0.7072 3.6336,3.51608 l 1.96556,3.25021 -1.3565,2.9343 c -0.74607,1.61385 -1.66751,3.11234 -2.04764,3.32996 -0.38014,0.21765 -1.17206,1.21708 -1.75983,2.22102 -0.58776,1.00391 -1.67521,2.41483 -2.41655,3.13537 -2.25416,2.19093 -1.47998,2.76464 3.31749,2.45845 l 4.13562,-0.26395 -1.52396,1.77561 c -1.92441,2.24223 -2.84699,5.40913 -3.26244,11.19882 l -0.32733,4.56199 -4.61193,1.54647 c -2.53655,0.85054 -4.77896,1.54645 -4.98312,1.54645 -0.20414,0 -1.05099,-1.53018 -1.88189,-3.40042 z m 19.68378,1.04188 -1.05588,-1.92192 -2.13706,0.96707 c -1.27656,0.57768 -2.31088,0.78924 -2.56875,0.52542 -0.25789,-0.2638 -0.23847,-2.34807 0.0483,-5.17639 0.551,-5.43585 1.74321,-8.3131 4.62609,-11.16443 1.76629,-1.74696 2.03219,-1.84094 6.57005,-2.32231 4.4411,-0.47111 5.80958,-1.03237 5.1558,-2.11453 -0.15401,-0.25508 -2.02697,-0.34151 -4.28194,-0.19759 l -4.00807,0.25581 0.74627,-1.04459 c 0.41044,-0.5745 0.99566,-1.54669 1.30047,-2.16041 0.30481,-0.6137 0.83392,-1.00601 1.17581,-0.87181 0.34188,0.13415 1.51021,-0.0767 2.59627,-0.46871 2.67728,-0.96634 2.65923,-0.97222 3.75336,1.22181 0.886,1.77663 0.92869,2.35946 0.52297,7.13945 -0.43532,5.12874 -0.78201,6.01468 -2.3607,6.03271 -0.48508,0.006 -0.52021,0.17247 -0.136,0.64613 0.33582,0.41395 0.41788,2.09187 0.23323,4.76861 l -0.28491,4.12995 -4.05234,1.69147 c -2.2288,0.9303 -4.21766,1.75778 -4.4197,1.83882 -0.20204,0.0811 -0.84249,-0.71752 -1.42322,-1.77456 z m -28.48668,-7.86268 c 0.62977,-4.30113 0.69215,-4.35174 0.8998,-0.73007 0.16481,2.87469 0.0756,3.43134 -0.54912,3.43029 -0.63447,-0.001 -0.68685,-0.40435 -0.35068,-2.70022 z m -4.83139,0.98661 c -0.58708,-0.38 -0.59927,-1.09618 -0.085,-4.98994 l 0.6005,-4.54627 -2.6452,-5.11931 c -2.37353,-4.59358 -2.64625,-5.42809 -2.65542,-8.12589 -0.005,-1.65362 0.15978,-3.07972 0.36748,-3.16912 0.20776,-0.0894 0.85351,-1.79794 1.43498,-3.7968 0.92645,-3.1847 0.96817,-3.68529 0.33716,-4.04654 -0.93405,-0.53476 -0.93931,-1.5293 -0.005,-1.16296 0.80956,0.31779 1.90689,-1.15788 2.40649,-3.23627 0.25949,-1.07948 0.45816,-1.2412 0.98024,-0.79795 0.59033,0.50122 2.66242,0.37324 4.95452,-0.306 0.5761,-0.17082 0.68945,0.2366 0.58385,2.0981 -0.0721,1.27047 -0.25181,4.5193 -0.39942,7.21962 l -0.26839,4.9097 -1.62607,0.89584 c -0.89436,0.49273 -1.62609,1.09495 -1.62609,1.33828 0,0.66376 4.87092,9.8352 5.42739,10.21922 0.27894,0.19251 -0.44521,1.3471 -1.71792,2.73902 -2.05762,2.25039 -3.21461,4.81218 -3.23673,7.16681 -0.0263,2.80535 -1.09557,3.83075 -2.82626,2.71046 z m 6.06916,-6.17537 c 0.73046,-1.38699 2.81706,-3.24591 3.41471,-3.04211 0.28943,0.0988 -0.46985,1.03124 -1.68732,2.07233 -1.23742,1.05816 -1.99917,1.4858 -1.72739,0.96978 z m 21.06698,-7.33689 c 0,-0.10982 0.91149,-1.84213 2.02551,-3.84963 2.27336,-4.09663 3.25814,-4.48692 4.74227,-1.87947 0.79413,1.3952 0.80218,1.62447 0.10699,3.04989 -0.41337,0.84771 -1.11061,1.73052 -1.54941,1.96182 -0.85224,0.44922 -5.32543,1.05181 -5.32543,0.71739 z m -17.96537,-10.50396 c -1.25883,-2.52232 -1.70383,-6.4459 -1.02109,-9.00306 0.27455,-1.02835 0.55553,-1.93202 0.62439,-2.00818 0.13348,-0.14761 4.32672,0.72988 5.4507,1.14073 0.517,0.18897 0.39998,0.55044 -0.50893,1.57179 -2.09761,2.35714 -2.77751,3.91212 -3.14153,7.18516 l -0.35707,3.21038 z m 15.96966,-10.47451 c 0.34404,-0.14079 0.7551,-0.12347 0.91347,0.0385 0.15833,0.16197 -0.12303,0.27724 -0.62554,0.25608 -0.55519,-0.0234 -0.66811,-0.13894 -0.28793,-0.29458 z m -4.55739,-0.69996 c -0.8519,-0.25164 -1.54501,-0.6158 -1.54024,-0.80925 0.005,-0.19345 0.64818,-1.31718 1.42977,-2.49719 1.56063,-2.35614 1.74496,-3.31881 0.79249,-4.13899 -0.34574,-0.29771 -1.03574,-1.50558 -1.53332,-2.68413 l -0.90473,-2.14283 2.00992,-1.77089 c 1.10545,-0.97399 2.00991,-2.06263 2.00991,-2.41921 0,-0.35656 0.29708,-0.53169 0.66017,-0.38914 0.3631,0.14263 1.08165,-0.0427 1.59678,-0.41196 0.84239,-0.60362 1.09005,-0.50916 2.46203,0.93892 l 1.52543,1.61007 -0.38182,5.52745 -0.38181,5.52746 -2.14464,1.29391 c -1.38206,0.83383 -2.09486,1.58146 -2.00462,2.10258 0.15924,0.91921 -1.06985,1.00917 -3.59532,0.2632 z m -24.18689,-2.06323 c -0.26212,-0.36952 -4.17611,-1.73031 -8.69776,-3.024 -4.52163,-1.29368 -8.22115,-2.51518 -8.22115,-2.71445 0,-0.19926 0.6434,-2.14742 1.42976,-4.32926 0.78637,-2.18182 1.42977,-4.23558 1.42977,-4.56389 0,-0.32832 -0.96459,-0.86087 -2.14352,-1.18346 l -2.14351,-0.58648 0.94074,-2.53278 c 0.5174,-1.39303 0.89221,-2.56435 0.83289,-2.60296 -0.0593,-0.0385 -1.93079,-0.58167 -4.15885,-1.206816 -2.22804,-0.625143 -4.12809,-1.197419 -4.2223,-1.271736 -0.0942,-0.07426 0.4961,-1.922955 1.31177,-4.10813 0.81566,-2.185155 1.37766,-4.147452 1.24886,-4.360618 -0.12879,-0.213185 -0.99843,-0.53428 -1.93252,-0.713558 -2.08803,-0.400718 -2.36162,-1.036089 -1.42919,-3.319038 0.39907,-0.977067 0.56663,-1.868982 0.37238,-1.982033 -0.19425,-0.113143 -2.229753,-0.706537 -4.523346,-1.318818 -2.598168,-0.693601 -4.170147,-1.356907 -4.170147,-1.759616 0,-0.35548 0.520589,-2.061251 1.156873,-3.790591 l 1.156873,-3.144238 -2.299804,-0.602994 -2.299804,-0.602976 0.671427,-1.946818 c 0.369299,-1.070769 0.615534,-1.999262 0.547194,-2.063352 -0.06827,-0.06413 -1.732725,-0.590334 -3.698644,-1.169428 -1.965937,-0.579095 -3.831524,-1.13943 -4.14574,-1.245202 -0.403271,-0.135809 -0.164277,-1.333099 0.812162,-4.070372 l 1.383493,-3.878083 -3.324122,-0.341512 -3.324139,-0.341512 0.312721,-2.509143 c 0.172022,-1.380052 0.391382,-2.601059 0.487498,-2.713373 0.09619,-0.112406 -0.180632,-0.605979 -0.615011,-1.097009 -0.528838,-0.597798 -1.457129,-0.892781 -2.809585,-0.892781 -2.20014,0 -2.598367,-0.462929 -2.598367,-3.020499 v -1.478085 l -4.953345,0.18759 -4.953344,0.18757 -0.317854,-3.299947 c -0.364868,-3.787975 -0.85143,-4.277918 -4.248431,-4.277918 -1.984995,0 -2.15554,-0.09969 -2.295139,-1.340765 -0.143022,-1.271681 -0.457796,-1.431667 -6.108164,-3.104453 -5.055514,-1.496678 -6.977715,-1.814419 -12.697487,-2.098898 l -6.740126,-0.335229 -9.602002,2.968922 c -5.281088,1.632891 -9.798198,2.844869 -10.038002,2.693249 -0.239805,-0.151656 -1.490056,0.49901 -2.778369,1.445856 -1.2882936,0.946846 -2.5648426,1.721527 -2.8367821,1.721527 -0.2719395,0 -1.3663442,-1.065352 -2.4320184,-2.367475 L 2.8929838,36.168553 6.1648859,33.860727 C 8.4491254,32.249542 9.5189064,31.161286 9.7087974,30.255661 9.9459184,29.124653 11.49439,28.16887 21.793721,22.79632 c 9.210278,-4.804476 11.84631,-6.387448 11.964384,-7.184758 0.145723,-0.98383 0.344621,-1.01289 5.242486,-0.766057 2.800074,0.141153 5.765002,0.339909 6.588728,0.441737 1.415321,0.175059 1.530801,0.06413 2.099592,-2.014058 0.331039,-1.209564 0.836641,-2.288054 1.123549,-2.396627 0.286908,-0.108536 5.025414,1.114663 10.530023,2.718329 l 10.008371,2.915722 1.429767,-1.615423 1.429768,-1.615423 8.502229,4.8281 c 7.615081,4.324336 8.584783,4.753635 9.293479,4.114376 0.715163,-0.645064 1.912511,0.353803 12.447323,10.38389 6.41084,6.103687 11.75376,11.400022 11.87319,11.769599 0.11942,0.369595 2.97026,4.370661 6.33518,8.891284 3.36494,4.520604 6.11625,8.579496 6.11405,9.019741 -0.002,0.466153 -1.04665,1.365089 -2.50048,2.15241 -2.18528,1.183434 -2.56265,1.259409 -3.02722,0.609444 -0.29192,-0.408384 -1.2041,-0.742525 -2.02711,-0.742525 -0.98516,0 -1.49638,-0.240015 -1.49638,-0.702557 0,-1.345722 -1.10371,-1.410548 -2.18198,-0.128069 -0.96183,1.143926 -1.45855,1.290551 -4.80697,1.418915 l -3.73429,0.14318 -0.14861,2.113639 c -0.12789,1.81956 -0.0285,2.090219 0.71488,1.945234 0.47487,-0.09269 0.93194,-0.659805 1.0157,-1.260423 0.13672,-0.980752 0.42118,-1.092015 2.79139,-1.092015 2.3336,0 2.59716,0.09877 2.27702,0.853217 -0.94317,2.222747 -2.09332,5.815117 -2.10732,6.581984 -0.009,0.527977 0.34077,0.853218 0.91916,0.853218 0.70553,0 1.10278,-0.57891 1.62009,-2.360989 1.16831,-4.024635 2.57465,-6.414978 3.77421,-6.414978 0.58693,0 1.34021,0.447303 1.67395,0.99402 0.33745,0.55278 0.84741,0.841922 1.14882,0.651347 0.34851,-0.220334 0.44144,-0.07463 0.2603,0.408255 -0.15977,0.425798 0.50503,2.059593 1.53534,3.773528 0.99937,1.662412 1.90131,2.763881 2.00434,2.447707 0.13726,-0.421283 0.66922,-0.368913 1.99078,0.195973 1.54799,0.661667 1.78194,0.961754 1.65161,2.118376 -0.0935,0.828912 -0.48002,1.411212 -1.00461,1.513023 -0.69554,0.135071 -0.79712,-0.06136 -0.55086,-1.065112 0.59155,-2.411221 -1.06811,-2.835766 -2.09268,-0.53533 -0.48173,1.081586 -0.72572,1.159773 -2.80496,0.898899 -1.25252,-0.157184 -3.09793,-0.495877 -4.1009,-0.752716 -1.3006,-0.333053 -2.01818,-0.301764 -2.50209,0.10909 -0.89408,0.759091 -0.87458,4.071237 0.0285,4.837939 0.58652,0.497977 0.78954,0.378108 1.19148,-0.703367 0.26646,-0.716985 0.48447,-1.473939 0.48447,-1.68213 0,-0.20819 1.01871,-0.206974 2.26381,0.0018 1.24509,0.209665 2.53187,0.394269 2.85954,0.410264 0.93104,0.04551 0.72328,0.712267 -1.07234,3.441929 -1.85903,2.826074 -2.0838,3.900436 -0.81596,3.900436 0.52815,0 1.64541,-1.251153 2.93881,-3.290992 1.14768,-1.810033 2.13862,-3.362287 2.20204,-3.449448 0.0634,-0.08716 1.07465,-0.01106 2.24714,0.168609 1.79436,0.275285 2.09404,0.47463 1.89338,1.259575 -0.14716,0.575446 0.63457,2.399022 2.04134,4.76224 1.76709,2.968571 2.47638,3.777066 3.15446,3.595668 0.48112,-0.128806 0.87475,-0.1113 0.87475,0.0387 0,0.506122 -1.99773,3.741372 -2.31086,3.742385 -0.17076,5.34e-4 -2.21136,-0.35594 -4.53478,-0.792186 -4.72653,-0.887456 -5.18542,-0.701672 -4.95495,2.00608 0.15437,1.814197 1.71797,2.350024 2.13193,0.730621 0.22977,-0.898862 0.50277,-1.017312 1.75344,-0.760768 0.8147,0.167135 2.2576,0.431178 3.20644,0.586815 l 1.72516,0.282987 -1.17017,2.141815 c -0.6436,1.178015 -1.3732,2.141831 -1.62137,2.141831 -0.24816,0 -0.63405,0.49365 -0.85755,1.09699 -0.45664,1.23279 0.23417,2.50172 1.07317,1.97126 0.80216,-0.50718 2.69201,-0.23956 5.20237,0.7367 l 2.26403,0.88045 -1.23028,1.67962 c -0.67667,0.9238 -1.6809,2.66692 -2.23166,3.87361 -0.55076,1.20669 -1.58623,2.89195 -2.30103,3.745 -0.71482,0.85306 -1.64799,2.82764 -2.07372,4.38799 -1.17125,4.29256 -1.36649,4.68477 -1.93388,3.88494 z m 15.07934,0.0794 -2.07788,-0.47463 1.26486,-1.35061 c 0.84797,-0.90546 2.16112,-1.55316 3.98423,-1.96519 1.49566,-0.33803 2.98492,-0.83429 3.30946,-1.1028 1.07322,-0.88786 1.28646,1.03512 0.24465,2.20609 -0.52466,0.58971 -1.20273,1.56584 -1.50682,2.1692 -0.60949,1.2092 -1.71279,1.31871 -5.2185,0.51794 z m -11.02833,-4.14996 c 0,-1.38455 4.10343,-5.99718 5.33513,-5.99718 0.53763,0 1.40658,-1.00456 2.35319,-2.72049 1.26272,-2.28886 1.66034,-2.67042 2.50618,-2.40484 2.91363,0.91476 4.07034,1.08192 4.22395,0.61043 0.0899,-0.27605 0.43961,0.44068 0.77702,1.59273 l 0.61346,2.09466 -2.06625,2.11095 c -1.74346,1.78119 -2.58741,2.23094 -5.40236,2.87901 -1.83488,0.42243 -4.46209,1.05546 -5.83823,1.40672 -1.37614,0.35126 -2.50209,0.54386 -2.50209,0.42801 z m 17.16283,-10.12626 c -0.41519,-1.11717 -0.35541,-1.4693 0.34124,-2.01005 1.03154,-0.8007 1.41159,-0.83834 1.80976,-0.17929 0.1686,0.27906 0.77104,0.3641 1.33875,0.18899 0.60356,-0.18619 0.8343,-0.14226 0.55564,0.10577 -0.26212,0.23334 -1.16631,1.05978 -2.00931,1.83657 l -1.53271,1.41234 z m -4.89531,-2.49048 c -1.09878,-0.60974 -1.26424,-0.94759 -1.00527,-2.05257 0.44225,-1.88708 0.65247,-1.9573 0.65247,-0.21794 0,1.08285 0.27011,1.59876 0.95319,1.82055 0.52424,0.17027 0.95317,0.5141 0.95317,0.76418 0,0.56221 0.0405,0.57043 -1.55356,-0.31422 z m -8.9314,-4.00611 c -1.17955,-0.44156 -2.24544,-0.87591 -2.36865,-0.96522 -0.12321,-0.0894 0.287,-1.14778 0.91154,-2.352128 0.74941,-1.445155 1.36552,-2.099451 1.81189,-1.924208 0.372,0.146128 1.17174,0.265518 1.77718,0.265518 0.74975,0 1.18818,0.355977 1.37469,1.116211 0.15058,0.61394 0.67209,1.545344 1.15881,2.069797 0.86376,0.93073 0.85949,0.97407 -0.17814,1.8091 -1.273,1.02437 -1.70463,1.02254 -4.48725,-0.0192 z m 1.23464,-7.34237 c -0.3155,-0.522228 0.74953,-3.484313 1.25279,-3.484313 0.20466,0 0.37211,0.877597 0.37211,1.950209 0,1.372994 -0.20326,1.950209 -0.68676,1.950209 -0.37771,0 -0.79988,-0.187239 -0.93814,-0.416105 z"
       id="path2" /></g></svg>
