<?xml version="1.0" encoding="UTF-8" standalone="no"?>
<!-- Created with Inkscape (http://www.inkscape.org/) -->

<svg
   width="180mm"
   height="180mm"
   viewBox="0 0 180 180"
   version="1.1"
   id="svg1"
   xml:space="preserve"
   inkscape:version="1.4.2 (f4327f4, 2025-05-13)"
   sodipodi:docname="tool_spear.svg"
   xmlns:inkscape="http://www.inkscape.org/namespaces/inkscape"
   xmlns:sodipodi="http://sodipodi.sourceforge.net/DTD/sodipodi-0.dtd"
   xmlns="http://www.w3.org/2000/svg"
   xmlns:svg="http://www.w3.org/2000/svg"><sodipodi:namedview
     id="namedview1"
     pagecolor="#505050"
     bordercolor="#ffffff"
     borderopacity="1"
     inkscape:showpageshadow="0"
     inkscape:pageopacity="0"
     inkscape:pagecheckerboard="1"
     inkscape:deskcolor="#505050"
     inkscape:document-units="mm"
     inkscape:zoom="0.54800776"
     inkscape:cx="357.65917"
     inkscape:cy="629.55313"
     inkscape:window-width="2560"
     inkscape:window-height="1351"
     inkscape:window-x="-9"
     inkscape:window-y="-9"
     inkscape:window-maximized="1"
     inkscape:current-layer="layer1" /><defs
     id="defs1" /><g
     inkscape:label="Warstwa 1"
     inkscape:groupmode="layer"
     id="layer1"><path
       style="fill:#000000;stroke-width:0.963799"
       d="m 150.46201,171.28167 c -3.03683,-3.35601 -6.11372,-6.68351 -6.83752,-7.39445 -1.24714,-1.22497 -7.39271,-7.94131 -34.09034,-37.25639 -6.33744,-6.95877 -12.13421,-13.22203 -12.881707,-13.91835 -0.747497,-0.69633 -5.984438,-6.3539 -11.637646,-12.57239 C 79.361599,93.9216 74.006211,88.097749 73.113944,87.198209 72.221687,86.298668 66.406729,79.970962 60.191826,73.136624 L 48.892002,60.710569 47.774985,61.352798 c -0.614365,0.353232 -1.204414,0.545323 -1.311223,0.426884 -0.106809,-0.11844 -0.684697,-0.838206 -1.284191,-1.599469 -0.971218,-1.233288 -1.181943,-1.376303 -1.933817,-1.312433 -0.840794,0.07139 -0.851481,0.05771 -2.976145,-3.806666 -1.172772,-2.133087 -2.758908,-4.65717 -3.524739,-5.609088 -0.765842,-0.951908 -2.083772,-2.635345 -2.92874,-3.740959 l -1.536303,-2.010207 -0.905274,0.551639 -0.905263,0.55163 0.305148,-0.562166 c 0.256792,-0.473098 0.200553,-0.759378 -0.354971,-1.806881 -0.363067,-0.684597 -0.66012,-1.588655 -0.66012,-2.009011 0,-0.640441 0.101062,-0.764287 0.623692,-0.764287 0.947612,0 1.430824,-0.645694 1.430824,-1.911942 0,-0.997098 0.124504,-1.23146 1.167423,-2.197484 0.704391,-0.65246 2.512375,-1.748753 4.558447,-2.764063 l 3.391034,-1.682709 0.522328,0.631358 c 0.750195,0.906757 1.701361,0.722523 2.069639,-0.400891 0.176297,-0.537801 0.332773,-0.722137 0.420859,-0.495813 0.08464,0.217371 1.946115,0.858213 4.693326,1.615705 2.504212,0.690492 4.612104,1.40421 4.684193,1.586051 0.131317,0.33124 -0.964531,3.343321 -1.214489,3.338163 -0.07309,-0.0019 -0.703701,-0.173467 -1.401414,-0.382143 -1.557891,-0.465949 -2.455244,-1.023474 -2.455244,-1.525444 0,-0.208666 -0.288909,-0.509196 -0.642037,-0.66783 -0.353117,-0.158634 -0.643803,-0.469537 -0.645968,-0.690893 -0.0087,-0.906164 -0.446551,-1.131539 -2.317723,-1.1934 -2.137827,-0.07072 -2.797519,0.128957 -4.218861,1.276746 -0.569521,0.459919 -1.786679,1.206501 -2.704784,1.659061 -2.168324,1.068836 -3.338591,1.94804 -3.338591,2.508235 0,0.247167 -0.288909,0.717001 -0.642037,1.044087 -0.949854,0.879817 -0.853917,2.018515 0.321019,3.810208 0.529686,0.807725 1.425321,2.282562 1.990309,3.277412 0.564997,0.994859 1.455605,2.195168 1.979127,2.667366 0.898032,0.809974 1.027768,0.849662 2.293885,0.701813 1.915288,-0.223653 8.518147,-3.40744 11.135837,-5.369529 1.129985,-0.846973 2.156074,-1.540488 2.280208,-1.541149 0.461062,-0.0029 11.202539,10.447066 11.202539,10.898057 0,0.253358 -0.346699,0.704052 -0.770442,1.001548 -0.423744,0.297496 -0.770443,0.645493 -0.770443,0.773331 0,0.275924 24.755122,27.509477 26.341442,28.978687 0.601455,0.557055 5.739187,6.140304 11.417175,12.407222 5.67799,6.266916 10.93549,11.964106 11.68332,12.660436 0.74785,0.69632 6.54201,6.95893 12.87593,13.9169 20.99766,23.0665 25.85086,28.36056 26.81892,29.25517 0.72142,0.66669 19.75719,21.52102 22.01495,24.11813 0.3659,0.4209 -0.09,0.44251 -9.09251,0.43121 l -9.47772,-0.0119 z M 46.967134,54.345616 c 0.151856,-0.279782 0.250269,-0.940472 0.218694,-1.468206 -0.07794,-1.302451 0.08668,-1.478196 1.431145,-1.528343 1.623126,-0.06048 3.541201,-0.812712 3.90449,-1.531167 0.164814,-0.325938 0.744624,-0.793648 1.288461,-1.03936 1.595281,-0.720752 2.222921,-1.450251 2.036873,-2.36744 -0.184229,-0.908211 -1.334043,-2.19156 -1.963522,-2.19156 -0.238776,0 -0.566181,0.156873 -0.727569,0.3486 -0.161388,0.191737 -1.186739,0.875424 -2.278568,1.519319 -4.88496,2.880866 -5.565822,3.374118 -6.03496,4.372116 -0.524269,1.11525 -0.430739,2.851724 0.205135,3.808561 0.487841,0.734093 1.540351,0.776565 1.919821,0.07752 z m -7.140669,-7.138217 c -0.169503,-0.167113 -0.308177,-0.430654 -0.308177,-0.585651 0,-0.154988 -0.35702,-0.616458 -0.793369,-1.025493 -0.436359,-0.409035 -0.964803,-1.0674 -1.174334,-1.463037 -0.343499,-0.648604 -0.337888,-0.766277 0.05707,-1.196539 0.240893,-0.26245 1.607199,-1.064577 3.036238,-1.782506 1.429028,-0.717929 3.44669,-1.821495 4.483688,-2.452375 1.522977,-0.926528 1.929547,-1.078377 2.114783,-0.789858 0.126135,0.196455 0.231109,0.430329 0.233273,0.519714 0.0019,0.08939 0.538733,0.749003 1.192388,1.465822 0.653656,0.71681 1.144807,1.33208 1.091461,1.36726 -1.025118,0.676031 -2.378078,1.474627 -3.191131,1.883595 -0.943206,0.474437 -2.904716,1.82226 -5.301469,3.642827 -1.09249,0.829851 -1.037115,0.81385 -1.440386,0.416241 z m -12.85331,-9.498134 c -0.04378,-0.917877 -1.101254,-2.307588 -4.705158,-6.183255 -2.053459,-2.208301 -2.267581,-2.533186 -2.267581,-3.440464 0,-0.946774 -0.296316,-1.327997 -5.386613,-6.930144 -5.2283218,-5.75406 -5.3867878,-5.960224 -5.3930978,-7.01617 -0.0058,-0.946535 0.09338,-1.143969 0.762328,-1.519252 C 10.405881,12.382743 10.752583,12.120333 10.753476,12.036846 10.754369,11.953356 9.5416562,10.564368 8.0585532,8.9502003 5.7060516,6.3897973 5.3619999,5.9013366 5.3619999,5.1217397 c 0,-0.8081521 0.1373353,-0.9802272 1.4360465,-1.7993409 C 7.9976072,2.5658267 8.2990572,2.46983 8.6285882,2.739476 c 0.216976,0.1775443 3.1686028,3.3732463 6.5591808,7.1015623 3.390568,3.7283147 6.223272,6.7787547 6.294896,6.7787547 0.07163,0 0.693694,-0.341832 1.38236,-0.759626 0.688666,-0.417795 1.343496,-0.759626 1.455178,-0.759626 0.111681,0 2.15124,2.15427 4.532356,4.787267 3.774765,4.174052 4.388149,4.751041 4.788614,4.504455 0.390361,-0.24036 0.727269,-0.02775 2.244392,1.416345 0.981799,0.934537 1.940778,1.698865 2.131071,1.698507 0.190293,-3.58e-4 1.027098,-0.405583 1.859554,-0.900502 0.91168,-0.54201 1.606714,-0.808019 1.747786,-0.668924 0.141072,0.139093 -0.103373,0.362749 -0.614723,0.562423 -0.466915,0.182324 -2.062379,1.016575 -3.545482,1.853891 -1.483103,0.837315 -4.050387,2.188216 -5.705088,3.002004 -3.813513,1.875489 -4.347926,2.485888 -4.582073,5.233538 -0.09056,1.063036 -0.18214,1.566911 -0.203455,1.11972 z"
       id="path1" /></g></svg>
