<?xml version="1.0" encoding="UTF-8" standalone="no"?>
<!-- Created with Inkscape (http://www.inkscape.org/) -->

<svg
   width="180mm"
   height="180mm"
   viewBox="0 0 180 180"
   version="1.1"
   id="svg1"
   xml:space="preserve"
   inkscape:version="1.4.2 (f4327f4, 2025-05-13)"
   sodipodi:docname="scythes.svg"
   xmlns:inkscape="http://www.inkscape.org/namespaces/inkscape"
   xmlns:sodipodi="http://sodipodi.sourceforge.net/DTD/sodipodi-0.dtd"
   xmlns="http://www.w3.org/2000/svg"
   xmlns:svg="http://www.w3.org/2000/svg"><sodipodi:namedview
     id="namedview1"
     pagecolor="#505050"
     bordercolor="#ffffff"
     borderopacity="1"
     inkscape:showpageshadow="0"
     inkscape:pageopacity="0"
     inkscape:pagecheckerboard="1"
     inkscape:deskcolor="#505050"
     inkscape:document-units="mm"
     inkscape:zoom="1.0960155"
     inkscape:cx="276.45594"
     inkscape:cy="422.43928"
     inkscape:window-width="2560"
     inkscape:window-height="1351"
     inkscape:window-x="-9"
     inkscape:window-y="-9"
     inkscape:window-maximized="1"
     inkscape:current-layer="layer1" /><defs
     id="defs1" /><g
     inkscape:label="Warstwa 1"
     inkscape:groupmode="layer"
     id="layer1"><path
       style="fill:#000000;stroke-width:2.18768"
       d="m 26.733037,172.78704 c -0.628282,-0.74795 -0.255402,-1.1359 2.60355,-2.70919 l 3.336811,-1.83624 -0.728862,-2.4722 -0.728885,-2.4722 2.612056,0.24879 c 2.241568,0.21349 2.476261,0.35439 1.654549,0.99323 -0.880662,0.68468 -0.853585,0.8465 0.33718,2.01564 1.527824,1.50002 1.408724,1.64061 -4.237138,5.00101 -3.983949,2.37124 -3.907846,2.35191 -4.849311,1.23116 z m -11.63578,0.65545 c -0.487198,-0.59445 -1.687947,-1.96908 -2.668326,-3.05474 l -1.782479,-1.97393 2.104824,-1.40862 c 1.319751,-0.88324 2.070459,-1.83157 2.01268,-2.54255 -0.08062,-0.99265 -0.02162,-1.02381 0.473017,-0.25011 0.524698,0.8206 0.724395,0.76806 2.791314,-0.73429 2.807776,-2.04082 3.281646,-2.08589 3.982524,-0.37877 0.312393,0.76086 1.110082,2.61452 1.772692,4.11928 0.662613,1.50477 1.149912,2.78359 1.082881,2.84185 -0.80934,0.7034 -7.414762,4.28471 -8.043286,4.36086 -0.462011,0.056 -1.238648,-0.38457 -1.725848,-0.97904 z m 10.913317,-7.39515 c -0.54916,-1.31304 -1.241446,-2.77374 -1.538438,-3.24605 -0.407208,-0.64757 -0.218262,-0.89767 0.768083,-1.01719 1.420373,-0.1721 2.303418,1.5884 2.433991,4.85255 0.09627,2.40494 -0.499637,2.19388 -1.663636,-0.58931 z m -9.717681,-3.28515 c 0.592216,-0.75473 -0.254601,-1.96061 -5.271616,-7.50408 l -5.9772485,-6.60486 1.321166,-1.13965 c 1.494287,-1.28901 6.7048665,-4.32144 7.6149575,-4.43171 0.329237,-0.0399 3.206292,2.82679 6.393451,6.37041 3.750179,4.16962 6.074975,6.31597 6.58879,6.08309 0.43665,-0.19801 0.81813,-0.16038 0.84768,0.0835 0.02955,0.24385 -0.538049,0.64734 -1.261343,0.89661 -1.020101,0.35157 -1.210382,0.74047 -0.848279,1.73386 0.443957,1.21792 0.334644,1.29187 -2.232403,1.51034 -2.036086,0.17328 -3.335698,0.68075 -5.289981,2.06568 -1.424935,1.00978 -2.273269,1.43133 -1.885181,0.93675 z m 15.093989,-1.89522 c -0.67433,-0.30087 -1.158533,-1.00374 -1.087766,-1.57896 0.11371,-0.92502 0.272883,-0.89613 1.477283,0.26846 1.552986,1.50164 1.375696,2.09814 -0.389517,1.3105 z m 6.874082,-1.33859 c -1.880868,-3.33713 -3.88265,-7.39262 -3.715156,-7.52658 0.114892,-0.092 5.202852,-3.57894 11.306339,-7.74881 8.528763,-5.82682 10.985336,-7.76483 10.613703,-8.37322 -0.394459,-0.64576 -0.296942,-0.6976 0.529791,-0.28136 0.809225,0.40751 1.515313,0.19796 3.505328,-1.04028 l 2.491965,-1.55054 1.332388,2.6813 c 2.806109,5.64707 2.845751,5.35736 -1.066457,7.79155 -1.925782,1.19825 -8.261917,5.43446 -14.080283,9.4138 -6.524059,4.46201 -10.708707,7.00484 -10.917618,6.63414 z m -5.376285,-2.28655 c -1.284048,-1.60766 -1.723683,-2.57504 -1.299279,-2.85906 0.352805,-0.23616 0.88713,-0.25399 1.187386,-0.0397 0.660311,0.47112 2.578219,4.7792 2.270734,5.10062 -0.119835,0.12548 -1.091429,-0.8654 -2.158829,-2.20177 z M 72.2995,143.15092 70.154142,141.62721 71.57322,140.8916 c 0.780484,-0.4046 1.83387,-0.7859 2.340891,-0.84734 1.648346,-0.19973 3.217675,-2.41623 2.997462,-4.23362 -0.174312,-1.43857 0.0223,-1.75374 1.158357,-1.85658 2.112613,-0.19131 1.959107,-1.31861 -0.284467,-2.08862 -1.650965,-0.56666 -2.171172,-1.16104 -2.846151,-3.25201 -0.6371,-1.97355 -1.19486,-2.65977 -2.439225,-3.00097 -1.618506,-0.44377 -3.451525,-2.10407 -3.638566,-3.29569 -0.08819,-0.56709 5.51294,-4.48972 6.621313,-4.6365 0.241687,-0.0313 1.214617,0.77541 2.162256,1.7943 l 1.722968,1.85247 31.192102,-21.394177 c 18.46465,-12.66463 31.12517,-21.691704 31.0281,-22.123341 -0.10185,-0.453229 0.26726,-0.689917 0.97559,-0.625477 0.62678,0.05698 2.0114,-0.397402 3.07687,-1.01004 1.87139,-1.075871 1.99419,-1.079913 3.61171,-0.119133 2.39225,1.420933 5.52943,5.011845 5.21525,5.969563 -0.27072,0.825255 -4.01694,2.895424 -5.84139,3.227962 -1.8257,0.332791 -63.014004,42.510533 -62.614202,43.160623 0.207855,0.33788 0.572329,0.91048 0.810109,1.27243 0.285509,0.43458 -0.900476,1.43763 -3.491471,2.95304 l -3.923776,2.29494 1.916649,1.73502 1.916625,1.73503 -1.659544,1.82498 c -1.556961,1.71215 -5.50857,4.34246 -6.63134,4.414 -0.277497,0.0177 -1.469975,-0.65351 -2.649938,-1.49153 z m -4.082201,-4.71154 c -0.08138,-0.67162 -0.697278,-1.91877 -1.368641,-2.77146 -1.978107,-2.51231 -0.896313,-2.2919 1.282299,0.26129 2.280021,2.67201 2.53597,3.45239 1.185977,3.61597 -0.575531,0.0697 -1.010153,-0.36732 -1.099635,-1.1058 z m 0.933587,-4.69069 c -1.001259,-1.17446 -1.341254,-1.93881 -0.884785,-1.98914 1.609805,-0.17703 2.527221,0.63922 2.519203,2.24254 l -0.0083,1.65402 z M 49.90294,124.04094 c -11.609957,-9.75882 -11.375684,-9.20774 -5.528589,-13.005 1.765475,-1.14654 3.351816,-2.10919 3.525213,-2.13922 0.173367,-0.0311 4.835656,3.77986 10.360557,8.46642 5.5249,4.68655 10.482539,8.48014 11.016938,8.43019 0.745744,-0.0698 0.974051,0.39911 0.981866,2.01643 0.0096,1.98042 -0.09266,2.09876 -1.698583,1.96605 -2.963741,-0.24493 -4.990617,0.22162 -6.748466,1.55339 l -1.703139,1.29031 z m 106.29433,-45.858209 -0.39112,-3.244485 1.78072,1.368437 c 3.30709,2.541422 3.36918,2.770546 1.08376,3.999692 l -2.08457,1.121142 z m -4.43815,-3.05051 c -1.85953,-1.675907 -1.92842,-1.846247 -0.80191,-1.982746 1.67614,-0.203098 2.93967,0.88853 2.88302,2.490758 -0.0451,1.280236 -0.11617,1.26294 -2.08111,-0.508012 z m 6.64413,-0.976313 c -1.25141,-1.122398 -3.50996,-2.375396 -5.02037,-2.785206 l -2.74559,-0.744956 2.43237,-1.382728 c 2.11038,-1.199693 2.88076,-1.367605 5.81944,-1.268412 1.86288,0.0629 3.51639,0.196585 3.67449,0.297119 0.44004,0.279827 -0.94187,7.810105 -1.44446,7.871004 -0.24262,0.0294 -1.46477,-0.864665 -2.71588,-1.986821 z m 6.38247,-1.89216 c 0.25947,-1.654404 0.5975,-3.139441 0.75119,-3.300109 0.35157,-0.367483 7.5363,0.895825 8.03366,1.41256 0.34114,0.354441 -4.87266,3.246039 -7.92083,4.39293 -1.3223,0.497542 -1.33103,0.472254 -0.86402,-2.505381 z M 147.6478,71.407052 c -0.0367,-0.303131 0.23625,-0.440989 0.60663,-0.306382 0.3704,0.134545 0.68596,0.348047 0.70125,0.474267 0.0153,0.12628 -0.25768,0.264099 -0.60666,0.306385 -0.34895,0.04228 -0.66449,-0.17114 -0.70122,-0.47427 z m 22.1992,-4.07452 c -2.26743,-0.449572 -4.154,-1.089847 -4.19239,-1.422835 -0.17933,-1.563175 0.85891,-4.650043 1.55618,-4.623362 0.42934,0.01643 2.06441,1.418886 3.63346,3.116619 1.56907,1.69771 3.20189,3.219047 3.62851,3.38073 1.47117,0.557607 -0.51498,0.363874 -4.62576,-0.451152 z m -27.87359,1.249329 c -1.12634,-0.716247 -1.07576,-0.884959 0.8984,-2.997592 1.92275,-2.057587 2.01637,-2.342782 1.15767,-3.526456 -0.84163,-1.160155 -1.03294,-1.198826 -1.92969,-0.390222 -1.86584,1.682497 -2.42029,1.804047 -3.32369,0.728614 -0.77738,-0.925425 -0.69381,-1.227902 0.65237,-2.361321 l 1.54395,-1.299947 -3.95505,-3.986163 c -2.17528,-2.192396 -3.76694,-4.246581 -3.53706,-4.564873 0.23026,-0.318815 -2.80142,-3.390257 -6.75049,-6.839042 -3.94267,-3.443174 -7.5647,-6.806387 -8.04901,-7.473794 -0.48428,-0.66741 -4.0649,-3.52155 -7.9569,-6.34253 -3.89201,-2.82096 -7.0376,-5.327006 -6.99022,-5.568955 0.0473,-0.241945 -2.99286,-2.022017 -6.756091,-3.955698 -3.763219,-1.933677 -6.879565,-3.823919 -6.9252,-4.200536 -0.04564,-0.376618 -3.17223,-1.67408 -6.948006,-2.883243 -3.775779,-1.209164 -6.964267,-2.240259 -7.085518,-2.291324 -0.525639,-0.221338 0.134855,-4.985316 0.70067,-5.053876 0.344605,-0.04176 4.057606,1.038505 8.251091,2.400581 4.193522,1.362072 7.763634,2.236449 7.933617,1.943061 0.640084,-1.10477 2.08887,-0.626134 8.940877,2.953814 3.87368,2.023868 7.38965,3.522671 7.81328,3.330671 0.43554,-0.197394 4.12219,2.081612 8.48383,5.244497 4.6804,3.394039 8.09044,5.482604 8.67195,5.311371 0.62745,-0.184802 3.91223,2.334934 9.51296,7.297266 4.70503,4.168699 8.7286,7.463019 8.94125,7.320694 0.21269,-0.142329 1.19582,0.581912 2.1848,1.609431 0.98895,1.027503 2.13154,1.717074 2.53907,1.532375 0.43848,-0.198628 3.59223,2.592575 7.72536,6.837495 5.62072,5.77276 6.81143,7.279588 6.09854,7.717598 -0.48725,0.299361 -0.70392,0.733327 -0.48152,0.964403 0.22241,0.231074 -0.21466,0.757788 -0.97124,1.170495 -1.16383,0.634856 -1.23334,0.627053 -0.45152,-0.05087 0.83953,-0.727906 0.80945,-0.87786 -0.32907,-1.639535 -1.36486,-0.913038 -3.1979,-0.44578 -3.04969,0.777362 0.0506,0.417883 0.48644,1.026023 0.96847,1.351417 0.48204,0.325374 0.91896,0.942898 0.97099,1.372248 0.0575,0.474846 0.65184,0.696704 1.51713,0.566349 1.49311,-0.225031 1.86197,0.369089 1.06299,1.711929 -0.4004,0.673 -0.95001,0.750334 -3.45369,0.486136 -1.63762,-0.172857 -3.69271,-0.111631 -4.56685,0.136074 -0.9914,0.280993 -1.81358,0.194408 -2.18538,-0.230128 -0.49045,-0.559984 -0.88493,-0.530706 -2.22772,0.165351 -1.40592,0.728815 -1.7638,0.729567 -2.58581,0.0054 -0.889,-0.783068 -1.05866,-0.696527 -2.48697,1.268696 -1.75184,2.410361 -1.94395,2.488464 -3.57281,1.452697 z"
       id="path1" /></g></svg>
