<?xml version="1.0" encoding="UTF-8" standalone="no"?>
<!-- Created with Inkscape (http://www.inkscape.org/) -->

<svg
   width="180mm"
   height="180mm"
   viewBox="0 0 180 180"
   version="1.1"
   id="svg1"
   xml:space="preserve"
   inkscape:version="1.4.2 (f4327f4, 2025-05-13)"
   sodipodi:docname="pickaxe_geologic.svg"
   xmlns:inkscape="http://www.inkscape.org/namespaces/inkscape"
   xmlns:sodipodi="http://sodipodi.sourceforge.net/DTD/sodipodi-0.dtd"
   xmlns="http://www.w3.org/2000/svg"
   xmlns:svg="http://www.w3.org/2000/svg"><sodipodi:namedview
     id="namedview1"
     pagecolor="#505050"
     bordercolor="#ffffff"
     borderopacity="1"
     inkscape:showpageshadow="0"
     inkscape:pageopacity="0"
     inkscape:pagecheckerboard="1"
     inkscape:deskcolor="#505050"
     inkscape:document-units="mm"
     inkscape:zoom="0.775"
     inkscape:cx="96.774194"
     inkscape:cy="487.74194"
     inkscape:window-width="2560"
     inkscape:window-height="1351"
     inkscape:window-x="-9"
     inkscape:window-y="-9"
     inkscape:window-maximized="1"
     inkscape:current-layer="layer1" /><defs
     id="defs1" /><g
     inkscape:label="Warstwa 1"
     inkscape:groupmode="layer"
     id="layer1"><path
       style="fill:#000000;stroke-width:2.04591"
       d="m 14.78624,166.28599 c -4.253839,-2.44418 -7.0410092,-4.37624 -7.0410092,-4.88078 0,-0.4593 0.567299,-2.49813 1.260641,-4.53074 1.1324682,-3.31987 5.3508252,-9.09084 41.4868202,-56.75666 22.124399,-29.183588 40.689053,-53.485511 41.254807,-54.004302 0.565753,-0.518792 1.182852,-1.533573 1.371304,-2.255096 0.426663,-1.633369 1.107692,-1.645965 3.546219,-0.06558 2.081448,1.348971 11.770078,5.651698 12.726158,5.651698 0.90002,0 0.0146,4.754537 -1.26279,6.786445 -0.60393,0.960092 -0.97553,2.195795 -0.8258,2.745991 0.16572,0.608577 0.0263,0.911501 -0.35551,0.773486 -0.34528,-0.12474 -19.514262,24.713742 -42.597703,55.196748 -23.083441,30.48299 -42.094149,55.41483 -42.246034,55.40406 -0.151947,-0.0104 -3.444552,-1.84013 -7.317103,-4.06525 z M 163.01607,69.856831 c -1.92329,-3.060147 -3.7341,-5.423057 -4.02404,-5.250868 -0.28995,0.172269 -2.92127,-1.629153 -5.84741,-4.002931 l -5.32022,-4.315963 -1.14818,1.313695 -1.14821,1.313694 -10.69748,-6.161986 -10.69746,-6.161966 -1.45171,1.697097 c -1.42272,1.663185 -2.49609,2.108898 -3.04049,1.262515 -0.15028,-0.233756 0.25653,-2.442425 0.90421,-4.908154 1.1951,-4.549784 1.45172,-9.430367 0.78266,-14.884335 l -0.3647,-2.972658 7.03625,-1.673315 c 3.86994,-0.920324 7.33499,-1.671907 7.70012,-1.670184 0.49861,0.0024 0.46572,0.630621 -0.13211,2.523532 -0.4378,1.38622 -0.79865,2.688034 -0.80195,2.892924 -0.004,0.204887 4.84489,3.165419 10.77374,6.578956 8.05353,4.636822 10.71372,6.421295 10.5187,7.05602 -1.07252,3.490931 -1.21714,3.249976 4.91394,8.187008 3.19952,2.57641 5.81579,4.964167 5.81391,5.306118 -0.002,0.34195 -0.34291,1.246872 -0.75783,2.010951 -0.71247,1.31197 -0.55885,1.695533 2.76276,6.897928 3.37167,5.280789 3.98605,6.913812 3.09818,8.234786 -0.37569,0.558961 -4.24277,2.32974 -5.0291,2.302887 -0.19077,-0.006 -1.92032,-2.515605 -3.84362,-5.575751 z M 112.60433,46.770976 c -0.49171,-0.266745 -1.6984,-1.206984 -2.68152,-2.089385 -0.98314,-0.88242 -2.11931,-1.604403 -2.52488,-1.604403 -0.40553,0 -0.89093,-0.238776 -1.07865,-0.530612 -0.21676,-0.336998 1.28499,-0.53061 4.1157,-0.53061 h 4.457 l -0.35324,2.255089 c -0.42398,2.706564 -0.75793,3.138158 -1.93441,2.499921 z m -8.62856,-9.575499 c -1.59264,-0.202884 -3.48384,-0.510712 -4.20267,-0.684059 l -1.30696,-0.31518 1.16538,-2.372001 c 0.64098,-1.304603 1.29815,-2.38291 1.46039,-2.396241 0.44656,-0.03669 6.30362,5.760012 6.02338,5.961292 -0.134,0.09628 -1.54686,0.009 -3.13952,-0.193807 z m 7.25414,-3.764166 c -1.95438,-1.803205 -3.36177,-3.449131 -3.12755,-3.657613 0.44564,-0.39665 6.29079,-1.681598 6.51389,-1.431953 0.3461,0.387302 0.85931,8.368119 0.53812,8.368119 -0.20413,0 -1.97008,-1.475348 -3.92446,-3.278553 z m -15.782764,1.854864 c 0.398654,-0.153276 0.87495,-0.134425 1.058456,0.04189 0.183464,0.17632 -0.142764,0.301728 -0.724818,0.278687 -0.643314,-0.02547 -0.77418,-0.151191 -0.333638,-0.320577 z m 0.210786,-5.035956 c -1.985064,-1.207629 -2.015599,-1.32711 -1.113662,-4.356307 0.479365,-1.60997 6.3537,-10.208484 9.57247,-14.011646 0.0718,-0.08481 1.06057,0.373038 2.19727,1.017453 1.89328,1.073312 2.11018,1.097137 2.58389,0.283822 0.9573,-1.643626 3.12293,-3.8029566 3.47535,-3.4652597 0.38599,0.3698537 1.17956,5.3988927 1.60501,10.1713667 0.26309,2.951076 0.21341,3.100518 -1.20725,3.633101 -0.81489,0.305488 -3.59391,0.968866 -6.1756,1.474175 -5.89786,1.154371 -7.04136,1.750509 -8.22325,4.286992 l -0.95028,2.039418 z M 120.10736,19.652384 c -0.52408,-2.292692 -1.18854,-10.0036504 -0.86202,-10.0036504 0.1459,0 3.47667,1.8348904 7.40199,4.0775334 8.05547,4.602314 8.042,4.017047 0.14548,6.319582 -5.73944,1.67354 -6.21935,1.645295 -6.68539,-0.393465 z"
       id="path1" /></g></svg>
