<?xml version="1.0" encoding="UTF-8" standalone="no"?>
<!-- Created with Inkscape (http://www.inkscape.org/) -->

<svg
   width="180mm"
   height="180mm"
   viewBox="0 0 180 180"
   version="1.1"
   id="svg1"
   xml:space="preserve"
   inkscape:version="1.4.2 (f4327f4, 2025-05-13)"
   sodipodi:docname="tool_saw.svg"
   xmlns:inkscape="http://www.inkscape.org/namespaces/inkscape"
   xmlns:sodipodi="http://sodipodi.sourceforge.net/DTD/sodipodi-0.dtd"
   xmlns="http://www.w3.org/2000/svg"
   xmlns:svg="http://www.w3.org/2000/svg"><sodipodi:namedview
     id="namedview1"
     pagecolor="#505050"
     bordercolor="#ffffff"
     borderopacity="1"
     inkscape:showpageshadow="0"
     inkscape:pageopacity="0"
     inkscape:pagecheckerboard="1"
     inkscape:deskcolor="#505050"
     inkscape:document-units="mm"
     inkscape:zoom="0.775"
     inkscape:cx="96.774194"
     inkscape:cy="487.74194"
     inkscape:window-width="2560"
     inkscape:window-height="1351"
     inkscape:window-x="-9"
     inkscape:window-y="-9"
     inkscape:window-maximized="1"
     inkscape:current-layer="layer1" /><defs
     id="defs1" /><g
     inkscape:label="Warstwa 1"
     inkscape:groupmode="layer"
     id="layer1"><path
       style="fill:#000000;stroke-width:4.58737"
       d="m 38.662363,137.67464 -32.038151,-29.6161 2.4442055,-3.74829 c 1.3443145,-2.06157 4.0246645,-5.060758 5.9563305,-6.664846 l 3.512126,-2.916574 4.163125,4.108417 c 5.021584,4.955583 3.879081,5.494343 23.062299,-10.875745 l 13.641186,-11.64076 -3.861833,-4.056798 c -4.322109,-4.540379 -4.377701,-4.339717 3.613066,-13.03947 l 4.221192,-4.595693 4.533783,4.507606 c 4.13321,4.109337 4.722482,4.344762 6.669459,2.664847 1.174612,-1.013493 9.037068,-7.767726 17.472127,-15.009429 8.435052,-7.241653 15.336462,-13.637704 15.336462,-14.213353 0,-0.575694 -1.59569,-2.203579 -3.54599,-3.617563 l -3.54598,-2.570836 2.46468,-4.253247 c 1.35558,-2.339299 4.07242,-5.418895 6.03741,-6.843525 l 3.57273,-2.59023 3.22216,3.010578 c 1.77219,1.655844 15.40112,14.247839 30.28651,27.982194 23.96992,22.116478 27.10783,25.443393 27.44471,29.097942 0.2414,2.619346 -0.36825,4.968596 -1.66961,6.432665 -1.68952,1.90085 -1.77913,2.638556 -0.50963,4.19599 0.84714,1.039321 1.32782,2.032263 1.06814,2.206587 -0.25959,0.17451 -1.42953,1.063764 -2.59968,1.976534 -1.81714,1.417409 -2.45793,1.355197 -4.39131,-0.42632 -2.66973,-2.459974 -4.77023,-0.421692 -2.47157,2.398223 3.15327,3.868546 -2.26625,7.606406 -5.80477,4.00357 -1.10014,-1.120144 -1.77732,-1.129681 -2.8474,-0.04168 -1.0701,1.089495 -0.92707,1.61585 0.60141,2.213017 2.5004,0.976923 2.58027,3.410006 0.17868,5.439439 -1.49304,1.26165 -2.24848,1.15524 -4.13422,-0.58235 -3.14149,-2.894721 -5.73277,-1.218597 -2.95233,1.90964 1.95907,2.20405 1.95239,2.45914 -0.12502,4.79631 l -2.19406,2.46846 -2.67692,-2.56056 c -3.23974,-3.09892 -5.41835,-0.95286 -2.43738,2.40096 1.77971,2.00231 1.75521,2.33624 -0.31096,4.24023 -2.00198,1.8447 -2.40659,1.86604 -3.76561,0.19904 -1.52641,-1.87266 -4.83661,-2.58847 -4.83661,-1.04589 0,0.45224 0.81631,1.7405 1.81403,2.86301 1.62722,1.83078 1.56528,2.27009 -0.60144,4.26661 -2.30353,2.12258 -2.52342,2.12619 -4.74538,0.0787 -3.18084,-2.93096 -5.75799,-1.24239 -2.94099,1.92696 1.97893,2.22641 1.98241,2.48873 0.0589,4.44716 -1.74181,1.77352 -2.41786,1.84355 -4.57214,0.47373 -1.7646,-1.1221 -2.90927,-1.21943 -3.79027,-0.32217 -0.88101,0.89703 -0.65655,1.52174 0.74324,2.06865 2.58984,1.01187 2.55124,2.90555 -0.0996,4.88569 -1.74537,1.30381 -2.46949,1.23766 -4.23843,-0.38698 -1.44846,-1.33043 -2.52685,-1.55901 -3.35884,-0.71192 -0.83198,0.84713 -0.62976,1.75107 0.62985,2.81543 2.4993,2.11197 2.33559,3.36935 -0.65051,4.99651 -1.98368,1.08093 -2.96131,0.94567 -4.69202,-0.64907 -2.91285,-2.68401 -4.60153,-0.0814 -1.91113,2.94555 1.76565,1.98648 1.773,2.34831 0.0768,3.7816 -1.53582,1.29781 -2.41269,1.29229 -4.83997,-0.0324 -3.726083,-2.03035 -5.202172,-0.71946 -2.549889,2.26454 1.881343,2.11666 1.855757,2.39763 -0.408345,4.48387 -2.303536,2.12258 -2.52343,2.12618 -4.745383,0.0787 -3.180843,-2.93091 -5.757993,-1.24235 -2.940993,1.92695 1.978929,2.22646 1.982404,2.48877 0.05889,4.4472 -1.743169,1.77486 -2.416813,1.84419 -4.576442,0.471 -2.278659,-1.44894 -2.974756,-1.17047 -6.947712,2.77954 -2.428425,2.41443 -4.663145,4.3856 -4.966037,4.38045 -0.302914,-0.005 -14.967884,-13.33658 -32.58887,-29.62544 z M 144.392,84.64051 l 9.92127,-8.57306 -8.07059,-7.654552 c -4.43885,-4.209968 -8.49429,-7.654505 -9.0121,-7.654505 -1.23054,0 -79.149143,68.441787 -79.195725,69.563597 -0.01956,0.47196 3.603172,4.23261 8.050595,8.35693 l 8.086219,7.49889 30.149561,-26.48213 c 16.58226,-14.56514 34.6141,-30.339959 40.07077,-35.05517 z m -82.171464,21.42964 c 8.226768,-7.071122 14.988527,-13.132132 15.02614,-13.468937 0.03777,-0.336979 -2.645925,-2.992339 -5.963414,-5.901268 l -6.031804,-5.288868 -15.787216,13.802397 -15.787215,13.802456 5.88172,5.23772 c 3.234941,2.88073 6.291732,5.11065 6.792876,4.95539 0.501134,-0.15506 7.642146,-6.0678 15.868913,-13.13889 z M 110.18512,63.867151 c 8.38504,-7.383762 15.24552,-13.812631 15.24552,-14.286443 0,-0.473767 -2.52451,-3.123987 -5.61002,-5.889329 -5.51893,-4.946237 -5.65075,-4.991137 -8.11931,-2.765524 -1.3801,1.244289 -9.14005,7.971861 -17.24431,14.950132 -8.104273,6.978272 -14.735036,13.065854 -14.735036,13.528001 0,0.461963 2.447839,3.137596 5.439649,5.945476 6.402464,6.008845 3.80903,7.198884 25.023507,-11.482313 z"
       id="path1" /></g></svg>
