<?xml version="1.0" encoding="UTF-8" standalone="no"?>
<!-- Created with Inkscape (http://www.inkscape.org/) -->

<svg
   width="180mm"
   height="180mm"
   viewBox="0 0 180 180"
   version="1.1"
   id="svg1"
   xml:space="preserve"
   inkscape:version="1.4.2 (f4327f4, 2025-05-13)"
   sodipodi:docname="axe.svg"
   xmlns:inkscape="http://www.inkscape.org/namespaces/inkscape"
   xmlns:sodipodi="http://sodipodi.sourceforge.net/DTD/sodipodi-0.dtd"
   xmlns="http://www.w3.org/2000/svg"
   xmlns:svg="http://www.w3.org/2000/svg"><sodipodi:namedview
     id="namedview1"
     pagecolor="#505050"
     bordercolor="#ffffff"
     borderopacity="1"
     inkscape:showpageshadow="0"
     inkscape:pageopacity="0"
     inkscape:pagecheckerboard="1"
     inkscape:deskcolor="#505050"
     inkscape:document-units="mm"
     inkscape:zoom="0.775"
     inkscape:cx="96.774194"
     inkscape:cy="487.74194"
     inkscape:window-width="2560"
     inkscape:window-height="1351"
     inkscape:window-x="-9"
     inkscape:window-y="-9"
     inkscape:window-maximized="1"
     inkscape:current-layer="layer1" /><defs
     id="defs1" /><g
     inkscape:label="Warstwa 1"
     inkscape:groupmode="layer"
     id="layer1"><path
       style="fill:#000000;stroke-width:1.97898"
       d="M 13.377319,167.42921 7.0803883,164.02883 6.9220704,160.58327 6.7637525,157.13772 50.658552,102.074 C 74.800673,71.788966 94.694841,46.672324 94.867796,46.259247 c 0.173015,-0.413078 0.74149,-1.17152 1.263395,-1.685428 0.924039,-0.909872 0.996449,-0.903307 2.761232,0.250352 0.99676,0.651598 4.011577,2.33828 6.699567,3.748179 3.81541,2.001253 4.91443,2.824832 5.01111,3.755253 0.0681,0.655489 0.30889,2.385596 0.53504,3.84468 0.31849,2.054807 0.25203,2.619204 -0.29484,2.503502 -0.39851,-0.08431 -20.176329,24.261719 -45.404425,55.891765 -24.584126,30.82263 -44.938249,56.09085 -45.231416,56.15158 -0.293168,0.0607 -3.366644,-1.41972 -6.829954,-3.28992 z M 138.63138,57.442201 l -15.19474,-8.752398 0.008,-2.341854 c 0.004,-1.420356 0.18564,-2.086252 0.45901,-1.692279 0.3622,0.522131 0.58236,0.504424 1.12209,-0.09025 0.54531,-0.600847 0.4772,-0.834896 -0.36254,-1.245862 -0.92187,-0.451147 -1.00736,-0.970351 -0.78828,-4.787194 0.14114,-2.459478 -0.006,-4.868926 -0.34689,-5.662469 -0.32593,-0.759717 -0.6585,-2.377826 -0.73907,-3.595794 l -0.14652,-2.21449 4.33631,-0.94885 4.33632,-0.948849 0.91579,1.110217 c 0.7594,0.920581 1.28686,1.06471 3.08802,0.843798 1.19468,-0.146529 2.59411,-0.05049 3.10981,0.213411 0.72315,0.370063 1.19144,0.184812 2.04704,-0.809837 0.61018,-0.709317 1.37058,-1.289666 1.68982,-1.289666 0.31924,0 7.43834,3.886688 15.82025,8.637082 11.67088,6.614401 15.24233,8.871596 15.25044,9.638484 0.0108,0.93807 -18.01142,22.409665 -18.96931,22.601052 -0.24267,0.04848 -7.27885,-3.850426 -15.63599,-8.664245 z m -23.69195,-8.368544 c -0.70435,-0.99365 -2.54147,-2.210631 -5.06539,-3.355492 -2.17813,-0.988009 -4.13412,-1.955402 -4.34668,-2.149763 -0.21254,-0.194359 2.06688,-0.288047 5.06538,-0.208195 l 5.45184,0.145186 -0.16928,1.329102 c -0.0931,0.731009 0.0916,1.476579 0.41067,1.656828 0.65985,0.372907 0.76614,2.740125 0.16081,3.58196 -0.256,0.356039 -0.80415,-0.0073 -1.50746,-0.999627 z m 2.4545,-11.0423 c -0.44097,-0.39456 -2.95138,-1.946496 -5.57867,-3.448745 l -4.77687,-2.731364 2.58665,-0.564987 c 1.42264,-0.310742 3.75633,-1.050165 5.18594,-1.643163 1.42963,-0.592999 2.7464,-0.943693 2.92615,-0.779324 0.17963,0.164375 0.42374,2.247306 0.5422,4.628745 0.11843,2.381439 0.35624,4.538313 0.52843,4.793055 0.48985,0.724784 -0.52324,0.542623 -1.41383,-0.254217 z m -17.30266,-0.147475 c 0.86269,-0.117765 2.11085,-0.790654 2.77368,-1.495297 l 1.20513,-1.281173 2.29125,1.386503 c 1.26016,0.762577 2.29122,1.469221 2.29122,1.570319 0,0.101091 -2.27922,0.150049 -5.06493,0.108794 -2.7857,-0.04125 -4.359071,-0.171376 -3.49635,-0.289146 z M 111.70355,23.35221 c 0.84606,-1.032694 2.1073,-2.574838 2.80276,-3.426989 0.69548,-0.852149 1.29366,-1.978724 1.3293,-2.503501 0.10515,-1.54962 0.89371,1.823905 0.96552,4.130972 0.0638,2.045975 0.0218,2.094309 -2.49676,2.879027 -3.95867,1.233426 -4.35947,1.06707 -2.60082,-1.079509 z m 25.42205,-1.1595 c 0,-1.992734 -0.88781,-3.471987 -2.08385,-3.471987 -0.5226,0 -3.65554,0.786868 -6.96209,1.74859 -3.30657,0.961726 -6.07352,1.750329 -6.14882,1.752453 -0.0754,0.0021 -0.13679,-1.671335 -0.13679,-3.718796 0,-2.047462 -0.23582,-4.289829 -0.52404,-4.983038 -0.38823,-0.933701 -0.35273,-1.20242 0.13679,-1.036758 0.36351,0.122988 1.20606,-0.547616 1.87231,-1.490244 l 1.21135,-1.713865 6.85549,3.594252 6.8555,3.594255 0.0108,3.630077 c 0.006,2.092133 -0.22234,3.63008 -0.53793,3.63008 -0.30116,0 -0.54755,-0.690758 -0.54755,-1.535019 z"
       id="path1" /></g></svg>
