<?xml version="1.0" encoding="UTF-8" standalone="no"?>
<!-- Created with Inkscape (http://www.inkscape.org/) -->

<svg
   width="180mm"
   height="180mm"
   viewBox="0 0 180 180"
   version="1.1"
   id="svg1"
   xml:space="preserve"
   inkscape:version="1.4.2 (f4327f4, 2025-05-13)"
   sodipodi:docname="shovel.svg"
   xmlns:inkscape="http://www.inkscape.org/namespaces/inkscape"
   xmlns:sodipodi="http://sodipodi.sourceforge.net/DTD/sodipodi-0.dtd"
   xmlns="http://www.w3.org/2000/svg"
   xmlns:svg="http://www.w3.org/2000/svg"><sodipodi:namedview
     id="namedview1"
     pagecolor="#505050"
     bordercolor="#ffffff"
     borderopacity="1"
     inkscape:showpageshadow="0"
     inkscape:pageopacity="0"
     inkscape:pagecheckerboard="1"
     inkscape:deskcolor="#505050"
     inkscape:document-units="mm"
     inkscape:zoom="0.77500001"
     inkscape:cx="556.12903"
     inkscape:cy="544.51612"
     inkscape:window-width="2560"
     inkscape:window-height="1351"
     inkscape:window-x="-9"
     inkscape:window-y="-9"
     inkscape:window-maximized="1"
     inkscape:current-layer="layer1" /><defs
     id="defs1" /><g
     inkscape:label="Warstwa 1"
     inkscape:groupmode="layer"
     id="layer1"><path
       style="fill:#000000;stroke-width:2.00702"
       d="m 18.469222,170.87472 c -1.726313,-2.2417 -1.728225,-2.25141 -0.50564,-2.55702 0.674983,-0.16882 1.77,-0.30991 2.433344,-0.31377 1.844777,-0.0117 2.823137,-1.72631 2.501596,-4.38664 -0.151926,-1.25774 -0.05861,-2.27541 0.207626,-2.26151 0.266153,0.0136 1.665023,1.68692 3.108577,3.71782 l 2.624655,3.69252 -2.455166,2.17942 c -3.448345,3.06104 -5.517333,3.04253 -7.914909,-0.0707 z m -4.749012,-4.92176 c -0.08313,-0.14497 -0.314703,-0.90134 -0.514514,-1.68073 -0.300321,-1.17144 -0.584264,-1.36539 -1.637858,-1.11878 -0.962543,0.22527 -1.497987,-0.0198 -2.1872478,-1.00069 -1.1950881,-1.7009 -1.151693,-1.99575 0.1795685,-1.2204 0.8856233,0.51579 1.7440833,0.47611 4.5366263,-0.20962 1.894346,-0.4652 3.636454,-0.67416 3.871328,-0.46435 0.234852,0.20979 0.57541,1.54972 0.756744,2.97761 l 0.329709,2.59616 -2.59161,0.19226 c -1.42541,0.10561 -2.659675,0.0736 -2.74283,-0.0714 z M 9.0177949,158.4174 c 0,-0.3898 -0.4330439,-0.87456 -0.9623141,-1.07722 -0.5961306,-0.22828 0.397816,-0.47278 2.6119982,-0.64251 2.427607,-0.18606 3.796175,-0.0733 4.2659,0.35192 0.908381,0.8221 0.254972,1.16688 -3.1676,1.67142 -2.1813656,0.32158 -2.7479841,0.25896 -2.7479841,-0.30361 z m 13.0546491,-3.80056 c -2.044424,-2.23037 -3.47237,-4.0552 -3.173214,-4.0552 0.299136,0 2.961659,0.89653 5.916708,1.99228 2.955028,1.09576 5.743976,2.11598 6.197637,2.26714 0.594614,0.19812 0.524346,0.28613 -0.25177,0.31532 -0.59212,0.0222 -1.953123,0.8269 -3.024424,1.78808 l -1.947802,1.74759 z M 5.1701184,153.68685 c -8.725e-4,-0.39645 -0.6049633,-1.45847 -1.3424016,-2.3601 l -1.3407796,-1.63931 2.3030937,-2.06722 c 1.4731704,-1.32228 3.0267731,-2.18611 4.3112512,-2.39712 1.8419099,-0.30259 2.1011619,-0.18955 3.1324759,1.36668 1.020072,1.53919 1.328996,1.67837 3.330066,1.5004 1.794399,-0.15951 2.667178,-0.65625 4.680697,-2.66368 2.402397,-2.39511 2.579534,-2.4726 6.035817,-2.64041 l 3.560782,-0.17289 0.179777,4.10243 c 0.09892,2.25633 0.159408,4.15739 0.134469,4.2246 -0.02494,0.0673 -2.204187,-0.57996 -4.842787,-1.43812 -3.902649,-1.26924 -5.279945,-1.49517 -7.384246,-1.21127 -3.771816,0.50885 -4.136586,0.95906 -2.546925,3.14353 2.098004,2.88306 1.855273,3.23863 -1.267518,1.85673 -1.858225,-0.82231 -1.978,-0.81665 -2.721048,0.12812 -0.974057,1.23857 -6.2200628,1.46416 -6.2227236,0.26756 z M 32.774783,151.9205 c -0.463325,-8.75361 -0.173126,-10.36493 1.445508,-8.02531 0.487787,0.7051 1.697963,2.01646 2.689249,2.91409 1.777793,1.60985 1.785504,1.63689 0.565185,1.98366 -1.864273,0.52982 -3.161782,1.79182 -3.161782,3.0753 0,1.88139 -1.438753,1.93025 -1.53816,0.0524 z m 8.552524,-7.94401 c -1.525151,-3.00588 -4.567864,-7.36231 -5.664356,-8.11002 -0.555687,-0.37891 -2.26215,-0.72349 -3.792164,-0.76577 -1.603274,-0.0441 -2.139113,-0.16745 -1.264775,-0.29089 1.133486,-0.15991 11.42236,-9.35964 40.692218,-36.384523 21.546311,-19.893757 39.30942,-36.663796 39.47354,-37.266735 0.2041,-0.749775 0.42946,-0.898567 0.71296,-0.470798 0.2849,0.429883 1.39533,0.538806 3.55082,0.348306 l 3.13633,-0.277194 3.42218,4.261765 c 3.33748,4.15629 3.38786,4.265835 2.03517,4.426448 -0.98524,0.117065 -11.77269,9.754199 -37.240699,33.269861 -19.71954,18.20785 -37.81521,34.90649 -40.21264,37.10809 -3.628141,3.3318 -4.245949,4.12985 -3.685087,4.76008 0.370631,0.41646 0.474631,0.87202 0.231132,1.01234 -0.243498,0.14032 -0.871095,-0.58908 -1.394629,-1.62096 z m -4.396941,-1.0902 c -1.971391,-2.14779 -5.80932,-4.08899 -8.12158,-4.10787 -1.398141,-0.0117 -3.127883,-1.78084 -2.240723,-2.29215 0.264553,-0.15253 0.6229,0.0676 0.796318,0.48904 0.230155,0.55933 1.186608,0.76625 3.542035,0.76625 h 3.22673 l 2.503072,3.58963 c 1.376694,1.97428 2.426257,3.58961 2.332337,3.58961 -0.09394,0 -1.011093,-0.91552 -2.038189,-2.03451 z M 123.12093,62.872363 c -1.39635,-1.692259 -2.2923,-3.076818 -1.99101,-3.076818 0.30128,0 2.29148,0.882325 4.42265,1.960732 l 3.87487,1.960733 -1.61879,1.116084 c -0.89032,0.613852 -1.73806,1.116086 -1.88385,1.116086 -0.1459,0 -1.40753,-1.384578 -2.80387,-3.076817 z m 24.27886,-5.487084 -4.31565,-5.878786 -1.24275,1.088738 -1.24274,1.088757 -0.84508,-1.202759 c -0.46478,-0.661511 -2.13316,-2.51706 -3.70751,-4.123458 -2.76756,-2.823888 -2.95567,-2.920699 -5.67543,-2.920699 h -2.81298 l 2.92508,-2.762081 c 3.49839,-3.303445 3.49997,-3.290518 -1.14408,-9.345094 -3.27078,-4.264187 -3.28223,-4.291709 -2.278,-5.474293 0.75873,-0.893449 1.35066,-1.110348 2.38405,-0.873544 1.21195,0.277698 2.73799,-0.91913 12.88605,-10.106167 9.52956,-8.627084 11.70694,-10.3610911 12.64759,-10.0721904 0.62494,0.1918779 1.60877,0.3209775 2.18625,0.2867696 1.4882,-0.088182 2.94234,0.7421963 3.33857,1.9064053 0.22421,0.6587977 0.9343,1.0492385 2.09933,1.1543625 1.59578,0.144005 1.94801,0.518767 3.76371,4.004863 1.3293,2.552237 3.03766,4.786384 5.07841,6.641428 l 3.07524,2.795437 -1.19777,1.18894 -1.19775,1.18896 2.59799,2.45971 c 2.59419,2.456142 2.59633,2.461123 1.47228,3.409752 l -1.12569,0.950025 1.22206,1.213089 1.22209,1.21309 -12.01361,11.211941 -12.0136,11.211941 1.18407,1.550697 1.18405,1.550697 -1.51937,0.981189 c -0.83564,0.539659 -1.76682,1.107169 -2.06926,1.261117 -0.30245,0.153889 -2.49194,-2.365515 -4.86555,-5.598837 z m -18.50498,2.409995 c -0.45366,-0.27357 -2.0621,-0.880173 -3.5743,-1.348043 -1.5122,-0.467851 -2.93159,-1.13725 -3.15416,-1.487552 -0.2226,-0.350301 -1.28113,-0.790243 -2.35233,-0.977642 -1.32459,-0.231726 -1.81523,-0.537508 -1.53367,-0.95582 0.22768,-0.338305 0.3405,-1.031252 0.25069,-1.539881 -0.13135,-0.744484 0.0321,-0.830033 0.83857,-0.438779 0.55101,0.267291 2.79876,0.740859 4.995,1.052378 4.98553,0.707136 5.93045,1.255865 6.90212,4.008294 0.75072,2.126521 0.73783,2.19986 -0.38519,2.192263 -0.63903,-0.0039 -1.53306,-0.231667 -1.98673,-0.505218 z m 5.31198,-0.740064 c -0.5161,-1.254218 -0.23441,-1.43055 1.34439,-0.841604 0.8774,0.327296 1.01114,0.502175 0.40063,0.523824 -0.50408,0.01744 -1.01544,0.309291 -1.13636,0.647576 -0.13135,0.367299 -0.37649,0.234439 -0.60866,-0.329796 z m -20.70901,-1.781705 c 0,-0.518902 2.13952,-1.813956 2.46775,-1.493734 0.0956,0.09342 -0.42041,0.584353 -1.14688,1.091102 -0.72649,0.50673 -1.32087,0.687928 -1.32087,0.402632 z m 23.01021,-1.344748 c -3.12714,-1.028539 -4.68704,-2.184279 -5.72247,-4.239884 -1.15661,-2.296225 -1.66711,-2.644221 -3.89397,-2.654338 -0.96897,-0.0039 -1.85833,-0.323788 -2.02423,-0.726923 -0.42648,-1.036408 0.16273,-1.375915 1.35524,-0.780786 0.56786,0.283397 2.0596,0.458742 3.31505,0.389666 2.13397,-0.117452 2.45761,0.0566 4.97035,2.671704 2.51107,2.613424 4.59476,5.527651 4.18803,5.85735 -0.0979,0.07947 -1.08251,-0.153114 -2.188,-0.516789 z m -14.7618,-6.365844 c 0.45366,-0.286283 1.29913,-0.524057 1.8788,-0.528378 1.40687,-0.0097 0.96797,0.283029 -1.05397,0.70479 -1.20477,0.25132 -1.42722,0.203738 -0.82483,-0.176373 z"
       id="path1" /></g></svg>
