<?xml version="1.0" encoding="UTF-8" standalone="no"?>
<!-- Created with Inkscape (http://www.inkscape.org/) -->

<svg
   width="180mm"
   height="180mm"
   viewBox="0 0 180 180"
   version="1.1"
   id="svg1"
   xml:space="preserve"
   inkscape:version="1.4.2 (f4327f4, 2025-05-13)"
   sodipodi:docname="tool_bow.svg"
   xmlns:inkscape="http://www.inkscape.org/namespaces/inkscape"
   xmlns:sodipodi="http://sodipodi.sourceforge.net/DTD/sodipodi-0.dtd"
   xmlns="http://www.w3.org/2000/svg"
   xmlns:svg="http://www.w3.org/2000/svg"><sodipodi:namedview
     id="namedview1"
     pagecolor="#505050"
     bordercolor="#ffffff"
     borderopacity="1"
     inkscape:showpageshadow="0"
     inkscape:pageopacity="0"
     inkscape:pagecheckerboard="1"
     inkscape:deskcolor="#505050"
     inkscape:document-units="mm"
     inkscape:zoom="1.0960155"
     inkscape:cx="456.19792"
     inkscape:cy="464.40948"
     inkscape:window-width="2560"
     inkscape:window-height="1351"
     inkscape:window-x="-9"
     inkscape:window-y="-9"
     inkscape:window-maximized="1"
     inkscape:current-layer="layer1" /><defs
     id="defs1" /><g
     inkscape:label="Warstwa 1"
     inkscape:groupmode="layer"
     id="layer1"><path
       style="fill:#000000;stroke-width:1.78093"
       d="m 4.2204184,169.36134 c -0.257027,-0.65371 -0.467328,-1.38177 -0.467328,-1.6179 0,-0.23612 2.365706,-1.57661 5.257147,-2.97886 4.0056456,-1.9426 5.4355186,-2.88311 6.0064756,-3.95077 0.672087,-1.25676 0.6735,-1.42939 0.01449,-1.67418 -0.404538,-0.15009 -0.735529,-0.46213 -0.735529,-0.69339 0,-0.23124 1.239875,0.18441 2.755285,0.9237 1.515392,0.73927 3.677698,1.61107 4.805105,1.93731 2.041417,0.59075 2.588033,1.72156 0.705501,1.45953 -0.761137,-0.10595 -1.118225,0.241 -1.549947,1.50592 -0.593287,1.73835 -0.803842,1.87526 -1.875179,1.2193 -0.457312,-0.28 -2.4921,0.45718 -6.414582,2.32391 -6.4620496,3.07534 -7.8033806,3.31919 -8.5007676,1.54543 z M 20.164943,157.21193 c -2.174276,-0.92852 -3.953215,-1.96364 -3.953215,-2.30027 0,-0.45015 0.232613,-0.49166 0.87949,-0.15692 0.790531,0.40912 1.930706,-1.61351 11.273476,-19.99878 8.603764,-16.93101 10.267989,-20.52213 9.662423,-20.84983 -0.402347,-0.21774 -0.731544,-1.01414 -0.731544,-1.76977 0,-1.02871 0.359913,-1.58553 1.432572,-2.21631 0.787904,-0.46336 9.188753,-4.45756 18.668533,-8.87602 9.47978,-4.41847 17.29861,-8.278124 17.37516,-8.576999 0.15811,-0.617348 17.18106,-16.675168 19.16295,-18.076534 0.78877,-0.557716 5.61605,-8.152992 12.361422,-19.449558 6.08701,-10.193981 11.37129,-18.83086 11.74285,-19.193069 0.58371,-0.569019 0.93337,-0.546151 2.57155,0.168194 l 1.89599,0.826751 17.41154,-6.340424 c 9.57637,-3.487233 17.67643,-6.672185 18.00018,-7.077668 0.53566,-0.670889 0.76471,-0.66047 2.5448,0.115743 2.29274,0.999756 2.85631,1.838057 2.85631,4.248782 0,1.723425 -0.81558,2.557927 -31.39005,32.118317 -17.26452,16.691908 -31.29935,30.579037 -31.18853,30.860294 0.31819,0.807503 -10.343762,10.841001 -11.520012,10.841001 -0.6745,0 -11.50354,9.52268 -32.66957,28.72849 -17.413333,15.80066 -31.834425,28.71368 -32.046863,28.69561 -0.212439,-0.018 -2.165185,-0.79255 -4.339462,-1.72107 z m 37.886585,-31.33236 c 15.97391,-14.50213 28.95495,-26.506023 28.84676,-26.675303 -0.28503,-0.445949 10.65862,-10.890599 11.41693,-10.896361 0.35064,-0.0035 14.311432,-13.12248 31.023962,-29.155163 16.71252,-16.03267 30.06297,-29.042913 29.66765,-28.911643 -0.39532,0.131277 -8.40879,3.031769 -17.80766,6.445557 l -17.08891,6.206887 -11.18261,18.700972 c -6.15044,10.285523 -11.11973,19.069125 -11.04285,19.519085 0.21848,1.279038 -18.201052,18.232643 -20.177742,18.571903 -0.83877,0.143956 -9.32532,3.893946 -18.859,8.333306 l -17.33395,8.07159 -9.832196,19.36462 c -8.545321,16.83018 -9.625495,19.19629 -8.253033,18.07836 0.868534,-0.70746 14.648725,-13.15166 30.622649,-27.65381 z M 166.1945,26.575337 c 0,-2.070088 -0.22365,-2.850118 -1.0656,-3.716763 -1.05753,-1.088545 -0.9766,-1.360757 0.61944,-2.083058 0.14996,-0.06786 1.52269,-2.208504 3.05058,-4.756998 4.43936,-7.4048053 3.92761,-6.8356811 5.43608,-6.0454301 2.81297,1.4736351 2.86111,1.1204551 -1.03663,7.6043951 -2.22925,3.708386 -3.64963,6.586241 -3.64963,7.394573 0,0.959128 -0.32711,1.467491 -1.18849,1.847008 -0.71659,0.315716 -1.08619,0.781486 -0.93082,1.172991 0.14181,0.357139 -0.0782,0.773966 -0.48863,0.926277 -0.62139,0.230582 -0.7463,-0.161574 -0.7463,-2.342995 z"
       id="path1" /></g></svg>
