<?xml version="1.0" encoding="UTF-8" standalone="no"?>
<!-- Created with Inkscape (http://www.inkscape.org/) -->

<svg
   width="180mm"
   height="180mm"
   viewBox="0 0 180 180"
   version="1.1"
   id="svg1"
   xml:space="preserve"
   inkscape:version="1.4.2 (f4327f4, 2025-05-13)"
   sodipodi:docname="tool_tasak.svg"
   xmlns:inkscape="http://www.inkscape.org/namespaces/inkscape"
   xmlns:sodipodi="http://sodipodi.sourceforge.net/DTD/sodipodi-0.dtd"
   xmlns="http://www.w3.org/2000/svg"
   xmlns:svg="http://www.w3.org/2000/svg"><sodipodi:namedview
     id="namedview1"
     pagecolor="#505050"
     bordercolor="#ffffff"
     borderopacity="1"
     inkscape:showpageshadow="0"
     inkscape:pageopacity="0"
     inkscape:pagecheckerboard="1"
     inkscape:deskcolor="#505050"
     inkscape:document-units="mm"
     inkscape:zoom="0.54800776"
     inkscape:cx="357.65917"
     inkscape:cy="629.55313"
     inkscape:window-width="2560"
     inkscape:window-height="1351"
     inkscape:window-x="-9"
     inkscape:window-y="-9"
     inkscape:window-maximized="1"
     inkscape:current-layer="layer1" /><defs
     id="defs1" /><g
     inkscape:label="Warstwa 1"
     inkscape:groupmode="layer"
     id="layer1"><path
       style="fill:#000000;stroke-width:1.9399"
       d="M 8.4769746,159.90283 C 6.0982894,156.67532 3.9979154,153.76424 3.809492,153.43381 3.6010065,153.06818 16.219439,140.54034 36.041919,121.43274 53.958177,104.1626 68.616947,89.815906 68.616947,89.551204 c 0,-0.264692 -0.888877,-1.477195 -1.975266,-2.694467 L 64.666413,84.643531 100.0542,43.965346 C 131.08159,8.2994275 135.63451,3.2686959 137.00435,3.1374158 c 1.45378,-0.1393833 2.26291,0.6554742 11.64741,11.4413312 5.54679,6.375095 10.12675,11.884204 10.17767,12.242439 0.051,0.358255 3.97854,5.933802 8.72808,12.390084 4.74954,6.4563 8.63554,11.962492 8.63554,12.235993 0,0.894021 -76.335967,74.159207 -77.267477,74.159207 -0.57947,0 -2.968143,-2.86071 -6.642044,-7.95468 -5.752595,-7.9761 -9.800521,-12.91002 -10.591724,-12.91002 -0.232822,0 -14.665433,13.73158 -32.072425,30.51462 L 17.970262,165.77102 H 15.386069 12.801856 Z M 139.14134,22.412433 l 1.5848,-1.911911 -1.71965,-2.053244 -1.71965,-2.053244 -2.01284,2.029942 -2.01285,2.02996 1.87143,1.979355 c 1.02927,1.088664 1.99574,1.959501 2.14769,1.935211 0.15194,-0.02426 0.98946,-0.904508 1.86107,-1.956069 z"
       id="path1" /></g></svg>
