<?xml version="1.0" encoding="UTF-8" standalone="no"?>
<!-- Created with Inkscape (http://www.inkscape.org/) -->

<svg
   width="180mm"
   height="180mm"
   viewBox="0 0 180 180"
   version="1.1"
   id="svg1"
   xml:space="preserve"
   inkscape:version="1.4.2 (f4327f4, 2025-05-13)"
   sodipodi:docname="shears.svg"
   xmlns:inkscape="http://www.inkscape.org/namespaces/inkscape"
   xmlns:sodipodi="http://sodipodi.sourceforge.net/DTD/sodipodi-0.dtd"
   xmlns="http://www.w3.org/2000/svg"
   xmlns:svg="http://www.w3.org/2000/svg"><sodipodi:namedview
     id="namedview1"
     pagecolor="#505050"
     bordercolor="#ffffff"
     borderopacity="1"
     inkscape:showpageshadow="0"
     inkscape:pageopacity="0"
     inkscape:pagecheckerboard="1"
     inkscape:deskcolor="#505050"
     inkscape:document-units="mm"
     inkscape:zoom="1.0960155"
     inkscape:cx="276.45594"
     inkscape:cy="422.43928"
     inkscape:window-width="2560"
     inkscape:window-height="1351"
     inkscape:window-x="-9"
     inkscape:window-y="-9"
     inkscape:window-maximized="1"
     inkscape:current-layer="layer1" /><defs
     id="defs1" /><g
     inkscape:label="Warstwa 1"
     inkscape:groupmode="layer"
     id="layer1"><path
       style="fill:#000000;stroke-width:2.23111"
       d="M 27.701082,154.84671 8.7997185,134.8954 12.031067,131.01173 c 1.777242,-2.13602 6.758069,-7.3948 11.068504,-11.68617 6.699188,-6.66956 12.83762,-14.21313 42.27531,-51.952462 C 84.315854,43.090653 100.38762,22.855034 101.08988,22.405099 107.10167,18.553401 122.31402,8.2051235 123.92309,6.8726905 l 2.01758,-1.6707209 6.60248,5.9950894 c 3.63136,3.2973 6.53858,6.256966 6.46045,6.577023 -0.0782,0.320079 -13.11161,17.212881 -28.96332,37.539601 L 81.218954,92.271293 74.651181,86.23817 C 71.038913,82.919945 67.848378,80.358304 67.561112,80.545662 67.273824,80.732906 61.701732,87.762316 55.17868,96.166353 48.655607,104.57039 39.731146,115.2695 35.346542,119.94219 l -7.972029,8.49573 12.631194,13.31793 12.631167,13.31792 8.25069,-8.47323 c 6.513343,-6.68898 28.08235,-25.50196 37.372921,-32.59749 0.99177,-0.75745 0.660586,-1.30516 -4.767764,-7.88477 L 87.659144,99.047477 104.49499,84.903262 c 9.25972,-7.779325 25.11112,-21.099026 35.2253,-29.599297 10.11421,-8.500316 18.75184,-15.691417 19.19475,-15.980258 0.56574,-0.368918 1.2495,0.03094 2.29868,1.34403 0.82137,1.02803 3.40436,4.217775 5.73998,7.088311 l 4.24658,5.219173 -1.16414,1.341944 c -0.64028,0.738066 -4.29056,6.390101 -8.11173,12.560023 -3.82117,6.169969 -7.49254,11.970836 -8.15858,12.890828 -0.66603,0.920016 -19.61485,17.120291 -42.10847,36.000624 -32.951477,27.65829 -42.628141,36.11192 -49.804915,43.51 -4.89906,5.05015 -10.334469,10.60799 -12.078702,12.35075 l -3.171291,3.16864 z"
       id="path1" /></g></svg>
