<?xml version="1.0" encoding="UTF-8" standalone="no"?>
<!-- Created with Inkscape (http://www.inkscape.org/) -->

<svg
   width="180mm"
   height="240mm"
   viewBox="0 0 180 240"
   version="1.1"
   id="svg1"
   sodipodi:docname="reeds.svg"
   inkscape:version="1.4.2 (f4327f4, 2025-05-13)"
   xml:space="preserve"
   xmlns:inkscape="http://www.inkscape.org/namespaces/inkscape"
   xmlns:sodipodi="http://sodipodi.sourceforge.net/DTD/sodipodi-0.dtd"
   xmlns="http://www.w3.org/2000/svg"
   xmlns:svg="http://www.w3.org/2000/svg"><sodipodi:namedview
     id="namedview1"
     pagecolor="#505050"
     bordercolor="#ffffff"
     borderopacity="1"
     inkscape:showpageshadow="0"
     inkscape:pageopacity="0"
     inkscape:pagecheckerboard="1"
     inkscape:deskcolor="#505050"
     inkscape:document-units="mm"
     inkscape:zoom="0.70710678"
     inkscape:cx="138.59293"
     inkscape:cy="606.69762"
     inkscape:window-width="2560"
     inkscape:window-height="1351"
     inkscape:window-x="-9"
     inkscape:window-y="-9"
     inkscape:window-maximized="1"
     inkscape:current-layer="layer1"
     showguides="true" /><defs
     id="defs1"><rect
       x="101.82338"
       y="91.923882"
       width="384.66608"
       height="299.81326"
       id="rect3" /><rect
       x="2.8284271"
       y="2.1213202"
       width="662.55902"
       height="647.00269"
       id="rect2" /></defs><g
     inkscape:label="Icon"
     inkscape:groupmode="layer"
     id="layer1"><path
       style="fill:#000000;stroke-width:3.69617"
       d="M 40.944327,232.76422 C 40.725811,232.12736 40.27961,222.22708 39.952577,210.76357 38.417972,156.96977 31.778604,116.64769 18.785811,82.214116 16.042307,74.943297 14.157257,68.795014 14.596825,68.551264 c 2.291372,-1.270669 13.258523,17.391637 19.880722,33.830116 8.150834,20.23299 12.576247,39.47631 14.758284,64.17427 0.395084,4.47176 0.870161,7.99422 1.055704,7.82775 0.185738,-0.16666 1.958877,-7.99377 3.940698,-17.39392 1.981821,-9.40018 5.77826,-25.24602 8.436504,-35.21307 l 4.833219,-18.12187 -2.660742,-3.64721 C 60.624522,94.227441 60.558343,92.450857 64.095841,80.003391 69.768589,60.042582 78.6742,33.501099 80.986643,29.663393 c 1.784533,-2.961545 3.193725,-3.981567 7.019742,-5.08131 l 4.787017,-1.375949 2.956168,-8.35064 c 2.179851,-6.1577372 3.459417,-8.434319 4.87255,-8.6691405 3.70614,-0.6158507 3.94421,1.2014515 1.35558,10.3483925 -2.187344,7.729013 -2.32259,9.05584 -1.02168,10.024536 2.60533,1.940087 4.46045,6.12143 4.46045,10.053596 0,3.201268 -16.458878,58.607206 -18.283212,61.547149 -1.748946,2.818553 -5.23279,5.270233 -8.66856,6.100313 l -3.856726,0.9318 -3.634113,13.64769 c -4.978258,18.6956 -10.306921,43.76541 -13.487419,63.45422 -3.187755,19.73355 -3.254012,22.33941 -0.39403,15.5007 9.322937,-22.29278 23.102581,-48.27226 34.099662,-64.2898 4.541811,-6.61526 4.9216,-7.58687 3.94659,-10.09641 -2.859006,-7.35863 -1.380591,-10.44583 14.607738,-30.50418 23.96396,-30.064191 28.93223,-34.537459 35.92883,-32.349036 2.95527,0.924371 3.24524,0.741857 9.06583,-5.705074 7.20513,-7.980465 11.50978,-9.419994 10.60676,-3.547041 -0.10653,0.693156 -2.52097,4.131136 -5.36534,7.63998 -5.022,6.195198 -5.13594,6.476725 -3.93848,9.732296 2.05019,5.573781 0.70796,9.945025 -5.31399,17.306384 -3.00233,3.670106 -10.2958,12.717299 -16.20774,20.104881 -19.94726,24.92619 -20.9966,25.83313 -28.60708,24.72498 l -3.5968,-0.5237 -6.684985,10.10478 c -3.676723,5.55765 -8.77856,13.84509 -11.337379,18.41657 -5.632011,10.06178 -17.332049,34.43557 -16.771399,34.93858 0.221247,0.19851 1.786483,-1.62341 3.478147,-4.04889 13.365089,-19.16266 37.338566,-36.95164 61.058146,-45.30676 15.40365,-5.42589 15.53643,-3.98826 0.45662,4.94413 -20.56932,12.18411 -36.439767,26.64806 -51.137608,46.60565 -7.167591,9.73254 -16.362267,25.30446 -19.827888,33.57993 l -1.842674,4.40013 h -9.183945 c -6.447035,0 -9.302295,-0.34521 -9.581098,-1.15793 z"
       id="path1" /></g></svg>
