<?xml version="1.0" encoding="UTF-8" standalone="no"?>
<!-- Created with Inkscape (http://www.inkscape.org/) -->

<svg
   width="180mm"
   height="240mm"
   viewBox="0 0 180 240"
   version="1.1"
   id="svg1"
   sodipodi:docname="tule.svg"
   inkscape:version="1.4.2 (f4327f4, 2025-05-13)"
   xml:space="preserve"
   xmlns:inkscape="http://www.inkscape.org/namespaces/inkscape"
   xmlns:sodipodi="http://sodipodi.sourceforge.net/DTD/sodipodi-0.dtd"
   xmlns="http://www.w3.org/2000/svg"
   xmlns:svg="http://www.w3.org/2000/svg"><sodipodi:namedview
     id="namedview1"
     pagecolor="#505050"
     bordercolor="#ffffff"
     borderopacity="1"
     inkscape:showpageshadow="0"
     inkscape:pageopacity="0"
     inkscape:pagecheckerboard="1"
     inkscape:deskcolor="#505050"
     inkscape:document-units="mm"
     inkscape:zoom="0.5"
     inkscape:cx="-502"
     inkscape:cy="804"
     inkscape:window-width="2560"
     inkscape:window-height="1351"
     inkscape:window-x="-9"
     inkscape:window-y="-9"
     inkscape:window-maximized="1"
     inkscape:current-layer="layer1"
     showguides="true" /><defs
     id="defs1"><rect
       x="101.82338"
       y="91.923882"
       width="384.66608"
       height="299.81326"
       id="rect3" /><rect
       x="2.8284271"
       y="2.1213202"
       width="662.55902"
       height="647.00269"
       id="rect2" /></defs><g
     inkscape:label="Icon"
     inkscape:groupmode="layer"
     id="layer1"><path
       style="fill:#000000;stroke-width:3.14296"
       d="m 87.773975,213.32979 c -0.285179,-9.01643 -0.519301,-20.03286 -0.520527,-24.48097 -0.0012,-4.44811 -0.328465,-8.08743 -0.727239,-8.08743 -0.398744,0 -0.843643,0.34142 -0.988654,0.75875 -0.144981,0.4173 -1.117642,1.05265 -2.16142,1.41184 -1.837137,0.63227 -1.879137,0.54512 -1.314218,-2.72595 0.967877,-5.60422 0.909257,-6.87637 -0.316807,-6.87637 -1.318674,0 -2.612685,2.62391 -4.096219,8.30604 -1.401297,5.36712 -2.679704,6.76411 -4.5123,4.93076 -1.104967,-1.10543 -1.411013,-2.94386 -1.490288,-8.95242 -0.118081,-8.9522 0.465524,-11.02771 3.693947,-13.13586 1.330959,-0.86911 2.419933,-2.13372 2.419933,-2.81025 0,-0.80795 -0.339256,-0.96829 -0.988654,-0.46723 -0.543755,0.41954 -2.946201,0.73064 -5.338724,0.69133 -11.86779,-0.19496 -12.632216,-0.78173 -6.726659,-5.16383 3.193329,-2.36956 3.368352,-2.67457 1.883114,-3.2819 -2.542944,-1.03991 -11.656715,0.90041 -16.906776,3.59943 -2.610054,1.34183 -7.103791,4.6526 -9.986141,7.35732 -4.964403,4.65847 -6.227744,5.21832 -6.227744,2.75986 0,-1.79257 10.540567,-10.71985 15.903684,-13.46957 5.055727,-2.59213 5.055727,-2.59213 1.101111,-2.07986 -5.124868,0.66384 -12.558439,3.35481 -16.818142,6.0882 -1.854866,1.19025 -3.729222,1.92036 -4.165243,1.62248 -1.288152,-0.88009 -0.132124,-2.05718 4.629392,-4.71365 7.495898,-4.18196 12.224385,-5.32463 22.034007,-5.32463 8.296017,0 8.95202,-0.12291 8.95202,-1.67636 0,-1.21067 -1.043538,-2.08451 -3.756872,-3.14589 -7.395009,-2.89273 -7.200943,-2.73459 -4.69402,-3.82597 1.22457,-0.53311 3.958052,-0.96931 6.074422,-0.96931 3.847896,0 3.847896,0 3.145739,-2.70651 -0.386219,-1.48857 -1.429099,-4.06845 -2.31755,-5.73303 -0.888483,-1.66461 -1.615394,-3.25231 -1.615394,-3.52817 0,-0.27593 1.282833,-0.2713 2.850784,0.01 1.83711,0.32946 3.831725,1.62796 5.609585,3.65162 3.53674,4.02566 5.150189,3.02929 4.814638,-2.9732 -0.199984,-3.57578 -0.03079,-4.05163 1.52679,-4.29646 1.337267,-0.21017 1.851786,0.2551 2.175051,1.96721 1.418007,7.51033 1.128044,6.97149 2.833535,5.26531 0.926265,-0.92665 1.544484,-2.67835 1.544484,-4.37621 0,-3.39538 2.171762,-4.82628 3.736007,-2.46147 0.826603,1.24965 1.009519,-3.46706 1.009519,-26.030167 0,-23.639141 0.964231,-45.788153 2.046809,-47.016839 0.173978,-0.197287 0.955383,0.28055 1.736549,1.061965 1.254522,1.255028 1.347165,2.266536 0.793635,8.664976 -0.563671,6.515278 -0.753489,59.816895 -0.243629,68.446465 0.329919,5.58612 2.086433,20.87859 2.478703,21.58025 0.197,0.35218 -0.0694,3.20497 -0.59189,6.3395 -0.949938,5.6991 -0.949938,5.6991 2.69681,9.2476 3.457907,3.36471 6.706027,9.50917 7.968137,15.07327 0.50959,2.24652 0.37974,2.40437 -1.97787,2.40437 -1.38781,0 -3.085207,-0.51408 -3.771927,-1.1424 -0.68677,-0.62836 -2.26566,-1.62279 -3.50865,-2.20986 -2.259937,-1.0674 -2.259937,-1.0674 -1.75543,20.15889 0.2774,11.67446 0.6934,22.89841 0.92429,24.94213 0.41982,3.71586 0.41982,3.71586 -3.062728,3.71586 -3.482574,0 -3.482574,0 -4.00086,-16.39346 z m -1.639217,-50.70613 c -0.863999,-0.95511 -1.456449,0.56381 -0.836138,2.14367 0.588176,1.49803 0.630834,1.49665 0.95855,-0.0298 0.188626,-0.87916 0.133629,-1.82997 -0.12226,-2.11294 z m 3.03367,-8.31046 c 0.295343,-1.83586 0.20686,-3.27871 -0.200583,-3.27871 -0.704669,0 -1.71655,4.03304 -1.71655,6.84156 0,2.41995 1.362227,-0.11138 1.917222,-3.56285 z M 66.68728,147.10006 c 0,-0.24056 -0.177864,-0.43714 -0.395456,-0.43714 -0.217621,0 -0.395455,0.19662 -0.395455,0.43714 0,0.24058 0.177864,0.43716 0.395455,0.43716 0.217623,0 0.395456,-0.19661 0.395456,-0.43716 z m 22.145777,-2.62295 c 0,-0.24056 -0.177864,-0.43716 -0.395456,-0.43716 -0.217621,0 -0.395455,0.19663 -0.395455,0.43716 0,0.24057 0.177864,0.43715 0.395455,0.43715 0.217623,0 0.395456,-0.19661 0.395456,-0.43715 z m -0.08101,-12.45904 c -0.08101,-4.15306 -0.08101,-4.15306 -0.763917,-1.09292 -0.375637,1.68306 -0.52833,3.55194 -0.339317,4.15303 0.710559,2.25981 1.181494,0.95358 1.103234,-3.06011 z M 19.56527,199.59676 c -0.268141,-1.18155 -0.321261,-2.65696 -0.117775,-3.27871 0.203572,-0.62171 -0.13452,-2.50132 -0.750795,-4.17684 -0.616395,-1.67556 -0.798593,-3.16516 -0.404872,-3.31023 1.66077,-0.61196 3.662231,-2.72901 3.133063,-3.31397 -0.315042,-0.34826 -1.063594,-0.18307 -1.6634,0.36734 -1.190251,1.09194 -8.28376,0.64395 -9.403524,-0.59389 -0.8963441,-0.99087 0.08639,-3.65476 1.348058,-3.65476 0.552724,0 1.447991,-0.59016 1.989534,-1.3115 0.541543,-0.72131 2.165724,-1.31146 3.60932,-1.31146 1.443566,0 2.834311,-0.37493 3.090495,-0.8332 0.286973,-0.51306 -1.442401,-0.647 -4.501089,-0.34856 -7.0118401,0.6841 -7.9775061,0.57102 -9.0567061,-1.0605 -1.352602,-2.04482 0.05322,-4.20598 4.3106411,-6.62654 3.566094,-2.02748 3.324948,-2.04357 9.270173,0.6189 1.390296,0.62265 1.454476,0.53521 0.529914,-0.72203 -0.578551,-0.78677 -2.269153,-1.87455 -3.756873,-2.41731 -1.487719,-0.54278 -2.704965,-1.33745 -2.704965,-1.76595 0,-0.42846 -0.507375,-0.5638 -1.127506,-0.30071 -0.667274,0.28321 -1.692217,-0.47446 -2.510989,-1.85582 -0.760898,-1.28373 -2.2110711,-2.68191 -3.2225631,-3.10703 -4.8486573,-2.03782 0.621029,-4.42465 8.6606221,-3.77921 4.351116,0.3493 6.407611,0.98356 8.621103,2.65885 4.170353,3.15637 4.27474,4.31527 0.62901,6.98231 -1.727251,1.26357 -3.140446,2.67546 -3.140446,3.13754 0,0.4621 1.779564,-0.57314 3.954584,-2.30054 3.954615,-3.14068 3.954615,-3.14068 3.972192,-0.73773 0.0089,1.3216 0.697705,3.38144 1.528971,4.57745 1.511394,2.17453 1.511394,2.17453 3.418603,0.19397 1.05101,-1.09148 2.438169,-1.75546 3.089838,-1.47901 0.650443,0.27593 1.597814,-0.0512 2.105279,-0.72732 1.292367,-1.72139 5.134763,-0.84509 4.588647,1.04644 -1.857973,6.43531 -2.866657,8.43234 -4.388333,8.6884 -1.646063,0.27692 -2.389264,1.90641 -0.86953,1.90641 0.435004,0 0.793123,0.49179 0.795784,1.09291 0.0026,0.60108 0.568506,2.27321 1.257362,3.71583 0.688886,1.44264 1.367877,3.21313 1.508883,3.93445 0.141096,0.72131 0.503071,1.99999 0.804572,2.84155 0.333846,0.93187 0.185636,1.53005 -0.379373,1.53005 -1.433851,0 -3.987228,-1.71054 -3.987228,-2.67111 0,-1.67551 -4.220335,-8.251 -4.564075,-7.11104 -0.189224,0.62707 0.165607,1.80589 0.787893,2.61958 0.622433,0.81371 1.919164,3.00457 2.881632,4.86854 1.651173,3.19782 1.674251,3.48151 0.408728,5.02733 -1.613748,1.97125 -2.210175,2.03039 -3.713587,0.36846 -0.63179,-0.69841 -1.369043,-1.02628 -1.63835,-0.72861 -0.269337,0.29774 -0.489619,-0.11426 -0.489619,-0.91595 0,-0.80147 -0.355907,-1.4572 -0.790911,-1.4572 -0.435004,0 -0.79091,-1.94401 -0.79091,-4.32002 0,-2.37598 -0.408908,-4.59935 -0.90866,-4.94078 -0.664015,-0.45364 -0.764427,0.58123 -0.372917,3.84372 0.429833,3.58186 0.261864,4.81798 -0.848963,6.2523 -0.761586,0.98326 -1.817499,1.78774 -2.346487,1.78774 -0.528987,0 -2.130838,1.18031 -3.559638,2.62297 -3.149714,3.18012 -3.657747,3.23641 -4.284784,0.47465 z m 123.13942,-26.39281 c -1.33805,-2.23305 -2.65782,-5.38613 -2.93287,-7.00683 -0.27501,-1.62073 -1.03386,-3.27695 -1.68625,-3.68057 -0.95083,-0.58819 -1.00589,-1.10615 -0.27739,-2.61066 0.49975,-1.03227 0.59423,-1.87683 0.21013,-1.87683 -0.38423,0 -1.34404,1.58224 -2.13289,3.51607 -1.51143,3.70515 -2.97759,4.54272 -8.23343,4.70338 -2.75405,0.0843 -2.82575,0.003 -2.61157,-2.91385 0.14318,-1.94983 1.25087,-4.34881 3.16366,-6.85129 1.61893,-2.118 3.3037,-4.5055 3.744,-5.30562 1.84895,-3.35998 3.99016,-6.77661 4.92339,-7.856 0.5494,-0.63545 0.99891,-1.81949 0.99891,-2.63122 0,-0.81172 0.6882,-1.95098 1.5293,-2.53166 0.8411,-0.58067 4.46146,-3.67263 8.04521,-6.87107 4.96922,-4.43486 7.2816,-5.92489 9.74135,-6.27699 3.10634,-0.44463 3.17781,-0.40048 1.93665,1.19626 -1.35518,1.74343 -3.92021,6.97335 -3.83358,7.81641 0.0269,0.27162 -0.68046,1.1609 -1.57413,1.97638 -0.96259,0.87835 -1.80953,2.983 -2.0779,5.16361 -0.49103,3.98985 -0.90798,3.59331 5.21521,4.96052 3.0776,0.6872 13.72759,4.41572 14.82977,5.19185 0.54375,0.38289 0.98587,0.96806 0.98247,1.30033 -0.008,0.85044 -4.04483,2.82727 -4.76622,2.33441 -0.32759,-0.22373 -2.11742,0.1867 -3.97736,0.91204 -3.14757,1.22763 -3.49569,1.20595 -5.02747,-0.31294 -0.90514,-0.89747 -2.27299,-1.87666 -3.03963,-2.17592 -2.42516,-0.94675 -0.75022,3.80009 2.7707,7.85232 1.73679,1.99887 2.91734,4.06445 2.62339,4.59017 -1.57543,2.81789 -9.71877,-0.70691 -10.45834,-4.52683 -0.25798,-1.3324 -0.77895,-2.63432 -1.15775,-2.89312 -0.83303,-0.56912 -0.81162,2.03022 0.0365,4.43115 0.72616,2.05577 -1.31404,12.83087 -2.6068,13.76737 -1.49136,1.08045 -1.84024,0.80891 -4.35676,-3.39099 z M 97.673633,149.08614 c 0.54941,-4.27943 14.808187,-9.36023 22.927367,-8.16961 4.138,0.6068 10.94174,3.6509 10.94174,4.89547 0,1.44712 -2.09838,1.38949 -6.10988,-0.16787 -7.18768,-2.7903 -15.09058,-1.83179 -23.40455,2.83855 -4.596237,2.58191 -4.608917,2.58367 -4.354677,0.60337 z m -0.93141,-5.01945 c 0,-1.58538 1.14261,-3.46944 3.756867,-6.19485 8.07811,-8.42145 8.87072,-9.07505 9.7826,-8.06705 0.63843,0.70579 -1.0698,3.06706 -6.33257,8.75335 -6.490467,7.01273 -7.206897,7.56032 -7.206897,5.50855 z m -1.053,-8.90124 c -0.26785,-2.50014 -0.92057,-4.84187 -1.45043,-5.20389 -0.746695,-0.51015 -0.665198,-2.17708 0.36231,-7.41117 1.45481,-7.41087 1.77003,-8.12293 2.99607,-6.76764 0.57747,0.63839 0.45151,3.11332 -0.41573,8.16707 -0.68437,3.9881 -1.08401,7.42828 -0.88808,7.64487 0.19579,0.21644 0.90004,-1.04508 1.56474,-2.80368 1.82954,-4.84043 8.126967,-14.83615 12.298017,-19.52031 6.29978,-7.0748 13.27623,-10.33183 25.53897,-11.92305 3.28806,-0.426691 3.75687,-0.285511 3.75687,1.131451 0,1.337136 -0.86058,1.726629 -4.94327,2.237169 -8.13663,1.01756 -12.93591,2.79499 -17.40818,6.44724 -7.77384,6.34844 -14.35827,15.9694 -18.338887,26.79621 -0.98569,2.68104 -1.97067,5.07185 -2.1888,5.313 -0.21822,0.24123 -0.61576,-1.60714 -0.8836,-4.10727 z m 16.218357,-8.88683 c -0.94585,-1.11297 -1.71968,-2.49882 -1.71968,-3.07965 0,-1.9603 6.26808,-8.5912 9.67166,-10.23144 1.85818,-0.89549 4.6875,-2.74013 6.28737,-4.09921 4.02834,-3.42211 7.72038,-4.78991 8.63232,-3.19813 1.04433,1.82285 0.85823,3.99147 -0.46827,5.45785 -0.65251,0.7213 -1.1864,1.68487 -1.1864,2.14119 0,0.45635 -0.55861,1.34223 -1.24137,1.96859 -0.68275,0.62641 -1.07209,1.85444 -0.86522,2.72898 0.24782,1.04816 -0.39501,2.1971 -1.88658,3.3712 -1.35004,1.06267 -2.08685,2.28782 -1.82666,3.03734 0.31932,0.91992 -0.43601,1.4104 -2.82149,1.83207 -1.79163,0.31657 -3.44864,0.91758 -3.68216,1.33531 -0.23347,0.4177 -1.94316,0.75948 -3.79921,0.75948 -2.50479,0 -3.81785,-0.52158 -5.09431,-2.02358 z m 35.85179,-10.92937 c -2.39395,-0.16688 -4.20231,-0.76994 -4.58709,-1.53005 -0.34939,-0.69012 -1.26146,-1.25476 -2.02681,-1.25476 -0.97,0 -1.76663,-1.29643 -2.62949,-4.27928 -1.38396,-4.78407 -0.85088,-6.64975 1.90012,-6.64975 1.33401,0 1.86573,-0.56952 2.04059,-2.185769 0.12998,-1.202217 0.44382,-2.775994 0.6972,-3.497301 0.2532,-0.721308 0.59643,-2.470287 0.76236,-3.88661 0.2825,-2.410867 1.06815,-4.04816 3.67004,-7.648362 1.19444,-1.652752 8.84446,-5.251561 9.53666,-4.486373 0.58887,0.65099 -0.17846,5.463155 -1.26794,7.951557 -1.3932,3.182088 0.2535,4.146035 6.93498,4.059634 4.287,-0.05553 5.96774,0.246176 6.27313,1.126011 0.22957,0.660928 -0.11061,1.425636 -0.75588,1.699305 -0.64518,0.273621 -1.17306,0.877066 -1.17306,1.340852 0,2.143167 -2.47341,3.516041 -5.36524,2.977921 -2.33456,-0.434372 -2.64655,-0.34938 -1.5162,0.413008 0.78274,0.527957 3.33403,1.177957 5.66945,1.444397 3.08476,0.35194 4.13609,0.80175 3.84359,1.6444 -0.24751,0.71324 0.38439,1.37831 1.6411,1.72697 1.12407,0.31195 1.86602,0.88492 1.64882,1.27343 -0.21733,0.38848 0.0269,0.86191 0.54322,1.05206 1.41208,0.52033 0.15693,3.23308 -1.89941,4.10489 -0.98838,0.41909 -2.1031,0.44516 -2.47706,0.0578 -0.374,-0.38722 -1.70113,-0.31062 -2.94917,0.17052 -1.24803,0.48094 -2.71844,0.70889 -3.26755,0.50654 -0.54913,-0.20223 -1.46807,0.15139 -2.04208,0.78585 -0.8643,0.95544 -1.49043,0.66695 -3.64297,-1.67839 -1.42965,-1.55766 -3.22855,-3.91407 -3.99761,-5.2365 -0.76906,-1.3224 -1.75422,-2.40437 -2.18922,-2.40437 -0.435,0 -0.16113,1.06243 0.60847,2.36099 1.82396,3.07722 2.3951,8.42542 1.01463,9.5015 -0.57514,0.44831 -2.82406,0.69127 -4.99758,0.53985 z m -50.742037,-2.59922 c -2.69205,-0.45041 -3.652636,-4.20086 -2.71838,-10.61364 0.69001,-4.736378 1.46778,-6.85434 3.23419,-8.807007 0.21762,-0.240574 1.0178,-1.924677 1.77839,-3.742789 1.558617,-3.725586 2.998577,-4.682827 5.094137,-3.3864 1.14897,0.710825 1.44889,2.06512 1.51678,6.849135 0.0467,3.279724 0.3041,7.812111 0.57234,10.071971 0.44253,3.72855 0.27351,4.3455 -1.82545,6.66587 -2.35511,2.60343 -4.60151,3.47323 -7.652007,2.96286 z m 22.661607,-5.86869 c 0,-0.24057 0.17786,-0.43716 0.39546,-0.43716 0.21762,0 0.39545,0.19662 0.39545,0.43716 0,0.24056 -0.17786,0.43719 -0.39545,0.43719 -0.21762,0 -0.39546,-0.19663 -0.39546,-0.43719 z M 103.73227,60.783668 c -3.749367,-0.691798 -8.571897,-5.410152 -8.571897,-8.386729 0,-0.887548 -0.96794,-2.172021 -2.150978,-2.854377 -1.183055,-0.68234 -2.784695,-1.929174 -3.559165,-2.770697 -0.77447,-0.841523 -2.081873,-1.530057 -2.905369,-1.530057 -0.823463,0 -1.702081,-0.590162 -1.952466,-1.311502 -0.7406,-2.133453 -3.62594,-1.501667 -5.722849,1.253139 -1.07367,1.410529 -3.275145,3.04475 -4.892182,3.631632 -1.617036,0.586882 -4.253246,1.820817 -5.858236,2.742083 -3.263456,1.873211 -10.137937,2.677063 -10.121945,1.183622 0.006,-0.517861 2.261143,-3.597337 5.012411,-6.84323 4.457567,-5.25894 5.339383,-5.911418 8.096868,-5.991146 2.983449,-0.08626 3.009367,-0.112341 0.721739,-0.722508 -3.906098,-1.042073 -5.797912,-2.546029 -7.142412,-5.678172 -0.701053,-1.6331 -2.645687,-4.660663 -4.321433,-6.727928 -2.857927,-3.525627 -4.312256,-7.300869 -3.424341,-8.889086 0.566563,-1.013362 3.43854,0.140108 6.349408,2.550261 1.393765,1.153969 3.646059,2.343987 5.005117,2.644477 1.561317,0.345155 2.721467,1.274471 3.1513,2.524186 0.374141,1.087842 1.118599,2.277401 1.654372,2.64344 0.708406,0.483982 0.805109,0.209176 0.354532,-1.007972 -0.340782,-0.920402 -0.808609,-2.46038 -1.039592,-3.422119 -0.231073,-0.961754 -0.768043,-2.240467 -1.193481,-2.841558 -0.57326,-0.80997 -0.269037,-1.092903 1.174768,-1.092903 2.283083,0 8.527359,6.329229 8.527359,8.64339 0,1.888366 2.059364,5.10931 2.766754,4.327334 0.287869,-0.318237 -0.07384,-1.586211 -0.803946,-2.817826 -1.680946,-2.835941 -1.879168,-8.24867 -0.341497,-9.324027 0.630803,-0.441153 1.858751,-0.807392 2.72876,-0.813902 2.13033,-0.01651 5.931922,6.710417 5.931922,10.495695 0,1.592548 0.266944,2.600536 0.593167,2.239874 0.32625,-0.360614 0.605306,-5.170138 0.620129,-10.687831 0.0209,-7.838439 0.280394,-10.209429 1.186369,-10.842806 1.833137,-1.2816218 2.989377,-0.979524 3.535867,0.923911 0.27801,0.968751 0.836,1.535707 1.23967,1.259879 0.75155,-0.513423 0.80642,-0.380515 1.1145,2.698566 0.0984,0.981938 0.599237,2.654089 1.113277,3.715863 0.67678,1.397975 0.70108,2.412923 0.0882,3.679185 -0.58046,1.198968 -0.58722,1.74861 -0.0209,1.74861 0.45384,0 1.39478,-1.573777 2.09102,-3.497269 0.69622,-1.923488 1.51668,-3.497264 1.82327,-3.497264 0.30658,0 1.03397,-1.342658 1.61644,-2.98368 1.02716,-2.893897 4.26234,-5.7408021 5.26462,-4.632832 0.27173,0.300711 0.4582,2.23557 0.41405,4.300066 -0.1967,9.201949 -0.0269,8.792685 -4.9839,11.993449 -2.54222,1.641471 -4.62224,3.311474 -4.62224,3.711136 0,0.973596 1.37603,0.927795 1.93065,-0.06417 0.24303,-0.43498 2.41401,-2.021047 4.82399,-3.524571 3.87838,-2.419637 4.51699,-2.584293 5.55819,-1.433334 1.2521,1.384125 1.07604,4.347387 -0.44496,7.489068 -0.50423,1.041514 -0.73665,2.412579 -0.51649,3.046814 0.27591,0.794842 -0.62676,1.330338 -2.90503,1.723278 -1.81796,0.313597 -4.19514,1.162529 -5.28265,1.88659 -1.9773,1.316511 -1.9773,1.316511 0,0.892205 1.08751,-0.233294 3.40093,-0.835746 5.14098,-1.33858 1.74001,-0.502881 5.57491,-0.923683 8.52198,-0.935189 5.03175,-0.01984 5.4053,0.116022 6.12964,2.221903 1.42267,4.136449 0.9792,5.480502 -2.12039,6.426573 -1.59046,0.485438 -3.17421,0.689654 -3.51946,0.453784 -0.34525,-0.23595 -1.01178,0.364391 -1.48116,1.333938 -1.27584,2.635247 -3.85435,2.921719 -8.91472,0.990384 -2.5013,-0.954633 -4.54782,-1.393966 -4.54782,-0.976317 0,0.417697 1.3347,1.230943 2.96598,1.807182 3.32362,1.1741 5.11777,2.577588 3.32185,2.598536 -0.70487,0.0064 -0.83152,0.261059 -0.32863,0.655743 1.7184,1.349109 4.21865,5.608095 3.87441,6.599823 -0.40571,1.168674 -5.5591,1.362312 -10.75272,0.40403 z"
       id="path1" /></g></svg>
