<?xml version="1.0" encoding="UTF-8" standalone="no"?>
<!-- Created with Inkscape (http://www.inkscape.org/) -->

<svg
   width="180mm"
   height="180mm"
   viewBox="0 0 180 180"
   version="1.1"
   id="svg1"
   sodipodi:docname="cat.svg"
   inkscape:version="1.4.2 (f4327f4, 2025-05-13)"
   xml:space="preserve"
   xmlns:inkscape="http://www.inkscape.org/namespaces/inkscape"
   xmlns:sodipodi="http://sodipodi.sourceforge.net/DTD/sodipodi-0.dtd"
   xmlns="http://www.w3.org/2000/svg"
   xmlns:svg="http://www.w3.org/2000/svg"><sodipodi:namedview
     id="namedview1"
     pagecolor="#505050"
     bordercolor="#ffffff"
     borderopacity="1"
     inkscape:showpageshadow="0"
     inkscape:pageopacity="0"
     inkscape:pagecheckerboard="1"
     inkscape:deskcolor="#505050"
     inkscape:document-units="mm"
     inkscape:zoom="1"
     inkscape:cx="482"
     inkscape:cy="226"
     inkscape:window-width="2560"
     inkscape:window-height="1351"
     inkscape:window-x="-9"
     inkscape:window-y="-9"
     inkscape:window-maximized="1"
     inkscape:current-layer="layer1"
     showguides="true" /><defs
     id="defs1"><rect
       x="101.82338"
       y="91.923881"
       width="384.66609"
       height="299.81327"
       id="rect3" /><rect
       x="2.8284271"
       y="2.1213203"
       width="662.55905"
       height="647.0027"
       id="rect2" /></defs><g
     inkscape:label="Icon"
     inkscape:groupmode="layer"
     id="layer1"><path
       style="fill:#000000;stroke-width:2.63167"
       d="m 18.063192,175.6384 c -1.634351,-4.07974 0.9784,-8.99388 5.640449,-10.60872 l 2.444723,-0.84681 0.187952,-20.70845 0.187952,-20.70847 4.213249,3.5321 c 2.317271,1.94263 5.438676,4.3089 6.936459,5.25835 l 2.72321,1.72627 v 13.76563 13.76564 l -2.612106,1.6475 c -4.160816,2.62433 -5.464731,4.83599 -5.79686,9.83263 l -0.293975,4.42228 h -6.599597 c -5.361693,0 -6.680612,-0.20219 -7.031429,-1.07795 z m 19.732482,0.0232 c -0.692519,-1.72874 0.255712,-6.45119 1.576003,-7.84865 0.676144,-0.71571 2.268629,-1.66126 3.538825,-2.10124 2.135288,-0.73961 2.328806,-1.06151 2.565911,-4.26805 0.141166,-1.90745 0.09626,-9.74467 -0.09922,-17.41604 l -0.355711,-13.94794 -4.624297,-3.04383 c -2.543378,-1.67412 -7.185475,-5.52846 -10.315754,-8.56524 -12.5558,-12.18069 -15.441686,-21.694085 -12.902019,-42.531833 0.611235,-5.015051 1.233171,-9.23499 1.382108,-9.377657 0.148963,-0.142692 1.649758,0.20657 3.335197,0.77631 4.721258,1.595632 9.944017,1.946001 15.537088,1.042325 2.803715,-0.452985 5.096812,-1.025918 5.095737,-1.273158 -10e-4,-0.247265 -2.482153,-0.480956 -5.513588,-0.519359 C 30.182131,66.500675 25.406128,64.841707 18.376392,60.112736 8.8091666,53.676787 6.9734186,48.55276 10.100417,37.01259 c 1.773715,-6.545853 1.896328,-7.800002 1.439085,-14.718891 -0.503465,-7.618108 -0.01344,-15.5658257 1.061406,-17.232521 0.471036,-0.7301016 0.900853,-0.7390135 2.272124,-0.047135 1.888584,0.9528205 11.690978,8.638618 13.577303,10.64556 1.08012,1.14919 2.261799,1.28856 10.671465,1.258554 l 9.45682,-0.03374 6.351871,-5.996049 c 3.493518,-3.2977953 7.242936,-6.4374177 8.332037,-6.9769191 1.803885,-0.8935542 2.043813,-0.8670247 2.694601,0.2977998 1.407329,2.5189099 2.181375,7.4628983 3.375342,21.5589383 2.037708,24.057372 2.088743,23.802817 -6.359373,31.714321 -4.656859,4.361086 -4.943036,4.777728 -3.011565,4.38437 1.173855,-0.239023 3.967352,-1.322817 6.207748,-2.408336 l 4.073454,-1.97369 0.822069,1.519444 c 1.704961,3.151367 9.998655,13.360607 11.743357,14.455656 0.999884,0.627564 5.680594,2.34294 10.401529,3.811926 4.720957,1.468986 10.69661,3.797682 13.27922,5.174897 12.07874,6.441204 23.28986,21.170505 27.18063,35.710225 1.34828,5.03849 1.57813,8.15187 1.87027,25.33275 l 0.3331,19.58828 1.88444,-0.3948 c 4.26722,-0.89404 10.79526,-4.51799 13.5619,-7.52878 4.11812,-4.48145 5.96443,-9.54786 5.92568,-16.26038 -0.0454,-7.86507 -1.90598,-12.64931 -9.34082,-24.01902 -7.23247,-11.06025 -10.45372,-17.919688 -12.04222,-25.643399 -3.72853,-18.128779 8.81853,-35.306412 26.58671,-36.398705 4.83825,-0.297439 5.30069,-0.202448 7.01578,1.440396 1.35165,1.294742 1.8361,2.466289 1.8361,4.440211 0,3.993022 -1.64083,5.443592 -7.47001,6.603883 -5.8038,1.155192 -9.6928,3.504364 -12.78592,7.72335 -2.05532,2.803445 -2.15413,3.255966 -2.15413,9.862451 0,6.348196 0.1858,7.299677 2.23273,11.438147 1.22801,2.482696 4.72075,8.309366 7.76165,12.948166 6.6403,10.1296 8.41052,13.69379 10.28133,20.70057 1.73252,6.48895 1.87963,16.09355 0.33358,21.77933 -1.57648,5.79773 -4.99899,11.50481 -9.46475,15.7826 -4.45304,4.26555 -8.24056,6.55731 -14.97237,9.05951 l -4.70934,1.75048 -33.72702,0.2143 c -27.147431,0.17257 -33.841865,0.0409 -34.315671,-0.67473 -0.988188,-1.49242 -0.677838,-5.60465 0.549713,-7.28342 1.923163,-2.63013 5.218484,-3.48703 13.409544,-3.48703 h 7.501069 l -3.327938,-3.9138 c -11.066433,-13.01464 -10.644038,-28.20794 1.00943,-36.30824 3.92903,-2.73105 7.66151,-3.68557 14.199373,-3.63119 3.21754,0.0268 5.70883,-0.17026 5.53618,-0.43787 -0.8933,-1.38453 -8.58119,-2.8871 -13.164513,-2.57297 -12.280082,0.84163 -20.410642,9.34195 -21.182161,22.14537 -0.388542,6.4479 0.459502,10.40473 3.435546,16.02978 l 2.073175,3.91856 H 79.13102 c -3.704783,0 -8.073341,1.90131 -10.133878,4.41059 -0.778053,0.94749 -1.654894,1.72271 -1.948519,1.72271 -0.713089,0 -0.04006,-7.19696 2.115363,-22.61548 2.597344,-18.58078 3.561063,-30.75006 2.574999,-32.51499 -1.002465,-1.79427 -3.309384,-1.85586 -4.282406,-0.11436 -0.405052,0.72497 -0.736456,3.28646 -0.736456,5.69214 0,7.10429 -6.029045,51.2886 -7.563235,55.42792 -0.261089,0.70419 -1.122927,1.97029 -1.915392,2.81362 -1.346533,1.43292 -2.016466,1.53332 -10.232076,1.53332 -7.278429,0 -8.863896,-0.18158 -9.213719,-1.05469 z M 35.447213,48.227297 c 2.845822,-2.812537 2.242627,-3.69754 -2.520093,-3.69754 -4.555918,0 -5.155107,0.766393 -2.856309,3.653393 1.076921,1.352488 2.177396,2.459077 2.445476,2.459077 0.268081,0 1.587,-1.08673 2.930926,-2.41493 z M 25.76649,40.436928 c 2.166533,-0.789033 2.366343,-2.632781 0.521776,-4.814818 -0.9752,-1.153646 -2.094067,-1.558465 -4.446428,-1.608819 -2.746146,-0.05873 -3.172144,0.12698 -3.371282,1.47048 -0.147888,0.997405 0.520431,2.254645 1.901706,3.577771 2.344777,2.246068 2.732244,2.344871 5.394228,1.375386 z m 23.933981,-1.327401 c 2.858461,-2.7381 2.746523,-4.551249 -0.31492,-5.101414 -1.316983,-0.236704 -2.997744,-0.224084 -3.735033,0.02782 -3.86461,1.320524 -5.227223,5.20887 -2.229775,6.36298 2.742247,1.055848 4.128684,0.771209 6.279728,-1.289307 z M 64.28266,20.145996 C 64.023452,16.86636 63.633001,13.309581 63.415203,12.242014 l -0.396018,-1.941032 -2.417996,2.244962 c -3.451545,3.204529 -6.510433,7.598713 -5.511947,7.918019 0.450574,0.143981 2.53152,1.446913 4.624324,2.895191 2.092803,1.448252 4.083053,2.659439 4.422819,2.691506 0.339739,0.03194 0.405563,-2.625028 0.146275,-5.904664 z m -44.700336,1.874089 c 1.659949,-0.937057 3.020546,-2.028655 3.023584,-2.425773 0.0027,-0.397144 -1.580707,-2.390487 -3.519385,-4.429625 l -3.52487,-3.707585 -0.03227,6.360507 c -0.01882,3.49826 0.20785,6.258253 0.501287,6.133333 0.293463,-0.124921 1.891703,-0.993826 3.551678,-1.930857 z"
       id="path1" /></g></svg>
