<?xml version="1.0" encoding="UTF-8" standalone="no"?>
<!-- Created with Inkscape (http://www.inkscape.org/) -->

<svg
   width="180mm"
   height="240mm"
   viewBox="0 0 180 240"
   version="1.1"
   id="svg1"
   sodipodi:docname="deer.svg"
   inkscape:version="1.4.2 (f4327f4, 2025-05-13)"
   xml:space="preserve"
   xmlns:inkscape="http://www.inkscape.org/namespaces/inkscape"
   xmlns:sodipodi="http://sodipodi.sourceforge.net/DTD/sodipodi-0.dtd"
   xmlns="http://www.w3.org/2000/svg"
   xmlns:svg="http://www.w3.org/2000/svg"><sodipodi:namedview
     id="namedview1"
     pagecolor="#505050"
     bordercolor="#ffffff"
     borderopacity="1"
     inkscape:showpageshadow="0"
     inkscape:pageopacity="0"
     inkscape:pagecheckerboard="1"
     inkscape:deskcolor="#505050"
     inkscape:document-units="mm"
     inkscape:zoom="1"
     inkscape:cx="482"
     inkscape:cy="466"
     inkscape:window-width="2560"
     inkscape:window-height="1351"
     inkscape:window-x="-9"
     inkscape:window-y="-9"
     inkscape:window-maximized="1"
     inkscape:current-layer="layer1"
     showguides="true" /><defs
     id="defs1"><rect
       x="101.82338"
       y="91.923882"
       width="384.66608"
       height="299.81326"
       id="rect3" /><rect
       x="2.8284271"
       y="2.1213202"
       width="662.55902"
       height="647.00269"
       id="rect2" /></defs><g
     inkscape:label="Icon"
     inkscape:groupmode="layer"
     id="layer1"><path
       style="fill:#000000;stroke-width:3.13399"
       d="m 103.32722,234.47327 c -0.17538,-0.5786 -0.54644,-2.46194 -0.82419,-4.18518 -0.27759,-1.72321 -1.09091,-3.47091 -1.80703,-3.88376 -1.167366,-0.67301 -1.196731,-1.75798 -0.28377,-10.48876 0.75985,-7.26681 0.79582,-11.51386 0.14173,-16.73559 -0.48209,-3.84864 -1.097426,-9.26985 -1.367453,-12.04717 -0.270181,-2.77729 -1.232459,-9.59433 -2.138754,-15.14894 -0.906296,-5.55461 -1.45833,-11.33013 -1.226716,-12.8345 0.231584,-1.50439 0.09078,-2.73523 -0.313008,-2.73523 -1.345163,0 -2.568513,6.85167 -1.99298,11.16237 l 0.560834,4.2007 -9.690458,-0.44093 c -8.779129,-0.39946 -10.671694,-0.79385 -20.125287,-4.19383 -5.739174,-2.06408 -10.636833,-3.9609 -10.88364,-4.21518 -0.246714,-0.25415 0.129069,-2.21567 0.8354,-4.35872 1.43545,-4.35549 1.724405,-12.71567 0.467182,-13.51613 -0.489537,-0.31173 -0.820517,0.76468 -0.825828,2.68558 -0.01235,4.11472 -1.909332,10.5401 -4.406393,14.91712 -3.583992,6.28227 -6.980587,10.1004 -15.785715,17.74485 -9.605018,8.3389 -13.606973,13.14915 -14.896648,17.90543 -0.467491,1.7241 -1.273588,7.30072 -1.791317,12.39245 l -0.941311,9.25766 2.984066,6.64101 c 1.641251,3.65254 2.984097,6.79429 2.984097,6.98171 0,0.18736 -2.48156,0.22871 -5.514598,0.0919 l -5.514599,-0.24875 -0.248258,-3.98176 c -0.175077,-2.80518 -0.7229429,-4.32418 -1.8544309,-5.14062 -1.4388152,-1.03817 -1.5200548,-1.58754 -0.7801907,-5.2759 0.9991455,-4.98097 3.2865766,-27.47955 3.3040226,-32.49742 0.01544,-4.21301 0.238377,-4.61918 4.256419,-7.72693 1.745401,-1.34997 3.972404,-4.30984 5.221413,-6.93969 2.078636,-4.3767 2.15194,-4.97706 1.607779,-13.17129 -0.313564,-4.72205 -0.824994,-11.04726 -1.136521,-14.05602 l -0.566392,-5.47045 -2.343629,3.15604 c -1.289027,1.7358 -2.667661,3.15604 -3.06367,3.15604 -1.299772,0 -0.717138,-7.92043 0.842966,-11.45941 1.906151,-4.32409 5.026049,-6.73538 14.36805,-11.10486 10.105426,-4.72654 15.655225,-5.50973 30.531124,-4.30857 14.64802,1.18278 21.829992,0.5843 31.574023,-2.63113 4.12877,-1.36243 8.345261,-2.47714 9.370001,-2.47714 4.0354,0 8.35947,-2.05236 10.98736,-5.21502 2.16071,-2.60043 11.15685,-22.335812 11.09691,-24.34406 -0.009,-0.28787 -1.52474,-0.772254 -3.36926,-1.076092 -5.26807,-0.867776 -7.87917,-2.72067 -10.52083,-7.465747 -2.59658,-4.664091 -3.1266,-7.355338 -1.44382,-7.331259 3.24891,0.04644 12.90275,2.792908 16.35646,4.653277 4.19553,2.259919 5.64611,2.15899 4.16496,-0.289778 -1.32358,-2.188286 -6.62425,-5.043825 -12.9644,-6.984066 C 96.03184,59.218295 92.194681,57.05622 81.071645,45.555273 74.963018,39.239096 73.186368,37.898005 69.291158,36.662997 66.768284,35.863101 63.459537,34.35915 61.93837,33.320911 58.795962,31.176107 55.224723,24.504944 55.662169,21.596857 c 0.256595,-1.705969 0.607676,-1.428946 2.869139,2.264277 2.717282,4.43755 6.224234,7.153639 9.236584,7.153639 1.992301,0 1.997365,0.09924 -0.431641,-8.416066 -1.448326,-5.07732 -1.111665,-13.9876 0.648558,-17.1651395 0.836666,-1.5103452 1.052348,-0.6560882 1.46537,5.8034515 0.533292,8.340584 2.768107,14.194325 6.908055,18.09456 l 2.233364,2.104024 -0.555925,-8.626481 c -0.335951,-5.213016 -0.252889,-8.626481 0.20997,-8.626481 0.421204,0 0.99649,0.946788 1.278435,2.104024 0.524955,2.154632 2.114917,2.945081 2.11609,1.052012 0.0011,-1.74468 4.544571,-11.0678702 5.997313,-12.3063775 1.907139,-1.6259383 1.787951,-0.3091814 -0.698025,7.7095935 -3.806158,12.277209 -2.357493,24.201912 3.986794,32.817833 2.871794,3.900013 9.66545,9.020084 11.9685,9.020084 1.40485,0 1.40445,-0.159362 -0.009,-3.997634 -0.81001,-2.198688 -1.73585,-6.173006 -2.05744,-8.831744 -0.61923,-5.119275 0.0729,-12.418853 1.17739,-12.418853 0.36189,0 1.05708,3.184792 1.54485,7.077298 0.48778,3.892505 1.67232,8.798662 2.63231,10.902528 2.36728,5.188014 7.68741,10.026004 13.48062,12.258855 6.03415,2.325731 7.97621,1.596197 10.32753,-3.879655 1.66404,-3.875266 1.72756,-8.691245 0.20318,-15.418137 l -0.47673,-2.104024 1.67565,1.96098 c 3.35105,3.921579 4.35801,13.468098 2.10124,19.92083 -1.07622,3.077183 -1.04799,3.547222 0.32826,5.470445 2.48369,3.470753 4.28066,2.721433 6.05503,-2.524823 1.18796,-3.512423 1.47867,-6.151217 1.20537,-10.940889 -0.69614,-12.19861 -5.74914,-19.432756 -15.51658,-22.21434 -6.62682,-1.887184 -11.21338,-4.687789 -14.85521,-9.070723 -4.18231,-5.033392 -3.84142,-8.226677 0.38363,-3.593726 2.68415,2.9433 9.5185,6.843312 13.23214,7.550899 2.76638,0.527103 3.06367,0.408075 3.06367,-1.226643 0,-2.512163 -2.84097,-8.013907 -7.06006,-13.6723425 -1.95837,-2.6264204 -3.56065,-5.0031735 -3.56065,-5.2816595 0,-0.278645 1.02258,0.038489 2.27242,0.7041831 3.35973,1.7897855 9.26459,8.6547279 12.38817,14.4024499 3.15494,5.805392 5.5916,8.836865 7.10295,8.836865 3.30998,0 3.70321,-9.96525 0.71587,-18.14116 -2.19711,-6.0132621 -1.36687,-6.9325363 1.84727,-2.0454013 3.45196,5.2486743 4.49705,10.9669733 3.85495,21.0924443 -0.67011,10.567136 0.44652,17.609507 2.79213,17.609507 1.54707,0 4.98844,-3.467763 6.68165,-6.732872 0.60008,-1.157204 1.28838,-5.512527 1.52954,-9.678493 0.40024,-6.914564 0.53502,-7.399648 1.54704,-5.567907 0.60978,1.103574 1.29959,4.175636 1.53293,6.826771 0.59202,6.72562 -1.38289,12.369773 -6.26243,17.897441 -4.41269,4.998848 -5.77434,7.318059 -5.77434,9.835152 0,1.678614 0.11826,1.698908 2.90681,0.498667 5.37633,-2.31409 7.8615,-4.800265 10.47247,-10.476704 l 2.55174,-5.547676 0.25228,3.133261 c 0.14975,1.858111 -0.43631,4.736807 -1.43962,7.073322 -0.93051,2.167038 -1.51104,4.126332 -1.29005,4.353956 0.22109,0.227751 1.84477,-0.569791 3.60842,-1.772131 2.22311,-1.51553 3.98948,-3.811998 5.75897,-7.487218 l 2.5523,-5.30119 -0.31014,4.397757 c -0.36368,5.156746 -3.3307,10.374851 -7.3266,12.885233 -1.44237,0.906169 -5.39792,2.601419 -8.79012,3.767275 -6.30329,2.166306 -9.76343,4.110714 -9.76343,5.486476 0,0.424775 1.19485,1.405217 2.65519,2.178807 1.46034,0.773558 4.35575,2.976476 6.4342,4.89531 2.15321,1.987827 6.32153,4.543186 9.68876,5.939593 3.25033,1.347929 6.093,2.942854 6.31702,3.544263 0.66811,1.793507 -0.44819,5.000056 -2.7007,7.757688 -1.90102,2.327385 -2.58376,2.590603 -6.74029,2.598778 -2.54372,0.0064 -6.46317,0.601791 -8.70987,1.326109 -2.24667,0.724345 -6.31925,1.383012 -9.05015,1.463712 -4.30085,0.12723 -5.36669,-0.16859 -7.96549,-2.210551 -2.92568,-2.298631 -3.52832,-2.143563 -2.49101,0.641043 0.8044,2.159498 6.41997,4.661828 10.46172,4.661828 2.97684,0 3.59094,0.24811 3.20176,1.29277 -0.26493,0.71103 0.27852,3.45679 1.20751,6.10166 0.92902,2.6449 1.9512,6.89186 2.27153,9.43774 0.53477,4.25029 0.47153,4.53437 -0.7734,3.47377 -1.23851,-1.05513 -1.35622,-0.69101 -1.36039,4.20805 -0.003,5.38097 -1.54262,13.01912 -2.2228,11.0387 -0.46264,-1.34704 -1.85752,-0.50194 -1.85752,1.1254 0,0.67717 -1.10836,3.74933 -2.463,6.82702 -2.26279,5.14094 -2.55382,5.46787 -3.5802,4.02194 -1.03613,-1.45974 -1.27213,-1.25883 -3.25431,2.7707 -3.85784,7.84265 -9.16216,12.37995 -18.95801,16.2166 l -1.97646,0.7741 2.45285,-5.00556 c 1.34908,-2.75305 2.45284,-5.46112 2.45284,-6.01787 0,-1.77499 -4.00615,2.79017 -5.80183,6.61139 -1.91075,4.06609 -3.9871,16.51803 -3.99608,23.96469 -0.003,2.63138 -0.60002,8.40754 -1.3263,12.83593 -1.75287,10.68804 -1.0877,16.96038 2.59927,24.50937 1.54336,3.16002 2.80611,6.2406 2.80611,6.84576 0,1.50548 -9.71806,1.55157 -10.17419,0.0483 z m 20.41023,-82.41249 c 0.65171,-3.97361 -0.0982,-10.00434 -1.48705,-11.9573 -0.79312,-1.11538 -0.98772,0.52344 -0.98772,8.31911 0,7.65552 0.20349,9.42126 0.96216,8.3514 0.52918,-0.74617 1.20985,-2.86712 1.51261,-4.71321 z m 23.26001,-69.660394 c 0,-1.251613 -3.44816,-3.414134 -5.44392,-3.414134 -2.08546,0 -3.07293,1.220726 -2.41539,2.985924 0.51347,1.378434 7.85931,1.778684 7.85931,0.42821 z m -23.64935,-6.020769 c -2.4228,-2.083667 -8.90409,-4.536157 -9.73251,-3.68279 -0.77136,0.794615 1.95318,3.014742 6.69583,5.456099 5.74096,2.955291 7.40506,1.983501 3.03668,-1.773309 z m -0.45146,156.011833 c -2.69888,-0.68338 -3.67641,-1.976 -3.67641,-4.86147 0,-1.50672 -0.53941,-3.2007 -1.19871,-3.76435 -0.95132,-0.81335 -1.18855,-3.3966 -1.14943,-12.51676 0.0278,-6.32057 -0.32298,-13.95363 -0.77797,-16.96239 -0.45501,-3.00873 -1.07032,-8.74252 -1.36736,-12.74177 l -0.54005,-7.2713 4.60024,-2.16959 c 2.53013,-1.19324 5.63731,-2.93025 6.90484,-3.86003 l 2.30457,-1.69047 -1.09412,5.24008 c -1.56597,7.49997 -3.19824,26.5195 -3.13179,36.49223 0.055,8.23832 0.17415,8.78037 3.50087,15.92259 2.63845,5.66448 3.19842,7.55443 2.39408,8.0802 -1.12204,0.73338 -4.10033,0.77871 -6.76876,0.10306 z M 49.123661,230.3073 c -0.539189,-0.55548 -0.980372,-1.85951 -0.980372,-2.89791 0,-1.0384 -0.731713,-2.41594 -1.626028,-3.06124 -1.040244,-0.75056 -2.494374,-4.17876 -4.036322,-9.5158 -1.325647,-4.58841 -4.086498,-12.60655 -6.135243,-17.81807 -2.048715,-5.21156 -3.72495,-9.67083 -3.72495,-9.90952 0,-0.23857 4.433627,-4.98263 9.852505,-10.54208 l 9.852535,-10.10813 4.853041,1.40274 c 2.669205,0.77152 4.853072,1.67711 4.853072,2.01244 0,1.15705 -6.002314,8.86492 -11.571104,14.85897 -6.789761,7.3083 -6.916978,8.33562 -2.63385,21.26641 3.340057,10.08364 4.634426,12.92009 8.809513,19.30504 1.619481,2.47667 2.944512,4.84369 2.944512,5.26003 0,1.13691 -9.327149,0.91132 -10.457309,-0.25288 z"
       id="path1" /></g></svg>
