<?xml version="1.0" encoding="UTF-8" standalone="no"?>
<!-- Created with Inkscape (http://www.inkscape.org/) -->

<svg
   width="240mm"
   height="180mm"
   viewBox="0 0 240 180"
   version="1.1"
   id="svg1"
   sodipodi:docname="duck.svg"
   inkscape:version="1.4.2 (f4327f4, 2025-05-13)"
   xml:space="preserve"
   xmlns:inkscape="http://www.inkscape.org/namespaces/inkscape"
   xmlns:sodipodi="http://sodipodi.sourceforge.net/DTD/sodipodi-0.dtd"
   xmlns="http://www.w3.org/2000/svg"
   xmlns:svg="http://www.w3.org/2000/svg"><sodipodi:namedview
     id="namedview1"
     pagecolor="#505050"
     bordercolor="#ffffff"
     borderopacity="1"
     inkscape:showpageshadow="0"
     inkscape:pageopacity="0"
     inkscape:pagecheckerboard="1"
     inkscape:deskcolor="#505050"
     inkscape:document-units="mm"
     inkscape:zoom="1"
     inkscape:cx="482"
     inkscape:cy="466"
     inkscape:window-width="2560"
     inkscape:window-height="1351"
     inkscape:window-x="-9"
     inkscape:window-y="-9"
     inkscape:window-maximized="1"
     inkscape:current-layer="layer1"
     showguides="true" /><defs
     id="defs1"><rect
       x="101.82338"
       y="91.923882"
       width="384.66608"
       height="299.81326"
       id="rect3" /><rect
       x="2.8284271"
       y="2.1213202"
       width="662.55902"
       height="647.00269"
       id="rect2" /></defs><g
     inkscape:label="Icon"
     inkscape:groupmode="layer"
     id="layer1"><path
       style="fill:#000000;stroke-width:1.26264"
       d="m 91.639305,169.13565 c -16.004264,-0.22214 -17.881845,-0.31098 -21.311337,-1.00832 -9.729386,-1.97837 -17.774883,-5.50454 -25.292089,-11.08498 -4.523696,-3.3582 -7.611148,-6.22508 -12.276654,-11.39957 -3.614572,-4.0089 -11.665127,-14.44814 -12.485709,-16.19034 -0.273255,-0.58014 -0.234853,-0.63946 0.265437,-0.40994 2.23169,1.02384 9.166602,3.42653 11.240574,3.89446 5.001884,1.1285 11.516803,1.65226 11.895337,0.95633 0.210547,-0.38709 0.402296,-0.31869 -5.627293,-2.00757 -9.740865,-2.72842 -18.90492,-7.01043 -24.797201,-11.5868 -3.8794276,-3.01304 -7.2129933,-7.21346 -9.0951593,-11.46023 -1.3052557,-2.94508 -1.768858,-6.15492 -0.9410907,-6.51585 0.2808145,-0.12248 2.2394076,0.49809 4.3524325,1.37895 4.8465345,2.0204 7.7556345,2.93533 11.5202015,3.62316 5.043507,0.92149 9.357995,0.54674 10.02568,-0.87082 0.329448,-0.69948 -0.01066,-1.10626 -3.698151,-4.42196 -3.236014,-2.909797 -4.885055,-5.698372 -3.814387,-6.450252 0.175628,-0.123285 1.832747,0.09959 3.682468,0.49532 10.367898,2.218295 19.613246,2.051015 29.845611,-0.539982 4.839629,-1.225471 8.880045,-2.642148 19.117528,-6.703103 12.60795,-5.001272 19.093979,-6.898276 28.832967,-8.432892 4.0189,-0.633282 20.46747,-0.647899 24.28866,-0.02154 8.084,1.325004 14.6639,3.434031 22.96054,7.359456 6.95559,3.290934 9.60127,1.956507 9.53667,-4.810124 -0.0192,-2.015581 -0.43121,-4.460051 -1.65042,-9.792957 -4.34535,-19.006859 -5.03288,-24.860119 -3.90918,-33.280786 1.07961,-8.090327 3.75149,-14.383193 8.44249,-19.883974 4.97849,-5.837885 10.81412,-8.75929 18.36833,-9.195445 7.90508,-0.456414 15.29348,2.655624 20.58825,8.671891 2.50676,2.848337 4.08795,5.665031 6.07514,10.822081 1.5753,4.088137 1.8892,4.62861 4.46902,7.694865 4.76742,5.666331 9.00703,8.723726 15.25108,10.99831 5.83318,2.124915 7.87231,3.529395 9.11736,6.279738 0.99132,2.18984 0.67859,5.167706 -0.626,5.961046 -0.47316,0.287731 -0.94438,0.237312 -1.91768,-0.205188 -1.05042,-0.477572 -1.70872,-0.527925 -3.54027,-0.270791 -1.23744,0.173727 -4.29486,0.303377 -6.79424,0.288111 -5.63597,-0.03444 -9.22623,-0.896622 -18.36082,-4.409343 -6.0712,-2.334691 -6.33287,-2.402462 -7.36495,-1.907528 -0.58855,0.282242 -2.76246,1.077389 -4.83091,1.766993 -2.06845,0.689604 -4.2869,1.641303 -4.92989,2.114886 -3.57399,2.632372 -3.34678,9.635642 0.54267,16.726356 0.80901,1.474871 3.87964,6.320474 6.82364,10.767993 6.62835,10.013541 8.85275,13.845652 11.03165,19.004829 6.01153,14.23411 6.43711,28.17728 1.23676,40.51923 -6.08815,14.44893 -17.68788,22.22021 -34.58447,23.16999 -7.58668,0.42645 -60.29709,0.66292 -81.662595,0.36634 z m -15.987835,-8.5679 c -0.108856,-0.20024 -1.069199,-0.85995 -2.133956,-1.46602 -2.801867,-1.59482 -5.656231,-3.83716 -8.517371,-6.69111 -1.378973,-1.37549 -2.612997,-2.50479 -2.742274,-2.50952 -0.95949,-0.0351 0.617284,3.4691 2.671416,5.937 1.786966,2.14692 2.983275,3.06889 5.521576,4.25532 1.831515,0.85608 5.594957,1.19933 5.200609,0.47433 z m 103.27028,-4.27494 c 2.23712,-1.28431 4.80325,-4.25159 5.96918,-6.90233 1.61917,-3.6812 1.18592,-4.02048 -1.11145,-0.87042 -1.72723,2.36832 -4.47339,5.15134 -6.97649,7.07016 -3.00703,2.30511 -1.52735,2.79578 2.11876,0.70259 z M 60.317592,155.9803 c -0.09642,-0.17716 -0.986129,-0.83621 -1.977257,-1.46455 -2.087998,-1.3237 -4.496927,-3.30103 -7.051527,-5.78815 -1.454757,-1.41631 -1.802068,-1.62211 -1.802068,-1.0678 0,1.08521 2.211412,4.39733 3.922723,5.8752 0.858995,0.74183 2.266965,1.65962 3.128827,2.03955 1.614015,0.71149 4.090201,0.97735 3.779302,0.40575 z m 73.408278,-0.40951 c 14.33509,-1.76883 25.37136,-7.36746 31.45713,-15.958 3.04552,-4.29898 4.89033,-9.27132 5.44524,-14.67661 0.39571,-3.85449 -0.95468,-10.35354 -2.992,-14.39961 -1.11058,-2.2056 -3.5942,-5.44885 -3.90675,-5.10165 -0.11584,0.12868 0.36262,1.57956 1.06321,3.22421 1.83727,4.31302 2.5729,7.85831 2.57059,12.38865 -0.005,8.36996 -3.21957,15.31961 -9.53335,20.6055 -6.91477,5.78907 -17.37716,9.12136 -25.929,8.25845 -8.69412,-0.87727 -15.37936,-2.82916 -20.98742,-6.1277 -2.79933,-1.6465 -7.41212,-5.17403 -7.15213,-5.46944 0.065,-0.0739 0.67835,0.0135 1.363,0.19364 1.37905,0.36329 9.1828,0.38954 10.62101,0.0357 1.95166,-0.48013 1.1332,-0.99782 -2.23754,-1.41521 -6.66386,-0.8252 -11.61602,-2.67226 -15.950203,-5.9491 -2.860334,-2.16253 -6.657854,-6.55634 -8.175308,-9.45898 -1.749582,-3.34669 -2.127571,-3.07716 4.248487,-3.02959 4.993585,0.0373 6.433084,-0.11896 5.967685,-0.64781 -0.0753,-0.0856 -1.896993,-0.49428 -4.048101,-0.90812 -14.260498,-2.74356 -23.492852,-7.23983 -30.425039,-14.81739 -2.703398,-2.955097 -3.851403,-3.617407 -4.24581,-2.449547 -0.442959,1.311637 3.914893,6.784167 8.080097,10.146907 2.991057,2.41479 7.694456,4.99234 12.023975,6.58934 l 3.447413,1.27162 0.874833,2.44374 c 1.900359,5.30839 5.730642,10.41658 10.407638,13.87994 1.395674,1.0335 3.410354,2.97985 4.544333,4.39019 4.08404,5.07935 9.39699,8.72876 16.767,11.51706 l 4.07422,1.54141 -2.03711,-0.17764 c -14.26203,-1.24361 -26.7763,-4.57829 -38.293553,-10.20406 -4.373536,-2.13632 -10.139666,-5.75895 -11.850752,-7.44534 -1.008682,-0.99411 -1.033888,-1.06458 -0.313398,-0.87615 3.729813,0.9755 14.09552,2.34688 17.739041,2.34688 1.648638,0 2.513012,-0.4979 1.461379,-0.84177 -0.304159,-0.0995 -3.655686,-0.92788 -7.447852,-1.84092 C 62.278408,128.2566 52.4748,124.4864 45.412519,119.17074 c -2.626287,-1.97676 -7.21005,-6.52749 -6.239094,-6.19411 0.274475,0.0942 2.672009,0.97061 5.327837,1.94748 8.844142,3.2531 21.648733,6.01493 28.772385,6.20593 5.4983,0.14742 4.814801,-0.46597 -2.230542,-2.00176 -12.677173,-2.76344 -23.295666,-6.06823 -33.234,-10.34342 -3.316265,-1.42657 -6.077219,-2.45382 -6.135449,-2.28276 -0.178909,0.52547 1.808524,4.24433 3.899885,7.29746 4.548097,6.63966 10.030288,10.77839 20.260865,15.29578 3.7427,1.65263 4.690013,2.23887 6.705566,4.14965 4.954977,4.6974 6.610118,6.09641 9.495233,8.02575 9.665517,6.4636 26.341885,12.13937 41.542235,14.13882 4.30745,0.56662 16.09847,0.66096 20.14843,0.16122 z m 57.42022,-3.54261 c 1.65628,-0.96012 3.61915,-3.34338 4.56803,-5.54634 1.13157,-2.62715 1.6123,-6.91646 0.77516,-6.91646 -0.1228,0 -0.56471,0.83454 -0.98201,1.85456 -1.25748,3.07369 -3.07471,6.01492 -5.39973,8.73963 l -2.20307,2.58177 h 1.00566 c 0.55311,0 1.55929,-0.32093 2.23596,-0.71316 z m 10.36524,-8.43524 c 2.414,-2.47809 3.98776,-7.63902 3.41491,-11.19864 -0.21971,-1.36524 -0.4964,-2.00397 -0.73726,-1.70195 -0.065,0.0816 -0.48514,1.81806 -0.93347,3.85878 -0.45871,2.08794 -1.40052,5.03776 -2.15384,6.746 -1.67457,3.79724 -1.61181,3.60985 -1.20901,3.60985 0.18624,0 0.91464,-0.59131 1.61867,-1.31404 z m -57.69061,-5.36358 c 0,-0.14723 -0.64769,-0.65811 -1.43931,-1.13529 -3.80871,-2.29585 -4.14581,-6.37945 -0.79595,-9.64218 l 1.45177,-1.414 -0.99816,-0.003 c -1.36448,-0.003 -2.59331,0.57295 -3.6515,1.71187 -3.04012,3.27207 -2.32034,8.05645 1.51563,10.07447 1.23552,0.64995 3.91752,0.92889 3.91752,0.40743 z m 49.22884,-3.64949 c 0.15778,0 0.83454,-0.56221 1.50392,-1.24935 2.41962,-2.48386 3.43702,-7.28093 2.38305,-11.23627 -0.93173,-3.49664 -1.24364,-3.30495 -1.64578,1.01148 -0.39343,4.22307 -1.11631,6.96613 -2.62572,9.96381 -0.78083,1.55071 -0.88059,1.93687 -0.45211,1.75005 0.30238,-0.13191 0.67886,-0.23972 0.83664,-0.23972 z m -60.8247,-6.74204 c 0,-0.18268 -0.27737,-0.43214 -0.61636,-0.55441 -0.339,-0.1222 -1.2353,-0.90578 -1.99177,-1.74116 -2.41028,-2.66173 -2.20579,-5.27635 0.64646,-8.26539 l 1.49157,-1.56311 -1.03413,-0.004 c -1.80084,-0.006 -4.04803,1.65786 -4.9764,3.68601 -0.59884,1.30822 -0.59797,3.77895 0.002,5.08416 0.59161,1.28747 2.01328,2.83074 3.03141,3.2907 1.00501,0.45402 3.44743,0.50148 3.44743,0.067 z m -18.95831,-1.08773 c -0.10518,-0.19332 -0.81845,-0.84186 -1.5851,-1.44122 -1.69782,-1.3273 -2.33493,-2.63673 -2.33493,-4.7989 0,-1.48984 0.15201,-1.82553 1.64535,-3.63356 l 1.64536,-1.9921 -1.07539,0.23688 c -2.65319,0.58442 -5.03594,3.28667 -5.03594,5.71115 0,2.18722 1.47249,4.47274 3.60412,5.59413 1.33374,0.70164 3.46155,0.92119 3.13653,0.32362 z m 90.12002,-5.77741 c 0.79865,-3.35461 -0.3341,-7.96264 -2.68387,-10.91797 -1.40023,-1.76109 -2.3093,-2.03852 -1.61021,-0.49142 0.24338,0.53861 0.82925,2.34142 1.30192,4.00621 0.73362,2.58392 0.85883,3.62431 0.85549,7.10862 l -0.004,4.0817 0.88847,-1.12986 c 0.48865,-0.62143 1.05209,-1.81719 1.2521,-2.65728 z m -55.17877,1.23243 c -3.1e-4,-0.14689 -0.63426,-0.72197 -1.40876,-1.27795 -3.51967,-2.5266 -3.87494,-6.02746 -0.9252,-9.11694 2.18835,-2.292 1.6351,-2.86487 -1.26961,-1.31462 -1.82192,0.97237 -2.44766,1.68661 -3.14937,3.59487 -1.06109,2.88561 0.31255,6.25463 3.14668,7.7176 1.25124,0.64588 3.60733,0.90528 3.60626,0.39704 z M 31.622828,121.09763 c 0,-0.16844 -3.630029,-2.11825 -8.066723,-4.33286 -9.967414,-4.97535 -11.701657,-5.77937 -11.923114,-5.52775 -0.524181,0.59562 3.80773,4.36144 7.304834,6.35024 4.138754,2.35374 12.685003,4.71876 12.685003,3.51037 z M 87.003945,97.890383 c 12.301226,-4.547351 25.254435,-6.625085 35.494875,-5.693497 7.00473,0.637245 14.12291,2.254018 20.63655,4.687267 2.93966,1.09816 3.61255,1.13045 2.88812,0.13859 -0.70948,-0.971329 -8.56392,-5.14039 -11.44811,-6.076533 -12.67759,-4.114824 -27.33554,-3.234634 -41.83917,2.51238 -5.125866,2.031103 -10.020018,4.764303 -10.026722,5.599543 -0.0036,0.40736 0.136076,0.36946 4.294457,-1.16775 z M 188.48051,87.893612 c 1.55134,-0.214647 2.86982,-0.443709 2.92996,-0.509026 0.0602,-0.06528 -0.5387,-1.150653 -1.33075,-2.411873 l -1.44011,-2.293108 -1.48986,0.365699 c -0.81942,0.201134 -3.88738,0.369616 -6.8177,0.374394 -5.55983,0.0094 -9.36575,-0.516483 -13.90977,-1.920815 -1.27265,-0.393303 -2.37814,-0.642109 -2.45667,-0.552902 -0.0785,0.08923 -0.0242,1.009075 0.12088,2.04414 0.29671,2.118018 -0.0546,1.891728 5.51387,3.551677 5.3501,1.594846 13.10869,2.150361 18.88015,1.351814 z m 39.91631,-30.082389 c 1.83718,-0.309967 3.92656,-0.459756 4.6629,-0.334286 1.74009,0.296497 1.7371,-0.211924 -0.0124,-2.116683 -1.14344,-1.24489 -2.01854,-1.725126 -5.80046,-3.183143 -2.44962,-0.94439 -5.40469,-2.238776 -6.56681,-2.876415 -3.01845,-1.656182 -6.68895,-4.744977 -9.948,-8.371437 -1.55133,-1.726231 -3.17319,-3.25108 -3.60412,-3.388554 -0.43093,-0.137473 -1.52392,-0.715924 -2.42886,-1.285446 -0.90495,-0.569522 -1.66041,-0.913938 -1.67882,-0.76537 -0.0184,0.148569 -0.0537,2.193106 -0.0783,4.543416 -0.0515,4.907606 -0.29946,5.682883 -2.62759,8.217586 -0.79368,0.86411 -1.35891,1.66671 -1.25609,1.783554 0.88275,1.003029 13.32582,5.832044 18.17902,7.055067 5.5957,1.410139 6.66818,1.479498 11.15959,0.721711 z M 210.08061,47.01432 c -1.30909,-0.675576 -2.63928,-2.243947 -2.63928,-3.111857 0,-0.690944 1.87428,-0.62295 2.82923,0.102636 3.419,2.59782 3.28,4.799939 -0.18995,3.009218 z M 195.53205,32.184039 c 0,-0.301983 -1.39559,-2.144839 -3.10133,-4.095236 -3.00287,-3.433607 -3.14568,-3.546177 -4.49857,-3.546177 -1.06042,0 -1.60347,0.217179 -2.2528,0.900965 -0.79412,0.836252 -0.97156,0.877014 -2.47028,0.567491 -2.16476,-0.447068 -4.8592,0.07428 -7.49969,1.4511 -3.11493,1.624214 -2.82687,2.189601 0.59901,1.175681 1.83668,-0.543584 5.8939,-0.663687 7.31439,-0.216525 0.43093,0.135655 0.96426,0.67292 1.1852,1.193927 0.97529,2.299891 3.28903,3.063149 5.20561,1.717231 l 0.98026,-0.688389 2.19075,1.022571 c 1.20492,0.562413 2.22601,1.032438 2.2691,1.044495 0.0431,0.01211 0.0783,-0.22515 0.0783,-0.527134 z"
       id="path1" /></g></svg>
