<?xml version="1.0" encoding="UTF-8" standalone="no"?>
<!-- Created with Inkscape (http://www.inkscape.org/) -->

<svg
   width="240mm"
   height="180mm"
   viewBox="0 0 240 180"
   version="1.1"
   id="svg1"
   sodipodi:docname="elephant.svg"
   inkscape:version="1.4.2 (f4327f4, 2025-05-13)"
   xml:space="preserve"
   xmlns:inkscape="http://www.inkscape.org/namespaces/inkscape"
   xmlns:sodipodi="http://sodipodi.sourceforge.net/DTD/sodipodi-0.dtd"
   xmlns="http://www.w3.org/2000/svg"
   xmlns:svg="http://www.w3.org/2000/svg"><sodipodi:namedview
     id="namedview1"
     pagecolor="#505050"
     bordercolor="#ffffff"
     borderopacity="1"
     inkscape:showpageshadow="0"
     inkscape:pageopacity="0"
     inkscape:pagecheckerboard="1"
     inkscape:deskcolor="#505050"
     inkscape:document-units="mm"
     inkscape:zoom="1"
     inkscape:cx="482"
     inkscape:cy="226"
     inkscape:window-width="2560"
     inkscape:window-height="1351"
     inkscape:window-x="-9"
     inkscape:window-y="-9"
     inkscape:window-maximized="1"
     inkscape:current-layer="layer1"
     showguides="true" /><defs
     id="defs1"><rect
       x="101.82338"
       y="91.923882"
       width="384.66608"
       height="299.81326"
       id="rect3" /><rect
       x="2.8284271"
       y="2.1213202"
       width="662.55902"
       height="647.00269"
       id="rect2" /></defs><g
     inkscape:label="Icon"
     inkscape:groupmode="layer"
     id="layer1"><path
       style="fill:#000000;stroke-width:2.81568"
       d="m 81.522929,173.55503 c 0.0013,-0.88287 1.050787,-3.53153 2.33145,-5.88586 1.280675,-2.35437 2.535149,-5.28306 2.787707,-6.50822 0.252558,-1.22517 -0.09648,-13.93347 -0.775613,-28.24068 -0.679146,-14.3072 -1.234795,-27.70852 -1.234795,-29.78067 v -3.767556 l 4.891905,4.184096 c 2.690543,2.30124 6.190109,4.81839 7.776854,5.59368 3.512513,1.71627 3.214323,0.24591 5.212133,25.70109 0.86231,10.987 1.72107,21.46173 1.90836,23.27723 0.2652,2.57004 -0.13848,4.23015 -1.82343,7.4974 -1.19017,2.30804 -2.40966,5.39757 -2.70993,6.86558 l -0.54599,2.66915 h -8.910781 c -8.723084,0 -8.910717,-0.0338 -8.90787,-1.60524 z m 23.334561,0.057 c 0,-0.8516 1.11364,-3.76419 2.47478,-6.47243 l 2.47478,-4.92413 -2.24042,-27.04811 -2.24043,-27.0481 -5.09028,-2.68651 C 93.669293,101.96702 85.547646,94.445306 81.487026,88.068834 79.72488,85.30172 77.858149,82.888168 77.338706,82.705348 c -1.925646,-0.677704 -7.81857,1.939653 -10.609572,4.712258 -2.268356,2.253469 -3.416163,2.843379 -5.532368,2.843379 -2.254912,0 -3.45312,0.724368 -7.704165,4.657605 l -5.033981,4.657604 -0.265203,22.988176 c -0.26138,22.66919 -0.241681,23.01542 1.4178,24.95016 1.762123,2.0542 4.915026,2.63389 5.952459,1.09438 0.321569,-0.47716 0.791784,-2.00214 1.044962,-3.38883 0.504022,-2.76074 -0.06406,-2.65022 8.186177,-1.59289 3.883558,0.49772 3.889436,0.50255 3.806085,3.11977 -0.116776,3.66357 -3.25551,9.03346 -6.78037,11.59986 -2.574492,1.87446 -3.734239,2.20073 -8.628088,2.42739 -6.476628,0.29994 -9.976498,-0.92855 -14.22349,-4.9926 -4.797859,-4.59123 -5.569561,-7.43037 -7.830714,-28.81013 l -2.078394,-19.65168 -4.303119,0.56695 C 18.229996,108.74666 8.2549984,108.36019 5.0244463,107.12227 0.46427017,105.37485 1.3695132,104.12734 8.6821736,102.0817 12.262456,101.08017 17.99699,98.973054 21.42562,97.399171 l 6.233888,-2.861547 0.387982,-13.73172 c 0.278138,-9.841265 0.867022,-16.052494 2.078864,-21.923076 0.930001,-4.505228 2.02212,-10.587296 2.42698,-13.515739 0.614257,-4.443317 1.702083,-7.120853 6.573769,-16.180656 C 46.136722,16.15072 49.555856,12.745083 58.063252,10.324979 65.136221,8.3129021 80.896938,8.0891774 84.33548,9.9520046 86.593965,11.175551 86.775891,11.146106 97.420456,7.8344948 109.64814,4.0303207 112.20186,3.9412045 119.86932,7.0510919 c 5.85787,2.3759097 19.05694,10.2595401 20.0628,11.9832561 1.00867,1.728515 -3.39538,26.673871 -5.45836,30.917272 -1.39193,2.863108 -26.31086,26.683499 -30.52523,29.179589 -1.14169,0.676193 -3.5739,1.248384 -5.404875,1.271572 -5.778283,0.07308 -7.23237,-2.612874 -9.378915,-17.324792 L 88.186377,56.37258 87.103839,66.442288 c -1.044052,9.711565 -1.026589,10.185711 0.490855,13.33184 2.923687,6.061712 10.868364,7.92238 18.647226,4.367303 2.8141,-1.286105 5.93416,-3.806141 10.37885,-8.382934 3.49534,-3.599188 9.47161,-9.233805 13.28063,-12.521336 9.48014,-8.182318 10.27582,-9.811414 13.56969,-27.783034 1.47531,-8.049438 2.4735,-15.507512 2.21821,-16.573505 l -0.46417,-1.938193 20.46223,0.319208 c 11.25423,0.175541 22.07114,0.605814 24.03754,0.956167 18.42944,3.28346 37.14649,19.410536 43.9582,37.875611 3.61676,9.80416 4.19789,15.423811 4.19789,40.594617 0,19.584148 -0.18318,23.502158 -1.13281,24.224918 -2.9077,2.21316 -3.99991,-1.70924 -4.66135,-16.7399 -0.27638,-6.27827 -0.77259,-12.538704 -1.10288,-13.912065 -0.54054,-2.247665 -0.65936,-1.969075 -1.18968,2.789776 -0.32403,2.907772 -1.62569,11.094519 -2.89258,18.192729 -3.61029,20.22804 -3.74852,33.27033 -0.57342,54.11501 0.6474,4.25025 0.61961,6.03276 -0.11967,7.66951 l -0.96305,2.13231 h -14.68603 -14.68601 l 0.0177,-1.60524 c 0.009,-0.88288 0.77346,-3.04996 1.69793,-4.81572 1.58119,-3.02013 1.66886,-4.09692 1.47843,-18.16154 l -0.20229,-14.95103 -4.39128,-7.24908 -4.3913,-7.24906 -14.80182,-0.39639 c -13.68385,-0.36642 -22.55288,-1.3365 -30.76846,-3.36538 l -3.26736,-0.80686 0.50241,-6.19348 c 0.27638,-3.40642 0.69208,-7.37319 0.92394,-8.81508 0.34697,-2.15792 0.13407,-2.762742 -1.20432,-3.419605 -2.07368,-1.017834 -1.92335,-1.48654 -3.99675,12.462145 -1.98371,13.3454 -3.04635,49.36708 -1.64054,55.61227 0.44611,1.98179 1.02714,4.80717 1.29119,6.27864 l 0.4801,2.67541 h -16.37147 c -16.28095,0 -16.37147,-0.008 -16.37147,-1.54834 z m -79.889897,-70.2168 c 8.384462,-1.69897 17.191631,-5.857862 23.331141,-11.017324 4.986205,-4.190269 9.883824,-9.768388 9.883824,-11.257133 0,-0.373219 -1.662807,-1.066184 -3.695097,-1.539952 -3.678984,-0.857638 -3.703593,-0.851409 -5.639888,1.428857 -9.922752,11.685377 -14.637316,15.372502 -26.060163,20.380892 -7.618259,3.34022 -7.039079,3.87279 2.180183,2.00466 z M 65.183801,49.594857 c 2.23534,-2.050096 1.95202,-2.700915 -1.552582,-3.5664 -3.466854,-0.856155 -5.638982,-0.200347 -6.986652,2.108961 -1.411186,2.418244 -0.911276,2.8843 3.093829,2.8843 2.852329,0 4.304439,-0.380497 5.445405,-1.426861 z M 169.43206,173.19832 c 0.003,-1.0791 0.93591,-3.72773 2.07051,-5.8859 1.92733,-3.66599 2.08592,-4.72893 2.41295,-16.17081 l 0.35006,-12.24692 -3.19847,-6.36798 c -1.75915,-3.50238 -3.19848,-6.58919 -3.19848,-6.85956 0,-0.27037 4.27366,-0.40145 9.49698,-0.29126 l 9.49703,0.20034 3.24002,5.28664 3.24005,5.28662 0.55694,13.01595 c 0.52871,12.35562 0.47243,13.19125 -1.10949,16.47105 -0.91656,1.90031 -1.87056,4.82054 -2.11996,6.48945 l -0.45349,3.03436 H 179.82059 169.42447 Z M 7.0191644,94.617795 C 3.8235713,94.105363 1.4533666,92.823119 2.2875461,92.058076 2.5074701,91.856377 5.4283942,91.048221 8.7781989,90.262499 12.128003,89.476777 16.705998,88.062501 18.951569,87.119659 l 4.082844,-1.714277 0.449313,1.535984 c 0.954462,3.262892 0.517143,6.777961 -0.890808,7.159635 -2.66066,0.721185 -12.30354,1.041217 -15.5737536,0.516794 z"
       id="path1" /></g></svg>
