<?xml version="1.0" encoding="UTF-8" standalone="no"?>
<!-- Created with Inkscape (http://www.inkscape.org/) -->

<svg
   width="240mm"
   height="180mm"
   viewBox="0 0 240 180"
   version="1.1"
   id="svg1"
   sodipodi:docname="fish.svg"
   inkscape:version="1.4.2 (f4327f4, 2025-05-13)"
   xml:space="preserve"
   xmlns:inkscape="http://www.inkscape.org/namespaces/inkscape"
   xmlns:sodipodi="http://sodipodi.sourceforge.net/DTD/sodipodi-0.dtd"
   xmlns="http://www.w3.org/2000/svg"
   xmlns:svg="http://www.w3.org/2000/svg"><sodipodi:namedview
     id="namedview1"
     pagecolor="#505050"
     bordercolor="#ffffff"
     borderopacity="1"
     inkscape:showpageshadow="0"
     inkscape:pageopacity="0"
     inkscape:pagecheckerboard="1"
     inkscape:deskcolor="#505050"
     inkscape:document-units="mm"
     inkscape:zoom="1"
     inkscape:cx="481"
     inkscape:cy="229"
     inkscape:window-width="2560"
     inkscape:window-height="1351"
     inkscape:window-x="-9"
     inkscape:window-y="-9"
     inkscape:window-maximized="1"
     inkscape:current-layer="layer1"
     showguides="true" /><defs
     id="defs1"><rect
       x="101.82338"
       y="91.923882"
       width="384.66608"
       height="299.81326"
       id="rect3" /><rect
       x="2.8284271"
       y="2.1213202"
       width="662.55902"
       height="647.00269"
       id="rect2" /></defs><g
     inkscape:label="Icon"
     inkscape:groupmode="layer"
     id="layer1"><path
       style="fill:#000000;stroke-width:2.62824"
       d="m 114.53567,155.98083 c -0.78392,-1.14367 -1.06277,-3.26261 -1.04067,-7.90806 0.0307,-6.44664 1.01904,-10.71311 3.00001,-12.94985 1.58748,-1.79242 1.37579,-2.18265 -1.18407,-2.18265 -3.62279,0 -9.88247,-1.30971 -17.453154,-3.65166 l -7.008066,-2.1679 -4.964414,4.58419 c -6.416722,5.92527 -10.918804,8.67018 -16.548922,10.0899 -3.915262,0.98729 -4.818528,1.01232 -6.521008,0.18067 l -1.976208,-0.96537 -0.515762,-9.13124 c -0.28366,-5.02218 -0.593216,-10.38061 -0.687908,-11.90759 -0.19474,-3.14 0.7826,-3.96769 6.34244,-5.37148 l 3.07502,-0.77641 -2.387112,-1.08936 c -1.371708,-0.62596 -5.166928,-1.22438 -8.92229,-1.40679 -8.694166,-0.4223 -10.728016,0.42944 -24.708632,10.34764 -12.115454,8.59497 -18.725876,11.91926 -24.8256841,12.48446 -5.2583443,0.48723 -6.8748683,-0.44899 -6.8748683,-3.98155 0,-6.30785 4.036058,-15.82305 11.4633744,-27.02551 2.018952,-3.04512 3.670784,-6.221267 3.670784,-7.058147 0,-0.83686 -1.570452,-4.03923 -3.489902,-7.11634 C 5.5448376,77.060519 1.3343716,66.852251 1.3343716,60.746339 c 0,-2.579969 0.268008,-3.175486 1.73693,-3.859394 3.552406,-1.653923 15.8635624,2.375425 22.5159744,7.369263 1.227538,0.921503 5.482308,4.150789 9.455004,7.176167 7.90452,6.01962 11.389352,7.879868 15.931734,8.504608 3.288844,0.45232 9.679072,-0.85407 16.001518,-3.271261 4.833868,-1.848055 4.124926,-2.745806 -2.180854,-2.761587 -4.23384,-0.01063 -4.299178,-0.04038 -4.280328,-1.943858 0.0572,-5.765446 14.19028,-17.283983 28.982252,-23.620423 3.156114,-1.352007 8.834023,-3.77621 12.617568,-5.38712 9.49588,-4.043031 13.57887,-6.546193 16.82572,-10.315336 1.52896,-1.774913 2.77992,-3.488933 2.77992,-3.808915 0,-0.319983 1.70113,-1.865961 3.78032,-3.435479 l 3.78033,-2.853671 2.21751,1.171745 c 3.73906,1.975765 9.69849,8.722757 13.90121,15.73827 5.6334,9.403769 5.85164,9.600477 11.282,10.170063 7.44513,0.780907 16.28393,2.965973 22.53974,5.572165 7.011,2.920755 10.50626,4.960283 16.36653,9.549998 2.42879,1.902226 8.08457,5.718873 12.56843,8.481469 14.84688,9.14744 30.50975,21.83329 30.50975,24.71076 0,0.63662 -0.81349,2.145377 -1.80773,3.352777 -1.70063,2.06522 -1.73537,2.24936 -0.58648,3.10779 2.2756,1.70028 0.79906,4.384 -3.68441,6.69665 -3.44963,1.7794 -4.10327,2.4429 -4.82222,4.89492 -0.7807,2.66265 -1.87743,4.13129 -2.5624,3.43136 -0.16562,-0.16923 0.0455,-1.32427 0.46924,-2.56655 0.42383,-1.24228 0.6498,-2.38212 0.50217,-2.53297 -0.84209,-0.86045 -33.5718,11.63729 -36.10722,13.78745 -0.46937,0.39809 -1.51691,2.76105 -2.32783,5.25107 -2.44993,7.52279 -8.62638,15.75152 -11.823,15.75152 -1.22432,0 -4.19568,-3.21464 -5.52277,-5.97498 -1.57898,-3.28423 -1.95827,-5.713 -1.20739,-7.73112 0.59884,-1.60945 0.531,-1.80318 -0.5148,-1.47015 -2.37668,0.75686 -10.91368,1.79303 -14.96287,1.81609 -5.73058,0.0327 -7.02369,0.51717 -7.85077,2.94158 -1.11842,3.27833 -6.65702,11.40016 -9.67281,14.18422 -3.39849,3.13741 -5.93481,3.91635 -7.16308,2.19994 -0.83299,-1.16406 -1.14093,-1.12891 -5.41354,0.6177 -5.56225,2.27386 -7.66594,2.34105 -9.07205,0.2897 z m 10.64264,-4.52492 c 6.79538,-4.66094 9.28566,-7.26472 17.67025,-18.4756 0.12818,-0.17136 4.94559,-0.71704 10.7055,-1.21282 12.84275,-1.10541 19.06117,-2.34121 29.73427,-5.90926 10.39816,-3.47612 10.74767,-3.70586 7.26152,-4.77314 -1.62534,-0.49758 -4.43394,-2.4271 -6.82365,-4.68785 -3.44976,-3.26361 -4.46186,-3.84428 -6.72105,-3.85605 -1.46287,-0.008 -5.13623,-0.47105 -8.16307,-1.02987 -5.84077,-1.07836 -14.46016,-1.25289 -17.88584,-0.36217 -1.36237,0.35425 0.46288,0.56488 5.37082,0.61977 7.35873,0.0824 16.98648,1.28984 16.98648,2.13044 0,0.23938 -3.3278,0.33635 -7.39511,0.21547 -4.06731,-0.12089 -8.78813,0.089 -10.49071,0.46674 l -3.09564,0.68675 4.47146,-0.005 c 11.44585,-0.016 16.10107,0.21998 14.7902,0.74841 -0.7567,0.30505 -3.69754,0.75694 -6.5352,1.00423 -2.83764,0.24735 -6.08806,0.76864 -7.22312,1.15849 -1.8305,0.62876 -1.70063,0.6715 1.14915,0.37819 14.45457,-1.48774 16.66254,-0.96334 5.8466,1.3886 -2.96273,0.64424 -5.24041,1.32089 -5.0615,1.50371 0.31026,0.31703 10.31019,-1.42802 13.19991,-2.30348 3.33466,-1.01024 -0.37149,1.13941 -4.81541,2.79307 -2.64849,0.98555 -4.28966,1.80918 -3.64707,1.8303 0.96216,0.0316 9.32277,-2.4429 13.57281,-4.01723 0.87776,-0.32514 0.84726,-0.12806 -0.16224,1.04882 -2.21151,2.57779 -11.14545,6.72868 -15.22643,7.07452 -3.16103,0.26785 -4.47887,-0.0308 -8.3913,-1.90162 -6.05508,-2.89538 -10.08826,-6.33583 -11.89284,-10.14504 -1.66696,-3.51868 -1.35964,-5.01209 1.32314,-6.42972 4.96062,-2.62125 14.36157,-2.84176 25.67607,-0.60223 7.21445,1.42796 7.4887,1.2795 6.27947,-3.39903 -0.53061,-2.05297 -1.16512,-5.538077 -1.41001,-7.744717 -0.27911,-2.51477 -0.90836,-4.4403 -1.68615,-5.15954 -1.16966,-1.08165 -1.28222,-0.99438 -1.96209,1.52162 -0.61163,2.26354 -0.51036,3.0343 0.66646,5.07242 1.50677,2.609537 1.2396,4.026717 -0.34375,1.823317 -0.93579,-1.302267 -1.00191,-1.278147 -1.71267,0.62429 -0.40662,1.08835 -0.73931,2.59089 -0.73931,3.33896 0,1.93296 -0.98441,1.68692 -2.98865,-0.74701 -1.62063,-1.96803 -1.76389,-2.01442 -2.17126,-0.70293 -0.74121,2.38637 -1.81558,1.58918 -1.34111,-0.99512 0.34656,-1.88772 0.0705,-2.955717 -1.29487,-5.008877 l -1.73537,-2.60959 -0.74618,2.83154 c -0.51191,1.94264 -0.52754,3.419137 -0.0497,4.703187 0.89321,2.40056 0.9061,2.34383 -0.50747,2.22919 -1.46083,-0.11849 -2.21111,-1.06523 -2.22518,-2.80792 -0.005,-0.71741 -0.76157,-2.216437 -1.6795,-3.331147 l -1.66896,-2.02677 -0.81242,2.51541 c -0.44684,1.383487 -0.63279,3.433247 -0.41322,4.555037 0.62683,3.20259 -0.98889,2.21336 -3.434,-2.10252 -2.0701,-3.653937 -2.18686,-3.741717 -2.97508,-2.236757 -0.4512,0.86154 -0.7286,2.865567 -0.61641,4.453417 0.24622,3.48444 -0.95857,4.22188 -2.13915,1.30942 -0.46542,-1.14813 -1.56962,-3.08946 -2.4538,-4.31408 l -1.60761,-2.226557 -0.83096,2.834087 c -0.73483,2.50622 -0.6631,3.1808 0.62,5.83083 1.68823,3.4867 1.5236,4.15684 -0.48108,1.9581 l -1.42207,-1.55975 -0.76383,2.04049 c -0.84175,2.24867 -0.10504,5.90774 1.68735,8.3804 1.00594,1.38777 1.01265,1.38777 2.02018,-0.002 0.95102,-1.31202 1.00661,-1.24111 0.93899,1.19759 -0.045,1.62059 0.40557,3.13136 1.202,4.03063 1.52113,1.71752 0.66859,1.92985 -1.11737,0.2783 -1.1861,-1.09686 -1.27902,-1.03503 -1.70342,1.1333 -0.375,1.91593 -0.55713,2.09572 -1.10664,1.09236 -0.43573,-0.79557 -0.40149,-1.46293 0.1014,-1.9768 1.27499,-1.30286 0.85818,-2.99201 -1.31053,-5.31093 -1.13836,-1.2172 -2.18311,-2.21307 -2.32172,-2.21307 -0.91484,0 -0.98051,4.66926 -0.0853,6.06532 1.4066,2.19362 1.30608,2.83648 -0.22256,1.42294 -0.69282,-0.64068 -1.46674,-0.9533 -1.7198,-0.69472 -0.25298,0.25851 -0.46009,-0.31419 -0.46009,-1.27283 0,-1.79591 -3.69546,-6.1217 -4.31512,-5.05115 -1.04416,1.80393 -1.14408,4.94312 -0.19812,6.22204 1.4417,1.94901 1.32522,2.89719 -0.18434,1.50113 -1.59125,-1.47153 -1.99183,-1.46059 -2.44831,0.0667 -0.20228,0.67657 -0.23452,0.12301 -0.0718,-1.23014 0.23868,-1.98464 -0.097,-2.90197 -1.73686,-4.74485 -1.118,-1.25649 -2.17786,-2.28453 -2.35523,-2.28453 -0.17732,0 -0.52598,1.10851 -0.77472,2.46336 -0.31593,1.72082 -0.11804,2.98476 0.65673,4.19293 1.58119,2.46588 1.37069,2.97819 -0.48984,1.19212 -0.87937,-0.84417 -1.78708,-1.3425 -2.01716,-1.1074 -0.2301,0.23513 -0.28805,-0.15755 -0.12896,-0.87225 0.17446,-0.78353 -0.63713,-2.36171 -2.04357,-3.97387 l -2.33296,-2.67421 -0.48027,2.90474 c -0.40565,2.45353 -0.23712,3.16921 1.08501,4.6073 0.86091,0.93638 1.26014,1.70254 0.88717,1.70254 -0.86679,0 -3.68922,-2.66849 -3.68922,-3.48803 0,-0.57875 -3.9468,-4.94723 -4.46971,-4.94723 -0.72303,0 -1.00963,4.35584 -0.3673,5.58226 0.4876,0.93101 0.51025,1.44712 0.0634,1.44712 -0.38194,0 -1.16043,-0.86988 -1.72996,-1.9331 -1.54152,-2.87764 -3.783845,-5.36271 -4.332755,-4.80181 -0.26569,0.27153 -0.48308,1.75542 -0.48308,3.29757 0,2.43321 -0.11154,2.63666 -0.843595,1.53899 -2.5909,-3.88485 -4.052152,-5.79743 -4.44249,-5.81462 -0.2418,-0.0106 -0.646412,1.10835 -0.89947,2.48669 l -0.460096,2.50606 -2.101164,-2.68178 c -1.155648,-1.47499 -2.376088,-2.60271 -2.712086,-2.50606 -0.335998,0.0967 -0.610922,-0.64427 -0.610922,-1.64648 0,-1.00222 -0.594438,-2.59443 -1.320982,-3.53825 -1.465464,-1.90371 -2.015754,-1.48692 -2.819804,2.13587 -0.42107,1.89723 -0.544908,1.99335 -0.98449,0.7643 -1.49331,-4.17526 -3.129724,-6.01295 -3.129724,-3.51471 0,0.57995 -0.290108,1.05443 -0.64467,1.05443 -0.354562,0 -0.476606,-1.05817 -0.271232,-2.35149 0.24232,-1.52653 -0.05408,-3.19114 -0.845286,-4.74485 l -1.21875,-2.39335 -0.842634,2.08918 c -0.536146,1.32929 -0.62595,2.67158 -0.24674,3.69042 1.121874,3.01521 -0.763802,1.67539 -2.089334,-1.48452 -0.711958,-1.69718 -1.584388,-3.26888 -1.938716,-3.49266 -0.85774,-0.54169 -2.292056,2.76029 -1.785264,4.10982 0.21944,0.58452 0.08034,1.06274 -0.309062,1.06274 -0.389506,0 -1.064336,-1.10272 -1.499628,-2.45048 -1.088646,-3.3707 -1.930942,-3.66486 -3.006874,-1.05009 l -0.914342,2.22208 -1.59653,-2.69971 -1.59653,-2.69971 -0.67145,2.28456 c -0.806754,2.74488 -1.33185,2.84315 -2.816892,0.52718 -1.493544,-2.32919 -2.415166,-2.21819 -2.91811,0.3515 -0.38376,1.9607 -1.616602,3.01398 -1.616602,1.38112 0,-0.40022 -0.512044,-1.52621 -1.13789,-2.50223 -1.261078,-1.96665 -2.271932,-1.23944 -2.291146,1.64829 -0.0052,0.86991 -0.320112,1.58163 -0.698464,1.58163 -0.378352,0 -0.687908,-0.42545 -0.687908,-0.94547 0,-0.52001 -0.612664,-1.51202 -1.36149,-2.20451 -1.247792,-1.15389 -1.39789,-1.1621 -1.797354,-0.0983 -0.23972,0.63832 -0.275132,1.78852 -0.07878,2.55598 0.1963,0.76744 0.06682,1.39536 -0.288002,1.39536 -1.173926,0 -1.515748,-2.25148 -0.694252,-4.57287 0.57109,-1.6138 0.602914,-2.841607 0.10816,-4.171377 -0.930748,-2.50148 -2.068794,-1.65424 -2.12316,1.5806 -0.0403,2.397927 -0.09412,2.465037 -0.711802,0.88572 -0.4368,-1.11704 -0.428454,-2.41161 0.0234,-3.73804 0.380744,-1.11605 0.522054,-3.35216 0.314002,-4.96907 -0.25064,-1.94713 -0.05564,-3.3795 0.577512,-4.24168 0.861926,-1.17395 0.93041,-1.03593 0.697372,1.40589 -0.19474,2.03995 -0.08034,2.44763 0.463372,1.65323 0.396968,-0.57992 0.726518,-1.74027 0.732316,-2.57854 0.0156,-2.1569 0.733772,-3.80856 1.458444,-3.35091 0.338702,0.21387 0.615836,0.0539 0.615836,-0.3555 0,-2.39897 -4.281966,1.20033 -6.170502,5.18674 -1.23604,2.60909 -1.401842,3.83373 -1.02258,7.55386 0.523536,5.135387 2.46649,9.852097 4.664634,11.323817 1.342536,0.8989 2.123524,0.89789 6.329466,-0.008 9.871004,-2.12616 20.671404,0.16286 28.875028,6.11986 6.80862,4.94402 15.584504,9.81167 20.535736,11.39043 8.475796,2.70258 19.519666,4.24555 31.213556,4.36094 6.18311,0.0611 11.45214,0.41549 11.81216,0.79472 1.42704,1.50313 -10.27226,15.8493 -16.78313,20.58014 -2.41444,1.75435 -1.45769,2.098 1.05079,0.37742 z m 18.33566,-25.09759 c -0.65361,-1.01933 -0.90961,-1.85332 -0.56885,-1.85332 0.95061,0 2.32708,1.95985 2.02558,2.88409 -0.14768,0.45243 -0.80311,-0.0106 -1.45673,-1.03077 z m -13.78793,-1.50185 c 0.21788,-0.57992 0.51761,-1.05442 0.66631,-1.05442 0.14872,0 0.27037,0.4745 0.27037,1.05442 0,0.57992 -0.29986,1.05439 -0.66633,1.05439 -0.36647,0 -0.48815,-0.47447 -0.27035,-1.05439 z m 1.05612,16.60191 c 2.01524,-2.16493 2.58063,-2.95625 1.2564,-1.7585 -1.32426,1.19776 -4.18771,3.52624 -6.36324,5.17437 -2.17555,1.64816 -3.95551,3.13704 -3.95551,3.30864 0,1.02786 5.96864,-3.40102 9.06235,-6.72451 z m -7.14771,1.74061 c 1.78459,-0.93019 4.48297,-2.86169 5.99638,-4.29226 1.51344,-1.43054 1.97777,-2.10675 1.03189,-1.50265 -0.94588,0.6041 -3.80934,2.41374 -6.36324,4.02143 -4.28893,2.69993 -5.23294,3.46471 -4.27661,3.46471 0.20176,0 1.82697,-0.76106 3.61158,-1.69123 z m 58.34452,-6.91976 c 0.92207,-1.83645 1.4391,-3.33822 1.14897,-3.33731 -0.48506,0.002 -4.37411,6.96968 -4.87022,8.72613 -0.42616,1.50884 2.08055,-2.1212 3.72125,-5.38882 z m -57.65739,2.5991 c 3.31986,-1.4166 8.59141,-4.5759 8.23794,-4.93709 -0.15132,-0.15463 -3.03898,1.12235 -6.41724,2.83757 -5.92155,3.00646 -7.08185,4.34444 -1.8207,2.09952 z m 53.75339,-2.5991 c 0.84812,-1.44983 1.36588,-2.63603 1.1506,-2.63603 -0.46316,0 -3.84828,5.36725 -3.84828,6.10161 0,0.74209 0.95071,-0.47926 2.69768,-3.46558 z m -2.84903,-1.24372 c 1.15456,-1.8891 0.71978,-1.74973 -1.26038,0.40407 -0.90833,0.988 -1.18781,1.61452 -0.62103,1.39229 0.56677,-0.22211 1.41341,-1.0306 1.88141,-1.79636 z m -98.889732,-0.44092 c 2.509468,-1.70764 8.236098,-7.46605 8.236098,-8.28181 0,-0.38794 -1.625208,0.89332 -3.611582,2.84722 -1.986348,1.95392 -4.504604,4.23644 -5.59611,5.07229 -2.314572,1.77247 -1.530412,2.06487 0.971594,0.3623 z m 50.246122,0.0391 c 2.05504,-0.61502 4.04599,-1.44138 4.42434,-1.83634 0.46691,-0.48744 0.13546,-0.5456 -1.03186,-0.18093 -0.9459,0.29538 -3.22226,0.94358 -5.05856,1.44043 -1.83633,0.49684 -3.51312,1.08152 -3.72621,1.29927 -0.70544,0.72084 1.60375,0.41151 5.39229,-0.72233 z M 72.467642,131.9428 c 4.163328,-2.38589 8.564088,-6.36952 7.846514,-7.10276 -0.20592,-0.21042 -2.040662,0.99496 -4.077346,2.67848 -2.036684,1.68352 -4.935788,3.90844 -6.442436,4.94424 -3.840564,2.64033 -2.328014,2.34614 2.673268,-0.51996 z m -0.621816,-4.58929 c 4.13894,-2.47737 7.70172,-5.39512 7.209436,-5.90424 -0.19682,-0.20351 -3.109236,1.50799 -6.47231,3.80315 -6.314126,4.30916 -6.815952,5.7396 -0.737126,2.10109 z m -50.67985,-3.47908 c 5.748132,-3.53017 12.80578,-9.13302 12.236822,-9.71443 -0.17524,-0.17906 -3.199612,1.7881 -6.720688,4.3716 -3.52105,2.58353 -7.723872,5.48893 -9.339616,6.4565 -1.615744,0.96757 -2.937714,1.88732 -2.937714,2.04388 0,0.75766 1.61161,0.005 6.761196,-3.15755 z m 51.267866,-1.8798 c 3.646526,-1.86198 5.376722,-3.13537 4.19302,-3.08598 -1.412294,0.059 -10.205286,4.77622 -9.008428,4.83289 0.701766,0.0332 2.868684,-0.75288 4.815408,-1.74691 z m -52.63973,-3.45615 c 5.985512,-2.93112 14.880684,-8.70219 14.310712,-9.28461 -0.22308,-0.22795 -4.050384,1.81208 -8.505042,4.53347 -4.454658,2.72139 -9.182836,5.42952 -10.507068,6.01808 -1.324232,0.58855 -1.934634,1.09592 -1.35642,1.12745 0.578188,0.0316 3.30421,-1.04594 6.057818,-2.39439 z m 51.191816,-0.144 c 1.797198,-0.65821 3.267628,-1.48442 3.267628,-1.83604 0,-0.3516 -0.541736,-0.40466 -1.203878,-0.11796 -0.662116,0.28674 -2.441088,0.97857 -3.953274,1.53737 -1.512186,0.55882 -2.879422,1.14887 -3.038308,1.3112 -0.66794,0.68252 1.889056,0.21838 4.927832,-0.89462 z m 125.250222,0.25771 c -3.40475,-1.28503 -3.29417,-1.71054 0.28798,-1.10814 3.15871,0.53119 8.80718,0.75859 7.4017,0.29798 -0.37835,-0.12407 -3.00963,-0.76895 -5.84729,-1.43325 -8.99145,-2.10494 -12.25128,-4.59769 -15.61121,-11.93762 -1.61686,-3.5321 -1.9285,-5.131667 -1.91727,-9.841147 0.0104,-4.67917 0.34383,-6.35955 1.98123,-10.00667 1.0823,-2.41074 2.39192,-4.7428 2.91026,-5.18237 0.51833,-0.43959 0.94242,-1.13598 0.94242,-1.547594 0,-1.737187 -4.15288,3.509394 -5.93026,7.492084 -5.17899,11.60483 -0.065,26.805017 10.896,32.386427 1.95767,0.99685 4.3499,1.78839 5.31609,1.75898 1.6646,-0.0507 1.64206,-0.0967 -0.42965,-0.87868 z m -92.31914,-7.02994 c -1.86339,-3.32116 -2.53955,-3.49908 -3.32748,-0.87575 -0.624135,2.07802 -0.4849,2.78863 1.06551,5.43837 l 1.78344,3.04801 0.79675,-2.81175 c 0.66547,-2.34856 0.61305,-3.13911 -0.31822,-4.79888 z m 14.05649,4.84323 c 0.33246,-1.81081 0.0541,-3.12413 -1.11166,-5.24345 -1.77647,-3.22984 -2.46732,-3.15925 -3.10559,0.31736 -0.35243,1.91965 -0.0978,2.97814 1.1772,4.89112 0.89484,1.34271 1.84511,2.44347 2.11174,2.4461 0.26663,0.003 0.68435,-1.08237 0.92831,-2.41113 z m 7.50373,-2.66868 c -0.3816,-1.51235 -3.30044,-5.45947 -4.03723,-5.45947 -0.19006,0 -0.53513,1.03134 -0.76653,2.29187 -0.47403,2.58194 0.3458,5.32716 2.13772,7.15821 1.15021,1.17533 1.25013,1.1481 2.13735,-0.58218 0.51189,-0.99831 0.74979,-2.53212 0.52869,-3.40843 z m -27.157135,0.62402 c 0.005,-1.10017 -0.664693,-2.96927 -1.489959,-4.15355 -1.36786,-1.96296 -1.545986,-2.03467 -2.01539,-0.81146 -0.920192,2.3979 -0.641004,4.59729 0.85631,6.74601 1.655108,2.37513 2.630599,1.7193 2.649039,-1.781 z m 12.771175,1.35836 c 0.34749,-1.89272 0.0694,-2.95718 -1.31664,-5.04161 l -1.75713,-2.64235 -0.75408,2.0267 c -0.86039,2.31238 -0.38168,5.03044 1.20222,6.8264 1.57094,1.78129 2.12963,1.53251 2.62563,-1.16914 z m 20.83687,0.60888 c 1.12986,-2.53393 0.9932,-3.18202 -1.23102,-5.83904 -1.90102,-2.27088 -2.00096,-2.30481 -2.72371,-0.92488 -1.08482,2.07128 -0.92604,3.68203 0.61802,6.26978 1.64268,2.75304 2.28693,2.84844 3.33671,0.49414 z m -39.788768,-1.80069 c 0,-2.91352 -1.992484,-6.79399 -2.8106,-5.47373 -0.962286,1.55292 -0.728468,5.09217 0.449956,6.81137 1.35291,1.97372 2.360644,1.4027 2.360644,-1.33764 z m 125.200848,-1.44103 5.15936,-1.70478 0.37835,-2.86682 c 0.208,-1.57674 0.91175,-3.69863 1.56367,-4.71533 1.54557,-2.41033 0.97594,-2.33379 -2.23122,0.29982 -2.81985,2.3156 -7.92058,4.18751 -11.34273,4.16267 -1.16953,-0.008 -3.42152,-0.6163 -5.00443,-1.35066 -2.96818,-1.37703 -4.41152,-3.43399 -6.1933,-8.826527 l -0.92906,-2.81174 0.30748,4.04608 c 0.38311,5.041477 2.68707,9.416547 5.90938,11.221587 1.89446,1.06125 3.3377,1.27958 6.77063,1.02435 5.25281,-0.3906 4.7826,0.61456 -0.77896,1.66513 -3.40529,0.64324 -4.31948,0.55952 -6.9693,-0.63821 -5.90933,-2.67107 -8.94392,-10.75035 -7.35259,-19.575477 0.92186,-5.11233 0.66025,-6.41077 -0.57943,-2.87567 -1.58416,4.51759 -1.68168,11.804327 -0.21684,16.203467 0.85069,2.55484 1.06878,4.0395 0.59272,4.03533 -0.41421,-0.003 -2.33987,-0.93657 -4.27926,-2.07319 -3.22913,-1.89253 -6.41847,-5.24602 -8.38428,-8.815767 -1.30109,-2.36267 -0.92734,0.38457 0.48441,3.560637 1.61598,3.63559 5.16976,7.78428 7.91656,9.24184 6.46201,3.42897 16.26716,3.7379 25.17884,0.79326 z M 19.284486,112.64765 c 5.458648,-1.92728 13.28418,-5.66643 12.830142,-6.13041 -0.334074,-0.34134 -16.82616,6.3497 -17.652518,7.16185 -0.636844,0.62591 1.30403,0.21068 4.822376,-1.03144 z m 86.537754,-9.03878 c -1.61842,-3.41622 -2.51776,-3.24924 -3.07801,0.57144 -0.25038,1.70725 0.0757,3.09924 1.13012,4.82428 l 1.482,2.42466 0.96936,-2.35574 c 0.88246,-2.14466 0.83735,-2.63438 -0.50347,-5.46464 z m 7.32717,5.17152 c 0.31257,-1.7026 0.0234,-3.19204 -1.02708,-5.29687 -1.59266,-3.18999 -2.41181,-3.25899 -3.00287,-0.25293 -0.39247,1.99601 1.85109,7.91845 2.9997,7.91845 0.32747,0 0.79107,-1.06587 1.03025,-2.36865 z m 7.19456,-0.97435 c 0,-0.53101 -0.67332,-2.56485 -1.4963,-4.51965 -1.36276,-3.23699 -1.5776,-3.440497 -2.4077,-2.2805 -1.34506,1.87964 -1.11013,5.07957 0.57782,7.87038 1.39006,2.29827 1.55041,2.37678 2.4077,1.17876 0.50516,-0.70593 0.91848,-1.71798 0.91848,-2.24899 z m 6.53903,0.51345 c 0.31772,-1.47815 0.005,-3.05596 -1.0413,-5.26608 -1.6729,-3.531197 -2.48456,-3.533237 -3.13181,-0.008 -0.32721,1.78236 -0.0429,3.11125 1.11621,5.21879 1.73331,3.15142 2.38885,3.16324 3.0569,0.0553 z m -38.183194,-1.55735 c 0,-0.71852 -0.499746,-2.29391 -1.110538,-3.50083 -1.012518,-2.00074 -1.173224,-2.07989 -1.821066,-0.89698 -0.921934,1.68338 -0.820092,4.76652 0.22334,6.75862 0.796458,1.52066 0.859066,1.52991 1.767038,0.26117 0.517712,-0.7235 0.941304,-1.90335 0.941304,-2.6219 z m 5.220826,1.92662 c 0.514982,-2.09665 0.0234,-4.4051 -1.345604,-6.31758 -0.951704,-1.32958 -1.023334,-1.26965 -1.484418,1.24186 -0.487006,2.65263 0.618514,6.83307 1.807026,6.83307 0.32526,0 0.78559,-0.79082 1.022996,-1.75735 z m 6.056183,0.64543 c 0.229585,-0.61153 0.417565,-1.59178 0.417565,-2.17831 0,-1.64242 -2.144405,-5.88001 -2.77426,-5.48226 -1.22707,0.77495 -1.422148,4.48852 -0.347334,6.61237 1.211649,2.39426 2.073139,2.72822 2.704029,1.0482 z m 33.821295,-1.31781 c 0.46626,-2.53964 -1.41195,-7.76289 -2.79144,-7.76289 -0.37835,0 -0.96636,1.15145 -1.3067,2.55874 -0.51366,2.12399 -0.35802,2.98989 0.916,5.09631 1.91729,3.16999 2.61563,3.19363 3.18214,0.10787 z m 99.65148,-1.14746 c 0.55835,-0.60814 0.0993,-0.69377 -1.83511,-0.34238 -3.50628,0.63688 -3.42651,-0.79661 0.27256,-4.89726 1.56873,-1.739017 2.70163,-3.315797 2.51755,-3.503897 -0.62116,-0.63473 -6.0924,3.909797 -7.45373,6.191277 -0.74279,1.2448 -1.35166,3.13189 -1.35309,4.19351 l -0.003,1.9302 3.55488,-1.38025 c 1.9552,-0.75912 3.88996,-1.74518 4.29949,-2.1912 z M 82.9322,107.91165 c 0.2834,-1.15384 0.0013,-2.77947 -0.762294,-4.39338 -1.088776,-2.30109 -1.268332,-2.41876 -1.76423,-1.15596 -0.829114,2.11128 -0.7501,4.42241 0.20462,5.98452 1.147198,1.87707 1.783262,1.75786 2.32193,-0.43518 z m -57.138224,-2.76871 c 6.724796,-1.99133 9.807512,-3.48104 5.808738,-2.80707 -3.654768,0.616 -14.998438,4.4865 -13.319358,4.54463 0.808964,0.0279 4.188756,-0.75391 7.51062,-1.73756 z m 42.945708,-6.033507 c 0.013,-2.85582 -1.59406,-4.95874 -2.316834,-3.03401 -0.640718,1.70607 -0.513188,3.56109 0.382928,5.570827 1.016418,2.27949 1.918904,1.09563 1.933906,-2.536817 z m 5.465512,-0.35147 c 0.04732,-2.15507 -1.356862,-4.21513 -2.250664,-3.30179 -0.73762,0.75373 -0.515892,5.120457 0.343304,6.760937 0.777894,1.48528 0.807976,1.4882 1.327482,0.12965 0.292344,-0.76462 0.55328,-2.379507 0.579878,-3.588657 z m 5.503342,0.39974 c 0.02652,-0.9893 -0.392886,-2.41275 -0.932152,-3.16324 -0.94601,-1.31651 -1.006304,-1.29536 -1.715272,0.60222 -0.57083,1.52785 -0.489814,2.54742 0.363012,4.569117 0.981006,2.32553 1.158352,2.45282 1.666938,1.19651 0.313014,-0.77323 0.590876,-2.2153 0.617474,-3.204607 z m 4.853212,0.17561 c -0.013,-4.48575 -1.017978,-6.07554 -2.066688,-3.27365 -0.579774,1.54901 -0.581282,2.76783 -0.0052,4.741307 1.010412,3.46563 2.085954,2.70404 2.072642,-1.467657 z m 5.593094,2.501757 c 0.302276,-6.035157 -1.49994,-10.067877 -2.563756,-5.736747 -0.47372,1.92874 0.930488,7.318377 1.906736,7.318377 0.317798,0 0.613444,-0.71172 0.65702,-1.58163 z m 5.84753,-3.951027 c -0.315016,-3.79656 -1.06743,-4.8763 -2.24822,-3.22623 -1.240148,1.73307 -1.1687,4.13318 0.20384,6.845237 1.09967,2.17298 1.146262,2.1911 1.699906,0.66178 0.313066,-0.86484 0.46813,-2.791187 0.344526,-4.280787 z m 72.109086,1.47159 c -0.005,-1.43928 -0.6011,-3.52493 -1.32177,-4.63483 l -1.31032,-2.01795 -0.87136,2.57187 c -0.88528,2.61288 -0.43654,5.148377 1.28666,7.270047 1.15323,1.41992 2.23018,-0.12938 2.21679,-3.189137 z M 47.501636,97.333293 c -0.423852,-0.95051 -1.07887,-1.53354 -1.45561,-1.2956 -0.970606,0.61294 -0.851214,4.819147 0.1664,5.858877 1.281956,1.30995 2.300558,-2.295317 1.289288,-4.563277 z m 5.415956,1.9953 c 0.0052,-0.89531 -0.332306,-2.28241 -0.751322,-3.08248 -0.611078,-1.16672 -0.881296,-1.26191 -1.365312,-0.48098 -0.835068,1.34738 -0.772252,3.9472 0.13728,5.683907 0.611078,1.16675 0.881296,1.26194 1.365312,0.48101 0.33189,-0.5355 0.608166,-1.70616 0.613964,-2.601457 z m 5.478954,0.22184 c -0.0078,-0.77323 -0.428506,-2.1707 -0.93535,-3.10546 -0.92014,-1.69707 -0.922662,-1.69739 -1.695408,-0.22184 -1.049022,2.00292 -0.974974,3.0727 0.346034,4.999917 0.877526,1.2802 1.247532,1.42818 1.709266,0.68362 0.324116,-0.52264 0.583076,-1.58291 0.575458,-2.356137 z m 5.226078,0.776937 c 0.439868,-2.395817 -0.53287,-5.346037 -1.76267,-5.346037 -1.138826,0 -1.551524,3.46566 -0.671294,5.637147 1.11215,2.74363 1.893996,2.65011 2.433964,-0.29111 z m 38.413886,1.15613 c 0.53157,-1.821567 -0.0671,-6.579697 -0.93992,-7.471707 -1.786755,-1.82576 -2.781075,3.54435 -1.279705,6.911417 0.932265,2.0908 1.715275,2.28847 2.219625,0.56029 z m 6.24835,-3.937077 c -0.58672,-3.99784 -1.44165,-5.42633 -2.37661,-3.97098 -1.05399,1.64064 -0.8177,5.83968 0.43116,7.661587 0.99803,1.45599 1.20304,1.5138 1.76025,0.49639 0.34687,-0.63335 0.4302,-2.517507 0.18512,-4.186997 z m 6.65306,1.89888 c -0.0208,-1.10203 -0.058,-2.79451 -0.0803,-3.76104 -0.0517,-2.24137 -1.02476,-3.83009 -1.97717,-3.22862 -1.49677,0.94525 -1.73831,5.4398 -0.42614,7.929547 1.4014,2.65908 2.54626,2.22584 2.48362,-0.939887 z m 6.918,-0.38027 c -0.10634,-4.32999 -0.20384,-5.00823 -0.91314,-6.36263 -0.68419,-1.30637 -0.74017,-1.30852 -1.66341,-0.0638 -1.32147,1.7818 -1.23133,5.32998 0.2002,7.878647 1.41638,2.52181 2.45843,1.88496 2.3764,-1.452327 z m 6.96168,1.464367 c 0.20852,-0.814727 0.11232,-2.198037 -0.21346,-3.073967 -0.36353,-0.97706 -0.32136,-1.86982 0.1092,-2.3097 0.47703,-0.48744 0.31,-1.32794 -0.52156,-2.62479 -1.14784,-1.79011 -1.27907,-1.8298 -2.12778,-0.64374 -1.23568,1.72675 -1.13979,6.6657 0.1664,8.571217 1.34105,1.95645 2.10126,1.98023 2.58731,0.081 z m 6.76034,-0.45179 c 0.3815,-4.701297 0.13182,-7.034427 -0.90664,-8.472967 -1.14702,-1.58883 -1.1828,-1.593 -1.90089,-0.22184 -1.07458,2.05175 -0.89151,6.56758 0.33901,8.36279 1.28557,1.875477 2.33187,2.016257 2.46852,0.332127 z M 31.25876,99.902003 c 1.824212,-0.80102 -4.087486,-0.80102 -6.53523,0 -1.356498,0.443917 -0.993226,0.567167 1.719796,0.583447 1.891786,0.0106 4.058704,-0.25106 4.815434,-0.583447 z m 111.69637,-1.13309 c 0.58575,-1.31367 0.60874,-2.0945 0.0809,-2.7445 -0.40583,-0.49969 -0.54985,-1.67396 -0.32006,-2.60952 0.2795,-1.138 0.0369,-2.02396 -0.73273,-2.67673 -2.56287,-2.17343 -4.08387,3.70645 -2.01589,7.79286 1.29202,2.553057 1.93282,2.604067 2.9879,0.23778 z m 7.26482,-2.73308 c -0.25194,-0.77323 -0.42461,-2.39772 -0.3835,-3.60995 0.0411,-1.21226 -0.36738,-2.57901 -0.90772,-3.03725 -0.79729,-0.67613 -1.18497,-0.4329 -2.05714,1.2905 -1.42626,2.81831 -1.35322,4.17831 0.38046,7.08427 1.39708,2.341817 1.48608,2.380287 2.43807,1.05442 0.57176,-0.79632 0.795,-1.96843 0.52983,-2.78199 z m 6.94954,0.98364 c 0.2522,-0.81215 0.1352,-1.80724 -0.26034,-2.21131 -0.39546,-0.4041 -0.54699,-1.61354 -0.33675,-2.68768 0.23218,-1.18678 -0.0286,-2.55242 -0.66503,-3.48083 l -1.04726,-1.52786 -0.84871,1.62045 c -1.12313,2.14442 -0.993,4.93324 0.35443,7.59578 1.28253,2.53427 2.16374,2.75163 2.80366,0.69145 z M 31.443048,95.885033 c -1.033708,-0.16047 -2.89107,-0.16366 -4.1275,-0.008 -1.23643,0.15648 -0.390676,0.28768 1.879462,0.29163 2.270112,0.003 3.281746,-0.12407 2.248038,-0.28446 z m 13.230074,-3.01241 c 0,-1.9331 -0.303654,-3.51471 -0.674804,-3.51471 -0.952328,0 -1.619982,3.18128 -1.106456,5.27203 0.7319,2.97976 1.78126,1.9445 1.78126,-1.75732 z m 5.482282,0 c 0,-0.96656 -0.283556,-2.21536 -0.630136,-2.77511 -0.504634,-0.81508 -0.798512,-0.6401 -1.475708,0.87867 -0.668876,1.50005 -0.668876,2.2928 0,3.79284 0.677196,1.51878 0.971074,1.69375 1.475708,0.87868 0.34658,-0.55976 0.630136,-1.80855 0.630136,-2.77508 z m 4.711434,-0.4346 c -0.12038,-1.50076 -0.528476,-2.72864 -0.906828,-2.72864 -0.884416,0 -1.271998,2.79291 -0.706862,5.09376 0.660192,2.68778 1.876082,0.90569 1.61369,-2.36512 z m 5.617846,0.3932 c 0.0052,-0.9893 -0.42601,-2.40876 -0.959556,-3.15433 -0.912054,-1.27459 -0.998088,-1.20299 -1.438788,1.19749 -0.543842,2.96228 0.751582,6.3956 1.784354,4.72922 0.33189,-0.5355 0.608192,-1.78307 0.61399,-2.77238 z m 102.823716,1.27154 c 0.47515,-2.88744 0.15626,-5.34581 -0.97274,-7.50162 l -0.88465,-1.68908 -0.94791,2.30361 c -1.21802,2.96011 -1.19548,4.53459 0.10166,7.09772 1.36357,2.69439 2.23681,2.62635 2.70366,-0.21068 z m -97.997778,-1.54014 c 0,-1.71696 -0.300482,-3.31151 -0.667732,-3.54345 -0.901758,-0.56948 -1.64944,2.72596 -1.113528,4.90784 0.69849,2.84376 1.78126,2.01437 1.78126,-1.36439 z m 5.503342,0.36749 c 0,-3.25567 -0.590148,-5.1228 -1.447914,-4.58108 -0.698568,0.44116 -0.82927,4.54322 -0.19838,6.22342 0.762814,2.03132 1.64619,1.15001 1.64619,-1.64234 z m 5.23016,-2.10714 c -0.039,-1.32063 -0.42081,-2.52062 -0.848588,-2.66666 -1.208532,-0.41255 -1.702558,2.8877 -0.81965,5.47572 0.68471,2.00704 0.861276,2.14107 1.267266,0.96199 0.25948,-0.75346 0.439894,-2.45045 0.400972,-3.77105 z m 5.066698,0.46801 c -0.0208,-4.08437 -0.09568,-4.29449 -1.070238,-2.98749 -0.72488,0.97206 -0.911144,2.16342 -0.60359,3.86083 0.926588,5.11414 1.701648,4.70978 1.673828,-0.87334 z m 5.503342,-0.70293 c -0.0208,-4.01611 -0.10868,-4.27618 -1.031862,-3.02888 -1.07341,1.45015 -1.252342,3.26337 -0.57642,5.84063 0.79235,3.02121 1.630044,1.55669 1.608282,-2.81175 z m 5.525208,1.6391 c 0,-1.51484 0.15158,-3.17554 0.336726,-3.69042 0.18512,-0.51488 0.03042,-1.41064 -0.343954,-1.99056 -1.48525,-2.30069 -2.689752,2.78592 -1.62292,6.85363 0.662506,2.5262 1.630148,1.83012 1.630148,-1.17265 z m 124.004328,0.55038 c 1.20234,-1.65318 1.24615,-2.06899 0.40721,-3.86614 -0.70884,-1.51843 -1.49989,-2.06878 -3.21594,-2.23746 -2.88584,-0.28366 -4.24975,0.86962 -4.24975,3.59337 0,4.59841 4.40133,6.16367 7.05848,2.51023 z m -4.20144,-0.0784 c -1.14814,-1.17324 -0.97339,-3.12018 0.32578,-3.62961 1.28024,-0.502 3.00843,0.7084 3.00843,2.10709 0,1.42562 -2.36995,2.50781 -3.33421,1.52252 z M 98.330625,90.060843 c 0,-4.27837 -0.747217,-5.32543 -2.039547,-2.85797 -1.284868,2.45324 -0.386048,7.0756 1.375842,7.0756 0.365045,0 0.663705,-1.89792 0.663705,-4.21763 z m 5.800705,-0.77488 c -0.0567,-3.99377 -1.08935,-5.16804 -2.37915,-2.70536 -0.63563,1.21361 -0.55731,2.17273 0.38272,4.68793 1.40452,3.75801 2.0685,3.09863 1.99643,-1.98257 z m 65.71022,0.072 c -0.005,-1.73976 -0.44127,-3.74292 -0.96673,-4.4514 -0.92035,-1.24095 -0.98265,-1.2362 -1.69793,0.12938 -1.09,2.08119 -0.90501,5.88083 0.37744,7.75176 1.4677,2.14121 2.30271,0.88904 2.28722,-3.42987 z m -59.4742,-0.86247 c -0.20254,-5.47439 -0.1742,-5.39851 -1.39588,-3.74802 -1.17221,1.58363 -1.30268,4.43528 -0.32337,7.06732 1.10386,2.96677 1.89522,1.43891 1.71925,-3.3193 z m 6.90924,-0.23778 c 0.0567,-2.51594 -0.14534,-4.7314 -0.4492,-4.92324 -0.91525,-0.57801 -2.77942,3.86109 -2.32292,5.53154 0.65559,2.39886 1.90443,4.74737 2.30618,4.33684 0.19968,-0.20404 0.40924,-2.42922 0.46594,-4.94514 z m -85.019196,3.95039 c -2.023684,-0.62777 -10.30523,-1.58145 -9.213594,-1.06098 1.239342,0.59086 6.732232,1.57074 8.902868,1.58819 2.02033,0.0159 2.026856,0.005 0.310726,-0.52721 z m 91.831566,-4.41997 c -0.11778,-2.42277 -0.23478,-4.6423 -0.25974,-4.93226 -0.0996,-1.15182 -1.24475,-0.42824 -1.99896,1.26322 -1.07494,2.41076 -1.00487,4.19776 0.26283,6.70276 1.54204,3.04711 2.23996,1.98631 1.99592,-3.03372 z m 6.94111,-1.06051 c -0.11284,-5.00946 -1.23455,-6.56043 -2.42686,-3.35591 -0.97238,2.6134 -0.86565,4.34591 0.44111,7.15983 1.4924,3.21369 2.117,2.01721 1.98575,-3.80392 z m 44.67846,2.21969 c 0.86307,-3.03367 0.93316,-4.15151 0.30854,-4.92057 -0.44455,-0.54732 -1.0302,-0.99512 -1.30151,-0.99512 -0.68739,0 -2.08993,3.30216 -2.08993,4.92056 0,1.21925 1.33999,4.92059 1.78139,4.92059 0.10166,0 0.68728,-1.76646 1.30151,-3.92546 z m -37.28507,1.6409 c 0.16952,-0.48327 0.0182,-1.45591 -0.33839,-2.16145 -0.35571,-0.7055 -0.44681,-2.49189 -0.20254,-3.96975 0.53035,-3.20764 -0.48727,-4.2102 -2.01347,-1.98369 -1.36164,1.9865 -1.37134,4.26796 -0.0294,6.91966 1.11252,2.19835 2.07543,2.64379 2.58373,1.19523 z m 85.79592,-0.13417 c 0,-0.5571 -0.33655,-1.22546 -0.74787,-1.48521 -0.97136,-0.61345 -2.29723,0.74137 -1.69689,1.73394 0.67431,1.11489 2.44476,0.93476 2.44476,-0.24867 z M 48.176804,84.964803 c 0.406874,-0.78763 0.385918,-1.23014 -0.05824,-1.23014 -0.381576,0 -0.693758,0.31631 -0.693758,0.70296 0,0.38661 -0.464334,0.70293 -1.031862,0.70293 -0.71084,0 -1.031888,0.72896 -1.031888,2.34311 0,3.26617 0.917774,3.87061 1.606072,1.05777 0.315822,-1.29055 0.860184,-2.90006 1.209702,-3.57663 z m 4.05288,1.90799 c 0.0078,-1.61165 -0.301002,-2.13392 -1.262352,-2.13392 -0.772642,0 -1.19444,0.42426 -1.073306,1.0795 0.863044,4.66828 1.07822,5.20229 1.694992,4.20608 0.34658,-0.55976 0.634868,-1.978 0.640666,-3.15166 z m 92.896526,0.40952 c -0.40084,-0.76537 -0.53537,-2.62777 -0.29892,-4.13868 0.48146,-3.07668 -0.59564,-4.48602 -1.74757,-2.28663 -1.0861,2.07372 -0.869,6.56864 0.40716,8.43043 0.98665,1.43936 1.20799,1.50482 1.74889,0.51719 0.38192,-0.69737 0.33993,-1.66409 -0.10946,-2.52231 z m -111.10092,2.10044 c -0.553228,-0.91467 -13.35009,-5.06639 -14.736592,-4.78103 -0.605202,0.12461 2.304822,1.39704 6.46672,2.82769 8.186204,2.81403 8.891142,2.98053 8.269872,1.95334 z m 23.669906,-3.36353 c 0.06006,-1.96376 -1.755468,-2.11995 -2.351102,-0.20218 -0.23556,0.75862 -0.05304,2.09593 0.405626,2.97182 0.807404,1.54162 0.851032,1.54808 1.365598,0.20218 0.292344,-0.76462 0.55328,-2.10194 0.579878,-2.97182 z m 4.863768,0.0895 c 0,-2.80855 -0.13988,-3.13061 -1.031888,-2.37422 -1.082874,0.91834 -1.317264,2.63974 -0.614302,4.5116 0.810394,2.158 1.64619,1.07281 1.64619,-2.13738 z m 89.084276,-1.84701 c -0.22802,-6.351295 -0.12948,-6.11734 -1.74174,-4.13977 -1.61224,1.97752 -1.69346,3.52791 -0.35618,6.79838 1.56276,3.82185 2.29708,2.89126 2.09792,-2.65861 z m -84.02881,-1.1248 c -0.08164,-0.1355 -0.478686,-0.0377 -0.882206,0.21732 -0.836888,0.52854 -0.995306,4.09242 -0.21788,4.89867 0.4459,0.46236 1.50202,-4.44965 1.099956,-5.11589 z m 5.639088,-1.36152 c -0.760318,-0.77692 -1.751646,0.88574 -1.751646,2.93786 0,3.50945 0.968838,3.73336 1.533896,0.3545 0.27612,-1.65103 0.374088,-3.13261 0.21762,-3.29236 z m 5.234242,3.0258 c 0.280618,-3.6053 0.0455,-4.76046 -0.853398,-4.19282 -0.814606,0.51446 -0.824382,7.34376 -0.0104,7.34376 0.340262,0 0.729014,-1.41792 0.863902,-3.15094 z m 80.57484,-1.82964 c 0.44852,-4.76174 -0.31439,-6.603845 -1.86605,-4.50566 -1.21948,1.64899 -1.40046,6.15682 -0.32929,8.20206 1.06403,2.0315 1.76733,0.84733 2.19534,-3.6964 z m -75.168842,1.99309 c 0.0052,-1.2565 0.19604,-2.99626 0.424216,-3.86617 0.505154,-1.92617 -0.786942,-2.128 -1.757678,-0.27455 -0.765206,1.46101 -0.2041,6.42528 0.72618,6.42528 0.328848,0 0.602134,-1.02804 0.607282,-2.28456 z m 5.186662,-5.99608 c -1.283568,-1.311601 -1.728896,2.98207 -0.677898,6.53585 0.55471,1.87572 0.643006,1.66264 0.839228,-2.02534 0.12064,-2.26689 0.0481,-4.29662 -0.1612,-4.51051 z m -55.75791,6.17201 c -2.76666,-1.87202 -13.929682,-6.83326 -16.51,-7.337621 -1.135082,-0.221841 0.25792,0.704921 3.095612,2.059481 2.837666,1.35456 7.01675,3.39355 9.286888,4.53113 4.731506,2.37096 7.183306,2.81473 4.1275,0.74701 z m 61.779068,-3.80196 c 0.371436,-3.852137 0.318552,-4.069514 -0.729586,-2.99849 -1.13295,1.15769 -1.44287,5.26257 -0.513344,6.79939 0.692016,1.14416 0.797082,0.82285 1.24293,-3.8009 z m 5.622302,2.21283 c -0.2314,-1.2605 -0.0819,-3.20232 0.33202,-4.31511 0.91793,-2.467054 0.27523,-3.385395 -1.061715,-1.517096 -1.13992,1.592976 -1.24592,3.791456 -0.30475,6.320976 0.940655,2.52814 1.536635,2.24655 1.034445,-0.48877 z m 65.02259,-2.62869 c 0,-4.852259 -0.87389,-5.842653 -2.43441,-2.75904 -1.13126,2.23539 -0.92372,5.03151 0.50391,6.78926 1.27078,1.56463 1.9305,0.18731 1.9305,-4.03022 z m -58.13506,-3.86617 0.55606,-2.108817 -1.47883,1.339096 c -1.52968,1.385137 -2.00829,5.286801 -0.97118,7.917351 0.37027,0.93923 0.61997,0.4317 0.92274,-1.87557 0.22828,-1.73979 0.66534,-4.11222 0.97121,-5.27206 z m 64.59666,6.97189 c 0.63632,-1.69441 0.49764,-7.189799 -0.1924,-7.62559 -1.00945,-0.63752 -2.35363,1.61628 -2.29167,3.8425 0.1157,4.15424 1.53369,6.31391 2.48409,3.78309 z m -58.55421,-2.93 c 0.17706,-1.83642 0.56074,-4.082592 0.85269,-4.991475 0.44343,-1.380435 0.31728,-1.610485 -0.76616,-1.397279 -2.13572,0.420302 -3.21415,3.596214 -2.34331,6.900924 0.99302,3.76829 1.86322,3.57082 2.25678,-0.51217 z m 6.93493,-2.81175 c 0.46911,-4.883899 -0.25558,-5.661644 -2.02236,-2.170426 -0.94484,1.867026 -0.99427,2.668756 -0.30867,5.007046 1.0505,3.58282 1.80232,2.66796 2.33103,-2.83662 z m -87.956398,2.22925 C 26.083122,75.723044 14.951196,69.654327 12.769536,69.68751 c -0.42484,0.0053 1.70404,1.391089 4.730882,3.076947 3.026842,1.685858 8.106644,4.685652 11.288446,6.666176 6.667336,4.1501 8.888256,4.77728 3.843528,1.08537 z m 32.67823,1.81267 c 0,-0.38665 -0.1365,-0.70296 -0.303342,-0.70296 -0.16692,0 -0.494702,0.31631 -0.72852,0.70296 -0.23374,0.38661 -0.09724,0.70293 0.303342,0.70293 0.400686,0 0.72852,-0.31632 0.72852,-0.70293 z m 61.809208,-2.68577 c -0.0712,-1.42246 0.12142,-3.497405 0.42799,-4.61102 0.70491,-2.560548 -0.85793,-2.280816 -2.34856,0.420356 -0.82368,1.492604 -0.84716,2.291523 -0.13832,4.708764 1.01244,3.45301 2.24216,3.14358 2.05897,-0.5181 z m 52.37443,-0.73109 c -0.005,-0.63375 -0.32123,-1.626743 -0.70099,-2.206665 -0.59764,-0.912656 -0.82742,-0.870971 -1.70927,0.310073 -1.10242,1.476532 -1.28281,3.089512 -0.56058,5.012732 0.41374,1.10173 0.58066,1.06563 1.71979,-0.37185 0.69387,-0.87562 1.25684,-2.11054 1.25105,-2.74429 z m -108.985588,0.76175 c -0.574132,-0.58667 -1.758042,0.65269 -1.736592,1.8179 0.0182,1.04361 0.1443,1.02337 1.024764,-0.16578 0.55159,-0.74501 0.87191,-1.48843 0.711828,-1.65201 z m 63.809748,-2.411315 c 0.22854,-2.786508 0.247,-5.238022 0.0406,-5.447775 -0.81767,-0.831332 -3.00835,3.076336 -3.00835,5.366238 0,2.525722 1.01272,5.147962 1.98819,5.147962 0.31016,0 0.75099,-2.27989 0.9796,-5.066425 z m 6.39517,1.528075 c -0.2548,-1.628076 -0.12324,-3.447331 0.30901,-4.272553 0.414,-0.790444 0.5511,-1.966015 0.30467,-2.612382 -0.39231,-1.029076 -0.61277,-0.968847 -1.77276,0.484251 -1.44443,1.809478 -1.74774,5.709064 -0.61261,7.876414 1.26368,2.41275 2.25144,1.58998 1.77169,-1.47573 z M 38.10352,80.325803 C 36.678642,79.024243 26.300092,70.57503 24.035622,68.873072 c -2.9341,-2.205285 -9.257482,-5.530746 -10.46786,-5.505055 -0.485524,0.01063 0.831714,0.969644 2.927184,2.131851 2.09547,1.162234 7.51283,5.094955 12.038546,8.739389 4.525716,3.644434 8.677448,6.639126 9.226074,6.654856 0.600418,0.0159 0.737334,-0.20909 0.343954,-0.56831 z m 37.935248,-2.56629 c 0.458978,-1.91009 0.398762,-2.017902 -0.639236,-1.144061 -0.630292,0.530612 -1.145976,1.780091 -1.145976,2.776601 0,2.27213 1.085448,1.27947 1.785212,-1.63254 z m 72.233542,-2.680582 c 0.15808,-4.958741 -0.33623,-5.700115 -2.09248,-3.137972 -1.27644,1.862161 -1.36489,4.03862 -0.26442,6.506634 1.30687,2.9309 2.19656,1.65929 2.3569,-3.368662 z m -67.009778,1.281231 c 0.289822,-2.536717 -0.346658,-3.32926 -1.0881,-1.354903 -0.634842,1.690534 -0.498368,4.645614 0.19448,4.208154 0.336544,-0.21255 0.738738,-1.496514 0.89375,-2.853251 z M 155.58104,74.39072 c 0.34804,-4.591124 -0.44135,-5.724478 -2.32848,-3.343076 -1.55095,1.957168 -1.59684,3.664573 -0.17394,6.47608 1.4131,2.792299 2.12046,1.906719 2.5025,-3.133004 z m -68.743276,0.908511 c 0.354172,-2.865334 0.298298,-3.03473 -0.593268,-1.798717 -1.028768,1.426184 -1.31248,4.040825 -0.525668,4.844789 0.633646,0.64751 0.67691,0.52974 1.118936,-3.046072 z m 120.527656,2.381084 c -2.7984,-2.214796 -9.45269,-5.265919 -10.89436,-4.995273 -1.33882,0.251332 -1.27894,0.362757 0.59675,1.110347 1.14671,0.457046 3.93279,1.74893 6.19125,2.870861 4.56139,2.265943 6.1991,2.670383 4.10636,1.014065 z m -45.36773,-1.217947 c 0.69802,-2.841901 0.0715,-7.138122 -1.04091,-7.138122 -1.56286,0 -2.43717,4.123185 -1.41105,6.654536 1.03548,2.554441 1.90135,2.725211 2.45196,0.483586 z M 92.139372,75.356754 c 0,-1.128227 0.21268,-2.630767 0.472758,-3.338958 0.416156,-1.133487 0.333814,-1.172143 -0.687908,-0.322878 -1.250912,1.039756 -1.637636,5.71316 -0.472758,5.71316 0.378352,0 0.687908,-0.923097 0.687908,-2.051324 z m 76.916298,-2.595432 c -0.25298,-4.0692 -1.86287,-4.730232 -2.86083,-1.174614 -0.49408,1.760327 -0.37107,2.674019 0.55424,4.117048 1.6256,2.535177 2.57197,1.327937 2.30659,-2.942434 z m 13.17971,1.132079 c 0,-2.239052 -0.97739,-3.835988 -1.96575,-3.211804 -1.01925,0.643684 -0.97888,4.820722 0.0569,5.879049 1.04533,1.068157 1.90892,-0.138418 1.90892,-2.667245 z M 98.711805,69.83451 c -0.33553,-0.349313 -1.623333,1.577541 -1.773145,2.653004 -0.08086,0.579922 -0.08944,1.845212 -0.0182,2.811747 0.09048,1.242575 0.398788,0.727825 1.052555,-1.757351 0.50854,-1.933071 0.84134,-3.601421 0.73952,-3.7074 z m 6.105015,0.192616 0.48885,-2.108817 -1.42376,1.659477 c -1.512,1.76232 -1.69559,2.894983 -0.92731,5.721369 0.45284,1.665985 0.50097,1.629428 0.92552,-0.70293 0.24622,-1.35315 0.66784,-3.409256 0.9367,-4.569099 z m 70.79402,5.664037 c 0.60773,-1.618323 -0.32926,-6.015502 -1.28182,-6.015502 -1.69905,0 -2.36174,4.669605 -0.87789,6.185854 1.08875,1.112526 1.69593,1.064624 2.15971,-0.170299 z m -65.10179,-2.676544 c -0.0585,-1.256523 0.1391,-2.996287 0.43922,-3.866169 0.70208,-2.035622 -0.59498,-2.115591 -1.64972,-0.101754 -0.83281,1.590081 -0.30415,6.252433 0.70894,6.252433 0.33431,0 0.56001,-1.02804 0.50156,-2.284537 z m 7.12923,-4.35823 c 0.35305,-0.367273 0.64194,-1.286199 0.64194,-2.042026 0,-1.329717 -0.0445,-1.333011 -1.37584,-0.10202 -0.95766,0.885583 -1.37582,2.165034 -1.37582,4.209424 0,3.809287 0.96647,4.818411 1.24982,1.304956 0.11986,-1.48644 0.50682,-3.003141 0.8599,-3.370414 z m -32.817206,4.182484 c 0.21788,-0.579921 0.0962,-1.054395 -0.270374,-1.054395 -0.36647,0 -0.666328,0.474474 -0.666328,1.054395 0,0.579922 0.12168,1.054422 0.270374,1.054422 0.14872,0 0.448526,-0.4745 0.666328,-1.054422 z m 38.962486,-1.37281 c 0,-1.334951 0.35984,-3.234227 0.79966,-4.220582 1.09429,-2.454172 0.22464,-3.06005 -1.4475,-1.00838 -1.42397,1.747256 -1.68839,3.382369 -0.98233,6.074561 0.63102,2.406111 1.63017,1.887827 1.63017,-0.845599 z m 6.8308,-2.327151 c 0.0265,-0.875142 0.42359,-2.205125 0.88221,-2.955531 1.16188,-1.901084 0.14924,-2.62216 -1.51755,-1.080724 -1.39666,1.291539 -1.83138,4.662033 -0.91579,7.100131 0.43079,1.147169 0.50164,1.138668 0.98352,-0.118227 0.28559,-0.74496 0.54101,-2.070506 0.56761,-2.945622 z m 7.08305,0.01063 c 0.1586,-1.836445 0.54319,-3.924618 0.8547,-4.640407 0.45276,-1.040447 0.30763,-1.250519 -0.72366,-1.047567 -1.71051,0.336587 -2.65483,3.281784 -2.07132,6.460086 0.65663,3.576607 1.59708,3.202373 1.94028,-0.772112 z m -62.44639,1.284844 c -0.359424,-0.35654 -1.89176,-0.822804 -3.405194,-1.036117 l -2.751658,-0.387889 2.751658,0.982104 c 3.360162,1.199269 4.290442,1.319993 3.405194,0.441902 z m 15.110706,-0.505612 c 0.36231,-0.964755 0.261638,-1.008247 -0.614302,-0.265412 -1.193712,1.012312 -1.31794,1.419224 -0.433316,1.419224 0.33787,0 0.809302,-0.519214 1.047618,-1.153838 z m 54.059314,-1.00118 c 0,-1.185268 0.33823,-2.800854 0.75166,-3.590156 0.55166,-1.053359 0.53934,-1.648822 -0.0463,-2.238361 -1.73675,-1.748186 -3.57324,3.618371 -2.35152,6.871648 0.69521,1.851216 1.64619,1.248605 1.64619,-1.043131 z m 6.90235,1.627808 c 0.013,-0.289961 0.14222,-2.346041 0.28787,-4.569099 0.1456,-2.223032 0.0822,-4.041888 -0.14092,-4.041888 -0.741,0 -2.92178,2.314239 -2.91788,3.096447 0.008,1.773186 1.48702,6.041751 2.09225,6.041751 0.36057,0 0.66601,-0.237251 0.67875,-0.527211 z m 33.68474,-1.991653 c 0,-3.176098 -1.62391,-2.934065 -1.93536,0.288446 -0.15938,1.648079 0.0653,2.230418 0.85989,2.230418 0.77525,0 1.07547,-0.703116 1.07547,-2.518864 z M 96.056298,68.270864 c 0.810706,-2.194684 0.389428,-2.71334 -1.027676,-1.26529 -0.918658,0.938719 -1.126814,3.374107 -0.288392,3.374107 0.295412,0 0.88764,-0.948975 1.316068,-2.108817 z m 62.800462,-3.39754 c 0.0104,-4.072999 -0.9241,-4.590141 -2.64935,-1.464522 -0.81003,1.467497 -0.78182,2.090299 0.2041,4.501245 1.45379,3.555379 2.43022,2.342826 2.44532,-3.036723 z m 19.94959,2.870329 c -0.013,-3.026548 -0.86518,-4.792189 -1.97631,-4.090454 -1.0211,0.644853 -0.97805,4.821572 0.0606,5.882955 1.40496,1.435669 1.92657,0.947593 1.91562,-1.792501 z m -13.18848,-1.540931 c 0.11856,-1.657298 0.0182,-3.530644 -0.22308,-4.162984 -0.37832,-0.99204 -0.61952,-0.922911 -1.75858,0.503938 -1.23961,1.552833 -1.29005,2.881381 -0.23972,6.312848 0.59399,1.94043 2.01422,0.243626 2.22131,-2.653802 z m 6.37143,2.577765 c -0.0283,-0.28029 -0.0515,-1.774913 -0.0515,-3.32137 0,-3.068578 -1.08407,-3.740211 -1.99144,-1.233808 -0.64295,1.776082 0.40409,5.640631 1.4333,5.290069 0.36372,-0.123806 0.63809,-0.454601 0.60973,-0.734891 z M 79.756872,68.288903 c 0,-0.376678 -0.851292,-1.129396 -1.89176,-1.67268 -2.265302,-1.18285 -6.93966,-2.271677 -6.151496,-1.432906 0.411164,0.437544 5.807152,2.994055 7.871292,3.729238 0.09464,0.03374 0.17186,-0.246815 0.17186,-0.623652 z m 22.022738,-0.193679 c 0.005,-0.483268 0.19734,-1.595102 0.42686,-2.470723 0.3321,-1.266432 0.18954,-1.502647 -0.69732,-1.154928 -1.21503,0.47644 -1.596735,4.504327 -0.42684,4.504327 0.37835,0 0.69212,-0.395408 0.6973,-0.878676 z m 7.21942,-4.744818 c 0.51883,-1.749594 0.51464,-1.751427 -0.94614,-0.418256 -0.91734,0.837203 -1.45694,2.15446 -1.4397,3.514677 l 0.0276,2.175608 0.91858,-1.757352 c 0.50523,-0.966535 1.1531,-2.548141 1.43972,-3.514677 z m 79.89922,2.490596 c -0.22412,-0.596606 -0.73754,-1.084736 -1.14106,-1.084736 -0.50877,0 -0.49829,0.4495 0.0341,1.46609 0.85391,1.630384 1.74686,1.322756 1.10692,-0.381354 z M 85.260214,65.825061 c 0,-0.527503 -5.34482,-3.181225 -6.335836,-3.14573 -0.48802,0.0186 0.505726,0.793978 2.208336,1.725576 3.101644,1.697123 4.1275,2.050076 4.1275,1.420154 z M 114.3213,64.229162 c 0.17862,-1.063189 0.5758,-2.565703 0.88265,-3.338958 0.55037,-1.386918 0.53779,-1.387821 -0.93459,-0.06668 -0.87454,0.784652 -1.49248,2.16708 -1.49248,3.338958 0,2.557918 1.11782,2.606245 1.54442,0.06669 z m 6.71058,-0.614885 c 0,-0.969139 0.33464,-2.401009 0.74365,-3.181942 1.0004,-1.910064 0.0829,-2.702713 -1.14384,-0.988268 -1.11317,1.555596 -1.36123,7.044684 -0.28772,6.366727 0.37835,-0.238844 0.68791,-1.227378 0.68791,-2.196517 z m 60.68023,-0.988799 c -0.19448,-1.35315 -0.56015,-1.942237 -0.95527,-1.538487 -0.72418,0.739992 -0.002,4.534641 0.77038,4.046936 0.27493,-0.173487 0.35813,-1.302405 0.18486,-2.508449 z m -53.80105,0.178535 c 0,-1.073816 0.48189,-2.655422 1.07086,-3.514677 0.85429,-1.246294 0.88211,-1.562291 0.13754,-1.562291 -0.51329,0 -1.30475,0.379574 -1.75879,0.843527 -0.99539,1.01712 -1.11036,6.185854 -0.13754,6.185854 0.37835,0 0.68793,-0.87857 0.68793,-1.952413 z m -37.835438,0.547828 c 0,-0.890685 -6.191354,-4.895351 -7.567066,-4.894528 -0.567554,3.46e-4 0.8255,1.242575 3.095612,2.760498 4.754204,3.17894 4.471454,3.044002 4.471454,2.13403 z m 44.714598,-1.75435 c 0,-0.918554 0.30189,-2.48151 0.67088,-3.473205 0.79804,-2.144869 0.0208,-2.342188 -1.67786,-0.42535 -0.92082,1.039703 -1.10724,1.993141 -0.75977,3.885696 0.49909,2.718521 1.76675,2.72774 1.76675,0.01328 z m 7.62585,-4.11463 c 1.03046,-1.847098 0.19864,-2.320562 -1.43039,-0.814117 -0.83002,0.767543 -1.38005,2.166655 -1.38005,3.510373 0,3.15503 0.90862,3.703362 1.54778,0.934097 0.29601,-1.28248 0.86421,-2.916132 1.26266,-3.630353 z m 32.66887,3.409707 c -0.0283,-1.351901 -0.36116,-2.353718 -0.73952,-2.226299 -0.8528,0.287224 -1.27688,2.315062 -0.7677,3.670949 0.70005,1.864074 1.5594,1.040393 1.50722,-1.44465 z m -26.5364,-0.751442 c 0,-1.378576 0.32045,-3.118366 0.71211,-3.866169 0.87295,-1.666729 0.17056,-1.757591 -1.51783,-0.196336 -1.26781,1.172409 -1.6115,3.403916 -0.84047,5.457073 0.73637,1.960808 1.64619,1.190024 1.64619,-1.394595 z m 13.3887,-1.391461 c 0.013,-1.721671 -0.16848,-3.13056 -0.40602,-3.130879 -1.14977,-0.0015 -1.99542,2.143753 -1.56655,3.974087 0.99445,4.244255 1.93414,3.842577 1.97257,-0.843208 z m 6.56089,1.086197 c 0,-2.808107 -1.05131,-3.790929 -1.83183,-1.712532 -0.39653,1.055909 0.73278,4.524279 1.47311,4.524279 0.19734,0 0.35872,-1.26529 0.35872,-2.811747 z m -12.9589,-1.103971 c 0.28226,-3.626421 0.0686,-4.141623 -1.25208,-3.021499 -0.97107,0.823521 -1.21022,3.246156 -0.50565,5.122372 0.76412,2.03472 1.50475,1.149482 1.75773,-2.100873 z m -61.057518,1.027987 c -1.395212,-1.577701 -7.778472,-5.147559 -8.28282,-4.632197 -0.335166,0.342485 7.991152,5.962791 8.970754,6.055273 0.342394,0.03241 0.03276,-0.608056 -0.687934,-1.423076 z m 23.798508,-1.412874 c 0,-0.386614 -0.30956,-0.507445 -0.68791,-0.268494 -0.37838,0.238844 -0.68793,0.750752 -0.68793,1.137393 0,0.386614 0.30955,0.507418 0.68793,0.268494 0.37835,-0.238845 0.68791,-0.750779 0.68791,-1.137393 z M 99.687355,56.649111 c -1.2336,-1.518853 -6.681533,-4.724122 -7.531967,-4.431398 -0.379184,0.130447 1.22135,1.576478 3.556748,3.213265 4.173889,2.925325 5.755394,3.409947 3.975219,1.218133 z m 26.159955,-0.500085 c 0,-0.392114 -0.45627,-0.315998 -1.03189,0.172159 -0.56752,0.481301 -1.03186,1.191405 -1.03186,1.578019 0,0.392114 0.45625,0.315997 1.03186,-0.172159 0.56753,-0.481302 1.03189,-1.191405 1.03189,-1.578019 z m -20.35509,-1.320605 c -1.50753,-1.722096 -6.466645,-5.075215 -6.880535,-4.652282 -0.15236,0.155687 1.490165,1.745954 3.649905,3.534098 3.97624,3.292145 5.63686,3.866913 3.23063,1.118184 z m 26.79511,1.141272 c 0.21788,-0.579921 0.0962,-1.054395 -0.27037,-1.054395 -0.36647,0 -0.66633,0.474474 -0.66633,1.054395 0,0.579921 0.12168,1.054422 0.27037,1.054422 0.14872,0 0.44853,-0.474501 0.66633,-1.054422 z m 7.03672,-1.576425 c -0.47705,-0.487492 -1.78217,0.502981 -1.78217,1.352512 0,0.466105 0.3947,0.412783 1.0485,-0.141606 0.57668,-0.489033 0.90683,-1.033938 0.73367,-1.210853 z m 5.56691,-0.312729 c -0.2197,-0.56074 -0.38259,-0.394186 -0.41561,0.424712 -0.0299,0.741002 0.13286,1.156176 0.3613,0.922592 0.22854,-0.23353 0.25298,-0.83986 0.0543,-1.347304 z m 13.28842,0.834759 c 0,-0.386641 -0.30956,-0.702957 -0.68791,-0.702957 -0.37838,0 -0.68793,0.316316 -0.68793,0.702957 0,0.386614 0.30955,0.70293 0.68793,0.70293 0.37835,0 0.68791,-0.316316 0.68791,-0.70293 z m -47.16915,-2.236475 c -1.54921,-2.079778 -4.60624,-4.648165 -6.24723,-5.248676 -0.70015,-0.256113 0.58438,1.289493 2.85452,3.434894 4.23191,3.99938 5.54281,4.700211 3.39271,1.813782 z m 40.9779,1.533518 c 0,-0.386614 -0.30956,-0.70293 -0.68791,-0.70293 -0.37838,0 -0.68793,0.316316 -0.68793,0.70293 0,0.386614 0.30955,0.702957 0.68793,0.702957 0.37835,0 0.68791,-0.316343 0.68791,-0.702957 z m -33.70791,-1.906476 c 0,-0.726709 -5.67952,-6.528791 -6.3909,-6.528791 -0.33059,0 0.73993,1.567365 2.37897,3.483061 2.80849,3.282501 4.01193,4.196141 4.01193,3.04573 z m 5.14943,-3.541298 c -1.59198,-2.564428 -4.56578,-5.79924 -5.33133,-5.79924 -0.33683,0 0.84217,1.739764 2.61997,3.866168 3.51559,4.204882 4.60296,4.980129 2.71136,1.933072 z m 6.87593,-1.383942 c -1.96341,-3.117197 -6.66575,-8.720393 -7.01708,-8.361383 -0.17654,0.180395 1.47947,2.705848 3.67985,5.612309 3.8688,5.110311 5.85515,6.746593 3.33723,2.749074 z m 6.27375,-1.893857 c -1.14777,-2.806992 -7.24823,-11.236202 -7.75627,-10.717094 -0.17524,0.179067 0.74267,1.859133 2.03981,3.733436 1.29714,1.874277 3.21339,4.924629 4.25833,6.778528 2.1762,3.860882 3.00037,3.976823 1.45813,0.205103 z m 4.1535,-5.875782 c -1.31765,-2.216443 -3.25158,-4.819952 -4.29764,-5.785557 l -1.9019,-1.755652 1.53954,2.460282 c 0.84674,1.35315 2.51817,4.435994 3.71428,6.850713 1.64343,3.317836 2.31725,4.130225 2.7581,3.325302 0.39871,-0.728037 -0.17498,-2.340674 -1.81238,-5.095088 z"
       id="path1" /></g></svg>
