<?xml version="1.0" encoding="UTF-8" standalone="no"?>
<!-- Created with Inkscape (http://www.inkscape.org/) -->

<svg
   width="240mm"
   height="180mm"
   viewBox="0 0 240 180"
   version="1.1"
   id="svg1"
   sodipodi:docname="fox.svg"
   inkscape:version="1.4.2 (f4327f4, 2025-05-13)"
   xml:space="preserve"
   xmlns:inkscape="http://www.inkscape.org/namespaces/inkscape"
   xmlns:sodipodi="http://sodipodi.sourceforge.net/DTD/sodipodi-0.dtd"
   xmlns="http://www.w3.org/2000/svg"
   xmlns:svg="http://www.w3.org/2000/svg"><sodipodi:namedview
     id="namedview1"
     pagecolor="#505050"
     bordercolor="#ffffff"
     borderopacity="1"
     inkscape:showpageshadow="0"
     inkscape:pageopacity="0"
     inkscape:pagecheckerboard="1"
     inkscape:deskcolor="#505050"
     inkscape:document-units="mm"
     inkscape:zoom="1"
     inkscape:cx="482"
     inkscape:cy="226"
     inkscape:window-width="2560"
     inkscape:window-height="1351"
     inkscape:window-x="-9"
     inkscape:window-y="-9"
     inkscape:window-maximized="1"
     inkscape:current-layer="layer1"
     showguides="true" /><defs
     id="defs1"><rect
       x="101.82338"
       y="91.923882"
       width="384.66608"
       height="299.81326"
       id="rect3" /><rect
       x="2.8284271"
       y="2.1213202"
       width="662.55902"
       height="647.00269"
       id="rect2" /></defs><g
     inkscape:label="Icon"
     inkscape:groupmode="layer"
     id="layer1"><path
       style="fill:#000000;stroke-width:3.63122"
       d="m 196.09087,155.97688 c -1.4924,-1.0364 -4.89569,-4.13464 -7.56295,-6.88495 -2.66722,-2.75028 -10.17431,-9.59307 -16.68235,-15.2061 l -11.83284,-10.20558 -1.00055,-5.77358 c -1.01936,-5.88214 -2.75833,-9.43218 -4.14619,-8.46432 -1.10092,0.7677 -9.95539,-2.25941 -18.92233,-6.46907 -6.26226,-2.93989 -8.9036,-3.625629 -14.24293,-3.697799 -3.60522,-0.0486 -6.55607,-0.233742 -6.55741,-0.410831 -9.7e-4,-0.177049 0.41891,-1.210551 0.93386,-2.296243 0.62818,-1.324449 0.63381,-1.974012 0.0171,-1.974012 -0.50555,0 -3.50201,4.490964 -6.65878,9.979905 -9.31782,16.20164 -14.369388,19.5901 -30.674065,20.57535 -8.711377,0.52639 -11.04588,1.01448 -13.090635,2.73709 -3.248738,2.73685 -9.288414,15.3166 -9.306361,19.3838 -0.01709,4.1032 -2.915198,8.21743 -6.39335,9.07944 -3.711256,0.91972 -5.565226,-0.85649 -4.425271,-4.23962 0.470483,-1.39635 0.855437,-3.47486 0.855437,-4.61891 0,-2.29601 11.607466,-29.49487 13.090054,-30.6729 0.511061,-0.40609 3.041306,-1.23655 5.622726,-1.84545 6.946901,-1.63862 8.858029,-3.81398 10.666635,-12.1413 0.848293,-3.905936 1.273618,-7.592399 0.945103,-8.192154 -0.328514,-0.599765 0.650808,-3.551887 2.176229,-6.560291 1.525457,-3.008404 2.773538,-5.730402 2.773538,-6.048892 0,-0.318607 -3.15432,1.215487 -7.009631,3.408899 -7.714484,4.389016 -15.880513,7.113906 -21.319119,7.113906 h -3.528061 l 2.135276,-1.953255 c 1.174379,-1.074315 1.93174,-2.161894 1.683012,-2.416862 -0.248864,-0.254958 -3.011428,0.02698 -6.139358,0.623102 C 36.517783,90.904275 24.209977,86.622791 16.331475,77.964487 7.8638981,68.658786 3.038598,56.425606 2.7634799,43.566554 2.6250321,37.097337 4.388413,26.190811 5.5642624,26.243423 c 0.3233869,0.01543 2.0126555,2.395643 3.7537822,5.291453 4.1727484,6.94026 12.2204994,13.520025 19.7585564,16.154469 3.47634,1.214909 10.603565,2.472943 16.872415,2.978161 6.999067,0.564041 12.541253,1.59878 15.605566,2.91363 2.613552,1.121449 5.462638,1.833261 6.33127,1.581885 1.471957,-0.42603 7.189271,3.416303 17.569235,11.807458 l 4.231785,3.420932 6.62184,-2.854846 c 5.687648,-2.452074 8.280688,-2.918799 18.379958,-3.308378 7.99422,-0.308578 15.15983,0.08023 22.38497,1.214061 11.63392,1.825623 20.12753,1.344512 19.2985,-1.093175 -0.35659,-1.04847 0.53105,-1.391956 3.59741,-1.391956 6.05425,0 9.79308,-2.248028 17.17943,-10.329409 5.57705,-6.101855 6.96591,-8.309382 8.51489,-13.534027 2.32024,-7.826111 6.90744,-16.958817 8.51813,-16.958817 0.67107,0 2.27926,2.755522 3.57373,6.12334 1.29443,3.367856 2.51978,6.12334 2.72294,6.12334 0.20306,0 2.08893,-2.56972 4.19049,-5.71054 2.30374,-3.442879 4.14885,-5.340633 4.64659,-4.779021 0.454,0.512278 1.07934,4.804209 1.3896,9.537598 0.53769,8.203888 0.70752,8.742163 3.63345,11.51593 1.68815,1.6004 4.06162,5.119266 5.27438,7.819745 2.45029,5.456041 4.77236,7.606173 12.43033,11.509989 2.86037,1.458146 5.20069,3.312043 5.20069,4.119745 0,2.328952 -6.77106,8.608625 -10.5635,9.796881 -1.90068,0.595516 -6.10135,1.08708 -9.33481,1.092287 -6.72104,0.01158 -10.14542,1.834572 -13.91452,7.410344 -1.30127,1.925025 -2.36592,3.788559 -2.36592,4.141224 0,1.804179 -4.87644,11.927574 -5.75881,11.955194 -1.54002,0.0482 -4.51781,5.10943 -3.60932,6.13456 0.43161,0.48701 4.22618,1.93945 8.43233,3.22761 7.10835,2.17702 8.10518,2.82927 14.13843,9.25089 6.70969,7.14168 8.86975,11.07026 8.35264,15.19148 -0.63594,5.06842 -8.41428,2.6361 -10.9691,-3.43011 -0.7787,-1.84897 -2.64908,-4.69324 -4.15638,-6.32065 -2.56866,-2.7733 -3.515,-3.04878 -15.08853,-4.3924 -6.79139,-0.78842 -12.56237,-1.19161 -12.8244,-0.896 -0.65221,0.73596 2.82362,5.5014 12.19565,16.72067 6.78917,8.12733 8.51471,9.6416 11.98753,10.5198 4.85634,1.22803 7.24909,3.43259 7.24909,6.6789 0,2.2746 -0.30253,2.39302 -6.10517,2.38939 -4.34855,-0.003 -6.88584,-0.54598 -8.81854,-1.88818 z m -13.55045,-46.1423 c 5.53568,-5.09909 8.86691,-8.9783 10.29429,-11.987696 0.59714,-1.258995 1.39272,-2.075031 1.76793,-1.813361 0.37521,0.261521 1.82156,-2.47525 3.21407,-6.081985 4.31451,-11.174835 9.61556,-14.731233 21.9739,-14.742033 6.2499,-0.0039 11.12231,-1.420962 11.12231,-3.231194 0,-0.471198 -1.3228,-0.858117 -2.93953,-0.859814 -1.61674,-0.0017 -7.17325,-0.930554 -12.34781,-2.064154 -10.05199,-2.202127 -14.31772,-1.907319 -23.83094,1.646764 -4.12499,1.541115 -6.21408,3.856952 -2.48731,2.757296 2.36623,-0.698196 2.28997,0.514477 -0.22596,3.595857 l -2.03508,2.492305 2.94651,-0.464949 c 2.84646,-0.449135 2.89934,-0.392935 1.55718,1.655712 -0.76413,1.166348 -2.57536,4.187285 -4.02494,6.713152 -1.44956,2.525897 -3.22859,5.511004 -3.95341,6.633643 -1.25769,1.947977 -1.29652,1.913035 -0.8512,-0.765427 0.25673,-1.543577 0.0616,-2.806545 -0.43353,-2.806545 -1.30944,0 -3.00985,5.197292 -3.38305,10.340199 -0.1781,2.45184 -0.75896,6.06221 -1.29123,8.0231 -1.77032,6.52206 -1.22629,6.62794 4.92793,0.95913 z M 19.742654,72.192811 c -2.000178,-4.36437 -1.796541,-4.494435 2.543508,-1.624508 2.157906,1.426902 4.23165,2.594406 4.608297,2.594406 0.37668,0 -0.307321,-1.951832 -1.519816,-4.337369 -1.21253,-2.385576 -2.461329,-5.146459 -2.775041,-6.135374 -0.53164,-1.675809 -0.388065,-1.691624 2.112543,-0.232591 1.475649,0.861009 3.805024,2.043209 5.17641,2.627077 2.38349,1.014757 2.34387,0.888126 -0.898338,-2.872204 -1.865456,-2.163554 -3.391733,-4.210465 -3.391733,-4.548667 0,-0.338278 1.526277,-0.214847 3.391733,0.273863 9.399513,2.462913 8.004915,-0.131917 -3.749852,-6.977175 C 20.271422,48.066659 15.051358,44.031002 12.076951,40.783568 9.3659716,37.823729 7.0256562,35.402049 6.8762693,35.402049 c -0.1493869,0 -0.271768,3.131408 -0.271768,6.958698 0,11.873186 4.4201437,24.02679 11.0157987,30.289029 3.465127,3.289901 3.805777,3.216536 2.122217,-0.457004 z M 214.63248,58.947805 c 0,-1.354734 -2.64688,-4.158009 -3.9086,-4.139493 -0.5863,0.0077 -1.61622,0.409057 -2.28869,0.889899 -0.95804,0.685004 -0.76762,1.233925 0.8796,2.535737 2.29598,1.814592 5.31769,2.220218 5.31769,0.713857 z M 195.35422,44.409203 c 1.15134,-1.220425 2.09334,-3.348609 2.09334,-4.729224 0,-3.15544 -1.88881,-10.401231 -2.7114,-10.401231 -1.22418,0 -2.91745,5.736037 -3.38923,11.481291 -0.54217,6.602445 0.40635,7.46627 4.00729,3.649164 z M 115.4022,151.10042 c -8.23436,-7.43459 -13.82834,-13.90494 -13.82834,-15.9947 0,-1.05518 0.83955,-3.12284 1.8657,-4.59481 1.37146,-1.96729 1.80779,-3.90717 1.64709,-7.32301 -0.19246,-4.09069 0.31483,-5.52477 4.23947,-11.98411 4.42665,-7.28564 4.48736,-7.33767 8.61269,-7.38087 4.40732,-0.0463 9.71484,1.77891 20.6853,7.1129 3.79683,1.84607 9.04051,3.51652 11.98419,3.81769 4.64552,0.47532 5.2337,0.7878 5.2337,2.78075 0,2.17544 -0.17571,2.21563 -5.65295,1.29271 -3.10909,-0.52392 -9.01552,-2.51657 -13.12536,-4.42813 -4.10986,-1.91156 -7.61669,-3.47555 -7.79294,-3.47555 -0.1764,0 -1.20611,2.74075 -2.28856,6.09056 -1.58207,4.89585 -3.02513,7.12787 -7.35695,11.37915 -3.6165,3.54925 -5.38883,6.04889 -5.38883,7.60022 0,2.7013 7.29377,10.43113 10.55215,11.1831 1.16073,0.26769 3.13832,0.72832 4.3946,1.02324 2.69307,0.63223 5.85604,3.92554 5.85604,6.09738 0,1.23254 -1.40304,1.53086 -7.20055,1.53086 h -7.20056 z"
       id="path1" /></g></svg>
