<?xml version="1.0" encoding="UTF-8" standalone="no"?>
<!-- Created with Inkscape (http://www.inkscape.org/) -->

<svg
   width="180mm"
   height="180mm"
   viewBox="0 0 180 180"
   version="1.1"
   id="svg1"
   sodipodi:docname="gazelle.svg"
   inkscape:version="1.4.2 (f4327f4, 2025-05-13)"
   xml:space="preserve"
   xmlns:inkscape="http://www.inkscape.org/namespaces/inkscape"
   xmlns:sodipodi="http://sodipodi.sourceforge.net/DTD/sodipodi-0.dtd"
   xmlns="http://www.w3.org/2000/svg"
   xmlns:svg="http://www.w3.org/2000/svg"><sodipodi:namedview
     id="namedview1"
     pagecolor="#505050"
     bordercolor="#ffffff"
     borderopacity="1"
     inkscape:showpageshadow="0"
     inkscape:pageopacity="0"
     inkscape:pagecheckerboard="1"
     inkscape:deskcolor="#505050"
     inkscape:document-units="mm"
     inkscape:zoom="1"
     inkscape:cx="482"
     inkscape:cy="226"
     inkscape:window-width="2560"
     inkscape:window-height="1351"
     inkscape:window-x="-9"
     inkscape:window-y="-9"
     inkscape:window-maximized="1"
     inkscape:current-layer="layer1"
     showguides="true" /><defs
     id="defs1"><rect
       x="101.82338"
       y="91.923881"
       width="384.66609"
       height="299.81327"
       id="rect3" /><rect
       x="2.8284271"
       y="2.1213203"
       width="662.55905"
       height="647.0027"
       id="rect2" /></defs><g
     inkscape:label="Icon"
     inkscape:groupmode="layer"
     id="layer1"><path
       style="fill:#000000;stroke-width:2.71054"
       d="m 103.06347,175.27589 c -1.65759,-0.37596 -2.05145,-0.94238 -2.4089,-3.46409 -0.23517,-1.65804 -1.089181,-3.61335 -1.898121,-4.34512 -1.31713,-1.19146 -1.39672,-1.89065 -0.76165,-6.69112 0.99882,-7.54991 0.46234,-30.37764 -0.94946,-40.40035 -0.680299,-4.82988 -0.970292,-10.11934 -0.678387,-12.37498 0.480107,-3.71025 0.393764,-4.00175 -1.484076,-5.009 -1.096633,-0.58823 -4.609029,-1.53805 -7.80534,-2.11072 -3.247659,-0.5819 -10.272988,-2.773064 -15.924608,-4.966849 -5.774683,-2.241534 -11.650296,-4.067424 -13.69632,-4.256215 l -3.583185,-0.330642 0.529263,6.163846 c 0.996245,11.6026 -3.049818,18.24291 -18.513825,30.38448 -7.502558,5.89062 -9.738364,8.04875 -10.419663,10.05769 -1.122187,3.30885 -1.126082,21.9106 -0.006,25.21526 0.4742,1.39815 1.747495,3.69018 2.829539,5.09341 1.082043,1.40321 2.029637,3.32524 2.105789,4.27116 0.134511,1.67138 0.02697,1.71391 -3.815268,1.5089 -4.905431,-0.26172 -5.954223,-0.94665 -5.954223,-3.88851 0,-1.53025 -0.633006,-2.88185 -1.862142,-3.97605 -1.795129,-1.59805 -1.833174,-1.84764 -1.057418,-6.93493 0.618267,-4.05447 0.505416,-7.95631 -0.487084,-16.84026 l -1.291873,-11.56309 4.592192,-3.92398 c 2.771032,-2.36781 5.171036,-5.1701 6.051764,-7.06616 1.374881,-2.95991 1.386026,-3.39272 0.192029,-7.46216 -0.697205,-2.37597 -1.678262,-5.19597 -2.180143,-6.26663 l -0.912483,-1.94664 -1.549206,2.59429 c -1.662925,2.78483 -3.588548,4.6685 -4.23306,4.14088 -0.923357,-0.7559 -0.647416,-13.361486 0.346312,-15.81955 2.683854,-6.638693 9.535071,-11.937945 21.241299,-16.429598 4.30319,-1.651127 5.134158,-1.737258 16.422026,-1.701991 9.525093,0.02968 13.544554,0.343272 20.212129,1.576596 7.256215,1.342213 10.049206,1.519821 21.797362,1.386112 14.764201,-0.167994 16.000281,-0.442474 18.285101,-4.059576 0.7021,-1.11146 2.1188,-5.269675 3.14823,-9.240472 1.02941,-3.970797 2.42419,-8.497348 3.09946,-10.058984 0.67524,-1.561612 1.22776,-2.908926 1.22776,-2.994027 0,-0.0851 -1.53941,-0.635975 -3.42087,-1.2242 -1.88147,-0.588225 -4.60328,-2.068219 -6.04844,-3.288863 -2.77059,-2.340075 -6.09006,-8.946813 -4.69792,-9.350244 0.43687,-0.126548 3.28558,0.425602 6.33046,1.227094 3.90202,1.027119 6.67045,2.292153 9.37897,4.285719 3.58884,2.641483 5.60153,3.485526 5.58402,2.341767 -0.018,-1.270086 -5.23562,-7.733011 -8.19979,-10.15961 C 120.77108,35.883113 115.896,32.961729 111.7642,30.886521 98.488919,24.218937 93.393018,18.894817 91.680034,9.9028541 91.390942,8.3860987 91.436178,7.145099 91.780396,7.145099 c 0.344095,0 1.667837,1.9709779 2.94167,4.379967 3.303953,6.248187 8.209384,9.897735 20.278154,15.086527 11.44209,4.919364 16.49133,8.627845 20.59778,15.128391 1.5054,2.383091 3.0938,4.230759 3.52974,4.105952 1.29471,-0.370666 0.48109,-2.400724 -3.02771,-7.554446 C 133.66069,34.7086 130.3645,31.4565 123.60415,25.962718 113.34362,17.624511 110.94083,14.113699 111.04181,7.6074144 l 0.0525,-3.3822773 1.68075,3.7180207 c 2.13556,4.7241472 6.14295,9.0637222 11.68897,12.6578682 13.12392,8.505025 17.06735,12.775857 20.22876,21.9082 0.74126,2.141327 2.16076,4.623302 3.15442,5.515511 0.99365,0.892233 2.52271,2.790201 3.39791,4.217736 0.90639,1.478448 3.84612,4.091066 6.83036,6.070358 5.20838,3.454405 6.3923,5.058444 5.88769,7.97686 -0.23666,1.368087 -0.6329,1.51217 -3.8307,1.39244 l -3.56683,-0.133659 1.97641,1.228835 c 1.77958,1.106457 1.83605,1.272931 0.56703,1.67158 -0.77515,0.243531 -2.91294,0.132189 -4.75064,-0.247135 -1.83766,-0.379447 -6.52877,-0.842179 -10.42469,-1.028322 -6.31234,-0.301605 -7.45562,-0.55725 -10.50234,-2.348462 -3.81896,-2.245164 -4.43968,-1.724259 -1.43214,1.201809 1.1511,1.119897 3.23497,2.173773 4.95396,2.505396 l 2.96714,0.572407 0.24865,4.844318 c 0.32346,6.305501 -1.09804,14.283907 -3.37171,18.924302 -2.40408,4.906587 -8.80087,13.13885 -12.67109,16.30688 -2.86566,2.34574 -9.87736,5.60483 -12.09066,5.61984 -1.25832,0.007 -0.24026,-2.71911 2.41953,-6.4825 2.71535,-3.84204 2.62154,-4.55865 -0.29718,-2.26951 -5.02756,3.94318 -5.74308,6.93228 -7.45537,31.14482 -0.17675,2.49821 -0.74595,6.73215 -1.26506,9.40881 -0.5191,2.67662 -0.80598,7.51851 -0.6375,10.75973 0.27082,5.20897 0.64283,6.44683 3.20515,10.66288 1.59438,2.62338 2.7187,5.00843 2.49848,5.30013 -0.46941,0.62178 -4.60427,0.59485 -7.44052,-0.0486 z m -74.842653,-73.1266 c -0.6875,-2.721531 -1.250017,-6.731567 -1.250017,-8.911177 0,-3.742791 -0.0755,-3.901147 -1.358793,-2.850582 -2.133831,1.746847 -1.753906,7.077417 0.934562,13.111869 2.715878,6.09602 3.413234,5.53369 1.674248,-1.35011 z M 147.82237,58.359771 c -2.60204,-2.1672 -5.34787,-4.218251 -6.10182,-4.557869 -1.74891,-0.787808 -5.36653,-0.06671 -5.36653,1.06967 0,1.295371 3.21185,2.886412 5.82687,2.886412 1.5194,0 3.349,0.773166 5.37435,2.271087 5.12146,3.787818 5.3211,2.540123 0.26722,-1.6693 z m -22.32223,-8.435153 c -2.15276,-2.996896 -4.13498,-4.537294 -7.17827,-5.578245 -5.33127,-1.823585 -3.90178,0.412456 3.24146,5.070264 4.63064,3.019434 5.85426,3.177324 3.93681,0.507981 z m -6.04772,122.199012 c -0.19233,-0.26766 -0.60868,-1.50863 -0.925,-2.75775 -0.3163,-1.24909 -1.33911,-2.95185 -2.27293,-3.78392 -1.55295,-1.38371 -1.7046,-2.26974 -1.77674,-10.38212 -0.069,-7.74878 -1.94641,-27.92355 -3.12002,-33.52686 -0.39309,-1.87663 -0.19025,-2.0304 5.64205,-4.27525 l 6.04978,-2.32859 -0.53693,3.30191 c -1.43701,8.83733 -1.89389,13.45877 -1.52487,15.42369 0.22258,1.18452 0.0608,4.59436 -0.35893,7.57743 -0.46617,3.31203 -0.49181,8.11223 -0.0659,12.32879 0.64436,6.37915 0.97038,7.33836 4.28114,12.59533 1.97097,3.12967 3.58363,5.83063 3.58363,6.00216 0,0.51732 -8.59808,0.34987 -8.97528,-0.17486 z M 57.904806,171.3773 c -3.300114,-0.36226 -3.604336,-0.56172 -4.395789,-2.882 -0.467701,-1.37105 -1.604177,-2.97705 -2.525559,-3.56886 -1.089173,-0.69962 -2.006329,-2.43808 -2.62169,-4.96935 -1.132644,-4.6593 -5.052105,-13.20224 -9.006166,-19.63 -1.580273,-2.56891 -2.873219,-5.30165 -2.873219,-6.07276 0,-0.78849 2.688169,-4.08643 6.142896,-7.53637 3.378604,-3.37387 7.501508,-7.78721 9.162006,-9.80739 1.660498,-2.02019 3.265574,-3.66703 3.566828,-3.65965 0.301256,0.007 2.780709,0.96211 5.509889,2.12159 l 4.962141,2.10817 -1.627575,2.61173 c -0.895167,1.43644 -4.80669,5.34362 -8.692239,8.68261 -7.447406,6.3998 -8.44275,7.96411 -7.549052,11.86403 1.087526,4.74568 8.97522,20.72302 12.555919,25.43336 3.488909,4.58955 3.948641,6.005 1.881108,5.79156 -0.519198,-0.0537 -2.539488,-0.2726 -4.489498,-0.48667 z m 16.227601,-54.23769 c -6.274051,-1.13633 -8.31675,-1.82187 -13.470081,-4.52057 l -4.318288,-2.2614 0.483816,-5.37334 c 0.266026,-2.95535 0.59637,-5.481839 0.733936,-5.614419 0.137507,-0.132679 3.042209,1.098979 6.454845,2.736839 7.384404,3.54404 11.171931,4.70897 19.598296,6.02771 3.471623,0.54332 6.91895,1.25375 7.660733,1.57875 1.123416,0.49221 3.068842,5.42033 3.068842,7.774 0,0.91006 -14.660241,0.65794 -20.212099,-0.34757 z"
       id="path1" /></g></svg>
