<?xml version="1.0" encoding="UTF-8" standalone="no"?>
<!-- Created with Inkscape (http://www.inkscape.org/) -->

<svg
   width="180mm"
   height="180mm"
   viewBox="0 0 180 180"
   version="1.1"
   id="svg1"
   sodipodi:docname="goat.svg"
   inkscape:version="1.4.2 (f4327f4, 2025-05-13)"
   xml:space="preserve"
   xmlns:inkscape="http://www.inkscape.org/namespaces/inkscape"
   xmlns:sodipodi="http://sodipodi.sourceforge.net/DTD/sodipodi-0.dtd"
   xmlns="http://www.w3.org/2000/svg"
   xmlns:svg="http://www.w3.org/2000/svg"><sodipodi:namedview
     id="namedview1"
     pagecolor="#505050"
     bordercolor="#ffffff"
     borderopacity="1"
     inkscape:showpageshadow="0"
     inkscape:pageopacity="0"
     inkscape:pagecheckerboard="1"
     inkscape:deskcolor="#505050"
     inkscape:document-units="mm"
     inkscape:zoom="1"
     inkscape:cx="482"
     inkscape:cy="226"
     inkscape:window-width="2560"
     inkscape:window-height="1351"
     inkscape:window-x="-9"
     inkscape:window-y="-9"
     inkscape:window-maximized="1"
     inkscape:current-layer="layer1"
     showguides="true" /><defs
     id="defs1"><rect
       x="101.82338"
       y="91.923881"
       width="384.66609"
       height="299.81327"
       id="rect3" /><rect
       x="2.8284271"
       y="2.1213203"
       width="662.55905"
       height="647.0027"
       id="rect2" /></defs><g
     inkscape:label="Icon"
     inkscape:groupmode="layer"
     id="layer1"><path
       style="fill:#000000;stroke-width:3.02844"
       d="m 101.77492,176.3836 c -1.48555,-0.60705 -1.788032,-1.35016 -1.788032,-4.39236 0,-3.20181 -0.213552,-3.66167 -1.699009,-3.66167 -1.650052,0 -1.678645,-0.18016 -0.993329,-6.26138 0.840118,-7.45498 0.855587,-19.877 0.03003,-23.11642 -0.582625,-2.28263 -0.61185,-2.29304 -2.263403,-0.80791 -1.665399,1.49752 -1.670956,1.49285 -1.196668,-1.00792 1.672188,-8.81665 1.56373,-13.48444 -0.209046,-9.00038 -0.566346,1.43248 -0.729378,0.89734 -0.769055,-2.52478 -0.04986,-4.30508 -0.06908,-4.33846 -2.23577,-3.868 -1.201954,0.26108 -4.688637,1.02728 -7.748187,1.70282 -6.430776,1.41987 -12.653137,1.65393 -11.920275,0.44835 0.308553,-0.5075 -1.464283,-0.80791 -4.76811,-0.80791 -2.892583,0 -5.066271,-0.31744 -4.830403,-0.7054 0.235777,-0.38798 -2.247995,-1.69799 -5.519684,-2.91111 -3.27169,-1.21311 -6.132165,-2.50776 -6.356619,-2.87696 -0.224364,-0.36924 0.359763,-2.16901 1.298247,-3.99949 0.938454,-1.83051 1.860059,-5.03565 2.04796,-7.12254 l 0.341622,-3.79438 -3.115596,6.46337 c -1.713576,3.55486 -4.920149,8.95458 -7.125674,11.99941 -3.533327,4.8779 -5.782884,10.45003 -4.674009,11.5774 0.208745,0.21222 2.212613,-2.51906 4.452889,-6.06965 l 4.073242,-6.45558 4.857946,1.93553 c 2.671854,1.06453 5.019115,2.09938 5.216117,2.29969 0.197032,0.20032 -0.635548,2.47793 -1.850117,5.06142 -1.783048,3.79273 -2.268509,4.34723 -2.520866,2.87948 -0.449118,-2.61196 -1.074424,-2.29152 -3.976799,2.03803 -3.058318,4.56223 -3.201917,6.85908 -0.902832,14.43923 1.914693,6.31282 4.271205,11.0863 8.261881,16.73568 3.949377,5.59088 3.749191,6.98394 -1.001559,6.97004 -5.594292,-0.0153 -7.304384,-0.69663 -7.830723,-3.1152 -0.99471,-4.57069 -1.208983,-4.91626 -2.934483,-4.73283 -1.535376,0.16306 -1.786742,-0.31427 -2.242558,-4.25974 -0.610559,-5.285 -2.182068,-10.07249 -5.884584,-17.92703 -2.246854,-4.76648 -2.648666,-6.38706 -2.25262,-9.08561 l 0.482037,-3.28434 -4.084896,4.02193 c -5.016263,4.93897 -5.640127,7.04122 -5.639557,19.00377 3.61e-4,7.00629 0.315642,9.88714 1.282119,11.71484 4.798266,9.0741 5.255765,10.2878 4.162779,11.04328 -1.303684,0.90107 -7.946151,0.29406 -10.199582,-0.93189 -1.250161,-0.68021 -1.612117,-1.68705 -1.612117,-4.48436 0,-1.98398 -0.3576,-3.65266 -0.794675,-3.7082 -0.437074,-0.0556 -1.12251,-0.14657 -1.523152,-0.20184 -1.601664,-0.222 -1.722196,-1.41563 -0.776954,-7.69316 0.787016,-5.22674 0.783051,-8.56864 -0.02102,-16.6274 l -1.004621,-10.0859 2.840231,-2.72328 c 2.862999,-2.74515 5.997186,-8.60489 6.029474,-11.2729 0.01502,-1.19303 -0.257102,-1.29285 -1.571899,-0.57752 -1.833928,0.99784 -1.991764,0.32743 -0.700965,-2.9771 1.412652,-3.61642 2.180506,-7.52585 1.478159,-7.52585 -0.354627,0 -0.803355,0.45446 -0.997173,1.0099 -0.193728,0.55544 -0.175707,-1.62596 0.04055,-4.84752 0.272721,-4.063673 0.116837,-5.857423 -0.508499,-5.857423 -0.495793,0 -0.90145,0.545334 -0.90145,1.211864 0,0.66653 -0.398809,1.211895 -0.886253,1.211895 -1.135756,0 -0.209647,-8.175925 1.361111,-12.015497 1.599562,-3.910138 1.475216,-4.142911 -2.213724,-4.142911 -2.145575,0 -4.259041,-0.645949 -5.947688,-1.817812 -3.133048,-2.174223 -4.2212884,-4.198914 -1.844682,-3.432044 2.099891,0.677584 1.997951,-0.07664 -0.4023235,-2.976667 -2.2583572,-2.728627 -2.9371859,-8.12374 -0.7947051,-6.316035 1.0071146,0.849743 1.1920426,0.682989 1.1920426,-1.074943 0,-2.408492 1.535346,-6.196336 2.511615,-6.196336 0.366912,0 0.669488,0.999795 0.672371,2.221797 0.009,4.349424 4.15629,8.755735 9.361655,9.949278 2.485003,0.569794 3.515756,0.255583 8.112125,-2.473624 2.895977,-1.719518 6.248582,-3.377263 7.450236,-3.683871 1.407966,-0.359281 2.035555,-0.952953 1.765026,-1.669684 -0.58671,-1.554412 12.784392,-1.502563 21.781508,0.08458 13.507072,2.382506 19.293741,2.711343 26.740282,1.51954 8.862708,-1.418468 9.788277,-1.728434 8.203582,-2.747283 -0.777374,-0.499806 1.040124,-0.756244 5.418049,-0.764458 10.53696,-0.02137 12.95252,-1.852317 21.65568,-16.428709 3.48185,-5.831528 4.04549,-7.259554 3.10439,-7.86486 -0.63242,-0.406764 -1.58442,-0.745159 -2.11556,-0.751968 -1.44693,-0.01832 -6.50335,-4.781929 -7.81643,-7.363466 -2.07361,-4.076711 -1.60566,-4.987434 2.22598,-4.331927 1.85756,0.317784 5.88002,1.406132 8.93875,2.418538 3.05874,1.012407 5.83589,1.668249 6.17142,1.457401 1.01,-0.63459 -1.95569,-5.026213 -5.99667,-8.879923 -7.98414,-7.614101 -18.74995,-9.986775 -27.98725,-6.168121 -2.185406,0.903395 -4.688641,1.925481 -5.56282,2.271265 -2.911896,1.151832 3.6969,-5.184876 7.21152,-6.914593 4.21107,-2.0725091 12.34391,-2.8563263 17.64479,-1.7005555 6.88978,1.5021965 11.40697,4.1710345 17.55039,10.3690805 3.21814,3.246785 6.00911,5.903225 6.20215,5.903225 0.19313,0 -0.97291,-2.56123 -2.59091,-5.691583 -4.69056,-9.0748 -12.32208,-14.5064346 -20.38182,-14.5064346 -3.37757,0 -1.90151,-1.4400873 2.1016,-2.0504015 11.05642,-1.6856237 22.68409,6.324249 27.60019,19.0127501 0.94776,2.446142 2.88871,5.720012 4.31322,7.275249 1.42455,1.555267 3.1739,4.282001 3.88742,6.059414 0.71354,1.777414 3.3702,5.413069 5.90362,8.079189 7.03245,7.40078 8.03962,9.037028 8.03962,13.061034 0,4.479383 -1.0558,4.9496 -7.20857,3.210508 -5.70708,-1.613132 -5.94333,-1.621865 -4.76282,-0.175884 0.51597,0.632086 2.70543,1.609712 4.86539,2.172513 2.15999,0.562831 3.92727,1.303532 3.92727,1.646049 0,0.342518 -1.51985,1.042423 -3.37741,1.555359 -1.8576,0.512967 -3.77358,1.04166 -4.25778,1.174887 -1.16171,0.319676 -1.88298,4.228044 -1.32255,7.166542 0.31072,1.629163 0.1721,2.169368 -0.45549,1.775032 -0.65413,-0.411009 -0.76707,0.746838 -0.41082,4.211891 0.32667,3.177377 0.19103,4.967432 -0.40515,5.341951 -0.56772,0.356716 -0.8964,-0.12886 -0.8964,-1.32448 0,-2.656532 -2.37144,-5.999015 -3.24117,-4.568333 -0.45417,0.747083 -1.30501,-0.371342 -2.78833,-3.665335 -1.89226,-4.202059 -2.04316,-5.147256 -1.32865,-8.321763 0.89962,-3.996738 0.95284,-3.94495 -6.01656,-5.852872 -3.95937,-1.083921 -7.53974,-4.027335 -8.86982,-7.29186 -0.5468,-1.342069 -1.27074,-2.440127 -1.60876,-2.440127 -0.88469,0 0.43068,5.354501 1.8603,7.572726 1.15693,1.795124 5.76201,4.546072 7.61009,4.546072 1.09893,0 1.1526,-0.345448 -0.72791,4.684704 -0.91641,2.451242 -1.82134,7.445515 -2.1174,11.685713 -0.40722,5.832627 -0.68369,7.025162 -1.30206,5.616282 -1.31762,-3.002072 -1.94524,-2.041729 -2.52919,3.869924 -0.30744,3.112276 -0.88015,5.860445 -1.27269,6.107081 -0.39256,0.246727 -0.71373,-0.118478 -0.71373,-0.811116 0,-2.92549 -1.53324,-0.945717 -1.99659,2.578086 -0.98158,7.46494 -1.8684,11.94536 -2.83842,14.34057 l -0.98162,2.42376 -0.50733,-2.42376 -0.50735,-2.42376 -1.82501,4.03961 c -1.00375,2.22177 -2.34504,5.49387 -2.98065,7.27128 -1.32996,3.71929 -3.02609,21.20429 -2.97809,30.70097 0.0342,6.74994 0.96107,9.48101 5.67722,16.72625 2.63902,4.05426 1.98251,5.49154 -2.5084,5.49154 -5.45688,0 -7.62619,-1.12459 -7.62619,-3.95353 0,-3.31937 -0.74271,-4.93351 -2.2704,-4.93412 -1.15332,-4.9e-4 -1.33282,-1.67393 -1.53817,-14.34059 -0.12795,-7.88703 -0.30666,-16.30758 -0.39733,-18.71231 l -0.1649,-4.37227 3.52912,-1.90346 c 4.57312,-2.46657 6.40447,-4.19357 6.40447,-6.03957 0,-1.95989 -0.14327,-1.92423 -4.33551,1.08001 -1.97299,1.41389 -3.77241,2.38245 -3.99873,2.15236 -0.22616,-0.22993 0.28534,-2.47753 1.1372,-4.99439 2.0634,-6.09728 0.74497,-5.82414 -2.28521,0.47336 -2.87627,5.9777 -4.02741,11.59417 -4.02741,19.64975 0,3.24309 -0.40403,6.92 -0.89784,8.17089 -0.49381,1.25092 -0.9104,5.54645 -0.92578,9.54569 -0.03,7.55706 -0.17871,7.04287 4.98559,17.13527 0.95705,1.87033 1.51003,3.77905 1.22887,4.24157 -0.61966,1.01934 -8.06088,1.02487 -10.54964,0.009 z m -8.192618,-65.54506 c 1.036219,-4.9122 1.075926,-7.38506 0.108728,-6.7774 -0.706972,0.44423 -3.266764,10.57223 -3.215163,12.72102 0.05316,2.20739 2.289714,-2.07226 3.106375,-5.94362 z M 170.71382,56.294277 c 0,-1.180596 -2.71369,-3.497268 -4.09658,-3.497268 -2.14849,0 -1.78845,1.386498 0.71917,2.769575 2.42346,1.336633 3.37741,1.542168 3.37741,0.727693 z M 150.84671,41.110594 c 0,-2.255753 -5.61481,-3.923544 -6.77634,-2.012843 -0.89517,1.472547 1.31177,3.19631 4.09223,3.19631 1.82744,0 2.68411,-0.377725 2.68411,-1.183467 z m -18.6242,-6.030619 c -1.55486,-1.746756 -5.21926,-3.61025 -8.77085,-4.46039 l -2.36249,-0.565488 1.56779,1.790513 c 1.77268,2.024508 7.15802,4.749531 9.43914,4.77625 1.44505,0.01832 1.45079,-0.05313 0.12645,-1.540885 z"
       id="path1" /></g></svg>
