<?xml version="1.0" encoding="UTF-8" standalone="no"?>
<!-- Created with Inkscape (http://www.inkscape.org/) -->

<svg
   width="180mm"
   height="180mm"
   viewBox="0 0 180 180"
   version="1.1"
   id="svg1"
   sodipodi:docname="horse.svg"
   inkscape:version="1.4.2 (f4327f4, 2025-05-13)"
   xml:space="preserve"
   xmlns:inkscape="http://www.inkscape.org/namespaces/inkscape"
   xmlns:sodipodi="http://sodipodi.sourceforge.net/DTD/sodipodi-0.dtd"
   xmlns="http://www.w3.org/2000/svg"
   xmlns:svg="http://www.w3.org/2000/svg"><sodipodi:namedview
     id="namedview1"
     pagecolor="#505050"
     bordercolor="#ffffff"
     borderopacity="1"
     inkscape:showpageshadow="0"
     inkscape:pageopacity="0"
     inkscape:pagecheckerboard="1"
     inkscape:deskcolor="#505050"
     inkscape:document-units="mm"
     inkscape:zoom="1"
     inkscape:cx="482"
     inkscape:cy="226"
     inkscape:window-width="2560"
     inkscape:window-height="1351"
     inkscape:window-x="-9"
     inkscape:window-y="-9"
     inkscape:window-maximized="1"
     inkscape:current-layer="layer1"
     showguides="true" /><defs
     id="defs1"><rect
       x="101.82338"
       y="91.923881"
       width="384.66609"
       height="299.81327"
       id="rect3" /><rect
       x="2.8284271"
       y="2.1213203"
       width="662.55905"
       height="647.0027"
       id="rect2" /></defs><g
     inkscape:label="Icon"
     inkscape:groupmode="layer"
     id="layer1"><path
       style="fill:#000000;stroke-width:2.29316"
       d="m 27.550013,176.37447 c -3.342593,-0.66729 -3.586183,-1.01689 -3.586183,-5.147 0,-3.02422 -0.300843,-4.25346 -1.470065,-6.0065 -1.45532,-2.18201 -1.464067,-2.2802 -0.873969,-9.78772 0.327855,-4.17098 0.427772,-11.02844 0.221963,-15.23879 -0.363933,-7.44769 -0.332013,-7.72991 1.177514,-10.41108 3.978991,-7.06727 4.685,-9.1324 4.675867,-13.6768 -0.0068,-2.84711 -0.601162,-6.64895 -1.694594,-10.81982 -1.411041,-5.382485 -1.689005,-7.67785 -1.705704,-14.085567 -0.01817,-6.908327 0.134041,-8.028614 1.557941,-11.482778 0.867835,-2.10519 1.303127,-3.827608 0.967343,-3.827608 -1.435645,0 -4.694519,4.526861 -5.637189,7.83055 -0.823738,2.886892 -0.904844,4.707381 -0.482593,10.833568 0.279146,4.049952 0.499768,11.083985 0.490272,15.631165 -0.0159,7.37038 -0.194019,8.79041 -1.646772,13.08505 -1.858782,5.49526 -3.99587,8.93801 -7.617608,12.27163 -2.3022084,2.11908 -8.3470184,5.52211 -8.8673013,4.99203 -0.119728,-0.12198 0.3395323,-1.33418 1.0204143,-2.69394 2.3934013,-4.77976 3.0954572,-11.96122 2.91766,-29.84504 C 6.8534263,93.557985 6.9692921,91.017781 7.9289336,87.570422 10.234459,79.287753 14.058758,73.988726 19.86377,71.033345 c 3.173247,-1.615551 4.349035,-1.879119 8.38305,-1.879119 4.220537,0 5.071765,-0.212485 8.469677,-2.115144 4.366505,-2.444887 10.137145,-3.986994 14.967909,-3.999956 1.856806,-0.0046 6.996227,0.720039 11.420915,1.611153 11.485573,2.313161 21.172795,2.308995 27.815223,-0.01157 6.355807,-2.220807 9.07447,-3.936512 13.455446,-8.491543 4.4293,-4.605236 6.27466,-7.081926 12.4391,-16.694682 5.26106,-8.203994 13.45598,-17.054446 17.47702,-18.875051 2.28042,-1.032515 2.49529,-1.356172 3.47656,-5.237086 1.02689,-4.061318 3.80929,-9.0418265 6.34257,-11.353182 0.7053,-0.64354 1.43966,-1.0097858 1.63191,-0.8139208 0.1922,0.1958187 0.49706,2.1003527 0.67734,4.2321382 0.38828,4.5914866 0.89566,5.4015186 3.39732,5.4236466 1.034,0.0093 4.85544,1.22845 8.4921,2.709521 6.29072,2.562008 6.53099,2.724472 4.94306,3.34269 l -1.66903,0.649813 2.1332,3.15951 c 1.17327,1.737741 2.01934,3.275543 1.88014,3.417361 -0.13927,0.141887 -1.92565,-0.602409 -3.96993,-1.653766 -2.04428,-1.05138 -4.00139,-1.81498 -4.3491,-1.696887 -0.34771,0.118046 0.74779,1.391864 2.43448,2.830622 1.68669,1.438735 4.0648,4.320095 5.28468,6.402995 1.21991,2.0829 4.11853,6.527523 6.44141,9.876949 2.32289,3.349403 4.58693,7.164743 5.03119,8.478534 0.87643,2.591752 0.56629,5.752673 -0.84252,8.58693 -1.23881,2.492221 -5.65903,4.308151 -9.41665,3.868577 -3.31894,-0.388258 -4.18745,-0.975436 -6.16596,-4.168578 -1.75651,-2.834858 -5.87079,-5.336292 -10.61272,-6.452389 -7.79779,-1.835373 -10.89684,-5.046268 -12.13742,-12.575313 -0.44679,-2.711603 -1.90902,-3.089399 -2.51031,-0.648586 -0.92398,3.750762 2.02808,10.278077 5.79792,12.819808 l 2.26127,1.524586 -0.87638,2.874207 c -2.85707,9.370297 -3.88498,16.350286 -4.30886,29.259208 -0.42305,12.883136 -0.42825,12.92061 -2.33029,16.841419 -2.06928,4.26549 -4.94806,7.60617 -9.0053,10.45017 -2.56704,1.79941 -6.7393,3.83384 -7.10287,3.46342 -0.10405,-0.10601 0.21015,-1.95235 0.69774,-4.10323 0.95955,-4.2317 0.77692,-5.75297 -0.62492,-5.20491 -1.79624,0.70226 -6.67989,20.29274 -7.54119,30.2511 -0.24761,2.86305 -0.91545,6.30788 -1.48406,7.65519 -0.74951,1.77603 -1.06324,4.38641 -1.14084,9.49244 -0.10315,6.78181 -0.0416,7.15627 1.65829,10.10487 3.14098,5.44825 5.23461,10.10985 5.02648,11.19174 -0.17493,0.90875 -0.97552,1.05659 -5.72309,1.05659 -3.73771,0 -5.77164,-0.25779 -6.29978,-0.79846 -0.49922,-0.51108 -0.73168,-2.10825 -0.64583,-4.43745 0.12132,-3.29508 -0.0427,-3.84416 -1.73671,-5.80984 l -1.870821,-2.17086 0.807081,-5.64002 c 0.4439,-3.10201 0.79005,-7.43132 0.76924,-9.62072 -0.0788,-8.28646 -1.385188,-27.00106 -2.280558,-32.66995 -0.512445,-3.24448 -0.93172,-6.03983 -0.93172,-6.21185 0,-0.64905 -2.314522,-0.28132 -2.538506,0.4033 -0.128816,0.39386 -8.86e-4,2.49114 0.284416,4.66058 0.285303,2.16947 0.387333,4.07836 0.226734,4.24198 -0.412914,0.42068 -12.48027,-0.95775 -17.508414,-1.99997 -2.314227,-0.47971 -8.461657,-2.42035 -13.66092,-4.31259 -8.183919,-2.97846 -9.380472,-3.57888 -8.911466,-4.47173 0.885147,-1.68504 2.307615,-10.302581 1.830475,-11.089166 -0.242386,-0.399554 -0.920815,-0.630439 -1.507664,-0.513087 -0.817103,0.163414 -1.310078,1.437555 -2.104941,5.440513 -1.955156,9.84628 -5.596409,16.69352 -13.82956,26.00605 -8.825499,9.98254 -9.308977,11.26525 -9.285327,24.6345 l 0.01818,9.93653 3.243515,6.4067 c 2.740772,5.41367 3.122584,6.55509 2.463489,7.36422 -0.828872,1.01752 -5.027712,1.19928 -9.068635,0.39259 z M 155.30665,34.24405 c 0.90995,-1.024414 0.97459,-1.485838 0.39092,-2.790949 -0.61366,-1.372189 -1.01172,-1.54058 -3.25115,-1.375453 -2.25823,0.166423 -2.57313,0.37518 -2.73648,1.813105 -0.12904,1.135703 0.22796,1.919348 1.18567,2.602769 1.82752,1.304139 3.09466,1.232478 4.41104,-0.249472 z m -28.83001,139.78358 c -2.30046,-0.11666 -4.53203,-0.50751 -4.95908,-0.86859 -0.44915,-0.37977 -0.77739,-1.98025 -0.77868,-3.79671 -0.002,-2.20759 -0.40326,-3.77678 -1.35247,-5.28366 -1.25617,-1.99411 -1.35239,-2.84745 -1.38085,-12.24832 -0.0159,-5.55767 -0.25202,-13.82529 -0.52267,-18.37247 -0.3394,-5.70243 -0.28208,-9.05245 0.1847,-10.79716 0.63072,-2.35744 0.92695,-2.62488 4.35358,-3.93047 2.02225,-0.7705 5.06216,-2.46144 6.75532,-3.75762 1.69318,-1.29617 3.16825,-2.08248 3.27789,-1.74732 0.10973,0.33516 -0.52133,3.85337 -1.40223,7.81821 -0.88087,3.96487 -1.83184,9.83698 -2.11328,13.04917 -0.28141,3.21217 -0.96548,7.20215 -1.52013,8.86663 -0.78498,2.35559 -0.94992,4.52223 -0.7442,9.77626 0.26926,6.87766 0.86783,8.96767 3.58575,12.5203 1.32837,1.7363 3.50396,6.56731 3.50396,7.78067 0,0.46244 -0.24838,0.84077 -0.55195,0.84077 -0.30355,0 -0.91218,0.0815 -1.35247,0.18123 -0.44029,0.0998 -2.68273,0.0859 -4.98319,-0.0308 z m -73.810215,-0.81177 c -0.792954,-0.47054 -1.051948,-1.42524 -1.051948,-3.87788 0,-2.69313 -0.310656,-3.6519 -1.803303,-5.56551 -0.991812,-1.27153 -1.80753,-3.03186 -1.812709,-3.91182 -0.01363,-2.3364 -2.185752,-12.4631 -3.908677,-18.22371 -0.820511,-2.74336 -1.491829,-5.69571 -1.491829,-6.5608 0,-2.6873 2.270743,-7.60914 5.476613,-11.87058 1.690119,-2.24661 3.785427,-5.56481 4.656238,-7.37375 1.844175,-3.83099 1.772384,-3.82562 9.67275,-0.72157 l 4.859412,1.90926 -1.907333,3.64588 c -1.04904,2.00522 -3.471089,5.54334 -5.38233,7.86245 -6.778081,8.22462 -7.182953,10.72994 -3.876438,23.98784 1.715064,6.87685 2.60739,9.21998 5.109364,13.41687 1.667264,2.79671 3.031368,5.72839 3.031368,6.51486 0,1.39078 -0.144038,1.42941 -5.259627,1.41131 -2.892805,-0.009 -5.732994,-0.29954 -6.311551,-0.64285 z M 94.408422,57.671447 c 1.047109,-3.878877 2.741567,-6.676956 5.427932,-8.963174 1.414146,-1.203498 3.382656,-2.903696 4.374496,-3.778191 l 1.8033,-1.59002 -2.10387,0.348423 c -1.15712,0.191653 -2.87711,0.525933 -3.82221,0.742885 -1.650516,0.378907 -1.688479,0.33759 -0.961297,-1.046751 1.309457,-2.492777 6.758127,-7.60522 10.043157,-9.423372 1.73567,-0.960646 3.15577,-2.016678 3.15577,-2.346769 0,-0.36326 -1.44559,-0.466586 -3.66261,-0.261763 l -3.66261,0.338354 1.40848,-1.549768 c 2.54696,-2.802454 7.34978,-5.699367 11.59464,-6.993507 3.39412,-1.034761 3.97606,-1.386378 3.11089,-1.879675 -0.58533,-0.333725 -2.25889,-0.625184 -3.71898,-0.647683 -2.21188,-0.03403 -2.53757,-0.184708 -1.95245,-0.902965 1.59359,-1.956312 4.39302,-2.852334 8.75439,-2.802013 2.3969,0.02754 4.35798,-0.151146 4.35798,-0.397262 0,-0.566671 -2.76692,-1.868958 -3.9709,-1.868958 -3.12676,0 3.10316,-2.337256 8.88032,-3.331581 l 2.20445,-0.379439 -0.81397,3.143701 c -0.4477,1.729015 -0.89871,3.217908 -1.00226,3.308642 -0.1036,0.09073 -1.02282,0.597016 -2.04285,1.125055 -5.82951,3.017808 -10.96472,8.812769 -20.0372,22.611486 -6.32882,9.625764 -10.24378,14.23748 -14.384552,16.944616 -1.595267,1.042955 -3.05788,1.896271 -3.25024,1.896271 -0.192428,0 -0.07088,-1.033441 0.270194,-2.296542 z M 154.25252,11.397559 c -1.23977,-0.351363 -2.25414,-0.856209 -2.25414,-1.121907 0,-0.9202328 5.67163,-6.015802 6.15161,-5.5268107 0.6446,0.6567335 -0.28053,7.0100567 -1.04336,7.1653917 -0.32999,0.06713 -1.61435,-0.165265 -2.85411,-0.516674 z"
       id="path1" /></g></svg>
