<?xml version="1.0" encoding="UTF-8" standalone="no"?>
<!-- Created with Inkscape (http://www.inkscape.org/) -->

<svg
   width="180mm"
   height="180mm"
   viewBox="0 0 180 180"
   version="1.1"
   id="svg1"
   sodipodi:docname="lion.svg"
   inkscape:version="1.4.2 (f4327f4, 2025-05-13)"
   xml:space="preserve"
   xmlns:inkscape="http://www.inkscape.org/namespaces/inkscape"
   xmlns:sodipodi="http://sodipodi.sourceforge.net/DTD/sodipodi-0.dtd"
   xmlns="http://www.w3.org/2000/svg"
   xmlns:svg="http://www.w3.org/2000/svg"><sodipodi:namedview
     id="namedview1"
     pagecolor="#505050"
     bordercolor="#ffffff"
     borderopacity="1"
     inkscape:showpageshadow="0"
     inkscape:pageopacity="0"
     inkscape:pagecheckerboard="1"
     inkscape:deskcolor="#505050"
     inkscape:document-units="mm"
     inkscape:zoom="1"
     inkscape:cx="482"
     inkscape:cy="226"
     inkscape:window-width="2560"
     inkscape:window-height="1351"
     inkscape:window-x="-9"
     inkscape:window-y="-9"
     inkscape:window-maximized="1"
     inkscape:current-layer="layer1"
     showguides="true" /><defs
     id="defs1"><rect
       x="101.82338"
       y="91.923881"
       width="384.66609"
       height="299.81327"
       id="rect3" /><rect
       x="2.8284271"
       y="2.1213203"
       width="662.55905"
       height="647.0027"
       id="rect2" /></defs><g
     inkscape:label="Icon"
     inkscape:groupmode="layer"
     id="layer1"><path
       style="fill:#000000;stroke-width:2.25915"
       d="m 107.61489,172.1223 c -1.0056,-0.65471 -1.9759,-1.69594 -2.15618,-2.31386 -0.18037,-0.61792 -0.73249,-5.15363 -1.22703,-10.07937 -0.8159,-8.12595 -2.17953,-18.4222 -2.93182,-22.13697 -0.2896,-1.43001 -0.3625,-1.43818 -2.888515,-0.32415 -0.905839,0.39948 -0.04132,-6.0147 1.468141,-10.89172 1.620774,-5.23694 1.861134,-10.67865 0.484994,-10.98021 -0.731852,-0.16037 -1.143494,0.46023 -1.624333,2.44891 -1.438385,5.94879 -3.09057,11.02762 -3.788599,11.64617 -1.034024,0.91628 -5.999435,-0.69098 -13.726506,-4.44317 -8.812539,-4.27929 -11.786141,-5.48042 -15.745186,-6.35997 l -3.470795,-0.77108 0.278888,-2.41 c 0.153481,-1.32552 0.283523,-4.3556 0.28923,-6.73352 0.0087,-3.93528 -0.09948,-4.34027 -1.212909,-4.50994 -0.9671,-0.1473 -1.300187,0.22434 -1.590772,1.77574 -0.202235,1.07917 -0.372047,2.8307 -0.377579,3.89227 -0.01968,3.96707 -1.779998,10.7407 -4.088541,15.74112 -1.856017,4.02022 -3.42779,6.27738 -7.096622,10.19116 -2.591934,2.76496 -6.00595,6.15996 -7.58673,7.54447 l -2.874146,2.51727 -0.01749,7.34528 -0.01749,7.34526 3.099468,0.74024 c 3.647669,0.87115 6.185732,3.17241 7.102613,6.43993 0.465097,1.65749 0.45633,2.60031 -0.03323,3.5771 -0.634384,1.26562 -1.059581,1.32636 -9.283801,1.32636 -9.23262,0 -11.124974,-0.39547 -12.20526,-2.55071 -0.821622,-1.6392 -3.016366,-25.40143 -2.580435,-27.93788 0.167036,-0.97247 1.218834,-3.09893 2.337097,-4.72549 4.511749,-6.56254 4.640392,-7.23433 4.46765,-23.33289 -0.121122,-11.279 0.0352,-15.166086 0.723084,-18.000866 1.146991,-4.726244 1.14122,-5.366316 -0.03914,-4.320408 -1.698995,1.505529 -4.403022,6.211508 -5.521526,9.609394 -0.610991,1.85611 -1.621774,6.9853 -2.246167,11.39821 -0.624393,4.41292 -1.78929,10.10376 -2.588655,12.64633 -0.799365,2.54254 -1.453383,5.38314 -1.453383,6.3124 0,7.33692 -5.749909,13.44726 -13.3460629,14.18271 -1.8861883,0.18255 -3.4294511,0.12793 -3.4294511,-0.12162 0,-0.2495 0.5341198,-1.25458 1.1869571,-2.23349 0.6528155,-0.97891 1.4463867,-3.52328 1.7634479,-5.65415 0.9099494,-6.11514 2.0199915,-7.89846 6.296776,-10.11592 3.478818,-1.80372 3.760986,-2.11166 4.732961,-5.1648 0.568467,-1.78568 1.546062,-7.1762 2.172444,-11.97892 0.626361,-4.80274 1.515431,-9.8638 1.975674,-11.246816 3.159003,-9.49259 8.174591,-15.223489 17.532531,-20.032951 11.232431,-5.772849 10.694463,-5.654495 28.259679,-6.217274 13.858451,-0.444051 19.43481,-0.973634 23.052613,-2.18937 0.930939,-0.312834 1.020665,-0.115553 0.68642,1.509357 -0.573102,2.786022 0.633466,10.690325 2.301896,15.079967 1.580431,4.158116 5.174228,10.350151 6.007109,10.350151 0.280419,0 0.670306,-0.6826 0.86642,-1.51687 0.196114,-0.834271 0.632001,-2.290475 0.968701,-3.235956 0.60043,-1.686259 0.65421,-1.624818 2.81422,3.215386 1.66534,3.731736 3.43023,6.327056 7.24072,10.647696 2.77126,3.14228 5.38335,5.71323 5.80468,5.71323 0.43479,0 1.08662,-1.33547 1.50734,-3.08824 0.4077,-1.69851 0.91384,-3.08821 1.12475,-3.08821 0.21098,0 1.2456,1.99707 2.2993,4.43795 2.59543,6.01224 2.72228,12.56216 0.38682,19.97535 -1.60668,5.10005 -2.66854,14.97207 -2.69672,25.0714 l -0.0131,4.70544 2.24584,0.32161 c 3.25424,0.46606 5.33925,1.71567 6.8434,4.10148 1.69519,2.68882 1.80075,6.54078 0.2042,7.45306 -0.63215,0.36125 -4.97308,0.63839 -9.97852,0.63709 -7.72771,-0.002 -9.09325,-0.15431 -10.688,-1.19267 z m -44.159661,-0.44307 c -2.826462,-0.99422 -3.691088,-2.01991 -5.885724,-6.98212 -1.283614,-2.90227 -3.608139,-8.00426 -5.165635,-11.33779 -1.557496,-3.33351 -2.831819,-6.61454 -2.831819,-7.29117 0,-2.04847 3.123387,-9.21162 6.230902,-14.28991 1.611804,-2.63403 3.377547,-6.03881 3.923845,-7.56614 1.124297,-3.14335 1.260549,-3.18007 6.583797,-1.77432 3.36795,0.88941 11.027813,4.22299 11.027813,4.79931 0,0.12046 -0.376595,1.35877 -0.836861,2.75166 -1.175522,3.5575 -3.1679,6.49936 -7.909323,11.67869 -3.96849,4.33499 -4.093067,4.5636 -3.703048,6.79583 0.222,1.27048 1.180464,4.464 2.129964,7.09672 l 1.726368,4.78675 h 2.916145 c 5.398829,0 9.481883,3.8967 9.0531,8.63992 -0.17906,1.97971 -0.382651,2.18995 -2.508657,2.58939 -2.620598,0.49237 -13.429538,0.56799 -14.750867,0.10318 z m 69.136351,-2.52291 c -0.5365,-3.82 -1.68116,-6.22297 -4.04925,-8.50077 l -1.92642,-1.85293 -0.40084,-10.84701 -0.40084,-10.84699 2.2269,-0.71822 c 3.26841,-1.05415 10.64866,-5.71613 14.25099,-9.00213 l 3.13899,-2.86339 -1.63666,8.18301 c -1.78424,8.9208 -3.73431,25.20924 -3.19707,26.70413 0.21295,0.59254 1.09054,0.93472 2.39731,0.93472 3.04529,0 5.89456,1.50966 7.21556,3.8231 1.29695,2.27131 1.5472,6.02893 0.4776,7.17097 -0.47688,0.50918 -3.35334,0.74118 -9.18976,0.74118 h -8.49561 z M 124.491,132.7071 c 4.24298,-10.90238 2.26232,-22.42546 -5.47116,-31.82995 -1.03793,-1.262226 -2.12049,-2.294946 -2.4057,-2.294946 -0.28519,0 -0.5221,1.18125 -0.52642,2.624986 -0.0109,3.36353 -0.52982,5.4137 -1.36112,5.3697 -0.91719,-0.0486 -6.11597,-6.757056 -8.04597,-10.382526 -0.88313,-1.658927 -2.07072,-5.324437 -2.63912,-8.145544 l -1.03345,-5.129323 -1.48647,2.118148 c -0.81753,1.164962 -1.941434,3.077425 -2.497548,4.249881 l -1.011089,2.131757 -1.318487,-2.770054 c -2.518561,-5.291377 -3.33369,-9.574968 -2.980423,-15.662471 0.178623,-3.077589 0.501172,-6.21704 0.716853,-6.976563 0.377994,-1.331219 0.263278,-1.309976 -3.187731,0.590395 -2.976444,1.639058 -4.231855,1.971337 -7.44792,1.971337 -5.340192,0 -5.833493,-0.511235 -2.841548,-2.944691 3.152968,-2.564416 4.795468,-5.791197 6.90663,-13.568368 1.979325,-7.291521 3.848045,-11.222242 7.264444,-15.280212 2.688505,-3.193376 7.047189,-6.428117 9.551609,-7.088591 0.87794,-0.231573 1.76476,-0.712087 1.97071,-1.067898 0.53265,-0.920246 -6.976333,-0.155004 -10.074708,1.026626 -3.223106,1.229275 -3.197744,0.454789 0.133584,-4.076085 2.968115,-4.036867 9.826034,-9.262344 14.698224,-11.199435 3.91059,-1.554809 12.17375,-1.795136 16.42198,-0.477643 1.52035,0.471503 2.89689,0.715729 3.05894,0.542679 0.50617,-0.540462 -5.21739,-4.139207 -8.48787,-5.3368044 l -3.12005,-1.142483 3.4708,-0.779715 c 4.43228,-0.995695 10.70312,-0.451731 15.13122,1.312544 2.46688,0.982855 4.27416,2.3208444 6.69145,4.9538684 1.82145,1.984036 3.44841,3.607313 3.6154,3.607313 0.66983,0 0.21975,-1.73143 -1.40089,-5.389189 l -1.70363,-3.8450494 2.77414,1.125488 c 4.08365,1.6567524 9.02991,5.3757204 11.05397,8.3112134 2.40133,3.482609 3.66806,8.314995 3.17765,12.122203 -0.37942,2.945602 -0.33816,3.049996 2.55306,6.458814 2.5836,3.046145 2.93873,3.789047 2.93873,6.147778 0,2.544924 0.20901,2.881312 4.06364,6.539095 5.5222,5.240254 5.90953,6.172429 5.53679,13.325099 -0.23088,4.430005 -0.63032,6.502702 -1.68842,8.760984 -0.76228,1.626965 -1.53095,4.524991 -1.70815,6.440069 -0.37489,4.05169 -1.42142,6.456783 -4.27926,9.83432 -2.33539,2.760063 -3.15487,2.947563 -5.23754,1.198391 -0.80894,-0.679429 -1.696,-1.235298 -1.97126,-1.235298 -0.27526,0 -0.50045,2.165139 -0.50045,4.8114 0,8.123694 -2.80462,16.71869 -7.69804,23.59133 l -2.42511,3.40599 -0.28923,-4.94115 -0.28923,-4.94116 -2.2949,4.5876 c -4.081,8.15819 -12.36292,15.98179 -20.25593,19.13494 -3.95992,1.58196 -4.59737,1.6152 -4.05096,0.21127 z m 45.03683,-52.108377 c 1.15062,-1.754004 1.23381,-6.062386 0.14779,-7.648335 -0.76963,-1.123807 -0.94982,-1.097148 -5.46616,0.808428 -5.13011,2.164533 -8.41317,2.483529 -10.38477,1.009024 -2.74446,-2.05248 -0.94474,-3.737782 2.96514,-2.776637 6.32828,1.555626 14.69666,-5.589831 11.07512,-9.45666 -0.47911,-0.511562 -1.45528,-1.119255 -2.16925,-1.350408 -1.84867,-0.598518 -3.90122,-2.763634 -3.90122,-4.115209 0,-0.817253 0.37741,-1.11636 1.30155,-1.031551 0.71586,0.0656 3.49784,0.0761 6.18219,0.02334 l 4.8806,-0.09618 -5.67855,-6.171262 c -4.70034,-5.108196 -5.55777,-6.326663 -4.97743,-7.0733 1.13455,-1.459658 0.2664,-2.97875 -4.46755,-7.817299 l -4.47163,-4.57042 -0.18124,2.007357 c -0.0997,1.104035 -0.30051,2.007357 -0.44625,2.007357 -0.14583,0 -1.28419,-0.720165 -2.52989,-1.600353 -4.8958,-3.459335 -9.34174,-3.077169 -13.42512,1.154014 -2.07513,2.150246 -2.29223,2.643016 -1.92489,4.368797 0.63148,2.966564 0.48679,3.808165 -1.09559,6.372581 -2.19304,3.554135 -2.50332,6.931462 -0.95127,10.35473 1.51016,3.330872 3.2317,4.749094 8.52263,7.021033 l 3.93312,1.688896 0.0324,3.741565 c 0.0383,4.428277 1.37163,7.299107 4.33743,9.338889 1.09635,0.754037 3.05073,2.206528 4.34309,3.227738 3.26747,2.581971 6.42527,3.886718 8.32733,3.440659 1.27526,-0.29906 1.77993,-0.06513 2.54316,1.178526 0.52371,0.853412 0.98098,2.047835 1.01616,2.654267 0.0352,0.606433 0.39151,-0.32705 0.79182,-2.074377 0.40034,-1.74735 1.15248,-3.824273 1.67145,-4.615356 z m -15.3896,-31.136019 c -1.49759,-1.486691 -2.70875,-2.14504 -3.94626,-2.14504 -0.98203,0 -2.96435,-0.73765 -4.40516,-1.639221 -2.97883,-1.863931 -2.65547,-2.431705 1.75232,-3.076772 4.14311,-0.606339 5.26651,-0.0093 7.56139,4.025358 3.09805,5.445332 2.73728,6.508374 -0.96229,2.835675 z M 173.104,68.028617 c 0.46099,-1.178058 0.83818,-3.172086 0.83818,-4.431195 v -2.28926 l -1.39097,1.395276 c -1.6477,1.65276 -2.46034,5.306877 -1.46497,6.58744 0.95394,1.227268 1.07259,1.153057 2.01776,-1.262261 z M 123.33524,40.493911 c 0.20682,-0.6957 0.0833,-1.641555 -0.27456,-2.1019 -1.83706,-2.363424 -1.7474,-7.207645 0.15741,-8.500813 1.18311,-0.803223 4.1321,-0.528207 5.52772,0.515553 1.12958,0.844776 1.55546,0.87664 2.73181,0.204494 1.79754,-1.027185 1.75744,-1.386194 -0.36811,-3.295856 -2.7079,-2.432895 -5.74947,-3.091478 -8.61782,-1.866055 -5.41324,2.312628 -6.5894,8.668424 -2.62985,14.211241 1.70413,2.385554 2.92504,2.678499 3.47351,0.833383 z"
       id="path1" /></g></svg>
