<?xml version="1.0" encoding="UTF-8" standalone="no"?>
<!-- Created with Inkscape (http://www.inkscape.org/) -->

<svg
   width="240mm"
   height="180mm"
   viewBox="0 0 240 180"
   version="1.1"
   id="svg1"
   sodipodi:docname="raccoon.svg"
   inkscape:version="1.4.2 (f4327f4, 2025-05-13)"
   xml:space="preserve"
   xmlns:inkscape="http://www.inkscape.org/namespaces/inkscape"
   xmlns:sodipodi="http://sodipodi.sourceforge.net/DTD/sodipodi-0.dtd"
   xmlns="http://www.w3.org/2000/svg"
   xmlns:svg="http://www.w3.org/2000/svg"><sodipodi:namedview
     id="namedview1"
     pagecolor="#505050"
     bordercolor="#ffffff"
     borderopacity="1"
     inkscape:showpageshadow="0"
     inkscape:pageopacity="0"
     inkscape:pagecheckerboard="1"
     inkscape:deskcolor="#505050"
     inkscape:document-units="mm"
     inkscape:zoom="1"
     inkscape:cx="482"
     inkscape:cy="226"
     inkscape:window-width="2560"
     inkscape:window-height="1351"
     inkscape:window-x="-9"
     inkscape:window-y="-9"
     inkscape:window-maximized="1"
     inkscape:current-layer="layer1"
     showguides="true" /><defs
     id="defs1"><rect
       x="101.82338"
       y="91.923882"
       width="384.66608"
       height="299.81326"
       id="rect3" /><rect
       x="2.8284271"
       y="2.1213202"
       width="662.55902"
       height="647.00269"
       id="rect2" /></defs><g
     inkscape:label="Icon"
     inkscape:groupmode="layer"
     id="layer1"><path
       style="fill:#000000;stroke-width:3.88774"
       d="m 67.484028,149.63291 c 0.740017,-1.71968 -0.530218,-1.9183 -2.281352,-0.35685 -0.678674,0.60521 -2.023261,0.83023 -2.988021,0.5001 -3.054675,-1.04529 -0.04529,-4.08484 6.32804,-6.39164 6.966698,-2.52153 8.396053,-4.65555 9.152537,-13.66476 0.650433,-7.74609 -0.839399,-12.95942 -5.445865,-19.05681 -3.472419,-4.59626 -13.944225,-12.998304 -16.20034,-12.998304 -0.635817,0 2.257927,3.259974 6.430552,7.244374 14.586917,13.92887 14.591816,18.41709 0.03705,32.85734 -4.032361,4.00033 -5.563939,4.80688 -11.008487,5.79732 -4.810749,0.87513 -6.51219,0.87954 -7.10898,0.0184 -0.514574,-0.74245 -1.337012,-0.82054 -2.38975,-0.22689 -2.408153,1.35806 -3.23903,1.13003 -3.23903,-0.88886 0,-2.42714 2.052986,-3.81842 7.778349,-5.27123 6.201116,-1.57356 8.551385,-5.64603 9.364642,-16.22678 0.498147,-6.48093 0.195554,-8.69568 -1.883534,-13.78022 -3.166037,-7.743344 -6.025734,-11.595834 -10.757849,-14.492794 -3.410377,-2.0878 -5.258011,-2.36388 -18.749415,-2.80172 -14.7603211,-0.479 -15.023763,-0.52713 -19.1491257,-3.49755 -5.47657808,-3.94339 -5.99568088,-7.22132 -1.5868268,-10.02087 2.9583817,-1.878579 3.1583818,-2.338704 2.1443425,-4.932741 -1.2974071,-3.318937 -0.196789,-7.057761 4.698109,-15.957786 3.096955,-5.631017 3.128738,-5.84678 1.492302,-10.129546 -2.05562,-5.379936 -2.1251554,-8.934167 -0.220255,-11.257298 1.380528,-1.683626 1.881475,-1.59746 10.212851,1.757088 6.698028,2.696907 10.188067,3.527578 14.821005,3.527578 5.485224,0 6.52837,-0.361624 10.998607,-3.811737 2.716263,-2.096428 5.9562,-4.099678 7.19984,-4.451683 3.576741,-1.012363 7.204986,1.84241 9.221084,7.255278 1.607411,4.315698 2.180693,4.893598 4.854264,4.893598 6.456941,0 15.318535,-2.186448 29.46243,-7.269339 8.886668,-3.193598 17.949588,-5.731905 22.883628,-6.409188 26.38158,-3.621342 51.20333,7.453015 62.99115,28.103725 2.33286,4.086828 8.59848,14.410476 13.92364,22.941461 9.29885,14.89689 10.22405,15.99274 23.37301,27.683954 11.92578,10.60366 13.92693,12.84492 15.52207,17.38431 2.8315,8.05779 2.51116,9.68899 -2.25356,11.47655 -2.41881,0.90743 -7.12158,1.51911 -11.53084,1.49976 -13.88844,-0.0609 -28.00072,-8.68242 -36.66931,-22.40207 -6.27115,-9.92524 -6.00527,-9.717 -8.00474,-6.26898 -3.3709,5.81304 -4.231,11.86483 -2.83467,19.94567 1.13323,6.55847 1.07629,7.82294 -0.44574,9.8944 -2.18028,2.96737 -16.25015,9.25937 -22.332,9.98681 -4.11799,0.49258 -4.4797,0.37014 -3.79992,-1.28603 0.71927,-1.75235 0.65846,-1.75793 -1.42536,-0.13069 -2.67728,2.09081 -5.1902,2.23156 -4.33442,0.24267 0.74965,-1.74215 -0.53771,-1.91165 -2.33644,-0.30766 -2.36476,2.10877 -2.84504,-0.17181 -0.60345,-2.86523 1.54182,-1.85266 3.98942,-3.04756 8.09658,-3.95272 5.75279,-1.26781 9.69914,-3.41413 9.69914,-5.27512 0,-0.51086 -3.85553,-4.1608 -8.56785,-8.11099 -6.51285,-5.45949 -9.29486,-8.62673 -11.59877,-13.20485 -4.73763,-9.41419 -4.72075,-20.269704 0.0469,-30.310224 1.68457,-3.54751 -1.61375,-0.58223 -4.03219,3.62501 -2.75966,4.8009 -3.95497,16.454264 -2.159,21.048544 l 1.19613,3.05985 -6.23261,-0.77303 c -3.42795,-0.42514 -8.43837,-0.78291 -11.13434,-0.79499 l -4.90169,-0.022 -0.58312,-6.82409 c -0.34624,-4.051474 -1.48193,-8.368604 -2.79535,-10.625544 -3.22401,-5.54007 -5.01388,-5.43941 -2.68164,0.1509 2.34244,5.61479 3.55237,11.956314 2.28114,11.956314 -0.50535,0 -0.68707,0.79025 -0.40387,1.75614 0.76571,2.61114 -2.49576,14.11629 -5.49375,19.37977 -1.44273,2.53291 -4.520666,6.57234 -6.839852,8.97646 -2.319145,2.40412 -6.027752,6.39135 -8.241339,8.86049 -3.107289,3.46604 -5.137261,4.73914 -8.905728,5.58534 -7.041215,1.58113 -10.835165,1.44492 -10.058055,-0.36089 z M 218.57914,129.4986 c 3.61993,-3.2281 7.47815,-9.68939 7.52039,-12.59424 0.0206,-1.53193 -3.77411,-4.66906 -5.65019,-4.66906 -0.45776,0 -1.50815,1.44249 -2.33422,3.20557 -0.8261,1.76307 -4.35315,5.47179 -7.83796,8.24154 -3.48481,2.76978 -6.12417,5.18767 -5.86526,5.37314 6.20186,4.44192 9.56502,4.5471 14.16724,0.44305 z m -18.51187,-12.5739 c 5.26884,-3.4036 7.91088,-5.88412 10.1749,-9.55275 1.35294,-2.19239 1.25669,-2.70997 -0.96649,-5.19629 l -2.46908,-2.761384 -5.10598,4.867864 c -2.80832,2.67731 -6.80947,5.58869 -8.89152,6.46977 l -3.78551,1.6019 2.41149,3.8262 c 1.3263,2.10443 2.73783,3.8262 3.13672,3.8262 0.39893,0 2.87184,-1.38669 5.49547,-3.08151 z m -8.714,-17.560024 c 2.53706,-1.73631 5.5886,-4.33119 6.78119,-5.76634 1.90713,-2.29508 2.00181,-2.96785 0.786,-5.58535 -0.76027,-1.63678 -1.54911,-2.97596 -1.75298,-2.97596 -1.52339,0 -10.12561,8.91497 -11.15299,11.55849 -2.64825,6.814104 -1.46694,7.426844 5.33878,2.76916 z M 32.505826,85.490066 c 1.048416,-0.36346 1.906218,-1.2546 1.906218,-1.98023 0,-2.27015 -6.115689,-7.65512 -11.332695,-9.978583 -5.325446,-2.371775 -7.268839,-2.221178 -11.444017,0.886768 -1.9916435,1.482625 -2.3202563,2.226205 -1.36159,3.081105 1.660314,1.48061 1.613011,4.89503 -0.08893,6.41268 -2.5338422,2.25962 1.385304,3.21262 11.155915,2.7128 5.092345,-0.26066 10.116597,-0.77104 11.165012,-1.13454 z m 33.815048,-6.00211 c 2.272871,-1.39976 4.443395,-2.9937 4.823428,-3.54205 C 72.102763,74.562928 61.101768,65.857703 52.985543,61.5767 c -3.69885,-1.951007 -10.85118,-4.744213 -15.894082,-6.207083 -10.3695,-3.00805 -11.069541,-2.838032 -14.740972,3.579637 -2.871924,5.020075 -2.632649,6.204402 0.771141,3.816803 1.578552,-1.107267 4.453687,-2.013236 6.389258,-2.013236 5.073573,0 18.530683,6.336974 24.678072,11.620905 5.989177,5.14798 6.776744,8.20982 2.55311,9.92594 -1.497736,0.60855 -2.72318,1.47928 -2.72318,1.93492 0,1.14758 7.313138,-1.67415 12.301984,-4.74663 z M 32.778161,68.143938 c 0,-1.010271 -0.84434,-2.311787 -1.876247,-2.892258 -2.529437,-1.422852 -4.582505,0.427561 -3.584769,3.230936 0.952697,2.676788 5.461016,2.397181 5.461016,-0.338862 z M 13.324259,63.965217 c -1.308276,-1.166669 -3.193621,1.451892 -2.360932,3.27903 0.738164,1.619708 0.898889,1.58428 1.949651,-0.42969 0.629848,-1.207164 0.814945,-2.489368 0.411281,-2.84934 z m 5.232115,-8.797742 c 1.056814,-3.06859 -1.066119,-2.786707 -4.92421,0.653787 -3.355169,2.992007 -4.2486238,5.503733 -1.640265,4.611127 0.849074,-0.2904 1.888309,0.209265 2.309429,1.110314 0.625813,1.339257 1.015604,1.106276 2.134007,-1.275559 0.752615,-1.602747 1.707082,-3.897609 2.121039,-5.099669 z M 61.303333,43.521458 c -0.602635,-5.206981 -3.000126,-8.995552 -5.692593,-8.995552 -1.679087,0 -9.617297,7.737505 -8.740434,8.519457 0.355291,0.316834 2.388145,-0.924289 4.517912,-2.757631 3.747346,-3.225869 3.922522,-3.272568 5.430015,-1.447854 0.874723,1.058806 1.557762,4.075667 1.557762,6.880511 0,2.74724 0.340469,5.298617 0.756608,5.669713 1.597325,1.424431 2.758956,-2.786304 2.17073,-7.868644 z M 17.757979,40.858914 c -2.582052,-4.828505 -4.425116,-4.451462 -3.467519,0.709408 1.010869,5.447635 1.532359,6.06559 3.578799,4.240655 1.563114,-1.393959 1.553151,-1.83749 -0.111157,-4.950063 z M 111.1995,141.36762 c -1.54755,-2.233 0.77567,-4.82638 5.24578,-5.85567 7.87921,-1.81429 8.88556,-2.11923 10.28235,-3.11577 2.10539,-1.50207 1.63907,-3.29639 -1.75962,-6.77081 -3.01902,-3.08625 -8.28407,-11.35914 -7.57518,-11.90268 0.37299,-0.28599 16.53612,1.3705 16.68589,1.71003 0.049,0.11124 2.26274,2.82503 4.91923,6.03056 5.53631,6.68057 6.3422,11.7606 2.42046,15.25785 -3.4774,3.10101 -26.71673,7.46914 -24.76654,4.65519 0.37011,-0.53429 0.1832,-0.97139 -0.41606,-0.97139 -0.59909,0 -1.39222,0.4371 -1.76245,0.97139 -0.86485,1.24784 -2.40581,1.24376 -3.27386,-0.007 z"
       id="path1" /></g></svg>
