<?xml version="1.0" encoding="UTF-8" standalone="no"?>
<!-- Created with Inkscape (http://www.inkscape.org/) -->

<svg
   width="240mm"
   height="180mm"
   viewBox="0 0 240 180"
   version="1.1"
   id="svg1"
   sodipodi:docname="sheep.svg"
   inkscape:version="1.4.2 (f4327f4, 2025-05-13)"
   xml:space="preserve"
   xmlns:inkscape="http://www.inkscape.org/namespaces/inkscape"
   xmlns:sodipodi="http://sodipodi.sourceforge.net/DTD/sodipodi-0.dtd"
   xmlns="http://www.w3.org/2000/svg"
   xmlns:svg="http://www.w3.org/2000/svg"><sodipodi:namedview
     id="namedview1"
     pagecolor="#505050"
     bordercolor="#ffffff"
     borderopacity="1"
     inkscape:showpageshadow="0"
     inkscape:pageopacity="0"
     inkscape:pagecheckerboard="1"
     inkscape:deskcolor="#505050"
     inkscape:document-units="mm"
     inkscape:zoom="1"
     inkscape:cx="298"
     inkscape:cy="306"
     inkscape:window-width="2560"
     inkscape:window-height="1351"
     inkscape:window-x="-9"
     inkscape:window-y="-9"
     inkscape:window-maximized="1"
     inkscape:current-layer="layer1"
     showguides="true" /><defs
     id="defs1"><rect
       x="101.82338"
       y="91.923882"
       width="384.66608"
       height="299.81326"
       id="rect3" /><rect
       x="2.8284271"
       y="2.1213202"
       width="662.55902"
       height="647.00269"
       id="rect2" /></defs><g
     inkscape:label="Icon"
     inkscape:groupmode="layer"
     id="layer1"><path
       style="fill:#000000;stroke-width:1.45638"
       d="m 30.258645,172.6503 c -0.853787,-0.25661 -1.999921,-0.9626 -2.546966,-1.56884 -0.859624,-0.95265 -1.022072,-1.52814 -1.196818,-4.23987 l -0.20219,-3.1376 -1.556769,-1.15336 c -0.902711,-0.6688 -1.656796,-1.5938 -1.794851,-2.20165 -0.130949,-0.57656 -0.04873,-2.98015 0.18272,-5.3413 0.600013,-6.12131 0.525029,-10.73682 -0.342003,-21.0512 -0.418961,-4.98405 -0.669175,-9.45005 -0.556034,-9.92446 0.113146,-0.4744 1.200639,-2.39096 2.416659,-4.25904 2.775814,-4.26424 2.913324,-4.84536 1.719928,-7.26846 -1.693097,-3.43768 -1.639396,-6.02038 0.228856,-11.00664 0.156598,-0.41795 -0.274983,-0.95908 -1.382645,-1.733613 -2.964909,-2.07322 -4.273103,-6.857342 -3.079233,-11.260904 0.402881,-1.486017 0.373464,-1.585762 -0.785488,-2.663446 -1.706711,-1.587017 -2.925924,-4.689476 -2.920424,-7.431401 0.0043,-2.147133 0.558493,-3.890158 2.073936,-6.522969 0.576396,-1.001395 0.566474,-1.117245 -0.1972,-2.302421 -3.482172,-5.404208 -2.500395,-15.513376 2.166321,-22.306195 0.819421,-1.19274 1.418874,-2.247062 1.332116,-2.342936 -0.390268,-0.431284 -3.959012,3.257762 -5.302759,5.481513 -2.308139,3.819715 -3.189005,7.150128 -3.171915,11.99249 0.01136,3.205863 0.184435,4.527773 0.829999,6.337672 l 0.815702,2.286928 -1.032901,2.371454 -1.032902,2.371469 h -2.39865 c -2.047482,0 -2.5905735,-0.161811 -3.7095805,-1.105288 -3.5217242,-2.969278 -4.8087346,-9.418866 -3.2357759,-16.215424 0.9438242,-4.078141 1.917134,-6.083303 4.283817,-8.825281 1.4791204,-1.71367 1.9701874,-2.583289 1.9701874,-3.48896 0,-5.016957 3.5434,-9.719591 8.06424,-10.702485 2.089555,-0.454297 2.121421,-0.482223 2.349591,-2.059077 0.558781,-3.861672 2.950961,-7.192377 6.447661,-8.977283 1.247807,-0.636949 2.342355,-0.834328 4.494676,-0.810527 l 2.845182,0.03146 0.558732,-1.301183 c 0.852163,-1.984526 3.38679,-4.681729 5.263838,-5.601468 2.533959,-1.241623 6.333253,-1.386057 8.819989,-0.335303 l 2.005215,0.847291 1.293773,-1.385456 c 4.089176,-4.37896 10.127908,-5.015993 15.248366,-1.608571 l 2.0727,1.379285 1.033287,-0.960826 c 4.343442,-4.038847 11.165285,-3.828391 15.302496,0.472086 l 1.205978,1.253564 2.276284,-1.19004 c 3.259643,-1.704132 6.574119,-1.687741 9.71743,0.04806 1.23374,0.681305 2.67741,1.809022 3.20813,2.506038 0.80983,1.063561 1.06264,1.188407 1.57255,0.77656 4.27747,-3.454867 10.38591,-3.123123 13.80817,0.749909 l 1.38446,1.566812 1.13822,-0.940746 c 3.79766,-3.138777 8.14073,-3.414173 11.68526,-0.740967 l 1.38319,1.043165 0.8207,-0.852046 c 1.54961,-1.608768 4.30228,-2.686798 6.85973,-2.686475 2.87799,3.61e-4 4.65175,0.627171 6.7259,2.376791 l 1.56185,1.317481 1.26279,-1.165998 c 1.36273,-1.25826 4.19302,-2.361778 6.00289,-2.340499 0.61864,0.0073 1.99832,0.346656 3.06597,0.754183 l 1.94118,0.740959 0.50178,-1.05799 c 1.93162,-4.072769 7.81678,-6.743688 11.7214,-5.319624 1.32231,0.482267 1.35574,0.466589 2.89165,-1.35604 3.2275,-3.830033 8.21242,-4.8465999 12.46104,-2.541158 2.08479,1.131274 2.16916,1.143248 3.66555,0.520138 4.87937,-2.031825 11.1504,-1.558035 15.4733,1.169042 1.64563,1.038138 4.4345,4.235695 5.34549,6.128841 0.32609,0.677664 2.22301,2.64996 4.21537,4.382881 4.88821,4.251679 12.87196,13.22262 14.20647,15.963103 1.12198,2.304039 1.63205,6.032991 1.18528,8.664854 -0.34616,2.03908 -4.48182,7.272523 -6.42654,8.132423 -2.00715,0.887503 -4.42634,0.841625 -7.54205,-0.143026 -1.76439,-0.557598 -3.66244,-0.810151 -6.08859,-0.810151 -3.19822,0 -7.15444,0.524602 -7.59052,1.00652 -0.0949,0.104858 0.13646,1.060562 0.51412,2.123789 1.52774,4.301139 0.58181,9.208048 -2.26091,11.728223 -1.18914,1.05423 -1.29988,1.299588 -0.93063,2.062055 0.64542,1.332718 0.90488,5.375976 0.46123,7.187697 -0.71466,2.918388 -2.31434,5.188842 -4.57612,6.494921 l -2.06993,1.195295 -8.7e-4,2.383473 c -0.001,3.461417 -0.66754,5.442237 -2.55983,7.610222 -1.32187,1.514463 -2.11798,2.039427 -3.94175,2.599207 -2.18234,0.66984 -2.2949,0.767 -2.49767,2.15581 -0.9072,6.213423 -4.56028,9.692213 -9.92546,9.451913 -1.7886,-0.0801 -1.9251,-0.0107 -2.83485,1.42767 -1.95695,3.09551 -6.00418,4.85618 -9.48558,4.12657 -1.03013,-0.2159 -1.93807,-0.46447 -2.01763,-0.55241 -0.0795,-0.0879 0.42629,-0.98647 1.12413,-1.99678 2.06688,-2.99233 2.63017,-5.13179 2.63017,-9.98992 0,-3.688883 -0.12164,-4.540903 -0.91639,-6.420537 l -0.91639,-2.167219 -0.0208,4.597673 c -0.0254,5.599833 -0.69066,7.792063 -3.54661,11.686543 -1.8742,2.55572 -1.93172,2.71025 -1.95989,5.26599 -0.0159,1.44815 -0.31353,3.5755 -0.66125,4.72746 -0.69201,2.29248 -2.85398,5.28009 -4.76587,6.58587 l -1.21955,0.83293 -0.21298,4.15505 c -0.1172,2.28527 -0.54708,5.4066 -0.95544,6.93628 -1.18061,4.4225 -1.60865,10.09637 -1.1271,14.94086 0.50415,5.07194 1.30723,7.80348 3.64012,12.38124 0.98605,1.93491 1.99861,4.30058 2.25013,5.25704 0.40169,1.52756 0.38111,1.82311 -0.1694,2.43045 -0.92997,1.02602 -9.03714,0.9814 -10.79922,-0.0594 -1.5479,-0.91429 -2.26208,-2.78037 -2.26208,-5.91055 0,-2.21262 -0.0917,-2.499 -1.00802,-3.14678 -0.55442,-0.39197 -1.20897,-0.9886 -1.45456,-1.32585 -0.60165,-0.82619 -0.57519,-4.14897 0.0759,-9.52487 0.74216,-6.1282 0.68684,-11.50574 -0.19853,-19.30035 -0.70898,-6.24159 -0.80872,-6.67137 -1.72549,-7.4347 -4.56949,-3.8046 -6.00091,-6.55332 -6.18818,-11.88306 -0.10419,-2.96605 -0.2377,-3.53228 -1.09792,-4.65839 -1.34696,-1.76323 -2.95671,-5.63869 -3.46414,-8.33986 -0.61195,-3.257533 -0.24734,-9.810698 0.71007,-12.76217 0.42851,-1.321006 0.71088,-2.477231 0.62748,-2.569397 -0.30116,-0.332808 -2.3995,3.28474 -3.20196,5.52018 -0.6977,1.943648 -0.82317,3.076387 -0.83665,7.552584 -0.0176,5.858373 0.36781,7.551213 2.60729,11.451283 0.69657,1.21307 1.22568,2.66539 1.22568,3.36429 0,1.10051 -0.22154,1.3445 -2.10768,2.32133 -2.95248,1.52905 -6.77575,1.54715 -9.52161,0.045 l -1.91302,-1.0465 -0.96958,1.11836 c -1.56072,1.80026 -4.35699,2.93851 -7.13466,2.90426 -2.82043,-0.0348 -4.34141,-0.66012 -6.5213,-2.68118 -0.88298,-0.81865 -1.78133,-1.3511 -2.01605,-1.19492 -0.23286,0.15495 -1.04498,0.77562 -1.804719,1.37929 -2.735808,2.1738 -7.252785,2.50388 -10.765596,0.78669 -0.866153,-0.4234 -2.377086,-1.59912 -3.357618,-2.61268 -1.682944,-1.73963 -1.852877,-1.82065 -3.033669,-1.44643 -2.092608,0.66323 -5.281844,0.46333 -7.546463,-0.47303 -2.330993,-0.96379 -5.284462,-3.73262 -5.990324,-5.61582 -0.417851,-1.1148 -0.352973,-1.3045 1.047253,-3.06243 4.38988,-5.511283 6.030695,-12.586162 4.706348,-20.292898 -0.653065,-3.800411 -2.666996,-8.684018 -4.516673,-10.952619 l -1.253373,-1.537245 0.602941,1.620301 c 1.507428,4.050959 2.377751,7.431754 2.678896,10.406268 0.74989,7.407135 -1.228228,14.43682 -5.272465,18.736793 -1.596149,1.69708 -1.997167,2.41555 -2.341384,4.19472 -0.496958,2.56876 -1.146739,4.03429 -2.30481,5.19838 -1.123764,1.1296 -3.016548,2.17403 -3.939924,2.17403 -0.513114,0 -0.945053,0.52687 -1.434602,1.74987 -1.561823,3.90183 -5.229962,6.2272 -9.047548,5.73559 l -1.832771,-0.23601 -4.657124,4.98315 c -6.014302,6.43535 -6.44117,7.37778 -6.880953,15.19177 -0.330258,5.86796 0.0065,13.37352 0.734298,16.36705 0.237984,0.97883 1.486099,4.05825 2.773589,6.84315 1.28749,2.7849 2.443588,5.74777 2.569105,6.58419 0.217398,1.44864 0.166014,1.54946 -1.084035,2.12665 -1.560476,0.72053 -6.625215,0.75443 -8.936278,0.0599 z M 148.53714,110.01125 c 1.41232,-0.44762 3.47271,-2.4607 4.29503,-4.19643 0.30007,-0.63339 0.48836,-1.21485 0.41843,-1.29214 -0.07,-0.0773 -0.85001,0.39597 -1.73348,1.05168 -2.95166,2.19067 -5.54138,2.4331 -8.43989,0.79004 -1.48109,-0.83957 -2.6002,-2.09329 -3.44007,-3.85383 l -0.57972,-1.21523 -0.0147,1.53206 c -0.0475,4.96298 4.83803,8.65962 9.49438,7.18385 z M 46.921173,107.75676 c 1.90933,-1.05144 3.436137,-2.83703 3.944248,-4.61272 0.258671,-0.90398 0.149691,-0.86133 -1.29788,0.50795 -3.33018,3.15009 -7.656422,3.0482 -11.206432,-0.26393 -1.630108,-1.52086 -2.474206,-3.683643 -2.7139,-6.953643 l -0.207847,-2.835527 -0.649071,1.575275 c -0.861876,2.091742 -0.833405,5.423345 0.0651,7.617645 2.126074,5.19228 7.578674,7.43597 12.065782,4.96495 z m 61.499647,-1.35577 c 0.80641,-0.41261 1.93704,-1.30429 2.51251,-1.98154 l 1.04629,-1.23135 1.61959,1.3662 c 1.79694,1.51578 3.51726,2.02972 5.45167,1.62869 1.47991,-0.30681 1.72998,-1.03943 0.35479,-1.03943 -2.04373,0 -4.67845,-2.14019 -6.27288,-5.09552 -0.3926,-0.727703 -0.5043,-0.670333 -1.72519,0.88603 -4.93987,6.29726 -13.763381,3.0943 -15.303214,-5.555089 l -0.432605,-2.429953 -0.893764,1.742704 c -1.247291,2.432025 -1.900065,3.163765 -3.585254,4.018925 -3.716312,1.885893 -8.351741,-0.0848 -10.118419,-4.301624 -0.373352,-0.891163 -0.682449,-2.12158 -0.686882,-2.734254 -0.0097,-1.342946 -0.568805,-1.472116 -0.876682,-0.202551 -0.631702,2.604931 0.377674,6.147169 2.383195,8.363459 3.233043,3.572813 8.367189,3.641783 11.739672,0.15771 l 0.974672,-1.00693 0.720339,1.762063 c 1.606387,3.92947 5.193302,6.41597 9.243332,6.40756 1.53868,-0.003 2.90195,-0.27065 3.84883,-0.7551 z m 70.13187,-7.228793 c 1.61962,-1.16054 2.99122,-3.627179 3.00129,-5.397395 0.008,-1.566379 0.39179,-1.796228 2.99226,-1.796228 1.90993,0 2.67536,-0.186261 3.48226,-0.847391 1.57703,-1.292147 2.68372,-3.344771 2.68372,-4.977611 v -1.451891 l -0.92886,1.510605 c -0.51088,0.830827 -1.57647,1.875702 -2.36799,2.321942 -2.55058,1.437959 -5.01778,0.943569 -7.84776,-1.572549 -0.78702,-0.699743 -1.48139,-1.2165 -1.54305,-1.148356 -0.0617,0.06813 0.21112,1.271571 0.6062,2.674317 0.86618,3.075544 0.90523,4.845347 0.15096,6.840298 -0.75814,2.005189 -1.87614,3.281889 -3.64805,4.165949 l -1.46621,0.731533 1.66776,0.0286 c 1.22701,0.0211 2.0773,-0.264853 3.21747,-1.081843 z m -21.20424,-3.378269 c 2.68875,-0.684632 4.79109,-2.8212 5.34858,-5.435654 l 0.25914,-1.21523 -0.84687,1.164722 c -1.17546,1.616626 -4.17475,3.07977 -6.32314,3.084623 -2.22997,0.0046 -3.81006,-0.730469 -5.78095,-2.690942 l -1.56668,-1.558403 0.26763,1.190519 c 0.55031,2.447989 2.5876,4.658627 4.99748,5.422717 1.65939,0.526147 1.72379,0.526797 3.64481,0.03766 z M 62.087442,88.717549 c 1.147722,-0.655879 3.263244,-2.914851 3.263244,-3.484489 0,-0.157463 -0.7592,0.182633 -1.687114,0.755762 -4.899325,3.026062 -11.508831,-1.203502 -11.508831,-7.364757 0,-1.6015 -0.529437,-1.918049 -0.868629,-0.519361 -0.432384,1.783 -0.204662,4.987195 0.471358,6.632313 0.74962,1.824245 2.642975,3.708796 4.516929,4.495943 1.480985,0.62209 4.252576,0.376334 5.813043,-0.515411 z M 107.5997,84.657681 c 0.93065,-0.350431 1.87097,-0.875364 2.08963,-1.166514 0.31993,-0.426015 0.091,-0.491174 -1.17242,-0.333803 -6.44985,0.803406 -11.364925,-6.886335 -8.40779,-13.154178 0.89028,-1.887001 0.66259,-2.155783 -0.770721,-0.909842 -3.495909,3.038862 -3.134666,10.754616 0.652981,13.947205 2.63452,2.220635 4.78928,2.678618 7.60832,1.617132 z m -66.991416,-3.761907 1.466218,-0.732107 -2.451344,-0.221291 c -3.004754,-0.271231 -4.749003,-1.363613 -6.191817,-3.877787 -2.221139,-3.870454 -1.755657,-7.911966 1.28924,-11.193721 l 1.849131,-1.992961 -1.434785,0.2573 c -4.515806,0.809836 -7.081726,7.627721 -4.875211,12.953908 1.881927,4.542669 6.542205,6.707255 10.348568,4.806659 z M 169.36044,80.016829 c 1.78248,-1.129678 2.71271,-2.434348 1.31224,-1.840459 -1.59136,0.674834 -3.72788,0.971587 -4.89709,0.680177 -1.85956,-0.463479 -2.59788,-0.982151 -4.29595,-3.017949 -1.80944,-2.169301 -2.46166,-4.461893 -2.13767,-7.513937 0.20453,-1.926699 0.16599,-2.124382 -0.32613,-1.673044 -0.63303,0.580585 -1.66109,4.085758 -1.658,5.65301 0.004,1.955559 0.72766,3.928295 2.08373,5.679037 2.66682,3.443014 6.46566,4.221695 9.91887,2.033165 z m 24.499,-1.393484 c 1.98041,-0.649939 4.23495,-2.859857 4.89515,-4.798315 0.21361,-0.627173 0.38331,-2.085448 0.37712,-3.240601 l -0.0111,-2.100284 -0.81348,2.209383 c -0.93211,2.53155 -3.06207,4.609527 -5.17356,5.04727 -3.17361,0.657946 -6.76996,-1.904959 -7.58112,-5.402615 l -0.45446,-1.959524 -1.4998,0.752731 c -1.86045,0.933724 -4.65031,0.982517 -6.31336,0.110384 -1.91359,-1.003492 -3.7047,-3.568709 -4.17201,-5.975146 -0.39214,-2.01931 -0.12234,-4.034087 0.92852,-6.934807 0.25967,-0.716722 0.18145,-0.697293 -0.67833,0.168517 -2.18611,2.201467 -3.00447,6.1788 -2.01913,9.813204 0.5684,2.096533 2.67225,4.741102 4.50261,5.659854 1.82865,0.917879 5.32884,0.998118 6.80257,0.155917 l 1.06411,-0.608097 0.76836,1.919549 c 1.24711,3.115611 3.04391,4.769731 5.86431,5.398635 0.70561,0.15734 1.37672,0.307041 1.49133,0.332655 0.11457,0.02557 1.02471,-0.221306 2.02244,-0.54874 z m -48.21406,-3.218356 c -0.8851,-1.582638 -2.71699,-2.671376 -4.47336,-2.658638 -1.58972,0.01225 -4.17384,1.31482 -4.68024,2.360492 -0.59223,1.222884 -0.51578,1.256367 0.96431,0.422478 2.73819,-1.542725 6.43269,-0.640737 7.98669,1.949894 0.72544,1.209351 0.73433,1.212045 0.84985,0.256978 0.0641,-0.530827 -0.22706,-1.579867 -0.64725,-2.331204 z m -23.00894,1.788297 c 1.08913,0 0.3735,-0.58158 -1.39924,-1.137164 -2.53152,-0.793378 -4.90794,-4.028437 -5.49364,-7.478601 -0.34708,-2.044541 0.40802,-5.211302 1.71976,-7.212408 0.60045,-0.916011 1.02344,-1.740928 0.93998,-1.833155 -0.26609,-0.294074 -3.07677,2.152736 -3.84827,3.350083 -3.24359,5.033905 -0.57669,12.851408 4.86311,14.255287 0.80604,0.208017 1.68518,0.30571 1.95369,0.217096 0.26849,-0.08864 0.83757,-0.161138 1.26461,-0.161138 z M 86.600753,73.688021 C 82.63245,70.755548 81.063399,66.394517 82.250827,61.59784 c 0.752439,-3.03949 4.67839,-6.278682 7.609887,-6.278682 0.430222,0 0.781532,-0.04562 0.780687,-0.101199 -8.45e-4,-0.05573 -0.413224,-0.998013 -0.916388,-2.094033 -1.700164,-3.703364 -0.940826,-7.672214 2.000119,-10.454111 2.524465,-2.387942 6.304658,-2.824524 9.270178,-1.070633 1.44293,0.853392 0.46461,-0.623797 -1.275718,-1.926209 -6.423761,-4.8074 -14.860913,1.958873 -13.196131,10.5828 0.215042,1.11396 0.497512,2.322043 0.627712,2.684628 0.182734,0.508879 -0.05126,0.718955 -1.025973,0.921023 -2.725501,0.565043 -5.461392,3.475343 -6.469909,6.88238 -0.582908,1.969184 -0.329019,6.489118 0.459108,8.173338 1.170249,2.500838 4.77293,5.439527 6.669628,5.440369 0.645708,2.76e-4 0.626105,-0.07134 -0.183274,-0.669429 z M 197.37251,62.598194 c 0.73987,-0.227108 1.72958,-0.761105 2.19933,-1.186661 l 0.85407,-0.773751 -1.58857,0.38843 c -4.2467,1.038383 -7.80042,-2.637603 -7.29932,-7.550483 0.15484,-1.518178 0.0916,-1.811611 -0.35045,-1.624185 -2.71854,1.152835 -5.33279,0.501492 -7.2117,-1.796804 -2.05462,-2.513211 -2.20852,-5.745749 -0.41281,-8.669977 1.16758,-1.901332 0.46882,-1.868166 -1.2752,0.06054 -4.34649,4.806751 -1.11862,13.468788 5.0191,13.468788 h 1.84535 l 0.24618,1.721576 c 0.34826,2.43545 1.80219,4.676172 3.62894,5.592704 1.76157,0.88383 2.47314,0.944396 4.34508,0.369828 z m -62.90733,-2.467019 c -1.39897,-1.837304 -2.03508,-3.80407 -2.03508,-6.292262 0,-2.732739 0.74773,-4.763796 2.4749,-6.722551 1.01806,-1.154569 1.18529,-1.519038 0.69701,-1.519038 -1.48481,0 -3.96052,2.195028 -5.02564,4.455842 -0.26241,0.55698 -0.47556,2.106397 -0.47364,3.443149 0.004,3.018261 1.04509,5.432001 2.96338,6.872517 1.91514,1.438127 2.58802,1.323838 1.39907,-0.237657 z M 48.4892,60.433547 c 0,-0.08344 -0.247425,-0.92659 -0.549832,-1.873773 -1.050494,-3.290328 -0.502637,-6.45003 1.554702,-8.96658 1.760512,-2.153467 3.103232,-2.870383 5.959659,-3.182022 l 2.382602,-0.259944 -1.649493,-0.875671 c -0.907222,-0.481618 -2.125205,-0.879673 -2.706629,-0.884566 -2.937286,-0.02472 -6.3605,2.424686 -7.598629,5.437031 -1.263461,3.073975 -0.704359,7.573246 1.222793,9.840179 0.689564,0.811153 1.384827,1.195388 1.384827,0.765346 z M 29.168755,58.157734 c -0.105041,-0.443912 -0.07845,-1.636452 0.0591,-2.650095 0.422472,-3.113316 3.156698,-5.859549 5.833937,-5.859549 2.367737,0 2.536727,-0.263575 1.46487,-2.284775 -1.390558,-2.622174 -1.585754,-6.179217 -0.493119,-8.986043 1.473882,-3.786193 4.547308,-5.941189 9.523225,-6.677409 0.913901,-0.135218 0.913405,-0.136978 -0.183276,-0.647148 -0.658874,-0.306509 -2.142482,-0.455371 -3.701241,-0.371373 -3.225892,0.173833 -5.619052,1.637044 -7.361794,4.501103 -1.712513,2.814378 -2.147621,5.642496 -1.385066,9.002652 0.334679,1.474742 0.550751,2.714794 0.480159,2.755671 -0.07059,0.04088 -0.921259,0.515307 -1.890375,1.054287 -3.138242,1.745351 -4.570257,6.062669 -3.212474,9.685146 0.52879,1.410768 1.170644,1.764689 0.866057,0.477533 z M 164.00447,55.880758 c -2.24317,-2.121852 -3.1393,-4.247895 -3.1393,-7.447898 0,-4.256363 1.56036,-6.818201 5.24834,-8.616857 l 1.96643,-0.959044 -2.04412,-1.105196 c -2.6147,-1.413691 -3.73154,-3.263198 -3.73154,-6.179443 0,-1.608818 0.2241,-2.423338 0.99713,-3.623965 0.54843,-0.851795 0.92405,-1.629482 0.83472,-1.728196 -0.36188,-0.399919 -2.68753,2.01201 -3.28768,3.409668 -0.95622,2.226848 -0.62525,5.365936 0.79743,7.563303 l 1.11389,1.720433 -1.37506,1.075502 c -0.85532,0.668993 -1.76029,1.945623 -2.39425,3.377565 -1.90679,4.306914 -1.05537,9.237591 2.07925,12.041279 1.26617,1.132495 3.99361,2.457987 4.32198,2.100422 0.0852,-0.09278 -0.539,-0.825238 -1.38722,-1.627573 z M 68.466399,53.160742 c 0,-3.047074 0.107507,-3.566631 1.11051,-5.367263 0.753908,-1.353425 1.721071,-2.383852 3.011822,-3.208846 1.045729,-0.668376 1.906825,-1.37264 1.913558,-1.565031 0.02272,-0.646617 -3.456771,0.195464 -4.799447,1.161548 -2.12824,1.531325 -3.069205,3.579977 -3.069205,6.682169 0,2.053414 0.188124,2.967372 0.854641,4.152027 0.470053,0.835481 0.882418,1.519041 0.916388,1.519041 0.03394,0 0.06179,-1.518137 0.06179,-3.373645 z m 82.584441,-7.938068 c -0.81742,-1.751527 -1.16793,-3.147072 -1.29719,-5.164726 -0.21874,-3.414279 0.27683,-5.533975 1.92757,-8.244748 0.70176,-1.152399 1.27592,-2.172775 1.27592,-2.267504 0,-0.393451 -2.10744,1.072733 -3.06854,2.134838 -2.53548,2.801942 -3.34057,7.613044 -1.88823,11.283793 0.58893,1.488529 3.23699,4.65838 3.89155,4.65838 0.15345,0 -0.22503,-1.080015 -0.84108,-2.400033 z m -38.12553,-4.243875 c 0.25702,-10.795829 12.62069,-14.612587 17.75696,-5.481716 0.61837,1.099292 1.16606,1.998711 1.2171,1.998711 0.051,0 0.43284,-1.230419 0.84848,-2.734265 0.94467,-3.418024 2.41374,-5.405919 5.04721,-6.829765 2.13981,-1.15693 4.62955,-1.46129 7.06549,-0.863723 1.23861,0.303843 1.24411,0.298917 0.57695,-0.515756 -0.99297,-1.212534 -4.28985,-2.157511 -6.3532,-1.821001 -2.39343,0.390343 -5.06955,2.10973 -6.49526,4.173164 -0.66689,0.965189 -1.27698,1.968558 -1.35576,2.229711 -0.0888,0.2946 -0.60313,0.04717 -1.35492,-0.651897 -3.71537,-3.454837 -8.73802,-4.212742 -12.78769,-1.929633 -3.06613,1.728613 -5.55415,6.231723 -5.55415,10.052542 0,1.742985 0.73649,5.012278 1.07677,4.779863 0.14242,-0.09726 0.28283,-1.180071 0.31202,-2.406235 z m 119.34789,0.252804 c -0.62843,-1.115711 -3.42981,-3.330733 -4.21245,-3.330733 -1.78416,0 -0.8723,2.544347 1.08603,3.030344 0.53352,0.132401 1.3824,0.5886 1.88641,1.013779 1.06688,0.900009 1.88399,0.429919 1.24001,-0.71339 z M 53.398001,31.255393 c 2.463519,-4.645456 7.666254,-6.6576 12.504117,-4.835933 1.980847,0.745871 4.520164,3.278102 5.340141,5.325221 0.623071,1.555572 0.829025,1.601525 1.363859,0.304329 0.718234,-1.742036 2.976064,-4.16858 4.759977,-5.115675 3.682092,-1.954868 9.019283,-0.924202 11.834239,2.285318 0.670922,0.764963 1.343867,1.390841 1.49543,1.390841 0.504439,0 -0.427576,-2.256846 -1.557718,-3.772 -1.808531,-2.424644 -4.015226,-3.616601 -7.100585,-3.835415 -3.695018,-0.262053 -6.042775,0.640514 -8.285838,3.185406 l -1.70741,1.937142 -1.972175,-2.108104 c -5.235918,-5.596767 -13.602192,-4.310227 -16.81938,2.58643 -0.674677,1.446297 -1.342151,4.437 -0.990264,4.437 0.104085,0 0.615106,-0.803051 1.135607,-1.78456 z M 188.37516,29.481968 c 1.4433,-0.823288 3.64697,-3.231007 3.30404,-3.609976 -0.0895,-0.09896 -0.87984,0.242923 -1.7562,0.759748 -1.36195,0.8032 -2.12688,0.939681 -5.26663,0.939681 -3.43892,0 -3.83525,-0.08814 -6.21278,-1.381595 l -2.53953,-1.381594 1.63086,-1.565676 c 3.63001,-3.484949 7.43671,-5.190433 11.5852,-5.190433 3.15443,0 3.43848,-0.490686 0.97981,-1.692573 -3.96779,-1.939599 -9.93398,0.169238 -15.60378,5.515388 -1.73139,1.632561 -2.74671,2.874467 -2.62844,3.215045 0.4349,1.252469 5.21561,4.399424 7.75056,5.101901 2.34571,0.650036 7.0399,0.26948 8.75689,-0.709916 z m 22.82274,-2.619431 c -1.88614,-3.963733 -4.11458,-5.912223 -6.15049,-5.377821 -1.90761,0.50073 -4.8159,1.999226 -4.69195,2.417531 0.0698,0.235709 0.56788,0.48624 1.10674,0.556737 0.53887,0.0705 0.97976,0.271735 0.97976,0.447195 0,0.175461 0.40449,0.801349 0.89887,1.390862 1.05687,1.260213 2.55575,1.400411 4.15154,0.388312 1.03246,-0.654828 1.12991,-0.646609 2.32066,0.195713 1.58753,1.122999 1.92592,1.118472 1.38487,-0.01853 z M 65.02822,169.51849 c -0.882986,-0.19169 -1.988204,-0.6257 -2.456054,-0.96446 -0.860057,-0.62277 -1.614329,-2.80692 -1.61808,-4.68551 -0.0025,-1.22214 -0.939537,-2.82439 -1.651883,-2.82439 -0.279732,0 -0.939675,-0.41015 -1.466539,-0.91143 -0.771494,-0.73402 -1.093805,-1.6604 -1.656037,-4.75964 -1.148364,-6.33025 -2.963169,-11.96377 -6.824292,-21.18397 -1.796046,-4.2889 -1.990127,-5.01613 -1.891935,-7.08923 l 0.109419,-2.31007 2.359479,-0.32125 c 3.285739,-0.44738 6.399856,-2.33807 8.144362,-4.94476 1.708803,-2.55334 1.579823,-2.42439 3.968596,-3.96767 1.129325,-0.72961 2.565141,-2.12778 3.277847,-3.19189 l 1.268238,-1.89355 1.932289,1.95159 c 1.062769,1.07339 2.680545,2.35189 3.595048,2.84112 0.914518,0.48925 1.662759,1.01908 1.662759,1.17742 0,0.58671 -3.220504,5.15239 -4.53018,6.42238 -0.745291,0.72271 -1.969044,1.66383 -2.719447,2.09137 -3.762238,2.14355 -5.044308,5.6498 -4.113756,11.25042 1.070181,6.44107 5.080171,17.47938 8.582079,23.62393 2.657962,4.66376 3.514417,6.6295 3.514417,8.06635 0,1.05586 -0.1774,1.26677 -1.374581,1.63418 -1.607565,0.49336 -5.815058,0.48769 -8.111749,-0.0107 z m 101.7979,0.0773 c -2.94057,-0.68143 -3.97201,-2.19466 -3.97201,-5.82733 0,-1.95946 -0.101,-2.18634 -1.69148,-3.80003 l -1.69148,-1.71615 0.3169,-5.38909 c 0.48316,-8.21626 0.334,-16.60386 -0.3729,-20.97178 l -0.62073,-3.83548 1.2538,-1.22798 c 1.93613,-1.89625 3.16264,-3.98699 4.05326,-6.9093 0.44819,-1.47057 0.96944,-2.67312 1.15833,-2.67234 0.1889,7.8e-4 1.10549,0.11728 2.03686,0.25882 2.4309,0.36946 5.7351,-0.47371 8.04398,-2.05266 2.31998,-1.58654 2.53279,-1.33853 1.66707,1.94271 -0.75147,2.84823 -2.45254,5.71992 -4.19759,7.08627 -1.38513,1.08455 -1.43547,1.20836 -1.65705,4.07558 -0.12566,1.62638 -0.59356,4.45179 -1.0397,6.27868 -0.65555,2.68432 -0.80762,4.37086 -0.79265,8.79016 0.0259,7.62041 0.61052,10.1966 3.97942,17.53377 1.51245,3.294 2.74991,6.32495 2.74991,6.73544 0,1.38459 -1.02869,1.82034 -4.52822,1.91819 -1.84398,0.0516 -3.95706,-0.0462 -4.69572,-0.21748 z"
       id="path1" /></g></svg>
