<?xml version="1.0" encoding="UTF-8" standalone="no"?>
<!-- Created with Inkscape (http://www.inkscape.org/) -->

<svg
   width="240mm"
   height="180mm"
   viewBox="0 0 240 180"
   version="1.1"
   id="svg1"
   sodipodi:docname="swan.svg"
   inkscape:version="1.4.2 (f4327f4, 2025-05-13)"
   xml:space="preserve"
   xmlns:inkscape="http://www.inkscape.org/namespaces/inkscape"
   xmlns:sodipodi="http://sodipodi.sourceforge.net/DTD/sodipodi-0.dtd"
   xmlns="http://www.w3.org/2000/svg"
   xmlns:svg="http://www.w3.org/2000/svg"><sodipodi:namedview
     id="namedview1"
     pagecolor="#505050"
     bordercolor="#ffffff"
     borderopacity="1"
     inkscape:showpageshadow="0"
     inkscape:pageopacity="0"
     inkscape:pagecheckerboard="1"
     inkscape:deskcolor="#505050"
     inkscape:document-units="mm"
     inkscape:zoom="1"
     inkscape:cx="482"
     inkscape:cy="466"
     inkscape:window-width="2560"
     inkscape:window-height="1351"
     inkscape:window-x="-9"
     inkscape:window-y="-9"
     inkscape:window-maximized="1"
     inkscape:current-layer="layer1"
     showguides="true" /><defs
     id="defs1"><rect
       x="101.82338"
       y="91.923882"
       width="384.66608"
       height="299.81326"
       id="rect3" /><rect
       x="2.8284271"
       y="2.1213202"
       width="662.55902"
       height="647.00269"
       id="rect2" /></defs><g
     inkscape:label="Icon"
     inkscape:groupmode="layer"
     id="layer1"><path
       style="fill:#000000;stroke-width:1.31265"
       d="m 79.904662,173.86811 c -13.500519,-0.78654 -22.223318,-3.76799 -31.397415,-10.73162 -3.761702,-2.85533 -9.10732,-8.42218 -12.134859,-12.6371 -2.863197,-3.98612 -3.418147,-4.50857 -7.247302,-6.82291 -8.536588,-5.15954 -14.734669,-11.35191 -18.588677,-18.57156 -0.5703751,-1.06846 -0.8958935,-1.94266 -0.7233704,-1.94266 0.1725108,0 1.1613124,0.42637 2.1973384,0.94749 2.773764,1.39521 9.923095,4.29618 10.098119,4.09749 0.08304,-0.0943 -0.941578,-1.00832 -2.276966,-2.03121 -6.916918,-5.29825 -11.105142,-10.33734 -14.5419048,-17.49618 -1.3449365,-2.80151 -3.293784,-8.35551 -3.293784,-9.386878 0,-0.34259 1.1610538,0.327527 3.2172494,1.856838 5.9419034,4.4193 15.2876974,9.2796 24.0779754,12.52183 7.677607,2.83181 15.283582,4.22326 20.846225,3.81364 l 2.993461,-0.22043 1.369047,1.85613 c 0.752964,1.02088 2.785271,3.05549 4.516218,4.52134 1.730949,1.46587 4.182877,3.99732 5.448741,5.62545 6.238371,8.02376 12.768475,13.53724 22.122462,18.6784 10.705229,5.88382 21.63304,9.42365 33.20791,10.757 5.10238,0.58777 17.24493,0.26928 21.23048,-0.55684 6.56801,-1.36142 15.06585,-4.51276 15.41986,-5.71831 0.1147,-0.39067 -0.0675,-0.44492 -0.78984,-0.23523 -13.83998,4.01726 -24.24767,4.46533 -38.77429,1.66933 -13.93976,-2.68304 -25.613015,-7.49424 -36.16173,-14.90425 -1.955906,-1.37394 -7.047379,-5.63922 -8.638429,-7.23666 l -1.140922,-1.14551 1.466897,0.56664 c 2.690575,1.03936 8.60265,2.71192 11.704481,3.31125 3.963796,0.76589 11.235356,1.30035 12.906883,0.94866 1.273573,-0.26794 1.284957,-0.28377 0.48897,-0.68019 -0.448214,-0.22322 -2.208497,-0.67482 -3.911736,-1.00355 -7.679271,-1.48212 -18.873858,-5.42016 -25.162385,-8.85163 -6.11599,-3.33735 -9.81524,-6.36743 -12.401362,-10.15808 -1.524901,-2.23513 -2.959371,-4.87546 -2.767283,-5.0935 0.06419,-0.0729 1.353733,0.46126 2.865562,1.18705 4.059303,1.94877 10.712687,4.3716 14.975954,5.45346 6.595588,1.67372 14.988409,2.63071 15.460873,1.76292 0.0998,-0.18318 -0.955105,-0.61293 -2.344111,-0.95497 -6.300489,-1.55145 -14.166229,-4.19227 -20.119652,-6.75491 -4.87319,-2.09768 -12.577558,-6.24158 -15.005534,-8.07099 -2.381271,-1.79419 -6.661134,-6.374454 -8.52332,-9.121563 -1.508009,-2.224612 -3.70382,-7.161302 -4.301558,-9.670905 -0.337149,-1.415521 -0.336324,-1.417339 0.376833,-0.83128 6.307203,5.183212 13.092551,9.528707 19.132488,12.252895 6.272374,2.829024 14.00323,4.920309 19.395715,5.246783 3.933277,0.23813 3.878475,-0.220224 -0.162987,-1.363156 C 61.595155,94.955484 47.682209,87.37095 39.459041,79.367562 34.916469,74.946417 31.355653,69.196894 29.870152,63.884764 c -0.838629,-2.998953 -1.425031,-7.698157 -0.960625,-7.698157 0.150421,0 1.987954,1.167695 4.083388,2.594879 8.492813,5.784381 14.917198,8.335704 24.78183,9.841613 5.228069,0.798121 14.713813,0.790764 21.803942,-0.01692 13.050097,-1.486567 15.854463,-1.706153 22.003533,-1.722921 11.87107,-0.03231 20.61772,2.108723 30.40952,7.443914 7.28874,3.97136 12.83523,8.553197 18.65023,15.406549 4.33712,5.111598 7.80778,10.517519 13.80773,21.507119 5.55499,10.17457 7.99532,14.07026 10.84847,17.31826 2.52462,2.87402 4.92847,4.4565 7.28966,4.7989 1.99059,0.28867 4.11304,-0.93943 5.15047,-2.98015 0.66856,-1.31518 0.73541,-1.83064 0.59972,-4.62539 -0.35197,-7.24964 -3.5173,-14.00027 -14.22745,-30.342557 -8.63985,-13.183268 -11.85862,-19.185159 -14.58245,-27.191191 -3.51887,-10.342831 -3.96572,-22.62373 -1.17665,-32.337993 1.78771,-6.226595 5.12946,-12.346476 9.40885,-17.230902 6.2335,-7.114813 14.01463,-11.2445241 23.45992,-12.4509859 8.671,-1.1075612 18.18881,1.9394203 24.78125,7.9333459 2.90569,2.641882 4.7776,5.29391 6.70502,9.499305 0.80702,1.76082 1.97551,3.569367 3.10155,4.800463 2.15411,2.355049 3.06871,4.237069 3.06871,6.314673 0,1.789642 -0.77697,3.846745 -1.74302,4.614835 l -0.68008,0.540724 1.08357,2.499228 c 1.46537,3.379822 4.01576,7.768565 6.72066,11.564994 3.45089,4.843491 3.74626,5.42652 3.74626,7.394911 0,1.883491 -0.66782,2.965964 -1.82981,2.965964 -1.25057,0 -19.28808,-14.380367 -21.80362,-17.382901 -1.49456,-1.783894 -1.36394,-3.602706 0.47894,-6.669131 1.60489,-2.670406 5.203,-7.030594 5.80178,-7.030594 0.21181,0 0.62564,0.541171 0.91964,1.202602 0.90952,2.046183 2.10245,3.237773 3.24141,3.237773 1.33805,0 2.1084,-0.997542 2.1084,-2.730239 0,-1.735383 -0.58795,-3.012772 -2.17348,-4.722122 -1.85061,-1.995113 -2.91681,-2.45848 -6.6601,-2.894456 -4.19225,-0.488265 -6.06414,-1.418925 -6.89347,-3.42727 -0.81971,-1.985026 -1.93466,-2.718488 -3.44642,-2.267197 -1.00802,0.300913 -1.45232,0.218082 -2.7749,-0.517329 -2.54637,-1.415883 -2.95332,-0.905919 -0.95161,1.192496 0.94125,0.986735 1.71138,2.091008 1.71138,2.453941 0,1.170917 1.4138,2.628368 2.78933,2.875451 1.18432,0.212739 1.36038,0.405487 2.23898,2.451085 1.24124,2.889933 1.49608,6.971822 0.69155,11.076677 -0.31992,1.632347 -0.45974,3.296995 -0.33227,3.955835 0.19174,0.990956 0.14235,1.110201 -0.3834,0.925504 -0.33191,-0.116611 -2.56576,-0.711936 -4.96411,-1.32295 -6.37807,-1.624907 -9.63157,-3.14279 -13.02611,-6.077183 -0.97174,-0.840009 -2.33226,-2.012957 -3.02339,-2.606547 -2.42507,-2.082836 -5.94066,-0.949024 -8.98834,2.898834 -3.75682,4.743173 -4.84532,10.833299 -3.22899,18.066148 1.02607,4.591506 2.60252,8.396366 5.55548,13.408416 3.39693,5.765635 6.74256,10.145384 15.98399,20.924615 9.07591,10.586148 12.63652,15.212428 15.66459,20.352918 3.41437,5.79624 6.29392,13.32664 7.51542,19.65383 0.73315,3.79757 0.72161,11.49438 -0.0227,15.11873 -1.88933,9.20025 -6.41727,16.58456 -13.20455,21.53439 -4.64459,3.38722 -10.25237,5.19371 -17.44556,5.61991 -5.82874,0.34538 -106.137219,0.56063 -111.647587,0.23959 z M 205.29807,162.49152 c 3.37069,-1.8735 7.19435,-7.38154 6.03656,-8.69578 -0.60368,-0.68525 -1.47644,0.0549 -4.10357,3.47987 -1.35663,1.76865 -3.05563,3.75307 -3.77556,4.4098 -0.71994,0.65672 -1.30897,1.33269 -1.30897,1.50215 0,0.59804 1.36615,0.29633 3.15154,-0.69604 z m 9.98463,-17.04806 c 2.75736,-5.76761 2.32884,-14.84113 -1.08047,-22.87755 -1.71949,-4.05315 -6.11655,-10.70911 -6.6641,-10.08759 -0.0803,0.0911 0.6362,1.93714 1.59228,4.10215 2.13347,4.83126 3.62128,9.40905 4.48417,13.79739 0.5611,2.85352 0.62816,4.15138 0.46831,9.06576 -0.10264,3.15453 -0.28257,6.29789 -0.39994,6.98524 -0.31502,1.8452 0.48088,1.35494 1.59975,-0.9854 z m -158.588605,0.2506 c -0.06628,-0.22558 -1.846404,-0.97331 -3.955921,-1.66163 -4.990692,-1.62843 -10.085071,-3.91365 -15.496567,-6.95138 -3.106278,-1.74371 -4.723756,-2.44782 -5.623123,-2.44782 -4.193102,0 2.582328,5.20251 10.798671,8.29175 5.626314,2.11542 14.595842,3.85511 14.27694,2.76908 z M 142.737,144.5566 c 0.76198,-0.21473 1.3854,-0.53399 1.3854,-0.70947 0,-0.36961 -0.56471,-0.51971 -3.91174,-1.03965 -3.80653,-0.59133 -5.78707,-1.40168 -7.27414,-2.97626 -1.11012,-1.17545 -1.3305,-1.64462 -1.33424,-2.84047 -0.002,-0.78784 0.11569,-1.89035 0.26256,-2.45002 0.54604,-2.08077 -1.40234,-0.49935 -2.29615,1.86368 -1.26498,3.34429 1.85415,7.49504 6.44721,8.57954 1.56675,0.36992 4.56948,0.17901 6.7211,-0.42735 z m -21.57208,-5.12332 c 0.48476,-0.20921 0.82058,-0.44939 0.74627,-0.53374 -0.0743,-0.0844 -1.51409,-0.49501 -3.19952,-0.91257 -5.07957,-1.25846 -7.25744,-2.37289 -9.742,-4.98509 -0.86031,-0.90451 -2.33146,-3.42215 -2.33553,-3.99688 -4.1e-4,-0.0591 1.12104,-0.0516 2.49212,0.0163 2.54143,0.12602 4.90578,-0.17586 4.54901,-0.58083 -0.10878,-0.1235 -1.90457,-0.78141 -3.9907,-1.4621 -6.64131,-2.16702 -10.06028,-4.58144 -11.67066,-8.24168 -0.841573,-1.91283 -1.291056,-3.7214 -0.9201,-3.70217 0.137875,0.007 1.204172,0.25106 2.36955,0.54204 2.33094,0.58201 8.14947,0.74616 8.14947,0.22992 0,-0.39628 -0.73551,-0.7194 -5.54164,-2.43445 -5.88903,-2.10149 -8.861042,-3.90296 -11.815607,-7.16194 -1.388859,-1.53198 -2.608706,-2.69064 -2.710744,-2.57482 -0.333699,0.37882 0.4726,3.03502 1.455155,4.79372 0.956092,1.71134 3.721895,4.49511 4.881003,4.91272 0.491523,0.17708 0.63688,0.70415 0.768043,2.78494 0.316316,5.01835 2.836569,8.73004 7.56712,11.14438 1.60974,0.82157 2.46227,1.46611 2.4625,1.86168 2e-4,0.33279 0.24506,1.46512 0.54414,2.51631 1.00575,3.53499 3.97611,6.36115 7.96577,7.57901 2.06513,0.6304 6.71402,0.75 7.97635,0.2052 z m -74.836026,-6.29077 c 0,-0.20933 -0.916813,-0.82796 -2.037369,-1.37474 -5.64333,-2.75372 -15.901391,-9.08759 -15.48443,-9.5609 0.068,-0.0773 1.581266,0.19273 3.362642,0.59997 3.699262,0.84574 10.929329,1.40942 10.410404,0.81165 -0.179287,-0.20654 -3.260753,-1.20456 -6.847713,-2.21785 -3.998094,-1.12944 -8.526608,-2.7201 -11.702867,-4.11071 -6.657549,-2.91476 -6.867932,-2.91997 -5.057419,-0.12531 1.55723,2.40366 8.374907,7.93812 13.25512,10.76024 2.535091,1.46599 8.385934,4.06024 10.851058,4.81131 2.848929,0.86802 3.250575,0.91824 3.250575,0.40638 z m 80.842636,-4.39044 c 0,-0.18186 -0.99015,-0.77938 -2.20035,-1.32779 -6.69645,-3.03459 -9.796,-7.23626 -8.85292,-12.00085 0.35531,-1.79504 0.19878,-2.22703 -0.59974,-1.65527 -1.70258,1.21911 -2.49523,4.66533 -1.7012,7.39642 0.92757,3.19039 5.02194,6.66539 8.8674,7.52601 1.90996,0.42745 4.48681,0.46276 4.48681,0.0615 z m 32.74567,-6.7847 c -2.15686,-6.13067 -3.06552,-8.25019 -5.67803,-13.24455 -9.7398,-18.619717 -25.79649,-30.710698 -44.44267,-33.466164 -5.97817,-0.883432 -12.003644,-0.723285 -22.969524,0.610464 -12.013959,1.46124 -21.777933,1.647568 -28.542743,0.544676 -5.691219,-0.927849 -6.238666,-0.286925 -1.023213,1.197923 7.742363,2.204258 17.394802,2.756347 30.470745,1.742836 14.850525,-1.151056 22.152225,-0.503545 31.156695,2.762949 16.43841,5.963291 29.71913,19.418216 39.41954,39.936656 3.73492,7.90014 4.40598,7.86479 1.60919,-0.0847 z m -47.4147,-13.77572 c 0,-0.0931 -1.23973,-1.55773 -2.75495,-3.25466 -3.23219,-3.6198 -4.40845,-6.04055 -4.41339,-9.082909 -0.004,-1.993451 0.52069,-3.626086 1.44224,-4.494261 0.7397,-0.696867 0.62728,-1.130345 -0.29315,-1.130345 -1.01587,0 -3.06807,2.020955 -3.64566,3.590144 -1.56876,4.261954 1.52938,10.438581 6.70167,13.360881 1.91839,1.08388 2.96324,1.4404 2.96324,1.01115 z m -12.713166,-4.93166 c 0,-0.15983 -0.990156,-0.8439 -2.200357,-1.52014 -3.943338,-2.203503 -6.548113,-4.093162 -8.567434,-6.215353 -4.370677,-4.593317 -3.77029,-6.277023 2.413932,-6.769534 l 2.975226,-0.236955 -1.251153,-0.642981 c -4.324771,-2.222565 -8.50862,-1.31077 -9.647941,2.102612 -1.427459,4.27659 4.757206,10.542921 12.854965,13.024731 1.854924,0.5685 3.422762,0.68651 3.422762,0.25762 z M 226.59493,47.452474 c 0,-0.834741 -2.20465,-5.503082 -2.97033,-6.289646 -0.55578,-0.570937 -0.69528,-0.585499 -1.10908,-0.115772 -0.73987,0.839854 -0.054,2.938686 1.67283,5.118867 1.50162,1.895865 2.40657,2.379651 2.40658,1.286551 z m -63.10724,-5.327056 c 2.8774,-11.203732 9.60389,-20.448037 18.66962,-25.657934 2.29795,-1.320594 2.57719,-1.912766 0.74515,-1.58022 -3.21405,0.583402 -8.06883,3.372853 -11.46765,6.589048 -3.29383,3.116856 -6.60107,8.907449 -8.20075,14.358574 -1.279,4.358356 -1.91477,11.482807 -0.90534,10.145229 0.14088,-0.18667 0.66242,-1.921283 1.15897,-3.854697 z"
       id="path1" /></g></svg>
