<?xml version="1.0" encoding="UTF-8" standalone="no"?>
<!-- Created with Inkscape (http://www.inkscape.org/) -->

<svg
   width="180mm"
   height="180mm"
   viewBox="0 0 180 180"
   version="1.1"
   id="svg1"
   sodipodi:docname="mount_moose.svg"
   inkscape:version="1.4.2 (f4327f4, 2025-05-13)"
   xml:space="preserve"
   xmlns:inkscape="http://www.inkscape.org/namespaces/inkscape"
   xmlns:sodipodi="http://sodipodi.sourceforge.net/DTD/sodipodi-0.dtd"
   xmlns="http://www.w3.org/2000/svg"
   xmlns:svg="http://www.w3.org/2000/svg"><sodipodi:namedview
     id="namedview1"
     pagecolor="#505050"
     bordercolor="#ffffff"
     borderopacity="1"
     inkscape:showpageshadow="0"
     inkscape:pageopacity="0"
     inkscape:pagecheckerboard="1"
     inkscape:deskcolor="#505050"
     inkscape:document-units="mm"
     inkscape:zoom="0.70710678"
     inkscape:cx="138.59293"
     inkscape:cy="606.69762"
     inkscape:window-width="2560"
     inkscape:window-height="1351"
     inkscape:window-x="-9"
     inkscape:window-y="-9"
     inkscape:window-maximized="1"
     inkscape:current-layer="layer1"
     showguides="true" /><defs
     id="defs1"><rect
       x="101.82338"
       y="91.923881"
       width="384.66609"
       height="299.81327"
       id="rect3" /><rect
       x="2.8284271"
       y="2.1213203"
       width="662.55905"
       height="647.0027"
       id="rect2" /></defs><g
     inkscape:label="Icon"
     inkscape:groupmode="layer"
     id="layer1"><path
       style="fill:#000000;stroke-width:2.52019"
       d="m 88.047773,176.52054 c -1.947018,-0.7196 -1.760593,-1.77421 1.478267,-8.36264 2.078194,-4.22743 2.117758,-4.50541 1.762547,-12.38546 -0.217632,-4.82639 -0.789879,-9.05494 -1.426276,-10.53805 -0.58462,-1.36242 -1.292385,-4.98516 -1.572837,-8.05056 -0.635148,-6.94198 -2.245596,-13.22937 -3.757703,-14.67052 -0.633303,-0.60361 -3.851594,-2.22472 -7.1517,-3.60249 -8.461453,-3.53253 -10.522361,-5.31279 -14.62548,-12.63391 -1.926366,-3.43718 -4.778401,-7.503453 -6.337887,-9.036144 l -2.835428,-2.786737 -0.724996,2.477105 c -0.398765,1.362392 -0.922764,3.235406 -1.164492,4.162216 -0.241783,0.92681 -1.121184,1.99982 -1.954399,2.38444 -2.352865,1.08609 -4.023474,-0.88562 -5.999663,-7.080982 -0.966535,-3.030038 -2.481735,-6.176238 -3.454945,-7.173807 -0.953374,-0.977276 -2.106958,-3.056463 -2.56355,-4.620447 -1.099312,-3.765559 -2.547269,-3.717577 -7.630246,0.252757 -2.180253,1.703012 -4.652789,3.096369 -5.494524,3.096369 -0.841736,0 -3.69453,-0.555882 -6.339516,-1.235322 -7.202662,-1.85014 -8.4954821,-3.656255 -7.184725,-10.037362 1.419518,-6.910612 2.872169,-8.701045 10.652695,-13.129777 3.811541,-2.169579 7.955744,-5.048207 9.209325,-6.396976 1.253554,-1.348746 3.272862,-2.807288 4.487339,-3.24118 4.506715,-1.610093 2.168394,-2.774848 -8.056066,-4.012768 C 15.175401,48.422573 9.3090309,45.904602 5.2742134,40.417002 2.6455092,36.841801 1.3227313,31.91453 2.3663055,29.585255 c 1.2551004,-2.801366 2.730519,-2.032025 5.3443255,2.786737 1.3394123,2.469335 3.449274,5.308197 4.688581,6.308574 2.498016,2.016437 2.784574,1.596635 1.176297,-1.723352 -1.78914,-3.693329 -1.139039,-7.836419 1.229619,-7.836419 0.320885,0 1.366847,1.527915 2.324373,3.395376 1.886775,3.679847 4.699055,6.512998 6.465048,6.512998 1.635847,0 1.383508,-2.429382 -0.651512,-6.272717 -2.255202,-4.259182 -3.985755,-10.014846 -3.971698,-13.209659 0.02442,-5.792903 3.25449,-5.237816 5.111741,0.878738 1.504645,4.955311 2.693424,6.837446 4.318607,6.837446 1.58049,0 1.826316,-0.858446 2.685717,-9.378565 0.713653,-7.074989 1.616717,-9.3918131 3.537358,-9.0751826 1.001323,0.1650093 1.24335,1.1154626 1.414525,5.5543296 0.317384,8.231552 3.051377,8.662472 5.225605,0.823618 1.696741,-6.1173967 4.094299,-5.6635627 4.784941,0.905773 0.216275,2.056319 0.682745,3.738759 1.036817,3.738759 0.354073,0 1.266986,-1.254024 2.028698,-2.786714 2.463662,-4.957371 5.899639,-3.025194 4.687549,2.635982 -0.877338,4.097636 -4.491816,9.675652 -9.342536,14.417668 -4.948816,4.837931 -5.844118,6.404934 -5.106857,8.93854 0.519874,1.786641 5.072612,4.661782 7.381815,4.661782 1.731339,0 5.257544,-1.212245 5.242863,-1.802393 -0.0054,-0.20082 -0.974295,-2.0067 -2.15393,-4.013143 -2.995639,-5.095182 -2.851139,-9.047002 0.330789,-9.047002 1.187287,0 2.11556,0.810675 3.573069,3.120478 3.505038,5.554563 6.312407,6.773829 9.936085,4.315285 2.915451,-1.978029 3.78918,-6.377269 2.71307,-13.660521 -0.930389,-6.297035 -0.44989,-8.63778 1.773183,-8.63778 1.73807,0 3.17064,2.634297 4.404981,8.100154 1.341122,5.938719 1.838555,6.701506 3.564847,5.466628 3.257448,-2.330118 4.932317,-10.859131 3.921849,-19.971412 -0.788847,-7.113655 -0.564214,-7.9750268 2.012389,-7.7173081 1.573814,0.1575195 2.090784,0.7293644 3.15083,3.4859087 0.697453,1.8136743 1.473546,5.7938614 1.72461,8.8448484 0.472413,5.740403 1.189404,6.597609 2.935695,3.509782 1.253635,-2.216695 2.328307,-7.456102 2.328307,-11.3511867 0,-4.0870574 0.495506,-5.2299515 2.267387,-5.2299515 2.482332,0 3.699387,3.8226915 3.303905,10.3772112 -0.279393,4.630722 -0.167972,5.605423 0.578977,5.070653 1.016171,-0.727422 3.183455,-5.773218 3.183455,-7.411655 0,-0.567726 0.59374,-1.4957096 1.31941,-2.0621478 1.23293,-0.9623903 1.39765,-0.9553452 2.51291,0.1076656 0.85425,0.8141632 1.19109,2.2678592 1.18498,5.1140232 -0.019,8.301114 -3.6482,15.469234 -11.120114,21.956228 -6.292055,5.462697 -10.762869,7.491936 -24.281954,11.021379 -9.152935,2.389545 -14.122077,4.343068 -13.159422,5.173381 0.14355,0.123815 2.152058,-0.199416 4.463106,-0.718692 5.31491,-1.194035 11.099764,-1.21606 12.917179,-0.04915 1.331651,0.854983 1.20867,1.046604 -2.761997,4.30391 l -4.155709,3.409092 3.747527,0.959909 c 4.285013,1.097581 9.606625,1.2118 14.170922,0.304179 3.890155,-0.773554 7.111431,0.03324 10.559972,2.64483 2.861996,2.167402 4.27945,5.850831 4.95398,12.873438 1.30948,13.633137 4.38519,18.082559 13.74925,19.890055 2.95694,0.570744 3.82413,1.011846 3.99284,2.030878 0.44546,2.690749 -0.88738,14.468879 -2.10701,18.619229 -1.43713,4.8905 -1.82825,5.11744 -9.00337,5.22426 -3.6085,0.0536 -4.22447,0.24241 -4.75009,1.4551 -0.77138,1.77962 -2.56554,19.7577 -2.58022,25.85462 -0.005,2.5545 0.44037,7.47115 0.99226,10.92588 0.97718,6.11662 0.96304,6.33778 -0.53846,8.43326 -0.84808,1.18357 -1.54196,2.97148 -1.54196,3.97312 0,2.96663 -1.316292,3.87727 -6.102807,4.22201 -2.36931,0.17063 -5.042843,0.0386 -5.94113,-0.29338 z m -20.085514,-3.09768 c -2.129453,-0.77898 -2.057244,-1.39027 0.847842,-7.179 3.320485,-6.61645 3.800768,-12.1537 2.252109,-25.96366 -0.649314,-5.79019 -1.68955,-12.9808 -2.311619,-15.9791 -0.622041,-2.99833 -0.939317,-5.61682 -0.705024,-5.81891 0.234185,-0.20199 1.644124,0.32054 3.132975,1.16136 1.488851,0.84082 4.601094,2.19989 6.916105,3.02016 2.910702,1.03135 4.414994,1.95854 4.876634,3.00579 0.573386,1.30079 -0.440718,20.59958 -1.140586,21.70549 -0.116957,0.18514 0.01357,3.81988 0.290384,8.07738 0.44145,6.78951 0.344221,8.0073 -0.791127,9.90837 -0.711944,1.19209 -1.480493,3.20907 -1.707894,4.48219 -0.233642,1.3076 -0.970768,2.57199 -1.694326,2.90601 -1.980585,0.91425 -8.165235,1.33248 -9.965473,0.67392 z m 94.286501,0.0611 c -0.39537,-0.55179 1.28034,-5.10904 3.55624,-9.67137 1.43171,-2.87006 1.59963,-13.08868 0.34086,-20.74389 -0.78353,-4.76509 -1.55398,-5.99124 -6.81065,-10.839 -5.78955,-5.33919 -9.73015,-9.75153 -12.29405,-13.7658 -1.47298,-2.30622 -2.74466,-4.27447 -2.82596,-4.37392 -0.0814,-0.0995 -3.48517,0.97976 -7.56412,2.39821 -4.07896,1.41845 -8.6238,2.71872 -10.09968,2.88944 l -2.68341,0.31045 1.04319,-3.32792 c 0.57377,-1.83034 1.41067,-6.989 1.85977,-11.46365 l 0.81656,-8.135758 4.09796,-0.399885 c 4.85835,-0.474103 9.77243,-2.492389 11.73925,-4.821477 1.95519,-2.315326 2.34782,-9.652294 0.91976,-17.187577 -0.6107,-3.222455 -0.93994,-6.005986 -0.73168,-6.185601 0.20841,-0.179754 3.02093,-0.254933 6.25038,-0.16735 5.07448,0.137625 6.59397,0.463197 11.19089,2.397527 9.71484,4.087853 15.46447,10.660254 16.02635,18.319681 0.19022,2.592799 0.15251,2.640125 -2.0345,2.560195 l -2.22829,-0.08145 -0.92824,11.000155 c -1.25958,14.92678 -0.93156,17.72462 2.78788,23.77971 l 2.97797,4.84799 -0.46104,10.92151 c -0.2849,6.74928 -0.15902,13.01268 0.32981,16.39553 0.7247,5.01631 0.67227,5.67447 -0.62695,7.87106 -0.77978,1.31837 -1.41778,3.37366 -1.41778,4.56734 0,1.51195 -0.42129,2.36481 -1.38875,2.81141 -1.69109,0.78062 -11.29519,0.85723 -11.84177,0.0946 z m -27.2155,-2.96258 c -0.93715,-0.80831 -0.44477,-2.46983 2.07694,-7.00836 2.96918,-5.34391 4.9311,-11.25873 6.09809,-18.38468 1.04854,-6.40287 0.43168,-8.14179 -4.6014,-12.97089 -4.5314,-4.34778 -7.64248,-8.22182 -7.64139,-9.51542 7.6e-4,-0.89269 9.27949,-4.97362 11.29525,-4.96779 0.48696,0.001 1.695,1.38063 2.68455,3.06494 0.98954,1.68431 3.9028,5.46808 6.47389,8.40838 2.5711,2.9403 4.67472,5.61809 4.67472,5.95065 0,0.33255 -1.10295,4.97863 -2.45097,10.3246 -1.34804,5.34597 -2.65505,11.25265 -2.90446,13.12596 -0.24938,1.87329 -1.04914,4.66003 -1.77714,6.19272 -0.72801,1.53271 -1.67569,3.55308 -2.10598,4.48972 -0.75444,1.6423 -0.97061,1.70302 -6.06289,1.70302 -2.90433,0 -5.49597,-0.18584 -5.75921,-0.41285 z M 115.97308,92.230383 c -6.18831,-1.632609 -8.32914,-4.599616 -9.42069,-13.056353 -0.97649,-7.56536 -2.09244,-12.873486 -3.03344,-14.428809 -0.41754,-0.690137 -2.00566,-2.432916 -3.529164,-3.87285 -1.523476,-1.439934 -2.769974,-3.161742 -2.769974,-3.826226 0,-3.048669 5.394148,-4.234512 8.787958,-1.931942 1.09972,0.746122 2.13488,2.374963 2.65652,4.180094 1.54755,5.355171 3.02296,6.442641 10.37512,7.647115 4.67629,0.766088 8.53572,-0.155647 10.47189,-2.500909 2.68924,-3.25747 6.37324,-3.191841 8.37635,0.149328 1.2913,2.153781 3.84497,14.230938 3.82682,18.098147 -0.019,4.14618 -2.18785,7.372872 -5.81812,8.657744 -3.71114,1.313498 -16.19653,1.867952 -19.92327,0.884754 z"
       id="path1" /></g></svg>
