<?xml version="1.0" encoding="UTF-8" standalone="no"?>
<!-- Created with Inkscape (http://www.inkscape.org/) -->

<svg
   width="180mm"
   height="180mm"
   viewBox="0 0 180 180"
   version="1.1"
   id="svg1"
   sodipodi:docname="mount_horse.svg"
   inkscape:version="1.4.2 (f4327f4, 2025-05-13)"
   xml:space="preserve"
   xmlns:inkscape="http://www.inkscape.org/namespaces/inkscape"
   xmlns:sodipodi="http://sodipodi.sourceforge.net/DTD/sodipodi-0.dtd"
   xmlns="http://www.w3.org/2000/svg"
   xmlns:svg="http://www.w3.org/2000/svg"><sodipodi:namedview
     id="namedview1"
     pagecolor="#505050"
     bordercolor="#ffffff"
     borderopacity="1"
     inkscape:showpageshadow="0"
     inkscape:pageopacity="0"
     inkscape:pagecheckerboard="1"
     inkscape:deskcolor="#505050"
     inkscape:document-units="mm"
     inkscape:zoom="0.70710678"
     inkscape:cx="138.59293"
     inkscape:cy="380.42345"
     inkscape:window-width="2560"
     inkscape:window-height="1351"
     inkscape:window-x="-9"
     inkscape:window-y="-9"
     inkscape:window-maximized="1"
     inkscape:current-layer="layer1"
     showguides="true" /><defs
     id="defs1"><rect
       x="101.82338"
       y="91.923881"
       width="384.66609"
       height="299.81327"
       id="rect3" /><rect
       x="2.8284271"
       y="2.1213203"
       width="662.55905"
       height="647.0027"
       id="rect2" /></defs><g
     inkscape:label="Icon"
     inkscape:groupmode="layer"
     id="layer1"><path
       style="fill:#000000;stroke-width:0.671588"
       d="m 32.574304,167.70055 c -2.275512,-0.16716 -4.300944,-0.4479 -4.849716,-0.67221 -0.731521,-0.29904 -0.882453,-0.56172 -1.462646,-2.54565 l -0.455177,-1.55645 0.489828,-1.11836 c 0.632956,-1.44515 0.738072,-2.55108 0.353479,-3.71902 -0.392226,-1.19111 -0.855124,-1.83833 -1.820097,-2.54483 -0.432608,-0.31673 -0.959406,-0.90734 -1.17066,-1.31245 -0.345675,-0.66289 -0.373373,-0.92175 -0.276876,-2.58771 0.05897,-1.01811 0.231563,-2.87928 0.383536,-4.13593 0.176613,-1.46039 0.317432,-4.78973 0.390272,-9.22709 0.09881,-6.01938 0.06887,-7.42129 -0.22521,-10.54526 -0.186544,-1.98163 -0.333613,-4.11704 -0.326822,-4.74537 0.0137,-1.26705 0.227197,-1.70323 2.142779,-4.37771 1.941576,-2.71077 3.826792,-7.18247 4.230282,-10.03415 0.433625,-3.06467 0.182225,-4.68162 -1.639546,-10.545256 -1.626009,-5.23354 -2.366204,-7.91402 -2.947324,-10.673171 -0.525398,-2.494587 -0.878441,-6.973542 -0.719975,-9.134148 0.142735,-1.946133 1.142447,-5.737624 2.14306,-8.127728 0.451259,-1.077901 0.820472,-1.995621 0.820472,-2.039383 0,-0.244099 -0.929863,-0.0081 -1.724072,0.437539 -2.407245,1.350784 -3.979439,4.328725 -4.658778,8.824347 -0.370483,2.451721 -0.269389,5.167828 0.362074,9.727898 0.240944,1.739971 0.517824,3.835836 0.615287,4.657486 0.09746,0.82166 0.353361,2.79889 0.56866,4.39386 0.299075,2.21559 0.387343,3.72946 0.37404,6.415036 -0.0096,1.93329 -0.05712,3.83144 -0.105663,4.2181 -0.04853,0.38666 -0.173612,1.41482 -0.277943,2.28481 -0.10433,0.86997 -0.265244,1.93768 -0.357586,2.37268 -0.09234,0.43499 -0.30458,1.46315 -0.471641,2.2848 -0.333741,1.64143 -0.89416,3.38449 -1.712406,5.32605 -0.964829,2.28939 -3.846068,6.4495 -4.466836,6.4495 -0.374985,0 -0.328852,-0.43352 0.258621,-2.43032 0.593275,-2.01652 1.282242,-5.78376 1.136163,-6.21249 -0.03807,-0.11174 -0.376362,0.66016 -0.751757,1.71532 -0.862168,2.4234 -2.555635,5.76375 -3.586558,7.07448 -1.223653,1.55575 -2.98974,3.073 -4.8223819,4.14293 -2.5165457,1.46921 -5.2042769,2.26277 -5.4595504,1.61196 -0.05383,-0.13724 0.1837435,-0.82927 0.527942,-1.53785 0.3441977,-0.70858 0.8849366,-2.03968 1.2016408,-2.958 0.3167042,-0.91831 0.6468598,-1.75603 0.7336792,-1.86159 0.086819,-0.10556 0.1133977,-0.23542 0.059065,-0.28858 -0.054333,-0.0531 0.019127,-0.37273 0.1632422,-0.71017 0.1441178,-0.33745 0.2620328,-0.88638 0.2620328,-1.21985 0,-0.33347 0.125593,-1.2325 0.2790964,-1.99784 0.1535028,-0.76534 0.3223215,-2.24779 0.3751529,-3.29433 0.052832,-1.04654 0.145875,-1.98166 0.2067654,-2.07805 C 6.6405844,114.96581 6.2576658,101.07546 5.9390367,100.05428 5.5724038,98.879234 5.5291116,86.92683 5.8846087,85.027282 6.0021978,84.398964 6.1695634,83.331252 6.2565322,82.654602 6.6743399,79.403898 7.8739919,75.565789 9.49766,72.285094 c 1.347481,-2.72265 2.098846,-3.805952 3.856606,-5.560391 2.776348,-2.771108 5.523113,-4.43445 8.710589,-5.274822 1.268603,-0.334466 1.983035,-0.403038 4.221746,-0.405237 1.482102,-0.0014 3.426693,0.03573 4.321313,0.08265 l 1.626582,0.08528 1.69692,-1.073756 c 4.480808,-2.835324 7.910952,-4.253483 12.56567,-5.195144 4.031036,-0.815481 6.280722,-0.749931 12.924473,0.376595 1.13065,0.191714 2.164069,0.454565 2.296491,0.584117 0.201246,0.196883 0.183015,0.478725 -0.111075,1.71734 -0.950698,4.00397 -1.825668,11.443463 -1.838277,15.630021 -0.0075,2.490966 0.347641,4.171466 1.249595,5.912997 1.360433,2.62677 3.683269,4.387154 6.829308,5.175647 3.207165,0.803811 20.86547,2.873911 21.247251,2.490834 0.0736,-0.07385 0.07877,-0.569265 0.01147,-1.100918 l -0.12232,-0.96665 -2.515492,-0.204416 C 83.533096,84.320699 74.505034,83.234395 71.356752,82.74091 65.755765,81.862973 63.583881,80.354168 62.366918,76.495692 61.781733,74.64031 62.048276,68.347683 62.950997,62.706484 c 0.319368,-1.995741 0.952592,-5.413036 1.082862,-5.843828 0.160907,-0.532131 0.406076,-0.344781 1.264961,0.966644 2.246985,3.430912 5.302145,5.025901 10.816032,5.646685 1.442584,0.162421 2.31547,0.342185 2.489847,0.512783 0.356163,0.348442 0.530833,1.337969 0.758348,4.296148 0.458377,5.95973 1.384571,8.596616 3.881506,11.050715 0.993753,0.9767 1.643659,1.429904 2.96702,2.068983 0.931998,0.450089 2.251692,0.930641 2.932662,1.067892 0.680963,0.137251 1.29601,0.313461 1.366768,0.391572 0.07076,0.07812 0.305884,1.881999 0.522494,4.008627 0.666956,6.548049 2.163723,15.259225 3.222115,18.752695 0.29794,0.98345 0.316557,1.20983 0.113072,1.37505 -0.179837,0.14602 -1.196661,0.14801 -3.885357,0.007 -7.662516,-0.40017 -13.645299,-1.65204 -20.627293,-4.31614 -1.336438,-0.50994 -2.631986,-0.98578 -2.879001,-1.0574 -0.247016,-0.0717 -1.389025,-0.51517 -2.537798,-0.98566 -2.817852,-1.154026 -6.857148,-2.452606 -7.982448,-2.566236 -0.516424,-0.0521 -1.079332,-0.008 -1.286188,0.0999 -0.202318,0.10593 -1.132509,1.32176 -2.067091,2.701856 -1.811953,2.6757 -1.95713,2.86069 -5.39491,6.87417 -1.663812,1.94243 -2.798377,3.51114 -4.448978,6.1514 -1.218592,1.94923 -3.160803,4.88857 -4.316024,6.53187 -2.350065,3.34297 -2.711887,3.97454 -3.318457,5.79243 -0.23304,0.69842 -1.048924,2.56761 -1.813075,4.15375 -1.377675,2.85962 -1.391204,2.90164 -1.607583,4.99294 -0.331635,3.20526 -0.489903,11.00165 -0.255099,12.56643 0.108788,0.72499 0.262367,2.62314 0.341287,4.21811 0.179138,3.62038 0.536528,4.61414 2.496516,6.94181 0.516475,0.61336 2.351883,4.34772 2.997581,6.09894 0.519942,1.41015 0.420144,1.73063 -0.672056,2.15818 -0.711112,0.27836 -3.008659,0.44855 -4.538416,0.33618 z m 90.578456,-2.35833 c -1.67498,-0.2581 -1.93189,-0.44938 -2.70806,-2.01639 -0.92319,-1.8638 -0.99412,-2.54023 -0.39966,-3.81139 0.56282,-1.20351 0.57183,-1.43846 0.1022,-2.66644 -0.47133,-1.23243 -1.31312,-2.36248 -1.93106,-2.59233 -1.63346,-0.60757 -2.28131,-2.73048 -1.82993,-5.9964 0.61302,-4.43546 0.69507,-5.506 0.73114,-9.53904 0.038,-4.24697 0.0231,-4.45848 -0.44609,-6.32715 -0.44243,-1.76226 -0.49343,-2.32203 -0.57642,-6.32716 -0.0988,-4.76646 -0.45692,-9.62254 -0.89439,-12.12705 -0.33936,-1.94291 -1.41805,-6.08873 -1.81987,-6.99453 -0.38941,-0.8778 -0.59745,-0.96758 -1.85298,-0.79959 -3.80022,0.50844 -5.45746,0.6667 -8.10849,0.7743 -3.536549,0.14355 -3.14175,0.42308 -3.916539,-2.77287 -1.25147,-5.162186 -2.24912,-11.692976 -3.140074,-20.555531 -0.09691,-0.963901 -0.0014,-1.071279 1.358036,-1.528894 3.253387,-1.095066 6.428687,-3.5766 8.174807,-6.388706 0.78902,-1.270706 1.01187,-1.093426 0.66436,0.528498 -0.74901,3.495771 -3.49469,6.528449 -6.872679,7.591072 l -1.271483,0.39997 v 0.95013 c 0,0.658734 0.07825,0.979502 0.255164,1.045917 0.375527,0.140977 3.186218,-0.853227 4.343908,-1.53654 1.60528,-0.947499 3.67059,-3.181248 4.54395,-4.914529 0.99059,-1.965968 1.28538,-3.386095 1.40101,-6.749451 0.10533,-3.063672 -0.0789,-4.52226 -0.95475,-7.557441 -0.4511,-1.563322 -1.94695,-5.186414 -2.93075,-7.098537 -0.94909,-1.844647 -2.18443,-6.294534 -1.92854,-6.946905 0.0544,-0.138905 0.77791,-0.689922 1.60761,-1.224479 1.40744,-0.906786 3.63037,-2.973803 4.0779,-3.791882 0.18852,-0.344617 0.149,-0.359045 -0.98326,-0.359045 -1.95212,0 -1.78369,-0.607739 0.86248,-3.112176 1.80251,-1.705967 2.81382,-2.415665 4.91714,-3.450669 1.84456,-0.907669 1.86436,-1.075231 0.11013,-0.932101 -1.19099,0.09717 -1.48194,0.06978 -1.67493,-0.157724 -0.20046,-0.236306 -0.0702,-0.437699 0.91932,-1.421096 0.63409,-0.630178 1.67836,-1.535462 2.3206,-2.011736 1.14143,-0.846464 4.32916,-2.520845 6.27521,-3.2961 0.74124,-0.295286 0.92541,-0.437712 0.76675,-0.592932 -0.15508,-0.151725 -0.59108,-0.15801 -1.69417,-0.02444 -2.24918,0.272377 -2.54744,-0.167362 -0.94701,-1.396251 1.79638,-1.379354 4.7453,-2.706303 7.53917,-3.392446 1.37961,-0.338816 2.54508,-0.651939 2.58993,-0.69582 0.20088,-0.196524 -0.25155,-0.310433 -1.63232,-0.41097 -1.86241,-0.13561 -2.02586,-0.424601 -0.69375,-1.226492 2.88561,-1.737048 5.40908,-2.283721 11.37509,-2.464283 0.94646,-0.02863 0.83834,-0.305085 -0.31439,-0.803824 -1.57105,-0.679733 -1.30294,-0.996263 1.09826,-1.296592 2.49741,-0.312366 5.8586,-0.265688 7.03703,0.09773 l 0.98091,0.302502 0.34053,-0.434319 c 0.18729,-0.238871 1.08603,-1.422936 1.99718,-2.631247 1.88893,-2.504956 3.72282,-4.393856 4.26588,-4.393856 0.69501,0 0.77755,0.623569 0.45258,3.419142 -0.16549,1.423534 -0.25136,2.6367 -0.19083,2.695913 0.15675,0.153359 1.86942,-1.562718 3.39529,-3.40205 1.31819,-1.58899 1.71815,-1.858543 2.18966,-1.475719 0.50759,0.412132 0.1825,3.488186 -0.66361,6.279057 -0.21293,0.702384 -0.35478,1.303433 -0.31522,1.335664 0.0396,0.03221 0.68311,0.458205 1.43007,0.946609 2.50167,1.635721 4.96376,4.707085 5.07619,6.332344 0.0451,0.652178 -0.34059,0.564793 -1.83443,-0.41562 -0.65222,-0.428055 -1.21108,-0.704224 -1.24192,-0.613711 -0.0652,0.191296 0.55598,1.161221 1.8955,2.959747 0.97689,1.311658 1.30449,1.924692 2.54277,4.758294 0.48914,1.119312 1.71263,3.103534 3.8472,6.23928 3.64202,5.350209 6.19555,9.398407 6.42756,10.18981 0.3582,1.221921 0.11814,2.628927 -0.90091,5.280235 -0.96035,2.498572 -1.99207,3.467434 -3.96227,3.720892 -0.54145,0.06966 -1.29939,0.235358 -1.68434,0.368231 -0.38494,0.132867 -1.31625,0.239848 -2.06958,0.237722 -2.38873,-0.0068 -3.46293,-0.792751 -4.37828,-3.203673 -0.27142,-0.714906 -0.67564,-1.466778 -0.89824,-1.670828 -0.22261,-0.20405 -1.294,-0.863343 -2.38088,-1.465096 -1.08687,-0.601761 -2.63374,-1.508846 -3.43746,-2.015749 -2.13824,-1.348571 -2.15028,-1.353202 -4.1418,-1.592351 -2.04566,-0.245653 -3.90424,-0.908321 -5.06061,-1.804326 -0.38821,-0.300807 -0.91024,-0.546918 -1.16006,-0.546918 -0.79789,0 -1.90571,1.0263 -2.75086,2.548438 -0.90602,1.631788 -1.36562,2.958366 -3.10547,8.96347 -0.70017,2.416622 -1.55757,5.184748 -1.90534,6.151398 -0.34777,0.96665 -0.83849,2.390263 -1.0905,3.163578 -0.25201,0.773321 -0.81948,2.38285 -1.26107,3.576732 -1.09155,2.951166 -1.3198,4.377495 -1.3261,8.286688 -0.01,6.070171 -0.8592,11.224926 -2.41794,14.673096 -0.61469,1.35981 -1.89927,3.18532 -3.29705,4.685456 -0.68276,0.73276 -1.28891,1.52108 -1.347,1.75182 -0.0581,0.23074 -0.23575,1.40815 -0.3948,2.61645 -0.15906,1.20832 -0.52213,3.38327 -0.80684,4.83325 -1.73798,8.85128 -1.74082,8.87319 -1.89003,14.58761 -0.12103,4.6349 -0.36251,6.66003 -1.06884,8.96347 -0.55015,1.79415 -0.62632,2.72539 -0.66127,8.0847 -0.0263,4.02643 0.005,4.51757 0.36927,5.87328 0.21885,0.81369 0.46467,2.19775 0.54626,3.0757 0.22884,2.46247 0.6279,3.29518 2.78644,5.81439 0.92895,1.08417 1.55459,2.10263 2.73302,4.44908 1.72059,3.42595 1.76658,3.72988 0.6354,4.19937 -0.79454,0.32977 -6.13487,0.48165 -7.81776,0.22234 z m -64.978505,-1.38131 c -1.250905,-0.19178 -1.565521,-0.45515 -2.337041,-1.95635 -0.791172,-1.53946 -0.843314,-1.88722 -0.44752,-2.9847 0.365933,-1.01469 0.33893,-1.63583 -0.109188,-2.5115 -0.555095,-1.08473 -1.368948,-1.83823 -2.318843,-2.1469 -1.589102,-0.51637 -2.140495,-1.41289 -2.593734,-4.2172 -0.56802,-3.51449 -0.829649,-4.66734 -1.879168,-8.28039 -1.568282,-5.39893 -2.020206,-6.70592 -4.095158,-11.84348 -2.313429,-5.72801 -2.295154,-5.5388 -0.844009,-8.73879 1.239732,-2.7338 1.760822,-4.18273 2.304672,-6.40835 0.480502,-1.96636 1.219541,-3.24007 3.232794,-5.57159 2.848049,-3.2983 4.28616,-5.09673 5.603032,-7.00691 0.761817,-1.10505 1.504548,-2.05402 1.650496,-2.10881 0.495288,-0.18594 7.609332,2.19358 8.443746,2.82427 0.317488,0.23998 0.157709,0.85527 -0.803425,3.09382 -0.439034,1.02255 -1.276524,3.01456 -1.861085,4.42668 -0.58456,1.41212 -1.456007,3.31027 -1.936547,4.21811 -3.581652,6.76646 -4.33856,8.25719 -4.586132,9.03229 -0.577981,1.80955 -1.587616,7.36203 -1.49085,8.19891 0.123302,1.06639 1.946871,8.36581 2.635541,10.54961 0.294912,0.93518 0.941376,2.62608 1.436581,3.75755 0.495206,1.13147 1.025699,2.62036 1.178879,3.30866 0.560742,2.51964 1.120811,3.43571 3.431148,5.61216 1.458879,1.37435 1.596184,1.57259 3.047961,4.40097 1.008534,1.96483 1.501723,3.11802 1.465187,3.4259 -0.101298,0.85359 -0.729097,0.98925 -4.725943,1.02123 -1.976139,0.0159 -3.956766,-0.027 -4.401394,-0.0952 z m 50.162065,-1.24561 c -1.0369,-0.0909 -1.84066,-0.25772 -2.12728,-0.44145 -0.53816,-0.34498 -1.49841,-2.24801 -1.63424,-3.23876 -0.0729,-0.53185 0.0352,-0.96133 0.479,-1.90338 l 0.57317,-1.21653 -0.29725,-1.12792 c -0.38329,-1.45438 -1.07133,-2.68568 -1.80786,-3.23527 -0.81076,-0.60499 -1.23652,-1.90074 -1.0921,-3.32362 0.0598,-0.58956 0.47741,-2.37691 0.92792,-3.97188 0.78046,-2.76308 1.79736,-7.69799 2.24169,-10.87867 0.19269,-1.37928 0.13637,-2.47178 -0.26367,-5.11497 -0.0656,-0.43327 0.19218,-2.49159 0.70989,-5.66897 0.32136,-1.97228 0.58157,-5.17733 0.80841,-9.9573 0.0936,-1.9729 0.2382,-3.65358 0.32126,-3.73483 0.19448,-0.19027 3.96029,-0.67704 4.28748,-0.55421 0.13647,0.0512 0.36737,0.4998 0.51311,0.99682 1.32706,4.52566 2.06917,10.67084 2.06917,17.13429 0,3.42328 -0.0655,3.7673 -1.23511,6.489 -1.04367,2.42859 -2.15827,9.43139 -2.2476,14.12109 -0.0832,4.36986 0.0545,4.90831 1.88434,7.36965 1.09043,1.4667 3.5745,6.62395 3.5745,7.42111 0,0.5705 -1.08483,0.84224 -3.65263,0.91496 -1.30108,0.0368 -3.11557,9e-4 -4.0322,-0.0791 z M 90.151377,80.560489 c -3.306173,-0.680191 -5.750094,-2.391791 -7.0587,-4.943571 -0.85898,-1.674999 -1.220344,-3.376748 -1.565914,-7.374169 -0.27021,-3.125681 -0.490902,-4.271883 -0.981714,-5.098765 -0.652426,-1.099151 -1.431958,-1.418565 -4.22627,-1.731734 -2.803695,-0.314212 -4.465293,-0.76424 -6.107574,-1.654161 -2.786621,-1.510027 -4.499292,-4.464015 -4.94354,-8.526535 -0.228615,-2.090592 0.736796,-3.639938 2.268077,-3.639938 1.03103,0 2.164023,0.642129 4.201997,2.381489 3.244535,2.769135 5.485282,3.941748 8.712964,4.559597 1.732844,0.331702 5.026198,0.372854 6.715662,0.08392 3.038061,-0.519591 4.538712,-1.111328 7.117289,-2.806495 0.83986,-0.552126 1.880911,-1.180291 2.313446,-1.39592 0.971231,-0.484185 2.460393,-0.641317 3.070631,-0.32401 0.675529,0.351266 1.216509,1.270201 1.349679,2.29263 0.27566,2.116464 1.16306,4.870395 2.39991,7.447869 1.48708,3.098925 2.11421,5.032118 2.33011,7.182892 0.62376,6.213706 -2.99811,11.324633 -9.392844,13.254525 -1.613946,0.487074 -4.577822,0.626777 -6.203209,0.292376 z"
       id="path1" /></g></svg>
