<?xml version="1.0" encoding="UTF-8" standalone="no"?>
<!-- Created with Inkscape (http://www.inkscape.org/) -->

<svg
   width="180mm"
   height="180mm"
   viewBox="0 0 180 180"
   version="1.1"
   id="svg1"
   sodipodi:docname="catmint.svg"
   inkscape:version="1.4.2 (f4327f4, 2025-05-13)"
   xml:space="preserve"
   xmlns:inkscape="http://www.inkscape.org/namespaces/inkscape"
   xmlns:sodipodi="http://sodipodi.sourceforge.net/DTD/sodipodi-0.dtd"
   xmlns="http://www.w3.org/2000/svg"
   xmlns:svg="http://www.w3.org/2000/svg"><sodipodi:namedview
     id="namedview1"
     pagecolor="#505050"
     bordercolor="#ffffff"
     borderopacity="1"
     inkscape:showpageshadow="0"
     inkscape:pageopacity="0"
     inkscape:pagecheckerboard="1"
     inkscape:deskcolor="#505050"
     inkscape:document-units="mm"
     inkscape:zoom="1"
     inkscape:cx="73"
     inkscape:cy="204"
     inkscape:window-width="2560"
     inkscape:window-height="1351"
     inkscape:window-x="-9"
     inkscape:window-y="-9"
     inkscape:window-maximized="1"
     inkscape:current-layer="layer1"
     showguides="true" /><defs
     id="defs1"><rect
       x="101.82338"
       y="91.923881"
       width="384.66609"
       height="299.81327"
       id="rect3" /><rect
       x="2.8284271"
       y="2.1213203"
       width="662.55905"
       height="647.0027"
       id="rect2" /></defs><g
     inkscape:label="Icon"
     inkscape:groupmode="layer"
     id="layer1"><path
       style="fill:#000000;stroke-width:4.16878"
       d="m 82.456638,172.63884 c -0.373417,-0.92253 -0.0591,-5.15042 0.698659,-9.39528 1.568094,-8.78353 0.724181,-12.22359 -4.198029,-17.11323 -3.796306,-3.77121 -5.416345,-3.7159 -8.988258,0.30681 -4.680131,5.27103 -13.957745,8.6367 -13.952863,5.0617 0.0012,-0.88567 -1.829272,-1.34219 -5.381872,-1.34219 -4.431971,0 -5.355921,-0.33237 -5.226381,-1.87905 0.108338,-1.29329 -0.663416,-1.87906 -2.475515,-1.87906 -1.448105,0 -3.996204,-0.49117 -5.662407,-1.09155 -2.513241,-0.90551 -2.791762,-1.36292 -1.634555,-2.68433 1.13738,-1.29881 1.048822,-1.59283 -0.479746,-1.59283 -1.031094,0 -3.7331,-0.73588 -6.004477,-1.63527 -3.1394,-1.24309 -3.813778,-1.93478 -2.811933,-2.88421 1.001845,-0.94942 0.323742,-1.78039 -2.827134,-3.46502 -2.279772,-1.21885 -4.344656,-2.79175 -4.588619,-3.49529 -0.524925,-1.51373 5.367869,-4.62642 8.758512,-4.62642 1.630531,0 2.267952,-0.58739 2.039063,-1.87909 -0.271926,-1.53463 0.653479,-1.93904 5.048965,-2.20632 3.778578,-0.22969 5.381873,-0.78957 5.381873,-1.87905 0,-1.7703 6.314686,-2.14848 8.999006,-0.53898 1.120851,0.67209 2.0827,0.4139 3.061421,-0.82172 1.32443,-1.67208 1.750862,-1.6375 5.927994,0.48058 2.682778,1.36037 4.914801,1.8901 5.525458,1.31139 1.357961,-1.28691 6.650119,2.70844 8.795596,6.64032 0.919883,1.68576 1.801952,4.82255 1.960183,6.97067 0.232529,3.15611 1.247735,4.65206 5.290573,7.79515 l 5.002889,3.88951 -0.749061,-3.70718 c -1.194421,-5.91122 -9.122466,-20.19438 -16.063696,-28.94025 -3.515259,-4.42922 -6.792635,-8.71892 -7.283045,-9.53269 -0.745891,-1.23764 -1.81681,-1.25489 -6.549228,-0.10551 -5.068579,1.23107 -6.110549,1.16151 -10.009374,-0.66795 -2.393508,-1.12312 -4.539542,-2.617659 -4.769032,-3.321239 -0.647227,-1.984326 6.34826,-4.880949 10.640715,-4.406051 4.386407,0.485286 4.533632,0.18952 1.665945,-3.345426 -1.787263,-2.203188 -3.114135,-2.60248 -8.920855,-2.684375 -5.05145,-0.07102 -7.449027,-0.634712 -9.240743,-2.171899 -2.19678,-1.884655 -2.256046,-2.230581 -0.643672,-3.75811 1.113913,-1.05535 3.623214,-1.644852 6.732467,-1.581706 4.543868,0.09253 4.84804,-0.06412 3.652078,-1.879055 -0.9317,-1.413775 -2.666248,-1.97974 -6.067554,-1.97974 -3.357842,0 -5.670671,-0.739983 -7.840172,-2.508531 -3.90255,-3.181188 -2.777461,-5.007728 3.084672,-5.007728 5.573377,0 4.841831,-1.706295 -1.142305,-2.664409 -7.382094,-1.181968 -11.958465,-7.042621 -6.137784,-7.860198 2.149546,-0.301934 2.208684,-0.594697 0.867381,-4.292176 -2.299641,-6.339243 0.05439,-7.522996 5.367183,-2.699148 2.444511,2.219462 3.177856,2.481869 3.177856,1.137124 0,-2.499237 2.067025,-3.368111 4.137905,-1.739369 1.432175,1.126451 1.64098,2.845407 1.087321,8.950895 l -0.685254,7.55668 2.387856,-4.563431 c 2.648391,-5.061297 3.757979,-5.563344 5.495566,-2.486535 1.542615,2.731573 1.487374,6.831753 -0.137462,10.211511 -0.91607,1.905393 -0.964203,3.455607 -0.15973,5.150823 1.115927,2.352085 1.17438,2.323353 1.941212,-0.953244 0.434826,-1.858074 1.827474,-4.267584 3.094779,-5.354467 2.239732,-1.920895 2.348844,-1.918257 3.901351,0.09375 2.163506,2.803932 2.008315,6.883862 -0.434568,11.424728 -1.925924,3.579911 -1.930463,3.935496 -0.08736,6.823231 l 1.944467,3.046453 1.215574,-4.278175 c 1.443095,-5.078789 5.179491,-8.817459 7.04512,-7.049438 0.678916,0.643355 1.495381,3.36458 1.814455,6.04721 0.439493,3.695329 0.02141,5.776566 -1.729666,8.587397 l -2.309747,3.709938 8.364713,10.56498 c 4.600608,5.81078 10.03755,13.69034 12.082094,17.51017 l 3.717341,6.94514 0.709021,-7.48201 c 0.390118,-4.11511 0.772399,-13.8697 0.84978,-21.67682 l 0.140888,-14.19481 -4.003227,2.574519 c -4.245348,2.730234 -10.392769,4.477111 -11.629841,3.304762 -1.701102,-1.612144 3.87069,-8.689584 8.500718,-10.797768 l 4.76445,-2.169423 -2.863792,-3.467741 c -2.86696,-3.471637 -6.25011,-4.363602 -9.394905,-2.476918 -0.878258,0.526843 -2.28037,0.709343 -3.115849,0.40542 -2.326147,-0.845944 -1.805805,-4.396676 0.841046,-5.739067 2.222259,-1.127141 2.248852,-1.313415 0.455508,-3.191374 -2.078459,-2.176484 -1.427549,-4.277201 1.325245,-4.277201 2.692756,0 8.180059,4.127289 11.822288,8.892172 l 3.298359,4.315024 v -6.433638 -6.433638 l -4.597054,-1.305258 c -7.808955,-2.217189 -12.403781,-8.69839 -6.166734,-8.69839 1.557946,0 2.832575,-0.401362 2.832575,-0.892289 0,-0.490765 -1.274629,-1.538811 -2.832575,-2.328953 -2.369185,-1.20161 -3.301399,-1.198851 -5.698548,0.01623 -2.507161,1.271574 -3.110109,1.218411 -4.815366,-0.424697 -1.845245,-1.777964 -1.817367,-1.980958 0.52197,-3.800356 2.24427,-1.745498 2.30812,-2.076692 0.694804,-3.60556 -2.238232,-2.12117 -1.136653,-5.071321 1.893678,-5.071321 2.663594,0 10.370587,6.268304 14.79532,12.033426 l 3.054911,3.980299 -0.311752,-5.481043 c -0.285201,-5.015642 -0.649326,-5.66399 -4.289114,-7.635289 -4.443019,-2.406344 -8.040712,-7.786783 -7.350319,-10.992645 0.554216,-2.573585 3.616407,-2.316048 8.019173,0.674442 l 3.115805,2.116382 v -2.33431 c 0,-1.320152 -1.728425,-3.783149 -3.978433,-5.669306 -4.564937,-3.826654 -6.737093,-10.314388 -3.453379,-10.314388 1.053618,0 2.901861,0.50018 4.107244,1.111516 1.947721,0.987861 2.191555,0.741079 2.191555,-2.218082 0,-4.0401582 1.791974,-7.4834281 3.894628,-7.4834281 1.599912,0 4.036535,5.2681061 4.036535,8.7272031 0,1.711125 0.36914,1.804911 2.86332,0.72789 1.98451,-0.856902 3.225393,-0.893223 4.043103,-0.118096 1.87377,1.775732 -1.645563,8.387528 -5.661083,10.635478 -2.66792,1.49352 -3.511356,2.728814 -3.511356,5.142584 v 3.176927 l 2.549296,-2.263169 c 2.89462,-2.569689 8.207553,-4.739153 9.230983,-3.76931 2.68616,2.545664 -3.23215,12.162478 -8.451003,13.732212 -1.78893,0.538085 -2.19627,1.660762 -2.19627,6.05342 v 5.392776 l 4.45287,-5.338557 c 7.164173,-8.589142 13.949663,-12.183582 15.548073,-8.236114 0.36742,0.907833 -0.1379,2.494855 -1.12321,3.526667 -1.64226,1.719768 -1.60651,1.985625 0.42912,3.190359 2.38645,1.412396 2.93369,3.972954 1.08104,5.058051 -0.62681,0.367273 -2.92624,0.05519 -5.10978,-0.693028 -3.45595,-1.184281 -4.22025,-1.123489 -5.90131,0.469662 -1.57435,1.491978 -1.62462,1.833156 -0.27237,1.846589 2.80839,0.02841 4.60426,1.677399 3.85113,3.53734 -0.94108,2.324002 -7.472113,6.109911 -10.540213,6.109911 -2.20821,0 -2.41522,0.57611 -2.41132,6.710939 l 0.004,6.710939 2.08103,-3.221243 C 98.145387,68.74097 106.50287,61.57161 108.63618,61.57161 c 2.45886,0 3.15546,1.829584 1.68676,4.430238 -1.07289,1.899874 -0.9785,2.505204 0.51414,3.296807 1.9552,1.036926 2.48544,4.6463 0.82541,5.618578 -0.55156,0.323037 -2.61427,0.05519 -4.58374,-0.595631 -2.99196,-0.988429 -3.94511,-0.870658 -5.79528,0.716161 -3.197393,2.742206 -2.808213,3.176927 2.84375,3.176927 3.27622,0 5.74582,0.651715 7.01018,1.849916 1.84733,1.750692 1.74319,1.931244 -1.94233,3.36734 -2.14188,0.834581 -5.55035,1.85227 -7.57433,2.261464 l -3.680003,0.744042 3.369063,3.192834 c 3.32726,3.153145 6.40658,10.776954 5.13838,12.721624 -0.85222,1.30672 -3.66072,0.32507 -8.228873,-2.87568 l -3.68237,-2.580242 v 5.253622 c 0,2.88948 -0.31603,11.97381 -0.70225,20.1874 l -0.70226,14.93382 3.60601,-5.04941 c 1.9833,-2.77714 7.652903,-9.38995 12.599053,-14.69511 4.94614,-5.30512 8.99301,-10.10466 8.99301,-10.66563 0,-0.56097 -0.76166,-2.40395 -1.69254,-4.09547 -2.17966,-3.960623 -2.18462,-11.204776 -0.009,-13.876247 1.65516,-2.032903 1.76684,-2.010055 4.53209,0.928408 1.66304,1.767169 2.83515,4.319651 2.83515,6.174031 0,4.138658 1.12616,3.973563 4.27031,-0.625986 l 2.57075,-3.760829 -2.57075,-3.295224 c -2.45273,-3.143892 -3.65105,-11.576345 -1.88318,-13.251715 1.53306,-1.452857 4.79657,1.054213 6.74732,5.183491 2.02596,4.288321 2.09409,4.326794 3.09979,1.750368 0.76658,-1.963791 0.49508,-3.463074 -1.06663,-5.889954 -2.34196,-3.639486 -2.67422,-7.217896 -0.95312,-10.265567 1.50965,-2.673134 3.96229,-1.678333 5.70772,2.314993 0.87474,2.00133 1.80037,2.82471 2.46618,2.193732 0.6658,-0.630978 0.39183,-2.245434 -0.73006,-4.301429 -2.2539,-4.130455 -2.28734,-7.753587 -0.0963,-10.440479 1.65619,-2.031117 1.74136,-2.033106 3.33845,-0.07873 1.57374,1.925887 1.74696,1.886685 4.35356,-0.985142 1.8834,-2.074987 3.32653,-2.7683 4.71293,-2.264143 1.94789,0.708369 1.9418,2.647405 -0.0214,7.500838 -0.44883,1.108392 0.1516,1.737422 1.88919,1.978807 1.40095,0.194797 2.75228,0.944154 3.00287,1.66555 0.69853,2.010664 -4.92889,6.741457 -8.01913,6.741457 -1.50994,0 -3.35904,0.70074 -4.10909,1.557235 -1.15638,1.320436 -0.78978,1.477815 2.41055,1.034815 2.0759,-0.287324 4.48598,-0.07061 5.35576,0.481878 3.54802,2.253307 -2.63049,7.728588 -8.91229,7.897858 -2.15781,0.05803 -3.96079,0.841682 -4.61911,2.007417 -1.53109,2.711201 -1.49418,2.741638 2.75677,2.271326 4.72035,-0.522257 8.79539,1.337278 7.88074,3.596145 -1.02994,2.543473 -6.58563,4.77381 -11.9443,4.795035 -4.57803,0.02029 -5.09119,0.337647 -8.51532,5.300938 l -3.64372,5.281663 4.29674,-0.056 c 4.44087,-0.058 11.48839,2.69431 11.48839,4.48677 0,1.57703 -6.31045,4.29501 -9.9719,4.29501 -1.80748,0 -4.99485,-0.56446 -7.08307,-1.25432 -3.75429,-1.24029 -3.86542,-1.18323 -9.93656,5.10029 -12.57778,13.01784 -25.114437,31.25346 -23.830517,34.6635 0.221394,0.58771 3.079144,-0.46354 6.350744,-2.33614 5.360673,-3.06833 5.948803,-3.77698 5.952613,-7.17249 0.009,-6.30608 7.80681,-16.2907 10.8538,-13.89425 0.81488,0.64092 2.984,0.13473 6.07698,-1.4178 4.34367,-2.18046 4.92615,-2.24706 6.01055,-0.68722 0.97496,1.40237 1.89479,1.52541 4.89027,0.65419 4.47848,-1.30258 7.7902,-0.33846 6.84616,1.99285 -0.5149,1.27157 -0.14817,1.51267 1.53247,1.00722 3.45157,-1.03819 10.47644,0.53804 9.80361,2.19969 -0.37856,0.9345 1.34468,2.01574 5.09225,3.19535 6.70883,2.11176 6.97422,4.17189 0.95933,7.44813 -2.5851,1.40809 -3.85627,2.82142 -3.6003,4.0031 0.29676,1.37039 -0.94533,2.1971 -4.97361,3.31024 -3.20945,0.88685 -4.82628,1.80167 -4.01949,2.27417 2.26054,1.32405 0.38669,2.62861 -4.84282,3.3718 -3.69409,0.52498 -5.12511,1.26951 -5.57522,2.9006 -0.53392,1.9349 -1.21043,2.11578 -5.72133,1.52984 -4.42782,-0.57513 -5.02032,-0.42863 -4.40568,1.08928 0.60171,1.48605 0.0857,1.65772 -3.38074,1.12463 -4.7586,-0.73183 -10.13982,-4.20144 -12.21472,-7.87554 -1.86418,-3.30099 -3.89125,-3.24356 -9.228153,0.26135 -4.95823,3.25627 -8.235601,7.87789 -9.412035,13.27258 -0.450798,2.06695 -1.332996,4.3621 -1.960524,5.10029 -1.577516,1.8558 -4.196573,1.68069 -5.012824,-0.33521 z m 43.805332,-20.30465 c 0,-0.2788 -2.54935,-1.54631 -5.66516,-2.81659 -3.11584,-1.27023 -5.66515,-2.69578 -5.66515,-3.1678 0,-0.47205 1.8062,-1.42315 4.01377,-2.11362 3.28594,-1.02771 4.83095,-0.94545 8.52063,0.45363 5.67042,2.15015 7.15881,2.13566 2.94456,-0.0284 -1.76881,-0.90844 -2.97265,-1.88226 -2.67525,-2.16415 0.29719,-0.28164 4.54884,-1.15149 9.44763,-1.93254 9.41571,-1.50123 6.28916,-2.0894 -3.83965,-0.72229 -3.2716,0.44158 -5.94838,0.56515 -5.94838,0.27474 0,-0.29057 0.84383,-1.41187 1.87514,-2.49185 1.03135,-1.07998 1.32327,-1.96363 0.64876,-1.96363 -0.67454,0 -2.26872,1.25579 -3.5427,2.79062 -2.28517,2.75312 -10.31144,5.47829 -10.31144,3.50102 0,-0.54912 0.83384,-2.20449 1.85299,-3.67853 1.01914,-1.47408 1.55845,-2.95924 1.19849,-3.30042 -0.62886,-0.59595 -7.71158,9.48586 -7.73698,11.0131 -0.009,0.40936 2.70168,2.04703 6.01887,3.63929 5.88102,2.82288 8.86387,3.73412 8.86387,2.70787 z M 66.916154,134.29438 c -1.32229,-1.64172 -3.598891,-4.30094 -5.059115,-5.90935 l -2.654942,-2.92434 2.464123,4.02652 2.464082,4.02657 H 61.20857 c -1.747651,0 -4.685527,-1.51016 -7.311136,-3.75811 -5.143177,-4.40346 -7.435238,-5.01982 -3.4625,-0.93113 l 2.746799,2.82698 -3.965586,-0.6507 c -2.181063,-0.35794 -6.259959,-0.88803 -9.064226,-1.17811 l -5.098597,-0.52737 5.665103,1.46929 c 3.115848,0.80808 6.812334,1.51564 8.214446,1.57233 1.402111,0.0568 2.549341,0.51244 2.549341,1.01274 0,0.5003 -1.14723,1.47932 -2.549341,2.17555 -2.511444,1.24707 -2.507248,1.25583 0.283059,0.58898 6.312418,-1.50842 9.796544,-1.62846 13.029813,-0.44889 l 3.399079,1.24009 -4.498476,2.08407 c -7.558782,3.50196 -7.059421,4.26381 0.779723,1.18956 l 7.394041,-2.89971 z"
       id="path1" /></g></svg>
