<?xml version="1.0" encoding="UTF-8" standalone="no"?>
<!-- Created with Inkscape (http://www.inkscape.org/) -->

<svg
   width="180mm"
   height="180mm"
   viewBox="0 0 180 180"
   version="1.1"
   id="svg1"
   sodipodi:docname="cow_parsley.svg"
   inkscape:version="1.4.2 (f4327f4, 2025-05-13)"
   xml:space="preserve"
   xmlns:inkscape="http://www.inkscape.org/namespaces/inkscape"
   xmlns:sodipodi="http://sodipodi.sourceforge.net/DTD/sodipodi-0.dtd"
   xmlns="http://www.w3.org/2000/svg"
   xmlns:svg="http://www.w3.org/2000/svg"><sodipodi:namedview
     id="namedview1"
     pagecolor="#505050"
     bordercolor="#ffffff"
     borderopacity="1"
     inkscape:showpageshadow="0"
     inkscape:pageopacity="0"
     inkscape:pagecheckerboard="1"
     inkscape:deskcolor="#505050"
     inkscape:document-units="mm"
     inkscape:zoom="1"
     inkscape:cx="73"
     inkscape:cy="204"
     inkscape:window-width="2560"
     inkscape:window-height="1351"
     inkscape:window-x="-9"
     inkscape:window-y="-9"
     inkscape:window-maximized="1"
     inkscape:current-layer="layer1"
     showguides="true" /><defs
     id="defs1"><rect
       x="101.82338"
       y="91.923881"
       width="384.66609"
       height="299.81327"
       id="rect3" /><rect
       x="2.8284271"
       y="2.1213203"
       width="662.55905"
       height="647.0027"
       id="rect2" /></defs><g
     inkscape:label="Icon"
     inkscape:groupmode="layer"
     id="layer1"><path
       style="fill:#000000;stroke-width:4.10044"
       d="m 86.265898,136.5704 0.793291,-36.629255 -4.073572,3.694635 c -2.240444,2.03204 -6.026361,4.61082 -8.413094,5.73063 -4.170923,1.95691 -12.345421,2.85846 -12.345421,1.36158 0,-2.50452 6.340039,-8.47557 12.021617,-11.321995 4.089024,-2.048584 5.77788,-3.346808 4.376316,-3.364103 -4.061065,-0.05001 -20.996708,-5.529131 -28.673558,-9.276481 -4.109639,-2.006036 -9.755069,-5.457408 -12.545327,-7.669736 -4.975913,-3.945224 -5.165289,-3.996943 -9.872268,-2.69651 -3.536911,0.9772 -5.928808,1.014374 -9.094995,0.141279 -2.369789,-0.653384 -4.55254,-0.755738 -4.868114,-0.22838 -1.174062,1.962318 -4.2269614,0.839505 -5.5164889,-2.028832 -1.7319438,-3.852247 -1.6822396,-4.73351 0.2666764,-4.73351 0.8806371,0 1.6011877,-0.744277 1.6011877,-1.653964 0,-0.909727 0.7548438,-1.654005 1.6773978,-1.654005 2.157336,0 4.727272,2.654668 4.727272,4.883208 0,1.296848 1.114352,1.732729 4.429934,1.732729 h 4.429934 L 20.83966,69.604858 C 18.448771,67.815784 16.09504,65.706936 15.609132,64.918566 15.123224,64.130155 13.793514,62.953456 12.65427,62.303698 9.653253,60.591972 9.4004551,58.65145 12.046804,57.640202 c 1.266894,-0.484099 2.267838,-1.227793 2.224266,-1.652588 -0.242066,-2.362025 0.07948,-2.977735 1.555518,-2.977735 0.899075,0 1.89078,0.689475 2.203812,1.532147 0.32921,0.885806 1.440698,1.296682 2.635134,0.974033 2.464799,-0.665803 2.860093,2.79328 0.731645,6.401851 -1.154697,1.957651 -0.995094,2.549355 1.185681,4.39565 3.501085,2.964106 5.001614,2.665878 2.940016,-0.584328 -0.948174,-1.494806 -1.723956,-3.231495 -1.723956,-3.85929 0,-2.217912 2.732646,-1.102392 4.631979,1.890845 l 1.924104,3.032287 -0.584267,-4.401942 c -0.321545,-2.421079 -1.084498,-4.574227 -1.695917,-4.784729 -0.611419,-0.21046 -1.821669,-1.116187 -2.689396,-2.012578 -1.392043,-1.437919 -1.358355,-1.941439 0.286041,-4.2775 1.876377,-2.665879 4.532248,-3.63216 4.532248,-1.649004 0,0.587411 0.72051,0.78241 1.601187,0.433338 1.8111,-0.717897 2.334245,3.413699 0.574504,4.537178 -0.65725,0.419586 -0.65725,1.65909 0,3.44483 0.56466,1.534148 1.026644,4.026866 1.026644,5.5393 0,1.512476 0.423011,2.479883 0.939983,2.149815 1.284202,-0.819834 2.191425,-6.145966 1.046897,-6.145966 -0.505677,0 -0.919449,-1.273427 -0.919449,-2.82987 0,-2.436624 0.407963,-2.781403 2.935497,-2.480966 2.713078,0.322566 2.91008,0.67593 2.600437,4.665829 -0.184374,2.37432 -1.309014,6.289037 -2.499415,8.699405 l -2.164354,4.382439 3.03313,2.569234 c 4.934763,4.180021 19.489926,11.186663 28.473732,13.706804 4.598815,1.290097 8.579958,2.119892 8.846998,1.844086 0.26708,-0.27589 -1.893402,-2.078467 -4.801022,-4.005778 C 61.343439,79.843244 50.213272,66.60116 44.563566,54.845005 40.201411,45.768023 39.049337,44.191117 36.328956,43.573907 c -1.739568,-0.394664 -5.095131,-2.520849 -7.45677,-4.724883 -2.893055,-2.699886 -5.114901,-3.896131 -6.810212,-3.666667 -2.338441,0.316731 -2.497963,0.004 -2.257631,-4.423447 0.213825,-3.939931 0.62796,-4.7641 2.393551,-4.7641 1.174183,0 2.756368,-0.414668 3.515932,-0.921938 2.260859,-1.509184 4.216552,1.160571 3.897065,5.319963 -0.239242,3.116013 0.312669,4.360059 2.951878,6.654153 3.759691,3.267919 5.025859,2.89551 2.553315,-0.750987 -0.940509,-1.387075 -1.710037,-3.652038 -1.710037,-5.033238 0,-1.381241 -0.515561,-2.511305 -1.1457,-2.511305 -0.630139,0 -0.978472,-0.868344 -0.774047,-1.929645 0.204546,-1.0613 -0.560989,-2.720723 -1.700919,-3.687546 -2.701178,-2.291052 -1.581823,-5.918544 1.56403,-5.068745 1.333382,0.360073 2.414692,-0.02084 2.769844,-0.977534 0.847796,-2.282217 4.624029,-1.975612 4.624029,0.375494 0,1.069093 1.049721,2.433623 2.332672,3.032287 3.618044,1.68822 3.579958,3.81228 -0.094,5.244823 -4.082085,1.591617 -4.986808,4.174729 -2.872803,8.202053 l 1.616075,3.078755 0.04277,-4.069874 c 0.07585,-7.212434 4.135945,-6.509332 4.399878,0.761905 l 0.120226,3.307969 1.642258,-4.134929 c 0.90327,-2.274257 2.072531,-4.134971 2.59838,-4.134971 1.92713,0 2.063978,3.202947 0.288462,6.749881 l -1.822678,3.640911 2.546013,-1.903014 c 5.326184,-3.980981 7.379955,-3.84587 5.209871,0.34257 -0.684886,1.321937 -3.343298,3.362146 -5.907547,4.533886 l -4.662358,2.130394 2.050221,4.940719 c 3.061453,7.377676 9.695037,16.837362 16.700919,23.815915 6.332494,6.307832 15.328888,13.431998 16.037537,12.699973 0.214228,-0.221295 -1.468939,-3.57394 -3.740086,-7.450649 C 69.202161,67.964564 65.609333,57.801526 63.657754,45.520097 61.96204,34.84908 61.870418,34.63587 58.078933,32.536732 c -2.13337,-1.181158 -4.808727,-3.978772 -5.991019,-6.264781 -1.174909,-2.27184 -2.680642,-4.131929 -3.346042,-4.133596 -2.282604,-0.0042 -2.557349,-4.77106 -0.394971,-6.851985 2.664706,-2.564483 3.346929,-2.460045 5.696142,0.871803 1.319544,1.871508 1.62015,3.206198 0.923483,4.100297 -1.344154,1.725145 -0.02421,5.16985 3.046081,7.941542 l 2.441884,2.205284 -0.805516,-2.205284 c -0.443062,-1.212915 -1.071506,-3.942015 -1.396601,-6.064616 -0.325176,-2.122601 -1.073161,-4.491544 -1.662431,-5.264286 -0.58931,-0.772699 -0.766987,-1.719435 -0.394971,-2.103847 0.371975,-0.384245 0.141609,-1.364779 -0.512293,-2.178654 -1.636852,-2.037333 0.879427,-5.3389253 2.808574,-3.6850869 0.925218,0.793162 1.701444,0.652467 2.605037,-0.47218 1.62144,-2.0182046 4.333349,-1.0326279 4.333349,1.5748219 0,1.08318 0.72051,2.255003 1.601188,2.604075 2.163871,0.857759 2.02319,2.813367 -0.266677,3.709134 -3.256477,1.27376 -5.048695,3.878168 -4.695319,6.822979 0.525082,4.375395 2.293578,5.519629 2.293578,1.48397 0,-1.90489 0.534039,-3.804403 1.18677,-4.221113 1.70209,-1.086639 3.091106,1.78749 2.430467,5.028987 l -0.563692,2.765816 2.209299,-2.603158 c 2.449146,-2.885757 2.828101,-5.689122 1.021318,-7.555462 -1.589891,-1.642336 -0.495712,-3.225744 2.823703,-4.086378 4.728603,-1.225959 8.060767,4.624029 3.968314,6.966884 -1.02741,0.588203 -2.956074,3.07392 -4.285945,5.52388 -2.118968,3.903757 -2.184971,4.368644 -0.533716,3.760186 3.23332,-1.191452 4.552823,-2.736018 4.552823,-5.329424 0,-3.4232 4.933674,-4.804775 7.015726,-1.964569 1.784311,2.433998 1.448888,3.851622 -1.25124,5.288041 -1.140012,0.606457 -3.520048,2.176487 -5.288947,3.488922 -1.76894,1.312477 -5.046598,2.740977 -7.283694,3.174524 l -4.067439,0.788203 0.70768,5.095418 c 1.946173,14.013325 6.84273,27.22282 14.72933,39.73538 4.119847,6.53642 4.513164,6.871364 5.179331,4.410652 0.396585,-1.464633 0.768762,-7.467444 0.827302,-13.339563 0.100861,-10.113485 -0.02017,-10.717651 -2.26796,-11.45501 -2.18025,-0.714813 -13.637328,-11.725107 -13.637328,-13.105515 0,-1.044505 4.22442,-5.009816 5.337239,-5.009816 0.587091,0 1.067431,0.496185 1.067431,1.102642 0,0.606457 0.720511,1.102684 1.601188,1.102684 0.889513,0 1.601148,0.980117 1.601148,2.205284 0,1.212915 -0.497245,2.205327 -1.104993,2.205327 -2.16032,0 2.227656,6.542172 4.426102,6.599058 1.272139,0.03334 -1.651135,-10.479102 -3.273705,-11.772117 -1.251725,-0.997496 -1.374452,-1.77603 -0.509791,-3.234245 1.727788,-2.913888 4.897041,-4.584438 5.49208,-2.894925 0.26708,0.758071 1.165953,1.378323 1.997652,1.378323 1.990188,0 1.936248,2.674422 -0.08916,4.410611 -2.037109,1.746441 -2.01617,3.483421 0.103685,8.581006 l 1.70459,4.099547 1.703179,-3.609322 c 1.434606,-3.040247 1.492782,-4.21032 0.368747,-7.420977 -1.193427,-3.409156 -1.105234,-4.065582 0.835129,-6.217022 l 2.169398,-2.405409 2.8515,2.945561 c 2.55505,2.639332 2.68883,3.145019 1.287027,4.864412 -1.802224,2.210494 -5.353619,11.450927 -4.671718,12.155321 0.251749,0.260053 1.746508,-0.858801 3.321875,-2.486134 2.118286,-2.188156 2.552146,-3.281255 1.66586,-4.196775 -1.778663,-1.837335 -1.488102,-2.755356 1.515576,-4.788355 2.58866,-1.752067 2.81487,-1.725145 4.89652,0.582953 2.27587,2.523391 2.03477,5.613815 -0.4379,5.613815 -0.78869,0 -2.51608,1.511893 -3.83865,3.359812 -1.32261,1.84792 -4.054849,4.172687 -6.071705,5.166182 l -3.666981,1.806328 v 13.578987 c 0,7.468444 0.17227,13.578986 0.382464,13.578986 0.728539,0 7.947522,-11.775576 10.868292,-17.728377 4.33489,-8.834849 7.84255,-20.248518 8.61438,-28.03061 l 0.68153,-6.871656 -3.83731,-0.74361 c -2.11054,-0.408834 -5.17244,-1.859672 -6.80421,-3.22366 -1.6318,-1.364029 -4.301594,-3.076796 -5.932879,-3.806154 -2.883574,-1.289263 -2.917222,-1.402953 -1.211542,-4.092045 2.030412,-3.20103 1.64246,-3.078088 5.247151,-1.662424 2.12817,0.835838 2.64974,1.624416 2.15007,3.250665 -0.49934,1.625166 0.11902,2.56315 2.54392,3.858415 4.50731,2.407743 4.64557,2.217912 1.67635,-2.301846 -1.45006,-2.207243 -2.63647,-4.440117 -2.63647,-4.961932 0,-0.521857 -0.66915,-0.948777 -1.48697,-0.948777 -2.55719,0 -2.999727,-3.48663 -0.72087,-5.679746 2.35098,-2.262504 4.34275,-2.662044 4.34275,-0.871136 0,0.642256 0.44713,0.882263 0.99368,0.533359 1.63935,-1.046589 2.38976,1.402287 1.15817,3.77944 -0.8683,1.675968 -0.75178,3.012074 0.47675,5.46616 2.35849,4.711255 3.83917,5.254616 2.65034,0.972615 -0.58838,-2.119225 -0.59827,-3.963561 -0.0242,-4.556348 1.36041,-1.405288 3.285,0.09502 3.285,2.56094 0,1.141359 0.48038,2.381821 1.06747,2.756647 0.5871,0.37466 1.07401,0.03334 1.082,-0.761905 0.008,-0.793871 0.27313,-2.437582 0.58943,-3.652664 0.42467,-1.632043 -0.27636,-2.728642 -2.68318,-4.197276 -3.39321,-2.070548 -4.40678,-5.17135 -1.69039,-5.17135 0.87164,0 1.32402,-0.655925 1.0189,-1.477343 -0.30178,-0.8124999 0.24569,-2.1583169 1.21646,-2.9906539 1.50372,-1.2891805 1.94581,-1.2685512 2.98403,0.1391951 0.67032,0.9088529 2.06087,1.4737179 3.09006,1.2552149 2.70808,-0.574992 3.52771,2.8095329 1.6471,6.8012249 -2.09868,4.45462 -3.99942,12.812246 -2.91379,12.812246 0.46291,0 1.85592,-1.33198 3.09558,-2.959938 1.58005,-2.074967 2.06527,-3.847413 1.62285,-5.928213 -0.41938,-1.972446 -0.0496,-3.568897 1.10209,-4.758641 2.07729,-2.145772 2.60964,-2.16861 5.09876,-0.218794 2.16859,1.698931 1.52881,7.249441 -0.83561,7.249441 -0.74577,0 -1.96497,1.518811 -2.70933,3.375107 -1.32386,3.301509 -7.10153,8.754125 -9.27606,8.754125 -0.60258,0 -1.41834,3.3834 -1.81283,7.518663 -1.27549,13.371236 -5.77239,26.803442 -12.74056,38.055703 -2.12889,3.437745 -3.516373,6.245694 -3.08336,6.23986 2.20099,-0.02917 16.07543,-12.219875 21.5381,-18.92358 5.66431,-6.951172 12.87377,-19.734204 12.87377,-22.82642 0,-0.68364 -0.94402,-1.243005 -2.09775,-1.243005 -2.1631,0 -9.64416,-6.075993 -9.64416,-7.832811 0,-1.641794 2.17258,-1.117853 5.04595,1.216874 3.59714,2.92289 5.08662,2.801865 3.02042,-0.245467 -2.08742,-3.078504 -2.17291,-7.473237 -0.14524,-7.473237 0.834,0 1.83168,1.482887 2.21705,3.295341 1.02067,4.800357 2.67128,5.189062 2.67128,0.629045 0,-5.556386 2.95736,-5.373474 3.40474,0.21046 0.32397,4.045786 0.36189,4.079251 1.75639,1.551276 1.8527,-3.358979 0.89787,-7.055069 -2.18113,-8.442894 -2.92856,-1.320062 -3.3893,-5.590602 -0.57826,-5.360139 1.18201,0.0971 1.86803,-0.624419 1.86803,-1.964235 0,-2.696552 3.1377,-4.001985 4.691,-1.951691 0.64898,0.856592 2.14067,1.557486 3.31485,1.557486 2.67492,0 3.61829,4.654702 1.14231,5.636153 -0.92182,0.365491 -1.67602,1.610412 -1.67602,2.766691 0,2.111057 -0.26143,2.816409 -3.5656,9.622927 l -1.79193,3.691255 3.47934,-2.10018 c 2.84133,-1.7151 3.49971,-2.818451 3.59048,-6.017231 0.15291,-5.393937 0.99433,-6.384473 5.28128,-6.21798 3.72226,0.144613 6.799,2.335686 4.94328,3.520428 -0.53686,0.34257 -0.73616,1.919726 -0.44294,3.504342 0.46477,2.511431 0.20656,2.841415 -2.01117,2.571151 -1.67522,-0.204208 -3.76312,0.887599 -6.11221,3.195988 -1.96235,1.928353 -5.40244,4.073875 -7.6447,4.76785 -3.60158,1.114645 -4.33964,1.971195 -6.33152,7.348045 -4.67818,12.627959 -17.0898,28.139674 -29.06748,36.327558 -2.2745,1.55486 -3.9387,3.030328 -3.69817,3.278796 1.97421,2.039334 31.59796,-10.626883 37.91274,-16.210317 2.40098,-2.122893 2.44431,-2.369693 0.75493,-4.298004 -0.98574,-1.125147 -2.07855,-3.968021 -2.42849,-6.317501 -0.34979,-2.349439 -1.06651,-4.839365 -1.5924,-5.533216 -0.60371,-0.796496 -0.29451,-1.944814 0.8386,-3.115429 1.68135,-1.736813 1.93657,-1.707057 4.03977,0.470805 1.85874,1.924769 1.98433,2.491843 0.72987,3.295966 -1.18528,0.75978 -1.28352,1.772113 -0.4513,4.649993 l 1.06389,3.678753 1.17563,-5.495166 c 0.81572,-3.812864 0.83561,-5.918378 0.065,-6.877532 -1.64263,-2.044502 -0.36391,-4.334304 2.89152,-5.17831 2.10315,-0.545278 3.25611,-0.215461 4.32205,1.23642 2.0802,2.833371 1.85157,4.854035 -0.62493,5.523046 -1.21122,0.327151 -2.41728,1.843753 -2.76783,3.480379 -0.34172,1.595327 -0.85639,3.892963 -1.14376,5.105878 -0.39941,1.68497 0.1053,1.424833 2.13841,-1.102684 3.23175,-4.017572 5.1153,-2.774984 2.61504,1.725186 -2.17343,3.911884 -0.92691,4.165394 3.06041,0.622503 2.76952,-2.460795 2.83568,-2.724308 1.12698,-4.489377 -2.50773,-2.590447 -2.35955,-6.128212 0.25659,-6.128212 1.13952,0 2.36874,-0.496185 2.73159,-1.102642 1.1146,-1.862965 3.9055,-1.222834 4.47488,1.026376 0.29653,1.170948 1.21219,2.395865 2.03497,2.722015 2.10275,0.833504 1.86391,3.895464 -0.37197,4.770101 -1.02741,0.401749 -2.58854,1.467884 -3.46918,2.368902 -0.88063,0.901017 -3.73669,3.03758 -6.34681,4.747971 l -4.74563,3.109761 4.21191,-0.01667 c 4.96385,-0.02084 5.96004,-0.625586 7.67996,-4.669372 1.39954,-3.290631 3.19955,-3.941639 4.11141,-1.487012 0.3159,0.849924 1.50154,1.795867 2.63509,2.102097 2.43919,0.658884 2.74826,3.867999 0.45989,4.775102 -0.88064,0.349238 -1.60115,1.325896 -1.60115,2.170694 0,1.733146 -3.89803,2.127643 -4.44768,0.450133 -0.22633,-0.690974 -1.83846,-0.615167 -4.4324,0.208376 -3.1164,0.989411 -5.17707,0.990161 -8.7492,0.0033 -4.64025,-1.282012 -4.72558,-1.253256 -12.3169,4.148807 -9.34085,6.64711 -20.02453,11.333069 -31.70903,13.907887 l -8.816698,1.942856 6.402048,3.174069 c 5.45303,2.703515 11.76503,8.690985 11.76503,11.160075 0,1.38645 -8.63814,0.71002 -12.57676,-0.98491 -2.18275,-0.93927 -5.816408,-3.5443 -8.074806,-5.78893 l -4.10617,-4.081135 0.396988,36.663305 0.396989,36.66333 H 89.621955 85.47302 Z"
       id="path1" /></g></svg>
