<?xml version="1.0" encoding="UTF-8" standalone="no"?>
<!-- Created with Inkscape (http://www.inkscape.org/) -->

<svg
   width="180mm"
   height="180mm"
   viewBox="0 0 180 180"
   version="1.1"
   id="svg1"
   sodipodi:docname="croton.svg"
   inkscape:version="1.4.2 (f4327f4, 2025-05-13)"
   xml:space="preserve"
   xmlns:inkscape="http://www.inkscape.org/namespaces/inkscape"
   xmlns:sodipodi="http://sodipodi.sourceforge.net/DTD/sodipodi-0.dtd"
   xmlns="http://www.w3.org/2000/svg"
   xmlns:svg="http://www.w3.org/2000/svg"><sodipodi:namedview
     id="namedview1"
     pagecolor="#505050"
     bordercolor="#ffffff"
     borderopacity="1"
     inkscape:showpageshadow="0"
     inkscape:pageopacity="0"
     inkscape:pagecheckerboard="1"
     inkscape:deskcolor="#505050"
     inkscape:document-units="mm"
     inkscape:zoom="1"
     inkscape:cx="73"
     inkscape:cy="204"
     inkscape:window-width="2560"
     inkscape:window-height="1351"
     inkscape:window-x="-9"
     inkscape:window-y="-9"
     inkscape:window-maximized="1"
     inkscape:current-layer="layer1"
     showguides="true" /><defs
     id="defs1"><rect
       x="101.82338"
       y="91.923881"
       width="384.66609"
       height="299.81327"
       id="rect3" /><rect
       x="2.8284271"
       y="2.1213203"
       width="662.55905"
       height="647.0027"
       id="rect2" /></defs><g
     inkscape:label="Icon"
     inkscape:groupmode="layer"
     id="layer1"><path
       style="fill:#000000;stroke-width:1.9163"
       d="m 84.510306,166.77079 c 0,-12.4328 -1.751759,-21.69072 -5.373789,-28.40016 l -1.555156,-2.88076 1.814513,-1.71632 c 2.037956,-1.92767 1.927553,-1.98762 4.14618,2.25159 l 1.482316,2.83235 0.0144,-5.69601 c 0.01647,-5.88689 -0.518818,-9.58743 -1.973121,-13.65839 -1.226108,-3.43224 -7.226216,-13.78582 -8.87673,-15.31744 -1.480381,-1.37374 -5.301586,-2.54783 -10.100965,-3.10364 -3.86179,-0.44721 -8.924231,-1.590743 -10.867302,-2.454757 -0.911836,-0.40545 -3.060771,-1.859111 -4.77542,-3.230379 -2.590405,-2.07164 -3.649344,-2.586424 -6.262594,-3.04447 -5.793174,-1.0154 -8.842214,-3.240353 -10.461732,-7.634146 -0.918093,-2.490774 -2.490703,-4.02672 -5.456859,-5.329637 -6.477905,-2.845501 -8.264077,-5.408372 -8.7258,-12.520063 -0.309681,-4.770215 -0.408579,-5.082603 -2.629635,-8.306755 -3.347257,-4.858959 -3.857245,-7.873901 -2.200844,-13.010475 1.491063,-4.62386 1.673526,-10.011681 0.489076,-14.441162 -1.050519,-3.928569 -0.701979,-4.225901 4.184978,-3.570195 2.028384,0.272159 5.647739,1.185202 8.043004,2.028985 3.245435,1.143273 5.988499,1.69441 10.766204,2.163148 7.937313,0.778728 10.824329,1.973006 14.337953,5.931185 2.515835,2.834161 4.862648,4.36124 7.568683,4.924998 5.797456,1.207821 9.60485,4.513849 10.686408,9.279211 0.410164,1.807263 1.300122,3.62541 2.45837,5.022405 3.092489,3.729944 3.624973,4.897158 4.044069,8.864698 0.402446,3.809927 1.094011,5.521256 4.169993,10.319108 1.437302,2.241848 1.511131,2.656361 1.471448,8.261009 -0.03128,4.407744 -0.340245,6.915968 -1.221476,9.913247 -0.648836,2.206861 -1.181423,4.706142 -1.183523,5.553942 -0.002,0.965023 1.26896,3.701193 3.399783,7.316913 l 3.40357,5.77546 0.15025,-16.050008 c 0.169804,-18.136646 0.3061,-17.369583 -4.176867,-23.523609 -2.255016,-3.095604 -2.713425,-4.127882 -3.028622,-6.820123 -0.545143,-4.656261 -1.164381,-6.314743 -3.503332,-9.38271 -1.156786,-1.517356 -2.6574,-4.3987 -3.334702,-6.402987 -0.924577,-2.736061 -1.891409,-4.354078 -3.879884,-6.493159 -2.431263,-2.615415 -2.648427,-3.056851 -2.648427,-5.383626 0,-3.411869 1.189966,-6.121522 4.132841,-9.410847 2.644969,-2.956335 3.212052,-3.977606 4.080213,-7.34823 0.882219,-3.425163 2.938513,-5.95884 7.188715,-8.857621 2.16182,-1.474427 5.952728,-4.3714573 8.424269,-6.4378464 5.305023,-4.4354156 5.126555,-4.4674822 8.398809,1.5090446 1.800622,3.2887238 3.020559,4.7327928 6.467619,7.6559418 4.76211,4.038324 5.96252,6.316221 5.96252,11.314508 0,2.250986 0.37734,3.337538 2.23439,6.434163 1.87646,3.128997 2.23935,4.185578 2.26555,6.596064 0.0165,1.578623 -0.27985,3.833246 -0.66001,5.010255 -0.60162,1.862662 -1.10626,2.362084 -3.89371,3.853479 -5.01722,2.684445 -7.86507,6.977985 -9.19481,13.862553 -0.565579,2.928286 -1.121056,4.039013 -3.570059,7.138792 -1.595128,2.019007 -3.651999,5.108134 -4.570834,6.864709 l -1.670561,3.193768 v 18.423665 c 0,10.133024 0.159101,18.285714 0.353666,18.117094 0.884976,-0.76713 6.181211,-13.84428 6.181211,-15.26227 0,-0.87471 -0.646242,-3.872223 -1.436088,-6.66113 -1.108254,-3.91323 -1.436768,-6.256098 -1.439176,-10.263388 -0.0041,-6.253207 0.599975,-7.886051 4.727115,-12.784886 2.614666,-3.103561 3.105226,-4.060994 4.156616,-8.112567 0.65563,-2.526546 1.68268,-5.597868 2.28234,-6.825154 1.41771,-2.901541 4.90716,-5.650091 8.75921,-6.89943 4.48659,-1.455106 5.02655,-1.822625 8.79574,-5.986778 4.83247,-5.338897 7.09076,-6.33841 15.4452,-6.836035 4.26034,-0.253763 7.43759,-0.720177 9.62662,-1.413164 3.24274,-1.026563 12.35475,-1.84564 14.09445,-1.266947 0.70169,0.233404 0.57737,0.862445 -0.82869,4.193181 -2.14756,5.087295 -2.52514,9.293359 -1.30032,14.485491 1.51174,6.408608 0.69849,8.991926 -4.32064,13.724495 -3.2238,3.039759 -3.20971,3.01314 -4.35163,8.218617 -0.92005,4.194058 -2.7596,7.277921 -5.34746,8.964593 -0.96676,0.630093 -3.68338,1.835006 -6.03694,2.677575 -3.43322,1.229107 -4.56366,1.897078 -5.71802,3.37875 -6.37201,8.178902 -9.45837,9.848464 -21.24512,11.492587 -9.68603,1.35109 -10.97167,2.36311 -14.995973,11.80442 -3.755629,8.81094 -5.270115,15.81433 -5.610402,25.94403 -0.180713,5.38028 -0.0955,8.3239 0.232436,8.02501 1.117515,-1.01863 6.723616,-9.15748 7.191699,-10.44081 0.272961,-0.74836 0.64554,-2.94467 0.82794,-4.88069 0.39817,-4.22613 1.657,-8.70389 2.99173,-10.64172 6.9185,-10.04472 7.69319,-10.78126 12.69922,-12.0736 2.87434,-0.742 4.29451,-1.44686 6.27997,-3.11677 3.69036,-3.10385 6.02112,-3.90519 11.39483,-3.91764 3.16549,-0.007 5.28009,-0.28627 7.23577,-0.95447 3.52965,-1.20602 6.30708,-1.19457 9.91829,0.0409 1.58353,0.54175 5.01288,1.28466 7.62077,1.65091 4.91802,0.69067 9.45335,1.82977 10.65774,2.6768 0.53471,0.37604 -0.1663,1.2662 -3.02641,3.8431 -2.04729,1.84454 -4.02982,4.09722 -4.40564,5.00592 -1.50365,3.63562 -2.98487,5.62356 -5.23275,7.02291 -1.6501,1.02722 -2.89669,2.4031 -4.1746,4.60757 -2.14856,3.70638 -4.21764,5.08322 -9.57377,6.37064 -3.11556,0.7489 -4.14507,1.29218 -6.94131,3.6631 -5.61914,4.76437 -6.03393,4.83746 -24.25617,4.2748 -5.51342,-0.1702 -6.49207,-0.0809 -8.11523,0.74141 -2.30612,1.16822 -6.326723,7.09597 -8.541933,12.59374 -1.548303,3.84264 -1.57788,4.10131 -1.514671,13.24235 l 0.06442,9.32316 h -4.5572 -4.557187 z m 24.778064,-33.46932 c 3.25892,-1.40656 5.80314,-1.42428 12.16749,-0.0848 4.4351,0.93349 6.57485,1.17285 8.0944,0.90549 l 2.0656,-0.36341 -2.99514,-0.56926 c -1.64734,-0.31308 -4.57625,-1.0413 -6.5087,-1.61828 -2.47716,-0.73961 -4.44516,-1.00327 -6.672,-0.8939 -1.73716,0.0853 -3.15804,0.0884 -3.1575,0.007 0.002,-0.22033 3.14493,-2.47289 5.61833,-4.02603 4.88746,-3.06903 8.84375,-3.40016 17.16003,-1.43624 5.30636,1.25312 9.20079,1.32774 11.39779,0.21834 0.714,-0.36053 0.0647,-0.48317 -2.61607,-0.49396 -2.53124,-0.0107 -4.9014,-0.42256 -8.1686,-1.42123 -2.91864,-0.8921 -5.6986,-1.4114 -7.59787,-1.41927 l -2.99516,-0.0125 1.63373,-0.9663 c 0.89856,-0.53146 3.5275,-1.80463 5.84207,-2.82925 4.75803,-2.10627 6.7938,-2.29357 12.05024,-1.1087 3.79039,0.85442 8.71645,0.69351 9.88913,-0.32301 0.6633,-0.57496 0.2264,-0.671 -3.15895,-0.69435 -2.16079,-0.0143 -5.52157,-0.36309 -7.46844,-0.77377 l -3.53971,-0.7467 4.62887,-1.87457 c 2.54587,-1.03103 7.26874,-2.67839 10.49524,-3.66085 3.22652,-0.98245 5.7713,-1.86872 5.65505,-1.96946 -0.37612,-0.32606 -9.75368,1.66046 -14.65272,3.10398 -2.62076,0.77223 -4.76501,1.30283 -4.76501,1.17914 0,-0.67094 2.41266,-4.1623 3.87176,-5.60285 0.92775,-0.91594 1.47762,-1.66427 1.22195,-1.66298 -1.13814,0.005 -3.72554,2.39842 -5.82644,5.38792 -2.13506,3.03813 -2.60431,3.39979 -7.1567,5.51568 -2.67953,1.24541 -4.96085,2.18725 -5.06961,2.09296 -0.10868,-0.0942 0.16425,-0.66779 0.60669,-1.2745 0.44243,-0.6067 1.21887,-2.37764 1.72541,-3.93544 0.50653,-1.55778 1.43047,-3.55231 2.05321,-4.43224 0.80386,-1.13592 0.90835,-1.53587 0.36025,-1.37911 -1.5218,0.43522 -4.23292,4.15654 -4.89414,6.71774 -0.36639,1.41919 -1.18167,3.35839 -1.81172,4.30935 -1.36463,2.05965 -8.28629,6.58819 -7.72449,5.05378 0.19224,-0.52514 0.57587,-2.67454 0.85242,-4.77642 0.27656,-2.10187 0.75918,-4.23682 1.07252,-4.74433 0.89422,-1.44839 0.66767,-1.69562 -0.42004,-0.45838 -1.41652,1.61124 -2.14888,3.5501 -2.5649,6.79049 -0.50067,3.89974 -1.29546,5.264 -4.78074,8.20636 l -3.01065,2.54166 0.21494,-2.77768 c 0.11814,-1.52773 0.3223,-4.15847 0.45353,-5.84607 l 0.23859,-3.0684 -0.97261,1.65223 c -0.65749,1.11683 -1.05994,3.15706 -1.24205,6.29635 -0.26254,4.52598 -0.32668,4.71458 -2.52106,7.41185 -2.70965,3.33065 -2.86359,3.97448 -0.48181,2.01517 0.97344,-0.80076 2.50505,-1.77323 3.40359,-2.16104 z m -0.56292,-40.246554 c 2.39104,-1.014062 3.77388,-1.233888 8.6378,-1.373213 5.11143,-0.14648 6.08484,-0.315136 8.29471,-1.437747 2.9623,-1.504847 2.9415,-1.876684 -0.0533,-0.952062 -1.29508,0.399848 -4.37059,0.674376 -7.69417,0.686813 -4.25762,0.01605 -6.11448,0.235401 -8.03757,0.949956 l -2.50083,0.929243 0.89564,-1.519318 c 0.49262,-0.83561 1.94342,-2.93055 3.22405,-4.655422 2.01474,-2.713669 2.80121,-3.337892 5.83848,-4.634029 3.46152,-1.477177 3.61764,-1.497444 11.28253,-1.464651 8.14713,0.03479 11.07774,-0.3728 14.05927,-1.955616 2.36047,-1.253104 1.94459,-1.506008 -0.99709,-0.606329 -1.82975,0.559619 -4.40135,0.696286 -11.38485,0.605098 -8.29993,-0.108477 -9.22801,-0.03497 -11.60792,0.917574 -1.42269,0.56945 -2.58672,0.866905 -2.58672,0.660995 0,-0.205927 1.46589,-2.195603 3.25754,-4.421518 4.47813,-5.563577 5.86984,-6.127727 16.07424,-6.516032 8.66376,-0.329659 11.82713,-1.179917 15.02259,-4.0378 l 1.82347,-1.630828 -3.24632,1.524153 c -3.11163,1.460923 -3.58535,1.537856 -11.4179,1.854383 -4.49438,0.181609 -9.01305,0.558745 -10.04153,0.838055 -1.02845,0.279328 -1.94432,0.443363 -2.03527,0.364521 -0.21352,-0.185088 5.70267,-6.420079 7.15421,-7.53971 1.94295,-1.498693 5.35984,-2.609545 9.00391,-2.927232 5.88736,-0.513249 8.94344,-1.448184 10.83364,-3.31436 0.93033,-0.918502 1.69153,-1.760054 1.69153,-1.870119 0,-0.110082 -1.18371,0.437761 -2.63048,1.217349 -2.08006,1.120879 -3.58984,1.504046 -7.21558,1.831296 -2.52182,0.227606 -5.29302,0.649059 -6.15821,0.93654 -0.86523,0.287499 -1.66997,0.438761 -1.78836,0.336135 -0.36105,-0.312977 9.24133,-9.364564 14.0676,-13.260684 2.88085,-2.325614 3.87921,-3.347366 2.72988,-2.793796 -2.53356,1.220293 -8.39723,5.320289 -12.39894,8.6696 -1.85605,1.553449 -3.47818,2.824465 -3.60476,2.824465 -0.44882,0 0.78721,-6.868742 1.50781,-8.379031 0.4026,-0.8438 0.54457,-1.534181 0.31549,-1.534181 -1.00736,0 -2.83542,3.957799 -3.37163,7.299635 -0.32153,2.003966 -0.75234,4.036604 -0.95736,4.517006 -0.43285,1.014294 -6.69995,7.638767 -6.98935,7.387896 -0.10704,-0.09278 -0.22729,-3.017814 -0.26737,-6.500188 -0.0568,-4.934661 0.12555,-6.738106 0.82617,-8.174263 1.24414,-2.550044 0.71757,-2.66291 -0.93601,-0.200593 -1.92735,2.869979 -2.13375,3.918225 -2.2026,11.186208 l -0.061,6.435012 -2.93897,3.673422 c -1.61645,2.020398 -3.14806,3.785448 -3.40359,3.922347 -0.25553,0.136845 -0.46752,-0.878858 -0.47107,-2.257264 -0.004,-1.378387 -0.36824,-3.674509 -0.8104,-5.102478 -0.91999,-2.971105 -1.04801,-6.624472 -0.3103,-8.854225 0.67113,-2.028481 0.29735,-1.936793 -0.9748,0.239149 -1.74027,2.9766 -1.86973,5.137644 -0.58686,9.795225 1.59206,5.780138 1.25626,8.261509 -1.73039,12.78642 -1.27045,1.924786 -2.45,3.497789 -2.62122,3.495594 -0.17125,-0.0018 -0.3639,-1.145733 -0.4282,-2.541176 -0.0642,-1.395462 -0.73818,-3.968075 -1.49756,-5.716925 -0.86415,-1.990121 -1.3869,-4.174163 -1.39725,-5.837837 -0.0185,-2.92081 -0.69663,-2.575896 -1.31252,0.667257 -0.27003,1.422028 -0.002,2.867553 1.04818,5.664703 0.77591,2.065519 1.54849,5.242463 1.71685,7.059896 0.29606,3.19598 0.22873,3.436075 -2.05133,7.316905 l -2.35744,4.0125 -0.39083,-2.596325 c -0.21496,-1.427986 -1.25128,-4.720597 -2.30291,-7.316905 l -1.9121,-4.720596 -0.0227,2.632954 c -0.0144,1.792757 0.4332,3.600395 1.40594,5.664701 1.99551,4.234808 2.26397,7.991549 0.80697,11.292777 -1.66547,3.773594 -1.41652,3.908544 1.10178,0.597229 1.75922,-2.313179 2.84779,-3.201673 5.08517,-4.150559 z m -35.820077,3.199281 c -0.664375,-1.233245 -2.368507,-4.080584 -3.786956,-6.327428 -3.251569,-5.150472 -3.33005,-6.796839 -0.637825,-13.381008 1.996441,-4.882582 2.613683,-9.694117 1.38068,-10.762935 -0.435644,-0.377653 -0.602546,0.117933 -0.611952,1.817433 -0.0082,1.414694 -0.555824,3.454255 -1.388872,5.169027 -1.733317,3.567978 -2.916367,8.201722 -2.545762,9.971269 0.370543,1.769207 0.03643,1.459066 -3.171463,-2.944718 -2.612798,-3.586747 -2.683292,-3.778723 -2.683292,-7.308465 0,-2.575878 0.422307,-4.83564 1.459201,-7.808279 1.717963,-4.925098 2.033037,-10.771659 0.716943,-13.303702 -0.796617,-1.532627 -0.815635,-1.469717 -0.856799,2.832352 -0.03375,3.516398 -0.353604,5.205424 -1.593502,8.412288 -1.143593,2.95776 -1.54927,4.912127 -1.543301,7.434927 0.0041,1.882322 -0.136254,3.416395 -0.312501,3.409026 -0.294862,-0.01249 -2.42303,-2.792904 -5.291357,-6.91347 -1.694889,-2.434841 -1.952374,-5.309816 -0.960102,-10.720061 0.991696,-5.407196 0.728407,-8.931336 -0.862294,-11.541613 -1.243007,-2.039721 -1.278655,-1.948391 -0.542838,1.39068 0.433442,1.966892 0.356465,3.69542 -0.339875,7.632593 -0.495128,2.799434 -0.783239,6.145141 -0.640275,7.434927 0.143047,1.289785 0.210249,2.345044 0.149428,2.345044 -0.153338,0 -7.073207,-8.09842 -7.663878,-8.969106 -0.264214,-0.389446 -0.608844,-3.788268 -0.765846,-7.552913 -0.255694,-6.131385 -0.419632,-7.031974 -1.572858,-8.639911 -1.465808,-2.043795 -2.042442,-2.064901 -1.11027,-0.04068 0.508404,1.104001 1.208963,13.401115 0.763459,13.401115 -0.06957,0 -2.289491,-2.283579 -4.933328,-5.074627 C 27.98364,40.329185 20.702922,33.361478 20.122337,33.35609 c -0.220272,-0.002 3.034817,3.954575 7.233543,8.792491 4.198726,4.837905 7.564712,8.849317 7.479975,8.914261 -0.350146,0.268284 -10.110762,-2.053958 -11.866885,-2.823376 -1.045847,-0.458208 -2.619529,-1.393053 -3.497075,-2.077403 l -1.595559,-1.244254 1.140155,1.652202 c 1.568021,2.272215 4.026061,3.636382 8.553939,4.74727 9.836483,2.413325 9.273886,2.134853 13.12687,6.497583 1.943668,2.200831 3.447452,4.076481 3.34172,4.168134 -0.105793,0.0917 -1.396653,-0.150049 -2.868739,-0.537193 -1.472086,-0.387109 -3.918065,-0.706116 -5.435495,-0.708935 -4.389235,-0.009 -8.984189,-0.914649 -12.173478,-2.401655 -1.62353,-0.756965 -3.044326,-1.296156 -3.157343,-1.198187 -0.112997,0.09795 0.820966,0.939716 2.075476,1.870546 2.987129,2.216388 6.232195,3.101402 13.125759,3.579682 8.23232,0.571181 10.566969,1.562834 14.330976,6.087173 1.63094,1.960415 2.863984,3.652279 2.740058,3.759685 -0.123905,0.107406 -1.442675,-0.155221 -2.930589,-0.583598 -2.17034,-0.624883 -4.465595,-0.751077 -11.607465,-0.638175 -8.294498,0.131135 -9.085166,0.06762 -11.583404,-0.931099 -2.437087,-0.974221 -2.594727,-0.988941 -1.731032,-0.161644 0.522626,0.500599 2.219306,1.394783 3.770388,1.987105 2.560498,0.977773 3.672641,1.079862 12.077935,1.10857 8.949735,0.03051 9.349792,0.07368 12.024811,1.294567 2.043101,0.932508 3.574753,2.204987 5.854159,4.863544 1.697895,1.980327 3.087097,3.683484 3.087097,3.784806 0,0.10134 -0.91898,-0.162894 -2.042154,-0.58697 -1.465706,-0.553518 -3.271885,-0.731933 -6.398747,-0.632091 -8.920447,0.284858 -12.568781,0.261682 -14.158886,-0.08992 -1.51745,-0.335565 -1.560137,-0.311407 -0.599685,0.339454 0.568729,0.385396 2.254152,1.052011 3.745379,1.481351 2.367663,0.681709 3.426149,0.710916 8.35147,0.230495 8.697705,-0.848385 11.48712,0.143446 15.971425,5.678494 1.5178,1.873491 2.673742,3.480804 2.568752,3.571796 -0.104969,0.091 -1.024957,-0.131493 -2.044356,-0.494534 -1.067872,-0.380257 -4.555211,-0.745563 -8.22771,-0.861873 -5.864409,-0.185713 -6.278236,-0.143624 -5.174099,0.526809 0.803841,0.488074 3.088352,0.820641 6.918799,1.007247 6.57316,0.320202 8.884571,1.026015 11.177871,3.413255 2.228979,2.320314 2.607364,2.163874 1.179077,-0.487468 z m 1.222753,-10.695208 c 0.618435,-1.533537 1.104507,-3.551581 1.080158,-4.484553 -0.0389,-1.490254 -0.207078,-1.266252 -1.384365,1.844106 -0.737052,1.947249 -1.445329,4.814997 -1.573968,6.372799 -0.208087,2.519963 -0.179478,2.624104 0.259933,0.944124 0.271604,-1.038541 0.999806,-3.142956 1.618242,-4.676476 z M 89.365051,66.754425 c 0.461701,-1.212674 2.013133,-2.810673 4.993881,-5.143746 2.378263,-1.861483 4.218772,-3.475826 4.09005,-3.587425 -0.569923,-0.494033 -6.412206,3.328633 -7.734618,5.060836 -0.804253,1.053492 -1.523975,1.858005 -1.599367,1.787817 -0.07533,-0.07012 -0.0041,-2.114531 0.158483,-4.543003 0.262939,-3.928699 0.481913,-4.65717 1.986623,-6.608825 1.09893,-1.425329 3.306277,-3.146685 6.303471,-4.91566 5.691556,-3.359177 7.882456,-5.170793 9.280156,-7.67361 1.60196,-2.868552 1.31424,-3.558375 -0.46806,-1.122201 -1.7149,2.34401 -3.96983,4.011823 -9.466593,7.001626 -2.016385,1.096776 -4.475742,2.838953 -5.465235,3.871552 l -1.799078,1.877452 0.199031,-3.448634 c 0.309043,-5.357025 0.89074,-6.685259 4.078792,-9.313521 8.958933,-7.385875 9.367043,-7.794911 10.279703,-10.303123 0.49597,-1.363068 0.84868,-2.478309 0.78381,-2.478309 -0.0649,0 -1.05373,1.253443 -2.19744,2.785428 -1.31415,1.760242 -3.477506,3.706718 -5.877854,5.288566 -2.089081,1.376727 -4.409755,3.256578 -5.157037,4.177436 l -1.358698,1.674308 0.365726,-4.694091 c 0.419694,-5.387062 0.940303,-6.472928 4.698526,-9.799992 2.961256,-2.621531 3.960856,-4.026633 4.549117,-6.394517 0.50437,-2.030235 0.0253,-1.9437 -1.15271,0.208214 -0.524622,0.958323 -2.378778,3.029482 -4.120349,4.602572 l -3.166502,2.860165 0.330531,-6.844848 c 0.181742,-3.764667 0.413107,-7.535236 0.514001,-8.37904 0.100853,-0.843805 -0.01235,-1.53419 -0.249375,-1.53419 -0.238055,0 -0.838296,2.814648 -1.333855,6.254775 -0.49556,3.440127 -1.038666,7.193283 -1.206905,8.340347 l -0.305873,2.085571 -1.575965,-2.498105 c -0.866762,-1.373959 -1.863212,-2.798165 -2.214347,-3.164904 -0.351112,-0.36674 -1.073901,-1.774295 -1.6062,-3.127904 l -0.9678,-2.461108 -0.03828,1.98333 c -0.02943,1.527062 0.617489,3.047422 2.812034,6.608818 l 2.850215,4.625492 -0.141606,4.903578 c -0.0778,2.696969 -0.280948,5.0991 -0.451328,5.338089 -0.170421,0.23897 -0.807875,-0.374441 -1.416638,-1.363151 -0.608783,-0.988698 -2.010499,-2.753555 -3.114965,-3.9219 -3.277585,-3.467166 -4.230669,-4.835039 -5.437058,-7.80322 l -1.145385,-2.818097 0.233301,2.649519 c 0.276873,3.144167 1.988064,6.229874 5.467088,9.858495 3.968204,4.138833 4.365031,5.145098 4.561674,11.566962 l 0.173509,5.664702 -1.697669,-2.296568 c -0.933718,-1.263095 -3.983581,-4.367227 -6.777462,-6.898074 -3.687009,-3.33989 -5.402049,-5.298825 -6.255144,-7.144625 l -1.175331,-2.543065 0.282369,2.243788 c 0.423954,3.368849 1.942,5.473443 7.294837,10.113503 2.82815,2.45154 5.456612,5.232918 6.285974,6.651663 1.268179,2.169393 1.425386,2.984593 1.425386,7.391339 0,2.72416 0.2969,6.608004 0.659765,8.630759 l 0.659745,3.677738 0.343601,-2.599893 c 0.188945,-1.429949 0.644987,-3.391542 1.013368,-4.359091 z m -5.686188,-5.096751 c -1.426454,-1.784265 -3.997676,-3.758222 -4.895394,-3.758222 -0.211895,0 1.05122,1.348574 2.80693,2.996833 1.755711,1.648258 3.289853,2.926662 3.409231,2.840897 0.119377,-0.08582 -0.474978,-1.021538 -1.320767,-2.079508 z M 13.813288,162.0902 c -0.832018,-0.86905 -1.720864,-6.1189 -1.735601,-10.2511 -0.0062,-1.94723 -0.367662,-4.815 -0.801578,-6.37278 -1.5381139,-5.52184 -0.795464,-10.35776 2.097377,-13.65729 1.99572,-2.2763 2.9331,-4.11219 3.850577,-7.54153 1.447161,-5.4091 4.728225,-8.34341 11.395652,-10.19134 1.158557,-0.3211 3.418678,-1.61393 5.022512,-2.87296 1.603833,-1.25905 3.899932,-2.72425 5.102452,-3.25604 6.422498,-2.84021 16.452494,-1.00678 23.131468,4.22832 3.512038,2.7528 4.744547,3.31512 7.266125,3.31512 8.969391,0 13.778094,4.90303 11.351997,11.57468 -1.262826,3.47269 -4.308347,6.24011 -9.815921,8.91963 -4.323063,2.10322 -4.849619,2.5266 -6.993717,5.62338 -3.162305,4.56735 -5.447371,5.89279 -11.493892,6.6669 -4.863163,0.62264 -5.824727,1.03172 -11.123905,4.73254 -2.56587,1.79193 -5.232676,2.60121 -8.584996,2.6052 -2.966361,0.004 -8.208835,1.22915 -10.493655,2.4532 -1.025636,0.54949 -2.953826,1.81608 -4.284862,2.81469 -2.651885,1.98957 -3.030393,2.10724 -3.890033,1.20938 z m 11.041062,-17.03281 2.69768,-3.36754 0.471642,1.88822 c 0.2594,1.03855 0.378674,3.09723 0.265038,4.57489 -0.113614,1.47763 -0.02614,2.58992 0.194503,2.47172 0.971835,-0.52064 1.676367,-3.77197 1.359832,-6.27548 -0.459665,-3.63547 0.03334,-4.82616 3.490159,-8.42947 2.660014,-2.77274 2.998798,-2.98605 3.134539,-1.9737 0.08377,0.62424 0.538576,2.56753 1.010816,4.31841 0.539915,2.00175 0.784865,4.59164 0.659889,6.9772 -0.160747,3.06666 -0.07183,3.64319 0.464028,3.00807 0.364532,-0.43216 0.958475,-1.93099 1.319839,-3.33077 0.551029,-2.13434 0.510749,-3.13525 -0.24956,-6.20227 -0.498647,-2.01146 -0.90663,-4.60621 -0.90663,-5.7661 0,-1.98874 0.206008,-2.27721 3.616186,-5.06383 1.988887,-1.62524 3.826823,-2.95498 4.084288,-2.95498 0.257463,0 0.468123,0.84723 0.468123,1.88272 0,1.08666 0.828911,3.61849 1.960443,5.98801 1.76277,3.69133 1.940169,4.45349 1.759291,7.55846 -0.110732,1.89923 -0.12267,3.45317 -0.02655,3.45317 0.09592,0 0.529582,-0.73668 0.963581,-1.63705 1.359995,-2.82152 0.998137,-6.29602 -1.160327,-11.14075 -2.817612,-6.32424 -2.149409,-7.9886 4.199013,-10.45892 l 1.977341,-0.76941 0.300378,1.60445 c 0.165276,0.88246 1.065689,2.56872 2.001113,3.74725 2.377996,2.99607 3.273861,5.06095 3.273861,7.54588 0,2.71843 0.910828,2.78441 1.375287,0.0996 0.464131,-2.68286 -0.417429,-5.35843 -2.722646,-8.26341 -1.032367,-1.30093 -2.026964,-2.88321 -2.210228,-3.51614 -0.407201,-1.4064 0.847804,-2.63415 3.089998,-3.02287 0.868676,-0.15057 1.711294,-0.45881 1.872495,-0.68492 0.463719,-0.65037 -3.598608,-0.47887 -7.035069,0.29701 -4.411958,0.99616 -7.216521,0.88597 -12.015776,-0.47205 -4.505463,-1.2749 -8.338071,-1.49376 -11.271315,-0.64367 -3.089566,0.89542 -2.798264,1.12315 1.224277,0.95709 2.980254,-0.1231 4.85674,0.11545 8.359744,1.06214 2.484303,0.67141 5.04688,1.22077 5.694625,1.22077 1.662493,0 1.108892,0.5188 -2.809338,2.63271 l -3.428969,1.84994 -8.168596,0.24863 c -7.30058,0.22223 -8.411859,0.36822 -10.4578,1.37377 -3.204004,1.57468 -3.481968,2.5681 -0.386474,1.38115 2.541337,-0.97447 5.223538,-1.18393 12.477993,-0.97449 l 4.356591,0.12579 -4.135928,3.46488 c -3.905778,3.27208 -4.33,3.49433 -7.62403,3.99427 -6.988121,1.06057 -10.219335,2.47648 -12.164011,5.33019 l -1.029053,1.51007 2.12963,-1.48061 c 2.534688,-1.76227 5.493865,-2.72935 9.767943,-3.19225 l 3.141352,-0.34024 -1.735087,2.06934 c -4.033224,4.81019 -6.841349,8.76892 -8.831141,12.44964 -1.165699,2.15631 -2.114543,4.10169 -2.108532,4.32307 0.0062,0.22138 1.047515,-1.05608 2.314437,-2.83878 1.266923,-1.78271 3.517451,-4.75667 5.001188,-6.60882 z m 47.675334,-18.7329 c 0,-1.31105 -0.367332,-2.99947 -0.816272,-3.75206 -0.746911,-1.25201 -3.967319,-3.77742 -4.816997,-3.77742 -0.893828,0 -0.205,1.36481 1.325314,2.62602 2.224163,1.83301 3.218823,3.56706 3.218823,5.61156 0,0.92161 0.245053,1.67565 0.544566,1.67565 0.299514,0 0.544566,-1.07269 0.544566,-2.38375 z M 55.459763,113.84775 c -2.512008,-1.9235 -6.181006,-3.08995 -9.575026,-3.04411 l -2.489716,0.0337 3.267439,0.83987 c 1.797101,0.46194 4.701406,1.50893 6.454049,2.32667 4.111252,1.91821 4.976881,1.86056 2.343254,-0.15611 z"
       id="path1" /></g></svg>
