<?xml version="1.0" encoding="UTF-8" standalone="no"?>
<!-- Created with Inkscape (http://www.inkscape.org/) -->

<svg
   width="180mm"
   height="180mm"
   viewBox="0 0 180 180"
   version="1.1"
   id="svg1"
   sodipodi:docname="edelweiss.svg"
   inkscape:version="1.4.2 (f4327f4, 2025-05-13)"
   xml:space="preserve"
   xmlns:inkscape="http://www.inkscape.org/namespaces/inkscape"
   xmlns:sodipodi="http://sodipodi.sourceforge.net/DTD/sodipodi-0.dtd"
   xmlns="http://www.w3.org/2000/svg"
   xmlns:svg="http://www.w3.org/2000/svg"><sodipodi:namedview
     id="namedview1"
     pagecolor="#505050"
     bordercolor="#ffffff"
     borderopacity="1"
     inkscape:showpageshadow="0"
     inkscape:pageopacity="0"
     inkscape:pagecheckerboard="1"
     inkscape:deskcolor="#505050"
     inkscape:document-units="mm"
     inkscape:zoom="1"
     inkscape:cx="73"
     inkscape:cy="204"
     inkscape:window-width="2560"
     inkscape:window-height="1351"
     inkscape:window-x="-9"
     inkscape:window-y="-9"
     inkscape:window-maximized="1"
     inkscape:current-layer="layer1"
     showguides="true" /><defs
     id="defs1"><rect
       x="101.82338"
       y="91.923881"
       width="384.66609"
       height="299.81327"
       id="rect3" /><rect
       x="2.8284271"
       y="2.1213203"
       width="662.55905"
       height="647.0027"
       id="rect2" /></defs><g
     inkscape:label="Icon"
     inkscape:groupmode="layer"
     id="layer1"><path
       style="fill:#000000;stroke-width:4.08029"
       d="m 88.631488,171.8578 c -2.87971,-3.0735 -9.517633,-17.79448 -11.606816,-25.74051 -1.799476,-6.84428 -3.424373,-10.416 -3.424373,-7.52733 0,0.68938 -1.580349,2.1817 -3.51185,3.31628 -4.812457,2.82681 -6.519766,1.34844 -5.635908,-4.88002 l 0.667637,-4.70493 -7.826724,4.35854 c -4.304703,2.39716 -11.046377,7.17681 -14.981577,10.62137 -7.722972,6.76015 -11.633511,8.44019 -14.429273,6.19906 -2.773178,-2.22304 -1.294795,-9.35221 4.221419,-20.35686 2.695416,-5.37723 7.474367,-13.05578 10.61987,-17.06344 3.145503,-4.00766 5.406276,-7.58857 5.023945,-7.95758 -0.382373,-0.36893 -6.807894,-0.67089 -14.279023,-0.67089 -8.767876,0 -14.031416,-0.43233 -14.846356,-1.21947 -3.440814,-3.32333 3.560467,-8.90624 17.190204,-13.70774 4.470854,-1.575009 8.115102,-3.157798 8.09837,-3.517264 C 43.894427,88.647711 36.890696,84.772465 28.347512,80.395795 19.804369,76.019166 11.167604,70.94951 9.1547296,69.129965 3.3298363,63.864495 4.6083975,58.737214 11.736389,58.776994 c 7.929022,0.04411 38.249637,3.396319 41.419884,4.57914 1.745214,0.651161 3.350764,1.012351 3.567898,0.802663 0.217135,-0.209729 -1.782869,-5.116975 -4.444407,-10.905041 -6.029947,-13.113367 -6.852152,-16.582109 -4.474757,-18.878375 2.306567,-2.227895 4.249609,-1.239163 13.05128,6.641216 3.686305,3.300437 8.242352,7.052092 10.124489,8.33693 l 3.42209,2.336087 0.586762,-6.601797 c 0.67677,-7.615311 5.065628,-21.68172 9.754197,-31.262704 2.407329,-4.9193178 3.958533,-6.7976113 6.028203,-7.2993557 4.636507,-1.1239925 5.918888,1.3568594 7.62956,14.7599167 1.957492,15.33709 3.563202,20.369572 6.516232,20.422867 3.38892,0.06095 4.93211,1.429041 4.93211,4.371977 0,2.470346 0.67129,2.089667 8.06262,-4.571921 11.97105,-10.78919 21.59617,-14.636686 21.59617,-8.632795 0,1.166179 -2.47488,7.0395 -5.49969,13.051851 -3.02485,6.012352 -5.80779,12.419418 -6.18435,14.237921 -0.65103,3.144244 -0.55442,3.258612 1.9697,2.331676 5.75344,-2.112845 26.97014,-5.651081 34.14642,-5.694471 9.13841,-0.05534 11.80469,1.617116 10.08932,6.328308 -0.76943,2.113206 -4.45346,4.99587 -13.24205,10.361472 -11.00012,6.715804 -25.48246,17.227173 -25.59132,18.574328 -0.0249,0.291936 5.4194,3.154751 12.09548,6.362194 12.8997,6.197449 15.94834,8.473389 14.89659,11.120819 -1.24145,3.12476 -6.25489,3.98336 -19.11008,3.27273 -6.79677,-0.37575 -12.35782,-0.37936 -12.35782,-0.008 0,0.37133 0.92703,1.94257 2.06004,3.49152 1.13304,1.54898 4.04912,6.63596 6.48024,11.30437 2.43107,4.66844 6.96321,11.8045 10.07134,15.85792 6.77481,8.83522 6.96969,11.57156 0.85883,12.05915 -5.5312,0.44135 -13.1053,-3.04688 -25.73327,-11.85135 -5.5591,-3.87593 -10.42208,-7.04716 -10.80666,-7.04716 -0.38444,0 -0.38652,1.79048 -0.004,3.97879 0.46902,2.68573 0.18683,4.64924 -0.86874,6.04183 -1.52273,2.00922 -1.64587,2.01251 -4.71751,0.12471 -1.73471,-1.06613 -4.3874,-3.41292 -5.89493,-5.21506 l -2.740959,-3.27666 -0.699149,3.15198 c -0.384448,1.73361 -0.757563,9.14405 -0.829055,16.46766 -0.08594,8.78767 -0.578209,13.74857 -1.448117,14.58885 -1.930463,1.86458 -5.767932,1.55363 -7.817092,-0.63344 z m 0.237063,-33.3344 c 0.3147,-10.81514 0.696574,-11.71886 5.843037,-13.82825 2.488453,-1.01997 4.627415,-1.73614 4.753253,-1.59149 0.125797,0.14476 1.356159,2.41148 2.734109,5.03745 3.13587,5.9761 3.83564,4.37126 1.64167,-3.7648 -3.17577,-11.77672 -1.93723,-12.70185 6.32314,-4.72323 3.02078,2.91776 5.70221,5.30501 5.9587,5.30501 0.25658,0 0.12455,-1.07427 -0.29353,-2.38725 -0.75291,-2.36589 -0.73144,-2.36352 2.39754,0.26506 1.73649,1.45888 5.52235,5.03978 8.41307,7.95754 l 5.25586,5.30505 -2.3725,-4.72724 c -1.30484,-2.59995 -5.05687,-7.44556 -8.33784,-10.76797 l -5.96535,-6.04075 2.73457,-2.64133 c 1.50404,-1.4527 3.07235,-4.3802 3.48511,-6.50548 0.56351,-2.90139 1.19748,-3.7381 2.54438,-3.35814 0.98661,0.2783 3.77108,0.81193 6.18771,1.18575 2.41667,0.37374 5.25897,0.90893 6.31625,1.18908 1.05727,0.2803 1.92232,0.10426 1.92232,-0.39059 0,-0.9121 -3.13641,-2.29474 -12.08322,-5.326779 -6.67197,-2.261098 -11.40891,-6.048523 -9.48936,-7.58728 2.40538,-1.928179 8.68638,-4.069576 14.17913,-4.834103 7.16461,-0.997233 5.46129,-2.715082 -2.69213,-2.715082 -5.63815,0 -6.46123,-0.231784 -5.36223,-1.510968 1.28533,-1.495929 16.3462,-9.006055 22.46562,-11.202511 1.74521,-0.626418 2.87639,-1.425632 2.51365,-1.775995 -1.07089,-1.034327 -10.60534,1.627541 -18.78492,5.244496 -5.82535,2.575932 -7.72176,3.027109 -8.10123,1.927458 -0.61425,-1.779886 -3.27093,-4.351687 -6.79806,-6.580905 l -2.68487,-1.696876 4.06818,-2.547179 c 4.42926,-2.773229 5.39059,-4.713318 1.89846,-3.831215 -2.79863,0.706861 -2.73029,0.105867 0.57787,-5.081967 6.25485,-9.808959 0.49634,-5.598749 -7.75066,5.666761 -2.84625,3.887998 -6.35125,7.926054 -7.7889,8.973494 -2.54691,1.855636 -2.613918,1.847896 -2.613918,-0.301159 0,-1.213098 -0.73311,-3.90039 -1.629132,-5.97177 -1.672891,-3.867185 -1.419637,-5.210892 3.37679,-17.91635 1.48793,-3.941373 -4.548445,2.307776 -6.717963,6.954766 -1.074796,2.302202 -2.311632,4.185789 -2.748517,4.185789 -1.363214,0 -2.167442,-6.23006 -2.167442,-16.790433 0,-6.790553 -0.365351,-9.806393 -1.101367,-9.095321 -1.553404,1.500421 -3.164185,15.123993 -2.480647,20.981194 0.530879,4.549505 0.392336,4.90456 -1.912403,4.90456 -1.406268,0 -4.024587,1.577094 -6.032645,3.633597 l -3.547929,3.633597 -5.328265,-5.225088 c -2.930569,-2.873802 -5.736005,-5.225128 -6.234377,-5.225128 -0.49833,0 1.101366,2.855236 3.554862,6.34495 6.349088,9.030598 6.464713,9.569396 2.054682,9.574128 -3.802594,0.004 -10.827623,3.40887 -10.827623,5.247784 0,0.5714 -2.348001,0.06657 -5.217747,-1.121827 -6.044021,-2.502867 -18.925328,-5.567149 -19.810141,-4.712516 -0.845662,0.816819 -0.898264,0.791315 11.182842,5.428561 l 10.870635,4.172595 1.479297,4.903557 c 0.813652,2.696957 2.224362,5.500783 3.134916,6.230702 0.910595,0.72996 1.655619,1.677107 1.655619,2.104784 0,0.427678 -3.83095,1.578458 -8.513168,2.557285 -12.393856,2.590929 -13.656807,3.973538 -3.292889,3.604808 l 8.515743,-0.303168 0.0042,3.713514 c 0.0023,2.04247 0.769935,5.13197 1.705856,6.86562 l 1.701662,3.15211 -6.537286,5.86646 c -6.189828,5.55468 -11.159718,11.53002 -11.159718,13.41741 0,0.47155 2.347959,-1.32273 5.217747,-3.98729 9.10815,-8.45691 15.591256,-12.58222 19.773399,-12.58222 3.201261,0 3.675013,0.29434 2.989108,1.8568 -2.526731,5.75554 -3.717069,9.58074 -3.714495,11.93632 0.0024,2.13915 0.545909,1.62581 2.808509,-2.65253 1.543067,-2.91775 3.565573,-6.46317 4.494519,-7.87869 l 1.688958,-2.57365 2.031142,3.82412 c 1.117142,2.10326 3.026099,4.12912 4.242136,4.5019 1.949934,0.59779 2.210952,1.59326 2.210952,8.43125 0,14.73076 2.777579,19.6743 3.185111,5.66885 z m -2.854883,-17.29543 c -3.524554,-1.43141 -4.724108,-3.35281 -4.724108,-7.56695 0,-5.36207 1.602436,-6.55231 8.428224,-6.26029 5.803346,0.24822 6.389983,0.51072 7.864588,3.51814 1.443301,2.94366 1.395971,3.57645 -0.502482,6.71617 -2.49821,4.13161 -6.522588,5.43822 -11.066222,3.59293 z m -20.50381,-11.20099 c -5.930347,-4.50567 -2.690019,-14.777071 4.661708,-14.777071 2.470019,0 3.457629,0.689016 4.51208,3.147853 0.742451,1.731318 2.0382,3.699558 2.879462,4.373938 0.84122,0.67434 1.529532,2.0879 1.529532,3.1412 0,2.44656 -5.045825,6.31311 -8.238574,6.31311 -1.347438,0 -3.752359,-0.98954 -5.344208,-2.19903 z m 38.106032,0.31881 c -3.43438,-2.63496 -3.42467,-4.38168 0.056,-10.05598 2.55821,-4.17051 3.64176,-5.039781 6.28246,-5.039781 4.39654,0 7.58493,3.365281 7.58493,8.005771 0,7.28845 -8.21338,11.47083 -13.92335,7.08999 z m -20.259567,-8.20247 c -2.92596,-1.53587 -6.460645,-7.338974 -6.460645,-10.606809 0,-3.38862 3.589197,-9.1108 6.684423,-10.656816 8.934608,-4.462686 18.580489,1.648233 18.580489,11.771224 0,5.612584 -5.816425,11.103781 -11.698778,11.044671 -2.325996,-0.0241 -5.523479,-0.7219 -7.105489,-1.55227 z M 62.695246,88.210409 c -4.749185,-5.831697 -1.466052,-13.543932 5.76569,-13.543932 4.007772,0 8.434742,2.76986 8.434742,5.27742 0,0.737578 -0.716211,2.692745 -1.591558,4.344829 -0.875347,1.652083 -1.848467,3.839315 -2.162461,4.860529 -0.94468,3.072382 -7.672156,2.467739 -10.446413,-0.938846 z m 42.921014,-1.183182 c -0.63421,-1.604764 -2.02171,-4.213057 -3.08335,-5.796207 -1.88147,-2.80571 -1.86411,-2.946465 0.6879,-5.570317 4.69766,-4.829892 12.14023,-3.231023 14.29343,3.070618 1.00903,2.953122 0.92807,4.256887 -0.42065,6.776116 -2.88494,5.38858 -9.5971,6.27742 -11.47733,1.51979 z M 79.707301,74.859163 c -3.950852,-5.44821 0.345422,-12.924772 7.426873,-12.924772 5.397267,0 8.435572,2.864619 8.435572,7.953283 0,4.450095 -0.908104,5.350083 -5.925032,5.872239 -1.876616,0.195292 -4.494768,0.604082 -5.818126,0.908409 -1.670441,0.384168 -2.929946,-0.169227 -4.119287,-1.809159 z"
       id="path1" /></g></svg>
