<?xml version="1.0" encoding="UTF-8" standalone="no"?>
<!-- Created with Inkscape (http://www.inkscape.org/) -->

<svg
   width="180mm"
   height="180mm"
   viewBox="0 0 180 180"
   version="1.1"
   id="svg1"
   sodipodi:docname="forget_me_not.svg"
   inkscape:version="1.4.2 (f4327f4, 2025-05-13)"
   xml:space="preserve"
   xmlns:inkscape="http://www.inkscape.org/namespaces/inkscape"
   xmlns:sodipodi="http://sodipodi.sourceforge.net/DTD/sodipodi-0.dtd"
   xmlns="http://www.w3.org/2000/svg"
   xmlns:svg="http://www.w3.org/2000/svg"><sodipodi:namedview
     id="namedview1"
     pagecolor="#505050"
     bordercolor="#ffffff"
     borderopacity="1"
     inkscape:showpageshadow="0"
     inkscape:pageopacity="0"
     inkscape:pagecheckerboard="1"
     inkscape:deskcolor="#505050"
     inkscape:document-units="mm"
     inkscape:zoom="1"
     inkscape:cx="73"
     inkscape:cy="204"
     inkscape:window-width="2560"
     inkscape:window-height="1351"
     inkscape:window-x="-9"
     inkscape:window-y="-9"
     inkscape:window-maximized="1"
     inkscape:current-layer="layer1"
     showguides="true" /><defs
     id="defs1"><rect
       x="101.82338"
       y="91.923881"
       width="384.66609"
       height="299.81327"
       id="rect3" /><rect
       x="2.8284271"
       y="2.1213203"
       width="662.55905"
       height="647.0027"
       id="rect2" /></defs><g
     inkscape:label="Icon"
     inkscape:groupmode="layer"
     id="layer1"><path
       style="fill:#000000;stroke-width:4.29385"
       d="m 51.293705,175.19735 c -0.990224,-0.60244 -0.711895,-3.50381 1.061979,-11.07011 2.068582,-8.82331 2.202827,-10.89544 0.962249,-14.85407 -1.467045,-4.68142 -2.719084,-6.07761 -12.153014,-13.55205 -4.839969,-3.83468 -13.510141,-16.3409 -13.510141,-19.48755 0,-1.70629 1.883967,-1.61682 9.100708,0.43215 10.35411,2.9397 16.621117,9.74008 19.406599,21.05818 l 1.36692,5.5542 1.910403,-6.03353 c 2.231197,-7.04649 2.429646,-13.78347 0.609618,-20.69389 -1.003705,-3.81088 -0.971208,-5.31883 0.142283,-6.6015 2.314722,-2.66647 3.082035,-2.01285 4.894641,4.16947 l 1.709802,5.83188 3.226339,-6.10961 c 3.928396,-7.43904 3.372792,-6.86528 5.789307,-5.97874 2.524412,0.92613 2.162339,2.4521 -3.790725,15.97627 -5.1428,11.68341 -8.659984,22.22086 -7.412906,22.20915 0.444808,-0.004 2.066738,-1.77351 3.604265,-3.9318 4.183538,-5.87273 10.993413,-10.51582 18.853499,-12.85465 7.972769,-2.37232 21.922229,-2.8656 21.922229,-0.77515 0,2.00022 -10.912524,11.62526 -15.98559,14.09961 -2.46785,1.20369 -7.831058,3.01695 -11.91816,4.02949 -4.087102,1.01254 -8.865151,2.54992 -10.617814,3.41648 -5.050406,2.49689 -8.962466,8.3915 -11.070966,16.68165 -2.259784,8.88465 -4.164523,10.87937 -8.101481,8.48412 z m 46.759266,-62.55248 c -1.654427,-1.87976 -3.00804,-4.62176 -3.00804,-6.09327 v -2.67554 l -3.776189,2.2012 c -5.013957,2.9227 -9.337976,2.78436 -13.238926,-0.42367 -5.823693,-4.78915 -3.560833,-13.589837 4.234215,-16.467572 l 2.904754,-1.072365 -3.166,-1.598093 c -3.945962,-1.991738 -5.548263,-4.770264 -5.548263,-9.621013 0,-7.808547 9.315142,-11.46547 16.417618,-6.445147 3.982894,2.815262 4.496559,2.840243 4.496559,0.218739 0,-1.13954 1.083673,-3.388979 2.40813,-4.998786 1.879621,-2.284495 3.421311,-2.926898 7.024221,-2.926898 8.54994,0 13.37168,8.670235 8.51121,15.304563 -1.78666,2.438705 -1.74661,2.468807 3.28316,2.468807 5.87599,0 9.6603,2.961578 10.81059,8.460229 0.55179,2.637669 0.0176,4.130381 -2.49297,6.984479 -2.90225,3.297578 -3.69517,3.595709 -8.66161,3.256979 l -5.46688,-0.372821 1.744,3.493019 c 3.40622,6.82208 -1.08165,13.72494 -8.92324,13.72494 -3.64805,0 -5.13758,-0.67406 -7.552339,-3.41774 z m 3.787079,-16.126071 c 0.73601,0.434874 1.33815,0.251906 1.33815,-0.406829 0,-0.722719 1.15179,-0.921179 2.90477,-0.500537 2.92267,0.701307 4.0795,-0.940282 1.66716,-2.365652 -0.81602,-0.482148 -0.59232,-1.412984 0.65665,-2.732385 1.35844,-1.43511 1.51552,-2.224878 0.55538,-2.792171 -0.73632,-0.435084 -1.08078,-1.734416 -0.76538,-2.887391 0.40927,-1.495819 -0.0395,-2.09628 -1.57306,-2.09628 -1.18054,0 -2.47487,-0.508052 -2.87625,-1.128959 -0.40138,-0.620949 -1.29587,-0.794513 -1.98769,-0.385837 -0.69183,0.408928 -1.962841,-0.178433 -2.824481,-1.305042 -1.489399,-1.947319 -1.5666,-1.928342 -1.5666,0.385836 0,1.422977 -0.723928,2.434002 -1.742826,2.434002 -0.958561,0 -1.74287,0.941458 -1.74287,2.092124 0,1.209276 -1.103171,2.405074 -2.614261,2.833777 l -2.614261,0.741696 2.614261,1.018331 c 1.504064,0.585892 2.614261,1.977002 2.614261,3.275789 0,1.26608 0.765425,2.257457 1.74287,2.257457 1.018898,0 1.742826,1.011026 1.742826,2.434002 0,2.314053 0.07729,2.333072 1.5666,0.385837 0.86164,-1.126567 2.168751,-1.692474 2.904751,-1.2576 z m -4.552153,-5.543155 c -1.107168,-1.275401 -1.191922,-2.2685 -0.308279,-3.610194 1.732813,-2.630825 5.206562,-2.984459 6.948162,-0.707353 3.22502,4.216617 -3.13662,8.353253 -6.639928,4.317547 z M 46.733514,107.30312 c -1.968062,-1.14735 -4.249278,-3.63493 -5.069421,-5.52792 l -1.491153,-3.441753 -2.521999,3.588113 c -4.889064,6.95584 -15.397312,6.89631 -19.678252,-0.11168 -1.949442,-3.191275 -2.071172,-4.266033 -0.904854,-7.987863 0.74123,-2.365274 2.656068,-5.284447 4.255207,-6.487048 l 2.907563,-2.186546 -3.353162,-0.70412 c -3.914606,-0.822012 -8.881443,-5.551132 -9.851686,-9.38019 -0.86801,-3.425715 1.803473,-9.570338 4.835314,-11.121619 3.325848,-1.70171 10.255917,-1.48696 13.286968,0.411867 2.526125,1.582433 2.57342,1.51954 2.57342,-3.423616 0,-4.320906 0.558635,-5.512884 3.935642,-8.397672 3.322337,-2.838018 4.589879,-3.26248 8.133322,-2.723484 6.402306,0.973869 9.721831,5.289863 9.235612,12.007908 -0.32321,4.468061 -0.09134,5.265722 1.352428,4.645991 3.905472,-1.676646 10.552162,-1.695455 13.199051,-0.03779 3.496237,2.190157 5.863391,7.696785 4.89473,11.386582 -1.220246,4.648341 -5.789088,8.257192 -10.453618,8.257192 h -4.084423 l 2.86971,4.042927 c 5.055631,7.122481 3.486881,14.890691 -3.576907,17.712411 -5.099941,2.03725 -6.196963,1.98263 -10.493492,-0.52224 z M 45.653179,87.578521 c 0.858875,0.314882 1.872636,-0.201945 2.252802,-1.149281 0.430799,-1.072868 1.562031,-1.504426 3.000927,-1.144662 2.740909,0.685269 3.133986,-1.203524 0.454995,-2.186378 -1.34101,-0.491973 -1.670807,-1.55909 -1.190911,-3.853074 0.493069,-2.357086 0.217376,-3.172633 -1.072255,-3.172633 -1.287611,0 -1.540864,-0.743123 -0.980562,-2.877441 0.702409,-2.675622 0.58832,-2.777686 -1.626365,-1.455388 -1.941846,1.159398 -2.721061,1.152807 -4.218933,-0.03779 -1.415357,-1.12304 -1.837198,-1.141681 -1.837198,-0.08145 0,0.829821 -0.923429,1.145544 -2.325394,0.795016 -1.278959,-0.31992 -2.048601,-0.153243 -1.71033,0.370303 0.33814,0.523335 -0.376345,1.458789 -1.587983,2.078772 -1.49739,0.766173 -2.03613,1.962182 -1.68183,3.734006 0.383811,1.918896 -0.193223,2.935379 -2.18658,3.852066 l -2.707798,1.245299 2.723037,0.07515 c 1.731013,0.04786 2.950688,0.90745 3.347893,2.359689 0.37898,1.384603 1.265916,2.0493 2.252232,1.687478 1.022104,-0.37492 2.080264,0.531187 2.845163,2.436563 l 1.217787,3.033581 1.734877,-3.142446 c 1.010292,-1.829973 2.387049,-2.903135 3.296426,-2.569486 z m -7.494983,-4.232235 c -3.086516,-3.555615 1.446845,-9.01753 5.472687,-6.593646 4.022898,2.422079 2.589713,8.206518 -2.03332,8.206518 -1.12157,0 -2.669286,-0.725784 -3.439367,-1.612872 z M 142.2585,83.767725 c -2.21909,-1.668837 -3.06145,-3.326464 -3.06145,-6.024464 v -3.722166 l -3.64932,1.740504 c -4.54253,2.16652 -8.92553,0.944103 -11.33595,-3.161549 -2.24529,-3.824525 -0.0478,-9.21007 4.55278,-11.156928 l 3.26384,-1.381201 -2.80613,-3.188336 c -3.58094,-4.068705 -3.56535,-7.947096 0.0457,-11.399597 3.68446,-3.52253 6.5356,-3.4436 11.20166,0.310265 2.77279,2.230588 3.91452,2.636073 4.30105,1.527391 2.06885,-5.933861 10.17301,-7.513943 14.0942,-2.748045 2.87494,3.494318 2.9784,5.015831 0.63544,9.347485 -1.55158,2.868582 -1.55842,3.277342 -0.0549,3.277342 5.76704,0 11.01691,6.176699 9.39704,11.056081 -1.18182,3.559939 -5.85312,5.983193 -10.22601,5.304767 -3.74918,-0.581651 -3.77057,-0.558812 -3.35716,3.585718 0.34648,3.472317 -0.11462,4.570125 -2.75141,6.553131 -3.96782,2.983913 -6.36318,3.002554 -10.24976,0.07977 z m 7.20281,-16.318192 c 2.17807,-1.970873 2.65822,-9.150452 0.61195,-9.150452 -0.86955,0 -2.62669,-0.999732 -3.90482,-2.221645 -1.94492,-1.859446 -2.32376,-1.930652 -2.32376,-0.436596 0,1.130387 -0.63922,1.550609 -1.74287,1.145712 -1.18547,-0.434916 -1.74283,0.06004 -1.74283,1.547418 0,1.294294 -0.78484,2.186798 -1.92292,2.186798 -1.78933,0 -1.78933,0.141067 0,2.031414 1.05759,1.117288 1.92292,2.388113 1.92292,2.823995 0,3.382555 6.1159,4.775638 9.10233,2.073356 z m -6.58108,-4.895882 c 0.25559,-1.725558 1.1581,-2.588294 2.70727,-2.588294 3.46032,0 3.11462,4.33623 -0.38337,4.809939 -2.25272,0.305227 -2.64289,-0.06801 -2.32381,-2.221645 z m -51.984847,3.73896 c -3.042162,-1.328931 -3.77193,-2.484089 -4.946988,-7.831009 -0.758092,-3.449646 -1.69676,-7.396849 -2.085928,-8.771501 -0.516213,-1.823465 -0.210789,-2.499372 1.129914,-2.499372 2.466621,0 4.016093,3.041013 5.769414,11.323228 l 1.463707,6.913986 3.895592,-6.619214 c 2.142578,-3.640591 6.175486,-9.681974 8.962026,-13.425301 4.30035,-5.776924 5.06916,-7.624614 5.08426,-12.219216 0.009,-2.977238 0.50072,-6.143069 1.09097,-7.035195 0.92962,-1.405091 1.3548,-1.378473 3.17816,0.199006 1.53507,1.328133 2.65783,1.525502 4.14679,0.728807 2.67182,-1.429484 4.61855,-0.206983 3.76494,2.364224 -0.47107,1.419029 0.0444,2.257373 1.69558,2.758457 1.30482,0.395912 2.37238,1.149784 2.37238,1.675218 0,1.498674 -5.90753,5.559949 -8.08747,5.559949 -2.58739,0 -5.38201,3.045294 -13.25216,14.440903 -9.833234,14.238076 -9.907933,14.303572 -14.181187,12.436863 z m 23.911547,-3.492847 c -2.92175,-1.813348 0.40137,-3.702938 7.50174,-4.265865 6.97443,-0.552976 8.58569,0.903252 3.23609,2.924674 -5.35881,2.024906 -8.91956,2.469646 -10.73783,1.341191 z M 66.883625,54.383492 c -3.496499,-1.86314 -4.902986,-5.450999 -4.124604,-10.521452 0.497767,-3.242411 0.431677,-3.28872 -3.782118,-2.644553 -2.447211,0.37408 -5.393684,0.09027 -6.861958,-0.660918 -3.167405,-1.620681 -5.69555,-7.066474 -4.968506,-10.702615 0.717472,-3.588278 5.555113,-7.101614 9.778393,-7.101614 3.276137,0 3.331645,-0.08649 1.586185,-2.468849 -4.667123,-6.370373 -0.391716,-15.3045637 7.323672,-15.3045637 4.039235,0 9.45795,4.107877 9.45795,7.1699647 0,2.371404 0.479895,2.197882 4.468849,-1.615768 4.424583,-4.2301355 9.562993,-4.4592023 13.593402,-0.6059185 3.997692,3.8220055 3.789055,8.7675545 -0.544625,12.9107825 l -3.39655,3.247281 2.705427,0.649205 c 4.087761,0.98088 7.960698,5.52867 7.960698,9.347904 0,7.176221 -9.206678,11.411772 -15.823374,7.279587 -2.504563,-1.564128 -2.574915,-1.489228 -2.630861,2.801197 -0.09881,7.570874 -7.849765,11.892955 -14.74198,8.22033 z m 13.13744,-20.522801 c 0.5946,0 1.081082,-1.015434 1.081082,-2.256534 0,-1.2411 0.868185,-2.57507 1.929286,-2.964349 1.65122,-0.605792 1.567477,-0.835783 -0.580942,-1.595574 -1.380665,-0.48832 -2.510272,-1.653722 -2.510272,-2.589848 0,-0.936125 -0.728318,-1.702046 -1.618505,-1.702046 -0.89023,0 -1.971093,-0.874787 -2.401935,-1.943961 -0.746104,-1.851427 -0.837753,-1.851427 -1.924895,0 -0.627842,1.069174 -1.899819,1.943961 -2.826631,1.943961 -0.92681,0 -1.685123,0.558182 -1.685123,1.240386 0,0.693498 -1.024564,0.98424 -2.323767,0.659407 -2.431271,-0.60785 -3.20056,0.783554 -1.114633,2.016047 0.665039,0.392974 0.891197,1.672154 0.502643,2.842636 -0.42465,1.279096 -0.157651,2.128188 0.66921,2.128188 0.821066,0 1.121044,0.931045 0.743996,2.309434 -0.455698,1.665982 -0.180048,2.143722 0.989169,1.714768 0.891504,-0.327058 1.945578,-0.09237 2.342475,0.521614 0.478095,0.739597 1.222794,0.718604 2.206869,-0.06214 1.081609,-0.858244 1.92182,-0.672128 3.091785,0.684765 1.477496,1.713634 1.636334,1.670139 1.977811,-0.541724 0.204201,-1.322718 0.857778,-2.404949 1.452377,-2.404949 z m -8.552394,-1.80453 c -1.40025,-1.338714 -0.910607,-4.51945 0.919214,-5.971312 2.330179,-1.848908 5.479711,0.541683 4.994151,3.790727 -0.343409,2.299191 -4.273517,3.748365 -5.913365,2.180585 z m 58.433219,0.449358 c -1.5976,-0.787626 -3.68902,-3.014226 -4.64762,-4.947942 -1.80484,-3.641053 -5.93467,-5.352042 -8.04598,-3.333517 -1.45022,1.38645 -5.36444,-1.70868 -7.75859,-6.135009 -3.43608,-6.352655 -0.93393,-14.2209462 4.52229,-14.2209462 2.52828,0 6.6347,4.3275392 6.6347,6.9919512 0,1.79563 0.52872,1.588563 3.3709,-1.3202823 3.97367,-4.0668583 9.12263,-4.6005636 12.27326,-1.2721265 2.03296,2.1476688 2.06256,5.8904078 0.0816,10.3190448 -0.71887,1.607036 -0.25821,1.943961 2.65743,1.943961 4.24265,0 7.17867,2.520783 7.17867,6.163348 0,4.997987 -10.38841,8.709406 -16.26655,5.811518 z"
       id="path1" /></g></svg>
