<?xml version="1.0" encoding="UTF-8" standalone="no"?>
<!-- Created with Inkscape (http://www.inkscape.org/) -->

<svg
   width="180mm"
   height="240mm"
   viewBox="0 0 180 240"
   version="1.1"
   id="svg1"
   sodipodi:docname="ghost_pipe.svg"
   inkscape:version="1.4.2 (f4327f4, 2025-05-13)"
   xml:space="preserve"
   xmlns:inkscape="http://www.inkscape.org/namespaces/inkscape"
   xmlns:sodipodi="http://sodipodi.sourceforge.net/DTD/sodipodi-0.dtd"
   xmlns="http://www.w3.org/2000/svg"
   xmlns:svg="http://www.w3.org/2000/svg"><sodipodi:namedview
     id="namedview1"
     pagecolor="#505050"
     bordercolor="#ffffff"
     borderopacity="1"
     inkscape:showpageshadow="0"
     inkscape:pageopacity="0"
     inkscape:pagecheckerboard="1"
     inkscape:deskcolor="#505050"
     inkscape:document-units="mm"
     inkscape:zoom="1"
     inkscape:cx="73"
     inkscape:cy="524"
     inkscape:window-width="2560"
     inkscape:window-height="1351"
     inkscape:window-x="-9"
     inkscape:window-y="-9"
     inkscape:window-maximized="1"
     inkscape:current-layer="layer1"
     showguides="true" /><defs
     id="defs1"><rect
       x="101.82338"
       y="91.923882"
       width="384.66608"
       height="299.81326"
       id="rect3" /><rect
       x="2.8284271"
       y="2.1213202"
       width="662.55902"
       height="647.00269"
       id="rect2" /></defs><g
     inkscape:label="Icon"
     inkscape:groupmode="layer"
     id="layer1"><path
       style="fill:#000000;stroke-width:2.55304"
       d="m 68.389876,232.44086 c -0.415977,-2.01928 -2.580242,-8.04517 -4.809481,-13.39082 -3.702174,-8.87768 -6.006152,-16.78969 -6.036008,-20.72783 -0.01771,-2.48891 2.260157,-1.86249 4.339663,1.19282 1.0206,1.49956 1.901057,2.72646 1.956543,2.72646 0.05541,0 -0.292558,-4.14958 -0.773458,-9.22126 -0.751826,-7.92875 -1.24358,-10.16489 -3.508443,-15.95323 -3.186459,-8.14379 -4.351681,-14.40452 -3.765376,-20.23143 0.760985,-7.56275 1.848759,-8.27043 4.855605,-3.15887 l 1.904549,3.23765 0.204433,-8.17933 c 0.266599,-10.66751 -0.878609,-28.76257 -2.247379,-35.50983 -1.16001,-5.71822 -2.277109,-8.4223 -4.352212,-10.53519 -1.94412,-1.97951 -2.925528,-1.6021 -1.423623,0.54746 1.780774,2.54868 3.467505,8.59971 3.467505,12.43941 0,4.32374 -1.477439,9.0328 -5.389512,17.17818 -3.199539,6.66182 -3.313066,7.10172 -3.313066,12.83924 0,6.97876 -0.439355,7.61147 -5.134171,7.39337 -1.780648,-0.0827 -3.89464,0.20764 -4.697802,0.6453 -0.803136,0.43767 -2.825183,0.79576 -4.493418,0.79576 -2.415582,0 -3.498828,-0.41634 -5.320439,-2.04484 -1.884914,-1.68512 -2.87237,-2.04483 -5.612996,-2.04483 -4.403067,0 -8.459508,-2.8366 -9.600213,-6.71324 -0.659855,-2.24245 -1.190093,-2.78729 -3.355649,-3.44789 -2.6859482,-0.81938 -4.628676,-2.91491 -4.628676,-4.99272 0,-0.67006 2.1014928,-3.52603 4.669993,-6.34655 4.527145,-4.97141 4.743749,-5.37252 7.08196,-13.11429 3.764541,-12.46425 8.251937,-17.932731 16.335799,-19.907339 2.720208,-0.664419 6.926534,-3.663492 5.999927,-4.277856 -0.154843,-0.102789 -1.701227,-0.861162 -3.436359,-1.685484 -5.536865,-2.6305 -10.647127,-8.457974 -9.769048,-11.140126 0.278895,-0.851965 8.737341,-1.554615 18.045756,-1.499072 8.731648,0.05204 15.523732,4.294163 21.351586,13.335381 1.397335,2.167795 2.687747,3.699095 2.867538,3.402861 0.179891,-0.296233 0.538435,-1.686488 0.796912,-3.089444 0.347436,-1.885704 0.80225,-2.55087 1.744189,-2.55087 1.699381,0 3.568482,3.235616 5.709343,9.883367 2.328723,7.231072 2.460568,16.871352 0.321629,23.515602 -2.165935,6.72805 -2.261624,9.15804 -1.503321,38.17021 0.757341,28.97424 1.828897,41.3348 5.421997,62.54419 1.108649,6.54409 2.015722,12.2782 2.015722,12.74245 0,0.62137 -2.000591,0.84411 -7.581835,0.84411 H 69.146205 Z M 36.95753,148.66837 c 0.220121,-0.22413 0.255188,-0.79207 0.07793,-1.26217 -0.343793,-0.91222 -3.602209,-0.61457 -3.602209,0.32906 0,0.97714 2.762563,1.70859 3.52418,0.93311 z m -11.711118,-5.02234 c -0.920281,-0.73707 -2.051801,-2.27069 -2.514484,-3.40807 -0.937789,-2.30515 -1.479134,-2.52753 -2.651617,-1.08907 -1.548889,1.90026 1.974784,5.83726 5.224445,5.83726 h 1.614875 z m 77.359398,91.59868 c -0.16673,-0.44261 0.18875,-3.37184 0.79013,-6.50941 1.78399,-9.30741 2.04295,-21.03758 0.66874,-30.29373 -0.74452,-5.01487 -1.04431,-9.67617 -0.80354,-12.49421 0.40626,-4.75504 1.56531,-8.9255 2.48053,-8.9255 0.30172,0 1.09316,1.45196 1.75879,3.22655 l 1.2102,3.22655 0.46279,-2.76026 c 0.71463,-4.2624 2.05618,-46.4518 1.57778,-49.61892 -0.23328,-1.545 -1.30767,-7.00439 -2.38729,-12.13197 -2.06716,-9.81786 -2.36068,-13.19297 -1.29353,-14.87434 0.3569,-0.56232 0.65495,-0.86904 0.66229,-0.6816 0.008,0.18755 0.78408,2.18114 1.7261,4.43047 l 1.71276,4.08967 -0.50514,-6.81611 c -0.99231,-13.390015 -0.74664,-18.668017 1.08998,-23.41806 0.92048,-2.38056 2.62426,-5.446767 3.78622,-6.813785 l 2.11263,-2.485487 0.37165,1.704006 c 0.20443,0.937236 0.46286,2.317496 0.57431,3.067264 0.16699,1.123699 0.48113,0.904492 1.78758,-1.247742 2.1402,-3.525744 7.27222,-7.535885 11.95113,-9.338533 3.18162,-1.225819 4.78101,-1.42439 9.20602,-1.143072 5.21675,0.331682 13.05384,2.669117 13.05384,3.893363 0,0.962302 -3.37994,3.121029 -8.62634,5.509575 l -4.93401,2.246316 1.79679,1.573678 c 0.98824,0.865515 2.64694,1.573652 3.68601,1.573652 6.86803,0 13.10521,6.724573 16.11719,17.376618 1.90067,6.721917 3.03824,8.883167 6.96431,13.231477 2.05701,2.27824 3.74002,4.46559 3.74002,4.86074 0,1.37295 -3.29622,4.06463 -4.97753,4.06463 -1.29317,0 -1.79371,0.44117 -2.12657,1.87442 -0.93786,4.03833 -5.11952,6.98652 -9.90952,6.98652 -2.26281,0 -3.1898,0.31901 -3.6895,1.26974 -0.36707,0.69835 -1.6169,1.67018 -2.77741,2.15963 -1.78842,0.75428 -2.63403,0.72192 -5.54835,-0.21228 -1.89108,-0.60625 -4.4439,-1.06687 -5.67288,-1.02361 -1.27278,0.0448 -2.49293,-0.33697 -2.83482,-0.88695 -0.33016,-0.5311 -0.6049,-3.29062 -0.61055,-6.13224 -0.0101,-4.72811 -0.2629,-5.6882 -2.98706,-11.31193 -1.63724,-3.37993 -3.33399,-7.58967 -3.77056,-9.35497 -1.09453,-4.425978 -0.45183,-11.352754 1.34036,-14.445547 1.61075,-2.779712 1.47609,-3.46268 -0.47324,-2.400422 -1.73123,0.943367 -3.34097,4.520042 -4.56648,10.146188 -1.17871,5.411291 -2.22692,49.914371 -1.17568,49.914371 0.34261,0 1.13646,-0.84349 1.76416,-1.87442 2.45234,-4.02782 3.16029,-4.68531 3.8496,-3.57513 0.842,1.35612 0.82277,9.03666 -0.0344,13.75813 -0.37823,2.08322 -1.73417,6.43019 -3.01325,9.65994 -1.27905,3.22974 -2.62621,7.94616 -2.99369,10.48096 -0.81659,5.63281 -2.76306,28.94583 -2.44389,29.27081 0.12651,0.12881 1.55656,-1.68685 3.17801,-4.03469 l 2.94807,-4.26879 0.20595,2.89757 c 0.28302,3.98307 -1.20932,9.46448 -5.21984,19.17267 -1.87221,4.5321 -3.93707,10.44809 -4.58855,13.14663 l -1.1845,4.90641 -6.56121,0.0799 c -4.48978,0.0549 -6.65698,-0.17414 -6.8645,-0.72475 z m 46.97697,-107.98464 c 1.35637,-1.52604 1.39579,-1.4445 -1.26172,-2.60976 -2.17385,-0.95321 -2.09807,-0.98206 -2.70474,1.02972 -0.31467,1.04351 -0.0913,1.69391 0.75362,2.19451 1.64892,0.97696 1.82897,0.94255 3.21284,-0.61447 z m 11.40697,-4.3953 c 1.98488,-2.021 2.09272,-3.4869 0.3273,-4.44891 -1.11983,-0.61025 -1.47369,-0.40624 -2.37548,1.36936 -0.58281,1.14755 -2.02407,2.68516 -3.2028,3.41698 l -2.14314,1.33051 2.8755,0.003 c 2.16255,0.002 3.28289,-0.41226 4.51862,-1.67049 z m -76.011316,89.43048 c -8.6e-4,-22.8923 -0.03491,-23.48402 -1.750843,-30.50209 -2.08444,-8.52478 -2.273693,-15.5478 -0.583648,-21.65966 0.650721,-2.3532 1.428303,-4.43286 1.727996,-4.62144 0.299668,-0.18857 0.920028,0.96996 1.378562,2.57455 l 0.833674,2.91741 0.550124,-6.4753 C 88.281456,141.02627 86.400058,110.42164 83.551725,96.250944 81.729861,87.187082 80.610738,84.801962 75.43363,78.949165 68.62204,71.24861 65.565882,64.152091 65.565882,56.035897 c 0,-3.481975 1.23695,-9.883367 1.90976,-9.883367 0.253012,0 1.770047,2.161714 3.371259,4.803807 1.601238,2.642119 3.025341,4.687777 3.164675,4.545907 0.13941,-0.141947 -0.08324,-2.073558 -0.494537,-4.292644 -0.942673,-5.085485 -0.28598,-21.054123 1.086433,-26.419123 2.183241,-8.534512 7.000971,-14.654148 14.57309,-18.5112907 4.529852,-2.3074226 7.852432,-3.0527597 7.852432,-1.7614552 0,0.3438154 -0.59177,2.0307936 -1.315056,3.7488662 -1.468052,3.4871017 -1.459525,3.4945467 2.428461,2.1151627 2.079201,-0.7376597 5.606771,-0.9515074 13.890461,-0.8420975 6.10693,0.080634 11.10359,0.3306767 11.10367,0.5556025 3.5e-4,0.980463 -4.08225,6.021278 -6.00676,7.416583 l -2.10942,1.529368 1.54781,1.05695 c 0.85131,0.581313 3.66073,3.115541 6.24317,5.631582 3.71614,3.620599 5.51323,4.837143 8.61701,5.833347 4.69054,1.505461 5.79433,3.141947 4.24799,6.298037 -0.89239,1.821428 -0.89467,2.407944 -0.0202,5.113668 0.89293,2.761704 0.87963,3.289123 -0.13814,5.472761 -0.61943,1.329071 -2.1082,3.00644 -3.30841,3.727458 -1.70626,1.025058 -2.27655,1.911955 -2.61496,4.066714 -0.7456,4.74757 -6.6297,9.102583 -10.84364,8.025718 -1.27748,-0.326477 -2.04532,0.04766 -3.50065,1.706223 -1.40801,1.604515 -2.59618,2.207699 -4.85497,2.464697 -3.80692,0.433131 -6.29502,-1.385669 -7.4589,-5.452538 -0.63228,-2.209322 -2.37434,-4.421864 -7.654399,-9.721687 -6.245425,-6.268797 -6.951253,-7.240167 -8.172188,-11.246598 l -1.336384,-4.385154 -0.06275,4.170791 c -0.08248,5.498033 1.36295,13.453911 4.567373,25.138484 l 2.61698,9.542566 1.062499,-2.556049 c 0.584382,-1.405841 1.554759,-3.706256 2.156371,-5.112097 l 1.093847,-2.556023 1.317889,4.089668 c 1.893542,5.876034 2.260362,15.534914 0.898421,23.657651 -1.062195,6.335025 -1.051291,7.097345 0.255668,17.866725 0.750843,6.18716 1.372113,12.87116 1.380563,14.85339 l 0.0152,3.60401 1.46076,-2.56625 c 0.80344,-1.41143 1.77269,-2.46037 2.15387,-2.33099 1.0854,0.36836 2.27491,5.20646 2.29333,9.32771 0.0152,3.4491 -0.69102,6.63657 -4.47728,20.2017 -1.14837,4.11427 -1.53034,9.11296 -2.4741,32.37653 -0.700948,17.27844 -0.942954,31.3773 -0.650649,37.90565 l 0.465416,10.39458 H 92.412637 84.97846 Z M 111.60537,63.49643 c 0.9153,-0.652775 1.64721,-2.087804 1.90632,-3.73766 l 0.42059,-2.678056 1.97584,1.692826 c 2.16536,1.855176 2.97206,2.011112 5.44712,1.052958 3.09348,-1.197532 4.5565,-3.488493 4.35599,-6.821025 -0.17686,-2.938635 -0.11209,-3.04887 2.13605,-3.639894 3.02934,-0.796397 3.99195,-1.665776 3.99195,-3.605245 0,-3.121827 -1.39111,-5.061527 -3.62194,-5.050269 -3.68953,0.01803 -4.13867,0.990794 -1.29067,2.793545 2.27311,1.438816 2.3998,1.651093 1.09795,1.839694 -0.80944,0.117216 -2.08971,-0.123656 -2.84507,-0.535199 -1.23296,-0.671839 -1.3734,-0.553155 -1.3734,1.160667 0,2.715024 -2.10838,6.401444 -4.68566,8.192679 -2.53344,1.760786 -4.48816,1.939907 -6.38749,0.585357 -1.27427,-0.908769 -1.37193,-0.724264 -2.34487,4.430469 -0.55837,2.958318 -0.84721,5.378757 -0.64184,5.378757 0.20545,0 1.04198,-0.476823 1.85913,-1.059604 z"
       id="path1" /></g></svg>
