<?xml version="1.0" encoding="UTF-8" standalone="no"?>
<!-- Created with Inkscape (http://www.inkscape.org/) -->

<svg
   width="180mm"
   height="180mm"
   viewBox="0 0 180 180"
   version="1.1"
   id="svg1"
   sodipodi:docname="golden_poppy.svg"
   inkscape:version="1.4.2 (f4327f4, 2025-05-13)"
   xml:space="preserve"
   xmlns:inkscape="http://www.inkscape.org/namespaces/inkscape"
   xmlns:sodipodi="http://sodipodi.sourceforge.net/DTD/sodipodi-0.dtd"
   xmlns="http://www.w3.org/2000/svg"
   xmlns:svg="http://www.w3.org/2000/svg"><sodipodi:namedview
     id="namedview1"
     pagecolor="#505050"
     bordercolor="#ffffff"
     borderopacity="1"
     inkscape:showpageshadow="0"
     inkscape:pageopacity="0"
     inkscape:pagecheckerboard="1"
     inkscape:deskcolor="#505050"
     inkscape:document-units="mm"
     inkscape:zoom="1"
     inkscape:cx="73"
     inkscape:cy="204"
     inkscape:window-width="2560"
     inkscape:window-height="1351"
     inkscape:window-x="-9"
     inkscape:window-y="-9"
     inkscape:window-maximized="1"
     inkscape:current-layer="layer1"
     showguides="true" /><defs
     id="defs1"><rect
       x="101.82338"
       y="91.923881"
       width="384.66609"
       height="299.81327"
       id="rect3" /><rect
       x="2.8284271"
       y="2.1213203"
       width="662.55905"
       height="647.0027"
       id="rect2" /></defs><g
     inkscape:label="Icon"
     inkscape:groupmode="layer"
     id="layer1"><path
       style="fill:#000000;stroke-width:4.43749"
       d="m 85.221574,160.66816 c -0.378059,-9.17312 -1.398775,-19.02128 -2.268258,-21.88477 -1.3568,-4.46843 -2.410447,-5.62972 -7.433581,-8.19293 -5.606428,-2.86084 -7.841967,-6.16347 -5.647918,-8.34383 0.572898,-0.56932 3.537404,-0.25878 6.775383,0.70955 3.166254,0.94692 9.298345,1.72172 13.626866,1.72172 4.328525,0 10.460614,-0.7748 13.626874,-1.72172 3.23797,-0.96842 6.20249,-1.27887 6.77538,-0.70955 2.16693,2.15342 -0.008,5.46388 -5.30413,8.07584 -7.623299,3.75928 -9.233267,8.61097 -10.069856,30.34569 l -0.64196,16.6784 H 90.284665 85.908954 Z M 73.758257,118.56844 C 64.645568,115.40299 51.975274,106.73178 46.332265,99.798817 44.108921,97.067238 39.001451,90.204309 34.982326,84.547877 30.963197,78.891534 24.474462,70.727885 20.562912,66.4065 6.0342508,50.355723 6.0041677,42.29833 20.421713,28.582824 27.991817,21.381356 31.263627,19.34061 35.239306,19.34061 c 8.366097,0 14.016544,5.923309 22.888197,23.99351 4.015965,8.179883 6.043174,11.38081 5.559383,8.778088 C 62.379788,45.080253 56.257277,30.47299 52.608387,25.6808 50.688434,23.159295 49.102818,19.989068 49.084794,18.635884 49.029686,14.497636 54.042951,8.518413 60.211753,5.3650391 65.27532,2.7766052 67.27567,2.4227602 74.933914,2.7609898 c 10.364669,0.4577557 20.654962,0.4658067 30.945656,0.022118 9.187,-0.3941441 14.73153,1.447274 20.17451,6.700405 6.28008,6.0610602 6.49031,8.6284382 1.33805,16.3421602 -4.08846,6.121045 -9.9259,20.166774 -11.65348,28.040012 -0.42373,1.931173 2.42089,-2.881676 6.32144,-10.695239 13.41801,-26.879078 23.48979,-30.434514 38.51595,-13.596423 8.67643,9.722663 9.78657,11.745892 9.78657,17.835573 0,6.266581 -2.25864,10.416153 -10.43842,19.177255 -3.68486,3.946749 -11.18359,13.432173 -16.66383,21.078834 -11.69335,16.315885 -18.53416,22.694565 -30.6086,28.540945 -7.95456,3.85151 -9.94636,4.3144 -20.022139,4.65267 -9.271853,0.31142 -12.505088,-0.0814 -18.871355,-2.29303 z M 61.950021,103.31781 C 55.874909,95.429748 50.229794,83.80555 50.229794,79.184023 c 0,-2.564635 0.85771,-4.168018 2.962922,-5.538808 4.024965,-2.620771 10.39019,-1.493678 22.33886,3.955508 12.402385,5.656122 16.730376,5.548717 30.801804,-0.764312 15.40243,-6.910262 23.98496,-6.412251 23.98496,1.391757 0,4.684122 -6.42328,18.203971 -12.21905,25.718722 -3.59971,4.66736 -3.83849,5.28874 -1.42954,3.72022 6.48023,-4.21947 15.02243,-17.667437 18.93273,-29.805748 4.44579,-13.800528 8.06439,-17.647038 20.31856,-21.598078 8.3428,-2.689956 9.46639,-4.728535 1.99231,-3.614713 -8.85208,1.319167 -14.32289,3.990809 -18.78861,9.175418 -2.25242,2.61502 -4.10343,5.318114 -4.11333,6.006915 -0.0104,0.688757 -0.47325,1.966253 -1.02962,2.838811 -0.83175,1.304435 -1.57493,1.219634 -4.18038,-0.476822 -4.61111,-3.00244 -11.93178,-2.443383 -22.36453,1.708002 -10.594141,4.215617 -10.577184,4.212653 -9.60128,1.685353 1.06203,-2.750294 -1.458839,-9.573808 -4.045108,-10.949287 -5.711928,-3.037829 -11.760833,1.562775 -11.760833,8.944947 0,2.166244 -0.209485,3.93861 -0.465562,3.93861 -0.256045,0 -4.201993,-1.580071 -8.768741,-3.511244 C 63.533455,68.092605 54.700343,67.39071 50.598946,70.24549 48.21423,71.905363 47.934218,71.731426 45.01065,66.773881 41.103124,60.147837 36.025387,56.344015 27.932788,53.980522 15.180223,50.256059 13.548131,52.647775 26.026327,56.774344 c 9.755581,3.226143 14.698861,8.480733 18.30915,19.462092 3.810686,11.590888 9.150379,21.083036 15.510027,27.571424 3.048321,3.11006 5.833677,5.65466 6.189673,5.65466 0.355982,0 -1.482323,-2.76511 -4.085156,-6.14471 z M 78.49634,69.042046 c 0,-1.312399 -3.85209,-6.396105 -4.846546,-6.396105 -1.678227,0 -1.201377,2.567068 0.906879,4.882122 1.862432,2.045082 3.939667,2.843367 3.939667,1.513983 z m 28.39468,-3.122807 c 0.68227,-1.266835 0.93579,-2.606129 0.5634,-2.976208 -0.95599,-0.950016 -5.40262,3.259452 -5.40262,5.114451 0,2.148594 3.32079,0.681281 4.83922,-2.138243 z M 79.180448,59.317702 c -2.343332,-4.503196 -4.02991,-5.541684 -4.984634,-3.069281 -0.504359,1.306116 0.367643,2.831777 2.658306,4.650944 4.197876,3.333769 4.704822,2.989125 2.326328,-1.581663 z m 27.070812,-3.56999 c -1.34453,-2.161909 -2.87,-1.469923 -4.75811,2.158458 -2.8855,5.54509 -2.08329,6.734998 1.8832,2.793292 2.02405,-2.011418 3.31777,-4.239681 2.87491,-4.95175 z M 84.908814,55.196485 c -0.882612,-3.494611 -2.625709,-5.021334 -4.00639,-3.508988 -1.389788,1.522343 2.183931,9.206117 3.618639,7.780386 0.644767,-0.64076 0.819258,-2.562865 0.387764,-4.271398 z M 99.69625,53.222049 c 0,-1.178141 -0.5034,-2.451258 -1.11867,-2.829167 -1.54478,-0.948733 -3.600606,3.218091 -3.553237,7.201866 l 0.03921,3.295593 2.316359,-2.763123 C 98.65392,56.60753 99.69627,54.40019 99.69627,53.222049 Z m -8.244409,0.0606 c 0,-3.381234 -0.490738,-4.681688 -1.766658,-4.681688 -1.857411,0 -2.211619,2.327219 -1.024327,6.72991 1.143348,4.239726 2.790985,3.030575 2.790985,-2.048222 z"
       id="path1" /></g></svg>
