<?xml version="1.0" encoding="UTF-8" standalone="no"?>
<!-- Created with Inkscape (http://www.inkscape.org/) -->

<svg
   width="180mm"
   height="240mm"
   viewBox="0 0 180 240"
   version="1.1"
   id="svg1"
   sodipodi:docname="horsetail.svg"
   inkscape:version="1.4.2 (f4327f4, 2025-05-13)"
   xml:space="preserve"
   xmlns:inkscape="http://www.inkscape.org/namespaces/inkscape"
   xmlns:sodipodi="http://sodipodi.sourceforge.net/DTD/sodipodi-0.dtd"
   xmlns="http://www.w3.org/2000/svg"
   xmlns:svg="http://www.w3.org/2000/svg"><sodipodi:namedview
     id="namedview1"
     pagecolor="#505050"
     bordercolor="#ffffff"
     borderopacity="1"
     inkscape:showpageshadow="0"
     inkscape:pageopacity="0"
     inkscape:pagecheckerboard="1"
     inkscape:deskcolor="#505050"
     inkscape:document-units="mm"
     inkscape:zoom="1"
     inkscape:cx="73"
     inkscape:cy="444"
     inkscape:window-width="2560"
     inkscape:window-height="1351"
     inkscape:window-x="-9"
     inkscape:window-y="-9"
     inkscape:window-maximized="1"
     inkscape:current-layer="layer1"
     showguides="true" /><defs
     id="defs1"><rect
       x="101.82338"
       y="91.923882"
       width="384.66608"
       height="299.81326"
       id="rect3" /><rect
       x="2.8284271"
       y="2.1213202"
       width="662.55902"
       height="647.00269"
       id="rect2" /></defs><g
     inkscape:label="Icon"
     inkscape:groupmode="layer"
     id="layer1"><path
       style="fill:#000000;stroke-width:5.44441"
       d="m 84.067371,222.27386 v -9.44644 l -7.168285,-1.74394 c -19.116385,-4.65088 -39.172705,-17.5801 -48.925072,-31.53934 -4.977224,-7.12431 -5.218792,-8.34839 -1.629818,-8.25869 1.452513,0.0364 5.357313,3.522 8.677341,7.74606 7.11795,9.05611 15.170907,15.36174 25.874358,20.26015 4.270297,1.95426 8.034335,3.55325 8.364521,3.55325 0.330244,0 -3.553399,-3.87883 -8.630142,-8.61967 -13.084605,-12.2188 -25.002195,-35.38097 -18.204507,-35.38097 1.374807,0 2.911507,1.08283 3.414886,2.40628 3.7932,9.9729 11.054941,20.95561 18.922916,28.6192 9.55414,9.30597 12.009579,10.44269 8.255067,3.82155 -7.070297,-12.46845 -11.188534,-33.47197 -6.562953,-33.47197 1.283729,0 2.92856,3.90891 4.565634,10.85044 1.4075,5.96779 4.748837,14.78509 7.425237,19.59407 l 4.866219,8.74351 0.398118,-6.18756 c 0.733152,-11.39888 1.405047,-12.5921 6.822071,-12.11507 4.82424,0.42459 4.857436,0.4802 5.646427,9.36501 l 0.793611,8.93762 4.86827,-8.93762 c 2.67754,-4.91572 6.00702,-13.75709 7.39877,-19.64754 1.95579,-8.2775 3.0691,-10.61295 4.90181,-10.2831 1.82821,0.32897 2.25519,1.83722 1.86414,6.58487 -0.53615,6.50966 -7.01987,25.87756 -9.4035,28.08958 -3.19829,2.96806 -1.08462,3.48401 3.11382,0.7601 6.14492,-3.98682 17.78335,-19.12624 22.01874,-28.64227 1.90926,-4.28975 4.5284,-7.99963 5.82028,-8.24414 7.58693,-1.43596 -4.1078,21.7815 -17.5822,34.90586 -8.2347,8.02078 -8.63036,8.67335 -4.45497,7.34715 7.76956,-2.46786 20.11639,-11.18981 27.0672,-19.12062 3.64546,-4.15947 7.64854,-8.7154 8.89571,-10.12429 1.68664,-1.9054 2.70486,-2.16332 3.97416,-1.0068 4.49075,4.09175 -15.7119,25.12141 -31.40213,32.68766 -4.98286,2.40285 -13.30169,5.44337 -18.48629,6.75678 l -9.426491,2.38794 v 9.39967 9.39973 h -6.036445 -6.036389 z m 1.421475,-44.43593 c -0.04563,-0.99323 -0.217882,-6.36306 -0.377015,-11.93291 l -0.289747,-10.12699 -9.267929,-2.59596 c -11.96298,-3.35082 -22.185153,-9.69455 -30.287425,-18.79587 -5.902123,-6.62992 -8.383069,-12.66745 -5.205325,-12.66745 0.696819,0 4.41748,3.69652 8.268133,8.21452 6.317255,7.41206 15.074214,13.88264 21.893662,16.1775 1.389305,0.46772 -0.404392,-2.07513 -3.986482,-5.65035 -6.058096,-6.04688 -15.36554,-21.35286 -15.368256,-25.27301 -0.0033,-4.69531 4.648047,-0.65013 9.486279,8.25012 2.980566,5.48291 8.214445,12.44393 11.630842,15.46895 l 6.21172,5.50011 -3.913132,-7.80027 c -4.95936,-9.88558 -6.807755,-21.76263 -3.386852,-21.76263 1.586367,0 2.673948,1.88404 3.373277,5.84384 1.191787,6.74846 8.077739,21.65651 10.003021,21.65651 2.193069,0 1.619734,-33.004 -0.583373,-33.57956 -10.320317,-2.69616 -18.022583,-6.34461 -23.81381,-11.280327 -8.339362,-7.10742 -11.757692,-12.311619 -9.461221,-14.404057 1.126868,-1.026703 3.024069,0.349754 6.418627,4.656495 4.266475,5.413064 8.80091,9.247771 14.757732,12.480409 1.023299,0.55529 -0.792471,-2.578188 -4.03502,-6.963303 -6.992703,-9.456685 -8.858477,-14.160524 -5.616768,-14.160524 1.221731,0 4.240354,3.248492 6.708113,7.218838 2.46776,3.970398 6.020988,8.456381 7.89602,9.968891 l 3.40921,2.750061 -2.340738,-4.17256 c -1.28738,-2.294961 -2.814087,-6.471573 -3.392612,-9.281392 -0.860174,-4.177859 -0.608756,-5.108835 1.379722,-5.108835 1.337402,0 2.440325,1.08283 2.451047,2.406279 0.01141,1.323499 1.654813,5.500112 3.653729,9.281392 l 3.634278,6.875115 0.132326,-5.500113 c 0.07243,-3.025025 0.554969,-8.706302 1.07161,-12.625094 0.937459,-7.110222 0.928618,-7.129087 -4.272921,-9.109322 C 71.953642,67.869118 59.384314,54.347815 62.196052,50.202541 c 1.578382,-2.327026 2.976927,-1.52748 5.859745,3.349885 1.530984,2.590302 4.78283,6.454838 7.226235,8.587811 l 4.442663,3.878152 -3.0772,-6.181532 c -1.692456,-3.399879 -3.092141,-7.573736 -3.110393,-9.275313 -0.04563,-4.401014 3.939312,-3.853051 5.001509,0.687501 0.486525,2.079705 2.438956,5.946944 4.338685,8.59384 l 3.454041,4.812559 0.44774,-10.170275 c 0.407244,-9.243247 0.10609,-10.496589 -3.299471,-13.750175 -4.361727,-4.166893 -7.431169,-10.784603 -6.275202,-13.529306 1.12454,-2.670179 3.376528,-1.049571 6.784313,4.882197 l 2.911165,5.067208 -0.806673,-11.687672 c -0.650735,-9.42857 -0.341081,-12.219214 1.602052,-14.437728 l 2.408727,-2.7500037 2.403706,2.7500037 c 1.914273,2.190087 2.255582,5.059984 1.676087,14.093951 -0.400399,6.239168 -0.476829,11.343948 -0.17054,11.343948 0.306288,0 1.983915,-2.548675 3.728047,-5.66371 2.206583,-3.940983 3.651162,-5.226286 4.749292,-4.225723 2.29557,2.091606 0.40838,7.308537 -4.806785,13.287857 -4.07506,4.672242 -4.561414,6.235841 -4.561414,14.665874 0,5.189855 0.618508,9.436053 1.374476,9.436053 1.261599,0 6.010323,-8.174708 8.253643,-14.208284 1.20872,-3.250987 4.85755,-2.141027 4.23505,1.288266 -0.26009,1.434039 -1.70313,4.927723 -3.20616,7.763736 -1.50304,2.835961 -2.26596,5.156282 -1.69543,5.156282 1.42713,0 8.02624,-6.724351 11.27694,-11.490865 1.68019,-2.463704 3.21016,-3.444313 4.1037,-2.630215 3.82301,3.483342 -7.80369,17.209041 -18.088859,21.354523 -6.109969,2.462614 -6.509456,2.943849 -5.659149,6.817583 0.503066,2.292414 0.968486,7.957892 1.033908,12.589962 l 0.119208,8.422032 3.530923,-6.716661 c 1.941999,-3.694181 3.862149,-7.870792 4.266989,-9.281393 0.40497,-1.410601 1.4788,-2.564733 2.38648,-2.564733 2.35426,0 2.0389,6.116207 -0.6136,11.900434 -2.0758,4.526733 -2.06148,4.783923 0.17168,3.095028 1.33974,-1.013088 4.46063,-5.110862 6.93535,-9.106154 4.8827,-7.883056 6.5293,-9.409081 7.92785,-7.347254 1.33922,1.974363 -3.17577,11.000223 -8.57785,17.147772 l -4.72505,5.377198 5.00448,-2.627148 c 2.75243,-1.44495 7.69975,-5.720928 10.99397,-9.502261 3.29423,-3.78128 6.59467,-7.081327 7.33427,-7.33343 2.63373,-0.897717 1.28338,4.039308 -2.54761,9.313926 -4.79584,6.603155 -13.38434,12.158203 -23.72399,15.344693 l -7.847594,2.41849 -0.357051,17.62859 -0.357051,17.62853 3.00961,-3.25935 c 1.655267,-1.79263 4.419166,-7.67087 6.141966,-13.06267 1.72273,-5.39186 3.39386,-10.57678 3.71361,-11.5221 0.31998,-0.94537 1.37675,-1.71878 2.3489,-1.71878 2.60447,0 0.75357,13.04859 -2.96387,20.8949 -2.19889,4.64117 -2.48812,6.25757 -1.02837,5.74718 2.982,-1.04261 14.20099,-16.09726 16.49079,-22.12871 2.02851,-5.34327 6.95599,-8.02379 6.95599,-3.78403 0,3.80482 -10.47396,20.76493 -16.06045,26.00602 -6.31022,5.92018 -4.94698,6.22332 4.20482,0.93509 6.16414,-3.56187 10.22951,-7.37215 19.25326,-18.04533 1.59846,-1.89064 3.38588,-3.00232 3.972,-2.47031 2.14698,1.94859 -0.94288,7.81176 -7.75463,14.71493 -7.74675,7.85074 -16.05977,12.78979 -27.17215,16.14393 -4.0587,1.22507 -8.045344,2.78285 -8.859317,3.46178 -0.813974,0.67898 -1.493055,6.01086 -1.509083,11.84867 l -0.02852,10.61425 -4.904604,0.43082 c -3.253329,0.28584 -4.934092,-0.17721 -4.992213,-1.375 z"
       id="path1" /></g></svg>
