<?xml version="1.0" encoding="UTF-8" standalone="no"?>
<!-- Created with Inkscape (http://www.inkscape.org/) -->

<svg
   width="180mm"
   height="240mm"
   viewBox="0 0 180 240"
   version="1.1"
   id="svg1"
   sodipodi:docname="llupine.svg"
   inkscape:version="1.4.2 (f4327f4, 2025-05-13)"
   xml:space="preserve"
   xmlns:inkscape="http://www.inkscape.org/namespaces/inkscape"
   xmlns:sodipodi="http://sodipodi.sourceforge.net/DTD/sodipodi-0.dtd"
   xmlns="http://www.w3.org/2000/svg"
   xmlns:svg="http://www.w3.org/2000/svg"><sodipodi:namedview
     id="namedview1"
     pagecolor="#505050"
     bordercolor="#ffffff"
     borderopacity="1"
     inkscape:showpageshadow="0"
     inkscape:pageopacity="0"
     inkscape:pagecheckerboard="1"
     inkscape:deskcolor="#505050"
     inkscape:document-units="mm"
     inkscape:zoom="1"
     inkscape:cx="73"
     inkscape:cy="444"
     inkscape:window-width="2560"
     inkscape:window-height="1351"
     inkscape:window-x="-9"
     inkscape:window-y="-9"
     inkscape:window-maximized="1"
     inkscape:current-layer="layer1"
     showguides="true" /><defs
     id="defs1"><rect
       x="101.82338"
       y="91.923882"
       width="384.66608"
       height="299.81326"
       id="rect3" /><rect
       x="2.8284271"
       y="2.1213202"
       width="662.55902"
       height="647.00269"
       id="rect2" /></defs><g
     inkscape:label="Icon"
     inkscape:groupmode="layer"
     id="layer1"><path
       style="fill:#000000;stroke-width:5.60152"
       d="m 85.954021,231.81901 c -0.620451,-0.53807 -1.128119,-3.66971 -1.128119,-6.95914 0,-5.73892 0.194887,-5.98075 4.824415,-5.98075 5.710669,0 7.00378,2.13446 5.124023,8.45783 -1.332389,4.48222 -6.053706,6.88136 -8.820319,4.48206 z M 47.4256,216.9663 c -2.626278,-0.99263 -5.700067,-2.77139 -6.83064,-3.95275 -3.441897,-3.59663 -5.085287,-10.56152 -3.399401,-14.40702 1.34412,-3.06591 2.201965,-3.40994 6.600787,-2.64698 2.780744,0.48252 8.680147,3.04165 13.109783,5.68743 8.278402,4.94456 10.413545,5.68722 10.413545,3.62209 0,-0.65362 -3.147376,-2.63639 -6.994162,-4.40617 -3.846793,-1.76978 -6.666909,-3.9574 -6.266928,-4.86131 0.4,-0.90395 -0.391578,-3.96569 -1.758957,-6.80385 -3.374901,-7.00489 -3.135244,-8.96539 1.094627,-8.95464 7.212767,0.0209 17.629079,8.50285 20.280023,16.51895 1.99326,6.02728 -0.82412,12.97432 -7.244376,17.86296 -6.085815,4.63397 -11.253736,5.27069 -19.004301,2.34129 z m 69.4147,-0.4507 c -5.13251,-2.19273 -11.20252,-10.51962 -11.29021,-15.48812 -0.13655,-7.72638 13.57538,-20.79346 21.8194,-20.79346 4.259,0 4.50309,1.94819 1.12307,8.96377 -1.3674,2.83816 -2.11381,6.00193 -1.65865,7.03061 0.53654,1.21189 -1.67007,2.82851 -6.26688,4.59193 -3.90201,1.49686 -7.09455,3.39355 -7.09455,4.21483 0,1.83911 8.91343,-1.90687 13.85364,-5.82212 2.10298,-1.66665 5.92914,-2.8463 9.54886,-2.94395 5.85232,-0.15806 6.05497,-0.005 6.52805,4.92975 0.66015,6.8859 -3.47031,13.31949 -10.09165,15.71874 -6.91579,2.50598 -9.83085,2.43483 -16.47108,-0.40219 z m -34.186967,-3.25735 c -5.828805,-3.97618 -5.808293,-11.82535 0.04812,-17.85973 3.304778,-3.40602 5.213407,-4.24592 8.653764,-3.808 3.851003,0.49035 4.216476,0.24204 2.865801,-1.94688 -2.034885,-3.29741 -4.402521,-3.16632 -8.893102,0.49243 -4.228205,3.44478 -4.684806,1.74918 -1.377382,-5.11555 2.737681,-5.68242 7.55945,-6.37657 11.162934,-1.60708 4.299363,5.69046 8.947472,19.36618 7.937552,23.35384 -1.14394,4.51686 -7.685763,9.35166 -12.653396,9.35166 -1.952178,0 -5.436444,-1.28726 -7.742787,-2.86053 z M 47.129047,173.40941 c -5.340007,-2.10254 -7.023416,-3.67237 -8.477802,-7.90577 -3.379358,-9.83654 2.419763,-15.91019 10.272753,-10.75906 5.013654,3.28865 5.643211,2.40243 3.217752,-4.52949 -2.985879,-8.53367 -2.970703,-8.62616 1.415018,-8.62616 8.783111,0 20.128817,11.12473 20.128817,19.73681 0,5.90756 -2.751756,9.21077 -10.075139,12.09441 -8.166426,3.21557 -8.287388,3.21552 -16.481399,-0.0104 z m 18.599146,-8.32194 c 0,-1.50849 -9.445112,-6.10621 -10.55921,-5.14002 -0.393022,0.34063 1.642999,1.92888 4.524457,3.52897 6.091445,3.38266 6.034753,3.36753 6.034753,1.61105 z m 15.365683,7.10187 c -7.529374,-7.21533 2.805952,-32.8729 11.424948,-28.36266 8.240046,4.3119 12.955836,23.8519 6.902909,28.60246 -4.627904,3.63215 -6.636202,2.76064 -6.662789,-2.89153 -0.03008,-6.28153 -2.182072,-10.0635 -3.732867,-6.55868 -0.559398,1.26436 -1.017202,4.42187 -1.017202,7.01663 0,5.32875 -2.73732,6.19718 -6.914999,2.19378 z m 30.664744,-1.51042 c -7.44661,-6.4579 -5.91157,-16.85755 3.62851,-24.58315 4.22369,-3.42036 13.08732,-5.52415 14.56106,-3.45615 0.5209,0.73088 -0.22015,3.90555 -1.64655,7.05482 -3.06478,6.76629 -2.07844,8.28756 3.36715,5.19317 5.69509,-3.23612 8.32769,-2.80394 10.12276,1.66175 3.93852,9.79814 -4.08613,18.16395 -17.42326,18.16395 -6.67338,0 -8.7085,-0.65112 -12.60967,-4.03439 z m 13.74134,-10.83835 c -1.24806,-1.08236 -12.02748,3.80826 -12.02748,5.45686 0,0.65498 2.93407,-0.10746 6.52011,-1.69383 3.5861,-1.58658 6.06442,-3.27994 5.50737,-3.76303 z M 92.671426,135.08163 c -0.06135,-2.11422 -0.707248,-5.08624 -1.435006,-6.60443 -1.090585,-2.27515 -1.526314,-1.72925 -2.478794,3.1054 -1.299547,6.5965 -2.206132,7.04663 -6.296834,3.12658 -5.17449,-4.95865 -0.628691,-22.04498 6.495811,-24.41591 3.750853,-1.24824 8.477283,3.58776 11.072227,11.32906 2.71693,8.1051 1.40884,13.28658 -3.986401,15.79068 -2.914463,1.35268 -3.270973,1.10615 -3.371003,-2.33138 z m -37.746317,0.80902 c -5.588143,-1.39764 -11.461268,-8.06112 -11.471638,-13.01543 -0.0033,-1.5629 1.03275,-4.04723 2.302277,-5.52077 2.235848,-2.59507 2.467174,-2.60201 7.377201,-0.22065 2.787937,1.3521 5.398839,2.17233 5.802014,1.82267 0.403187,-0.3495 0.03248,-3.48317 -0.823133,-6.96342 -1.813604,-7.37443 -0.594886,-8.56753 5.815163,-5.69286 8.351496,3.74535 14.060842,18.65586 9.792156,25.57302 -0.856841,1.38846 -3.828338,3.21087 -6.603366,4.04983 -5.703458,1.72424 -5.161317,1.7257 -12.190674,-0.0313 z m 11.465423,-9.61155 c -1.65767,-1.58851 -4.45428,-3.53226 -6.214698,-4.31947 -2.284912,-1.02169 -1.863276,-0.1951 1.47355,2.88824 5.130153,4.74064 9.603963,6.09118 4.741148,1.43123 z m 47.879538,9.66397 c -2.62489,-0.66003 -5.66862,-2.26273 -6.76378,-3.56162 -2.66796,-3.1643 -2.52053,-11.86537 0.30015,-17.72019 2.24169,-4.65275 11.2611,-10.80674 14.41905,-9.83821 1.63645,0.50183 1.61552,1.74809 -0.18887,11.23251 l -1.05046,5.52071 3.90538,-3.1054 c 5.08492,-4.04336 8.90266,-3.93517 11.13592,0.3156 5.20956,9.91572 -8.27271,20.54713 -21.75714,17.15665 z m 5.49624,-11.53109 c 3.50989,-3.66768 -0.74719,-2.35058 -4.82279,1.49216 -3.44283,3.24609 -3.50147,3.47712 -0.54436,2.14563 1.82261,-0.82071 4.23783,-2.45768 5.36715,-3.63779 z M 86.704335,103.9337 c -4.371002,-4.567395 -5.183813,-9.579562 -2.737139,-16.878298 1.329923,-3.967466 3.451605,-7.957468 4.714881,-8.866693 6.234639,-4.487336 12.362693,19.125862 6.437165,24.804261 -3.276687,3.13998 -6.017135,3.44635 -8.414907,0.94073 z M 69.619196,101.46941 C 61.849895,99.511215 56.975074,94.027067 56.975074,87.244863 c 0,-6.01304 4.556764,-13.990956 7.186246,-12.581579 0.811939,0.435051 3.00959,3.715617 4.883669,7.28992 1.874103,3.574303 3.744537,5.722328 4.156627,4.773458 1.433261,-3.30044 3.528777,-1.692891 4.497798,3.450465 0.536541,2.846611 1.341833,6.883664 1.790013,8.971178 0.902074,4.201315 -0.811487,4.604285 -9.870231,2.321105 z m 31.736364,-3.70127 c 0.477,-2.087514 1.33005,-6.124568 1.89504,-8.971178 1.02286,-5.153476 2.97882,-6.734787 4.2679,-3.450465 0.37233,0.94887 2.26015,-0.953617 4.19495,-4.227767 4.38766,-7.424973 8.0552,-7.223567 11.18813,0.614392 1.91615,4.793907 1.93582,6.367028 0.12692,10.154475 -2.6077,5.459733 -10.10327,9.663913 -17.2419,9.670853 -4.93076,0.005 -5.23849,-0.25821 -4.43098,-3.79031 z M 74.167088,75.068184 C 66.54071,71.87275 63.73957,58.932332 69.739473,54.613956 c 3.393271,-2.442284 5.175885,-0.624147 8.537805,8.707905 1.697622,4.712321 3.584116,9.65474 4.192176,10.983158 1.284569,2.806548 -2.578102,3.161631 -8.302366,0.763165 z M 98.270216,74.51159 c 0.679698,-1.442032 2.121984,-5.430782 3.205104,-8.863876 2.13203,-6.757948 5.62634,-12.390449 7.68679,-12.390449 2.28192,0 5.63873,8.852452 4.79994,12.658 -1.01215,4.591561 -6.20355,8.908476 -12.28943,10.219263 -4.124449,0.888307 -4.50135,0.708549 -3.402404,-1.622938 z M 84.932969,71.373068 c -0.934194,-1.513811 -1.698524,-3.712226 -1.698524,-4.885403 0,-3.889481 5.085347,-13.2304 7.202818,-13.2304 3.396206,0 7.915118,11.973238 6.161135,16.324687 -1.918855,4.760677 -9.147898,5.870631 -11.665429,1.791116 z M 76.879867,51.890871 c -2.351636,-2.864137 -3.236929,-5.714451 -2.89347,-9.316245 0.751818,-7.883238 4.635964,-6.686587 7.794937,2.401543 3.877048,11.153684 1.422374,14.616617 -4.901467,6.914702 z m 21.326168,-2.792255 c 1.297803,-8.484536 3.530225,-12.80213 6.223205,-12.03594 2.19766,0.625295 3.33149,6.954451 2.00379,11.185661 -0.50707,1.616261 -2.819,4.124794 -5.1375,5.574598 l -4.215388,2.635919 z M 86.079133,46.091861 c -0.715006,-3.900644 1.682885,-10.777004 3.758131,-10.777004 2.274463,0 6.245586,9.172011 5.095933,11.770162 -0.764029,1.726745 -1.297321,1.847871 -2.250102,0.510689 -0.997292,-1.399414 -1.729021,-1.406508 -3.634341,-0.03652 -1.991036,1.43306 -2.482223,1.190026 -2.969621,-1.468897 z M 80.436915,33.957018 c -2.292569,-3.18354 -2.536899,-8.15997 -0.535338,-10.900791 2.052629,-2.810669 6.888473,4.138461 6.233496,8.957563 -0.639879,4.708201 -3.102432,5.547943 -5.698218,1.943228 z m 14.998838,1.817928 c -3.293289,-2.856052 1.76072,-15.471433 5.413827,-13.513443 2.1944,1.17615 1.70298,9.235495 -0.73281,12.018204 -2.310313,2.639413 -3.078673,2.884846 -4.681017,1.495239 z M 87.481718,24.001237 c -3.341109,-7.587101 -3.293289,-9.280148 0.379548,-13.42346 l 2.964327,-3.3442591 2.570463,4.3108651 c 3.262312,5.471052 3.224598,6.929412 -0.344059,13.291641 l -2.914343,5.196094 z"
       id="path1" /></g></svg>
