<?xml version="1.0" encoding="UTF-8" standalone="no"?>
<!-- Created with Inkscape (http://www.inkscape.org/) -->

<svg
   width="180mm"
   height="180mm"
   viewBox="0 0 180 180"
   version="1.1"
   id="svg1"
   sodipodi:docname="orange_mallow.svg"
   inkscape:version="1.4.2 (f4327f4, 2025-05-13)"
   xml:space="preserve"
   xmlns:inkscape="http://www.inkscape.org/namespaces/inkscape"
   xmlns:sodipodi="http://sodipodi.sourceforge.net/DTD/sodipodi-0.dtd"
   xmlns="http://www.w3.org/2000/svg"
   xmlns:svg="http://www.w3.org/2000/svg"><sodipodi:namedview
     id="namedview1"
     pagecolor="#505050"
     bordercolor="#ffffff"
     borderopacity="1"
     inkscape:showpageshadow="0"
     inkscape:pageopacity="0"
     inkscape:pagecheckerboard="1"
     inkscape:deskcolor="#505050"
     inkscape:document-units="mm"
     inkscape:zoom="1"
     inkscape:cx="73"
     inkscape:cy="204"
     inkscape:window-width="2560"
     inkscape:window-height="1351"
     inkscape:window-x="-9"
     inkscape:window-y="-9"
     inkscape:window-maximized="1"
     inkscape:current-layer="layer1"
     showguides="true" /><defs
     id="defs1"><rect
       x="101.82338"
       y="91.923881"
       width="384.66609"
       height="299.81327"
       id="rect3" /><rect
       x="2.8284271"
       y="2.1213203"
       width="662.55905"
       height="647.0027"
       id="rect2" /></defs><g
     inkscape:label="Icon"
     inkscape:groupmode="layer"
     id="layer1"><path
       style="fill:#000000;stroke-width:4.05346"
       d="m 61.338074,172.04538 c -1.929513,-0.57275 -5.356278,-3.10032 -7.615057,-5.61682 -2.258739,-2.51654 -5.9103,-6.58277 -8.114607,-9.03612 -2.777498,-3.09131 -5.791732,-5.05477 -9.819203,-6.39615 -10.404975,-3.46537 -16.894177,-10.3951 -16.901964,-18.0494 -0.004,-4.79215 4.51572,-12.41472 9.84029,-16.59245 5.991169,-4.70073 18.284082,-10.26629 28.194099,-12.76469 14.341674,-3.615669 17.389494,-4.756849 17.738728,-6.641849 0.634691,-3.425759 -3.342382,-3.129078 -15.499477,1.15611 C 39.344004,105.0892 21.207442,106.01952 12.052641,100.5205 7.614235,97.854441 4.737418,92.239268 4.7582242,86.282649 c 0.019968,-5.234644 1.3161867,-8.257161 7.1162258,-16.57184 3.16487,-4.537067 3.585308,-6.015 4.092167,-14.384769 0.640721,-10.580991 2.564922,-15.050213 8.148991,-18.927103 4.784925,-3.322037 10.40785,-3.151294 17.802903,0.540617 10.460964,5.222466 19.709333,15.933468 32.662258,37.827833 2.235057,3.7779 5.961058,4.410964 6.407135,1.088557 C 81.171606,74.48848 78.777287,70.597725 74.549979,65.394062 61.545298,49.385755 55.522261,36.395029 55.404771,24.100974 55.257809,8.7284467 65.279565,3.3328524 83.429946,9.0125797 l 7.288905,2.2808763 7.053288,-2.2808763 C 129.59879,-1.279465 134.76298,28.217191 107.28317,63.337373 c -7.659752,9.789402 -9.338391,13.232358 -7.13544,14.635 2.04504,1.302129 4.35047,-0.952786 8.65469,-8.464892 18.33636,-32.002542 40.92052,-44.579948 51.79553,-28.845611 1.9216,2.780268 2.53681,5.509025 3.04886,13.524061 0.56005,8.766715 1.03616,10.622051 3.75152,14.619407 6.7713,9.968291 7.82978,12.388889 7.84348,17.936301 0.024,10.083082 -5.28148,14.999891 -18.29746,16.954181 -9.22952,1.38577 -21.13119,-0.48236 -35.6949,-5.602829 -12.11257,-4.258657 -16.13617,-4.566899 -15.50451,-1.1878 0.37739,2.01913 4.17543,3.475169 17.21549,6.600009 11.32357,2.71354 25.0635,9.25056 30.94025,14.72042 12.91763,12.02317 9.16774,25.99429 -8.75121,32.60495 -5.77161,2.12927 -8.20874,3.73779 -11.09454,7.32252 -12.82621,15.93277 -21.08259,18.79882 -30.2544,10.50233 -8.395155,-7.5939 -11.485985,-19.26645 -11.212548,-42.34409 0.155348,-13.11427 -0.124199,-17.31483 -1.214432,-18.24701 -3.561028,-3.04473 -5.070102,6.4468 -3.190229,20.06524 0.813402,5.89276 -1.321059,21.23361 -3.968767,28.5242 -3.453083,9.50828 -10.898974,16.77513 -16.938425,16.53111 -1.336394,-0.0539 -4.008543,-0.56678 -5.938055,-1.13949 z m 14.060849,-24.22165 c 3.38064,-5.94308 6.881606,-19.97151 6.881606,-27.57475 0,-7.9836 -1.689901,-6.36455 -2.611567,2.5021 -0.909207,8.74676 -4.09041,20.91364 -7.009519,26.80851 -2.797066,5.6485 -0.708092,4.32481 2.73948,-1.73586 z m 30.465467,-2.89629 c -1.51691,-3.86261 -3.5953,-12.07958 -4.61868,-18.25997 -1.02338,-6.18036 -2.205946,-11.56875 -2.627862,-11.97425 -1.59793,-1.5357 0.491523,18.04792 2.575302,24.13776 2.13654,6.24391 6.32539,14.2566 7.05829,13.50155 0.20407,-0.21024 -0.87015,-3.54248 -2.38705,-7.40509 z M 70.36045,119.6773 c 2.688562,-4.0378 4.602899,-7.63553 4.254064,-7.99492 -0.799943,-0.82409 -9.548882,10.68599 -14.83719,19.51977 l -4.012377,6.70233 4.853613,-5.44283 c 2.669513,-2.99359 7.053367,-8.74655 9.74189,-12.78435 z m 37.15694,5.65261 c -4.80929,-12.77719 -5.76834,-14.42595 -4.7164,-8.10826 0.75741,4.54871 7.70176,20.8172 8.5243,19.96982 0.26038,-0.26825 -1.45328,-5.60583 -3.8079,-11.86156 z m 13.23854,6.41816 c -5.07546,-8.31887 -14.31089,-20.73446 -14.94083,-20.08552 -0.33505,0.34519 1.20042,3.45176 3.41227,6.9034 8.75469,13.66181 18.89594,25.25763 11.52856,13.18212 z m -45.855279,-6.57623 c 1.796008,-4.79803 3.107842,-9.52938 2.915194,-10.51409 -0.192488,-0.98471 -2.173237,2.86325 -4.401266,8.55104 -5.888056,15.031 -5.542296,13.83877 -3.52261,12.14697 0.958766,-0.8031 3.212673,-5.38584 5.008682,-10.18392 z M 58.770715,112.42781 c 5.956705,-3.0621 10.830366,-5.78152 10.830366,-6.04314 0,-1.05598 -11.483307,3.09237 -17.216934,6.21964 -6.336569,3.45604 -15.538333,11.101 -15.538333,12.90939 0,0.56723 2.496273,-0.89239 5.547287,-3.24358 3.050975,-2.35119 10.420909,-6.78026 16.377614,-9.84231 z m 83.742705,11.8802 c -1.28967,-2.48264 -10.4275,-9.74188 -15.76273,-12.52215 -4.22303,-2.20069 -14.70193,-6.01196 -16.37098,-5.95432 -0.63545,0.0206 4.58433,3.08358 11.59947,6.80359 7.01519,3.72001 14.62286,8.33928 16.90596,10.26501 4.92135,4.15107 5.08664,4.21521 3.62828,1.40787 z m -79.557449,-6.77347 c 8.653734,-7.23538 10.485405,-9.45318 5.703116,-6.90541 -1.808309,0.9634 -6.258815,4.71731 -9.890049,8.34203 -7.8724,7.85829 -6.27427,7.30993 4.186933,-1.43662 z m 60.460529,2.84935 c -4.45506,-4.76825 -13.56606,-11.79014 -14.30717,-11.02661 -0.63997,0.65931 16.80568,15.96835 17.47703,15.33661 0.25079,-0.23616 -1.17558,-2.17551 -3.16986,-4.31 z M 92.074733,101.1652 c 0.676424,-1.997889 -0.303907,-4.082149 -1.920247,-4.082149 -1.856271,0 -2.925418,1.88599 -2.189331,3.862159 0.72151,1.93709 3.478202,2.08471 4.109578,0.22012 z m 7.111713,-2.501479 c 0,-2.04533 -2.084741,-3.13397 -3.402205,-1.77667 -1.577883,1.62559 -0.190092,4.648889 1.777279,3.871209 0.893711,-0.35342 1.624926,-1.295879 1.624926,-2.094539 z m -14.264359,-0.56789 c 0,-0.83998 -0.832091,-1.69233 -1.849083,-1.8941 -1.821368,-0.36123 -2.574307,1.94849 -1.12266,3.44403 1.107525,1.141049 2.971743,0.16868 2.971743,-1.54993 z M 94.997117,94.3155 c 1.029251,-1.27765 1.058364,-1.982057 0.121802,-2.946897 -1.511829,-1.557544 -5.053089,1.543761 -3.919846,3.432878 0.988757,1.64814 2.204107,1.49262 3.798004,-0.485981 z M 89.67686,93.406366 c 0,-0.824749 -0.749465,-2.140373 -1.66546,-2.923568 -1.374453,-1.175204 -1.818932,-1.168169 -2.543797,0.04114 -0.483057,0.805289 -0.633693,2.120872 -0.334658,2.923569 0.71608,1.922444 4.543995,1.888624 4.543995,-0.04114 z M 57.77449,92.580794 c 7.05764,-1.760049 8.333373,-3.501132 1.788701,-2.441128 -2.90573,0.470592 -12.03681,0.860009 -20.29135,0.865317 -8.25454,0.0041 -14.816503,0.207359 -14.582163,0.448621 2.235337,2.30297 25.228866,3.08633 33.084812,1.12719 z m 25.375989,-1.302911 c 0.230426,-1.22367 -0.372197,-1.81481 -1.849083,-1.81481 -1.204927,0 -2.190729,0.653142 -2.190729,1.451436 0,3.33401 3.422612,3.641882 4.039812,0.363292 z m 17.620921,0.286354 c 0,-0.839972 -0.832094,-1.692328 -1.849086,-1.894093 -1.821367,-0.361234 -2.574307,1.948484 -1.12266,3.443985 1.107525,1.141055 2.971746,0.168685 2.971746,-1.549892 z m 52.49248,0.596859 c 1.22988,-0.738308 -2.01386,-1.065352 -10.5662,-1.065352 -6.78752,0 -15.90701,-0.40896 -20.26555,-0.908475 -8.87705,-1.017668 -9.24557,-0.0757 -0.8245,2.1075 6.34935,1.646002 28.8498,1.551003 31.65625,-0.133714 z M 93.639517,87.558447 c 0.577704,-1.787532 -2.73293,-3.063577 -4.152948,-1.600662 -0.607656,0.62603 -0.769114,1.697924 -0.358619,2.381965 0.933567,1.556227 3.92356,1.038445 4.511687,-0.781303 z m -27.41113,-0.844539 c -0.772428,-0.795743 -18.5945,-3.740295 -22.778678,-3.763417 -6.311129,-0.03291 -3.528042,1.938938 4.226469,2.997585 8.673262,1.184049 19.387455,1.626335 18.552209,0.765832 z m 16.052142,0.09175 c 0,-0.264137 -0.47547,-0.782784 -1.056648,-1.152781 -0.581138,-0.369874 -1.056607,-0.153874 -1.056607,0.480013 0,0.634052 0.475469,1.152822 1.056607,1.152822 0.581178,0 1.056648,-0.215999 1.056648,-0.480054 z m 47.240591,-0.741271 c 10.52574,-1.561658 12.51308,-3.278754 2.87398,-2.483134 -7.98278,0.658902 -18.41595,2.492968 -18.41595,3.237365 0,0.838779 7.14043,0.492274 15.54197,-0.754231 z M 87.09221,85.013722 c 0.994228,-1.657316 -1.164832,-3.592346 -3.137914,-2.812319 -0.949302,0.375223 -1.37593,1.351584 -1.014596,2.321691 0.721151,1.936058 3.11567,2.218997 4.15251,0.490628 z M 99.186446,83.47572 c 0,-1.79214 -2.894269,-2.97294 -3.757949,-1.533187 -0.360615,0.60122 -0.393761,1.796214 -0.07388,2.655523 0.686847,1.844022 3.831789,0.922834 3.831789,-1.122336 z M 63.261356,80.756014 C 57.9413,77.757854 35.789207,70.387526 35.789207,71.615681 c 0,0.769001 6.338724,3.459866 17.962563,7.625413 11.255836,4.033644 15.051883,4.638361 9.509586,1.51492 z m 29.384212,0.270309 c -0.195683,-1.047744 -1.056288,-1.904996 -1.912101,-1.904996 -0.855772,0 -1.716218,0.857252 -1.91206,1.904996 -0.249995,1.336607 0.32068,1.904995 1.91206,1.904995 1.591461,0 2.161976,-0.568388 1.912101,-1.904995 z m 39.225142,-3.749388 c 6.14105,-2.367976 11.64097,-4.813711 12.22211,-5.435009 0.72559,-0.775666 0.22883,-0.886999 -1.58491,-0.355474 -17.29161,5.067686 -35.59027,12.854667 -25.42986,10.821635 1.99497,-0.399086 8.65166,-2.663258 14.79266,-5.031234 z m -6.01557,-6.100083 c 3.94269,-2.700945 6.97114,-5.114178 6.72993,-5.362681 -1.09215,-1.125174 -20.71917,11.539578 -20.71917,13.369447 0,0.868977 6.27946,-2.725096 13.98924,-8.006766 z M 64.983565,76.093256 C 59.704881,71.889939 49.204102,65.514199 47.559967,65.514199 c -0.87019,0 2.867072,2.939121 8.305018,6.531425 9.707426,6.412604 15.088024,8.801028 9.11858,4.047632 z m 4.617516,-0.195429 c 0,-0.865768 -9.734901,-12.859357 -12.593787,-15.515744 -3.493099,-3.245717 -10.018162,-7.320421 -15.406668,-9.620964 -5.2802,-2.254298 -4.987275,-1.960127 4.754773,4.77512 4.358575,3.013301 11.240261,8.940296 15.292692,13.171138 7.229762,7.548064 7.95299,8.201947 7.95299,7.19045 z M 118.8989,68.622005 c 3.97727,-4.277744 10.73963,-10.156026 15.02744,-13.06285 7.90355,-5.357949 8.56915,-6.540312 2.10671,-3.742517 -4.95441,2.144982 -11.17313,6.968486 -16.71683,12.966412 -4.55589,4.929158 -9.2659,11.61672 -8.18158,11.61672 0.29313,0 3.78702,-3.49998 7.76426,-7.777765 z M 78.742583,57.077655 C 74.781643,48.904014 71.33523,39.59302 69.173014,31.224074 c -0.309498,-1.197421 -0.350232,0.84997 -0.09105,4.549739 0.25918,3.699769 1.396816,9.23632 2.528022,12.303436 2.197518,5.958387 9.611381,18.50004 10.945419,18.51588 0.441684,0.0041 -1.274055,-4.276757 -3.8127,-9.515474 z m 25.172997,0.272366 c 4.55554,-7.828865 7.98414,-18.681892 7.85978,-24.879648 -0.0843,-4.197886 -0.22843,-3.962302 -2.07096,3.386055 -1.08923,4.343819 -4.25331,12.671417 -7.03125,18.505718 -6.170274,12.95884 -6.254737,13.182822 -4.205738,11.152135 0.906171,-0.898066 3.357838,-4.571997 5.448168,-8.16426 z M 83.815321,52.243207 C 80.688709,39.259311 79.142255,37.87362 81.170608,49.873462 c 1.257002,7.436527 4.159617,16.127457 5.072258,15.187219 0.29033,-0.299108 -0.80202,-6.067004 -2.427545,-12.817474 z m 7.900514,-0.456274 c 0.04073,-5.454511 -0.25918,-12.312528 -0.666959,-15.239964 l -0.741198,-5.322648 -0.782812,4.354269 c -0.995865,5.539266 -1.133003,25.87872 -0.191689,28.406371 1.311355,3.520716 2.302828,-1.555364 2.382498,-12.198028 z m 5.235314,5.713958 c 2.150954,-7.174528 4.016971,-18.00143 2.922623,-16.957348 -0.59839,0.570857 -4.842271,15.182734 -6.409571,22.068399 -1.333319,5.857464 1.399412,1.852004 3.486948,-5.111051 z"
       id="path1" /></g></svg>
