<?xml version="1.0" encoding="UTF-8" standalone="no"?>
<!-- Created with Inkscape (http://www.inkscape.org/) -->

<svg
   width="180mm"
   height="180mm"
   viewBox="0 0 180 180"
   version="1.1"
   id="svg1"
   sodipodi:docname="food_mushroom_edible_non_psychedelic.svg"
   inkscape:version="1.4.2 (f4327f4, 2025-05-13)"
   xml:space="preserve"
   xmlns:inkscape="http://www.inkscape.org/namespaces/inkscape"
   xmlns:sodipodi="http://sodipodi.sourceforge.net/DTD/sodipodi-0.dtd"
   xmlns="http://www.w3.org/2000/svg"
   xmlns:svg="http://www.w3.org/2000/svg"><sodipodi:namedview
     id="namedview1"
     pagecolor="#505050"
     bordercolor="#ffffff"
     borderopacity="1"
     inkscape:showpageshadow="0"
     inkscape:pageopacity="0"
     inkscape:pagecheckerboard="1"
     inkscape:deskcolor="#505050"
     inkscape:document-units="mm"
     inkscape:zoom="0.5"
     inkscape:cx="155"
     inkscape:cy="278"
     inkscape:window-width="2560"
     inkscape:window-height="1351"
     inkscape:window-x="-9"
     inkscape:window-y="-9"
     inkscape:window-maximized="1"
     inkscape:current-layer="layer1"
     showguides="true" /><defs
     id="defs1"><rect
       x="101.82338"
       y="91.923881"
       width="384.66609"
       height="299.81327"
       id="rect3" /><rect
       x="2.8284271"
       y="2.1213203"
       width="662.55905"
       height="647.0027"
       id="rect2" /></defs><g
     inkscape:label="Icon"
     inkscape:groupmode="layer"
     id="layer1"><path
       style="fill:#000000;stroke-width:2.21397"
       d="m 15.541119,176.03704 c -1.065025,-1.20117 -1.065025,-1.19834 0,-2.39951 0.659676,-0.744 2.053926,-0.97756 5.835495,-0.97756 h 4.968711 l -0.369861,-2.02181 c -0.578136,-3.16025 -2.666856,-7.9621 -4.873156,-11.20305 -2.378104,-3.49327 -2.55996,-4.81584 -0.66226,-4.81584 2.913192,0 8.785861,4.22502 11.126148,8.00455 l 1.399378,2.25999 -0.361383,-3.42151 c -0.552167,-5.22772 -2.410589,-12.28776 -4.480278,-17.02026 -1.911389,-4.37058 -2.274989,-6.26091 -1.330853,-6.91901 0.926586,-0.64586 3.817364,1.47634 7.185615,5.27512 3.454765,3.89638 7.056511,11.25336 8.315877,16.98613 l 0.656324,2.98769 1.385803,-2.19665 c 0.762187,-1.20816 1.856777,-2.36524 2.432389,-2.57128 1.160326,-0.41534 1.030528,-1.44696 -0.660564,-5.25105 -2.567694,-5.77585 -3.470365,-18.6713 -1.93891,-27.69865 0.966212,-5.69544 5.044663,-17.74636 9.358449,-27.652143 1.709797,-3.926246 3.756786,-9.482826 4.548844,-12.347947 1.635704,-5.916856 1.493127,-6.304337 -2.32578,-6.320701 -3.67208,-0.01646 -15.676698,-1.836323 -20.397795,-3.093447 -12.88788,-3.43181 -15.959197,-6.552954 -15.942331,-16.200954 0.02084,-11.96263 5.506853,-25.059205 15.67209,-37.413947 2.261106,-2.748124 9.421162,-7.781182 15.827141,-11.125456 18.070881,-9.4339922 43.260261,-10.54056814 62.504128,-2.7458428 16.75815,6.7879108 29.69329,20.5881098 35.45659,37.8278548 1.55054,4.638124 1.69456,5.716579 1.73048,12.959074 l 0.0392,7.899943 -2.15746,2.493604 c -2.32192,2.683724 -6.80628,4.833064 -13.70839,6.570377 -4.8876,1.230249 -16.35846,2.819271 -20.35199,2.819271 -1.73555,0 -3.30235,0.267898 -3.48179,0.595351 -0.47196,0.86125 3.00958,10.999832 7.74542,22.555393 6.58387,16.06484 8.94223,26.41971 8.32892,36.5701 -0.86648,14.34083 -6.50571,25.29282 -16.41636,31.88224 l -3.50865,2.33286 h 8.31105 8.31107 l 0.70685,-3.32314 c 0.61885,-2.90942 0.5875,-8.69741 -0.0713,-13.16232 -0.13989,-0.94771 0.16303,-1.28948 1.27123,-1.43429 1.14963,-0.15024 1.85754,0.37183 3.37451,2.48839 1.05583,1.47315 2.23521,3.36261 2.62085,4.19882 0.67095,1.45484 0.74158,1.3476 1.63876,-2.48836 1.82113,-7.78626 5.26852,-14.99747 9.47142,-19.81221 3.19667,-3.66204 6.49052,-5.38687 7.33705,-3.84208 0.17262,0.31486 -0.64973,2.90432 -1.82726,5.75437 -2.41254,5.83922 -4.19126,11.44748 -4.80034,15.13536 l -0.41096,2.48836 2.27201,-2.31104 c 2.68981,-2.73605 7.24851,-5.46511 9.12909,-5.46511 2.26667,0 2.10368,1.61963 -0.52998,5.26599 -3.31753,4.59318 -5.29851,9.59886 -5.38844,13.6158 -0.0645,2.87866 0.0542,3.22264 1.17237,3.40173 1.02435,0.16412 1.4453,-0.33024 2.3835,-2.79874 1.66075,-4.36961 3.51901,-6.82362 6.74937,-8.91311 4.90696,-3.17399 6.48339,-2.02105 4.09319,2.99367 -0.7655,1.60607 -1.56385,4.10987 -1.77409,5.56401 l -0.38228,2.6439 h 2.25484 c 2.20921,0 2.25483,0.0439 2.25483,2.17731 v 2.17732 H 90.832797 c -66.923538,0 -74.512236,-0.0985 -75.291657,-0.97756 z m 16.784006,-3.87705 c 0,-1.8346 -2.620937,-7.20892 -4.475579,-9.17728 l -1.725621,-1.83145 0.865334,1.92781 c 0.475919,1.06032 1.162318,3.29985 1.525315,4.97674 0.362977,1.67691 0.881157,3.53882 1.15151,4.13758 0.658082,1.45759 2.659041,1.43247 2.659041,-0.0334 z m 8.825404,-0.61782 c 0,-0.95695 -0.509191,-4.37114 -1.131549,-7.58716 -1.1553,-5.97004 -4.525389,-14.38182 -6.617317,-16.51698 -0.985375,-1.00575 -0.965731,-0.75648 0.260904,3.311 1.368753,4.53867 2.519384,12.9976 2.522122,18.54126 8.48e-4,1.73927 0.166982,3.34893 0.369269,3.57703 0.202216,0.22806 1.319218,0.41472 2.482149,0.41472 1.947501,0 2.114422,-0.13731 2.114422,-1.73987 z m 6.059337,1.54569 c -0.0041,-0.0642 -0.462935,-1.76008 -1.018811,-3.76843 -0.702601,-2.53852 -1.120445,-3.32892 -1.370836,-2.59302 -0.408068,1.19933 -0.48969,5.58012 -0.111952,6.00618 0.239247,0.26985 2.518087,0.5935 2.501538,0.35527 z m 31.889861,-0.55233 c 0.5148,-0.5806 0.808995,-0.5806 1.323805,0 0.849489,0.95808 2.096034,0.96391 2.096034,0.009 0,-0.40521 -0.503838,-1.91052 -1.119607,-3.34514 -0.61579,-1.43464 -1.352786,-4.81234 -1.637768,-7.506 -0.876631,-8.28603 -1.920654,-12.9614 -2.94444,-13.18591 -1.185926,-0.26005 -1.220894,2.60274 -0.0899,7.35521 0.447867,1.88181 0.817239,4.54311 0.820845,5.91399 0.0041,1.37085 0.250504,3.45186 0.548684,4.62448 1.216674,4.7845 -1.016002,2.65754 -3.561967,-3.39336 -1.041582,-2.47551 -2.184429,-5.8657 -2.539652,-7.53377 -0.355213,-1.66807 -0.979829,-3.64025 -1.387999,-4.38259 -0.500436,-0.91018 -0.792344,-4.04786 -0.896327,-9.63474 -0.136132,-7.31494 -0.267248,-8.30947 -1.119485,-8.49384 -0.864894,-0.18715 -0.962779,0.39444 -0.941071,5.59115 0.01461,3.35526 0.353732,6.84363 0.806022,8.27599 0.429991,1.36183 0.64472,3.09208 0.477156,3.84506 -0.634076,2.84928 3.464807,14.70828 6.899652,19.96231 1.852937,2.83432 2.237253,3.0576 3.265973,1.89738 z m 16.15418,-1.61932 c 0.414983,-0.92277 1.329351,-2.74114 2.031952,-4.04085 1.971441,-3.64693 2.383271,-5.21356 1.570521,-5.97432 -0.538511,-0.50406 -1.444329,0.73957 -3.878741,5.32527 -2.312398,4.35583 -2.989327,6.11314 -2.489157,6.46177 1.008453,0.70292 1.913136,0.12321 2.765425,-1.77187 z m 35.212013,-1.19232 c -0.2386,-1.63561 -0.75681,-3.9536 -1.15154,-5.15115 l -0.71772,-2.17732 -0.33438,3.73256 c -0.18387,2.05292 -0.50973,4.34263 -0.72404,5.08825 -0.33017,1.14868 -0.15428,1.38956 1.15196,1.57744 2.20135,0.31664 2.256,0.22219 1.77572,-3.06978 z m 27.44048,-0.15848 c 0.36769,-1.87307 0.57701,-3.50877 0.46518,-3.63491 -0.11173,-0.12603 -0.96625,0.9585 -1.89871,2.41025 -2.06077,3.20845 -2.24458,5.11655 -0.46519,4.82903 0.99955,-0.16154 1.35556,-0.83737 1.89872,-3.60437 z m -99.28611,-0.0242 c -3.858226,-2.91037 -9.747547,-9.32523 -9.747547,-10.61733 0,-0.31457 -0.200765,-0.57196 -0.446161,-0.57196 -0.897247,0 0.6912,11.39135 1.930114,13.84155 0.129675,0.25662 2.972421,0.46659 6.317033,0.46659 h 6.081116 z m 31.512521,1.40808 c 2.758253,-8.18569 4.030511,-14.81021 3.055555,-15.90979 -0.595645,-0.67181 -1.84268,0.87586 -1.853141,2.29994 -0.0061,0.72794 -0.750011,3.96915 -1.654766,7.20271 -0.904775,3.23353 -1.64502,6.38287 -1.64502,6.99853 0,1.7313 1.452744,1.32167 2.097372,-0.59139 z m 54.932889,0.72673 c 0.18408,-0.5412 0.34004,-1.87093 0.34644,-2.95493 0.006,-1.08401 0.61375,-3.89536 1.34966,-6.24742 l 1.33801,-4.27651 -1.36021,1.44121 c -0.74814,0.79266 -2.126,2.78708 -3.06194,4.43203 -1.25556,2.20671 -2.04814,2.99082 -3.02314,2.99082 -1.20877,0 -1.32148,-0.25201 -1.32138,-2.95494 1.6e-4,-4.81616 2.12261,-15.56511 3.86269,-19.56232 0.59126,-1.35818 0.56311,-1.3518 -0.537,0.12203 -1.78821,2.39554 -4.99687,9.77953 -5.92644,13.63836 -1.37394,5.70346 -2.32364,10.82627 -2.34425,12.64503 l -0.0188,1.71077 h 5.18105 c 4.21563,0 5.24347,-0.1834 5.51588,-0.98403 z m -72.474699,-1.70439 c 0,-0.45217 -1.315428,-2.68384 -2.923162,-4.95928 -4.643123,-6.57146 -6.895811,-11.30258 -7.283785,-15.29748 -0.186576,-1.92158 -0.57265,-4.83724 -0.857846,-6.47931 -0.285196,-1.64205 -0.518538,-3.83213 -0.518538,-4.86683 0,-1.4583 -0.217038,-1.83327 -0.965272,-1.66774 -0.77038,0.17046 -0.958652,0.83908 -0.932357,3.3116 0.05333,5.0114 1.325102,13.9996 2.276971,16.09168 0.921661,2.02569 4.768048,8.3665 7.495634,12.35665 1.556401,2.27683 3.708355,3.1535 3.708355,1.51071 z m 29.542369,-0.6965 c 0.58891,-0.49312 1.56715,-0.7653 2.17389,-0.60488 1.27467,0.33707 5.46679,-2.8272 7.6856,-5.80115 2.08349,-2.79256 6.02204,-12.6347 5.35646,-13.38535 -0.91421,-1.03106 -1.71496,0.0887 -3.92912,5.49371 -1.33866,3.26785 -2.92859,6.0403 -4.24728,7.40623 -2.68148,2.77751 -3.94156,2.9385 -2.57477,0.32898 0.7138,-1.36281 0.81061,-2.04476 0.36212,-2.55057 -0.67835,-0.76507 -0.68708,-0.75602 -5.15148,5.34388 -1.5025,2.0529 -2.73402,3.94253 -2.7367,4.19914 -0.008,0.78916 1.93054,0.51681 3.06128,-0.42999 z m -37.264593,-1.60062 c 0,-0.34697 -1.160806,-2.23659 -2.579574,-4.1991 -1.418748,-1.96254 -3.288887,-4.82798 -4.155865,-6.36768 -0.866958,-1.53967 -1.878036,-2.79941 -2.246825,-2.79941 -1.258681,0 -0.38307,3.0148 1.840198,6.33589 1.216174,1.81674 2.365549,3.7938 2.554158,4.39351 0.603347,1.91859 1.963488,3.26767 3.294433,3.26767 0.711417,0 1.293475,-0.28389 1.293475,-0.63088 z m 44.369903,-12.52184 c 0.50287,-1.41745 1.30293,-5.68655 1.7779,-9.48692 0.71719,-5.73849 0.75659,-8.04278 0.23248,-13.59414 -0.71648,-7.58894 -0.94993,-8.55687 -2.06393,-8.55687 -0.65544,0 -0.71798,0.68554 -0.35468,3.88809 0.88078,7.76402 0.51498,18.41241 -0.82407,23.98754 -0.68285,2.84307 -1.09727,5.43253 -0.92092,5.75434 0.6226,1.13616 1.24904,0.55663 2.15322,-1.99204 z M 85.704214,144.04259 c -0.197629,-13.85479 -1.198032,-14.53533 -1.406591,-0.9569 -0.15594,10.15765 -0.03964,11.53367 0.975599,11.53367 0.391264,0 0.532462,-3.46517 0.430992,-10.57677 z m 15.481736,9.48811 c 0.27654,-0.59875 0.67735,-2.97825 0.89068,-5.28778 0.32201,-3.48615 0.24956,-4.19913 -0.42679,-4.19913 -0.78076,0 -2.03107,5.67995 -2.03107,9.22683 0,1.62332 0.87079,1.76785 1.56718,0.26008 z m -47.223217,-9.26881 c -0.734157,-3.94752 -0.889851,-4.26038 -1.803197,-3.62377 -0.69968,0.48772 -0.401765,3.9317 0.596155,6.89196 0.435272,1.29119 0.723696,1.52057 1.215091,0.96637 0.491396,-0.55423 0.489475,-1.55935 -0.0082,-4.23456 z m 40.921802,-7.55954 c -0.0425,-9.09166 -0.713572,-14.09384 -1.735856,-12.94085 -0.425036,0.47937 -0.198467,22.79917 0.239573,23.59847 0.158228,0.28863 0.56982,0.2062 0.914807,-0.1834 0.419407,-0.47356 0.612061,-3.94372 0.581476,-10.47424 z m 23.704975,5.11323 c 0.91208,-2.68064 0.0807,-13.35595 -0.93938,-12.06189 -0.38201,0.48463 -0.86386,12.29351 -0.51754,12.68408 0.55867,0.6301 1.11111,0.39418 1.45692,-0.62219 z m -41.569319,-1.03777 c 0.0082,-0.0855 0.145101,-3.09491 0.302338,-6.6875 0.157185,-3.59258 0.512276,-9.18849 0.789024,-12.43538 0.492171,-5.77423 0.142598,-7.90786 -1.066405,-6.50732 -1.258181,1.45762 -2.444434,24.11242 -1.328494,25.371 0.353384,0.39856 1.269438,0.5807 1.303537,0.2592 z M 102.22213,130.7341 c -0.30467,-7.44492 -1.06195,-12.89033 -2.03963,-14.66643 -1.04218,-1.89328 -1.12521,0.032 -0.30554,7.08406 0.46473,3.99836 0.84499,8.77221 0.84499,10.60852 0,3.82501 0.41647,5.47441 1.23775,4.90196 0.37031,-0.25814 0.46243,-3.0408 0.26243,-7.92811 z m -48.80898,1.75041 c 0.221921,-2.36723 0.924195,-6.54359 1.560558,-9.28082 1.585189,-6.81816 1.864531,-9.02031 1.144186,-9.02031 -1.620279,0 -4.487214,12.10556 -4.487214,18.94712 0,5.68593 1.23067,5.23992 1.78247,-0.64599 z m 32.313415,-7.79658 c -0.09531,-1.50062 -0.421491,-2.7284 -0.72486,-2.7284 -0.635434,0 -1.062636,4.32118 -0.570259,5.76826 0.615452,1.80886 1.474932,-0.20856 1.295119,-3.03986 z m -22.744711,1.4707 c 1.217052,-6.11546 3.12601,-14.2125 4.30261,-18.24991 1.747696,-5.99703 1.984072,-8.241248 0.893834,-8.486126 -1.347913,-0.302742 -8.060101,25.126276 -7.305881,27.678166 0.413717,1.39976 1.763356,0.79698 2.109437,-0.94213 z m 8.453581,-9.67583 c 1.28991,-7.46448 1.2961,-9.54979 0.02421,-8.1152 -0.833359,0.93988 -2.72965,10.4456 -2.72965,13.68318 0,5.24638 1.298562,2.57395 2.705552,-5.56798 z m 45.965545,5.21722 c -0.17782,-2.45231 -1.99181,-8.38374 -3.19986,-10.46311 -0.61988,-1.06701 -1.07189,-1.34213 -1.46904,-0.89422 -0.39715,0.44794 -0.12675,1.90594 0.87872,4.73876 0.79883,2.25047 1.4524,4.49554 1.4524,4.98907 0,1.53054 1.26222,4.11105 1.88771,3.85921 0.32695,-0.13167 0.52949,-1.13498 0.45007,-2.22971 z m -23.858127,-7.98321 c -0.0082,-5.19276 -0.651349,-7.43161 -1.65073,-5.75437 -0.864813,1.45138 0.09991,10.57558 1.118105,10.57558 0.307895,0 0.537447,-2.07774 0.532625,-4.82121 z m 10.203507,-6.68713 c -1.46328,-4.99296 -2.8665,-9.221689 -3.11827,-9.39716 -0.97115,-0.676939 -0.3876,4.19974 1.13393,9.47605 2.33866,8.10991 3.33063,10.48146 4.04648,9.6741 0.43012,-0.48512 -0.14968,-3.22749 -2.06214,-9.75299 z m -18.0352,1.76081 c -0.108202,-4.12659 -0.374336,-6.0959 -0.847344,-6.27276 -0.521123,-0.19491 -0.689484,1.27398 -0.689484,6.01497 0,5.22678 0.141341,6.27276 0.847344,6.27276 0.714543,0 0.822612,-0.94277 0.689484,-6.01497 z m -23.411721,-7.2045 c 2.824132,-6.821389 4.333379,-11.902341 4.130642,-13.905906 -0.300458,-2.969185 -1.197684,-1.933616 -2.815552,3.249662 -0.841521,2.696044 -2.392314,6.959221 -3.446194,9.473724 -1.053881,2.51448 -1.777945,4.82401 -1.609021,5.13225 0.805767,1.47046 2.032432,0.17494 3.740125,-3.94973 z m 47.247901,0.6934 c 0,-0.3885 -0.94746,-3.397858 -2.10545,-6.687514 -1.15798,-3.289632 -2.43902,-7.6608 -2.84673,-9.713716 -0.84406,-4.25001 -1.37936,-5.23879 -2.28383,-4.218715 -0.73902,0.833506 0.67954,8.768599 2.3288,13.026602 0.57535,1.485451 1.5337,3.960575 2.12967,5.500243 0.9797,2.53108 2.77754,3.88587 2.77754,2.0931 z M 78.336314,93.891124 c 0.978592,-7.050753 1.114755,-11.193029 0.384633,-11.70195 -0.268994,-0.187392 -0.723736,0.0071 -1.010536,0.429849 -0.722337,1.06771 -2.584243,17.590647 -2.084889,18.501877 0.864884,1.57827 1.854673,-1.06153 2.710792,-7.229776 z m 14.143434,2.529932 c -0.827066,-2.816003 -1.452029,-13.665757 -1.12687,-19.563216 0.375358,-6.808437 0.130298,-8.83013 -1.039845,-8.577797 -0.751942,0.162233 -0.967233,1.563464 -1.318932,8.584898 -0.249922,4.989866 -0.201173,9.904094 0.120083,12.123689 0.297199,2.052916 0.700558,4.992287 0.896358,6.531981 0.451882,3.553302 1.21361,4.757539 2.261627,3.575563 0.556581,-0.627727 0.609324,-1.307346 0.20764,-2.675118 z m -6.758332,-3.855405 c -0.121125,-2.127615 -0.399772,-2.954937 -0.995499,-2.954937 -0.535342,0 -0.889769,0.734566 -1.004141,2.081037 -0.223689,2.633361 0.179915,3.82886 1.292831,3.82886 0.699638,0 0.841235,-0.592012 0.706809,-2.95496 z M 98.88588,87.691065 c 0.18471,-0.542591 0.006,-2.572183 -0.39746,-4.510172 -0.403209,-1.938013 -0.872315,-6.043117 -1.042454,-9.12248 -0.243496,-4.406954 -0.48547,-5.598831 -1.136728,-5.598831 -1.222508,0 -1.359743,7.255755 -0.262191,13.86173 0.491243,2.956653 1.014061,5.596363 1.161828,5.865999 0.44513,0.812323 1.319845,0.553477 1.677005,-0.496246 z M 73.618086,82.332316 c 0.928925,-5.984807 0.668185,-13.25065 -0.4755,-13.25065 -0.653546,0 -0.898779,1.2417 -1.16717,5.909897 -0.186995,3.250414 -0.528243,7.086281 -0.758592,8.52412 -0.230339,1.437815 -0.260659,3.07901 -0.06732,3.647087 0.664343,1.952519 1.74362,-0.159178 2.468644,-4.830454 z m -4.625634,-8.36988 c 0.410816,-3.708407 -0.09071,-5.015918 -1.662979,-4.335476 -0.632134,0.273588 -0.825656,0.838655 -0.614206,1.793365 0.1697,0.766638 0.08612,2.504092 -0.185953,3.860978 -0.339777,1.694145 -0.297658,2.735005 0.134467,3.322173 0.961563,1.306712 1.870568,-0.504829 2.328794,-4.64104 z M 103.3719,73.377501 c -0.13301,-2.902035 -0.36806,-3.704621 -1.13309,-3.86883 -0.83061,-0.178223 -0.96528,0.302601 -0.96528,3.446575 0,3.549677 0.83538,5.69763 1.795,4.615341 0.25916,-0.292279 0.39569,-2.179176 0.30337,-4.193086 z m -23.964155,-0.0023 c 0.346499,-2.851131 9.6e-4,-5.85723 -0.671189,-5.839125 -1.046035,0.02821 -1.453827,1.271467 -1.425183,4.345116 0.03943,4.226497 0.06875,4.354639 0.996317,4.354639 0.475991,0 0.880115,-1.050876 1.100055,-2.86063 z M 60.602769,72.088165 c 0.389057,-3.892861 1.54546,-4.760294 8.657881,-6.494433 11.087103,-2.703263 30.25334,-1.784501 37.59379,1.802113 1.7632,0.861532 2.19719,1.430643 2.46464,3.23205 0.69896,4.708192 0.50975,4.53914 4.55873,4.073011 14.8196,-1.706089 23.70132,-3.663993 28.76344,-6.34071 l 3.03505,-1.604846 -2.93325,-1.48705 c -3.45787,-1.753042 -14.13349,-4.249374 -23.81872,-5.569629 -7.19279,-0.980503 -29.850803,-2.108733 -35.577391,-1.771522 -1.820226,0.107215 -7.901496,0.351929 -13.513885,0.543859 -11.65723,0.398696 -22.156994,1.638962 -31.716259,3.74645 -6.749944,1.488131 -11.93836,3.399786 -12.269638,4.520705 -0.176789,0.598266 3.51138,2.463321 7.581148,3.833633 2.842337,0.957038 13.916089,3.085476 19.305555,3.710641 8.147138,0.945047 7.538213,1.114875 7.868909,-2.194272 z M 41.344808,36.082599 c 3.787371,-4.776541 7.935145,-8.455017 12.945229,-11.48049 4.509708,-2.723318 5.210164,-3.84292 3.565093,-5.698287 -1.20317,-1.356933 -1.21357,-1.357522 -3.577669,-0.198208 -4.733376,2.321026 -10.189008,6.76929 -14.643809,11.939823 -4.526002,5.253204 -5.351312,7.112944 -3.888678,8.762534 1.249149,1.408824 2.377286,0.738916 5.599834,-3.325301 z M 72.365596,17.089812 c 1.021488,-0.956099 0.811447,-3.028036 -0.393265,-3.879317 -1.301168,-0.919466 -7.470842,0.696548 -9.247499,2.422151 l -1.441375,1.399985 1.250509,1.503319 1.250498,1.503297 3.87546,-1.086167 c 2.131502,-0.597397 4.24905,-1.435864 4.705672,-1.863268 z"
       id="path2" /></g></svg>
