<?xml version="1.0" encoding="UTF-8" standalone="no"?>
<!-- Created with Inkscape (http://www.inkscape.org/) -->

<svg
   width="180mm"
   height="180mm"
   viewBox="0 0 180 180"
   version="1.1"
   id="svg1"
   sodipodi:docname="food_mushroom_poisonous_psychedelic.svg"
   inkscape:version="1.4.2 (f4327f4, 2025-05-13)"
   xml:space="preserve"
   xmlns:inkscape="http://www.inkscape.org/namespaces/inkscape"
   xmlns:sodipodi="http://sodipodi.sourceforge.net/DTD/sodipodi-0.dtd"
   xmlns="http://www.w3.org/2000/svg"
   xmlns:svg="http://www.w3.org/2000/svg"><sodipodi:namedview
     id="namedview1"
     pagecolor="#505050"
     bordercolor="#ffffff"
     borderopacity="1"
     inkscape:showpageshadow="0"
     inkscape:pageopacity="0"
     inkscape:pagecheckerboard="1"
     inkscape:deskcolor="#505050"
     inkscape:document-units="mm"
     inkscape:zoom="0.70710678"
     inkscape:cx="31.819805"
     inkscape:cy="516.18795"
     inkscape:window-width="2560"
     inkscape:window-height="1351"
     inkscape:window-x="-9"
     inkscape:window-y="-9"
     inkscape:window-maximized="1"
     inkscape:current-layer="layer1"
     showguides="true" /><defs
     id="defs1"><rect
       x="101.82338"
       y="91.923881"
       width="384.66609"
       height="299.81327"
       id="rect3" /><rect
       x="2.8284271"
       y="2.1213203"
       width="662.55905"
       height="647.0027"
       id="rect2" /></defs><g
     inkscape:label="Icon"
     inkscape:groupmode="layer"
     id="layer1"><path
       style="fill:#000000;stroke-width:2.11003"
       d="m 17.841943,176.27697 c -0.61306,-0.82387 -0.316798,-3.31536 0.44071,-3.70599 0.418957,-0.21599 2.819996,-0.39283 5.335629,-0.39283 h 4.573872 l -0.338819,-2.10338 c -0.587965,-3.65009 -2.916998,-9.09476 -5.464941,-12.77567 -1.352776,-1.95433 -2.459607,-3.86189 -2.459607,-4.23908 0,-1.38786 1.125553,-2.16336 2.598526,-1.79033 1.84455,0.46715 7.603053,5.48072 9.006797,7.84167 l 1.035155,1.74102 -0.342969,-1.61797 c -0.188639,-0.88987 -1.286855,-4.2648 -2.440501,-7.49983 -1.555567,-4.36216 -2.998643,-7.17864 -5.585246,-10.90081 -2.839242,-4.08568 -3.394781,-5.21827 -2.987799,-6.09103 0.842494,-1.80679 2.204096,-1.55034 5.34517,1.00683 5.417488,4.4104 8.09486,8.16139 11.974092,16.77573 0.365609,0.81187 0.314663,-0.80821 -0.155442,-4.94024 -0.785336,-6.90407 -3.913196,-20.26243 -5.708295,-24.3789 -2.053937,-4.71003 -1.055691,-7.38893 1.752105,-4.70204 4.919447,4.70755 10.785702,19.20892 12.495612,30.8891 0.326586,2.23085 0.698056,3.91595 0.825512,3.74468 0.127402,-0.17122 0.955348,-2.7233 1.839811,-5.67122 l 1.608114,-5.35982 -1.407019,-5.64382 c -1.647213,-6.6074 -4.237051,-13.78879 -8.296521,-23.00557 -2.509911,-5.69862 -3.060903,-6.57355 -3.950777,-6.2734 -1.493489,0.50374 -2.48438,-1.34918 -3.140596,-5.8728 -0.309806,-2.135705 -0.773178,-4.791323 -1.029689,-5.901358 L 32.898434,93.39165 26.533948,93.060694 c -5.645041,-0.293554 -6.53419,-0.193438 -7.866045,0.885679 -2.058358,1.667769 -3.865528,1.525129 -5.605485,-0.442421 C 12.095863,92.410956 11.08625,91.881277 10.103429,91.951549 7.0912818,92.166924 6.1209268,91.897536 5.0417312,90.546364 3.9885799,89.227801 3.9481902,88.827236 4.1443853,81.647556 4.5029715,68.525512 7.1335505,62.993823 16.867436,54.892994 c 2.875606,-2.393155 6.962038,-6.301226 9.080989,-8.684601 5.997436,-6.745869 10.941946,-9.050492 16.029495,-7.471298 l 2.063693,0.640581 1.374242,-3.658555 c 2.791144,-7.430673 7.863366,-12.654409 18.095728,-18.63631 2.913552,-1.70328 7.681185,-4.938554 10.594726,-7.1894974 11.591436,-8.95528179 17.869695,-8.8354101 28.697271,0.5479094 2.49243,2.159967 7.99904,6.201149 12.23694,8.980408 8.7197,5.718475 13.37541,10.1219 15.52839,14.686962 1.44094,3.055318 3.01241,8.400331 3.01241,10.246196 0,0.65904 0.65138,0.378899 2.28749,-0.983781 3.02304,-2.517832 6.51672,-3.380408 10.09307,-2.491934 3.41676,0.848829 4.76884,1.754413 9.04968,6.061278 1.85408,1.865345 5.47613,5.036081 8.049,7.046076 8.28323,6.471071 12.33956,13.851059 12.78928,23.268482 0.21975,4.601564 0.18092,4.811536 -1.31592,7.102494 -1.71082,2.618561 -2.98599,3.245075 -9.4092,4.622965 -7.01951,1.505803 -7.80502,1.582998 -8.37081,0.822635 -0.39681,-0.533266 -0.53839,-0.441922 -0.53839,0.34735 0,1.137589 -1.37068,1.638547 -5.29737,1.936098 l -2.16711,0.164213 -0.32535,4.423443 c -0.42304,5.751612 -0.55894,6.141682 -2.52454,7.245382 -1.74886,0.98201 -1.83173,1.15882 -8.48453,18.10173 -2.99226,7.62047 -5.01046,15.28046 -5.5418,21.03354 -0.18074,1.95772 -0.20707,3.40466 -0.0583,3.2154 0.14871,-0.18934 0.88992,-2.69684 1.64708,-5.57234 1.89592,-7.19999 5.00401,-14.25013 8.50319,-19.28787 3.0188,-4.34616 4.24179,-5.1018 5.0335,-3.11004 0.3371,0.84804 -0.14525,2.76924 -1.92019,7.64769 -2.31462,6.36186 -4.72323,17.26594 -5.42289,24.5498 l -0.3108,3.23592 1.73143,-3.93227 c 2.8359,-6.44063 7.13657,-12.0161 11.62708,-15.07359 2.38815,-1.62601 3.65066,-1.7426 4.47179,-0.41294 0.4819,0.7803 0.44128,1.28796 -0.20987,2.62351 -0.44409,0.91079 -1.11853,1.81646 -1.4988,2.01255 -1.76759,0.91155 -6.96422,12.00341 -8.58427,18.32254 l -0.6782,2.64553 2.14941,-2.6626 c 2.40188,-2.9753 7.96526,-6.7679 9.08265,-6.19168 1.58286,0.81628 1.23662,2.36038 -1.50036,6.69055 -2.59538,4.10624 -5.50066,11.20386 -5.50066,13.43822 0,0.8347 1.02336,0.985 6.7077,0.985 5.55627,0 6.84237,0.18101 7.49217,1.05423 0.43144,0.57981 0.66364,1.47734 0.51598,1.99449 -0.14763,0.51714 -0.26849,1.06204 -0.26849,1.21092 0,0.45883 -146.700367,0.29841 -147.042077,-0.16072 z m 55.02723,-13.48303 c -0.323693,-2.1357 -0.784043,-4.31995 -1.022987,-4.85388 -0.329703,-0.7367 -0.373882,-0.65867 -0.183259,0.32359 0.138151,0.71189 0.471803,3.91549 0.741424,7.11903 0.641399,7.62124 0.635059,7.59026 0.859871,4.20674 0.106524,-1.60181 -0.0713,-4.65975 -0.395049,-6.79548 z m 18.333269,6.2012 c 0,-1.75064 0.106099,-3.57086 0.235736,-4.0449 0.129592,-0.47408 0.02128,-1.29879 -0.240793,-1.83271 -0.811739,-1.65371 -1.424036,0.49046 -1.432302,5.01569 -0.0056,3.16842 0.149249,4.04493 0.715008,4.04493 0.54419,0 0.722351,-0.78514 0.722351,-3.18301 z m 8.186851,1.20325 c 0,-2.28881 -0.738241,-2.04797 -1.079665,0.35222 -0.155621,1.09392 -0.01633,1.62754 0.424068,1.62754 0.410204,0 0.655597,-0.74107 0.655597,-1.97976 z m 15.558157,-0.01 c -0.63726,-1.45669 -0.9131,-1.70628 -1.03112,-0.93296 -0.2422,1.58704 0.2769,2.92169 1.13639,2.92169 0.67574,0 0.66348,-0.2314 -0.10523,-1.98873 z m -8.77108,-2.28898 c -0.25953,-1.38478 -0.6957,-3.68271 -0.96928,-5.1065 -0.27361,-1.42379 -0.50261,-3.55953 -0.50894,-4.74604 -0.0145,-2.833 -1.15832,-2.41065 -1.37072,0.50638 -0.23688,3.25287 2.64028,14.60746 3.16517,12.49126 0.0855,-0.34503 -0.0568,-1.76032 -0.31623,-3.1451 z m -10.385874,-0.28095 c 0.170913,-0.37156 0.08826,-1.03576 -0.183685,-1.47601 -0.271898,-0.4403 -0.733378,-3.7039 -1.025514,-7.25251 -0.762264,-9.25951 -1.618982,-15.2501 -2.174899,-15.20803 -0.264864,0.0195 -0.481568,1.75044 -0.481568,3.84532 0,2.09491 0.162535,3.67558 0.361186,3.51262 0.19865,-0.16291 0.361352,-0.0607 0.361567,0.22724 0.0018,3.06464 1.106001,14.88286 1.476778,15.8139 0.537452,1.34959 1.195064,1.5617 1.666135,0.53741 z m 19.238834,-7.5761 c -1.11212,-6.38443 -1.72229,-7.59755 -1.38348,-2.75054 0.23794,3.40399 1.14254,6.47187 1.90827,6.47187 0.0679,0 -0.16818,-1.67458 -0.52479,-3.72133 z m 8.43892,-2.75933 c 0,-0.7167 -0.20685,-1.80885 -0.45963,-2.42692 -0.25281,-0.61808 -0.89075,-2.50716 -1.41766,-4.19794 -0.93495,-2.99999 -2.21054,-4.04285 -2.72811,-2.23029 -0.23928,0.83797 1.83286,7.80009 2.78264,9.34935 0.76379,1.24587 1.82276,0.95878 1.82276,-0.4942 z m -23.594168,-2.09419 c 0.002,-1.15686 0.429118,-5.4281 0.949728,-9.49168 1.78186,-13.90828 3.42521,-35.01437 3.27966,-42.12142 l -0.13924,-6.79545 -3.13027,-0.396425 C 99.112309,96.165768 97.107744,95.770157 96.379347,95.50467 l -1.324328,-0.482716 0.01269,5.085846 c 0.02818,12.00726 0.99898,28.75419 2.461437,42.46084 0.864005,8.09793 1.744497,14.72348 1.956666,14.72348 0.21215,0 0.38718,-0.94649 0.38894,-2.10333 z m -16.191048,-1.94156 c 0.140327,-1.86876 0.368266,-12.20757 0.506524,-22.97511 0.207201,-16.13488 0.137607,-19.57739 -0.396286,-19.57739 -0.788804,0 -1.228404,10.41049 -1.298115,30.74135 -0.05476,16.00008 -0.08005,15.20887 0.485808,15.20887 0.245817,0 0.561729,-1.52899 0.702069,-3.39772 z m 25.048896,1.56404 c -0.0266,-0.4153 -0.0806,-3.25484 -0.12048,-6.31008 -0.0538,-4.12468 -0.22723,-5.48516 -0.67423,-5.28372 -0.60771,0.27385 -1.00883,10.15128 -0.48652,11.98044 0.29043,1.01716 1.35027,0.69731 1.28116,-0.38664 z M 71.929762,147.7462 c -0.0127,-6.06923 -0.70763,-12.08884 -2.469203,-21.4056 -1.385725,-7.32889 -1.445274,-8.06101 -0.733641,-9.01735 0.711622,-0.95635 0.855814,-0.94196 1.775917,0.1771 1.41051,1.71547 4.228852,8.11651 6.043249,13.72551 1.443909,4.46371 1.561843,4.64775 1.893414,2.95497 0.373348,-1.90605 0.654282,-44.668022 0.342436,-52.12397 -0.168538,-4.031951 -0.266556,-4.368508 -1.270928,-4.368508 -0.598513,0 -1.46104,-0.553648 -1.916737,-1.23033 -0.787555,-1.169509 -0.759739,-1.449447 0.562701,-5.662877 1.45089,-4.622685 2.309938,-8.634717 2.694867,-12.585867 l 0.226861,-2.328646 -6.820365,-0.409585 c -3.7512,-0.225282 -8.662396,-0.851576 -10.913756,-1.39179 -2.251392,-0.540212 -4.410424,-0.982605 -4.797861,-0.983089 -0.387428,-4.88e-4 0.966203,1.487992 3.008079,3.307731 4.87894,4.348168 8.744477,10.033964 10.825686,15.923463 1.547796,4.379992 1.649134,5.059104 1.484053,9.944703 -0.168006,4.969532 -0.259138,5.342065 -1.744334,7.12544 -1.207259,1.449614 -2.035429,1.881783 -3.60626,1.881868 -3.070307,1.66e-4 -9.251888,1.749428 -10.791488,3.053759 -0.748425,0.634059 -1.395962,1.735306 -1.438945,2.447212 -0.04291,0.711906 -0.215888,1.876841 -0.384235,2.588741 -0.221386,0.936215 0.987679,4.159585 4.369554,11.649335 2.571606,5.69525 5.700898,13.41293 6.95399,17.15043 2.115024,6.30832 5.271746,19.4753 5.271746,21.98893 0,0.60173 0.144523,1.2882 0.321057,1.5255 0.831457,1.1174 1.122939,0.0874 1.114143,-3.93703 z m 44.233608,-3.79642 c 0.71318,-3.37585 0.71488,-5.7634 0.006,-7.2906 -0.71432,-1.53716 -0.21256,-3.31288 0.93611,-3.31288 0.66313,0 1.10973,-0.94962 1.75019,-3.72131 1.51643,-6.56287 3.67384,-12.567 7.77395,-21.63508 3.37531,-7.46507 3.89439,-8.974185 3.31065,-9.625235 -1.13359,-1.264306 -0.79331,-2.988274 0.87286,-4.422256 0.92634,-0.797255 1.25165,-1.351474 0.79701,-1.357936 -0.42246,-0.0064 -1.18094,0.611768 -1.68553,1.3728 -1.49397,2.253313 -3.97765,3.263585 -8.92382,3.629865 l -4.66118,0.34517 -0.31754,6.543022 c -0.2834,5.8392 -0.73159,12.84712 -2.13515,33.38277 -0.41714,6.10316 -0.33569,7.35328 0.58281,8.94472 0.62066,1.07543 0.99917,0.43809 1.69445,-2.85305 z m -53.120955,-0.71185 c -0.453498,-3.24872 -1.764496,-6.65612 -2.560932,-6.65612 -0.376593,0 -0.583792,0.36401 -0.460445,0.80898 0.123409,0.44494 0.499308,1.97389 0.83548,3.39772 1.110417,4.70291 1.447996,5.5801 1.978078,5.13984 0.318357,-0.26441 0.399628,-1.31642 0.207819,-2.69042 z m 25.630857,-3.78399 c -0.1427,-3.75961 -0.394218,-7.01659 -0.558766,-7.23771 -0.839686,-1.12843 -1.151724,1.44655 -0.901552,7.4397 0.221077,5.29598 0.422426,6.63366 0.998427,6.63366 0.611802,0 0.682027,-1.03941 0.461891,-6.83565 z m 38.985808,4.00845 c -0.27682,-2.37804 1.38824,-13.03275 2.36125,-15.10944 0.77789,-1.6603 0.88204,-3.42049 0.20238,-3.42049 -1.63933,0 -4.77404,16.44351 -3.80121,19.93989 0.58745,2.11134 1.52339,1.04505 1.23758,-1.40996 z m -21.60305,-0.89413 c 0.7667,-4.1972 1.95509,-14.52642 2.25238,-19.57737 0.15707,-2.66965 0.38927,-5.87323 0.51588,-7.11904 0.27516,-2.70781 -0.49455,-4.77513 -1.21636,-3.26689 -0.24737,0.5169 -0.58735,2.40993 -0.75548,4.20671 -0.16817,1.79677 -0.84335,8.30688 -1.50046,14.46691 -1.12869,10.5805 -1.16752,13.71662 -0.16982,13.71662 0.23682,0 0.63007,-1.09213 0.8739,-2.42694 z m 0.16928,-13.42911 c 0.01,-1.06783 0.11776,-1.42636 0.23984,-0.79667 0.12213,0.62969 0.11412,1.50338 -0.0181,1.94155 -0.13196,0.4382 -0.23183,-0.077 -0.222,-1.14488 z m -14.25939,4.69211 c -0.478181,-6.92158 -0.814997,-8.98358 -1.422946,-8.71124 -0.29945,0.13404 -0.536482,0.51086 -0.526752,0.83714 0.0096,0.32628 0.195273,3.28716 0.412304,6.57971 0.309674,4.69801 0.552482,5.98649 1.128085,5.98649 0.619266,0 0.682988,-0.73057 0.409309,-4.6921 z m 17.6622,0.64718 c 0.14161,-2.22471 0.41118,-4.55458 0.59902,-5.1775 0.23501,-0.77927 0.11613,-1.13259 -0.38081,-1.13259 -0.39733,0 -0.84613,0.43334 -0.99733,0.96295 -0.4964,1.73842 -0.91601,7.3745 -0.62492,8.3939 0.59311,2.0772 1.15554,0.85678 1.40404,-3.04676 z m 14.32171,-2.405 c 0,-1.86169 0.94036,-4.4833 5.46329,-15.23074 2.63322,-6.25711 3.2653,-8.73709 2.22687,-8.73709 -0.27318,0 -0.6341,0.50966 -0.80203,1.13257 -0.46137,1.71137 -4.56635,11.44097 -4.98319,11.81115 -0.76894,0.68284 -3.0212,8.21853 -3.24367,10.85288 -0.19934,2.36009 -0.11869,2.70395 0.5527,2.35773 0.46352,-0.239 0.78603,-1.13618 0.78603,-2.1865 z m -68.865777,1.03021 c 0,-2.05567 -1.654343,-6.92507 -4.205306,-12.37793 -1.498687,-3.20354 -2.860909,-5.97029 -3.027164,-6.14826 -0.16618,-0.17806 -0.442173,-0.83325 -0.613188,-1.45617 -0.366379,-1.33445 -1.232451,-1.49019 -1.576991,-0.28357 -0.311151,1.08972 2.096698,6.91724 2.858113,6.91724 0.510282,0 4.623399,10.1548 5.308273,13.10551 0.311013,1.33992 1.256263,1.52288 1.256263,0.24315 z m 4.019816,-6.0696 c 0.281362,-0.61178 -4.187417,-13.4138 -4.884415,-13.99268 -1.295703,-1.07617 -0.84497,1.25074 1.471895,7.59857 2.391784,6.55317 2.900786,7.50689 3.41252,6.39411 z m -3.056645,-1.53802 c 0,-1.63021 -4.713955,-12.62751 -6.666342,-15.55209 -1.796625,-2.69125 -3.446815,-4.01327 -3.446815,-2.76136 0,0.20425 1.180053,2.24072 2.62235,4.52543 1.442275,2.28472 3.313456,6.12207 4.158159,8.52745 0.844714,2.40535 1.749938,4.73742 2.011617,5.18236 0.592662,1.00768 1.321031,1.0508 1.321031,0.0782 z m 55.606126,-16.14239 c 0.19147,-4.65304 0.21569,-8.63809 0.0537,-8.85567 -0.76564,-1.028935 -1.17932,1.47869 -1.49525,9.06407 -0.29528,7.0899 -0.24252,8.25165 0.37481,8.25165 0.58254,0 0.78438,-1.60084 1.06666,-8.46005 z m 23.66557,4.7387 c 0.35188,-0.62291 0.65262,-1.56941 0.66832,-2.10334 0.0165,-0.53392 0.98002,-2.85746 2.14291,-5.16343 1.97285,-3.91209 2.27479,-5.19154 1.22512,-5.19154 -0.80437,0 -5.77385,11.16669 -5.77385,12.97416 0,1.01186 1.05078,0.69991 1.7375,-0.51585 z M 89.641827,101.90287 c 0.06867,-4.597275 0.177107,-9.88388 0.240784,-11.748034 0.06372,-1.86415 -0.100865,-3.465934 -0.365664,-3.559522 -0.705847,-0.249402 -1.113948,5.109139 -1.161757,15.254436 -0.03256,6.89456 0.09628,8.89057 0.55978,8.68226 0.431176,-0.19374 0.637412,-2.64207 0.726857,-8.62914 z m -46.167665,0.96387 c 1.093617,0.0767 1.996438,-0.34361 2.731543,-1.27166 0.918128,-1.15916 1.429135,-1.31107 3.119332,-0.92731 1.593705,0.36184 1.975987,0.27299 1.806893,-0.41998 -0.117946,-0.483405 -0.986825,-1.140885 -1.930837,-1.461065 -1.409144,-0.47793 -2.016248,-0.33311 -3.391322,0.80898 -0.921213,0.765125 -2.444289,1.391125 -3.384608,1.391125 -2.219137,0 -3.233211,0.55118 -3.233211,1.75738 0,0.74539 0.308441,0.85947 1.324351,0.48981 0.728392,-0.26504 2.059424,-0.43032 2.957859,-0.36728 z m -4.729741,-2.905785 c 0.395709,-0.64078 1.139129,-0.92616 1.980364,-0.76024 0.94527,0.18644 1.646262,-0.16271 2.351202,-1.17113 0.808797,-1.15697 1.366801,-1.371445 2.865306,-1.101339 1.0235,0.184479 2.46995,0.128516 3.21435,-0.124379 l 1.353417,-0.459815 -1.444741,-1.5585 c -1.938885,-2.091565 -6.694201,-2.241879 -8.559021,-0.270556 -0.673451,0.711905 -1.811514,1.294374 -2.529017,1.294374 -1.117857,0 -1.262998,0.208399 -1.01416,1.456166 0.159626,0.800889 0.293326,1.965819 0.296956,2.588739 0.0075,1.409565 0.652168,1.455815 1.485344,0.10674 z m 104.891459,0.441155 c 0.92829,-0.790165 0.25802,-1.952875 -0.89266,-1.548485 -0.54862,0.19279 -1.90464,-0.41753 -3.20762,-1.443712 -1.9131,-1.506696 -2.51511,-1.69021 -3.94874,-1.203743 -2.47217,0.838879 -2.68389,2.446745 -0.257,1.951715 1.43229,-0.292157 2.36477,-0.0156 4.03051,1.19519 2.34487,1.704495 3.24576,1.925545 4.27551,1.049035 z M 84.097337,87.234148 c 0.251464,-9.157503 0.144875,-10.805977 -0.63158,-9.762604 -0.561985,0.755251 -1.136962,13.752225 -0.735574,16.627511 0.643513,4.60983 1.117387,2.230347 1.367154,-6.864907 z M 107.0013,85.616184 c 0.32726,-4.182441 0.72381,-8.554703 0.88129,-9.716137 0.23294,-1.718207 0.14944,-2.041111 -0.44829,-1.73288 -0.8308,0.42844 -1.64862,5.805431 -2.11247,13.88951 -0.24317,4.237702 -0.17255,5.163944 0.3941,5.163944 0.52659,0 0.83162,-1.804569 1.28537,-7.604437 z m 4.19495,2.588744 c -0.3466,-4.649584 -0.5192,-7.107393 -0.67042,-9.545995 -0.0331,-0.533927 -0.31003,-0.970779 -0.61535,-0.970779 -0.40408,0 -0.47219,1.948591 -0.25034,7.160134 0.31308,7.353166 0.4818,8.372333 1.38615,8.372333 0.36448,0 0.4101,-1.525744 0.15,-5.015693 z m 1.91805,4.368506 c 0.16364,-0.355948 -0.0402,-0.647187 -0.45313,-0.647187 -0.41294,0 -0.75079,0.291239 -0.75079,0.647187 0,0.355958 0.20391,0.647187 0.45313,0.647187 0.24925,0 0.58712,-0.291229 0.75079,-0.647187 z m 4.09343,-0.647187 c 0,-0.719094 -0.32106,-1.294372 -0.72236,-1.294372 -0.40133,0 -0.72238,0.575278 -0.72238,1.294372 0,0.719096 0.32105,1.294374 0.72238,1.294374 0.4013,0 0.72236,-0.575278 0.72236,-1.294374 z m 5.29737,0.647187 c 0,-0.355948 -0.32506,-0.647187 -0.72238,-0.647187 -0.39729,0 -0.72236,0.291239 -0.72236,0.647187 0,0.355958 0.32507,0.647187 0.72236,0.647187 0.39732,0 0.72238,-0.291229 0.72238,-0.647187 z m 1.79588,0.256174 c -0.15999,-0.215054 -0.57538,-0.238041 -0.92302,-0.05112 -0.38416,0.206598 -0.27006,0.359956 0.29096,0.391013 0.50765,0.02808 0.79208,-0.124872 0.63206,-0.339915 z M 99.025085,87.753867 c 0.200422,-3.355506 0.684747,-5.254907 2.473835,-9.701642 2.27073,-5.643922 2.64409,-7.131704 1.68139,-6.700459 -0.70141,0.314211 -4.4276,8.586758 -5.15679,11.448656 -0.606279,2.379492 -0.760892,7.993623 -0.239477,8.694368 0.742662,0.998032 1.005268,0.2064 1.241042,-3.740923 z m 3.868445,-0.201261 c 0.14998,-2.405505 0.62927,-5.681884 1.06491,-7.280845 1.26743,-4.651935 1.3503,-5.172353 0.82368,-5.172353 -1.85428,0 -4.61965,14.414223 -3.14544,16.39538 0.74311,0.998634 0.9986,0.197227 1.25685,-3.942182 z m -75.590385,-0.0909 -1.354602,-1.875795 -1.068714,1.322683 c -1.431068,1.771152 -0.995353,2.428907 1.608979,2.428907 h 2.168958 z m 21.520395,0.581423 c -0.283508,-0.711906 -0.582608,-1.294373 -0.66468,-1.294373 -0.08208,0 -0.541439,0.582467 -1.020842,1.294372 -0.854341,1.268674 -0.841148,1.294372 0.664657,1.294372 1.387093,0 1.486252,-0.125729 1.020865,-1.294371 z m 78.01578,0.962 c 0,-0.182821 -0.25815,-0.887882 -0.57366,-1.566828 -1.02716,-2.210347 0.43467,-9.912651 2.85686,-15.052739 0.93016,-1.973867 0.54173,-3.087273 -0.6236,-1.787536 -3.28901,3.668276 -5.3808,18.739475 -2.60095,18.739475 0.51774,0 0.94135,-0.149578 0.94135,-0.332372 z M 59.418266,88.081323 c 0,-1.084958 -0.854106,-1.353614 -1.138371,-0.358072 -0.167814,0.587424 0.0011,0.967061 0.431114,0.967061 0.389007,0 0.707257,-0.274046 0.707257,-0.608989 z m 63.084144,-0.523585 c -9.3e-4,-0.266963 -0.22745,-1.572999 -0.50215,-2.9023 -0.87135,-4.216458 0.0784,-7.047967 4.38748,-13.079862 3.37854,-4.729316 4.46627,-6.831146 3.53527,-6.831146 -0.15798,0 -1.72919,1.765069 -3.49144,3.922382 -4.2871,5.248149 -5.84372,8.883845 -5.84884,13.660505 -0.002,2.017614 0.12759,4.129059 0.28838,4.692099 0.29099,1.019086 1.63642,1.46307 1.6313,0.538322 z m 13.17649,-4.206711 c 0.17073,-2.224702 0.44734,-5.282654 0.61463,-6.795453 0.31909,-2.885477 -0.44293,-3.927542 -1.03592,-1.416638 -0.42569,1.80249 -1.10663,11.164039 -0.85624,11.771617 0.55094,1.33677 0.99717,0.09341 1.27753,-3.559526 z m 4.64461,3.634611 c 0,-0.225673 -0.23745,-1.475459 -0.52769,-2.777314 -0.44906,-2.014274 -0.33762,-3.204576 0.74794,-7.987388 1.28093,-5.643697 1.53906,-11.963886 0.50212,-12.293984 -0.26485,-0.08432 -0.61536,1.739716 -0.77888,4.053407 -0.16345,2.313691 -0.774,6.60967 -1.35664,9.546619 -1.02121,5.147646 -1.00134,7.232968 0.0862,9.05998 0.50653,0.850843 1.32683,1.097326 1.32683,0.39868 z m -22.42662,-5.389915 c 0.91768,-5.707846 2.50307,-9.437924 5.09923,-11.997264 4.67751,-4.611202 8.43131,-10.03152 6.94726,-10.03152 -0.14689,0 -1.82634,1.740912 -3.73224,3.868691 -1.90588,2.127779 -4.19354,4.660096 -5.08366,5.627371 -0.89013,0.967273 -2.14027,2.869623 -2.77808,4.227442 -1.13813,2.422915 -2.81372,11.793247 -2.30619,12.896843 0.62352,1.355827 1.07878,0.228121 1.85368,-4.591563 z m 43.31652,2.047236 c -0.70923,-5.080633 -3.86268,-12.226305 -4.8249,-10.933184 -0.16654,0.22379 0.48493,2.549338 1.44768,5.167865 0.96277,2.618527 1.75049,5.122421 1.75049,5.564212 0,1.389906 0.9907,3.360403 1.48366,2.950967 0.27059,-0.224719 0.33168,-1.398866 0.14307,-2.74986 z m -30.51169,-0.0065 c 0.006,-0.957862 0.74648,-4.355508 1.64687,-7.550326 1.56152,-5.540725 1.722,-7.138365 0.66964,-6.666949 -1.01081,0.452808 -4.12024,13.878704 -3.62004,15.630542 0.4533,1.587459 1.29179,0.678383 1.30353,-1.413267 z M 145.1393,79.35908 c 0,-6.806615 -0.22895,-8.789942 -1.01467,-8.789942 -0.49269,0 -0.59693,14.445276 -0.10903,15.101007 0.88711,1.192169 1.12369,-0.136539 1.12369,-6.311065 z M 18.484046,82.90732 c 0,-3.547205 2.326343,-9.149493 7.403282,-17.828594 2.537579,-4.33801 3.131479,-6.029582 1.463976,-4.16978 -0.433174,0.483137 -2.024179,2.927316 -3.535556,5.43151 -4.420351,7.324071 -7.215051,14.943678 -6.535834,17.819634 0.424113,1.795767 1.204132,0.984241 1.204132,-1.25277 z m 132.347284,0.717432 c 0.0846,-0.773013 -0.048,-1.405476 -0.29495,-1.405476 -0.24687,0 -0.38406,-0.793325 -0.30485,-1.762942 0.0792,-0.969617 -0.0776,-2.121793 -0.34848,-2.560394 -0.27085,-0.4386 -0.35267,-1.101444 -0.18182,-1.47299 0.1709,-0.371544 0.058,-0.675536 -0.25086,-0.675536 -0.30883,0 -0.46726,-0.364043 -0.35205,-0.808983 0.11521,-0.44494 -0.19159,-1.325246 -0.68177,-1.956236 -1.28585,-1.655242 -1.58303,-0.08085 -0.58853,3.117865 0.43595,1.402151 0.78073,3.707717 0.7662,5.123478 -0.0398,3.880252 1.85273,5.91167 2.2371,2.401214 z m 15.01585,1.183269 c 0.3973,-0.345052 0.47721,-0.631827 0.17765,-0.637278 -0.29965,-0.0054 -0.78714,-1.303176 -1.0833,-2.883833 -0.55024,-2.936651 -1.1552,-3.962513 -1.94828,-3.303813 -0.27125,0.225307 -0.25653,1.19143 0.0377,2.465144 0.26603,1.152046 0.54747,2.677095 0.62543,3.389 0.0779,0.711906 0.16945,1.36718 0.20323,1.456167 0.1445,0.380471 1.32179,0.09299 1.98776,-0.485387 z M 96.027007,83.02826 c 0.01091,-1.513537 2.528835,-6.432201 4.590193,-8.969644 1.61861,-1.992421 2.15172,-4.299568 1.18,-5.106656 -0.26486,-0.219999 -0.48159,-0.136881 -0.48159,0.184703 0,0.870666 -4.897377,8.228717 -5.476879,8.228717 -0.568082,0 -1.146195,2.382161 -1.217222,5.015688 -0.03181,1.179226 0.195739,1.779763 0.674358,1.779763 0.397301,0 0.726316,-0.50966 0.73114,-1.132571 z m 73.038193,0 c -0.79104,-3.376046 -2.84863,-10.448352 -3.53045,-12.134743 -1.54443,-3.820024 -6.63889,-10.031383 -8.22761,-10.031383 -1.0955,0 -0.55398,0.957881 2.17104,3.840322 3.33252,3.525059 5.11584,6.93298 6.39577,12.222414 0.57543,2.377994 1.35157,4.978902 1.72477,5.779794 0.80166,1.720362 1.84784,1.95121 1.46648,0.323596 z M 31.321594,80.146405 c -0.410375,-2.108861 0.618771,-9.023423 1.876913,-12.610522 1.319612,-3.762419 1.375223,-4.08499 0.704172,-4.08499 -1.571322,0 -4.61535,14.545017 -3.70859,17.720535 0.432887,1.516005 1.443226,0.597494 1.127505,-1.025023 z m 141.521776,0.07506 c 0.37885,-1.60423 -0.12577,-5.768408 -0.69906,-5.768408 -0.22074,0 -0.66414,-0.852647 -0.98535,-1.894772 -0.32119,-1.042124 -0.9931,-2.392318 -1.49311,-3.000434 -0.85102,-1.035011 -0.92903,-1.035897 -1.22088,-0.01393 -0.19086,0.66844 0.073,1.643686 0.68025,2.515041 1.28217,1.83955 2.01934,4.500753 2.01934,7.290045 0,2.520256 1.16796,3.120042 1.69881,0.872384 z M 65.696786,75.494193 c -1.541574,-6.02146 -5.354094,-11.971691 -9.529204,-14.872294 -2.161668,-1.5018 -1.973777,-0.124675 0.240812,1.764914 2.556236,2.181118 6.492744,8.040797 7.453876,11.095471 0.447991,1.423808 1.180939,3.753679 1.6288,5.177487 1.195412,3.800398 1.356096,1.327862 0.205716,-3.165578 z m -13.020635,3.928053 c 0,-3.232124 -3.491358,-12.411558 -6.480511,-17.038546 -2.182953,-3.379027 -2.728106,-2.305586 -0.606133,1.193524 2.101179,3.464811 4.885792,10.306252 5.677948,13.949972 0.566992,2.607983 1.408696,3.740283 1.408696,1.89505 z m 10.113157,-0.291811 c 0,-2.168601 -3.423771,-8.892438 -7.472641,-14.675334 -2.230109,-3.185191 -4.192551,-5.606057 -4.360962,-5.379702 -0.168369,0.226357 1.675307,3.414882 4.097212,7.085623 2.531634,3.837068 4.9583,8.253063 5.708743,10.388658 1.323636,3.766855 2.027648,4.662892 2.027648,2.580755 z m -15.724223,-2.57727 c 0.36326,-0.789905 -0.814423,-6.21279 -1.777851,-8.186413 -0.660665,-1.353418 -1.026958,-1.631014 -1.432679,-1.085769 -0.405711,0.545243 -0.402668,1.038953 0.01269,1.931069 0.306339,0.659201 0.697032,2.326525 0.868228,3.705168 0.171283,1.378642 0.395924,2.870664 0.499396,3.315604 0.205406,0.883127 1.470401,1.104445 1.831005,0.320341 z m 44.371526,-0.535807 c 0.681701,-0.600262 1.571998,-0.850181 2.150148,-0.603575 0.704596,0.300529 0.986748,0.134338 0.986748,-0.581183 0,-1.551084 -2.217872,-1.990094 -3.656072,-0.723697 -1.169211,1.029532 -1.295667,1.026622 -2.181047,-0.0502 -0.810754,-0.986027 -1.162114,-1.035099 -2.55718,-0.357155 -1.253062,0.60893 -1.899883,0.612904 -2.872031,0.01762 -0.946691,-0.579677 -1.550273,-0.587311 -2.458666,-0.0311 -1.790456,1.096325 -1.515595,2.196542 0.426417,1.706926 0.982277,-0.247643 1.75933,-0.130667 1.954746,0.294269 0.433827,0.943335 1.978602,0.893133 3.190249,-0.103653 0.829781,-0.682658 1.058105,-0.632128 1.462119,0.323593 0.595309,1.408184 2.028642,1.451784 3.554569,0.108144 z M 26.948454,73.967676 c 0.176737,-1.334822 0.735329,-3.350396 1.24148,-4.47906 1.008482,-2.24883 0.504817,-3.440095 -0.698792,-1.652761 -1.021878,1.51745 -1.783411,4.361074 -1.783411,6.659343 0,2.714467 0.860042,2.348805 1.240723,-0.527522 z M 37.265631,72.22611 c 0,-4.227774 -0.615122,-6.073558 -1.142632,-3.428644 -0.390842,1.959753 -0.378502,6.631585 0.01889,7.165702 0.823483,1.106681 1.123684,0.108338 1.123684,-3.737058 z m 4.233857,0.609739 c -0.206731,-3.350161 -0.584721,-4.796902 -1.07958,-4.131888 -0.119216,0.160216 -0.08881,1.956154 0.06735,3.99098 0.368033,4.792151 1.307296,4.922903 1.012196,0.140917 z m 121.458222,1.048318 c 0,-1.230104 -3.15961,-6.550157 -3.89015,-6.550157 -0.80644,0 -0.46574,1.235712 1.32714,4.813234 1.73303,3.458146 2.56301,4.020611 2.56301,1.736923 z m -10.49159,-1.43389 c -0.14033,-2.22838 -0.8123,-3.731799 -1.34688,-3.013376 -0.16309,0.219238 -0.14579,1.598089 0.0384,3.064091 0.40317,3.206816 1.51087,3.16388 1.30843,-0.05071 z M 15.275001,66.742139 c 1.810724,-2.344115 4.466899,-5.233156 5.90259,-6.420097 2.967625,-2.453451 3.088025,-4.108216 0.137051,-1.884883 -2.727807,2.05527 -9.343907,9.864407 -10.515239,12.411388 -1.3104121,2.849417 -1.2124161,4.431578 0.126494,2.041857 0.581243,-1.03743 2.538315,-3.804152 4.349061,-6.148265 z m 39.807237,5.607562 c -0.0032,-1.235738 -1.840953,-5.015691 -2.439133,-5.015691 -0.29084,0 -0.450905,0.218433 -0.355716,0.485387 1.778064,4.986138 2.799556,6.641921 2.794849,4.530304 z M 18.215248,69.26027 c 0.779187,-1.415396 1.591858,-2.573446 1.805911,-2.573446 0.214063,0 0.389198,-0.43685 0.389198,-0.970779 0,-0.53393 -0.189107,-0.970779 -0.420227,-0.970779 -0.727462,0 -4.4517,5.826164 -4.147337,6.488009 0.484207,1.0529 0.894464,0.711717 2.372455,-1.973005 z M 156.69718,68.068475 c 0,-1.029825 -1.98756,-3.970397 -2.68364,-3.970397 -0.91906,0 -0.86927,0.427761 0.30854,2.650635 0.93439,1.763482 2.3751,2.564038 2.3751,1.319762 z m -9.72145,-2.837821 c -0.15453,-2.153153 -0.98581,-2.678188 -1.27519,-0.805365 -0.21643,1.400671 0.24961,2.908721 0.89889,2.908721 0.30469,0 0.46349,-0.887722 0.3763,-2.103356 z m 19.49449,-0.446367 c -1.6451,-3.41118 -3.49862,-5.934422 -4.56131,-6.209456 -0.58713,-0.151949 -2.2171,-1.057948 -3.62219,-2.013326 -1.4051,-0.955381 -2.71678,-1.517404 -2.91489,-1.248938 -0.55205,0.748144 2.04102,3.232726 4.73018,4.53227 1.71806,0.830257 2.97508,2.066485 4.38315,4.310589 2.06083,3.284508 3.48306,3.735066 1.98506,0.628861 z m -67.772994,-0.08358 c 2.238554,-3.14331 6.144904,-6.98082 8.198524,-8.054036 l 1.88434,-0.984765 -3.37106,0.330366 c -1.85407,0.181694 -4.86496,0.332436 -6.69085,0.334966 l -3.319834,0.0047 0.318949,4.611647 c 0.455322,6.584007 0.724814,6.923778 2.979931,3.75722 z m 39.141084,0.337694 c 0.72763,-2.146193 0.70563,-2.881887 -0.0862,-2.881887 -0.60754,0 -1.76282,2.564785 -1.76282,3.913571 0,1.281615 1.31312,0.548943 1.84902,-1.031684 z m 6.2465,-0.778533 c -0.0823,-1.334819 -0.36617,-2.426948 -0.63105,-2.426948 -0.26488,0 -0.54883,1.092129 -0.63106,2.426948 -0.11629,1.888803 0.0237,2.42695 0.63106,2.42695 0.60745,0 0.74737,-0.538147 0.63105,-2.42695 z m 7.315,1.492267 c 0,-1.312065 -2.24485,-4.675159 -2.70697,-4.055452 -0.51912,0.696103 1.2539,4.990143 2.06044,4.990143 0.35558,0 0.64653,-0.420613 0.64653,-0.934691 z M 51.712989,65.492759 c 0,-0.867077 -1.729389,-2.737969 -2.086845,-2.257592 -0.177643,0.238857 0.03608,0.967574 0.47491,1.619376 0.842237,1.250698 1.611935,1.555447 1.611935,0.638216 z M 83.57541,60.486813 c 0.482776,-4.819162 0.460873,-13.738596 -0.0348,-14.150252 -0.772581,-0.641665 -1.969774,0.38508 -1.969774,1.689306 0,0.787625 0.208618,1.090037 0.554065,0.803121 0.413226,-0.343211 0.466317,1.556488 0.208822,7.472703 -0.279674,6.425686 -0.224843,7.879369 0.288673,7.651107 0.348671,-0.154983 0.777491,-1.714683 0.952958,-3.465985 z m 51.15899,1.611343 c 1.19487,-2.71832 0.32217,-3.932899 -1.09104,-1.518477 -0.56381,0.963274 -1.02512,2.148977 -1.02512,2.634904 0,1.575886 1.21433,0.935238 2.11616,-1.116427 z M 91.413408,58.4352 c 0.158168,-2.402678 0.392515,-5.879993 0.520715,-7.727366 0.207261,-2.986573 -0.292386,-4.88986 -1.025178,-3.905083 -0.347563,0.467113 -1.149488,14.833969 -0.862783,15.45741 0.654915,1.424039 1.104472,0.166357 1.367246,-3.824961 z m 31.508712,1.503025 c 1.2274,-1.220056 3.31519,-3.734112 4.63953,-5.586779 2.03041,-2.840381 2.21915,-3.297914 1.20396,-2.918327 -2.63655,0.985817 -11.0263,2.965762 -14.20658,3.352691 l -3.37106,0.410135 2.29488,0.794009 c 1.40759,0.487015 3.17644,1.819954 4.575,3.447516 1.25407,1.459428 2.35944,2.668255 2.4564,2.686277 0.097,0.0181 1.1805,-0.965459 2.40787,-2.185522 z m 23.66191,0.291475 c 0,-1.656773 -0.49752,-3.250669 -1.01469,-3.250669 -0.48803,0 -0.59377,4.09456 -0.12213,4.728437 0.49416,0.664083 1.13679,-0.171298 1.13679,-1.477768 z m 7.69694,0.470653 c -0.0127,-1.184912 -2.28764,-3.890675 -2.86715,-3.409354 -0.72207,0.599718 -0.61576,1.212163 0.48634,2.801929 1.07486,1.550478 2.39397,1.887027 2.38081,0.607425 z M 89.166314,52.23699 c -0.177826,-6.42198 -0.203735,-6.54776 -1.343117,-6.54776 -0.938536,0 -1.228105,0.431741 -1.507226,2.247173 -0.605909,3.941125 -0.633223,9.266621 -0.04878,9.528394 0.511009,0.2289 0.815276,-1.234754 1.244577,-5.986846 0.09649,-1.067858 0.207882,0.121343 0.247578,2.642675 0.0397,2.521331 0.210733,4.770472 0.380115,4.998098 0.873924,1.174473 1.191222,-0.951801 1.026943,-6.881734 z m 44.631456,3.623388 c 0.32736,-1.146486 -1.40346,-1.049141 -2.12519,0.119519 -0.85896,1.390911 -0.18073,2.441523 0.95869,1.485187 0.51233,-0.429993 1.03726,-1.152113 1.1665,-1.60471 z M 96.855279,51.354676 c -0.447756,-0.601728 -0.949317,-0.912338 -1.114576,-0.690243 -0.473973,0.636948 0.253631,1.784297 1.131529,1.784297 0.735114,0 0.733798,-0.08512 -0.01642,-1.094054 z M 71.498572,50.443249 c 3.896107,-1.712965 4.952664,-2.47779 3.460713,-2.505144 -1.469954,-0.02694 -7.354194,2.619294 -7.354194,3.307306 0,0.80382 0.452996,0.710489 3.893481,-0.802162 z m 5.396097,-0.03824 c 1.115144,-0.768095 1.759714,-1.519072 1.43238,-1.668836 -0.718464,-0.32873 -4.461434,1.804528 -4.461434,2.542733 0,0.858344 0.884708,0.603104 3.029054,-0.873897 z m 2.02753,0.749348 c 0.163629,-0.355951 -0.02743,-0.647187 -0.424753,-0.647187 -0.3973,0 -0.856295,0.291236 -1.019988,0.647187 -0.16363,0.355952 0.02743,0.647187 0.424732,0.647187 0.397299,0 0.856305,-0.291235 1.020009,-0.647187 z m 27.450001,0.280654 c -0.26487,-0.145392 -2.49725,-0.800495 -4.96084,-1.455795 l -4.479249,-1.191452 1.348996,1.483614 c 1.146717,1.261168 1.890513,1.479444 4.960833,1.455796 1.98651,-0.01541 3.39511,-0.146763 3.13026,-0.292163 z m 13.00262,-1.533013 c 1.25924,-0.393985 1.07372,-0.513394 -1.44473,-0.929985 -3.45772,-0.571952 -16.29905,-1.589971 -16.5509,-1.312104 -0.19224,0.212097 0.37573,0.395456 5.47458,1.76744 3.60316,0.969528 10.14657,1.217579 12.52105,0.474649 z m -49.940955,-1.68332 c 1.932853,-0.605957 3.428072,-1.217624 3.322678,-1.359254 -0.10535,-0.141628 -1.686833,0.03294 -3.514304,0.387931 -1.827462,0.354989 -5.478936,0.651207 -8.114394,0.65826 -2.937717,0.0079 -4.614689,0.24397 -4.334202,0.610205 1.195754,1.561367 7.159194,1.421177 12.640222,-0.297142 z m 58.103725,-0.858289 c -0.25163,-0.306923 -1.90751,-1.033941 -3.6797,-1.615592 -2.69614,-0.884886 -4.66178,-0.980773 -12.03949,-0.587316 l -8.81727,0.470233 6.9829,0.492287 c 3.84059,0.270755 8.28317,0.750652 9.87237,1.06644 3.88484,0.77194 8.25251,0.870852 7.68119,0.173937 z M 62.648082,45.951215 c 4.682222,-0.359992 8.589282,-0.756845 8.682325,-0.881897 0.09297,-0.125043 -3.145057,-0.432595 -7.195827,-0.683427 -6.042128,-0.374141 -7.992861,-0.262679 -10.860451,0.620561 -3.660686,1.127509 -4.479388,2.746881 -1.012058,2.001764 1.030097,-0.221369 5.703789,-0.69701 10.386011,-1.057001 z m 41.908168,-2.306907 c -0.16001,-0.215056 -0.5754,-0.238051 -0.92305,-0.0511 -0.38416,0.206592 -0.27004,0.359951 0.29096,0.391007 0.50768,0.0281 0.7921,-0.12487 0.63209,-0.339915 z M 74.106395,42.740945 c -0.529731,-0.305917 -2.913531,-0.523272 -5.297353,-0.483018 l -4.334213,0.07319 3.852622,0.409825 c 6.146913,0.653879 6.911242,0.653879 5.778944,0 z m 37.683555,0.171468 c -1.25812,-0.133309 -3.31688,-0.133309 -4.57499,0 -1.25814,0.133311 -0.22877,0.242406 2.28749,0.242406 2.51625,0 3.54562,-0.109076 2.2875,-0.242406 z m 15.7103,-1.627645 c -0.4447,-1.156845 -1.32808,-3.159292 -1.96308,-4.449878 -1.83569,-3.730856 -11.76507,-12.799051 -11.10626,-10.143001 0.10757,0.433437 2.02236,2.553529 4.25521,4.711316 2.65492,2.565658 4.60065,5.038124 5.62284,7.145098 2.09738,4.323166 2.44796,4.839817 3.28406,4.839817 0.61424,0 0.60108,-0.298276 -0.0929,-2.103352 z m -49.031282,0.464805 c -0.882391,-0.896908 -3.65616,-1.403093 -3.022531,-0.551582 0.2381,0.31997 2.595164,1.243451 3.716552,1.456116 0.132505,0.02512 -0.179832,-0.381923 -0.694021,-0.904534 z m 3.463327,0.182379 c -0.110302,-0.444941 -0.609004,-0.915384 -1.108356,-1.045425 -0.785506,-0.204566 -0.820889,-0.09549 -0.262319,0.808982 0.76387,1.236936 1.656713,1.390951 1.370675,0.236436 z m 12.910339,-0.141211 c 0.898769,-0.913564 0.886034,-0.950991 -0.330555,-0.97078 -0.695957,-0.01126 -1.535154,0.416267 -1.864888,0.950195 -0.497698,0.805922 -0.44157,0.97078 0.330564,0.97078 0.511553,0 1.350751,-0.427589 1.864879,-0.950195 z M 49.930071,40.523219 c 0.583301,-0.863799 2.023037,-3.208955 3.199386,-5.211466 1.17638,-2.002512 3.180951,-4.548391 4.454613,-5.657508 3.382975,-2.945909 3.043409,-4.284106 -0.472508,-1.862162 -2.583923,1.77994 -9.545813,12.490269 -8.95458,13.775906 0.37036,0.80534 0.62509,0.655248 1.773089,-1.04477 z m 34.771072,0.923346 c -0.163629,-0.355951 -0.51435,-0.647185 -0.779219,-0.647185 -0.264871,0 -0.347646,0.291234 -0.183941,0.647185 0.163628,0.355953 0.514338,0.647187 0.779218,0.647187 0.264871,0 0.347624,-0.291234 0.183942,-0.647187 z m 2.648692,0 c 0,-0.355951 -0.216731,-0.647185 -0.481591,-0.647185 -0.26487,0 -0.481581,0.291234 -0.481581,0.647185 0,0.355953 0.216711,0.647187 0.481581,0.647187 0.26486,0 0.481591,-0.291234 0.481591,-0.647187 z m 3.611833,0 c 0.163626,-0.355951 -0.14853,-0.647185 -0.693951,-0.647185 -0.545364,0 -0.991572,0.291234 -0.991572,0.647185 0,0.355953 0.312278,0.647187 0.693951,0.647187 0.381663,0 0.827871,-0.291234 0.991572,-0.647187 z m 11.816622,-0.0046 c 1.4065,-0.358468 2.63306,-0.753595 2.72568,-0.878061 0.0927,-0.124454 -0.36204,-1.481281 -1.01036,-3.015148 l -1.17874,-2.788849 -0.1569,2.194744 c -0.12777,1.788659 -0.51328,2.465156 -2.08318,3.656258 -2.170237,1.646573 -1.938998,1.75938 1.70347,0.831056 z M 55.804086,38.04873 c 0.731294,-1.512799 1.757986,-3.384257 2.281567,-4.1588 1.254235,-1.855478 0.649256,-3.336794 -0.697575,-1.708034 -1.430792,1.730281 -3.748778,6.430463 -3.748778,7.601407 0,1.748798 0.784951,1.119841 2.164786,-1.734573 z m 66.219424,1.648776 c 0,-1.336445 -2.81408,-5.370095 -3.74644,-5.370095 -0.89591,0 -0.6518,0.718649 1.30386,3.838375 1.7846,2.846886 2.44258,3.259496 2.44258,1.53172 z m -61.327302,-2.89464 c 0.540937,-2.493101 2.0931,-5.553033 2.0931,-4.126329 0,0.246985 0.335766,-0.0021 0.746131,-0.553661 0.410385,-0.5515 1.114696,-1.282251 1.565141,-1.623886 0.574272,-0.435555 0.667667,-0.826905 0.312539,-1.309713 -0.356984,-0.485356 -1.182262,-0.112587 -2.796481,1.263167 -2.373287,2.02267 -3.679963,4.904117 -3.679963,8.114931 0,2.609886 1.035786,1.571176 1.759533,-1.764509 z m 55.548352,2.408679 c 0,-0.517353 -0.92102,-2.227311 -2.0467,-3.799901 -1.1257,-1.572591 -2.32615,-3.333554 -2.66767,-3.913248 -0.34153,-0.579698 -0.82913,-1.053992 -1.08357,-1.053992 -0.64192,0 -0.57967,1.525339 0.0996,2.43809 0.42843,0.57575 0.37115,0.853878 -0.24079,1.169458 -1.05592,0.544528 -1.01281,1.297536 0.20587,3.597552 0.71953,1.358009 1.26901,1.792817 1.91658,1.516606 0.49933,-0.212978 1.29148,-0.08708 1.76034,0.279751 1.21736,0.952461 2.05642,0.856857 2.05642,-0.234308 z m -50.881554,-2.86755 c 1.134188,-2.915015 1.206588,-3.958033 0.274787,-3.958033 -0.606325,0 -2.366905,4.269056 -2.366905,5.739268 0,2.252224 0.781707,1.586669 2.092118,-1.781235 z m 4.211529,-1.403922 c 0.90485,-3.845428 0.372078,-4.795039 -0.997071,-1.777164 -0.989409,2.180887 -1.224371,3.846156 -0.651317,4.616269 0.62429,0.838984 0.891028,0.379586 1.648388,-2.839105 z m 4.476441,0.07481 c 0.945293,-3.883917 0.946254,-3.923308 0.09521,-3.923308 -0.793704,0 -2.4633,5.390808 -1.98903,6.422127 0.616155,1.33979 1.121922,0.672433 1.893766,-2.498819 z m 3.99182,-1.332862 c -0.08464,-3.923826 -0.894283,-5.275784 -1.534935,-2.563153 -0.460756,1.950875 0.219303,6.444566 0.975297,6.444566 0.474599,0 0.621439,-1.018271 0.559638,-3.881413 z m -1.769279,-8.390062 c 0,-1.419028 -1.268933,-0.543748 -2.796983,1.929298 -2.24153,3.627772 -1.431208,4.834562 0.946275,1.409269 1.017896,-1.466476 1.850708,-2.968831 1.850708,-3.338567 z m -9.327245,0.569342 c 1.697443,-1.409836 2.109143,-2.535961 0.927125,-2.535961 -0.924115,0 -4.120938,2.559854 -4.120938,3.299856 0,1.000543 1.501962,0.641305 3.193813,-0.763895 z"
       id="path2" /></g></svg>
