<?xml version="1.0" encoding="UTF-8" standalone="no"?>
<!-- Created with Inkscape (http://www.inkscape.org/) -->

<svg
   width="180mm"
   height="180mm"
   viewBox="0 0 180 180"
   version="1.1"
   id="svg1"
   sodipodi:docname="food_mushroom_poisonous_non_psychedelic.svg"
   inkscape:version="1.4.2 (f4327f4, 2025-05-13)"
   xml:space="preserve"
   xmlns:inkscape="http://www.inkscape.org/namespaces/inkscape"
   xmlns:sodipodi="http://sodipodi.sourceforge.net/DTD/sodipodi-0.dtd"
   xmlns="http://www.w3.org/2000/svg"
   xmlns:svg="http://www.w3.org/2000/svg"><sodipodi:namedview
     id="namedview1"
     pagecolor="#505050"
     bordercolor="#ffffff"
     borderopacity="1"
     inkscape:showpageshadow="0"
     inkscape:pageopacity="0"
     inkscape:pagecheckerboard="1"
     inkscape:deskcolor="#505050"
     inkscape:document-units="mm"
     inkscape:zoom="0.70710678"
     inkscape:cx="30.405592"
     inkscape:cy="516.18795"
     inkscape:window-width="2560"
     inkscape:window-height="1351"
     inkscape:window-x="-9"
     inkscape:window-y="-9"
     inkscape:window-maximized="1"
     inkscape:current-layer="layer1"
     showguides="true" /><defs
     id="defs1"><rect
       x="101.82338"
       y="91.923881"
       width="384.66609"
       height="299.81327"
       id="rect3" /><rect
       x="2.8284271"
       y="2.1213203"
       width="662.55905"
       height="647.0027"
       id="rect2" /></defs><g
     inkscape:label="Icon"
     inkscape:groupmode="layer"
     id="layer1"><path
       style="fill:#000000"
       d="m 47.339338,177.19181 c -8.98542,-0.14946 -9.59821,-0.19026 -10.13314,-0.67472 -0.78383,-0.70987 -0.65499,-2.16485 0.25005,-2.82382 0.59368,-0.43227 1.53582,-0.5002 9.19427,-0.66291 4.69305,-0.0997 8.53281,-0.23643 8.53281,-0.30381 0,-0.0674 -0.4229,-0.81868 -0.93978,-1.66956 -0.57949,-0.95395 -2.2785,-2.81778 -4.43177,-4.86169 -3.19167,-3.02958 -3.42618,-3.31478 -2.72676,-3.31621 2.09123,-0.004 6.88181,1.99432 9.83985,4.10514 0.91332,0.65173 1.72213,1.18496 1.79735,1.18496 0.25811,0 -0.82037,-2.77927 -1.94991,-5.02498 -1.29223,-2.56916 -2.96978,-5.12682 -5.21964,-7.9581 -1.96673,-2.47498 -2.57002,-3.39401 -2.36351,-3.60052 0.31491,-0.31492 3.61266,1.54241 5.91555,3.33169 2.20998,1.7171 5.44945,4.88493 7.058,6.90191 l 0.73853,0.92604 -0.17929,-1.05833 c -0.68259,-4.0293 -0.60099,-7.48138 0.23236,-9.83075 0.2145,-0.60472 0.8755,-1.9841 1.46889,-3.06528 0.9648,-1.75791 1.07888,-2.15678 1.07888,-3.77205 0,-2.1922 0.62845,-3.43329 2.56563,-5.06674 l 1.29457,-1.09161 0.7098,-4.59408 c 1.32791,-8.59471 1.82479,-13.41636 2.30349,-22.35247 0.14903,-2.78211 0.19554,-5.43553 0.10335,-5.89647 -0.25559,-1.27795 -0.95998,-1.61263 -3.39769,-1.61432 -1.16816,-8.1e-4 -2.57885,-0.1278 -3.13485,-0.28219 -1.29979,-0.36093 -2.97657,-1.87784 -3.36,-3.03965 -0.25985,-0.78736 -0.21352,-1.094737 0.35081,-2.327387 0.35761,-0.78112 1.40212,-2.53794 2.32114,-3.90403 0.91902,-1.36609 2.97885,-4.626931 4.5774,-7.246306 l 2.90645,-4.762501 0.10853,-2.414177 0.10852,-2.414178 -3.66243,-0.178671 c -18.57019,-0.905947 -34.46966,-2.921869 -42.02701,-5.32868 -3.55673,-1.132721 -7.24025,-3.065366 -8.83571,-4.635857 -3.51022,-3.455294 -4.29532,-8.669105 -2.40776,-15.989817 2.45686,-9.528629 6.95313,-16.943064 15.31978,-25.262579 6.70521,-6.667435 12.31988,-10.803678 19.79709,-14.584214 9.41373,-4.7596517 18.56651,-7.6053927 28.5141,-8.8654717 4.5661,-0.578396 15.30109,-0.663209 19.44688,-0.153641 16.558832,2.035284 30.255782,7.6331567 43.112842,17.6199957 3.30676,2.568552 8.47607,7.636468 10.96084,10.745831 8.22398,10.291256 12.96848,22.811534 11.54159,30.457117 -0.87944,4.712207 -4.66299,8.220455 -11.2504,10.431773 -5.66313,1.90105 -16.92002,3.68391 -29.89091,4.734106 -4.65465,0.376866 -14.12341,0.94173 -15.80886,0.943086 l -0.7276,5.86e-4 v 2.452122 c 0,2.13913 0.0796,2.569721 0.62374,3.373438 0.34306,0.506723 1.78289,2.826315 3.19962,5.154648 1.41673,2.32833 3.29666,5.2429 4.17761,6.47682 2.03128,2.84513 2.41209,3.74599 2.19511,5.192877 -0.21941,1.46317 -0.93566,2.34035 -2.61541,3.20306 -1.15836,0.59493 -1.73745,0.70726 -3.85759,0.74829 -2.27943,0.0441 -2.53916,0.1028 -3.01088,0.68028 -0.48076,0.58855 -0.50434,0.914 -0.34295,4.73305 0.22194,5.25224 0.59718,10.30903 1.09947,14.81666 0.55225,4.95606 1.97082,14.12136 2.21094,14.28475 1.1263,0.7664 2.78897,2.37291 3.1307,3.02496 0.23671,0.45165 0.50211,1.83133 0.59599,3.09821 0.15285,2.06264 0.27766,2.46643 1.28806,4.16719 0.61534,1.03577 1.20278,1.88238 1.30542,1.88134 0.20228,-0.002 1.03493,-1.54542 5.20912,-9.65541 2.93631,-5.70493 3.53189,-7.16186 3.103,-7.59076 -0.14631,-0.1463 -1.84947,-0.74009 -3.78482,-1.31954 -5.83544,-1.74714 -8.25104,-3.05069 -9.23791,-4.98511 -0.77968,-1.52831 -0.69261,-3.28384 0.25686,-5.17847 2.51818,-5.02497 8.78352,-9.62533 15.50718,-11.38623 3.14004,-0.82237 8.78368,-1.14225 11.57537,-0.6561 4.13476,0.72004 9.62411,3.18825 12.66003,5.69242 4.82316,3.97837 7.93152,10.21369 7.99163,16.03109 0.0225,2.17773 -0.0619,2.69023 -0.63185,3.83607 -0.3639,0.73162 -1.04932,1.58183 -1.53403,1.90286 -2.02031,1.33807 -5.93079,1.43704 -12.31489,0.3117 -2.14872,-0.37877 -3.44581,-0.49976 -3.60892,-0.33665 -0.28209,0.28209 -1.22807,5.5727 -1.36739,7.64747 l -0.0888,1.32292 1.7834,0.17633 c 2.38541,0.23585 4.11895,0.84397 6.01479,2.10997 2.99089,1.99724 4.54338,4.7734 4.71386,8.42933 0.0966,2.07243 0.0451,2.36247 -0.65642,3.69508 -0.9729,1.84806 -2.80459,2.9195 -4.99106,2.9195 -0.77516,0 -1.48122,0.11623 -1.56902,0.2583 -0.20152,0.32608 -0.94063,4.84627 -0.81324,4.97365 0.0519,0.0519 0.74216,-0.27114 1.53385,-0.71794 2.61061,-1.47334 7.60989,-2.91936 7.60989,-2.20113 0,0.14748 -0.68461,0.83133 -1.52136,1.51966 -1.49151,1.22698 -3.53878,3.44254 -4.03114,4.36253 -0.21842,0.40812 -0.0806,0.48499 1.13052,0.63048 0.7586,0.0911 3.31944,0.16672 5.69077,0.16798 4.22343,0.002 4.32477,0.0156 4.96094,0.65174 1.14432,1.14432 0.73519,2.57843 -0.87504,3.06725 -1.10072,0.33415 -95.078582,0.56727 -112.417442,0.27885 z m 91.642822,-5.22878 c 1.63092,-1.32001 2.57272,-3.72373 2.7741,-7.08019 l 0.0781,-1.30198 -2.44256,-0.80268 -2.44256,-0.80268 -0.83447,0.78174 c -1.26028,1.18064 -3.29483,4.41609 -3.64069,5.78964 -0.34403,1.36626 -0.0675,2.20177 1.06691,3.2242 1.08901,0.98146 1.64656,1.17755 3.07045,1.07984 1.06299,-0.0729 1.62288,-0.28263 2.3707,-0.88789 z m -9.38431,-6.83655 c 0.87874,-1.30969 1.99409,-2.90039 2.47857,-3.5349 l 0.88086,-1.15365 -1.42635,-1.35989 c -2.00432,-1.91093 -2.45475,-4.02894 -1.33016,-6.25468 0.52331,-1.03572 3.30348,-3.55272 4.95154,-4.48283 1.3744,-0.77566 1.50755,-0.9337 1.64376,-1.95092 0.50142,-3.74467 1.23255,-8.58366 1.3565,-8.97803 0.1045,-0.33247 -0.0644,-0.54278 -0.59991,-0.74678 -1.2876,-0.49056 -7.3168,-1.85552 -7.64304,-1.73033 -0.17125,0.0657 -0.69552,1.05174 -1.16504,2.19117 -0.46952,1.13942 -2.49595,5.28636 -4.50318,9.21542 -3.6198,7.08558 -5.01657,10.28699 -4.64871,10.65485 0.10512,0.10512 0.86065,-0.58234 1.67894,-1.52769 3.40809,-3.93727 7.20129,-6.98301 7.20129,-5.78225 0,0.16621 -0.76468,1.74379 -1.69928,3.50573 -1.94949,3.67525 -3.33604,6.98689 -4.08161,9.74855 -1.01793,3.7705 -1.09588,3.69931 1.33313,1.21746 1.93917,-1.98135 4.55014,-3.91183 4.86497,-3.59701 0.0611,0.0611 -0.18581,0.84173 -0.54867,1.73473 -0.66213,1.62952 -1.98521,5.94957 -1.98521,6.48203 0,0.5683 1.68093,-1.32491 3.2416,-3.65098 z m -40.966362,0.50086 c 0.59569,-0.22859 0.53342,-1.75191 -0.12433,-3.0412 -0.45618,-0.8942 -0.65601,-1.05089 -1.2519,-0.98164 -1.35493,0.15746 -1.46854,2.26712 -0.1909,3.54477 0.67278,0.67278 0.88835,0.73854 1.56713,0.47807 z m -6.45636,-5.08134 c 0.76598,-0.62025 0.55481,-1.32953 -0.84935,-2.85286 -1.33104,-1.44401 -2.60832,-1.91997 -3.53063,-1.31565 -0.77165,0.5056 -0.77278,0.51257 -0.22044,1.35555 0.46272,0.70619 3.44466,3.2924 3.7962,3.2924 0.11667,0 0.47857,-0.21575 0.80422,-0.47944 z m 61.761952,-1.13066 c -0.0852,-0.13784 -0.26767,-0.18091 -0.40551,-0.0957 -0.13784,0.0852 -0.18092,0.26767 -0.0957,0.40551 0.0852,0.13784 0.26767,0.18092 0.40551,0.0957 0.13784,-0.0852 0.18092,-0.26767 0.0957,-0.40551 z m -49.751152,-0.52696 c 1.17872,-1.40082 1.27742,-2.95607 0.19736,-3.10972 -1.40758,-0.20024 -3.06792,2.64381 -2.10537,3.60636 0.53052,0.53053 1.18763,0.35949 1.90801,-0.49664 z m 14.656372,-0.5863 c 1.34976,-1.43675 1.2948,-3.36206 -0.096,-3.36206 -1.0928,0 -2.76589,3.08391 -2.05743,3.79236 0.38834,0.38835 1.61451,0.14333 2.15341,-0.4303 z m 40.6649,-0.0175 c 0.46095,-0.70351 0.30293,-1.3826 -0.41059,-1.76446 -0.6244,-0.33417 -1.71308,0.0728 -2.09283,0.7824 -0.23072,0.43111 -0.18218,0.64033 0.24849,1.071 0.72694,0.72694 1.7467,0.68671 2.25493,-0.0889 z m -77.173492,-0.9241 c 0.13643,-1.4205 -1.15863,-2.43139 -2.01621,-1.57381 -0.5036,0.5036 -0.37229,1.23926 0.35014,1.96169 0.89434,0.89434 1.55776,0.73989 1.66607,-0.38788 z m 67.201922,0.42076 c 0.0947,-0.49187 -0.37921,-0.59912 -0.9763,-0.22093 -0.20054,0.12702 -0.27874,0.36991 -0.17376,0.53976 0.27228,0.44056 1.04508,0.22632 1.15006,-0.31883 z m -53.377642,-5.11237 c 0.51127,-0.61605 0.0597,-1.181 -1.61965,-2.02632 -1.57944,-0.79503 -2.81761,-0.84971 -3.25944,-0.14394 -0.22662,0.36198 -0.13508,0.60867 0.45403,1.22357 1.19145,1.24361 3.72823,1.78632 4.42506,0.94669 z m 51.676942,-0.70175 c 0.22653,-0.36139 0.17211,-0.57517 -0.25521,-1.00249 -0.66398,-0.66398 -1.37305,-0.46018 -1.60427,0.46108 -0.27943,1.11335 1.22618,1.55172 1.85948,0.54141 z m -37.64541,-0.54339 c 0.73237,-0.49354 0.89902,-0.77556 0.89902,-1.52135 0,-0.86229 -0.0494,-0.91329 -0.85049,-0.87751 -0.467762,0.0209 -1.390502,0.2994 -2.050522,0.61891 -1.00373,0.4859 -1.20003,0.7033 -1.20003,1.32903 0,0.41145 0.14883,0.80815 0.33073,0.88155 0.78834,0.3181 2.03847,0.13061 2.871292,-0.43063 z M 146.2,150.97125 c 0,-0.14552 -0.11906,-0.26458 -0.26458,-0.26458 -0.14552,0 -0.26458,0.11906 -0.26458,0.26458 0,0.14552 0.11906,0.26459 0.26458,0.26459 0.14552,0 0.26458,-0.11907 0.26458,-0.26459 z m -66.678882,-9.05262 c 1.69916,-1.82383 3.72348,-13.21273 3.80122,-21.38581 0.0336,-3.53425 -0.0268,-4.21309 -0.43,-4.82865 -0.49713,-0.75902 -1.27816,-0.935 -1.71096,-0.38552 -0.41118,0.52204 -0.5516,1.37887 -0.98772,6.02708 -0.22487,2.3968 -0.90512,7.95161 -1.51166,12.34404 -0.91411,6.61977 -1.04397,8.0571 -0.75896,8.40052 0.47357,0.57061 0.9547,0.51893 1.59808,-0.17166 z M 149.53013,131.2205 c 0.77948,-0.51074 1.43279,-1.66421 1.43138,-2.52725 -0.003,-1.67721 -2.13208,-3.32672 -3.87289,-3.00014 -2.94208,0.55194 -3.51824,3.88973 -0.93045,5.3902 1.16588,0.67601 2.46872,0.72902 3.37196,0.13719 z m -21.96167,-5.13342 c 1.83923,-1.13671 2.45823,-3.27187 1.43505,-4.95002 -1.46644,-2.40515 -5.0692,-2.58999 -6.94856,-0.3565 -1.02687,1.22037 -1.17472,2.40626 -0.4588,3.68007 1.14536,2.03788 4.03382,2.8245 5.97231,1.62645 z m 14.00956,-5.92085 c 1.53668,-1.00687 1.50459,-2.64384 -0.0728,-3.71573 -0.7196,-0.48899 -1.33059,-0.66883 -2.27222,-0.66883 -1.11196,0 -1.41089,0.12293 -2.18754,0.89958 -0.49477,0.49477 -0.89959,1.12313 -0.89959,1.39634 0,0.68934 0.70089,1.62099 1.68453,2.23917 0.9775,0.61431 2.68504,0.54573 3.74766,-0.15053 z M 93.422018,102.96952 c 1.33435,-0.8743 1.50048,-1.46225 1.63155,-5.774227 0.0675,-2.21952 0.17717,-4.20489 0.24378,-4.41192 0.19706,-0.61248 0.74739,0.38147 2.26477,4.09045 l 1.38337,3.381387 2.168852,1.01635 c 1.19286,0.559 2.47872,1.01636 2.85746,1.01636 0.94834,0 0.907,-0.74056 -0.24229,-4.341037 -0.9643,-3.02094 -1.16837,-4.51581 -0.59045,-4.32526 0.1819,0.06 1.20058,1.23076 2.26373,2.60174 3.1801,4.100867 3.31836,4.212477 5.21856,4.212477 0.89308,0 1.69842,-0.0746 1.78963,-0.16584 0.22595,-0.22596 -0.4051,-1.398697 -2.18873,-4.067497 -0.82667,-1.23693 -2.36607,-3.69747 -3.4209,-5.46788 -1.05483,-1.770411 -2.12922,-3.410201 -2.38754,-3.64398 -0.4274,-0.386786 -0.78878,-0.390215 -4.01414,-0.0381 -1.949452,0.212825 -5.032742,0.458423 -6.851752,0.545774 -3.80664,0.182799 -12.05212,-0.229245 -15.34584,-0.766864 -1.23692,-0.201898 -2.32291,-0.321584 -2.41331,-0.265968 -0.0904,0.05562 -1.21448,1.800212 -2.49797,3.876881 -1.28349,2.076667 -3.14837,5.013697 -4.14418,6.526727 -0.99581,1.51303 -1.76741,2.88225 -1.71468,3.042707 0.0527,0.16046 0.62639,0.32698 1.2748,0.37005 1.65963,0.11024 2.56883,-0.584987 5.30068,-4.053207 3.12566,-3.96819 3.85658,-4.78575 4.07938,-4.56295 0.10505,0.10505 -0.48087,2.26387 -1.30206,4.79736 -0.82119,2.5335 -1.49307,4.864097 -1.49307,5.179107 0,0.40763 0.27489,0.68762 0.95345,0.97114 1.08235,0.45223 1.75007,0.35837 4.39491,-0.61778 l 1.77649,-0.65566 1.09525,-2.817117 c 1.91914,-4.93628 2.15719,-5.42486 2.41696,-4.96067 0.12821,0.2291 0.36617,2.11481 0.5288,4.19047 0.16262,2.07566 0.4255,3.917547 0.58418,4.093087 0.15867,0.17555 1.06241,0.62234 2.00829,0.99286 1.88626,0.73889 3.27663,0.74876 4.37202,0.031 z M 111.93646,73.581902 c 15.91908,-0.686079 30.9674,-2.550898 38.72452,-4.798822 3.63502,-1.053388 3.77058,-1.402259 0.89683,-2.307996 -6.04624,-1.905633 -17.76576,-3.804392 -29.56718,-4.790379 -9.68454,-0.809126 -14.55322,-1.147503 -14.68438,-1.020577 -0.0728,0.07041 -0.17417,3.100037 -0.22536,6.732499 l -0.0931,6.604475 0.62223,-0.129779 c 0.34224,-0.07138 2.28912,-0.201618 4.32641,-0.289421 z M 73.015398,67.958234 c -0.11195,-3.165079 -0.21114,-6.141374 -0.22042,-6.61399 -0.0158,-0.803602 -0.0683,-0.851165 -0.8106,-0.733772 -0.43657,0.06904 -2.75829,0.250324 -5.15938,0.40285 -15.9008,1.010071 -31.19037,3.12772 -37.5344,5.198622 -2.9747,0.971038 -3.28051,1.338825 -1.69008,2.032566 5.10165,2.225328 28.84853,5.279313 42.22303,5.430124 l 3.39542,0.03829 z m 7.70023,-6.986238 c 4.62981,-0.467881 15.83887,-0.394462 20.505202,0.134309 2.11006,0.239103 3.92576,0.434969 4.0349,0.435258 0.10914,2.88e-4 0.19844,-0.297132 0.19844,-0.660934 0,-0.363802 -0.0893,-0.661694 -0.19844,-0.661983 -0.10914,-2.89e-4 -1.92484,-0.196155 -4.0349,-0.435257 -4.634162,-0.525126 -15.830772,-0.60288 -20.505202,-0.142398 -6.19364,0.61014 -5.95313,0.557355 -5.95313,1.306553 0,0.649179 0.0379,0.663003 1.38906,0.506356 0.76399,-0.08857 2.81782,-0.30543 4.56407,-0.481904 z m 78.834312,-2.431472 c 1.10297,-0.806514 -0.15903,-8.132888 -1.55893,-9.050137 -1.39412,-0.913465 -3.07785,0.461739 -3.59086,2.932875 -0.39618,1.908409 -0.14994,3.257752 0.80617,4.417682 0.7654,0.928568 2.65298,2.054701 3.44467,2.055102 0.22685,1.14e-4 0.63138,-0.15987 0.89895,-0.355522 z M 49.171288,56.234532 c 1.15107,-0.319654 2.69021,-1.57851 3.24743,-2.656061 1.26534,-2.446891 -0.52395,-5.265681 -3.6111,-5.688823 -1.83248,-0.251168 -3.36386,0.297685 -4.77898,1.71281 -1.9368,1.936801 -2.05256,3.741836 -0.34921,5.445187 1.35864,1.358643 3.33517,1.785805 5.49186,1.186887 z M 134.10795,54.57006 c 1.36334,-0.569643 2.56705,-2.121979 2.56705,-3.310548 0,-1.242008 -1.16252,-3.071876 -2.54016,-3.998358 -1.23317,-0.829315 -4.09849,-1.076341 -5.29099,-0.456146 -2.14784,1.117046 -2.79987,3.255234 -1.6112,5.28355 0.61316,1.046278 2.06186,2.290735 3.09235,2.656371 0.77923,0.276484 2.94198,0.17651 3.78295,-0.174869 z M 85.874998,51.331998 c 3.62915,-1.432794 4.92528,-3.869808 3.31698,-6.236639 -1.79075,-2.635317 -6.80517,-3.20738 -10.5621,-1.20496 -1.67839,0.894574 -3.07363,2.629246 -3.07363,3.821382 0,1.670407 1.22067,3.092958 3.36205,3.918101 1.33773,0.51547 5.32948,0.344545 6.9567,-0.297884 z m -58.09644,-1.928944 c 1.49762,-0.797082 2.55228,-2.121098 3.3164,-4.163389 0.86581,-2.314069 0.93359,-3.306681 0.32045,-4.692775 -0.62303,-1.408467 -1.90531,-2.211541 -3.06604,-1.920216 -1.81646,0.455904 -4.54437,4.495369 -5.60009,8.29258 -0.42242,1.519366 -0.42348,1.676066 -0.0156,2.298645 0.86128,1.314484 2.78995,1.38527 5.04483,0.185155 z M 115.118,41.947505 c 1.52287,-0.783697 2.23612,-1.678238 2.50336,-3.13966 0.37042,-2.02567 -0.14168,-3.389859 -1.94847,-5.190512 -3.28026,-3.269138 -7.72923,-4.299855 -11.59246,-2.685692 -2.01977,0.843913 -3.3821,3.148273 -2.97618,5.034168 0.57385,2.666131 3.20747,5.151302 6.66818,6.292331 2.19268,0.722944 5.61866,0.578064 7.34557,-0.310635 z m 32.27423,-2.167791 c 2.84042,-2.443227 -2.05514,-10.036655 -6.51247,-10.101387 -1.67472,-0.02432 -2.13906,0.451855 -2.29692,2.355491 -0.10481,1.263842 -0.003,1.717005 0.7111,3.167714 0.88108,1.789731 3.18089,4.163931 4.65633,4.806937 1.25075,0.545087 2.65047,0.452061 3.44196,-0.228755 z M 68.749868,35.982973 c 1.09561,-0.552702 2.2542,-1.630947 2.72896,-2.539706 0.86271,-1.651351 0.13397,-3.304453 -1.85491,-4.207756 -4.26172,-1.935579 -10.02342,2.827283 -7.36634,6.089329 1.08211,1.328484 4.48055,1.67299 6.49229,0.658133 z m -16.39189,-8.025407 c 0.84715,-0.292174 2.35485,-1.072758 3.35045,-1.734631 2.9647,-1.970925 4.2374,-3.76506 4.2374,-5.973469 0,-0.878914 -0.15916,-1.241652 -0.8127,-1.852148 -2.29907,-2.147651 -8.01188,-0.891365 -11.62697,2.556851 -3.27395,3.122815 -3.54096,5.950829 -0.68829,7.289932 1.31265,0.616185 3.20674,0.518223 5.54011,-0.286535 z m 43.42999,-5.455006 c 1.18139,-0.560609 1.88626,-1.836237 1.61401,-2.92095 -0.10233,-0.407734 -0.60312,-1.134673 -1.11286,-1.615419 -0.8715,-0.821933 -1.04012,-0.87406 -2.82619,-0.873673 -2.14546,4.64e-4 -3.39132,0.48575 -4.2486,1.654917 -0.70019,0.954917 -0.69772,2.426792 0.005,3.12976 1.3187,1.318699 4.47419,1.619128 6.56839,0.625365 z m 29.613322,-1.957715 c 1.39557,-0.323743 1.82087,-0.820918 1.82087,-2.128573 0,-0.940722 -0.16653,-1.26862 -1.16056,-2.285171 -1.98813,-2.033179 -6.34058,-3.801495 -9.35681,-3.801495 -1.48008,0 -3.1394,0.88792 -3.4422,1.841959 -0.38407,1.210082 1.40042,3.398571 4.0443,4.959929 2.44284,1.442631 5.59534,1.993084 8.0944,1.413351 z M 82.119368,11.899348 c 1.68507,-0.544217 3.49105,-2.0220067 3.49105,-2.8566427 0,-1.078509 -0.91209,-1.590222 -3.02458,-1.696898 -4.35341,-0.219837 -9.1285,1.191322 -9.35723,2.7652897 -0.11131,0.766039 0.69357,1.642687 1.93077,2.102905 1.3232,0.492213 4.9725,0.327232 6.95999,-0.314654 z"
       id="path1" /></g></svg>
