<?xml version="1.0" encoding="utf-8"?>
<!-- Generator: Adobe Illustrator 24.2.0, SVG Export Plug-In . SVG Version: 6.00 Build 0)  -->
<svg version="1.1" xmlns="http://www.w3.org/2000/svg" xmlns:xlink="http://www.w3.org/1999/xlink" x="0px" y="0px"
	 viewBox="0 0 117.2 119.25" style="enable-background:new 0 0 117.2 119.25;" xml:space="preserve">
<style type="text/css">
	.st0{fill:#1D1D1B;}
	.st1{fill:none;stroke:#1D1D1B;stroke-miterlimit:10;}
</style>
<g id="Layer_1">
</g>
<g id="Layer_2">
</g>
<g id="Layer_3">
</g>
<g id="Layer_4">
	<path class="st0" d="M115.52,49.97c-0.92-0.23-1.9-0.11-2.83-0.31s-1.89-0.93-1.82-1.87c0.08-1.04,1.33-2.06,0.71-2.91
		c-0.21-0.29-0.59-0.41-0.94-0.45c-1.59-0.19-3.09,0.8-4.69,0.89c-0.58,0.03-1.28-0.13-1.49-0.68c-0.12-0.32-0.05-0.67,0.01-1
		c0.18-1.01,0.51-3.04-0.18-3.53c-0.46-0.33-1.93,0.72-2.13,0.82c-0.97,0.47-1.75,1.08-2.56,1.66c-0.28-0.57-0.75-1.13-0.92-1.75
		c-0.31-1.17,0.6-2.34,1.64-2.96c1.04-0.62,2.26-0.91,3.25-1.61c0.21-0.15,0.42-0.32,0.54-0.55c0.55-1.07-1-1.97-1.5-3.07
		c-0.66-1.43,0.6-2.97,1.72-4.07c1.13-1.1,2.3-2.75,1.51-4.1c-0.94-1.59-4.26-1.59-4.65-3.4c-0.2-0.93,0.7-3.17-0.02-4.83
		c-0.38-0.87-1.4-1.39-2.34-1.5c-1.29-0.16-2.6,0.89-3.81,0.42c-1.73-0.66-1.38-3.55-2.97-4.49c-1.36-0.8-3,0.38-4.1,1.51
		c-1.1,1.13-2.64,2.38-4.07,1.72c-1.09-0.5-2-2.05-3.07-1.5c-0.23,0.12-0.4,0.32-0.55,0.54c-0.7,0.99-0.99,2.21-1.61,3.25
		c-0.62,1.04-1.79,1.95-2.96,1.64c-1.04-0.28-1.94-1.45-2.94-1.06c-0.24,0.09-0.43,0.27-0.6,0.48c-0.12-0.11-0.26-0.21-0.37-0.33
		c-0.89-0.94-1.41-2.38-0.89-3.57c0.34-0.77,1.03-1.31,1.55-1.98c0.52-0.66,0.84-1.64,0.34-2.32c-0.22-0.3-0.57-0.48-0.9-0.64
		c-1.01-0.48-2.06-0.89-3.13-1.21c-0.45-0.14-0.96-0.29-1.19-0.7c-0.37-0.65,0.16-1.45,0.09-2.19c-0.13-1.27-0.72-2.87-2.92-3.55
		c-2.12-0.66-3.82-1.15-4.82-0.37c-1.27,0.99-1.32,2.47-2,2.78c-0.43,0.2-0.93,0.03-1.38-0.12c-1.06-0.36-2.15-0.64-3.25-0.83
		c-0.37-0.06-0.75-0.12-1.11,0c-0.8,0.26-1.1,1.25-1.07,2.09c0.04,0.84,0.29,1.69,0.12,2.51c-0.27,1.27-1.52,2.14-2.79,2.39
		s-2.59,0.01-3.87-0.17c-0.5-0.07-1.02-0.13-1.48,0.08c-0.98,0.46-1.03,1.83-0.83,2.9c0.2,1.07,0.44,2.33-0.31,3.11
		c-0.98,1.01-2.71,0.32-4.07,0.71c-0.34,0.1-0.68,0.29-0.84,0.6c-0.09,0.18-0.12,0.38-0.11,0.58c0.01,1.18,0.88,2.15,1.48,3.16
		c0.6,1.02,0.87,2.52-0.08,3.22c-0.73,0.54-1.9,0.36-2.46,1.08c-0.33,0.43-0.3,1.04-0.13,1.55c0.35,1.03,1.2,1.8,1.76,2.74
		c0.56,0.93,0.75,2.3-0.09,2.99c-0.58,0.48-1.45,0.44-2.08,0.84c-1.05,0.67-1.06,2.28-0.42,3.35c0.64,1.07,1.72,1.79,2.63,2.64
		c0.91,0.85,1.71,2.03,1.5,3.26c-0.34,1.99-2.84,2.62-4.34,3.98c-0.2,0.18-0.38,0.37-0.49,0.61c-0.16,0.35-0.14,0.75-0.06,1.13
		c0.31,1.35,1.42,2.38,2.61,3.1c1.19,0.72,2.51,1.21,3.64,2.01c0.22,0.16,0.45,0.34,0.54,0.6c0.18,0.51-0.25,1.03-0.69,1.32
		s-0.99,0.52-1.25,0.99c-0.33,0.6-0.05,1.38,0.45,1.84c0.51,0.46,1.18,0.67,1.84,0.87c0.97,0.29,2.12,0.32,3.39,0.66
		c0.42,1.98,0.68,4.27,0.28,5.99c-13.17-10.04-29.28-11.5-38.09-2.7c-19.83,20.42,11.24,35.99-4.6,54.93
		c19.21-15.66,34.24,14.96,54.66-4.87c9.23-9.23,7.18-26.49-4.21-39.97c1.25-0.64,2.96-1.29,4.62-1.16c1.02,2.5,2.4,5.3,3.4,6.4
		c0.28,0.3,0.63,0.62,1.04,0.56c0.73-0.1,0.78-1.13,1.18-1.74c0.45-0.69,1.44-0.83,2.22-0.57c0.78,0.26,1.41,0.84,2.04,1.37
		c1.1,0.93,2.29,1.77,3.53,2.5c0.35,0.21,0.73,0.41,1.14,0.42c1.01,0.03,1.66-1.07,1.88-2.05c0.22-0.98,0.28-2.09,0.99-2.8
		c0.76-0.76,2.02-0.77,3.02-0.37c1,0.4,1.81,1.14,2.68,1.77c1.32,0.95,2.79,1.68,4.35,2.13c0.38,0.11,0.89,0.17,1.1-0.17
		c0.11-0.18,0.09-0.4,0.07-0.61c-0.08-0.76-0.15-1.53-0.23-2.29c-0.04-0.38-0.05-0.83,0.23-1.09c0.32-0.29,0.83-0.17,1.23-0.01
		c2.46,0.98,4.55,2.85,7.14,3.45c0.39,0.09,0.81,0.15,1.18-0.02c0.96-0.43,0.77-1.83,0.4-2.81c-0.37-0.98-0.65-2.34,0.26-2.86
		c0.28-0.16,0.61-0.19,0.94-0.2c2.09-0.05,4.26,0.7,6.24,0.01c0.32-0.11,0.66-0.3,0.73-0.64c0.05-0.24-0.07-0.48-0.18-0.7
		c-0.42-0.8-0.88-1.59-1.35-2.36c2.79-0.93,5.84-0.19,8.78-0.36c0.23-0.01,0.49-0.06,0.59-0.26c0.08-0.16,0.02-0.35-0.05-0.51
		c-0.39-0.95-0.93-1.84-1.6-2.61c-0.22-0.26-0.47-0.52-0.52-0.85c-0.09-0.58,0.42-1.07,0.93-1.34c1.42-0.74,3.22-0.66,4.48-1.64
		c0.28-0.22,0.54-0.51,0.58-0.87c0.1-1.04-1.5-1.28-2.1-2.13c-0.54-0.78-0.38-1.85,0.32-2.5c0.94-0.86,1.84-1.44,2.63-2.44
		c0.25-0.31,0.49-0.64,0.57-1.03C117.36,51.02,116.45,50.2,115.52,49.97z M3.96,68.3c1.38-2.27,3.12-4.11,3.12-4.11
		c-1.41,5.62,2.27,15.43,8.06,23.48C15.14,87.67,6.03,82.32,3.96,68.3z M64.27,51.39l2.1-1.89c1.39-1.28,2.77-2.57,4.13-3.88
		c2.74-2.61,5.38-5.33,8.07-8.01c2.68-2.68,5.33-5.4,7.95-8.14l7.91-8.2l0.41,0.37c-2.4,2.96-4.89,5.83-7.37,8.71
		c-2.52,2.85-5.06,5.68-7.64,8.48c-2.57,2.8-5.23,5.53-7.92,8.23c-1.34,1.35-2.71,2.68-4.1,4L65.71,53
		c-0.75,0.59-1.27,1.48-2.58,1.41l-0.58-0.68C62.67,52.41,63.59,52.05,64.27,51.39z M50.41,58.19c0.78-2.11,1.58-4.22,2.25-6.37
		c1.43-4.27,2.56-8.65,3.58-13.04c1.04-4.39,1.82-8.85,2.43-13.33c0.63-4.48,1.05-9,1.16-13.52l0.37-0.01
		c0.23,4.56,0.01,9.12-0.36,13.66c-0.42,4.54-1.03,9.07-1.89,13.56c-0.86,4.49-1.93,8.94-3.26,13.32c-0.62,2.2-1.37,4.37-2.12,6.53
		c-0.35,1.09-0.78,2.15-1.2,3.22c-0.42,1.07-0.93,2.1-1.76,2.98l-1.24-0.53C48.41,62.22,49.72,60.34,50.41,58.19z M61.32,96.5
		c0,0,0.03,2.65-0.26,4.26c-8.95-1.98-16.51-12.33-16.51-12.33C57.53,99.43,61.32,96.5,61.32,96.5z M90.07,56.35
		c-4.39,0.65-8.71,1.66-12.96,2.85c-4.26,1.18-8.43,2.67-12.48,4.38c-2.03,0.86-4.02,1.79-6.02,2.68l-2.98,1.38
		c-0.5,0.22-0.97,0.5-1.51,0.65c-0.54,0.14-1.12,0.22-1.84,0.07l-0.51-0.84c0.5-1.41,1.53-1.95,2.53-2.48
		c0.99-0.57,2.01-1.05,3.03-1.56c2.06-0.95,4.16-1.78,6.3-2.52c4.26-1.49,8.59-2.78,12.99-3.75c4.39-0.98,8.83-1.76,13.3-2.18
		c4.46-0.53,8.95-0.55,13.42-0.49l0,0.44C98.88,55.26,94.45,55.62,90.07,56.35z"/>
</g>
<g id="Layer_5">
</g>
<g id="Layer_6">
</g>
<g id="Layer_7">
</g>
<g id="Layer_8">
</g>
<g id="Layer_9">
</g>
<g id="Layer_10">
</g>
<g id="Layer_11">
</g>
<g id="Layer_13">
</g>
<g id="Layer_12">
</g>
<g id="Layer_14">
</g>
<g id="Layer_15">
</g>
<g id="Layer_16">
</g>
<g id="Layer_17">
</g>
<g id="Layer_18">
</g>
<g id="Layer_19">
</g>
<g id="Layer_20">
</g>
<g id="Layer_21">
</g>
<g id="Layer_22">
</g>
<g id="Layer_23">
</g>
<g id="Layer_24">
</g>
<g id="Layer_25">
</g>
<g id="Layer_30">
</g>
<g id="Layer_26">
</g>
<g id="Layer_27">
</g>
<g id="Layer_28">
</g>
<g id="Layer_29">
</g>
<g id="Layer_31">
</g>
</svg>
