<?xml version="1.0" encoding="UTF-8" standalone="no"?>
<!-- Created with Inkscape (http://www.inkscape.org/) -->

<svg
   xmlns:dc="http://purl.org/dc/elements/1.1/"
   xmlns:cc="http://creativecommons.org/ns#"
   xmlns:rdf="http://www.w3.org/1999/02/22-rdf-syntax-ns#"
   xmlns:svg="http://www.w3.org/2000/svg"
   xmlns="http://www.w3.org/2000/svg"
   xmlns:sodipodi="http://sodipodi.sourceforge.net/DTD/sodipodi-0.dtd"
   xmlns:inkscape="http://www.inkscape.org/namespaces/inkscape"
   width="40mm"
   height="40mm"
   viewBox="0 0 40 40"
   version="1.1"
   id="svg8"
   inkscape:version="0.92.4 (5da689c313, 2019-01-14)"
   sodipodi:docname="VS_icons_wheat_S.svg">
  <defs
     id="defs2">
    <style
       id="style4518">.cls-1{fill:#1d1d1b;}</style>
  </defs>
  <sodipodi:namedview
     id="base"
     pagecolor="#ffffff"
     bordercolor="#666666"
     borderopacity="1.0"
     inkscape:pageopacity="0.0"
     inkscape:pageshadow="2"
     inkscape:zoom="1.979899"
     inkscape:cx="61.515916"
     inkscape:cy="59.653892"
     inkscape:document-units="mm"
     inkscape:current-layer="layer1"
     showgrid="false"
     inkscape:window-width="1290"
     inkscape:window-height="668"
     inkscape:window-x="366"
     inkscape:window-y="270"
     inkscape:window-maximized="0" />
  <metadata
     id="metadata5">
    <rdf:RDF>
      <cc:Work
         rdf:about="">
        <dc:format>image/svg+xml</dc:format>
        <dc:type
           rdf:resource="http://purl.org/dc/dcmitype/StillImage" />
        <dc:title></dc:title>
      </cc:Work>
    </rdf:RDF>
  </metadata>
  <g
     inkscape:label="Layer 1"
     inkscape:groupmode="layer"
     id="layer1"
     transform="translate(0,-257)">
    <path
       style="fill:#1d1d1b;stroke-width:0.36660662"
       inkscape:connector-curvature="0"
       class="cls-1"
       d="m 9.1647937,289.40812 c -2.8804653,0.67814 -4.0527467,4.33371 -4.0527467,4.33371 0,0 2.2340352,2.86105 5.117849,2.18692 2.883813,-0.67413 5.32886,-4.63066 5.32886,-4.63066 0,0 -3.513497,-2.56411 -6.3939623,-1.88997 z"
       id="path4526" />
    <path
       style="fill:#1d1d1b;stroke-width:0.36660662"
       inkscape:connector-curvature="0"
       class="cls-1"
       d="m 13.729994,282.9557 c -2.903909,0.51363 -4.2001179,4.10499 -4.2001179,4.10499 0,0 2.1201559,2.98143 5.0240649,2.4638 2.903912,-0.51764 5.482933,-4.34976 5.482933,-4.34976 0,0 -3.402968,-2.73667 -6.30688,-2.21903 z"
       id="path4528" />
    <path
       style="fill:#1d1d1b;stroke-width:0.36660662"
       inkscape:connector-curvature="0"
       class="cls-1"
       d="m 19.169384,276.68787 c -2.934055,0.15649 -4.541757,3.5673 -4.541757,3.5673 0,0 1.855556,3.21015 4.786261,3.06568 2.930706,-0.14437 5.834617,-3.63549 5.834617,-3.63549 0,0 -3.148415,-3.154 -6.079121,-2.99749 z"
       id="path4530" />
    <path
       style="fill:#1d1d1b;stroke-width:0.36660662"
       inkscape:connector-curvature="0"
       class="cls-1"
       d="m 26.079151,271.85659 c -2.934055,-0.17255 -4.803008,3.03762 -4.803008,3.03762 0,0 1.590954,3.42282 4.525009,3.61142 2.934055,0.18859 6.092518,-2.96138 6.092518,-2.96138 0,0 -2.883814,-3.51111 -5.814519,-3.68766 z"
       id="path4532" />
    <path
       style="fill:#1d1d1b;stroke-width:0.36660662"
       inkscape:connector-curvature="0"
       class="cls-1"
       d="m 31.675959,266.73639 c -2.907259,0.4775 -4.24701,4.0488 -4.24701,4.0488 0,0 2.09336,3.00551 5.000621,2.52801 2.907259,-0.47751 5.533171,-4.25748 5.533171,-4.25748 0,0 -3.376173,-2.80086 -6.286782,-2.31933 z"
       id="path4534" />
    <path
       style="fill:#1d1d1b;stroke-width:0.36660662"
       inkscape:connector-curvature="0"
       class="cls-1"
       d="m 6.6829054,288.23642 c -0.036838,3.51913 -2.8469707,5.54954 -2.8469707,5.54954 0,0 -2.7464894,-2.11869 -2.7096464,-5.61776 0.036838,-3.49908 2.8503203,-7.09847 2.8503203,-7.09847 0,0 2.7464893,3.65156 2.7062968,7.16669 z"
       id="path4536" />
    <path
       style="fill:#1d1d1b;stroke-width:0.36660662"
       inkscape:connector-curvature="0"
       class="cls-1"
       d="m 11.462467,281.67164 c -0.425371,3.50309 -3.4197147,5.05601 -3.4197147,5.05601 0,0 -2.491937,-2.53202 -2.0665658,-6.01905 0.4253712,-3.48704 3.6039309,-6.58485 3.6039309,-6.58485 0,0 2.2943236,4.06888 1.8823496,7.54789 z"
       id="path4538" />
    <path
       style="fill:#1d1d1b;stroke-width:0.36660662"
       inkscape:connector-curvature="0"
       class="cls-1"
       d="m 16.952096,275.60502 c -1.024909,3.29844 -4.226914,4.08492 -4.226914,4.08492 0,0 -1.992879,-3.10583 -0.96797,-6.42031 1.02491,-3.3145 4.689129,-5.53351 4.689129,-5.53351 0,0 1.530665,4.57447 0.505755,7.8689 z"
       id="path4540" />
    <path
       style="fill:#1d1d1b;stroke-width:0.36660662"
       inkscape:connector-curvature="0"
       class="cls-1"
       d="m 23.396299,270.64475 c -1.440232,3.06571 -4.705875,3.24228 -4.705875,3.24228 0,0 -1.56416,-3.43889 -0.117223,-6.50059 1.446931,-3.06168 5.359005,-4.59453 5.359005,-4.59453 0,0 0.904332,4.78715 -0.535901,7.85284 z"
       id="path4542" />
    <path
       style="fill:#1d1d1b;stroke-width:0.36660662"
       inkscape:connector-curvature="0"
       class="cls-1"
       d="m 29.97974,265.56008 c -1.77517,2.80891 -5.024066,2.44776 -5.024066,2.44776 0,0 -1.162235,-3.66359 0.612936,-6.46447 1.77517,-2.80085 5.807821,-3.68365 5.807821,-3.68365 0,0 0.378479,4.89551 -1.396691,7.70036 z"
       id="path4544" />
    <path
       style="fill:#1d1d1b;stroke-width:1.38559985"
       d="M 126.70703 130.91211 C 116.21084 131.03086 109.58008 142.41797 109.58008 142.41797 C 109.58008 142.41797 110.57514 144.5311 112.4707 147.08984 L 147.21875 147.08984 C 148.75209 145.80381 149.71094 144.875 149.71094 144.875 C 149.71094 144.875 138.81106 131.60478 127.73438 130.9375 C 127.38783 130.91712 127.04562 130.90828 126.70703 130.91211 z "
       transform="matrix(0.26458333,0,0,0.26458333,0,257)"
       id="path4532-5" />
    <path
       style="fill:#1d1d1b;stroke-width:1.38559985"
       d="M 152.01562 111.38086 C 150.96534 111.35235 149.91804 111.41336 148.88672 111.58398 C 137.89866 113.38871 132.83594 126.88672 132.83594 126.88672 C 132.83594 126.88672 140.74825 138.24613 151.73633 136.44141 C 152.00323 136.39757 152.26768 136.33943 152.5332 136.28125 L 152.5332 111.41016 C 152.36061 111.4007 152.18808 111.38554 152.01562 111.38086 z "
       transform="matrix(0.26458333,0,0,0.26458333,0,257)"
       id="path4534-4" />
    <path
       style="fill:#1d1d1b;stroke-width:1.38559985"
       d="M 65.375 139.50586 C 65.375 139.50586 61.873921 142.93552 58.398438 148.15039 L 69.257812 148.15039 C 67.358466 143.04151 65.375 139.50586 65.375 139.50586 z "
       transform="matrix(0.26458333,0,0,0.26458333,0,257)"
       id="path4538-4" />
    <path
       style="fill:#1d1d1b;stroke-width:1.38559985"
       d="M 91.326172 115.36328 C 91.326172 115.36328 77.477191 123.7501 73.603516 136.27734 C 72.435245 140.05544 72.316006 143.75558 72.703125 147.08984 L 92.515625 147.08984 C 92.778028 146.45495 93.023153 145.79586 93.238281 145.10352 C 97.111957 132.65213 91.326172 115.36328 91.326172 115.36328 z "
       transform="matrix(0.26458333,0,0,0.26458333,0,257)"
       id="path4540-6" />
    <path
       style="fill:#1d1d1b;stroke-width:0.36660662"
       inkscape:connector-curvature="0"
       class="cls-1"
       d="m 31.11346,290.43183 c -1.440232,3.06571 -4.705875,3.24228 -4.705875,3.24228 0,0 -1.56416,-3.43889 -0.117223,-6.50059 1.446931,-3.06168 5.359005,-4.59453 5.359005,-4.59453 0,0 0.904332,4.78715 -0.535901,7.85284 z"
       id="path4542-6" />
    <path
       style="fill:#1d1d1b;stroke-width:0.36660662"
       inkscape:connector-curvature="0"
       class="cls-1"
       d="m 37.696903,285.34716 c -1.775172,2.80891 -5.024068,2.44776 -5.024068,2.44776 0,0 -1.162235,-3.66359 0.612936,-6.46447 1.77517,-2.80085 5.807822,-3.68365 5.807822,-3.68365 0,0 0.378479,4.89551 -1.39669,7.70036 z"
       id="path4544-7" />
  </g>
</svg>
