<?xml version="1.0" encoding="utf-8"?>
<!-- Generator: Adobe Illustrator 24.2.0, SVG Export Plug-In . SVG Version: 6.00 Build 0)  -->
<svg version="1.1" xmlns="http://www.w3.org/2000/svg" xmlns:xlink="http://www.w3.org/1999/xlink" x="0px" y="0px"
	 viewBox="0 0 102.91 113.49" style="enable-background:new 0 0 102.91 113.49;" xml:space="preserve">
<style type="text/css">
	.st0{fill:#1D1D1B;}
	.st1{fill:none;stroke:#1D1D1B;stroke-miterlimit:10;}
</style>
<g id="Layer_1">
</g>
<g id="Layer_2">
</g>
<g id="Layer_3">
</g>
<g id="Layer_4">
</g>
<g id="Layer_5">
</g>
<g id="Layer_6">
</g>
<g id="Layer_7">
</g>
<g id="Layer_8">
</g>
<g id="Layer_9">
</g>
<g id="Layer_10">
</g>
<g id="Layer_11">
</g>
<g id="Layer_13">
</g>
<g id="Layer_12">
</g>
<g id="Layer_14">
</g>
<g id="Layer_15">
</g>
<g id="Layer_16">
</g>
<g id="Layer_17">
</g>
<g id="Layer_18">
</g>
<g id="Layer_19">
</g>
<g id="Layer_20">
	<path class="st0" d="M78.1,105.25c10.42,7.51,24.82,8.24,24.82,8.24C94.16,111.06,89,103.43,89,103.43c4,1.09,6.3-0.61,6.3-0.61
		c-5.7-2.42-10.24-7.51-10.24-7.51c2.24,1.7,8.18,1.76,8.18,1.76c-6.36-3.15-12.36-15.27-12.36-15.27c2.79,2.61,8,3.27,8,3.27
		c-7.7-4.42-12-15.7-12-15.7c1.94,1.21,6.24,1.09,6.24,1.09c-6.06-3.45-11.21-12.61-11.21-12.61c2.18,2.06,7.15,1.94,7.15,1.94
		c-10.42-6.91-12-18.54-12-18.54c1.21,1.21,5.45,0.97,5.45,0.97c-5.7-3.51-8.24-12.73-8.24-12.73c2.06,1.82,5.7,0.85,5.7,0.85
		C61.73,26.46,54.78,0,54.78,0s-4.36,25.86-15.51,31.51c0,0,4.28,0.48,6.06-0.48c0,0-3.15,10.67-12.69,18.34
		c0,0,3.56,0.32,6.22-2.02c0,0-3.64,12.85-16.48,22.62c0,0,9.53-2.02,13.9-6.63c0,0-6.38,10.75-18.34,18.26
		c0,0,10.26-2.99,12.77-5.33c0,0-8.57,15.19-24.48,25.61c0,0,9.66-0.36,13.9-3.39c0,0-10.42,11.72-20.12,14.99
		c0,0,17.45-2.79,25.82-7.64c0,0-1.49,2.33-4.08,3.72c0,0,12.74-1.93,22.06-5.25c0,0-0.14,1.91-1.11,3.11c0,0,4.17-1.06,7.75-2.4
		c-0.09,4.27-0.42,8.46-1.23,8.46h11.15c-0.58-0.03-0.89-3.99-1.06-8.01c3.44,1.45,6.83,2.07,6.83,2.07
		c-1.09-0.79-1.74-2.91-1.74-2.91c4.85,2.02,16.89,4.69,16.89,4.69C80.32,108.92,78.1,105.25,78.1,105.25z"/>
</g>
<g id="Layer_21">
</g>
<g id="Layer_22">
</g>
<g id="Layer_23">
</g>
<g id="Layer_24">
</g>
<g id="Layer_25">
</g>
<g id="Layer_30">
</g>
<g id="Layer_26">
</g>
<g id="Layer_27">
</g>
<g id="Layer_28">
</g>
<g id="Layer_29">
</g>
<g id="Layer_31">
</g>
</svg>
