<?xml version="1.0" encoding="UTF-8" standalone="no"?>
<!-- Created with Inkscape (http://www.inkscape.org/) -->

<svg
   width="180mm"
   height="240mm"
   viewBox="0 0 180 240"
   version="1.1"
   id="svg1"
   sodipodi:docname="tule.svg"
   inkscape:version="1.4.2 (f4327f4, 2025-05-13)"
   xml:space="preserve"
   xmlns:inkscape="http://www.inkscape.org/namespaces/inkscape"
   xmlns:sodipodi="http://sodipodi.sourceforge.net/DTD/sodipodi-0.dtd"
   xmlns="http://www.w3.org/2000/svg"
   xmlns:svg="http://www.w3.org/2000/svg"><sodipodi:namedview
     id="namedview1"
     pagecolor="#505050"
     bordercolor="#ffffff"
     borderopacity="1"
     inkscape:showpageshadow="0"
     inkscape:pageopacity="0"
     inkscape:pagecheckerboard="1"
     inkscape:deskcolor="#505050"
     inkscape:document-units="mm"
     inkscape:zoom="0.5"
     inkscape:cx="-502"
     inkscape:cy="804"
     inkscape:window-width="2560"
     inkscape:window-height="1351"
     inkscape:window-x="-9"
     inkscape:window-y="-9"
     inkscape:window-maximized="1"
     inkscape:current-layer="layer1"
     showguides="true" /><defs
     id="defs1"><rect
       x="101.82338"
       y="91.923882"
       width="384.66608"
       height="299.81326"
       id="rect3" /><rect
       x="2.8284271"
       y="2.1213202"
       width="662.55902"
       height="647.00269"
       id="rect2" /></defs><g
     inkscape:label="Icon"
     inkscape:groupmode="layer"
     id="layer1"><path
       style="fill:#000000;stroke-width:1.05999"
       d="m 83.599694,238.5045 c -0.245255,-0.10816 -0.818944,-0.42171 -1.274859,-0.69677 l -0.828932,-0.5001 0.195784,-9.95094 c 0.114976,-5.8435 0.05753,-13.82794 -0.139077,-19.34364 -0.328512,-9.21482 -1.161489,-27.93706 -1.312543,-29.50104 -0.291974,-3.02321 -0.557195,17.48672 -0.456634,35.31254 l 0.12093,21.43713 -1.050816,0.29827 c -0.577959,0.16405 -1.177917,0.40295 -1.33324,0.53089 -0.155335,0.12795 -0.924538,0.23263 -1.709358,0.23263 h -1.426947 v -1.67274 c 0,-10.65114 -2.528571,-64.09064 -4.164852,-88.02102 -0.164177,-2.40109 -0.500701,-7.34218 -0.747821,-10.9802 -0.682721,-10.05079 -3.335639,-43.099121 -4.152257,-51.726051 -0.241053,-2.54661 -0.706125,-7.78536 -1.033491,-11.64166 -0.327366,-3.85631 -0.672204,-7.51748 -0.766304,-8.13594 -0.09416,-0.61847 -0.05595,-1.12448 0.08472,-1.12448 0.235244,0 0.604699,1.42601 2.604851,10.05417 1.547237,6.67437 4.185167,21.74941 5.671573,32.411451 l 0.700833,5.02709 -0.148706,-10.45104 C 72.251571,87.344669 71.79478,69.399039 71.534941,64.799629 l -0.19102,-3.38113 -2.121645,-1.42215 c -1.166905,-0.78218 -2.956992,-2.14794 -3.977989,-3.03502 -1.062603,-0.92323 -2.119634,-1.61287 -2.472101,-1.61287 -0.750517,0 -1.690897,-0.41408 -2.583323,-1.13751 -0.864786,-0.70103 -0.845123,-1.08733 0.07427,-1.46018 0.421174,-0.17079 0.743204,-0.5239 0.743204,-0.81493 0,-0.44684 0.194772,-0.50728 1.499597,-0.46531 1.767132,0.0568 2.056847,0.34661 2.063218,2.0635 0.0045,1.16064 0.103482,1.3098 1.801615,2.70904 2.764164,2.27766 3.183046,2.3503 1.778897,0.30851 -0.65453,-0.95174 -1.713122,-2.65638 -2.35245,-3.78807 -1.108637,-1.96245 -1.239275,-2.08599 -2.824152,-2.67063 -2.787669,-1.02834 -4.140021,-3.04913 -2.264013,-3.38306 0.74545,-0.1327 0.891841,-0.28498 0.891841,-0.92773 0,-0.9163 0.650025,-1.22157 1.618663,-0.76018 0.569329,0.27118 0.81518,0.25217 1.438373,-0.11126 0.719215,-0.41941 0.772147,-0.41233 1.225567,0.16381 0.54288,0.68983 0.644868,3.22474 0.174077,4.32681 -0.252368,0.59078 -0.134864,0.9808 0.742529,2.46462 0.573295,0.96953 1.787098,2.77481 2.697344,4.01174 1.464598,1.99021 1.636606,2.14241 1.495047,1.32292 -0.08798,-0.50933 -0.250334,-1.46183 -0.360793,-2.11667 -0.119998,-0.71143 -0.517768,-1.51587 -0.98829,-1.99874 -0.971346,-0.99683 -1.627831,-2.35565 -1.396879,-2.8913 0.09528,-0.2209 0.527386,-0.40163 0.960324,-0.40163 h 0.787157 l -0.212592,-1.78594 c -0.11692,-0.98226 -0.23284,-1.79472 -0.257592,-1.80547 -1.735257,-0.75336 -3.567894,-3.04733 -3.410346,-4.26886 0.08056,-0.62426 0.222177,-0.73094 0.914515,-0.68866 0.634823,0.0388 0.920976,-0.12505 1.271084,-0.72761 0.497521,-0.85629 1.334599,-1.01171 1.941804,-0.36053 0.284311,0.30489 0.665665,0.37089 1.417587,0.24535 0.705687,-0.11783 1.106917,-0.0619 1.277949,0.17821 0.624047,0.876 0.02674,3.23285 -1.129221,4.45551 -0.671878,0.71067 -0.746057,0.97162 -0.580935,2.04376 0.191312,1.24226 1.210904,2.56953 1.80566,2.35055 1.286398,-0.47363 1.345386,-0.46794 1.667336,0.16093 0.455264,0.88931 -0.09955,2.61147 -1.200983,3.72797 -0.833899,0.8453 -0.855224,0.93657 -0.685451,2.9344 0.126358,1.48697 0.253199,1.93793 0.454881,1.61718 0.496274,-0.78924 2.008163,-5.76031 2.476381,-8.14227 l 0.454938,-2.31445 -0.73654,-0.86055 c -0.986414,-1.15251 -1.544799,-3.12786 -1.095412,-3.87519 0.371433,-0.61769 0.686709,-0.68161 1.485417,-0.30118 0.40541,0.19311 0.667766,0.12806 1.067008,-0.26458 0.71608,-0.70423 1.286499,-0.65484 1.626382,0.14081 0.213491,0.49975 0.497498,0.66146 1.161736,0.66146 1.842098,0 1.269825,2.18092 -1.019109,3.88379 -1.237286,0.92049 -1.261949,0.97246 -1.770571,3.73094 -0.283681,1.5386 -0.836112,3.74991 -1.227612,4.91403 -0.858505,2.55277 -0.854359,2.48474 -0.115021,1.88924 0.987391,-0.7953 3.634343,-4.65155 3.607635,-5.25584 -0.01371,-0.30976 -0.110223,-1.35071 -0.21439,-2.31322 -0.259536,-2.39671 0.571194,-3.64913 1.651808,-2.49029 0.320019,0.3432 0.467893,0.3419 1.234253,-0.0108 1.036648,-0.47711 1.447766,-0.31549 1.447766,0.56918 0,0.51328 0.190234,0.68632 0.891842,0.8112 0.686249,0.12216 0.891841,0.30158 0.891841,0.77832 0,0.83281 -1.797918,2.39164 -3.192877,2.76829 -0.970368,0.26201 -1.288982,0.57574 -2.417179,2.38006 -0.714721,1.14305 -2.052489,2.86942 -2.972813,3.83638 -0.920324,0.96695 -1.904501,2.01441 -2.187059,2.32768 -0.476263,0.52803 -0.493072,1.17771 -0.230323,8.90396 0.5156,15.16126 0.901875,35.138291 0.934583,48.333971 0.04022,16.22254 0.275569,18.79211 0.795359,8.68374 1.01411,-19.72167 3.017194,-39.839401 5.122468,-51.446851 0.983414,-5.42209 0.924302,-6.33971 0.88237,13.69764 -0.01528,7.32345 -0.152784,18.812981 -0.305468,25.532291 -0.450611,19.8303 -0.388466,24.41634 0.454196,33.5124 1.30387,14.07466 1.60763,17.52309 1.812896,20.58089 0.110111,1.64044 0.238615,2.94844 0.285547,2.90667 0.123773,-0.11016 1.007829,-20.54035 1.760391,-40.682 1.082951,-28.98417 2.818084,-81.472711 2.822511,-85.382381 l 0.0022,-2.4355 -2.452562,-1.65592 c -3.330066,-2.24838 -6.953701,-5.62836 -9.490497,-8.85237 -2.100274,-2.66921 -2.113588,-2.67986 -3.539085,-2.83012 -3.638747,-0.38355 -6.574999,-3.16695 -4.13837,-3.92294 0.78709,-0.2442 0.891842,-0.39894 0.891842,-1.31746 0,-1.22766 0.529138,-1.52659 1.891895,-1.06878 0.831067,0.27919 0.967447,0.24502 1.530473,-0.38341 1.509743,-1.68514 2.964273,0.26866 2.97779,3.99992 0.0045,1.30969 0.127144,2.55985 0.271985,2.77813 0.997379,1.50304 5.449699,6.2067 7.288381,7.69982 1.220107,0.9908 2.247452,1.77557 2.282991,1.74394 0.03551,-0.0316 -0.761967,-1.555 -1.772234,-3.38526 -1.795098,-3.2521 -1.867266,-3.3375 -3.174618,-3.75677 -1.892401,-0.6069 -3.335077,-1.84316 -3.215405,-2.75533 0.06719,-0.51233 0.305445,-0.7597 0.837157,-0.86932 0.520206,-0.10724 0.770315,-0.35817 0.833573,-0.8363 0.04966,-0.3757 0.329062,-0.78771 0.620789,-0.91558 0.508622,-0.22294 0.508285,-0.29813 -0.0079,-1.83048 -0.473904,-1.40581 -0.660632,-1.63724 -1.552675,-1.92433 -1.208444,-0.38892 -3.654185,-2.6318 -3.927788,-3.60201 -0.249244,-0.88386 0.257884,-1.42178 1.438182,-1.52548 0.758585,-0.0667 0.970548,-0.23246 1.167276,-0.91313 0.325793,-1.12724 0.93893,-1.26285 2.026679,-0.44823 0.846449,0.6339 0.948942,0.6519 1.443542,0.25353 0.829505,-0.66813 1.790132,-0.54103 2.142341,0.28347 0.413713,0.96846 -0.104043,3.81453 -0.91701,5.04088 -0.617755,0.93186 -0.62044,0.98749 -0.132852,2.75831 0.439702,1.59688 0.579206,1.80727 1.198343,1.80727 1.057592,0 1.420351,0.86815 1.225803,2.93354 -0.165436,1.75624 -0.144166,1.8235 1.511957,4.78169 1.831603,3.27165 2.16279,3.275 1.567472,0.0158 -0.178615,-0.97787 -0.480645,-4.57592 -0.67117,-7.99566 l -0.3464,-6.21767 -0.979424,-1.07874 c -1.263522,-1.39164 -1.883873,-2.73531 -1.883873,-4.08044 0,-1.24739 0.516071,-1.56536 1.826255,-1.12522 0.772495,0.25952 0.89155,0.21692 1.358015,-0.48589 0.69726,-1.05054 1.704516,-1.02801 2.332114,0.0521 0.419792,0.7225 0.588531,0.8028 1.387958,0.6605 1.81202,-0.32254 2.205407,0.85142 0.996683,2.97437 -0.396062,0.69562 -1.265601,1.70338 -1.932322,2.23947 -1.033783,0.83124 -1.212219,1.13059 -1.212219,2.03373 0,1.29109 0.509285,1.38495 1.439396,0.26527 0.81782,-0.98448 1.314622,-1.00028 2.079904,-0.0661 0.47078,0.57466 0.835314,0.7276 1.734155,0.7276 1.07349,0 1.14349,0.0502 1.23335,0.88523 0.12041,1.1186 -1.142,3.47999 -2.340065,4.37721 l -0.87665,0.65653 0.02966,4.18426 0.02966,4.18427 0.590508,-1.5875 c 0.324782,-0.87312 1.293087,-4.05975 2.151797,-7.08139 l 1.56128,-5.49389 -0.84372,-1.4887 c -0.67774,-1.19586 -0.84371,-1.83934 -0.84371,-3.27111 0,-2.22538 0.45288,-2.72124 1.82605,-1.9993 0.8711,0.45797 0.91317,0.45567 1.56039,-0.0855 1.02174,-0.8543 1.85655,-0.72321 2.25609,0.35427 0.275584,0.74318 0.506404,0.92544 1.256524,0.99218 1.90362,0.16938 1.84859,1.64632 -0.13263,3.55929 -0.68202,0.65851 -1.717984,1.41431 -2.302154,1.67955 -1.02275,0.46438 -1.08739,0.58191 -1.74305,3.16951 -0.37452,1.47799 -1.34066,4.88171 -2.147,7.56383 -0.80633,2.68211 -1.46362,4.9665 -1.46063,5.07641 0.003,0.10991 0.7488,-0.81219 1.65734,-2.04911 1.51253,-2.05922 1.6365,-2.34048 1.46944,-3.33373 -0.21709,-1.29063 0.21034,-3.19418 0.84385,-3.758 0.37619,-0.33481 0.53292,-0.34464 0.92133,-0.0577 0.55756,0.41185 0.70137,0.30702 1.33655,-0.97431 0.423484,-0.85426 0.435394,-1.14898 0.0936,-2.31455 -0.39336,-1.34127 -0.27888,-2.63281 0.288964,-3.25982 0.24471,-0.27022 0.4403,-0.25774 0.99064,0.0632 0.42356,0.247 0.75522,0.29986 0.86744,0.13825 0.0999,-0.1439 0.50568,-0.26164 0.90168,-0.26164 0.50214,0 0.77161,0.18305 0.89059,0.60496 0.0938,0.33273 0.46348,0.71969 0.82145,0.8599 0.35796,0.14021 0.69554,0.46635 0.75017,0.72475 0.11901,0.56291 -1.48962,1.97589 -2.81328,2.47112 -1.03177,0.38602 -1.84404,1.83638 -1.29975,2.3208 0.16565,0.14743 0.30117,0.54445 0.30117,0.88227 0,0.3984 0.26113,0.72011 0.74321,0.91559 1.71903,0.6971 -0.0191,2.79253 -2.810734,3.38858 -1.32178,0.28221 -1.45154,0.39736 -2.91453,2.58645 -0.84214,1.26011 -1.47425,2.34175 -1.4047,2.40365 0.44478,0.39586 6.965474,-5.17723 9.316574,-7.96266 1.00906,-1.19548 1.06083,-1.36023 1.08087,-3.43958 0.0224,-2.32477 0.65385,-3.98258 1.73196,-4.54697 0.441,-0.23087 0.66187,-0.14873 1.20242,0.44717 0.60593,0.66796 0.78104,0.71549 2.06098,0.55935 l 1.39877,-0.17064 v 1.20071 c 0,1.09624 0.0776,1.22478 0.89184,1.47741 2.52513,0.78344 -1.12238,3.74381 -4.61282,3.74381 -0.82189,0 -1.184,0.27456 -2.89191,2.19266 -2.76532,3.10564 -7.351874,6.93012 -10.538554,8.78755 l -2.72358,1.5875 -0.169189,1.85208 c -0.09303,1.01865 -0.371927,9.65068 -0.619733,19.18229 -0.45296,17.42207 -0.678249,24.71596 -1.479249,47.889591 -0.723304,20.9262 -0.706675,20.21902 -0.423174,17.99166 0.13892,-1.0914 0.599172,-5.61578 1.022784,-10.05416 0.858044,-8.99019 3.027463,-26.694861 4.166001,-33.998961 0.4083,-2.61938 0.94778,-6.07219 1.19883,-7.67292 0.74917,-4.77669 2.70103,-15.22231 3.97991,-21.29896 1.474724,-7.00721 2.287484,-10.33173 4.430764,-18.12396 1.31242,-4.77146 1.69316,-5.8501 1.76335,-4.99561 0.0802,0.9772 -1.53003,17.85828 -1.88989,19.81228 -0.15832,0.85964 -1.387,12.64965 -2.81248,26.9875 -0.4919,4.94771 -1.358344,13.63927 -1.925414,19.31458 -1.10158,11.024601 -2.81181,29.521271 -3.57172,38.629171 -0.25497,3.05594 -0.73206,8.59235 -1.0602,12.30313 -0.32814,3.71078 -0.92407,11.15219 -1.324282,16.53646 -0.400219,5.38427 -0.992312,13.30192 -1.31578,17.59479 -0.323467,4.29286 -0.795899,11.19849 -1.04985,15.34583 -0.253952,4.14735 -0.723552,11.41016 -1.04357,16.13959 -0.320018,4.72942 -0.732979,11.45645 -0.917695,14.94895 -0.221649,4.19076 -0.456971,6.46421 -0.692058,6.68587 -0.408747,0.38543 -3.965563,0.68474 -4.63398,0.38996 z M 90.093592,30.609919 c 0.02674,-2.56426 0.0034,-2.66147 -0.753641,-3.153 l -0.781225,-0.50718 0.202941,2.62384 c 0.111572,1.44311 0.365635,3.6954 0.564498,5.00509 l 0.361579,2.38125 0.189132,-1.85208 c 0.104044,-1.01865 0.201548,-3.04271 0.216716,-4.49792 z M 89.842585,236.98992 c 0,-0.65209 0.134054,-2.64639 0.297906,-4.43177 1.555191,-16.94596 2.252743,-24.2795 3.13999,-33.01177 1.451705,-14.28754 2.715505,-26.25738 3.394125,-32.14687 0.31858,-2.7649 0.84692,-7.46787 1.17407,-10.45105 0.80767,-7.36477 4.568824,-40.46121 5.667784,-49.87396 0.50792,-4.35041 1.73959,-14.426361 2.5227,-20.637501 0.40365,-3.20145 1.13881,-9.09505 1.6337,-13.09687 3.16284,-25.57582 5.51028,-41.48367 9.09706,-61.64792 1.40667,-7.9080398 1.83825,-10.0794998 2.03881,-10.2579998 0.31634,-0.28155 0.31127,-0.22164 -1.46095,17.2694598 -0.41284,4.07458 -0.95026,9.31333 -1.19426,11.64167 -0.244,2.32833 -0.84377,8.34099 -1.33281,13.36146 -0.48903,5.02046 -1.09188,10.85453 -1.33967,12.96458 -0.47946,4.08287 -1.92472,18.2118 -3.57252,34.925 -0.55237,5.60255 -1.34155,13.401151 -1.75375,17.330211 -0.77849,7.42066 -1.95453,19.2969 -2.72484,27.51667 -0.24548,2.61937 -0.77457,8.03671 -1.17579,12.03854 -0.40121,4.00182 -1.06072,10.78838 -1.4656,15.08125 -0.40487,4.29286 -0.93518,9.8888 -1.17847,12.43541 -0.2433,2.54662 -0.65575,7.01146 -0.91657,9.92188 -0.26081,2.91042 -0.66837,7.31573 -0.905684,9.78958 -0.80345,8.37562 -2.47514,26.95532 -2.96381,32.94063 -0.26732,3.27422 -0.57704,6.54556 -0.68826,7.26966 l -0.20221,1.31653 -1.93068,0.45968 c -1.061865,0.25283 -2.432329,0.46406 -3.045467,0.46941 l -1.114804,0.01 z m -18.431395,0.45612 c -1.161422,-0.14876 -3.947575,-1.17765 -4.635374,-1.71179 -0.540599,-0.41983 -0.670406,-0.99348 -0.990851,-4.37872 -2.178543,-23.01461 -6.122207,-47.42191 -11.466717,-70.96748 -3.309325,-14.5794 -9.061941,-36.37132 -12.641869,-47.88959 -0.474903,-1.52797 -1.395722,-4.50453 -2.046275,-6.61458 -0.650553,-2.11005 -1.591888,-5.0865 -2.09187,-6.614331 -1.551529,-4.74114 -1.037974,-4.11632 2.500673,3.042451 1.136636,2.29945 1.637607,3.37607 2.523842,5.42396 0.535296,1.23693 1.091468,2.45571 1.235949,2.70839 0.144481,0.25269 0.262682,0.59188 0.262682,0.75377 0,0.16188 0.184649,0.66951 0.41032,1.12807 0.693428,1.40903 2.265047,5.3343 3.491827,8.72118 6.558482,18.10668 11.562536,36.14073 15.541402,56.00943 0.839348,4.19133 0.924167,3.4535 0.334568,-2.91042 -0.629676,-6.79635 -3.045452,-22.95135 -4.767607,-31.88229 -0.39286,-2.03729 -1.195017,-6.20448 -1.782582,-9.26042 -4.36567,-22.70584 -10.507966,-45.606161 -20.047833,-74.744231 -1.618888,-4.94463 -1.057401,-4.36904 2.074162,2.12627 5.600079,11.61538 10.120656,24.20066 15.13771,42.143381 2.366619,8.46382 3.327448,12.20799 4.561319,17.77458 1.225601,5.52926 1.067704,2.78576 -0.852741,-14.81667 -2.97215,-27.242191 -5.925333,-48.478531 -8.024619,-57.704871 -0.162852,-0.71572 -0.391039,-0.87685 -1.802694,-1.27289 -2.587458,-0.72591 -7.196001,-2.91664 -9.812324,-4.66441 -2.250407,-1.50332 -2.544537,-1.62227 -4.251581,-1.71936 -2.051545,-0.1167 -4.058281,-0.94798 -4.36504,-1.8082 -0.137897,-0.38669 0.03303,-0.69111 0.623227,-1.10996 0.680204,-0.48272 0.780731,-0.70884 0.614542,-1.38226 -0.241918,-0.98033 0.410837,-1.42306 1.636775,-1.11014 0.681249,0.17389 0.859842,0.10646 1.133422,-0.42793 0.656778,-1.28293 2.259059,-0.41866 3.017936,1.62788 0.334119,0.90102 0.341074,0.90394 1.20605,0.50584 0.70353,-0.3238 0.869999,-0.57289 0.869999,-1.30183 0,-0.95773 0.635744,-1.37405 1.596945,-1.04577 0.270378,0.0923 0.686585,0.0239 0.924919,-0.15218 0.376444,-0.27806 0.356411,-0.45429 -0.152649,-1.34238 -0.473297,-0.8257 -0.82891,-1.07928 -1.849199,-1.31864 -3.607725,-0.84637 -5.523317,-2.95531 -3.351796,-3.69011 0.608632,-0.20595 0.750809,-0.43224 0.750809,-1.19496 0,-1.09884 0.556397,-1.40984 1.695718,-0.94782 0.66289,0.26881 0.862146,0.23018 1.480811,-0.2871 0.558408,-0.4669 0.825775,-0.53618 1.221725,-0.3166 1.058603,0.58707 1.639898,3.80964 0.935414,5.18574 -0.267704,0.52294 -0.118594,0.90975 0.999244,2.59214 0.722642,1.08761 2.436112,3.66613 3.807711,5.73005 1.371588,2.06391 2.533369,3.599 2.581728,3.41131 0.04831,-0.18769 -0.241963,-1.6419 -0.645159,-3.23159 -0.561723,-2.2147 -0.985301,-3.2239 -1.812042,-4.3173 -1.244871,-1.64641 -1.327836,-2.73609 -0.218997,-2.87605 0.476948,-0.0602 0.638036,-0.2192 0.536093,-0.52916 -0.08011,-0.24371 -0.236277,-0.89739 -0.34695,-1.45262 -0.152807,-0.76658 -0.460645,-1.16212 -1.279285,-1.64371 -2.348743,-1.38169 -3.389425,-2.62758 -3.252326,-3.89363 0.08461,-0.78139 0.193784,-0.86895 1.174119,-0.9418 0.931908,-0.0693 1.105153,-0.18858 1.257409,-0.86614 0.235615,-1.04851 0.930684,-1.23601 1.992321,-0.53744 0.803943,0.52901 0.92147,0.54111 1.571697,0.16193 1.517057,-0.88468 2.264069,0.3986 1.682752,2.89079 -0.18565,0.79593 -0.670957,1.8844 -1.078446,2.41883 -0.932099,1.22245 -0.737731,2.32321 0.589576,3.33896 0.766158,0.58632 1.124692,0.68583 2.030623,0.56358 0.994998,-0.13427 1.118535,-0.0834 1.292084,0.53201 0.226277,0.80242 -0.542701,3.03765 -1.365195,3.96828 -0.536285,0.6068 -0.549711,0.81881 -0.218783,3.45456 0.193918,1.54444 0.444016,2.80808 0.55579,2.80808 0.301995,0 1.39116,-5.50595 1.790312,-9.05039 l 0.348781,-3.09727 -0.921301,-0.9339 c -1.050312,-1.06467 -1.919266,-3.34157 -1.645607,-4.31198 0.167897,-0.59539 0.288906,-0.63947 1.343364,-0.48941 1.014165,0.14434 1.246904,0.0738 1.864041,-0.56473 0.696384,-0.72055 0.712956,-0.7234 1.32788,-0.22811 0.34249,0.27585 0.6227,0.66169 0.6227,0.85742 0,0.23879 0.391208,0.35587 1.189118,0.35587 1.144119,0 1.188983,0.0325 1.185545,0.85989 -0.0022,0.47295 -0.339546,1.38297 -0.750158,2.02229 -0.410623,0.63931 -0.710001,1.17509 -0.665305,1.19062 0.04472,0.0155 0.534284,0.24037 1.08794,0.49964 0.906223,0.42437 1.056873,0.43097 1.509821,0.0661 0.862483,-0.6947 1.784402,-0.51447 1.987321,0.38849 0.118605,0.52783 0.356961,0.79375 0.711451,0.79375 2.510156,0 1.623854,2.5028 -1.470968,4.15384 -1.469216,0.78381 -1.659989,1.00562 -2.573852,2.99258 -1.275578,2.77344 -2.800984,5.24858 -4.583824,7.43778 l -1.426722,1.7519 0.566037,2.74601 c 1.139378,5.52753 2.390023,12.05328 2.655941,13.85852 2.008489,13.63479 6.884196,56.596861 8.452646,74.480211 0.248884,2.83765 0.651261,7.18343 0.894179,9.65729 0.444825,4.52997 1.103973,11.96338 2.228845,25.13542 0.335535,3.92906 0.740641,8.63203 0.900235,10.45104 0.159593,1.81901 0.55788,6.87916 0.885088,11.24479 0.327221,4.36563 0.796551,10.43781 1.042986,13.49375 0.860168,10.66701 1.926703,26.20857 1.928119,28.09637 7.87e-4,1.04643 -0.09888,1.94551 -0.221536,1.99794 -0.122628,0.0524 -0.557408,0.0525 -0.966166,1.4e-4 z M 60.020326,123.56135 c -0.09494,-0.21106 -0.165335,-0.14837 -0.179604,0.15986 -0.01292,0.27891 0.05741,0.43518 0.156132,0.34726 0.09876,-0.0879 0.109325,-0.31612 0.02348,-0.50712 z M 45.700368,42.582319 c -1.087097,-1.05503 -2.196981,-2.24566 -2.466415,-2.64584 -0.360164,-0.53494 -0.728743,-0.72914 -1.391947,-0.73341 -1.067322,-0.007 -3.11126,-0.78685 -3.688308,-1.40747 -0.633328,-0.68114 -0.929763,-0.52374 -0.929763,0.49366 0,0.84228 0.186256,1.05338 1.926052,2.18281 2.059477,1.33697 7.475244,4.01731 8.131247,4.02428 0.217626,0.002 -0.493769,-0.85901 -1.580866,-1.91403 z m 1.539832,-0.92605 c -1.897164,-2.97936 -2.958307,-4.56406 -3.056193,-4.56406 -0.06742,0 -0.122627,0.35101 -0.122627,0.78002 0,0.54842 0.444533,1.25542 1.497248,2.38125 1.293027,1.38284 2.094735,2.05163 1.681572,1.40279 z m 8.290694,-1.54231 c 0.601576,-0.95741 1.49199,-2.58427 1.978691,-3.61524 0.869595,-1.84206 0.876157,-1.89084 0.379018,-2.81869 -0.278244,-0.5193 -0.578577,-1.79944 -0.667407,-2.84474 -0.155896,-1.8347 -0.183874,-1.89148 -0.807213,-1.6387 -0.589307,0.23897 -0.678317,0.58619 -1.018975,3.97484 -0.205289,2.04215 -0.564958,4.68248 -0.799258,5.86741 -0.683013,3.45412 -0.611408,3.53644 0.935144,1.07512 z M 98.049816,235.59586 c 0.18831,-1.50565 1.26028,-12.69307 1.60352,-16.73489 0.729184,-8.58623 2.973214,-29.08773 4.749514,-43.39167 2.67515,-21.54204 6.43123,-46.72492 9.94471,-66.675 0.73041,-4.14735 1.54762,-8.79078 1.81605,-10.318751 1.88572,-10.73444 7.10629,-36.06391 9.08812,-44.09431 l 0.59783,-2.42244 -1.68874,-3.06724 c -0.9288,-1.68699 -2.05197,-4.10924 -2.49594,-5.38278 -0.75833,-2.17533 -0.88317,-2.35326 -2.06185,-2.9388 -0.69006,-0.3428 -1.58452,-1.06691 -1.98769,-1.60913 -0.75168,-1.01093 -1.42667,-2.66812 -1.06888,-2.62425 0.11,0.0135 0.64175,0.0104 1.18164,-0.007 0.80935,-0.0258 1.03619,-0.17063 1.29252,-0.82508 0.34635,-0.88424 0.97544,-1.012 1.78247,-0.36198 0.45515,0.36661 0.671,0.38203 1.43015,0.10216 1.56105,-0.57549 1.89919,-0.23955 1.72318,1.71196 -0.0949,1.05282 -0.39486,2.06942 -0.78342,2.65553 -0.34625,0.52231 -0.62691,1.15122 -0.62369,1.39756 0.0101,0.73618 1.61948,4.56603 2.63499,6.26873 0.8445,1.41596 0.92849,1.48743 0.77725,0.66146 -0.0933,-0.50932 -0.24808,-3.38997 -0.34403,-6.40144 l -0.17447,-5.47539 -0.84328,-0.66873 c -1.31294,-1.04116 -2.5197,-3.4301 -2.1573,-4.27064 0.0971,-0.22515 0.5643,-0.38172 1.13908,-0.38172 0.7114,0 1.10594,-0.17857 1.46144,-0.66146 0.61162,-0.83078 1.19623,-0.83834 1.99009,-0.0257 0.51654,0.52872 0.76649,0.5986 1.485,0.4152 0.6972,-0.17796 0.92121,-0.12529 1.16065,0.27292 0.1632,0.2714 0.29673,0.71603 0.29673,0.98806 0,0.78598 -1.46548,3.19128 -2.30052,3.77588 l -0.76201,0.53348 0.19766,4.56072 c 0.21549,4.97211 0.45761,7.33885 0.75077,7.33885 0.10371,0 0.47748,-1.17711 0.83067,-2.61581 l 0.64216,-2.6158 -0.73243,-1.2868 c -0.5489,-0.96436 -0.71067,-1.61829 -0.64553,-2.60972 0.0865,-1.31654 0.0919,-1.32301 1.12739,-1.34231 1.66485,-0.031 2.84378,-0.61847 3.25057,-1.6197 0.31514,-0.77565 0.2798,-1.03996 -0.27553,-2.06095 -1.62366,-2.98513 -0.74892,-6.59039 1.21519,-5.00841 0.47847,0.38539 0.59474,0.37118 1.42306,-0.17387 1.02197,-0.67247 1.61921,-0.46014 1.94386,0.6911 0.11431,0.40538 0.39626,0.6506 0.74805,0.6506 1.02067,0 1.50505,0.31138 1.50505,0.96749 0,1.38624 -1.17804,2.5492 -3.9932,3.94211 -0.41762,0.20664 -1.38137,2.07676 -1.64675,3.19548 -0.005,0.0194 0.25917,0.0976 0.58618,0.17367 1.17206,0.27279 0.70064,1.88957 -1.05768,3.6275 -0.36807,0.3638 -1.09542,1.90016 -1.61633,3.41413 -0.52091,1.51397 -1.01262,2.94272 -1.09271,3.175 -0.24422,0.70838 1.28749,-1.00562 3.76037,-4.20788 1.29232,-1.67349 2.8803,-3.72721 3.52884,-4.56383 1.09617,-1.41402 1.17802,-1.64687 1.16261,-3.30729 -0.0182,-1.95774 0.67728,-3.88085 1.5057,-4.16378 0.3246,-0.11087 0.72258,0.0647 1.15051,0.50745 0.55232,0.57149 0.77203,0.63708 1.41038,0.42108 1.1787,-0.39886 1.65313,-0.0888 1.65313,1.08051 0,0.6985 0.13181,1.03003 0.40952,1.03003 0.78189,0 1.19752,0.74452 0.82349,1.47514 -0.4167,0.81397 -3.03849,1.95739 -4.5031,1.96389 -0.892,0.004 -1.12817,0.14593 -1.65503,0.99478 -0.79105,1.27452 -0.63955,1.96654 0.41718,1.9057 1.42564,-0.0821 1.53514,-0.0159 1.53514,0.92722 0,0.65494 0.17494,1.00006 0.6126,1.20853 1.58075,0.75294 -0.78137,2.59548 -3.42544,2.67196 -1.10841,0.0321 -1.39419,0.21735 -3.72734,2.41671 -2.26381,2.13399 -2.43403,2.36261 -1.63504,2.19591 1.27182,-0.26535 5.9445,-2.27214 7.9117,-3.39787 1.54605,-0.88472 1.67982,-1.04188 1.81845,-2.13659 0.31994,-2.52635 2.2076,-4.71935 3.3414,-3.88188 0.25009,0.18473 0.45472,0.49304 0.45472,0.68514 0,0.22175 0.46127,0.37897 1.26344,0.43062 l 1.26343,0.0814 -0.10336,1.03768 c -0.0824,0.82676 0.0304,1.12752 0.55511,1.47975 1.61662,1.0853 -0.61314,2.48964 -4.01908,2.53127 -1.95918,0.0239 -2.20869,0.0993 -4.26362,1.28726 -2.89003,1.67077 -6.50461,3.15763 -9.38741,3.86153 -1.28896,0.31473 -2.57508,0.76842 -2.85802,1.00821 -0.69131,0.58587 -1.73854,5.21529 -6.35311,28.08493 -3.18564,15.78793 -5.79763,30.363741 -7.91803,44.185421 -0.47997,3.12869 -0.94111,5.9862 -1.02474,6.35 -0.29245,1.2721 -3.71828,26.06756 -3.69214,26.72291 0.0145,0.36381 0.33787,-0.76729 0.71857,-2.51354 1.71764,-7.87868 7.28846,-27.17068 10.16147,-35.18958 2.03518,-5.68041 5.8507,-15.65452 6.47771,-16.93334 0.21406,-0.43656 1.28937,-2.81781 2.38959,-5.291661 1.10022,-2.47386 2.45192,-5.37173 3.00377,-6.43973 0.55186,-1.068 1.00338,-1.99217 1.00338,-2.05373 0,-0.12253 2.12109,-4.1384 2.28002,-4.31679 0.62998,-0.70704 -0.11514,2.03933 -2.72181,10.03212 -1.2149,3.725271 -3.48681,10.936091 -5.25181,16.668751 -8.26895,26.85727 -16.23397,61.56256 -20.3422,88.63542 -1.77971,11.72808 -2.20797,14.89018 -3.09967,22.88646 -0.51927,4.65667 -1.06431,8.89151 -1.21118,9.41077 -0.23952,0.84672 -0.46729,1.01728 -2.20835,1.65364 -1.06772,0.39025 -2.260374,0.70955 -2.650344,0.70955 -0.64319,0 -0.69751,-0.0921 -0.58493,-0.99219 z M 135.87104,45.173759 c -0.0914,-0.67956 -0.2188,-0.58119 -1.73365,1.33825 -2.18178,2.76447 -2.18303,2.91075 -0.009,1.00698 1.51269,-1.32441 1.8233,-1.74252 1.74227,-2.34523 z"
       id="path2" /></g></svg>
