<?xml version="1.0" encoding="UTF-8" standalone="no"?>
<!-- Created with Inkscape (http://www.inkscape.org/) -->

<svg
   width="180mm"
   height="240mm"
   viewBox="0 0 180 240"
   version="1.1"
   id="svg1"
   sodipodi:docname="tule.svg"
   inkscape:version="1.4.2 (f4327f4, 2025-05-13)"
   xml:space="preserve"
   xmlns:inkscape="http://www.inkscape.org/namespaces/inkscape"
   xmlns:sodipodi="http://sodipodi.sourceforge.net/DTD/sodipodi-0.dtd"
   xmlns="http://www.w3.org/2000/svg"
   xmlns:svg="http://www.w3.org/2000/svg"><sodipodi:namedview
     id="namedview1"
     pagecolor="#505050"
     bordercolor="#ffffff"
     borderopacity="1"
     inkscape:showpageshadow="0"
     inkscape:pageopacity="0"
     inkscape:pagecheckerboard="1"
     inkscape:deskcolor="#505050"
     inkscape:document-units="mm"
     inkscape:zoom="0.5"
     inkscape:cx="-502"
     inkscape:cy="804"
     inkscape:window-width="2560"
     inkscape:window-height="1351"
     inkscape:window-x="-9"
     inkscape:window-y="-9"
     inkscape:window-maximized="1"
     inkscape:current-layer="layer1"
     showguides="true" /><defs
     id="defs1"><rect
       x="101.82338"
       y="91.923882"
       width="384.66608"
       height="299.81326"
       id="rect3" /><rect
       x="2.8284271"
       y="2.1213202"
       width="662.55902"
       height="647.00269"
       id="rect2" /></defs><g
     inkscape:label="Icon"
     inkscape:groupmode="layer"
     id="layer1"><path
       style="fill:#000000;stroke-width:0.918334"
       d="m 48.611859,232.75018 c -0.989809,-0.41943 -2.196997,-1.41305 -2.230393,-1.83581 -0.103688,-1.31281 0.212724,-2.29324 1.111849,-3.44519 0.908645,-1.16414 1.781703,-1.58895 3.2742,-1.59315 2.37005,-0.007 4.430409,1.97874 4.721201,4.54946 0.106362,0.94033 0.06561,1.10221 -0.277618,1.10221 -0.221267,0 -0.579273,0.18991 -0.795581,0.42203 -1.016087,1.09037 -4.111855,1.51734 -5.803658,0.80045 z m -0.105949,-2.97581 c 0.07658,-0.23672 0.02067,-0.59989 -0.124308,-0.80703 -0.227625,-0.32522 -0.308442,-0.32344 -0.5922,0.013 -0.377006,0.44705 -0.212328,1.22442 0.259386,1.22442 0.174807,0 0.380514,-0.19368 0.457122,-0.43041 z m 2.541425,-0.94542 c 0.453749,-0.53804 0.309674,-1.24745 -0.289569,-1.42579 -0.977276,-0.29084 -1.677382,0.39713 -1.370179,1.34642 0.15401,0.47588 1.279942,0.52973 1.659748,0.0794 z m -28.070152,1.86991 c -1.759659,-0.341 -3.384037,-1.02329 -3.284768,-1.37971 0.04672,-0.16775 1.531072,-1.61346 3.298548,-3.2127 2.004109,-1.81336 3.075654,-2.93922 2.847092,-2.99141 -0.201575,-0.046 -2.408776,0.39488 -4.904896,0.97981 -2.49612,0.58493 -5.099134,1.14147 -5.784472,1.23675 -1.174239,0.16325 -1.27393,0.13125 -1.729282,-0.55518 -0.572533,-0.86306 -0.650517,-2.68096 -0.162958,-3.79893 0.864666,-1.98271 3.42047,-3.76435 7.054109,-4.91742 6.008211,-1.9066 14.061684,-1.47112 18.806177,1.01689 3.638675,1.90813 5.239988,4.8521 4.082659,7.50586 -1.156849,2.65268 -5.260912,5.02241 -10.404346,6.00757 -2.316734,0.44374 -7.776437,0.50406 -9.817863,0.10847 z m 64.984297,-3.17833 c -0.768796,-0.13073 -2.500868,-0.65181 -3.849045,-1.15797 -1.348169,-0.50615 -3.538672,-1.32879 -4.867781,-1.82809 -2.702729,-1.01532 -6.294135,-1.59775 -8.258725,-1.33935 -1.422644,0.18712 -4.837597,0.8716 -5.474031,1.0972 -0.251771,0.0892 -0.362703,0.0414 -0.278513,-0.12012 0.226471,-0.4345 3.459752,-1.95334 5.271167,-2.47613 2.078769,-0.59996 5.677115,-0.63916 8.329253,-0.0908 1.054265,0.218 3.351746,0.87021 5.10551,1.44935 6.49635,2.14529 7.823326,2.07508 15.292091,-0.8092 3.806824,-1.47012 7.021884,-2.15419 9.068324,-1.92948 1.50644,0.16542 4.82323,1.11781 4.8233,1.38497 2e-5,0.0932 -1.38062,0.16945 -3.06809,0.16945 -3.58432,0 -4.5494,0.28607 -9.45322,2.8021 -5.731226,2.94056 -8.46871,3.55736 -12.64024,2.84802 z m 47.04567,-2.49864 c -1.2781,-1.27525 -0.74018,-3.6662 0.97596,-4.33779 1.01635,-0.39774 2.40245,0.0459 3.01136,0.96378 0.45575,0.68703 0.6184,2.31862 0.28747,2.8837 -0.79184,1.35207 -3.14103,1.62152 -4.27479,0.49031 z m 1.87952,-2.8869 c 0,-0.35506 -0.17364,-0.5583 -0.52779,-0.61771 -0.64327,-0.10792 -1.03088,0.29827 -0.8419,0.88223 0.21056,0.65065 1.36969,0.4268 1.36969,-0.26452 z M 87.351106,220.7736 c -2.627217,-0.35906 -3.564191,-0.72006 -7.47496,-2.87998 -3.55715,-1.96462 -4.8687,-2.35312 -7.391934,-2.18962 -1.457508,0.0944 -2.456602,0.36932 -4.545693,1.25059 -4.397578,1.85509 -6.373131,2.40232 -8.671076,2.40192 -3.854122,-6.9e-4 -5.795072,-0.61702 -11.634042,-3.6943 -1.718123,-0.90549 -4.027554,-2.01549 -5.132066,-2.46666 -1.904409,-0.77792 -2.189803,-0.82109 -5.522135,-0.83523 -1.93267,-0.008 -3.514122,-0.0945 -3.51435,-0.19178 -8.1e-4,-0.35149 2.829635,-1.27384 4.629605,-1.50864 3.188754,-0.41596 4.788583,-0.0519 13.078605,2.97638 5.788452,2.11446 8.544634,1.96681 14.310999,-0.76661 4.268024,-2.02317 5.364203,-2.33922 8.14436,-2.3482 2.924763,-0.009 4.136033,0.39799 9.30077,3.12861 4.492699,2.37532 8.840815,2.25629 13.791453,-0.37754 4.293738,-2.28434 8.010988,-2.89318 11.541938,-1.89042 1.06984,0.30382 3.07804,1.08122 4.46267,1.72754 4.74692,2.21581 5.49186,2.41362 8.98837,2.3867 3.45253,-0.0266 4.22031,-0.23537 9.14845,-2.48785 5.93768,-2.71389 8.59589,-3.48593 10.51287,-3.05331 l 0.86692,0.19565 -1.60684,0.48674 c -2.20542,0.66807 -4.35723,1.82159 -7.70169,4.12866 -8.16069,5.62937 -12.82036,6.33374 -20.81444,3.14634 -1.96357,-0.78291 -4.2228,-1.56347 -5.0205,-1.73457 -2.535,-0.54374 -4.99,0.007 -8.399729,1.88389 -4.301475,2.36793 -7.780185,3.19923 -11.347555,2.71169 z m 31.238644,-7.62909 c -0.73634,-0.20412 -3.05873,-1.08471 -5.16086,-1.95686 -7.62783,-3.16471 -10.05744,-3.20615 -16.259921,-0.27733 -3.407659,1.60909 -5.007868,2.07599 -7.140265,2.08334 -2.342818,0.008 -4.021415,-0.58117 -7.43943,-2.61152 -3.524335,-2.0935 -5.112181,-2.66694 -7.384757,-2.66694 -2.250777,0 -4.180916,0.5353 -9.162632,2.54116 -4.192098,1.68792 -4.448937,1.75682 -7.028691,1.88542 -2.476496,0.12347 -2.811672,0.0802 -4.462667,-0.57557 -0.98178,-0.38999 -2.387524,-1.09822 -3.123859,-1.57384 -0.736343,-0.47562 -1.991466,-1.00888 -2.789172,-1.18502 -0.797696,-0.17614 -2.655283,-0.75989 -4.127962,-1.29722 -2.489905,-0.90849 -2.873109,-0.97638 -5.466761,-0.9686 -2.67205,0.008 -2.910968,0.0558 -5.689893,1.13744 -3.716076,1.44643 -5.517513,1.88831 -7.698099,1.88831 -2.859034,0 -5.021858,-0.63685 -10.383422,-3.05745 -4.313278,-1.94733 -6.7188238,-2.55101 -9.754596,-2.44795 -1.3196384,0.0448 -2.3991365,0.0113 -2.3988838,-0.0745 7.167e-4,-0.24823 0.9902564,-0.71692 2.4800717,-1.17468 0.8678708,-0.26666 2.2942759,-0.42145 3.8557922,-0.41841 2.2392139,0.004 2.8981819,0.13269 6.8294439,1.32987 7.015097,2.13631 9.286079,2.22908 13.164861,0.53781 4.608868,-2.0096 5.805775,-2.43406 7.642312,-2.71016 2.544638,-0.38256 5.054614,-0.0118 8.311712,1.22776 4.6109,1.75479 5.088112,1.85556 8.81376,1.86128 3.291506,0.005 3.555563,-0.0343 5.466761,-0.81391 1.104511,-0.45056 3.012294,-1.31612 4.239528,-1.92346 3.696461,-1.82933 5.188857,-2.2297 8.367499,-2.2448 2.172244,-0.0103 3.085285,0.10009 4.127963,0.49918 l 1.338799,0.51243 -1.896634,0.21758 c -3.926826,0.45047 -6.54986,1.51704 -11.937627,4.85405 -3.582221,2.21871 -5.225306,2.93335 -7.333044,3.18941 -2.574137,0.31272 -2.020401,0.71905 0.775138,0.5688 2.8892,-0.15529 4.011674,-0.54562 8.611746,-2.99465 5.399447,-2.87462 7.400435,-3.44275 11.316019,-3.21291 1.359926,0.0798 3.828131,0.45592 5.484894,0.83575 2.369569,0.54325 3.687141,0.69086 6.175107,0.69181 3.546767,0.001 5.176451,-0.24525 7.974528,-1.20673 2.425681,-0.83351 2.674263,-0.82864 1.606741,0.0315 -2.776855,2.23744 -6.702248,3.36633 -11.238049,3.23189 -1.626149,-0.0482 -2.956583,-0.0524 -2.956515,-0.009 6.7e-5,0.0431 0.851214,0.56258 1.891446,1.15444 3.321699,1.88994 4.926368,1.72557 10.429199,-1.06832 3.160448,-1.60462 5.142379,-2.14884 7.825599,-2.14884 3.05362,0 4.91675,0.66443 9.97686,3.55796 5.06691,2.89742 7.41986,3.84564 9.74228,3.92604 0.89962,0.0312 1.63607,0.12595 1.63658,0.21067 0.006,0.77622 -5.12996,1.233 -7.2509,0.64506 z m 5.13206,-3.03582 c -3.07934,-0.47265 -5.88784,-1.70171 -9.88197,-4.32455 -5.41685,-3.55711 -6.96753,-4.1566 -10.91767,-4.22074 l -1.95671,-0.0318 1.11405,-0.59308 c 3.62727,-1.93106 7.40888,-1.40742 13.2748,1.83816 3.80383,2.10464 5.53303,2.6415 8.59064,2.66711 3.09001,0.0259 3.59415,-0.13288 7.93396,-2.4985 3.70163,-2.01776 5.40357,-2.61229 8.35476,-2.91852 7.35489,-0.76319 9.8844,-1.27492 12.5942,-2.54788 2.37011,-1.11339 3.2385,-2.07717 2.96972,-3.29591 -0.24829,-1.12586 -2.63117,-2.44405 -7.3436,-4.06244 -1.57582,-0.54119 -5.77977,-2.08847 -9.34212,-3.43842 -3.56236,-1.34994 -7.1018,-2.66232 -7.86544,-2.91639 -0.76365,-0.25407 -1.38845,-0.56532 -1.38845,-0.69166 0,-0.29224 -0.13373,-0.30157 2.64895,0.18468 2.58852,0.45231 6.96356,1.56082 10.29277,2.6079 1.16588,0.36668 3.87694,1.13735 6.02459,1.7126 4.61846,1.23705 6.73525,2.05523 8.40858,3.25007 2.41882,1.72717 3.03723,3.27285 2.05973,5.14828 -0.51552,0.98907 -2.69861,2.61009 -4.68591,3.47945 -1.27732,0.55878 -6.43915,2.19676 -8.23686,2.61378 l -1.0041,0.23292 2.02506,0.96672 c 5.0486,2.4101 7.19953,2.41951 13.5283,0.0592 4.19435,-1.5643 5.88419,-1.96057 8.36917,-1.9626 1.78599,-0.001 2.64025,0.13432 3.95132,0.62801 1.64278,0.61859 3.83672,1.94145 3.62879,2.18801 -0.0582,0.069 -0.86509,-0.0606 -1.79318,-0.28791 -4.152,-1.01693 -7.16123,-0.38529 -12.67671,2.66085 -4.46278,2.46475 -6.0249,3.01967 -8.99996,3.19714 -2.75855,0.16455 -4.75882,-0.28512 -8.05082,-1.80986 -2.66686,-1.2352 -3.82487,-1.54465 -5.78344,-1.5455 -1.4808,-6.4e-4 -2.16537,0.15989 -4.01639,0.94185 -6.71738,2.83777 -8.56296,3.2699 -11.82606,2.76905 z m -38.623286,-8.0626 c -2.260912,-0.60904 -4.032884,-1.63012 -5.987058,-3.44999 -0.780266,-0.72665 -0.222195,-0.6866 1.385284,0.0994 2.875824,1.40619 4.644093,1.74582 8.97412,1.72367 3.483854,-0.0178 4.141228,-0.0952 6.097553,-0.71752 1.205991,-0.38366 2.752528,-1.00146 3.43675,-1.3729 0.684225,-0.37144 1.286637,-0.62483 1.338707,-0.5631 0.13821,0.16389 -2.133287,2.12866 -3.174911,2.7462 -2.19111,1.29901 -3.877011,1.71314 -7.363396,1.80878 -2.304699,0.0632 -3.770539,-0.0223 -4.707049,-0.27455 z m 37.396056,-1.68856 c 7.8203,-3.07861 10.40275,-5.7284 8.99969,-9.2344 -0.45551,-1.13824 -1.89318,-2.41244 -4.02732,-3.56944 -0.88554,-0.48007 -1.61352,-0.94951 -1.61773,-1.04318 -0.0124,-0.27634 1.6951,0.25838 3.58562,1.12288 1.95574,0.89431 4.121,2.6808 4.71845,3.89304 0.87146,1.7682 0.32117,3.99409 -1.38309,5.59464 -2.20972,2.07524 -7.62867,4.14216 -11.49358,4.38394 l -2.01747,0.1262 z M 49.418469,200.943 c -5.595708,-1.17465 -10.12418,-3.82066 -11.043671,-6.45288 -0.370284,-1.06003 -0.171594,-2.68173 0.456777,-3.72813 0.623513,-1.0383 2.748067,-2.69109 4.403026,-3.42532 1.685015,-0.74756 3.840966,-1.32528 3.840966,-1.02925 0,0.13261 -0.10648,0.24111 -0.236615,0.24111 -0.130144,0 -1.096247,0.50602 -2.146895,1.12448 -4.093267,2.40949 -4.918507,4.91402 -2.522938,7.65688 1.384955,1.58573 4.080669,3.13676 8.253446,4.74878 3.163116,1.22196 3.208007,1.24977 2.008198,1.24447 -0.674974,-0.003 -2.030513,-0.17405 -3.012294,-0.38014 z m 62.477281,-1.41695 c -0.36816,-0.1182 -0.59916,-0.22899 -0.51332,-0.24621 2.29776,-0.46089 7.22299,-1.75259 8.26813,-2.16841 1.98296,-0.78894 4.32458,-2.30206 4.96992,-3.21146 0.92825,-1.30809 0.75882,-2.2078 -0.72394,-3.84408 l -1.27564,-1.40772 0.91557,0.38304 c 2.24703,0.94007 3.64453,2.45251 3.64308,3.94268 -0.002,2.00926 -1.60885,3.58289 -5.03433,4.93016 -3.27451,1.28789 -8.64357,2.13755 -10.24947,1.622 z M 57.451264,199.3325 c -7.131376,-1.07949 -11.935956,-3.66936 -11.935956,-6.43397 0,-1.48166 1.573677,-3.3018 3.568457,-4.12734 0.87746,-0.36314 1.236115,-0.21954 0.55598,0.2226 -0.883591,0.5744 -2.117909,2.25437 -2.117074,2.88143 0.0034,2.58474 3.714019,4.75903 10.775321,6.31402 2.111483,0.46498 4.039885,0.94501 4.28533,1.06674 0.44481,0.2206 -3.765521,0.28338 -5.132058,0.0765 z m 28.018144,-1.49658 c -0.421315,-0.18835 -0.843845,-0.51312 -0.938939,-0.7217 -0.0951,-0.20857 -0.340346,-1.54499 -0.544982,-2.96981 -0.204644,-1.42482 -0.416406,-2.53802 -0.470574,-2.47379 -0.05414,0.0642 0.02589,1.08052 0.177987,2.2584 0.152062,1.17788 0.209603,2.2209 0.127866,2.31782 -0.228923,0.27145 -2.5373,-0.41806 -2.838026,-0.84772 -0.410166,-0.58603 -0.839627,-5.41311 -1.113872,-12.5197 -0.226496,-5.86937 -0.325681,-6.8654 -1.106595,-11.1125 -0.471789,-2.5659 -1.228432,-6.68932 -1.681422,-9.16318 -0.452999,-2.47385 -1.44926,-7.77213 -2.213931,-11.77396 -1.284741,-6.72359 -1.400549,-7.17559 -1.525252,-5.95312 -0.08441,0.82729 0.109869,3.6028 0.518543,7.40833 0.359422,3.34698 0.911142,9.41917 1.226036,13.49375 0.314902,4.07459 0.716129,9.2538 0.891619,11.50938 0.325267,4.18067 0.994431,16.28597 0.996438,18.02571 8.43e-4,1.06984 -0.381088,1.36834 -2.166215,1.69122 -1.170427,0.2117 -3.30952,-0.47688 -3.620265,-1.16536 -0.19277,-0.42712 -1.052983,-7.54093 -1.459421,-12.06928 -0.07835,-0.87313 -0.580065,-5.27844 -1.114885,-9.78958 -1.666951,-14.06071 -2.749459,-23.47231 -3.803986,-33.07292 -0.559428,-5.09323 -1.154775,-10.45104 -1.32297,-11.90625 -1.367658,-11.83237 -2.005955,-17.03688 -2.078854,-16.95044 -0.04705,0.0557 0.121964,2.82085 0.375514,6.14465 0.253558,3.32381 0.664837,9.73423 0.913959,14.24537 0.756323,13.69573 1.556946,27.01711 1.892291,31.48542 0.334619,4.45855 1.08508,18.21424 1.60504,29.4199 l 0.137422,2.96156 -0.615704,0.18324 c -0.736167,0.21909 -3.245443,-0.0204 -4.418029,-0.42162 -0.461373,-0.15787 -0.99615,-0.57169 -1.188398,-0.9196 -0.394758,-0.71439 -0.588093,-4.27782 -0.983475,-18.12661 -0.414847,-14.53036 -0.842984,-21.43348 -2.141455,-34.52812 -1.726253,-17.40865 -4.020268,-33.44768 -7.322526,-51.196865 -0.309633,-1.66422 -0.320545,-1.6828 -0.337707,-0.57497 -0.0098,0.62966 0.132092,3.18951 0.315231,5.68855 0.183131,2.49904 0.63414,9.306205 1.00224,15.127035 0.368108,5.82083 1.067531,16.83411 1.554281,24.47396 0.486749,7.63984 0.991942,15.79562 1.122651,18.12396 0.130709,2.32833 0.384832,6.73364 0.564716,9.78958 0.179892,3.05594 0.529177,9.00906 0.776208,13.22917 0.247031,4.2201 0.605188,9.60831 0.795909,11.9738 0.190713,2.36548 0.286592,4.41632 0.213053,4.55742 -0.174715,0.33519 -2.027908,0.0508 -2.957233,-0.45386 -0.532416,-0.2891 -0.778814,-0.64675 -0.934098,-1.35586 -0.307211,-1.40291 -0.649581,-8.43 -0.910603,-18.69025 -0.367746,-14.45517 -0.94275,-28.32022 -1.892779,-45.64063 -0.299318,-5.45703 -0.651782,-12.60078 -0.78325,-15.875 -0.202663,-5.04728 -0.962991,-22.004135 -1.471094,-32.808325 -0.101765,-2.16396 -0.556088,-5.44387 -1.573121,-11.35686 -1.558134,-9.05891 -2.012845,-11.32079 -3.666951,-18.24061 -1.108223,-4.63617 -1.287693,-5.76219 -0.869541,-5.45575 0.738073,0.54089 2.861733,6.84223 4.367901,12.96051 l 0.977016,3.96875 -0.133703,-3.04271 c -0.08958,-2.03855 -0.303442,-3.69759 -0.64803,-5.02708 -0.282881,-1.09141 -0.739565,-3.11547 -1.014848,-4.49792 -0.632705,-3.17741 -0.911647,-3.96368 -2.158152,-6.0834 -1.310631,-2.22877 -4.280758,-6.34433 -4.603478,-6.37882 -0.137954,-0.0147 -0.553872,-0.008 -0.924257,0.015 -0.839341,0.0521 -2.122218,-0.9394 -2.536095,-1.96007 -0.272313,-0.67157 -0.265178,-0.79933 0.06039,-1.08163 0.243733,-0.21133 0.34867,-0.62349 0.308788,-1.21282 -0.05169,-0.76434 0.01619,-0.90557 0.472034,-0.98214 0.293726,-0.0493 0.814867,0.15818 1.162414,0.46286 0.346486,0.30376 0.673507,0.55229 0.726705,0.55229 0.301687,0 0.318208,-0.95096 0.0307,-1.76689 -0.570948,-1.6203 -0.268097,-2.54884 0.524717,-1.60876 0.220642,0.26164 0.315999,0.25379 0.468373,-0.0386 0.257446,-0.49395 0.792214,-0.21225 1.282927,0.67581 0.289283,0.52351 0.411786,1.29364 0.433646,2.7262 0.03787,2.48343 1.030482,5.89478 2.351808,8.08276 0.494516,0.81887 0.934857,1.44648 0.978524,1.3947 0.04368,-0.0518 -0.0587,-1.22039 -0.227498,-2.5969 -0.44476,-3.62688 -0.637505,-5.9657 -0.476663,-5.78382 0.07708,0.0872 0.481622,1.57546 0.898964,3.30729 0.417335,1.73183 0.767193,2.98981 0.777457,2.79551 0.02825,-0.53474 -1.052671,-10.5194 -1.348548,-12.45682 -0.151962,-0.99508 -0.540555,-2.2342 -0.939015,-2.99425 -0.519623,-0.99118 -0.699482,-1.68204 -0.763483,-2.932607 -0.117291,-2.29206 -0.359708,-2.866682 -1.86387,-4.417986 -1.362151,-1.404853 -1.983556,-2.477063 -1.983556,-3.422545 0,-0.305661 0.14605,-0.542306 0.334696,-0.542306 0.184084,0 0.334704,-0.231098 0.334704,-0.513552 0,-0.282453 0.09289,-0.581622 0.206407,-0.664819 0.252707,-0.185193 1.355522,0.381637 1.355522,0.696715 0,0.124935 0.242916,0.154862 0.539804,0.0665 0.915831,-0.272559 1.35683,0.879794 1.35683,3.545486 0,2.417237 0.04731,2.529583 1.819687,4.319684 0.640979,0.647394 0.687692,0.804727 0.589122,1.984375 -0.05886,0.70468 -0.181755,1.63842 -0.273047,2.07498 -0.0913,0.43656 -0.08989,1.12489 0.0034,1.52963 0.09302,0.40473 0.296593,1.80371 0.452375,3.10885 0.444827,3.7267 0.733493,2.9174 0.562456,-1.5769 -0.102347,-2.68951 -0.07455,-4.00539 0.08707,-4.12385 0.364863,-0.26739 1.309469,0.59239 1.466641,1.33494 0.07717,0.36457 0.254477,0.64661 0.394025,0.62676 1.285087,-0.18277 1.078486,1.47612 -0.47097,3.78178 -0.564885,0.84056 -0.696387,1.35947 -0.941453,3.71479 -0.319634,3.0721 -0.134377,5.57863 0.727886,9.84816 l 0.48335,2.39334 0.149532,-2.24896 c 0.294435,-4.42853 0.236827,-5.79981 -0.279802,-6.66012 -0.570797,-0.95053 -0.88155,-2.43709 -0.715396,-3.42223 0.06696,-0.39714 0.40132,-1.11881 0.742956,-1.60372 0.61901,-0.87857 0.62283,-0.87986 1.098566,-0.36997 0.262565,0.28142 0.586946,1.02758 0.720851,1.65814 0.304454,1.4337 0.555465,1.63917 0.745975,0.61063 0.184286,-0.9949 0.720666,-1.03109 1.014654,-0.0685 0.311866,1.02114 0.719621,1.93487 0.813678,1.82334 0.04368,-0.0518 -0.416255,-2.284 -1.021999,-4.96054 -1.362295,-6.01944 -1.418562,-6.32165 -1.17692,-6.32165 0.283428,0 2.560129,6.09675 3.260504,8.73125 0.565712,2.12796 2.408514,10.76846 3.009216,14.10959 0.152467,0.84804 0.303036,1.50288 0.334594,1.45521 0.137717,-0.20803 -0.304318,-8.05498 -0.623429,-11.06688 -0.352313,-3.32533 -0.720692,-4.9291 -1.777638,-7.73907 -0.390542,-1.03829 -0.700123,-1.52166 -0.975,-1.52234 -0.759536,-0.002 -1.853134,-1.00468 -1.853134,-1.6993 0,-0.35735 -0.11052,-0.73073 -0.245606,-0.82973 -0.137928,-0.10107 -0.19046,-0.507 -0.119821,-0.92583 0.100737,-0.59721 -0.07253,-1.06535 -0.869592,-2.349161 -0.547461,-0.881828 -1.121108,-1.618479 -1.274764,-1.637003 -0.153656,-0.01852 -1.004323,-0.04829 -1.890368,-0.06615 -1.343446,-0.02707 -1.693144,-0.12978 -2.105688,-0.61844 -0.477194,-0.565229 -0.48056,-0.604508 -0.09516,-1.109482 0.219756,-0.28793 0.672798,-0.594672 1.00676,-0.681649 0.445122,-0.115927 0.602751,-0.314156 0.590479,-0.742601 -0.02125,-0.7439 0.795833,-0.926422 1.544254,-0.34494 0.519193,0.403378 0.532652,0.39346 0.600718,-0.442615 0.03829,-0.470381 0.170042,-0.855238 0.292765,-0.855238 0.372418,0 1.011474,1.84617 1.15873,3.347486 0.15369,1.566815 0.973827,3.134805 1.63966,3.134805 0.634156,0 2.457663,2.721404 2.699355,4.028514 0.115007,0.62198 0.682235,2.24577 1.260512,3.60843 l 1.051399,2.47757 0.15449,-1.02236 c 0.272728,-1.80481 0.192282,-2.87198 -0.362264,-4.80528 -1.071368,-3.73509 -2.654903,-6.690522 -3.952978,-7.377632 -0.88375,-0.467795 -1.798578,-2.023517 -1.712626,-2.912418 0.0646,-0.667862 0.157258,-0.743699 0.908815,-0.743699 0.637219,0 0.836861,-0.106747 0.836744,-0.447406 -1.94e-4,-0.598898 0.233191,-0.726519 0.835199,-0.456714 0.78713,0.352773 1.393827,1.778654 1.397884,3.28537 0.0026,0.941706 0.234228,1.932854 0.804064,3.439583 0.440281,1.164167 0.986612,2.652446 1.214069,3.307296 l 0.413565,1.19062 0.0085,-3.968749 0.0085,-3.96875 -0.764781,-0.881041 c -1.13348,-1.305793 -1.353954,-3.202415 -0.327359,-2.816058 0.355172,0.133667 0.427488,0.02907 0.427488,-0.618299 0,-0.428551 0.155064,-0.931782 0.344588,-1.118292 0.288481,-0.283891 0.40169,-0.24245 0.695231,0.254492 l 0.350635,0.593602 0.253093,-0.596725 c 0.395982,-0.933634 0.787198,-0.902743 1.13693,0.08977 0.271631,0.770863 0.27508,1.134613 0.02293,2.420658 -0.163185,0.83241 -0.509283,1.78179 -0.769107,2.109733 -0.432033,0.545307 -0.470288,0.877434 -0.447686,3.886501 l 0.02471,3.290234 0.31179,-1.5875 c 0.171477,-0.873121 0.621127,-3.194839 0.999213,-5.15937 1.567697,-8.145729 1.813159,-9.260417 2.039182,-9.260417 0.443512,0 0.0076,5.769297 -0.813323,10.762536 -0.692026,4.209621 -1.487834,10.349591 -1.461699,11.277581 0.01501,0.53271 0.679612,-1.11207 1.243004,-3.07624 0.29322,-1.02225 0.533134,-2.43069 0.533134,-3.12987 0,-1.52855 0.583505,-3.398591 1.060463,-3.398591 0.188435,0 0.661287,-0.437148 1.050791,-0.97144 0.786159,-1.078397 1.235743,-1.018766 1.235743,0.163907 0,0.550693 0.103283,0.739017 0.390483,0.711989 1.011052,-0.09515 -0.418516,3.024335 -1.929212,4.209785 -0.951555,0.74668 -1.46519,1.72763 -2.486801,4.7493 -1.032221,3.05308 -1.32507,4.52166 -1.318998,6.61458 l 0.0051,1.85209 0.549004,-0.79375 c 0.301948,-0.43656 1.009611,-2.09375 1.572581,-3.68264 0.860669,-2.42912 0.985087,-2.98904 0.781766,-3.51818 -0.525231,-1.3669 -0.119417,-3.61157 0.626499,-3.46533 0.232314,0.0455 0.639908,-0.15031 0.90577,-0.43523 0.374147,-0.40098 0.568671,-0.45359 0.860804,-0.23282 0.364229,0.27524 0.395542,0.76439 0.138426,2.1621 -0.06308,0.34304 -0.02192,0.55029 0.0927,0.4663 0.113454,-0.0832 0.327519,-0.91303 0.475694,-1.84419 0.438105,-2.75319 1.562317,-4.334268 1.749403,-2.46034 0.08062,0.80759 0.367788,0.92623 0.591062,0.24418 0.133138,-0.40671 0.189355,-0.38258 0.462233,0.19844 0.17086,0.3638 0.314211,0.90286 0.318563,1.1979 0.0042,0.29504 0.162334,0.79788 0.351082,1.11741 0.256189,0.43371 0.305465,0.91808 0.194388,1.91095 -0.09649,0.86244 -0.06663,1.32999 0.08484,1.32999 0.128491,0 0.391064,0.0716 0.583481,0.15919 0.240165,0.10928 0.420639,-0.0616 0.575661,-0.54509 0.131882,-0.41133 0.32875,-0.62884 0.473274,-0.52293 0.707358,0.51838 -0.65309,-2.67316 -1.565421,-3.6724 -0.794281,-0.86994 -1.084432,-1.98906 -1.17886,-4.546896 -0.06645,-1.801388 -0.05372,-1.852083 0.467454,-1.852083 0.386636,0 0.73566,0.343859 1.253562,1.234992 0.671719,1.155798 0.741969,1.206697 1.09553,0.79375 0.352912,-0.412185 0.400189,-0.406395 0.718009,0.08792 0.408809,0.635827 0.289358,2.884422 -0.217176,4.088422 -0.305642,0.72648 -0.282265,0.91511 0.341906,2.75857 0.741674,2.1905 1.181272,2.40323 1.181272,0.57165 0,-1.43699 0.31137,-1.90513 0.98345,-1.47862 0.381721,0.24224 0.499155,0.22134 0.605669,-0.10778 0.357735,-1.10544 1.467805,0.25328 1.467805,1.79659 0,0.49174 -0.160656,1.26246 -0.35701,1.71271 -0.484937,1.11196 -0.488681,3.44572 -0.0051,3.39521 0.204189,-0.0213 0.580806,0.46236 0.898424,1.15387 0.453152,0.98659 0.527374,1.44 0.433139,2.64584 -0.06949,0.88913 0.107096,0.22014 0.453969,-1.7198 0.365738,-2.04547 0.496043,-3.31619 0.36627,-3.57187 -0.256965,-0.50631 -0.10228,-1.05833 0.296552,-1.05833 0.169535,0 0.421694,-0.25134 0.560339,-0.55853 0.218678,-0.4845 0.140306,-0.69427 -0.591265,-1.58265 -0.942826,-1.1449 -0.859564,-1.65944 0.156616,-0.96789 0.389395,0.26499 0.599656,0.31781 0.506847,0.12732 -0.584839,-1.20029 -1.124347,-1.82819 -2.174902,-2.53122 -1.400489,-0.93722 -3.453856,-3.894818 -3.042595,-4.38247 0.174546,-0.206969 0.423701,-0.164183 0.889376,0.152724 l 0.646908,0.440242 0.06856,-0.838869 c 0.05844,-0.714721 0.160874,-0.842845 0.692076,-0.86573 0.407273,-0.01755 0.76657,0.188828 1.036084,0.595107 0.331658,0.499963 0.437776,0.544157 0.540958,0.225298 0.198767,-0.614195 0.793641,-0.468775 1.074717,0.262721 0.206525,0.537483 0.313241,0.600474 0.577197,0.340717 0.259487,-0.255366 0.385515,-0.218627 0.634376,0.184929 0.444186,0.720311 0.383988,1.974461 -0.170768,3.557311 -0.448116,1.2786 -0.455815,1.40358 -0.111565,1.81177 0.237703,0.28186 0.369753,0.32315 0.369753,0.11561 0,-0.17755 0.66057,-1.99947 1.46794,-4.04871 0.807361,-2.04923 1.434923,-3.760305 1.394577,-3.802383 -0.04031,-0.04208 -0.499981,-0.331618 -1.021417,-0.643422 -1.398238,-0.836104 -2.731083,-3.548876 -2.382851,-4.849875 0.255168,-0.953316 2.024744,-0.334588 2.881045,1.007351 0.27599,0.432526 0.325165,0.443547 0.331212,0.07423 0.0042,-0.23854 0.187061,-0.697249 0.407029,-1.019353 0.357736,-0.523856 0.430507,-0.541948 0.6898,-0.171487 0.402761,0.575453 0.582839,3.381067 0.282569,4.402441 -0.217709,0.74053 -0.182111,0.945158 0.292933,1.683666 0.29742,0.462375 0.845825,1.10812 1.218683,1.434991 l 0.677908,0.594309 -0.218981,-0.682966 c -0.573538,-1.788754 0.09967,-5.12637 0.955459,-4.736967 0.338508,0.154028 0.920555,1.655427 1.123395,2.897825 0.07396,0.453095 0.12774,0.41506 0.37402,-0.264584 0.301063,-0.830791 0.305946,-1.05095 0.100526,-4.527117 -0.19299,-3.265811 0.727784,-5.349121 1.361325,-3.080072 l 0.228873,0.819733 0.384993,-0.795411 c 0.531403,-1.097935 0.928759,-0.826661 1.01144,0.690511 0.07725,1.418038 -0.364887,2.98528 -1.21827,4.318104 -1.102157,1.721373 -2.544603,7.850268 -2.505102,10.644048 0.01341,0.94588 0.06915,1.48166 0.123938,1.19062 0.533732,-2.83527 3.615761,-12.919399 4.124116,-13.493749 0.310147,-0.350408 0.109474,0.77324 -0.826909,4.630208 -1.480387,6.097681 -3.006686,13.891301 -2.998084,15.308811 0.0042,0.64073 0.05625,0.60005 0.63355,-0.49214 0.411641,-0.77882 0.6737,-1.70515 0.757662,-2.67822 0.132438,-1.53481 0.758019,-3.31078 1.382797,-3.92562 0.431114,-0.42426 0.57681,-0.2808 0.761965,0.75025 0.129958,0.72365 0.176451,0.75736 0.570627,0.41376 0.41725,-0.36373 0.406438,-0.43608 -0.390483,-2.6118 -0.973945,-2.65903 -1.02705,-3.78531 -0.252385,-5.352732 0.652398,-1.320026 1.004112,-1.421062 1.63519,-0.469735 1.04638,1.57736 1.122037,3.287177 0.232543,5.255067 -0.390306,0.86352 -0.421248,1.12542 -0.192771,1.63165 0.255397,0.56587 0.304707,0.57775 0.800049,0.1929 0.611589,-0.47517 0.646099,-0.28396 0.212041,1.17483 -0.307784,1.03442 -0.293566,1.11647 0.557834,3.21973 0.480518,1.18705 0.8963,2.36146 0.923962,2.60982 0.02766,0.24835 0.102971,-3.89423 0.167351,-9.20574 0.107147,-8.839773 0.08399,-9.734817 -0.273426,-10.573129 -0.478898,-1.123207 -0.504789,-2.478754 -0.05575,-2.920618 0.259032,-0.254911 0.406852,-0.258373 0.653831,-0.01531 0.255254,0.251192 0.368497,0.204711 0.565686,-0.232186 0.660654,-1.463764 1.710096,0.115196 1.622878,2.441734 -0.03205,0.855817 -0.167276,1.797401 -0.300431,2.092409 -0.149971,0.332281 -0.178821,1.003077 -0.07581,1.762888 l 0.166255,1.22651 0.270872,-1.702186 c 0.203683,-1.279984 0.419915,-1.854212 0.871793,-2.315104 0.739716,-0.754473 0.951023,-0.766887 1.138396,-0.06687 0.130591,0.487897 0.195377,0.50729 0.60838,0.182118 0.407611,-0.320919 0.456457,-0.598537 0.413354,-2.349243 -0.03913,-1.588817 0.03264,-2.104723 0.359397,-2.583193 l 0.408285,-0.597876 0.609177,0.568195 c 0.83536,0.779169 0.84825,2.419462 0.0302,3.848823 -0.88865,1.552743 -1.007839,2.093715 -0.575325,2.611161 0.349205,0.417771 0.329335,0.543091 -0.307708,1.940519 -0.516216,1.132375 -0.921204,1.644155 -1.6735,2.114763 -1.167323,0.730236 -1.443078,1.239642 -0.448504,0.828526 1.003985,-0.415011 1.21609,-0.204032 1.541061,1.532907 0.258029,1.37913 0.247933,1.69474 -0.08583,2.68384 -0.208035,0.61651 -0.75507,1.50515 -1.215651,1.97477 -0.651293,0.66409 -2.457048,4.18081 -2.457048,4.78514 0,0.0594 0.213862,0.17435 0.475246,0.25541 0.307768,0.0954 0.430061,0.28698 0.347034,0.54354 -0.08636,0.26685 0.03163,0.42314 0.361505,0.4788 0.349758,0.059 0.494086,0.27167 0.505016,0.74409 0.0085,0.3638 0.09145,0.86051 0.184531,1.1038 0.240967,0.62986 -0.182228,1.41439 -0.972276,1.80243 -0.51689,0.25388 -0.675716,0.49818 -0.66864,1.02847 0.0092,0.68521 0.02108,0.67984 0.803127,-0.36283 0.436613,-0.58208 1.42848,-2.0489 2.204157,-3.2596 l 1.41031,-2.20127 -0.316809,-0.89909 c -0.69491,-1.9721 -0.201987,-4.74997 0.732784,-4.12966 0.21853,0.14501 0.59475,0.0819 1.02356,-0.17179 0.63592,-0.37617 0.70173,-0.36636 1.0598,0.15798 0.20998,0.30748 0.43052,0.50126 0.49009,0.43061 0.0596,-0.0706 0.37327,-0.009 0.69711,0.137 0.45905,0.20695 0.58877,0.44363 0.58877,1.07423 0,2.02032 -1.407,3.9668 -2.86737,3.9668 -0.80276,0 -0.8818,0.094 -2.93939,3.49358 -1.162955,1.92146 -2.231701,3.74095 -2.374992,4.04331 -0.640616,1.35174 -0.768787,5.82034 -1.286394,44.850608 -0.05498,4.14735 -0.05583,7.36203 -0.0017,7.14375 0.05397,-0.21828 0.550792,-4.08781 1.104064,-8.59896 1.593176,-12.990028 5.665372,-42.636488 6.572252,-47.847318 0.4734,-2.72012 1.07158,-4.58993 1.35161,-4.22489 0.0902,0.11764 -0.21981,4.02388 -0.68898,8.68055 -0.46919,4.65666 -1.06316,10.84791 -1.31995,13.75833 -1.27026,14.39694 -3.797174,35.178648 -6.2621,51.500373 l -1.104714,7.31496 0.0094,17.29129 c 0.0096,17.65902 0.284592,39.00633 0.578875,44.94024 0.192012,3.87182 0.101901,4.19059 1.533264,-5.42395 1.311451,-8.80914 2.523162,-19.2033 3.886355,-33.3375 1.65978,-17.20939 2.17844,-26.98841 3.59245,-67.733333 0.67177,-19.35723 1.24334,-27.79954 2.76049,-40.77385 0.0839,-0.71781 0.003,-0.87468 -0.64345,-1.23995 -1.40161,-0.79256 -2.60938,-3.36286 -2.02526,-4.31008 0.28467,-0.46165 0.45919,-0.4357 1.982,0.29466 0.38693,0.18557 0.38904,0.14658 0.0452,-0.83284 -0.19839,-0.565134 -0.75279,-1.503769 -1.232,-2.085852 -0.97376,-1.182794 -1.85953,-3.298832 -1.65084,-3.94371 0.0751,-0.232054 0.3149,-0.421915 0.5329,-0.421915 0.21801,0 0.44889,-0.238125 0.51307,-0.529167 0.15181,-0.688341 0.48648,-0.669408 1.10368,0.06244 0.27441,0.325382 0.65841,0.559565 0.85335,0.520406 0.20094,-0.04037 0.46803,0.224435 0.61674,0.611469 0.34003,0.884907 0.33811,3.43146 -0.003,4.079264 -0.19149,0.363567 -0.20025,0.675722 -0.0314,1.120889 0.2265,0.597467 0.2392,0.587687 0.40144,-0.30905 0.38129,-2.107362 1.49694,-5.816716 1.92283,-6.393032 l 0.457,-0.618426 -0.10887,0.661458 c -0.0599,0.363802 -0.30955,1.792552 -0.55481,3.175 -0.24526,1.382448 -0.51425,3.027992 -0.59778,3.656764 -0.14665,1.104183 -0.13619,1.131633 0.30656,0.803763 0.6021,-0.44586 0.74562,-0.23066 0.87003,1.3045 0.0758,0.93561 -0.0264,1.63717 -0.38099,2.61448 l -0.48458,1.33573 1.07387,2.74674 1.07387,2.74674 0.1478,-1.3205 c 0.0813,-0.72628 0.1566,-2.60268 0.16736,-4.16978 0.0184,-2.68111 -0.02,-2.93705 -0.64986,-4.33672 -0.77554,-1.72331 -0.85927,-3.039908 -0.24002,-3.77419 0.23615,-0.280026 0.54092,-0.756276 0.67725,-1.058333 0.33001,-0.731177 1.08551,-0.704935 1.32776,0.04612 0.10559,0.327422 0.41915,0.833438 0.69678,1.124479 l 0.50479,0.529167 -0.15098,-1.981274 c -0.11427,-1.499583 -0.28993,-2.219028 -0.72251,-2.959192 -0.90908,-1.5555 -1.22106,-3.6914 -0.66976,-4.585411 0.29646,-0.480749 0.32969,-0.481768 0.9137,-0.02803 0.58942,0.457953 0.62022,0.45508 1.12281,-0.104791 0.28423,-0.316611 0.70144,-0.534044 0.92715,-0.483184 0.88428,0.19925 0.51674,3.923252 -0.52274,5.296584 -0.27802,0.367324 -0.30921,0.899379 -0.17611,3.004454 l 0.16174,2.558083 1.04815,-3.40133 c 1.90636,-6.1863 3.35792,-9.871566 3.35792,-8.525196 0,0.227417 -0.80017,3.288491 -1.77815,6.802387 -3.31709,11.918395 -4.26554,16.797835 -4.37942,22.530855 l -0.0815,4.10104 0.87372,-3.04271 c 0.76871,-2.67702 0.85828,-3.24019 0.74519,-4.68589 -0.10021,-1.28084 -0.0461,-1.79234 0.24521,-2.31958 0.29634,-0.5363 0.45753,-0.62323 0.77822,-0.41972 0.27756,0.17614 0.48992,0.15679 0.67681,-0.0617 0.21261,-0.24852 0.33561,-0.21679 0.56083,0.14468 0.15866,0.25466 0.40293,0.46302 0.54281,0.46302 0.38953,0 0.30215,1.65336 -0.12564,2.37758 -0.20898,0.35379 -0.68998,0.96601 -1.06889,1.36049 -0.47594,0.4955 -0.77927,1.15325 -0.98118,2.1276 -0.16076,0.7757 -0.74196,2.76132 -1.29155,4.41248 -0.5496,1.65117 -1.05225,3.4371 -1.11701,3.96875 l -0.11772,0.96664 0.77075,-1.35111 c 0.42392,-0.74311 1.44747,-2.29092 2.27458,-3.43958 0.96465,-1.3397 1.81992,-2.8948 2.38547,-4.33744 0.48491,-1.23692 0.98502,-2.46872 1.11135,-2.73732 0.16912,-0.35957 0.14451,-0.6038 -0.0933,-0.92604 -0.53055,-0.71885 -1.04624,-2.08737 -1.04624,-2.77648 0,-0.35491 0.19211,-0.92636 0.42692,-1.26991 l 0.42693,-0.62462 0.67484,0.59105 c 0.64706,0.56671 0.68036,0.57044 0.8088,0.0906 0.2021,-0.75504 0.7425,-0.87635 1.03334,-0.23196 0.24605,0.54516 0.2628,0.53681 0.55046,-0.27444 0.16318,-0.46018 0.44141,-0.8367 0.61829,-0.8367 0.17689,0 0.38409,-0.19311 0.46047,-0.42913 0.10085,-0.31162 0.31235,-0.388 0.77231,-0.27892 0.34838,0.0826 0.74172,0.0218 0.87409,-0.13516 0.48392,-0.57382 0.94007,-0.0131 0.94007,1.15555 v 1.1227 l 0.50205,-1.18054 c 0.58415,-1.37359 1.11479,-1.53336 1.2847,-0.38679 0.12753,0.86066 -0.0686,1.45716 3.0879,-9.392711 1.44809,-4.97757 2.15094,-7.028482 2.49511,-7.280697 0.56655,-0.415201 -0.16572,3.750849 -1.91915,10.918328 -2.82069,11.53011 -3.5258,14.57926 -4.32892,18.71966 -1.42289,7.33552 -2.67001,15.68149 -3.80949,25.49385 -0.37777,3.25307 -0.64043,5.96972 -0.58369,6.03699 0.0568,0.0673 0.22841,-0.33214 0.3815,-0.88759 0.55774,-2.02364 3.10232,-9.04517 4.68079,-12.91617 l 1.61831,-3.96875 0.10738,-4.36562 c 0.0628,-2.55564 -0.003,-5.51743 -0.15832,-7.14375 -0.14612,-1.52797 -0.3091,-3.4925 -0.36219,-4.36563 l -0.0965,-1.5875 0.42852,1.05834 c 0.51784,1.27891 1.08574,4.4407 1.29657,7.21867 0.15133,1.99414 0.15866,2.01398 0.31468,0.85112 0.0878,-0.65484 0.16718,-2.82376 0.17628,-4.81981 l 0.0165,-3.62919 -1.0041,-1.34058 c -1.04881,-1.40028 -1.233,-2.02913 -0.6694,-2.28557 0.18408,-0.0838 0.33525,-0.34792 0.33594,-0.58701 6.9e-4,-0.23909 0.10582,-0.8812 0.23363,-1.4269 0.34167,-1.45887 0.98992,-1.35261 1.61406,0.26458 0.43601,1.12977 0.48129,1.65782 0.44805,5.22552 -0.0287,3.0811 0.0142,3.76163 0.19171,3.04271 0.12577,-0.50932 0.47968,-1.93807 0.78648,-3.175 0.7146,-2.88112 2.5121,-7.28073 3.44909,-8.44211 0.41101,-0.50944 0.76494,-0.76765 0.81383,-0.59374 0.0476,0.16927 -0.37827,1.66951 -0.94633,3.33388 -0.94927,2.78124 -1.71807,5.63733 -2.30944,8.57945 -0.32367,1.61034 -0.0395,1.08684 0.84389,-1.55456 0.41367,-1.23693 1.2871,-3.5269 1.94092,-5.08883 1.43708,-3.43299 1.48499,-4.15417 0.42521,-6.40126 -0.58092,-1.23176 -0.9679,-1.72748 -1.61771,-2.0723 -1.39315,-0.73927 -2.39802,-3.02252 -1.77465,-4.03234 0.28373,-0.45961 0.41439,-0.48981 0.99498,-0.22995 0.59323,0.26552 0.68138,0.24007 0.78425,-0.22639 0.0638,-0.28903 0.24194,-0.4757 0.39598,-0.41481 0.62995,0.24899 1.0561,1.44099 1.16273,3.25233 0.06,1.01865 0.2737,2.26881 0.47496,2.77813 l 0.36593,0.92604 -0.11102,-1.37425 c -0.14428,-1.78604 0.1178,-2.80266 0.98871,-3.83537 0.84699,-1.00432 1.2265,-0.84315 1.68382,0.71506 0.40551,1.3817 0.39816,3.0887 -0.0184,4.27079 -0.18408,0.52242 -0.3347,0.98914 -0.3347,1.03716 0,0.048 0.4961,-0.21788 1.10244,-0.5909 0.6917,-0.42553 1.32647,-1.0862 1.70375,-1.77327 1.10192,-2.00669 2.12728,-3.34401 2.56394,-3.34401 0.23724,0 0.43133,0.17859 0.43133,0.39687 0,0.21922 0.19787,0.39688 0.44202,0.39688 0.63306,0 0.79463,1.07293 0.33464,2.22236 -0.46624,1.16503 -1.53216,1.97535 -2.94743,2.24063 -1.18852,0.22279 -2.92576,1.2509 -4.17212,2.4691 -1.08302,1.05855 -3.41507,6.84462 -5.33732,13.24239 -0.78754,2.62117 -0.87292,3.19731 -0.26838,1.81108 0.18436,-0.42273 0.92268,-1.64523 1.64072,-2.71666 1.17381,-1.75149 1.28463,-2.02244 1.09832,-2.68518 -0.28118,-1.00023 -0.0139,-2.49458 0.50505,-2.82392 0.32358,-0.20535 0.47166,-0.17015 0.62171,0.14778 0.16603,0.35179 0.32469,0.26587 1.01036,-0.54718 0.82996,-0.98413 1.27097,-1.02713 1.27097,-0.12392 0,0.31355 0.11342,0.45363 0.29895,0.36922 0.45093,-0.20518 0.89594,0.5609 0.64039,1.1024 -0.11637,0.24657 -0.16193,0.67344 -0.10125,0.9486 0.20654,0.93653 -0.70493,1.70163 -2.77208,2.32691 -0.77938,0.23574 -1.10911,0.56965 -2.03708,2.06289 -1.14776,1.8469 -3.70378,7.56098 -3.5764,7.99516 0.0854,0.29104 2.67182,-1.23247 4.4236,-2.60569 0.9707,-0.76091 1.24241,-1.12794 1.29984,-1.75576 0.079,-0.8644 1.0631,-2.235 2.21044,-3.07876 0.9004,-0.66215 1.26165,-0.43122 1.1059,0.7069 l -0.11881,0.86815 1.31227,-0.96794 1.31227,-0.96794 -0.0294,-1.35378 c -0.0311,-1.42833 0.50511,-2.8372 1.74447,-4.58371 0.46268,-0.65201 0.64987,-0.76082 0.89461,-0.51998 0.1702,0.16751 0.30948,0.42082 0.30948,0.56291 0,0.14209 0.16937,0.68158 0.37639,1.19888 0.34671,0.86638 0.3486,1.03221 0.0238,2.10314 -0.20383,0.67212 -0.25415,1.1237 -0.11929,1.0704 0.1283,-0.0507 0.35057,-0.63997 0.49393,-1.30946 0.33173,-1.5492 0.85142,-2.48563 1.73176,-3.12044 0.80579,-0.58106 1.06351,-0.48582 1.06351,0.39301 0,0.44924 0.1426,0.65145 0.50207,0.71199 0.87754,0.14778 0.73742,1.07244 -0.34115,2.25132 -0.9156,1.00074 -1.59137,1.37788 -5.52849,3.08538 -1.39908,0.60677 -4.14924,2.65107 -7.14132,5.3084 -1.38235,1.22771 -3.14865,2.67273 -3.9251,3.21118 -2.10325,1.45851 -2.59874,2.1322 -2.41455,3.28292 0.26225,1.63837 0.14324,8.9808 -0.22104,13.63701 -0.19354,2.47385 -0.64877,8.18885 -1.01164,12.7 -0.36287,4.511149 -0.91152,11.476299 -1.21923,15.478129 -1.06337,13.829535 -2.03097,24.770815 -5.16582,58.412705 -0.45118,4.84184 -0.78074,8.84567 -0.73236,8.8974 0.0484,0.0517 0.89124,-0.0786 1.87302,-0.28964 3.86489,-0.83075 9.10038,0.43472 10.81213,2.61338 0.62725,0.79835 0.64349,2.75579 0.0248,2.98864 -0.23722,0.0893 -1.69534,-0.0813 -3.24027,-0.37904 -4.05733,-0.78197 -3.96011,-0.82343 -2.48861,1.06121 0.68819,0.88142 1.25127,1.71259 1.25127,1.84704 0,1.05111 -6.36994,0.77193 -8.70645,-0.38159 -0.29057,-0.14345 -0.47322,1.25877 -1.27983,9.82555 -0.9255,9.82968 -0.95043,10.0028 -1.52643,10.60052 -0.48894,0.50739 -0.79322,0.5947 -1.84405,0.52917 l -1.25847,-0.0785 0.0393,-1.19063 c 0.0216,-0.65484 0.54755,-6.84609 1.16876,-13.75833 0.62122,-6.91224 1.48205,-16.49677 1.91295,-21.29896 0.77431,-8.62926 1.9303,-20.9012 2.7914,-29.63333 1.57332,-15.95439 3.56706,-39.149915 4.57114,-53.181244 0.18744,-2.61937 0.50162,-6.46627 0.69817,-8.54865 0.19654,-2.08238 0.30903,-3.84344 0.24997,-3.91347 -0.11109,-0.13173 -3.22792,9.06888 -5.54079,16.35593 -1.55769,4.907759 -1.65093,5.653059 -2.54151,20.315569 -0.31377,5.165975 -0.76573,12.131135 -1.00437,15.478115 -0.23862,3.34698 -0.63998,9.4787 -0.89192,13.62604 -0.25193,4.14735 -0.85615,13.1961 -1.34273,20.10833 -1.21407,17.24704 -1.70699,24.90343 -2.11222,32.80834 -0.52796,10.29895 -0.76809,13.84146 -0.9531,14.06038 -0.20422,0.24166 -2.66813,1.02087 -3.22805,1.02087 -0.27866,0 -0.39939,-0.20262 -0.39939,-0.67028 0,-1.14292 0.87018,-13.60498 1.56052,-22.34847 0.36191,-4.58391 1.26547,-16.3711 2.0079,-26.19375 1.33158,-17.61756 1.94696,-25.37442 3.02324,-38.10852 0.30174,-3.56994 0.53775,-6.84416 0.52448,-7.27604 -0.0728,-2.369065 -5.3939,26.8721 -6.31257,34.68954 -0.45766,3.89441 -0.78718,12.85954 -1.71081,46.54606 -0.13964,5.09323 -0.32073,9.66149 -0.40241,10.15169 -0.13596,0.81597 -0.28707,0.95648 -1.78849,1.66296 -2.00273,0.94237 -3.46009,1.22758 -3.72043,0.72808 -0.26917,-0.51642 -0.15931,-4.86348 0.34989,-13.84423 0.94928,-16.74269 1.77576,-26.83613 3.44643,-42.09017 1.12265,-10.25035 1.32397,-12.97619 1.78796,-24.20937 0.18333,-4.43839 0.38632,-9.02229 0.45111,-10.18646 0.0648,-1.16417 0.21256,-10.391505 0.32841,-20.505205 0.27605,-24.097679 0.63615,-40.155459 1.01612,-45.308159 l 0.30715,-4.16546 -1.10024,-2.846 c -0.60514,-1.5653 -1.10178,-3.01864 -1.10365,-3.22965 -0.002,-0.23375 -0.0792,-0.28544 -0.19732,-0.13229 -0.18868,0.24458 -0.38085,2.22437 -1.03996,10.7142 -0.90789,11.69415 -1.02895,14.72235 -1.67085,41.79236 -0.43405,18.304579 -1.02151,32.912474 -1.68653,41.936454 -1.59992,21.71061 -2.96969,35.77242 -4.974233,51.06458 -0.36242,2.7649 -1.074375,8.53943 -1.582106,12.83229 -0.507732,4.29287 -0.972825,8.19072 -1.033536,8.66189 -0.063,0.48864 -0.302017,0.97829 -0.556418,1.13973 -0.625765,0.39711 -2.479996,0.40449 -3.276984,0.013 -0.662509,-0.3254 -0.66988,-0.35193 -0.802681,-2.88872 -0.07371,-1.40817 -0.205302,-13.93078 -0.292418,-27.82802 l -0.158388,-25.26771 -0.39049,3.70417 c -1.096981,10.40587 -1.569993,16.23864 -1.448307,17.85937 0.07101,0.94589 0.197645,9.05691 0.281405,18.0245 l 0.152298,16.3047 -0.60555,0.47048 c -0.76823,0.59687 -2.472288,0.74447 -3.465985,0.30021 z M 73.565101,183.96885 c -0.05111,-0.40019 -0.09295,-0.0728 -0.09295,0.7276 0,0.80037 0.04183,1.12779 0.09295,0.7276 0.05111,-0.40018 0.05111,-1.05502 0,-1.4552 z m -0.221536,-3.3073 c -0.04951,-0.47294 -0.08999,-0.086 -0.08999,0.8599 0,0.94589 0.04048,1.33284 0.08999,0.8599 0.04951,-0.47295 0.04951,-1.24685 0,-1.7198 z m -0.227078,-2.91041 c -0.05321,-0.32742 -0.0967,-0.0595 -0.0967,0.59531 0,0.65484 0.04352,0.92274 0.0967,0.59531 0.05322,-0.32742 0.05322,-0.8632 0,-1.19062 z m 12.022273,-7.2572 c 0.311302,-5.24803 0.627696,-19.34977 0.874551,-38.97874 0.243884,-19.39328 0.785678,-51.935635 0.999928,-60.060405 0.117039,-4.43839 0.271867,-13.24901 0.344065,-19.57917 l 0.131257,-11.50938 -1.013017,1.31026 c -1.666554,2.15553 -1.661722,2.12924 -2.027832,11.04281 -0.53584,13.04595 -0.973549,28.7821 -1.216607,43.7386 -0.356842,21.958575 -0.679883,38.273215 -0.908958,45.905205 -0.115741,3.8563 -0.211392,9.99427 -0.212556,13.63993 l -0.0026,6.62848 0.761248,3.69027 c 0.418691,2.02965 0.985465,5.03235 1.259508,6.67267 0.274042,1.64032 0.543523,2.92872 0.598846,2.86312 0.05532,-0.0656 0.240579,-2.47925 0.411684,-5.36365 z M 70.37359,152.63889 c 0.142279,-5.30161 0.107821,-6.43547 -0.29748,-9.78958 -0.689639,-5.70711 -1.118418,-12.67839 -1.26348,-20.54211 -0.08366,-4.53692 -0.281599,-8.43629 -0.553238,-10.90033 -1.44996,-13.152935 -1.676379,-18.147195 -2.405538,-53.060425 l -0.166011,-7.94897 -0.548161,-0.64999 -0.548161,-0.64999 0.502055,-0.0845 c 0.440054,-0.0741 0.502048,-0.23951 0.502048,-1.33957 0,-1.48221 -0.578117,-2.28103 -2.287116,-3.16024 -0.58294,-0.2999 -1.059882,-0.69087 -1.059882,-0.86882 0,-0.17796 -0.05347,-0.2602 -0.11875,-0.18275 -0.159079,0.18862 -0.689901,6.0484 -0.977926,10.7953 -0.455605,7.50869 -0.725339,20.11092 -0.622932,29.10417 0.09395,8.25127 0.158295,9.49665 0.669796,12.96458 0.311217,2.11005 1.478709,10.682545 2.59442,19.049995 1.115703,8.36745 2.688578,19.85698 3.495282,25.53229 0.806695,5.67531 1.731457,12.2661 2.055021,14.64621 0.374088,2.75178 0.639418,4.10051 0.728711,3.70416 0.07725,-0.34281 0.212833,-3.32153 0.301342,-6.61939 z m 9.264574,-4.98411 c 0.13598,-3.41974 0.341105,-8.24177 0.455824,-10.71562 0.219985,-4.74397 0.569591,-22.05144 0.785637,-38.893745 0.212141,-16.53863 0.788858,-32.04174 1.584624,-42.59792 0.336517,-4.46397 0.810262,-14.17593 0.783747,-16.06706 -0.01687,-1.20151 -1.204818,-4.08222 -2.459873,-5.96494 -0.834492,-1.25182 -0.962544,-1.34773 -1.484967,-1.1122 -0.314447,0.14176 -0.955122,0.25775 -1.423706,0.25775 -0.694387,0 -0.877207,0.11011 -0.988316,0.59531 -0.274743,1.19969 -0.607254,6.74584 -0.541339,9.02946 l 0.0678,2.34873 0.551121,-1.15811 c 0.487955,-1.02537 0.545218,-1.43103 0.499568,-3.53935 -0.0452,-2.08975 0.0059,-2.46155 0.418582,-3.0372 0.457376,-0.63814 0.478637,-0.64215 0.783445,-0.14786 0.409516,0.66408 0.399379,0.18665 -0.02142,-1.00747 -0.184083,-0.52242 -0.334695,-1.37039 -0.334695,-1.88439 0,-0.75257 0.08536,-0.93454 0.438417,-0.93454 0.241128,0 0.549359,0.24581 0.68496,0.54625 0.200706,0.44469 0.307641,0.48613 0.57514,0.22288 0.535393,-0.52688 0.826462,0.0831 0.663597,1.39074 -0.0786,0.63108 -0.170861,1.93179 -0.205032,2.89047 -0.07177,2.01339 -0.614473,3.32847 -1.921057,4.655 -0.931889,0.94611 -2.139084,3.64316 -2.347035,5.24362 l -0.137515,1.05833 0.399076,-0.65505 c 1.862748,-3.05751 3.890369,-5.61205 4.180967,-5.26747 0.04748,0.0563 -0.716332,1.46097 -1.697278,3.12157 -3.039289,5.14505 -2.967664,4.89464 -3.03395,10.60616 -0.05127,4.41554 -0.300372,16.14395 -0.952601,44.846865 -0.122343,5.38427 -0.325966,12.72119 -0.452492,16.30425 -0.227871,6.45327 -0.224565,6.55052 0.35076,10.31875 0.723171,4.73658 4.408491,25.91278 4.492007,25.81148 0.02134,-0.0258 0.149996,-2.84495 0.285984,-6.26469 z M 58.909218,133.79333 C 58.652153,129.84822 58.199086,123.70338 57.9024,120.13812 57.605713,116.57286 57.260249,112.10801 57.134692,110.21624 56.145279,95.307725 55.4705,82.796495 55.008451,70.793335 54.8236,65.991145 54.621739,60.946495 54.55988,59.582995 c -0.0619,-1.36349 -0.522313,-5.05443 -1.023222,-8.20208 -0.898999,-5.64913 -3.021064,-16.94568 -3.229749,-17.19313 -0.05912,-0.0701 -0.107475,0.37419 -0.107475,0.9873 0,0.95014 -0.0947,1.17918 -0.641366,1.55121 -0.590261,0.40169 -0.716518,0.78941 -1.584431,4.86562 -1.025077,4.81435 -1.071713,5.99698 -0.322054,8.16704 0.3069,0.88838 0.402965,1.79512 0.378441,3.57188 -0.03761,2.72588 0.542577,19.24154 0.738957,21.03437 0.07168,0.65485 0.428003,2.67891 0.791735,4.49792 3.85397,19.27383 5.766374,31.336085 8.220133,51.847605 0.739153,6.17873 1.361452,11.53654 1.382898,11.90625 0.02142,0.3697 0.07809,0.14952 0.125918,-0.48928 0.04782,-0.6388 -0.123389,-4.38926 -0.380447,-8.33437 z m 30.110179,-1.88125 c 0.367535,-3.05594 1.120366,-9.24719 1.672964,-13.75834 0.868351,-7.08888 1.005073,-8.79459 1.00735,-12.5677 0.0042,-6.621675 0.927191,-41.679185 1.351668,-51.329165 0.255641,-5.81151 0.430077,-17.19792 0.263476,-17.19792 -0.06005,0 -1.160576,0.55652 -2.445705,1.23671 l -2.336587,1.23671 0.136992,0.94611 c 0.665233,4.59417 0.68872,5.32027 0.650999,20.12839 -0.02134,8.36745 -0.145426,20.98807 -0.275806,28.04583 -0.13038,7.05776 -0.336821,19.797445 -0.458767,28.310415 -0.121956,8.51297 -0.266327,16.72828 -0.32084,18.25625 -0.05456,1.52797 -0.05743,2.65906 -0.0067,2.51354 0.05094,-0.14552 0.393282,-2.7649 0.760817,-5.82083 z m 22.843953,-18.25625 c 1.05639,-5.88127 3.40594,-17.390425 4.9436,-24.215945 1.05861,-4.69918 1.28363,-6.14231 1.67085,-10.71563 0.85863,-10.14117 1.90393,-19.38165 2.81271,-24.86426 0.79057,-4.76946 3.5211,-17.33533 4.26933,-19.6474 0.0737,-0.22772 -0.52796,0.17072 -1.33703,0.88543 -0.80906,0.71471 -2.35447,1.95432 -3.43424,2.75468 -3.44544,2.55387 -7.21395,7.3238 -8.49642,10.75417 -0.34803,0.93091 -0.38363,2.79533 -0.40854,21.39271 -0.0154,11.52296 -0.14153,23.01641 -0.29032,26.45833 -0.5677,13.132965 -0.92013,21.990515 -0.90009,22.621865 0.0193,0.60884 0.0345,0.59832 0.19161,-0.13229 0.0938,-0.43656 0.53418,-2.81781 0.97854,-5.29166 z m -39.572583,-4.69636 c 6.32e-4,-1.34607 0.09821,-4.65005 0.216855,-7.34218 0.118642,-2.692135 0.373135,-9.954945 0.565551,-16.139585 0.192416,-6.18463 0.495335,-14.34041 0.673153,-18.12396 0.177818,-3.78354 0.317483,-7.77213 0.310366,-8.86354 l -0.01299,-1.98437 -0.994683,2.49732 -0.994684,2.49733 -0.330285,6.76309 c -0.181654,3.7197 -0.528343,10.45403 -0.770414,14.96517 -0.24208,4.51115 -0.508727,10.27602 -0.592563,12.81084 l -0.152425,4.608745 0.873108,5.37779 c 0.480213,2.95778 0.948426,5.37845 1.040468,5.37927 0.09204,8.1e-4 0.167867,-1.09985 0.168499,-2.44592 z m 44.554773,-8.71471 c -0.0712,-0.21107 -0.1241,-0.14837 -0.13481,0.15985 -0.01,0.27892 0.043,0.43519 0.11719,0.34727 0.0742,-0.0879 0.0821,-0.31612 0.0176,-0.50712 z M 69.254826,80.392705 c 0.08479,-1.35059 0.456524,-6.14656 0.826092,-10.65771 0.421862,-5.14964 0.617922,-8.74364 0.526816,-9.65729 -0.266579,-2.67332 -2.053545,-8.35885 -2.471452,-7.86332 -0.06207,0.0736 0.04376,5.69139 0.235156,12.48392 0.191429,6.79252 0.348046,13.7179 0.348046,15.38972 0,1.67181 0.08577,2.97681 0.190593,2.89999 0.104828,-0.0768 0.259968,-1.24471 0.344749,-2.59531 z M 58.891062,62.855835 c 0.440939,-9.88767 1.291251,-17.20228 2.519767,-21.67565 0.676813,-2.46444 0.978196,-2.49405 0.908764,-0.0893 -0.03483,1.2073 0.0087,1.67538 0.117275,1.25971 0.129342,-0.49529 0.323589,-0.65884 0.773214,-0.65103 0.345963,0.006 0.600474,-0.13417 0.600474,-0.33073 0,-0.43892 0.544628,-0.44136 0.850869,-0.004 0.129857,0.18553 0.306005,0.96211 0.391427,1.72573 0.08544,0.76361 0.258433,1.46394 0.384444,1.55629 0.154306,0.11308 0.182431,-0.64482 0.08614,-2.32104 -0.0786,-1.36892 -0.210278,-5.06371 -0.292528,-8.21063 l -0.149558,-5.72167 -1.221229,0.0331 c -0.98905,0.0268 -1.282768,0.14285 -1.544928,0.6102 l -0.323698,0.57707 0.845143,-0.51092 c 0.464831,-0.28101 1.100041,-0.50468 1.411587,-0.49705 l 0.566436,0.0139 -0.557834,0.43542 c -1.346213,1.05078 -2.636039,3.00725 -4.058067,6.15549 -0.956851,2.11838 -1.857258,3.72631 -2.510246,4.48278 l -1.018221,1.17957 0.0067,5.69959 c 0.0042,3.13478 0.145771,7.48554 0.315417,9.66835 0.169646,2.18282 0.543042,6.94532 0.829777,10.58334 l 0.521335,6.61458 0.149743,-2.51354 c 0.08239,-1.38245 0.261249,-5.01386 0.397524,-8.06979 z m 12.037571,-9.03805 c 0.02817,-1.72247 -0.03668,-2.11467 -0.431967,-2.61357 -0.366557,-0.46267 -0.450418,-0.86 -0.39593,-1.87602 0.06122,-1.14121 0.126366,-1.28666 0.568309,-1.26839 0.297985,0.0123 0.551374,-0.1743 0.628649,-0.46302 0.07117,-0.26601 0.223105,-0.48366 0.337563,-0.48366 0.114449,0 0.208094,-0.29766 0.208094,-0.66146 0,-0.3638 0.08823,-0.66146 0.196059,-0.66146 0.107838,0 0.321734,-0.35974 0.475323,-0.79942 0.348028,-0.9963 0.596383,-1.18736 1.011895,-0.77846 0.374045,0.3681 0.431469,2.51191 0.106042,3.95913 -0.606664,2.69795 -0.907938,4.30831 -0.824532,4.40721 0.05145,0.061 0.407619,-0.46967 0.791574,-1.17917 l 0.698107,-1.28999 v -4.28982 -4.28981 l -0.758144,-0.37562 c -1.061864,-0.52609 -2.422227,-2.1047 -2.319981,-2.69218 0.06469,-0.37139 0.268662,-0.46388 0.920925,-0.4175 0.977159,0.0695 1.016105,0.19791 -0.805776,-2.65744 -0.72597,-1.13778 -1.485902,-2.13121 -1.688734,-2.20761 -1.271787,-0.47906 -1.720764,-0.82504 -2.320116,-1.78784 l -0.672056,-1.0796 0.131604,1.5875 c 0.07236,0.87312 0.290765,4.32594 0.485298,7.67291 0.194542,3.34698 0.413042,6.74026 0.485569,7.54063 l 0.131873,1.45521 0.310821,-0.87775 c 0.65744,-1.8566 1.754329,-0.35645 1.512358,2.06837 -0.219251,2.19721 -0.199585,2.37507 0.475457,4.29948 0.344554,0.98227 0.644951,1.78594 0.667544,1.78594 0.0226,0 0.05599,-0.91196 0.07413,-2.02659 z m 1.062496,-2.00831 c -0.0619,-0.1819 -0.112544,-0.0331 -0.112544,0.33073 0,0.3638 0.0506,0.51263 0.112544,0.33073 0.0619,-0.1819 0.0619,-0.47956 0,-0.66146 z m 0.223131,-1.32291 c -0.0619,-0.1819 -0.112544,-0.0331 -0.112544,0.33073 0,0.3638 0.0506,0.51263 0.112544,0.33072 0.0619,-0.1819 0.0619,-0.47955 0,-0.66145 z m -24.466662,-10.82586 0.726156,-2.82222 -0.514588,-0.98729 c -0.489356,-0.93889 -0.523494,-0.95876 -0.696176,-0.40524 -0.203093,0.65099 -0.537922,7.37687 -0.3569,7.16925 0.06342,-0.0728 0.442119,-1.40229 0.841508,-2.9545 z m 40.849801,-3.91685 c 0.08164,-0.95208 0.317501,-1.8348 0.62881,-2.35321 l 0.498185,-0.8296 h -1.10543 -1.105431 l -0.893112,1.78593 c -1.270084,2.53976 -1.595073,3.59142 -1.75997,5.69521 l -0.145249,1.85316 1.875787,-2.31394 c 1.82231,-2.24797 1.879513,-2.35737 2.00641,-3.83755 z m 31.108021,1.8707 c 1.84308,-1.53149 2.43546,-2.1655 2.83559,-3.03483 0.49619,-1.07803 0.49503,-1.08857 -0.15851,-1.44165 -0.30709,-0.16591 -0.74549,-0.66656 -0.97422,-1.11256 l -0.41589,-0.81089 -0.13219,0.78382 c -0.0727,0.4311 -0.43386,1.1912 -0.80255,1.6891 -0.50627,0.68374 -2.02574,4.55934 -2.02574,5.16693 0,0.11869 0.35513,-0.14442 1.67351,-1.23992 z m -27.54383,-0.96208 c 0.115504,-0.0846 0.210017,-0.32189 0.210017,-0.5272 0,-0.26799 -0.236042,-0.18335 -0.836752,0.30004 -0.46021,0.37032 -1.110626,0.73827 -1.445364,0.81766 -0.334737,0.0794 -0.728112,0.31508 -0.87417,0.52375 -0.176991,0.25289 0.23498,0.15602 1.235347,-0.29046 0.825493,-0.36844 1.59541,-0.73914 1.710922,-0.82379 z m -8.160889,-7.43079 0.162123,-5.52419 -1.893681,-2.25449 -1.893683,-2.254484 -0.253819,1.328447 c -0.139597,0.730647 -0.621421,2.733517 -1.070718,4.450817 l -0.816891,3.12238 0.709492,0.84128 0.709491,0.84129 v -1.26482 c 0,-1.38171 0.503717,-2.82604 0.985601,-2.82604 0.763727,0 1.274149,3.32905 0.806729,5.26161 -0.199323,0.82413 -0.126797,1.05218 0.946731,2.97682 1.044912,1.87335 1.176962,2.02062 1.304542,1.45495 0.07809,-0.34616 0.214908,-3.11526 0.304083,-6.15357 z m -45.174059,4.95769 c -0.133248,-0.58675 -0.334401,-1.13435 -0.44702,-1.21688 -0.303964,-0.22276 -0.14589,1.4803 0.208253,2.24367 0.407535,0.87845 0.541045,0.30431 0.238767,-1.02679 z m 85.714348,-0.46872 c 0.44387,-0.47631 0.54066,-1.28579 0.18492,-1.54649 -0.12272,-0.0899 -0.22313,0.008 -0.22313,0.21657 0,0.20905 -0.15062,0.52832 -0.33471,0.70947 -0.33677,0.33142 -0.46378,1.05834 -0.18492,1.05834 0.0824,0 0.33341,-0.19705 0.55784,-0.43789 z m -52.910759,-4.154 c -0.162106,-0.19221 -0.233149,0.0584 -0.233149,0.82235 0,0.60434 -0.116339,1.40158 -0.258534,1.77164 -0.217101,0.565 -0.190282,0.76252 0.167352,1.23249 0.423474,0.55649 0.426257,0.54803 0.491675,-1.49518 0.03795,-1.18475 -0.03289,-2.1719 -0.167344,-2.3313 z m 20.180269,4.06899 c 0.07404,-0.14207 -0.0076,-0.57972 -0.180971,-0.97256 l -0.315603,-0.71425 -0.09575,0.97256 c -0.09235,0.93794 0.256493,1.35858 0.592327,0.71425 z m 4.337515,-8.34065 c 0.0042,-2.20562 -0.385566,-1.31869 -0.538665,1.22465 -0.111405,1.85064 -0.10072,1.90977 0.208996,1.1566 0.179513,-0.43656 0.327873,-1.50812 0.329669,-2.38125 z m -1.112818,-3.00995 c 0.01501,-1.806052 -0.764612,-6.26804 -1.143693,-6.54585 -0.139993,-0.10259 -0.17797,0.02498 -0.09779,0.3284 0.211012,0.798409 0.579694,6.3548 0.612272,9.2274 l 0.03002,2.64584 0.292604,-1.98438 c 0.160934,-1.0914 0.298904,-2.74354 0.306604,-3.67141 z m 17.750713,0.89329 c 0.0639,-0.72761 0.0504,-1.14433 -0.0299,-0.92604 -0.0803,0.21828 -0.33179,0.68082 -0.55892,1.02786 -0.31669,0.48392 -0.41015,1.06981 -0.40094,2.51355 l 0.0119,1.88254 0.43081,-1.5875 c 0.23693,-0.87312 0.48305,-2.18281 0.54692,-2.91041 z M 31.233108,197.62882 c -5.347134,-0.63851 -8.459583,-2.11863 -9.507354,-4.52118 -0.606672,-1.39112 0.17829,-2.99448 2.143959,-4.37921 2.499241,-1.7606 9.388798,-3.82112 16.609239,-4.96747 2.472009,-0.39246 4.768115,-0.51231 4.535716,-0.23674 -0.06992,0.0829 -3.078133,1.02303 -6.684988,2.08923 -9.52854,2.81667 -11.84567,3.8256 -12.815079,5.57994 -0.354539,0.64161 -0.350735,0.71445 0.07253,1.38956 0.513061,0.81834 2.104735,1.82369 4.521911,2.8562 2.714823,1.15966 4.067866,1.9252 3.916361,2.21587 -0.07759,0.14883 -0.31083,0.25478 -0.51835,0.23544 -0.20752,-0.0193 -1.230801,-0.13707 -2.273951,-0.26164 z M 150.92735,183.91101 c -1.63153,-0.22132 -4.55752,-1.09346 -4.55752,-1.35844 0,-0.25405 2.88805,-3.269 4.64366,-4.84771 0.77453,-0.69648 1.37609,-1.30444 1.3368,-1.35104 -0.0393,-0.0466 -2.22936,0.42399 -4.86681,1.04573 -6.67233,1.57291 -6.56387,1.55718 -6.96278,1.01005 -1.62354,-2.22679 -0.40215,-5.37392 2.78575,-7.17799 3.17031,-1.79412 8.97077,-2.85242 13.21215,-2.41055 4.9162,0.51216 7.1345,1.22346 9.65961,3.09735 1.31976,0.9794 2.50494,2.92261 2.50494,4.10709 0,2.80083 -3.22376,5.76163 -7.69809,7.07017 -3.21278,0.93959 -6.92392,1.24044 -10.05771,0.81534 z M 27.527928,182.18347 c 1.337213,-1.20028 7.138316,-2.77417 13.188348,-3.57811 2.331736,-0.30985 4.841982,-0.73122 5.578326,-0.93639 1.742421,-0.48549 1.896633,-0.47591 1.896633,0.11788 0,0.97633 -2.288237,2.19004 -5.305,2.81385 -1.542592,0.31898 -14.885245,2.0043 -15.601779,1.97067 -0.09862,-0.005 0.01096,-0.17918 0.243472,-0.3879 z m -10.111952,-2.14075 c -0.502292,-0.50116 -0.686519,-0.91137 -0.686519,-1.52863 0,-2.96472 3.820169,-3.41208 4.554261,-0.53331 0.545851,2.14055 -2.279391,3.64673 -3.867742,2.06194 z m 1.669607,-2.72921 c -0.225914,-0.43345 -1.173387,-0.3497 -1.324437,0.11706 -0.184008,0.56858 0.757106,0.98526 1.170258,0.51812 0.167925,-0.18986 0.237307,-0.4757 0.154179,-0.63518 z m 11.370406,-2.15114 c -3.199515,-0.45936 -5.401943,-1.52583 -6.145624,-2.97589 -2.393705,-4.66732 11.585845,-7.57105 15.94366,-3.31169 1.323374,1.29347 1.111426,1.69115 -1.099687,2.06333 -1.043142,0.17558 -1.896634,0.35439 -1.896634,0.39736 0,0.043 0.753075,0.4038 1.673503,0.80186 0.920428,0.39806 1.673494,0.82411 1.673494,0.94679 0,1.32198 -6.353725,2.62308 -10.148712,2.07824 z m 110.822981,-9.51363 c -1.56734,-0.43881 -2.38164,-2.17716 -1.72508,-3.68267 1.17682,-2.69846 5.03088,-1.74387 5.03088,1.24606 0,0.94956 -0.99912,2.43432 -1.63809,2.43432 -0.18349,0 -0.46734,0.0471 -0.63078,0.1047 -0.16344,0.0576 -0.63005,0.0115 -1.03693,-0.10241 z m 0.51024,-3.00674 c 0.25631,-0.22223 0.35931,-0.52637 0.27084,-0.79975 -0.1974,-0.60996 -0.76224,-0.81759 -1.15983,-0.42634 -0.40405,0.39763 -0.43519,1.22659 -0.0529,1.40948 0.43848,0.20979 0.50293,0.19725 0.94192,-0.18339 z m -11.10206,-2.41139 c -0.53117,-1.32078 -0.90438,-4.21543 -0.73672,-5.71407 0.0797,-0.71235 0.44292,-2.44325 0.80718,-3.84643 0.36427,-1.40318 0.6623,-3.07458 0.6623,-3.71422 0,-0.63963 -0.34175,-2.44069 -0.75943,-4.00235 -0.41769,-1.56166 -0.8251,-3.29357 -0.90536,-3.8487 -0.20619,-1.42617 0.24734,-3.70849 1.16645,-5.86985 1.4581,-3.42883 1.57027,-4.74552 0.70997,-8.33437 -0.91583,-3.82052 -0.76447,-5.70074 0.7868,-9.7747 1.15564,-3.03494 1.32489,-5.23786 0.6729,-8.7578 -0.2733,-1.47549 0.26614,-0.63625 0.81715,1.27131 0.76935,2.66343 0.70522,5.02421 -0.23442,8.62863 -0.87073,3.3401 -0.85644,4.56998 0.0911,7.83881 0.71388,2.46267 0.92428,4.8435 0.57696,6.52859 -0.14473,0.70214 -0.7359,2.40113 -1.31372,3.77554 -0.94381,2.24493 -1.04879,2.67522 -1.03282,4.23333 0.0108,1.06211 0.24874,2.64329 0.61362,4.07912 0.89957,3.5399 0.78391,4.86156 -0.82508,9.42827 -0.96166,2.72941 -1.15637,4.35209 -0.82557,6.88016 0.13848,1.05834 0.21655,1.96606 0.17346,2.01714 -0.0431,0.0511 -0.24324,-0.3172 -0.44479,-0.81841 z m -87.286724,-3.4477 c 0.06578,-0.43656 0.178974,-1.8664 0.251484,-3.17741 0.128693,-2.32674 0.110148,-2.44992 -0.776959,-5.15937 -1.635114,-4.99408 -1.702033,-6.17247 -0.590556,-10.39957 0.813484,-3.09382 0.717976,-4.55973 -0.503127,-7.72198 -1.703905,-4.41259 -1.755973,-5.92943 -0.36724,-10.69849 0.926322,-3.18109 0.921912,-3.86041 -0.05052,-7.77928 -0.506416,-2.0409 -0.575991,-2.72006 -0.47695,-4.65585 0.07312,-1.42902 0.282965,-2.71995 0.567981,-3.49401 0.460715,-1.25125 1.096988,-2.07954 0.860828,-1.12061 -0.749905,3.04499 -0.722286,5.38957 0.09237,7.84102 1.782631,5.36428 1.926116,6.96804 0.945407,10.567 -0.855819,3.14064 -0.803844,4.65106 0.249915,7.2623 1.795939,4.45037 1.878855,6.01341 0.571758,10.77746 -0.490899,1.78919 -0.892539,3.73316 -0.892539,4.31996 0,0.58679 0.310922,2.30276 0.690939,3.81328 0.603408,2.39847 0.679697,3.04804 0.602185,5.12763 -0.07127,1.91258 -0.207419,2.66766 -0.691697,3.83646 -0.440265,1.06259 -0.570662,1.24105 -0.4833,0.66146 z M 145.812,155.80529 c -0.5869,-0.39464 -0.77341,-0.74717 -0.77755,-1.46978 -0.008,-1.39936 1.68082,-2.16389 2.63007,-1.19062 0.75476,0.77385 0.81563,1.55661 0.17967,2.3107 -0.6007,0.71229 -1.31114,0.83454 -2.03219,0.3497 z m 1.07642,-1.64235 c 0.14938,-0.46156 -0.0289,-0.68732 -0.54261,-0.68732 -0.45816,0 -0.73385,0.40994 -0.53381,0.79375 0.20475,0.39284 0.93831,0.32031 1.07642,-0.10643 z m -10.42407,-0.10325 c -0.47549,-1.0903 -0.84761,-3.88056 -0.66907,-5.01678 0.0856,-0.54519 0.39137,-1.79269 0.67936,-2.77222 0.71588,-2.43497 0.67649,-3.9672 -0.16658,-6.48037 -0.98533,-2.93728 -0.88385,-4.88798 0.41828,-8.04047 1.00399,-2.43066 1.16254,-3.75385 0.70975,-5.92319 -0.38056,-1.82335 -0.27728,-4.67905 0.22598,-6.24819 0.42743,-1.33267 1.55659,-3.37597 1.25782,-2.27612 -0.96519,3.55316 -0.96774,4.91792 -0.0158,8.45333 0.77873,2.89212 0.67511,4.51888 -0.46153,7.24663 -1.00247,2.40571 -1.07,3.70258 -0.32902,6.3181 0.78962,2.78715 0.69491,4.42456 -0.44979,7.77769 -0.91405,2.67744 -0.9366,2.81643 -0.84774,5.22552 0.0502,1.3612 0.0641,2.47491 0.031,2.47491 -0.0333,0 -0.20537,-0.33247 -0.38258,-0.73884 z m -98.597276,-2.10543 c 0.09438,-0.40018 0.167623,-1.6801 0.162757,-2.84427 -0.0076,-1.86898 -0.108243,-2.37983 -0.858324,-4.36562 -1.186485,-3.14116 -1.293622,-4.96615 -0.458203,-7.80521 0.865349,-2.94077 0.841803,-4.29949 -0.117038,-6.75314 -1.083133,-2.77169 -1.164473,-4.70433 -0.317568,-7.54482 0.723542,-2.4267 0.808939,-4.84269 0.235789,-6.67027 -0.516941,-1.64836 -0.0051,-1.39242 0.660056,0.32994 0.772067,1.99971 0.894502,3.84865 0.421719,6.36851 -0.495192,2.63928 -0.365823,3.67901 0.822811,6.61267 0.857835,2.11724 0.956801,2.55978 0.943147,4.21753 -0.01248,1.51384 -0.153293,2.21448 -0.771131,3.83645 -0.948654,2.49044 -0.980793,4.25097 -0.13006,7.12395 0.776158,2.62111 0.786877,4.91021 0.03197,6.83283 -0.589536,1.50149 -0.901926,1.8316 -0.625951,0.66145 z"
       id="path1" /></g></svg>
