<?xml version="1.0" encoding="UTF-8" standalone="no"?>
<!-- Created with Inkscape (http://www.inkscape.org/) -->

<svg
   width="240mm"
   height="180mm"
   viewBox="0 0 240 180"
   version="1.1"
   id="svg1"
   sodipodi:docname="ore_platinum.svg"
   inkscape:version="1.4.2 (f4327f4, 2025-05-13)"
   xml:space="preserve"
   xmlns:inkscape="http://www.inkscape.org/namespaces/inkscape"
   xmlns:sodipodi="http://sodipodi.sourceforge.net/DTD/sodipodi-0.dtd"
   xmlns="http://www.w3.org/2000/svg"
   xmlns:svg="http://www.w3.org/2000/svg"><sodipodi:namedview
     id="namedview1"
     pagecolor="#505050"
     bordercolor="#ffffff"
     borderopacity="1"
     inkscape:showpageshadow="0"
     inkscape:pageopacity="0"
     inkscape:pagecheckerboard="1"
     inkscape:deskcolor="#505050"
     inkscape:document-units="mm"
     inkscape:zoom="0.70710678"
     inkscape:cx="582.65599"
     inkscape:cy="260.2153"
     inkscape:window-width="2560"
     inkscape:window-height="1351"
     inkscape:window-x="-9"
     inkscape:window-y="-9"
     inkscape:window-maximized="1"
     inkscape:current-layer="layer1"
     showguides="true" /><defs
     id="defs1"><rect
       x="2744"
       y="-392"
       width="880"
       height="4816"
       id="rect6" /><rect
       x="101.82338"
       y="91.923882"
       width="384.66608"
       height="299.81326"
       id="rect3" /><rect
       x="2.8284271"
       y="2.1213202"
       width="662.55902"
       height="647.00269"
       id="rect2" /></defs><g
     inkscape:label="Icon"
     inkscape:groupmode="layer"
     id="layer1"><path
       id="text1"
       style="font-size:185.208px;line-height:0;font-family:'Segoe UI';-inkscape-font-specification:'Segoe UI, Normal';text-align:start;writing-mode:lr-tb;direction:ltr;text-anchor:start;fill:#000000;stroke:#000000;stroke-width:0.264583"
       d="M 47.652905 24.164417 L 47.652905 153.84591 L 62.845776 153.84591 L 62.845776 104.83133 L 79.937756 104.83133 C 94.346842 104.83133 105.77168 100.91252 114.21215 93.074939 C 122.71291 85.237361 126.96331 75.169033 126.96331 62.870064 C 126.96331 50.571096 123.13493 41.045372 115.47822 34.292997 C 107.8818 27.540623 97.150289 24.164417 83.283805 24.164417 L 47.652905 24.164417 z M 169.01501 33.840828 L 154.18387 38.633818 L 154.18387 61.242257 L 138.26753 61.242257 L 138.26753 73.902983 L 154.18387 73.902983 L 154.18387 128.70532 C 154.18387 146.79204 162.29279 155.83545 178.51055 155.83545 C 184.23801 155.83545 188.85015 154.87082 192.34692 152.94157 L 192.34692 140.28084 C 189.63391 142.33067 186.40843 143.35559 182.6705 143.35559 C 177.78709 143.35559 174.29031 142.02922 172.18019 139.37651 C 170.07007 136.72379 169.01501 132.29303 169.01501 126.08326 L 169.01501 73.902983 L 192.34692 73.902983 L 192.34692 61.242257 L 169.01501 61.242257 L 169.01501 33.840828 z M 62.845776 37.910347 L 80.661226 37.910347 C 100.91835 37.910347 111.04697 46.471441 111.04697 63.593534 C 111.04697 72.335448 108.27366 79.118005 102.72706 83.94113 C 97.240759 88.703965 89.252414 91.085396 78.762118 91.085396 L 62.845776 91.085396 L 62.845776 37.910347 z " /></g></svg>
