<?xml version="1.0" encoding="UTF-8" standalone="no"?>
<!-- Created with Inkscape (http://www.inkscape.org/) -->

<svg
   width="240mm"
   height="180mm"
   viewBox="0 0 240 180"
   version="1.1"
   id="svg1"
   sodipodi:docname="ore_bismuth.svg"
   inkscape:version="1.4.2 (f4327f4, 2025-05-13)"
   xmlns:inkscape="http://www.inkscape.org/namespaces/inkscape"
   xmlns:sodipodi="http://sodipodi.sourceforge.net/DTD/sodipodi-0.dtd"
   xmlns="http://www.w3.org/2000/svg"
   xmlns:svg="http://www.w3.org/2000/svg">
  <sodipodi:namedview
     id="namedview1"
     pagecolor="#505050"
     bordercolor="#ffffff"
     borderopacity="1"
     inkscape:showpageshadow="0"
     inkscape:pageopacity="0"
     inkscape:pagecheckerboard="1"
     inkscape:deskcolor="#505050"
     inkscape:document-units="mm"
     inkscape:zoom="1"
     inkscape:cx="82"
     inkscape:cy="463"
     inkscape:window-width="2560"
     inkscape:window-height="1351"
     inkscape:window-x="-9"
     inkscape:window-y="-9"
     inkscape:window-maximized="1"
     inkscape:current-layer="layer1"
     showguides="true" />
  <defs
     id="defs1">
    <rect
       x="2744"
       y="-392"
       width="880"
       height="4816"
       id="rect6" />
    <rect
       x="101.82338"
       y="91.923882"
       width="384.66608"
       height="299.81326"
       id="rect3" />
    <rect
       x="2.8284271"
       y="2.1213202"
       width="662.55902"
       height="647.00269"
       id="rect2" />
  </defs>
  <g
     inkscape:label="Icon"
     inkscape:groupmode="layer"
     id="layer1">
    <path
       id="rect4"
       style="fill:#000000;stroke:#000000;stroke-width:0.264583"
       d="M 171.00455 22.310266 C 168.35183 22.310266 166.09098 23.244752 164.22202 25.113713 C 162.35306 26.922384 161.41857 29.213381 161.41857 31.986678 C 161.41857 34.759975 162.35306 37.050972 164.22202 38.859644 C 166.09098 40.668315 168.35183 41.572656 171.00455 41.572656 C 173.71756 41.572656 176.00855 40.638171 177.87751 38.76921 C 179.80676 36.900249 180.77139 34.639397 180.77139 31.986678 C 180.77139 29.213381 179.80676 26.922384 177.87751 25.113713 C 176.00855 23.244752 173.71756 22.310266 171.00455 22.310266 z M 59.228426 28.007593 L 59.228426 157.6896 L 97.029736 157.6896 C 109.14784 157.6896 119.18602 154.2531 127.14418 147.38015 C 135.10233 140.5072 139.08143 131.52408 139.08143 120.43089 C 139.08143 111.50811 136.45884 104.27338 131.2137 98.72679 C 125.96855 93.119908 118.97498 89.803991 110.23306 88.779077 L 110.23306 88.417342 C 117.2266 86.126358 122.71293 82.267837 126.69201 76.841821 C 130.67109 71.415806 132.66064 65.02513 132.66064 57.669865 C 132.66064 48.867662 129.37486 41.723369 122.80336 36.237065 C 116.23185 30.75076 107.33916 28.007593 96.125399 28.007593 L 59.228426 28.007593 z M 74.421297 41.753524 L 91.875012 41.753524 C 108.4545 41.753524 116.7443 48.053765 116.7443 60.654179 C 116.7443 67.949155 114.36286 73.616358 109.60003 77.655725 C 104.83719 81.634803 98.295794 83.624353 89.975903 83.624353 L 74.421297 83.624353 L 74.421297 41.753524 z M 163.40811 65.085433 L 163.40811 157.6896 L 178.23925 157.6896 L 178.23925 65.085433 L 163.40811 65.085433 z M 74.421297 97.27985 L 91.875012 97.27985 C 112.73503 97.27985 123.16509 104.9366 123.16509 120.25002 C 123.16509 127.60529 120.69323 133.39307 115.74952 137.61331 C 110.86611 141.83354 103.96297 143.94367 95.040194 143.94367 L 74.421297 143.94367 L 74.421297 97.27985 z " />
  </g>
</svg>
