<?xml version="1.0" encoding="UTF-8" standalone="no"?>
<!-- Created with Inkscape (http://www.inkscape.org/) -->

<svg
   width="240mm"
   height="180mm"
   viewBox="0 0 240 180"
   version="1.1"
   id="svg1"
   sodipodi:docname="ore_phosphorus.svg"
   inkscape:version="1.4.2 (f4327f4, 2025-05-13)"
   xml:space="preserve"
   xmlns:inkscape="http://www.inkscape.org/namespaces/inkscape"
   xmlns:sodipodi="http://sodipodi.sourceforge.net/DTD/sodipodi-0.dtd"
   xmlns="http://www.w3.org/2000/svg"
   xmlns:svg="http://www.w3.org/2000/svg"><sodipodi:namedview
     id="namedview1"
     pagecolor="#505050"
     bordercolor="#ffffff"
     borderopacity="1"
     inkscape:showpageshadow="0"
     inkscape:pageopacity="0"
     inkscape:pagecheckerboard="1"
     inkscape:deskcolor="#505050"
     inkscape:document-units="mm"
     inkscape:zoom="0.70710678"
     inkscape:cx="582.65599"
     inkscape:cy="-74.953319"
     inkscape:window-width="2560"
     inkscape:window-height="1351"
     inkscape:window-x="-9"
     inkscape:window-y="-9"
     inkscape:window-maximized="1"
     inkscape:current-layer="layer1"
     showguides="true" /><defs
     id="defs1"><rect
       x="2744"
       y="-392"
       width="880"
       height="4816"
       id="rect6" /><rect
       x="101.82338"
       y="91.923882"
       width="384.66608"
       height="299.81326"
       id="rect3" /><rect
       x="2.8284271"
       y="2.1213202"
       width="662.55902"
       height="647.00269"
       id="rect2" /></defs><g
     inkscape:label="Icon"
     inkscape:groupmode="layer"
     id="layer1"><path
       id="text1"
       style="font-size:185.208px;line-height:0;font-family:'Segoe UI';-inkscape-font-specification:'Segoe UI, Normal';text-align:start;writing-mode:lr-tb;direction:ltr;text-anchor:start;fill:#000000;stroke:#000000;stroke-width:0.264583"
       d="M 80.344967 25.159188 L 80.344967 154.84068 L 95.537838 154.84068 L 95.537838 105.8261 L 112.62982 105.8261 C 127.0389 105.8261 138.46374 101.90729 146.90421 94.06971 C 155.40497 86.232132 159.65537 76.163804 159.65537 63.864836 C 159.65537 51.565867 155.82699 42.040143 148.17028 35.287769 C 140.57386 28.535394 129.84235 25.159188 115.97587 25.159188 L 80.344967 25.159188 z M 95.537838 38.905119 L 113.35329 38.905119 C 133.61041 38.905119 143.73903 47.466213 143.73903 64.588306 C 143.73903 73.330219 140.96572 80.112776 135.41912 84.935901 C 129.93282 89.698737 121.94448 92.080168 111.45418 92.080168 L 95.537838 92.080168 L 95.537838 38.905119 z " /></g></svg>
