<?xml version="1.0" encoding="UTF-8" standalone="no"?>
<!-- Created with Inkscape (http://www.inkscape.org/) -->

<svg
   width="240mm"
   height="180mm"
   viewBox="0 0 240 180"
   version="1.1"
   id="svg1"
   sodipodi:docname="ore_tin.svg"
   inkscape:version="1.4.2 (f4327f4, 2025-05-13)"
   xmlns:inkscape="http://www.inkscape.org/namespaces/inkscape"
   xmlns:sodipodi="http://sodipodi.sourceforge.net/DTD/sodipodi-0.dtd"
   xmlns="http://www.w3.org/2000/svg"
   xmlns:svg="http://www.w3.org/2000/svg">
  <sodipodi:namedview
     id="namedview1"
     pagecolor="#505050"
     bordercolor="#ffffff"
     borderopacity="1"
     inkscape:showpageshadow="0"
     inkscape:pageopacity="0"
     inkscape:pagecheckerboard="1"
     inkscape:deskcolor="#505050"
     inkscape:document-units="mm"
     inkscape:zoom="0.70710678"
     inkscape:cx="16.970563"
     inkscape:cy="421.43564"
     inkscape:window-width="2560"
     inkscape:window-height="1351"
     inkscape:window-x="-9"
     inkscape:window-y="-9"
     inkscape:window-maximized="1"
     inkscape:current-layer="layer1"
     showguides="true" />
  <defs
     id="defs1">
    <rect
       x="2744"
       y="-392"
       width="880"
       height="4816"
       id="rect6" />
    <rect
       x="101.82338"
       y="91.923882"
       width="384.66608"
       height="299.81326"
       id="rect3" />
    <rect
       x="2.8284271"
       y="2.1213202"
       width="662.55902"
       height="647.00269"
       id="rect2" />
  </defs>
  <g
     inkscape:label="Icon"
     inkscape:groupmode="layer"
     id="layer1">
    <path
       id="text1"
       style="font-size:185.208px;line-height:0;font-family:'Segoe UI';-inkscape-font-specification:'Segoe UI, Normal';text-align:start;writing-mode:lr-tb;direction:ltr;text-anchor:start;fill:#000000;stroke:#000000;stroke-width:0.264583"
       d="M 75.551978 22.988778 C 69.945095 22.988778 64.428616 23.682106 59.0026 25.068754 C 53.636874 26.455402 48.843867 28.565531 44.623633 31.399117 C 40.403399 34.232703 36.997048 37.850066 34.404618 42.251168 C 31.812189 46.59198 30.515967 51.716579 30.515967 57.624906 C 30.515967 62.448031 31.329874 66.668289 32.957678 70.285632 C 34.645772 73.842687 36.936769 77.038025 39.830644 79.871611 C 42.724519 82.705196 46.130869 85.29764 50.049658 87.648914 C 53.968447 90.000187 58.188705 92.321329 62.710384 94.612313 C 66.990907 96.782719 70.970007 98.862703 74.64764 100.85224 C 78.385562 102.78149 81.611044 104.83133 84.324052 107.00174 C 87.03706 109.11185 89.147188 111.46314 90.654415 114.05557 C 92.22193 116.648 93.005693 119.69261 93.005693 123.18938 C 93.005693 129.7006 90.684551 134.7041 86.042293 138.20087 C 81.460325 141.63734 74.4969 143.35559 65.152096 143.35559 C 62.439088 143.35559 59.484908 143.08429 56.289587 142.54169 C 53.094267 141.99909 49.898929 141.24547 46.703609 140.28084 C 43.568578 139.25593 40.554108 138.02 37.660234 136.57306 C 34.826648 135.12612 32.384927 133.49831 30.335099 131.68964 L 30.335099 149.59552 C 32.023193 150.74101 34.253901 151.79608 37.027197 152.7607 C 39.860783 153.66504 42.845108 154.41865 45.980139 155.02155 C 49.11517 155.68473 52.189929 156.16704 55.204382 156.46849 C 58.218835 156.83022 60.75099 157.01109 62.800818 157.01109 C 68.950302 157.01109 74.798373 156.37805 80.344967 155.11198 C 85.89156 153.9062 90.775001 151.91665 94.995235 149.14335 C 99.275758 146.37005 102.65196 142.78284 105.12382 138.38173 C 107.65596 133.92034 108.92203 128.49482 108.92203 122.10417 C 108.92203 117.28105 107.98755 113.0005 106.11859 109.26258 C 104.30992 105.52466 101.83805 102.11831 98.703019 99.043567 C 95.567988 95.968825 91.92048 93.165368 87.760535 90.633228 C 83.60059 88.101087 79.199464 85.689511 74.557206 83.398527 C 70.035527 81.167832 66.026282 79.117992 62.529517 77.249032 C 59.09304 75.380071 56.169005 73.45081 53.757442 71.461271 C 51.34588 69.471732 49.507053 67.271169 48.240983 64.859607 C 47.035202 62.448045 46.432308 59.584298 46.432308 56.2684 C 46.432308 52.711346 47.246215 49.696876 48.874019 47.225024 C 50.501824 44.753173 52.611953 42.733478 55.204382 41.165963 C 57.796812 39.598447 60.750992 38.483093 64.06689 37.819914 C 67.382789 37.096445 70.698705 36.734709 74.014604 36.734709 C 86.012127 36.734709 95.839298 39.387442 103.49601 44.692879 L 103.49601 27.600899 C 97.647969 24.526157 88.333258 22.988778 75.551978 22.988778 z M 178.37464 60.066618 C 165.11105 60.066618 154.98295 65.914689 147.98942 77.610767 L 147.62768 77.610767 L 147.62768 62.237028 L 132.79655 62.237028 L 132.79655 154.84068 L 147.62768 154.84068 L 147.62768 102.02788 C 147.62768 93.527123 150.03926 86.503409 154.86238 80.956816 C 159.7458 75.349933 165.8948 72.546476 173.31035 72.546476 C 187.65915 72.546476 194.83359 82.373647 194.83359 102.02788 L 194.83359 154.84068 L 209.66472 154.84068 L 209.66472 98.229663 C 209.66472 85.870406 206.98184 76.435116 201.61612 69.923897 C 196.25039 63.35239 188.5032 60.066618 178.37464 60.066618 z " />
  </g>
</svg>
