<?xml version="1.0" encoding="UTF-8" standalone="no"?>
<!-- Created with Inkscape (http://www.inkscape.org/) -->

<svg
   width="240mm"
   height="180mm"
   viewBox="0 0 240 180"
   version="1.1"
   id="svg1"
   sodipodi:docname="ore_titanium.svg"
   inkscape:version="1.4.2 (f4327f4, 2025-05-13)"
   xmlns:inkscape="http://www.inkscape.org/namespaces/inkscape"
   xmlns:sodipodi="http://sodipodi.sourceforge.net/DTD/sodipodi-0.dtd"
   xmlns="http://www.w3.org/2000/svg"
   xmlns:svg="http://www.w3.org/2000/svg">
  <sodipodi:namedview
     id="namedview1"
     pagecolor="#505050"
     bordercolor="#ffffff"
     borderopacity="1"
     inkscape:showpageshadow="0"
     inkscape:pageopacity="0"
     inkscape:pagecheckerboard="1"
     inkscape:deskcolor="#505050"
     inkscape:document-units="mm"
     inkscape:zoom="0.70710678"
     inkscape:cx="16.970563"
     inkscape:cy="489.31789"
     inkscape:window-width="2560"
     inkscape:window-height="1351"
     inkscape:window-x="-9"
     inkscape:window-y="-9"
     inkscape:window-maximized="1"
     inkscape:current-layer="layer1"
     showguides="true" />
  <defs
     id="defs1">
    <rect
       x="2744"
       y="-392"
       width="880"
       height="4816"
       id="rect6" />
    <rect
       x="101.82338"
       y="91.923882"
       width="384.66608"
       height="299.81326"
       id="rect3" />
    <rect
       x="2.8284271"
       y="2.1213202"
       width="662.55902"
       height="647.00269"
       id="rect2" />
  </defs>
  <g
     inkscape:label="Icon"
     inkscape:groupmode="layer"
     id="layer1">
    <path
       id="text1"
       style="font-size:185.208px;line-height:0;font-family:'Segoe UI';-inkscape-font-specification:'Segoe UI, Normal';text-align:start;writing-mode:lr-tb;direction:ltr;text-anchor:start;fill:#000000;stroke:#000000;stroke-width:0.264583"
       d="M 173.08453 22.310266 C 170.43181 22.310266 168.17095 23.244752 166.30199 25.113713 C 164.43303 26.922384 163.49855 29.213381 163.49855 31.986678 C 163.49855 34.759975 164.43303 37.050972 166.30199 38.859644 C 168.17095 40.668315 170.43181 41.572656 173.08453 41.572656 C 175.79753 41.572656 178.08853 40.638171 179.95749 38.76921 C 181.88674 36.900249 182.85137 34.639397 182.85137 31.986678 C 182.85137 29.213381 181.88674 26.922384 179.95749 25.113713 C 178.08853 23.244752 175.79753 22.310266 173.08453 22.310266 z M 57.14845 28.007593 L 57.14845 41.753524 L 94.497591 41.753524 L 94.497591 157.6896 L 109.69046 157.6896 L 109.69046 41.753524 L 147.13004 41.753524 L 147.13004 28.007593 L 57.14845 28.007593 z M 165.48809 65.085433 L 165.48809 157.6896 L 180.31923 157.6896 L 180.31923 65.085433 L 165.48809 65.085433 z " />
  </g>
</svg>
