<?xml version="1.0" encoding="UTF-8" standalone="no"?>
<!-- Created with Inkscape (http://www.inkscape.org/) -->

<svg
   width="240mm"
   height="180mm"
   viewBox="0 0 240 180"
   version="1.1"
   id="svg1"
   sodipodi:docname="ore_lead.svg"
   inkscape:version="1.4.2 (f4327f4, 2025-05-13)"
   xmlns:inkscape="http://www.inkscape.org/namespaces/inkscape"
   xmlns:sodipodi="http://sodipodi.sourceforge.net/DTD/sodipodi-0.dtd"
   xmlns="http://www.w3.org/2000/svg"
   xmlns:svg="http://www.w3.org/2000/svg">
  <sodipodi:namedview
     id="namedview1"
     pagecolor="#505050"
     bordercolor="#ffffff"
     borderopacity="1"
     inkscape:showpageshadow="0"
     inkscape:pageopacity="0"
     inkscape:pagecheckerboard="1"
     inkscape:deskcolor="#505050"
     inkscape:document-units="mm"
     inkscape:zoom="0.70710678"
     inkscape:cx="16.970563"
     inkscape:cy="220.61732"
     inkscape:window-width="2560"
     inkscape:window-height="1351"
     inkscape:window-x="-9"
     inkscape:window-y="-9"
     inkscape:window-maximized="1"
     inkscape:current-layer="layer1"
     showguides="true" />
  <defs
     id="defs1">
    <rect
       x="2744"
       y="-392"
       width="880"
       height="4816"
       id="rect6" />
    <rect
       x="101.82338"
       y="91.923882"
       width="384.66608"
       height="299.81326"
       id="rect3" />
    <rect
       x="2.8284271"
       y="2.1213202"
       width="662.55902"
       height="647.00269"
       id="rect2" />
  </defs>
  <g
     inkscape:label="Icon"
     inkscape:groupmode="layer"
     id="layer1">
    <path
       id="rect5"
       style="fill:#000000;stroke:#000000;stroke-width:0.264583"
       d="M 128.27486 20.366199 L 128.27486 157.46326 L 143.10599 157.46326 L 143.10599 144.07906 L 143.46773 144.07906 C 149.73779 154.44878 158.9917 159.63367 171.23038 159.63367 C 184.3131 159.63367 194.62259 154.99138 202.15872 145.70687 C 209.69485 136.36206 213.46294 123.94297 213.46294 108.44868 C 213.46294 94.521903 210.08673 83.428656 203.33436 75.169055 C 196.64227 66.849165 187.35771 62.689197 175.48076 62.689197 C 161.43341 62.689197 150.7627 68.838715 143.46773 81.137683 L 143.10599 81.137683 L 143.10599 20.366199 L 128.27486 20.366199 z M 26.536882 27.781767 L 26.536882 157.46326 L 41.729753 157.46326 L 41.729753 108.44868 L 58.821733 108.44868 C 73.230818 108.44868 84.655658 104.52987 93.096126 96.692289 C 101.59688 88.854711 105.84729 78.786383 105.84729 66.487415 C 105.84729 54.188446 102.01891 44.662722 94.362199 37.910347 C 86.765777 31.157973 76.034265 27.781767 62.167782 27.781767 L 26.536882 27.781767 z M 41.729753 41.527698 L 59.545203 41.527698 C 79.802327 41.527698 89.930945 50.088792 89.930945 67.210885 C 89.930945 75.952798 87.157633 82.735355 81.611039 87.55848 C 76.124735 92.321316 68.13639 94.702747 57.646094 94.702747 L 41.729753 94.702747 L 41.729753 41.527698 z M 171.77298 75.169055 C 179.912 75.169055 186.36297 78.093091 191.1258 83.94113 C 195.88864 89.789168 198.27007 97.867943 198.27007 108.17738 C 198.27007 120.41606 195.70777 129.97141 190.5832 136.84436 C 185.51892 143.71731 178.4952 147.15381 169.51213 147.15381 C 161.85542 147.15381 155.52555 144.50108 150.52156 139.19564 C 145.57786 133.82991 143.10599 127.31917 143.10599 119.66246 L 143.10599 106.73044 C 143.10599 97.687073 145.72858 90.181048 150.97373 84.212431 C 156.21888 78.183525 163.15164 75.169055 171.77298 75.169055 z " />
  </g>
</svg>
