<?xml version="1.0" encoding="UTF-8" standalone="no"?>
<!-- Created with Inkscape (http://www.inkscape.org/) -->

<svg
   width="240mm"
   height="180mm"
   viewBox="0 0 240 180"
   version="1.1"
   id="svg1"
   sodipodi:docname="ore_magnesium.svg"
   inkscape:version="1.4.2 (f4327f4, 2025-05-13)"
   xmlns:inkscape="http://www.inkscape.org/namespaces/inkscape"
   xmlns:sodipodi="http://sodipodi.sourceforge.net/DTD/sodipodi-0.dtd"
   xmlns="http://www.w3.org/2000/svg"
   xmlns:svg="http://www.w3.org/2000/svg">
  <sodipodi:namedview
     id="namedview1"
     pagecolor="#505050"
     bordercolor="#ffffff"
     borderopacity="1"
     inkscape:showpageshadow="0"
     inkscape:pageopacity="0"
     inkscape:pagecheckerboard="1"
     inkscape:deskcolor="#505050"
     inkscape:document-units="mm"
     inkscape:zoom="1"
     inkscape:cx="416"
     inkscape:cy="294"
     inkscape:window-width="2560"
     inkscape:window-height="1351"
     inkscape:window-x="-9"
     inkscape:window-y="-9"
     inkscape:window-maximized="1"
     inkscape:current-layer="layer1"
     showguides="true" />
  <defs
     id="defs1">
    <rect
       x="101.82338"
       y="91.923882"
       width="384.66608"
       height="299.81326"
       id="rect3" />
    <rect
       x="2.8284271"
       y="2.1213202"
       width="662.55902"
       height="647.00269"
       id="rect2" />
  </defs>
  <g
     inkscape:label="Icon"
     inkscape:groupmode="layer"
     id="layer1">
    <path
       id="text1"
       style="font-size:179.917px;line-height:0;font-family:'Segoe UI';-inkscape-font-specification:'Segoe UI, Normal';text-align:start;writing-mode:lr-tb;direction:ltr;text-anchor:start;fill:#000000;stroke:#000000;stroke-width:0.264583"
       d="M 1.7978231 5.8394368 L 1.7978231 131.81676 L 16.029513 131.81676 L 16.029513 47.480306 C 16.029513 36.059793 15.795247 27.831213 15.326713 22.794474 L 15.678113 22.794474 C 16.966581 28.592581 18.225759 32.897211 19.45566 35.708415 L 62.414278 131.81676 L 69.617973 131.81676 L 112.66496 35.005615 C 113.77773 32.545812 115.0369 28.475448 116.4425 22.794474 L 116.7939 22.794474 C 115.97397 32.457985 115.56401 40.627998 115.56401 47.304606 L 115.56401 131.81676 L 130.23494 131.81676 L 130.23494 5.8394368 L 111.78646 5.8394368 L 72.341321 93.338489 C 70.818586 96.735359 68.798045 101.8892 66.279675 108.80008 L 65.752576 108.80008 C 64.874075 105.46177 62.941383 100.42506 59.95448 93.689889 L 21.300509 5.8394368 L 1.7978231 5.8394368 z M 196.4738 39.749512 C 183.70625 39.749512 173.63283 44.259125 166.25342 53.278402 C 158.93258 62.297679 155.27218 74.450724 155.27218 89.736641 C 155.27218 103.20699 158.66903 113.95392 165.46277 121.97757 C 172.31508 129.94264 181.3343 133.92516 192.52055 133.92516 C 206.28373 133.92516 216.59142 128.18565 223.44373 116.70657 L 223.79513 116.70657 L 223.79513 126.54576 C 223.79513 150.08959 212.72608 161.86144 190.58785 161.86144 C 181.39287 161.86144 171.72942 159.05025 161.59737 153.42784 L 161.59737 167.83523 C 169.91385 172.05204 179.63587 174.16043 190.76355 174.16043 C 222.38959 174.16043 238.20251 157.6447 238.20251 124.61307 L 238.20251 41.85791 L 223.79513 41.85791 L 223.79513 54.333118 L 223.44373 54.333118 C 217.58705 44.61104 208.59711 39.749512 196.4738 39.749512 z M 198.49434 51.872803 C 205.69805 51.872803 211.70111 54.420958 216.50358 59.516264 C 221.36462 64.61157 223.79513 70.731759 223.79513 77.8769 L 223.79513 91.14224 C 223.79513 100.10295 221.24749 107.45303 216.15218 113.19257 C 211.11544 118.93211 204.556 121.80187 196.4738 121.80187 C 188.50872 121.80187 182.0957 118.81498 177.23466 112.84117 C 172.43219 106.8088 170.03097 98.785204 170.03097 88.770292 C 170.03097 77.115512 172.54932 68.067003 177.58606 61.624662 C 182.6228 55.123755 189.5922 51.872803 198.49434 51.872803 z " />
  </g>
</svg>
