<?xml version="1.0" encoding="UTF-8" standalone="no"?>
<!-- Created with Inkscape (http://www.inkscape.org/) -->

<svg
   width="240mm"
   height="180mm"
   viewBox="0 0 240 180"
   version="1.1"
   id="svg1"
   sodipodi:docname="ore_rhodium.svg"
   inkscape:version="1.4.2 (f4327f4, 2025-05-13)"
   xml:space="preserve"
   xmlns:inkscape="http://www.inkscape.org/namespaces/inkscape"
   xmlns:sodipodi="http://sodipodi.sourceforge.net/DTD/sodipodi-0.dtd"
   xmlns="http://www.w3.org/2000/svg"
   xmlns:svg="http://www.w3.org/2000/svg"><sodipodi:namedview
     id="namedview1"
     pagecolor="#505050"
     bordercolor="#ffffff"
     borderopacity="1"
     inkscape:showpageshadow="0"
     inkscape:pageopacity="0"
     inkscape:pagecheckerboard="1"
     inkscape:deskcolor="#505050"
     inkscape:document-units="mm"
     inkscape:zoom="0.70710678"
     inkscape:cx="582.65599"
     inkscape:cy="-36.769553"
     inkscape:window-width="2560"
     inkscape:window-height="1351"
     inkscape:window-x="-9"
     inkscape:window-y="-9"
     inkscape:window-maximized="1"
     inkscape:current-layer="layer1"
     showguides="true" /><defs
     id="defs1"><rect
       x="2744"
       y="-392"
       width="880"
       height="4816"
       id="rect6" /><rect
       x="101.82338"
       y="91.923882"
       width="384.66608"
       height="299.81326"
       id="rect3" /><rect
       x="2.8284271"
       y="2.1213202"
       width="662.55902"
       height="647.00269"
       id="rect2" /></defs><g
     inkscape:label="Icon"
     inkscape:groupmode="layer"
     id="layer1"><path
       id="text2"
       style="font-size:185.208px;line-height:0;font-family:'Segoe UI';-inkscape-font-specification:'Segoe UI, Normal';text-align:start;writing-mode:lr-tb;direction:ltr;text-anchor:start;fill:#000000;stroke:#000000;stroke-width:0.264583"
       d="M 135.96173 21.451404 L 135.96173 158.54846 L 150.79286 158.54846 L 150.79286 106.0974 C 150.79286 97.355486 153.26473 90.211193 158.20843 84.6646 C 163.15213 79.057717 169.24085 76.25426 176.47553 76.25426 C 190.82433 76.25426 197.99877 85.900563 197.99877 105.19306 L 197.99877 158.54846 L 212.8299 158.54846 L 212.8299 101.48528 C 212.8299 76.34474 202.39984 63.774402 181.53982 63.774402 C 168.39681 63.774402 158.26871 69.622473 151.1546 81.318551 L 150.79286 81.318551 L 150.79286 21.451404 L 135.96173 21.451404 z M 27.169918 28.866972 L 27.169918 158.54846 L 42.362789 158.54846 L 42.362789 103.38439 L 54.842647 103.38439 C 57.676233 103.38439 60.208388 103.74612 62.439083 104.46959 C 64.730067 105.13277 66.840196 106.21798 68.769446 107.72521 C 70.758985 109.23243 72.688245 111.19184 74.557206 113.6034 C 76.426167 115.95468 78.355428 118.81842 80.344967 122.19461 L 102.04907 158.54846 L 120.13582 158.54846 L 95.809139 119.57203 C 94.060756 116.73844 92.463087 114.26658 91.01615 112.15646 C 89.629502 109.98606 88.212701 108.05679 86.765763 106.3687 C 85.318826 104.68061 83.781446 103.23366 82.153642 102.02788 C 80.586126 100.76181 78.717155 99.646457 76.546749 98.681832 L 76.546749 98.320097 C 80.94785 97.174605 84.896805 95.576936 88.393571 93.527108 C 91.950626 91.416991 94.965095 88.884836 97.436947 85.930672 C 99.969087 82.976508 101.89835 79.630447 103.22471 75.892525 C 104.61136 72.094314 105.30468 67.934346 105.30468 63.412667 C 105.30468 57.624917 104.30991 52.590753 102.32037 48.310229 C 100.33083 43.969417 97.557518 40.352054 94.000464 37.458179 C 90.503698 34.564304 86.34373 32.42403 81.520605 31.037382 C 76.75777 29.590445 71.542737 28.866972 65.875566 28.866972 L 27.169918 28.866972 z M 42.362789 42.612903 L 63.162553 42.612903 C 71.66331 42.612903 78.14442 44.572308 82.605811 48.491097 C 87.12749 52.349597 89.388342 57.745498 89.388342 64.678739 C 89.388342 68.537239 88.725159 72.034024 87.3988 75.169055 C 86.07244 78.243797 84.233614 80.866386 81.88234 83.036792 C 79.531067 85.146909 76.72761 86.774723 73.472001 87.920215 C 70.276681 89.065707 66.779896 89.638456 62.981685 89.638456 L 42.362789 89.638456 L 42.362789 42.612903 z " /></g></svg>
