<?xml version="1.0" encoding="UTF-8" standalone="no"?>
<!-- Created with Inkscape (http://www.inkscape.org/) -->

<svg
   width="240mm"
   height="180mm"
   viewBox="0 0 240 180"
   version="1.1"
   id="svg1"
   sodipodi:docname="ore_nickel.svg"
   inkscape:version="1.4.2 (f4327f4, 2025-05-13)"
   xmlns:inkscape="http://www.inkscape.org/namespaces/inkscape"
   xmlns:sodipodi="http://sodipodi.sourceforge.net/DTD/sodipodi-0.dtd"
   xmlns="http://www.w3.org/2000/svg"
   xmlns:svg="http://www.w3.org/2000/svg">
  <sodipodi:namedview
     id="namedview1"
     pagecolor="#505050"
     bordercolor="#ffffff"
     borderopacity="1"
     inkscape:showpageshadow="0"
     inkscape:pageopacity="0"
     inkscape:pagecheckerboard="1"
     inkscape:deskcolor="#505050"
     inkscape:document-units="mm"
     inkscape:zoom="0.70710678"
     inkscape:cx="16.970563"
     inkscape:cy="473.76154"
     inkscape:window-width="2560"
     inkscape:window-height="1351"
     inkscape:window-x="-9"
     inkscape:window-y="-9"
     inkscape:window-maximized="1"
     inkscape:current-layer="layer1"
     showguides="true" />
  <defs
     id="defs1">
    <rect
       x="2744"
       y="-392"
       width="880"
       height="4816"
       id="rect6" />
    <rect
       x="101.82338"
       y="91.923882"
       width="384.66608"
       height="299.81326"
       id="rect3" />
    <rect
       x="2.8284271"
       y="2.1213202"
       width="662.55902"
       height="647.00269"
       id="rect2" />
  </defs>
  <g
     inkscape:label="Icon"
     inkscape:groupmode="layer"
     id="layer1">
    <path
       id="rect5"
       style="fill:#000000;stroke:#000000;stroke-width:0.264583"
       d="m 187.19203,22.310331 c -2.65272,0 -4.91358,0.934486 -6.78254,2.803447 -1.86896,1.808671 -2.80344,4.099668 -2.80344,6.872965 0,2.773297 0.93448,5.064294 2.80344,6.872966 1.86896,1.808671 4.12982,2.713012 6.78254,2.713012 2.713,0 5.004,-0.934485 6.87296,-2.803446 1.92925,-1.868961 2.89388,-4.129813 2.89388,-6.782532 0,-2.773297 -0.96463,-5.064294 -2.89388,-6.872965 -1.86896,-1.868961 -4.15996,-2.803447 -6.87296,-2.803447 z M 43.041131,28.007659 V 157.68967 H 58.234003 V 64.000293 c 0,-9.103648 -0.241158,-15.042153 -0.723471,-17.81545 h 0.542603 c 1.085203,2.833586 2.471859,5.546608 4.159953,8.139038 L 128.9532,157.68967 h 18.62936 V 28.007659 h -15.19287 v 91.338101 c 0,8.98307 0.30144,15.3436 0.90433,19.08152 h -0.36173 c -0.78376,-1.56752 -2.53215,-4.46141 -5.24516,-8.68164 L 62.75569,28.007659 Z M 179.59559,65.085498 v 92.604172 h 14.83114 V 65.085498 Z" />
  </g>
</svg>
