<?xml version="1.0" encoding="UTF-8" standalone="no"?>
<!-- Created with Inkscape (http://www.inkscape.org/) -->

<svg
   width="180"
   height="180"
   viewBox="0 0 180 180"
   version="1.1"
   id="svg1"
   xml:space="preserve"
   inkscape:version="1.4.2 (f4327f4, 2025-05-13)"
   sodipodi:docname="food_fruit_tree_orange.svg"
   xmlns:inkscape="http://www.inkscape.org/namespaces/inkscape"
   xmlns:sodipodi="http://sodipodi.sourceforge.net/DTD/sodipodi-0.dtd"
   xmlns="http://www.w3.org/2000/svg"
   xmlns:svg="http://www.w3.org/2000/svg"><sodipodi:namedview
     id="namedview1"
     pagecolor="#505050"
     bordercolor="#ffffff"
     borderopacity="1"
     inkscape:showpageshadow="0"
     inkscape:pageopacity="0"
     inkscape:pagecheckerboard="1"
     inkscape:deskcolor="#505050"
     inkscape:document-units="px"
     inkscape:zoom="3.1"
     inkscape:cx="-88.709677"
     inkscape:cy="103.87097"
     inkscape:window-width="2560"
     inkscape:window-height="1351"
     inkscape:window-x="-9"
     inkscape:window-y="-9"
     inkscape:window-maximized="1"
     inkscape:current-layer="layer1" /><defs
     id="defs1" /><g
     inkscape:label="Warstwa 1"
     inkscape:groupmode="layer"
     id="layer1"><path
       style="fill:#000000;stroke-width:1.13864"
       d="M 77.083435,175.66555 C 57.837185,171.97699 42.353354,162.61917 30.890659,147.74842 10.459526,121.24279 12.175693,82.583517 34.878654,57.912686 46.653126,45.117611 63.622353,37.039717 83.318465,34.853787 l 10.655367,-1.18256 -1.059572,-4.642032 c -0.582765,-2.553131 -2.586577,-7.293329 -4.452903,-10.533794 -1.866337,-3.240465 -3.393329,-6.139654 -3.393329,-6.442642 0,-1.258034 7.251199,-4.1037127 8.169829,-3.2061905 2.146148,2.0968265 5.653694,14.5128235 5.653694,20.0129375 v 5.808182 l 8.718379,2.008127 c 14.03424,3.232541 23.90491,8.699273 34.54214,19.130659 14.16874,13.894607 21.20924,30.177923 21.20924,49.052926 0,26.88575 -16.37012,52.87073 -40.4002,64.12893 -15.11894,7.0833 -31.396936,9.45246 -45.877675,6.67722 z m 26.029105,-19.6722 c 0.90789,-2.31157 -0.91434,-4.03913 -2.95853,-2.80478 -1.740926,1.05123 -0.939104,4.56866 1.04146,4.56866 0.67335,0 1.53603,-0.79375 1.91707,-1.76388 z m 21.56009,-4.48074 c 0.81491,-2.07483 -2.35313,-5.08533 -4.50316,-4.27926 -2.06285,0.77341 -2.25886,5.64205 -0.25464,6.32509 2.00405,0.683 4.0278,-0.18721 4.7578,-2.04583 z m 14.15066,-11.27606 c 0.96012,-2.44451 -1.47731,-4.74338 -3.22198,-3.03882 -1.47455,1.44068 -0.56107,4.80271 1.30493,4.80271 0.67334,0 1.53603,-0.79375 1.91705,-1.76389 z m -14.01263,-7.80275 c 0,-1.22108 -0.84194,-2.37855 -1.87099,-2.57219 -1.9965,-0.37564 -3.77705,2.61603 -2.63319,4.42431 1.17382,1.85562 4.50418,0.48619 4.50418,-1.85212 z m 17.46852,-7.95405 c 0.96011,-2.44451 -1.47733,-4.74338 -3.22198,-3.03882 -1.47455,1.44068 -0.56108,4.8027 1.30492,4.8027 0.67335,0 1.53602,-0.79374 1.91706,-1.76388 z M 37.906822,93.455992 c 1.108923,-4.051322 -0.491023,-6.445816 -3.204258,-4.795516 -2.27936,1.386408 -3.167764,4.188969 -2.149639,6.781211 1.025004,2.609709 4.443042,1.341995 5.353897,-1.985695 z m 7.247835,-17.577861 c 3.443739,-5.308355 12.976935,-14.055339 18.133029,-16.637563 9.117638,-4.566221 6.356943,-9.182187 -3.058074,-5.113196 -12.588138,5.440364 -28.052893,25.97133 -19.562658,25.97133 0.962301,0 2.981767,-1.899257 4.487703,-4.220571 z M 104.23508,53.023136 c -0.63146,-3.084788 -0.33723,-3.565358 2.84693,-4.649854 4.26068,-1.451147 2.5183,-3.120624 -3.28486,-3.147411 -2.47325,-0.01137 -4.219941,-0.777293 -5.172934,-2.268203 -1.792209,-2.803821 -3.429939,-2.848504 -5.918864,-0.161483 -1.223036,1.320374 -2.947072,1.900551 -4.683755,1.576196 -1.51158,-0.282316 -3.701663,0.01755 -4.866872,0.666424 -1.897762,1.056786 -1.721028,1.317032 1.695882,2.497148 2.507875,0.866163 3.592965,1.849736 3.167891,2.87151 -0.355611,0.85475 -0.961196,2.313795 -1.345777,3.242321 -0.904993,2.18504 0.811268,2.136319 5.746668,-0.163116 3.801608,-1.7712 4.11501,-1.748386 7.238838,0.527087 4.456683,3.24634 5.402283,3.041671 4.576853,-0.990619 z M 103.7874,29.318152 c -2.05914,-0.580886 -3.74389,-1.275917 -3.74389,-1.544505 0,-0.268585 1.0559,-3.245653 2.34648,-6.615706 2.75107,-7.183929 9.97485,-14.3027429 16.75779,-16.5142855 4.94059,-1.6108527 15.87043,-1.9288306 22.65428,-0.659072 5.33346,0.9982845 5.47639,2.6388277 0.90787,10.4211055 -4.07053,6.933996 -11.61653,13.515893 -17.24802,15.044349 -5.03562,1.366733 -16.61193,1.296289 -21.67451,-0.131886 z"
       id="path1" /></g></svg>
