<?xml version="1.0" encoding="UTF-8" standalone="no"?>
<!-- Created with Inkscape (http://www.inkscape.org/) -->

<svg
   width="180"
   height="180"
   viewBox="0 0 180 180"
   version="1.1"
   id="svg1"
   xml:space="preserve"
   inkscape:version="1.4.2 (f4327f4, 2025-05-13)"
   sodipodi:docname="food_fruit_tree_apple.svg"
   xmlns:inkscape="http://www.inkscape.org/namespaces/inkscape"
   xmlns:sodipodi="http://sodipodi.sourceforge.net/DTD/sodipodi-0.dtd"
   xmlns="http://www.w3.org/2000/svg"
   xmlns:svg="http://www.w3.org/2000/svg"><sodipodi:namedview
     id="namedview1"
     pagecolor="#505050"
     bordercolor="#ffffff"
     borderopacity="1"
     inkscape:showpageshadow="0"
     inkscape:pageopacity="0"
     inkscape:pagecheckerboard="1"
     inkscape:deskcolor="#505050"
     inkscape:document-units="px"
     inkscape:zoom="3.1"
     inkscape:cx="111.93548"
     inkscape:cy="103.87097"
     inkscape:window-width="2560"
     inkscape:window-height="1351"
     inkscape:window-x="-9"
     inkscape:window-y="-9"
     inkscape:window-maximized="1"
     inkscape:current-layer="layer1" /><defs
     id="defs1" /><g
     inkscape:label="Warstwa 1"
     inkscape:groupmode="layer"
     id="layer1"><path
       style="fill:#000000;stroke-width:1.17193"
       d="M 56.919498,173.65426 C 40.139125,168.51197 21.036665,146.42699 13.296514,123.22031 9.5345184,111.94099 8.5873461,93.585491 11.263589,83.823864 13.926824,74.109627 17.338129,68.597268 24.481256,62.465265 38.877064,50.107203 58.11453,48.205441 83.626597,56.618326 c 1.85619,0.612101 2.032204,0.148627 1.338545,-3.524649 C 83.626458,46.004654 76.839321,35.641851 69.604541,29.640629 L 62.8417,24.030887 65.569549,20.4101 c 1.500302,-1.991433 3.101789,-3.626839 3.558839,-3.634235 0.45705,-0.0074 3.431911,2.472484 6.61078,5.510847 7.23669,6.916805 12.899161,16.712904 15.237532,26.360983 0.991949,4.092822 2.089734,7.687421 2.439514,7.987999 0.34977,0.300579 4.300853,-0.501549 8.780176,-1.782502 23.60233,-6.749591 41.25767,-3.894926 54.56292,8.82219 9.91259,9.474417 13.51163,19.003221 13.50306,35.750697 -0.007,14.361731 -3.64201,26.840601 -12.21211,41.927981 -5.78875,10.19087 -8.48534,13.53926 -16.72205,20.76394 -14.81644,12.99597 -25.32305,15.61531 -42.159691,10.51053 -7.010535,-2.12554 -11.583416,-1.99861 -21.186137,0.58814 -9.27466,2.49837 -14.016609,2.59688 -21.062884,0.43759 z M 31.710006,95.525719 c 2.645548,-13.438015 7.600897,-20.280884 17.616346,-24.326518 3.771226,-1.523347 5.696832,-2.988757 5.696832,-4.335366 0,-3.332436 -2.771035,-4.540277 -7.721478,-3.365654 -13.61,3.229328 -23.883764,17.246788 -23.883764,32.586856 0,6.785833 0.609147,7.830423 4.293597,7.362843 2.044063,-0.25939 2.77503,-1.70765 3.998467,-7.922161 z M 98.163203,45.162153 c -1.404167,-0.802476 -1.007348,-1.907715 2.058747,-5.734188 3.77999,-4.717417 16.69756,-16.034951 23.45117,-20.546407 5.95004,-3.97466 2.74292,-3.674557 -5.23443,0.489806 -7.83079,4.087861 -17.47785,11.497231 -23.478395,18.032471 l -3.491262,3.802366 0.572257,-7.09349 c 0.940075,-11.652857 7.050768,-19.349779 18.95264,-23.87243 6.98596,-2.6546263 20.95407,-5.3819809 27.70366,-5.4092949 l 4.66132,-0.01886 -0.66502,4.0739641 c -2.08767,12.7892438 -8.10393,24.4513518 -15.21112,29.4856848 -7.12458,5.046653 -25.0902,9.207467 -29.319567,6.790384 z"
       id="path1" /></g></svg>
