<?xml version="1.0" encoding="UTF-8" standalone="no"?>
<!-- Created with Inkscape (http://www.inkscape.org/) -->

<svg
   width="180"
   height="180"
   viewBox="0 0 180 180"
   version="1.1"
   id="svg1"
   xml:space="preserve"
   inkscape:version="1.4.2 (f4327f4, 2025-05-13)"
   sodipodi:docname="food_fruit_tree_olive.svg"
   xmlns:inkscape="http://www.inkscape.org/namespaces/inkscape"
   xmlns:sodipodi="http://sodipodi.sourceforge.net/DTD/sodipodi-0.dtd"
   xmlns="http://www.w3.org/2000/svg"
   xmlns:svg="http://www.w3.org/2000/svg"><sodipodi:namedview
     id="namedview1"
     pagecolor="#505050"
     bordercolor="#ffffff"
     borderopacity="1"
     inkscape:showpageshadow="0"
     inkscape:pageopacity="0"
     inkscape:pagecheckerboard="1"
     inkscape:deskcolor="#505050"
     inkscape:document-units="px"
     inkscape:zoom="3.1"
     inkscape:cx="-88.709677"
     inkscape:cy="103.87097"
     inkscape:window-width="2560"
     inkscape:window-height="1351"
     inkscape:window-x="-9"
     inkscape:window-y="-9"
     inkscape:window-maximized="1"
     inkscape:current-layer="layer1" /><defs
     id="defs1" /><g
     inkscape:label="Warstwa 1"
     inkscape:groupmode="layer"
     id="layer1"><path
       style="fill:#000000;stroke-width:1.31198"
       d="m 70.690921,170.49994 c -7.38258,-1.90657 -20.095426,-14.05342 -23.872669,-22.80982 -4.286453,-9.93681 -4.647847,-30.05869 -0.725281,-40.3816 6.973072,-18.350833 18.172073,-31.457731 32.962057,-38.577585 7.367564,-3.546723 10.334092,-4.248286 18.993263,-4.491779 l 10.261969,-0.288561 4.57206,-7.674965 c 2.51463,-4.221231 5.63005,-8.72351 6.92317,-10.005065 3.03457,-3.00746 1.41169,-3.057462 -11.49943,-0.354305 -6.69678,1.402084 -13.8619,1.827155 -24.675761,1.46389 C 66.758145,46.813374 57.483508,44.459868 44.42599,37.431774 34.505742,32.092287 17.582028,18.0406 18.109995,15.581719 18.707964,12.796827 35.227602,9.2607115 51.767452,8.3771607 76.553546,7.0530988 93.020598,12.596363 112.08497,28.681702 c 10.76571,9.083433 14.73381,10.662767 17.97896,7.155752 3.30622,-3.573043 22.37518,-14.262187 25.4431,-14.262187 3.92944,0 6.39504,2.227273 6.39504,5.776901 0,2.24415 -2.25208,3.838935 -11.42906,8.093369 -12.7945,5.931506 -24.5663,15.538993 -30.84604,25.174801 -3.8641,5.929194 -3.90401,6.159891 -1.28998,7.455066 5.83303,2.890081 14.50352,12.43876 17.40735,19.170429 4.1323,9.579592 5.07386,26.710497 2.06183,37.513857 -7.59996,27.2591 -30.94216,47.38196 -54.574171,47.04733 -4.352563,-0.0616 -9.996054,-0.64982 -12.541078,-1.30708 z m 5.461471,-68.50516 c 5.992544,-3.601113 13.711942,-13.839198 13.711942,-18.185885 0,-6.779571 -5.115566,-8.079595 -12.51811,-3.181243 -9.763565,6.460656 -15.459936,18.485542 -10.755622,22.704838 2.373103,2.12843 4.224972,1.86934 9.56179,-1.33771 z M 109.25911,36.466243 C 99.215802,31.494987 52.399694,19.97278 50.213003,21.93403 c -1.468545,1.317126 54.555687,16.800902 61.124117,16.893268 2.02094,0.02842 1.45863,-0.610484 -2.07801,-2.361055 z"
       id="path1" /></g></svg>
