<?xml version="1.0" encoding="UTF-8" standalone="no"?>
<!-- Created with Inkscape (http://www.inkscape.org/) -->

<svg
   width="180"
   height="180"
   viewBox="0 0 180 180"
   version="1.1"
   id="svg1"
   xml:space="preserve"
   inkscape:version="1.4.2 (f4327f4, 2025-05-13)"
   sodipodi:docname="food_fruit_tree_pomegranate.svg"
   xmlns:inkscape="http://www.inkscape.org/namespaces/inkscape"
   xmlns:sodipodi="http://sodipodi.sourceforge.net/DTD/sodipodi-0.dtd"
   xmlns="http://www.w3.org/2000/svg"
   xmlns:svg="http://www.w3.org/2000/svg"><sodipodi:namedview
     id="namedview1"
     pagecolor="#505050"
     bordercolor="#ffffff"
     borderopacity="1"
     inkscape:showpageshadow="0"
     inkscape:pageopacity="0"
     inkscape:pagecheckerboard="1"
     inkscape:deskcolor="#505050"
     inkscape:document-units="px"
     inkscape:zoom="2.192031"
     inkscape:cx="-75.272657"
     inkscape:cy="174.26761"
     inkscape:window-width="2560"
     inkscape:window-height="1351"
     inkscape:window-x="-9"
     inkscape:window-y="-9"
     inkscape:window-maximized="1"
     inkscape:current-layer="layer1" /><defs
     id="defs1" /><g
     inkscape:label="Warstwa 1"
     inkscape:groupmode="layer"
     id="layer1"><path
       style="fill:#000000;stroke-width:1.11375"
       d="m 86.055941,172.12981 c -1.51651,-2.46125 -2.888051,-4.62654 -3.047888,-4.81172 -0.159826,-0.18517 -2.441336,0.64403 -5.070016,1.84266 -4.470026,2.03828 -8.40741,2.82427 -8.40741,1.67834 0,-0.27557 1.058262,-2.05242 2.351687,-3.94855 1.293423,-1.89615 2.353665,-3.98221 2.356092,-4.63571 0.0024,-0.6535 -3.563142,-1.98915 -7.923468,-2.96811 -24.902425,-5.59103 -44.150863,-22.49925 -50.359944,-44.23723 -2.293421,-8.02927 -2.300937,-23.601549 -0.01531,-31.672419 2.60797,-9.208971 9.558455,-20.855222 15.846477,-26.55239 7.400309,-6.704928 13.279396,-10.199929 24.346457,-14.47349 12.491896,-4.823764 14.576273,-6.581273 14.575106,-12.28946 -8.25e-4,-4.011155 -1.518596,-7.619645 -7.982889,-18.979264 -1.267141,-2.2267233 10.697272,2.483542 14.803011,5.82779 l 2.696029,2.196003 0.748271,-2.557531 c 1.381413,-4.721573 6.924413,-13.1535683 8.646847,-13.1535683 1.651785,0 7.149201,8.4558323 8.500798,13.0754583 0.655113,2.23917 0.740897,2.225312 5.770189,-0.932267 4.5249,-2.840913 12.76248,-5.8838667 12.76248,-4.714456 0,0.240669 -1.7229,3.375343 -3.82865,6.965941 -2.76903,4.721554 -3.82866,7.923297 -3.82866,11.568552 0,6.371045 1.98433,8.224157 13.23773,12.362359 26.57977,9.774142 40.46937,26.700964 43.28849,52.754277 1.81283,16.753685 -6.44282,36.982855 -19.93896,48.857175 -8.63253,7.59518 -16.46738,11.61357 -30.10782,15.44193 -10.93244,3.06834 -11.49874,3.8461 -6.95406,9.55074 1.23293,1.54762 2.24168,3.063 2.24168,3.36751 0,0.79617 -5.99526,-0.85519 -10.25821,-2.82555 -4.051216,-1.87249 -4.511033,-1.6208 -7.884511,4.31594 -1.069501,1.88214 -2.363444,3.42207 -2.875423,3.42207 -0.511978,0 -2.171644,-2.01376 -3.688144,-4.47503 z m 21.761179,-21.32964 c 28.68348,-5.39257 46.53282,-25.5195 46.53282,-52.470445 0,-20.827144 -11.58796,-37.423394 -32.05118,-45.903586 -23.237312,-9.629814 -42.589389,-9.65395 -65.476436,-0.08167 -35.399206,14.805385 -43.059805,60.244008 -14.291609,84.770278 15.17433,12.93684 40.750726,18.29819 65.286405,13.68542 z M 58.339188,139.90488 C 50.606905,136.61867 41.786449,128.97017 37.92294,122.20126 31.261913,110.53109 30.169017,93.618633 35.314757,81.839664 42.281641,65.891946 59.589601,54.16821 71.1376,57.574673 83.337647,61.173481 89.506991,78.78022 83.491264,92.830933 l -2.53201,5.913927 2.53201,8.25797 c 3.182998,10.38111 3.301463,21.12979 0.298046,27.04043 -4.732224,9.31286 -12.902069,11.19453 -25.450122,5.86162 z m 15.684354,-6.21485 c 0.255766,-2.37211 -0.202824,-3.6257 -1.487566,-4.06634 -2.503502,-0.85867 -5.361442,1.42827 -5.361442,4.29025 0,2.97594 1.069018,3.89761 4.074686,3.51306 1.762462,-0.2255 2.503301,-1.2234 2.774322,-3.73697 z m -12.537487,-4.1045 c 2.59195,-2.0966 2.740218,-3.88261 0.462573,-5.57215 -2.15261,-1.59681 -6.078519,0.10361 -7.139833,3.09244 -1.486965,4.18746 2.661442,5.72804 6.67726,2.47971 z m 18.209238,-7.37127 c 0.959106,-3.41557 -2.429485,-6.37993 -5.061323,-4.42764 -1.642054,1.21807 -2.13442,5.31472 -0.783837,6.52188 1.906987,1.70448 5.099669,0.5606 5.84516,-2.09424 z M 51.173852,119.4129 c 2.707562,-1.76957 1.985926,-5.36393 -1.158021,-5.76795 -1.324983,-0.17029 -3.380685,0.65002 -4.568227,1.8229 -1.76853,1.74668 -1.890516,2.42182 -0.67429,3.73166 1.823769,1.96414 3.629655,2.02435 6.400538,0.21339 z m 14.822636,-7.07923 c 0,-0.4736 -0.831995,-1.60473 -1.848885,-2.51362 -2.509438,-2.24297 -6.397438,-0.37946 -6.397438,3.06626 0,3.79904 3.595997,5.25287 6.184743,2.50041 1.133868,-1.20558 2.06158,-2.57946 2.06158,-3.05305 z m 8.448076,-2.75411 c 2.684437,-2.1714 2.790261,-5.476 0.203778,-6.36313 -2.920034,-1.00153 -6.631481,3.47172 -5.059166,6.09762 1.470413,2.45573 2.104779,2.49041 4.855388,0.26551 z m -27.309267,-4.03519 c 2.257784,-2.43157 0.53825,-4.75167 -3.521687,-4.75167 -2.133948,0 -3.887482,0.65078 -4.291928,1.59282 -0.867691,2.02105 1.588371,4.72487 4.291928,4.72487 1.13718,0 2.721935,-0.70471 3.521687,-1.56602 z m 13.858252,-4.91298 c 2.071123,-1.851183 -0.421127,-5.103418 -3.91083,-5.103418 -3.434723,0 -4.939795,2.505591 -2.854241,4.751658 1.736192,1.86985 4.883544,2.03349 6.765071,0.35176 z m 14.467609,-7.276626 c 0.965881,-1.613103 0.939386,-2.56291 -0.102841,-3.685308 -1.924621,-2.072765 -3.895975,-1.895861 -6.396767,0.574028 -1.728571,1.707218 -1.842523,2.376618 -0.627357,3.685315 2.101894,2.263666 5.596321,1.982214 7.126921,-0.574035 z M 49.292217,89.467003 c 0.449284,-2.828136 -3.867042,-4.792249 -7.151165,-3.254083 -2.565313,1.201499 -2.602951,2.363071 -0.14768,4.557613 2.66943,2.385951 6.830796,1.64276 7.298845,-1.30353 z m 15.402306,-2.75562 c 2.679125,-2.885352 -2.649508,-8.28931 -5.585847,-5.664794 -1.478778,1.321745 -1.833017,5.282714 -0.573143,6.408789 1.331368,1.189995 4.746253,0.777482 6.15899,-0.743995 z M 78.723911,78.0169 c 0.251524,-2.304299 -0.230591,-3.480903 -1.621876,-3.958093 -4.043006,-1.386693 -6.964149,3.690667 -3.767273,6.548055 2.42641,2.168751 5.004964,0.929531 5.389149,-2.589962 z m -23.392334,0.204759 c 2.092175,-2.253222 -0.454985,-5.858512 -4.139089,-5.858512 -3.789433,0 -4.912736,2.66222 -2.23797,5.30395 2.481967,2.451297 4.456443,2.623004 6.377059,0.554562 z m 12.786055,-9.116483 c 0.401254,-3.075105 -2.375107,-5.707854 -5.051263,-4.789972 -2.144303,0.735465 -2.353795,5.009854 -0.334023,6.815141 2.246075,2.007565 4.993903,0.974229 5.385286,-2.025169 z m 33.466588,72.156364 c -7.18015,-4.4951 -10.179396,-17.47195 -6.680294,-28.90358 3.150404,-10.2924 3.424953,-15.29714 1.133395,-20.660302 -2.89211,-6.768715 -2.079108,-18.199234 1.783213,-25.070991 3.880296,-6.903743 7.892426,-9.415315 14.998646,-9.389045 11.0064,0.04069 22.97294,8.452274 29.88973,21.010277 3.25645,5.912341 3.8327,8.225894 4.32502,17.363983 0.43379,8.052068 0.0752,12.170128 -1.51809,17.431008 -4.89278,16.15585 -21.52118,29.86767 -36.22072,29.86767 -2.79229,0 -6.26221,-0.74206 -7.7109,-1.64902 z m 10.38502,-5.22633 c 1.87288,-2.01703 -0.2207,-6.81296 -2.97407,-6.81296 -2.75339,0 -4.84695,4.79593 -2.97407,6.81296 0.82252,0.88584 2.16085,1.61062 2.97407,1.61062 0.81321,0 2.15155,-0.72478 2.97407,-1.61062 z m 12.71879,-7.13887 c 0.56351,-2.61539 -1.8991,-4.93882 -5.2347,-4.93882 -1.98091,0 -2.80086,0.59447 -2.80086,2.03068 0,4.5328 7.12956,7.11306 8.03556,2.90814 z m -18.87359,-5.1494 c 1.90774,-1.70516 1.77862,-3.52458 -0.3875,-5.46069 -3.40251,-3.04118 -7.595891,0.72906 -5.22144,4.6946 1.38571,2.31428 3.5466,2.60941 5.60894,0.76609 z m 29.4775,-5.36797 c 0.56271,-2.63811 -1.90064,-4.95091 -5.27316,-4.95091 -3.72394,0 -4.77605,2.69568 -2.08824,5.3503 2.53789,2.50652 6.79079,2.27579 7.3614,-0.39939 z m -15.15914,-2.26059 c 0.77698,-0.83681 1.23948,-2.61366 1.02777,-3.94855 -0.4636,-2.92302 -4.61643,-3.79491 -6.81212,-1.43023 -1.23935,1.33475 -1.16349,2.09605 0.42475,4.2626 2.21572,3.02252 3.36689,3.26226 5.3596,1.11618 z m -9.61827,-8.0905 c 0.41574,-1.95115 -2.68243,-5.12928 -5.00025,-5.12928 -2.03753,0 -2.98458,3.44261 -1.56901,5.70348 1.38373,2.21002 6.06317,1.80102 6.56926,-0.5742 z m 28.28521,-2.18103 c 2.08251,-1.86137 1.7251,-3.77814 -0.94244,-5.05415 -4.79628,-2.294303 -9.67269,2.7513 -5.0067,5.18039 2.74213,1.42753 4.24647,1.39561 5.94914,-0.12624 z m -13.31192,-7.160039 c 0,-2.090288 -0.66852,-2.701103 -3.24634,-2.966129 -3.48167,-0.357949 -5.21935,1.670352 -3.95469,4.616068 0.46195,1.07597 1.83767,1.53383 3.95469,1.31618 2.57782,-0.26503 3.24634,-0.87584 3.24634,-2.966119 z m -13.85556,-5.264732 c 0.46579,-2.411584 -1.25237,-4.128644 -4.45185,-4.448955 -2.26428,-0.226685 -2.97669,0.254715 -3.2912,2.223984 -0.22077,1.382309 0.30765,2.924949 1.17425,3.428099 2.30619,1.339001 6.2161,0.622871 6.5688,-1.203128 z m 26.69374,-3.48375 c 1.0337,-1.516129 0.84494,-2.205403 -0.92594,-3.381277 -2.50291,-1.661932 -6.23193,-0.507913 -7.43827,2.30191 -1.53327,3.571315 6.00224,4.543743 8.36421,1.079367 z m -18.82477,-2.420113 c 2.49296,-0.855051 2.45268,-6.304086 -0.0531,-7.163484 -2.54915,-0.874323 -5.15189,1.182218 -5.15189,4.070735 0,3.529083 1.43926,4.384297 5.20486,3.092749 z m -12.50808,-8.927518 c 0.46075,-3.54272 -2.54749,-5.990068 -5.06626,-4.121658 -1.83121,1.358382 -2.393289,5.40697 -0.93201,6.713077 1.90422,1.702005 5.65037,0.08357 5.99827,-2.591419 z m 22.69527,0.05308 c 1.33151,-0.636928 2.27865,-2.197833 2.27865,-3.755251 0,-2.264836 -0.46886,-2.615203 -3.12081,-2.332083 -3.59419,0.383712 -5.83557,2.951753 -4.76095,5.454788 0.85525,1.992072 2.39712,2.166136 5.60311,0.632546 z m -12.44736,-8.764635 c 2.12862,-2.903699 1.23495,-5.93957 -1.74844,-5.93957 -3.0906,0 -5.10423,2.737065 -4.25047,5.777531 0.93413,3.326632 3.62573,3.399337 5.99891,0.162039 z"
       id="path1" /></g></svg>
