<?xml version="1.0" encoding="UTF-8" standalone="no"?>
<!-- Created with Inkscape (http://www.inkscape.org/) -->

<svg
   width="180"
   height="180"
   viewBox="0 0 180 180"
   version="1.1"
   id="svg1"
   xml:space="preserve"
   inkscape:version="1.4.2 (f4327f4, 2025-05-13)"
   sodipodi:docname="food_grain_amaranth.svg"
   xmlns:inkscape="http://www.inkscape.org/namespaces/inkscape"
   xmlns:sodipodi="http://sodipodi.sourceforge.net/DTD/sodipodi-0.dtd"
   xmlns="http://www.w3.org/2000/svg"
   xmlns:svg="http://www.w3.org/2000/svg"><sodipodi:namedview
     id="namedview1"
     pagecolor="#505050"
     bordercolor="#ffffff"
     borderopacity="1"
     inkscape:showpageshadow="0"
     inkscape:pageopacity="0"
     inkscape:pagecheckerboard="1"
     inkscape:deskcolor="#505050"
     inkscape:document-units="px"
     inkscape:zoom="3.1"
     inkscape:cx="-44.193548"
     inkscape:cy="122.90323"
     inkscape:window-width="2560"
     inkscape:window-height="1351"
     inkscape:window-x="-9"
     inkscape:window-y="-9"
     inkscape:window-maximized="1"
     inkscape:current-layer="layer1" /><defs
     id="defs1" /><g
     inkscape:label="Warstwa 1"
     inkscape:groupmode="layer"
     id="layer1"><path
       id="path1"
       style="fill:#000000;stroke-width:0.859083"
       d="m 90.085781,3.1090683 c -1.424055,0 -6.265151,8.5570407 -5.751245,10.1652457 0.371046,1.161123 0.0076,1.740985 -1.304804,2.081878 -1.41547,0.367639 -1.761052,1.028497 -1.555668,2.973154 0.155662,1.473997 -0.314212,3.074533 -1.144867,3.899549 -1.738527,1.72672 -1.190518,4.098401 1.535463,6.64194 1.140617,1.064276 2.07422,2.800499 2.07422,3.859416 0,1.864626 -0.08006,1.846854 -2.520381,-0.576905 -5.400457,-5.363783 -8.71922,-1.084661 -6.690703,8.626831 0.245899,1.177222 0.479073,2.419708 0.518554,2.760786 0.03951,0.341069 1.258824,1.230872 2.710628,1.976529 1.681203,0.863482 2.531528,1.881543 2.34023,2.804264 -0.349245,1.684574 -2.973905,1.497687 -5.069383,-0.361194 -1.529445,-1.356759 -3.832307,-0.853339 -4.54577,0.993281 -0.253001,0.654844 -0.06699,1.432024 0.414163,1.727374 0.486426,0.298586 0.629977,1.644648 0.323256,3.03168 -0.43205,1.953743 -0.04846,3.089467 1.77117,5.237302 2.532296,2.98903 1.663713,4.193659 -1.724027,2.392903 -8.147807,-4.33096 -7.051628,8.993172 1.410875,17.149987 3.313246,3.193568 4.740577,5.797249 1.660049,3.028336 -1.927454,-1.732476 -9.395564,-4.130674 -10.586608,-3.399562 -1.432038,0.879055 -2.274044,4.124788 -1.362051,5.249005 0.475461,0.586103 0.664983,1.823779 0.420912,2.750753 -0.244061,0.926975 0.09709,2.131323 0.759305,2.677178 0.662226,0.545863 1.205475,1.627784 1.205475,2.404611 0,0.776827 1.133333,2.778752 2.518702,4.448027 3.166427,3.81534 2.456722,5.500873 -1.511895,3.59187 -2.430647,-1.16921 -2.996929,-1.19113 -3.96829,-0.16053 -1.925583,2.042993 -2.309508,7.402553 -0.6482,9.056573 1.380343,1.37429 1.551126,1.78781 1.786326,4.36274 0.05468,0.59872 1.069095,1.52878 2.254364,2.06516 1.185269,0.53638 2.155035,1.69231 2.155035,2.57017 0,0.9005 0.90771,1.94022 2.084324,2.38453 1.146995,0.43312 2.456748,1.44424 2.909297,2.24742 0.615952,1.09317 1.49062,1.32794 3.478365,0.9331 2.166274,-0.43031 2.969223,-0.131 4.358893,1.62369 2.074221,2.61903 4.096937,11.25975 4.793271,20.47764 0.588308,7.78795 1.218268,8.20608 -6.931471,-4.59184 -2.889625,-4.5377 -5.930535,-10.03317 -6.758051,-12.21368 -0.934078,-2.4613 -2.293595,-4.32205 -3.584435,-4.9062 -1.143565,-0.51751 -2.80976,-2.1342 -3.70228,-3.59187 -0.892521,-1.45767 -2.441871,-3.2203 -3.444685,-3.91794 -1.002825,-0.69763 -1.823367,-2.04216 -1.823367,-2.9882 0,-0.94603 -0.426516,-2.51227 -0.947879,-3.47983 -2.473963,-4.59126 -1.740742,-10.021223 1.890707,-13.994563 1.445588,-1.581683 1.474629,-1.95991 0.318204,-4.173785 -0.699559,-1.339243 -1.500862,-4.409712 -1.779585,-6.822537 -0.457091,-3.956879 -0.245493,-4.742866 2.160086,-8.018155 3.258353,-4.436364 3.637026,-9.063081 0.862014,-10.538145 -1.495749,-0.795065 -2.166146,-0.623334 -3.907682,1.001643 l -2.101158,1.959807 0.57579,-4.869419 c 0.806458,-6.815096 -1.884724,-9.604065 -5.83879,-6.049984 -1.513903,1.360791 -1.575874,1.16023 -1.575874,-5.033294 0,-7.29519 -1.304495,-9.576792 -4.380781,-7.668666 -1.465638,0.909098 -1.653316,0.781002 -1.653316,-1.122039 0,-1.181212 -0.398061,-2.148765 -0.883901,-2.148765 -0.485839,0 -1.251498,-0.963181 -1.702141,-2.140404 -0.450635,-1.177221 -1.384955,-2.140403 -2.075902,-2.140403 -0.690947,0 -1.492094,-0.735758 -1.779584,-1.635404 -0.675527,-2.113948 -4.539849,-4.625486 -6.163737,-4.006568 -0.852187,0.324794 -1.197027,1.533974 -1.065733,3.744035 0.106691,1.795919 -0.04862,3.657763 -0.346831,4.136999 -0.642425,1.032411 1.226784,6.803571 2.666855,8.233866 1.459812,1.449901 1.235025,2.267236 -0.501718,1.82436 -0.88815,-0.22648 -1.948255,0.323815 -2.575938,1.336081 -0.891237,1.43729 -0.768012,2.219033 0.745848,4.767415 0.996005,1.676638 2.542105,3.437636 3.436264,3.912926 2.100822,1.116691 2.200324,3.665267 0.117854,3.021647 -1.77349,-0.548123 -3.154359,0.227115 -3.877373,2.178865 -0.532708,1.438017 3.464512,6.318881 6.586321,8.041563 1.374058,0.758234 1.200148,0.909532 -1.2543,1.095286 -3.348812,0.25344 -5.118207,1.497142 -5.118207,3.595209 0,1.952922 5.959749,7.287204 10.025964,8.974647 3.461304,1.436425 3.60276,2.695955 0.156576,1.394606 -1.168684,-0.441309 -3.452927,-0.534516 -5.076116,-0.207351 -2.34947,0.47356 -3.005274,1.051481 -3.215717,2.832692 -0.215642,1.825126 0.632985,2.963702 4.604705,6.177072 2.677925,2.16661 5.221271,3.938003 5.651916,3.938003 0.430645,0 0.78288,0.38527 0.78288,0.85617 0,0.47088 -1.280762,0.85615 -2.845317,0.85615 -5.616556,0 -6.474906,3.64233 -1.924378,8.16197 1.643577,1.63241 3.343425,2.96814 3.778043,2.96814 0.434611,0 1.001109,0.8034 1.259351,1.78422 0.364701,1.38514 1.03721,1.72391 3.010316,1.51835 1.397153,-0.14555 3.133775,0.22504 3.858858,0.82272 0.725083,0.59792 2.228211,0.86798 3.340304,0.60198 4.492989,-1.07469 7.513364,2.54759 17.831232,21.38566 0.257914,0.47088 -0.09083,0.41198 -0.774468,-0.13211 -2.904306,-2.3115 -11.369663,-3.92486 -18.405343,-3.50658 -3.836176,0.22806 -7.749374,0.66499 -8.69759,0.96986 -0.266681,0.0857 -0.413146,0.11386 -0.447842,0.092 l -0.0017,-0.002 -0.0017,-0.002 h -0.0017 v -0.002 l -0.0017,-0.002 v -0.002 l -0.0016,-0.002 v -0.002 -0.002 c 0.0048,-0.0917 0.634381,-0.46401 1.749275,-1.01502 2.196222,-1.08543 5.168731,-1.49728 10.928389,-1.51166 7.652778,-0.0191 7.864834,-0.0714 6.465104,-1.60864 -5.088985,-5.58901 -16.16089,-6.95692 -23.858597,-2.94808 -6.21824,3.23836 -9.186896,6.80336 -14.142415,16.9928 -2.415708,4.96713 -4.390884,9.31857 -4.390884,9.67028 0,1.04208 5.92857,-0.33242 14.283846,-3.31261 4.300373,-1.53388 10.118975,-3.25677 12.930209,-3.82764 2.811235,-0.57087 7.769426,-2.15299 11.019297,-3.51662 7.346659,-3.08256 8.933231,-3.08868 13.142341,-0.0568 7.684225,5.53494 13.739502,15.51127 14.69801,24.21666 0.291507,2.6475 1.084362,5.06586 1.862088,5.68043 3.020281,2.38666 7.511261,0.50844 8.259844,-3.45475 0.897366,-4.75088 4.672204,-13.59861 6.769849,-15.86741 1.06803,-1.15518 3.49452,-2.77684 5.39094,-3.60357 3.22736,-1.40693 3.93438,-1.41635 11.06477,-0.1505 6.10576,1.08396 8.70601,1.16841 13.09688,0.42139 6.49098,-1.10431 13.86083,-4.29671 18.69156,-8.09674 3.86171,-3.03777 14.45007,-15.93934 14.46231,-17.62155 0.01,-1.36474 -0.49149,-1.34576 -6.75301,0.24749 -3.82236,0.9726 -8.63035,1.25247 -18.38683,1.07019 -12.363,-0.23096 -13.4736,-0.11811 -17.28741,1.74745 -4.19491,2.05199 -11.87121,9.68057 -11.87121,11.79731 0,1.4784 -0.044,1.48032 3.906,-0.15886 4.4964,-1.86596 15.17125,-3.8008 20.52165,-3.71896 l 4.44982,0.0685 -5.6031,1.20063 c -9.23679,1.98068 -20.64364,5.42448 -25.29808,7.6369 -2.40634,1.14381 -4.54283,1.91258 -4.74782,1.70899 -0.70398,-0.69921 8.76683,-18.63691 11.43179,-21.65153 4.21102,-4.76353 7.02484,-6.14944 10.12699,-4.98648 2.15207,0.80681 2.7641,0.73824 3.608,-0.40801 0.69657,-0.94615 1.87378,-1.2545 3.74605,-0.98158 2.10917,0.30747 2.98955,-0.0124 3.8639,-1.40296 0.62262,-0.99021 1.60626,-1.80095 2.18703,-1.80095 1.68269,0 6.28832,-4.91826 6.28832,-6.71552 0,-2.22784 -1.58871,-3.36423 -5.17544,-3.70223 l -3.01369,-0.28427 3.44805,-2.12535 c 1.89644,-1.16976 3.79354,-2.27998 4.2158,-2.46649 3.60566,-1.59258 6.07712,-5.515843 4.87744,-7.74224 -0.72328,-1.342291 -1.72187,-1.601142 -5.60308,-1.448119 -3.80886,0.150177 -4.54214,-0.03044 -3.78647,-0.934747 0.51536,-0.616751 1.42816,-1.12204 2.02709,-1.12204 2.83188,0 10.76843,-5.719421 10.76843,-7.760638 0,-2.116526 -2.0511,-3.461721 -5.5509,-3.64036 -2.73814,-0.139768 -2.911,-0.279667 -1.56577,-1.264175 0.83223,-0.609065 2.29433,-1.301886 3.24939,-1.540088 0.95505,-0.238201 2.65168,-1.761625 3.77131,-3.384514 1.6666,-2.415719 1.84071,-3.18295 0.95967,-4.23733 -0.59189,-0.708336 -2.09456,-1.301117 -3.3403,-1.316014 l -2.26448,-0.02675 2.15504,-1.964824 c 5.88717,-5.367867 7.08814,-7.153071 6.07956,-9.024811 -0.53329,-0.989681 -1.73027,-1.799277 -2.6618,-1.799277 -2.16165,0 -2.15147,-0.94217 0.0303,-2.797576 0.94821,-0.806375 1.72403,-2.175478 1.72403,-3.043386 0,-0.8679 0.26754,-1.845944 0.596,-2.172175 1.16469,-1.156743 1.21772,-9.95872 0.0606,-10.066588 -2.27661,-0.212225 -3.73044,0.291686 -5.39769,1.872854 -0.94822,0.89926 -3.17867,2.937544 -4.95658,4.528292 -1.7779,1.590748 -3.23256,3.520712 -3.23256,4.289168 0,1.678454 -0.35705,1.721947 -2.62476,0.326078 -2.32058,-1.42842 -3.03532,-0.215263 -4.31343,7.310816 -0.94954,5.591266 -1.0658,5.791155 -2.56753,4.441339 -2.97781,-2.676593 -4.63748,-1.321247 -5.57951,4.553374 -0.80934,5.047098 -0.95224,5.286721 -2.32003,3.927976 -1.34159,-1.332744 -1.62309,-1.338564 -3.55918,-0.0786 -1.86369,1.212847 -2.08798,1.942421 -1.9833,6.429572 0.066,2.824666 0.63153,5.677132 1.28123,6.454655 1.01352,1.212916 0.8733,1.503206 -1.08425,2.242408 -1.2368,0.467045 -2.24764,1.020473 -2.24764,1.22906 0,0.208587 -0.2333,0.982382 -0.51854,1.720685 -0.35458,0.917726 0.19101,1.612079 1.72739,2.19224 3.11357,1.175741 5.43795,6.144191 4.16863,8.911112 -0.52405,1.1423 -0.7495,2.848073 -0.50171,3.789183 0.24779,0.9411 -0.20928,2.70967 -1.01522,3.93132 -0.80593,1.22166 -1.23635,2.81116 -0.95799,3.53167 0.30677,0.79398 -0.67506,2.608 -2.49176,4.6052 -1.64855,1.81238 -2.99684,3.97344 -2.99684,4.80254 0,0.82911 -1.33477,2.75724 -2.96485,4.28414 -3.28103,3.07341 -8.66834,12.31984 -13.824216,23.7284 -1.812566,4.01072 -3.431042,7.18212 -3.658511,7.17703 -8.62e-4,-1.2e-4 -0.0042,2.3e-4 -0.0051,0 l -0.0016,-0.002 c -7.33e-4,-4.2e-4 -0.0044,-8.6e-4 -0.0051,-0.002 l -0.0017,-0.002 c -0.413388,-0.41058 1.300029,-23.47325 1.978264,-26.62629 0.63508,-2.95245 5.327653,-6.42121 8.685793,-6.42121 3.71428,0 5.48692,-1.49627 5.48692,-4.63198 0,-2.50798 0.32575,-2.92413 2.6517,-3.38617 2.27589,-0.45209 2.61706,-0.86178 2.41095,-2.88954 -0.13209,-1.29953 0.46247,-3.41927 1.32164,-4.71057 0.85917,-1.29131 1.35658,-2.88074 1.10446,-3.53333 -0.25214,-0.6526 -0.0962,-1.546593 0.34683,-1.986563 0.44298,-0.43997 0.55815,-2.02904 0.2559,-3.53 -0.5141,-2.553022 -0.78464,-2.729018 -4.20399,-2.729018 -2.39247,0 -4.43965,0.61436 -5.92635,1.775861 -1.2492,0.975957 -2.27121,1.511857 -2.27121,1.192277 0,-0.31956 0.94561,-1.319897 2.10285,-2.224013 1.15724,-0.904106 2.37324,-2.501163 2.70052,-3.548394 0.32729,-1.047215 1.26242,-2.867806 2.07928,-4.045029 2.37252,-3.419209 2.82189,-9.427405 0.894,-11.962851 -1.54365,-2.030104 -1.68036,-2.056579 -3.27632,-0.622055 -0.92004,0.826966 -2.28365,1.261979 -3.04568,0.971544 -0.84213,-0.320958 -2.20482,0.29526 -3.50025,1.581891 -1.9056,1.892674 -2.16337,1.950652 -2.52375,0.581923 -0.2753,-1.045579 0.56383,-2.152958 2.67359,-3.528322 3.40698,-2.22102 6.62258,-7.341963 7.48875,-11.927735 0.48593,-2.572646 0.27862,-3.144506 -1.48159,-4.080145 -1.67921,-0.892582 -2.69702,-0.865245 -5.66538,0.150497 -4.427678,1.515098 -4.849324,0.316332 -1.18864,-3.382841 3.20675,-3.24046 5.15873,-9.155969 3.62652,-10.989636 -1.3882,-1.661296 -4.28084,-1.680641 -6.631778,-0.04514 -1.658673,1.153884 -1.858194,1.114988 -2.26447,-0.42808 -0.315204,-1.197154 0.303084,-2.223253 2.112946,-3.50324 1.884692,-1.332905 2.504012,-2.406356 2.348652,-4.06844 -0.11606,-1.241596 0.0856,-3.141858 0.44784,-4.223951 0.80972,-2.419171 -0.88926,-4.737372 -3.059143,-4.173788 -1.359567,0.353122 -1.47856,-0.03898 -1.021951,-3.347727 0.400483,-2.901982 0.219891,-3.861713 -0.796355,-4.249034 -0.805371,-0.306949 -1.140978,-1.151588 -0.868745,-2.185554 0.249139,-0.946238 -0.215323,-2.408255 -1.060683,-3.33602 C 94.751344,12.477641 94.28421,11.186502 94.542262,10.518589 95.023851,9.2721186 91.316778,3.1074404 90.085719,3.1074404 Z M 16.486292,170.45186 l -0.584213,0.002 c 0.0076,0.007 0.0161,0.0147 0.02357,0.0217 h 0.57748 c -0.0054,-0.008 -0.01114,-0.0157 -0.01683,-0.0234 z" /></g></svg>
