<?xml version="1.0" encoding="UTF-8" standalone="no"?>
<!-- Created with Inkscape (http://www.inkscape.org/) -->

<svg
   width="180"
   height="240"
   viewBox="0 0 180 240"
   version="1.1"
   id="svg1"
   xml:space="preserve"
   inkscape:version="1.4.2 (f4327f4, 2025-05-13)"
   sodipodi:docname="food_grain_flax.svg"
   xmlns:inkscape="http://www.inkscape.org/namespaces/inkscape"
   xmlns:sodipodi="http://sodipodi.sourceforge.net/DTD/sodipodi-0.dtd"
   xmlns="http://www.w3.org/2000/svg"
   xmlns:svg="http://www.w3.org/2000/svg"><sodipodi:namedview
     id="namedview1"
     pagecolor="#505050"
     bordercolor="#ffffff"
     borderopacity="1"
     inkscape:showpageshadow="0"
     inkscape:pageopacity="0"
     inkscape:pagecheckerboard="1"
     inkscape:deskcolor="#505050"
     inkscape:document-units="px"
     inkscape:zoom="1.55"
     inkscape:cx="-239.35484"
     inkscape:cy="120"
     inkscape:window-width="2560"
     inkscape:window-height="1351"
     inkscape:window-x="-9"
     inkscape:window-y="-9"
     inkscape:window-maximized="1"
     inkscape:current-layer="layer1" /><defs
     id="defs1" /><g
     inkscape:label="Warstwa 1"
     inkscape:groupmode="layer"
     id="layer1"><path
       style="fill:#000000;stroke-width:1.17027"
       d="m 92.920895,226.62725 c -0.08541,-3.24096 -0.497189,-11.44857 -0.91514,-18.23914 l -0.759907,-12.34649 -0.961994,14.1089 c -1.121376,16.44645 -2.091106,20.547 -4.980263,21.05905 -3.589799,0.63623 -5.641139,-2.02869 -5.793028,-7.52577 l -0.143518,-5.19401 -0.999369,5.48482 c -0.549645,3.01665 -1.46249,5.91083 -2.028547,6.43152 -0.566044,0.52069 -3.121309,0.41532 -5.678379,-0.23413 -4.253008,-1.08023 -4.578187,-1.437 -3.815912,-4.18671 2.795531,-10.08408 5.473925,-25.96455 5.388293,-31.94769 l -0.09981,-6.97525 -2.219519,11.6069 c -3.018874,15.7871 -6.366051,27.27276 -8.129281,27.89515 -2.261761,0.79838 -6.534511,-1.75649 -6.53085,-3.90506 0.0012,-1.05861 1.621627,-7.81344 3.599597,-15.01074 1.977982,-7.19731 3.92047,-17.04644 4.316652,-21.88697 0.706659,-8.63386 0.619903,-8.44265 -4.568974,10.07116 -2.909119,10.37965 -6.012027,19.28299 -6.895368,19.78518 -2.522955,1.43431 -6.503128,0.0304 -5.820482,-2.05299 6.713975,-20.49118 14.246036,-53.06855 14.246036,-61.61638 0,-3.9663 -0.632947,-5.85379 -2.440372,-7.27733 -5.048519,-3.9763 -1.806338,-6.5423 6.711023,-5.3114 9.080649,1.31229 10.561759,-0.48479 1.655268,-2.00841 -8.831449,-1.51077 -12.076303,-3.64987 -9.637297,-6.3532 1.965951,-2.17901 5.102317,-2.18058 12.862773,-0.007 11.327669,3.17353 20.839544,3.87875 28.277914,2.09655 3.739479,-0.89596 7.692079,-2.14838 8.783549,-2.78314 1.60146,-0.93136 1.4546,-1.02086 -0.76093,-0.46368 -3.27157,0.82274 -3.22768,1.55218 -0.84993,-14.12948 2.75808,-18.189999 1.52684,-18.760217 -1.8348,-0.84974 -3.078869,16.40398 -3.194309,16.58311 -10.713974,16.62546 -2.484408,0.014 -2.669962,-0.40117 -2.125247,-4.75492 0.328267,-2.62362 1.435732,-11.84141 2.461054,-20.48395 1.025322,-8.642546 2.891168,-21.505458 4.146308,-28.584247 l 2.28211,-12.870524 -3.48762,-6.210419 -3.487635,-6.210107 -0.0798,16.836128 c -0.04392,9.259869 -0.575489,21.381881 -1.181299,26.937807 -0.605798,5.555922 -1.479914,15.783872 -1.942486,22.728772 l -0.841038,12.62709 h -4.033191 -4.033178 l -0.786215,-8.69866 c -1.152112,-12.74698 -1.56218,-13.26232 -1.720828,-2.16253 -0.124496,8.71035 -0.393571,9.85873 -2.233599,9.53277 -2.394725,-0.42422 -2.793969,-1.66568 -7.092209,-22.05368 -3.394634,-16.101583 -7.945024,-31.856594 -11.160788,-38.642142 -3.595168,-7.586113 -2.975424,-3.641012 1.298509,8.265998 2.303528,6.417508 5.295254,17.981748 6.648281,25.698304 4.731063,26.98206 4.802079,25.82144 -1.446261,23.63619 -2.475868,-0.86589 -3.724203,-3.04553 -6.910439,-12.06589 -2.13879,-6.05501 -5.832928,-14.92349 -8.209191,-19.70776 -4.225187,-8.506821 -4.417647,-8.698808 -8.726368,-8.70493 -5.883456,-0.0083 -12.943183,-1.889092 -14.794815,-3.941383 -1.194293,-1.323722 -1.16756,-2.034709 0.130621,-3.473574 0.897751,-0.995045 1.475156,-3.486783 1.283111,-5.537194 -0.54723,-5.842808 1.70582,-8.70281 6.338292,-8.045761 2.336913,0.331457 4.620612,-0.07006 5.794358,-1.018754 1.674865,-1.353734 2.227719,-1.270599 4.081621,0.613779 2.832538,2.879112 5.44503,9.786096 5.55054,14.674696 0.05405,2.504712 1.663211,6.165701 4.440073,10.101676 2.395408,3.395286 4.057533,5.163084 3.693613,3.92843 -0.36392,-1.234649 -1.503891,-5.275319 -2.533265,-8.979268 -3.545531,-12.757784 -9.490557,-25.253579 -12.015403,-25.255075 -2.90713,-0.0017 -16.389379,-6.504036 -17.120685,-8.257086 -0.872848,-2.092318 2.108152,-5.19625 5.037318,-5.245062 1.86315,-0.03104 1.855281,-0.137477 -0.08712,-1.178181 -1.174428,-0.629228 -2.135325,-2.069172 -2.135325,-3.199877 0,-2.550605 7.676874,-8.110814 13.291071,-9.626471 3.396339,-0.916903 4.217085,-1.715845 4.336309,-4.221115 0.08187,-1.721401 1.604764,-4.431056 3.438057,-6.117433 3.103591,-2.854901 3.538954,-2.944802 7.645624,-1.578808 3.770326,1.254117 4.773941,1.195748 7.479594,-0.435 1.718717,-1.03591 4.436986,-1.652759 6.040592,-1.370776 1.603592,0.281982 2.915633,0.07766 2.915633,-0.454066 0,-1.439448 4.173256,-1.168594 5.856893,0.380128 1.138837,1.047581 1.464224,0.592211 1.464224,-2.049165 0,-3.387425 3.369055,-7.2584996 7.466842,-8.57948 2.8807,-0.9286314 9.425262,3.141944 10.319222,6.418323 0.63282,2.31932 1.16444,2.623539 3.002979,1.718429 10.86655,-5.349567 10.83951,7.642391 -0.0362,17.411248 l -4.607909,4.138936 1.99408,4.669322 1.99401,4.669322 0.610099,-5.042025 c 0.50998,-4.21459 1.19937,-5.30079 4.20087,-6.618814 3.09236,-1.35793 4.02385,-1.353896 6.71101,0.02907 1.71615,0.883219 3.75724,3.356602 4.53576,5.496405 1.39767,3.84159 1.42973,3.856287 2.54667,1.167779 0.81891,-1.971128 0.51236,-4.220863 -1.11044,-8.149501 -2.79881,-6.7756 -2.91734,-13.591201 -0.27149,-15.611092 1.68508,-1.286431 2.28168,-1.150105 4.12357,0.942246 2.13547,2.425864 2.17153,2.427903 4.31991,0.244199 3.01578,-3.065364 7.24027,-2.753797 10.24098,0.755301 1.39092,1.626563 2.52894,3.439666 2.52894,4.029118 0,0.589452 1.17125,1.944159 2.6028,3.010461 2.16018,1.609035 2.37031,2.338352 1.23562,4.288628 -1.60208,2.753638 -7.8954,6.535971 -12.71696,7.642986 -3.90782,0.897224 -5.7637,3.50042 -5.7637,8.084597 0,1.772625 -1.37271,4.934459 -3.05046,7.026301 -3.52592,4.396158 -3.88826,6.147942 -1.06553,5.151559 1.09172,-0.38536 2.73897,-0.125012 3.66056,0.578551 2.97197,2.268865 1.90811,9.954565 -2.76257,19.957612 -5.50446,11.788738 -7.75441,19.400975 -7.668,25.943069 0.059,4.47067 0.54824,3.52453 4.25875,-8.236987 2.3056,-7.308294 5.85835,-17.115836 7.895,-21.794533 3.61342,-8.300964 3.65763,-8.629173 1.82772,-13.569327 -2.34758,-6.337656 -2.38102,-11.478247 -0.10725,-16.484058 2.02756,-4.463765 5.89898,-5.247548 8.00871,-1.621389 1.2146,2.087625 1.53555,2.132938 3.97499,0.561205 6.15919,-3.968365 13.55261,-0.137709 12.9131,6.690478 -0.26489,2.828071 0.35501,4.278487 2.51672,5.888674 2.34309,1.745279 2.63108,2.543901 1.57311,4.362321 -1.64765,2.831976 -13.26905,8.286544 -17.65515,8.286544 -1.8359,0 -3.33988,0.126271 -3.34219,0.280602 -0.002,0.154331 -1.64954,3.994793 -3.66055,8.534359 -3.82259,8.62897 -4.61915,12.073201 -2.09234,9.046982 1.42598,-1.707803 11.13131,-7.760267 12.44386,-7.760267 2.19932,0 -0.28563,4.190064 -6.11484,10.310719 -8.35984,8.77779 -12.48825,16.328387 -14.23766,26.039747 -1.04859,5.82095 -1.00714,8.07961 0.18593,10.13024 0.92673,1.59284 1.20548,4.02078 0.70317,6.12452 -0.73974,3.09813 -1.66938,3.72733 -8.365,5.66156 l -7.53275,2.17606 6.99103,-0.62942 c 5.81361,-0.52343 7.12291,-0.31328 7.77415,1.24782 0.44338,1.06284 -0.0752,2.74957 -1.19515,3.88803 -1.11828,1.13666 -1.97656,3.92408 -1.97437,6.41204 0.009,9.69319 6.5659,37.57025 12.7642,54.26442 3.62181,9.75476 3.77421,11.64475 1.13477,14.07269 -2.7895,2.56598 -4.53224,0.8784 -10.27982,-9.9545 -2.6511,-4.99677 -4.82537,-8.64245 -4.83171,-8.10155 -0.006,0.54091 1.13734,5.48481 2.54148,10.98644 4.03636,15.81497 0.32128,18.25587 -4.84395,3.18261 l -2.50002,-7.29566 0.82315,6.73446 c 1.47659,12.0805 1.28904,13.18877 -2.38756,14.10755 -4.49721,1.12388 -5.8568,-0.67213 -8.40907,-11.1084 l -2.105939,-8.6112 -0.10615,10.8234 c -0.086,8.77339 -0.47169,10.95243 -2.0362,11.50469 -3.652673,1.28934 -4.17129,0.66461 -4.326082,-5.21136 z m -0.231432,-35.84692 c -0.389508,-0.89538 -0.678643,-0.62943 -0.737188,0.67813 -0.05295,1.18319 0.235411,1.84612 0.640866,1.47315 0.405456,-0.37297 0.448797,-1.34105 0.09627,-2.15128 z m -19.51092,-8.46685 c -0.309367,-1.09207 -0.582835,-0.47033 -0.607702,1.38165 -0.02489,1.85197 0.228248,2.74547 0.562493,1.98558 0.334234,-0.75991 0.354575,-2.27516 0.04527,-3.36723 z m 29.307627,-14.61268 -0.25865,-18.80033 -3.050459,-0.70902 c -1.67776,-0.38995 -7.364607,-0.76876 -12.637458,-0.84181 -8.27557,-0.11463 -9.485677,0.11012 -8.846348,1.64262 0.407359,0.97648 0.740641,4.25953 0.740641,7.29566 0,3.03613 0.549083,5.52024 1.220186,5.52024 0.677886,0 1.220185,-2.99309 1.220185,-6.73445 0,-6.53747 0.09457,-6.73445 3.234787,-6.73445 h 3.234786 l -0.652738,11.50469 c -0.687014,12.10849 0.663488,9.64176 2.143573,-3.91533 0.740995,-6.78717 1.105672,-7.58754 3.450149,-7.57218 4.493167,0.0295 5.276877,1.39717 6.100127,10.6457 0.90865,10.20801 3.411899,27.49901 3.981079,27.49901 0.20833,0 0.26238,-8.46015 0.12018,-18.80035 z m 8.97459,-3.05604 c -0.71611,-4.7361 -1.30203,-10.63696 -1.30203,-13.11302 0,-3.10318 -0.47389,-4.35639 -1.52523,-4.03342 -0.92724,0.28484 -1.38137,1.97172 -1.15829,4.30257 0.5567,5.81696 4.17861,22.47503 4.76866,21.93226 0.28539,-0.26252 -0.067,-4.35231 -0.78311,-9.08839 z m -25.992627,-95.255762 -0.323215,-9.922136 -2.6981,3.363964 -2.698099,3.363964 2.088007,13.233205 2.088007,13.233207 0.933307,-6.675034 c 0.513321,-3.671268 0.787862,-11.139994 0.610093,-16.59717 z m 21.895677,-0.179539 c 0.34039,-2.469298 1.48953,-5.395266 2.55363,-6.50215 1.71801,-1.787052 1.72241,-1.937565 0.0394,-1.343482 -1.04245,0.367971 -2.51853,1.778687 -3.28017,3.134925 -1.38516,2.466482 -5.13506,17.709295 -4.97366,20.217202 0.15579,2.420712 5.03013,-10.931447 5.66081,-15.506495 z m -38.009074,2.296667 c -0.457522,-2.806479 -1.347293,-5.102688 -1.977275,-5.102688 -1.442516,0 -1.435463,0.191207 0.231384,6.28042 1.734543,6.336497 2.84839,5.585125 1.745891,-1.177732 z M 85.509157,43.811137 c 0.266036,-2.847828 -0.341043,-4.48616 -2.251719,-6.076733 -2.597703,-2.162509 -2.632161,-2.159284 -4.939936,0.462316 -3.038104,3.451248 -2.963783,5.019926 0.153621,3.24264 2.048192,-1.167702 2.684739,-1.120717 3.672699,0.271092 0.657314,0.925986 0.891151,2.869484 0.519653,4.318884 -0.472676,1.844088 -0.201562,2.491998 0.902987,2.158056 0.86815,-0.26247 1.742364,-2.231784 1.942695,-4.376255 z M 70.901639,30.166259 c 2.234587,-0.86428 3.389494,-1.948732 2.881128,-2.705368 -0.57106,-0.849944 -1.966429,-0.378292 -4.26765,1.442516 -3.922886,3.103926 -3.759136,3.253065 1.386522,1.262852 z"
       id="path1" /></g></svg>
