<?xml version="1.0" encoding="UTF-8" standalone="no"?>
<!-- Created with Inkscape (http://www.inkscape.org/) -->

<svg
   width="180mm"
   height="240mm"
   viewBox="0 0 180 240"
   version="1.1"
   id="svg1"
   sodipodi:docname="bear.svg"
   inkscape:version="1.4.2 (f4327f4, 2025-05-13)"
   xml:space="preserve"
   xmlns:inkscape="http://www.inkscape.org/namespaces/inkscape"
   xmlns:sodipodi="http://sodipodi.sourceforge.net/DTD/sodipodi-0.dtd"
   xmlns="http://www.w3.org/2000/svg"
   xmlns:svg="http://www.w3.org/2000/svg"><sodipodi:namedview
     id="namedview1"
     pagecolor="#505050"
     bordercolor="#ffffff"
     borderopacity="1"
     inkscape:showpageshadow="0"
     inkscape:pageopacity="0"
     inkscape:pagecheckerboard="1"
     inkscape:deskcolor="#505050"
     inkscape:document-units="mm"
     inkscape:zoom="1"
     inkscape:cx="482"
     inkscape:cy="466"
     inkscape:window-width="2560"
     inkscape:window-height="1351"
     inkscape:window-x="-9"
     inkscape:window-y="-9"
     inkscape:window-maximized="1"
     inkscape:current-layer="layer1"
     showguides="true" /><defs
     id="defs1"><rect
       x="101.82338"
       y="91.923882"
       width="384.66608"
       height="299.81326"
       id="rect3" /><rect
       x="2.8284271"
       y="2.1213202"
       width="662.55902"
       height="647.00269"
       id="rect2" /></defs><g
     inkscape:label="Icon"
     inkscape:groupmode="layer"
     id="layer1"><path
       style="fill:#000000;stroke-width:3.1645"
       d="m 22.718272,232.66083 c -3.18917,-1.45294 -6.492264,-5.9098 -8.146623,-10.99221 -1.250238,-3.84093 -1.233839,-3.9604 1.250663,-9.11242 1.964377,-4.07345 2.245214,-5.22047 1.278199,-5.22047 -1.812867,0 -1.521044,-1.14027 0.89351,-3.49138 3.52728,-3.43456 6.727517,-8.86775 7.765917,-13.18454 1.01954,-4.23839 0.680178,-6.9357 -2.158731,-17.15805 -1.150233,-4.14177 -1.369201,-4.39088 -3.56335,-4.05377 -5.025597,0.77209 -6.539172,-7.05633 -3.072608,-15.89199 1.223754,-3.11912 2.291708,-8.48003 2.938596,-14.75116 1.572162,-15.24092 3.797572,-20.34846 17.793008,-40.836761 8.36396,-12.24422 14.171813,-23.106765 14.171813,-26.50581 0,-1.212576 -0.355965,-1.915768 -0.818351,-1.616606 -1.324956,0.857175 -0.941775,-1.525919 0.830413,-5.164617 0.906832,-1.861893 1.496199,-3.801522 1.309692,-4.310291 -0.186506,-0.508736 1.096957,-2.553007 2.852162,-4.542788 3.62547,-4.110072 3.736322,-4.38916 1.759134,-4.428498 -1.221388,-0.0259 -1.159404,-0.266461 0.421078,-1.646489 1.01923,-0.889909 4.333577,-3.042675 7.365163,-4.783899 5.889779,-3.382921 16.388008,-14.009245 14.833754,-15.014771 -1.088699,-0.704292 4.445326,-5.511469 11.537223,-10.021913 4.729293,-3.007837 5.381541,-3.754284 5.961134,-6.822341 0.729697,-3.8623259 2.393972,-5.815488 5.688732,-6.6761927 1.81212,-0.4733811 2.70543,-0.084827 4.76845,2.0748668 3.18781,3.3369149 4.53273,3.3333529 7.83876,-0.01943 3.78912,-3.8443559 6.49393,-3.0200751 7.87906,2.4010959 0.83257,3.258433 1.50724,4.184895 3.76737,5.173423 4.91676,2.150467 8.79162,5.342786 10.62118,8.750347 1.49348,2.78162 2.80153,3.777045 7.86007,5.981419 3.33764,1.454463 6.41719,2.644472 6.84344,2.644472 0.42627,0 1.24341,0.590747 1.81583,1.312749 1.3395,1.689519 -0.26476,7.209762 -2.98937,10.287338 -1.63783,1.849946 -2.56022,2.106111 -7.58384,2.106111 -7.8154,0 -8.46094,1.601421 -1.72409,4.27691 4.11311,1.633474 4.65216,2.356675 3.02571,4.059241 -0.96448,1.009573 -3.37187,1.639237 -7.67662,2.007814 -5.38597,0.461143 -6.52811,0.849244 -8.08895,2.748693 -0.99959,1.216493 -1.98063,2.719489 -2.18003,3.340055 -0.29322,0.911925 -0.60273,0.920926 -1.61466,0.04695 -1.52029,-1.31304 -2.43396,-0.38292 -4.35742,4.435913 -1.17456,2.942662 -1.17064,3.588385 0.0452,7.41979 0.73239,2.308174 1.76378,4.490306 2.292,4.849202 0.52818,0.358897 6.11596,0.652555 12.41727,0.652555 11.11936,0 11.58349,0.0735 15.75221,2.491297 5.8946,3.418892 13.02331,11.373742 13.73092,15.322254 0.67439,3.762861 -0.48832,7.786461 -2.35985,8.166331 -0.76087,0.15444 -3.2884,-0.71287 -5.61673,-1.92742 -2.32834,-1.21452 -4.77074,-2.20826 -5.42754,-2.20826 -0.65679,0 -2.40123,-0.96369 -3.87646,-2.14156 -3.52257,-2.812511 -4.51575,-2.714211 -9.03104,0.89363 -6.78149,5.41858 -8.00912,5.83077 -11.55535,3.87994 -1.69019,-0.9298 -4.17785,-2.4745 -5.52812,-3.43265 l -2.45505,-1.7421 v -9.82199 c 0,-6.715336 -0.32356,-10.16068 -1.02294,-10.892849 -0.81838,-0.85669 -1.02295,-0.117852 -1.02295,3.695034 0,4.760522 -1.2641,13.461624 -2.07975,14.315404 -0.23723,0.24833 -1.90982,-1.095829 -3.71671,-2.987249 -2.67861,-2.80396 -3.49105,-4.457022 -4.39992,-8.952702 -0.61306,-3.032572 -1.86615,-7.333117 -2.78461,-9.55682 -1.87829,-4.547418 -7.470525,-11.313748 -10.872743,-13.155405 -3.456221,-1.870925 -3.847638,-1.436591 -0.898202,0.996623 5.54451,4.574129 9.966765,13.723487 11.211255,23.195384 1.07964,8.216971 3.53011,10.715229 19.60814,19.99044 10.90059,6.28845 11.19,6.64618 16.80237,20.769 3.54165,8.91207 4.00953,12.67409 2.15429,17.32197 -2.23628,5.60265 -10.29384,7.48222 -10.29384,2.40126 0,-1.5537 -1.11282,-3.49394 -3.40803,-5.94198 -1.87441,-1.99924 -4.36151,-5.48321 -5.52688,-7.74217 l -2.11888,-4.10716 -9.40802,-0.97483 c -10.63744,-1.1022 -15.558399,-2.28001 -19.479589,-4.66229 -3.297304,-2.00328 -3.43123,-2.01105 -3.43123,-0.19912 0,2.2093 -4.387208,-2.52173 -6.164652,-6.64776 -1.559141,-3.61931 -2.837192,-4.3856 -2.837192,-1.70111 0,3.98658 -1.750597,1.91832 -6.475466,-7.65051 -7.266558,-14.716323 -8.719487,-14.72623 -3.299005,-0.0227 2.481344,6.73104 7.749929,16.2899 8.978523,16.2899 0.393025,0 1.039891,-0.60846 1.437463,-1.35212 0.61739,-1.15479 0.91942,-1.0381 2.0697,0.79961 2.157849,3.44735 6.936506,6.90551 8.133861,5.88619 0.704179,-0.59945 2.798653,-0.38097 6.749473,0.70404 3.150634,0.86527 6.787174,1.59546 8.081214,1.62263 2.21058,0.0463 2.321,0.21757 1.82734,2.83342 -0.7974,4.22507 -5.65431,14.44183 -10.388677,21.85314 -4.901943,7.67362 -15.136928,20.68139 -16.797798,21.34854 -0.624256,0.2506 -1.135,0.81373 -1.135,1.25104 0,2.55741 12.176573,-8.23147 16.910351,-14.9832 2.032027,-2.89824 4.000304,-5.38769 4.373974,-5.53209 0.99297,-0.38373 6.14287,9.68807 8.11415,15.86913 1.70129,5.33456 2.4249,15.6184 0.92421,13.13539 -0.82183,-1.35982 -1.16234,-0.26873 -2.03827,6.53247 -0.25362,1.96842 -2.09623,7.35319 -4.09492,11.96614 -2.52758,5.83359 -3.3857,8.70039 -2.81848,9.41582 0.44855,0.56572 3.34086,1.83153 6.42737,2.8129 5.81552,1.84904 9.84579,5.36399 9.84579,8.58691 0,2.08186 -3.51214,2.60562 -17.18537,2.56285 -13.882693,-0.0434 -21.962953,-0.94476 -23.016732,-2.56745 -0.471618,-0.72624 -0.59178,-4.21883 -0.291977,-8.48819 0.489835,-6.97697 0.452379,-7.20021 -0.980011,-5.84188 -1.424009,1.35041 -1.476714,1.22501 -1.202521,-2.86091 0.426461,-6.35462 -0.409387,-9.51162 -3.528071,-13.32554 l -2.807963,-3.43392 2.18049,-5.48602 c 1.881553,-4.73381 2.184047,-6.71922 2.206285,-14.48065 0.03093,-10.59168 -1.875862,-17.60987 -6.764196,-24.90365 -4.155266,-6.19999 -5.564181,-6.2842 -2.660984,-0.15897 5.260883,11.09945 7.218864,26.42193 4.552064,35.62286 -2.64521,9.12644 -10.421739,22.316 -12.829935,21.76051 -1.142856,-0.26355 -11.546038,9.4672 -13.299858,12.4403 -0.764879,1.29663 -1.180962,2.71272 -0.924631,3.14689 0.256346,0.43415 2.298351,1.42643 4.537818,2.20506 5.499974,1.91227 10.016909,8.10948 7.248907,9.94541 -1.888145,1.25233 -26.937709,0.85979 -29.851743,-0.46782 z M 109.52577,53.550001 c -1.10507,-3.073238 -2.0092,-5.831385 -2.0092,-6.129219 0,-0.297867 -0.73653,0.156056 -1.63671,1.008958 -1.62005,1.534725 -1.63672,1.496229 -1.63672,-3.779829 0,-5.053726 -0.0906,-5.300146 -1.74812,-4.749514 -1.82025,0.604766 -1.83986,-0.07382 -0.17135,-5.926572 0.65382,-2.293314 -1.09912,-0.972794 -2.488861,1.874875 -0.61773,1.265771 -1.392676,3.610434 -1.72211,5.210365 -0.549375,2.66814 -0.455905,2.869782 1.128969,2.435933 1.363072,-0.37311 1.728912,-0.08288 1.732502,1.374233 0.002,1.015984 0.39723,3.327493 0.87714,5.136709 0.84389,3.181246 0.92449,3.240269 2.45051,1.794645 1.24106,-1.175666 1.57788,-1.234592 1.57788,-0.27585 0,1.550913 3.90414,7.613015 4.90296,7.613015 0.41369,0 -0.15187,-2.514447 -1.25705,-5.587685 z m 24.0251,-25.037041 c -0.30775,-1.689357 -3.69614,-2.524127 -4.94391,-1.21795 -1.30134,1.362189 0.0699,2.71706 2.75009,2.71706 1.90772,0 2.40489,-0.339762 2.19382,-1.49911 z"
       id="path1" /></g></svg>
