<?xml version="1.0" encoding="UTF-8" standalone="no"?>
<!-- Created with Inkscape (http://www.inkscape.org/) -->

<svg
   width="180mm"
   height="180mm"
   viewBox="0 0 180 180"
   version="1.1"
   id="svg1"
   sodipodi:docname="bighorn_sheep.svg"
   inkscape:version="1.4.2 (f4327f4, 2025-05-13)"
   xml:space="preserve"
   xmlns:inkscape="http://www.inkscape.org/namespaces/inkscape"
   xmlns:sodipodi="http://sodipodi.sourceforge.net/DTD/sodipodi-0.dtd"
   xmlns="http://www.w3.org/2000/svg"
   xmlns:svg="http://www.w3.org/2000/svg"><sodipodi:namedview
     id="namedview1"
     pagecolor="#505050"
     bordercolor="#ffffff"
     borderopacity="1"
     inkscape:showpageshadow="0"
     inkscape:pageopacity="0"
     inkscape:pagecheckerboard="1"
     inkscape:deskcolor="#505050"
     inkscape:document-units="mm"
     inkscape:zoom="1"
     inkscape:cx="482"
     inkscape:cy="226"
     inkscape:window-width="2560"
     inkscape:window-height="1351"
     inkscape:window-x="-9"
     inkscape:window-y="-9"
     inkscape:window-maximized="1"
     inkscape:current-layer="layer1"
     showguides="true" /><defs
     id="defs1"><rect
       x="101.82338"
       y="91.923881"
       width="384.66609"
       height="299.81327"
       id="rect3" /><rect
       x="2.8284271"
       y="2.1213203"
       width="662.55905"
       height="647.0027"
       id="rect2" /></defs><g
     inkscape:label="Icon"
     inkscape:groupmode="layer"
     id="layer1"><path
       style="fill:#000000;stroke-width:3.22578"
       d="m 104.8435,177.71434 c -2.1053,-0.74626 -3.50038,-2.90934 -3.50038,-5.42734 0,-1.28597 -0.80533,-3.10418 -1.789599,-4.04043 -1.713659,-1.63007 -1.744617,-2.0452 -0.729426,-9.78296 0.959691,-7.31476 0.871018,-9.30336 -0.935581,-20.98091 -1.097678,-7.09513 -2.943868,-16.40113 -4.102635,-20.67998 -1.524539,-5.62958 -1.966019,-8.96547 -1.597303,-12.06997 0.607116,-5.111594 -0.77249,-3.78233 -2.15213,2.07364 -0.657224,2.7896 -0.564814,4.83993 0.370105,8.21109 0.685305,2.47119 1.074989,4.65579 0.865925,4.85465 -1.194587,1.13632 -17.153563,1.01491 -22.452241,-0.17083 -7.200896,-1.61138 -18.232819,-6.21699 -18.232819,-7.61185 0,-0.56787 0.590712,-2.62506 1.312664,-4.57147 1.414864,-3.81458 1.790095,-12.939646 0.561738,-13.661775 -0.413002,-0.242881 -0.993593,2.076251 -1.290239,5.153439 -0.920862,9.552916 -5.611464,17.245146 -18.04403,29.590926 -12.174484,12.08954 -12.589371,12.98851 -12.14819,26.32331 0.289403,8.74754 0.329423,8.89238 4.087752,14.80495 2.087502,3.28401 3.540997,6.36262 3.229964,6.84133 -0.730783,1.12477 -9.690783,1.13128 -11.895997,0.009 -1.123576,-0.57199 -1.692657,-1.74336 -1.692657,-3.48411 0,-1.51605 -0.773151,-3.40523 -1.832596,-4.47793 -1.731685,-1.75293 -1.840335,-2.83283 -1.973626,-19.61487 l -0.141228,-17.75978 3.275573,-3.41166 c 6.183919,-6.44086 7.221105,-11.89221 4.250446,-22.33997 -0.919539,-3.23399 -1.921864,-7.284683 -2.227407,-9.001521 -0.589918,-3.314847 -1.21215,-3.753353 -2.962919,-2.087986 -3.2056203,3.049252 -3.4685632,-8.144267 -0.328761,-13.996177 2.693328,-5.019824 6.134903,-7.471501 19.442323,-13.850103 l 5.688165,-2.726459 13.12647,0.381467 c 27.360407,0.795119 28.986684,0.688371 36.754114,-2.412036 6.426488,-2.565158 7.790417,-2.801809 16.626845,-2.884866 7.59476,-0.07142 10.34004,-0.427558 13.00939,-1.687925 6.01352,-2.839343 10.35515,-10.543562 8.9477,-15.877683 -0.70948,-2.688895 -1.92266,-2.603195 -6.14244,0.433913 -4.5809,3.296976 -5.25787,3.119881 -3.14351,-0.822428 0.97239,-1.813046 1.76797,-3.461707 1.76797,-3.663625 0,-0.201981 -1.37832,-1.140721 -3.06294,-2.086193 -3.8426,-2.156571 -6.71801,-7.280437 -4.78089,-8.519348 1.70664,-1.091515 8.51613,-0.232813 11.14454,1.405341 3.08579,1.923255 3.39996,0.802481 0.71404,-2.547162 -6.06786,-7.567301 -16.35957,-6.934301 -20.90839,1.286008 -2.107176,3.80797 -1.66077,11.51996 0.8525,14.727304 4.45839,5.689664 11.79172,6.985866 17.87129,3.158862 l 3.58955,-2.259575 -0.61794,2.770348 c -2.7566,12.358779 -20.34784,15.089265 -31.148073,4.834769 -5.930701,-5.630989 -8.051872,-11.558563 -7.589952,-21.209854 0.40976,-8.561254 2.047845,-12.401062 7.840458,-18.378753 13.065477,-13.4829509 36.969497,-10.5110941 45.673677,5.678337 3.84773,7.156638 1.79889,11.004217 -6.41806,12.052567 -4.86841,0.621139 -4.44857,1.897142 0.62299,1.893367 4.70295,-0.0031 9.36616,-2.245323 10.26325,-4.933935 0.7882,-2.362201 2.17868,-2.17076 7.13984,0.9831 2.75064,1.748614 4.95199,4.018948 6.2248,6.419879 1.08306,2.043027 3.50653,5.226995 5.38549,7.075498 8.17733,8.044819 9.64667,12.682672 5.7474,18.141065 -2.8752,4.024863 -5.31647,4.549102 -10.61779,2.280088 -2.59215,-1.109448 -7.15138,-2.052246 -11.75513,-2.430787 -7.97703,-0.655903 -10.35348,-1.666594 -13.25005,-5.635173 l -1.70423,-2.334957 0.58568,2.497234 c 1.0954,4.670541 4.67519,7.180516 11.23346,7.87628 l 4.22088,0.447819 0.45305,9.798246 c 0.388,8.391521 0.18853,10.626273 -1.3885,15.565462 -1.01288,3.17195 -2.21276,5.985399 -2.66641,6.252127 -0.45365,0.266791 -1.29619,2.76393 -1.87232,5.549411 -0.66208,3.201084 -2.10585,6.483804 -3.924,8.921954 -1.58209,2.12159 -3.712,5.29247 -4.73314,7.04637 -2.4889,4.27488 -5.249,14.81278 -5.2499,20.04365 -3.9e-4,2.33036 -0.62057,7.0464 -1.37815,10.48007 -1.89189,8.57488 -1.11907,13.76519 3.32628,22.33934 4.16667,8.03661 3.84512,8.82953 -3.26006,8.03913 -4.74762,-0.52814 -6.56325,-1.99197 -6.56325,-5.29159 0,-1.13546 -0.63269,-2.72951 -1.406,-3.54231 -1.16512,-1.22463 -1.44281,-4.0881 -1.62095,-16.71376 -0.11808,-8.37976 -0.52252,-17.91055 -0.89847,-21.17956 l -0.68352,-5.94365 4.83685,-1.33751 c 3.42914,-0.94824 5.64372,-2.21163 7.60904,-4.34083 2.83955,-3.07631 3.02345,-4.93667 0.26294,-2.6614 -2.53963,2.09334 -9.46663,5.65981 -10.99276,5.65981 -1.70708,0 -1.22402,-1.40175 2.15134,-6.24307 4.27346,-6.12943 3.95141,-7.88814 -0.49566,-2.70701 -2.45254,2.85737 -4.65323,6.53496 -5.46332,9.12979 -1.52745,4.8925 -3.14156,23.07261 -3.27472,36.88398 -0.0867,8.98541 -0.0298,9.26561 2.73501,13.36097 1.55295,2.30073 2.93123,5.1005 3.06283,6.22174 0.22359,1.90375 -0.0503,2.04929 -4.13617,2.20002 -2.40651,0.0887 -4.96618,-0.0478 -5.68813,-0.30392 z m 6.12568,-126.849366 c 0,-0.888653 -0.39379,-1.615722 -0.87509,-1.615722 -0.4813,0 -0.87509,0.958592 -0.87509,2.130175 0,1.208111 0.37877,1.907462 0.87509,1.61569 0.4813,-0.282836 0.87509,-1.241522 0.87509,-2.130143 z m 56.0063,1.431327 c 0,-1.050143 -3.468,-3.047049 -5.29177,-3.047049 -1.57693,0 -0.83013,1.281478 1.5726,2.69849 2.93061,1.728353 3.71917,1.802256 3.71917,0.348559 z M 102.72147,48.08459 c 0.46559,-1.79181 0.35307,-2.252182 -0.43695,-1.787752 -1.31002,0.770139 -2.642458,3.949734 -2.05254,4.897881 0.64542,1.037338 1.78011,-0.380241 2.48949,-3.110129 z m -7.066481,-5.840332 c 1.443903,-1.101268 2.323488,-2.291729 1.954641,-2.645478 -0.74732,-0.716687 -5.149347,2.118817 -5.691571,3.666142 -0.543052,1.549685 0.874392,1.162555 3.73693,-1.020664 z m 49.178061,-2.810555 c 1.25789,-0.760638 0.46886,-2.106674 -1.92276,-3.280051 -1.93814,-0.950852 -5.68816,-2.83e-4 -5.68816,1.441867 0,1.722658 5.57521,3.069198 7.61092,1.838184 z M 93.357861,32.913211 c 1.504066,-0.286297 2.734671,-0.869588 2.734671,-1.296485 0,-1.162586 -7.245546,-0.428533 -7.662021,0.776211 -0.400666,1.158999 0.86652,1.292804 4.92735,0.520274 z m 5.359965,-9.035563 c 0,-0.544311 -6.706795,-3.76276 -7.841021,-3.76276 -2.118525,0 -0.677797,2.327216 1.934102,3.124223 3.138677,0.957742 5.906919,1.257001 5.906919,0.638537 z M 129.96093,17.45434 c 2.7011,-2.490312 3.76511,-4.831151 2.19592,-4.831151 -0.37937,0 -2.17105,1.685628 -3.98149,3.745834 -3.77519,4.296058 -2.52269,5.057357 1.78557,1.085317 z m -26.86764,0.416137 c 0,-0.904384 -4.540241,-6.91212 -5.223727,-6.91212 -1.748388,0 -1.418899,1.353964 1.036821,4.260727 2.529776,2.994383 4.186906,4.043803 4.186906,2.651393 z m 16.81224,-6.742293 c 1.87434,-4.6944203 1.90989,-5.1642934 0.39071,-5.1642934 -1.2401,0 -3.20135,5.1163464 -3.20135,8.3513134 0,2.579976 0.9284,1.527221 2.81064,-3.18702 z m -10.54874,-0.584895 c -0.2259,-3.449658 -0.63298,-4.5793984 -1.65038,-4.5793984 -1.1009,0 -1.24897,0.7052973 -0.80091,3.8148912 0.3023,2.0981782 0.77292,4.1583842 1.04569,4.5782342 1.18076,1.817325 1.68469,0.450021 1.4056,-3.813727 z M 50.587416,173.36974 c -1.43193,-0.3765 -2.50735,-1.50407 -3.112912,-3.264 -0.508852,-1.47884 -1.788673,-3.2641 -2.844049,-3.96726 -1.110876,-0.74013 -1.91892,-2.16073 -1.91892,-3.37365 0,-3.01068 -3.869526,-13.54455 -7.482195,-20.36839 -1.88459,-3.55977 -2.894191,-6.47141 -2.57532,-7.42711 0.288411,-0.86459 3.265189,-4.44217 6.614948,-7.95019 3.349759,-3.50801 6.760773,-7.45762 7.58003,-8.77688 1.661666,-2.67575 1.895305,-2.65936 9.540822,0.67015 5.464183,2.37957 5.654032,1.61641 -2.506027,10.07341 -7.422528,7.69261 -7.948116,8.65296 -7.504189,13.71151 0.412175,4.69656 5.871827,16.33129 11.685344,24.90189 1.76304,2.59923 2.944496,5.12767 2.625426,5.61878 -0.634304,0.97624 -6.624902,1.06622 -10.102958,0.15165 z M 153.60687,26.353865 c -0.85511,-1.118037 -3.33388,-3.024555 -5.50834,-4.236723 -2.72957,-1.52159 -4.59197,-3.396804 -6.0157,-6.057037 -1.13419,-2.119227 -3.08562,-4.761244 -4.3365,-5.871164 -1.25092,-1.1099193 -2.27439,-2.504972 -2.27439,-3.100155 0,-1.6743968 5.28844,-3.8905239 9.29552,-3.895306 10.03648,-0.012584 15.62879,9.644903 12.47804,21.547243 -0.53845,2.034061 -1.22756,3.686498 -1.53141,3.67212 -0.30396,-0.01573 -1.25208,-0.940942 -2.10722,-2.058978 z m 1.99231,-7.386619 c 0,-1.395619 -4.49979,-3.290213 -6.71278,-2.826317 -1.21698,0.25515 -0.76161,0.749846 1.89977,2.064012 4.31068,2.128602 4.81301,2.208168 4.81301,0.762305 z m -2.13622,-9.2839804 c -1.6138,-1.1611072 -5.73966,-1.7211481 -5.73966,-0.7791053 0,0.6633595 3.69112,1.9449627 5.68817,1.9749457 1.72665,0.02517 1.72735,0.0094 0.0516,-1.1958404 z"
       id="path1" /></g></svg>
