<?xml version="1.0" encoding="UTF-8" standalone="no"?>
<!-- Created with Inkscape (http://www.inkscape.org/) -->

<svg
   width="240mm"
   height="180mm"
   viewBox="0 0 240 180"
   version="1.1"
   id="svg1"
   sodipodi:docname="boar.svg"
   inkscape:version="1.4.2 (f4327f4, 2025-05-13)"
   xml:space="preserve"
   xmlns:inkscape="http://www.inkscape.org/namespaces/inkscape"
   xmlns:sodipodi="http://sodipodi.sourceforge.net/DTD/sodipodi-0.dtd"
   xmlns="http://www.w3.org/2000/svg"
   xmlns:svg="http://www.w3.org/2000/svg"><sodipodi:namedview
     id="namedview1"
     pagecolor="#505050"
     bordercolor="#ffffff"
     borderopacity="1"
     inkscape:showpageshadow="0"
     inkscape:pageopacity="0"
     inkscape:pagecheckerboard="1"
     inkscape:deskcolor="#505050"
     inkscape:document-units="mm"
     inkscape:zoom="1"
     inkscape:cx="298"
     inkscape:cy="306"
     inkscape:window-width="2560"
     inkscape:window-height="1351"
     inkscape:window-x="-9"
     inkscape:window-y="-9"
     inkscape:window-maximized="1"
     inkscape:current-layer="layer1"
     showguides="true" /><defs
     id="defs1"><rect
       x="101.82338"
       y="91.923882"
       width="384.66608"
       height="299.81326"
       id="rect3" /><rect
       x="2.8284271"
       y="2.1213202"
       width="662.55902"
       height="647.00269"
       id="rect2" /></defs><g
     inkscape:label="Icon"
     inkscape:groupmode="layer"
     id="layer1"><path
       style="fill:#000000;stroke-width:3.7956"
       d="m 131.88062,165.19058 c -0.57062,-0.69951 -1.35468,-2.55767 -1.74236,-4.12919 -0.59462,-2.41035 -1.08292,-2.76081 -3.12151,-2.24025 l -2.41662,0.61708 0.67068,-8.40965 c 0.42467,-5.32495 0.22916,-10.57352 -0.53305,-14.30887 -1.05572,-5.174 -1.45225,-5.83315 -3.22521,-5.3614 -1.89015,0.50287 -1.97912,0.21286 -1.36933,-4.46407 0.6071,-4.65619 -0.32053,-6.59808 -1.90547,-3.98896 -1.46559,2.41269 -2.11554,0.65207 -1.40233,-3.7986 0.43751,-2.73018 0.32829,-7.22155 -0.25249,-10.38282 -0.89666,-4.88061 -0.71299,-6.63804 1.48159,-14.176943 2.39369,-8.222817 2.63186,-11.287724 0.62779,-8.078789 -0.51183,0.819568 -2.32541,4.875179 -4.03017,9.012449 -2.43158,5.901213 -2.95016,8.302563 -2.40629,11.142553 0.3813,1.99108 0.926,4.87372 1.21044,6.40581 l 0.51716,2.78565 H 101.98306 89.98268 l -0.309016,3.70255 -0.309017,3.70254 -3.079621,-2.64595 c -1.693788,-1.45529 -7.088906,-4.6313 -11.989147,-7.05781 -4.900244,-2.4265 -9.388336,-4.71292 -9.973545,-5.08092 -0.698301,-0.43909 -0.173323,-2.50012 1.527427,-5.99654 1.869843,-3.844053 2.692018,-7.353943 2.952646,-12.605003 0.334379,-6.73709 -1.095838,-14.542027 -2.663223,-14.533604 -0.368209,0.002 -0.671716,4.446345 -0.674414,9.876347 -0.0045,9.233007 -0.216786,10.270647 -3.274589,16.01302 -4.564059,8.57106 -10.702511,15.3658 -20.526288,22.72085 -9.527151,7.133 -11.538855,10.56885 -11.538855,19.70775 0,4.28873 0.756109,6.95302 3.484684,12.27897 1.916577,3.74102 3.484685,7.15011 3.484685,7.57576 0,1.34434 -9.3747,2.15177 -12.217245,1.05222 -2.189968,-0.84713 -2.720068,-1.69461 -2.732358,-4.3682 -0.01994,-4.36178 -1.17392,-6.09915 -3.45838,-5.20726 -1.681849,0.65662 -1.751874,0.3304 -0.916401,-4.27077 0.497527,-2.73995 0.904765,-10.32444 0.904972,-16.85445 l 3.73e-4,-11.87279 3.157605,-2.93861 c 1.736679,-1.61624 3.706399,-4.80224 4.377148,-7.07997 1.111846,-3.77563 0.932246,-5.06185 -2.033669,-14.564383 -2.100936,-6.73124 -3.437105,-13.392372 -3.772383,-18.806256 -0.491254,-7.932426 -0.61366,-8.296172 -2.2764,-6.765231 -0.966474,0.889859 -2.752922,3.972798 -3.969884,6.850951 -1.901204,4.496422 -2.127788,6.352748 -1.60973,13.187776 0.657762,8.678183 -0.544749,13.289153 -4.6231607,17.727183 -4.4810815,4.87625 -5.3763074,4.65183 -4.6199959,-1.15819 0.7326272,-5.62813 0.3891681,-7.10574 -1.096207,-4.71614 -0.7508815,1.20796 -0.9291304,1.10528 -0.9414918,-0.5425 C 1.2389776,99.400297 3.182353,94.212027 5.599248,91.579817 7.2797603,89.749607 8.1975001,87.239485 8.6747597,83.167912 9.7710081,73.815724 13.992154,66.640155 24.409087,56.420926 35.184635,45.849859 44.288328,39.406107 51.409205,37.309773 c 2.804923,-0.825731 11.372292,-2.179757 19.038591,-3.008896 13.574964,-1.46823 18.015473,-2.351389 23.646064,-4.70297 2.952086,-1.232931 3.671784,-2.923635 1.244529,-2.923635 -0.821392,0 -1.493435,-0.396174 -1.493435,-0.880402 0,-1.057165 5.85526,-2.131902 11.698576,-2.147331 4.68104,-0.01149 5.03263,-0.470293 2.52519,-3.289219 -1.66288,-1.869457 -1.4796,-1.914786 7.21828,-1.785498 4.90846,0.07274 9.37251,0.100307 9.9201,0.06087 0.54759,-0.03943 -0.34845,-1.192884 -1.99125,-2.562875 l -2.98687,-2.490938 2.50907,-0.03829 c 1.37999,-0.01914 5.74262,0.875233 9.69473,1.989519 8.39014,2.365478 9.00456,2.432668 7.40999,0.81034 -3.2408,-3.29722 0.43912,-2.858321 9.23857,1.101882 5.80881,2.614254 5.77869,2.613565 4.99884,0.113706 -0.34759,-1.114247 -0.32982,-2.02589 0.0395,-2.02589 1.75151,0 13.84615,6.541531 17.86466,9.662334 2.48304,1.928378 4.72356,3.506104 4.97893,3.506104 0.25536,0 0.19492,-1.481439 -0.13434,-3.292129 -0.5975,-3.285696 -0.58691,-3.280451 5.447,2.699745 l 6.04566,5.991873 4.28522,-3.844007 c 2.35687,-2.114213 4.80527,-4.500136 5.44084,-5.302054 0.98579,-1.243727 1.23118,-1.18718 1.66964,0.384535 1.31155,4.701898 1.4334,10.337491 0.31346,14.504585 -1.10881,4.125938 -1.01447,4.990644 0.99452,9.11662 1.22067,2.507056 3.60588,7.609453 5.30043,11.338644 2.15924,4.751821 4.3365,7.763244 7.27765,10.065629 2.30814,1.806899 7.39709,6.390918 11.30879,10.186686 5.59989,5.433984 7.75732,6.90141 10.14637,6.90141 4.21281,0 4.6421,1.359536 2.10968,6.681846 -5.22818,10.988033 -9.15426,12.738423 -16.78006,7.481163 -7.18539,-4.953663 -11.18108,-3.653853 -4.56074,1.48366 1.92684,1.49526 3.24448,3.14477 2.92809,3.66556 -0.76881,1.26566 -12.11343,1.20624 -18.081,-0.0946 -3.66304,-0.79858 -5.87124,-0.70678 -9.46155,0.39327 -3.40471,1.04323 -4.78927,1.12018 -5.0714,0.28178 -0.37945,-1.12738 -1.44934,-0.87451 -7.92888,1.87405 -1.34761,0.57163 -1.6111,0.366 -1.13801,-0.88837 0.86631,-2.29687 0.0779,-2.13439 -11.86841,2.44576 -5.85006,2.24289 -11.96869,4.34907 -13.59696,4.68039 -1.62826,0.33116 -3.44214,1.19288 -4.03085,1.91459 -1.91308,2.34526 2.33017,2.65679 8.70256,0.63894 l 5.98689,-1.89576 0.57247,9.2201 c 0.69805,11.24263 3.55331,20.41671 8.79322,28.25301 2.15677,3.22547 3.65542,6.30232 3.33033,6.83747 -0.66714,1.09825 -5.69722,1.27757 -10.19039,0.36333 -2.27192,-0.4623 -3.22041,-1.38071 -3.92288,-3.7986 -0.71113,-2.44768 -1.43209,-3.13279 -3.10179,-2.94757 -1.97096,0.21861 -2.17533,-0.22129 -2.17533,-4.68421 0,-5.97794 -1.93838,-11.86663 -5.79342,-17.60004 -6.29695,-9.36517 -6.46398,-10.10744 -3.70349,-16.45808 1.35334,-3.11341 3.37174,-6.96255 4.48533,-8.55368 3.18391,-4.54925 2.37761,-4.86139 -1.81029,-0.70084 -5.64499,5.60818 -7.84046,11.01261 -10.17329,25.04299 -2.67159,16.0678 -2.27386,19.76637 2.95458,27.47509 2.25433,3.32379 3.84508,6.46087 3.535,6.97132 -0.86323,1.42106 -11.98431,1.13117 -13.18743,-0.3438 z m 99.83265,-67.558933 c 1.72311,-3.39014 1.93259,-5.11511 0.62116,-5.11511 -1.22234,0 -5.0613,6.29525 -4.45132,7.29938 0.94711,1.559123 2.32767,0.771793 3.83016,-2.18427 z m -55.23153,0.0624 c 0,-0.4951 -1.52307,-1.19093 -3.38459,-1.54621 -2.75227,-0.52531 -3.28851,-1.0198 -2.87034,-2.64676 0.41054,-1.59725 -0.11161,-2.12807 -2.58916,-2.63221 -2.92137,-0.59445 -3.1034,-0.89836 -3.1034,-5.181304 0,-4.051129 -0.21825,-4.491789 -1.99125,-4.020041 -1.09518,0.291349 -1.99125,0.42726 -1.99125,0.302068 0,-0.125192 0.70253,-2.63466 1.56117,-5.576365 0.85865,-2.941706 1.35556,-5.55776 1.10424,-5.813427 -1.02866,-1.046598 -4.75168,5.915418 -5.59789,10.467966 -1.02352,5.506496 -0.0645,7.499882 2.54865,5.297536 1.55137,-1.30751 1.63888,-1.13159 1.05428,2.119497 -0.79722,4.4334 0.40875,6.55669 3.28879,5.79042 1.65775,-0.44105 2.03459,-0.21402 1.59211,0.95911 -0.31884,0.84534 -0.32779,1.95162 -0.0199,2.45848 0.7226,1.18955 10.39852,1.20942 10.39852,0.023 z m 35.47325,-1.68974 c 2.15239,-3.34209 2.86318,-11.24952 1.36066,-15.136789 l -1.17458,-3.038873 -1.82941,5.947692 c -1.00615,3.271225 -3.04941,7.24326 -4.54054,8.82676 -2.26584,2.40622 -2.50265,3.13463 -1.44178,4.43513 1.96766,2.41219 5.73532,1.90139 7.62565,-1.03392 z m -9.12742,-3.84056 c 2.44041,-1.81556 1.35132,-3.31794 -3.0084,-4.150063 -1.96149,-0.374427 -4.2066,-0.93067 -4.9891,-1.236184 -2.32999,-0.909652 -1.61735,1.600428 1.2117,4.267977 3.01182,2.83987 4.20695,3.0368 6.7858,1.11827 z m -7.42899,-26.299591 c 0,-2.485693 -3.98502,-5.762278 -7.00815,-5.762278 -3.99431,0 -3.85217,2.507821 0.28768,5.075904 3.72165,2.308625 6.72047,2.614905 6.72047,0.686374 z M 164.04542,53.020719 c -2.93039,-3.111921 -4.25718,-8.522321 -4.41661,-18.010114 l -0.0727,-4.325671 3.95605,2.053378 c 4.66141,2.41946 10.97831,8.566771 10.97831,10.683549 0,0.817117 0.44802,1.48565 0.99562,1.48565 1.44176,0 1.22132,-3.712881 -0.40893,-6.887742 -2.11291,-4.114874 -6.50094,-7.947281 -11.86001,-10.35828 -7.11729,-3.202005 -7.64354,-2.642279 -7.64354,8.130168 0,10.325737 1.34273,14.743714 5.48956,18.062412 4.27241,3.419197 6.42125,2.818734 2.98223,-0.83335 z M 67.77571,160.7123 c -0.922067,-0.2477 -1.964602,-1.78496 -2.316754,-3.41621 -0.768966,-3.56204 -2.087299,-4.5803 -3.923136,-3.03018 -1.100177,0.92899 -1.56389,0.16769 -2.445607,-4.01526 -1.283155,-6.08731 -3.086872,-9.90307 -7.790109,-16.47997 -4.320142,-6.04119 -4.026004,-7.34889 3.56715,-15.85881 l 5.811211,-6.51281 5.648356,2.3324 c 3.106594,1.28281 5.85251,2.6685 6.102033,3.07926 0.249524,0.41076 -1.586193,3.41954 -4.079367,6.68617 -3.728823,4.88559 -4.430447,6.46125 -3.954734,8.88121 0.809814,4.11954 7.846362,16.79981 12.50649,22.53739 2.147609,2.64416 3.675859,5.18437 3.396111,5.64486 -0.519857,0.85578 -9.495999,0.96474 -12.521644,0.15199 z"
       id="path1" /></g></svg>
