<?xml version="1.0" encoding="UTF-8" standalone="no"?>
<!-- Created with Inkscape (http://www.inkscape.org/) -->

<svg
   width="180mm"
   height="180mm"
   viewBox="0 0 180 180"
   version="1.1"
   id="svg1"
   sodipodi:docname="chicken.svg"
   inkscape:version="1.4.2 (f4327f4, 2025-05-13)"
   xml:space="preserve"
   xmlns:inkscape="http://www.inkscape.org/namespaces/inkscape"
   xmlns:sodipodi="http://sodipodi.sourceforge.net/DTD/sodipodi-0.dtd"
   xmlns="http://www.w3.org/2000/svg"
   xmlns:svg="http://www.w3.org/2000/svg"><sodipodi:namedview
     id="namedview1"
     pagecolor="#505050"
     bordercolor="#ffffff"
     borderopacity="1"
     inkscape:showpageshadow="0"
     inkscape:pageopacity="0"
     inkscape:pagecheckerboard="1"
     inkscape:deskcolor="#505050"
     inkscape:document-units="mm"
     inkscape:zoom="1"
     inkscape:cx="482"
     inkscape:cy="226"
     inkscape:window-width="2560"
     inkscape:window-height="1351"
     inkscape:window-x="-9"
     inkscape:window-y="-9"
     inkscape:window-maximized="1"
     inkscape:current-layer="layer1"
     showguides="true" /><defs
     id="defs1"><rect
       x="101.82338"
       y="91.923881"
       width="384.66609"
       height="299.81327"
       id="rect3" /><rect
       x="2.8284271"
       y="2.1213203"
       width="662.55905"
       height="647.0027"
       id="rect2" /></defs><g
     inkscape:label="Icon"
     inkscape:groupmode="layer"
     id="layer1"><path
       style="fill:#000000;stroke-width:3.40899"
       d="m 105.74083,173.91977 c -6.757037,-3.64086 -7.419047,-3.82275 -10.771687,-2.95947 -4.716346,1.21443 -9.020475,1.20868 -8.207583,-0.01 0.344812,-0.51722 2.377714,-1.63635 4.517707,-2.48696 7.369591,-2.92921 8.281891,-7.03884 2.227753,-10.03505 -4.406298,-2.18069 -4.509494,-3.29161 -0.236836,-2.54832 1.8326,0.31875 3.278331,0.21502 3.278331,-0.23536 0,-3.32251 -2.348048,-11.26796 -4.035537,-13.65562 -1.129028,-1.59756 -2.716826,-4.03452 -3.528409,-5.41552 -0.959207,-1.63222 -3.642012,-3.4998 -7.666433,-5.33696 -6.170468,-2.81674 -14.743006,-10.29162 -14.743006,-12.85517 0,-0.66487 -0.410942,-1.20888 -0.913256,-1.20888 -0.529537,0 -0.659957,1.18597 -0.310472,2.82278 0.530635,2.48434 0.427829,2.68931 -0.857427,1.70973 -0.803157,-0.61216 -2.393787,-3.12512 -3.534711,-5.58438 -1.622916,-3.49823 -1.992332,-5.66612 -1.697437,-9.96092 0.207454,-3.01925 0.262326,-5.48954 0.12249,-5.48954 -0.139836,0 -0.839479,1.07482 -1.554521,2.38848 -1.770789,3.25347 -2.396123,8.55912 -1.589603,13.48702 0.369168,2.25557 0.373841,4.101 0.01062,4.101 -1.693082,0 -5.761543,-7.19802 -6.677206,-11.81348 -1.619306,-8.16223 1.661044,-15.988262 8.336374,-19.88839 3.675396,-2.147403 3.898922,-3.415439 0.469461,-2.663244 -4.306395,0.94456 -9.940705,5.130512 -12.353361,9.177737 -1.804031,3.026342 -2.394672,5.574077 -2.810004,12.121067 l -0.52582,8.28934 -2.596036,-3.5452 c -3.30375,-4.51166 -4.428991,-8.1954 -4.428991,-14.499276 0,-11.914185 8.920749,-20.01379 22.16885,-20.128323 5.217845,-0.04497 6.480373,-0.774156 2.887038,-1.667113 -4.6739,-1.161447 -11.537672,-0.503039 -16.331406,1.566564 -5.457373,2.356117 -8.390928,5.839179 -11.5256,13.684572 -1.221604,3.057299 -3.219494,5.955321 -5.239299,7.59975 -4.716522,3.839996 -6.413782,3.625926 -3.53648,-0.446019 0.916442,-1.296924 1.846973,-5.294515 2.305885,-9.906133 0.905927,-9.10368 2.255649,-12.477527 6.897864,-17.242217 8.566591,-8.792514 20.906464,-9.481058 32.890975,-1.835186 2.348791,1.498481 4.477031,2.533053 4.729374,2.299063 0.971208,-0.900606 -6.914822,-7.036014 -11.66834,-9.078108 -6.872977,-2.952581 -15.900922,-2.580061 -21.554773,0.889345 -4.745269,2.911875 -5.189949,2.93144 -4.449453,0.195648 0.323217,-1.194274 0.324279,-2.171366 0.0022,-2.171366 -1.001229,0 -4.486944,4.41748 -7.133463,9.040291 l -2.531676,4.422142 -0.04425,-3.914178 c -0.06762,-5.992579 1.431819,-9.541361 5.758994,-13.629784 4.017058,-3.795411 4.137282,-4.518784 0.457743,-2.754274 -1.66823,0.799991 -1.540997,0.482162 0.689235,-1.721671 3.759687,-3.715214 10.011295,-5.778252 17.403225,-5.743094 10.207491,0.04858 18.911334,4.931089 25.408771,14.253461 3.634826,5.215206 3.603319,1.984254 -0.03823,-3.902491 -5.831472,-9.427039 -14.994616,-14.607809 -25.911591,-14.650057 -5.622911,-0.02298 -7.57046,0.404033 -12.829867,2.804892 -10.977901,5.01135 -17.16476,13.471722 -20.304564,27.765955 -1.632582,7.432595 -1.685366,7.523493 -2.882224,4.965557 -0.670542,-1.43309 -1.25481,-5.927811 -1.2983541,-9.988266 -0.08461,-7.89959 1.5369611,-13.365166 5.6480811,-19.03591 1.18337,-1.632317 1.95647,-3.260595 1.71804,-3.618375 -0.617687,-0.926703 6.228703,-6.174013 11.577782,-8.873597 5.230094,-2.639543 14.056002,-4.950982 18.904644,-4.950982 1.840176,0 5.650488,0.60385 8.467395,1.341864 2.816907,0.738014 6.076193,1.485909 7.242853,1.661992 4.266533,0.643965 10.503095,4.919764 14.246994,9.767801 4.638958,6.007055 7.196796,13.349705 8.050966,23.111596 0.35476,4.054054 0.970394,7.859214 1.368096,8.455875 0.574851,0.862526 1.906236,0.869059 6.495136,0.03283 11.108569,-2.026534 18.824209,-6.499426 22.035379,-12.774381 0.88228,-1.724002 2.65204,-6.704889 3.9328,-11.068631 3.07616,-10.480735 6.82214,-17.610535 12.12715,-23.081856 4.852,-5.004063 10.07735,-7.8687 14.35337,-7.8687 1.56603,0 2.84732,-0.383385 2.84732,-0.851989 0,-1.788277 -4.73571,-1.872018 -10.02114,-0.177265 -6.57029,2.106763 -9.84186,1.665209 -12.93748,-1.74616 -1.71511,-1.89004 -2.33141,-3.58476 -2.33141,-6.41099 0,-4.3217237 0.63854,-4.5944822 5.94389,-2.5389946 1.84946,0.7165446 3.60145,1.3027996 3.8933,1.3027996 0.29171,0 0.25099,-1.9542161 -0.0906,-4.3426995 -0.74917,-5.2366087 -0.0591,-5.4081291 5.24043,-1.3025704 4.35883,3.3768678 5.61965,3.2793719 5.61965,-0.4345293 0,-1.3767263 0.36022,-2.709563 0.80051,-2.9618704 0.88068,-0.5047132 3.58866,2.0746585 6.07318,5.7846533 1.99088,2.9729003 2.82926,2.9983733 4.23931,0.1286814 0.91534,-1.8628267 1.35308,-2.0729843 2.49202,-1.196474 0.7599,0.5848108 1.38166,1.7433697 1.38166,2.574579 0,0.8312419 1.26451,2.9867529 2.81,4.7900969 3.28244,3.829978 3.5305,6.299018 0.9397,9.353132 l -1.87033,2.204817 3.42822,1.649682 c 1.88549,0.907335 4.01394,2.467694 4.72983,3.467502 1.26837,1.771306 1.16553,1.819299 -4.02176,1.876779 -2.9279,0.03283 -5.52007,0.241277 -5.76038,0.464106 -0.24038,0.222894 0.90837,2.939154 2.55267,6.036238 3.64934,6.873751 2.91681,10.917037 -2.30224,12.707251 -5.33697,1.830689 -9.68656,-3.440684 -8.66518,-10.501646 0.58738,-4.060848 -0.62381,-4.437208 -2.05224,-0.637662 -2.35112,6.253914 -0.14266,12.140888 5.23056,13.942526 3.35087,1.123565 5.70033,5.184972 8.24971,14.260815 1.88153,6.698356 1.78353,12.358005 -0.38729,22.364522 -3.0529,14.07239 -9.44349,22.98567 -21.89895,30.54347 -5.37535,3.26168 -7.52327,5.19823 -9.54169,8.60268 -1.4326,2.41638 -4.26109,6.2526 -6.28549,8.52491 -2.70582,3.03717 -3.51779,4.60748 -3.06561,5.92856 1.3589,3.97018 6.83684,14.35293 8.04917,15.25623 0.71111,0.52986 4.15576,1.23911 7.65478,1.57618 4.85994,0.46811 6.96067,1.11834 8.89834,2.75421 l 2.53649,2.14142 -4.21499,-0.54082 c -2.31827,-0.29741 -4.95265,-0.73401 -5.85419,-0.97016 -2.2475,-0.58872 -2.05832,0.0886 0.75293,2.69541 3.92522,3.63975 1.86371,3.85194 -5.39687,0.5555 -6.02409,-2.73504 -7.57645,-3.07867 -13.15273,-2.91148 -3.4774,0.10439 -6.32139,-0.0975 -6.31997,-0.44822 0.001,-0.35079 1.57703,-1.41947 3.50143,-2.37486 1.9244,-0.95543 3.63033,-2.37365 3.79091,-3.15164 0.43052,-2.08536 -2.35282,-4.23099 -5.48845,-4.23099 -3.35349,0 -3.61168,-1.34666 -0.40142,-2.09377 1.28791,-0.29971 2.34164,-1.13935 2.34164,-1.86585 0,-1.76165 -3.26138,-7.61386 -4.98037,-8.93672 -1.1724,-0.90228 -0.77116,-1.8837 2.77481,-6.78705 4.04874,-5.59866 4.84185,-8.95146 1.09657,-4.63588 -3.4119,3.93148 -9.63119,9.94661 -12.82544,12.40439 l -3.14009,2.41609 0.64219,6.35479 c 0.75635,7.4843 1.9068,12.60444 3.07562,13.68825 0.46139,0.42783 3.55003,1.21243 6.86363,1.74353 6.82752,1.09429 11.17643,2.85463 11.17643,4.52394 0,0.92985 -1.04537,0.93356 -5.8225,0.0197 -3.2024,-0.61193 -6.01683,-0.93242 -6.25434,-0.71218 -0.23754,0.22027 0.48585,1.19322 1.60748,2.16217 1.95127,1.68566 2.81015,4.39329 1.33684,4.21442 -0.38637,-0.0469 -3.94226,-1.83096 -7.90199,-3.96454 z m -3.57216,-56.23355 c 3.86373,-1.27542 8.64988,-2.70589 10.63588,-3.17882 5.22262,-1.24362 8.69294,-3.08832 13.4352,-7.14165 7.08641,-6.05696 10.0114,-13.477474 7.45593,-18.915246 l -1.40084,-2.980877 -0.0857,3.908434 c -0.16497,7.536722 -6.10887,15.702149 -14.2835,19.621969 l -2.9509,1.415 1.99531,-3.13585 c 1.09741,-1.72472 1.80244,-3.13585 1.56666,-3.13585 -0.23577,0 -2.3974,1.3935 -4.80368,3.09666 -8.29573,5.87174 -19.489721,9.85695 -31.641505,11.2648 -8.527437,0.98793 -5.171788,2.42348 4.517778,1.93268 5.91462,-0.29971 10.690546,-1.14408 15.559227,-2.75125 z M 86.040641,113.2539 c 3.235992,-0.70745 7.661761,-2.11428 9.834996,-3.12626 4.545643,-2.11671 10.347433,-5.98845 9.772583,-6.52152 -0.21453,-0.19893 -4.56267,1.18478 -9.662378,3.07499 -5.09971,1.89024 -12.117338,4.09423 -15.594698,4.8978 -3.477395,0.80357 -6.322517,1.80436 -6.322517,2.22399 0,1.14375 5.351734,0.89834 11.972014,-0.549 z m -1.655061,-6.94367 c 2.197697,-0.71901 5.45801,-2.14524 7.245119,-3.1694 2.545554,-1.45879 2.950477,-2.01721 1.869524,-2.57816 -0.899378,-0.4667 -3.679326,0.33444 -7.983986,2.30087 -3.632313,1.6593 -7.036816,3.01689 -7.56561,3.01689 -0.528794,0 -1.221958,0.39084 -1.540324,0.86853 -0.860295,1.29072 3.40645,1.05601 7.975277,-0.43873 z m 3.370411,-9.975662 c 1.9678,-1.925592 3.959389,-4.133265 4.425699,-4.905944 0.715962,-1.186298 0.37639,-1.151074 -2.182546,0.226505 -2.84275,1.530324 -9.373854,8.04567 -9.373854,9.351161 0,1.1451 3.589867,-1.206846 7.130701,-4.671722 z m 67.708679,-9.998738 2.6747,-3.91083 1.16496,2.607997 c 0.64077,1.434403 1.59052,2.607997 2.11061,2.607997 1.53151,0 0.0797,-5.834452 -2.18587,-8.784866 l -2.06459,-2.688554 -1.08644,2.913943 c -0.59755,1.602674 -1.55134,3.678875 -2.11953,4.613785 -0.92069,1.51496 -1.15034,1.278738 -2.11079,-2.171334 -1.51466,-5.440792 -2.93401,-9.516773 -3.31401,-9.516773 -0.17772,0 -0.83722,1.465654 -1.46563,3.257017 -0.62842,1.791395 -1.68654,3.9905 -2.35134,4.886903 -1.08262,1.459746 -1.42039,0.983855 -3.23631,-4.559849 -1.11515,-3.404344 -2.15557,-6.189704 -2.31212,-6.189704 -0.15647,0 -1.15498,1.367961 -2.21883,3.039899 -1.06385,1.671939 -2.34415,3.0399 -2.84512,3.0399 -0.50101,0 -1.18288,-1.856524 -1.51533,-4.125583 -1.08382,-7.397142 -1.15806,-7.464207 -4.43388,-4.004583 -2.6256,2.772853 -3.01601,2.933606 -3.6269,1.493196 -0.37649,-0.887803 -0.727,-3.372994 -0.77887,-5.522662 -0.0807,-3.340824 -0.24427,-3.656159 -1.12584,-2.171334 -0.56735,0.955394 -2.31711,3.00146 -3.88834,4.546818 -1.57126,1.545391 -2.56247,3.082706 -2.20272,3.416293 0.35975,0.333586 1.15285,0.14411 1.76247,-0.421268 1.9204,-1.780726 2.60705,-1.1364 2.60705,2.44639 0,4.036426 1.45129,4.489601 5.6017,1.749213 l 2.6125,-1.724986 1.06771,3.931839 c 1.28745,4.741119 3.14232,5.6325 6.19213,2.975756 l 2.26535,-1.973421 0.9904,2.514933 c 0.54473,1.383226 1.46064,3.609577 2.03531,4.947502 l 1.04491,2.432537 2.49377,-2.21542 c 3.0844,-2.740092 3.44921,-2.747314 4.17055,-0.08239 0.89177,3.294702 2.33432,6.552408 2.90149,6.552408 0.28179,0 1.71577,-1.759882 3.18685,-3.910797 z M 152.2804,27.277164 c 0,-2.586659 -3.65639,-2.328246 -4.05582,0.286579 -0.25737,1.683953 0.0574,1.97562 1.87335,1.737067 1.45497,-0.191052 2.18247,-0.865678 2.18247,-2.023711 z"
       id="path1" /></g></svg>
