<?xml version="1.0" encoding="UTF-8" standalone="no"?>
<!-- Created with Inkscape (http://www.inkscape.org/) -->

<svg
   width="180mm"
   height="180mm"
   viewBox="0 0 180 180"
   version="1.1"
   id="svg1"
   sodipodi:docname="dog.svg"
   inkscape:version="1.4.2 (f4327f4, 2025-05-13)"
   xml:space="preserve"
   xmlns:inkscape="http://www.inkscape.org/namespaces/inkscape"
   xmlns:sodipodi="http://sodipodi.sourceforge.net/DTD/sodipodi-0.dtd"
   xmlns="http://www.w3.org/2000/svg"
   xmlns:svg="http://www.w3.org/2000/svg"><sodipodi:namedview
     id="namedview1"
     pagecolor="#505050"
     bordercolor="#ffffff"
     borderopacity="1"
     inkscape:showpageshadow="0"
     inkscape:pageopacity="0"
     inkscape:pagecheckerboard="1"
     inkscape:deskcolor="#505050"
     inkscape:document-units="mm"
     inkscape:zoom="1"
     inkscape:cx="482"
     inkscape:cy="226"
     inkscape:window-width="2560"
     inkscape:window-height="1351"
     inkscape:window-x="-9"
     inkscape:window-y="-9"
     inkscape:window-maximized="1"
     inkscape:current-layer="layer1"
     showguides="true" /><defs
     id="defs1"><rect
       x="101.82338"
       y="91.923881"
       width="384.66609"
       height="299.81327"
       id="rect3" /><rect
       x="2.8284271"
       y="2.1213203"
       width="662.55905"
       height="647.0027"
       id="rect2" /></defs><g
     inkscape:label="Icon"
     inkscape:groupmode="layer"
     id="layer1"><path
       style="fill:#000000;stroke-width:2.26148"
       d="m 117.01678,172.06031 c -2.52932,-0.49196 -3.84231,-2.44798 -5.03212,-7.49658 -0.52122,-2.21155 -1.43855,-5.05383 -2.03851,-6.31615 -0.87096,-1.83251 -1.08889,-3.64065 -1.08112,-8.96991 0.0109,-8.04337 -1.09014,-33.82871 -1.64115,-38.40537 -0.21677,-1.80092 -0.65466,-3.27168 -0.97298,-3.26836 -0.31831,0.002 -0.83917,2.22276 -1.15748,4.93204 -0.31831,2.70928 -0.73272,5.08693 -0.92085,5.28366 -0.82514,0.86265 -11.990805,-2.98758 -20.398263,-7.03387 -9.637151,-4.63814 -14.450334,-6.20332 -19.122714,-6.21844 l -2.823019,-0.009 0.33557,-2.31978 c 1.051484,-7.268538 1.084427,-8.562122 0.237224,-9.313671 -1.290612,-1.144906 -1.850565,0.04045 -2.996086,6.343063 -2.76993,15.239688 -8.312862,24.762788 -21.43759,36.831128 -3.852739,3.54264 -5.737228,5.76984 -6.662734,7.8744 -1.350049,3.06993 -2.890003,11.62523 -2.893774,16.07654 -0.0021,2.48139 0.114861,2.65551 2.561084,3.8121 2.75049,1.30048 4.589427,4.0837 4.272149,6.46584 -0.170837,1.28266 -0.500292,1.3587 -6.604223,1.52407 -5.57971,0.15127 -6.601337,0.021 -7.769974,-0.99057 -1.738642,-1.50485 -1.928579,-4.53232 -1.307149,-20.83498 l 0.471613,-12.37228 3.346497,-4.33029 c 6.399689,-8.28107 7.676649,-13.323 7.050372,-27.83763 -0.427076,-9.897908 0.189691,-15.318488 2.374185,-20.866117 0.802022,-2.036762 1.327224,-3.843247 1.167115,-4.014371 C 33.812757,80.434276 31.686936,79.367345 29.248835,78.234457 20.021203,73.946743 14.308877,69.108064 9.9347294,61.874266 5.9387598,55.265879 3.5300201,45.056305 4.3900173,38.372679 c 0.3648807,-2.835727 1.4760923,-4.512543 2.3625374,-3.56504 0.1573836,0.168341 0.9389274,2.913046 1.7367454,6.099576 2.1341459,8.523897 4.7126699,13.774357 9.0253079,18.37757 4.832399,5.15799 12.019267,9.070935 19.032799,10.362554 l 4.955296,0.912595 4.297092,-1.894023 c 5.926981,-2.612441 12.03445,-3.591764 26.883592,-4.31072 7.002883,-0.339067 14.425353,-1.009742 16.494374,-1.490402 6.149599,-1.428607 13.003419,-4.629072 16.861799,-7.873773 2.10327,-1.768749 6.00934,-8.975705 7.42229,-13.694653 l 0.69711,-2.328131 5.01661,5.020885 c 6.28353,6.28889 8.56324,7.607047 12.46335,7.206465 3.77487,-0.387698 5.77355,-2.632899 6.73067,-7.560963 0.78414,-4.037307 0.48144,-7.357832 -1.48573,-16.298255 -0.77334,-3.514655 -1.40606,-7.899095 -1.40606,-9.743153 0,-2.5921 -0.20015,-3.35286 -0.88245,-3.35286 -1.02908,0 -2.01129,2.412045 -2.01129,4.939216 0,0.97107 0.67335,5.33739 1.49631,9.702891 1.64784,8.74101 1.64915,14.532383 0.004,17.216369 -0.75831,1.237048 -1.42717,1.546679 -3.34102,1.546679 -1.92133,0 -3.00825,-0.507431 -5.5154,-2.574939 -4.53952,-3.743458 -10.97783,-11.34162 -11.7618,-13.880739 -0.61365,-1.987405 -0.50959,-2.550248 1.11184,-6.014003 2.05443,-4.388859 8.73622,-13.225309 11.46142,-15.157418 2.93265,-2.0791754 6.53036,-2.7364764 13.6551,-2.4947204 5.94753,0.201776 6.89843,0.400301 9.95518,2.078006 2.72992,1.4983514 3.88983,2.6556954 6.03421,6.0209704 1.52057,2.386303 3.41443,4.556779 4.43308,5.0806 0.97812,0.502965 4.66437,1.637841 8.19167,2.521911 5.99184,1.501812 6.46036,1.729002 7.13017,3.457396 0.80529,2.078075 0.21239,5.040992 -1.90486,9.518581 -3.54018,7.486963 -7.08974,9.682339 -16.4524,10.175719 -5.86832,0.309233 -6.60871,0.483629 -8.0128,1.887265 -3.75488,3.753629 -4.51515,7.830145 -4.6149,24.744528 -0.0925,15.697559 -1.02289,21.698493 -4.42019,28.511507 -2.82849,5.67236 -8.0393,11.48207 -11.25824,12.55222 -1.17,0.38899 -1.18971,0.28352 -0.69074,-3.69723 0.91042,-7.26312 -0.685,-5.73612 -3.87996,3.71358 -2.71969,8.04401 -3.94536,18.46167 -4.01286,34.10781 -0.0582,13.48652 0.17893,14.35883 4.2594,15.66555 3.55476,1.13841 5.92072,5.91162 3.96591,8.00108 -0.72847,0.77863 -7.78312,0.90051 -11.40028,0.19687 z M 151.44665,23.82905 c 0.87822,-1.432628 0.87822,-1.660449 0,-3.093077 -1.2522,-2.042747 -3.48423,-2.042747 -4.73643,0 -0.87822,1.432628 -0.87822,1.660449 0,3.093077 0.58491,0.95419 1.49198,1.546539 2.36821,1.546539 0.87623,0 1.7833,-0.592349 2.36822,-1.546539 z M 49.766998,168.73108 c -1.550337,-1.28369 -2.580728,-4.0413 -5.602245,-14.99309 -4.405661,-15.96878 -4.650038,-13.51343 2.082044,-20.91908 6.336008,-6.96994 10.848631,-13.92451 13.219776,-20.37341 l 1.535294,-4.17565 h 3.414164 c 2.796136,0 8.556727,1.01766 8.556727,1.51163 0,0.0701 -0.635156,2.12357 -1.411444,4.56318 -2.421389,7.60953 -4.695741,11.39841 -10.542232,17.5625 -6.934373,7.31104 -8.302585,9.67415 -8.302585,14.33968 0,3.54778 1.41371,11.4978 2.404669,13.52264 0.291384,0.59541 1.054459,1.08257 1.695696,1.08257 3.037756,0 6.383302,3.23413 6.517039,6.30004 l 0.08947,2.05124 -6.366261,0.14636 c -4.360767,0.1003 -6.657293,-0.0947 -7.290129,-0.61861 z m 82.221912,-1.43665 c -0.37669,-1.22002 -1.41223,-3.10364 -2.30119,-4.18586 -0.88896,-1.0822 -1.89668,-3.07655 -2.23938,-4.43188 -0.3427,-1.35533 -0.9835,-3.021 -1.42398,-3.70149 -1.6952,-2.6188 -1.73346,-28.81829 -0.0503,-34.48656 0.18178,-0.61197 1.83583,-1.92491 3.67578,-2.9177 1.83996,-0.99279 4.86137,-3.28288 6.71421,-5.08911 2.85767,-2.78576 3.30876,-3.0494 2.97286,-1.73751 -1.68238,6.57091 -3.88625,27.99119 -3.80348,36.96783 0.0306,3.31421 0.35782,7.4171 0.72727,9.11753 0.60694,2.79369 0.88006,3.1647 2.83332,3.84867 3.34095,1.16993 4.94666,2.55523 5.66739,4.88947 1.13685,3.68199 0.73459,3.94481 -6.03737,3.94481 h -6.05016 z"
       id="path1" /></g></svg>
