<?xml version="1.0" encoding="UTF-8" standalone="no"?>
<!-- Created with Inkscape (http://www.inkscape.org/) -->

<svg
   width="240mm"
   height="180mm"
   viewBox="0 0 240 180"
   version="1.1"
   id="svg1"
   sodipodi:docname="hare.svg"
   inkscape:version="1.4.2 (f4327f4, 2025-05-13)"
   xml:space="preserve"
   xmlns:inkscape="http://www.inkscape.org/namespaces/inkscape"
   xmlns:sodipodi="http://sodipodi.sourceforge.net/DTD/sodipodi-0.dtd"
   xmlns="http://www.w3.org/2000/svg"
   xmlns:svg="http://www.w3.org/2000/svg"><sodipodi:namedview
     id="namedview1"
     pagecolor="#505050"
     bordercolor="#ffffff"
     borderopacity="1"
     inkscape:showpageshadow="0"
     inkscape:pageopacity="0"
     inkscape:pagecheckerboard="1"
     inkscape:deskcolor="#505050"
     inkscape:document-units="mm"
     inkscape:zoom="1"
     inkscape:cx="482"
     inkscape:cy="226"
     inkscape:window-width="2560"
     inkscape:window-height="1351"
     inkscape:window-x="-9"
     inkscape:window-y="-9"
     inkscape:window-maximized="1"
     inkscape:current-layer="layer1"
     showguides="true" /><defs
     id="defs1"><rect
       x="101.82338"
       y="91.923882"
       width="384.66608"
       height="299.81326"
       id="rect3" /><rect
       x="2.8284271"
       y="2.1213202"
       width="662.55902"
       height="647.00269"
       id="rect2" /></defs><g
     inkscape:label="Icon"
     inkscape:groupmode="layer"
     id="layer1"><path
       style="fill:#000000;stroke-width:3.72899"
       d="m 207.70847,166.73195 c -2.36034,-0.97201 -5.79584,-3.44268 -7.63446,-5.49036 -4.58552,-5.107 -10.62748,-7.79714 -27.70401,-12.33521 -15.99679,-4.25111 -18.50159,-5.74327 -19.76588,-11.77498 -0.74946,-3.57551 -5.32477,-12.50701 -6.40691,-12.50701 -0.32283,0 -0.27316,1.27743 0.10997,2.83872 0.67165,2.73709 0.59061,2.81583 -2.26365,2.19918 -4.49092,-0.97026 -13.92719,-5.41886 -18.60373,-8.77043 -6.89533,-4.94176 -13.95108,-7.674 -21.15339,-8.19147 -4.798637,-0.34466 -6.453224,-0.80091 -6.078136,-1.67574 1.219231,-2.84367 1.852696,-7.98114 1.170709,-9.49485 -0.531295,-1.17935 -1.44765,0.2861 -3.259902,5.21346 -2.840748,7.72379 -6.785315,13.34762 -12.526407,17.85915 -8.671,6.8139 -17.059621,8.02931 -31.943371,4.6281 -13.058046,-2.98396 -14.651615,-2.22936 -23.413682,11.08689 -6.445131,9.79508 -11.905905,14.17581 -17.670739,14.17581 -4.0926351,0 -4.6463266,-1.40549 -0.8864218,-2.25011 3.8003028,-0.85366 3.2179988,-2.47957 -0.6406679,-1.78886 -3.0458709,0.54522 -3.2007068,0.44218 -2.4891719,-1.65676 0.8055747,-2.37636 2.0329574,-3.86185 10.6426066,-12.88088 2.984838,-3.12674 7.300934,-8.55677 9.591324,-12.0667 5.660092,-8.6739 6.44519,-9.17619 12.192678,-7.80034 7.490133,1.79297 12.236905,1.43155 14.932994,-1.13698 1.923604,-1.83259 2.513827,-3.84585 3.215441,-10.96746 0.472643,-4.797538 1.153169,-9.379 1.512293,-10.181051 0.429797,-0.959921 -0.211273,-1.872174 -1.875556,-2.669386 -7.583065,-3.632268 -6.126586,-16.178297 2.374608,-20.454602 5.058162,-2.544328 5.29545,-2.528629 5.29545,0.351017 0,1.303879 0.93559,4.012072 2.079102,6.018198 l 2.079102,3.647509 6.003331,-2.478711 c 4.827576,-1.993248 7.967928,-2.55237 16.034594,-2.854916 12.234252,-0.458861 17.154692,0.434486 33.536322,6.088719 12.09613,4.175057 13.28497,4.402254 23.22357,4.438377 13.62156,0.04937 15.22711,-0.813869 18.21563,-9.795216 1.2037,-3.617452 1.89097,-7.416339 1.52727,-8.441944 -0.87398,-2.464635 -6.93131,-5.973184 -14.14989,-8.195987 -10.79689,-3.324679 -17.90921,-7.072696 -25.56622,-13.472708 -7.96865,-6.660507 -16.05254,-16.437974 -16.05254,-19.415552 0,-6.78338 29.38852,0.984964 43.43034,11.480024 2.95056,2.205305 9.42362,8.104933 14.38458,13.110297 7.77171,7.841264 11.01616,10.398221 11.01616,8.681906 0,-0.230366 -3.67322,-4.5356 -8.16268,-9.567351 -8.81428,-9.878928 -13.53161,-14.017932 -21.6006,-18.952457 -6.64846,-4.065837 -7.29978,-4.888451 -9.45031,-11.935606 -2.91209,-9.5426216 0.17541,-10.0161953 13.45877,-2.064475 10.9406,6.549239 18.64807,14.319701 23.40879,23.600136 9.39552,18.315263 9.62717,18.617667 15.62478,20.395965 8.81389,2.613297 11.65156,4.567034 18.66734,12.85252 6.14602,7.258294 8.1457,11.29182 5.59813,11.29182 -0.57359,0 -1.04292,0.766835 -1.04292,1.704069 0,3.248369 -4.79423,6.061381 -11.54446,6.773755 -9.25007,0.976141 -10.2194,2.112697 -10.57959,12.40461 -0.16831,4.81024 -0.74694,8.51964 -1.32889,8.51964 -0.86795,0 -2.79096,3.88813 -5.35938,10.83626 -0.66078,1.78751 4.61374,3.90366 15.13341,6.07154 7.8092,1.60932 23.08298,8.65524 27.70918,12.78249 l 3.07984,2.7477 -2.5316,1.83476 c -3.70093,2.68218 -9.44203,1.5663 -17.70719,-3.44177 -7.36691,-4.46378 -11.26173,-5.59507 -22.42224,-6.51273 -9.08014,-0.74659 -15.62616,-4.03895 -14.57197,-7.32906 0.36224,-1.13013 0.87028,-2.74153 1.12929,-3.58087 0.6402,-2.07474 -1.2242,-9.1862 -2.74954,-10.48758 -0.94482,-0.80611 -1.07548,-0.37381 -0.55577,1.83834 0.37366,1.59072 0.20496,5.53076 -0.37564,8.7556 -0.7058,3.9224 -0.70895,6.4421 -0.008,7.61175 0.57505,0.96164 6.30775,4.01588 12.73942,6.78722 18.35354,7.90833 34.59275,18.99472 33.93165,23.16484 -0.27867,1.75802 -1.05782,2.16604 -4.50853,2.36113 -2.41218,0.13652 -5.98158,-0.50948 -8.46312,-1.53139 z M 191.08996,94.912968 c -0.54489,-0.426826 -2.99305,-1.285851 -5.44034,-1.908897 -2.44725,-0.623079 -6.08437,-2.417503 -8.08244,-3.987657 -2.49222,-1.958432 -3.63282,-2.417295 -3.63282,-1.461394 0,1.964637 3.09818,5.026878 6.77881,6.700156 3.23704,1.471585 12.13595,2.035723 10.37679,0.657792 z m 7.51164,-19.326826 c 0.89858,-2.095837 -2.63239,-5.098922 -5.99525,-5.098922 -4.01725,0 -4.72852,1.587233 -1.91315,4.269392 2.67567,2.549125 6.97766,3.000368 7.9084,0.82953 z M 168.71987,60.275268 c 0,-1.225632 -14.07271,-14.721484 -19.77321,-18.962687 -4.66265,-3.469038 -16.17085,-8.298399 -22.72475,-9.536273 -5.06835,-0.957342 -4.39297,1.231771 2.40858,7.806939 6.87172,6.642973 15.54891,11.702031 27.22699,15.874125 4.6843,1.673522 9.37735,3.626342 10.42894,4.33963 2.31138,1.567759 2.43345,1.591748 2.43345,0.478266 z M 30.470868,155.14391 c -0.733526,-1.71085 2.35512,-7.95131 5.944531,-12.01065 1.666183,-1.88434 4.003432,-5.39677 5.193889,-7.80545 l 2.164467,-4.3794 4.292509,0.61434 c 2.36089,0.33797 4.511928,0.81073 4.780078,1.05073 0.938429,0.8399 -5.182324,14.79694 -7.874369,17.95581 -4.016829,4.7134 -13.199568,7.61026 -14.501105,4.57462 z M 139.28174,136.24059 c -6.57917,-1.42743 -14.54375,-4.77772 -21.48938,-9.03959 -2.48525,-1.52493 -6.4347,-3.74671 -8.77652,-4.93721 l -4.25785,-2.16459 -4.65599,4.63491 c -5.293439,5.26942 -8.256181,6.85951 -14.514733,7.79007 -5.823473,0.86587 -7.568875,-0.18168 -3.758167,-2.25596 3.957614,-2.15408 9.338519,-7.03939 12.57556,-11.41734 1.447965,-1.95824 3.391554,-3.55048 4.319103,-3.53832 3.038927,0.0399 12.978117,4.18888 22.844467,9.5361 9.56647,5.18468 15.79712,7.49896 23.42579,8.70116 2.89569,0.45637 3.91086,1.07394 3.91086,2.37927 0,2.06912 -1.32423,2.11199 -9.62314,0.3115 z M 45.846444,112.25684 c 0.376428,-2.37118 4.496477,-3.4249 6.450196,-1.64964 0.885019,0.80424 0.672997,1.4124 -0.84107,2.41254 -3.193012,2.10923 -6.004205,1.72689 -5.609126,-0.7629 z"
       id="path1" /></g></svg>
