<?xml version="1.0" encoding="UTF-8" standalone="no"?>
<!-- Created with Inkscape (http://www.inkscape.org/) -->

<svg
   width="240mm"
   height="180mm"
   viewBox="0 0 240 180"
   version="1.1"
   id="svg1"
   sodipodi:docname="hyena.svg"
   inkscape:version="1.4.2 (f4327f4, 2025-05-13)"
   xml:space="preserve"
   xmlns:inkscape="http://www.inkscape.org/namespaces/inkscape"
   xmlns:sodipodi="http://sodipodi.sourceforge.net/DTD/sodipodi-0.dtd"
   xmlns="http://www.w3.org/2000/svg"
   xmlns:svg="http://www.w3.org/2000/svg"><sodipodi:namedview
     id="namedview1"
     pagecolor="#505050"
     bordercolor="#ffffff"
     borderopacity="1"
     inkscape:showpageshadow="0"
     inkscape:pageopacity="0"
     inkscape:pagecheckerboard="1"
     inkscape:deskcolor="#505050"
     inkscape:document-units="mm"
     inkscape:zoom="1"
     inkscape:cx="482"
     inkscape:cy="226"
     inkscape:window-width="2560"
     inkscape:window-height="1351"
     inkscape:window-x="-9"
     inkscape:window-y="-9"
     inkscape:window-maximized="1"
     inkscape:current-layer="layer1"
     showguides="true" /><defs
     id="defs1"><rect
       x="101.82338"
       y="91.923882"
       width="384.66608"
       height="299.81326"
       id="rect3" /><rect
       x="2.8284271"
       y="2.1213202"
       width="662.55902"
       height="647.00269"
       id="rect2" /></defs><g
     inkscape:label="Icon"
     inkscape:groupmode="layer"
     id="layer1"><path
       style="fill:#000000;stroke-width:3.4533"
       d="m 87.823147,174.88509 c 0.714635,-0.2435 1.568455,-0.21354 1.897412,0.0666 0.328881,0.28016 -0.255922,0.47956 -1.299326,0.44293 -1.153218,-0.0405 -1.387813,-0.24032 -0.598086,-0.50948 z m 39.128213,-17.13205 c -2.58859,-0.88922 -3.01333,-1.93346 -4.29645,-10.56367 -0.54997,-3.69883 -1.49561,-8.00585 -2.10144,-9.57121 -0.60583,-1.56537 -0.82856,-4.54228 -0.49501,-6.61537 0.69024,-4.28985 -0.70213,-16.79077 -2.99589,-26.89764 -1.42122,-6.262249 -1.41684,-7.243199 0.0516,-11.546233 0.88266,-2.586406 1.64904,-7.212729 1.70307,-10.280732 0.10177,-5.780976 -0.64205,-8.003619 -1.51551,-4.528347 -0.27613,1.098302 -1.44528,5.032796 -2.59828,8.743289 -1.15303,3.710525 -2.33427,8.403621 -2.62503,10.429134 l -0.52864,3.682729 -8.55318,-0.37262 C 97.268371,99.982801 91.651604,99.076411 85.990612,97.488001 l -8.452857,-2.371777 0.386314,-5.168223 C 78.32722,84.554725 76.74118,77.638507 75.101262,77.638507 c -0.527633,0 -0.951812,2.927508 -0.951812,6.56922 0,16.279623 -6.209502,25.425623 -27.450131,40.431353 -6.331814,4.47318 -7.653327,7.57273 -6.896225,16.17483 0.466495,5.30046 0.931419,6.61352 2.712918,7.66168 3.930865,2.31278 6.962488,5.35774 6.663539,6.69276 -0.230479,1.02936 -1.923041,1.3718 -7.716409,1.56119 -11.05046,0.36128 -10.841009,0.62923 -12.430903,-15.90301 -0.732818,-7.62029 -1.349948,-14.49606 -1.371425,-15.27952 -0.02245,-0.7835 1.814013,-3.24834 4.078844,-5.47745 2.264793,-2.22915 5.156032,-5.9522 6.424976,-8.27346 2.142071,-3.91846 2.307859,-5.29173 2.316839,-19.189055 0.0075,-8.930381 -0.370787,-14.968538 -0.93374,-14.968538 -1.729528,0 -3.005169,6.232516 -3.020509,14.757732 -0.01122,7.050112 -0.393984,9.124421 -2.32507,12.649481 -2.408506,4.39652 -8.221929,9.47671 -13.510563,11.80641 l -3.088681,1.36062 1.678718,-2.18252 c 2.171405,-2.82306 1.052272,-3.76193 -1.81072,-1.51899 -2.390846,1.87303 -8.7249422,5.28389 -9.8220375,5.28905 -0.9759067,0.003 3.8435755,-10.13214 5.6061035,-11.79121 2.164109,-2.03705 1.846789,-2.79523 -0.977403,-2.33531 -1.361173,0.22151 -2.4748437,0.13036 -2.4748437,-0.20303 0,-0.33323 3.2968977,-2.911 7.3264657,-5.728319 C 24.037504,94.912398 24.632484,94.219613 27.55332,87.604975 33.284468,74.625963 34.856889,72.325869 42.893985,65.165156 55.175489,54.222873 60.52264,51.639591 85.597977,44.534304 c 11.85826,-3.360116 21.732983,-6.556279 21.943853,-7.102609 0.21776,-0.56453 -0.81704,-1.12227 -2.3977,-1.292152 -2.15875,-0.232033 -0.67669,-0.891416 6.62349,-2.946982 9.31442,-2.622741 9.37608,-2.658056 6.43466,-3.688437 l -2.96985,-1.040325 3.95979,-0.688865 c 2.17792,-0.378871 6.40994,-0.668052 9.40456,-0.642617 2.99458,0.0255 5.78585,0.01594 6.2028,-0.02231 0.41692,-0.03793 -0.69675,-1.18133 -2.47488,-2.540765 l -3.23295,-2.471728 4.45475,0.395508 c 2.45015,0.217691 5.90259,0.546968 7.67211,0.732085 3.80713,0.398313 3.96338,-0.03442 0.98998,-2.741372 l -2.22742,-2.027773 9.40456,0.611446 9.40452,0.611478 -1.97992,-1.91555 -1.97991,-1.915518 4.70226,0.588434 c 3.78756,0.473979 4.7023,0.347699 4.7023,-0.649247 0,-1.024835 0.59584,-1.081887 3.46482,-0.331827 3.19187,0.834492 3.46481,1.167019 3.46481,4.220935 0,3.502651 2.19689,8.298441 4.56989,9.976093 1.89988,1.343179 2.97142,0.297691 1.37464,-1.341363 -2.01347,-2.066658 -2.92877,-8.076512 -1.86029,-12.214418 1.55393,-6.017917 8.45027,-12.5282679 12.03115,-11.3577428 0.84978,0.27793 2.72444,2.8479216 4.16584,5.7113978 2.48824,4.94301 2.93153,5.32526 8.76509,7.557497 7.9669,3.048656 14.97578,8.205819 17.95214,13.20926 2.21283,3.719863 5.67177,6.765874 11.82171,10.410359 3.44293,2.040331 3.31647,5.135457 -0.33711,8.247668 -2.32881,1.983852 -3.72987,2.4578 -7.17714,2.42803 -2.3559,-0.01912 -6.06534,-0.620497 -8.24326,-1.333617 -5.74637,-1.881605 -8.82499,-2.40725 -8.07934,-1.379451 0.94149,1.297665 8.68457,4.219659 13.01623,4.911903 3.50093,0.559493 3.65841,0.699797 1.96745,1.753062 -2.47259,1.540153 -5.5206,1.424933 -14.32895,-0.541708 -4.08355,-0.911719 -9.52159,-1.664202 -12.08451,-1.672138 -4.27725,-0.01275 -5.47612,0.509326 -14.60122,6.364884 -5.46774,3.508643 -10.39326,7.098657 -10.94559,7.977802 -0.55232,0.879144 -1.71437,4.554545 -2.5823,8.167572 -0.86788,3.612994 -3.18846,9.984443 -5.15678,14.15878 l -3.57878,7.589688 -0.35321,19.543899 c -0.32963,18.25346 -0.21888,19.80251 1.681,23.46108 1.61515,3.11043 2.83209,4.18425 5.90843,5.21364 3.67535,1.22984 6.07465,3.85067 6.07465,6.63548 0,0.96938 -1.65391,1.22525 -7.91961,1.22525 -6.44769,0 -8.26754,-0.29641 -9.79169,-1.59478 -2.02773,-1.72731 -5.28942,-12.49831 -6.9485,-22.94592 -0.55985,-3.52541 -2.14304,-10.92536 -3.51821,-16.44434 -1.37513,-5.51899 -2.50257,-10.49288 -2.50534,-11.05308 -0.003,-0.56022 1.96102,-2.0001 4.36403,-3.199759 4.47675,-2.23488 12.46001,-8.975544 12.46001,-10.520574 0,-1.392518 -1.53235,-0.995289 -3.55888,0.92262 -2.07076,1.959789 -10.30039,6.989684 -10.30039,6.29556 0,-0.238408 1.78789,-2.790168 3.97314,-5.670313 4.48742,-5.914395 6.91628,-11.979644 6.91628,-17.271023 0,-5.214374 -1.6792,-5.288032 -2.46938,-0.108367 -0.80791,5.296096 -4.20587,12.021237 -8.78114,17.379517 -1.83841,2.153001 -4.08023,5.148557 -4.9819,6.65677 -2.37656,3.975389 -4.35961,17.092409 -5.06762,33.519629 -0.58226,13.51008 -0.50059,14.49399 1.41699,17.07679 1.11917,1.50739 2.63195,2.74074 3.36178,2.74074 1.98246,0 5.63185,3.65542 5.63185,5.64118 0,1.27156 -0.82988,1.87906 -3.09362,2.26475 -4.25328,0.72462 -10.82403,0.57014 -13.40102,-0.31522 z M 59.491284,75.319449 c 2.169534,-2.151854 2.853001,-4.288728 1.585254,-4.956142 -1.384595,-0.728992 -4.746185,2.698152 -4.746185,4.838723 0,1.992044 1.225056,2.037526 3.160931,0.117292 z M 90.52862,65.449014 c 2.68755,-2.289416 3.206577,-4.676491 1.016802,-4.676491 -1.651817,0 -5.516569,3.919801 -5.516569,5.59519 0,1.749397 1.798822,1.382128 4.499767,-0.918699 z m 20.71769,-4.876046 c 1.92012,-2.428828 3.49112,-4.70575 3.49112,-5.059792 0,-1.496551 -4.0399,-0.48029 -5.46716,1.375307 -1.60347,2.084667 -3.1729,8.100544 -2.11329,8.100544 0.32888,0 2.16919,-1.987231 4.08933,-4.416059 z m -45.055007,0.04048 c 2.29626,-2.099614 2.643063,-4.057459 0.71875,-4.057459 -1.325516,0 -6.619875,4.25217 -6.619875,5.31675 0,1.318414 4.020288,0.460497 5.901125,-1.259291 z m 17.752949,-4.817463 c 3.498605,-2.784017 4.023843,-5.143108 1.145024,-5.143108 -1.932918,0 -6.979998,4.783265 -6.979998,6.61518 0,1.71915 2.671724,1.045106 5.834974,-1.472072 z m 52.051688,-1.728011 c 1.91504,-3.154728 1.90853,-4.258385 -0.0262,-4.258385 -1.24526,0 -4.40424,4.517032 -4.40424,6.297664 0,1.49993 3.1656,0.04239 4.42935,-2.039279 z m -35.46966,-1.80387 c 1.84069,-0.969089 3.80224,-2.487027 4.35898,-3.373184 1.78502,-2.841228 -3.40454,-2.043104 -6.394038,0.983369 -4.227345,4.279707 -3.400015,5.251283 2.035058,2.389815 z m 86.10703,-3.669632 c -1.8735,-1.59593 -3.7045,-4.058224 -4.06896,-5.471746 -1.01467,-3.935419 -2.49022,-3.952407 -2.49022,-0.02869 0,4.728029 3.07409,8.402123 7.03006,8.402123 h 2.93543 z m -56.12438,-3.791449 c 4.25769,-3.348387 4.71648,-5.329148 1.04494,-4.511231 -3.62574,0.807686 -9.08918,7.831187 -6.09172,7.831187 0.45389,0 2.72493,-1.493969 5.04678,-3.319956 z m 99.06271,2.028538 c 0,-1.27596 -2.61003,-2.669403 -3.53086,-1.884984 -0.26153,0.222791 -0.19456,1.02866 0.14854,1.790768 0.78763,1.748441 3.38224,1.820729 3.38224,0.09434 z M 118.13782,44.770672 c 2.53298,-0.820403 3.57931,-3.394061 1.3798,-3.394061 -1.38179,0 -4.78019,2.491043 -4.78019,3.503894 0,0.9034 0.30194,0.893647 3.40039,-0.109961 z m 32.84091,-7.439026 c 0.74359,-2.305608 0.22898,-2.92056 -1.86943,-2.234563 -1.8451,0.603159 -4.98347,6.856456 -4.07177,8.113101 0.78232,1.078286 5.06384,-3.158075 5.9412,-5.878538 z m 13.25621,-6.24007 c 0,-2.063789 -1.19561,-1.912107 -4.31022,0.546808 -1.60639,1.268215 -2.61946,2.962919 -2.61946,4.381924 v 2.313958 l 3.46482,-2.860767 c 1.90568,-1.573396 3.46486,-3.545264 3.46486,-4.381923 z m 45.62659,4.712316 c 1.12261,-1.152262 1.03797,-1.532663 -0.56296,-2.529896 -2.26569,-1.41126 -2.58596,-1.425093 -6.14365,-0.264862 l -2.78681,0.908786 2.33704,1.62111 c 2.85005,1.976904 5.39662,2.071152 7.15638,0.264862 z m -22.8712,-12.108919 c 1.31893,-2.712431 0.60651,-11.422062 -1.00363,-12.269749 -1.43634,-0.756211 -4.11065,4.600124 -4.17751,8.367096 -0.0647,3.652803 1.73877,7.603584 3.13545,6.868281 0.44626,-0.234902 1.36683,-1.569508 2.04569,-2.965628 z M 81.574097,153.75014 c -3.208411,-0.64223 -4.138185,-1.64654 -9.844038,-10.6333 -2.987735,-4.70566 -6.335518,-9.69418 -7.439572,-11.08565 -2.662894,-3.35604 -2.542192,-6.52476 0.394209,-10.34846 1.328023,-1.72938 2.700084,-4.28277 3.049021,-5.6742 0.348711,-1.39144 2.492054,-5.84951 4.762498,-9.90681 2.956605,-5.28344 4.549529,-7.265059 5.613063,-6.982759 0.816704,0.21673 4.934272,1.259449 9.150168,2.317109 5.154425,1.29308 7.664365,2.33732 7.662456,3.18794 -0.0075,3.14533 -5.444731,10.66792 -11.931257,16.50582 -6.482149,5.83401 -7.029873,6.60211 -6.460111,9.05956 1.054142,4.54665 7.190348,14.71576 9.15608,15.17377 1.004941,0.23426 3.065035,0.66069 4.577928,0.94789 1.852213,0.35159 3.284551,1.47565 4.384714,3.44098 0.898681,1.60533 1.442739,3.0602 1.209042,3.23301 -0.755455,0.55863 -12.242067,1.1739 -14.284201,0.7651 z M 208.27896,18.595499 c -0.34122,-0.470441 -2.396,-1.626942 -4.56599,-2.569991 l -3.94542,-1.714624 4.19476,-4.267979 c 3.86756,-3.935068 4.29638,-4.1495713 5.49752,-2.7502962 1.49067,1.736617 1.80885,12.1582262 0.37116,12.1582262 -0.51233,0 -1.21076,-0.384894 -1.55206,-0.855336 z"
       id="path1" /></g></svg>
