<?xml version="1.0" encoding="UTF-8" standalone="no"?>
<!-- Created with Inkscape (http://www.inkscape.org/) -->

<svg
   width="180mm"
   height="180mm"
   viewBox="0 0 180 180"
   version="1.1"
   id="svg1"
   sodipodi:docname="moose.svg"
   inkscape:version="1.4.2 (f4327f4, 2025-05-13)"
   xml:space="preserve"
   xmlns:inkscape="http://www.inkscape.org/namespaces/inkscape"
   xmlns:sodipodi="http://sodipodi.sourceforge.net/DTD/sodipodi-0.dtd"
   xmlns="http://www.w3.org/2000/svg"
   xmlns:svg="http://www.w3.org/2000/svg"><sodipodi:namedview
     id="namedview1"
     pagecolor="#505050"
     bordercolor="#ffffff"
     borderopacity="1"
     inkscape:showpageshadow="0"
     inkscape:pageopacity="0"
     inkscape:pagecheckerboard="1"
     inkscape:deskcolor="#505050"
     inkscape:document-units="mm"
     inkscape:zoom="1"
     inkscape:cx="23"
     inkscape:cy="222"
     inkscape:window-width="2560"
     inkscape:window-height="1351"
     inkscape:window-x="-9"
     inkscape:window-y="-9"
     inkscape:window-maximized="1"
     inkscape:current-layer="layer1"
     showguides="true" /><defs
     id="defs1"><rect
       x="101.82338"
       y="91.923882"
       width="384.66608"
       height="299.81326"
       id="rect3" /><rect
       x="2.8284271"
       y="2.1213202"
       width="662.55902"
       height="647.00269"
       id="rect2" /></defs><g
     inkscape:label="Icon"
     inkscape:groupmode="layer"
     id="layer1"><path
       style="fill:#000000;stroke-width:0.721726"
       d="m 77.572819,176.16729 c -0.712898,-0.24396 -0.986569,-0.44027 -1.030585,-0.73927 -0.11011,-0.74795 1.852338,-4.01903 3.691719,-6.15347 1.39804,-1.6223 2.056489,-3.02782 2.590983,-5.53071 0.787187,-3.68616 0.962583,-6.15954 0.69859,-9.85152 -0.302836,-4.23535 -0.480925,-5.24428 -1.381876,-7.82899 -1.335732,-3.832 -1.364978,-4.02271 -1.372697,-8.94926 -0.0075,-4.79325 0.06105,-4.22301 -1.431285,-11.90039 -1.437184,-7.3935 -1.429626,-7.36327 -2.232846,-8.92215 -0.425844,-0.82648 -1.178848,-1.94676 -1.673332,-2.48952 -0.943375,-1.03546 -3.016248,-2.67593 -3.381259,-2.67593 -0.117425,0 0.262907,0.6128 0.845173,1.3618 1.114237,1.43328 1.99989,3.01883 2.518117,4.50808 0.404317,1.16191 0.6043,2.39487 0.388403,2.39471 -0.09373,-8e-5 -1.000319,-0.21947 -2.014645,-0.48754 -5.343501,-1.41219 -9.480274,-4.46097 -11.972043,-8.82333 l -0.743501,-1.30166 -0.05818,0.86953 c -0.05041,0.75321 0.17632,2.0165 0.669916,3.73242 0.124219,0.43181 0.107403,0.44761 -0.208993,0.19636 -0.544942,-0.43272 -1.916135,-2.23778 -2.788867,-3.6713 -1.210472,-1.98828 -2.018981,-4.28964 -2.757266,-7.84833 -0.18357,-0.88483 -0.49053,-1.43102 -1.655239,-2.945265 -0.786432,-1.022443 -1.660661,-2.212712 -1.942725,-2.64504 -0.734059,-1.125112 -0.930461,-0.782457 -0.837345,1.460835 l 0.07714,1.858272 -0.406321,-0.481357 c -0.754023,-0.893292 -1.228154,-1.795928 -1.783933,-3.396202 -0.304325,-0.876255 -0.63585,-1.619352 -0.736722,-1.651327 -0.100879,-0.03198 -0.286907,0.334415 -0.413401,0.814199 -0.126501,0.479783 -0.275725,0.916576 -0.331612,0.970652 -0.190056,0.183896 -0.730603,-1.345653 -1.108088,-3.135475 -0.455993,-2.16209 -1.344508,-4.7276 -1.607899,-4.642652 -0.337285,0.108783 -0.727294,1.493472 -0.910842,3.233892 -0.197584,1.873483 -0.545925,3.326224 -0.766012,3.194617 -0.07879,-0.04712 -0.25458,-0.470388 -0.390648,-0.940601 -0.136061,-0.470214 -0.317115,-0.896631 -0.402344,-0.947595 -0.08522,-0.05097 -0.386069,0.405634 -0.668544,1.01466 -0.282476,0.609026 -0.85301,1.428009 -1.267864,1.819962 l -0.754272,0.712642 0.210842,-0.736331 c 0.32834,-1.146664 0.08645,-3.898789 -0.477447,-5.432197 -0.676447,-1.839375 -1.457259,-3.474942 -1.658952,-3.474942 -0.191178,0 -0.417098,1.35262 -0.417098,2.49718 0,0.744243 -0.0051,0.749696 -0.391228,0.41166 -0.923432,-0.808594 -1.836196,-3.101259 -2.241452,-5.630071 -0.107872,-0.67312 -0.145769,-0.714912 -0.374169,-0.412687 -0.139774,0.184955 -0.415836,0.838238 -0.613479,1.451742 -0.197642,0.613503 -0.412909,1.116184 -0.478372,1.117067 -0.211311,0.0028 -0.73502,-1.92835 -0.947116,-3.492561 -0.258879,-1.909179 -0.451107,-2.559766 -0.961051,-3.252691 l -0.404632,-0.549825 1.109115,-0.401514 c 1.706063,-0.61762 3.183742,-0.890615 6.56423,-1.212719 3.544733,-0.337754 4.910482,-0.639517 6.697504,-1.479819 1.535525,-0.722045 4.115039,-3.113587 5.000421,-4.636041 1.401679,-2.410252 2.068169,-5.617015 1.610364,-7.74818 -0.127609,-0.594028 -0.294061,-1.08005 -0.369906,-1.08005 -0.07584,0 -0.371989,0.950913 -0.658104,2.11314 -1.269337,5.156203 -4.287148,8.704891 -8.496889,9.991619 -0.818715,0.250245 -2.837667,0.628466 -4.486566,0.840492 -3.821037,0.491334 -5.699107,0.953664 -7.659133,1.885471 -1.874124,0.890967 -3.258822,2.141458 -4.330825,3.911068 -1.223496,2.019687 -2.129698,2.667425 -4.25299,3.039965 -1.31572,0.230848 -3.039041,0.03192 -4.309765,-0.497498 l -0.68085,-0.28366 0.776527,-0.231739 c 1.523037,-0.454522 2.16767,-0.92198 4.659127,-3.378562 2.076147,-2.047086 2.780544,-2.616045 3.972046,-3.208324 0.796592,-0.395975 1.647458,-0.912607 1.890815,-1.148071 0.990091,-0.957982 -0.257955,-1.351132 -1.998075,-0.62942 -1.724589,0.715271 -3.549208,2.067031 -5.407916,4.006427 -2.771133,2.89143 -3.983571,3.353828 -7.492542,2.857491 C 10.938107,81.208645 10.453374,81.013545 9.4904161,79.98223 8.1999544,78.600168 8.0782227,77.218216 9.0404468,74.873982 c 0.3557668,-0.866741 0.5502837,-1.808859 0.6705259,-3.247614 0.2054129,-2.457816 0.6198553,-3.389371 2.4071053,-5.410503 2.735174,-3.093115 4.706749,-4.573248 9.351051,-7.020178 4.599391,-2.423271 4.35706,-2.226025 5.050706,-4.111053 0.487622,-1.325144 1.215534,-2.012947 3.220817,-3.043348 1.459321,-0.749863 1.956704,-1.12655 2.746217,-2.079827 1.069605,-1.291469 2.702802,-2.555335 4.01168,-3.104477 1.900918,-0.797533 6.176129,-1.505262 7.19774,-1.191531 0.369136,0.11336 0.336602,0.171732 -0.372825,0.668976 -1.063493,0.745405 -1.454508,1.525456 -1.45373,2.90012 7.34e-4,1.360664 0.478291,2.34913 1.614811,3.342609 1.068804,0.934284 2.030507,1.304444 3.424783,1.318198 1.538034,0.01517 2.731285,-0.541543 3.794631,-1.770408 0.951636,-1.099762 2.300194,-2.045143 2.917342,-2.045143 0.241431,0 1.317675,-0.414375 2.391653,-0.920834 1.073984,-0.506459 2.559374,-1.100471 3.300872,-1.320027 1.37305,-0.406559 5.024297,-0.763381 7.193558,-0.702999 1.115469,0.03105 1.167373,0.0542 1.225983,0.546646 0.0836,0.702526 -0.985821,2.590529 -2.192983,3.871581 -2.083153,2.210652 -4.020712,3.183018 -7.14977,3.588103 -1.50892,0.195343 -3.433992,0.845185 -3.433992,1.159205 0,0.386565 4.791267,0.28499 6.503376,-0.137871 1.327764,-0.327935 3.376175,-1.354696 4.34669,-2.178771 0.528734,-0.44896 0.776945,-0.537706 1.261846,-0.451166 2.146297,0.383047 4.628402,0.30967 6.279994,-0.185653 0.187921,-0.05636 -0.255246,0.443788 -0.98483,1.111444 -0.729583,0.667655 -1.244743,1.262815 -1.144803,1.322579 0.381931,0.228391 2.707527,-0.30527 5.162427,-1.184636 2.976501,-1.066205 4.431486,-1.454205 6.044755,-1.611946 l 1.164783,-0.113889 -0.582391,0.426441 c -1.072195,0.785092 -2.335318,2.095367 -2.097189,2.175484 0.1278,0.043 0.843097,-0.134975 1.589541,-0.3955 2.126193,-0.742089 4.511594,-1.114846 7.108087,-1.110754 1.281261,0.002 2.536467,0.08465 2.789352,0.183633 0.427642,0.167383 0.384712,0.20776 -0.614132,0.577599 -0.590653,0.218701 -1.452746,0.635252 -1.915761,0.925669 l -0.84185,0.528032 2.669792,0.129969 c 3.026475,0.147333 5.381038,0.638574 7.327924,1.528852 l 1.261847,0.577023 -1.553046,0.216441 c -1.777426,0.247712 -2.42663,0.419879 -2.42663,0.64354 0,0.08625 1.026469,0.385722 2.281037,0.6655 2.677009,0.596991 4.846559,1.367522 6.066569,2.154577 l 0.87359,0.56357 -1.78574,-0.0394 c -0.98217,-0.02167 -1.85445,0.02707 -1.93841,0.108305 -0.2284,0.220987 0.56701,0.738029 3.05861,1.988217 4.01397,2.014053 7.55035,2.907351 13.47815,3.404624 3.5125,0.294656 11.30432,0.125473 17.37468,-0.377257 5.50121,-0.455594 7.24936,-0.47307 10.17701,-0.101735 7.32564,0.929164 16.63819,4.797618 21.20444,8.808366 2.79337,2.453552 4.9397,6.195684 5.81784,10.143401 0.3085,1.386885 0.42412,4.222864 0.18727,4.593666 -0.075,0.117481 -0.36297,0.213602 -0.63985,0.213602 -0.51577,0 -1.9203,-1.230476 -3.00166,-2.629686 -0.27944,-0.361581 -0.55333,-0.615159 -0.60863,-0.563504 -0.0553,0.05165 -0.0204,0.474283 0.0775,0.939173 0.098,0.464891 0.23348,2.113141 0.30116,3.662777 0.14662,3.356899 -0.0496,5.217891 -1.12811,10.698406 -1.64437,8.35608 -1.77587,9.71693 -1.23105,12.73981 0.76905,4.26708 2.6437,7.49941 6.61457,11.40511 2.76081,2.71551 2.60761,2.03517 2.47353,10.98435 -0.0707,4.71669 -0.0275,9.19689 0.11586,12.0254 0.40757,8.04146 0.63762,9.83011 1.68628,13.11117 0.51321,1.60571 0.58083,2.3944 0.25571,2.98219 -0.17661,0.3193 -0.33635,0.36532 -0.94255,0.27153 -1.29771,-0.20079 -1.79397,0.72778 -1.95437,3.65693 -0.1338,2.44323 -0.41243,3.14413 -1.54289,3.88125 -1.11491,0.72697 -2.46549,1.01163 -5.24819,1.10617 -3.28112,0.11147 -4.53018,-0.13535 -4.6229,-0.91351 -0.0811,-0.68062 1.44676,-3.52621 2.93842,-5.47277 1.54737,-2.01926 2.03955,-3.02333 2.48425,-5.06796 0.72471,-3.33212 0.67474,-8.41909 -0.14515,-14.77592 -0.97991,-7.59751 -3.66847,-12.61582 -8.90516,-16.62189 -2.95001,-2.25676 -4.3292,-3.60394 -9.2622,-9.04721 -4.89898,-5.40575 -6.24327,-7.14448 -7.88057,-10.1929 -3.0778,-5.7304 -4.51417,-13.01897 -3.94388,-20.01237 0.10924,-1.339472 0.16035,-2.472414 0.1136,-2.51765 -0.3672,-0.355294 -1.55906,4.39098 -1.86216,7.415556 -0.40777,4.069114 0.36582,8.976344 2.04227,12.954984 0.38225,0.90718 0.67439,1.66534 0.64919,1.6848 -0.0252,0.0195 -0.74468,0.18201 -1.59886,0.36124 -2.25066,0.47224 -4.31034,1.28916 -9.12413,3.61886 -2.34897,1.13682 -5.10077,2.36676 -6.1151,2.73321 -5.44459,1.96697 -10.25937,2.39538 -18.34533,1.63234 -2.13543,-0.20151 -5.214827,-0.46921 -6.843101,-0.59489 l -2.960485,-0.22849 v -0.77331 c 0,-0.96468 0.383002,-2.22529 1.449664,-4.77137 1.147027,-2.7379 1.5966,-4.14894 1.942557,-6.09693 0.609539,-3.43219 0.284684,-6.9431 -0.984463,-10.639757 -0.688781,-2.00623 -2.070599,-4.691122 -2.414347,-4.691122 -0.24339,0 -0.260728,-0.113282 0.29216,1.908565 0.873085,3.19276 1.131854,5.122424 1.12941,8.422344 -0.0029,3.68553 -0.353477,5.58959 -1.608962,8.73431 -2.238973,5.60816 -2.169306,5.3029 -2.347138,10.28376 -0.173591,4.86198 -0.301083,6.01097 -1.171284,10.55579 -0.400648,2.09245 -0.629268,4.05036 -0.746899,6.39648 -0.118774,2.36891 -0.290583,3.83086 -0.573938,4.88371 -1.020255,3.79096 -0.522982,13.10648 1.041172,19.5045 0.481123,1.96798 0.624294,3.53104 0.379884,4.14731 -0.161903,0.40822 -0.586823,0.3722 -1.285201,-0.10896 -0.438339,-0.302 -0.669902,-0.35745 -0.903555,-0.21635 -0.611542,0.36928 -0.793733,1.06726 -0.796631,3.05192 -0.0037,2.42015 -0.373743,3.33535 -1.639486,4.05308 -1.460802,0.82832 -2.565229,1.06048 -5.449142,1.14545 -2.253038,0.0664 -2.883819,0.0233 -3.688476,-0.25207 z M 65.690796,99.339449 c -0.235106,-5.17239 0.730794,-8.609321 4.176694,-14.861772 2.89627,-5.255156 3.565035,-7.276305 3.58169,-10.82462 0.0073,-1.555452 -0.09119,-2.619612 -0.317818,-3.433661 -0.358717,-1.288519 -0.700954,-2.107984 -0.879754,-2.106537 -0.06295,5.09e-4 -0.124902,1.078211 -0.137683,2.394892 -0.03874,3.992093 -0.961945,6.772482 -4.037801,12.160808 -1.823701,3.19478 -2.766224,5.242172 -3.42044,7.430011 -0.521947,1.745495 -0.73612,5.804315 -0.398396,7.550087 0.27056,1.398602 1.188666,4.085683 1.395971,4.085683 0.08052,0 0.09741,-1.0777 0.03757,-2.394891 z M 17.134993,78.958424 c 1.508986,-0.892093 2.523172,-2.855004 2.644089,-5.117533 0.07095,-1.327821 0.03111,-1.562784 -0.342229,-2.019223 -0.232392,-0.2841 -0.493376,-0.516545 -0.579963,-0.516545 -0.08658,0 -0.192206,0.52849 -0.23471,1.174424 -0.09538,1.449431 -0.785728,2.517496 -2.379884,3.682065 -1.478822,1.08031 -1.782378,1.553092 -1.468286,2.286788 0.435434,1.017142 1.217434,1.186071 2.360983,0.510024 z m 81.50193,-7.047718 C 96.93254,66.757337 93.143317,63.021344 88.286155,61.705337 c -1.873381,-0.507578 -5.374501,-0.598935 -7.121924,-0.185836 -1.331132,0.314686 -4.076725,1.316536 -4.076769,1.48759 -2.2e-5,0.06997 1.725317,0.127223 3.834076,0.127223 3.387951,0 4.022429,0.04982 5.452503,0.428136 4.852436,1.283683 7.936311,3.672767 11.691622,9.057516 1.00872,1.446408 1.204014,1.203932 0.57126,-0.70926 z M 37.803465,59.063275 c 1.502588,0.388848 1.78601,0.309685 2.909499,-0.812663 0.568781,-0.5682 1.134142,-1.033091 1.256365,-1.033091 0.45584,0 -0.227659,-0.523107 -1.227016,-0.939075 -1.431212,-0.595724 -2.65503,-0.460253 -3.577171,0.395977 -0.687386,0.638252 -1.889369,2.663211 -1.693399,2.852831 0.05738,0.0555 0.413819,-0.07578 0.792118,-0.291745 0.612746,-0.3498 0.780797,-0.368601 1.539604,-0.172234 z m 20.016248,-5.87365 c 0.987449,-0.145454 2.282622,-0.480303 2.878161,-0.744107 1.154093,-0.511224 3.846483,-2.847147 3.645069,-3.162467 -0.148226,-0.232055 -2.348466,-0.02601 -3.731076,0.349396 -1.209546,0.328418 -2.146795,0.866819 -3.46673,1.991454 -0.518888,0.44211 -1.245411,1.032312 -1.614502,1.311561 l -0.671077,0.507725 0.582392,0.0055 c 0.32032,0.003 1.390306,-0.113557 2.377763,-0.259012 z M 61.99505,172.56581 c -0.83069,-0.20803 -1.214515,-0.53569 -1.214515,-1.03682 0,-0.59569 2.418067,-4.09395 4.02152,-5.81799 1.712813,-1.84164 2.192828,-2.75635 3.065612,-5.84182 0.883305,-3.12268 1.122043,-5.35515 1.144935,-10.70658 0.01776,-4.15457 -0.0029,-4.40661 -0.544208,-6.57421 -0.539271,-2.16022 -0.563909,-2.45334 -0.592018,-7.0438 l -0.02935,-4.78979 -1.085599,-3.56885 c -1.168304,-3.84075 -1.550522,-5.49293 -1.964473,-8.4917 -0.182858,-1.32465 -0.199447,-1.87861 -0.05363,-1.79176 0.116068,0.0692 0.735182,0.47826 1.375816,0.90915 2.351863,1.58186 4.658448,2.52968 9.415324,3.86897 0.703969,0.19821 0.884545,0.33714 0.930029,0.71555 0.03104,0.25827 0.413848,2.20236 0.850669,4.3202 l 0.794224,3.85061 -0.324848,2.25402 c -0.178661,1.23971 -0.409314,3.20871 -0.512555,4.37557 -0.103242,1.16685 -0.454269,3.27999 -0.780064,4.69586 -0.875307,3.80399 -1.127781,5.68886 -1.384385,10.33507 -0.192052,3.47745 -0.184428,4.66198 0.04476,6.94989 0.396114,3.95442 0.377881,6.31832 -0.05195,6.73377 -0.319851,0.30916 -0.366266,0.29867 -0.910533,-0.20585 -1.059464,-0.98212 -1.738259,-0.16294 -1.979536,2.38891 -0.22129,2.34047 -0.309161,2.65871 -0.888969,3.21971 -0.867428,0.8393 -2.703279,1.25689 -5.88165,1.33787 -1.548189,0.0395 -3.098263,7.1e-4 -3.444616,-0.086 z m 64.40957,-0.41952 c -1.13952,-0.18277 -1.9493,-0.58734 -1.9493,-0.97386 0,-0.54986 2.90203,-4.61389 4.44762,-6.22849 1.34053,-1.40038 1.94042,-2.23443 3.05943,-4.25361 2.4947,-4.50153 5.66236,-12.51659 6.3544,-16.0784 1.157,-5.95494 0.23295,-8.48274 -5.37451,-14.70239 -1.27185,-1.4107 -3.43438,-4.67094 -4.53488,-6.83679 -0.57206,-1.12586 -1.04011,-2.14466 -1.04011,-2.26399 0,-0.29972 7.52181,-3.92768 9.35626,-4.51277 1.64805,-0.52563 3.76636,-0.86631 4.25797,-0.68476 0.17395,0.0643 0.93107,1.00432 1.68248,2.08905 0.7514,1.08475 1.75324,2.40781 2.22629,2.94014 0.8575,0.96494 0.86043,0.97318 0.96886,2.73167 0.17774,2.88268 1.2659,5.57714 3.84573,9.52271 1.00331,1.53445 0.92961,2.5284 -0.39258,5.295 -4.71617,9.86827 -7.52863,16.74146 -8.71735,21.30371 -0.21534,0.82647 -0.49026,2.38396 -0.61093,3.46109 -0.22435,2.00264 -0.73357,3.39488 -1.24171,3.39488 -0.14571,0 -0.40802,-0.21132 -0.58292,-0.46959 -0.90329,-1.33389 -2.14823,0.25469 -2.54539,3.24796 -0.25137,1.89456 -1.58687,2.68264 -5.14472,3.0359 -2.23581,0.222 -2.58098,0.22052 -4.06464,-0.0175 z M 45.445804,51.735636 c -1.111859,-0.554525 -1.748744,-1.462623 -1.748744,-2.493449 0,-0.989631 0.395593,-1.4132 2.096865,-2.24514 0.715232,-0.349756 1.504459,-0.847813 1.753844,-1.106793 0.620031,-0.643889 0.467307,-0.877964 -2.291221,-3.511673 -1.244362,-1.188055 -2.677929,-2.728105 -3.185701,-3.422333 -2.731307,-3.734232 -4.282731,-8.536851 -3.620526,-11.207728 0.418207,-1.686727 0.784224,-1.330431 2.032335,1.978336 0.888074,2.354287 2.058382,4.306636 3.502338,5.842718 1.352747,1.439055 1.756059,1.526304 1.588521,0.343648 -0.296386,-2.092263 -0.347116,-3.889969 -0.148197,-5.251921 0.25725,-1.761348 0.557775,-2.444226 1.109343,-2.520756 0.525308,-0.07289 0.742174,0.456569 1.138757,2.78012 0.581629,3.407757 1.40358,5.705657 2.605753,7.284809 2.01273,2.643877 4.532395,1.766918 5.549633,-1.931521 0.583397,-2.121084 0.421303,-5.322803 -0.485312,-9.58612 -0.482378,-2.268363 -0.515828,-3.9958 -0.08051,-4.157431 1.082525,-0.401931 2.806638,2.676125 3.906714,6.974642 0.263421,1.029317 0.606795,2.110683 0.763041,2.403035 0.528749,0.989323 1.597223,1.127126 2.63213,0.339468 0.74739,-0.568829 1.871921,-2.817234 2.426167,-4.850905 0.442823,-1.624848 0.501168,-2.217583 0.522116,-5.304207 0.02553,-3.756937 -0.04549,-4.246514 -1.165076,-8.031041 -0.774179,-2.617023 -0.745534,-3.051205 0.201311,-3.051205 0.465436,0 0.825598,0.177605 1.339548,0.66056 1.695952,1.59367 2.868329,4.632699 3.44072,8.919009 0.291845,2.185486 0.750743,2.816311 1.853842,2.548428 1.033982,-0.251095 2.085427,-1.941976 3.044723,-4.896362 0.877194,-2.701532 1.112102,-4.668115 1.112102,-9.310107 0,-3.855403 0.03427,-4.3072016 0.35551,-4.6910844 0.425507,-0.5084422 1.154474,-0.4109615 1.779274,0.237934 1.040644,1.0807792 1.876125,5.4634093 1.674844,8.7856384 -0.132422,2.185699 0.06141,3.220314 0.682133,3.640987 0.915625,0.620531 2.112883,-0.382548 3.449026,-2.889648 0.920152,-1.72654 1.229431,-2.750667 1.846387,-6.1139771 0.681782,-3.7166657 0.700631,-3.7872039 1.107201,-4.143215 0.55721,-0.4879104 1.266146,-0.086088 1.762105,0.9987486 0.574305,1.2562141 0.663907,3.5458432 0.265115,6.7750625 -0.372393,3.015505 -0.255063,3.654742 0.690395,3.76121 1.172957,0.132088 2.433409,-1.716169 3.753616,-5.5041101 0.725628,-2.0819823 0.825407,-2.2584657 1.307293,-2.3123158 0.828474,-0.092581 1.191255,0.6372946 1.277871,2.5709259 0.073,1.629629 0.0223,1.891063 -1.188599,6.12777 -0.307062,1.074356 -0.165711,1.664526 0.418948,1.749217 0.598679,0.08672 1.623974,-0.926553 3.005381,-2.970143 0.98155,-1.452061 1.305349,-1.795471 1.738435,-1.843711 0.840415,-0.09361 1.052755,0.573002 0.773355,2.427793 -0.628284,4.170892 -3.567916,9.723908 -7.162725,13.530523 -4.369919,4.627392 -10.983661,9.180565 -16.990065,11.696657 -3.439957,1.441003 -5.607194,2.132424 -11.805063,3.766208 -9.742674,2.568207 -12.140197,3.619315 -14.95327,6.555715 -0.782213,0.816507 -0.984925,0.926425 -1.844238,0.999991 -0.746216,0.06389 -1.163425,-0.01609 -1.837443,-0.352257 z M 28.749018,49.407764 C 28.161774,49.267607 26.196204,49.023426 24.381084,48.86514 17.112365,48.231275 15.014274,47.830485 12.138241,46.526438 7.3830438,44.370344 3.7794522,40.195857 2.3425837,35.178913 1.3653183,31.766695 1.7358109,27.368074 2.9621307,27.823397 c 0.4086387,0.151725 0.5905503,0.617155 1.3206543,3.37902 0.693352,2.622849 2.0834164,5.540338 3.3650881,7.062699 0.8167786,0.97017 2.3724589,2.19907 2.5573569,2.020171 0.04711,-0.04561 -0.134799,-0.754749 -0.4042957,-1.575874 -1.2429606,-3.787168 -1.4274475,-7.413079 -0.3771768,-7.413079 0.4191383,0 0.7782805,0.616699 1.4767465,2.535769 1.062128,2.918259 2.67765,5.58714 3.703583,6.118395 0.642872,0.332898 0.738659,-0.05003 0.613765,-2.45358 -0.173238,-3.333714 0.357381,-5.63708 1.298592,-5.63708 0.508799,0 0.708672,0.430263 0.872571,1.878347 0.752695,6.650214 3.652971,10.536358 8.617546,11.54682 1.430937,0.291245 3.444864,0.421089 3.637675,0.234531 0.137894,-0.133422 -1.468161,-0.930603 -2.545326,-1.263397 -2.653101,-0.819685 -5.007009,-2.510671 -6.125542,-4.400432 -0.53905,-0.910724 -0.542345,-0.93438 -0.195984,-1.40876 1.223746,-1.676069 0.403715,-4.350664 -2.714784,-8.85448 -1.813223,-2.618701 -3.096627,-5.128686 -3.546772,-6.936528 -0.69884,-2.806602 -0.589809,-5.618879 0.25648,-6.615305 l 0.363925,-0.428495 0.414854,0.395168 c 0.284654,0.271151 0.596647,1.125914 0.994141,2.723603 1.837906,7.387315 7.264312,12.57879 8.91285,8.526979 0.355369,-0.873435 0.252383,-3.098307 -0.29517,-6.376724 -0.845507,-5.062377 -0.842099,-7.38218 0.01456,-9.915554 0.442662,-1.3090648 1.564599,-2.0083679 1.893132,-1.1799881 0.05432,0.136986 0.153237,1.2504151 0.219798,2.4742871 0.292576,5.379631 1.390314,9.081187 2.693131,9.081187 0.995928,0 1.366817,-0.927837 1.877083,-4.695868 0.216844,-1.60129 0.567299,-3.528405 0.778794,-4.282477 0.689338,-2.4578511 2.007139,-4.4821073 2.817512,-4.3279596 0.695017,0.1322032 0.756085,0.5890295 0.389114,2.9105576 -0.468613,2.96452 -0.374205,4.932238 0.268395,5.594076 0.297363,0.306257 0.676433,0.481473 1.041643,0.481473 0.992974,0 1.71015,-0.979808 2.934327,-4.008868 1.067579,-2.641581 1.730291,-3.6923541 2.328714,-3.6923541 0.630839,0 0.749233,0.7176601 0.606935,3.6791831 -0.131843,2.744001 -0.120668,2.880363 0.2667,3.255172 0.222369,0.215159 0.469831,0.390881 0.549909,0.390495 0.492584,-0.0023 1.404937,-0.85267 1.989838,-1.854487 1.499946,-2.569127 1.732969,-2.868891 2.181412,-2.806281 0.685479,0.0957 0.837367,1.16422 0.453829,3.192605 -0.292007,1.544332 -0.293635,1.740421 -0.01783,2.147687 0.166929,0.246503 0.42583,0.448187 0.575333,0.448187 0.532667,0 1.494913,-1.007137 2.273216,-2.37926 0.93997,-1.657121 1.206245,-1.940938 1.820979,-1.940938 2.350329,0 -0.514024,8.476263 -4.306541,12.74402 l -0.55867,0.628682 -0.718798,-0.331655 c -1.028567,-0.474581 -2.092536,-0.146849 -2.862643,0.881771 -0.523202,0.698845 -0.705209,1.268228 -1.133416,3.545807 l -0.158916,0.845256 -0.489304,-0.939173 c -0.269115,-0.516546 -0.782309,-1.742167 -1.140438,-2.723602 -0.968857,-2.655122 -2.143039,-3.615212 -3.599505,-2.943198 -1.906736,0.879773 -2.168858,5.141756 -0.56914,9.253988 l 0.463719,1.19203 -1.60189,1.118916 c -2.769886,1.934763 -3.872705,3.352776 -3.895957,5.009431 -0.01644,1.169176 0.65467,2.257769 1.926576,3.125214 l 0.851968,0.581048 -1.104757,0.641238 c -1.2733,0.739066 -2.10355,1.470308 -3.09976,2.730106 -0.764134,0.966316 -0.791692,0.973235 -2.372931,0.595845 z"
       id="path1" /></g></svg>
