<?xml version="1.0" encoding="UTF-8" standalone="no"?>
<!-- Created with Inkscape (http://www.inkscape.org/) -->

<svg
   width="180mm"
   height="180mm"
   viewBox="0 0 180 180"
   version="1.1"
   id="svg1"
   sodipodi:docname="spider.svg"
   inkscape:version="1.4.2 (f4327f4, 2025-05-13)"
   xml:space="preserve"
   xmlns:inkscape="http://www.inkscape.org/namespaces/inkscape"
   xmlns:sodipodi="http://sodipodi.sourceforge.net/DTD/sodipodi-0.dtd"
   xmlns="http://www.w3.org/2000/svg"
   xmlns:svg="http://www.w3.org/2000/svg"><sodipodi:namedview
     id="namedview1"
     pagecolor="#505050"
     bordercolor="#ffffff"
     borderopacity="1"
     inkscape:showpageshadow="0"
     inkscape:pageopacity="0"
     inkscape:pagecheckerboard="1"
     inkscape:deskcolor="#505050"
     inkscape:document-units="mm"
     inkscape:zoom="1"
     inkscape:cx="482"
     inkscape:cy="226"
     inkscape:window-width="2560"
     inkscape:window-height="1351"
     inkscape:window-x="-9"
     inkscape:window-y="-9"
     inkscape:window-maximized="1"
     inkscape:current-layer="layer1"
     showguides="true" /><defs
     id="defs1"><rect
       x="101.82338"
       y="91.923881"
       width="384.66609"
       height="299.81327"
       id="rect3" /><rect
       x="2.8284271"
       y="2.1213203"
       width="662.55905"
       height="647.0027"
       id="rect2" /></defs><g
     inkscape:label="Icon"
     inkscape:groupmode="layer"
     id="layer1"><path
       style="fill:#000000;stroke-width:2.44912"
       d="m 49.031311,165.8166 c -2.784221,-5.93067 -5.065779,-11.15465 -5.070151,-11.60882 -0.0048,-0.52436 0.920114,-0.82578 2.534547,-0.82578 1.398344,0 2.708475,-0.0744 2.911351,-0.16504 0.5952,-0.26648 7.905253,20.18517 7.733126,21.63531 -0.09585,0.80675 -0.719472,1.40424 -1.601725,1.53435 -1.289519,0.19026 -1.989339,-0.94658 -6.507148,-10.56992 z m 74.161889,10.2467 c -0.23303,-0.24219 -0.41728,-0.91109 -0.40941,-1.48639 0.0267,-1.9473 7.50577,-21.52569 8.19757,-21.45915 0.3777,0.0362 1.33026,0.11511 2.11683,0.17528 3.4292,0.26187 3.35439,0.72678 -1.96637,12.21785 -3.94767,8.52566 -5.36215,10.99283 -6.30247,10.99283 -0.66681,0 -1.4031,-0.19825 -1.63615,-0.44042 z M 85.268216,154.42071 c -4.321635,-1.24654 -6.924624,-2.86062 -10.126128,-6.27903 -5.598229,-5.97752 -7.983568,-13.39873 -7.5579,-23.514 0.22846,-5.42784 0.519766,-6.65947 2.620189,-11.07662 1.649291,-3.4684 3.433016,-5.98593 5.904478,-8.33358 1.947683,-1.8501 3.804247,-3.36383 4.125654,-3.36383 1.110714,0 0.578719,-1.75709 -0.998142,-3.296767 -2.2381,-2.185303 -4.138001,-7.91436 -4.138001,-12.47792 0,-4.935838 1.333001,-9.470885 3.857866,-13.124999 l 2.009712,-2.908585 -1.655249,-1.795672 c -1.041431,-1.129766 -2.044473,-3.434992 -2.704823,-6.216163 -1.02548,-4.318971 -1.016856,-4.515547 0.375579,-8.559841 1.852119,-5.37945 2.94544,-7.112152 4.487707,-7.112152 1.644439,0 1.639994,1.922611 -0.01441,6.44812 -1.504936,4.115329 -1.611263,7.281287 -0.349923,10.418907 0.945314,2.351466 2.257079,3.089555 2.257079,1.269988 0,-1.116683 2.752382,-4.26399 3.728926,-4.26399 0.334764,0 0.804683,1.205995 1.04429,2.679975 0.362967,2.232967 0.657588,2.646193 1.766236,2.477332 0.918769,-0.139823 1.507458,-0.91831 1.902016,-2.514834 0.314271,-1.271687 0.6917,-2.439131 0.838699,-2.594309 0.455528,-0.480815 4.067757,3.448225 4.067757,4.424512 0,1.66289 1.484299,0.451502 2.291408,-1.870078 1.132384,-3.257367 1.054404,-5.192138 -0.384564,-9.539123 -1.631658,-4.928997 -1.654168,-6.9365 -0.07783,-6.9365 1.687148,0 2.425408,1.15496 4.195318,6.563399 1.29363,3.953109 1.45975,5.271187 0.98899,7.847094 -0.82524,4.515496 -1.68434,6.517507 -3.50129,8.159498 l -1.615129,1.459574 1.559929,1.693077 c 3.03254,3.291424 4.47533,7.770492 4.48213,13.914572 0.005,4.848199 -0.24206,6.140784 -1.8113,9.462295 -0.99963,2.115891 -2.21523,4.005693 -2.70137,4.199572 -0.987304,0.393778 -1.22069,2.193018 -0.284457,2.193018 0.329667,0 2.282757,1.6198 4.340207,3.59958 2.72654,2.6236 4.33052,4.9074 5.91567,8.42292 2.11255,4.68515 2.17485,5.05983 2.17485,13.08105 0,7.91092 -0.0851,8.44422 -2.02343,12.69712 -2.59953,5.70334 -4.83316,8.60079 -8.78203,11.39205 -3.297212,2.33064 -8.882733,4.36091 -11.715336,4.25844 -0.897916,-0.0325 -2.919687,-0.43035 -4.492817,-0.8841 z m -8.584845,-21.02245 c -0.513353,-3.60588 0.656915,-11.16636 2.221956,-14.35477 1.79958,-3.66625 4.31193,-6.51668 7.00005,-7.942 2.659083,-1.40993 3.564351,-3.0115 2.474033,-4.37694 -1.132311,-1.41803 -3.239262,-1.07769 -6.456501,1.0429 -3.557192,2.34462 -6.374588,6.21034 -7.817928,10.72674 -1.875037,5.86733 -0.478879,17.7117 2.087787,17.7117 0.686416,0 0.798797,-0.64305 0.490603,-2.80763 z m 6.677977,-44.778246 c 0,-5.364719 0.9469,-8.111908 3.735413,-10.837451 2.305149,-2.253091 2.485756,-3.35 0.713899,-4.335599 -3.842389,-2.137289 -9.055286,7.000394 -7.872454,13.799668 0.503911,2.8967 1.958374,6.018939 2.803871,6.018939 0.343268,0 0.619271,-2.070549 0.619271,-4.645557 z M 42.87788,147.75919 c 0.199153,-1.27583 1.011162,-7.37005 1.804337,-13.54272 0.793175,-6.17265 1.680089,-11.22299 1.970938,-11.22299 1.201354,0 5.562988,2.73036 5.561858,3.48168 -6.72e-4,0.44679 -0.583764,5.56881 -1.295789,11.38229 -1.435556,11.72118 -1.677061,12.22147 -5.899384,12.22147 h -2.504158 z m 88.6434,1.49395 c -0.75802,-0.6105 -1.3697,-3.6824 -2.34613,-11.7829 -0.72644,-6.0264 -1.32077,-11.14843 -1.32077,-11.38226 0,-0.4726 4.72323,-3.0945 5.57459,-3.0945 0.29719,0 1.18896,5.27671 1.9817,11.72603 0.79274,6.44929 1.59783,12.54351 1.78908,13.54269 0.33215,1.73525 0.23567,1.81672 -2.15267,1.81672 -1.37524,0 -2.96185,-0.3716 -3.5258,-0.82578 z M 15.138712,143.69292 c -0.878793,-0.91337 -0.289624,-4.12629 2.376138,-12.95756 1.511446,-5.00717 2.893863,-9.25548 3.072067,-9.4407 0.316122,-0.32856 4.933507,2.23979 4.933507,2.7442 0,0.71961 -6.581333,17.33458 -7.370832,18.60809 -0.908126,1.46486 -2.18203,1.90743 -3.01088,1.04597 z m 146.782308,-1.04597 c -0.7745,-1.24934 -7.37083,-17.88199 -7.37083,-18.58557 0,-0.12734 1.10536,-0.99197 2.45633,-1.92117 l 2.45633,-1.68948 1.96577,6.7215 c 3.28458,11.231 4.12265,14.81778 3.71817,15.91331 -0.55638,1.50691 -2.15438,1.28964 -3.22577,-0.43859 z M 50.470038,120.58953 c -1.48478,-0.93049 -2.53594,-1.96703 -2.335899,-2.30345 0.402053,-0.67614 12.383399,-10.15077 20.225639,-15.99406 3.936446,-2.93308 5.208332,-3.578436 5.891361,-2.989259 0.709478,0.611978 0.395422,1.174509 -1.692773,3.032259 -1.410092,1.25448 -4.033213,4.62558 -5.829093,7.49132 -2.386132,3.80757 -4.499095,6.19264 -7.847837,8.85848 -2.520397,2.00643 -4.836621,3.63644 -5.147169,3.62226 -0.310525,-0.015 -1.779425,-0.78708 -3.264229,-1.71755 z m 70.309812,-2.22742 c -3.3897,-2.72559 -5.42841,-4.96515 -6.77148,-7.43857 -1.0569,-1.94638 -3.40101,-5.22127 -5.20917,-7.27751 -3.13733,-3.56778 -3.83362,-5.852803 -1.36507,-4.479695 1.82687,1.016185 24.03072,18.326605 24.4831,19.087385 0.39713,0.66785 -4.47454,4.1192 -5.70775,4.04362 -0.31886,-0.02 -2.76219,-1.7904 -5.42963,-3.93523 z m -96.038932,0.83684 c -0.953122,-0.6143 -1.854353,-1.44575 -2.002745,-1.84769 -0.266129,-0.72076 14.528601,-17.479495 15.43101,-17.479495 0.255775,0 1.121116,1.213215 1.922939,2.696005 l 1.457874,2.69598 -1.803183,2.09349 c -4.632712,5.37863 -12.03905,12.992 -12.623319,12.97619 -0.357298,-0.01 -1.429479,-0.52019 -2.382576,-1.13448 z m 120.357072,-6.11832 c -3.54098,-3.99867 -6.43815,-7.53569 -6.43815,-7.86 0,-0.32431 0.6725,-1.82022 1.49446,-3.32423 l 1.49448,-2.73461 7.72193,8.53295 c 4.24707,4.69312 7.72193,8.95067 7.72193,9.46122 0,1.02091 -3.14666,3.19505 -4.62425,3.19505 -0.51273,0 -3.8294,-3.27168 -7.3704,-7.27038 z M 43.380422,100.82496 c -1.625532,-2.863472 -1.684533,-4.061577 -0.221734,-4.502617 3.342064,-1.007672 25.04811,-5.699245 26.368066,-5.699245 1.271574,0 1.699572,0.495721 2.336932,2.706791 0.429151,1.488736 0.676518,2.814654 0.549675,2.946487 -0.321454,0.334101 -25.918831,6.898504 -26.90018,6.898504 -0.439337,0 -1.399113,-1.05746 -2.132807,-2.34992 z m 77.206138,-1.009899 c -6.9688,-1.798343 -12.78064,-3.384156 -12.91525,-3.524029 -0.13453,-0.139822 0.10643,-1.472407 0.53558,-2.961143 0.95129,-3.300038 1.08136,-3.311998 11.23638,-1.033489 15.58423,3.496664 18.58093,4.355899 18.58093,5.327516 0,1.532731 -2.77823,5.537774 -3.81368,5.497724 -0.52438,-0.02 -6.65516,-1.50826 -13.62396,-3.306579 z M 62.703892,85.677398 C 47.172321,81.366591 42.046412,79.7245 42.046412,79.059743 c 0,-1.153112 3.177,-5.613004 3.995496,-5.608909 0.892295,0.005 24.519959,7.612742 24.914276,8.022572 0.14462,0.150309 0.06318,1.633927 -0.181135,3.297067 l -0.443853,3.023914 z M 109.41288,86.1283 c -0.005,-0.979607 -0.17249,-2.415585 -0.37272,-3.191051 -0.42589,-1.649582 0.40126,-2.025306 13.41149,-6.091847 12.80878,-4.003545 12.0353,-3.963521 14.00261,-0.72453 0.92295,1.519597 1.43926,2.998995 1.14733,3.287579 -0.29196,0.288559 -5.39327,1.918216 -11.33625,3.62143 -5.94299,1.703239 -12.16407,3.497913 -13.82463,3.988166 l -3.01916,0.891369 z M 62.075084,69.354556 c -5.072769,-4.794218 -9.223239,-9.063452 -9.223239,-9.487189 0,-0.423738 1.262853,-1.466739 2.806322,-2.31776 l 2.806322,-1.547312 7.999135,7.80003 c 4.399518,4.290007 7.999135,7.879978 7.999135,7.977729 0,0.51999 -2.644885,6.291268 -2.883196,6.291268 -0.154709,0 -4.431685,-3.922548 -9.504479,-8.716766 z m 44.837836,5.669582 -1.33127,-3.127957 1.76105,-1.929677 c 0.96857,-1.061328 4.53191,-4.592548 7.91848,-7.847194 l 6.15745,-5.917518 2.53913,1.346342 c 1.39652,0.740461 2.70045,1.617598 2.89761,1.949152 0.19723,0.331555 -3.43028,4.281569 -8.06097,8.777814 -11.46746,11.134524 -10.29777,10.470117 -11.88148,6.749038 z M 31.240955,69.349213 c -9.064805,-9.946157 -8.87692,-9.624915 -6.744786,-11.531046 0.951921,-0.851021 2.220227,-1.547312 2.818478,-1.547312 1.138388,0 14.731765,13.736198 14.731765,14.886539 0,0.90213 -3.112473,5.602267 -3.677692,5.553679 -0.249601,-0.02247 -3.457087,-3.334295 -7.127765,-7.36186 z m 108.090065,4.495796 -1.52689,-2.90509 6.6251,-7.322784 c 4.11912,-4.552924 7.10593,-7.325981 7.89632,-7.331249 0.69917,-0.005 2.1293,0.711971 3.17805,1.592529 l 1.90685,1.601019 -2.85303,3.185209 c -5.74472,6.413588 -13.0184,14.08543 -13.35439,14.08543 -0.18978,0 -1.03221,-1.307291 -1.87201,-2.905064 z M 50.945001,55.980673 c 0,-0.08065 -1.001072,-5.30115 -2.224647,-11.600982 -1.223551,-6.299833 -2.224647,-11.998478 -2.224647,-12.663634 0,-0.990569 0.510758,-1.209391 2.822753,-1.209391 1.552526,0 3.011577,0.317522 3.242344,0.705605 0.230863,0.388057 1.346958,5.384968 2.480422,11.104187 l 2.060833,10.398633 -3.078529,1.70616 c -1.693181,0.938385 -3.078529,1.640119 -3.078529,1.559422 z M 125.84397,54.57196 c -2.1298,-1.128968 -2.89751,-1.901063 -2.72815,-2.743719 0.12973,-0.644957 1.00244,-5.185921 1.93961,-10.091048 0.93717,-4.905102 1.96039,-9.4386 2.2738,-10.074444 0.67633,-1.372059 6.24568,-1.701566 6.24568,-0.369506 0,0.868923 -4.44305,24.535997 -4.64244,24.729077 -0.0685,0.06642 -1.4584,-0.586256 -3.0885,-1.45036 z m 30.56262,-0.209235 -2.27507,-1.74978 3.2857,-8.365362 c 3.59049,-9.141253 5.10035,-11.971687 6.18558,-11.595714 2.03589,0.705331 1.88467,2.398108 -1.11144,12.441017 -1.67149,5.602817 -3.21246,10.374288 -3.42437,10.603273 -0.21188,0.228959 -1.4091,-0.371054 -2.6604,-1.333434 z M 17.682965,45.848852 C 14.491431,35.352243 14.180834,33.320696 15.676497,32.724203 c 1.662815,-0.663209 2.591938,0.85484 6.390011,10.440154 l 3.696911,9.330014 -1.86944,1.554652 c -1.028195,0.855041 -2.178499,1.556126 -2.55624,1.557924 -0.377741,0.0018 -2.022396,-4.389331 -3.654774,-9.758095 z M 49.22107,26.727535 47.179312,26.462946 49.624997,19.40128 C 55.203191,3.2948383 55.781262,2.2190531 57.755491,4.270925 c 0.944425,0.9816046 0.908559,1.5293347 -0.450724,6.879772 -2.721904,10.713958 -4.487323,16.054732 -5.271465,15.947144 -0.42377,-0.05818 -1.689266,-0.224715 -2.812232,-0.370306 z m 76.53726,-4.579565 c -0.85513,-2.851207 -2.21055,-7.799979 -3.01206,-10.997273 -1.3594,-5.4228204 -1.38621,-5.8871314 -0.39924,-6.91293 1.87725,-1.9510747 2.67479,-0.4533249 8.09561,15.203512 2.42786,7.012254 2.44105,7.101765 1.04761,7.110679 -0.77617,0.005 -2.03355,0.182519 -2.79417,0.39455 -1.25166,0.348907 -1.53059,-0.106615 -2.93775,-4.798538 z"
       id="path1" /></g></svg>
