<?xml version="1.0" encoding="UTF-8" standalone="no"?>
<!-- Created with Inkscape (http://www.inkscape.org/) -->

<svg
   width="180mm"
   height="180mm"
   viewBox="0 0 180 180"
   version="1.1"
   id="svg1"
   sodipodi:docname="termites.svg"
   inkscape:version="1.4.2 (f4327f4, 2025-05-13)"
   xml:space="preserve"
   xmlns:inkscape="http://www.inkscape.org/namespaces/inkscape"
   xmlns:sodipodi="http://sodipodi.sourceforge.net/DTD/sodipodi-0.dtd"
   xmlns="http://www.w3.org/2000/svg"
   xmlns:svg="http://www.w3.org/2000/svg"><sodipodi:namedview
     id="namedview1"
     pagecolor="#505050"
     bordercolor="#ffffff"
     borderopacity="1"
     inkscape:showpageshadow="0"
     inkscape:pageopacity="0"
     inkscape:pagecheckerboard="1"
     inkscape:deskcolor="#505050"
     inkscape:document-units="mm"
     inkscape:zoom="1"
     inkscape:cx="482"
     inkscape:cy="226"
     inkscape:window-width="2560"
     inkscape:window-height="1351"
     inkscape:window-x="-9"
     inkscape:window-y="-9"
     inkscape:window-maximized="1"
     inkscape:current-layer="layer1"
     showguides="true" /><defs
     id="defs1"><rect
       x="101.82338"
       y="91.923881"
       width="384.66609"
       height="299.81327"
       id="rect3" /><rect
       x="2.8284271"
       y="2.1213203"
       width="662.55905"
       height="647.0027"
       id="rect2" /></defs><g
     inkscape:label="Icon"
     inkscape:groupmode="layer"
     id="layer1"><path
       style="fill:#000000;stroke-width:2.55616"
       d="m 79.876817,176.79043 c -0.229116,-0.36868 -0.607797,-3.99742 -0.84168,-8.06385 l -0.425222,-7.39353 2.912716,-5.29731 c 3.457646,-6.28831 7.672758,-12.68993 10.010199,-15.20278 1.67767,-1.80356 1.679182,-1.81733 0.378989,-3.46169 -0.717973,-0.90801 -1.728541,-2.92641 -2.245717,-4.48534 -0.784939,-2.36611 -0.792346,-3.18731 -0.04459,-4.97032 0.492573,-1.17474 1.388968,-3.57371 1.991947,-5.33104 0.603005,-1.75731 1.252217,-3.19919 1.442711,-3.20416 0.642292,-0.0178 4.739284,15.16732 4.732595,17.53977 -0.0026,1.29292 -0.720099,3.86852 -1.592148,5.72355 -1.924725,4.09437 -10.365328,18.3983 -11.885923,20.14257 -0.843704,0.96778 -1.093989,2.74262 -1.093989,7.75745 0,6.14526 -0.08022,6.51395 -1.461675,6.70978 -0.80393,0.11396 -1.649094,-0.0943 -1.878133,-0.4631 z M 27.865703,165.53515 c -3.76339,-1.1528 -7.631599,-5.09588 -8.678534,-8.84656 -5.052947,-18.1023 16.065514,-51.69104 39.333664,-62.559946 7.905642,-3.692825 8.194112,-3.696114 9.943746,-0.113453 3.089703,6.326529 10.823201,12.694139 18.24301,15.020879 2.466657,0.77352 3.628868,1.49603 3.628868,2.25599 0,2.87565 -2.892136,11.83874 -5.464792,16.93612 -3.930614,7.78805 -6.087991,10.75112 -13.039702,17.90964 -9.363755,9.6423 -20.397696,16.49373 -30.842164,19.15112 -5.964156,1.51745 -8.800551,1.57068 -13.124096,0.24628 z m 22.091204,-9.6329 c -0.354309,-0.31349 -2.952746,-2.13405 -5.774328,-4.04571 -4.631416,-3.13779 -11.947328,-9.9316 -16.458471,-15.28386 -1.490815,-1.76878 -1.763831,-1.87481 -2.167526,-0.84169 -0.927457,2.37347 0.555772,4.85318 6.331305,10.58491 6.252934,6.20551 12.730422,10.15632 16.651656,10.15632 1.178356,0 1.785564,-0.24425 1.417364,-0.56997 z m 13.212385,-8.77741 C 63.146222,146.8862 60.627723,145.088 57.575155,143.1287 51.468301,139.20894 43.823247,132.61986 40.008011,127.98805 l -2.459662,-2.98613 2.426883,-3.46395 c 2.031902,-2.90016 2.286005,-3.63284 1.56119,-4.50166 -1.321669,-1.58425 -2.215681,-1.2468 -4.369035,1.64923 -1.313724,1.76676 -2.438697,2.60775 -3.362617,2.51365 -5.064814,-0.5158 2.441695,10.12732 13.13468,18.62303 7.236926,5.74983 16.495119,9.91554 16.229842,7.30262 z m 9.944898,-11.22671 c 0.09611,-0.371 -2.429163,-2.3441 -5.611948,-4.38466 -5.910491,-3.7893 -15.965949,-12.60926 -18.648729,-16.35736 l -1.49207,-2.08454 2.913894,-2.49659 c 2.309326,-1.97865 2.818814,-2.79463 2.455612,-3.93299 -0.650443,-2.03877 -2.005941,-1.788 -5.031036,0.93083 -1.719648,1.54552 -3.190575,2.30648 -4.237767,2.19231 -4.083486,-0.4452 -1.169617,4.9711 6.974546,12.9642 9.37949,9.20555 21.830232,16.43568 22.677498,13.1688 z m -40.956131,-3.23475 c 0.934966,-1.95049 0.944961,-2.38452 0.0815,-3.54146 -0.966796,-1.29557 -1.006776,-1.2908 -2.296128,0.27397 -1.295759,1.57257 -1.738459,4.16691 -0.860131,5.04068 0.977713,0.97264 2.056709,0.35038 3.074659,-1.77319 z m 49.584128,-8.84395 c 0.41697,-1.08095 -0.31069,-1.74739 -5.984402,-5.48091 -4.115393,-2.70807 -15.934837,-13.51696 -15.934837,-14.57241 0,-0.31494 1.691458,-1.52229 3.758829,-2.68296 3.753754,-2.107513 4.206373,-2.957446 2.234056,-4.195085 -0.757721,-0.475485 -2.180724,-0.09255 -5.160406,1.388723 -2.777783,1.380871 -4.337307,1.823262 -4.801048,1.361928 -0.895319,-0.890674 -2.812228,-0.146342 -2.812228,1.092134 0,1.48263 6.888692,9.88299 10.593342,12.91796 5.503234,4.50844 8.536146,6.61863 12.800361,8.90603 4.671575,2.50592 4.814375,2.53996 5.306333,1.26459 z M 115.68372,143.555 c -4.54007,-5.66064 -4.93134,-7.10956 -4.98208,-18.44985 l -0.0361,-8.09472 -5.92648,-3.18981 c -3.25959,-1.7544 -6.316192,-3.44692 -6.79244,-3.76115 -0.670483,-0.44239 -0.462434,-1.28952 0.921947,-3.75356 l 1.787853,-3.1822 1.79038,1.1574 c 13.34335,8.62599 13.04298,8.11759 13.49804,22.84772 l 0.31256,10.11841 2.3276,2.84972 c 3.35444,4.10689 4.40714,6.32666 3.51021,7.40179 -1.35401,1.62302 -2.52358,0.9036 -6.41137,-3.94375 z M 4.6323049,114.44852 c -2.7886752,-2.02855 0.5423684,-4.03245 8.2363221,-4.95481 3.088422,-0.37025 3.746527,-0.7233 4.945489,-2.65321 2.095433,-3.37289 18.165253,-18.445418 20.211122,-18.956852 1.711627,-0.42786 14.333129,0.692271 17.573705,1.559617 1.331895,0.3565 0.857415,0.809396 -3.515874,3.356162 -4.914094,2.861657 -5.152179,2.925828 -8.508236,2.292655 -1.898943,-0.358258 -4.044224,-0.966344 -4.76727,-1.351296 -1.111595,-0.59182 -1.480641,-0.380465 -2.389876,1.368684 -1.777619,3.419695 -15.104229,16.69566 -17.504483,17.43795 -1.181509,0.36537 -3.979025,0.99977 -6.216696,1.40975 -2.237644,0.40997 -4.7056861,0.8787 -5.4844998,1.04161 -0.7788137,0.16291 -1.9396917,-0.0846 -2.5797033,-0.55026 z M 86.754539,105.5392 c -8.665567,-3.21872 -17.98396,-13.931852 -16.188786,-18.611902 0.659618,-1.719625 3.445884,-3.40807 6.977365,-4.228199 1.512778,-0.351298 1.91063,-0.113709 2.605947,1.556226 2.124342,5.102022 7.638776,9.88135 13.719335,11.890524 l 3.371664,1.114064 -0.451696,2.45511 c -0.248337,1.350307 -0.977535,3.365747 -1.620237,4.478767 -1.381331,2.39211 -4.327312,2.86321 -8.413592,1.34541 z M 77.923722,90.749512 c 2.272806,-1.958567 1.448015,-3.538478 -1.467263,-2.81059 -1.921726,0.479819 -2.767686,1.833486 -2.148663,3.43823 0.546802,1.417533 1.418107,1.266295 3.615926,-0.62764 z m 42.587218,7.377008 c -0.37294,-0.124927 -3.65611,-0.736582 -7.2959,-1.359378 l -6.6178,-1.132395 1.65489,-1.956526 c 0.91018,-1.076076 1.84909,-2.56525 2.08646,-3.309276 0.23732,-0.744026 0.63988,-1.344107 0.89445,-1.333552 2.18428,0.09076 14.03848,3.395526 14.23002,3.96718 0.42448,1.266805 1.52298,0.82097 4.58603,-1.861251 1.63103,-1.428241 5.32474,-4.182385 8.20821,-6.120274 l 5.2427,-3.523487 5.79644,0.468347 c 6.46083,0.522014 8.35737,1.202149 8.03025,2.879784 -0.18401,0.944061 -1.15616,1.15042 -5.77904,1.226803 -5.05124,0.08337 -5.79181,0.273258 -8.12605,2.082371 -10.53434,8.164402 -18.2621,11.527829 -22.91066,9.971654 z M 95.620263,92.776073 C 87.29637,90.589351 81.141617,82.42862 82.937176,75.959317 c 0.722329,-2.602447 3.647961,-5.562668 6.090682,-6.162672 1.491943,-0.366468 2.026264,-0.0204 3.712391,2.399353 2.317527,3.326842 7.547391,7.709465 12.004481,10.059765 2.78307,1.467554 3.12015,1.8792 2.76167,3.372784 -1.5207,6.335912 -5.61157,8.795892 -11.886137,7.147526 z M 90.166927,79.159729 c 1.818573,-2.835958 1.854273,-3.19827 0.430886,-4.373445 -0.942937,-0.778521 -1.319081,-0.644442 -2.712304,0.966854 -2.175368,2.515916 -2.163066,5.89923 0.0205,5.814331 0.404002,-0.0153 1.421132,-1.099199 2.260248,-2.40774 z m -28.473124,-1.010196 -5.026269,-5.470172 -8.08491,3.219915 c -5.19239,2.067915 -9.055295,3.203573 -10.797214,3.174279 -4.132436,-0.0696 -12.155378,-2.94857 -12.438005,-4.463443 -0.445186,-2.385968 0.88394,-2.639619 6.21198,-1.18545 l 5.11056,1.394765 3.854165,-1.695634 c 5.356641,-2.356673 14.408245,-4.884063 17.491772,-4.884063 2.088156,0 3.309362,0.612446 6.430358,3.224862 2.11896,1.773675 4.850177,4.268048 6.069359,5.543062 l 2.216707,2.318202 -2.685497,2.146924 c -1.477027,1.18081 -2.829783,2.146925 -3.00613,2.146925 -0.176321,0 -2.582445,-2.461587 -5.346876,-5.470172 z m 48.244247,2.213186 c -6.60889,-2.66106 -13.759324,-9.038198 -16.247587,-14.490498 -4.296507,-9.414482 2.100278,-21.152111 15.103317,-27.7134 5.14315,-2.595207 5.21327,-2.665956 5.92761,-5.979541 1.91893,-8.901289 6.97162,-18.140262 13.36492,-24.4380838 4.3248,-4.2602465 6.81306,-5.6822153 8.32092,-4.7551592 1.57218,0.9666502 0.52392,2.9278423 -3.40293,6.3664553 -5.22258,4.5732507 -9.5248,10.9978607 -12.14039,18.1294777 -2.66409,7.263911 -2.64397,7.569395 0.4986,7.569395 2.18841,0 2.67596,-0.290314 3.46475,-2.063071 1.84573,-4.14817 9.05829,-6.968805 13.99178,-5.471804 l 2.03424,0.617264 -3.09488,1.357415 c -3.04065,1.333628 -6.73726,4.883834 -6.73726,6.470374 0,0.443693 0.99168,1.340588 2.20374,1.993138 1.21208,0.652524 2.89624,2.244061 3.74263,3.536744 1.50871,2.304281 1.57739,2.330464 3.50644,1.338089 2.44626,-1.258442 4.65987,-4.279801 5.23632,-7.147092 0.40593,-2.019143 0.506,-2.08877 1.3506,-0.939677 1.26609,1.722456 1.14117,7.382184 -0.22629,10.248762 -0.62615,1.312619 -2.2928,3.179811 -3.7037,4.149291 -1.89613,1.302906 -2.57199,2.246611 -2.59101,3.617768 -0.0313,2.25301 0.78609,2.327685 6.41601,0.586313 10.03149,-3.102791 16.37823,-6.57855 22.55422,-12.351681 2.48593,-2.323785 4.02621,-3.270269 5.07866,-3.120816 2.96622,0.421181 2.19915,2.56808 -2.52343,7.062729 -6.6166,6.297236 -16.94261,11.066749 -30.31784,14.003591 -1.45319,0.319098 -2.3064,1.4094 -4.25232,5.434173 -2.76289,5.714517 -8.54201,12.347882 -13.04467,14.972943 -4.00038,2.332198 -10.17189,2.764648 -14.51256,1.016901 z M 104.5198,53.94037 c 1.94563,-2.225323 4.89015,-4.971869 6.54342,-6.103447 3.17231,-2.171273 3.65688,-3.313687 1.98947,-4.690351 -1.57152,-1.29745 -4.75461,0.344211 -9.15468,4.721429 -3.919392,3.899057 -5.868907,7.319084 -5.184097,9.094441 0.71705,1.85888 2.224427,1.074266 5.805887,-3.022072 z m 19.38151,-11.468859 c 0,-1.50233 -0.3152,-1.70907 -2.88804,-1.894114 -2.12654,-0.152972 -2.9949,0.06935 -3.29342,0.843202 -0.84073,2.179533 0.25939,3.163265 3.29342,2.945052 2.57284,-0.185096 2.88804,-0.391785 2.88804,-1.89414 z M 75.571032,65.370578 c -2.604716,-7.778201 -2.685342,-8.271889 -1.859424,-11.386509 0.99755,-3.761969 5.792601,-13.558522 8.125993,-16.601883 1.577873,-2.057972 1.583153,-2.122602 0.530887,-6.49773 -1.185507,-4.929062 -0.882608,-6.626073 1.182687,-6.626073 1.673877,0 2.446745,1.781043 3.549857,8.180617 0.913976,5.302184 0.604363,6.208589 -5.692677,16.665773 -3.099032,5.146358 -3.296036,5.719286 -2.331392,6.779682 0.579503,0.637048 1.976109,3.383594 3.103542,6.103472 l 2.049893,4.945226 -2.371603,2.611447 c -1.30437,1.436297 -2.371603,2.914126 -2.371603,3.284061 0,0.369961 -0.268506,0.67264 -0.596674,0.67264 -0.328194,0 -1.821956,-3.658841 -3.319486,-8.130723 z"
       id="path1" /></g></svg>
