<?xml version="1.0" encoding="UTF-8" standalone="no"?>
<!-- Created with Inkscape (http://www.inkscape.org/) -->

<svg
   width="180mm"
   height="180mm"
   viewBox="0 0 180 180"
   version="1.1"
   id="svg1"
   sodipodi:docname="wolf.svg"
   inkscape:version="1.4.2 (f4327f4, 2025-05-13)"
   xml:space="preserve"
   xmlns:inkscape="http://www.inkscape.org/namespaces/inkscape"
   xmlns:sodipodi="http://sodipodi.sourceforge.net/DTD/sodipodi-0.dtd"
   xmlns="http://www.w3.org/2000/svg"
   xmlns:svg="http://www.w3.org/2000/svg"><sodipodi:namedview
     id="namedview1"
     pagecolor="#505050"
     bordercolor="#ffffff"
     borderopacity="1"
     inkscape:showpageshadow="0"
     inkscape:pageopacity="0"
     inkscape:pagecheckerboard="1"
     inkscape:deskcolor="#505050"
     inkscape:document-units="mm"
     inkscape:zoom="1"
     inkscape:cx="482"
     inkscape:cy="226"
     inkscape:window-width="2560"
     inkscape:window-height="1351"
     inkscape:window-x="-9"
     inkscape:window-y="-9"
     inkscape:window-maximized="1"
     inkscape:current-layer="layer1"
     showguides="true" /><defs
     id="defs1"><rect
       x="101.82338"
       y="91.923881"
       width="384.66609"
       height="299.81327"
       id="rect3" /><rect
       x="2.8284271"
       y="2.1213203"
       width="662.55905"
       height="647.0027"
       id="rect2" /></defs><g
     inkscape:label="Icon"
     inkscape:groupmode="layer"
     id="layer1"><path
       style="fill:#000000;stroke-width:3.0011"
       d="m 125.65881,173.26251 c -2.54515,-1.09557 -5.76559,-12.80542 -6.5841,-23.9405 -0.36067,-4.90671 -1.50018,-12.54668 -2.53221,-16.97768 -1.32756,-5.6997 -1.67081,-8.62062 -1.17351,-9.98523 1.06485,-2.92184 1.8253,-13.18288 0.977,-13.18288 -0.40072,0 -1.11962,1.91605 -1.59759,4.25791 -1.43137,7.01299 -2.29504,8.71852 -4.4149,8.71852 -1.04049,0 -6.03431,-1.25278 -11.097387,-2.78396 -5.063049,-1.53118 -10.604885,-2.89977 -12.315212,-3.04135 l -3.10964,-0.25749 0.264442,-5.01111 c 0.278253,-5.27366 -0.270613,-8.3708 -1.482818,-8.3708 -0.398779,0 -0.725043,1.0365 -0.725043,2.30336 0,3.69677 -2.832181,14.21088 -5.06772,18.81324 -2.957644,6.08899 -7.936101,11.25377 -15.489377,16.06901 -8.075021,5.14785 -10.236046,7.95793 -11.713076,15.23092 -1.739915,8.56744 -1.598438,9.66619 1.358589,10.55093 1.65306,0.49459 2.761075,1.47674 3.227728,2.86102 1.291186,3.83018 0.285892,4.73076 -5.281155,4.73076 -2.764836,0 -5.974788,-0.37592 -7.133223,-0.83541 -2.367731,-0.93912 -2.328065,1.45181 -0.354617,-21.37638 l 0.763328,-8.82986 4.607855,-5.00608 c 4.990532,-5.42184 6.296497,-8.61164 6.326555,-15.4524 0.02351,-5.06022 1.343016,-18.37546 1.999862,-20.1612 0.269144,-0.73206 0.167187,-1.33099 -0.227126,-1.33099 -1.366963,0 -3.345582,5.77609 -4.475751,13.06579 -1.216466,7.84651 -2.591832,10.85979 -6.972619,15.27645 -2.559775,2.58076 -2.772211,2.65843 -2.772211,1.01378 0,-0.97964 -0.349857,-1.78115 -0.777432,-1.78115 -0.427574,0 -0.777402,0.30316 -0.777402,0.67354 0,1.01522 -6.258418,5.43734 -9.141607,6.45934 -2.417447,0.85693 -2.494605,0.82202 -1.682472,-0.76105 0.773054,-1.5069 0.684524,-1.60006 -0.964746,-1.01514 -4.406056,1.56266 -16.794217,-1.03548 -13.884025,-2.91184 0.886706,-0.57171 0.353354,-1.42999 -2.539296,-4.08628 -3.6756652,-3.37535 -4.9787212,-6.35856 -2.3108767,-5.29055 5.1247527,2.0516 17.2360717,0.7262 16.7239337,-1.83016 -0.106952,-0.53358 0.417879,-0.97372 1.166134,-0.97808 2.39347,-0.0153 9.24753,-3.79152 12.582593,-6.93483 1.777055,-1.67487 5.281625,-5.99862 7.787924,-9.60835 5.502024,-7.924328 7.325709,-9.750386 14.60223,-14.621322 7.002001,-4.687141 9.566978,-5.634777 20.99804,-7.757493 16.841472,-3.127428 30.031218,-7.815275 28.258548,-10.04356 -0.62488,-0.785481 0.28941,-1.580956 3.86826,-3.365417 5.66968,-2.827029 7.12744,-4.32182 4.82685,-4.949469 -1.43378,-0.391162 -1.25511,-0.758936 1.79271,-3.689787 2.60982,-2.509648 7.31822,-9.451467 7.31822,-10.78959 0,-0.106366 -1.48679,-0.800655 -3.30401,-1.5431 -1.81719,-0.742445 -4.17332,-2.106103 -5.23582,-3.030319 l -1.93184,-1.680395 1.7368,-1.467203 c 0.95526,-0.806939 4.06654,-2.321317 6.91397,-3.365295 4.55897,-1.671474 5.67538,-2.527641 9.3494,-7.169815 4.39716,-5.555876 7.87461,-8.098385 11.11726,-8.128271 2.49828,-0.02146 4.15531,-1.457854 10.09381,-8.740043 5.33328,-6.5400509 5.761,-6.5879614 8.21121,-0.919435 1.25789,2.910068 1.31912,3.868156 0.50878,7.960968 -0.50664,2.55903 -0.92117,5.087009 -0.92117,5.617734 0,1.493687 1.6612,1.143446 3.60303,-0.759703 2.37881,-2.331401 4.17109,-1.484123 4.17109,1.971812 0,2.060736 -0.94832,3.963855 -3.86351,7.753294 -6.15523,8.001154 -7.26838,13.893661 -5.07674,26.873649 0.64021,3.791555 1.16449,7.000979 1.16507,7.132051 5.9e-4,0.131195 -0.56443,0.131195 -1.2556,0 -1.097,-0.208133 -1.23962,0.811905 -1.12256,8.028404 0.0738,4.54669 -0.10871,9.616993 -0.40551,11.267317 l -0.53958,3.000617 -1.43022,-1.940516 -1.43019,-1.940545 -0.0176,2.316013 c -0.0206,2.746136 -1.95515,10.815768 -3.65645,15.251609 -0.94001,2.45086 -1.43637,2.95626 -2.2292,2.26982 -1.27957,-1.10789 -1.69025,-0.31235 -4.92615,9.54269 -3.196,9.73354 -4.99835,21.75795 -5.0783,33.87987 -0.0679,10.29476 0.7065,13.38194 3.35672,13.38194 1.79445,0 5.51936,3.00451 5.51936,4.45191 0,0.59955 -0.4373,1.27419 -0.97177,1.49915 -0.7774,0.32728 -0.7774,0.42187 0,0.4731 0.53447,0.0352 0.97177,0.42901 0.97177,0.87508 0,0.45749 -2.20266,0.81101 -5.05318,0.81101 -2.77926,0 -5.05317,-0.34276 -5.05317,-0.76169 0,-0.41894 -1.37305,-2.41671 -3.05117,-4.4395 -3.45633,-4.1661 -3.50695,-4.43073 -4.66953,-24.40128 -0.78628,-13.50663 -0.53382,-16.35763 1.50832,-17.03384 2.69458,-0.89218 7.76122,-5.29471 9.8095,-8.52369 1.13975,-1.79675 1.92876,-3.41658 1.75334,-3.59958 -0.17541,-0.18299 -2.20665,1.30266 -4.51389,3.30148 -2.30723,1.99885 -4.92612,4.00091 -5.81976,4.44909 -1.58372,0.79428 -1.58666,0.78297 -0.11577,-0.4464 0.83,-0.6937 1.28337,-1.26127 1.00753,-1.26127 -0.2759,0 0.34989,-1.91606 1.39053,-4.25788 4.30759,-9.69384 4.12892,-17.769631 -0.56294,-25.446047 -2.94034,-4.810765 -3.61085,-3.710048 -1.35395,2.222645 1.16308,3.057416 1.66423,6.161732 1.6711,10.351582 0.009,5.58126 -0.25563,6.53779 -3.93029,14.19357 -5.29121,11.02393 -5.9115,14.34491 -5.9326,31.76243 -0.0206,16.34421 0.5112,18.39308 5.03546,19.42973 2.77386,0.63559 4.89454,3.55605 4.53008,6.23855 -0.23535,1.7322 -0.65996,1.88424 -5.69621,2.03977 -2.99305,0.0923 -6.20127,-0.15878 -7.12944,-0.55834 z m 25.99706,-91.076753 c -0.41547,-5.39967 -2.44703,-10.499553 -5.22765,-13.123046 -1.2769,-1.204753 -1.83062,-1.34404 -2.28616,-0.57508 -0.74723,1.261338 -6.30064,-5.883342 -6.30064,-8.106048 0,-0.818924 -0.3959,-1.488936 -0.87978,-1.488936 -1.76635,0 -0.11077,6.182852 2.67514,9.990407 1.51496,2.070514 2.97877,4.501783 3.25288,5.402857 0.58004,1.906552 1.94847,2.202751 1.94847,0.421723 0,-2.249344 1.52351,-1.242394 2.76101,1.8248 0.67489,1.672762 1.61425,4.774932 2.08749,6.893725 1.24514,5.574881 2.43592,4.824834 1.96924,-1.240402 z M 132.98261,42.160953 c 2.43651,-0.681201 2.18224,-2.348997 -0.53735,-3.5242 -1.76824,-0.764086 -2.91366,-0.772147 -5.05318,-0.03556 -3.32055,1.143263 -3.49963,2.034374 -0.62878,3.128225 2.58066,0.983285 3.91451,1.075826 6.21931,0.43147 z M 148.0596,26.583618 c 1.44142,-1.34358 2.2356,-2.694363 1.90863,-3.2463 -1.02857,-1.736183 -5.81992,1.956271 -5.88279,4.53357 -0.0397,1.625096 1.32341,1.183602 3.97416,-1.28727 z M 79.587729,169.29035 c -1.542376,-0.44943 -2.723994,-2.56654 -6.405271,-11.47625 -2.482676,-6.00883 -4.517738,-11.57265 -4.522351,-12.36402 -0.0059,-0.79136 1.216024,-3.2958 2.712564,-5.56544 1.496511,-2.2696 2.720939,-4.56217 2.720939,-5.09455 0,-0.53238 0.90222,-2.225 2.004945,-3.76136 1.102726,-1.53635 2.849546,-4.50996 3.881813,-6.60801 2.236685,-4.54592 4.708225,-5.38382 11.525557,-3.90733 5.265465,1.14035 5.424395,1.90885 1.960637,9.48028 -1.896818,4.14624 -3.511358,6.18617 -7.766799,9.81296 -3.328892,2.83715 -5.66254,5.51744 -6.13554,7.04699 -0.887969,2.87145 -0.122231,7.10658 2.088098,11.55009 1.234948,2.48261 2.138695,3.19842 4.934677,3.90865 3.674519,0.93335 6.06223,3.8745 5.152753,6.34709 -0.392345,1.0666 -1.501358,1.32706 -5.3775,1.26287 -2.685768,-0.0445 -5.734292,-0.32884 -6.774522,-0.63197 z"
       id="path1" /></g></svg>
