<?xml version="1.0" encoding="UTF-8" standalone="no"?>
<!-- Created with Inkscape (http://www.inkscape.org/) -->

<svg
   width="180mm"
   height="180mm"
   viewBox="0 0 180 180"
   version="1.1"
   id="svg1"
   sodipodi:docname="trader_furniture.svg"
   inkscape:version="1.4.2 (f4327f4, 2025-05-13)"
   xml:space="preserve"
   xmlns:inkscape="http://www.inkscape.org/namespaces/inkscape"
   xmlns:sodipodi="http://sodipodi.sourceforge.net/DTD/sodipodi-0.dtd"
   xmlns="http://www.w3.org/2000/svg"
   xmlns:svg="http://www.w3.org/2000/svg"><sodipodi:namedview
     id="namedview1"
     pagecolor="#505050"
     bordercolor="#ffffff"
     borderopacity="1"
     inkscape:showpageshadow="0"
     inkscape:pageopacity="0"
     inkscape:pagecheckerboard="1"
     inkscape:deskcolor="#505050"
     inkscape:document-units="mm"
     inkscape:zoom="0.70710678"
     inkscape:cx="125.86501"
     inkscape:cy="429.92092"
     inkscape:window-width="2560"
     inkscape:window-height="1351"
     inkscape:window-x="-9"
     inkscape:window-y="-9"
     inkscape:window-maximized="1"
     inkscape:current-layer="layer1"
     showguides="true" /><defs
     id="defs1"><rect
       x="101.82338"
       y="91.923881"
       width="384.66609"
       height="299.81327"
       id="rect3" /><rect
       x="2.8284271"
       y="2.1213203"
       width="662.55905"
       height="647.0027"
       id="rect2" /></defs><g
     inkscape:label="Icon"
     inkscape:groupmode="layer"
     id="layer1"><path
       style="fill:#000000"
       d="m 47.901414,172.21152 c -2.04761,-0.19778 -3.53603,-0.83487 -5.04424,-2.15909 -1.69551,-1.48868 -1.76082,-1.84442 -1.93126,-10.51956 l -0.15335,-7.80508 -6.35,-3.35826 -6.35,-3.35826 -0.15148,3.755 c -0.14931,3.70129 -0.37307,4.82012 -1.07772,5.38883 -0.65287,0.5269 -4.0434,1.61352 -6.1271,1.96364 -2.71461,0.45614 -4.2146,0.13333 -7.98758,-1.71895 -4.5467004,-2.23214 -4.0695804,-0.59319 -4.3661204,-14.99794 -0.29663,-14.4089 -0.32143,-109.378044 -0.031,-118.643091 0.14947,-4.76801 0.29329,-6.500955 0.57731,-6.95592 0.94358,-1.511504 5.7260404,-2.733077 10.9615904,-2.799897 2.56215,-0.0327 2.70512,-0.003 4.52016,0.93964 2.28613,1.187269 3.40153,2.404451 3.95823,4.319439 0.23249,0.799716 0.4939,1.454029 0.58092,1.454029 0.087,0 1.77522,-0.526589 3.75154,-1.170197 4.90805,-1.598354 6.915,-1.965506 12.60028,-2.3051 5.55697,-0.331929 8.85224,-0.09943 13.83451,0.976093 1.64876,0.355917 3.27198,0.647121 3.60717,0.647121 0.71575,0 0.92683,-0.571472 0.93212,-2.523625 0.0108,-3.9790752 3.04879,-5.6636082 10.23264,-5.6738652 4.64715,-0.0066 7.41922,0.962607 8.44911,2.9541892 0.73232,1.416152 0.91377,8.506845 1.10892,43.33435 l 0.18898,33.72543 3.57188,1.41143 c 5.04657,1.99416 7.987427,3.01027 8.174027,2.82424 0.24837,-0.24762 0.33402,-12.97129 0.10205,-15.16025 l -0.20629,-1.94665 -1.713997,-0.64362 c -0.94271,-0.35399 -1.97283,-0.88678 -2.28918,-1.18397 -0.72483,-0.68094 -1.15632,-2.3671 -1.15579,-4.51659 0.001,-4.19135 1.20514,-4.76768 16.184846,-7.74666 8.55411,-1.70113 14.88866,-2.84401 19.79752,-3.57187 l 3.57131,-0.52953 3.70473,0.53954 c 11.62022,1.69231 35.01449,6.43907 37.21197,7.55041 0.88516,0.44765 1.28546,1.59216 1.28546,3.67527 0,1.3279 -0.16333,1.95882 -0.8599,3.32174 -0.96799,1.894 -1.81644,2.63528 -3.29015,2.87456 l -1.00933,0.16388 -0.1603,18.38424 c -0.0882,10.111334 -0.17747,25.651654 -0.19844,34.534064 l -0.0381,16.14982 -1.45005,0.87883 c -3.29065,1.99434 -5.87711,2.12406 -9.23747,0.46328 l -1.93305,-0.95536 -0.17023,-8.14112 c -0.0936,-4.47761 -0.24867,-16.2076 -0.34454,-26.06663 -0.15729,-16.177124 -0.21553,-17.924854 -0.59708,-17.918634 -0.23253,0.004 -2.98263,0.76015 -6.11133,1.6808 l -5.68854,1.67391 -0.19264,24.711384 c -0.20287,26.0232 -0.37355,31.00194 -1.10082,32.11191 -0.67122,1.02441 -1.9499,1.54073 -4.13712,1.67054 -2.42011,0.14363 -4.52045,-0.34498 -7.12845,-1.65835 l -1.86076,-0.93707 0.001,-4.29615 c 0.002,-7.06417 -0.57591,-51.384434 -0.67185,-51.484904 -0.15142,-0.15856 -8.82449,-2.38422 -12.02964,-3.08702 -1.67349,-0.36695 -3.3106,-0.72658 -3.63802,-0.79919 -0.58594,-0.12992 -0.59525,-0.0913 -0.59141,2.45273 0.002,1.53682 0.13845,2.85289 0.33578,3.24618 0.35941,0.71632 3.30876,2.30307 5.65788,3.043944 1.54226,0.4864 1.86814,0.96129 2.65544,3.8696 0.33713,1.24536 0.45872,2.75619 0.46569,5.78646 0.0114,4.96044 -0.24587,5.66565 -2.60615,7.14375 l -1.47873,0.92604 -0.0192,17.46251 c -0.022,20.0377 -0.20033,25.00872 -0.92602,25.81059 -0.6243,0.68984 -3.02835,1.4027 -7.92508,2.34997 l -3.96875,0.76775 -2.695809,-1.4668 c -4.09367,-2.22739 -4.25599,-2.40909 -4.55985,-5.10422 -0.139447,-1.23693 -0.322087,-3.79677 -0.405847,-5.68854 -0.0838,-1.89177 -0.2217,-4.66527 -0.30655,-6.16332 l -0.15426,-2.72373 -4.73345,-2.3695 c -2.6034,-1.30322 -4.77729,-2.3695 -4.83087,-2.3695 -0.0536,0 -0.17975,1.30112 -0.28038,2.89138 -0.30287,4.78639 -0.71712,5.50387 -3.71719,6.43817 -3.88463,1.20978 -9.52708,0.60723 -12.5984,-1.34536 -2.1909,-1.39287 -2.23568,-1.61419 -2.19162,-10.83169 0.0211,-4.40378 0.11262,-8.30307 0.20348,-8.6651 0.16335,-0.65083 0.14582,-0.65823 -1.55963,-0.65823 h -1.72483 l -0.018,16.07344 c -0.0207,18.45007 -0.25894,27.35702 -0.74748,27.94567 -1.02705,1.23752 -8.51289,2.2051 -13.40459,1.7326 z m 4.15601,-7.66977 c 0.28928,-3.3105 0.16382,-13.20421 -0.17844,-14.071 -0.10055,-0.25466 -0.34066,-0.46302 -0.53356,-0.46302 -0.63048,0 -1.03791,2.44186 -1.45684,8.73125 -0.35144,5.27615 -0.15979,8.17678 0.60446,9.14835 0.89584,1.13888 1.2361,0.41119 1.56438,-3.34558 z m 54.937696,-6.10291 c 0.0923,-2.4307 -0.58701,-9.80704 -1.01406,-11.0108 -0.38856,-1.09528 -1.21539,-1.16796 -1.50502,-0.13229 -0.29605,1.05863 -0.15526,9.66818 0.18397,11.24997 0.35721,1.66561 0.69618,2.09465 1.57428,1.99257 0.66126,-0.0769 0.68667,-0.14697 0.76083,-2.09945 z m -90.713316,-8.82799 c 0.31103,-0.86508 0.38233,-3.44985 0.39048,-14.15521 0.01,-12.54856 -0.16373,-16.99104 -0.64358,-16.49909 -0.4525,0.46393 -1.20499,8.11253 -2.11456,21.49347 -0.55308,8.1365 -0.48879,9.50284 0.47408,10.07548 0.85493,0.50845 1.49269,0.2004 1.89358,-0.91465 z m 117.010456,-1.5875 c 0.10244,-0.58208 0.19312,-14.87983 0.20151,-31.77277 l 0.0152,-30.714434 -1.58351,-0.44025 c -0.87093,-0.24214 -1.76389,-0.44026 -1.98437,-0.44026 -0.77765,0 -0.39519,60.150674 0.39955,62.838554 0.44111,1.49184 0.73216,1.75848 1.81969,1.66702 0.87684,-0.0737 0.95915,-0.15649 1.13188,-1.13786 z m -79.271916,-1.38906 c 0.26816,-0.59832 0.48621,-15.5088 0.25797,-17.64005 -0.0957,-0.89393 -0.28303,-1.8001 -0.41622,-2.01373 -0.39516,-0.63379 -1.15824,0.0541 -1.36203,1.22789 -0.25214,1.45217 -0.33441,17.28031 -0.0944,18.16131 0.23136,0.84922 1.27594,1.02039 1.61468,0.26458 z m -12.86021,-1.10709 c 0.15064,-0.28147 0.27389,-1.01155 0.27389,-1.6224 0,-0.92373 -0.15379,-1.25567 -0.91387,-1.97252 -1.03031,-0.97171 -17.50703,-9.38705 -18.37927,-9.38705 -0.46085,0 -0.55061,0.16338 -0.55061,1.00227 0,0.55125 0.26789,1.53351 0.59531,2.18281 0.51937,1.02993 0.9835,1.40857 3.63802,2.96785 4.04899,2.37841 13.87635,7.34082 14.53747,7.34082 0.28884,0 0.64842,-0.2303 0.79906,-0.51178 z m 117.772286,-3.88205 c 0.67092,-0.80841 0.92968,-17.50748 0.59486,-38.3901 -0.0961,-5.995894 -0.26754,-11.051694 -0.38089,-11.235104 -0.31533,-0.51022 -2.0294,0.40811 -2.42533,1.29938 -0.37256,0.83866 -0.63358,37.163604 -0.31765,44.206004 0.17092,3.81016 0.21595,4.06781 0.74842,4.28271 0.86963,0.35096 1.39394,0.30299 1.78059,-0.16289 z m -50.67119,-4.98407 c 0.0893,-0.35565 0.031,-1.8737 -0.12947,-3.37343 -0.16047,-1.49974 -0.40508,-5.01814 -0.54357,-7.81867 -0.33,-6.67328 -0.77024,-8.22582 -2.03491,-7.17624 -0.38596,0.32032 -0.41508,1.01164 -0.27152,6.44575 0.25349,9.59464 0.76165,12.56924 2.14726,12.56924 0.48983,0 0.71355,-0.17384 0.83221,-0.64665 z M 41.332544,135.2948 c 0.28649,-1.14147 -0.33991,-9.12028 -0.84287,-10.73615 -0.24594,-0.79013 -11.76909,-7.16137 -12.19392,-6.74211 -0.12275,0.12114 -0.2643,2.80868 -0.31456,5.97231 l -0.0914,5.75204 0.7153,0.46869 c 1.5422,1.01048 11.53907,5.97523 12.03156,5.97523 0.34263,0 0.58233,-0.23769 0.69586,-0.69001 z m 52.319,-6.49255 c 0.0935,-0.89447 0.16998,-2.91854 0.16998,-4.49792 0,-3.36103 0.46347,-3.09072 -4.25016,-2.47876 -5.33548,0.6927 -6.06859,0.99789 -6.06859,2.52632 0,0.97016 1.52491,2.07085 5.67366,4.09529 2.191,1.06913 4.05597,1.95231 4.14438,1.96263 0.0884,0.0103 0.23723,-0.71309 0.33073,-1.60756 z m -26.07669,-11.12661 c 0.17463,-0.17462 0.32937,-0.97829 0.34388,-1.78593 0.0361,-2.01275 0.28007,-2.73698 1.04618,-3.10627 0.35931,-0.17321 4.87865,-0.74045 10.04297,-1.26054 5.16433,-0.52009 10.93749,-1.18579 12.82926,-1.47934 1.89177,-0.29355 3.881047,-0.59913 4.420617,-0.67907 1.59265,-0.23595 1.97614,0.0137 2.13094,1.38705 0.14947,1.32611 0.71931,2.11007 1.35612,1.8657 0.22445,-0.0861 0.815859,-0.96561 1.314249,-1.95441 1.13476,-2.25136 1.55238,-2.6126 3.27156,-2.82994 1.69238,-0.21395 8.44766,-2.10252 9.8026,-2.74051 0.65399,-0.30794 0.98725,-0.64278 0.98725,-0.99194 0,-0.46608 -0.20478,-0.5361 -1.76911,-0.60494 -1.72028,-0.0757 -4.19781,0.35324 -10.5534,1.82716 l -2.53292,0.58741 -1.479549,-1.11707 c -0.974,-0.73538 -3.0919,-1.77649 -6.198317,-3.04694 -2.59533,-1.06143 -7.993,-3.300534 -11.99483,-4.975774 -10.54715,-4.41525 -12.43914,-4.99677 -13.21513,-4.06177 -0.54508,0.65678 0.16358,1.45448 2.05653,2.31495 0.97124,0.44149 5.60632,2.45553 10.30018,4.47565 9.30274,4.003664 12.76467,5.650884 12.76467,6.073554 0,0.16808 0.34831,0.20827 0.90304,0.10421 0.971227,-0.18221 2.007377,0.0333 2.007377,0.41759 0,0.67865 -5.003177,1.53878 -13.758327,2.36529 -3.1287,0.29536 -7.68171,0.78418 -10.11779,1.08626 -4.37712,0.54278 -4.43784,0.54325 -5.15938,0.0398 -1.41167,-0.98496 -6.8752,-3.98505 -12.63637,-6.93878 -7.65384,-3.924104 -10.98394,-5.787024 -11.15868,-6.242384 -0.1,-0.2605 -0.60344,-0.37195 -1.68028,-0.37195 -1.8445,0 -2.37459,0.17245 -2.37459,0.77255 0,1.181 2.57614,2.75167 12.8323,7.823854 6.92145,3.42301 9.9281,5.12376 10.68187,6.04233 0.3305,0.40275 0.24728,0.44261 -0.92604,0.44358 -2.72993,0.002 -9.91333,1.51423 -10.31996,2.17217 -0.0809,0.13095 -0.0741,0.52898 0.0151,0.88451 0.15131,0.60285 0.27856,0.64642 1.88791,0.64642 0.94912,0 3.74459,-0.30521 6.21215,-0.67826 2.46757,-0.37304 4.87367,-0.64093 5.3469,-0.59531 0.85921,0.0828 0.86062,0.0854 1.01252,1.8521 0.0837,0.97303 0.3066,1.9553 0.49542,2.18281 0.40764,0.49118 1.36718,0.54207 1.81309,0.0962 z M 21.436634,95.331486 c 0.4833,-1.25945 0.74796,-6.90399 0.7797,-16.62897 0.0387,-11.86504 -0.059,-12.8323 -1.29605,-12.8323 -0.51299,0 -0.66774,0.18294 -0.83937,0.99219 -0.2679,1.26319 -0.27111,27.20459 -0.003,28.17813 0.22509,0.8188 1.08594,1.00308 1.35921,0.29095 z m 80.983176,-1.87845 c 0.34298,-0.84366 0.46358,-8.61884 0.17725,-11.42802 -0.32228,-3.16195 -0.79648,-4.11625 -2.04538,-4.11625 -0.664289,0 -0.780469,0.12512 -0.982759,1.05833 -0.12617,0.58208 -0.19021,4.06951 -0.14231,7.74984 0.0963,7.39972 0.042,7.18751 1.841079,7.19507 0.67247,0.003 1.02079,-0.13593 1.15212,-0.45897 z m -62.200496,-1.93276 c 4.96096,-0.59007 12.14929,-1.48304 15.97407,-1.98437 3.82479,-0.50134 7.06924,-0.91152 7.2099,-0.91152 0.15667,0 0.25574,-2.2037 0.25574,-5.68854 v -5.68854 h -0.64879 c -1.06316,0 -21.3455,2.35175 -26.20642,3.03866 -5.66098,0.79995 -7.15262,1.1242 -7.58949,1.64977 -0.37217,0.44772 -0.67631,8.78209 -0.36565,10.01984 0.2173,0.86581 0.53358,0.8537 11.37064,-0.4353 z m 85.720776,-0.93315 c 0.0883,-0.23019 0.16059,-1.65091 0.16059,-3.15717 0,-2.38059 -0.0605,-2.75625 -0.46302,-2.87324 -0.25466,-0.074 -4.57067,-1.10957 -9.59114,-2.30123 -5.02047,-1.19165 -9.27695,-2.22342 -9.45886,-2.2928 -0.42968,-0.16391 -0.46288,4.76406 -0.0403,5.97639 0.15976,0.45827 0.30859,0.83582 0.33073,0.83899 0.0221,0.003 3.61214,0.94831 7.97776,2.10029 8.25254,2.17766 10.75616,2.56362 11.0842,1.70877 z m -49.189416,-2.42576 c 0.24895,-0.62751 0.64233,-9.53901 0.65115,-14.75052 0.0131,-7.72594 -0.59077,-12.03854 -1.68559,-12.03854 -0.57883,0 -0.80523,4.48655 -0.80902,16.03223 -0.003,8.38173 0.0655,10.42678 0.35973,10.78177 0.47485,0.57288 1.25175,0.55982 1.48373,-0.0249 z m 57.319336,-8.70345 c 0.25069,-0.30206 0.16733,-0.53016 -0.41645,-1.13949 -0.56414,-0.58884 -1.39941,-0.94632 -3.67836,-1.57427 -4.61748,-1.27232 -13.29219,-3.32511 -19.08806,-4.51701 -6.55041,-1.34706 -8.42049,-1.82488 -12.423019,-3.17414 -3.74538,-1.26257 -4.564787,-1.33598 -4.792347,-0.4293 -0.19065,0.7596 0.21318,1.60173 1.018947,2.12493 1.22191,0.79338 12.184099,3.55201 25.278799,6.3614 3.83114,0.82194 7.81973,1.72884 8.86354,2.01533 3.16469,0.86859 3.45737,0.92539 4.20376,0.81585 0.39587,-0.0581 0.8608,-0.27559 1.03319,-0.4833 z m -97.870816,-2.01217 c 0.25607,-0.44831 0.33532,-2.42469 0.32093,-8.00365 -0.0105,-4.07458 -0.10207,-7.73576 -0.20347,-8.13594 -0.12433,-0.49062 -0.35722,-0.7276 -0.71505,-0.7276 -0.99909,0 -1.13449,1.05534 -1.15734,9.02041 -0.0173,6.04729 0.0512,7.65317 0.34143,8.00364 0.5011,0.60504 1.0106,0.5485 1.4135,-0.15686 z m 25.81941,-3.69094 c 0.34737,-0.34737 0.466,-18.04621 0.14384,-21.45771 -0.15398,-1.63052 -0.22178,-1.79172 -0.72325,-1.71979 -0.30434,0.0436 -0.7185,0.42498 -0.92036,0.8474 -0.53193,1.11313 -0.67324,7.52155 -0.33885,15.36695 0.2456,5.7621 0.34056,6.653 0.74033,6.94531 0.56756,0.41501 0.69898,0.41715 1.09829,0.0178 z m -27.6876,-36.31102 c 0.21609,-0.47427 0.21297,-1.7184 -0.0118,-4.69636 -0.46747,-6.19457 -1.08666,-8.15221 -2.57848,-8.15221 -0.89976,0 -1.03118,0.95108 -0.54309,3.93012 0.22998,1.40369 0.48738,3.72526 0.572,5.15902 0.15015,2.5442 0.56858,3.95004 1.25826,4.22753 0.68946,0.2774 1.01701,0.15974 1.30307,-0.4681 z m 28.59156,-1.14075 c 1.11725,-1.28083 1.87233,-5.67872 1.75008,-10.19327 -0.0996,-3.67989 -0.46304,-4.82184 -1.53442,-4.82184 -0.8324,0 -1.00713,0.624 -1.03721,3.70417 -0.0128,1.30968 -0.16656,4.38417 -0.34171,6.83218 -0.27411,3.83107 -0.26534,4.48455 0.063,4.6923 0.52983,0.33523 0.64025,0.3138 1.10024,-0.21354 z m -14.89772,-4.67139 c 0.3022,-1.73537 0.40523,-11.980233 0.12775,-12.703331 -0.24205,-0.630761 -1.35538,-0.516881 -1.72845,0.176798 -0.4207,0.782241 -0.82837,8.637833 -0.61134,11.780223 0.1925,2.78723 0.60597,3.59465 1.44974,2.83106 0.27191,-0.24608 0.59687,-1.13478 0.7623,-2.08475 z"
       id="path1" /></g></svg>
