<?xml version="1.0" encoding="UTF-8" standalone="no"?>
<!-- Created with Inkscape (http://www.inkscape.org/) -->

<svg
   width="180mm"
   height="180mm"
   viewBox="0 0 180 180"
   version="1.1"
   id="svg1"
   sodipodi:docname="trader_commodities.svg"
   inkscape:version="1.4.2 (f4327f4, 2025-05-13)"
   xml:space="preserve"
   xmlns:inkscape="http://www.inkscape.org/namespaces/inkscape"
   xmlns:sodipodi="http://sodipodi.sourceforge.net/DTD/sodipodi-0.dtd"
   xmlns="http://www.w3.org/2000/svg"
   xmlns:svg="http://www.w3.org/2000/svg"><sodipodi:namedview
     id="namedview1"
     pagecolor="#505050"
     bordercolor="#ffffff"
     borderopacity="1"
     inkscape:showpageshadow="0"
     inkscape:pageopacity="0"
     inkscape:pagecheckerboard="1"
     inkscape:deskcolor="#505050"
     inkscape:document-units="mm"
     inkscape:zoom="1.4142136"
     inkscape:cx="467.39758"
     inkscape:cy="574.87781"
     inkscape:window-width="2560"
     inkscape:window-height="1351"
     inkscape:window-x="-9"
     inkscape:window-y="-9"
     inkscape:window-maximized="1"
     inkscape:current-layer="layer1"
     showguides="true" /><defs
     id="defs1"><rect
       x="101.82338"
       y="91.923881"
       width="384.66609"
       height="299.81327"
       id="rect3" /><rect
       x="2.8284271"
       y="2.1213203"
       width="662.55905"
       height="647.0027"
       id="rect2" /></defs><g
     inkscape:label="Icon"
     inkscape:groupmode="layer"
     id="layer1"><path
       style="fill:#000000"
       d="m 124.79793,176.93521 c -5.58058,-1.84515 -24.70568,-11.24 -29.762806,-14.62042 -1.15112,-0.76947 -2.00191,-1.1477 -2.58158,-1.1477 -0.47554,0 -3.16362,0.58992 -5.97351,1.31093 -10.42351,2.67467 -15.58262,3.31374 -26.63732,3.29965 -11.22397,-0.0143 -16.99009,-0.73319 -27.78125,-3.46359 -7.31103,-1.84986 -8.75439,-2.02499 -13.97266,-1.69541 -5.64606,0.3566 -8.5912497,0.0582 -10.8799496,-1.10231 -1.37535,-0.6974 -1.82382,-1.09107 -2.33926,-2.05344 -0.57189,-1.06775 -0.62389,-1.42272 -0.50391,-3.43958 0.16634,-2.79629 0.87128,-4.8761 3.5043299,-10.33899 1.09704,-2.27607 2.1697297,-4.78022 2.3837497,-5.56477 0.42913,-1.57308 0.7496,-6.80154 1.1659,-19.02124 0.46198,-13.56102 1.33281,-20.137374 4.29187,-32.411461 0.76027,-3.15358 1.3528,-6.24484 1.37024,-7.14865 0.029,-1.50356 -0.0312,-1.66597 -1.07983,-2.91094 -2.06669,-2.45372 -2.04143,-2.30562 -2.14297,-12.562281 -0.0497,-5.020469 -0.10192,-10.021094 -0.11603,-11.1125 -0.0217,-1.676783 0.0885,-2.209942 0.71102,-3.439583 2.33799,-4.618343 6.39239,-6.914099 17.03591,-9.646402 6.40463,-1.644133 7.56172,-2.167307 12.34555,-5.581988 6.14919,-4.389277 10.18515,-6.48065 14.02291,-7.266459 4.55904,-0.933496 9.79468,0.968207 16.8074,6.104828 7.21855,5.287377 8.96689,6.115098 9.88994,4.682209 0.78019,-1.211106 1.79993,-6.401216 2.27433,-11.57552 0.47776,-5.210884 2.399,-11.915079 3.98726,-13.913653 3.48576,-4.3862574 11.600846,-7.6854791 22.735866,-9.2433581 6.76187,-0.946039 21.82565,-0.790545 29.36875,0.303154 9.12254,1.322709 16.8423,4.6925107 19.83725,8.6592861 2.63105,3.484805 3.35732,6.469674 4.7735,19.618529 0.62183,5.773517 1.55905,11.680103 2.51893,15.874999 0.36628,1.600729 0.77872,4.04151 0.91652,5.423958 0.33208,3.33132 0.32845,28.263191 -0.006,38.061631 -0.25482,7.475667 -0.29863,7.907127 -1.16877,11.509371 -0.80108,3.31636 -1.45448,6.45481 -1.81515,8.71864 -0.10676,0.67009 0.12614,0.93741 2.37988,2.73163 4.56951,3.63783 5.57405,6.144 5.28271,13.17956 -0.0913,2.2061 -0.39555,5.12747 -0.68175,6.54727 -0.53469,2.65252 -0.48349,4.0566 0.26592,7.29254 0.48934,2.11297 0.3564,7.05688 -0.25199,9.37076 -1.01899,3.87555 -1.61663,4.57915 -6.20417,7.30414 -6.91862,4.10965 -30.89608,16.39252 -36.98834,18.94792 -2.73824,1.14856 -4.26378,1.2183 -6.98296,0.31924 z m 4.81567,-6.64082 c 0.82958,-0.58106 1.11023,-1.71238 1.50052,-6.04876 0.30418,-3.37968 0.4264,-3.96592 0.94102,-4.5137 1.27396,-1.35609 13.47458,-7.38564 15.84547,-7.83085 0.68144,-0.12796 1.55848,-0.31048 1.94898,-0.40559 0.64996,-0.15832 0.73273,-0.0867 0.97862,0.84672 0.43382,1.64686 0.60145,5.36259 0.33845,7.50196 -0.28412,2.31106 -0.019,3.1743 1.06282,3.46068 1.03563,0.27414 1.74055,-0.33573 1.94046,-1.67882 0.0917,-0.61622 0.24757,-3.72225 0.34633,-6.90228 l 0.17957,-5.78188 5.29166,-2.90353 c 6.81275,-3.73815 8.89082,-5.03633 9.89779,-6.1832 1.31891,-1.50215 0.97375,-3.55888 -0.59724,-3.55888 -0.32095,0 -1.23452,0.48913 -2.03016,1.08696 -3.0373,2.28219 -11.22668,6.85054 -12.2805,6.85054 -0.34305,0 -0.6998,-0.20322 -0.79576,-0.4533 -0.0957,-0.24931 -0.33832,-2.77939 -0.53922,-5.6224 -0.40774,-5.7701 -0.65075,-7.14729 -1.58728,-8.99544 -0.96588,-1.90607 -2.88666,-3.39544 -8.16327,-6.32979 -4.47689,-2.48962 -4.72721,-2.66908 -4.07106,-2.91855 2.8335,-1.07729 6.1026,-2.56894 10.77399,-4.91601 2.98318,-1.49886 5.69787,-2.80679 6.03264,-2.90651 0.49683,-0.148 0.79452,0.0298 1.6201,0.96773 0.92592,1.0519 2.47453,2.02655 3.88591,2.44568 0.34941,0.10377 0.77788,-0.0119 1.14472,-0.3089 0.85672,-0.69373 0.50141,-1.67174 -1.20613,-3.31998 -2.17889,-2.10321 -2.16413,-2.13376 2.90192,-6.00852 l 2.86978,-2.19495 -0.15096,-1.34922 c -0.40898,-3.655404 -0.46353,-13.750791 -0.13166,-24.367971 0.48634,-15.559077 0.4636,-21.114708 -0.0975,-23.812496 -1.03414,-4.97254 -1.80087,-13.079927 -1.95174,-20.637499 -0.11458,-5.740098 -0.12511,-5.829785 -0.75974,-6.466232 -0.5857,-0.587386 -0.7042,-0.612936 -1.31835,-0.284253 -0.37114,0.19863 -1.15867,1.002021 -1.75006,1.785314 -2.72951,3.615201 -9.40887,6.88926 -16.64167,8.157333 -3.86739,0.678042 -11.76424,0.9828 -21.17021,0.81701 -13.63521,-0.240335 -15.63355,-0.66174 -26.162046,-5.517001 -3.22052,-1.485151 -4.98914,-2.157046 -5.72025,-2.173099 -1.04233,-0.02289 -1.05961,-0.0078 -1.14225,0.999126 -0.11199,1.36432 0.51949,2.006368 3.47466,3.532839 3.1443,1.624164 3.20769,1.740376 2.78715,5.110022 -0.19375,1.552475 -0.47009,2.748646 -0.65105,2.818086 -0.17293,0.06636 -0.94328,-0.0661 -1.71188,-0.294351 -2.76373,-0.820739 -4.7052,-0.324973 -5.11455,1.306033 -0.29922,1.192169 0.2006,1.633963 2.4209,2.139854 1.12952,0.257361 2.52761,0.700992 3.10686,0.985846 1.44884,0.712486 4.1619,3.489898 4.973436,5.0914 0.8286,1.635165 1.36149,4.230267 1.18684,5.779766 -0.11431,1.014189 -0.36841,1.403926 -1.952636,2.994994 -1.00168,1.005998 -2.60824,2.713781 -3.57013,3.795074 -1.32118,1.485174 -2.35607,2.321882 -4.23153,3.421196 -4.1211,2.415608 -4.96447,3.459598 -3.54574,4.389188 1.74747,1.14499 7.42459,-1.73296 10.8201,-5.485109 0.81579,-0.901477 1.550256,-1.57204 1.632156,-1.490141 0.0819,0.0819 0.2542,0.893871 0.3829,1.804382 0.55205,3.905518 -0.925646,6.516898 -4.792156,8.468708 -2.34273,1.18261 -4.90721,1.95146 -10.51462,3.15236 -2.81524,0.60292 -7.39914,1.74729 -10.18645,2.54304 -2.78732,0.79574 -5.90128,1.59042 -6.91993,1.76593 -2.66479,0.45915 -16.85419,0.43356 -19.44688,-0.0351 -1.0914,-0.19728 -6.09203,-1.52308 -11.1125,-2.94624 -14.69001,-4.16419 -13.81366,-3.95224 -14.73666,-3.56415 -1.14094,0.47973 -2.23723,2.02821 -2.38896,3.37434 -0.11443,1.0152 0.009,1.32861 1.2514,3.18668 1.61715,2.41783 6.63651,7.73408 8.41343,8.91107 2.1713,1.4382 3.62149,0.72027 2.5868,-1.28061 -0.22451,-0.43415 -1.24377,-1.75945 -2.26502,-2.94513 -1.79216,-2.0807 -2.13788,-2.65133 -1.60632,-2.65133 0.13777,0 1.95347,0.60644 4.03489,1.34765 8.84029,3.14808 8.71567,3.12738 20.05628,3.33101 9.24984,0.16609 11.85351,0.0138 19.01189,-1.11191 4.34097,-0.68265 6.26227,-0.80942 6.49757,-0.4287 0.0774,0.1252 -0.39185,0.91343 -1.04272,1.75163 -0.65088,0.83819 -1.18341,1.60223 -1.18341,1.69786 0,0.53157 0.90541,1.34996 1.4935,1.34996 0.36836,0 2.20019,-0.78929 4.07072,-1.75398 1.87053,-0.96469 3.56721,-1.69019 3.77039,-1.61222 0.26624,0.10217 0.53091,1.49737 0.94758,4.99513 1.20261,10.095401 1.41705,12.951211 1.25845,16.759611 -0.33069,7.94121 -2.41559,19.82252 -4.02429,22.93339 -0.225,0.43511 -1.05572,1.49448 -1.84605,2.35416 -0.79033,0.85968 -1.43696,1.73854 -1.43696,1.95303 0,0.21448 0.35718,0.79678 0.79375,1.29399 0.43656,0.49722 0.79375,1.03543 0.79375,1.19603 0,0.16059 -0.73057,0.66078 -1.62349,1.11152 -0.89292,0.45075 -2.17901,1.39894 -2.85799,2.10709 -1.45188,1.51429 -1.93684,1.72522 -5.4404,2.36635 -3.98615,0.72943 -4.42222,0.97814 -3.93612,2.2449 0.24201,0.63065 2.05944,1.47193 3.56507,1.65025 0.7219,0.0855 1.37775,0.26095 1.45745,0.3899 0.23538,0.38086 -4.2182,2.32207 -6.85278,2.98695 -3.3081,0.83486 -7.04136,1.20098 -12.24609,1.20098 -7.62461,0 -11.1065,-0.60585 -16.88157,-2.93741 -1.72923,-0.69814 -3.47067,-1.34108 -3.86988,-1.42876 -0.81891,-0.17986 -1.58504,0.39044 -1.58504,1.17989 0,0.75563 1.68685,2.20257 4.01218,3.44156 1.17352,0.62528 2.50703,1.46026 2.96335,1.85552 0.78885,0.68329 1.04453,0.73431 5.1953,1.03671 5.46622,0.39822 9.1313,0.92522 11.48926,1.65202 1.7365,0.53524 2.1915,0.55652 8.73125,0.40822 7.54196,-0.17102 9.83781,-0.42132 18.52182,-2.01928 6.80296,-1.25183 8.37042,-1.37796 9.08525,-0.73105 0.71207,0.64442 1.8267,0.58151 2.2045,-0.12443 0.16997,-0.31758 0.47795,-2.55 0.68442,-4.96094 0.48179,-5.62605 0.57477,-5.98693 1.52455,-5.9173 0.40292,0.0295 2.98867,1.1904 5.746096,2.57969 2.75744,1.38929 5.17865,2.52598 5.38048,2.52598 0.79991,0 1.1905,1.11829 1.19881,3.4323 0.0154,4.28068 0.45132,8.68508 0.96335,9.73293 0.56996,1.16638 1.35276,1.38703 2.07794,0.58571 0.45086,-0.4982 0.5221,-1.1246 0.64686,-5.68781 0.086,-3.14551 0.25112,-5.23854 0.42711,-5.41401 0.28576,-0.28492 2.50448,0.40605 11.22248,3.49495 l 3.30729,1.17181 0.22298,5.3852 c 0.27645,6.67689 0.45854,7.25826 1.94686,6.2158 z m -1.77296,-15.26108 c -2.25766,-0.92692 -8.93125,-3.18906 -12.76616,-4.32734 l -2.57969,-0.7657 v -2.94713 c 0,-3.93552 0.48002,-9.65739 0.84729,-10.09994 0.39426,-0.47504 1.14727,-0.28895 5.0812,1.2557 4.54215,1.78346 5.08887,1.91432 6.00939,1.4383 0.98202,-0.50782 1.2726,-1.58566 0.59842,-2.21972 -0.27376,-0.25747 -2.10898,-1.20256 -4.07827,-2.1002 -4.20357,-1.91606 -5.35907,-2.57934 -5.22005,-2.99641 0.16136,-0.48408 2.9614,-1.93047 6.00433,-3.10161 4.32441,-1.66435 9.21132,-4.33471 12.34226,-6.74421 0.21141,-0.1627 1.10695,0.13289 2.66232,0.87874 2.29749,1.10174 10.03158,5.43846 11.07499,6.21007 0.49491,0.36599 0.10208,0.60245 -6.06884,3.65301 -6.95317,3.43725 -7.78575,4.03486 -7.45534,5.35128 0.37808,1.5064 1.47013,1.24235 9.15855,-2.21453 2.83766,-1.27587 5.36592,-2.39035 5.61836,-2.47662 0.91509,-0.31275 1.09605,0.74179 1.11268,6.48424 0.0147,5.08138 -0.022,5.52089 -0.51629,6.18344 -0.38446,0.51531 -1.9998,1.35059 -5.82084,3.00991 -2.90878,1.26317 -7.05882,3.21336 -9.22231,4.33375 -2.16349,1.1204 -4.12801,2.03092 -4.36562,2.02339 -0.2376,-0.008 -1.32498,-0.38032 -2.41638,-0.82842 z m 2.12614,-2.87977 c 0.18811,-0.35148 0.26234,-1.94895 0.20775,-4.47097 -0.0739,-3.41473 -0.15036,-3.99628 -0.58896,-4.4802 -0.27722,-0.30587 -0.77521,-0.55611 -1.10665,-0.55611 -0.6055,0 -0.72008,0.19346 -1.0186,1.71979 -0.19522,0.99816 0.50234,7.04446 0.89801,7.78377 0.37793,0.70617 1.23146,0.70814 1.60845,0.004 z m -23.42511,-5.09564 c -0.43656,-0.17083 -1.84643,-0.89172 -3.13303,-1.60198 -2.69365,-1.487 -4.649606,-2.2805 -5.621406,-2.2805 -1.09292,0 -2.11924,-1.25508 -2.49111,-3.04636 -0.25297,-1.21856 -0.25568,-2.79856 -0.0124,-7.25925 0.40074,-7.34908 0.38809,-7.27694 1.4133,-8.05848 1.22862,-0.93658 7.225286,-4.00752 8.846056,-4.53012 0.76044,-0.2452 3.84079,-1.68054 6.84521,-3.18964 3.00443,-1.50911 5.86761,-2.81981 6.36261,-2.91267 0.77079,-0.1446 1.07955,-0.0275 2.15062,0.8155 0.68784,0.54138 2.94726,1.81188 5.02093,2.82333 2.73849,1.33573 3.77031,1.9672 3.77031,2.30744 0,1.04992 -2.15976,2.34711 -8.20208,4.92629 -4.69435,2.0038 -6.39767,2.91134 -8.51273,4.53563 -0.83439,0.64079 -1.79007,1.15292 -2.15145,1.15292 -0.3576,0 -2.31852,-0.82435 -4.35759,-1.83188 -4.47649,-2.2119 -5.36303,-2.496 -6.12452,-1.96262 -0.30226,0.2117 -0.549546,0.56867 -0.549546,0.79325 0,0.71195 1.625096,2.05129 4.762496,3.92506 3.49752,2.08884 4.68577,2.93636 5.03699,3.59262 0.28179,0.52653 -0.59258,9.97517 -1.02941,11.12413 -0.20633,0.54269 -0.90317,1.1355 -1.18495,1.00806 -0.0245,-0.0111 -0.4017,-0.1599 -0.83826,-0.33073 z m 26.19375,-30.37535 c -0.87312,-0.29752 -3.07577,-1.27466 -4.89478,-2.17143 -4.29002,-2.11497 -4.30013,-2.22124 -0.38085,-4.00372 1.60955,-0.73201 3.51455,-1.53593 4.23334,-1.78649 0.71877,-0.25055 2.82174,-1.29789 4.67324,-2.32742 l 3.36636,-1.87187 4.04197,2.29024 c 4.54861,2.57732 5.76176,3.41158 5.76176,3.96225 0,0.87759 -5.32272,3.43017 -11.08084,5.31395 -1.94713,0.63701 -3.67353,1.15308 -3.83646,1.14682 -0.16293,-0.006 -1.01062,-0.25481 -1.88374,-0.55233 z M 108.98234,112.814 c -0.63245,-0.69885 -0.97123,-1.75039 -1.64075,-5.09274 -1.09692,-5.47592 -1.08939,-5.02741 -0.0843,-5.02497 0.47953,10e-4 2.30063,0.19799 4.04688,0.4374 2.39119,0.32783 5.40666,0.44161 12.21488,0.46091 4.97193,0.0141 9.12088,0.10661 9.2199,0.2056 0.27532,0.27522 -1.36389,1.02838 -7.96751,3.66079 -3.33241,1.3284 -7.79829,3.18056 -9.92418,4.1159 -4.03214,1.77405 -5.1631,2.01261 -5.86492,1.23711 z m 42.48207,-5.85641 c -1.48098,-0.96243 -3.43823,-2.22612 -4.34945,-2.80821 -0.91123,-0.58208 -1.62415,-1.17739 -1.58426,-1.32291 0.0399,-0.14553 2.05882,-0.75651 4.48653,-1.35774 4.63873,-1.1488 7.92387,-2.303794 11.09528,-3.900884 1.04747,-0.527497 2.1414,-0.959087 2.43095,-0.959087 0.75494,0 1.07425,0.788807 1.07425,2.653757 0,1.960954 -0.43547,2.803704 -1.94566,3.765404 -0.60337,0.38424 -2.02163,1.4698 -3.15168,2.41236 -2.32445,1.93878 -3.54562,2.74588 -4.6215,3.05444 -0.64135,0.18393 -1.10636,-0.0242 -3.43446,-1.53713 z m 6.22086,-2.69222 c 0.14011,-1.66321 -1.55627,-3.03082 -2.53964,-2.04745 -0.98741,0.98741 0.54795,3.24917 2.06375,3.04013 0.24974,-0.0344 0.42617,-0.40246 0.47589,-0.99268 z m -42.65324,-7.458181 c -0.40828,-7.06389 -0.67809,-13.80367 -0.68149,-17.02396 l -0.004,-3.46407 9.32657,-0.17976 c 5.12961,-0.0989 10.61509,-0.3114 12.18997,-0.4723 3.52454,-0.3601 3.57227,-0.33037 3.1372,1.95415 -0.47979,2.51936 -0.80214,6.6667 -1.14929,14.78649 l -0.31535,7.376017 h -11.1656 -11.16597 z m -8.51869,1.923977 c -0.44604,-0.18026 -0.67649,-0.74552 -1.15276,-2.827497 -0.3274,-1.43121 -0.99039,-3.63296 -1.4733,-4.89278 -1.3225,-3.4501 -2.01072,-6.97393 -2.16218,-11.07088 l -0.13205,-3.57188 0.90423,-1.71979 c 0.49733,-0.94588 1.25358,-2.3151 1.68056,-3.04271 0.76364,-1.30129 0.7778,-1.39642 0.86608,-5.82083 0.14935,-7.484619 -0.60845,-13.389708 -2.09392,-16.316608 -0.31986,-0.63024 -1.2971,-2.132993 -2.17163,-3.339451 -1.544976,-2.13136 -1.581986,-2.221388 -1.305386,-3.174999 0.15657,-0.539793 0.36232,-1.695816 0.45721,-2.568941 0.240356,-2.211558 0.355386,-2.513541 0.957466,-2.513541 0.29043,0 2.39576,0.541245 4.67853,1.202768 2.28276,0.661522 4.84182,1.29758 5.68678,1.413462 0.84497,0.115882 1.73794,0.412442 1.98438,0.659023 0.60628,0.606625 0.53238,3.050346 -0.23034,7.616918 -0.41601,2.490772 -0.59731,4.73301 -0.61684,7.628661 l -0.0277,4.101042 -3.175,0.132292 -3.175,0.132291 -0.0812,0.977115 c -0.057,0.686123 0.0681,1.12643 0.42017,1.478499 1.07152,1.071518 7.71954,1.87548 17.25585,2.086794 13.77025,0.305133 20.3947,-0.850602 34.13124,-5.95471 3.1287,-1.162534 5.92667,-2.153786 6.21771,-2.202782 0.50621,-0.08522 0.52865,0.05441 0.5173,3.218209 -0.007,2.020826 -0.14815,3.706154 -0.36222,4.332701 -0.3301,0.966178 -0.53574,1.11358 -3.56,2.551779 -6.50992,3.095818 -8.0438,3.423828 -19.71237,4.215398 -17.16834,1.16467 -23.08624,1.29805 -28.99128,0.65341 -4.44981,-0.48577 -5.2459,-0.32398 -5.38499,1.09436 -0.10658,1.08677 0.52494,1.60449 2.72434,2.23347 0.98531,0.28177 1.83414,0.55498 1.88629,0.60713 0.4006,0.40059 0.63764,4.24397 0.79445,12.88089 l 0.18264,10.060027 -2.48979,-0.0168 c -1.36938,-0.009 -2.74066,-0.11816 -3.04728,-0.24207 z m 50.54485,-33.229849 c 0.78964,-0.789645 0.30364,-1.700893 -0.90715,-1.700893 -0.37835,0 -0.83079,0.142875 -1.00541,0.3175 -0.34224,0.342241 -0.4286,1.335296 -0.14111,1.622778 0.33011,0.330117 1.63644,0.177846 2.05367,-0.239385 z m -15.43697,33.051169 -0.62465,-0.43752 0.16664,-6.110917 c 0.0916,-3.361 0.24432,-8.3528 0.33928,-11.09289 0.20137,-5.81035 -0.14711,-5.30132 3.80064,-5.55175 4.93364,-0.31298 10.39082,-1.66918 15.30778,-3.80424 2.06014,-0.89456 2.81517,-1.11448 3.04271,-0.88625 0.59527,0.59707 0.0604,17.57265 -0.63521,20.16098 -0.14786,0.55017 -0.6589,1.31812 -1.18391,1.77908 -2.4045,2.11118 -11.03233,5.160757 -17.24351,6.094867 -2.38832,0.35918 -2.22929,0.36728 -2.96977,-0.15136 z M 117.21051,61.776557 c -1.32452,-0.232294 -1.40914,-0.580312 -1.39957,-5.756257 0.007,-3.599472 0.16581,-5.885583 0.64133,-9.212054 0.34786,-2.433459 0.70278,-4.538215 0.7887,-4.677235 0.0932,-0.15072 4.10693,-0.287188 9.94201,-0.33803 l 9.78577,-0.08526 0.16536,2.116667 c 0.42411,5.428975 0.81994,15.211624 0.65176,16.108062 -0.32883,1.752803 -0.7816,1.831175 -11.00357,1.904629 -4.87494,0.03503 -9.18225,0.0078 -9.57179,-0.06052 z m 24.56819,-2.006392 c -0.70195,-0.518187 -0.95802,-2.95501 -1.15022,-10.945713 -0.16406,-6.820899 -0.1591,-6.913198 0.40218,-7.474479 0.4061,-0.406094 0.89482,-0.568298 1.7123,-0.568298 1.61176,0 5.73214,-0.740539 8.09904,-1.45561 3.01573,-0.911087 4.65936,-1.610423 7.42571,-3.159498 3.45075,-1.932321 3.63864,-1.975964 3.82406,-0.888232 0.2591,1.519889 0.64374,7.308957 0.83265,12.531821 l 0.18245,5.044105 -1.47932,0.700426 c -3.48915,1.652034 -15.91313,5.970591 -18.44109,6.410096 -0.59143,0.102824 -1.1001,0.0325 -1.40776,-0.194618 z M 27.775214,155.82251 c 0.57215,-0.57215 0.38012,-1.97609 -0.3487,-2.54938 -1.21999,-0.95964 -5.42913,-2.98956 -6.02371,-2.90501 -0.46885,0.0667 -0.60266,0.28353 -0.66874,1.08381 -0.13814,1.67295 0.88388,2.93947 3.3899,4.20087 1.06738,0.53726 3.18526,0.6357 3.65125,0.16971 z m -8.66411,-9.8861 c 0.27658,-0.33326 0.28416,-0.91382 0.0389,-2.97656 -0.52805,-4.44065 -1.34436,-6.66359 -2.447,-6.66359 -0.74349,0 -1.04568,0.98511 -1.04568,3.40878 0,2.53068 0.56304,4.51213 1.62626,5.72307 0.89187,1.01578 1.30988,1.13205 1.82754,0.5083 z M 160.55495,127.2737 c 3.882,-1.18974 8.29609,-4.05179 8.29609,-5.3791 0,-0.49039 -0.72389,-1.20876 -1.21806,-1.20876 -0.65569,0 -4.3198,1.51787 -7.5115,3.11166 -3.1608,1.57836 -3.94121,2.34457 -3.57221,3.50718 0.22446,0.70722 1.63255,0.69633 4.00568,-0.031 z M 31.507974,72.425279 c 1.04418,-1.11148 0.69724,-1.62804 -2.7538,-4.10029 -1.74625,-1.25097 -4.03186,-3.087526 -5.07914,-4.081235 -2.11996,-2.011535 -2.849,-2.196885 -3.47642,-0.883845 -1.03303,2.161874 0.86558,4.407042 6.96502,8.23639 2.58717,1.62427 3.44366,1.78771 4.34434,0.82898 z m 34.42016,-6.775744 c 11.24934,-0.57234 13.24175,-0.933146 18.16092,-3.288776 5.11077,-2.447378 8.12129,-4.77697 9.25191,-7.159293 1.06046,-2.234513 0.99201,-2.399815 -2.34356,-5.659155 -1.63711,-1.599695 -3.2799,-3.14339 -3.65064,-3.430432 -0.37074,-0.287043 -1.38083,-1.370355 -2.24464,-2.407361 -1.70528,-2.047176 -2.42143,-2.418231 -3.41314,-1.768433 -1.7275,1.1319 -0.94683,2.564993 4.3118,7.91524 l 4.13672,4.208789 -0.79375,0.655851 c -5.14274,4.249295 -8.64026,5.679307 -16.02301,6.551247 -14.2614,1.684346 -25.02129,1.141559 -32.62004,-1.64553 -3.79885,-1.393352 -10.6024,-4.834578 -10.71007,-5.417141 -0.0583,-0.315224 1.22855,-1.738846 3.94611,-4.365625 4.29591,-4.15242 5.53305,-5.614092 5.53305,-6.537276 0,-0.79706 -1.13754,-1.820709 -1.79234,-1.612885 -0.28294,0.0898 -2.58502,2.132564 -5.11574,4.539469 -2.53071,2.406906 -5.41649,4.988989 -6.41285,5.737963 -1.74709,1.313303 -1.80638,1.39511 -1.66584,2.298525 0.28869,1.855847 2.93052,3.695009 9.76913,6.80098 6.32796,2.874044 10.59752,4.115784 16.06556,4.67244 2.04405,0.208088 10.75026,0.158676 15.61042,-0.0886 z m 3.6509,-7.289324 c 0.12044,-1.22789 -0.79301,-2.232703 -2.02969,-2.232703 -1.94733,0 -1.93411,0.97419 0.0326,2.398839 1.33058,0.963868 1.89086,0.91726 1.99713,-0.166136 z m -7.88829,-1.398967 c 0.0161,-1.416737 -1.69839,-2.936924 -2.88686,-2.559718 -1.21064,0.384242 -0.26784,2.144416 1.69019,3.155523 0.81065,0.418608 1.18728,0.231087 1.19667,-0.595805 z m 13.4086,-2.041233 c 0.389,-1.01373 -1.45688,-2.860922 -2.56843,-2.570246 -1.40996,0.368713 -1.17294,1.566603 0.48299,2.441003 1.20223,0.634825 1.87542,0.676546 2.08544,0.129243 z m 7.32765,-0.886276 c 0.43599,-0.435982 0.4663,-0.591776 0.18186,-0.934509 -0.35451,-0.427161 -1.51627,-0.547084 -2.02288,-0.208812 -0.44714,0.298561 -0.84289,1.210955 -0.6996,1.612896 0.18146,0.509005 1.87507,0.195982 2.54062,-0.469575 z m -41.83949,-0.485914 c 1.0009,-1.141533 1.62308,-3.322577 1.09771,-3.847955 -0.31025,-0.310249 -1.63321,0.590814 -2.18987,1.49152 -0.61855,1.000836 -0.68556,1.551431 -0.28082,2.307683 0.34027,0.635796 0.84262,0.653634 1.37298,0.04875 z m 27.93599,-2.651597 c 0.045,-0.453699 -0.1108,-1.118882 -0.34622,-1.478184 -0.5016,-0.76554 -1.90666,-1.492615 -2.88444,-1.492615 -0.56383,0 -0.68762,0.123638 -0.68762,0.68676 0,0.983542 0.87629,2.078247 2.18023,2.723676 1.37796,0.682062 1.6332,0.617501 1.73805,-0.439637 z m 9.45731,-2.199911 c 0.23075,-0.373355 -1.30919,-1.957516 -2.41122,-2.480463 -1.18507,-0.562354 -2.23546,-0.535947 -2.2247,0.05593 0.0277,1.525743 3.93007,3.566624 4.63592,2.424533 z m -31.06869,-0.656169 c 1.25434,-0.648643 2.09691,-3.289168 1.16381,-3.647233 -0.54084,-0.207539 -1.90777,1.008143 -2.55078,2.268531 -0.85509,1.676128 -0.28468,2.243144 1.38697,1.378702 z m 6.14968,-4.885007 c 0.74153,-0.881267 1.17356,-2.5304 0.76891,-2.935058 -0.39339,-0.393388 -1.6409,0.284601 -2.07762,1.129134 -0.20737,0.401005 -0.37704,1.151732 -0.37704,1.668281 0,1.214168 0.72977,1.273755 1.68575,0.137643 z m 16.66308,-1.529678 c -0.0715,-1.541401 -2.05531,-3.484798 -2.79859,-2.741522 -0.43375,0.433759 -0.004,1.56113 1.03409,2.709634 1.14461,1.266938 1.82232,1.279186 1.7645,0.03189 z m 83.727416,-9.892533 c 0.38184,-0.381839 0.42334,-1.967108 0.0574,-2.19326 -0.14304,-0.08841 -0.67883,-0.08218 -1.19062,0.01383 -1.00301,0.188166 -1.14565,0.573803 -0.67251,1.818247 0.28043,0.737591 1.23781,0.929088 1.80571,0.361183 z m -8.70181,-1.547311 c 1.21638,-0.15252 2.88013,-0.496646 3.69722,-0.764724 0.8171,-0.268077 2.29989,-0.676957 3.29508,-0.908622 1.20132,-0.279648 2.40177,-0.81133 3.57187,-1.581998 0.96934,-0.638433 2.23869,-1.458235 2.82077,-1.821782 2.70882,-1.69183 3.10945,-2.915594 1.66727,-5.092886 -2.66672,-4.026012 -4.7196,-5.335806 -12.3829,-7.900631 -6.95396,-2.3274184 -7.61294,-2.4229004 -16.66874,-2.4152024 -9.71717,0.0083 -15.1908,0.5909814 -26.2731,2.7970294 -5.585466,1.111846 -6.389816,1.434185 -8.269626,3.313994 -1.08353,1.083524 -1.70519,2.351939 -1.70519,3.479186 0,2.076893 3.05584,5.700292 6.224776,7.380896 4.6856,2.484944 7.87635,3.234136 14.94188,3.508368 8.07435,0.313387 26.59983,0.317446 29.08069,0.0064 z m -32.78485,-3.9585 c -2.03702,-0.145739 -3.06382,-0.389744 -5.4161,-1.287059 -4.50692,-1.719236 -7.813066,-3.707914 -7.813066,-4.699624 0,-0.942194 4.880946,-3.420035 8.466666,-4.298151 4.98198,-1.220052 15.29215,-2.335137 23.9448,-2.589725 6.61471,-0.194626 7.73942,-0.02145 14.218,2.189162 7.49831,2.558568 10.37607,4.258058 10.20399,6.026061 -0.0742,0.7625 -0.29291,0.931349 -2.87166,2.21716 -1.53524,0.765493 -3.61883,1.575934 -4.63021,1.800981 -2.89953,0.645187 -29.45456,1.116816 -36.10242,0.641195 z m 32.74174,-3.402042 c 2.53305,-0.665029 3.61565,-1.320272 3.72444,-2.254212 0.10715,-0.919795 -0.51246,-1.636461 -1.60349,-1.854667 -0.45596,-0.09119 -1.01542,-0.331149 -1.24325,-0.533238 -0.98932,-0.877548 -5.42001,-1.295085 -7.07774,-0.666988 -2.69135,1.019724 -2.51384,3.189382 0.41277,5.045387 1.45395,0.922066 3.00966,0.992957 5.78727,0.263718 z M 138.22916,7.5225116 c -0.32542,-0.0628 -0.92073,-0.06443 -1.32291,-0.0036 -0.40219,0.06082 -0.13593,0.112199 0.59167,0.114185 0.7276,0.002 1.05666,-0.04777 0.73124,-0.110573 z"
       id="path1" /></g></svg>
