<?xml version="1.0" encoding="UTF-8" standalone="no"?>
<!-- Created with Inkscape (http://www.inkscape.org/) -->

<svg
   width="180"
   height="240"
   viewBox="0 0 180 240"
   version="1.1"
   id="svg1"
   xml:space="preserve"
   inkscape:version="1.4.2 (f4327f4, 2025-05-13)"
   sodipodi:docname="food_grain_rye.svg"
   xmlns:inkscape="http://www.inkscape.org/namespaces/inkscape"
   xmlns:sodipodi="http://sodipodi.sourceforge.net/DTD/sodipodi-0.dtd"
   xmlns="http://www.w3.org/2000/svg"
   xmlns:svg="http://www.w3.org/2000/svg"><sodipodi:namedview
     id="namedview1"
     pagecolor="#505050"
     bordercolor="#ffffff"
     borderopacity="1"
     inkscape:showpageshadow="0"
     inkscape:pageopacity="0"
     inkscape:pagecheckerboard="1"
     inkscape:deskcolor="#505050"
     inkscape:document-units="px"
     inkscape:zoom="1.0960155"
     inkscape:cx="-427.91365"
     inkscape:cy="261.85761"
     inkscape:window-width="2560"
     inkscape:window-height="1351"
     inkscape:window-x="-9"
     inkscape:window-y="-9"
     inkscape:window-maximized="1"
     inkscape:current-layer="layer1" /><defs
     id="defs1" /><g
     inkscape:label="Warstwa 1"
     inkscape:groupmode="layer"
     id="layer1"><path
       style="fill:#000000;stroke-width:1.0384"
       d="m 88.688013,223.20856 c 0.703416,-8.35489 0.459998,-8.8028 -7.723495,-14.21174 -9.04072,-5.97553 -12.224338,-11.40961 -15.364677,-26.22585 -0.785166,-3.70443 -3.099913,-11.32577 -5.143894,-16.93633 -3.860999,-10.59814 -8.21186,-29.43942 -7.669634,-33.21315 0.171554,-1.19394 2.324196,4.80128 4.783648,13.32269 6.56158,22.73435 8.956234,27.14029 21.181925,38.9729 5.635912,5.4547 10.247111,9.47323 10.247111,8.93005 0,-2.46987 -4.866241,-8.38571 -10.361431,-12.5963 -3.878127,-2.97154 -6.753987,-6.19314 -8.086124,-9.05827 -4.099296,-8.81665 -17.790967,-60.41067 -16.399161,-61.79659 0.642301,-0.63959 2.161861,3.64268 6.347797,17.88868 5.405492,18.39652 6.685443,20.74569 16.98397,31.17172 5.066483,5.12922 9.988438,10.72472 10.937685,12.43446 l 1.725902,3.10861 -0.655434,-3.10861 c -1.011049,-4.79524 -4.272369,-9.35767 -10.439081,-14.60379 -7.146273,-6.07945 -9.157195,-9.3704 -11.97475,-19.59707 -1.250284,-4.53804 -4.322995,-13.47111 -6.828265,-19.85125 -4.689421,-11.94248 -10.161178,-32.26602 -9.524683,-35.377099 0.197683,-0.96623 2.607447,5.237588 5.355032,13.786279 2.747585,8.54869 6.582735,18.8607 8.522552,22.91559 3.532948,7.38505 4.74935,8.89214 14.958073,18.53259 3.017528,2.84956 6.354812,6.81304 7.416184,8.80774 1.236527,2.32388 1.94628,2.96048 1.97575,1.77207 0.08491,-3.42572 -3.906223,-9.49753 -10.360037,-15.76083 C 71.031305,125.17661 69.035035,121.65403 66.210289,110.66492 65.051027,106.15503 63.130086,99.667375 61.941531,96.2479 58.979571,87.726337 55.066637,71.835955 53.776384,63.089357 51.82564,49.865309 51.661964,48.064392 52.410864,48.064392 c 0.408478,0 1.850253,5.245785 3.203941,11.657301 3.587601,16.992029 9.173147,35.873119 12.06675,40.789827 1.385822,2.35473 5.427833,6.7885 8.982238,9.8528 3.554395,3.06431 7.783902,7.6445 9.398875,10.1782 1.720323,2.69897 2.936329,3.85774 2.936329,2.79811 0,-3.2058 -3.240404,-8.2914 -9.353161,-14.67919 C 71.438139,100.08447 69.450932,95.730192 67.695405,82.476158 66.88256,76.339331 65.690612,69.000488 65.046625,66.167619 62.131836,53.34558 59.430402,21.383962 61.429721,23.374837 c 0.289839,0.288614 1.201167,5.936518 2.025168,12.550898 3.608704,28.967519 5.461434,35.237466 12.848346,43.481144 3.158373,3.524691 7.072837,8.497416 8.69883,11.050489 1.625983,2.553084 2.95633,4.069403 2.95633,3.369613 0,-2.904264 -3.169185,-8.443181 -7.804516,-13.640254 -7.155878,-8.023093 -7.9625,-10.594968 -7.755681,-24.728618 0.232023,-15.855267 1.826715,-38.781943 2.89815,-41.666049 0.490207,-1.31955 0.817768,5.567166 0.772939,16.250186 -0.08533,20.32335 -0.179598,19.911201 7.205712,31.492804 4.22191,6.620778 4.362037,6.550018 1.561069,-0.788268 -2.833133,-7.422544 -2.621558,-12.027517 1.025306,-22.316198 2.793465,-7.881026 5.115371,-23.397717 5.225862,-34.9229846 0.018,-1.8815043 0.273605,-2.1994077 0.933763,-1.1615313 0.499916,0.7859393 0.68302,7.0808815 0.406917,13.9887609 -0.498125,12.462573 -0.472329,12.639978 3.333413,22.921825 4.435981,11.984568 4.447111,16.651279 0.06025,25.271788 -1.463076,2.875043 -2.649852,5.825716 -2.637292,6.557052 0.01259,0.731333 0.887988,-0.535465 1.945364,-2.815115 1.057377,-2.279649 3.395662,-5.966564 5.196179,-8.193144 7.82619,-9.6781 7.88745,-9.888711 8.31705,-28.592115 0.23025,-10.02447 0.7381,-16.240052 1.22761,-15.024965 1.29566,3.216113 1.15492,49.687365 -0.16631,54.912263 -0.75503,2.985856 -3.26538,7.04327 -7.33995,11.863403 -6.112195,7.230604 -9.212461,12.743537 -9.192628,16.346461 0.0052,1.015658 1.109771,-0.484819 2.45374,-3.334382 1.343959,-2.849566 5.552588,-8.618303 9.352508,-12.819439 8.3685,-9.252083 9.84488,-13.363063 13.07253,-36.400273 3.37481,-24.0875 3.97143,-26.290441 4.12295,-15.223453 0.13163,9.613486 -0.77446,17.362482 -4.02157,34.393236 -1.08661,5.69912 -2.46002,14.210493 -3.05202,18.914157 -1.34738,10.705354 -2.63234,13.163614 -10.3696,19.838202 -6.032586,5.20403 -10.528955,12.13809 -10.52728,16.23458 4.89e-4,1.18115 0.945959,0.0893 2.302114,-2.65861 1.265715,-2.56461 5.694526,-7.87856 9.841806,-11.80879 4.14729,-3.93022 8.4627,-9.099416 9.5898,-11.487104 2.98365,-6.320599 8.00493,-22.369116 10.54266,-33.695356 2.61913,-11.689547 2.98475,-12.897878 3.69015,-12.195463 1.19553,1.190475 -2.83577,21.88858 -6.91617,35.51006 -2.39009,7.978775 -5.0192,17.304623 -5.84248,20.724093 -2.8333,11.76821 -6.08314,17.39139 -12.76149,22.0812 -6.057557,4.25384 -10.49817,10.77845 -10.406483,15.29026 0.02955,1.4556 0.414097,1.15327 1.404511,-1.1043 1.987207,-4.52968 6.286892,-9.26869 13.250632,-14.60451 5.28461,-4.04924 6.77907,-6.02326 10.76427,-14.21855 2.54523,-5.23408 6.10628,-14.878866 7.91347,-21.432864 3.35414,-12.164274 5.89974,-17.617828 4.59493,-9.843942 -1.75473,10.454546 -5.00374,22.252776 -8.79446,31.935616 -2.27135,5.80183 -5.13397,13.81282 -6.36139,17.8022 -3.22471,10.48107 -4.30183,12.12121 -11.82828,18.01102 -6.541207,5.11881 -10.995755,11.3555 -10.974641,15.36529 0.0052,1.02005 1.41318,-0.5821 3.128477,-3.56036 1.857828,-3.22575 5.745444,-7.51491 9.615794,-10.60903 8.43413,-6.74255 11.08175,-11.17237 16.43416,-27.49655 3.95973,-12.07668 6.20626,-17.32706 6.18499,-14.45506 -0.0281,3.79669 -9.67685,37.35322 -15.26489,53.08849 -0.95911,2.70076 -3.02319,5.54077 -5.27168,7.25343 -7.8817,6.00344 -12.088413,10.20006 -13.434796,13.40256 -2.334726,5.55338 -1.578104,6.15588 1.554202,1.23762 1.625816,-2.55281 6.041384,-7.05591 9.812374,-10.00689 7.97279,-6.23909 12.72133,-13.79491 16.77204,-26.68745 1.43249,-4.5593 3.79332,-12.01997 5.24629,-16.57927 l 2.64178,-8.28964 -0.49143,5.77709 c -0.63571,7.47305 -4.8394,23.91906 -8.68451,33.97618 -1.66376,4.35168 -3.80791,11.4883 -4.76479,15.85916 -2.12606,9.71161 -5.64079,14.87147 -13.78893,20.24311 -3.62723,2.39124 -6.247934,4.94739 -6.687454,6.52272 -0.397499,1.42478 -0.76941,7.12488 -0.826467,12.66689 -0.103644,10.06908 -0.105954,10.07754 -3.173857,11.6573 -4.906189,2.52637 -5.184009,2.17968 -4.525069,-5.6469 z"
       id="path1" /></g></svg>
