<?xml version="1.0" encoding="UTF-8" standalone="no"?>
<!-- Created with Inkscape (http://www.inkscape.org/) -->

<svg
   width="180"
   height="180"
   viewBox="0 0 180 180"
   version="1.1"
   id="svg1"
   xml:space="preserve"
   inkscape:version="1.4.2 (f4327f4, 2025-05-13)"
   sodipodi:docname="food_grain_rice.svg"
   xmlns:inkscape="http://www.inkscape.org/namespaces/inkscape"
   xmlns:sodipodi="http://sodipodi.sourceforge.net/DTD/sodipodi-0.dtd"
   xmlns="http://www.w3.org/2000/svg"
   xmlns:svg="http://www.w3.org/2000/svg"><sodipodi:namedview
     id="namedview1"
     pagecolor="#505050"
     bordercolor="#ffffff"
     borderopacity="1"
     inkscape:showpageshadow="0"
     inkscape:pageopacity="0"
     inkscape:pagecheckerboard="1"
     inkscape:deskcolor="#505050"
     inkscape:document-units="px"
     inkscape:zoom="3.1"
     inkscape:cx="-28.064516"
     inkscape:cy="128.3871"
     inkscape:window-width="2560"
     inkscape:window-height="1351"
     inkscape:window-x="-9"
     inkscape:window-y="-9"
     inkscape:window-maximized="1"
     inkscape:current-layer="layer1" /><defs
     id="defs1" /><g
     inkscape:label="Warstwa 1"
     inkscape:groupmode="layer"
     id="layer1"><path
       style="fill:#000000"
       d="m 20.924645,175.07083 c -0.8971,-1.08094 -1.0337,-4.81004 -0.52198,-14.25 0.52258,-9.64055 0.32145,-14.75396 -0.81759,-20.78593 -2.69973,-14.29686 -2.93613,-23.98056 -1.15957,-47.499997 1.12931,-14.95067 1.48228,-26.750732 1.05197,-35.168877 -0.57931,-11.333264 -2.52335,-25.918232 -4.12896,-30.977035 -0.32365,-1.019748 -0.11572,-1.854087 0.46208,-1.854087 2.45724,0 8.73672,16.21976 11.58767,29.930702 1.64804,7.925841 3.44893,30.378627 3.49461,43.569297 l 0.0277,7.999997 4.53293,-13.499997 c 13.39744,-39.900374 36.04175,-64.510024 63.41441,-68.918261 11.862595,-1.910415 24.285975,2.220592 33.193845,11.037571 6.29321,6.229005 12.12922,17.880691 8.95593,17.880691 -0.48242,0 -3.10904,-3.05899 -5.83693,-6.797755 -18.3158,-25.103072 -49.731525,-20.489899 -73.532735,10.797755 -6.28612,8.263366 -15.63298,27.387769 -20.14193,41.211949 -3.40124,10.428007 -8.61127,31.768677 -8.61127,35.272407 0,0.95895 1.84249,-1.01559 4.09441,-4.38787 5.71565,-8.55926 20.57241,-20.83189 32.65704,-26.9768 5.39934,-2.745507 15.90823,-5.464257 18.00747,-4.658707 1.12073,0.43007 -0.9398,2.03806 -6.82684,5.327507 -15.55749,8.69291 -34.62623,30.34517 -44.59012,50.63139 -5.00125,10.18242 -6.38909,13.88133 -7.81554,20.83012 -0.45715,2.22698 -1.10817,2.75 -3.42302,2.75 -1.57218,0 -3.40529,-0.65883 -4.07358,-1.46407 z M 152.51356,104.7849 c -3.65376,-5.686147 -4.87423,-10.722507 -4.44391,-18.338097 0.26942,-4.76815 0.91748,-7.43277 2.09379,-8.60909 1.60481,-1.60481 1.87684,-1.53763 4.69077,1.15827 5.75306,5.51179 7.7146,18.69412 3.98621,26.788917 -1.71906,3.7323 -3.46315,3.45664 -6.32686,-1 z M 48.144825,93.929393 c -1.94974,-0.87529 -1.50125,-2.65883 1.79603,-7.14244 4.17638,-5.67899 13.37139,-10.25205 20.6137,-10.25205 4.69673,0 5.34027,0.24419 5.34027,2.02632 0,2.61722 -7.61904,10.22852 -12.97317,12.96 -4.16027,2.1224 -12.41626,3.46788 -14.77683,2.40817 z m 89.018365,-6.61926 c -6.04844,-7.57379 -6.79694,-23.196044 -1.429,-29.825184 l 1.81326,-2.23928 2.19902,2.360368 c 2.35975,2.532896 5.14835,10.61911 5.14835,14.928866 0,7.51923 -5.35453,17.7518 -7.73163,14.77523 z m 21.63197,-15.7688 c -7.24363,-3.82329 -13.8354,-13.919405 -13.87837,-21.256429 -0.0192,-3.275717 0.27525,-3.75 2.328,-3.75 3.23039,0 10.11287,5.188817 13.04648,9.83596 4.24922,6.7312 5.95982,15.984809 3.10355,16.788899 -0.55,0.15484 -2.61984,-0.57346 -4.59966,-1.61843 z M 58.644825,70.51255 c -2.40487,-1.480066 -2.22251,-2.369893 1.31033,-6.393571 3.91391,-4.457702 12.09861,-7.584075 19.85474,-7.584075 7.53875,0 9.13835,1.594642 5.69932,5.681688 -5.44158,6.466959 -21.68555,11.483241 -26.86439,8.295958 z M 123.39483,56.122339 c -9.48006,-4.216361 -18.94003,-16.671187 -16.833,-22.162032 1.31339,-3.422619 10.32204,0.557421 16.71841,7.38622 3.57106,3.812486 6.93986,13.091528 5.41848,14.92468 -1.27597,1.537452 -1.52828,1.530371 -5.30389,-0.148868 z M 94.894825,54.93026 c -6.40791,-1.716182 -12.23357,-5.296007 -14.67015,-9.014706 -1.64284,-2.507282 -1.63287,-2.687873 0.22571,-4.089499 2.53388,-1.910897 12.71518,-1.219649 17.48963,1.18744 4.567655,2.302823 10.954815,8.493245 10.954815,10.617368 0,3.231128 -5.04047,3.698955 -14.000005,1.299397 z m -35,-21.246417 c 0,-7.734841 6.38935,-18.181059 13.34026,-21.81057 4.51638,-2.3582857 6.03974,-1.127398 5.29842,4.28116 -1.31016,9.558633 -10.68659,22.380471 -16.36652,22.380471 -2.05062,0 -2.27216,-0.472982 -2.27216,-4.851061 z m 68.659355,-6.525026 c -2.66235,-0.748424 -5.79985,-2.319977 -6.97222,-3.492342 l -2.13157,-2.131571 2.00783,-2.007828 c 3.10076,-3.100763 12.05295,-4.620082 18.59547,-3.155928 6.84968,1.53289 12.08668,4.650209 11.64708,6.932901 -0.80058,4.157055 -14.15804,6.381568 -23.14659,3.854768 z M 90.291095,20.125161 c -0.68334,-1.780745 1.70008,-6.425683 4.75872,-9.274072 6.640075,-6.1836227 22.845015,-9.95666368 22.845015,-5.3190657 0,3.171957 -6.62679,9.6602867 -13.2433,12.9665977 -6.568185,3.282159 -13.427005,4.059026 -14.360435,1.62654 z"
       id="path1" /></g></svg>
