<?xml version="1.0" encoding="UTF-8" standalone="no"?>
<!-- Created with Inkscape (http://www.inkscape.org/) -->

<svg
   width="180"
   height="180"
   viewBox="0 0 180 180"
   version="1.1"
   id="svg1"
   xml:space="preserve"
   inkscape:version="1.4.2 (f4327f4, 2025-05-13)"
   sodipodi:docname="food_grain_sunflower.svg"
   xmlns:inkscape="http://www.inkscape.org/namespaces/inkscape"
   xmlns:sodipodi="http://sodipodi.sourceforge.net/DTD/sodipodi-0.dtd"
   xmlns="http://www.w3.org/2000/svg"
   xmlns:svg="http://www.w3.org/2000/svg"><sodipodi:namedview
     id="namedview1"
     pagecolor="#505050"
     bordercolor="#ffffff"
     borderopacity="1"
     inkscape:showpageshadow="0"
     inkscape:pageopacity="0"
     inkscape:pagecheckerboard="1"
     inkscape:deskcolor="#505050"
     inkscape:document-units="px"
     inkscape:zoom="2.192031"
     inkscape:cx="-18.247917"
     inkscape:cy="182.02297"
     inkscape:window-width="2560"
     inkscape:window-height="1351"
     inkscape:window-x="-9"
     inkscape:window-y="-9"
     inkscape:window-maximized="1"
     inkscape:current-layer="layer1" /><defs
     id="defs1" /><g
     inkscape:label="Warstwa 1"
     inkscape:groupmode="layer"
     id="layer1"><path
       style="fill:#000000;stroke-width:0.839145"
       d="m 86.180859,168.11622 c -4.331174,-8.22838 -6.463999,-13.95774 -8.188785,-21.99744 -1.367048,-6.37213 -1.536476,-6.72547 -1.607296,-3.35199 -0.135926,6.47436 -1.415928,10.09244 -4.806915,13.58744 -4.748371,4.89401 -13.704822,11.84553 -14.386535,11.16606 -0.325891,-0.32481 -0.592524,-6.00423 -0.592524,-12.62093 v -12.03038 l 2.546886,-2.77458 c 5.810696,-6.33021 5.869222,-6.85449 0.329832,-2.95459 -6.160307,4.33706 -13.97248,8.05868 -22.301854,10.62434 -8.20796,2.52825 -8.038834,2.64772 -6.104774,-4.31249 2.250281,-8.09822 6.74227,-17.5904 11.006793,-23.25883 3.534491,-4.69808 2.970856,-4.57351 -3.047518,0.67355 l -3.285647,2.86456 -11.692984,-0.46163 c -6.431134,-0.2539 -11.894594,-0.66269 -12.14101,-0.90843 -0.7223,-0.72032 9.66786,-13.63812 13.037116,-16.20867 2.546567,-1.94288 4.180073,-2.431 9.385387,-2.8045 6.662677,-0.47805 6.650971,-0.48593 -4.201466,-2.82849 C 23.245974,99.033364 5.5615985,91.035316 5.9982994,89.605477 6.4183704,88.230088 18.977444,81.912575 25.200362,79.946373 c 3.065953,-0.968716 7.603536,-2.002637 10.08352,-2.297604 4.228692,-0.502957 4.352315,-0.580858 1.988175,-1.252831 -1.386483,-0.394085 -3.587463,-0.521361 -4.89107,-0.282833 -1.303606,0.238528 -3.422741,-0.109123 -4.709205,-0.772558 -2.620295,-1.351305 -9.164205,-8.274395 -13.282415,-14.052053 -2.699845,-3.787756 -2.704736,-3.812846 -0.840293,-4.310114 1.031452,-0.27509 5.867205,-0.746647 10.746132,-1.04789 9.765856,-0.60299 10.480332,-0.408591 16.507478,4.491599 l 3.530627,2.87046 -4.44763,-6.626674 c -3.302336,-4.920253 -5.261496,-9.159472 -7.60815,-16.462478 -1.738282,-5.409692 -2.968907,-10.026882 -2.734735,-10.260416 0.704275,-0.70235 12.338589,3.019004 19.073221,6.100765 3.46621,1.586136 7.814728,4.062066 9.663373,5.502057 5.828828,4.540329 6.065817,4.681003 4.643696,2.756299 -0.681092,-0.921797 -2.45585,-3.067616 -3.943908,-4.76849 -1.488059,-1.700868 -2.966572,-4.480036 -3.285597,-6.175933 -0.896173,-4.76394 0.728786,-21.318479 2.092574,-21.318479 1.372543,0 14.257264,11.077797 16.29432,14.009247 1.928272,2.774894 2.281077,4.187985 2.371778,9.499724 l 0.10655,6.239938 0.690982,-5.311864 c 0.919163,-7.065995 2.721499,-12.425609 7.231396,-21.504054 5.54407,-11.1602414 5.386222,-11.1134057 9.560101,-2.836765 5.237935,10.386627 7.433418,16.791308 8.083758,23.581961 0.68333,7.134946 1.73079,5.195568 1.86657,-3.455943 l 0.0838,-5.336678 5.30109,-5.13829 c 2.91559,-2.826063 7.05094,-6.370037 9.18968,-7.8755 l 3.88859,-2.73721 0.64647,3.994206 c 0.35556,2.19681 0.66326,7.807388 0.68377,12.467935 l 0.0373,8.473722 -3.57125,3.868012 c -1.96419,2.127408 -3.57125,4.097103 -3.57125,4.377104 0,0.280008 1.86175,-0.853811 4.13721,-2.51959 7.10852,-5.203872 27.55479,-13.553838 29.19165,-11.921444 0.70589,0.703959 -2.56224,11.919893 -5.21879,17.91041 -1.13201,2.552683 -3.83614,7.141138 -6.00918,10.196578 -3.95077,5.555026 -3.54644,5.590071 2.60657,0.225949 l 3.27998,-2.859449 11.25002,0.428108 c 6.18751,0.23546 11.47953,0.656998 11.76005,0.936755 1.1618,1.158615 -8.37433,12.8898 -13.47085,16.571618 -2.46119,1.778004 -4.3325,2.418653 -7.1921,2.462221 -5.19791,0.07919 -8.6302,1.47495 -3.83179,1.558198 1.86709,0.03243 5.64841,0.634515 8.40293,1.338038 5.34206,1.364402 20.88595,8.413671 22.30049,10.11344 1.89202,2.273507 -18.40538,11.226983 -28.445,12.547513 -2.43672,0.32051 -4.67019,0.96966 -4.96325,1.44255 -0.35335,0.57017 0.95868,0.68364 3.89504,0.33682 2.92104,-0.34501 5.35194,-0.13795 7.14326,0.60847 3.01487,1.25626 10.51783,8.57556 14.59586,14.23861 2.17065,3.01429 2.41536,3.76396 1.36049,4.16764 -2.11648,0.80995 -19.30281,1.63721 -21.67545,1.04334 -1.2099,-0.30283 -4.10938,-2.24194 -6.44329,-4.30913 -2.33392,-2.06719 -4.43186,-3.75851 -4.66209,-3.75851 -0.23024,0 1.12857,2.08861 3.01955,4.64136 4.63514,6.25722 8.65774,14.45554 11.18855,22.80305 1.62803,5.36983 1.84047,6.91348 0.95147,6.91348 -1.86816,0 -16.47936,-5.06474 -20.56693,-7.1292 -2.07973,-1.05038 -6.23918,-3.70372 -9.24323,-5.89632 -5.43925,-3.97001 -5.27444,-3.31558 0.8128,3.22731 l 2.96853,3.19073 -0.0651,11.70672 c -0.0358,6.43869 -0.43376,12.07439 -0.88437,12.52376 -0.94271,0.94014 -9.59548,-5.89153 -15.22621,-12.0216 -3.19351,-3.47671 -3.57125,-4.32588 -3.57125,-8.02813 0,-7.33212 -1.07593,-7.62515 -2.26302,-0.61632 -0.60834,3.59181 -2.240409,9.23404 -3.626812,12.53828 -2.992301,7.13165 -7.298787,14.8067 -8.308064,14.8067 -0.395559,0 -2.059037,-2.54541 -3.696618,-5.65648 z m 5.748463,-24.9451 0.557863,-4.45282 5.392388,-0.93647 c 2.965807,-0.51506 6.329377,-1.29176 7.474597,-1.72598 1.96732,-0.74592 2.2475,-0.46221 5.07726,5.1416 1.64728,3.2621 3.15899,5.7676 3.35935,5.56778 0.20036,-0.19983 -0.3521,-3.16099 -1.22771,-6.58036 -0.87561,-3.41937 -1.53648,-6.22247 -1.46861,-6.22909 0.0679,-0.007 2.86925,-1.84094 6.22526,-4.07627 5.43128,-3.61756 6.27458,-3.93857 7.67355,-2.92095 6.54681,4.76223 9.33266,6.5974 9.33266,6.14786 0,-0.2876 -1.71067,-2.73997 -3.80148,-5.44972 l -3.80148,-4.92681 3.69951,-5.38895 c 2.03474,-2.9639 3.86106,-5.87221 4.05849,-6.46289 0.27986,-0.8373 1.78353,-0.68776 6.82431,0.67875 3.55594,0.96396 6.46534,1.62009 6.46534,1.45805 0,-0.16204 -2.36332,-1.70475 -5.25183,-3.42823 -2.8885,-1.72349 -5.33093,-3.18095 -5.42763,-3.23881 -0.16675,-0.0998 2.41688,-14.068181 2.67658,-14.470935 0.0677,-0.105095 3.10808,-0.633813 6.75625,-1.17492 7.31112,-1.08443 6.86018,-1.787853 -1.78667,-2.787022 l -5.13405,-0.59326 -1.399,-7.100813 c -0.76946,-3.905453 -1.20059,-7.421012 -0.95806,-7.812348 0.24252,-0.391346 2.55889,-1.903554 5.14747,-3.360471 2.58858,-1.456918 4.53679,-2.818211 4.32932,-3.025104 -0.20744,-0.206885 -2.9737,0.423633 -6.14724,1.401157 -4.29178,1.321974 -5.85764,1.515292 -6.1119,0.754566 -0.18802,-0.562514 -2.01155,-3.454921 -4.05228,-6.427583 -4.16704,-6.069951 -4.36268,-4.667218 1.72072,-12.338045 1.3354,-1.683856 2.24014,-3.2489 2.01053,-3.477875 -0.2296,-0.228982 -2.76149,1.304545 -5.62642,3.407818 l -5.20897,3.824142 -3.10376,-2.432195 c -1.70706,-1.337704 -4.42722,-3.097473 -6.04478,-3.910582 -1.61757,-0.813117 -3.01443,-1.535053 -3.10413,-1.604304 -0.0897,-0.0693 0.57079,-2.913625 1.46776,-6.320814 0.897,-3.407189 1.48898,-6.336393 1.31556,-6.509338 -0.39071,-0.389652 -4.41321,6.386931 -5.52996,9.316143 -0.71658,1.879612 -1.09039,2.052625 -2.9288,1.355579 -1.15905,-0.439471 -4.55116,-1.223443 -7.537999,-1.742155 -5.988358,-1.03998 -5.642619,-0.567283 -6.852793,-9.369256 -0.746407,-5.428849 -1.824705,-4.284237 -2.511426,2.665862 l -0.570954,5.778371 -5.378516,0.934074 c -2.958186,0.513734 -6.290781,1.279956 -7.405767,1.702718 -1.86998,0.709021 -2.272227,0.351011 -5.185172,-4.614977 -1.736853,-2.961006 -3.331746,-5.210284 -3.544206,-4.998405 -0.212451,0.21188 0.300489,2.915436 1.139875,6.007915 1.457808,5.370867 1.45964,5.662272 0.04092,6.506513 -2.085188,1.240823 -8.962812,5.753934 -10.207126,6.697939 -0.712165,0.54029 -2.439473,-0.26247 -5.523391,-2.566979 -5.957772,-4.452038 -7.040557,-5.084382 -6.140662,-3.58611 0.388804,0.647336 2.148815,3.096735 3.911153,5.443112 1.762331,2.346376 3.204232,4.53985 3.204232,4.874396 0,0.334545 -0.902139,1.808676 -2.004755,3.275841 -1.102607,1.467166 -2.801907,4.250726 -3.776202,6.185687 l -1.771448,3.518106 -4.416656,-1.50196 c -2.429163,-0.826072 -5.551053,-1.759351 -6.937538,-2.073934 -2.162007,-0.490547 -1.941346,-0.203659 1.550013,2.015224 2.238988,1.422962 5.023207,2.948277 6.187147,3.389599 1.771473,0.671672 2.029435,1.175384 1.583273,3.091608 -0.293154,1.259066 -0.979917,4.646075 -1.526149,7.526692 -0.680831,3.590509 -1.380241,5.237484 -2.224148,5.237484 -2.078053,0 -11.983481,1.844478 -11.656514,2.170546 0.169083,0.168629 3.143865,0.727312 6.610612,1.24152 l 6.303174,0.934916 0.989773,5.577991 c 0.544376,3.067876 1.213518,6.376666 1.486984,7.352856 0.420869,1.50236 -0.361772,2.25395 -5.097136,4.89488 -3.076893,1.716 -5.443151,3.27078 -5.258353,3.45508 0.184797,0.18429 2.576675,-0.26623 5.315275,-1.00117 2.7386,-0.73495 5.399649,-1.39148 5.91343,-1.45897 0.513789,-0.0676 2.824679,2.67423 5.135318,6.09274 l 4.201164,6.21546 -4.084952,5.05552 c -2.246717,2.78054 -4.084951,5.39167 -4.084951,5.80249 0,0.41084 2.44974,-1.17294 5.443873,-3.51951 2.994125,-2.34655 5.637377,-4.26648 5.873886,-4.26648 0.236509,0 2.848435,1.65118 5.804267,3.6693 2.955841,2.01812 5.795814,3.80945 6.311065,3.98072 0.645715,0.21466 0.414382,2.13328 -0.744474,6.1745 -2.337605,8.15186 -2.151404,8.34112 1.778908,1.80825 3.127353,-5.19823 3.658847,-5.69241 5.667384,-5.26946 1.219013,0.25669 4.531214,0.8885 7.360457,1.404 l 5.144074,0.93727 0.555812,4.71617 c 0.305699,2.59388 0.798337,5.67467 1.09476,6.84617 l 0.538946,2.13001 0.643825,-2.38993 c 0.354108,-1.31446 0.894871,-4.39368 1.201695,-6.84272 z M 80.248816,130.54545 c -16.907466,-4.0817 -30.301497,-18.73897 -32.40728,-35.463706 -1.1529,-9.156644 0.265305,-16.759233 4.730708,-25.360028 6.743295,-12.988224 19.7901,-21.256871 35.117412,-22.256291 13.038384,-0.850165 24.392054,3.498178 32.902624,12.601387 8.48139,9.071993 12.05307,17.960086 12.05307,29.993943 0,26.687985 -26.07893,46.838125 -52.396534,40.484695 z"
       id="path1" /></g></svg>
