<?xml version="1.0" encoding="UTF-8" standalone="no"?>
<!-- Created with Inkscape (http://www.inkscape.org/) -->

<svg
   width="180mm"
   height="180mm"
   viewBox="0 0 180 180"
   version="1.1"
   id="svg1"
   sodipodi:docname="other_chest.svg"
   inkscape:version="1.4.2 (f4327f4, 2025-05-13)"
   xml:space="preserve"
   xmlns:inkscape="http://www.inkscape.org/namespaces/inkscape"
   xmlns:sodipodi="http://sodipodi.sourceforge.net/DTD/sodipodi-0.dtd"
   xmlns="http://www.w3.org/2000/svg"
   xmlns:svg="http://www.w3.org/2000/svg"><sodipodi:namedview
     id="namedview1"
     pagecolor="#505050"
     bordercolor="#ffffff"
     borderopacity="1"
     inkscape:showpageshadow="0"
     inkscape:pageopacity="0"
     inkscape:pagecheckerboard="1"
     inkscape:deskcolor="#505050"
     inkscape:document-units="mm"
     inkscape:zoom="0.70710678"
     inkscape:cx="138.59293"
     inkscape:cy="606.69762"
     inkscape:window-width="2560"
     inkscape:window-height="1351"
     inkscape:window-x="-9"
     inkscape:window-y="-9"
     inkscape:window-maximized="1"
     inkscape:current-layer="layer1"
     showguides="true" /><defs
     id="defs1"><rect
       x="101.82338"
       y="91.923881"
       width="384.66609"
       height="299.81327"
       id="rect3" /><rect
       x="2.8284271"
       y="2.1213203"
       width="662.55905"
       height="647.0027"
       id="rect2" /></defs><g
     inkscape:label="Icon"
     inkscape:groupmode="layer"
     id="layer1"><path
       style="fill:#000000;stroke-width:2.13579"
       d="m 53.166386,128.72517 c -0.216853,-17.01219 -0.193445,-31.116481 0.05183,-31.342871 0.444944,-0.41051 12.842069,-2.50095 13.07499,-2.20476 0.06739,0.0858 0.2159,14.039231 0.329873,31.007691 l 0.207129,30.85172 -6.034362,1.27898 c -3.318897,0.70346 -6.304563,1.29284 -6.63485,1.30976 -0.42307,0.022 -0.71699,-9.10823 -0.994759,-30.90052 z m 9.237047,19.13442 c 0.412206,-1.25103 0.333086,-1.81938 -0.354918,-2.54942 -1.173877,-1.24565 -3.489991,-0.625 -3.901679,1.04553 -0.833326,3.38134 3.171751,4.79638 4.256597,1.50389 z m -0.198835,-41.2486 c 0.985242,-1.95347 -0.18142,-4.12837 -2.088832,-3.89379 -1.844507,0.22685 -2.942934,2.78223 -1.815542,4.22369 1.026999,1.31308 3.166919,1.13228 3.904374,-0.3299 z m -15.187376,50.23024 -2.258661,-1.5506 -0.347082,-5.18287 c -0.190956,-2.8506 -0.347081,-16.56542 -0.347081,-30.47742 0,-20.001921 0.143477,-25.233961 0.685724,-25.005061 0.377145,0.15928 1.695142,0.72268 2.928877,1.2522 l 2.243152,0.96274 0.361719,19.620421 c 0.569471,30.89049 0.483882,42.04038 -0.322263,41.9814 -0.377145,-0.0275 -1.702108,-0.74797 -2.944385,-1.60081 z m 22.281745,-10.86434 c 0,-4.64231 0.123573,-8.44057 0.274804,-8.44057 0.389958,0 47.667499,-9.10552 54.473669,-10.49147 3.10791,-0.63288 5.92317,-1.15067 6.25609,-1.15067 0.70137,0 0.21969,15.61795 -0.50379,16.33452 -0.35164,0.3483 -58.727154,12.18875 -60.092652,12.18875 -0.224462,0 -0.408121,-3.79824 -0.408121,-8.44056 z m -39.497597,-2.30167 -11.245847,-7.7557 -0.153636,-7.71054 -0.153637,-7.71053 1.250737,0.85991 c 0.687901,0.47295 5.447351,3.42928 10.576565,6.56961 5.129193,3.14032 10.004689,6.21178 10.834408,6.8255 l 1.508581,1.11582 v 7.81882 c 0,5.88725 -0.169394,7.80942 -0.685724,7.7808 -0.377145,-0.022 -5.746351,-3.52807 -11.931551,-7.79369 z m 103.44637,-29.27767 c 0.20975,-16.248081 0.44482,-29.622481 0.52243,-29.720911 0.15343,-0.194713 9.97755,-1.830965 11.09536,-1.847972 0.76006,-0.011 0.83068,15.175002 0.20299,43.647613 l -0.3401,15.42586 -4.38861,0.96962 c -2.41375,0.53331 -5.08268,0.99172 -5.931,1.01869 l -1.54236,0.0491 z m 7.25659,20.11182 c 1.56461,-1.66024 0.18516,-4.86542 -1.90975,-4.43733 -1.36687,0.27933 -2.21889,3.05202 -1.29919,4.22792 0.84664,1.08249 2.29698,1.17714 3.20894,0.20945 z m 1.10177,-42.193221 c 0.22981,-2.51719 -1.42834,-3.55814 -3.21811,-2.0203 -0.96125,0.82596 -1.1485,1.40553 -0.85499,2.64642 0.32497,1.37394 0.61446,1.5644 2.13987,1.40797 1.53819,-0.15774 1.78571,-0.41819 1.93323,-2.03409 z m 5.59089,38.511541 c 0,-8.9441 -0.28107,-8.44503 5.21149,-9.25315 1.5086,-0.22195 3.1749,-0.53724 3.7029,-0.70066 0.88203,-0.27299 0.96001,0.36717 0.96001,7.88051 0,8.00433 -0.0261,8.18395 -1.2343,8.47508 -9.498,2.28878 -8.6401,2.92443 -8.6401,-6.40178 z m 12.44239,7.49323 c -0.48724,-0.51702 0.24967,-55.553416 0.76364,-57.032626 0.37353,-1.075009 1.16158,-1.337744 5.95764,-1.986309 3.03993,-0.411087 5.67663,-0.588833 5.85929,-0.395005 0.45523,0.483053 -0.86183,56.48836 -1.34064,57.00767 -0.2108,0.22864 -2.23123,0.81723 -4.48985,1.30798 -2.25862,0.49075 -4.62536,1.01928 -5.25944,1.1745 -0.63408,0.15533 -1.30485,0.121 -1.49064,-0.0761 z m 8.07115,-10.24385 c 0.88147,-1.49382 -0.24109,-3.05606 -2.19596,-3.05606 -1.24189,0 -1.62513,0.29333 -1.76649,1.35209 -0.0993,0.74363 -0.039,1.74348 0.13394,2.22187 0.42031,1.16224 3.04666,0.80695 3.82843,-0.5179 z m 0.0187,-38.024091 c 1.67563,-1.77805 0.69961,-4.32422 -1.65757,-4.32422 -1.95083,0 -2.64792,3.53551 -0.90901,4.61023 1.30087,0.804 1.56734,0.7743 2.56658,-0.28601 z M 12.246585,133.65617 C 11.190579,132.85756 9.9796925,131.9955 9.5557309,131.74048 8.9271696,131.36242 8.6514951,126.193 8.0621204,103.733 7.6646149,88.583909 7.4471812,76.074779 7.5789435,75.934963 c 0.3490302,-0.370385 6.1806795,2.22359 6.7722725,3.012345 0.276089,0.368119 0.659206,8.134841 0.851344,17.259391 0.192201,9.124511 0.504616,21.632571 0.69437,27.795621 0.330806,10.74382 0.302276,11.20353 -0.692649,11.15572 -0.570714,-0.0275 -1.90169,-0.70326 -2.957696,-1.50187 z m 57.052382,-8.62407 c 0,-5.28872 0.170431,-9.61586 0.378659,-9.61586 0.208269,0 4.404884,-0.69024 9.325828,-1.53386 l 8.947149,-1.53384 v -1.57799 -1.57802 l -7.268656,1.28424 c -3.997758,0.70632 -8.194373,1.43532 -9.325829,1.61997 l -2.057151,0.33576 v -8.89284 -8.892801 l 6.720065,-1.00034 c 15.951245,-2.3744 14.674467,-2.03389 14.674467,-3.91376 0,-0.97676 -0.294024,-1.67557 -0.704944,-1.67557 -0.660657,0 -31.47861,4.83362 -35.364054,5.54665 l -1.782866,0.32718 v -5.20366 c 0,-27.111235 -8.330012,-48.36745 -21.787745,-55.597218 -1.573974,-0.845583 -3.240296,-1.537403 -3.702884,-1.537403 -0.46261,0 -0.841102,-0.223991 -0.841102,-0.497726 0,-0.273736 3.303989,-0.813837 7.342199,-1.200217 6.198323,-0.593057 7.629899,-0.573322 9.188696,0.126725 2.774929,1.246089 8.28925,5.862653 10.642187,8.909605 6.250842,8.094602 11.333633,22.748603 12.648063,36.4653 0.333729,3.482504 0.508244,3.929717 1.535078,3.933435 2.323952,0.0088 26.954736,-3.657346 27.390848,-4.076551 C 96.020864,74.519072 94.014013,63.651275 91.859,56.852066 87.760476,43.920868 81.098963,34.701139 72.977427,30.719412 70.692102,29.598993 68.450381,28.68228 67.995837,28.68228 c -0.454544,0 -0.97189,-0.249732 -1.14966,-0.554951 -0.497027,-0.853372 3.227772,-1.666196 9.649045,-2.105599 5.810066,-0.397578 5.834386,-0.393684 9.600114,1.534191 2.828505,1.448079 5.019512,3.255015 8.73662,7.205127 4.171796,4.433318 5.368434,6.15236 7.519674,10.802365 3.12889,6.763261 5.03332,12.742078 6.2702,19.684843 0.51635,2.89838 1.35772,5.859067 1.86974,6.579333 l 0.93092,1.309583 10.29455,-1.558326 c 5.662,-0.85709 10.41353,-1.684588 10.55896,-1.838903 0.14534,-0.154226 -0.0411,-2.28968 -0.41434,-4.745247 -3.01299,-19.819093 -12.54618,-34.574629 -25.16809,-38.955387 -2.47015,-0.857332 -2.80118,-1.134213 -2.16416,-1.81017 0.51594,-0.547471 2.89703,-0.906328 7.58393,-1.14297 6.6709,-0.336856 6.89613,-0.308057 9.55808,1.221865 11.74669,6.751314 20.08332,20.855689 22.80861,38.588918 0.33077,2.152372 0.6845,4.199734 0.78608,4.549703 0.13248,0.456189 1.4023,0.435288 4.48638,-0.0737 2.36594,-0.390561 5.49496,-0.892688 6.95337,-1.115865 l 2.65166,-0.405741 -0.38189,-3.013093 c -1.78587,-14.090976 -7.48879,-26.649763 -15.15783,-33.38 -3.10569,-2.725519 -8.55817,-5.783229 -11.3808,-6.382248 -0.93354,-0.198009 -1.69734,-0.561398 -1.69734,-0.80728 0,-0.913039 2.09246,-1.297879 8.65766,-1.592295 l 6.73767,-0.302161 3.99552,2.09539 c 11.43618,5.997518 18.8819,18.908717 21.39416,37.098377 1.10846,8.025673 1.52357,14.066687 1.02455,14.909872 -0.22689,0.383388 -6.16786,1.595111 -13.5637,2.766506 -42.25888,6.693144 -40.60438,6.369928 -40.43988,7.900072 0.0819,0.76213 0.23151,1.47331 0.3324,1.58037 0.10098,0.10714 2.68598,-0.20417 5.74463,-0.69169 3.05865,-0.48748 5.68625,-0.88633 5.83909,-0.88633 0.15281,0 0.2779,3.77459 0.2779,8.38798 v 8.387941 l -3.84004,0.68729 c -3.72092,0.66599 -4.34038,1.173 -3.38471,2.7704 0.33664,0.5627 1.11693,0.59651 3.35794,0.14543 1.60568,-0.32313 3.13257,-0.58749 3.39311,-0.58749 0.26054,0 0.4737,4.03939 0.4737,8.97642 v 8.97642 l -1.50858,0.32321 c -3.17781,0.68085 -20.36731,3.94688 -38.537581,7.3222 -10.409265,1.93364 -19.481376,3.64973 -20.160237,3.81355 l -1.234295,0.29787 z m 43.886193,-4.65888 c 1.65946,-1.05215 3.8507,-3.05463 4.86945,-4.44993 l 1.85224,-2.53692 -0.25445,-8.88325 c -0.13995,-4.885771 -0.37165,-9.007601 -0.51494,-9.159641 -0.14327,-0.15203 -5.55261,0.65241 -12.02076,1.78766 -6.46817,1.13525 -12.477194,1.91404 -13.353377,1.73066 l -1.593091,-0.33343 0.374408,8.804221 c 0.205886,4.84234 0.614795,9.28085 0.90859,9.86339 0.690804,1.36965 6.68111,4.49285 9.85754,5.13951 3.65443,0.74393 6.49721,0.17908 9.87439,-1.96227 z m -7.93934,-6.92045 c 0.30026,-2.55009 0.1895,-3.59286 -0.50041,-4.71014 -1.24111,-2.00994 -1.10334,-3.9669 0.3836,-5.44919 3.1292,-3.1194 7.32146,0.57372 5.26951,4.64215 -0.42927,0.85115 -0.41129,1.9752 0.0653,4.08355 0.37142,1.64297 0.45017,3.12114 0.1808,3.39629 -0.26222,0.26792 -1.67103,0.67285 -3.13067,0.89983 l -2.65391,0.4127 z M 98.320952,95.258989 c 0.121913,-0.1111 0.168357,-2.14207 0.103046,-4.51349 -0.111755,-4.06357 -0.02198,-4.42845 1.561202,-6.34183 1.21203,-1.464777 1.67986,-2.616746 1.67986,-4.136262 0,-1.158326 -0.23827,-2.10606 -0.52947,-2.10606 -1.09124,0 -4.616455,3.858984 -5.578952,6.107148 -0.640317,1.495644 -1.003322,3.727044 -1.011035,6.215044 -0.01659,5.09198 0.267464,5.81231 2.102309,5.34607 0.798266,-0.20285 1.551146,-0.45962 1.67306,-0.57062 z m 15.896828,-2.34987 c 1.25538,-0.35651 1.29463,-0.52666 0.99538,-4.31421 -0.31604,-4.00025 -1.25818,-6.702513 -2.81469,-8.073259 -0.74915,-0.659764 -0.86943,-0.505427 -0.94025,1.206597 -0.12855,3.107102 0.12896,9.432042 0.42964,10.549222 0.30337,1.12753 0.44683,1.16642 2.32992,0.63165 z m -6.76835,-7.79099 c 0.7964,-0.933809 1.00473,-2.054382 0.95959,-5.161771 -0.0858,-5.914002 -1.83355,-8.780305 -5.35369,-8.780305 -2.1603,0 -2.27786,1.473996 -0.3075,3.855288 1.6306,1.970645 1.73348,2.350799 1.53645,5.677119 -0.11611,1.960766 -0.4091,4.023439 -0.65102,4.583719 -0.65787,1.52358 2.49079,1.37998 3.81617,-0.17403 z M 61.164245,80.108517 c 0.551764,-0.529871 1.003198,-1.42797 1.003198,-1.995814 0,-1.222173 -1.414367,-2.86188 -2.46859,-2.86188 -0.977633,0 -2.46861,1.607211 -2.46861,2.661055 0,0.839754 1.881579,3.160015 2.562555,3.160015 0.202567,0 0.819684,-0.433528 1.371447,-0.963376 z M 140.5666,68.359627 c 0.7382,-1.463633 0.15446,-3.472252 -1.13525,-3.906616 -1.35607,-0.456717 -2.65733,0.675494 -2.65733,2.312099 0,2.513474 2.74667,3.668258 3.79258,1.594517 z m 26.1681,-4.032241 c 0.33649,-0.235234 0.77687,-0.989448 0.97865,-1.676075 0.39489,-1.34386 -0.82203,-3.117399 -2.13901,-3.117399 -0.96051,0 -2.46859,1.60026 -2.46859,2.619474 0,0.975741 1.49552,2.622643 2.37062,2.610564 0.35561,-0.0044 0.92186,-0.201308 1.25833,-0.436564 z M 52.528163,47.559117 c 1.129217,-1.198258 1.087687,-1.756356 -0.235119,-3.160014 -1.252292,-1.328834 -2.233035,-1.47239 -3.181744,-0.465694 -0.94871,1.006696 -0.813444,2.047406 0.438869,3.37624 1.322806,1.403659 1.848757,1.447705 2.977994,0.249468 z m 76.795177,-9.33442 c 1.77708,-0.72361 0.23498,-3.721434 -1.91434,-3.721434 -1.30578,0 -1.4211,1.859936 -0.19593,3.160015 0.98342,1.043525 0.94884,1.034329 2.11025,0.561419 z m 28.18219,-4.378404 c 0.23622,-1.323267 -1.43678,-2.932811 -2.82838,-2.721118 -1.36575,0.207689 -1.82477,1.901122 -0.85234,3.144438 0.87469,1.118351 3.45856,0.821184 3.68072,-0.42332 z M 33.641407,127.24977 C 29.56822,124.79556 24.507593,121.7008 22.39556,120.37252 l -3.840037,-2.41506 -0.347309,-3.74458 c -0.504118,-5.43509 -0.543284,-13.93413 -0.06407,-13.91502 0.226287,0.009 5.595493,2.98249 11.931571,6.60772 l 11.520132,6.59132 0.151149,9.10918 c 0.08314,5.01005 -0.04022,9.10842 -0.274286,9.10752 -0.233958,-9e-4 -3.757973,-2.00963 -7.83116,-4.46383 z M 147.74556,110.7986 c 0,-7.77693 0.10118,-8.72377 0.96001,-8.99022 1.11497,-0.34588 7.25035,-1.52693 7.93228,-1.52693 0.25417,0 0.39398,3.98426 0.31069,8.85392 l -0.15135,8.85394 -3.29147,0.72544 c -6.25432,1.37845 -5.76008,2.0577 -5.76008,-7.91615 z M 30.047707,103.85297 c -6.049747,-3.40504 -11.267846,-6.384781 -11.59579,-6.621591 -0.653856,-0.47221 -1.604308,-15.110856 -1.043608,-16.07355 0.200909,-0.344821 5.147274,1.875777 11.990372,5.38281 l 11.648515,5.96978 0.37078,2.57578 c 0.512888,3.56307 0.544134,15.105961 0.04064,15.024431 -0.226287,-0.0367 -5.361203,-2.85262 -11.410928,-6.25766 z M 147.74556,90.786669 v -8.409043 l 4.13676,-0.652855 c 6.19351,-0.977479 5.73764,-1.288815 5.73764,3.918588 0,2.51431 -0.15633,6.15852 -0.34737,8.09823 l -0.34739,3.52677 -3.6298,0.68487 c -1.9964,0.37667 -4.06181,0.81033 -4.58983,0.96366 -0.88211,0.25618 -0.96001,-0.4035 -0.96001,-8.13022 z M 28.978493,82.810868 C 17.814938,77.106821 8.3725446,72.145194 7.9953995,71.785017 5.8840508,69.768698 8.5015493,52.623972 12.220855,44.108052 c 3.244048,-7.427732 7.585238,-10.70895 13.229891,-9.999574 10.905131,1.370504 20.755003,17.4578 23.496924,38.376366 0.845746,6.452366 1.416357,20.822425 0.824121,20.754175 -0.272751,-0.0315 -9.629743,-4.7241 -20.793298,-10.428151 z M 42.686046,74.523186 C 41.286401,61.429446 35.02175,47.273633 29.21722,44.088537 26.717489,42.716846 23.569748,42.996368 21.587819,44.76599 18.476735,47.543783 15.780428,54.986871 15.426422,61.774266 l -0.162345,3.113549 13.714437,6.627845 c 7.542942,3.645311 13.800398,6.631848 13.905455,6.636755 0.10512,0.0044 0.01659,-1.628245 -0.197798,-3.629229 z M 28.815195,68.459335 18.228926,63.440154 18.555523,61.632559 c 0.179553,-0.994178 0.588276,-3.060549 0.908113,-4.591945 0.690928,-3.308301 -0.213971,-3.439889 10.858418,1.57916 l 7.926494,3.593037 0.892356,3.753996 c 1.529894,6.436018 1.66657,7.53888 0.932578,7.52469 -0.369598,-0.0066 -5.435823,-2.271618 -11.258287,-5.032162 z M 29.252779,56.05011 c -8.669961,-3.984763 -9.036159,-4.527944 -5.54791,-8.229402 1.782265,-1.891199 2.459633,-2.267745 3.469818,-1.928865 2.128495,0.71404 4.693745,3.13115 6.657159,6.272684 2.010189,3.216359 3.840452,7.395148 3.21017,7.329344 -0.210882,-0.022 -3.71605,-1.571702 -7.789237,-3.443761 z m 38.903972,14.187714 c -0.554522,-4.166359 -0.636378,-6.23966 -0.251417,-6.369004 1.107633,-0.372189 22.428478,-3.164282 22.61902,-2.962116 0.41515,0.440547 2.467615,11.517066 2.188892,11.812824 -0.162966,0.172928 -5.559457,1.071775 -11.992362,1.997618 -6.432924,0.925843 -11.706507,1.686613 -11.719092,1.690617 -0.01244,0.0044 -0.392841,-2.77249 -0.845041,-6.169939 z m 43.724159,-0.889981 c -0.36414,-1.317482 -1.98721,-10.088194 -1.98721,-10.738431 0,-0.349485 3.62884,-1.059323 8.55739,-1.673897 6.88758,-0.858872 8.64191,-0.921971 8.99053,-0.323435 0.48653,0.835353 2.37589,10.510061 2.10233,10.76536 -0.0966,0.0902 -3.26149,0.597083 -7.03296,1.126359 -3.77147,0.529276 -7.65691,1.113731 -8.6343,1.298803 -1.23958,0.234728 -1.84324,0.09724 -1.99578,-0.454759 z m 35.07756,-5.88472 c -0.14265,-0.720354 -0.65112,-3.24188 -1.12988,-5.603393 -0.47878,-2.361491 -0.79874,-4.363971 -0.71106,-4.449929 0.0877,-0.08602 2.01089,-0.418326 4.27376,-0.738571 3.34596,-0.473526 4.22772,-0.431152 4.72145,0.226852 0.56599,0.754301 2.58563,10.136221 2.25706,10.48487 -0.21079,0.223683 -7.05754,1.380228 -8.20235,1.38553 -0.54403,0.0022 -1.06034,-0.554951 -1.20898,-1.305359 z M 66.307496,59.970477 c -1.953255,-6.636931 -2.806444,-9.21775 -3.608235,-10.914505 -0.529517,-1.120573 -0.980826,-2.299338 -1.002887,-2.619496 -0.02281,-0.3303 4.51979,-1.113665 10.501302,-1.81094 9.676704,-1.128009 10.602586,-1.15188 11.286879,-0.29105 1.100438,1.384342 6.324136,12.839673 6.007968,13.175165 -0.244781,0.259743 -20.587744,3.166703 -22.267957,3.18206 -0.3866,0.0044 -0.799303,-0.321038 -0.91707,-0.721234 z m 41.899814,-6.716354 c -0.36332,-1.188424 -1.73957,-4.452834 -3.05836,-7.254233 -1.31907,-2.80206 -2.11068,-5.093434 -1.75962,-5.093434 0.35096,0 4.09722,-0.420746 8.32499,-0.934996 l 7.68687,-0.934973 1.01709,1.37156 c 1.32774,1.790501 6.19285,12.058596 5.87384,12.397103 -0.13539,0.143666 -3.44831,0.67435 -7.36222,1.179469 -3.91389,0.505097 -7.779,1.033538 -8.5891,1.174322 -1.29393,0.224849 -1.5532,-0.0066 -2.13349,-1.904818 z m 32.98644,-8.994088 c -1.64233,-3.605336 -3.07493,-6.727971 -3.18353,-6.93918 -0.10864,-0.211209 1.71318,-0.574004 4.04839,-0.806202 4.21766,-0.419381 4.25446,-0.411043 5.5408,1.257177 1.15003,1.491443 5.63194,10.567638 5.63194,11.405103 0,0.179748 -1.41944,0.498717 -3.15433,0.708606 -1.73487,0.209889 -3.77147,0.504921 -4.52576,0.65565 -1.27096,0.253956 -1.59025,-0.206369 -4.35751,-6.281154 z m -82.6147,-2.613644 c -0.542766,-0.887209 -2.566017,-3.354943 -4.496091,-5.483841 -1.930075,-2.128919 -3.2975,-4.009602 -3.038703,-4.179317 0.258797,-0.169627 4.077541,-0.494669 8.486116,-0.722092 l 8.015607,-0.413508 3.482237,1.729999 c 3.248672,1.613988 9.854868,7.277708 9.242292,7.923743 -0.150941,0.159066 -4.100618,0.70986 -8.777237,1.223889 -4.676619,0.514052 -9.273434,1.069531 -10.215136,1.234428 -1.427491,0.249953 -1.876291,0.03168 -2.699085,-1.313301 z M 99.262259,36.00575 c -1.087915,-1.408785 -3.233391,-3.539311 -4.767743,-4.734467 -1.849006,-1.440269 -2.566204,-2.319623 -2.126858,-2.607748 0.364581,-0.239084 3.218588,-0.619546 6.342236,-0.845473 l 5.679376,-0.410779 3.98652,2.091122 c 3.57099,1.873136 9.1527,6.419693 8.59316,6.999506 -0.11984,0.124305 -3.18035,0.525074 -6.80097,0.890729 -3.62061,0.365633 -7.11049,0.780417 -7.75531,0.921707 -0.87353,0.191408 -1.6766,-0.396061 -3.150411,-2.304597 z M 134.5797,32.464965 c -1.05601,-1.171307 -3.09261,-3.047832 -4.52577,-4.170011 -1.43315,-1.122201 -2.60574,-2.28 -2.60574,-2.572876 0,-0.292898 1.08551,-0.532533 2.41226,-0.532533 1.69412,0 3.53135,0.61651 6.17149,2.070925 3.72068,2.049695 8.36551,5.758918 7.86073,6.277348 -0.14389,0.147626 -1.86603,0.445893 -3.82718,0.662668 l -3.56578,0.394147 z"
       id="path1" /></g></svg>
