<?xml version="1.0" encoding="UTF-8" standalone="no"?>
<!-- Created with Inkscape (http://www.inkscape.org/) -->

<svg
   width="180"
   height="180"
   viewBox="0 0 180 180"
   version="1.1"
   id="svg1"
   xml:space="preserve"
   inkscape:version="1.4.2 (f4327f4, 2025-05-13)"
   sodipodi:docname="food_vegetable_cabbage.svg"
   xmlns:inkscape="http://www.inkscape.org/namespaces/inkscape"
   xmlns:sodipodi="http://sodipodi.sourceforge.net/DTD/sodipodi-0.dtd"
   xmlns="http://www.w3.org/2000/svg"
   xmlns:svg="http://www.w3.org/2000/svg"><sodipodi:namedview
     id="namedview1"
     pagecolor="#505050"
     bordercolor="#ffffff"
     borderopacity="1"
     inkscape:showpageshadow="0"
     inkscape:pageopacity="0"
     inkscape:pagecheckerboard="1"
     inkscape:deskcolor="#505050"
     inkscape:document-units="px"
     inkscape:zoom="3.1"
     inkscape:cx="50.645161"
     inkscape:cy="133.22581"
     inkscape:window-width="2560"
     inkscape:window-height="1351"
     inkscape:window-x="-9"
     inkscape:window-y="-9"
     inkscape:window-maximized="1"
     inkscape:current-layer="layer1" /><defs
     id="defs1" /><g
     inkscape:label="Warstwa 1"
     inkscape:groupmode="layer"
     id="layer1"><path
       style="fill:#000000;stroke-width:0.884999"
       d="m 86.604943,172.01312 c -5.416893,-0.5693 -13.839714,-4.19898 -13.47942,-5.80874 0.209686,-0.93684 13.230315,-4.72619 16.679715,-4.85425 1.355679,-0.0503 -0.156626,-0.87214 -3.952521,-2.14786 -8.215699,-2.76115 -14.528173,-6.24919 -18.122041,-10.01358 -2.760028,-2.89097 -2.958067,-3.49808 -2.958067,-9.06793 0,-7.99823 2.140878,-12.1945 11.457593,-22.45771 4.084667,-4.49963 7.426671,-8.36334 7.426671,-8.58602 0,-0.61955 -13.337358,11.1305 -15.667166,13.80259 -2.729848,3.13087 -6.268663,10.71919 -6.296155,13.50089 -0.05077,5.13419 -1.510944,4.78002 -4.24167,-1.02881 -6.552312,-13.93815 -5.788448,-17.66434 7.375219,-35.977184 2.563666,-3.566488 1.692601,-2.889493 -4.353578,3.383654 -4.157164,4.31322 -7.558476,8.42623 -7.558476,9.14003 0,0.71381 -0.454803,1.29783 -1.010677,1.29783 -1.538487,0 -0.306628,-16.884423 1.848638,-25.338226 0.989703,-3.881987 1.639883,-7.220151 1.444866,-7.418141 -0.557894,-0.566392 -3.887884,9.004578 -5.431712,15.611689 -2.134888,9.136658 -2.133474,9.135758 -4.50987,2.877314 -1.53789,-4.050185 -2.37918,-8.482192 -2.792895,-14.713231 -0.583655,-8.790494 -0.602285,-8.849463 -1.312184,-4.153029 -1.05354,6.969856 0.122915,15.559257 3.377903,24.662384 3.012093,8.42381 5.232189,21.22341 3.585358,20.6708 -0.876546,-0.29413 -6.780488,-7.44566 -9.032959,-10.94176 -0.612439,-0.95058 -0.498272,-0.12697 0.258275,1.8632 1.689624,4.44472 4.874556,9.39497 9.112809,14.16373 1.794181,2.01876 4.376195,5.67682 5.737821,8.12903 1.361617,2.4522 3.280135,5.35983 4.263356,6.46139 3.143782,3.52214 1.021761,3.06515 -4.326086,-0.93165 -11.381644,-8.50626 -19.799572,-21.44624 -22.770287,-35.00232 -2.338056,-10.669104 -1.492024,-25.195383 2.090629,-35.895967 1.847777,-5.518904 2.778595,-10.014636 2.778595,-13.420246 0,-5.859564 0.953454,-7.261291 4.939132,-7.261291 3.510927,0 7.090663,2.936342 10.870933,8.917083 2.146666,3.396215 3.874172,4.930995 7.274184,6.462622 12.239383,5.513575 13.22538,6.229156 16.283163,11.817471 4.841566,8.848285 6.564092,10.582469 14.348703,14.44577 8.172275,4.055684 13.409328,8.926918 15.257748,14.191948 l 1.21606,3.46387 0.0385,-2.93358 c 0.0471,-3.58438 -2.46013,-8.73477 -5.8098,-11.934574 -1.372698,-1.311317 -5.2626,-3.95447 -8.644201,-5.873676 C 85.762601,87.576043 85.751675,87.56356 77.947644,75.061176 75.322872,70.856184 73.698684,69.74095 63.043066,64.827087 59.862245,63.360243 57.490047,61.26737 54.296323,57.110262 l -4.382196,-5.704117 4.607163,-4.300796 c 12.701574,-11.856941 34.520944,-17.025163 52.34197,-12.397921 7.25203,1.882996 16.00592,6.122848 15.68655,7.597605 -0.10622,0.490441 -2.32693,1.134115 -4.93492,1.430387 -5.58601,0.634581 -8.11306,2.362962 -12.11969,8.289314 -2.33279,3.450488 -3.91917,4.73967 -7.542965,6.129835 -7.644263,2.932499 -13.480608,10.108458 -13.37613,16.446335 0.03795,2.301901 0.190758,2.191408 2.118499,-1.531853 2.933377,-5.665562 7.206578,-9.494778 13.245975,-11.869716 4.179191,-1.643427 5.906591,-2.976614 8.747221,-6.751004 4.28347,-5.69151 5.36937,-6.357706 11.23533,-6.892858 2.83169,-0.258335 5.82502,-1.253793 7.8514,-2.611048 1.80121,-1.206445 4.06,-2.193537 5.01954,-2.193537 1.95631,0 3.56308,2.446641 3.56308,5.425495 0,1.086744 1.93491,5.038178 4.29981,8.780966 5.10402,8.077867 8.40719,15.725066 9.55029,22.109972 1.20012,6.703562 -1.10813,10.204225 -9.80882,14.875858 -6.48288,3.480827 -6.99198,3.255387 -6.36127,-2.816987 1.6283,-15.676916 1.65538,-18.777725 0.22074,-25.283493 -0.79988,-3.62734 -1.87481,-7.197068 -2.38875,-7.932729 -0.7229,-1.034802 -0.80485,-0.832961 -0.36199,0.891711 1.70589,6.643672 1.52952,24.971837 -0.24025,24.96578 -0.34042,-0.0012 -1.70862,-2.119489 -3.04045,-4.707385 -1.33183,-2.587897 -4.81556,-7.301864 -7.74163,-10.475482 -5.58209,-6.054349 -5.88332,-5.79672 -1.12505,0.962184 3.11636,4.426645 10.45289,19.380734 9.82232,20.0209 -0.21519,0.218472 -2.74017,-0.781509 -5.61106,-2.222178 -7.02997,-3.527768 -22.45482,-8.357397 -19.57224,-6.128207 1.13064,0.874352 5.21771,2.864541 9.08239,4.42264 8.83615,3.562409 14.00347,6.580045 16.26445,9.498186 l 1.76483,2.277747 -6.21534,3.052204 c -4.85903,2.38614 -7.01787,4.11617 -9.89297,7.92793 -2.33025,3.08941 -6.34156,6.66677 -10.9487,9.76432 -5.385353,3.62072 -8.026147,6.09697 -10.182501,9.54803 -5.084515,8.1373 -6.880575,16.34995 -5.01675,22.93954 0.509524,1.80143 0.849335,1.03131 1.770624,-4.01271 2.292708,-12.55254 5.720421,-17.86291 16.131727,-24.99198 3.96163,-2.71271 8.78398,-6.86572 10.71633,-9.2289 4.77028,-5.8339 7.81085,-7.8315 17.14104,-11.2613 13.49781,-4.961841 17.02768,-8.221706 21.9156,-20.239152 1.53649,-3.777637 4.19066,-8.725928 5.89814,-10.996201 l 3.10452,-4.127771 -2.64179,1.386927 c -1.45299,0.762811 -4.01114,3.011048 -5.68478,4.996082 l -3.04297,3.609152 -1.05193,-3.814318 c -1.0095,-3.660499 -0.35736,-13.916831 1.31504,-20.681639 0.3118,-1.26127 0.33175,-2.293217 0.0444,-2.293217 -0.93485,0 -3.23378,6.517112 -3.92134,11.116348 l -0.67104,4.488589 -1.83795,-3.566843 c -1.01088,-1.961763 -3.20457,-5.626438 -4.87488,-8.143719 -1.67031,-2.517282 -3.29608,-6.222165 -3.61282,-8.233075 -0.73296,-4.653512 -3.55863,-6.747665 -8.239,-6.106052 -2.61316,0.358228 -4.76287,-0.267103 -10.32684,-3.004004 -8.32197,-4.09354 -19.08495,-7.06059 -25.612306,-7.06059 -2.579696,0 -4.688885,-0.300951 -4.687075,-0.668782 0.0017,-0.367831 0.786499,-1.972911 1.743764,-3.566843 2.380655,-3.964005 0.877828,-3.64398 -2.917856,0.621353 -2.665834,2.995689 -3.946478,3.669374 -8.605865,4.527146 -6.273863,1.154989 -14.850762,4.269295 -19.928275,7.23603 l -3.486738,2.037261 -3.608458,-3.30966 c -4.581582,-4.202159 -6.402113,-4.304075 -2.816096,-0.157646 1.499296,1.733608 2.726,3.857045 2.726,4.718747 0,0.861703 -1.679821,3.226439 -3.732936,5.254969 -3.482689,3.440986 -4.040609,3.677603 -8.322392,3.529576 -3.887682,-0.1344 -4.93914,0.19606 -6.876314,2.161127 -1.868682,1.895597 -2.336678,3.305269 -2.559319,7.709118 -0.149853,2.964131 -1.14494,7.738638 -2.211294,10.610017 -1.066355,2.871377 -2.64551,8.832115 -3.509232,13.246083 l -1.570399,8.025396 -2.751077,-6.031766 c -3.746814,-8.214958 -5.357229,-14.990372 -5.357229,-22.539197 0,-7.437657 1.698486,-11.508581 8.213944,-19.687134 2.297934,-2.884498 5.089134,-7.523117 6.202664,-10.308041 2.912103,-7.283164 6.808981,-11.828195 12.629243,-14.729841 4.717641,-2.35194 5.601715,-2.485685 14.982039,-2.266518 9.746766,0.227727 10.121052,0.163009 16.822243,-2.908726 12.609576,-5.780067 20.934972,-5.7756147 29.827714,0.01596 2.67584,1.742684 7.6544,4.553379 11.0635,6.245992 6.88701,3.419384 13.22242,9.051818 15.52489,13.802231 1.39272,2.873428 1.5143,2.943111 1.53271,0.878505 0.011,-1.233365 -0.79859,-3.793044 -1.79909,-5.688174 -2.34358,-4.439195 -1.40885,-5.420478 5.14213,-5.398221 4.9226,0.01673 7.48099,1.051639 12.04787,4.873591 0.96617,0.808574 3.64973,2.178176 5.96347,3.043561 4.53246,1.695233 8.87879,4.971989 10.38515,7.829491 0.51595,0.978751 1.27373,4.190199 1.68395,7.136549 0.6077,4.36478 1.46431,6.288339 4.6248,10.385292 5.81476,7.537697 6.76977,9.915876 6.7461,16.799176 -0.0155,4.491537 -0.60544,7.450275 -2.27597,11.413594 -4.73367,11.230633 -7.48017,19.849187 -8.80033,27.615497 -2.62809,15.46089 -7.36039,25.42706 -16.5651,34.88596 -7.63668,7.84756 -16.72054,12.70169 -29.16442,15.58453 -7.35227,1.70328 -9.143,2.48731 -12.26282,5.36903 -5.08212,4.69424 -12.272105,6.34324 -22.822937,5.23437 z m 36.134087,-16.37199 c 4.59287,-2.30447 8.62093,-5.23165 12.24096,-8.89546 2.96753,-3.00342 7.43658,-7.03312 9.93124,-8.9549 4.22729,-3.25653 8.22494,-8.04321 10.67202,-12.7784 0.56993,-1.10284 -1.26948,0.40192 -4.08758,3.34392 -6.05179,6.31787 -8.08986,6.98224 -5.47867,1.78596 2.10665,-4.19223 6.17224,-19.08772 6.08563,-22.29648 -0.0331,-1.2261 -0.83707,0.57962 -1.78664,4.0127 -1.94565,7.03447 -8.4981,20.92265 -11.77988,24.9679 l -2.17024,2.67512 -0.01,-4.45855 c -0.005,-2.4522 -0.27831,-7.86934 -0.60669,-12.03809 -0.74389,-9.44359 -1.8135,-6.7057 -1.93986,4.96549 -0.11139,10.28711 -1.84247,16.36456 -5.61007,19.69555 -3.33223,2.94608 -9.13164,6.23618 -9.7987,5.55895 -0.25236,-0.25618 -0.0691,-1.84366 0.40731,-3.52773 0.87056,-3.0776 0.17342,-8.95323 -1.7387,-14.65417 -0.68129,-2.0312 -0.77977,-0.71636 -0.40914,5.46237 0.72944,12.16041 -0.68467,14.77679 -9.60918,17.77896 l -3.63174,1.2217 6.23705,-0.21506 c 5.21655,-0.17986 7.3571,-0.77704 13.0825,-3.64978 z M 74.952388,57.241187 c -1.950666,-2.820035 -4.40548,-5.669132 -5.455146,-6.331328 -1.538708,-0.970717 -1.670757,-1.356803 -0.681538,-1.992694 2.317802,-1.489938 9.509211,-0.824353 15.395241,1.424873 3.22531,1.232487 6.058898,2.043225 6.296867,1.801638 0.237959,-0.241586 -2.37608,-1.751572 -5.808985,-3.355524 -3.432903,-1.603952 -6.257462,-3.188779 -6.276812,-3.521839 -0.06991,-1.204338 9.831894,-2.647662 16.203708,-2.361903 4.346762,0.194939 6.225027,-0.0047 5.637727,-0.599377 -0.484409,-0.490441 -4.814724,-1.029644 -9.622948,-1.198228 -4.923233,-0.172618 -8.527298,-0.65954 -8.250243,-1.114638 0.713418,-1.171923 0.586578,-1.132856 -8.474723,2.610197 -7.931778,3.27647 -15.730461,7.604637 -15.730461,8.7302 0,0.293651 1.372368,0.272532 3.049712,-0.04693 3.912767,-0.745215 6.686198,0.734102 12.288185,6.554378 2.397265,2.490682 4.497582,4.528512 4.667373,4.528512 0.169783,0 -1.287301,-2.307301 -3.237957,-5.127337 z M 57.982372,163.07617 c -4.707276,-0.7897 -10.209475,-3.39103 -14.507323,-6.85878 -2.411353,-1.94561 -6.698538,-3.95201 -12.122187,-5.67316 C 20.360436,147.05588 17.2195,144.06711 14.477452,134.48636 13.118303,129.7375 11.236973,125.92615 8.1095547,121.58575 0.0127722,110.34858 -0.5357672,102.24912 5.8824937,88.701846 8.8229758,82.495252 13.475646,77.110786 15.350099,77.745118 c 0.473433,0.160212 1.739619,2.484114 2.813755,5.164226 1.074137,2.680114 3.008545,6.570356 4.298674,8.644984 1.290137,2.074625 2.350897,4.682887 2.357247,5.796118 0.01318,2.31292 2.996327,17.173154 3.986486,19.858284 0.503587,1.36562 -0.04198,1.12789 -2.328939,-1.01481 -3.333661,-3.1234 -6.948399,-5.12329 -10.891636,-6.02588 -2.277864,-0.52139 -2.09928,-0.28035 1.317507,1.77836 5.606826,3.37827 12.539267,10.40139 18.029844,18.26568 5.804699,8.31425 15.072823,17.31856 21.783589,21.16353 2.772236,1.58837 8.410191,4.03756 12.528787,5.44264 4.118605,1.40508 7.689163,2.75854 7.93458,3.0077 1.532708,1.55603 -13.811319,4.15383 -19.197621,3.25022 z"
       id="path1" /></g></svg>
