<?xml version="1.0" encoding="UTF-8" standalone="no"?>
<!-- Created with Inkscape (http://www.inkscape.org/) -->

<svg
   width="180"
   height="240"
   viewBox="0 0 180 240"
   version="1.1"
   id="svg1"
   xml:space="preserve"
   inkscape:version="1.4.2 (f4327f4, 2025-05-13)"
   sodipodi:docname="food_vegetable_turnip.svg"
   xmlns:inkscape="http://www.inkscape.org/namespaces/inkscape"
   xmlns:sodipodi="http://sodipodi.sourceforge.net/DTD/sodipodi-0.dtd"
   xmlns="http://www.w3.org/2000/svg"
   xmlns:svg="http://www.w3.org/2000/svg"><sodipodi:namedview
     id="namedview1"
     pagecolor="#505050"
     bordercolor="#ffffff"
     borderopacity="1"
     inkscape:showpageshadow="0"
     inkscape:pageopacity="0"
     inkscape:pagecheckerboard="1"
     inkscape:deskcolor="#505050"
     inkscape:document-units="px"
     inkscape:zoom="3.1"
     inkscape:cx="50.645161"
     inkscape:cy="133.22581"
     inkscape:window-width="2560"
     inkscape:window-height="1351"
     inkscape:window-x="-9"
     inkscape:window-y="-9"
     inkscape:window-maximized="1"
     inkscape:current-layer="layer1" /><defs
     id="defs1" /><g
     inkscape:label="Warstwa 1"
     inkscape:groupmode="layer"
     id="layer1"><path
       style="fill:#000000;stroke-width:1.04778"
       d="m 84.53505,231.70566 c 0.3987,-2.2643 0.92567,-5.35199 1.17105,-6.86152 0.78787,-4.8468 -2.90268,-9.28339 -13.81405,-16.60654 -11.896191,-7.9841 -20.377721,-16.70979 -23.875351,-24.56263 -2.07072,-4.64918 -2.44487,-7.08532 -2.44487,-15.91874 0,-8.79453 0.36677,-11.204 2.3396,-15.36983 4.65224,-9.82366 12.6458,-16.37452 23.708211,-19.4293 3.8237,-1.05587 7.11252,-2.02672 7.30848,-2.15741 0.19597,-0.13068 -1.12083,-3.75585 -2.9262,-8.0559 -4.18988,-9.97948 -8.29903,-12.97026 -19.423011,-14.13678 -5.80262,-0.6085 -8.05609,-1.34702 -9.73526,-3.19049 -2.02242,-2.22029 -2.08542,-2.70084 -0.84697,-6.460791 1.25003,-3.795159 1.19061,-4.193067 -0.90423,-6.055348 -1.61983,-1.439995 -3.94624,-1.99496 -8.38141,-1.999383 -15.4802,-0.01543 -22.1742,-6.870133 -17.14199,-17.553499 1.47136,-3.123685 1.41088,-3.286936 -3.5,-9.447972 -5.474079,-6.867612 -6.5035589,-11.860911 -3.43652,-16.668174 3.39237,-5.31717 11.32952,-7.287282 16.4393,-4.080462 3.82235,2.398851 8.50171,2.0673 10.18862,-0.721904 2.9549,-4.885753 11.3762,-1.667304 15.69063,5.996644 1.64492,2.92195 1.91226,4.737499 1.43895,9.772149 -0.63323,6.735755 0.90319,10.797477 6.11939,16.177311 1.409321,1.453537 2.562411,3.75959 2.562411,5.124565 0,4.124175 1.73358,7.845687 6.04896,12.985393 2.83773,3.379787 5.46652,8.548981 8.51849,16.750551 2.42781,6.52422 4.41832,12.45062 4.42337,13.16975 0.005,0.71914 0.49396,1.63644 1.08646,2.03845 1.11149,0.75416 0.91355,-2.10337 -1.1866,-17.13029 -1.10421,-7.900837 -2.51156,-10.237419 -10.14068,-16.836242 -4.41738,-3.820824 -4.75,-4.456919 -4.75,-9.08378 0,-4.072347 -0.52538,-5.514047 -2.89494,-7.944128 -6.195431,-6.35367 -8.685281,-13.961834 -5.855061,-17.891213 0.6875,-0.954502 2.9375,-2.322314 5.000001,-3.03958 2.11522,-0.735604 3.75,-2.014412 3.75,-2.933451 0,-0.896131 -1.64089,-5.323666 -3.64642,-9.838967 -3.407931,-7.672727 -3.569131,-8.492821 -2.464741,-12.539595 1.404861,-5.147831 3.444071,-6.561473 9.465051,-6.561473 4.48415,0 4.48582,-0.0015 6.11826,-5.397171 2.39377,-7.9121279 5.68304,-11.0704934 11.52935,-11.0704934 5.98505,0 9.21154,2.6532967 10.92314,8.9826274 1.7806,6.584501 2.70204,7.485037 7.65886,7.485037 9.27379,0 11.35979,8.64039 5.10531,21.146581 -3.605,7.208386 -3.173,9.437946 2.12046,10.94383 6.82297,1.940998 6.65556,10.12235 -0.376,18.37518 -3.59696,4.221695 -4.43326,5.972022 -4.43326,9.278493 0,5.525826 -1.09184,7.400009 -7.04752,12.097394 -2.84233,2.241805 -5.68627,5.57335 -6.43018,7.532671 -1.39648,3.67804 -4.02609,24.73393 -3.20195,25.63871 0.26173,0.28735 1.25026,-2.10323 2.19673,-5.31237 3.53779,-11.99534 8.6757,-23.313095 12.95622,-28.539899 4.10724,-5.015211 6.35818,-10.609655 5.13971,-12.774096 -0.29436,-0.522871 1.06069,-2.634552 3.01122,-4.692625 5.30791,-5.600577 6.71331,-9.23358 6.0283,-15.583347 -0.96707,-8.964245 4.08045,-16.9441 11.89109,-18.799208 2.46211,-0.584777 3.49848,-0.191348 5.42432,2.059185 2.7295,3.189708 5.28879,3.469689 10.37781,1.135311 5.97338,-2.740036 10.02593,-2.149879 14.08304,2.050858 2.98681,3.09254 3.57121,4.447634 3.57121,8.280865 0,3.917638 -0.65352,5.350263 -4.5,9.864822 -4.96297,5.824953 -5.25289,7.08853 -2.87995,12.551533 1.40237,3.228534 1.43596,4.14226 0.25,6.80004 -2.50762,5.619676 -5.66851,7.188362 -16.18572,8.032662 -11.26172,0.904067 -13.85984,2.507959 -11.86168,7.322541 2.8107,6.772398 -0.0875,10.414538 -8.29516,10.424538 -10.91909,0.0133 -16.81285,3.91866 -20.97445,13.89819 -1.40417,3.36723 -2.55304,6.74747 -2.55304,7.51167 0,0.80264 1.87808,1.69863 4.44698,2.12156 6.86527,1.13025 15.92611,6.66291 20.94169,12.78726 5.47623,6.68685 8.00869,14.4135 7.78031,23.73803 -0.37361,15.25449 -7.48909,26.35564 -24.22169,37.78928 -12.1813,8.32365 -13.4599,9.62261 -16.43134,16.69283 -2.48893,5.92213 -7.66665,12.80501 -9.63271,12.80501 -0.78524,0 -0.9172,-1.29337 -0.42003,-4.11692 z m 15.45344,-30.61125 c 0.22917,-0.22158 -3.37083,-0.33783 -8,-0.25833 -5.89902,0.10131 -7.36972,0.36132 -4.91666,0.8693 3.2943,0.68216 12.00534,0.27012 12.91666,-0.61097 z M 65.07183,186.92165 c -6.885221,-1.88641 -8.367961,-1.85791 -4.500001,0.0864 1.65,0.82945 4.575001,1.48835 6.500001,1.46425 3.08167,-0.0387 2.84263,-0.22397 -2,-1.55074 z m 58.7245,-5.5029 c 1.34697,-0.96892 2.25207,-1.97791 2.01133,-2.24221 -0.24073,-0.2643 -3.6842,0.26921 -7.65214,1.18557 -3.96794,0.91634 -8.64752,1.70081 -10.39906,1.74325 -2.74488,0.0665 -2.90846,0.21708 -1.18462,1.09045 2.89682,1.46769 14.3575,0.28526 17.22449,-1.77706 z M 74.7428,159.34415 c -0.36429,-0.39995 -4.59615,-1.84516 -9.40413,-3.21161 -6.214541,-1.76618 -9.106771,-2.15186 -10.004311,-1.3341 -2.14309,1.95265 -1.42901,2.90705 2.98747,3.99285 4.91937,1.20945 17.401851,1.6297 16.420971,0.55286 z m 5.33173,-12.06331 c 3.2052,-0.70376 3.16687,-0.74362 -2.625,-2.72845 -6.70888,-2.29908 -9.97027,-2.56066 -10.91882,-0.8757 -0.93179,1.65519 -0.0221,2.34914 4.28007,3.26509 5.2855,1.12531 5.62608,1.13777 9.26375,0.33906 z M 71.57654,100.55786 C 68.23411,93.49154 63.121129,85.661215 56.937509,78.138728 c -2.79364,-3.398516 -5.48283,-8.196078 -6.77065,-12.07895 -1.17498,-3.542672 -2.57941,-7.429282 -3.12095,-8.636911 l -0.98462,-2.195688 0.43222,2.195688 c 0.23772,1.207629 0.7444,4.391202 1.12596,7.074607 l 0.69373,4.878918 -2.87068,-2.078598 c -5.79808,-4.19825 -15.86776,-10.423749 -16.85482,-10.420354 -0.55873,0.002 1.59334,1.908018 4.78239,4.235768 5.79637,4.2309 18.53345,15.583559 18.6465,16.61978 0.0329,0.301908 -3.20366,0.393019 -7.19244,0.20247 -3.98878,-0.19055 -8.37732,0.148657 -9.75232,0.753795 -2.07995,0.915384 -1.44026,1.11194 3.80718,1.169836 13.52866,0.149264 18.53683,3.396102 28.647881,18.572682 3.2584,4.890819 6.12072,8.676839 6.3607,8.413389 0.23998,-0.26347 -0.79999,-3.09276 -2.31105,-6.2873 z m 38.98695,0.57538 c 9.50318,-15.713253 17.15148,-21.204896 29.71223,-21.334001 5.27406,-0.05421 6.74385,-0.364314 5.46134,-1.152266 -0.96511,-0.592951 -5.33567,-0.917661 -9.71234,-0.721578 -4.37667,0.196084 -7.95652,0.0082 -7.95523,-0.417529 0.002,-0.813584 13.52751,-12.460282 20.45025,-17.610147 2.22866,-1.657906 3.59496,-3.016488 3.03623,-3.019073 -1.48294,-0.007 -14.57831,8.531614 -17.3736,11.327975 l -2.38946,2.39038 0.68728,-4.940301 c 0.378,-2.717164 0.90626,-6.175374 1.1739,-7.684909 0.26764,-1.509537 -0.60231,0.358488 -1.93322,4.151165 -2.71667,7.741638 -4.66039,11.019781 -12.83945,21.654137 -6.0628,7.882804 -14.35465,23.597697 -12.45116,23.597697 0.19713,0 2.05708,-2.80871 4.13323,-6.24155 z M 91.45955,97.102295 c 0.83609,-8.209134 4.71852,-17.208867 10.06791,-23.338038 6.34671,-7.271902 3.09746,-5.772535 -3.72726,1.719939 l -5.95163,6.533962 0.37954,-11.199801 c 0.34815,-10.273269 0.68565,-11.880965 4.07969,-19.433633 2.03507,-4.528608 4.46912,-9.468908 5.40899,-10.978444 l 1.70884,-2.744611 -2.62154,2.744611 c -1.44186,1.509536 -4.22146,5.679728 -6.17691,9.267093 l -3.55535,6.522482 -0.0153,-13.109548 c -0.008,-7.210251 -0.45153,-13.850594 -0.98468,-14.756315 -0.65944,-1.120254 -0.97427,2.097866 -0.98469,10.065271 -0.0205,15.66379 -0.4507,16.619223 -4.51408,10.024785 -1.78572,-2.898035 -4.25161,-6.257217 -5.47976,-7.464846 -1.69186,-1.663595 -1.35521,-0.577767 1.38918,4.480685 5.60109,10.323928 7.58935,17.694429 7.58935,28.133902 v 9.065788 L 83.47126,76.86184 c -2.53032,-3.175556 -6.01782,-6.570189 -7.75,-7.543632 -2.82399,-1.587014 -2.61835,-1.150305 1.99016,4.226381 6.75927,7.885969 9.20336,13.417331 10.60992,24.011973 1.2687,9.556238 2.13139,9.431348 3.13823,-0.454267 z"
       id="path1" /></g></svg>
