<?xml version="1.0" encoding="UTF-8" standalone="no"?>
<!-- Created with Inkscape (http://www.inkscape.org/) -->

<svg
   width="180"
   height="240"
   viewBox="0 0 180 240"
   version="1.1"
   id="svg1"
   xml:space="preserve"
   inkscape:version="1.4.2 (f4327f4, 2025-05-13)"
   sodipodi:docname="food_vegetable_onion.svg"
   xmlns:inkscape="http://www.inkscape.org/namespaces/inkscape"
   xmlns:sodipodi="http://sodipodi.sourceforge.net/DTD/sodipodi-0.dtd"
   xmlns="http://www.w3.org/2000/svg"
   xmlns:svg="http://www.w3.org/2000/svg"><sodipodi:namedview
     id="namedview1"
     pagecolor="#505050"
     bordercolor="#ffffff"
     borderopacity="1"
     inkscape:showpageshadow="0"
     inkscape:pageopacity="0"
     inkscape:pagecheckerboard="1"
     inkscape:deskcolor="#505050"
     inkscape:document-units="px"
     inkscape:zoom="3.1"
     inkscape:cx="50.645161"
     inkscape:cy="133.22581"
     inkscape:window-width="2560"
     inkscape:window-height="1351"
     inkscape:window-x="-9"
     inkscape:window-y="-9"
     inkscape:window-maximized="1"
     inkscape:current-layer="layer1" /><defs
     id="defs1" /><g
     inkscape:label="Warstwa 1"
     inkscape:groupmode="layer"
     id="layer1"><path
       style="fill:#000000;stroke-width:1.07009"
       d="m 81.626573,231.77548 c -0.181778,-2.10149 0.110676,-5.2637 0.740763,-8.0098 l 0.546004,-2.37963 -4.383791,2.11921 c -4.126382,1.99478 -9.967802,2.87117 -9.967802,1.49548 0,-0.34305 1.484033,-1.93737 3.297852,-3.54291 1.813819,-1.60554 3.29761,-3.31705 3.297313,-3.80333 -2.97e-4,-0.48627 -4.081389,-2.20451 -9.069093,-3.81829 -27.252724,-8.81766 -43.902349,-26.9583 -45.587298,-49.66977 -1.485331,-20.0207 8.164822,-35.36457 32.087045,-51.01881 19.844947,-12.98616 23.061803,-17.927308 23.626912,-36.291302 0.07431,-2.414038 6.417269,2.728504 9.486382,7.691048 2.644921,4.276642 4.846568,5.940034 4.846568,3.661691 0,-1.48442 11.048192,-12.583885 12.525742,-12.583885 0.88745,0 1.3123,2.279408 1.3123,7.04057 0,12.578365 4.2201,17.963528 25.03901,31.951698 5.5226,3.7106 12.11328,8.75995 14.64597,11.22077 13.71292,13.32381 18.92088,32.49179 13.41636,49.37921 -6.25948,19.20352 -24.62095,34.3296 -48.62514,40.05708 -2.81756,0.67228 -5.12284,1.43233 -5.12284,1.68901 0,0.25667 1.27911,2.05575 2.84246,3.99797 4.55953,5.66451 1.13013,7.86114 -4.84055,3.10049 -1.796332,-1.43228 -3.466325,-2.60415 -3.711104,-2.60415 -0.244768,0 -0.249477,1.58725 -0.01095,3.52723 0.419872,3.40799 -1.208477,7.93105 -2.855255,7.93105 -0.441429,0 -1.681058,-2.34374 -2.75474,-5.20831 -1.073693,-2.86457 -2.327118,-5.20831 -2.78541,-5.20831 -0.45828,0 -1.433675,1.57344 -2.167545,3.49654 -1.564315,4.09928 -5.626631,8.12661 -5.829648,5.77945 z M 75.766949,198.437 c -1.495994,-3.0964 -3.782109,-9.84744 -5.080253,-15.0023 -2.030532,-8.06315 -2.286336,-11.48251 -1.8311,-24.47657 0.545102,-15.5592 2.961967,-26.37981 8.586343,-38.44205 3.781295,-8.10948 1.525971,-5.60476 -3.19718,3.55074 -6.881111,13.33856 -9.436342,23.63411 -9.435177,38.0163 0.0011,13.98816 2.55068,24.19218 8.909752,35.65919 4.630405,8.34977 5.964826,8.80251 2.047615,0.69469 z m 31.328821,-3.13162 c 10.3537,-19.43546 10.67922,-42.91334 0.90103,-64.98683 -3.73477,-8.43095 -5.40336,-10.07514 -2.54963,-2.51235 7.88614,20.89941 7.87913,49.21605 -0.0168,67.8705 -1.39436,3.29426 -2.3525,5.98956 -2.12917,5.98956 0.22332,0 1.93089,-2.86239 3.79461,-6.36088 z m -42.89839,3.29391 c -0.629131,-1.11393 -1.646969,-2.31994 -2.261854,-2.68003 -1.808872,-1.05936 -7.320781,-12.0863 -9.390567,-18.78651 -2.510414,-8.12655 -2.511514,-21.96921 -0.0022,-30.09152 1.781819,-5.76794 7.099791,-16.43931 11.191679,-22.45794 0.973768,-1.4323 -0.03518,-0.72917 -2.242089,1.56249 -18.619069,19.33397 -19.399406,48.13835 -1.869531,69.01009 4.711202,5.60934 6.601729,7.03234 4.574748,3.44342 z m -16.4102,-5.82562 c -7.323199,-7.90346 -12.187982,-20.38587 -12.164039,-31.21139 0.02814,-12.72953 4.061689,-22.18406 14.485189,-33.95305 6.628891,-7.48456 6.690385,-7.60755 2.072403,-4.14525 -18.504051,13.87331 -25.136505,36.51945 -16.24146,55.4556 2.751793,5.85811 12.148089,17.53837 14.108915,17.53837 0.634023,0 -0.383431,-1.65792 -2.261008,-3.68428 z m 95.64866,-14.34912 c 3.30066,-6.70984 3.67586,-8.4067 3.61327,-16.34143 -0.0384,-4.86977 -0.54141,-9.92609 -1.11776,-11.23628 -0.77845,-1.76966 -1.05747,-0.0288 -1.08515,6.7708 -0.042,10.32558 -2.21442,18.65974 -7.11599,27.29967 -3.02402,5.3304 -3.05711,5.51644 -0.5905,3.32066 1.43716,-1.27937 4.27041,-5.69541 6.29613,-9.81342 z M 84.265492,76.755844 78.533199,71.88001 74.097115,50.293987 C 71.657264,38.421674 69.66103,28.01439 69.66103,27.166691 c 0,-5.696704 7.852484,5.820534 12.073844,17.708713 L 84.686573,53.18794 85.4359,38.104602 C 86.181203,23.102317 87.775748,9.6386024 89.036055,7.7062642 91.350069,4.1583695 93.504809,15.97728 94.577282,38.100364 l 0.731002,15.079098 2.406296,-6.745804 c 2.76564,-7.753181 8.70818,-19.284089 10.46992,-20.315832 0.65836,-0.385562 1.47199,-0.440469 1.80807,-0.122017 0.33606,0.318452 -1.48137,10.795028 -4.03874,23.28128 -3.42824,16.738197 -5.12413,22.950621 -6.455422,23.647597 -0.9931,0.519925 -3.537008,2.691696 -5.653128,4.826155 l -3.847494,3.880837 z"
       id="path1" /></g></svg>
