<?xml version="1.0" encoding="UTF-8" standalone="no"?>
<!-- Created with Inkscape (http://www.inkscape.org/) -->

<svg
   width="180"
   height="180"
   viewBox="0 0 180 180"
   version="1.1"
   id="svg1"
   xml:space="preserve"
   inkscape:version="1.4.2 (f4327f4, 2025-05-13)"
   sodipodi:docname="food_vegetable_soybean.svg"
   xmlns:inkscape="http://www.inkscape.org/namespaces/inkscape"
   xmlns:sodipodi="http://sodipodi.sourceforge.net/DTD/sodipodi-0.dtd"
   xmlns="http://www.w3.org/2000/svg"
   xmlns:svg="http://www.w3.org/2000/svg"><sodipodi:namedview
     id="namedview1"
     pagecolor="#505050"
     bordercolor="#ffffff"
     borderopacity="1"
     inkscape:showpageshadow="0"
     inkscape:pageopacity="0"
     inkscape:pagecheckerboard="1"
     inkscape:deskcolor="#505050"
     inkscape:document-units="px"
     inkscape:zoom="3.1"
     inkscape:cx="50.645161"
     inkscape:cy="133.22581"
     inkscape:window-width="2560"
     inkscape:window-height="1351"
     inkscape:window-x="-9"
     inkscape:window-y="-9"
     inkscape:window-maximized="1"
     inkscape:current-layer="layer1" /><defs
     id="defs1" /><g
     inkscape:label="Warstwa 1"
     inkscape:groupmode="layer"
     id="layer1"><path
       style="fill:#000000;stroke-width:0.922233"
       d="m 79.005134,176.0172 c -8.032535,-1.31312 -11.643235,-2.60321 -11.643235,-4.16006 0,-0.4655 0.783286,-2.23407 1.740631,-3.93017 0.957345,-1.6961 2.40215,-6.42135 3.210684,-10.50057 2.836992,-14.31324 7.687309,-21.32532 19.720618,-28.50997 7.336956,-4.38063 8.798928,-6.48736 10.541088,-15.18995 1.932,-9.65096 4.97779,-15.380462 11.53121,-21.691632 8.21428,-7.91063 8.88165,-9.138054 8.88868,-16.348027 0.0138,-14.245555 3.75827,-23.849156 13.47626,-34.563896 7.91012,-8.721432 9.02626,-10.853688 10.6458,-20.337679 1.34253,-7.861818 3.65444,-12.7201213 7.54001,-15.8446981 3.00568,-2.417028 5.40975,-2.3895641 6.70077,0.076546 0.88756,1.6954393 0.59087,2.3627011 -2.22157,4.9962811 -6.38888,5.982561 -6.61317,10.840705 -1.13369,24.55559 6.45413,16.154423 7.28974,19.421763 7.32327,28.63541 0.0372,10.222864 -1.86874,15.738886 -8.59303,24.86932 -4.53092,6.152197 -4.59452,6.333579 -5.83547,16.641225 -2.02999,16.86165 -5.66046,22.9625 -21.75064,36.55094 -3.08137,2.60227 -4.70957,5.01574 -6.54381,9.69985 -3.40043,8.68365 -7.10359,13.81523 -13.37641,18.53604 -9.09887,6.84766 -17.33162,8.62258 -30.221166,6.51545 z m 6.624377,-25.00785 c 2.495058,-5.42645 6.92563,-9.63611 12.362262,-11.74586 4.904007,-1.90307 5.890177,-4.09337 2.047487,-4.54746 -6.692041,-0.7908 -18.995663,11.14913 -18.995663,18.43415 0,3.30745 2.649525,2.07057 4.585914,-2.14083 z m 29.161299,-37.95081 c 1.17643,-6.38943 4.98588,-11.8949 10.16961,-14.697302 4.71489,-2.548927 5.18484,-4.440469 1.05686,-4.253789 -8.28979,0.37488 -17.83581,15.215811 -14.88709,23.144591 1.3163,3.53939 2.48289,2.20297 3.66062,-4.1935 z m 20.53201,-43.398927 c 0.0428,-7.568849 1.9385,-13.254768 5.39754,-16.189567 1.72698,-1.465244 1.89225,-3.786426 0.26961,-3.786426 -6.51239,0 -12.40523,17.333878 -8.71085,25.623084 1.87005,4.195896 2.99985,2.099731 3.0437,-5.647091 z M 38.630337,143.84807 c -2.006649,-0.41947 -4.879806,-1.24308 -6.384793,-1.83024 -4.616797,-1.80119 -17.00385,-9.53792 -17.534546,-10.95175 -0.294147,-0.78362 1.180767,-3.13183 3.57479,-5.69143 2.241547,-2.39656 5.409817,-6.5461 7.040603,-9.22117 6.06205,-9.94397 14.228154,-15.65112 26.466073,-18.496688 7.861722,-1.828008 10.493835,-3.93542 15.198068,-12.168395 4.435169,-7.762089 10.964777,-13.344901 19.514352,-16.684775 7.920262,-3.094033 10.784672,-5.963013 13.606106,-13.627843 5.18747,-14.092393 9.09488,-17.483278 32.71339,-28.388858 3.14548,-1.452388 6.39008,-3.39874 7.21024,-4.325225 3.35541,-3.790424 4.02993,-0.757139 1.23262,5.543015 -0.96801,2.180148 -4.67325,7.110476 -8.23386,10.956286 -4.47348,4.831781 -7.48481,9.168682 -9.74564,14.035571 -2.96737,6.387847 -3.32388,8.029972 -3.83161,17.648562 l -0.55982,10.605377 -7.38683,7.761325 c -8.54558,8.97882 -9.184,10.036966 -11.71486,19.417138 -1.854125,6.87195 -1.966516,7.034 -6.466637,9.32466 -2.518837,1.28214 -6.760327,3.09603 -9.425513,4.03086 -3.810316,1.3365 -6.202525,3.15339 -11.194868,8.50251 -3.491979,3.74153 -8.278175,7.86877 -10.635978,9.17166 -7.093887,3.91993 -16.901704,5.75646 -23.441287,4.38941 z m -0.271545,-26.45512 c 3.354506,-4.29798 10.913421,-8.03151 16.260594,-8.03151 4.752583,0 5.902001,-0.64542 4.413897,-2.47849 -1.221574,-1.50475 -8.712515,-1.66641 -12.362582,-0.2668 -6.391638,2.45088 -14.150218,10.43967 -12.61121,12.9854 0.924692,1.52957 1.687592,1.13765 4.299301,-2.2086 z M 77.492494,90.694372 C 80.76272,85.260987 86.93022,80.558738 91.786658,79.796159 95.901137,79.150081 98.591251,77.839277 97.956721,76.789683 97.02507,75.248606 92.488666,75.085926 88.047231,76.43432 80.273746,78.794308 70.8027,90.326599 73.27688,94.419229 c 0.914293,1.512375 1.232876,1.230875 4.215614,-3.724857 z M 111.15556,58.49741 c 1.44909,-5.291097 5.39061,-10.943751 9.55301,-13.700213 1.74998,-1.158888 3.18686,-2.631582 3.19307,-3.272653 0.036,-3.706771 -9.30266,1.920551 -13.14125,7.918786 -2.70851,4.232344 -3.65877,7.83613 -2.89095,10.963648 0.85623,3.487593 1.98813,2.82984 3.28612,-1.909568 z"
       id="path1" /></g></svg>
