<?xml version="1.0" encoding="UTF-8" standalone="no"?>
<!-- Created with Inkscape (http://www.inkscape.org/) -->

<svg
   width="180mm"
   height="180mm"
   viewBox="0 0 180 180"
   version="1.1"
   id="svg1"
   sodipodi:docname="book.svg"
   inkscape:version="1.4.2 (f4327f4, 2025-05-13)"
   xml:space="preserve"
   xmlns:inkscape="http://www.inkscape.org/namespaces/inkscape"
   xmlns:sodipodi="http://sodipodi.sourceforge.net/DTD/sodipodi-0.dtd"
   xmlns="http://www.w3.org/2000/svg"
   xmlns:svg="http://www.w3.org/2000/svg"><sodipodi:namedview
     id="namedview1"
     pagecolor="#505050"
     bordercolor="#ffffff"
     borderopacity="1"
     inkscape:showpageshadow="0"
     inkscape:pageopacity="0"
     inkscape:pagecheckerboard="1"
     inkscape:deskcolor="#505050"
     inkscape:document-units="mm"
     inkscape:zoom="0.70710678"
     inkscape:cx="138.59293"
     inkscape:cy="606.69762"
     inkscape:window-width="2560"
     inkscape:window-height="1351"
     inkscape:window-x="-9"
     inkscape:window-y="-9"
     inkscape:window-maximized="1"
     inkscape:current-layer="layer1"
     showguides="true" /><defs
     id="defs1"><rect
       x="101.82338"
       y="91.923881"
       width="384.66609"
       height="299.81327"
       id="rect3" /><rect
       x="2.8284271"
       y="2.1213203"
       width="662.55905"
       height="647.0027"
       id="rect2" /></defs><g
     inkscape:label="Icon"
     inkscape:groupmode="layer"
     id="layer1"><path
       style="fill:#000000;stroke-width:2.30717"
       d="m 84.269818,160.78532 c -3.227849,-1.04551 -5.556285,-2.33405 -8.376763,-4.63566 l -2.344896,-1.91348 H 40.710993 7.8738058 L 6.1106589,152.43038 4.34749,150.62456 V 94.019829 c 0,-48.471047 0.1267543,-56.855867 0.8824733,-58.352515 0.984561,-1.949971 2.0127353,-2.515297 4.5747335,-2.515297 h 1.7394142 l 0.171665,48.649901 c 0.185573,52.624252 0.06817,50.806902 3.431296,53.096142 1.358556,0.92471 3.402159,1.07737 15.439105,1.15314 14.808727,0.0932 21.976508,0.89893 32.637412,3.66872 6.23073,1.61879 15.094906,5.65183 19.968447,9.08531 5.60124,3.94617 7.799431,3.73932 16.346954,-1.53821 6.71486,-4.146 13.82925,-6.868 23.03327,-8.81269 8.95531,-1.89216 23.06366,-2.94174 32.30602,-2.40343 8.27962,0.48222 10.25619,-0.0971 12.35426,-3.62132 1.14144,-1.91731 1.17753,-3.4657 1.17971,-50.627662 l 0.002,-48.649901 h 2.30761 c 1.63223,0 2.69146,0.418484 3.61914,1.429824 l 1.31151,1.4298 v 57.595915 57.595894 l -1.48055,1.51635 -1.48057,1.51638 h -32.96914 -32.96913 l -3.59852,2.77048 c -5.638988,4.34142 -12.753018,5.76485 -18.884984,3.77866 z m -1.19797,-18.30742 c -11.748122,-7.99333 -35.729183,-13.17723 -55.984881,-12.10208 -6.979563,0.37046 -7.147103,0.34834 -8.595415,-1.13501 l -1.477127,-1.51284 V 74.543058 21.358124 l 1.480548,-1.516349 c 1.261006,-1.291504 2.043671,-1.515001 5.277903,-1.507203 6.804591,0.01634 20.569234,1.169926 25.813669,2.16324 14.378789,2.7234 28.507986,9.076598 35.437259,15.934345 l 2.563548,2.537104 v 53.000152 c 0,29.150067 -0.203583,52.992257 -0.452396,52.982657 -0.248814,-0.01 -2.077207,-1.12298 -4.063108,-2.47417 z M 93.016036,91.870529 V 38.771496 l 2.261971,-2.260513 c 3.368843,-3.366718 6.782543,-5.609881 13.609993,-8.943304 11.0905,-5.414802 23.67719,-8.155736 41.18403,-8.968445 9.12287,-0.423481 11.18219,-0.121415 12.45213,1.82643 0.24371,0.373857 0.4473,24.901116 0.45238,54.505081 0.009,48.474385 -0.0863,53.906445 -0.95076,54.641315 -0.719,0.61115 -4.16404,0.84366 -13.72252,0.92618 -22.8447,0.1973 -40.36031,4.46865 -52.078357,12.70009 -1.386814,0.97418 -2.676106,1.77121 -2.865149,1.77121 -0.188987,0 -0.343718,-23.89457 -0.343718,-53.099011 z"
       id="path1" /></g></svg>
