<?xml version="1.0" encoding="UTF-8" standalone="no"?>
<!-- Created with Inkscape (http://www.inkscape.org/) -->

<svg
   width="180mm"
   height="180mm"
   viewBox="0 0 180 180"
   version="1.1"
   id="svg1"
   sodipodi:docname="book.svg"
   inkscape:version="1.4.2 (f4327f4, 2025-05-13)"
   xml:space="preserve"
   xmlns:inkscape="http://www.inkscape.org/namespaces/inkscape"
   xmlns:sodipodi="http://sodipodi.sourceforge.net/DTD/sodipodi-0.dtd"
   xmlns="http://www.w3.org/2000/svg"
   xmlns:svg="http://www.w3.org/2000/svg"><sodipodi:namedview
     id="namedview1"
     pagecolor="#505050"
     bordercolor="#ffffff"
     borderopacity="1"
     inkscape:showpageshadow="0"
     inkscape:pageopacity="0"
     inkscape:pagecheckerboard="1"
     inkscape:deskcolor="#505050"
     inkscape:document-units="mm"
     inkscape:zoom="0.70710678"
     inkscape:cx="138.59293"
     inkscape:cy="606.69762"
     inkscape:window-width="2560"
     inkscape:window-height="1351"
     inkscape:window-x="-9"
     inkscape:window-y="-9"
     inkscape:window-maximized="1"
     inkscape:current-layer="layer1"
     showguides="true" /><defs
     id="defs1"><rect
       x="101.82338"
       y="91.923881"
       width="384.66609"
       height="299.81327"
       id="rect3" /><rect
       x="2.8284271"
       y="2.1213203"
       width="662.55905"
       height="647.0027"
       id="rect2" /></defs><g
     inkscape:label="Icon"
     inkscape:groupmode="layer"
     id="layer1"><path
       style="fill:#000000;stroke-width:1.94673"
       d="m 37.115573,172.48241 c -5.71442,-2.2228 -7.25281,-5.28593 -7.268221,-14.47194 -0.0081,-4.82173 -0.244548,-7.17759 -0.981174,-9.77545 -1.282094,-4.52161 -1.281331,-9.53323 0.0018,-11.90433 0.945347,-1.74688 0.968704,-2.7779 0.968704,-42.760387 0,-39.681179 -0.03054,-41.057625 -0.970518,-43.744395 -1.258127,-3.596164 -1.327476,-9.943918 -0.13438,-12.30115 0.654944,-1.293979 0.884748,-3.54403 1.088841,-10.660977 0.246052,-8.580076 0.323429,-9.144908 1.583634,-11.560121 1.553677,-2.977668 3.449956,-4.887621 6.872313,-6.921885 l 2.478431,-1.473171 52.36756,-0.146297 52.367547,-0.146296 1.1322,1.198349 1.13217,1.198349 -8.6e-4,32.844406 -8.6e-4,32.844426 -2.11236,1.503464 c -1.1618,0.826905 -2.25324,1.503484 -2.42542,1.503484 -0.17222,0 -0.31307,-14.269331 -0.31307,-31.709616 0,-17.440265 -0.18453,-31.709596 -0.41004,-31.709596 -0.22553,0 -0.77834,0.458499 -1.22847,1.018867 -0.74847,0.931813 -0.81646,3.729422 -0.79566,32.741337 0.0205,28.565629 -0.0545,31.755799 -0.75227,32.057525 -0.42625,0.184317 -0.86633,0.335056 -0.97795,0.335056 -0.1117,0 -0.20294,-13.930412 -0.20294,-30.956459 0,-28.094112 -0.0706,-30.890481 -0.76335,-30.242706 -0.41985,0.392562 -1.19826,1.674205 -1.7298,2.848089 -0.93087,2.055753 -0.96476,3.199097 -0.92062,31.062772 l 0.0459,28.928456 h -3.41125 -3.41124 V 63.560782 c 0,-14.163411 -0.14269,-18.649069 -0.60657,-19.063823 -0.33362,-0.298317 -1.46451,-0.716873 -2.51309,-0.93014 -2.26991,-0.46168 -4.93942,-3.222529 -5.36164,-5.545128 -0.15901,-0.8747 -0.45007,-2.205418 -0.64681,-2.95715 l -0.3577,-1.366797 -27.973445,-0.14113 C 60.320515,33.402465 61.37852,33.296999 61.37852,36.497501 c 0,3.184612 -2.663509,6.471983 -5.751014,7.09804 -0.97377,0.197542 -2.043449,0.60308 -2.377064,0.901397 -0.888686,0.794629 -0.888686,109.357512 0,110.178262 0.333615,0.30811 1.52316,0.83629 2.643435,1.17372 2.643516,0.79624 4.879892,3.32609 5.24967,5.9386 0.56296,3.97732 -1.906177,3.65408 29.10616,3.81022 20.303863,0.10228 28.220013,-0.0293 28.698733,-0.47698 0.3636,-0.33997 0.66109,-1.21924 0.66109,-1.95392 0,-2.93802 2.67595,-6.47231 5.55736,-7.33999 1.08028,-0.3253 2.2371,-0.84354 2.57072,-1.15165 0.46531,-0.42973 0.60657,-5.25578 0.60657,-20.72181 v -20.16158 h 3.3968 3.39682 v 28.35557 c 0,27.85871 -0.0183,28.38079 -1.00573,29.79609 l -1.00574,1.44052 H 89.488283 45.85025 V 99.577149 25.770319 h 42.88877 42.88878 l 0.29259,-1.230108 c 0.16085,-0.676559 0.29559,-1.413393 0.29924,-1.637404 0.004,-0.224011 -20.90196,-0.47005 -46.456885,-0.546731 -40.922368,-0.12274 -46.463485,-0.237215 -46.463485,-0.959502 0,-0.721419 5.654779,-0.852941 47.01093,-1.093421 l 47.01094,-0.273355 0.72488,-1.230129 0.72491,-1.230109 H 89.399479 c -37.05405,0 -45.469162,-0.132659 -45.904559,-0.723733 -1.452353,-1.971633 -0.56169,-2.009778 46.974836,-2.012567 l 46.366454,-0.0021 1.45577,-1.344418 1.45578,-1.344418 -48.283217,-0.0083 c -54.410198,-0.0083 -50.312669,-0.330737 -53.972687,4.242844 -1.991468,2.488546 -2.58435,4.293178 -2.109999,6.422514 0.352662,1.58308 2.742076,2.970912 5.114963,2.970912 h 1.471361 V 37.002777 48.235239 L 40.148463,47.89165 c -3.266283,-0.616718 -6.322078,-1.923839 -8.331472,-3.563805 -1.084528,-0.885114 -2.082943,-1.609322 -2.218699,-1.609322 -0.135756,0 -0.246832,0.872261 -0.246832,1.938365 0,3.459041 3.950963,6.448405 9.567298,7.238757 l 2.806793,0.395 0.124019,47.501954 0.124,47.501941 -2.387892,-0.31863 c -2.48981,-0.33222 -7.64802,-2.9469 -8.741143,-4.43086 -0.869772,-1.18074 -1.493073,-0.5877 -1.493073,1.42057 0,2.4715 2.666016,5.06454 6.622741,6.44142 1.751562,0.60953 3.816756,1.10824 4.58932,1.10824 h 1.40466 v 10.93433 10.93435 l -1.33446,-0.026 c -0.733953,-0.0145 -2.317111,-0.40832 -3.518124,-0.8755 z M 138.53459,138.73123 c 0,-13.71667 0.0913,-24.9394 0.20294,-24.9394 0.11169,0 0.54836,-0.14939 0.97052,-0.33185 0.69217,-0.29925 0.76757,1.8493 0.76757,21.86868 0,12.2103 0.18452,22.20054 0.41005,22.20054 0.22554,0 0.77144,-0.4499 1.21315,-0.99979 0.71915,-0.89531 0.8031,-3.2887 0.8031,-22.89743 v -21.89764 l 2.30497,-1.68937 2.30498,-1.68939 0.12802,24.72349 c 0.1282,24.7639 0.0165,26.78069 -1.5628,28.25754 -0.33137,0.30984 -1.67267,0.80432 -2.98065,1.09883 -1.30799,0.29449 -2.86948,0.69288 -3.47,0.88532 l -1.09183,0.34987 z m -73.789204,20.60934 c -0.764735,-2.61065 -4.695791,-7.04018 -6.684679,-7.53234 l -1.534795,-0.37979 V 99.832679 48.236918 l 2.062348,-1.031431 c 2.452999,-1.226802 5.350356,-4.681112 6.233001,-7.431174 l 0.63427,-1.9762 25.014646,0.0021 25.014633,0.002 0.88867,2.434719 c 0.99214,2.718262 3.94531,6.01303 6.4438,7.189186 l 1.64481,0.774297 v 16.940893 c 0,18.598734 0.0651,18.233468 -2.83663,15.909195 -5.12536,-4.10535 -12.69306,-1.779692 -15.30308,4.702808 -0.52397,1.301398 -1.69622,2.709108 -3.15856,3.793044 -2.67033,1.97932 -5.390941,6.239624 -5.390941,8.441884 0,2.015371 2.642491,5.843551 5.436741,7.876181 1.44684,1.05246 2.36627,2.1675 2.56607,3.11196 0.1713,0.80948 0.92557,2.42709 1.67628,3.59467 2.90752,4.52207 9.42738,5.77342 13.65559,2.62094 3.53705,-2.63718 3.35453,-3.58486 3.35453,17.41813 v 18.81831 l -1.4231,0.35214 c -2.10488,0.52086 -5.62225,4.27882 -6.65621,7.11147 l -0.89797,2.46007 -25.074496,0.002 -25.074484,0.002 z m 48.229654,-47.15509 c -2.21311,-1.1321 -3.38242,-2.74661 -3.83477,-5.29479 -0.20393,-1.14871 -0.80863,-1.96306 -1.98998,-2.67982 -2.15313,-1.30642 -5.49534,-5.046691 -5.49534,-6.149891 0,-1.41818 2.34193,-4.395914 4.66219,-5.927873 1.70106,-1.123155 2.4565,-2.100386 3.31561,-4.289026 0.83346,-2.12326 1.54298,-3.064537 2.82779,-3.751448 2.55829,-1.367726 5.32948,-1.191179 7.06048,0.44982 1.41086,1.337517 1.61388,1.366797 9.47896,1.366797 h 8.03724 l 4.02417,-2.392773 c 2.21331,-1.316026 5.32236,-3.274538 6.90899,-4.352255 2.15952,-1.466848 3.04402,-1.810624 3.51813,-1.367313 0.48081,0.449572 0.63331,3.127767 0.63331,11.121356 v 10.529165 l -1.43256,1.568351 c -0.78792,0.86259 -3.77265,3.16748 -6.63274,5.122 l -5.20016,3.55366 -9.01686,0.1837 c -7.95625,0.16221 -9.13099,0.30253 -9.98737,1.1937 -0.99986,1.04052 -3.26277,2.18544 -4.2776,2.16423 -0.31623,-0.006 -1.486,-0.47802 -2.59949,-1.04761 z m 4.42329,-5.62263 c 0.41548,-0.6683 0.7554,-2.04412 0.7554,-3.05739 0,-1.01447 0.4361,-2.46693 0.97053,-3.23239 1.24207,-1.779031 1.23086,-3.455831 -0.0352,-5.269271 -1.42078,-2.035006 -4.33185,-2.035006 -5.75265,0 -1.26608,1.81344 -1.27731,3.49024 -0.0352,5.269271 0.60504,0.8666 0.97051,2.21792 0.97051,3.58834 0,2.05304 0.92694,3.91652 1.94818,3.91652 0.2327,0 0.76302,-0.54679 1.17848,-1.21508 z"
       id="path1" /></g></svg>
