<?xml version="1.0" encoding="UTF-8" standalone="no"?>
<!-- Created with Inkscape (http://www.inkscape.org/) -->

<svg
   width="180mm"
   height="180mm"
   viewBox="0 0 180 180"
   version="1.1"
   id="svg1"
   sodipodi:docname="other_high_fertility_soil.svg"
   inkscape:version="1.4.2 (f4327f4, 2025-05-13)"
   xml:space="preserve"
   xmlns:inkscape="http://www.inkscape.org/namespaces/inkscape"
   xmlns:sodipodi="http://sodipodi.sourceforge.net/DTD/sodipodi-0.dtd"
   xmlns="http://www.w3.org/2000/svg"
   xmlns:svg="http://www.w3.org/2000/svg"><sodipodi:namedview
     id="namedview1"
     pagecolor="#505050"
     bordercolor="#ffffff"
     borderopacity="1"
     inkscape:showpageshadow="0"
     inkscape:pageopacity="0"
     inkscape:pagecheckerboard="1"
     inkscape:deskcolor="#505050"
     inkscape:document-units="mm"
     inkscape:zoom="1"
     inkscape:cx="458"
     inkscape:cy="396"
     inkscape:window-width="2560"
     inkscape:window-height="1351"
     inkscape:window-x="-9"
     inkscape:window-y="-9"
     inkscape:window-maximized="1"
     inkscape:current-layer="layer1"
     showguides="true" /><defs
     id="defs1"><rect
       x="101.82338"
       y="91.923881"
       width="384.66609"
       height="299.81327"
       id="rect3" /><rect
       x="2.8284271"
       y="2.1213203"
       width="662.55905"
       height="647.0027"
       id="rect2" /></defs><g
     inkscape:label="Icon"
     inkscape:groupmode="layer"
     id="layer1"><path
       style="fill:#000000"
       d="m 89.646079,175.95504 c -74.61959,-0.0637 -78.52631,-0.0901 -78.40257,-0.52961 0.16296,-0.57885 0.50175,-2.18392 0.57234,-2.71154 0.0592,-0.44245 0.20803,-0.83412 1.07764,-2.83576 2.24076,-5.15774 7.34562,-10.17187 13.47081,-13.23141 3.49298,-1.74474 6.6869,-2.67552 10.71353,-3.12213 0.94588,-0.10492 1.99681,-0.29561 2.3354,-0.42377 0.33858,-0.12816 2.15428,-1.82632 4.03489,-3.7737 3.89843,-4.03685 6.21631,-6.01518 8.85432,-7.55725 2.71363,-1.58627 7.17315,-3.39266 10.66866,-4.32149 2.95918,-0.78632 3.289,-0.81826 8.50256,-0.82341 5.04272,-0.005 5.60379,0.0436 7.98236,0.69093 5.04543,1.37316 9.05346,3.5087 13.27164,7.07134 4.43103,3.74241 3.83603,3.45534 7.169697,3.45929 5.911824,0.007 9.659674,1.29909 14.091194,4.85796 1.33679,1.07354 2.74977,2.03202 3.13997,2.12995 0.90727,0.22772 1.70556,-0.45076 1.70556,-1.44957 0,-1.3286 -2.59133,-4.24438 -5.55625,-6.25195 -1.53012,-1.03605 -3.83544,-2.20028 -4.35683,-2.20028 -0.22312,0 -0.40567,-0.22197 -0.40567,-0.49327 0,-0.52931 0.69483,-1.45733 3.50573,-4.68224 0.98226,-1.12695 1.78593,-2.14988 1.78593,-2.2732 0,-0.41472 1.96663,-0.22763 4.36563,0.41531 3.59864,0.96445 8.27998,3.06231 11.25901,5.04553 3.07844,2.0494 7.05758,5.74249 8.97706,8.33172 0.74072,0.99919 1.65298,1.91749 2.05688,2.07052 0.39919,0.15125 1.82384,0.34798 3.16588,0.43718 4.50846,0.29967 8.59,1.69696 12.65026,4.33075 2.78038,1.80355 6.18552,4.93198 8.07083,7.41499 1.62185,2.13601 3.53283,5.99726 3.94826,7.97771 0.16789,0.80036 0.36024,1.7231 0.42743,2.05052 0.0794,0.38699 0.005,0.57232 -0.21359,0.52961 -0.18467,-0.0361 -35.67553,-0.0959 -78.868561,-0.13273 z m -37.65444,-19.57917 c 6.08722,-5.18056 9.16208,-6.96155 14.27585,-8.26876 1.72051,-0.4398 3.47496,-0.97896 3.89877,-1.19812 0.8878,-0.4591 1.2227,-1.41045 0.78464,-2.22896 -0.6303,-1.17774 -2.48114,-1.36309 -5.61293,-0.56212 -4.60024,1.17655 -8.70816,3.3067 -12.75693,6.61507 -2.92848,2.39294 -3.86155,3.58008 -3.86155,4.91302 0,1.02005 0.70097,2.25122 1.28175,2.25122 0.11154,0 1.00722,-0.68461 1.9904,-1.52135 z m 43.5417,-12.6056 c -2.69961,-2.41029 -5.8027,-4.4337 -9.6055,-6.26341 -5.26128,-2.53145 -5.8419,-2.63963 -15.45462,-2.87941 -4.55206,-0.11355 -8.33962,-0.26959 -8.41679,-0.34676 -0.39047,-0.39047 -0.98154,-5.51483 -0.99919,-8.66263 -0.0245,-4.36183 0.36002,-6.33445 2.47538,-12.7 1.6907,-5.08767 5.97376,-16.382582 7.19407,-18.971557 0.98737,-2.094789 2.01612,-2.988862 3.4391,-2.988862 0.65359,0 2.55939,0.571001 4.94064,1.480272 5.86341,2.238926 8.78712,3.241961 10.01188,3.434773 0.99004,0.155861 1.18255,0.09422 1.80578,-0.578254 0.38367,-0.413992 1.34914,-2.026494 2.14549,-3.583337 1.97348,-3.85813 2.33293,-4.28633 3.44643,-4.105633 1.10026,0.178547 6.372301,2.270353 9.308671,3.693428 l 2.20414,1.068212 -0.17015,0.948915 c -0.0936,0.521904 -0.57595,2.21587 -1.07193,3.764369 -0.49598,1.548499 -0.9787,3.296494 -1.07271,3.884424 l -0.17094,1.06897 2.4295,1.22017 c 1.33623,0.67109 4.33657,2.04741 6.66743,3.05849 5.69798,2.47166 6.57531,3.08948 6.57531,4.63039 0,1.44052 -1.59761,5.44527 -5.55931,13.93564 -6.58424,14.11075 -11.41059,20.10653 -16.514731,20.51624 l -1.64097,0.13172 z m -9.66631,-22.84857 c 0.0813,-0.40018 0.3969,-2.27541 0.70122,-4.16718 0.64766,-4.02608 1.92758,-9.51313 3.29489,-14.12523 1.06271,-3.58467 1.04134,-3.722307 -0.57903,-3.730097 -1.52646,-0.0073 -2.14635,0.401967 -2.48071,1.637977 -1.71372,6.33497 -2.78236,14.475 -2.35116,17.90912 0.34534,2.75024 1.09299,4.05839 1.41479,2.47541 z m 4.49354,-7.14912 c 0.35177,-0.69418 2.24837,-4.89113 4.21467,-9.32656 1.96629,-4.43543 3.88198,-8.719264 4.25708,-9.519629 0.904557,-1.930087 0.884607,-2.499852 -0.10182,-2.908448 -0.43395,-0.179747 -0.97372,-0.255929 -1.1995,-0.169292 -1.34903,0.517672 -9.14271,23.186069 -7.97165,23.186069 0.0889,0 0.44946,-0.56796 0.80122,-1.26214 z M 107.3247,89.652341 c -0.29104,-0.120858 -0.73447,-0.448158 -0.98541,-0.727334 -0.43624,-0.485346 -0.36523,-0.73311 1.62038,-5.653624 1.14214,-2.830318 3.15539,-7.712983 4.47387,-10.850366 3.6254,-8.626747 8.49705,-20.124628 8.90557,-21.018583 0.1995,-0.436562 1.72956,-4.067968 3.40014,-8.069791 3.86504,-9.258602 9.01015,-21.325733 9.53257,-22.357291 0.22109,-0.436562 1.61492,-3.710781 3.09739,-7.276041 1.48248,-3.565261 3.04684,-7.2264324 3.47637,-8.1359374 l 0.78096,-1.653646 h 1.95868 c 2.20715,0 2.143,-0.149929 0.96219,2.248958 -0.28651,0.582083 -1.77215,4.0348964 -3.30141,7.6729164 -3.77934,8.990812 -3.62891,8.637105 -9.90226,23.283333 -3.05419,7.130521 -5.86041,13.79802 -6.23606,14.816666 -0.37564,1.018646 -2.63492,6.376458 -5.02062,11.90625 -2.3857,5.529791 -5.55381,12.911666 -7.04024,16.404166 -3.04438,7.153023 -4.21848,9.497272 -4.79608,9.575983 -0.21828,0.02975 -0.635,-0.0448 -0.92604,-0.165659 z m -3.14922,-1.563405 c -0.3735,-0.60434 4.73352,-13.929958 7.03937,-18.367666 1.14193,-2.197671 2.55229,-4.291677 2.75442,-4.089551 0.0678,0.06781 -0.75749,2.31131 -1.834,4.985548 -1.07652,2.674237 -2.99242,7.493718 -4.25756,10.709958 -2.61744,6.654058 -3.15828,7.641838 -3.70223,6.761711 z m -2.75722,-1.335778 c -0.34573,-0.213674 1.24837,-4.372993 3.58556,-9.355412 1.12444,-2.397087 1.65942,-3.109062 1.65942,-2.208419 0,0.46241 -1.5511,4.957708 -2.9537,8.560226 -1.02427,2.630783 -1.62351,3.416313 -2.29128,3.003605 z m -3.890511,-1.192147 c -0.49202,-0.35977 -0.4822,-0.438096 0.3711,-2.960544 0.93167,-2.754115 6.422351,-16.063786 10.387561,-25.179948 1.31312,-3.018905 3.31781,-7.751105 4.45487,-10.516001 4.26875,-10.379981 9.3366,-22.306772 10.4555,-24.606249 0.63728,-1.309688 2.25023,-5.060156 3.58433,-8.334375 1.3341,-3.274219 2.84679,-6.8758594 3.36154,-8.0036454 l 0.9359,-2.050521 h 1.84357 c 1.37804,0 1.8059,0.08351 1.69437,0.330729 -0.082,0.181901 -2.57388,5.9861984 -5.53738,12.8984374 -5.35044,12.479651 -9.29011,21.753347 -20.56934,48.418748 -6.18184,14.614596 -8.19392,19.109962 -8.905194,19.895906 -0.516277,0.570484 -1.382327,0.615296 -2.076827,0.107463 z M 109.69339,67.409726 c 0.40321,-1.403288 4.75032,-12.128506 5.60329,-13.824479 0.49402,-0.982266 0.78519,-1.785938 0.64704,-1.785938 -0.23377,0 1.22035,-3.53251 2.64116,-6.416145 0.61561,-1.249435 1.04295,-1.606937 1.04295,-0.872512 0,0.211342 -0.54073,1.907983 -1.20162,3.770312 -0.66088,1.86233 -1.72728,4.949552 -2.36977,6.860494 -1.94616,5.788416 -4.50158,11.096883 -5.976,12.414133 l -0.57711,0.515593 z m 6.13785,-8.135938 c 0.84327,-2.510071 6.57471,-16.522637 7.7648,-18.983853 1.4828,-3.066557 3.07599,-5.611703 3.34461,-5.343079 0.0716,0.07155 -0.30833,1.183957 -0.8442,2.472006 -1.54599,3.71608 -5.42281,13.679241 -5.49271,14.115864 -0.0787,0.491538 -2.64301,5.54969 -3.58789,7.077131 -0.69155,1.117919 -1.48716,1.562485 -1.18461,0.661931 z m 6.82674,-22.555728 c 0.37513,-1.305589 4.72096,-12.07085 5.4848,-13.586669 0.42906,-0.85147 0.72406,-1.604176 0.65556,-1.672681 -0.2456,-0.245599 3.22323,-7.759399 3.58221,-7.759399 0.39744,0 0.21202,0.768059 -1.00292,4.154571 -0.66813,1.862329 -1.75095,4.927068 -2.40628,6.81053 -2.05401,5.903436 -4.48855,10.914996 -5.92632,12.199514 l -0.57711,0.515592 z m 6.21313,-8.400521 c 0.11578,-0.400182 0.83247,-2.215885 1.59263,-4.034895 0.76017,-1.819011 2.09884,-5.093229 2.97483,-7.276042 2.70682,-6.744903 5.84732,-12.8960994 6.66447,-13.0534664 0.26925,-0.05185 0.43001,0.0065 0.35725,0.129595 -0.60978,1.03195 -2.3904,5.268624 -4.54212,10.8072054 -2.42135,6.232645 -4.34755,10.459637 -5.93774,13.030255 -0.80423,1.300086 -1.43597,1.526368 -1.10932,0.397348 z m 6.76401,-22.0265614 c 0.25213,-0.842172 0.269,-0.858089 0.7962,-0.750993 0.36308,0.07376 0.31432,0.206088 -0.27674,0.750993 l -0.71748,0.661458 z m 0.79375,-1.5875 c 0.25213,-0.842171 0.269,-0.858089 0.7962,-0.750993 0.36308,0.07376 0.31432,0.206088 -0.27674,0.750993 l -0.71748,0.661458 z"
       id="path1" /></g></svg>
