<?xml version="1.0" encoding="UTF-8" standalone="no"?>
<!-- Created with Inkscape (http://www.inkscape.org/) -->

<svg
   width="180mm"
   height="180mm"
   viewBox="0 0 180 180"
   version="1.1"
   id="svg1"
   sodipodi:docname="other_powder.svg"
   inkscape:version="1.4.2 (f4327f4, 2025-05-13)"
   xml:space="preserve"
   xmlns:inkscape="http://www.inkscape.org/namespaces/inkscape"
   xmlns:sodipodi="http://sodipodi.sourceforge.net/DTD/sodipodi-0.dtd"
   xmlns="http://www.w3.org/2000/svg"
   xmlns:svg="http://www.w3.org/2000/svg"><sodipodi:namedview
     id="namedview1"
     pagecolor="#505050"
     bordercolor="#ffffff"
     borderopacity="1"
     inkscape:showpageshadow="0"
     inkscape:pageopacity="0"
     inkscape:pagecheckerboard="1"
     inkscape:deskcolor="#505050"
     inkscape:document-units="mm"
     inkscape:zoom="0.70710678"
     inkscape:cx="138.59293"
     inkscape:cy="606.69762"
     inkscape:window-width="2560"
     inkscape:window-height="1351"
     inkscape:window-x="-9"
     inkscape:window-y="-9"
     inkscape:window-maximized="1"
     inkscape:current-layer="layer1"
     showguides="true" /><defs
     id="defs1"><rect
       x="101.82338"
       y="91.923881"
       width="384.66609"
       height="299.81327"
       id="rect3" /><rect
       x="2.8284271"
       y="2.1213203"
       width="662.55905"
       height="647.0027"
       id="rect2" /></defs><g
     inkscape:label="Icon"
     inkscape:groupmode="layer"
     id="layer1"><path
       style="fill:#000000;stroke-width:2.98643"
       d="m 30.849538,160.81928 c -1.332986,-0.65047 -2.423608,-1.52722 -2.423608,-1.94834 0,-1.12499 6.736326,-6.82543 8.729478,-7.38707 2.574229,-0.72537 4.804723,0.17656 8.70497,3.52011 5.859354,5.02301 4.065699,6.8006 -6.994298,6.93169 -3.305408,0.0393 -6.584201,-0.41744 -8.016542,-1.11639 z m 50.150017,-9.68113 c -6.931165,-1.42707 -7.875731,-1.44374 -13.38918,-0.23638 -8.382332,1.8356 -11.87056,1.26708 -17.23188,-2.80832 -7.130713,-5.42042 -8.591423,-6.00494 -16.977425,-6.7937 -7.435774,-0.69938 -8.210128,-0.95285 -13.332661,-4.36466 -2.991119,-1.99219 -7.367959,-4.69004 -9.726316,-5.99523 -4.933743,-2.73044 -5.417029,-4.45516 -2.564625,-9.15242 0.947812,-1.56082 3.127267,-5.14116 4.843224,-7.95632 1.715961,-2.81513 3.939738,-7.19966 4.941725,-9.74338 1.11669,-2.83493 2.777829,-5.381018 4.29191,-6.578388 6.410231,-5.069362 13.498552,-12.234152 15.560012,-15.727846 1.251614,-2.121242 4.060154,-8.001099 6.241197,-13.066413 4.546981,-10.560036 7.32229,-14.066388 14.48023,-18.294504 5.107758,-3.017107 7.211737,-5.141544 10.989403,-11.096271 6.648725,-10.480356 18.066361,-21.262341 22.515834,-21.262341 0.758613,0 3.104121,1.652944 5.212231,3.673241 2.10812,2.020266 5.108236,4.530155 6.666956,5.577501 4.55668,3.061757 6.09805,4.939057 11.02241,13.424494 5.14669,8.868549 6.82922,10.38283 15.31432,13.782797 3.06932,1.229899 6.36628,3.043119 7.32658,4.029392 0.96032,0.986305 3.85639,6.69114 6.43573,12.677416 2.59344,6.018995 5.70241,11.954007 6.9553,13.277634 1.24609,1.316413 4.86988,4.142108 8.05285,6.279297 5.51252,3.701374 6.09949,4.402286 12.36542,14.765431 3.61798,5.98378 6.57816,11.07817 6.57816,11.32082 0,0.24271 -6.51097,3.5923 -14.46883,7.44363 -10.07418,4.87557 -15.00057,6.8547 -16.21954,6.51608 -0.96287,-0.26738 -3.59633,-1.09034 -5.85216,-1.82863 -5.49493,-1.79831 -8.08643,-1.25008 -20.50744,4.33843 -17.53468,7.88923 -23.720146,11.48682 -27.048211,15.73168 -1.632854,2.0827 -3.429884,3.74522 -3.993398,3.69456 -0.563518,-0.0507 -4.380337,-0.78309 -8.481826,-1.62756 z m -27.6226,-66.280173 c 3.659766,-3.024765 3.912429,-4.286403 0.937846,-4.682964 -2.193527,-0.292388 -3.913144,1.500074 -5.497465,5.730468 -1.222156,3.263391 -0.438455,3.083338 4.559619,-1.047504 z m 9.468299,-21.337686 c 0.551443,-0.509464 2.890851,-1.54026 5.198687,-2.290693 4.583979,-1.49058 5.859167,-2.730795 7.368414,-7.166272 0.548402,-1.61168 2.823728,-6.811355 5.056276,-11.554789 2.232551,-4.743434 3.895434,-8.808268 3.695302,-9.03297 -0.714586,-0.802265 -7.517272,8.558693 -10.732409,14.768563 -2.994737,5.784167 -3.714819,6.588963 -8.481487,9.479528 -5.885205,3.568817 -6.6081,4.658311 -7.169948,10.806065 l -0.399524,4.371525 2.231034,-4.227324 c 1.227068,-2.325058 2.682215,-4.644168 3.233655,-5.153633 z M 3.1192247,146.2109 c -0.9067617,-0.6442 -0.9150738,-0.97105 -0.054317,-2.13548 1.7955383,-2.42901 4.9848973,-3.83827 6.8624103,-3.0322 2.266933,0.9732 4.603677,3.94187 3.986011,5.06392 -0.595916,1.08257 -9.2986157,1.1662 -10.7941057,0.10379 z"
       id="path1" /></g></svg>
