<?xml version="1.0" encoding="UTF-8" standalone="no"?>
<!-- Created with Inkscape (http://www.inkscape.org/) -->

<svg
   width="180mm"
   height="180mm"
   viewBox="0 0 180 180"
   version="1.1"
   id="svg1"
   sodipodi:docname="aged_tree.svg"
   inkscape:version="1.4.2 (f4327f4, 2025-05-13)"
   xml:space="preserve"
   xmlns:inkscape="http://www.inkscape.org/namespaces/inkscape"
   xmlns:sodipodi="http://sodipodi.sourceforge.net/DTD/sodipodi-0.dtd"
   xmlns="http://www.w3.org/2000/svg"
   xmlns:svg="http://www.w3.org/2000/svg"><sodipodi:namedview
     id="namedview1"
     pagecolor="#505050"
     bordercolor="#ffffff"
     borderopacity="1"
     inkscape:showpageshadow="0"
     inkscape:pageopacity="0"
     inkscape:pagecheckerboard="1"
     inkscape:deskcolor="#505050"
     inkscape:document-units="mm"
     inkscape:zoom="0.70710678"
     inkscape:cx="125.86501"
     inkscape:cy="429.92092"
     inkscape:window-width="2560"
     inkscape:window-height="1351"
     inkscape:window-x="-9"
     inkscape:window-y="-9"
     inkscape:window-maximized="1"
     inkscape:current-layer="layer1"
     showguides="true" /><defs
     id="defs1"><rect
       x="101.82338"
       y="91.923881"
       width="384.66609"
       height="299.81327"
       id="rect3" /><rect
       x="2.8284271"
       y="2.1213203"
       width="662.55905"
       height="647.0027"
       id="rect2" /></defs><g
     inkscape:label="Icon"
     inkscape:groupmode="layer"
     id="layer1"><path
       style="fill:#000000;stroke-width:1.17006"
       d="m 55.973569,174.78064 c 0,-1.66116 6.950401,-8.12443 8.736758,-8.12443 1.701932,0 5.73991,-6.6064 6.404535,-10.47824 1.124149,-6.54888 -0.264778,-7.37918 -3.255108,-1.94591 -3.561702,6.47145 -8.463532,8.84543 -18.264128,8.84543 -6.208017,0 -7.373275,0.29023 -11.074966,2.75848 -4.681212,3.1214 -15.294639,4.97463 -14.452128,2.52353 0.23743,-0.69078 1.814243,-1.90374 3.504027,-2.6955 1.689783,-0.79175 5.048729,-3.46298 7.46433,-5.93605 3.696844,-3.78481 5.10599,-4.59505 8.903107,-5.11918 10.204655,-1.40859 11.771493,-3.50189 15.425373,-20.60839 1.471474,-6.88903 3.522206,-13.81806 4.557181,-15.39784 1.034962,-1.57978 5.02784,-5.35526 8.873048,-8.38998 7.367402,-5.81448 12.337139,-11.603419 12.337139,-14.370729 0,-0.910106 -0.128817,-1.654737 -0.286253,-1.654737 -0.157449,0 -1.954049,2.013036 -3.992438,4.473404 -2.038401,2.460372 -4.088646,4.473402 -4.556106,4.473402 -0.467461,0 -0.80271,-1.92965 -0.744973,-4.288113 0.06837,-2.794391 -0.60723,-5.521333 -1.939557,-7.828449 -4.026904,-6.973147 -5.621896,-7.946406 -14.478975,-8.834965 -5.750861,-0.576937 -6.31238,-0.457556 -10.589985,2.251477 -5.645717,3.575467 -8.772727,3.546467 -15.012585,-0.139228 -4.657075,-2.750796 -4.982422,-2.811755 -9.202388,-1.724193 -5.327353,1.372955 -6.322465,0.779479 -2.673896,-1.594689 4.711027,-3.065523 8.081364,-3.223644 13.384909,-0.627962 5.535701,2.709299 7.716264,2.456596 11.682269,-1.353846 2.733659,-2.626416 2.785316,-2.829023 1.320118,-5.177281 C 47.204199,72.472507 46.232932,70.27068 45.884509,68.9237 44.817632,64.799238 41.702941,63.591114 35.224163,64.788772 27.716479,66.176632 23.319677,64.36276 17.715154,57.565536 15.323923,54.665444 12.712135,52.465027 11.46349,52.298571 9.1822383,51.994457 8.6487998,50.834582 10.346116,49.869 c 2.166486,-1.232493 6.238308,0.760238 11.131127,5.447531 4.488529,4.299978 5.541048,4.872719 8.954618,4.872719 2.127527,0 5.245662,-0.441992 6.929194,-0.982203 2.702794,-0.867276 3.060959,-1.376584 3.060959,-4.352746 0,-2.055166 -0.786166,-4.290516 -2.014495,-5.727899 -1.613831,-1.888502 -1.721271,-2.357356 -0.540191,-2.357356 2.980978,0 6.545427,3.909806 7.112526,7.801663 0.38096,2.61439 1.24961,4.194899 2.829073,5.147509 1.253627,0.756087 3.785921,3.542607 5.627317,6.192265 1.841396,2.649658 3.931014,5.16032 4.643608,5.579248 0.712595,0.418927 4.846365,0.986767 9.186175,1.261864 9.051496,0.573769 12.305737,2.39182 17.255732,9.640273 l 2.790932,4.086847 1.390051,-2.442055 C 91.088735,79.844959 91.448048,73.228338 89.497698,69.39797 86.294052,63.106206 82.147987,59.192048 75.965353,56.622543 69.066571,53.755407 67.784949,52.551415 64.271119,45.636632 61.177781,39.549338 57.63731,37.363849 52.200284,38.185472 40.014219,40.026986 39.730481,40.007384 36.578735,37.106268 c -4.111501,-3.784544 -3.706721,-5.10084 0.829557,-2.697694 3.74358,1.983199 3.85577,1.988783 9.141538,0.45509 5.147342,-1.493531 5.321309,-1.64586 4.561551,-3.994157 -3.62326,-11.198939 -3.099613,-10.409947 -7.773451,-11.712228 -6.705915,-1.86848 -9.187395,-3.160433 -9.56844,-4.981687 -0.274619,-1.312607 0.03284,-1.521762 1.451084,-0.987166 0.98974,0.373072 4.423857,1.252189 7.631362,1.953593 7.89802,1.727104 9.973818,3.422614 12.501412,10.211117 1.985854,5.333525 2.516923,5.944033 7.18821,8.263418 3.803478,1.888501 5.827167,3.710499 8.228715,7.4086 2.262731,3.484326 4.328907,5.414287 7.136553,6.666061 2.173482,0.96903 4.374716,1.761872 4.891636,1.761872 0.554999,0 0.778401,-2.656109 0.545574,-6.486432 -0.336152,-5.530042 -0.792881,-6.905359 -3.097599,-9.327687 -1.48682,-1.562689 -2.963885,-4.078977 -3.282383,-5.591751 -0.318485,-1.512773 -0.832512,-3.958316 -1.14228,-5.434538 -1.011484,-4.820326 2.600555,-2.791916 3.897512,2.188724 0.377541,1.449834 2.245895,3.989864 4.151901,5.644511 l 3.465458,3.008448 2.763473,-2.437034 c 5.651772,-4.984163 5.943508,-11.235584 0.847309,-18.157093 -1.788799,-2.42949 -2.898774,-5.0845156 -2.898774,-6.9337722 0,-3.9643066 1.552126,-3.80266 3.440429,0.3583012 0.837408,1.845278 2.543601,4.361567 3.791538,5.591753 1.247937,1.230185 3.114887,3.785509 4.148775,5.678497 l 1.879805,3.441798 1.58394,-2.22517 c 0.87117,-1.223845 1.73835,-3.286472 1.92707,-4.58362 0.54407,-3.739642 2.15346,-2.721196 2.47209,1.564379 0.24992,3.361436 -0.18836,4.430185 -3.15891,7.702964 -1.897,2.090007 -3.4491,4.283834 -3.4491,4.875172 0,0.591337 -1.519649,3.270837 -3.377014,5.954442 -2.473227,3.573432 -3.383681,5.899007 -3.40191,8.689449 -0.0221,3.386979 0.56887,4.404653 5.320968,9.1627 4.692336,4.698204 5.352036,5.818317 5.396496,9.162699 l 0.0507,3.810164 1.96123,-4.697071 c 2.30554,-5.521678 3.75312,-6.031559 3.81006,-1.342021 0.0223,1.845278 0.8556,4.764151 1.85154,6.486385 l 1.8108,3.131333 -0.49298,-7.604734 c -0.45083,-6.954426 -0.29425,-7.872511 1.83097,-10.736116 1.27818,-1.722259 4.20559,-4.08755 6.50537,-5.256201 2.29978,-1.16865 5.01488,-3.382984 6.03358,-4.920741 2.33216,-3.520488 2.46066,-10.513711 0.25026,-13.618953 -2.63843,-3.70653 -2.24919,-9.359354 0.88019,-12.783032 1.47011,-1.608362 2.67293,-3.530863 2.67293,-4.2722262 0,-0.7413624 0.54673,-1.1763066 1.21496,-0.9665414 1.48612,0.4665073 1.05973,3.9850736 -0.80829,6.6700166 -1.74492,2.507997 -1.77266,5.997816 -0.0581,7.307622 1.00497,0.767724 1.87603,0.613394 3.6449,-0.645781 1.27839,-0.910024 4.39573,-2.373722 6.92742,-3.252662 5.31625,-1.845667 6.51558,-2.959498 8.51855,-7.911212 1.78877,-4.4221999 3.46007,-4.3703518 3.23508,0.100359 -0.29985,5.958065 -1.77911,7.984893 -7.90526,10.831442 -7.37497,3.42683 -9.2946,6.089157 -9.90941,13.743314 -0.41338,5.146403 -0.26815,5.96296 0.97197,5.465218 2.943,-1.181217 6.42087,-1.328979 10.62968,-0.451617 5.27055,1.098691 7.03878,0.354341 10.23722,-4.309393 2.62509,-3.827741 8.54377,-6.433636 10.50734,-4.626209 0.77086,0.709553 0.22387,1.249129 -1.98472,1.957822 -2.15515,0.691545 -3.89559,2.35934 -5.93746,5.689642 -3.49567,5.701422 -6.80153,7.259129 -13.63497,6.424726 -4.55669,-0.556397 -5.04328,-0.388976 -12.86529,4.426536 -9.52253,5.862421 -11.03379,7.408541 -12.97593,13.275192 -1.28378,3.877962 -1.28405,5.033617 -0.002,10.12067 1.98157,7.864931 1.80022,11.313178 -0.97589,18.555525 -1.30999,3.417503 -2.24231,6.342035 -2.07183,6.498954 0.17048,0.156931 1.42985,-0.525534 2.7986,-1.516566 1.42886,-1.034574 3.95241,-1.80189 5.92602,-1.80189 5.96414,0 8.32291,-2.81361 9.32121,-11.11862 0.94462,-7.858461 2.08807,-9.290508 8.92332,-11.175547 2.51603,-0.693879 4.32666,-2.028433 5.88797,-4.339817 l 2.25464,-3.337807 0.30641,2.44946 c 0.39936,3.192521 -1.46841,5.53201 -6.98977,8.755103 -4.10894,2.398601 -4.49432,2.927609 -4.49432,6.169197 0,3.519043 1.2487,5.410492 2.42013,3.66582 1.38889,-2.068571 7.24692,-0.948013 10.94168,2.092989 5.21754,4.294328 7.71736,5.30153 11.52582,4.643869 3.69488,-0.638037 4.47027,0.660991 1.32069,2.212555 -3.89606,1.919292 -9.22111,1.4154 -12.98758,-1.228979 -5.18761,-3.642132 -8.83759,-3.048193 -12.94483,2.106454 -6.94078,8.710772 -7.75001,9.210622 -18.09838,11.179262 -4.00171,0.76128 -11.92544,7.9675 -13.84315,12.58966 -1.5429,3.71876 -1.53379,4.09409 0.17726,7.29832 1.30861,2.45059 1.74027,5.00095 1.57236,9.28983 -0.14332,3.66111 0.31741,7.12103 1.21019,9.08782 1.59418,3.51203 5.68509,6.91997 8.30676,6.91997 3.1955,0 8.63227,2.66907 10.38444,5.09802 0.96406,1.33643 4.1098,4.62324 6.99053,7.30401 l 5.23769,4.87412 -4.75171,-0.58657 c -3.28177,-0.40511 -6.46591,-1.69345 -10.29305,-4.16467 -4.31064,-2.78343 -6.46936,-3.58933 -9.71973,-3.62861 -6.28166,-0.0759 -10.64006,-1.81 -13.13546,-5.22622 -1.93319,-2.64657 -2.22059,-2.78555 -2.22059,-1.07392 0,3.64533 2.81883,7.11686 7.53465,9.27929 4.90332,2.24842 7.00727,4.91954 7.0306,8.92585 0.0172,2.95609 -0.99441,3.11526 -3.47992,0.54754 -2.3233,-2.40014 -7.23493,-4.34992 -10.95781,-4.34992 -1.86989,0 -4.858255,-1.38902 -8.68493,-4.03683 -5.273254,-3.64877 -6.095596,-3.94531 -8.554306,-3.08485 -1.496112,0.5236 -4.761072,2.70916 -7.255458,4.85683 -4.123954,3.55073 -9.462514,5.82552 -13.702161,5.83858 -0.891201,0.002 -3.624872,0.79589 -6.074828,1.76256 -4.291609,1.69331 -4.454454,1.69712 -4.454454,0.10406 z m 29.216917,-19.469 c 1.315893,-3.67013 0.619537,-18.16437 -0.995039,-20.71126 -0.847113,-1.33626 -0.967336,-1.30503 -1.13432,0.29467 -0.509203,4.87827 -0.274704,23.70525 0.295277,23.70701 0.359483,0.001 1.184816,-1.47958 1.834082,-3.29042 z m -23.553241,-6.19679 c 1.589107,-1.77455 3.340522,-4.89474 3.892042,-6.93377 1.703836,-6.29918 4.067035,-18.75381 3.634065,-19.15235 -0.976701,-0.89903 -3.623321,5.70644 -5.018182,12.52443 -0.831987,4.06671 -2.75019,9.5077 -4.262673,12.09109 -3.187519,5.44441 -2.397031,6.10691 1.754748,1.4706 z m 35.145029,-4.90279 c -0.736671,-4.02019 -0.929024,-9.19097 -0.509716,-13.7023 0.690642,-7.43062 -0.122103,-8.29933 -2.25941,-2.41496 -2.123852,5.8473 -1.23629,15.06369 2.054871,21.33747 1.735397,3.30811 1.96693,1.61593 0.714255,-5.22021 z M 77.28022,144.06553 c -0.06715,-4.89121 -0.201217,-5.27749 -1.070356,-3.08336 -0.897794,2.26646 -0.37687,8.67512 0.705159,8.67512 0.243058,0 0.407404,-2.51629 0.365197,-5.59176 z m 29.75918,0.44734 c -3.21594,-7.66764 -4.003,-18.16816 -1.89443,-25.27471 0.83361,-2.80951 -0.78361,-1.5882 -2.90368,2.19284 -2.05165,3.65901 -1.2801,14.32913 1.46012,20.19239 1.14517,2.45034 2.51245,4.45517 3.03841,4.45517 0.52594,0 0.66076,-0.70456 0.29958,-1.56569 z M 74.943783,132.02556 c 1.87386,-5.93326 5.738786,-13.3478 8.302593,-15.92781 1.514791,-1.52438 6.746229,-11.25021 6.746229,-12.54203 0,-1.43456 -1.81572,0.025 -3.092557,2.48591 -0.829764,1.59923 -3.132272,4.69495 -5.116709,6.87937 -5.37846,5.92053 -8.154338,11.62941 -8.896405,18.29643 -0.36206,3.25288 -0.410224,5.91433 -0.107073,5.91433 0.303188,0 1.276934,-2.29778 2.163898,-5.1062 z m 23.119869,-17.16028 c 2.923518,-2.76169 5.751838,-5.82648 6.285128,-6.81063 1.60208,-2.95647 2.4798,-9.394152 1.28082,-9.394152 -0.58158,0 -1.05742,0.82521 -1.05742,1.833792 0,2.86965 -2.36472,6.31766 -7.332676,10.69174 -6.716855,5.91393 -10.172619,11.24682 -10.114394,15.60839 l 0.04847,3.62724 2.787306,-5.26756 c 1.533031,-2.89715 5.179293,-7.52713 8.102815,-10.28882 z m 2.941208,-16.652126 c 2.78508,-5.389251 3.55333,-8.909092 3.68315,-16.874752 0.0829,-5.083406 -0.38915,-6.949596 -2.98553,-11.804207 -1.69617,-3.171423 -3.493918,-5.766224 -3.995003,-5.766224 -1.175379,0 -1.274895,-0.385746 1.500287,5.815421 3.393196,7.582086 3.354356,16.762667 -0.110614,26.161477 -1.407535,3.817931 -2.938381,7.324161 -3.401898,7.791641 -0.463517,0.46748 -0.833024,1.474 -0.821133,2.2367 0.03077,1.9749 3.26319,-2.01108 6.130791,-7.560056 z m 10.97784,-1.022609 c 2.04268,-4.50008 2.12526,-16.081722 0.12776,-17.920374 -1.35355,-1.245928 -1.48735,-0.866424 -1.36081,3.85986 0.0772,2.882906 -0.19986,7.95924 -0.61569,11.280735 -0.41583,3.321506 -0.50285,6.039094 -0.1934,6.039094 0.30946,0 1.22841,-1.466699 2.04214,-3.259315 z M 96.667216,88.775577 c 0.700532,-1.849737 0.728918,-4.203132 0.08827,-7.312874 -1.287922,-6.251129 -1.902966,-6.415775 -1.902966,-0.509415 0,2.726911 -0.273373,6.216163 -0.607486,7.753895 -0.790842,3.639751 1.050016,3.691724 2.42223,0.06839 z M 77.673743,83.66255 c -1.978382,-3.726573 -7.993605,-7.07534 -10.793278,-6.008777 -1.367062,0.520799 -1.139717,0.802447 1.24276,1.539545 3.802831,1.176534 7.799726,4.652945 9.387576,8.165117 0.935165,2.068483 1.354888,2.389325 1.602378,1.224856 0.184418,-0.867761 -0.463321,-3.082095 -1.439436,-4.920741 z M 119.68342,54.392129 c 0.34492,-1.978362 1.25127,-4.502885 2.01409,-5.610053 0.76284,-1.107166 0.97851,-2.01303 0.47929,-2.01303 -1.51767,0 -4.96994,7.522497 -4.9541,10.794965 0.0192,3.950605 1.56673,1.955749 2.46072,-3.171882 z"
       id="path1" /></g></svg>
