<?xml version="1.0" encoding="UTF-8" standalone="no"?>
<!-- Created with Inkscape (http://www.inkscape.org/) -->

<svg
   width="180mm"
   height="180mm"
   viewBox="0 0 180 180"
   version="1.1"
   id="svg1"
   sodipodi:docname="bamboo.svg"
   inkscape:version="1.4.2 (f4327f4, 2025-05-13)"
   xml:space="preserve"
   xmlns:inkscape="http://www.inkscape.org/namespaces/inkscape"
   xmlns:sodipodi="http://sodipodi.sourceforge.net/DTD/sodipodi-0.dtd"
   xmlns="http://www.w3.org/2000/svg"
   xmlns:svg="http://www.w3.org/2000/svg"><sodipodi:namedview
     id="namedview1"
     pagecolor="#505050"
     bordercolor="#ffffff"
     borderopacity="1"
     inkscape:showpageshadow="0"
     inkscape:pageopacity="0"
     inkscape:pagecheckerboard="1"
     inkscape:deskcolor="#505050"
     inkscape:document-units="mm"
     inkscape:zoom="1"
     inkscape:cx="337"
     inkscape:cy="503"
     inkscape:window-width="2560"
     inkscape:window-height="1351"
     inkscape:window-x="-9"
     inkscape:window-y="-9"
     inkscape:window-maximized="1"
     inkscape:current-layer="layer1"
     showguides="true" /><defs
     id="defs1"><rect
       x="101.82338"
       y="91.923881"
       width="384.66609"
       height="299.81327"
       id="rect3" /><rect
       x="2.8284271"
       y="2.1213203"
       width="662.55905"
       height="647.0027"
       id="rect2" /></defs><g
     inkscape:label="Icon"
     inkscape:groupmode="layer"
     id="layer1"><path
       style="fill:#000000;stroke-width:3.64476"
       d="m 49.450794,175.74267 c -4.714894,-0.64735 -4.671236,-0.49043 -2.757995,-9.91322 1.522724,-7.49948 1.420346,-16.61418 -0.277213,-24.68167 l -1.356878,-6.44833 h 12.520974 12.520973 l -0.69614,2.89062 c -2.790968,11.58923 -2.930898,22.30571 -0.419029,32.09139 0.622991,2.42703 0.707482,4.61339 0.194188,5.02445 -1.275216,1.0213 -14.702435,1.72687 -19.728849,1.03676 z m 34.261559,-0.10387 c -2.433316,-0.32205 -4.735412,-0.85036 -5.115761,-1.17392 -0.380354,-0.32338 -0.117326,-2.89923 0.584501,-5.7237 2.825386,-11.37072 2.573305,-32.42876 -0.543257,-45.38206 l -0.695488,-2.89066 h 12.808131 12.808131 l -0.69549,2.89066 c -3.120917,12.97142 -3.356787,33.76443 -0.51506,45.40677 0.7411,3.03625 0.87288,5.46028 0.32017,5.88943 -1.33537,1.03682 -13.7046,1.67856 -18.955864,0.98348 z m 32.654387,0.0857 -4.18227,-0.55622 0.49934,-4.44715 c 0.82294,-7.32948 0.60955,-28.18852 -0.32986,-32.24183 l -0.87608,-3.78004 h 12.70911 c 11.62614,0 12.66005,0.13278 12.13352,1.5565 -3.01785,8.16094 -3.53189,23.35399 -1.08852,32.17203 0.87044,3.14137 1.21636,5.99549 0.76872,6.34251 -1.20526,0.9344 -14.81109,1.59563 -19.63399,0.9542 z M 46.066072,130.41556 c -0.963787,-0.52075 -1.024969,-1.48103 -0.23999,-3.76646 1.893578,-5.51296 2.289249,-21.22663 0.732319,-29.08335 l -1.454093,-7.337783 h 12.498155 12.498161 l -0.704668,2.890626 c -2.52944,10.376087 -2.52921,20.921167 7.42e-4,34.243037 l 0.717872,3.78008 -11.377454,-0.0135 c -6.257603,-0.007 -11.959579,-0.32809 -12.671057,-0.71253 z m 66.142668,-0.12975 c -0.34206,-0.4708 -0.0713,-3.54645 0.602,-6.83475 1.2247,-5.98262 0.75855,-27.106655 -0.68898,-31.221751 -0.70303,-1.998585 -0.68731,-2.001207 12.0352,-2.001207 11.65473,0 12.69013,0.132448 12.16355,1.556498 -2.94104,7.953262 -3.46817,21.87892 -1.2036,31.79709 0.78185,3.42431 1.20728,6.52618 0.94543,6.89307 -0.70528,0.98812 -23.12749,0.81049 -23.8536,-0.18892 z m 27.21234,-11.52442 c -0.98086,-1.35006 6.51581,-5.96332 12.30823,-7.57417 7.0623,-1.96403 28.59654,-3.07834 27.38976,-1.41733 -1.17371,1.6155 -14.88237,6.86625 -22.10396,8.46635 -6.73633,1.49256 -16.67564,1.78926 -17.59403,0.52515 z m -60.77201,-3.03551 c -0.294008,-0.65182 -0.03971,-2.95322 0.565118,-5.11424 2.750304,-9.82642 2.38271,-35.381853 -0.661026,-45.954625 -0.573747,-1.993005 -0.523513,-2.001208 12.214667,-2.001208 h 12.790781 l -0.69549,2.890626 c -3.106147,12.910007 -3.409577,35.214647 -0.60477,44.455077 2.04386,6.73346 1.75073,6.90948 -11.507871,6.90948 -8.67058,0 -11.700668,-0.29684 -12.101409,-1.18511 z m 58.9069,-2.87731 c -1.98064,-1.68488 4.52671,-13.349417 10.85031,-19.449383 4.66444,-4.49943 19.10731,-14.733654 20.79264,-14.733654 2.03084,0 -7.52184,15.502894 -13.10085,21.261219 -6.21557,6.415328 -8.57406,8.433108 -12.63591,10.810418 -4.79334,2.80544 -5.00246,2.8802 -5.90619,2.1114 z M 28.01678,87.338485 C 24.853958,86.95563 19.913677,85.988558 17.038384,85.189467 11.750081,83.719699 0.83217848,78.892409 0.83217848,78.023968 c 0,-0.259518 5.29315802,-0.27767 11.76256852,-0.04068 8.638763,0.316665 13.336136,0.946498 17.687771,2.371759 6.434838,2.107569 11.656652,5.141332 10.823433,6.288183 -0.825372,1.13606 -6.817739,1.454305 -13.089171,0.69515 z m 18.48195,-1.293788 c -1.291682,-0.284057 -1.681864,-0.896208 -1.209909,-1.898039 2.034932,-4.319684 2.957738,-19.057339 1.719433,-27.460117 -0.705676,-4.788463 -1.385796,-9.506802 -1.511379,-10.485202 -0.216199,-1.68424 0.392605,-1.778836 11.448237,-1.778836 6.422109,0 11.99162,0.268257 12.376689,0.59652 0.385057,0.328094 0.141472,2.885717 -0.541331,5.683629 -1.588944,6.510924 -1.60022,22.685706 -0.02016,29.159518 0.671619,2.752059 0.926155,5.409758 0.56563,5.905967 -0.647869,0.891771 -19.018208,1.11431 -22.82703,0.276661 z m 65.69788,-0.247079 c -0.34873,-0.480006 -0.0594,-3.381758 0.6427,-6.448364 1.69169,-7.387737 1.65424,-28.93829 -0.0634,-36.523286 -0.75276,-3.323972 -1.03481,-6.3258 -0.62677,-6.670703 0.87602,-0.740464 23.11679,-0.857247 23.9759,-0.12606 0.32381,0.275653 -0.16356,3.877832 -1.08304,8.004862 -1.88299,8.451556 -1.49309,31.52489 0.63425,37.533857 0.65177,1.840993 0.89817,3.742158 0.54753,4.224786 -0.83289,1.146414 -23.19445,1.150818 -24.02709,0.0034 z M 38.995175,80.277095 C 33.470157,77.62817 26.579788,71.70005 21.320898,65.071066 16.03551,58.408667 9.5112413,47.535466 10.798975,47.535466 c 1.67438,0 9.925418,5.320439 16.465403,10.617213 8.590549,6.957516 13.935807,13.890996 14.956974,19.401031 0.733033,3.955319 0.229634,4.380261 -3.226177,2.723385 z M 78.64907,57.912827 c -0.294008,-0.651785 -0.03517,-2.953185 0.575487,-5.114204 2.071062,-7.330488 2.454652,-28.909648 0.685921,-38.58712 -1.256384,-6.8742155 -1.336426,-9.0179556 -0.356485,-9.5477473 1.669645,-0.9026628 22.428177,-0.9115038 23.083277,-0.010085 0.27994,0.3853427 -0.15945,4.4878329 -0.97646,9.1166533 -2.270007,12.860827 -1.900687,26.167708 1.1531,41.547264 l 0.75058,3.780077 H 91.374087 c -9.190033,0 -12.321983,-0.291789 -12.725004,-1.185107 z M 71.789205,32.820133 C 69.123805,31.657381 64.502044,28.388943 61.518632,25.556911 56.149547,20.460255 47.543777,9.2815153 48.417263,8.538496 c 1.045686,-0.8895525 12.810042,6.058148 19.038201,11.243417 6.599809,5.494706 11.826516,12.991224 10.062155,14.431915 -0.485224,0.3962 -3.063008,-0.230944 -5.728414,-1.393695 z"
       id="path1" /></g></svg>
