<?xml version="1.0" encoding="UTF-8" standalone="no"?>
<!-- Created with Inkscape (http://www.inkscape.org/) -->

<svg
   width="180mm"
   height="180mm"
   viewBox="0 0 180 180"
   version="1.1"
   id="svg1"
   sodipodi:docname="ebony.svg"
   inkscape:version="1.4.2 (f4327f4, 2025-05-13)"
   xml:space="preserve"
   xmlns:inkscape="http://www.inkscape.org/namespaces/inkscape"
   xmlns:sodipodi="http://sodipodi.sourceforge.net/DTD/sodipodi-0.dtd"
   xmlns="http://www.w3.org/2000/svg"
   xmlns:svg="http://www.w3.org/2000/svg"><sodipodi:namedview
     id="namedview1"
     pagecolor="#505050"
     bordercolor="#ffffff"
     borderopacity="1"
     inkscape:showpageshadow="0"
     inkscape:pageopacity="0"
     inkscape:pagecheckerboard="1"
     inkscape:deskcolor="#505050"
     inkscape:document-units="mm"
     inkscape:zoom="0.70710678"
     inkscape:cx="125.86501"
     inkscape:cy="429.92092"
     inkscape:window-width="2560"
     inkscape:window-height="1351"
     inkscape:window-x="-9"
     inkscape:window-y="-9"
     inkscape:window-maximized="1"
     inkscape:current-layer="layer1"
     showguides="true" /><defs
     id="defs1"><rect
       x="101.82338"
       y="91.923881"
       width="384.66609"
       height="299.81327"
       id="rect3" /><rect
       x="2.8284271"
       y="2.1213203"
       width="662.55905"
       height="647.0027"
       id="rect2" /></defs><g
     inkscape:label="Icon"
     inkscape:groupmode="layer"
     id="layer1"><path
       style="fill:#000000;stroke-width:1.03183"
       d="m 79.052843,172.25083 c 1.040818,-6.66311 2.796069,-53.67404 2.15475,-57.71074 C 80.418385,109.57251 72.103932,96.050829 69.149506,94.93019 68.044539,94.511066 64.747717,93.284064 61.823234,92.203517 57.02121,90.42925 49.036639,83.893659 48.991543,81.700424 48.942949,79.33705 46.883765,78.518297 40.045022,78.143193 27.540563,77.457325 21.256828,73.152774 20.41405,64.69537 19.604352,56.569942 25.678698,50.411296 35.463001,49.437569 l 5.090525,-0.506606 -1.52771,-2.79304 C 36.804026,42.075927 37.046065,33.516615 39.513672,28.88571 43.535626,21.337796 52.26768,16.545721 61.104999,17.036579 l 5.421109,0.301109 3.246914,-4.100331 c 2.353269,-2.971802 4.84083,-4.7900663 9.038157,-6.6063731 5.189362,-2.2455904 6.575258,-2.4645235 13.334992,-2.1065597 8.946429,0.4737613 13.456209,2.400585 18.688019,7.9845328 3.55107,3.790091 3.62623,3.818832 10.16639,3.887441 5.17812,0.05433 7.4369,0.535003 10.5496,2.245036 4.57068,2.511001 6.17092,4.56042 7.62409,9.764175 0.84455,3.024277 1.45266,3.730064 3.21384,3.730064 3.35383,0 10.01479,2.531903 12.46525,4.738179 7.25325,6.530472 6.14183,17.584214 -2.30372,22.911841 -1.97202,1.243993 -5.3874,2.298968 -8.41959,2.60073 -4.92576,0.490207 -5.15849,0.635533 -6.74949,4.214504 -2.98153,6.706944 -11.42714,12.224768 -20.72192,13.538386 -4.25207,0.600938 -4.64637,0.920992 -10.32424,8.38017 -9.79232,12.864457 -9.196828,9.973149 -7.636638,37.078337 0.74593,12.95911 1.644468,29.51412 1.996758,36.78889 l 0.64053,13.22688 H 89.931306 78.527558 Z M 83.89417,80.969082 c 0.374345,-9.145612 0.49849,-16.804012 0.275877,-17.018667 -0.222613,-0.214654 -1.414777,-0.499864 -2.649254,-0.633799 -1.986928,-0.215573 -2.307171,0.190137 -2.790581,3.535344 -0.645578,4.467424 -2.724609,6.92318 -8.086833,9.552194 l -3.93697,1.930235 2.541994,3.610284 c 4.06753,5.776938 12.409009,15.652795 13.220873,15.652795 0.409347,0 1.05055,-7.482773 1.424894,-16.628386 z m -21.1084,1.168195 c -1.886828,-3.307719 -2.644674,-3.856954 -5.654458,-4.097969 -4.457788,-0.356966 -4.473457,0.952573 -0.05943,4.96671 3.647286,3.316858 7.082798,5.006182 7.58569,3.730067 0.168877,-0.428535 -0.673434,-2.497999 -1.871802,-4.598808 z m 47.99404,-10.096811 c 7.68833,-9.800122 7.8732,-9.415738 -4.52829,-9.415738 H 95.666809 l 0.25165,2.914395 c 0.138407,1.602918 0.311245,7.136307 0.384084,12.296423 l 0.132435,9.382028 4.710152,-4.449974 c 2.59059,-2.447487 6.9262,-7.274696 9.63468,-10.727134 z m 15.18905,-1.031551 c 4.02182,-2.224992 7.48972,-6.162366 6.37462,-7.237597 -0.33705,-0.325003 -2.4446,-0.738952 -4.68344,-0.919888 l -4.07062,-0.328976 -2.60532,5.207374 c -1.43292,2.864056 -2.77952,5.55237 -2.99243,5.97403 -0.5843,1.157162 3.52145,-0.229889 7.97719,-2.694943 z"
       id="path1" /></g></svg>
