<?xml version="1.0" encoding="UTF-8" standalone="no"?>
<!-- Created with Inkscape (http://www.inkscape.org/) -->

<svg
   width="180mm"
   height="180mm"
   viewBox="0 0 180 180"
   version="1.1"
   id="svg1"
   sodipodi:docname="kapok.svg"
   inkscape:version="1.4.2 (f4327f4, 2025-05-13)"
   xml:space="preserve"
   xmlns:inkscape="http://www.inkscape.org/namespaces/inkscape"
   xmlns:sodipodi="http://sodipodi.sourceforge.net/DTD/sodipodi-0.dtd"
   xmlns="http://www.w3.org/2000/svg"
   xmlns:svg="http://www.w3.org/2000/svg"><sodipodi:namedview
     id="namedview1"
     pagecolor="#505050"
     bordercolor="#ffffff"
     borderopacity="1"
     inkscape:showpageshadow="0"
     inkscape:pageopacity="0"
     inkscape:pagecheckerboard="1"
     inkscape:deskcolor="#505050"
     inkscape:document-units="mm"
     inkscape:zoom="0.70710678"
     inkscape:cx="125.86501"
     inkscape:cy="429.92092"
     inkscape:window-width="2560"
     inkscape:window-height="1351"
     inkscape:window-x="-9"
     inkscape:window-y="-9"
     inkscape:window-maximized="1"
     inkscape:current-layer="layer1"
     showguides="true" /><defs
     id="defs1"><rect
       x="101.82338"
       y="91.923881"
       width="384.66609"
       height="299.81327"
       id="rect3" /><rect
       x="2.8284271"
       y="2.1213203"
       width="662.55905"
       height="647.0027"
       id="rect2" /></defs><g
     inkscape:label="Icon"
     inkscape:groupmode="layer"
     id="layer1"><path
       style="fill:#000000;stroke-width:3.51479"
       d="m 39.937506,175.13375 c 1.340446,-1.73987 5.252313,-5.05483 8.693014,-7.36659 12.085956,-8.1204 14.000859,-10.69588 17.620552,-23.69922 1.458786,-5.24046 2.187543,-10.35093 2.187543,-15.33997 0,-6.81463 -0.25752,-7.86665 -2.89083,-11.80221 -3.727011,-5.57048 -6.477989,-7.43636 -13.932753,-9.45013 -7.683034,-2.07545 -10.957,-3.65306 -14.522716,-6.99802 C 34.58992,98.130141 33.893698,97.915625 31.23075,98.671711 27.42726,99.751637 19.850661,98.609111 16.396783,96.434823 9.6789724,92.20578 6.5172694,87.46255 5.4109934,79.953732 4.6045919,74.480295 5.9224654,70.143469 10.209909,64.161791 c 2.750695,-3.837712 3.131924,-4.988172 2.629071,-7.934667 -1.776252,-10.408277 8.300199,-23.098939 18.405229,-23.180143 2.142609,-0.01748 2.621299,-0.513277 3.140755,-3.25442 0.91439,-4.825343 5.532618,-11.07452 10.494842,-14.201119 5.192579,-3.271731 11.191383,-4.338469 17.016316,-3.025916 4.178996,0.941715 4.232796,0.922026 8.411791,-3.0783734 C 75.96424,4.0726074 84.137728,1.1249229 91.630254,1.7975313 98.912597,2.451255 106.03647,5.6398588 110.05647,10.044949 l 3.31307,3.630505 5.46045,-1.063521 c 7.60295,-1.480836 14.58079,0.535275 19.82646,5.72845 3.78007,3.742274 7.29828,10.008027 7.33706,13.067026 0.0141,1.152278 0.77624,1.619254 2.64094,1.619254 1.44123,0 4.78398,1.067333 7.42834,2.371877 7.89206,3.893421 12.80083,13.481719 11.01741,21.520287 -0.4995,2.2514 -0.007,3.633687 2.59046,7.256323 4.15671,5.799547 5.68215,10.614958 4.97671,15.710213 -1.03538,7.478287 -5.50489,13.761106 -12.22139,17.179718 -3.0534,1.554102 -4.93241,1.80289 -10.9936,1.455552 -7.13154,-0.408712 -7.39637,-0.346568 -10.80411,2.531177 -4.05409,3.42372 -7.36239,5.20681 -14.70956,7.92823 -5.93338,2.19776 -11.0563,6.21568 -13.22932,10.37575 -3.06728,5.87208 -0.71396,25.05564 4.25703,34.70202 2.49688,4.84535 6.58972,8.79263 13.77499,13.28515 5.62072,3.51426 10.6194,8.2684 10.6194,10.09989 0,0.47719 -5.22095,0.85429 -11.82777,0.85429 h -11.82776 l -3.41308,-3.55203 c -3.76975,-3.92315 -7.46207,-11.01849 -10.02943,-19.27301 l -1.67837,-5.39629 -0.30132,3.56413 c -0.37452,4.42883 2.9553,15.5448 5.97386,19.94254 1.24338,1.81153 2.2607,3.61337 2.2607,4.00414 0,0.39077 -9.29424,0.71052 -20.653918,0.71052 H 69.189768 l 2.022892,-3.00721 c 4.586753,-6.81865 7.853655,-18.70063 7.292798,-26.52458 -0.354947,-4.95176 -0.894573,-3.98917 -3.068834,5.47425 -2.09061,9.09943 -5.106491,15.29667 -9.794804,20.12698 l -3.815041,3.93056 H 49.663567 37.500321 Z m 38.510301,-69.49919 c -0.479679,-4.60108 -5.045379,-15.634472 -6.200121,-14.983092 -3.055869,1.723785 -7.937128,3.444281 -10.271411,3.620363 -1.586239,0.119603 -2.874722,0.441307 -2.863312,0.714714 0.0544,1.300209 3.824861,4.736862 9.546999,8.701775 3.463097,2.39961 6.743775,5.1902 7.290396,6.20133 1.728174,3.19686 3.041138,0.95987 2.497449,-4.25509 z m 39.450943,-7.489521 c 2.17928,-2.742786 1.43819,-4.007778 -2.36385,-4.035091 -1.08491,-0.007 -3.52199,-1.055128 -5.41573,-2.327394 -1.89374,-1.272266 -3.62771,-2.31323 -3.85326,-2.31323 -0.83724,0 -4.92602,8.963776 -6.399323,14.029276 -2.50356,8.60759 -1.61139,8.90883 7.810173,2.6372 4.52165,-3.00993 9.12154,-6.605783 10.22199,-7.990761 z m 14.26265,1.310978 c 2.40511,-1.006621 5.04722,-2.567857 5.87139,-3.469424 1.38972,-1.520285 1.31731,-1.756763 -0.99797,-3.258617 -3.76894,-2.444758 -9.21876,-0.444139 -11.65188,4.277409 -3.16647,6.144715 -2.56623,6.361715 6.77846,2.450632 z M 53.588505,97.102956 c -1.056857,-2.033808 -2.997971,-3.980256 -4.690221,-4.703118 -2.597985,-1.109789 -3.222603,-1.028025 -6.237036,0.816341 -2.91033,1.780683 -3.17389,2.223878 -2.008656,3.377485 1.837153,1.818732 7.978811,3.889296 11.682437,3.938536 l 3.056575,0.0406 z m 40.463321,-3.884609 c 4.150981,-7.940926 4.191921,-8.566043 0.476889,-7.28395 -1.638202,0.56535 -5.069719,0.740908 -7.944476,0.406439 -2.783336,-0.323836 -5.060604,-0.303553 -5.060604,0.04546 0,0.673377 8.449412,13.261331 8.901433,13.261331 0.146245,0 1.778371,-2.893132 3.626758,-6.429179 z"
       id="path1" /></g></svg>
