<?xml version="1.0" encoding="UTF-8" standalone="no"?>
<!-- Created with Inkscape (http://www.inkscape.org/) -->

<svg
   width="180mm"
   height="240mm"
   viewBox="0 0 180 240"
   version="1.1"
   id="svg1"
   sodipodi:docname="larch.svg"
   inkscape:version="1.4.2 (f4327f4, 2025-05-13)"
   xml:space="preserve"
   xmlns:inkscape="http://www.inkscape.org/namespaces/inkscape"
   xmlns:sodipodi="http://sodipodi.sourceforge.net/DTD/sodipodi-0.dtd"
   xmlns="http://www.w3.org/2000/svg"
   xmlns:svg="http://www.w3.org/2000/svg"><sodipodi:namedview
     id="namedview1"
     pagecolor="#505050"
     bordercolor="#ffffff"
     borderopacity="1"
     inkscape:showpageshadow="0"
     inkscape:pageopacity="0"
     inkscape:pagecheckerboard="1"
     inkscape:deskcolor="#505050"
     inkscape:document-units="mm"
     inkscape:zoom="0.70710678"
     inkscape:cx="125.86501"
     inkscape:cy="429.92092"
     inkscape:window-width="2560"
     inkscape:window-height="1351"
     inkscape:window-x="-9"
     inkscape:window-y="-9"
     inkscape:window-maximized="1"
     inkscape:current-layer="layer1"
     showguides="true" /><defs
     id="defs1"><rect
       x="101.82338"
       y="91.923882"
       width="384.66608"
       height="299.81326"
       id="rect3" /><rect
       x="2.8284271"
       y="2.1213202"
       width="662.55902"
       height="647.00269"
       id="rect2" /></defs><g
     inkscape:label="Icon"
     inkscape:groupmode="layer"
     id="layer1"><path
       style="fill:#000000;stroke-width:4.16861"
       d="m 62.201024,232.32206 c 0.410259,-0.48877 4.034752,-2.4895 8.054331,-4.44603 5.881007,-2.86256 7.453474,-4.18346 8.051266,-6.76325 0.408587,-1.76325 1.081919,-14.21517 1.496328,-27.67093 l 0.753428,-24.465 -4.453308,3.72326 c -3.532725,2.95361 -4.799972,5.01636 -6.130157,9.97836 -2.302184,8.58768 -5.135768,13.76638 -7.983826,14.5914 -4.366627,1.26493 -4.862133,-1.24773 -1.799461,-9.12442 1.550855,-3.98847 2.581834,-7.52643 2.291049,-7.862 -1.565445,-1.80676 -5.014821,1.54739 -6.96101,6.76882 -3.754671,10.07348 -15.281993,19.88318 -15.281993,13.00492 0,-1.29019 1.845977,-5.15595 4.102169,-8.59064 4.558428,-6.9394 4.804843,-7.78926 2.5482,-8.78871 -1.01564,-0.44982 -2.993586,1.18387 -5.649407,4.66615 -7.583369,9.94329 -18.530696,14.80533 -19.233008,8.54195 -0.195215,-1.74102 1.117924,-3.31277 4.948962,-5.92356 2.868079,-1.95459 5.937988,-4.47622 6.822015,-5.60365 2.888287,-3.68355 -1.096008,-3.82788 -6.411901,-0.23243 -6.06474,4.1021 -18.6426029,5.56748 -20.8954981,2.43441 -2.3222058,-3.22946 -0.621179,-5.47718 4.2201531,-5.57647 2.41751,-0.0496 5.956948,-0.74208 7.86542,-1.53892 l 3.469954,-1.44881 -6.549894,-3.72309 C 7.9195742,169.97885 4.3050348,166.47704 4.3050348,163.452 c 0,-3.67127 0.9932522,-3.60754 8.5791782,0.55035 10.018154,5.49103 21.215086,7.38013 32.147128,5.42368 10.600896,-1.89715 23.33034,-9.11062 30.667989,-17.37886 5.839766,-6.58035 7.151902,-10.97583 6.448994,-21.60338 l -0.331372,-5.01139 -4.876565,3.67047 c -2.682139,2.01877 -4.880915,4.54053 -4.886231,5.60388 -0.0039,1.06335 -1.411553,4.75482 -3.12499,8.20325 -3.367853,6.77804 -7.338891,9.96143 -9.424054,7.55487 -0.928697,-1.07192 -0.553011,-2.94206 1.616663,-8.04795 1.554579,-3.65832 2.608336,-6.90334 2.341724,-7.21105 -1.117509,-1.28978 -4.873735,1.24124 -6.20974,4.18427 -2.120579,4.67126 -7.985456,10.77351 -11.436017,11.8988 -7.077106,2.30804 -7.384938,-1.68788 -0.703418,-9.13091 l 4.876573,-5.43241 -2.834453,-0.41874 c -1.619817,-0.23959 -5.334844,0.9463 -8.669324,2.7669 -7.234447,3.95006 -12.468823,4.84023 -15.099187,2.56775 -2.697977,-2.33083 -1.476218,-5.18587 2.664056,-6.2254 1.873286,-0.47033 4.521131,-1.34044 5.884099,-1.93355 2.352253,-1.02364 2.157278,-1.29749 -3.838515,-5.39125 -6.315738,-4.31219 -8.52764,-7.76566 -6.484311,-10.124 0.763255,-0.8809 3.607001,0.077 9.5738,3.225 8.375183,4.41858 8.624856,4.47106 18.779168,3.94728 8.885062,-0.45829 11.202884,-1.03851 16.964342,-4.24681 3.67024,-2.04381 8.718704,-5.77299 11.218742,-8.28704 4.117672,-4.14069 4.606071,-5.20543 5.188306,-11.31077 1.04802,-10.989083 -0.329818,-11.268984 -8.392686,-1.705028 -3.019912,3.582208 -6.710525,4.307888 -7.643101,1.502928 -0.939173,-2.824718 -2.093583,-2.165868 -7.45654,4.25583 -3.234956,3.87361 -5.712477,5.88342 -6.921343,5.61473 -2.941865,-0.65386 -2.877872,-4.44936 0.136239,-8.08037 2.96373,-3.570368 2.05407,-5.780999 -1.480478,-3.597778 -3.651336,2.255418 -12.372439,3.665948 -14.508399,2.346598 -4.114,-2.541188 -1.062079,-7.056048 4.769669,-7.056048 h 2.764865 L 40.25198,89.124321 c -3.953142,-4.949815 -4.205769,-5.622471 -2.744843,-7.308596 1.46093,-1.686178 1.967732,-1.571169 5.50642,1.249469 7.0356,5.608017 11.466795,7.120591 18.783771,6.411838 7.639221,-0.739965 14.4575,-3.835044 19.185456,-8.708998 3.061239,-3.155708 3.294167,-3.959903 3.608976,-12.459213 l 0.336409,-9.085813 -2.909905,1.976318 c -1.600408,1.08696 -3.825217,3.682345 -4.944007,5.767528 -3.674897,6.849336 -12.197106,10.961282 -12.197106,5.885041 0,-0.910103 0.927959,-3.0163 2.062154,-4.680435 l 2.062114,-3.025708 -3.345427,-0.752319 c -5.643071,-1.26905 -10.966459,-4.396598 -11.63761,-6.837209 -1.067826,-3.883052 0.827575,-4.660184 6.908064,-2.832283 8.971153,2.696956 15.674771,0.481746 21.867089,-7.225876 1.843737,-2.294918 2.616555,-4.577792 2.616555,-7.729208 v -4.472371 l -3.995134,3.051459 c -4.969026,3.795279 -14.392575,5.297608 -16.329902,2.603393 -2.058544,-2.862783 -0.391981,-5.284666 4.218752,-6.130727 7.899198,-1.44944 15.259162,-10.045267 16.743534,-19.555004 1.757719,-11.2608434 4.908043,-11.3093446 6.546088,-0.100769 0.664957,4.549936 2.213446,9.992869 3.441077,12.095395 3.484111,5.967088 10.334325,11.375536 15.551765,12.278563 3.92498,0.679287 4.62323,1.208098 4.62323,3.501136 0,6.687709 -11.48885,5.21252 -20.383012,-2.617185 l -3.553875,-3.128578 0.710356,6.975985 c 0.917246,9.007532 3.175434,13.309452 9.268691,17.657412 6.27299,4.476127 15.33141,5.448573 23.0809,2.477819 5.57727,-2.138051 7.30327,-1.75097 7.30327,1.637889 0,1.321622 -1.7603,3.213032 -4.61989,4.963922 -2.54093,1.55575 -4.61992,3.13072 -4.61992,3.499919 0,0.369026 1.64933,1.578999 3.66516,2.688484 5.38762,2.965253 4.47256,6.14421 -1.74444,6.060292 -3.62702,-0.04885 -5.7198,-0.936443 -9.2103,-3.905819 -3.65029,-3.105277 -4.5824,-3.479763 -4.85852,-1.951999 -0.18781,1.039795 0.38452,3.169374 1.27175,4.732432 1.68805,2.973444 1.2466,6.520837 -0.81148,6.520837 -2.55992,0 -6.08566,-4.117809 -8.34516,-9.746557 -1.45167,-3.616268 -3.806934,-7.014361 -6.118085,-8.826952 L 93.487161,67.130715 94.1882,78.77971 c 0.681536,11.324392 0.805005,11.774511 4.431316,16.151904 4.503994,5.436876 10.803834,9.842876 17.353754,12.136856 9.6713,3.38721 25.14088,1.38459 31.15111,-4.03267 3.90562,-3.520268 6.96476,-4.233768 7.76986,-1.81225 0.50288,1.5125 -0.63337,3.45287 -4.21095,7.19122 -2.69483,2.81585 -5.57524,5.11977 -6.40092,5.11977 -2.97808,0 -0.1304,2.40056 4.41489,3.72148 5.07626,1.47528 6.47687,3.5615 4.36388,6.50001 -1.91268,2.65992 -9.89388,1.41626 -15.57618,-2.42712 -3.39803,-2.29841 -5.0923,-2.77469 -7.36969,-2.07171 l -2.95721,0.91278 5.30499,5.27294 c 5.82967,5.79436 6.51158,7.84081 2.95601,8.87075 -4.26998,1.23695 -8.63944,-1.89826 -14.81173,-10.62772 -1.81224,-2.56299 -4.23606,-4.74005 -5.38636,-4.83786 -2.65354,-0.22571 -2.62223,0.189 0.44844,5.94313 3.16965,5.93959 3.39121,10.07178 0.54009,10.07178 -1.12931,0 -2.9581,-1.04427 -4.06396,-2.32067 -2.20697,-2.54714 -6.15096,-10.93826 -7.14081,-15.19249 -0.34573,-1.48598 -2.58602,-4.04893 -4.9784,-5.69551 l -4.349777,-2.99373 0.0071,3.91812 c 0.0029,2.15496 0.304979,8.45041 0.669808,13.98989 l 0.66363,10.07179 6.773429,7.71223 c 7.48867,8.52668 18.37713,15.54588 27.67756,17.84227 3.05239,0.75369 10.3699,1.14899 16.42637,0.88741 10.10841,-0.43664 11.46506,-0.79017 18.21524,-4.74677 7.39038,-4.33179 10.1748,-4.40939 9.48315,-0.26423 -0.446,2.67287 -6.96484,7.86653 -13.71443,10.92654 -4.73297,2.14569 -4.88041,2.34221 -2.74652,3.6603 1.2402,0.76602 4.90435,1.77479 8.1426,2.24167 4.57322,0.65931 5.96956,1.33918 6.25422,3.04524 0.5917,3.54596 -1.317,4.61074 -8.26491,4.61074 -6.41046,0 -13.05755,-2.65538 -17.25073,-6.89133 -0.9644,-0.97424 -2.10821,-1.19082 -2.98522,-0.56523 -1.10141,0.78565 -0.51782,1.97229 2.59006,5.26653 2.20653,2.33877 4.35835,4.25486 4.78185,4.25799 0.42348,0.003 1.72487,1.10773 2.89198,2.45476 1.68681,1.94684 1.87155,2.79735 0.90091,4.14718 -2.82628,3.93049 -8.84722,0.94105 -17.67258,-8.77464 -5.58553,-6.14904 -8.9632,-8.4425 -8.9632,-6.08609 0,0.55282 2.09183,4.53162 4.64852,8.84175 4.86089,8.1946 5.05153,10.08691 1.0162,10.08691 -3.75254,0 -8.03065,-4.989 -11.8733,-13.84623 -3.59616,-8.28919 -4.65508,-9.80245 -6.88118,-9.83389 -1.76245,-0.0269 -1.60766,2.59749 0.43035,7.29153 3.29942,7.5993 3.48463,8.199 2.88046,9.32729 -0.33487,0.62524 -1.71693,1.13676 -3.07144,1.13676 -2.89298,0 -7.19415,-7.54686 -9.07902,-15.93013 -0.84244,-3.74683 -2.29256,-6.23136 -5.17791,-8.87138 -2.20429,-2.0169 -4.213131,-3.43007 -4.464107,-3.1404 -0.966526,1.11552 2.182337,61.19626 3.260257,62.20636 0.60778,0.56956 4.10798,2.4737 7.77822,4.23143 3.67028,1.75773 7.11208,3.67964 7.64853,4.27088 0.58486,0.64467 -10.27254,1.07505 -27.12059,1.07505 -15.452739,0 -27.760198,-0.39992 -27.349941,-0.8887 z"
       id="path1" /></g></svg>
