<?xml version="1.0" encoding="UTF-8" standalone="no"?>
<!-- Created with Inkscape (http://www.inkscape.org/) -->

<svg
   width="180mm"
   height="180mm"
   viewBox="0 0 180 180"
   version="1.1"
   id="svg1"
   sodipodi:docname="oak.svg"
   inkscape:version="1.4.2 (f4327f4, 2025-05-13)"
   xml:space="preserve"
   xmlns:inkscape="http://www.inkscape.org/namespaces/inkscape"
   xmlns:sodipodi="http://sodipodi.sourceforge.net/DTD/sodipodi-0.dtd"
   xmlns="http://www.w3.org/2000/svg"
   xmlns:svg="http://www.w3.org/2000/svg"><sodipodi:namedview
     id="namedview1"
     pagecolor="#505050"
     bordercolor="#ffffff"
     borderopacity="1"
     inkscape:showpageshadow="0"
     inkscape:pageopacity="0"
     inkscape:pagecheckerboard="1"
     inkscape:deskcolor="#505050"
     inkscape:document-units="mm"
     inkscape:zoom="0.70710678"
     inkscape:cx="125.86501"
     inkscape:cy="429.92092"
     inkscape:window-width="2560"
     inkscape:window-height="1351"
     inkscape:window-x="-9"
     inkscape:window-y="-9"
     inkscape:window-maximized="1"
     inkscape:current-layer="layer1"
     showguides="true" /><defs
     id="defs1"><rect
       x="101.82338"
       y="91.923881"
       width="384.66609"
       height="299.81327"
       id="rect3" /><rect
       x="2.8284271"
       y="2.1213203"
       width="662.55905"
       height="647.0027"
       id="rect2" /></defs><g
     inkscape:label="Icon"
     inkscape:groupmode="layer"
     id="layer1"><path
       style="fill:#000000;stroke-width:3.46299"
       d="m 67.479007,176.07383 c 0,-0.40653 1.179622,-1.85221 2.62141,-3.21262 5.772141,-5.4464 8.465469,-16.09779 8.427573,-33.32911 -0.03594,-16.31379 -3.834461,-20.99913 -21.683588,-26.74538 l -7.369001,-2.37235 -1.716481,2.31561 c -3.940332,5.31556 -15.514483,7.73925 -21.76252,4.55715 -6.418429,-3.26887 -10.361274,-11.37723 -8.391213,-17.25623 1.414849,-4.222251 2.891148,-4.78494 7.353752,-2.803035 4.31329,1.915576 8.336916,1.259924 11.326642,-1.845674 1.160883,-1.205866 2.858416,-2.199584 3.772243,-2.20821 2.434688,-0.02406 6.797144,-2.449088 7.459205,-4.148256 0.31545,-0.809546 0.573498,-2.293199 0.573498,-3.296988 0,-1.71257 -0.175173,-1.679956 -2.84062,0.52901 -1.967759,1.630709 -3.921036,2.354063 -6.35663,2.354063 -2.725641,0 -3.853863,0.507771 -5.018794,2.258798 -2.168265,3.259116 -5.419144,3.769705 -9.373086,1.472141 -3.762822,-2.186525 -5.86332,-1.619093 -9.341749,2.523492 l -2.001642,2.383825 -2.927891,-2.727872 C 5.9892324,90.571101 4.6012527,87.372815 4.5145738,81.352286 c -0.060717,-4.22589 0.4347556,-6.189065 2.3933716,-9.480622 2.2715536,-3.81744 7.9951206,-8.700735 10.2368386,-8.733933 2.152562,-0.03093 3.606842,-1.646793 2.586375,-2.871972 -2.151235,-2.582741 -3.146717,-8.771874 -2.058729,-12.799364 1.911194,-7.074871 6.625286,-11.144358 14.953478,-12.908789 1.838508,-0.389514 2.544571,-1.097541 2.559227,-2.566485 0.01047,-1.115721 0.777842,-3.665297 1.703779,-5.665759 5.291707,-11.432696 18.534009,-17.0110269 29.822301,-12.56268 3.044894,1.199886 3.971249,1.279205 4.280139,0.366523 0.85004,-2.511532 5.997352,-7.3234467 9.745379,-9.1103876 4.625494,-2.2052889 11.276706,-2.446682 15.826583,-0.5743738 3.173587,1.3059418 8.359254,5.9510744 10.216744,9.1517314 0.93232,1.606549 1.10585,1.615587 3.20601,0.166679 1.37005,-0.945089 4.00573,-1.531663 6.8825,-1.531663 3.80348,0 5.27248,0.495501 7.9761,2.690308 1.82267,1.479701 3.80777,3.864454 4.41131,5.299478 1.05442,2.507065 1.29513,2.592982 6.15288,2.196216 11.80861,-0.964438 20.67837,7.159105 19.62545,17.974399 -0.24775,2.54535 -1.06527,3.655022 -4.231,5.743189 -2.61217,1.723053 -3.92498,3.25207 -3.92729,4.574061 -0.002,1.09218 -0.82673,3.315614 -1.83296,4.940997 -1.5829,2.556862 -2.33729,2.955174 -5.59682,2.955174 -4.07091,0 -6.64881,-1.013411 -9.82896,-3.863973 -1.88383,-1.688582 -2.13675,-1.711368 -3.54968,-0.319955 -0.83674,0.824083 -2.7284,2.113048 -4.20365,2.864411 -2.28603,1.164247 -2.6823,1.906126 -2.6823,5.021244 0,6.624527 -5.97851,10.017261 -12.10446,6.869116 -2.83131,-1.455025 -6.57246,-0.294524 -9.509599,2.949745 -2.345984,2.591298 -1.405706,3.27104 2.567429,1.856052 2.80091,-0.997499 3.95502,-0.921342 8.35373,0.551211 4.80595,1.608851 5.29131,1.620571 8.31481,0.200702 3.88642,-1.825259 5.97125,-4.760123 6.70589,-9.44 0.30254,-1.928326 1.32974,-4.244792 2.28231,-5.147713 1.67115,-1.584073 1.8272,-1.574932 4.44452,0.260501 4.46317,3.12993 7.7056,3.891019 11.8709,2.786398 4.35188,-1.154143 8.14363,-5.156786 8.96377,-9.462442 0.38433,-2.01768 1.4703,-3.525149 3.31083,-4.595918 2.65836,-1.546579 2.86651,-1.531045 7.08171,0.528734 5.95792,2.911323 8.95766,8.236472 8.87866,15.761481 -0.0314,3.000642 -0.57099,6.396194 -1.19889,7.545663 -1.01045,1.849798 -0.82268,2.447644 1.63424,5.203594 2.55968,2.871216 4.71276,8.055221 4.71276,11.346985 0,6.154732 -5.33159,13.179251 -10.765,14.183151 -1.79287,0.33129 -3.41451,1.24975 -3.65737,2.07156 -1.23082,4.16489 -4.38399,8.96815 -7.04487,10.73155 -6.46658,4.28548 -16.20118,3.44686 -22.52968,-1.94094 l -3.51469,-2.99219 -4.62933,2.07438 c -2.5461,1.14092 -6.45175,2.81318 -8.6792,3.71617 -8.97913,3.63996 -12.97952,10.46334 -13.01019,22.19114 -0.0454,17.32287 2.70072,28.38176 8.51751,34.30187 l 2.9036,2.95521 H 90.28 c -12.54053,0 -22.800993,-0.33267 -22.800993,-0.7392 z m 35.356563,-60.46318 c 3.43014,-2.04508 8.94819,-9.03324 8.95604,-11.34211 0.002,-0.64084 -0.72313,-1.41609 -1.61176,-1.72278 -0.88865,-0.30655 -2.95087,-1.79182 -4.5827,-3.30025 l -2.96701,-2.742649 -1.02535,2.646834 c -2.952177,7.620515 -4.701737,18.566435 -2.965716,18.554755 0.380843,-0.003 2.269256,-0.94475 4.196496,-2.0938 z M 79.765956,104.59307 c -2.533649,-5.859764 -2.655816,-5.981182 -5.362509,-5.329036 -1.523372,0.367038 -4.120041,0.647129 -5.770361,0.622419 -1.650319,-0.02406 -3.000612,0.09623 -3.000612,0.268747 0,0.85144 4.592413,7.27808 6.112261,8.55354 0.954515,0.80099 3.605062,2.53494 5.890155,3.85322 l 4.154657,2.39685 0.284742,-2.18467 c 0.156329,-1.20157 -0.882143,-4.88302 -2.308158,-8.181 z m 44.971454,2.64934 c 0.48776,-0.29693 0.42163,-1.40846 -0.15843,-2.66213 -0.92827,-2.00654 -1.18869,-2.07253 -3.84248,-0.97358 -2.64996,1.09737 -4.10448,3.02697 -4.25983,5.65116 -0.0485,0.81913 0.88158,0.76738 3.67917,-0.20483 2.05926,-0.71555 4.12092,-1.53039 4.5815,-1.81072 z m -62.780312,-2.22137 -1.154149,-2.74416 -2.867802,2.01115 -2.867803,2.01115 3.666861,1.0376 c 2.016786,0.5707 3.826645,0.90055 4.021952,0.73301 0.195411,-0.16736 -0.164355,-1.53943 -0.799059,-3.04875 z m 32.541521,-6.932766 1.513043,-4.02072 h -3.605376 c -1.982972,0 -4.693364,-0.488216 -6.023104,-1.084894 -4.950191,-2.221338 -4.360433,2.666183 1.214796,10.06727 l 2.314125,3.07195 1.536702,-2.00644 c 0.845189,-1.10356 2.217606,-3.81576 3.049814,-6.027166 z M 155.6031,90.35184 c 2.92608,-2.784818 2.77048,-4.32796 -0.27462,-2.722992 -1.0257,0.540626 -3.35246,0.982962 -5.17059,0.982962 -2.72756,0 -3.6192,-0.507736 -5.09842,-2.903315 -1.63961,-2.655357 -2.21018,-2.909913 -6.68008,-2.980434 -2.68802,-0.04227 -5.61438,-0.416423 -6.50301,-0.831129 -1.26236,-0.589117 -1.6157,-0.34628 -1.6157,1.110291 0,2.555144 3.41523,4.695308 7.49273,4.695308 2.15483,0 3.58162,0.49478 3.91821,1.358729 0.29103,0.747308 1.87679,2.165733 3.52359,3.152029 3.68685,2.20821 6.69755,1.669749 10.40779,-1.861449 z M 46.705618,57.695906 c 3.309746,-3.402322 6.2852,-3.486727 11.027871,-0.312739 3.32346,2.224156 3.79667,2.311861 5.98472,1.108916 1.306744,-0.718439 3.204399,-2.817603 4.216979,-4.664858 1.984334,-3.620071 5.018969,-4.916356 10.392121,-4.439171 3.742863,0.332328 3.882442,-1.198546 0.276717,-3.03494 -4.496697,-2.290141 -8.153997,-1.782267 -11.448111,1.589743 -1.599582,1.637376 -3.388295,3.785582 -3.974983,4.773802 -1.054733,1.776562 -1.108576,1.773778 -4.799201,-0.24916 -4.973849,-2.726291 -9.419983,-2.650443 -12.883442,0.219948 -2.117911,1.755151 -2.950015,2.011253 -3.692893,1.136616 -0.527436,-0.620975 -2.237287,-1.868253 -3.799741,-2.771724 -2.280068,-1.318451 -2.840759,-1.388594 -2.840759,-0.355354 0,1.359589 7.066846,9.726999 8.215098,9.726999 0.369641,0 1.866179,-1.227551 3.325659,-2.727872 z M 129.54048,173.51449 c -2.17346,-1.7946 -4.57772,-4.45515 -5.34286,-5.91238 -1.42148,-2.70725 -2.05259,-10.37797 -0.9437,-11.47012 1.0107,-0.99537 11.71383,-1.31388 17.16271,-0.51069 4.74134,0.69889 5.09867,0.92773 5.39074,3.45202 0.5647,4.88068 -1.47689,9.19204 -6.42949,13.57746 -2.5853,2.28925 -4.96719,4.15424 -5.29311,4.14444 -0.32591,-0.0103 -2.37086,-1.48612 -4.54429,-3.28073 z m 36.72748,-15.07717 c -6.73301,-2.5883 -8.55313,-3.98147 -10.73053,-8.21341 -1.24373,-2.41723 -2.03382,-4.75751 -1.75574,-5.20064 0.60005,-0.95619 7.91413,-3.424 14.86338,-5.01495 5.51451,-1.2625 5.2468,-1.47355 6.41937,5.05984 0.65585,3.65426 -0.94642,8.00937 -4.36403,11.86187 -1.79645,2.025 -2.48057,2.25766 -4.43245,1.50729 z m -24.0048,-5.44065 c -1.81593,-0.52836 -7.17453,-0.73356 -12.23321,-0.46853 l -9.0018,0.47169 v -2.712 c 0,-3.38806 4.26946,-7.82314 8.2941,-8.61591 2.1431,-0.42213 3.34338,-1.47159 4.71793,-4.12516 1.94717,-3.75899 4.06948,-5.1969 5.53709,-3.75153 0.56184,0.55334 0.20343,1.47534 -0.98533,2.5349 -2.82234,2.51552 -2.27864,4.00268 2.14628,5.87073 4.86561,2.05407 8.17807,5.91588 7.80086,9.09454 -0.31475,2.65199 -1.70915,3.02999 -6.27592,1.70127 z m 9.4524,-10.51301 c -0.6287,-0.2062 -1.14305,-1.81419 -1.14305,-3.57292 0,-2.39722 0.75111,-3.93497 3.00058,-6.14311 1.65035,-1.61999 3.6238,-3.1643 4.38552,-3.43181 1.13091,-0.39714 1.00389,-0.84735 -0.69245,-2.45479 -2.1981,-2.08284 -2.58261,-3.30129 -1.2901,-4.08801 0.99363,-0.60483 3.30542,1.18576 4.55968,3.53164 0.5281,0.98774 1.72231,1.83839 2.65376,1.89039 0.93145,0.0519 2.85496,0.16461 4.27448,0.24984 3.00794,0.18146 7.11333,3.84731 7.11333,6.35204 0,1.42447 -0.87412,1.82154 -4.91373,2.23216 -2.70254,0.27459 -7.58922,1.69425 -10.85933,3.15457 -3.2701,1.46028 -6.46002,2.48624 -7.08869,2.27983 z"
       id="path1" /></g></svg>
