<?xml version="1.0" encoding="UTF-8" standalone="no"?>
<!-- Created with Inkscape (http://www.inkscape.org/) -->

<svg
   width="180mm"
   height="240mm"
   viewBox="0 0 180 240"
   version="1.1"
   id="svg1"
   sodipodi:docname="palm.svg"
   inkscape:version="1.4.2 (f4327f4, 2025-05-13)"
   xml:space="preserve"
   xmlns:inkscape="http://www.inkscape.org/namespaces/inkscape"
   xmlns:sodipodi="http://sodipodi.sourceforge.net/DTD/sodipodi-0.dtd"
   xmlns="http://www.w3.org/2000/svg"
   xmlns:svg="http://www.w3.org/2000/svg"><sodipodi:namedview
     id="namedview1"
     pagecolor="#505050"
     bordercolor="#ffffff"
     borderopacity="1"
     inkscape:showpageshadow="0"
     inkscape:pageopacity="0"
     inkscape:pagecheckerboard="1"
     inkscape:deskcolor="#505050"
     inkscape:document-units="mm"
     inkscape:zoom="0.70710678"
     inkscape:cx="125.86501"
     inkscape:cy="429.92092"
     inkscape:window-width="2560"
     inkscape:window-height="1351"
     inkscape:window-x="-9"
     inkscape:window-y="-9"
     inkscape:window-maximized="1"
     inkscape:current-layer="layer1"
     showguides="true" /><defs
     id="defs1"><rect
       x="101.82338"
       y="91.923882"
       width="384.66608"
       height="299.81326"
       id="rect3" /><rect
       x="2.8284271"
       y="2.1213202"
       width="662.55902"
       height="647.00269"
       id="rect2" /></defs><g
     inkscape:label="Icon"
     inkscape:groupmode="layer"
     id="layer1"><path
       style="fill:#000000;stroke-width:4.12645"
       d="m 77.543349,231.41533 c 0.375762,-2.17188 1.490081,-6.33851 2.476289,-9.2592 7.955849,-23.56185 13.230571,-75.28461 10.679826,-104.72426 -2.012081,-23.22282 -4.160037,-38.294368 -5.457622,-38.294368 -1.637968,0 -7.37005,8.183864 -10.184268,14.540409 -1.251988,2.827946 -2.589457,5.141679 -2.97214,5.141679 -0.382683,0 -1.17647,-1.750421 -1.763954,-3.889851 -0.587484,-2.139428 -1.259753,-3.646691 -1.493889,-3.349413 -0.234027,0.297091 -0.701604,3.783753 -1.038801,7.747806 -0.735847,8.650428 -2.043504,13.450008 -3.379032,12.402148 -0.538921,-0.42263 -1.828632,-2.80875 -2.866004,-5.30208 l -1.886131,-4.53327 -0.04285,11.92117 c -0.02197,6.55665 -0.444029,12.23598 -0.93435,12.62066 -0.490321,0.3845 -2.011678,-1.10491 -3.380789,-3.31027 l -2.489254,-4.00971 -0.04505,9.84103 c -0.0293,6.03806 -0.568366,11.02952 -1.399143,12.9164 l -1.354059,3.07533 -2.089285,-5.96023 C 39.762342,115.70935 46.21954,89.519935 63.263064,76.771651 c 3.565923,-2.667266 8.176434,-5.238896 10.245612,-5.7148 3.053592,-0.702278 3.451108,-1.086125 2.110709,-2.038399 -1.937624,-1.376522 -12.004036,-0.149708 -17.22287,2.098981 -4.437829,1.912217 -4.971916,1.335329 -3.07498,-3.321379 2.233582,-5.483217 0.965003,-5.503023 -4.189593,-0.06555 -4.973161,5.246149 -8.181012,7.71647 -10.020375,7.71647 -1.12245,0 -0.998221,-1.740053 0.614732,-8.610951 0.554523,-2.362132 -1.001041,-1.007089 -6.707742,5.843121 -7.117931,8.544279 -11.500641,11.65495 -9.532435,6.76573 0.476623,-1.183994 1.156509,-4.087353 1.510846,-6.451855 l 0.644214,-4.299176 -6.079532,7.543049 C 12.389008,87.617627 8.6967677,89.4827 10.34034,81.905153 13.222605,68.616943 21.68965,55.596442 31.542398,49.301035 c 12.63188,-8.071119 29.580767,-7.022744 42.732267,2.643229 3.638512,2.674241 6.615487,4.459671 6.615487,3.967634 0,-1.644045 -6.245768,-8.398849 -10.901363,-11.789828 -2.531518,-1.843918 -4.602784,-3.76469 -4.602784,-4.268351 0,-0.503707 1.199177,-1.666035 2.664793,-2.582973 2.604619,-1.629493 2.522581,-1.691002 -3.633788,-2.724361 -3.464219,-0.581442 -7.606713,-1.47253 -9.205567,-1.980143 l -2.907023,-0.922889 3.621775,-3.008386 c 1.991975,-1.654552 3.627196,-3.339278 3.633788,-3.743768 0.0073,-0.40449 -4.34854,-0.468838 -9.678088,-0.1432 -10.749777,0.657135 -11.969207,-0.29988 -6.310556,-4.953288 1.858736,-1.528508 3.385953,-3.055901 3.393828,-3.394185 0.0073,-0.33847 -3.368302,-0.438897 -7.502555,-0.223167 -4.134217,0.215262 -8.801385,-0.228283 -10.371452,-0.986073 l -2.854651,-1.377833 4.089865,-3.096118 c 6.403691,-4.8477486 17.565414,-7.2820839 25.200584,-5.4961423 7.8811,1.8435002 16.611727,7.4091023 21.354451,13.6131023 3.960876,5.181245 8.84526,16.04981 10.792114,24.014227 1.364497,5.582015 2.906693,8.347707 2.906693,5.212675 0,-3.896593 4.022478,-15.666847 7.823816,-22.893418 4.078918,-7.754268 12.472568,-15.6871157 19.792918,-18.7063349 6.11011,-2.5200684 19.36892,-1.9143091 25.73665,1.1758121 6.12766,2.9736558 9.45688,5.7055008 8.47389,6.9534238 -0.36887,0.468233 -4.94675,1.205474 -10.17306,1.638233 l -9.50236,0.78685 3.70469,2.923769 c 5.37273,4.240175 3.46121,5.467502 -7.56222,4.855419 l -9.33697,-0.518398 3.69022,4.011754 c 2.02963,2.206426 3.47217,4.0801 3.2057,4.163649 -0.26663,0.08369 -4.40897,0.84213 -9.20557,1.685655 -7.96464,1.400746 -8.48994,1.655668 -6.05628,2.939158 3.54066,1.867306 3.36435,2.972679 -0.96903,6.074982 -4.2205,3.021498 -12.160418,11.424809 -11.539528,12.212963 0.23292,0.295696 3.427368,-1.405814 7.098838,-3.781104 7.70498,-4.98481 16.34599,-8.120029 22.37963,-8.120029 11.98507,0 24.91906,7.36247 32.60667,18.560765 3.68957,5.374517 9.29061,19.012446 9.29061,22.621618 0,4.688881 -5.46473,0.525652 -12.95194,-9.867243 l -5.27893,-7.327601 1.27598,7.073283 c 1.74527,9.674715 0.53844,9.336058 -8.76725,-2.460278 -4.13635,-5.243452 -7.23495,-8.516384 -6.88578,-7.27325 0.34903,1.243134 0.91784,4.506815 1.26371,7.252607 l 0.62887,4.992342 -3.11739,-2.332051 c -1.71455,-1.282652 -5.0983,-4.407968 -7.51947,-6.9451 -5.31142,-5.565835 -6.30272,-5.762873 -4.8775,-0.969569 0.59583,2.003902 0.80499,3.996785 0.46479,4.42866 -0.34024,0.431921 -3.40071,-0.100419 -6.80121,-1.183158 -6.64273,-2.11488 -10.25802,-2.441821 -12.87956,-1.164793 -1.17842,0.574097 0.007,1.594994 4.15523,3.573928 13.99499,6.678928 22.11861,18.201421 25.43355,36.074879 1.96656,10.603 -0.54229,29.62001 -4.58458,34.75164 -1.47041,1.86661 -3.38841,-7.24805 -3.11673,-14.81147 0.33218,-9.25195 0.15675,-9.55653 -2.87399,-4.9902 -3.47187,5.23076 -3.82482,4.39593 -4.1804,-9.88751 l -0.26039,-10.45613 -1.87526,4.61301 c -1.03136,2.53713 -2.18784,4.61295 -2.56997,4.61295 -1.08645,0 -2.81517,-7.28301 -2.89043,-12.1773 -0.0374,-2.436197 -0.41796,-5.536592 -0.8455,-6.889729 -0.69593,-2.202428 -0.92498,-2.009109 -2.18597,1.845221 l -1.4086,4.305452 -2.70559,-5.535615 c -2.72819,-5.581736 -8.168666,-13.531416 -9.260425,-13.531416 -0.324488,0 0.397076,5.093931 1.603357,11.319829 5.509228,28.434518 7.549318,53.668968 6.839518,84.600628 -0.48633,21.19503 -2.05772,39.1843 -4.649958,53.23295 l -1.07813,5.84311 H 87.49945 76.86002 Z"
       id="path1" /></g></svg>
