<?xml version="1.0" encoding="UTF-8" standalone="no"?>
<!-- Created with Inkscape (http://www.inkscape.org/) -->

<svg
   width="180mm"
   height="240mm"
   viewBox="0 0 180 240"
   version="1.1"
   id="svg1"
   sodipodi:docname="pine.svg"
   inkscape:version="1.4.2 (f4327f4, 2025-05-13)"
   xml:space="preserve"
   xmlns:inkscape="http://www.inkscape.org/namespaces/inkscape"
   xmlns:sodipodi="http://sodipodi.sourceforge.net/DTD/sodipodi-0.dtd"
   xmlns="http://www.w3.org/2000/svg"
   xmlns:svg="http://www.w3.org/2000/svg"><sodipodi:namedview
     id="namedview1"
     pagecolor="#505050"
     bordercolor="#ffffff"
     borderopacity="1"
     inkscape:showpageshadow="0"
     inkscape:pageopacity="0"
     inkscape:pagecheckerboard="1"
     inkscape:deskcolor="#505050"
     inkscape:document-units="mm"
     inkscape:zoom="0.70710678"
     inkscape:cx="125.86501"
     inkscape:cy="429.92092"
     inkscape:window-width="2560"
     inkscape:window-height="1351"
     inkscape:window-x="-9"
     inkscape:window-y="-9"
     inkscape:window-maximized="1"
     inkscape:current-layer="layer1"
     showguides="true" /><defs
     id="defs1"><rect
       x="101.82338"
       y="91.923882"
       width="384.66608"
       height="299.81326"
       id="rect3" /><rect
       x="2.8284271"
       y="2.1213202"
       width="662.55902"
       height="647.00269"
       id="rect2" /></defs><g
     inkscape:label="Icon"
     inkscape:groupmode="layer"
     id="layer1"><path
       style="fill:#000000;stroke-width:1.13811"
       d="m 75.409846,232.74522 c 1.343164,-6.36567 3.397353,-24.69327 2.834315,-25.28804 -0.309293,-0.32673 -2.78089,0.53826 -5.492447,1.92219 -5.196882,2.65243 -18.058035,5.92991 -23.409564,5.96561 -3.86121,0.0257 -4.047604,-1.91695 -0.7503,-7.82051 1.329951,-2.3812 2.132961,-4.32945 1.784441,-4.32945 -0.34852,0 -3.619481,0.82154 -7.268798,1.82566 -8.858568,2.43745 -23.643064,2.26649 -30.922296,-0.35755 -3.168414,-1.14217 -5.7607647,-2.71947 -5.7607647,-3.50511 0,-0.78565 3.4383038,-4.17806 7.6406717,-7.53869 9.667193,-7.73084 35.619821,-38.23945 33.991879,-39.95917 -0.234707,-0.24794 -3.217184,-0.01 -6.627727,0.52851 -7.202067,1.13741 -16.547458,0.22448 -18.467741,-1.80407 -1.007563,-1.06437 -0.244132,-2.38415 3.136198,-5.42165 11.151943,-10.02096 21.451145,-21.31636 27.415936,-30.06779 3.567264,-5.2338 6.48593,-10.07618 6.48593,-10.76084 0,-0.7841 -2.735039,-1.0129 -7.389868,-0.61819 -13.2421,1.12288 -16.738976,-1.4992 -9.217076,-6.911259 C 50.912986,93.193923 68.729703,70.754249 68.193136,67.369315 68.113416,66.866784 64.941168,66.58958 61.143558,66.753308 52.575384,67.12271 52.28832,65.756481 59.387665,58.3962 68.625445,48.818874 80.758022,27.767046 86.885474,10.683393 90.192907,1.4621163 91.560795,1.2255326 94.614107,9.3466925 101.72828,28.268963 112.36789,46.648353 123.13033,58.607098 l 6.24769,6.942149 -3.0867,0.818387 c -1.69767,0.450112 -5.38303,0.485892 -8.18967,0.07952 -2.80666,-0.406382 -5.10302,-0.261906 -5.10302,0.321056 0,2.421307 11.42982,17.229482 20.55014,26.624237 6.98563,7.195803 9.43324,10.457573 8.54857,11.392113 -0.75597,0.79859 -4.87602,1.135 -10.56053,0.8623 -5.12652,-0.24594 -9.32095,-0.0947 -9.32095,0.33601 0,0.43075 2.19851,4.26108 4.88559,8.51185 5.86658,9.28054 16.75251,21.67427 25.55405,29.09347 10.62006,8.9521 8.18144,11.76074 -9.2158,10.61418 -11.50566,-0.75828 -11.55396,-1.40766 1.08908,14.63923 7.44342,9.44739 12.37925,14.54157 28.19989,29.10458 l 4.21449,3.87948 -4.60861,2.09418 c -2.53475,1.1518 -8.75638,2.33714 -13.82585,2.63409 -8.25836,0.48373 -12.96543,-0.0782 -24.11912,-2.87933 l -3.38036,-0.84894 3.14927,5.67678 c 2.60564,4.69684 2.85217,5.79723 1.42816,6.37448 -2.94426,1.19351 -17.63384,-1.81428 -24.47914,-5.01227 -3.59049,-1.6774 -6.78207,-2.7816 -7.09239,-2.45377 -0.46332,0.48943 0.37604,9.64962 2.34608,25.60332 0.28631,2.31861 -0.4585,2.45034 -15.68222,2.7738 l -15.982821,0.33959 z"
       id="path1" /></g></svg>
