<?xml version="1.0" encoding="UTF-8" standalone="no"?>
<!-- Created with Inkscape (http://www.inkscape.org/) -->

<svg
   width="180mm"
   height="180mm"
   viewBox="0 0 180 180"
   version="1.1"
   id="svg1"
   sodipodi:docname="purpleheart.svg"
   inkscape:version="1.4.2 (f4327f4, 2025-05-13)"
   xml:space="preserve"
   xmlns:inkscape="http://www.inkscape.org/namespaces/inkscape"
   xmlns:sodipodi="http://sodipodi.sourceforge.net/DTD/sodipodi-0.dtd"
   xmlns="http://www.w3.org/2000/svg"
   xmlns:svg="http://www.w3.org/2000/svg"><sodipodi:namedview
     id="namedview1"
     pagecolor="#505050"
     bordercolor="#ffffff"
     borderopacity="1"
     inkscape:showpageshadow="0"
     inkscape:pageopacity="0"
     inkscape:pagecheckerboard="1"
     inkscape:deskcolor="#505050"
     inkscape:document-units="mm"
     inkscape:zoom="0.70710678"
     inkscape:cx="125.86501"
     inkscape:cy="429.92092"
     inkscape:window-width="2560"
     inkscape:window-height="1351"
     inkscape:window-x="-9"
     inkscape:window-y="-9"
     inkscape:window-maximized="1"
     inkscape:current-layer="layer1"
     showguides="true" /><defs
     id="defs1"><rect
       x="101.82338"
       y="91.923881"
       width="384.66609"
       height="299.81327"
       id="rect3" /><rect
       x="2.8284271"
       y="2.1213203"
       width="662.55905"
       height="647.0027"
       id="rect2" /></defs><g
     inkscape:label="Icon"
     inkscape:groupmode="layer"
     id="layer1"><path
       style="fill:#000000;stroke-width:3.15744"
       d="m 61.255222,173.21729 c 5.701772,-7.72787 6.982335,-15.17644 7.714218,-44.87057 l 0.493302,-20.01448 -2.214978,-2.85507 c -2.785948,-3.59102 -5.012517,-4.83403 -12.050882,-6.727509 -3.088317,-0.830855 -7.383628,-2.474908 -9.545134,-3.653469 -3.22289,-1.757302 -4.276087,-1.971863 -5.853407,-1.192371 -2.8603,1.41351 -5.926549,1.158041 -9.243481,-0.770154 -1.77134,-1.029699 -3.154574,-1.379081 -3.44464,-0.870019 -0.266582,0.467827 -2.039097,0.850618 -3.938908,0.850618 -4.201038,0 -7.195018,-2.290697 -8.469842,-6.48029 C 14.025309,84.411872 13.208791,83.520972 11.468379,83.10635 8.6202704,82.427875 4.6028378,77.648656 3.8799749,74.079006 3.1240505,70.346125 5.4443132,65.462239 8.7976814,63.727824 c 2.2356056,-1.156266 2.6814696,-1.861377 2.6814696,-4.240595 0,-3.529106 3.881236,-8.644225 7.149899,-9.422895 2.15691,-0.513797 2.249779,-0.732305 1.868954,-4.396855 -0.687816,-6.618564 2.404922,-11.516984 8.276518,-13.108687 1.296656,-0.35152 3.314567,-1.747832 4.484249,-3.102941 1.357015,-1.57217 2.953733,-2.470699 4.41188,-2.482701 1.781575,-0.01315 2.550357,-0.636024 3.488428,-2.819358 1.78126,-4.145859 5.853668,-6.732142 10.600576,-6.732142 3.448687,0 4.270307,-0.372927 6.518802,-2.958716 3.40053,-3.91068 8.098187,-5.3314903 12.361009,-3.73857 3.074335,1.148834 3.173693,1.117825 6.413827,-2.0008343 7.344178,-7.0687984 18.745136,-7.055152 26.107627,0.032883 3.25296,3.1309903 3.38176,3.1726533 6.05776,1.9599603 4.2249,-1.9146474 8.51094,-0.7435844 12.14546,3.318391 2.70379,3.021785 3.45433,3.388826 6.93599,3.391719 4.74534,0.0033 8.52113,2.279879 10.83308,6.529846 1.18688,2.181822 2.21699,3.037241 3.65761,3.037241 1.19391,0 2.91509,1.05617 4.25341,2.61009 1.23639,1.435542 2.68571,2.61009 3.22073,2.61009 0.53499,0 2.36243,0.847133 4.06099,1.882554 4.0112,2.445149 5.90091,6.65901 5.26015,11.729507 -0.30997,2.45281 -0.17342,3.788519 0.38734,3.788519 0.47638,0 2.10976,0.640068 3.62971,1.422388 3.13384,1.612913 5.09941,5.07224 5.09941,8.974765 0,1.601074 0.41477,2.653298 1.04587,2.653298 1.71572,0 5.94358,5.457497 6.40289,8.265083 0.80303,4.908713 -2.80343,10.6079 -7.813,12.34659 -1.69626,0.588738 -2.55386,1.593577 -3.01796,3.536109 -0.35657,1.492528 -1.63656,3.563008 -2.8444,4.601092 -1.85333,1.592788 -2.88468,1.813039 -6.60796,1.410978 -3.01951,-0.3262 -5.0448,-0.09043 -6.41729,0.746609 -2.42503,1.478914 -6.45067,1.627282 -9.06735,0.334157 -1.57886,-0.780248 -2.62737,-0.564141 -5.8534,1.206347 -2.16152,1.186255 -6.94485,3.037931 -10.62964,4.11485 -5.26901,1.539914 -7.36732,2.646924 -9.82647,5.184174 -2.67036,2.75521 -3.1375,3.78563 -3.19991,7.05851 -0.29508,15.47452 1.01568,40.15317 2.58337,48.6389 1.01089,5.4718 2.91146,9.89364 5.91824,13.76934 l 2.08794,2.69134 -31.249727,-0.12232 -31.249731,-0.12233 z M 78.527738,93.052907 c -0.543781,-4.446048 -3.670456,-13.213716 -5.039463,-14.131382 -0.406165,-0.272272 -1.741161,0.6572 -2.966661,2.065481 -1.422714,1.634879 -3.376603,2.759675 -5.405102,3.111491 l -3.176927,0.550988 1.842689,2.139008 c 1.573731,1.826784 13.963612,10.675935 14.947603,10.675935 0.185575,0 0.09462,-1.985181 -0.20213,-4.411521 z m 30.220672,-0.240375 c 3.63577,-2.558596 7.29814,-5.494951 8.13859,-6.525209 1.51224,-1.853814 1.50934,-1.873248 -0.27986,-1.873248 -2.83696,0 -6.77091,-2.392075 -8.23346,-5.00644 l -1.33508,-2.386519 -2.48266,5.754201 c -2.28269,5.290714 -4.1626,14.68921 -2.93818,14.68921 0.28607,0 3.49486,-2.0934 7.13063,-4.651995 z m 19.84613,-1.525246 c 4.52318,-1.260736 5.26654,-2.056341 4.22903,-4.526119 -0.74133,-1.7647 -1.43697,-2.112208 -4.07794,-2.037103 -2.82063,0.08023 -3.42309,0.500216 -5.27733,3.67915 -1.15126,1.973705 -2.0932,3.848596 -2.0932,4.166444 0,0.566903 1.6122,0.280492 7.21944,-1.282372 z M 57.818225,90.286754 c -0.645091,-1.076656 -1.633281,-2.764509 -2.195977,-3.75077 -1.965977,-3.445845 -8.79065,-1.913134 -8.835763,1.984392 -0.01395,1.196679 6.406998,3.571097 9.906435,3.663367 2.198949,0.05787 2.247545,-0.02302 1.125305,-1.896989 z m 34.851646,-5.220181 c 2.266588,-3.257787 6.244744,-10.525889 6.244744,-11.40916 0,-0.329127 -1.105296,0.02302 -2.456214,0.779196 -2.850756,1.598904 -9.458514,1.872326 -11.840094,0.489891 -3.149654,-1.828263 -3.503096,-0.951733 -1.282207,3.179855 2.507012,4.663865 6.098254,9.787764 6.860085,9.787797 0.27853,3.3e-5 1.391687,-1.272376 2.473686,-2.827579 z"
       id="path1" /></g></svg>
