<?xml version="1.0" encoding="UTF-8" standalone="no"?>
<!-- Created with Inkscape (http://www.inkscape.org/) -->

<svg
   width="180mm"
   height="180mm"
   viewBox="0 0 180 180"
   version="1.1"
   id="svg1"
   sodipodi:docname="walnut.svg"
   inkscape:version="1.4.2 (f4327f4, 2025-05-13)"
   xml:space="preserve"
   xmlns:inkscape="http://www.inkscape.org/namespaces/inkscape"
   xmlns:sodipodi="http://sodipodi.sourceforge.net/DTD/sodipodi-0.dtd"
   xmlns="http://www.w3.org/2000/svg"
   xmlns:svg="http://www.w3.org/2000/svg"><sodipodi:namedview
     id="namedview1"
     pagecolor="#505050"
     bordercolor="#ffffff"
     borderopacity="1"
     inkscape:showpageshadow="0"
     inkscape:pageopacity="0"
     inkscape:pagecheckerboard="1"
     inkscape:deskcolor="#505050"
     inkscape:document-units="mm"
     inkscape:zoom="0.70710678"
     inkscape:cx="125.86501"
     inkscape:cy="429.92092"
     inkscape:window-width="2560"
     inkscape:window-height="1351"
     inkscape:window-x="-9"
     inkscape:window-y="-9"
     inkscape:window-maximized="1"
     inkscape:current-layer="layer1"
     showguides="true" /><defs
     id="defs1"><rect
       x="101.82338"
       y="91.923881"
       width="384.66609"
       height="299.81327"
       id="rect3" /><rect
       x="2.8284271"
       y="2.1213203"
       width="662.55905"
       height="647.0027"
       id="rect2" /></defs><g
     inkscape:label="Icon"
     inkscape:groupmode="layer"
     id="layer1"><path
       style="fill:#000000;stroke-width:3.53545"
       d="m 72.958265,170.14374 c 3.848155,-6.16061 5.827985,-17.4087 5.407917,-30.72422 -0.295196,-9.3573 -0.490281,-10.21776 -3.166008,-13.96458 -4.076664,-5.70855 -9.474615,-9.41084 -17.241801,-11.82555 -6.751999,-2.09916 -6.76888,-2.09965 -9.366418,-0.27756 -8.997873,6.31133 -22.49459,3.51747 -28.040462,-5.80449 -1.291336,-2.17056 -2.347883,-5.21081 -2.347883,-6.75612 0,-2.460193 -0.509813,-3.001413 -4.099188,-4.35172 -4.881708,-1.83651 -7.5047614,-4.392599 -9.6457191,-9.399543 -3.456499,-8.08348 -1.126241,-18.523705 5.3540754,-23.987724 3.4342747,-2.895684 3.5875397,-3.247736 2.7165177,-6.239425 -1.408571,-4.838024 -1.118429,-8.233803 1.08695,-12.721424 2.374703,-4.832199 8.201506,-9.298837 13.146655,-10.077787 3.10438,-0.488971 3.595035,-0.931238 4.125947,-3.718952 0.701211,-3.681933 5.199998,-9.084124 9.307378,-11.176401 2.063018,-1.050893 4.485101,-1.33017 8.667875,-0.999452 l 5.804831,0.459005 1.126003,-3.067377 c 1.295197,-3.528276 6.566823,-8.4147241 11.083617,-10.2737966 6.007226,-2.4724708 15.69369,-1.2291122 19.76314,2.5368242 l 2.162078,2.000834 2.603932,-3.048358 c 3.499458,-4.09676 9.695048,-6.66495464 16.222838,-6.72471194 9.4953,-0.087022 16.51357,4.51506104 20.25565,13.28194234 l 1.36855,3.20612 6.08869,-0.308436 c 7.14776,-0.362087 11.88294,1.556427 16.42858,6.656323 3.13851,3.521153 5.52509,11.341076 4.58606,15.026658 -0.5159,2.0248 -0.12823,2.48598 3.18871,3.793342 7.31365,2.882596 11.18279,9.642537 10.17075,17.769598 -0.36762,2.952038 0.0427,4.013598 2.67294,6.916195 8.53272,9.416105 5.11013,24.410165 -6.66726,29.208538 -2.67337,1.089211 -4.35706,2.426785 -4.68756,3.724045 -0.6969,2.735183 -4.89209,7.522223 -7.93289,9.052013 -4.63761,2.33313 -8.4431,2.62266 -13.57781,1.03297 -4.83663,-1.49738 -5.01777,-1.48362 -10.20207,0.77617 -2.90287,1.26536 -6.95454,2.74533 -9.00364,3.28886 -5.57759,1.47944 -11.10457,6.68454 -14.66028,13.80639 -2.95515,5.91903 -3.09593,6.67854 -2.961,15.97604 0.16036,11.05061 2.02483,20.15585 5.51752,26.94545 l 2.38373,4.63373 H 90.328538 70.057879 Z m 33.961165,-60.02828 c 2.59254,-2.75971 6.66163,-8.9351 7.67859,-11.653303 0.43669,-1.167142 -0.51894,-2.32811 -3.60505,-4.379789 l -4.19925,-2.791679 -2.80014,5.46416 c -3.39115,6.617481 -6.163895,16.028921 -5.343092,18.135931 0.544344,1.39737 0.837429,1.36989 3.195052,-0.29931 1.42765,-1.01086 3.7109,-3.02499 5.07389,-4.47587 z m -24.626629,1.22101 c 0,-6.28451 -5.32633,-20.1061 -7.748157,-20.1061 -1.58847,0 -6.389165,4.747985 -6.389165,6.319008 0,3.304792 10.671896,17.819602 13.101724,17.819602 0.59352,0 1.035598,-1.72141 1.035598,-4.03251 z m -17.201997,-3.62688 c -0.241372,-0.63827 -1.008141,-2.72718 -1.703902,-4.64201 -0.950573,-2.61613 -1.789822,-3.481543 -3.376283,-3.481543 -2.429981,0 -2.715014,0.34318 -3.577046,4.305683 -0.601214,2.76365 -0.449787,2.96109 2.95225,3.84977 5.018396,1.31091 6.210273,1.30424 5.704981,-0.0316 z m 61.057986,-2.96993 c 3.63664,-1.49681 3.77421,-1.85381 2.09031,-5.425493 -0.85503,-1.813598 -1.88221,-2.500859 -3.74576,-2.506123 -2.57793,-0.007 -4.24684,2.040203 -5.85886,7.187926 -0.56236,1.79581 -0.31026,2.08891 1.79586,2.08891 1.3475,0 3.9208,-0.60536 5.71845,-1.34522 z M 96.807309,93.84941 101.4257,85.345805 99.294737,83.646073 c -2.896521,-2.310428 -3.326908,-2.190632 -5.567196,1.549654 -1.070458,1.787174 -2.399632,3.249421 -2.953722,3.249421 -0.554087,0 -2.019891,0.65347 -3.257342,1.452175 -2.222653,1.434561 -2.2305,1.493617 -0.647661,4.874131 2.438611,5.208213 3.903133,7.600756 4.646406,7.590656 0.370536,-0.004 2.751979,-3.835733 5.292087,-8.5127 z m 59.569151,79.99402 c -4.27873,-1.29336 -8.11329,-5.44097 -8.08611,-8.74625 0.0249,-3.17759 5.766,-11.66351 7.88919,-11.66351 0.71325,0 2.51164,-0.6241 3.99642,-1.38688 3.60092,-1.84994 8.82575,-1.85335 8.82575,-0.007 0,0.76593 -0.82321,1.39259 -1.82935,1.39259 -3.18585,0 -3.05469,1.72363 0.15425,2.0288 4.68003,0.445 4.42915,2.86337 -0.65452,6.30876 -7.68977,5.21166 -14.82179,4.61117 -9.5546,-0.80442 2.77054,-2.84863 3.06111,-3.81949 1.1431,-3.81949 -1.85763,0 -7.16632,6.20059 -7.16632,8.37027 0,2.44401 3.22286,3.10731 8.95228,1.84251 8.04838,-1.77675 13.66747,-6.28308 13.66747,-10.96095 0,-1.34698 0.45407,-2.03824 1.17808,-1.79339 2.05398,0.69463 1.45564,10.39419 -0.82724,13.41111 -3.76104,4.97034 -11.78131,7.61219 -17.68855,5.82656 z m -25.0002,-11.20616 c -13.07822,-2.5278 -16.51952,-19.09296 -6.00866,-28.9235 2.48169,-2.32106 3.00625,-2.45486 5.97688,-1.52457 11.50873,3.60411 16.44122,10.33327 14.61259,19.93521 -0.65216,3.42427 -7.35971,11.6119 -9.35562,11.42003 -0.58192,-0.0558 -2.93326,-0.46416 -5.22519,-0.90717 z m 2.73078,-11.371 c -1.09878,-2.89292 -2.20797,-5.25984 -2.46483,-5.25984 -0.25683,0 -0.25042,0.73112 0.0143,1.62471 3.30372,11.15002 3.8457,12.57096 4.13103,10.83028 0.17455,-1.0644 -0.58177,-4.30224 -1.68055,-7.19515 z m -7.97774,1.25957 c -0.84808,-1.61549 -1.46857,-3.84766 -1.37891,-4.96042 0.0898,-1.11276 0.10971,-3.48543 0.0442,-5.27264 -0.15958,-4.36284 -1.94857,-1.79391 -1.93974,2.78522 0.007,3.33265 3.35146,11.82801 4.2923,10.9012 0.28818,-0.28388 -0.16992,-1.83792 -1.01793,-3.45336 z m 13.71987,-11.03671 c -1.95715,-3.77907 -3.54791,-5.35862 -4.47596,-4.44443 -0.2839,0.27966 0.35586,1.60022 1.42173,2.93488 1.06576,1.33462 2.49248,4.80332 3.17054,7.70823 l 1.23283,5.28166 0.28675,-3.88398 c 0.18808,-2.54496 -0.37609,-5.1639 -1.63589,-7.59636 z m 18.78516,1.65401 c -6.23927,-1.18136 -10.80211,-6.23834 -11.59747,-12.85347 -0.69953,-5.81842 -0.67887,-5.86372 4.29308,-9.41158 4.78552,-3.41483 11.37092,-3.73386 16.60095,-0.80425 4.66422,2.61265 6.58871,5.45427 7.83543,11.56937 l 1.05558,5.17762 -3.20324,2.70901 c -2.68986,2.27484 -8.57511,4.86048 -10.27188,4.51285 -0.25932,-0.053 -2.37977,-0.45788 -4.71245,-0.89955 z m 3.76998,-4.56398 c -0.77759,-0.49497 -2.22197,-0.90636 -3.20976,-0.91419 -0.98782,-0.007 -3.27149,-1.12279 -5.07483,-2.47773 -1.82158,-1.36863 -3.08544,-1.88441 -2.84374,-1.16051 0.73117,2.18996 6.52281,5.48167 9.61833,5.46661 2.23429,-0.0105 2.59036,-0.22632 1.51,-0.91418 z m 7.45321,-4.10848 c -0.2205,-0.2172 -4.17955,-1.89546 -8.798,-3.72955 -4.61841,-1.83409 -8.962,-3.79646 -9.65235,-4.36088 -0.69038,-0.56438 -1.25231,-0.66168 -1.24879,-0.21615 0.0107,1.46035 6.37802,5.12278 11.95842,6.87939 5.23741,1.64864 8.59371,2.26748 7.74072,1.42722 z m -1.32854,-9.52843 c -4.57467,-3.43873 -11.89459,-5.14449 -13.19335,-3.07443 -0.34411,0.54831 0.70905,0.9284 2.57213,0.9284 1.73505,0 5.04701,0.95355 7.35992,2.11898 4.54987,2.29257 6.29448,2.30706 3.2613,0.0281 z"
       id="path1" /></g></svg>
