<?xml version="1.0" encoding="UTF-8" standalone="no"?>
<!-- Created with Inkscape (http://www.inkscape.org/) -->

<svg
   width="180mm"
   height="180mm"
   viewBox="0 0 180 180"
   version="1.1"
   id="svg1"
   sodipodi:docname="trader_luxuries.svg"
   inkscape:version="1.4.2 (f4327f4, 2025-05-13)"
   xml:space="preserve"
   xmlns:inkscape="http://www.inkscape.org/namespaces/inkscape"
   xmlns:sodipodi="http://sodipodi.sourceforge.net/DTD/sodipodi-0.dtd"
   xmlns="http://www.w3.org/2000/svg"
   xmlns:svg="http://www.w3.org/2000/svg"><sodipodi:namedview
     id="namedview1"
     pagecolor="#505050"
     bordercolor="#ffffff"
     borderopacity="1"
     inkscape:showpageshadow="0"
     inkscape:pageopacity="0"
     inkscape:pagecheckerboard="1"
     inkscape:deskcolor="#505050"
     inkscape:document-units="mm"
     inkscape:zoom="0.70710678"
     inkscape:cx="-161.22035"
     inkscape:cy="644.88139"
     inkscape:window-width="2560"
     inkscape:window-height="1351"
     inkscape:window-x="-9"
     inkscape:window-y="-9"
     inkscape:window-maximized="1"
     inkscape:current-layer="layer1"
     showguides="true" /><defs
     id="defs1"><rect
       x="101.82338"
       y="91.923881"
       width="384.66609"
       height="299.81327"
       id="rect3" /><rect
       x="2.8284271"
       y="2.1213203"
       width="662.55905"
       height="647.0027"
       id="rect2" /></defs><g
     inkscape:label="Icon"
     inkscape:groupmode="layer"
     id="layer1"><path
       style="fill:#000000;stroke-width:13.4715"
       d="M 36.883374,124.51242 C 17.262064,100.74264 1.2080914,80.098344 1.2080914,78.636226 c 0,-1.462733 8.3853514,-2.658509 18.6340706,-2.658509 h 18.634073 l 11.955322,29.046033 c 6.575434,15.97538 15.449788,36.70826 19.720907,46.07306 4.271118,9.36493 6.559734,16.93841 5.086006,16.83015 -1.473845,-0.10603 -18.733669,-19.64477 -38.355096,-43.41454 z m 32.778886,1.32342 C 59.918485,102.57742 51.946392,81.844537 51.946392,79.762801 c 0,-2.16533 16.283015,-3.784933 38.053665,-3.784933 24.112733,0 38.053673,1.519209 38.053673,4.146669 0,6.657075 -35.180291,87.999423 -38.059426,87.999423 -1.438967,0 -10.588387,-19.02969 -20.332044,-42.28812 z m 49.4271,3.22618 c 21.95762,-52.551146 22.38681,-53.084152 42.75278,-53.084152 9.32239,0 16.94162,1.352193 16.93167,3.00481 -0.024,3.37653 -71.42679,89.141282 -74.21771,89.141282 -0.9828,0 5.55654,-17.57786 14.53326,-39.06194 z M 1.2080914,61.635268 c 0,-1.277987 8.5356478,-13.107456 18.9681046,-26.28761 C 36.972665,14.127357 40.395336,11.526702 50.072354,12.631623 L 61.000407,13.879331 49.841874,38.919082 38.683342,63.958679 H 19.945717 c -10.3056513,0 -18.7376256,-1.046322 -18.7376256,-2.323564 z m 50.7383006,0.20593 c 0,-1.164419 4.301564,-12.883206 9.558961,-26.04124 l 9.559081,-23.923923 h 18.935623 18.935503 l 9.55909,23.923923 c 5.25739,13.158034 9.55908,24.876669 9.55908,26.04124 0,1.164432 -17.12415,2.117329 -38.053673,2.117329 -20.929517,0 -38.053665,-0.952442 -38.053665,-2.117329 z M 130.40491,38.91893 119.50202,13.879177 l 11.0967,-1.279505 c 9.84061,-1.13414 13.19616,1.346141 29.64494,21.909568 10.20149,12.753896 18.54825,24.597599 18.54825,26.319107 0,1.721656 -8.4339,3.130182 -18.74207,3.130182 H 141.3078 Z"
       id="path2" /></g></svg>
