<?xml version="1.0" encoding="UTF-8" standalone="no"?>
<!-- Created with Inkscape (http://www.inkscape.org/) -->

<svg
   width="180mm"
   height="180mm"
   viewBox="0 0 180 180"
   version="1.1"
   id="svg1"
   sodipodi:docname="trader_treasure.svg"
   inkscape:version="1.4.2 (f4327f4, 2025-05-13)"
   xml:space="preserve"
   xmlns:inkscape="http://www.inkscape.org/namespaces/inkscape"
   xmlns:sodipodi="http://sodipodi.sourceforge.net/DTD/sodipodi-0.dtd"
   xmlns="http://www.w3.org/2000/svg"
   xmlns:svg="http://www.w3.org/2000/svg"><sodipodi:namedview
     id="namedview1"
     pagecolor="#505050"
     bordercolor="#ffffff"
     borderopacity="1"
     inkscape:showpageshadow="0"
     inkscape:pageopacity="0"
     inkscape:pagecheckerboard="1"
     inkscape:deskcolor="#505050"
     inkscape:document-units="mm"
     inkscape:zoom="1"
     inkscape:cx="493"
     inkscape:cy="375"
     inkscape:window-width="2560"
     inkscape:window-height="1351"
     inkscape:window-x="-9"
     inkscape:window-y="-9"
     inkscape:window-maximized="1"
     inkscape:current-layer="layer1"
     showguides="true" /><defs
     id="defs1"><rect
       x="101.82338"
       y="91.923881"
       width="384.66609"
       height="299.81327"
       id="rect3" /><rect
       x="2.8284271"
       y="2.1213203"
       width="662.55905"
       height="647.0027"
       id="rect2" /></defs><g
     inkscape:label="Icon"
     inkscape:groupmode="layer"
     id="layer1"><path
       style="fill:#000000;stroke-width:1.24208"
       d="m 43.824172,174.79512 c -4.072045,-0.49778 -6.814211,-1.85345 -8.017319,-3.96362 -0.804629,-1.41127 -0.804629,-6.6675 0,-8.07876 1.104212,-1.9367 3.715943,-3.53727 7.011695,-4.297 2.480209,-0.57175 10.106172,-0.58373 12.495412,-0.0196 2.572148,0.60728 5.641162,2.19832 6.645406,3.44513 2.439481,3.02867 2.139029,8.13262 -0.62232,10.57174 -1.243315,1.09821 -3.725708,1.99874 -6.424577,2.33062 -2.803688,0.34476 -8.31541,0.35049 -11.088297,0.0121 z m 11.352141,-6.90222 c 4.059409,-1.06159 4.753974,-3.3471 1.502539,-4.94424 -2.120572,-1.04162 -11.417098,-0.9674 -14.743866,0.11773 -3.033887,0.98959 -2.649869,3.1458 0.776471,4.35976 3.35111,1.18731 8.913148,1.39558 12.464856,0.46676 z m 5.110396,-10.07881 c -10.174115,-4.78582 -18.569273,-8.63435 -18.655928,-8.5523 -0.08666,0.0821 -0.375745,1.33274 -0.642424,2.7793 -0.625665,3.39376 -1.388506,4.75671 -3.376931,6.03345 -2.375788,1.52547 -4.541556,2.0435 -9.339375,2.23387 -5.161287,0.2048 -8.765672,-0.38332 -12.374346,-2.01909 -4.067604,-1.84381 -4.820156,-3.36198 -4.8211,-9.72588 -6.64e-4,-4.36636 0.643254,-8.9543 1.468931,-10.4663 0.289105,-0.5294 1.257254,-1.40712 2.151434,-1.95049 1.44505,-0.87809 6.432593,-2.59641 8.956302,-3.08565 l 0.928721,-0.18003 V 110.78727 88.693559 L 20.675727,84.832536 C 18.527279,82.708971 15.815071,79.76731 14.648595,78.295508 9.8000653,72.17787 6.9403434,65.229477 6.0292248,57.352629 4.095556,40.635758 10.605179,26.720869 23.195786,20.657597 25.634334,19.483262 30.27379,18.538813 44.416625,16.337686 62.542018,13.516731 67.027208,12.769162 73.486746,11.492428 76.516419,10.893608 84.722875,9.6201105 91.723294,8.6624345 98.723719,7.704759 107.56676,6.479178 111.37448,5.9389211 c 8.87981,-1.2599039 12.59655,-1.3004938 16.64815,-0.1818086 5.17172,1.4279575 8.64296,3.352272 12.68095,7.0297855 2.66008,2.422615 3.42916,3.502823 3.42916,4.816436 0,1.067766 -2.54668,7.305324 -9.79322,23.986463 -3.2092,7.387416 -6.19911,14.347589 -6.64421,15.46705 -0.96243,2.420514 -1.25499,2.063138 3.89348,4.75603 3.49364,1.827337 5.31152,3.243196 7.40915,5.770609 0.86682,1.044436 1.96743,1.73742 4.9774,3.133993 2.12547,0.986177 5.48494,2.786516 7.4655,4.000753 3.50555,2.149177 5.33347,3.050379 16.43528,8.102961 4.89681,2.228614 5.38523,2.528164 5.90998,3.624707 0.52271,1.09226 0.56527,3.139319 0.49355,23.74135 -0.0431,12.40029 -0.17274,24.49726 -0.28793,26.88212 l -0.20941,4.33613 -2.75151,0.56759 c -2.54095,0.52416 -20.72034,5.49496 -25.37836,6.93921 -1.11444,0.34554 -3.77395,1.04549 -5.90999,1.55545 -2.13604,0.50995 -12.69804,3.32865 -23.47112,6.26377 -23.893965,6.5099 -34.743589,9.38213 -36.304254,9.61084 -1.040088,0.15241 -3.402894,-0.87148 -19.680367,-8.52827 z m 47.204071,-4.96091 c 13.18772,-3.62926 24.28163,-6.67556 24.65311,-6.76958 0.37149,-0.094 0.82741,-0.27414 1.01314,-0.40023 0.50451,-0.34251 3.58347,-1.15006 20.21451,-5.30185 l 15.14878,-3.78176 -0.17944,-9.44859 c -0.2485,-13.08426 -0.26343,-24.58365 -0.0391,-30.075802 0.1122,-2.746354 0.0578,-4.817749 -0.13356,-5.08011 -0.26635,-0.365293 -2.70593,0.122865 -13.90805,2.783031 -7.47177,1.77432 -13.65103,3.288521 -13.73168,3.364898 -0.0807,0.07643 -0.10061,0.918872 -0.0442,1.872213 l 0.10235,1.73335 11.46242,-2.503971 c 9.26296,-2.023496 11.54337,-2.42585 11.88429,-2.09684 0.30945,0.298658 0.60315,5.117001 1.10226,18.083481 0.37422,9.72199 0.7763,17.82327 0.89349,18.00285 0.34502,0.52864 -0.49196,1.21459 -1.47128,1.20574 -0.49864,-0.005 -17.67425,4.32131 -38.16801,9.61289 -29.125972,7.52045 -37.402652,9.54946 -37.9084,9.29315 -0.612927,-0.31064 -0.649202,-0.81161 -0.688783,-9.51095 -0.02298,-5.05067 -0.136971,-13.52261 -0.253289,-18.82652 l -0.211499,-9.64348 13.300611,-3.37808 c 7.31535,-1.85794 13.3746,-3.44812 13.46499,-3.53372 0.0904,-0.0856 0.0591,-0.9537 -0.0697,-1.92915 -0.156,-1.18235 -0.38851,-1.77354 -0.69749,-1.77354 -0.25491,0 -7.31065,1.59533 -15.679398,3.54517 l -15.215915,3.54518 v 23.74456 c 0,13.05951 0.09087,23.83059 0.201876,23.93572 0.111046,0.10516 0.376971,0.13254 0.590997,0.061 0.214014,-0.0717 11.179085,-3.09969 24.36682,-6.72894 z M 77.042321,152.6409 c 0.121513,-3.03412 0.221443,-13.46653 0.222017,-23.18315 l 0.001,-17.66658 -3.968147,-1.8827 C 62.437072,104.7558 33.315449,92.598145 31.833256,92.598145 c -0.288454,0 -0.525123,0.598887 -0.66351,1.678956 -0.381989,2.98133 -0.04442,38.544719 0.36958,38.936509 0.204556,0.19356 1.17342,0.55216 2.153018,0.79687 l 1.781101,0.44492 -0.251196,-17.92409 -0.251195,-17.924091 0.799893,0.22805 C 38.341233,99.568119 65.8628,111.51042 69.5634,113.49868 l 2.467407,1.32567 0.256467,2.19934 c 0.141056,1.20962 0.217039,9.19666 0.168855,17.74897 l -0.08756,15.54968 -1.033794,-0.0406 c -1.201143,-0.0472 -6.610063,-2.37223 -21.424183,-9.20943 -5.850899,-2.70037 -10.67796,-4.87599 -10.726795,-4.83471 -0.19197,0.16222 1.698058,3.85908 2.625783,5.13596 0.851448,1.1719 1.762657,1.7292 6.821436,4.17207 9.432756,4.55504 27.069108,12.59287 27.652538,12.60274 0.463192,0.007 0.568508,-0.75653 0.758819,-5.50749 z m -47.466683,3.26668 c 2.269412,-0.34874 5.290432,-1.31513 6.302961,-2.01624 0.508161,-0.35186 0.143825,-0.34803 -2.046489,0.0215 -2.66396,0.44951 -12.678219,0.38479 -15.244547,-0.0985 -1.626847,-0.30638 -1.390152,0.4189 0.378504,1.15978 2.732286,1.1445 6.868151,1.50838 10.609571,0.93344 z M 127.20203,141.548 c 19.75685,-5.09439 35.97376,-9.31197 36.03759,-9.3724 0.1485,-0.14064 -1.09794,-32.545271 -1.25749,-32.691951 -0.0657,-0.0603 -5.28635,1.015881 -11.60151,2.391651 -8.1699,1.77982 -11.60393,2.40565 -11.90442,2.16949 -0.26781,-0.21048 -0.42231,-1.19139 -0.42231,-2.68122 0,-1.737761 -0.10989,-2.314411 -0.42214,-2.215241 -0.23218,0.0737 -1.0519,0.28653 -1.82162,0.47285 l -1.39946,0.33879 -0.007,4.713881 c -0.01,7.96544 -1.45402,11.73801 -4.96153,12.96534 -2.06303,0.7219 -6.04113,0.82361 -7.44957,0.19046 -1.91578,-0.86119 -2.32803,-2.31901 -2.4613,-8.70391 -0.0956,-4.57814 -0.20732,-5.66651 -0.56832,-5.53533 -0.24716,0.0898 -1.00664,0.2623 -1.68775,0.38328 l -1.23838,0.22002 0.23182,2.77366 c 0.17916,2.14351 0.12869,2.85476 -0.22213,3.13047 -0.24969,0.19623 -6.26631,1.83254 -13.37029,3.63627 l -12.916303,3.27949 4.98e-4,5.30142 c 2.81e-4,2.91578 0.100969,10.5924 0.223739,17.05917 0.2,10.53416 0.279034,11.74104 0.759361,11.59705 0.29486,-0.0884 16.700815,-4.32885 36.457655,-9.42324 z m -33.84809,4.61798 c -0.118836,-0.29319 -0.216016,-1.51846 -0.216016,-2.72284 v -2.18976 l 1.773002,-0.47325 c 0.975149,-0.26028 11.499164,-3.00963 23.386694,-6.10965 27.40516,-7.14668 28.4085,-7.42563 29.38111,-8.16851 0.38175,-0.29156 11.34942,-3.52267 11.95739,-3.52267 0.27923,0 0.36555,0.89898 0.29697,3.09326 l -0.0966,3.09326 -5.57227,1.33121 c -12.02418,2.87257 -14.01286,3.39184 -23.80884,6.21656 -11.28492,3.2541 -34.035039,9.47909 -35.767263,9.78682 -0.861289,0.15302 -1.167712,0.0761 -1.33412,-0.33443 z m 0.0087,-9.3286 c -0.291626,-0.27617 -0.256129,-5.66326 0.04758,-7.22571 l 0.233819,-1.20276 4.999755,-1.60417 c 5.359026,-1.71943 9.029486,-3.23077 9.697506,-3.99297 0.62891,-0.7176 -0.63299,-0.62048 -7.06184,0.5435 -3.085033,0.55856 -6.141034,1.02627 -6.79113,1.03935 l -1.181997,0.0238 -0.103441,-1.90548 c -0.137826,-2.54027 0.08613,-3.22257 1.196654,-3.64609 1.990063,-0.75895 17.480074,-4.57282 18.788224,-4.62594 1.38095,-0.056 1.38244,-0.0549 1.78513,1.46634 0.22167,0.83737 0.70914,1.98866 1.08327,2.55842 1.02868,1.56654 3.4378,3.66328 4.84739,4.21881 1.64551,0.64852 6.66395,0.65501 8.95196,0.0121 3.86125,-1.08585 7.16119,-4.46371 8.49825,-8.69888 0.37694,-1.19396 0.95746,-3.02941 1.29005,-4.07881 0.46876,-1.47904 0.83247,-2.02962 1.61785,-2.44906 1.59601,-0.85234 17.33838,-4.29665 17.77,-3.88792 0.23056,0.21834 0.37814,3.11482 0.41273,8.1004 l 0.0539,7.76055 -7.09199,2.03955 c -3.9006,1.12172 -9.97946,2.89547 -13.50856,3.94162 -9.69799,2.87482 -43.724852,11.82707 -44.953876,11.82707 -0.195851,0 -0.457403,-0.096 -0.581238,-0.21321 z m -61.351364,12.25749 c 1.02158,-0.22988 2.313346,-0.66852 2.870571,-0.97476 0.557225,-0.30624 0.75074,-0.48148 0.430031,-0.38944 -3.043828,0.87358 -13.183582,1.01728 -16.55588,0.23462 -0.696531,-0.16165 -1.266418,-0.17706 -1.266418,-0.0342 0,0.2203 1.252761,0.73441 3.377135,1.38592 1.109153,0.34015 9.378254,0.17536 11.144561,-0.2221 z m -0.230517,-5.37531 c 5.02036,-1.00594 5.68073,-3.5127 1.339059,-5.08304 -5.254056,-1.9003 -16.054334,-0.56745 -16.586005,2.04686 -0.252753,1.24284 2.345359,2.86677 5.41954,3.38742 2.054709,0.34798 7.267588,0.16167 9.827406,-0.35124 z m 36.223892,-6.948 C 67.612886,136.1713 41.700922,124.25851 40.78702,124.25851 c -0.210211,0 -0.333064,0.25184 -0.273009,0.55964 0.140161,0.71842 3.220981,2.24157 14.764557,7.29962 8.779176,3.84675 12.547616,5.3431 12.81603,5.08891 0.066,-0.0625 0.02552,-0.25826 -0.08998,-0.43512 z m 0.142241,-12.32354 c 0,-0.82045 -23.912918,-11.84484 -26.582354,-12.25505 -3.794275,-0.58307 3.024083,2.9239 16.9575,8.72196 4.457825,1.85501 8.409084,3.50037 8.780568,3.65633 0.371483,0.15595 0.713418,0.2933 0.759853,0.3052 0.04646,0.0121 0.08437,-0.18089 0.08437,-0.42844 z m 60.476788,-10.07876 0.98716,-0.93481 -0.005,-4.10207 c -0.007,-4.78188 -0.29848,-5.65006 -1.9561,-5.80211 -0.89008,-0.0816 -1.33467,0.1199 -2.31735,1.05046 l -1.21598,1.15148 0.2349,2.78716 c 0.53226,6.31574 1.86024,8.13406 4.27235,5.84989 z m -26.19881,-12.02145 c 38.76035,-9.221306 60.90762,-14.933656 60.72435,-15.662376 -0.0783,-0.311054 -5.72161,-2.575032 -7.16928,-2.87613 -1.33992,-0.278684 -1.34769,0.174626 -0.03,1.750054 0.8181,0.978154 0.92496,1.275423 0.56123,1.56129 -0.24712,0.194203 -2.41152,0.845401 -4.8098,1.447107 -9.59126,2.406361 -63.364316,14.923915 -66.869065,15.566105 l -3.746347,0.68647 -3.650489,-1.18118 C 71.430428,101.69608 58.12962,96.049507 46.385331,90.457432 l -4.707195,-2.24135 2.474479,-0.347787 c 2.610504,-0.366905 3.584767,-0.839388 2.744653,-1.331066 -0.261125,-0.152822 -1.019701,-0.200724 -1.68574,-0.10645 -2.167542,0.306811 -9.260812,1.691071 -9.415359,1.837419 -0.08284,0.07838 1.197454,0.737957 2.844941,1.465729 14.734038,6.508712 28.974326,12.589993 36.725733,15.683613 4.211288,1.68075 4.946852,1.88035 6.288806,1.70662 0.835837,-0.10818 10.182083,-2.25756 20.769421,-4.77635 z M 84.943908,97.705253 c 1.530047,-0.713068 2.941118,-1.57823 3.135744,-1.922588 0.194613,-0.344359 0.262862,-0.6261 0.151661,-0.6261 -0.111173,0 -1.986791,0.575119 -4.167979,1.278055 -2.543851,0.819797 -4.903339,1.353094 -6.580566,1.487362 -2.748483,0.220002 -2.955004,0.521407 -0.718331,1.048327 2.433148,0.57319 5.130078,0.15608 8.179471,-1.265056 z m 12.20328,-0.320259 c 1.361897,-0.357386 3.030532,-0.921151 3.708072,-1.252816 2.93207,-1.435297 5.72912,-5.464534 6.0605,-8.730364 0.13174,-1.298329 0.0312,-1.675431 -0.62161,-2.333544 -1.02009,-1.028238 -1.80764,-0.990349 -4.34196,0.208883 -2.495503,1.180882 -5.636837,3.844398 -7.126205,6.042254 -1.228382,1.812742 -2.729913,5.633257 -2.467991,6.279608 0.24952,0.61577 1.909805,0.541568 4.789194,-0.214021 z m 12.566292,-4.266649 c 0.63766,-1.32975 0.90882,-3.796716 0.35422,-3.222519 -0.29931,0.309886 -1.73285,4.199777 -1.73285,4.702099 0,0.604989 0.78086,-0.233049 1.37863,-1.47958 z m -26.639074,0.148888 c 2.324731,-0.849304 5.335335,-3.290869 5.335335,-4.326872 0,-1.592527 -2.300211,-2.413895 -6.767762,-2.416659 -4.641,-0.0029 -8.271603,1.149344 -10.615545,3.368959 -1.810635,1.714605 -1.48204,2.96614 1.008649,3.841685 2.065355,0.726042 8.521178,0.452876 11.039323,-0.467113 z M 64.505567,88.517319 c 2.032652,-0.912815 5.329898,-3.535743 5.329898,-4.239882 0,-0.364929 -0.645462,-0.09332 -2.745637,1.155386 -1.815844,1.079642 -5.117748,2.360243 -8.736634,3.388388 l -3.20828,0.911491 3.61951,-0.131308 c 3.149745,-0.11427 3.894894,-0.254968 5.741143,-1.084075 z m 58.857563,0.392499 c -0.78005,-0.27722 -8.06814,-1.730022 -8.17432,-1.629466 -0.0638,0.06041 0.11423,0.290735 0.39554,0.511843 1.00977,0.793588 3.09453,1.259868 5.58364,1.248852 1.39308,-0.0062 2.38089,-0.06522 2.19514,-0.131229 z m 9.5437,-0.394248 c 0.0776,-0.222673 -0.36257,-0.850347 -0.97809,-1.394834 l -1.11913,-0.989973 -0.93709,1.062952 c -1.43006,1.622105 -1.26224,1.934817 0.97808,1.822625 1.16809,-0.0585 1.9702,-0.253839 2.05623,-0.50077 z m 8.86172,-2.011738 c -0.27862,-0.18045 -1.41841,-0.773022 -2.53286,-1.316825 -2.66601,-1.30089 -4.70511,-2.637512 -6.66985,-4.372053 -1.82454,-1.610778 -2.07822,-1.296917 -0.59821,0.740126 1.78267,2.45359 6.67285,5.282297 9.1255,5.278618 0.91226,-0.0014 1.06639,-0.07665 0.67542,-0.329866 z M 96.712532,83.791204 c 1.921433,-1.326002 3.580468,-2.544119 3.686708,-2.706927 0.10638,-0.162808 -0.609007,-0.680967 -1.589503,-1.151463 -3.315788,-1.591117 -9.784937,-1.400671 -13.534156,0.398434 -2.198164,1.054809 -2.019684,1.635321 0.770154,2.505091 2.476968,0.772222 3.701392,1.35029 5.384605,2.542151 0.639752,0.452995 1.303916,0.823627 1.475921,0.823627 0.172016,0 1.884826,-1.084911 3.806271,-2.410913 z m -36.164199,0.915335 c 4.247052,-1.314462 9.449452,-5.656763 8.592937,-7.172282 -2.062343,-3.649136 -13.527202,-0.44683 -16.899526,4.72029 l -0.722774,1.107446 0.78122,0.787466 c 0.429674,0.433106 1.245511,0.923145 1.812972,1.088975 1.314679,0.384187 4.26256,0.140533 6.435171,-0.531895 z m 64.334517,-0.983381 c 1.53542,-0.726347 1.62526,-1.543598 0.35253,-3.207354 -2.40528,-3.144271 -6.26271,-4.820266 -11.66595,-5.068663 -4.13796,-0.19023 -5.01547,0.127142 -5.16938,1.869617 -0.0894,1.012016 0.0894,1.35653 1.29813,2.501127 3.51746,3.330901 11.86215,5.477028 15.18467,3.905273 z M 39.10369,82.230337 c 2.693266,-0.600121 5.869917,-1.42706 7.059202,-1.837641 2.028224,-0.700202 3.160161,-1.569332 2.660336,-2.042649 -0.120493,-0.114126 -2.578697,0.333019 -5.462619,0.993665 -6.765362,1.549804 -6.994553,1.431455 -5.586685,-2.884928 0.952016,-2.918775 15.287574,-35.871097 17.117153,-39.346209 0.463026,-0.879455 0.878366,-1.638901 0.922977,-1.687658 0.158821,-0.173539 71.243856,-11.492406 75.738836,-12.05989 1.37689,-0.17383 1.77263,-0.127826 1.77136,0.205922 -0.002,0.616715 -1.69856,4.84499 -6.33036,15.780237 -7.07552,16.704693 -8.36066,20.308064 -7.10103,19.910457 0.71829,-0.226726 2.79711,-4.269443 7.19603,-13.994128 5.2153,-11.529469 10.55955,-23.778128 10.84562,-24.857443 0.21114,-0.796619 0.20689,-0.798137 -1.60746,-0.575557 -8.09287,0.992808 -77.484344,12.374678 -82.322152,13.502811 -1.055647,0.246169 -1.18012,0.514468 -11.023673,23.762848 -9.412308,22.229845 -10.729514,25.495498 -10.45399,25.917673 0.322929,0.494793 1.401013,0.365695 6.576455,-0.78751 z m 111.16573,0.564298 c 1.17521,-1.007139 0.54584,-2.748344 -1.68245,-4.654706 -3.02121,-2.584711 -7.22247,-4.152799 -11.20851,-4.183489 -4.05297,-0.03121 -4.99033,0.946153 -3.12761,3.261046 1.35165,1.679763 2.34246,2.427331 4.98504,3.761167 4.2929,2.166849 9.60409,3.041004 11.03353,1.815982 z M 78.143037,82.168158 c 0.63174,-0.283877 1.148619,-0.623609 1.148619,-0.754958 0,-0.131349 -0.721868,-0.327133 -1.604141,-0.435074 -0.882285,-0.107937 -1.946087,-0.28868 -2.364006,-0.401645 -0.612276,-0.165498 -0.759853,-0.07744 -0.759853,0.453378 0,0.683134 1.154196,1.654441 1.965961,1.654441 0.25565,0 0.981691,-0.232265 1.61342,-0.516142 z M 29.126472,77.967226 c 1.055659,-2.418498 5.637524,-13.24778 10.181914,-24.065068 4.54439,-10.817289 8.543336,-20.330345 8.886547,-21.140127 l 0.624019,-1.472328 -1.824843,-1.349625 C 43.159577,27.10412 36.197163,24.793741 31.525261,24.806959 20.473558,24.838229 11.409886,36.963065 11.411608,51.713782 c 0.0011,9.746301 3.020472,17.807345 9.259217,24.720364 2.612611,2.894978 5.791037,5.930352 6.209836,5.930352 0.179526,0 1.19014,-1.978772 2.245811,-4.397272 z M 22.836696,72.52607 c -2.785575,-2.919759 -5.306757,-8.070233 -6.453142,-13.183019 -1.028612,-4.587505 -0.942314,-10.963166 0.20453,-15.111275 1.195323,-4.323422 2.893074,-7.267394 5.784986,-10.031409 3.572118,-3.414121 4.533694,-3.800064 9.469772,-3.800806 3.105926,-4.68e-4 4.486441,0.141327 5.909997,0.607028 2.247981,0.735407 3.290429,1.345955 3.532817,2.069143 0.202768,0.604992 -2.053037,7.128683 -5.155722,14.910096 -4.613915,11.571543 -9.90187,24.582058 -10.219413,25.143927 -0.549618,0.972504 -1.805364,0.725882 -3.073825,-0.603685 z m 3.217982,-11.850101 c 4.296424,-9.678088 9.791003,-24.20198 9.610686,-25.40404 -0.06676,-0.444901 -0.379486,-0.754501 -0.82269,-0.814395 -1.554706,-0.210105 -3.687058,3.451168 -8.158362,14.007997 -4.096781,9.672578 -4.79053,12.591621 -3.621999,15.239977 0.702083,1.591201 1.136173,1.151719 2.992365,-3.029539 z M 24.588682,43.150244 c 1.296515,-3.1021 2.351076,-5.873525 2.343456,-6.158726 -0.02425,-0.907073 -2.624583,2.149115 -3.885588,4.566726 -1.503612,2.882731 -2.174322,5.275248 -2.160486,7.706791 l 0.01149,1.91881 0.667186,-1.196712 c 0.366952,-0.65819 1.727977,-3.734792 3.024505,-6.836889 z m 59.622229,33.121802 c 2.426002,-0.406811 7.157202,-1.839189 7.423719,-2.247544 0.288795,-0.442504 -0.451708,-0.361225 -3.142791,0.344957 -3.960321,1.039251 -8.732409,0.787929 -15.447889,-0.813565 l -1.013143,-0.241613 0.675421,0.72152 c 1.986318,2.121862 6.710591,3.040152 11.504683,2.236245 z m 20.601479,-1.298739 c 0.34215,-0.524248 -0.37329,-0.832077 -3.61114,-1.553738 -4.64438,-1.035155 -6.263092,-0.802061 -3.425198,0.49323 2.703488,1.233952 6.545248,1.812975 7.036338,1.060508 z m 24.68524,-0.465443 c 0.30785,-0.759714 -0.24801,-1.082952 -2.44434,-1.421391 -1.10077,-0.169617 -3.39702,-0.775396 -5.1028,-1.346172 -4.46352,-1.49356 -4.7789,-0.60046 -0.4446,1.258982 1.85582,0.796155 6.05062,1.958907 7.18702,1.99217 0.33089,0.0096 0.693,-0.20793 0.80472,-0.483589 z M 86.423077,71.034442 c 3.696401,-0.624365 5.701697,-1.784166 5.701697,-3.297685 0,-1.266271 -0.559101,-1.875192 -2.434944,-2.651913 -2.437387,-1.009234 -8.554377,-1.269465 -11.730123,-0.499029 -5.122113,1.242622 -6.550736,3.638816 -3.258698,5.465744 2.582322,1.433076 6.908996,1.795864 11.722068,0.982883 z m 47.381763,-1.01652 c 0.62994,-0.228912 0.68504,-1.353764 0.10137,-2.068584 -1.70626,-2.08945 -7.13821,-4.135751 -11.07099,-4.170618 -3.68796,-0.03269 -4.59804,0.547563 -3.30335,2.106186 1.85582,2.234157 11.67442,5.077309 14.27304,4.133016 z m -21.16393,-1.397546 c 0.60365,-0.214345 1.09758,-0.511482 1.09758,-0.660305 0,-0.148824 -2.62151,-0.244334 -5.82559,-0.212244 -5.73904,0.05747 -5.86944,0.04353 -8.780548,-0.939235 -1.625256,-0.548668 -2.95501,-0.885722 -2.95501,-0.749005 0,0.136716 0.518868,0.67998 1.153034,1.207254 1.036277,0.861593 2.008138,1.287151 4.081544,1.787212 1.25268,0.302122 10.12138,-0.0404 11.22899,-0.433677 z m -0.65883,-4.983633 c 2.94578,-1.165542 3.51302,-2.711654 1.55546,-4.239654 -2.63863,-2.059615 -9.84739,-3.237084 -14.187397,-2.317348 -1.988757,0.421457 -3.848213,1.660454 -3.848213,2.564146 0,0.974237 1.397513,2.30805 3.21641,3.069783 1.52297,0.63781 2.68154,0.911522 6.57728,1.5539 1.4883,0.245405 5.40604,-0.124209 6.68646,-0.630827 z M 62.068243,27.036657 c 8.582522,-1.246068 20.198393,-3.18848 21.179178,-3.541593 0.97905,-0.352488 0.98815,-1.073777 0.0217,-1.714831 -1.189987,-0.789286 -3.774771,-0.611068 -13.779342,0.950072 -12.648644,1.973728 -13.928323,2.055327 -16.240088,1.035549 -2.196593,-0.968968 -4.69457,-1.726407 -6.624485,-2.008676 -1.585403,-0.23188 -3.468909,0.05012 -3.468909,0.519372 0,0.167054 1.151312,0.983105 2.558452,1.81345 1.407154,0.830346 3.334249,2.049384 4.282422,2.708974 2.184251,1.519455 3.116252,1.537807 12.071112,0.237683 z M 97.115144,21.44309 c 3.603316,-0.485052 4.807616,-0.869419 4.797256,-1.531101 -0.0138,-0.87762 -6.452369,-5.156145 -8.593782,-5.710654 -1.595454,-0.41314 -8.288655,-0.146795 -9.309263,0.370447 -0.614471,0.311409 -0.629367,0.41184 -0.182525,1.2301 0.55822,1.022225 4.512479,4.614367 6.068857,5.51309 1.252468,0.723229 2.618459,0.747471 7.219457,0.128118 z m -4.859142,-1.39296 c -1.380342,-0.818724 -2.569339,-2.430816 -2.434206,-3.300409 0.247354,-1.591715 3.55378,-1.529191 5.518484,0.104355 1.264902,1.051683 1.574418,2.436924 0.698343,3.12543 -0.892114,0.701115 -2.663853,0.734193 -3.782621,0.07063 z M 67.411927,19.511327 c 5.281012,-0.847179 7.657055,-1.374823 7.378558,-1.638547 -0.471298,-0.446307 -15.939112,1.676767 -17.803778,2.443703 -1.365684,0.561705 4.940877,0.07464 10.42522,-0.805156 z m 50.832663,-1.572536 c 5.04422,-0.78364 10.97927,-1.676745 13.189,-1.98468 l 4.0177,-0.55988 -1.36251,-1.14498 c -1.83908,-1.545485 -5.39211,-3.139495 -8.74502,-3.923328 -4.02983,-0.9420775 -5.17727,-0.3623555 -2.06365,1.042624 3.95935,1.786619 2.08128,2.571955 -10.72362,4.484179 -5.49668,0.820845 -6.92314,1.179583 -6.92314,1.741068 0,0.651427 1.64917,1.769794 2.60979,1.769794 0.45658,0 4.95723,-0.641159 10.00145,-1.424797 z m -9.40297,-4.820621 c 4.61824,-0.558071 5.23457,-0.696984 5.23457,-1.179803 0,-0.677741 -9.00523,0.270359 -11.62644,1.22407 -0.6425,0.233771 -0.6425,0.239862 0,0.481666 0.35791,0.134697 1.03067,0.18165 1.49503,0.104345 0.46435,-0.07731 2.66793,-0.360931 4.89684,-0.630275 z"
       id="path1" /></g></svg>
