<?xml version="1.0" encoding="UTF-8" standalone="no"?>
<!-- Created with Inkscape (http://www.inkscape.org/) -->

<svg
   width="180mm"
   height="180mm"
   viewBox="0 0 180 180"
   version="1.1"
   id="svg1"
   sodipodi:docname="trader_agriculture.svg"
   inkscape:version="1.4.2 (f4327f4, 2025-05-13)"
   xml:space="preserve"
   xmlns:inkscape="http://www.inkscape.org/namespaces/inkscape"
   xmlns:sodipodi="http://sodipodi.sourceforge.net/DTD/sodipodi-0.dtd"
   xmlns="http://www.w3.org/2000/svg"
   xmlns:svg="http://www.w3.org/2000/svg"><sodipodi:namedview
     id="namedview1"
     pagecolor="#505050"
     bordercolor="#ffffff"
     borderopacity="1"
     inkscape:showpageshadow="0"
     inkscape:pageopacity="0"
     inkscape:pagecheckerboard="1"
     inkscape:deskcolor="#505050"
     inkscape:document-units="mm"
     inkscape:zoom="0.70710678"
     inkscape:cx="373.35238"
     inkscape:cy="367.69553"
     inkscape:window-width="2560"
     inkscape:window-height="1351"
     inkscape:window-x="-9"
     inkscape:window-y="-9"
     inkscape:window-maximized="1"
     inkscape:current-layer="layer1"
     showguides="true" /><defs
     id="defs1"><rect
       x="101.82338"
       y="91.923881"
       width="384.66609"
       height="299.81327"
       id="rect3" /><rect
       x="2.8284271"
       y="2.1213203"
       width="662.55905"
       height="647.0027"
       id="rect2" /></defs><g
     inkscape:label="Icon"
     inkscape:groupmode="layer"
     id="layer1"><path
       style="fill:#000000;stroke-width:12.0066"
       d="m 6.422699,171.34211 c 0,-3.99321 17.255611,-17.73804 29.321149,-23.35564 6.118588,-2.84876 19.208708,-5.94873 29.089171,-6.88891 L 82.797474,139.38809 81.83013,119.29956 80.862663,99.210935 62.66623,95.554867 C 47.115494,92.430398 42.179188,89.559322 28.715601,75.808253 10.90545,57.617838 11.712297,55.760449 38.660708,52.914481 63.759681,50.263822 77.403065,57.979922 84.085934,78.605013 86.248667,85.279722 85.739503,85.182419 72.023777,76.299782 56.562609,66.286765 37.305161,59.891929 34.63016,63.882484 c -0.911812,1.360154 5.05032,4.030332 13.249049,5.933717 8.732002,2.027202 20.472121,8.096384 28.342235,14.651822 L 89.656882,95.65911 87.487511,72.971503 C 84.600876,42.782648 84.758023,43.060607 69.289248,40.780044 58.6709,39.214578 53.034755,35.802514 42.746159,24.711153 L 29.683959,10.629763 39.888012,8.1760284 C 57.827405,3.8621728 72.922035,6.7530222 80.312457,15.917903 89.20159,26.941347 85.876628,29.204281 72.137592,21.481659 66.018528,18.04217 58.034414,15.363046 54.395128,15.528047 c -4.357811,0.197602 -2.865861,1.4069 4.369996,3.542164 17.043884,5.029561 28.944116,17.121779 31.522758,32.031326 l 2.251655,13.018906 10.018983,-10.520704 c 5.51042,-5.7864 16.28229,-12.566015 23.93759,-15.065831 10.07,-3.288384 11.80011,-4.611713 6.25705,-4.785947 -8.98788,-0.282454 -19.17618,4.154689 -29.55854,12.873349 l -7.443967,6.251172 V 46.41023 c 0,-3.554236 3.599121,-10.31356 7.998027,-15.020718 7.17225,-7.674974 10.01736,-8.5253 27.56035,-8.237139 31.67266,0.520293 33.49291,3.211255 14.93445,22.078812 -12.70855,12.920356 -18.95209,16.725929 -32.29637,19.685654 l -16.542258,3.668977 -0.931572,35.841244 -0.931572,35.84125 h 12.749442 c 7.01205,0 19.42538,2.09718 27.58485,4.66061 16.58341,5.20962 40.35667,21.76607 37.45954,26.08797 -2.32693,3.47131 -166.9118422,3.79203 -166.9118422,0.3251 z"
       id="path2" /></g></svg>
