<?xml version="1.0" encoding="UTF-8" standalone="no"?>
<!-- Created with Inkscape (http://www.inkscape.org/) -->

<svg
   width="180mm"
   height="180mm"
   viewBox="0 0 180 180"
   version="1.1"
   id="svg1"
   sodipodi:docname="trader_buildingMaterials.svg"
   inkscape:version="1.4.2 (f4327f4, 2025-05-13)"
   xml:space="preserve"
   xmlns:inkscape="http://www.inkscape.org/namespaces/inkscape"
   xmlns:sodipodi="http://sodipodi.sourceforge.net/DTD/sodipodi-0.dtd"
   xmlns="http://www.w3.org/2000/svg"
   xmlns:svg="http://www.w3.org/2000/svg"><sodipodi:namedview
     id="namedview1"
     pagecolor="#505050"
     bordercolor="#ffffff"
     borderopacity="1"
     inkscape:showpageshadow="0"
     inkscape:pageopacity="0"
     inkscape:pagecheckerboard="1"
     inkscape:deskcolor="#505050"
     inkscape:document-units="mm"
     inkscape:zoom="0.70710678"
     inkscape:cx="366.28131"
     inkscape:cy="407.29351"
     inkscape:window-width="2560"
     inkscape:window-height="1351"
     inkscape:window-x="-9"
     inkscape:window-y="-9"
     inkscape:window-maximized="1"
     inkscape:current-layer="layer1"
     showguides="true" /><defs
     id="defs1"><rect
       x="101.82338"
       y="91.923881"
       width="384.66609"
       height="299.81327"
       id="rect3" /><rect
       x="2.8284271"
       y="2.1213203"
       width="662.55905"
       height="647.0027"
       id="rect2" /></defs><g
     inkscape:label="Icon"
     inkscape:groupmode="layer"
     id="layer1"><path
       style="fill:#000000;stroke-width:2.5459"
       d="m 104.66095,160.24776 c -13.754754,-7.25564 -25.385326,-13.56222 -25.845727,-14.01461 -1.268327,-1.24627 -1.209833,-23.97416 0.06314,-24.55253 0.495163,-0.22496 5.915555,1.92927 12.045333,4.78718 6.129763,2.85793 11.290024,5.19622 11.467184,5.19622 0.2892,0 19.34686,9.48282 24.33814,12.11031 l 2.01197,1.05911 v 9.11382 c 0,10.11818 0.2211,11.43257 1.9234,11.43257 1.09143,0 1.17188,-0.67348 1.17188,-9.81056 0,-11.48559 -0.76749,-10.22393 9.13188,-15.01141 9.44754,-4.56893 23.29388,-11.81034 23.85659,-12.47657 0.27125,-0.32115 0.12981,-0.94098 -0.3143,-1.37738 -0.60424,-0.59373 -4.82135,1.12998 -16.75281,6.84751 -8.76992,4.20254 -16.36845,7.64097 -16.88561,7.64097 -1.32592,0 -16.36941,-7.40987 -16.36941,-8.06297 0,-0.29581 2.43757,-1.61551 5.41676,-2.93265 2.97923,-1.31715 11.77983,-5.31587 19.5569,-8.88608 l 14.14013,-6.49126 4.43165,2.21336 c 2.43741,1.21736 6.38168,3.44071 8.76505,4.94078 l 4.33342,2.72742 0.16799,13.63999 c 0.12756,10.34153 -0.0235,13.82639 -0.61905,14.41082 -0.43294,0.42396 -3.9908,2.41236 -7.90635,4.41869 -14.65271,7.50808 -32.25466,16.27176 -32.67961,16.2706 -0.24202,-6.8e-4 -11.69394,-5.93766 -25.4487,-13.19333 z m -80.850506,-6.1165 c -6.128663,-3.36129 -12.048427,-6.66659 -13.15499,-7.34512 l -2.0119531,-1.23367 v -12.03163 c 0,-6.61741 0.231161,-12.20077 0.513667,-12.40749 0.456982,-0.33441 7.0635741,3.15003 21.8971041,11.5489 l 4.767576,2.69946 0.18483,11.52752 c 0.184618,11.51438 0.09408,13.36279 -0.655146,13.3567 -0.218999,-0.002 -5.412425,-2.75338 -11.54113,-6.11467 z m 14.967677,5.56819 c -0.149743,-0.30234 -0.09662,-5.81559 0.118088,-12.25164 l 0.390579,-11.70192 16.714597,-7.15226 c 9.193023,-3.93374 17.20209,-7.3481 17.797952,-7.58746 1.003873,-0.40329 1.083356,0.4851 1.083356,12.11177 v 12.54698 l -2.011954,0.9836 c -5.07497,2.48106 -31.892247,13.60064 -32.800872,13.60064 -0.560761,0 -1.142116,-0.24739 -1.291915,-0.54971 z M 32.786813,129.94064 C 23.010272,124.7329 10.764699,117.5796 9.7268559,116.47006 c -0.935958,-1.00061 -1.083355,-2.5887 -1.083355,-11.6724 0,-9.880842 0.07162,-10.514196 1.189012,-10.514196 0.6539601,0 6.1558681,2.752944 12.2264201,6.117646 6.07058,3.36473 11.52911,6.32473 12.130043,6.5778 1.694684,0.71365 2.312187,3.66502 2.312187,11.05105 0,7.10361 0.1811,7.92336 1.608181,7.27505 0.673764,-0.30612 0.868057,-2.24598 0.868057,-8.66651 0,-7.1968 0.140829,-8.3379 1.083342,-8.77811 6.383596,-2.98159 19.749294,-8.446268 20.658158,-8.446268 1.086745,0 1.1637,0.721118 1.1637,10.904538 0,7.8633 -0.215722,11.09892 -0.773827,11.60149 -0.89296,0.80423 -19.84923,9.41813 -22.144919,10.06284 -1.023181,0.28736 -3.080378,-0.39283 -6.177042,-2.04235 z m 75.937947,-0.23116 c -0.22694,-0.26872 -0.4127,-5.20856 -0.4127,-10.97738 0,-10.07919 0.0542,-10.52952 1.39287,-11.53295 2.14345,-1.60689 40.82557,-18.145706 41.254,-17.638459 0.65813,0.779196 0.42049,21.456779 -0.2558,22.257469 -0.77946,0.92286 -39.39659,18.37997 -40.65862,18.37997 -0.49889,0 -1.09277,-0.21989 -1.31975,-0.48865 z m -10.936721,-3.62285 c -2.894112,-1.42003 -8.047761,-3.91693 -11.452598,-5.54866 -3.404822,-1.63171 -6.678095,-3.4751 -7.273958,-4.09642 -0.936677,-0.97673 -1.083354,-2.54726 -1.083354,-11.60063 0,-6.308196 0.250357,-10.654127 0.629721,-10.931731 0.346352,-0.253456 6.405405,2.620546 13.464545,6.386631 l 12.834835,6.84742 0.17126,10.7945 c 0.20075,12.65508 0.71713,12.07797 -7.290501,8.14889 z M 65.44218,118.78347 c -0.822347,-0.98637 -0.546777,-19.695149 0.309528,-21.013387 0.808463,-1.244602 7.860003,-4.269304 8.666841,-3.717584 0.255358,0.174594 0.464299,5.262272 0.464299,11.305891 v 10.98844 l -2.321481,1.15268 c -2.794623,1.38759 -6.478815,2.05205 -7.119187,1.28396 z m 37.29835,-16.91887 c -1.87268,-1.02453 -6.190621,-3.261679 -9.595444,-4.971423 -3.404808,-1.709746 -7.286571,-3.776835 -8.626104,-4.593511 -3.062382,-1.867058 -3.658908,-1.476456 12.649997,-8.283155 6.979881,-2.913122 15.972531,-6.724985 19.983661,-8.470794 l 7.29293,-3.174192 9.7105,5.158437 c 13.48514,7.163611 14.80231,7.998 13.73091,8.698126 -0.48606,0.317618 -3.94806,1.917377 -7.69338,3.55503 -27.03521,11.821272 -32.24673,14.023892 -33.09281,13.986492 -0.5255,-0.0233 -2.48762,-0.88046 -4.36026,-1.90501 z M 22.536835,96.59329 C 16.388622,93.105702 10.747424,89.82834 10.000887,89.310246 8.6936599,88.403078 8.6435009,87.935924 8.6435009,76.666821 c 0,-10.086466 0.132636,-11.701452 0.960705,-11.701452 1.0183501,0 24.1876931,12.791799 25.5040881,14.080806 0.559687,0.548057 0.773827,3.977999 0.773827,12.395225 0,10.62222 -0.0945,11.63118 -1.083356,11.56521 -0.595862,-0.0398 -6.113718,-2.92573 -12.26193,-6.41332 z m 16.084495,5.66351 c -0.632178,-1.21109 0.350562,-21.374899 1.093441,-22.434678 0.349107,-0.498055 1.509982,-1.197004 2.579692,-1.5532 1.069739,-0.356195 10.003321,-4.002847 19.852437,-8.103671 9.849115,-4.100823 18.276066,-7.288587 18.726537,-7.08392 0.629014,0.285791 0.819056,2.924033 0.819056,11.3706 v 10.998458 l -1.702411,1.003201 c -4.317686,2.544311 -37.881466,16.6253 -39.62847,16.6253 -0.721126,0 -1.504248,-0.36995 -1.740282,-0.82209 z M 85.0596,83.070638 C 84.88997,82.547335 84.829132,77.517569 84.924422,71.893396 l 0.173133,-10.225778 2.16671,-1.287543 c 1.19171,-0.708154 7.738243,-3.625211 14.547905,-6.48236 6.80966,-2.857165 13.61737,-5.83236 15.1283,-6.611557 2.41421,-1.245055 2.63708,-1.547005 1.83909,-2.491809 -0.71038,-0.841048 -1.37486,-0.916558 -3.05257,-0.34688 -3.59505,1.220736 -3.70034,1.116315 -3.70034,-3.669518 0,-2.418743 0.20894,-4.402596 0.46429,-4.408562 0.25536,-0.0061 2.91792,1.201614 5.91678,2.683511 4.11588,2.033873 5.67137,3.195482 6.34536,4.738638 1.21745,2.787385 1.28815,22.80481 0.0848,23.987287 -1.32952,1.306418 -36.868515,16.243308 -38.647316,16.243308 -0.452222,0 -0.96103,-0.428177 -1.130633,-0.951495 z M 26.596112,70.017497 C 20.637728,66.749311 14.9966,63.708536 14.060263,63.260241 c -2.958619,-1.416564 -3.114124,-1.31975 11.41927,-7.109773 l 6.002496,-2.391364 7.30728,3.899534 c 16.395365,8.749386 17.731634,9.550276 17.127678,10.265344 -0.550775,0.652118 -17.173586,8.035673 -18.090941,8.035673 -0.218051,0 -5.271552,-2.673971 -11.229934,-5.942158 z M 48.501634,58.878038 C 42.333788,55.562034 36.831921,52.40138 36.275214,51.854359 35.411522,51.005682 35.263037,49.04514 35.263037,38.489347 c 0,-6.803743 0.112296,-12.370441 0.249495,-12.370441 0.137298,0 5.161461,2.638627 11.164959,5.863617 6.003528,3.224991 11.196883,5.86362 11.540777,5.86362 0.343923,0 1.309093,0.809578 2.144802,1.799064 1.476858,1.748536 1.519531,2.104667 1.519531,12.680066 0,10.146056 -0.374942,12.735109 -1.82622,12.610978 -0.187174,-0.01609 -5.3869,-2.742208 -11.554747,-6.058213 z M 64.977882,52.16449 c 0,-11.066167 0.09662,-12.129204 1.165253,-12.806263 0.64088,-0.406092 8.928541,-4.01782 18.416994,-8.026063 9.488496,-4.008247 18.703121,-7.965325 20.476981,-8.793511 1.77383,-0.828185 3.35123,-1.264303 3.5053,-0.969147 0.15419,0.295153 0.36427,5.927369 0.46714,12.516036 0.21829,13.980402 0.76366,12.797847 -7.43122,16.112926 -2.935881,1.187654 -11.847276,4.831135 -19.803133,8.096662 -7.95583,3.265511 -14.989897,5.937283 -15.631242,5.937283 -1.094825,0 -1.166073,-0.737209 -1.166073,-12.067923 z M 53.507307,31.550516 c -5.097346,-2.627003 -10.591119,-5.459158 -12.208439,-6.293677 -1.617277,-0.834518 -2.937274,-1.724062 -2.933319,-1.976763 0.0042,-0.252697 9.716012,-4.336239 21.582336,-9.074533 24.836088,-9.9172083 20.421842,-9.6136342 34.744841,-2.389452 11.519214,5.809995 12.208714,6.252643 10.993824,7.057626 -1.13826,0.754196 -39.0126,16.328155 -41.345706,17.001388 -1.137498,0.328231 -4.100141,-0.854408 -10.833537,-4.324589 z"
       id="path1" /></g></svg>
