<?xml version="1.0" encoding="UTF-8" standalone="no"?>
<!-- Created with Inkscape (http://www.inkscape.org/) -->

<svg
   width="180mm"
   height="180mm"
   viewBox="0 0 180 180"
   version="1.1"
   id="svg1"
   sodipodi:docname="trader_survivalGoods.svg"
   inkscape:version="1.4.2 (f4327f4, 2025-05-13)"
   xml:space="preserve"
   xmlns:inkscape="http://www.inkscape.org/namespaces/inkscape"
   xmlns:sodipodi="http://sodipodi.sourceforge.net/DTD/sodipodi-0.dtd"
   xmlns="http://www.w3.org/2000/svg"
   xmlns:svg="http://www.w3.org/2000/svg"><sodipodi:namedview
     id="namedview1"
     pagecolor="#505050"
     bordercolor="#ffffff"
     borderopacity="1"
     inkscape:showpageshadow="0"
     inkscape:pageopacity="0"
     inkscape:pagecheckerboard="1"
     inkscape:deskcolor="#505050"
     inkscape:document-units="mm"
     inkscape:zoom="1.4142136"
     inkscape:cx="342.94679"
     inkscape:cy="446.18438"
     inkscape:window-width="2560"
     inkscape:window-height="1351"
     inkscape:window-x="-9"
     inkscape:window-y="-9"
     inkscape:window-maximized="1"
     inkscape:current-layer="layer1"
     showguides="true" /><defs
     id="defs1"><rect
       x="101.82338"
       y="91.923881"
       width="384.66609"
       height="299.81327"
       id="rect3" /><rect
       x="2.8284271"
       y="2.1213203"
       width="662.55905"
       height="647.0027"
       id="rect2" /></defs><g
     inkscape:label="Icon"
     inkscape:groupmode="layer"
     id="layer1"><path
       id="path2"
       style="fill:#000000;stroke-width:1.49592"
       d="m 87.561271,3.677129 c -6.377491,0 -8.987548,0.5980981 -13.054956,2.9906754 -5.560586,3.2709164 -7.970848,6.1993336 -8.970104,10.9011586 -0.243369,1.145132 -0.621436,2.526667 -0.840979,3.069614 l -0.399815,0.98712 -6.595035,0.0052 c -6.754895,0.0056 -14.972374,0.822872 -18.854326,1.875001 -4.315269,1.169572 -11.222859,6.662811 -13.003289,10.341064 -1.84654,3.814913 -2.772225,10.739722 -1.765416,13.204684 1.308949,3.2047 1.143442,40.40177 -0.203485,45.726228 -0.706634,2.793302 -1.309643,3.298767 -5.513209,4.622837 -5.642831,1.777426 -10.7954788,5.708009 -12.7632419,9.736619 -0.8362251,1.71201 -0.8947062,2.46516 -1.0229895,13.1716 -0.2628421,21.93979 1.3349299,30.90474 6.3549874,35.6528 1.775,1.67884 5.149263,3.54422 8.33421,4.60705 1.951735,0.65132 7.428167,4.00895 10.679086,6.54746 3.36202,2.62526 6.207031,4.53008 8.151399,5.4581 2.863314,1.36664 17.203702,2.90303 32.952943,3.52971 10.769377,0.42855 51.416539,0.18249 57.383279,-0.34732 10.92569,-0.97015 14.8801,-2.43253 20.05935,-7.41654 1.82202,-1.75335 3.85134,-3.89947 4.5093,-4.76945 1.499,-1.98207 2.57446,-2.58565 9.5154,-5.33707 7.79044,-3.08815 9.46222,-4.78615 11.26093,-11.43794 2.14634,-7.93744 2.25962,-31.78283 0.1868,-39.36521 -1.61565,-5.91001 -4.42401,-8.23027 -12.33639,-10.193697 -2.53008,-0.627831 -4.92602,-1.420043 -5.32404,-1.760735 -1.67247,-1.431552 -1.78653,-3.146651 -1.84252,-27.709236 -0.0542,-23.764741 -0.19352,-26.438058 -1.67002,-31.94866 -1.77757,-6.63422 -7.18856,-11.094731 -15.40539,-12.698722 -1.83745,-0.358684 -6.713,-0.766363 -11.19178,-0.935997 C 115.44444,21.776448 114.43582,21.310645 112.75628,15.976617 111.64492,12.44708 109.77469,9.9749935 106.75182,8.040575 101.97603,4.9844081 96.225448,3.6771044 87.561271,3.6771044 Z m 1.392611,9.815553 c 5.271532,4.96e-4 8.911346,2.03942 11.932598,6.683536 l 1.2861,1.977246 -10.67909,-0.04435 c -12.853948,-0.05328 -14.545333,-0.270929 -14.545333,-1.868986 0,-1.05781 3.943109,-4.514942 6.509204,-5.706944 1.868428,-0.867926 2.781531,-1.040751 5.496521,-1.040496 z M 132.6972,29.052769 c 8.23678,0.688819 9.99448,1.455645 12.00016,5.237819 1.2093,2.28044 1.21881,2.353063 1.36955,9.911783 0.22773,11.420497 -1.06591,35.747969 -1.94585,36.588803 -0.5019,0.479598 -0.84382,-0.267631 -1.11599,-2.441117 -0.13395,-1.069765 -0.41056,-2.042246 -0.61442,-2.161426 -1.22864,-0.718191 -9.02306,4.785821 -10.34843,7.307522 -0.34895,0.663911 -1.18642,1.6503 -1.86079,2.192267 -1.1178,0.898329 -1.25761,1.281619 -1.58497,4.336411 -0.65337,6.096827 -2.91595,8.440222 -8.11245,8.402152 -2.24188,-0.01646 -3.7741,-0.656934 -5.35584,-2.238112 -1.39159,-1.391108 -1.78409,-2.411439 -2.13422,-5.552822 -0.33357,-2.992818 -1.24477,-4.574028 -3.41874,-5.934744 -2.51722,-1.575552 -5.51832,-1.800397 -22.139531,-1.657735 -16.929478,0.145337 -17.020045,0.158547 -19.333635,2.813247 -1.289262,1.479343 -2.142175,3.852723 -2.142175,5.961062 0,2.321632 -2.223392,5.286621 -4.604676,6.139978 -1.581652,0.566803 -4.519645,0.513769 -6.097452,-0.10969 -2.898325,-1.145394 -4.755863,-4.289104 -4.760476,-8.057098 -0.0028,-2.28494 -0.880694,-4.355337 -1.987175,-4.68749 -0.46099,-0.138354 -1.256254,-0.955271 -1.767002,-1.814857 -1.254806,-2.111859 -9.679953,-8.142767 -10.410414,-7.451884 -0.140604,0.132972 -0.478601,3.048785 -0.750364,6.479041 -1.853832,23.399861 -2.295271,30.892661 -2.987923,50.695651 -0.233263,6.6688 -0.531068,14.07376 -0.66212,16.45547 -0.131067,2.38173 -0.358131,4.31773 -0.50395,4.30259 -0.786665,-0.0814 -7.483833,-1.98141 -9.508232,-2.69747 -3.000197,-1.06121 -3.042297,-1.59072 -0.07473,-0.93826 l 2.280488,0.50146 -0.151033,-13.52721 c -0.08803,-7.88416 -0.317894,-13.79507 -0.550849,-14.1685 -0.365561,-0.58599 -0.608469,-0.55801 -2.841658,0.32102 -1.343005,0.52863 -2.991245,1.46927 -3.662762,2.09076 l -1.220922,1.12996 -0.203483,6.69858 c -0.111918,3.68421 -0.312233,6.80064 -0.445131,6.92562 -0.763408,0.71756 -1.981037,-18.73238 -1.396579,-22.30828 0.279746,-1.71149 0.357947,-1.82263 0.732859,-1.04877 0.230772,0.47634 0.745119,0.86608 1.143829,0.86608 1.126769,0 7.566648,-5.23318 8.709384,-7.07748 0.627988,-1.0135 1.023004,-2.24117 1.023004,-3.17938 0,-1.92687 0.550834,-2.63244 3.059463,-3.91841 1.104143,-0.566 2.238527,-1.46226 2.520534,-1.99152 0.362947,-0.68115 0.514487,-3.323949 0.52064,-9.045709 0.01416,-14.703963 1.070088,-40.610625 2.086525,-51.194838 0.859128,-8.946344 2.58303,-10.587087 12.365011,-11.764981 5.228632,-0.629605 80.003415,-0.964715 86.882525,-0.389434 z m -19.76843,1.114925 c -0.56063,-0.288291 -45.739921,0.317908 -46.057183,0.617984 -0.378374,0.357905 -0.672103,31.698916 -0.31794,33.932672 0.176367,1.1124 0.636863,2.106067 1.211384,2.614023 1.241102,1.097303 2.153328,2.846866 2.663601,5.110014 0.231616,1.027226 0.515101,2.257968 0.629541,2.734308 l 0.207467,0.866074 h 18.510146 18.509344 v -2.956838 -2.956098 l 1.84966,-1.629161 c 1.01726,-0.895986 2.02094,-2.193901 2.23041,-2.884667 0.51183,-1.687952 1.04465,-35.200932 0.56357,-35.448311 z m 15.64384,0.751805 0.1542,16.884014 c 0.15269,16.753242 0.36923,19.386018 1.59452,19.386018 0.55677,0 1.95573,3.080911 1.9665,4.330391 0.0111,1.310074 0.80937,1.374844 3.06742,0.250348 3.79026,-1.88754 6.21043,-5.021278 7.57668,-9.810289 0.73901,-2.590316 0.89856,-4.443994 1.06434,-12.385969 0.24671,-11.819651 0.0849,-13.153422 -1.83694,-15.165391 -2.41791,-2.531327 -4.11746,-3.148007 -9.18076,-3.330492 z m -78.07773,0.0015 -4.374966,0.155624 c -4.886083,0.173088 -6.436925,0.675024 -8.803997,2.849337 -0.788895,0.724662 -1.625505,1.965934 -1.858399,2.75912 -0.540528,1.841011 -0.559447,20.671044 -0.02385,23.768284 0.592025,3.423584 2.477835,6.720206 5.179365,9.055473 1.268805,1.096781 2.683119,2.13761 3.143724,2.31331 h 7.85e-4 c 0.659443,0.250783 1.051291,0.07391 1.853646,-0.838258 0.559585,-0.636198 1.729346,-1.880207 2.599227,-2.764395 1.562748,-1.588409 1.585621,-1.65559 1.912451,-5.649049 0.181934,-2.222933 0.340566,-10.253591 0.351332,-17.845572 z m 2.441842,41.272537 v 3.849231 3.849247 h 5.494136 5.494152 v -3.849247 -3.849231 h -5.494152 z m 60.925228,0 0.24481,3.000455 c 0.28531,3.499432 0.51493,4.207643 1.43713,4.438641 1.07489,0.269245 5.81769,0.273973 7.52265,0.0073 2.03913,-0.318681 2.63402,-1.253394 2.96964,-4.668708 l 0.27264,-2.777909 h -6.22304 z m 32.41163,28.484354 c 0.3705,0 0.67406,0.16559 0.67406,0.36838 0,0.5835 3.42257,2.32607 4.56891,2.32607 1.71385,0 2.73252,1.11737 2.98314,3.27186 0.45688,3.9274 0.65502,4.49504 2.09051,5.99789 0.80149,0.83907 2.64656,2.42085 4.09996,3.51468 3.19208,2.40239 3.75735,3.54274 3.75735,7.58119 0,3.311 -0.36534,4.01205 -1.35049,2.58997 -0.82133,-1.1856 -4.78224,-3.65714 -6.33035,-3.94999 -1.14639,-0.21685 -1.23571,-0.14518 -1.50309,1.20289 -0.42858,2.16071 0.11398,23.20063 0.65338,25.33505 0.54596,2.16053 0.58215,2.11948 -3.69696,4.27099 -1.46501,0.73661 -3.13234,1.50748 -3.70488,1.71337 l -1.04049,0.3744 -0.28934,-14.50005 c -0.15884,-7.9749 -0.45858,-17.61717 -0.66609,-21.42792 -0.9612,-17.65099 -0.97478,-18.66878 -0.24562,-18.66878 z m -13.67813,3.84923 3.069,2.79145 c 2.32156,2.11193 3.13545,3.12494 3.34084,4.16048 0.14936,0.75289 0.1951,9.93315 0.10169,20.4002 -0.17992,20.18122 -0.27476,21.23671 -2.23438,24.83058 -0.82523,1.51346 -4.02626,4.59037 -7.88272,7.57667 l -1.86398,1.44348 -30.481681,-0.0548 c -16.764619,-0.0303 -32.565573,-0.19739 -35.11341,-0.37065 -10.058697,-0.68396 -15.190425,-2.3618 -18.003812,-5.88662 -2.734725,-3.42627 -3.312506,-7.30979 -4.012511,-26.98375 -0.435993,-12.2538 -0.152571,-18.21493 1.018237,-21.42641 0.711433,-1.95144 2.772886,-4.20476 4.715962,-5.15514 2.255846,-1.10332 10.014366,-1.31315 48.840021,-1.31941 z m -69.617935,6.10014 c -13.423747,0.43518 -13.410381,0.43256 -14.757555,3.01247 -0.902505,1.72836 -1.040078,6.6714 -0.255951,9.19381 0.840501,2.70376 2.766672,5.0241 5.073663,6.11142 3.552276,1.67427 4.265371,1.27678 4.782734,-2.66891 0.182381,-1.39095 0.61639,-2.94083 0.96497,-3.44401 0.835101,-1.20547 3.13637,-1.89638 5.271579,-1.58255 3.00398,0.44154 3.915452,1.58049 4.376549,5.46938 0.192979,1.62749 0.548911,3.14632 0.790111,3.37484 0.263288,0.24946 3.398921,0.503 7.846164,0.63452 4.074223,0.12046 13.267824,0.20701 20.430549,0.19247 l 13.023162,-0.0263 0.20745,-3.53423 c 0.17963,-3.05415 0.3413,-3.66842 1.19072,-4.52361 1.23445,-1.24284 3.21892,-1.7773 5.10467,-1.37504 2.11805,0.45181 2.56576,0.95589 3.53717,3.98079 1.00892,3.14165 2.32197,4.66407 3.70171,4.29206 1.80268,-0.48605 5.39449,-3.16202 6.30173,-4.69501 1.06059,-1.79209 1.82649,-7.42897 1.30596,-9.61181 -0.43271,-1.81465 -2.51085,-3.78589 -4.60388,-4.36725 -2.31858,-0.64402 -48.239183,-0.95344 -64.291505,-0.43303 z m -13.914208,23.24727 c -0.45056,-0.007 -0.575983,0.26024 -0.749549,1.0811 -0.349903,1.65444 -0.294036,11.08413 0.08505,14.30758 0.225172,1.91488 0.550726,2.83507 1.251915,3.541 1.466859,1.47679 4.297165,2.54455 7.706269,2.90722 4.64639,0.49432 63.192158,0.17571 66.174558,-0.36011 3.62069,-0.6505 5.74208,-1.66631 6.58868,-3.15607 0.62062,-1.09211 0.75284,-2.51965 0.8839,-9.5201 l 0.15419,-8.23526 -1.77096,0.25863 c -5.041,0.73657 -7.3804,2.23858 -8.58302,5.51072 -1.38314,3.76328 -3.45298,4.9648 -6.88039,3.99358 -2.19202,-0.62117 -3.19385,-2.22842 -3.19539,-5.12881 l -0.001,-2.21331 H 89.564396 68.401756 v 2.13588 c 0,1.18624 -0.283484,2.65445 -0.637478,3.30193 -1.16041,2.12239 -4.939951,2.91352 -7.331094,1.53442 -1.333192,-0.76894 -2.612732,-2.86999 -2.612732,-4.29054 0,-1.60709 -4.668495,-4.78979 -8.183993,-5.57914 -0.236109,-0.053 -0.422904,-0.0863 -0.573106,-0.0887 z" /></g></svg>
