<?xml version="1.0" encoding="UTF-8" standalone="no"?>
<!-- Created with Inkscape (http://www.inkscape.org/) -->

<svg
   width="180mm"
   height="180mm"
   viewBox="0 0 180 180"
   version="1.1"
   id="svg1"
   sodipodi:docname="trader_clothing.svg"
   inkscape:version="1.4.2 (f4327f4, 2025-05-13)"
   xml:space="preserve"
   xmlns:inkscape="http://www.inkscape.org/namespaces/inkscape"
   xmlns:sodipodi="http://sodipodi.sourceforge.net/DTD/sodipodi-0.dtd"
   xmlns="http://www.w3.org/2000/svg"
   xmlns:svg="http://www.w3.org/2000/svg"><sodipodi:namedview
     id="namedview1"
     pagecolor="#505050"
     bordercolor="#ffffff"
     borderopacity="1"
     inkscape:showpageshadow="0"
     inkscape:pageopacity="0"
     inkscape:pagecheckerboard="1"
     inkscape:deskcolor="#505050"
     inkscape:document-units="mm"
     inkscape:zoom="1"
     inkscape:cx="482"
     inkscape:cy="226"
     inkscape:window-width="2560"
     inkscape:window-height="1351"
     inkscape:window-x="-9"
     inkscape:window-y="-9"
     inkscape:window-maximized="1"
     inkscape:current-layer="layer1"
     showguides="true" /><defs
     id="defs1"><rect
       x="101.82338"
       y="91.923881"
       width="384.66609"
       height="299.81327"
       id="rect3" /><rect
       x="2.8284271"
       y="2.1213203"
       width="662.55905"
       height="647.0027"
       id="rect2" /></defs><g
     inkscape:label="Icon"
     inkscape:groupmode="layer"
     id="layer1"><path
       style="fill:#000000;stroke-width:2.68514"
       d="m 80.637068,174.96639 c -0.175342,-0.19633 -5.135314,-1.07656 -11.021884,-1.95581 -16.303739,-2.43515 -23.301485,-5.38274 -27.535476,-11.59848 -1.902549,-2.79302 -1.902549,-2.79302 -0.768358,-8.91241 0.623796,-3.36566 2.195633,-9.77055 3.492961,-14.23309 2.626857,-9.03578 3.240452,-17.57085 1.387054,-19.29322 -0.534451,-0.49667 -1.48622,-2.41149 -2.115016,-4.25512 -0.970649,-2.84593 -1.062354,-4.68173 -0.607378,-12.15712 0.887773,-14.585418 0.950095,-18.692192 0.264916,-17.450408 -0.342234,0.62021 -2.261405,4.172352 -4.264796,7.893612 -3.56632,6.624353 -3.692942,6.762471 -6.049122,6.598156 -3.1709,-0.221057 -10.542142,-3.733251 -15.509651,-7.389728 -2.189366,-1.611557 -6.171077,-5.31807 -8.8482021,-8.236677 -3.7351914,-4.072081 -4.8675305,-5.792007 -4.8675305,-7.393307 0,-2.082966 6.6427736,-14.711831 21.4151256,-40.713256 8.148762,-14.342938 10.22437,-16.938256 16.275142,-20.350235 5.638122,-3.179272 22.361972,-10.8483891 23.656864,-10.8483891 0.517398,0 2.862922,1.0056391 5.212277,2.2347221 9.881171,5.169496 28.801414,4.964209 38.282216,-0.4153486 1.76355,-1.0006384 3.98885,-1.8193735 4.94511,-1.8193735 1.99811,0 16.38184,6.3775251 23.81853,10.5607591 5.9515,3.347793 7.96428,5.587317 13.14319,14.623664 9.59298,16.738281 24.4563,44.101964 24.80841,45.672861 0.77521,3.458577 -6.91622,12.340894 -15.64878,18.071728 -5.40993,3.550324 -12.64394,6.68186 -14.79182,6.40321 -1.89252,-0.245493 -4.55008,-4.063046 -7.93342,-11.39623 -0.9251,-2.005113 -1.8278,-3.482445 -2.00598,-3.282925 -0.17814,0.199463 0.18524,5.730521 0.80769,12.291085 1.24366,13.10868 0.98128,15.84024 -1.99289,20.74771 -2.40985,3.9763 -1.95764,10.41301 1.59871,22.75513 1.54885,5.37518 2.97681,11.85277 3.17326,14.39468 0.3572,4.62162 0.3572,4.62162 -2.62683,7.96297 -5.05023,5.65491 -11.48257,7.72051 -33.44346,10.73967 -7.40264,1.01772 -21.585248,1.49652 -22.250862,0.75117 z m 8.141098,-32.53903 c 0.803959,-2.58759 1.333995,-5.12483 1.177887,-5.63829 -0.630039,-2.07231 -5.866879,12.60582 -5.866879,16.444 0,0.94487 0.528716,2.05112 1.174919,2.4584 1.047205,0.65996 1.222624,0.23498 1.613654,-3.90947 0.241318,-2.55745 1.096484,-6.76705 1.900419,-9.35464 z m 12.482374,7.03746 c -0.59997,-4.35787 -2.39399,-10.22636 -3.126265,-10.22636 -0.771252,0 -0.77011,0.55207 0.01015,5.03746 0.345254,1.98437 0.809567,4.86115 1.031752,6.39289 0.308485,2.12647 0.652829,2.67803 1.456413,2.33272 0.82235,-0.35335 0.95958,-1.12642 0.62775,-3.53671 z m -5.110092,-14.6876 c 0.938499,-1.96351 0.878817,-5.55708 -0.110635,-6.66504 -0.913251,-1.02257 -3.805481,-1.18066 -5.07614,-0.27731 -0.630368,0.44808 -0.425058,1.0449 0.804417,2.3382 0.907947,0.95512 1.841548,2.70897 2.074669,3.89748 0.492506,2.51093 1.323718,2.76552 2.307689,0.70679 z m -9.375724,-2.68061 c 0,-0.8588 -0.840398,-1.12839 -3.524781,-1.13063 -4.611089,-0.003 -21.840462,-3.25662 -27.191008,-5.13344 -3.897212,-1.36703 -4.196156,-1.38019 -4.196156,-0.1844 0,0.90772 1.138607,1.6904 3.860469,2.65367 11.108768,3.9315 31.051476,6.36875 31.051476,3.79488 z m 27.284956,-1.14893 c 9.65401,-2.22364 13.66942,-3.77044 13.66942,-5.26565 0,-1.12898 -0.53519,-1.07988 -5.39039,0.49477 -2.9647,0.96154 -8.02526,2.12428 -11.24566,2.58389 -10.40233,1.48458 -10.1872,1.42713 -9.78122,2.61177 0.53148,1.55084 4.7863,1.40906 12.74785,-0.42478 z M 35.063286,89.504283 c 0.0076,-0.271064 -1.992225,-1.5447 -4.44539,-2.830127 -5.183171,-2.715933 -11.502361,-7.641044 -15.383004,-11.98939 -2.723055,-3.05127 -2.723055,-3.05127 -3.890893,-0.837545 -1.4609981,2.769407 -0.934261,4.016931 3.40704,8.069463 4.561762,4.258332 10.00008,7.984792 14.284719,9.788225 3.692612,1.554219 3.692612,1.554219 4.85261,-0.07672 0.637981,-0.897014 1.166697,-1.852759 1.174918,-2.12391 z M 157.94134,87.529545 c 4.67438,-3.315657 9.90178,-8.178344 10.79039,-10.037525 0.50963,-1.066274 0.38628,-1.995424 -0.48383,-3.644799 -1.16784,-2.213725 -1.16784,-2.213725 -3.89089,0.837545 -3.88064,4.348346 -10.19983,9.273457 -15.38303,11.98939 -2.45316,1.285427 -4.46031,2.486324 -4.46031,2.668625 0,0.182415 0.47885,1.149838 1.06413,2.150022 1.06413,1.818521 1.06413,1.818521 4.86753,0.237252 2.09187,-0.869709 5.46506,-2.759945 7.49601,-4.200539 z M 79.162571,85.862496 c 1.901027,-2.255322 1.901027,-2.255322 10.599236,-2.255322 8.698183,0 8.698183,0 10.840303,2.324822 1.83069,1.986842 2.34778,2.201592 3.55673,1.477104 1.53233,-0.918268 1.85799,-3.004728 0.67566,-4.328655 -0.5377,-0.602082 -0.49486,-1.583314 0.15733,-3.602605 0.81667,-2.528859 0.78147,-2.869139 -0.39644,-3.833579 -1.78874,-1.464574 -2.12123,-1.368962 -4.16301,1.196948 -1.794612,2.255321 -1.794612,2.255321 -10.388478,2.255321 -8.593866,0 -8.593866,0 -10.6543,-2.255321 -2.351512,-2.573895 -2.621376,-2.647429 -4.392915,-1.196948 -1.177913,0.96444 -1.213108,1.30472 -0.396435,3.833579 0.652115,2.019291 0.694923,3.000523 0.157326,3.602605 -1.108893,1.24167 -0.890286,3.360436 0.435944,4.2254 1.697291,1.106934 1.873597,1.042833 3.969226,-1.443349 z m -0.0051,-27.063863 c 2.285714,-2.247195 2.324081,-2.255322 10.639557,-2.255322 8.34557,0 8.34557,0 10.693602,2.308456 1.8426,1.811531 2.60479,2.147577 3.54081,1.561037 1.75981,-1.102784 1.85147,-11.149544 0.11114,-12.192405 -0.91894,-0.550682 -1.72914,-0.184972 -3.54496,1.600249 -2.353775,2.314109 -2.353775,2.314109 -11.276909,1.780191 -8.001611,-0.478796 -9.118826,-0.716702 -10.818071,-2.303682 -1.406771,-1.313812 -2.197332,-1.588513 -3.068714,-1.06633 -0.957174,0.573612 -1.163702,1.68887 -1.11922,6.043808 0.03959,3.861253 0.331551,5.536485 1.05459,6.048354 1.35224,0.957308 1.202653,1.017516 3.788098,-1.524356 z"
       id="path2" /></g></svg>
