<?xml version="1.0" encoding="UTF-8" standalone="no"?>
<!-- Created with Inkscape (http://www.inkscape.org/) -->

<svg
   width="180mm"
   height="180mm"
   viewBox="0 0 180 180"
   version="1.1"
   id="svg1"
   sodipodi:docname="trader_artisan.svg"
   inkscape:version="1.4.2 (f4327f4, 2025-05-13)"
   xml:space="preserve"
   xmlns:inkscape="http://www.inkscape.org/namespaces/inkscape"
   xmlns:sodipodi="http://sodipodi.sourceforge.net/DTD/sodipodi-0.dtd"
   xmlns="http://www.w3.org/2000/svg"
   xmlns:svg="http://www.w3.org/2000/svg"><sodipodi:namedview
     id="namedview1"
     pagecolor="#505050"
     bordercolor="#ffffff"
     borderopacity="1"
     inkscape:showpageshadow="0"
     inkscape:pageopacity="0"
     inkscape:pagecheckerboard="1"
     inkscape:deskcolor="#505050"
     inkscape:document-units="mm"
     inkscape:zoom="0.70710678"
     inkscape:cx="366.28131"
     inkscape:cy="408.70772"
     inkscape:window-width="2560"
     inkscape:window-height="1351"
     inkscape:window-x="-9"
     inkscape:window-y="-9"
     inkscape:window-maximized="1"
     inkscape:current-layer="layer1"
     showguides="true" /><defs
     id="defs1"><rect
       x="101.82338"
       y="91.923881"
       width="384.66609"
       height="299.81327"
       id="rect3" /><rect
       x="2.8284271"
       y="2.1213203"
       width="662.55905"
       height="647.0027"
       id="rect2" /></defs><g
     inkscape:label="Icon"
     inkscape:groupmode="layer"
     id="layer1"><path
       style="fill:#000000"
       d="m 77.811711,173.96245 c -3.66676,-0.38099 -13.84101,-2.69041 -16.17575,-3.67168 -5.46709,-2.29777 -8.46292,-5.54557 -8.99042,-9.74658 -0.29876,-2.37934 -0.95673,-3.46132 -5.17524,-8.51024 -12.08838,-14.46797 -18.40005,-25.91152 -21.88037,-39.6708 -1.08942,-4.30695 -1.34256,-7.10504 -1.32853,-14.684379 0.0149,-8.03248 0.31298,-10.43823 1.83541,-14.81206 3.32688,-9.55789 9.37789,-17.16752 18.77428,-23.61019 6.75977,-4.63486 8.99928,-6.72758 10.41452,-9.731919 0.58766,-1.247499 0.69977,-1.897271 0.78541,-4.552298 0.16886,-5.234994 -0.56641,-8.824912 -2.39166,-11.677152 -0.47893,-0.748392 -2.66081,-3.211484 -4.84863,-5.473539 -2.18782,-2.262054 -4.18211,-4.543277 -4.43177,-5.069383 -0.68871,-1.451353 -0.59942,-3.992515 0.20066,-5.711075 2.4645,-5.29365 11.35668,-8.5841913 27.65584,-10.2340113 15.78537,-1.597814 33.316519,-1.0434 45.772919,1.447545 11.61021,2.3217323 17.84083,6.0664243 18.43455,11.0794343 0.13912,1.174686 0.0466,1.57909 -0.71558,3.127269 -0.68812,1.397774 -1.53802,2.430819 -3.97329,4.829518 -3.62825,3.573769 -4.98681,5.262501 -6.24742,7.765737 -2.88743,5.733666 -2.46061,12.262321 1.12062,17.140934 1.1888,1.61947 4.13451,3.99413 9.24049,7.44913 4.95915,3.35565 9.72317,7.95043 12.27436,11.83831 3.40873,5.19474 6.10515,11.65438 7.09895,17.00648 0.64585,3.47824 0.6351,13.925199 -0.0187,18.183099 -2.43759,15.87471 -8.71162,28.34418 -22.73222,45.17974 -1.82578,2.19235 -3.62798,4.51229 -4.00489,5.15544 -0.38949,0.66462 -0.96673,2.44182 -1.33733,4.11738 -0.35863,1.62142 -0.83552,3.30282 -1.05976,3.73645 -1.01404,1.96095 -3.7773,3.82086 -8.33443,5.60979 -5.28224,2.07358 -10.3493,2.96153 -19.409369,3.40129 -5.00743,0.24305 -18.50345,0.30068 -20.55265,0.0878 z m 19.44688,-5.11667 c 10.478829,-0.66491 18.962419,-3.01032 22.291139,-6.16272 0.80892,-0.76607 1.12543,-1.50429 0.64495,-1.50429 -0.11823,0 -1.22636,0.34188 -2.46253,0.75973 -6.72921,2.27461 -14.72257,3.19762 -27.749599,3.20428 -11.35031,0.006 -17.21916,-0.66999 -24.60625,-2.83341 -4.82362,-1.41266 -6.54232,-1.82022 -6.75962,-1.60293 -0.24258,0.24258 0.53763,1.57981 1.37818,2.36212 2.68318,2.49726 11.43536,4.69716 21.91789,5.50915 7.33948,0.56853 9.90441,0.61334 15.34584,0.26807 z m 4.894789,-27.51883 c 15.4947,-0.88669 30.73777,-3.91996 35.78536,-7.12105 1.4462,-0.91715 3.11257,-3.0105 2.49728,-3.13716 -0.21326,-0.0439 -2.37291,0.51891 -4.79923,1.25069 -2.42632,0.73177 -6.27947,1.74389 -8.56255,2.24914 -24.47096,5.41551 -58.992469,4.62922 -81.144819,-1.84823 -5.82296,-1.70266 -5.95934,-1.73116 -6.13199,-1.28123 -0.15301,0.39873 0.52425,1.60241 1.21732,2.16353 3.77079,3.05287 19.20866,6.44304 35.60634,7.81919 2.56358,0.21514 21.33359,0.1454 25.532289,-0.0949 z m 1.71979,-54.504349 c 5.44479,-0.41327 15.37636,-1.72326 19.87926,-2.62211 6.65968,-1.32938 12.14993,-3.1233 17.09261,-5.58494 3.25084,-1.61904 4.00063,-2.44223 3.2575,-3.5764 -0.63858,-0.97459 -1.64741,-0.82233 -5.31997,0.80292 -5.89719,2.60975 -10.44809,3.93791 -19.0344,5.55512 -2.7649,0.52076 -5.20568,1.00128 -5.42396,1.06782 -1.33514,0.40704 -14.889399,0.94779 -23.812499,0.95002 -22.64953,0.006 -33.05552,-1.58792 -48.7356,-7.46332 -2.28432,-0.85595 -4.45046,-1.55627 -4.81364,-1.55627 -0.70409,0 -1.48409,0.85821 -1.48409,1.6329 0,0.58484 1.23249,1.50641 3.57187,2.67081 8.65458,4.30772 24.34044,7.42525 42.20105,8.38736 5.14883,0.27736 17.36887,0.1348 22.621869,-0.26391 z m 0.52917,-21.53118 c 7.14258,-0.62498 15.35924,-2.4571 19.55829,-4.36104 1.8107,-0.82101 2.10295,-1.28418 1.40907,-2.23312 -0.61126,-0.83595 -2.02365,-0.81638 -5.11142,0.0708 -10.04935,2.88743 -25.469379,4.29873 -37.684069,3.449 -7.46954,-0.51963 -16.18587,-1.88962 -22.66382,-3.56218 -2.87624,-0.74263 -3.6462,-0.85344 -4.42866,-0.63739 -0.98068,0.27077 -1.62722,1.06713 -1.38303,1.70348 0.67645,1.76281 12.83668,4.85493 23.31614,5.92887 3.43032,0.35154 21.63707,0.10973 26.987499,-0.35843 z m 1.95407,-36.78114 c 11.38776,-1.085075 19.62314,-3.522686 22.52044,-6.665883 2.79002,-3.026811 -0.18789,-6.003377 -8.27905,-8.275334 -6.61824,-1.85837 -12.13458,-2.375838 -27.572549,-2.586482 -15.9696,-0.217898 -23.10508,0.227448 -30.69166,1.91556 -10.98242,2.44373 -15.05149,5.77149 -11.25316,9.203052 3.20982,2.899877 11.76822,5.289651 23.82087,6.65153 4.51179,0.509808 25.236769,0.350068 31.455109,-0.242443 z M 79.531501,24.358432 c -8.02076,-0.174818 -10.87024,-0.475578 -15.88262,-1.676392 -5.7505,-1.377649 -8.35695,-3.077251 -6.8054,-4.437649 3.66557,-3.213962 23.21014,-5.489698 40.52565,-4.718735 12.582679,0.560236 19.787979,1.696535 23.966539,3.779598 2.18303,1.088271 2.83729,1.716505 2.48097,2.382299 -0.56085,1.047953 -6.07815,3.060929 -10.00134,3.64897 -3.30522,0.495416 -8.64816,0.793725 -16.688999,0.931788 -4.43839,0.07621 -8.48651,0.165289 -8.99584,0.197958 -0.50932,0.03267 -4.37885,-0.01586 -8.59896,-0.107837 z"
       id="path1" /></g></svg>
