<?xml version="1.0" encoding="UTF-8" standalone="no"?>
<!-- Created with Inkscape (http://www.inkscape.org/) -->

<svg
   width="180"
   height="180"
   viewBox="0 0 180 180"
   version="1.1"
   id="svg1"
   xml:space="preserve"
   inkscape:version="1.4.2 (f4327f4, 2025-05-13)"
   sodipodi:docname="food_grain_cassava.svg"
   xmlns:inkscape="http://www.inkscape.org/namespaces/inkscape"
   xmlns:sodipodi="http://sodipodi.sourceforge.net/DTD/sodipodi-0.dtd"
   xmlns="http://www.w3.org/2000/svg"
   xmlns:svg="http://www.w3.org/2000/svg"><sodipodi:namedview
     id="namedview1"
     pagecolor="#505050"
     bordercolor="#ffffff"
     borderopacity="1"
     inkscape:showpageshadow="0"
     inkscape:pageopacity="0"
     inkscape:pagecheckerboard="1"
     inkscape:deskcolor="#505050"
     inkscape:document-units="px"
     inkscape:zoom="3.1"
     inkscape:cx="50.645161"
     inkscape:cy="133.22581"
     inkscape:window-width="2560"
     inkscape:window-height="1351"
     inkscape:window-x="-9"
     inkscape:window-y="-9"
     inkscape:window-maximized="1"
     inkscape:current-layer="layer1" /><defs
     id="defs1" /><g
     inkscape:label="Warstwa 1"
     inkscape:groupmode="layer"
     id="layer1"><path
       style="fill:#000000;stroke-width:0.883414"
       d="m 59.143804,173.91692 c -2.536133,-0.75997 -2.458647,-1.93434 0.414483,-6.2818 1.175614,-1.77886 2.313134,-5.21057 2.65376,-8.00593 0.962407,-7.89799 3.876902,-13.19937 11.530271,-20.9732 3.816095,-3.87616 9.853038,-11.45082 13.41542,-16.83259 8.47814,-12.80811 11.673489,-16.76828 16.927622,-20.9793 5.0315,-4.032579 4.86398,-4.478369 -0.43482,-1.157159 -5.304013,3.324469 -10.785039,8.855589 -14.884028,15.020059 -5.516831,8.29677 -7.458129,10.00762 -13.751917,12.11939 -3.179859,1.06694 -8.742539,3.31995 -12.3615,5.00668 -12.075287,5.62804 -15.648188,6.59518 -27.197031,7.36186 -7.363035,0.48881 -12.616959,1.33499 -15.989242,2.57521 -9.6533068,3.55018 -13.0873623,2.15581 -13.2825844,-5.39329 -0.081064,-3.13561 0.5345884,-3.97215 9.3285654,-12.67518 5.178455,-5.1249 9.415377,-9.71251 9.415377,-10.19467 0,-1.4728 10.091144,-7.8093 16.491167,-10.35524 4.193791,-1.66831 9.102488,-4.857979 16.050252,-10.429469 11.961182,-9.591799 21.078382,-15.708548 24.42589,-16.387377 2.928576,-0.593876 6.518936,1.141224 10.147951,4.904163 1.447583,1.501004 2.91475,2.740218 3.260371,2.753808 1.154628,0.04541 -2.949685,-6.15316 -5.534394,-8.358358 -1.403193,-1.197157 -2.551258,-2.539171 -2.551258,-2.982253 0,-1.273801 7.768096,-5.187147 14.348921,-7.228579 7.41153,-2.299124 12.87746,-2.360827 19.65546,-0.221886 l 5.20902,1.643819 2.76505,-4.108447 c 3.09096,-4.592688 3.40414,-6.75369 1.39933,-9.655837 -1.80977,-2.619823 -2.6973,-2.49345 -3.29541,0.46923 -1.12621,5.578606 -1.7617,5.820873 -15.87144,6.050651 l -12.896263,0.210017 1.232136,-1.907205 c 0.677667,-1.048964 2.968117,-3.264438 5.089877,-4.923277 l 3.85775,-3.01607 -4.82528,0.592342 C 97.140392,51.38527 93.030718,49.868014 84.134068,43.264295 76.134858,37.326724 75.623457,35.973104 80.89355,34.68702 c 1.30716,-0.318991 5.431002,-1.762206 9.164102,-3.207144 6.077537,-2.352377 7.213382,-2.530378 10.859658,-1.701843 2.23972,0.508926 5.73418,1.912866 7.76547,3.119869 5.50691,3.272226 5.53454,2.693141 0.11128,-2.332471 -3.79243,-3.514357 -5.182,-5.540333 -6.21198,-9.056934 -1.44535,-4.934837 -1.79869,-15.370395 -0.54698,-16.1547687 0.42887,-0.2687502 4.76473,1.5374047 9.63521,4.0136777 9.65495,4.908796 11.76897,7.069913 14.23372,14.550851 1.19953,3.640762 1.60112,4.162056 2.09815,2.72349 1.95075,-5.646246 2.74841,-6.953046 6.2305,-10.207455 4.33577,-4.052254 7.13458,-4.622325 7.75254,-1.579057 0.22352,1.100815 1.05489,5.137173 1.84748,8.969682 1.15915,5.604971 1.23644,7.469129 0.39505,9.528717 -1.05481,2.582032 -7.72966,9.463899 -10.95984,11.299758 -1.69803,0.965071 -1.6805,1.05994 0.65325,3.532265 1.31898,1.397307 3.1244,4.054473 4.01206,5.904815 l 1.6139,3.364254 4.76118,-3.9223 c 6.33004,-5.214734 7.91826,-5.986301 12.32243,-5.986301 9.40031,0 20.14024,10.489291 16.4442,16.060447 -0.65727,0.990717 -5.34039,3.886932 -10.40693,6.436035 l -9.21189,4.634733 -1.58787,4.892515 c -1.88891,5.820027 -2.83232,6.914007 -6.28031,7.282694 -2.28504,0.244333 -2.66368,-0.04862 -3.08923,-2.39018 -1.02942,-5.664205 -2.16523,0.119217 -2.18374,11.119353 -0.0163,9.694048 -0.27725,11.689468 -2.03567,15.567088 -2.26068,4.98519 -5.57136,10.2145 -6.47264,10.22373 -0.32652,0.004 -1.58776,-2.19555 -2.80277,-4.88643 -2.76044,-6.11365 -3.57081,-6.37596 -1.34454,-0.43524 2.90809,7.76011 2.56107,8.77558 -5.51243,16.13046 -3.95052,3.59892 -8.78659,8.34481 -10.7468,10.54645 -7.24515,8.13745 -9.58587,9.8513 -21.362075,15.64122 -6.617477,3.25355 -14.019449,7.41791 -16.448827,9.25414 -3.890151,2.94034 -11.294631,7.2849 -11.997811,7.03969 -0.139854,-0.0487 -1.241273,-0.38443 -2.447593,-0.74591 z m 38.131345,-26.96379 c -0.893352,-3.03502 -2.83917,-5.83374 -4.793048,-6.894 -1.794636,-0.97385 -2.590219,0.26094 -0.864787,1.34218 0.489424,0.30669 1.681838,2.13165 2.649799,4.05547 1.904047,3.78424 3.986383,4.8201 3.008036,1.49635 z M 43.898024,126.55997 c -0.566558,-3.04015 -3.851302,-9.24294 -4.530175,-8.55462 -0.209154,0.21208 0.404315,2.649 1.363264,5.41539 0.95895,2.7664 1.743541,5.72033 1.743541,6.56427 0,1.13688 0.255801,1.27509 0.987252,0.53345 0.584359,-0.5925 0.762333,-2.20796 0.436118,-3.95849 z m 16.727869,-7.6276 c -0.220673,-0.8562 -0.401226,-0.15568 -0.401226,1.5567 0,1.71238 0.180553,2.4129 0.401226,1.55671 0.220665,-0.85619 0.220665,-2.25723 0,-3.11341 z m 10.80044,-24.189761 c 0,-0.958189 -3.477545,-3.608629 -4.734759,-3.608629 -0.45927,0 0.09218,1.000741 1.225463,2.22387 2.130643,2.299571 3.509296,2.843581 3.509296,1.384759 z M 169.68659,60.750924 c 0,-1.787785 -4.37197,-6.924595 -7.11981,-8.365356 -1.45336,-0.762037 -3.89371,-1.261987 -5.42299,-1.110999 l -2.78051,0.274523 3.28054,3.672168 c 4.5755,5.121749 12.04277,8.550484 12.04277,5.529664 z M 126.68231,44.877481 c 4.92262,-5.646156 7.94988,-10.639706 9.16768,-15.122316 0.33228,-1.223128 -0.54437,-0.169018 -1.94812,2.342468 -1.40374,2.511486 -3.45643,5.853811 -4.56152,7.42739 l -2.00925,2.861053 -3.271,-6.302807 c -2.93803,-5.661217 -9.73512,-15.514896 -11.4385,-16.582316 -0.36362,-0.227861 1.32826,2.614556 3.75974,6.316481 4.08294,6.216284 8.89308,16.351963 8.12825,17.127446 -0.17991,0.182421 -2.84101,-0.307572 -5.91354,-1.088872 -3.07255,-0.781299 -9.31683,-1.608369 -13.87621,-1.837932 l -8.289782,-0.417387 8.570962,1.262901 c 9.42006,1.388015 19.06473,3.873194 19.06473,4.912482 0,0.365282 -2.17137,2.362697 -4.82527,4.438698 -2.65391,2.076 -4.82528,3.951628 -4.82528,4.16806 0,1.536432 8.13824,-4.769606 12.26711,-9.505349 z"
       id="path1" /></g></svg>
