<?xml version="1.0" encoding="UTF-8" standalone="no"?>
<!-- Created with Inkscape (http://www.inkscape.org/) -->

<svg
   width="180mm"
   height="180mm"
   viewBox="0 0 180 180"
   version="1.1"
   id="svg1"
   sodipodi:docname="corn.svg"
   inkscape:version="1.4.2 (f4327f4, 2025-05-13)"
   xml:space="preserve"
   xmlns:inkscape="http://www.inkscape.org/namespaces/inkscape"
   xmlns:sodipodi="http://sodipodi.sourceforge.net/DTD/sodipodi-0.dtd"
   xmlns="http://www.w3.org/2000/svg"
   xmlns:svg="http://www.w3.org/2000/svg"><sodipodi:namedview
     id="namedview1"
     pagecolor="#505050"
     bordercolor="#ffffff"
     borderopacity="1"
     inkscape:showpageshadow="0"
     inkscape:pageopacity="0"
     inkscape:pagecheckerboard="1"
     inkscape:deskcolor="#505050"
     inkscape:document-units="mm"
     inkscape:zoom="1"
     inkscape:cx="73"
     inkscape:cy="204"
     inkscape:window-width="2560"
     inkscape:window-height="1351"
     inkscape:window-x="-9"
     inkscape:window-y="-9"
     inkscape:window-maximized="1"
     inkscape:current-layer="layer1"
     showguides="true" /><defs
     id="defs1"><rect
       x="101.82338"
       y="91.923881"
       width="384.66609"
       height="299.81327"
       id="rect3" /><rect
       x="2.8284271"
       y="2.1213203"
       width="662.55905"
       height="647.0027"
       id="rect2" /></defs><g
     inkscape:label="Icon"
     inkscape:groupmode="layer"
     id="layer1"><path
       style="fill:#000000;stroke-width:3.02112"
       d="m 31.150426,174.93811 c -2.913341,-1.08946 -9.332417,-5.2698 -12.792898,-8.33124 -3.968773,-3.51112 -4.005647,-5.82332 -0.178536,-11.19514 l 2.926482,-4.10765 -2.591266,-6.49082 c -2.418911,-6.05904 -2.566018,-7.00403 -2.211703,-14.20737 0.483445,-9.8286 3.054455,-17.17576 10.312759,-29.47069 10.399827,-17.616366 13.606255,-23.401855 15.607971,-28.162068 2.267006,-5.391055 5.492672,-19.091628 6.960754,-29.564846 1.111736,-7.931072 1.536868,-9.645754 2.391521,-9.645754 2.125459,0 7.436687,16.249211 9.161423,28.028521 1.110957,7.58742 1.129303,24.214892 0.03677,33.318459 -2.067284,17.225638 -8.335037,39.216158 -15.188651,53.289688 l -2.984321,6.12815 3.574038,-3.59597 c 1.965722,-1.9778 5.295265,-6.89277 7.398982,-10.92215 3.475609,-6.65712 4.368696,-7.72272 9.77869,-11.66769 21.369433,-15.58262 46.443629,-26.61391 71.165939,-31.309171 9.816,-1.864272 22.37984,-2.422717 22.90668,-1.018184 0.18651,0.49755 -2.3834,2.363458 -5.71125,4.146455 -26.19928,14.03723 -31.20402,17.86402 -49.97978,38.21636 -15.119424,16.38898 -25.119431,24.13614 -35.450053,27.46367 -2.979601,0.95973 -6.8245,1.37621 -12.86839,1.39389 l -8.619183,0.0262 -4.774418,4.24414 c -4.917305,4.37115 -5.629192,4.64671 -8.87155,3.43422 z m 32.703242,-56.1706 c -1.820895,-1.00404 -2.231171,-1.69559 -1.903763,-3.209 0.229546,-1.06103 1.032798,-6.09613 1.785019,-11.18908 1.968615,-13.328692 1.778866,-12.732372 4.051546,-12.732372 2.561296,0 5.586853,-3.513813 5.258738,-6.107377 C 72.8816,84.236372 71.616595,82.84403 69.279797,81.385284 L 65.76078,79.188479 V 71.762401 64.33635 l 3.962466,-3.519091 c 2.179357,-1.935513 4.508121,-4.52905 5.175029,-5.763434 1.183927,-2.191379 3.4802,-4.597326 7.501213,-7.859513 1.09525,-0.888577 2.85429,-2.984609 3.908952,-4.657853 1.054662,-1.67324 3.038363,-3.7242 4.408228,-4.557687 1.369865,-0.833486 3.758618,-3.275495 5.308322,-5.426692 1.549679,-2.151195 3.797982,-4.400232 4.99623,-4.997864 1.1982,-0.59763 3.2757,-2.57271 4.61664,-4.38906 1.34092,-1.816354 3.81577,-3.959993 5.4996,-4.763643 1.68388,-0.803651 3.93953,-2.573494 5.01257,-3.932988 1.07306,-1.359494 3.53888,-3.12641 5.47966,-3.926478 1.94074,-0.8000716 4.01648,-2.0024824 4.61273,-2.6720289 2.30726,-2.5909203 5.58492,-3.430575 13.39143,-3.430575 6.81343,0 8.06222,0.2199331 10.68684,1.8820305 2.96931,1.8803854 5.66653,5.9588274 5.72192,8.6520014 0.0157,0.784688 0.56182,2.294819 1.21267,3.355852 1.4377,2.343885 1.57631,6.844069 0.30136,9.788433 -0.51733,1.194766 -0.8795,3.18233 -0.80483,4.41681 0.0745,1.234484 -0.99252,4.42464 -2.37146,7.089237 -1.37893,2.664597 -2.50716,5.410303 -2.50716,6.101569 0,1.579182 -1.36983,4.031169 -3.73091,6.678303 -1.00591,1.127756 -2.06057,3.40071 -2.34373,5.051018 -0.31201,1.81862 -1.66318,4.250815 -3.43015,6.174634 -1.6034,1.745764 -2.92348,3.639776 -2.93346,4.208934 -0.0328,1.874558 -3.03195,7.261704 -5.54438,9.95936 -1.35759,1.457701 -2.7355,3.670924 -3.062,4.918259 -0.66484,2.540133 -3.15837,6.135554 -6.02772,8.691405 -1.04928,0.934653 -1.90782,2.199144 -1.90782,2.809942 0,1.166807 -4.21057,3.007332 -9.10805,3.981271 -2.78066,0.552999 -2.84331,0.517736 -1.54693,-0.870484 1.74927,-1.873278 2.54695,-4.375378 1.89755,-5.952457 -0.62593,-1.520143 -5.39802,-4.368471 -7.31892,-4.368471 -2.12543,0 -5.45178,3.803255 -5.45178,6.233429 0,2.092779 3.47703,5.341472 5.71688,5.341472 1.64622,0 0.94429,1.279856 -1.20181,2.191129 -2.66762,1.13273 -4.70552,1.13315 -7.370733,0.001 -1.768029,-0.75074 -2.385285,-0.65823 -3.849746,0.5769 -0.959312,0.80907 -2.255065,2.39175 -2.879453,3.51709 -0.91653,1.65176 -10.491476,7.60333 -12.232313,7.60333 -0.238716,0 -0.55076,-1.11632 -0.693468,-2.48069 -0.210019,-2.00799 -0.994052,-2.90287 -4.114424,-4.69605 -3.373667,-1.93876 -4.097309,-2.09501 -5.796033,-1.25156 -2.72536,1.35323 -3.954126,3.06482 -3.984741,5.55047 -0.02066,1.67464 0.793313,2.67639 3.755702,4.62241 l 3.78204,2.48442 -2.333032,1.73997 c -2.7087,2.02014 -3.193418,2.04523 -6.310153,0.32668 z M 87.26784,101.68825 c 1.862661,-1.735902 2.911472,-4.864565 2.205457,-6.579175 -0.609111,-1.479283 -7.848118,-5.787007 -9.724946,-5.787007 -2.180474,0 -5.838418,4.504153 -5.544364,6.826976 0.305843,2.416034 6.50567,7.062916 9.423252,7.062916 1.103105,0 2.74138,-0.68568 3.640601,-1.52371 z M 97.992861,88.060512 c 3.364589,-3.986292 1.73855,-7.593813 -4.815709,-10.684032 -3.480099,-1.640828 -6.037151,-0.77655 -7.961115,2.690774 -1.74837,3.150972 -1.025557,4.904731 3.160918,7.669078 4.39812,2.904091 7.354239,3.003748 9.615906,0.32418 z m 24.461089,-5.821157 c 1.62186,-2.822921 1.62188,-2.847886 0.002,-4.516043 -2.15305,-2.21719 -6.04598,-4.049954 -7.49886,-3.53035 -1.17887,0.421583 -4.47526,4.937246 -4.48092,6.138324 -10e-4,0.360247 1.17461,1.68026 2.614,2.933371 3.69906,3.220325 7.1411,2.843419 9.36383,-1.025302 z M 80.728553,77.03487 c 3.443245,-3.20895 3.30608,-6.368261 -0.368426,-8.484685 -1.53381,-0.883441 -3.55,-1.606269 -4.480421,-1.606269 -2.01363,0 -5.978903,4.130247 -5.978903,6.227655 0,1.388406 5.906419,6.118928 7.639964,6.118928 0.422105,0 1.856608,-1.015033 3.187786,-2.255629 z m 25.832477,-1.411183 c 3.84014,-3.954527 3.16814,-7.074698 -2.18816,-10.159784 -3.58336,-2.063928 -5.609655,-2.030096 -7.759857,0.129494 -3.280492,3.294986 -2.771419,6.073808 1.646953,8.99032 4.039504,2.66642 6.430684,2.965945 8.301064,1.039852 z m 24.1663,-6.68689 c 0.97635,-2.543665 0.0341,-4.144946 -3.60963,-6.134181 -2.5758,-1.406196 -2.67944,-1.406196 -4.35465,0 -4.04549,3.395927 -3.6437,6.039482 1.34915,8.876519 2.10832,1.197986 2.70182,1.250337 4.14004,0.365205 0.92338,-0.568254 2.03718,-1.966661 2.47509,-3.107543 z M 91.052554,64.278196 c 2.782093,-2.592779 2.604846,-5.236421 -0.515169,-7.683083 -3.325343,-2.607681 -5.113207,-2.520594 -7.728908,0.376435 -3.081238,3.412668 -2.674788,5.045826 1.973628,7.930315 2.764664,1.715578 3.879352,1.604722 6.270449,-0.623667 z m 25.585666,-2.394572 c 2.30501,-3.27851 1.39279,-5.775014 -3.04137,-8.323607 -3.77789,-2.17138 -3.98832,-2.204518 -6.04075,-0.95122 -2.6944,1.645321 -4.14275,4.48679 -3.13898,6.15836 1.22883,2.046369 6.30659,5.011615 8.65169,5.052301 1.45498,0.02624 2.64402,-0.619642 3.56941,-1.935834 z m 20.69801,-3.599675 c 1.76995,-2.355025 1.61583,-4.114322 -0.52319,-5.971498 -2.32666,-2.020122 -6.12884,-2.062395 -7.26678,-0.08082 -1.41432,2.462891 -0.98174,4.477325 1.32452,6.167997 2.81408,2.062936 4.85553,2.026392 6.46545,-0.115784 z m -36.57811,-5.80864 c 0.71821,-0.742737 1.54924,-2.259573 1.8467,-3.370761 0.43202,-1.613683 0.0892,-2.351455 -1.70315,-3.665384 -2.874357,-2.107115 -5.649909,-2.091506 -7.784489,0.04377 -2.34143,2.342209 -2.123647,4.824675 0.588751,6.710627 2.811572,1.95494 5.336678,2.055793 7.052188,0.281735 z m 23.79652,-1.919561 c 1.1345,-1.134881 1.64216,-2.523304 1.48124,-4.051215 -0.19872,-1.887819 -0.9748,-2.683925 -4.13012,-4.237072 l -3.88535,-1.912485 -2.11768,1.854082 c -3.12849,2.739073 -2.74194,5.012258 1.31857,7.753501 4.11162,2.77576 5.07368,2.853602 7.33334,0.593189 z m 18.35235,-3.40876 c 2.16531,-1.826222 1.87661,-4.518519 -0.68599,-6.397075 -1.9387,-1.421223 -2.40611,-1.486146 -3.93301,-0.546321 -2.71969,1.67401 -2.69891,4.404827 0.0491,6.454253 2.82064,2.10354 2.67432,2.087878 4.56987,0.489143 z m -31.9705,-6.7874 c 1.72217,-2.449538 1.31337,-4.13256 -1.47455,-6.070552 -1.89595,-1.317954 -2.58694,-1.42445 -4.35921,-0.671889 -1.15838,0.491872 -2.55302,1.808351 -3.09918,2.925503 -0.89446,1.829554 -0.76536,2.213697 1.30036,3.869668 2.98219,2.390609 5.92906,2.370248 7.63258,-0.05273 z m 21.22448,-1.002519 c 2.50469,-2.717897 2.45274,-4.091746 -0.24348,-6.438966 -3.17425,-2.763401 -6.04537,-2.892073 -7.83192,-0.351001 -1.81901,2.587254 -1.27206,4.296475 2.04066,6.377001 3.37178,2.117625 4.39894,2.187916 6.03468,0.412966 z m 16.23466,-3.433889 c 2.52754,-2.355564 0.27758,-6.358936 -3.30785,-5.885268 -2.43072,0.32113 -2.99855,3.29282 -1.0188,5.331577 1.65578,1.705095 2.91786,1.866608 4.32665,0.553691 z M 120.2525,28.124586 c 0.20186,-1.561844 -0.29072,-2.25453 -2.2878,-3.217045 -2.45212,-1.18175 -2.62174,-1.155324 -4.63655,0.722378 -1.74089,1.622427 -1.93814,2.215764 -1.17708,3.541015 2.13298,3.714306 7.57665,3.011223 8.10143,-1.046348 z m 19.87308,-0.911038 c 0.73185,-1.496972 0.58922,-2.198406 -0.77595,-3.81585 -2.06364,-2.444958 -5.15539,-2.571423 -6.87659,-0.281298 -1.08486,1.443464 -1.10971,1.939092 -0.16461,3.279555 1.3379,1.897407 4.5085,3.51424 5.90911,3.013338 0.55618,-0.198907 1.41475,-1.186994 1.90795,-2.19576 z M 151.7062,23.98881 c 0.13582,-0.852721 -0.30387,-1.976492 -0.97727,-2.497274 -1.73617,-1.342843 -3.61845,1.767815 -2.1009,3.471929 1.30235,1.462453 2.76369,0.999748 3.07817,-0.974655 z m -24.01071,-2.727174 c 1.63266,-1.521523 1.13104,-3.678711 -1.07302,-4.614608 -1.70762,-0.725098 -2.35493,-0.63442 -3.726,0.52197 -2.04346,1.723434 -2.11521,3.1512 -0.21031,4.185162 1.95426,1.060793 3.80862,1.026541 5.00941,-0.09251 z m 20.03772,-6.328213 c 0,-1.515 -3.09096,-3.793209 -4.47494,-3.298268 -0.67353,0.240875 -1.87971,1.369742 -2.68039,2.508602 -1.43692,2.043794 -1.42468,2.095603 0.94295,3.99357 l 2.39873,1.922908 1.90684,-2.065975 c 1.04875,-1.136287 1.90681,-2.513662 1.90681,-3.060837 z m -11.47565,-3.749222 c -1.1973,-1.115836 -4.25642,0.128385 -4.25642,1.7312 0,0.784856 0.46576,1.594731 1.03501,1.799718 1.40732,0.506776 4.23192,-2.589179 3.22141,-3.530918 z m -7.56845,82.180659 c 0,-0.421939 0.61791,-1.243756 1.37315,-1.826235 0.75522,-0.582492 2.34522,-2.972943 3.53332,-5.312142 1.1881,-2.339186 3.20626,-5.531246 4.48483,-7.093446 1.27854,-1.562229 2.99662,-4.509801 3.81795,-6.550192 1.0198,-2.533457 2.24107,-4.055526 3.85152,-4.800169 2.69104,-1.244301 18.07893,-2.163468 18.7701,-1.121225 0.58713,0.885308 -0.6799,2.364533 -4.7807,5.581387 -1.82159,1.428944 -7.82701,6.724454 -13.34535,11.7678 -7.1046,6.49309 -10.60919,9.172807 -12.00607,9.180277 -1.08498,0.0062 -2.81107,0.219901 -3.83572,0.475827 -1.02465,0.255776 -1.86303,0.120168 -1.86303,-0.301882 z M 64.570454,58.294681 c -1.581372,-4.680942 -1.297055,-6.911032 1.675503,-13.142012 5.61682,-11.773815 9.249732,-20.432424 11.866989,-28.283547 1.671404,-5.0138 3.013881,-7.7997173 3.758538,-7.7997173 1.446314,0 4.056976,6.3883183 5.770953,14.1215153 1.810401,8.168349 1.686412,9.967226 -0.839197,12.173337 -1.177931,1.02891 -3.260528,3.477811 -4.628042,5.442002 -1.367483,1.964193 -3.576187,4.322182 -4.908215,5.239983 -1.332029,0.917796 -3.527516,3.494502 -4.878859,5.726012 -2.683676,4.431639 -7.239818,8.232903 -7.81767,6.522427 z"
       id="path1" /></g></svg>
