<?xml version="1.0" encoding="UTF-8" standalone="no"?>
<!-- Created with Inkscape (http://www.inkscape.org/) -->

<svg
   width="180"
   height="240"
   viewBox="0 0 180 240"
   version="1.1"
   id="svg1"
   xml:space="preserve"
   inkscape:version="1.4.2 (f4327f4, 2025-05-13)"
   sodipodi:docname="food_grain_amaranth.svg"
   xmlns:inkscape="http://www.inkscape.org/namespaces/inkscape"
   xmlns:sodipodi="http://sodipodi.sourceforge.net/DTD/sodipodi-0.dtd"
   xmlns="http://www.w3.org/2000/svg"
   xmlns:svg="http://www.w3.org/2000/svg"><sodipodi:namedview
     id="namedview1"
     pagecolor="#505050"
     bordercolor="#ffffff"
     borderopacity="1"
     inkscape:showpageshadow="0"
     inkscape:pageopacity="0"
     inkscape:pagecheckerboard="1"
     inkscape:deskcolor="#505050"
     inkscape:document-units="px"
     inkscape:zoom="3.1"
     inkscape:cx="-47.419355"
     inkscape:cy="98.387097"
     inkscape:window-width="2560"
     inkscape:window-height="1351"
     inkscape:window-x="-9"
     inkscape:window-y="-9"
     inkscape:window-maximized="1"
     inkscape:current-layer="layer1" /><defs
     id="defs1" /><g
     inkscape:label="Warstwa 1"
     inkscape:groupmode="layer"
     id="layer1"><path
       style="fill:#000000;stroke-width:1.10043"
       d="m 87.217794,233.30905 c -0.230076,-0.76622 -0.685657,-7.2845 -1.012408,-14.48504 -0.326742,-7.20054 -1.112744,-14.08596 -1.746662,-15.30093 -0.633912,-1.21499 -4.083786,-4.25084 -7.666388,-6.74638 -3.5826,-2.49549 -7.694224,-6.39285 -9.136939,-8.66076 -2.958056,-4.64997 -5.600846,-14.25201 -6.656311,-24.1844 l -0.710592,-6.68701 3.298025,4.48297 c 1.813905,2.46564 5.660012,6.17988 8.546889,8.25387 10.778055,7.74317 14.514422,12.463 17.21109,21.74137 l 1.274977,4.38676 2.752126,-6.0585 c 3.28636,-7.23456 5.857001,-10.13874 12.920159,-14.59665 2.91881,-1.84219 6.82706,-5.18843 8.68501,-7.43612 l 3.37812,-4.08669 -0.59224,9.47323 c -1.03895,16.61854 -3.52583,21.36546 -14.90911,28.45842 l -6.456995,4.02341 -0.0065,6.32768 c -0.0099,9.75559 -1.829944,19.19587 -4.031587,20.90901 -2.450273,1.90656 -4.600822,1.98427 -5.14087,0.18576 z M 90.23256,176.0819 c 0.97099,-10.66575 4.797583,-18.48343 11.25137,-22.98647 2.87906,-2.00881 7.62695,-6.03462 10.55086,-8.94622 2.92393,-2.91164 5.54719,-5.29388 5.82949,-5.29388 0.94748,0 -1.02502,12.72446 -2.96222,19.10883 -1.05472,3.47608 -2.98122,7.85223 -4.28114,9.72475 -2.0282,2.9217 -18.678908,15.74634 -20.444047,15.74634 -0.337556,0 -0.312488,-3.309 0.05572,-7.35335 z m -9.254565,-4.90613 C 71.773584,164.82571 68.421421,161.57856 66.020929,156.68729 63.267318,151.07653 60.331412,137.704 60.737045,132.62018 l 0.34729,-4.35259 2.941066,5.13161 c 2.006927,3.50175 5.189123,6.634 10.018984,9.86181 7.502505,5.01387 13.148013,12.27239 14.251309,18.32311 0.347185,1.90405 0.47839,5.96953 0.291563,9.03441 l -0.339683,5.57248 z m 9.32778,-18.46185 c -0.984678,-4.02422 1.313469,-15.58479 4.15441,-20.8983 1.700549,-3.18057 4.859547,-6.2662 9.938815,-9.70796 8.40151,-5.69297 9.879,-7.98983 14.8565,-23.095654 3.57792,-10.858328 6.1532,-13.838758 4.81503,-5.572492 -0.42174,2.605136 -1.98729,8.999576 -3.47898,14.209866 -1.49169,5.21027 -3.35147,13.12346 -4.13285,17.58487 -1.71982,9.81949 -5.85176,17.44684 -11.20112,20.67677 -2.18441,1.31894 -6.29325,3.99789 -9.130734,5.95322 l -5.159079,3.55515 z m -10.276624,-9.87967 c -3.922534,-2.68621 -8.6687,-6.67937 -10.547017,-8.87375 -3.532872,-4.12731 -6.768002,-13.13291 -6.768002,-18.84004 0,-1.79815 -1.203945,-7.85078 -2.67542,-13.45033 -2.94897,-11.221955 -5.307847,-28.156435 -4.182247,-30.024575 0.395444,-0.656312 2.346535,5.295339 4.335752,13.225889 4.612723,18.389876 6.74606,22.385056 15.53956,29.101616 9.512933,7.26607 12.240477,12.47522 12.858747,24.55798 0.260051,5.08214 0.04477,9.22833 -0.478332,9.21373 -0.523132,-0.0145 -4.160497,-2.22433 -8.083041,-4.91052 z m 11.137981,-25.53567 c 0.598407,-11.6947 3.670956,-17.706374 11.776508,-23.041577 7.08207,-4.661537 9.71094,-8.377644 14.17857,-20.042582 1.9955,-5.210278 4.07789,-9.974757 4.62747,-10.587732 2.10561,-2.348477 -0.28693,11.697187 -3.34494,19.636649 -1.74254,4.524193 -3.76462,11.747045 -4.49349,16.050798 -1.88793,11.147554 -4.75962,15.741734 -13.7253,21.957924 -4.175747,2.89518 -8.020279,5.27741 -8.543404,5.29387 -0.523134,0.0164 -0.737073,-4.15386 -0.475414,-9.26735 z m -8.785168,-2.81555 C 68.428711,102.66599 66.010173,98.703686 65.965831,87.588397 65.954852,84.830016 64.485283,76.585397 62.700182,69.267026 60.542926,60.422962 59.454541,53.166279 59.454541,47.62719 c 0,-4.583539 0.280323,-8.046168 0.622938,-7.694729 0.342627,0.351438 1.363031,4.32184 2.267581,8.823111 0.904545,4.501273 3.042033,12.651632 4.74997,18.111912 2.909509,9.301737 3.584775,10.404211 10.708311,17.482967 8.531863,8.478227 11.001003,14.206465 10.970864,25.451579 -0.02382,8.85866 -0.793654,9.42246 -6.392241,4.681 z M 90.31541,90.2288 c 1.275118,-12.766268 4.206977,-17.684287 14.27283,-23.941872 6.787,-4.219245 9.30471,-8.384755 12.27576,-20.310253 2.17036,-8.711532 2.94028,-10.535374 3.99195,-9.456606 1.13607,1.165307 -1.91429,18.364272 -4.34552,24.501585 -1.38504,3.49634 -3.07339,9.012088 -3.75185,12.257217 -1.94345,9.295156 -5.56114,14.517675 -13.668436,19.731785 -3.940868,2.534519 -7.693438,4.608216 -8.339043,4.608216 -0.796936,0 -0.936831,-2.372751 -0.435691,-7.390072 z M 79.907776,81.180034 C 70.06396,70.836436 69.611756,69.139393 67.445077,34.409597 66.790586,23.918584 67.567207,15.761552 69.126428,16.75002 c 0.47842,0.30329 1.154479,5.207079 1.502365,10.897329 0.826176,13.51371 2.080802,16.91644 8.951294,24.277113 7.576621,8.117172 9.568609,12.386244 9.620662,20.618213 0.04705,7.430667 -1.164977,15.045722 -2.394586,15.045722 -0.439819,0 -3.544099,-2.883763 -6.898387,-6.408363 z M 91.409688,68.083098 c -0.953918,-3.898534 0.366066,-13.47022 2.444493,-17.726047 0.926118,-1.896306 4.57763,-6.482334 8.114489,-10.191173 5.99747,-6.289098 6.50204,-7.227529 7.49076,-13.931222 2.12083,-14.379912 2.2593,-14.934674 3.30449,-13.240513 1.45269,2.354631 1.2302,10.670703 -0.69355,25.924055 -2.1123,16.748583 -4.00792,20.661305 -13.194303,27.234254 l -6.755983,4.833969 z M 83.943177,48.513892 C 79.035728,38.010164 78.761366,30.162972 82.951915,20.161266 84.492874,16.483421 86.295296,11.586899 86.9573,9.2800976 c 0.662014,-2.3067983 1.62337,-4.0506649 2.13636,-3.875266 2.171205,0.7423675 7.515554,16.1610574 8.081562,23.3157014 0.546227,6.904771 0.287959,8.11738 -3.560629,16.717477 -2.282255,5.099983 -4.526947,9.729888 -4.9882,10.288677 -0.461253,0.55879 -2.568712,-2.686969 -4.683216,-7.212795 z"
       id="path1" /></g></svg>
