<?xml version="1.0" encoding="UTF-8" standalone="no"?>
<!-- Created with Inkscape (http://www.inkscape.org/) -->

<svg
   width="180mm"
   height="180mm"
   viewBox="0 0 180 180"
   version="1.1"
   id="svg1"
   sodipodi:docname="place_blacksmith.svg"
   inkscape:version="1.4.2 (f4327f4, 2025-05-13)"
   xml:space="preserve"
   xmlns:inkscape="http://www.inkscape.org/namespaces/inkscape"
   xmlns:sodipodi="http://sodipodi.sourceforge.net/DTD/sodipodi-0.dtd"
   xmlns="http://www.w3.org/2000/svg"
   xmlns:svg="http://www.w3.org/2000/svg"><sodipodi:namedview
     id="namedview1"
     pagecolor="#505050"
     bordercolor="#ffffff"
     borderopacity="1"
     inkscape:showpageshadow="0"
     inkscape:pageopacity="0"
     inkscape:pagecheckerboard="1"
     inkscape:deskcolor="#505050"
     inkscape:document-units="mm"
     inkscape:zoom="1"
     inkscape:cx="73"
     inkscape:cy="204"
     inkscape:window-width="2560"
     inkscape:window-height="1351"
     inkscape:window-x="-9"
     inkscape:window-y="-9"
     inkscape:window-maximized="1"
     inkscape:current-layer="layer1"
     showguides="true" /><defs
     id="defs1"><rect
       x="101.82338"
       y="91.923881"
       width="384.66609"
       height="299.81327"
       id="rect3" /><rect
       x="2.8284271"
       y="2.1213203"
       width="662.55905"
       height="647.0027"
       id="rect2" /></defs><g
     inkscape:label="Icon"
     inkscape:groupmode="layer"
     id="layer1"><path
       style="fill:#000000;stroke-width:4.22796"
       d="m 53.157902,162.53169 c -1.645823,-0.39986 -2.030615,-1.70443 -2.030615,-6.8848 v -6.3916 h 12.388891 c 12.264076,0 12.448314,-0.0367 18.290881,-3.77793 11.896652,-7.61516 26.534161,-7.61516 38.430861,0 5.8334,3.734 6.04457,3.77793 18.16673,3.77793 13.59237,0 13.67338,0.044 13.67338,7.42161 0,5.89 -1.40269,6.59817 -13.06909,6.59817 -9.2375,0 -11.07396,-0.35666 -18.04349,-3.50492 -7.31622,-3.30483 -8.4881,-3.50497 -20.52316,-3.50497 -12.2617,0 -13.02567,0.13777 -19.418322,3.50497 -6.111272,3.21882 -7.437342,3.49472 -16.244961,3.37983 -5.274766,-0.0689 -10.504271,-0.34687 -11.621105,-0.61829 z m 2.610784,-17.02326 c 0,-0.28125 1.597669,-1.27938 3.550396,-2.21788 5.011674,-2.40872 12.523703,-8.93352 14.617339,-12.69633 2.385409,-4.28731 2.380234,-11.82655 -0.0088,-15.21772 -1.063767,-1.50889 -3.508206,-3.49998 -5.43212,-4.42463 l -3.497988,-1.68119 0.317955,-18.022907 0.317955,-18.022856 56.567227,-0.280022 56.56724,-0.280022 v 3.245566 3.245605 h -53.46136 c -50.290888,0 -53.438161,0.112091 -53.070429,1.887275 0.364442,1.759291 3.951194,1.906308 52.881149,2.167873 33.65631,0.180152 52.49026,0.663615 52.49026,1.34805 0,2.786038 -4.8602,5.08414 -14.45968,6.837152 -17.66168,3.225265 -28.93592,9.722336 -33.83331,19.497356 -6.19868,12.37233 -2.39699,21.149 14.13808,32.63948 l 3.40554,2.36657 -9.68386,0.0599 c -8.14057,0.0506 -10.24732,-0.31304 -13.21926,-2.27979 -13.89801,-9.19769 -30.790458,-9.59656 -44.166938,-1.04297 -4.85673,3.10563 -6.056803,3.38268 -14.653826,3.38268 -5.150083,0 -9.363843,-0.23029 -9.363843,-0.51154 z M 50.547118,108.15667 C 40.41834,106.79911 28.449502,103.22358 19.555531,98.898337 11.062928,94.768307 1.2321074,85.936976 1.2321074,82.437926 c 0,-2.144919 0.6117018,-2.203125 23.1544546,-2.203125 H 47.54106 l 0.710028,4.044177 c 0.390317,2.224277 0.805808,4.737628 0.922859,5.585152 0.117095,0.847534 0.73498,1.575508 1.373171,1.617655 0.63819,0.04242 1.315808,-2.956419 1.505791,-6.663585 l 0.345584,-6.74026 h 4.586054 4.586052 V 93.7154 c 0,14.22394 -0.183317,15.62555 -2.030615,15.50593 -1.116833,-0.0722 -5.16359,-0.55141 -8.992735,-1.06466 z m 78.405442,-45.446232 -3.97966,-1.348386 0.0465,-21.029692 0.0465,-21.029694 2.77296,-1.332163 c 3.02181,-1.451671 13.04818,-1.696476 16.59156,-0.405155 2.06991,0.754388 2.22283,2.203125 2.33436,22.113545 0.0838,14.926151 -0.28243,21.616027 -1.22192,22.340783 -2.21774,1.710621 -12.33639,2.131877 -16.58992,0.69068 z M 25.662549,45.257526 c -1.690863,-1.895182 -2.110608,-8.110692 -0.691827,-10.244321 0.867251,-1.304161 57.52084,-1.608638 82.143628,-0.441513 l 14.79448,0.701277 v 5.225814 5.225773 h -12.57485 c -6.91619,0 -28.194188,0.317929 -47.284431,0.706577 -32.139295,0.654241 -34.833712,0.56734 -36.387,-1.173607 z M 149.7573,40.470985 c 0,-5.70711 0.90541,-7.046364 4.01413,-5.937648 1.46084,0.520995 1.82209,1.837017 1.55517,5.665329 -0.29514,4.232327 -0.74265,5.038806 -2.95847,5.331302 -2.40948,0.317928 -2.61083,-0.07215 -2.61083,-5.058983 z"
       id="path1" /></g></svg>
