<?xml version="1.0" encoding="UTF-8" standalone="no"?>
<!-- Created with Inkscape (http://www.inkscape.org/) -->

<svg
   width="180mm"
   height="180mm"
   viewBox="0 0 180 180"
   version="1.1"
   id="svg1"
   sodipodi:docname="place_campfire.svg"
   inkscape:version="1.4.2 (f4327f4, 2025-05-13)"
   xml:space="preserve"
   xmlns:inkscape="http://www.inkscape.org/namespaces/inkscape"
   xmlns:sodipodi="http://sodipodi.sourceforge.net/DTD/sodipodi-0.dtd"
   xmlns="http://www.w3.org/2000/svg"
   xmlns:svg="http://www.w3.org/2000/svg"><sodipodi:namedview
     id="namedview1"
     pagecolor="#505050"
     bordercolor="#ffffff"
     borderopacity="1"
     inkscape:showpageshadow="0"
     inkscape:pageopacity="0"
     inkscape:pagecheckerboard="1"
     inkscape:deskcolor="#505050"
     inkscape:document-units="mm"
     inkscape:zoom="0.70710678"
     inkscape:cx="138.59293"
     inkscape:cy="606.69762"
     inkscape:window-width="2560"
     inkscape:window-height="1351"
     inkscape:window-x="-9"
     inkscape:window-y="-9"
     inkscape:window-maximized="1"
     inkscape:current-layer="layer1"
     showguides="true" /><defs
     id="defs1"><rect
       x="101.82338"
       y="91.923881"
       width="384.66609"
       height="299.81327"
       id="rect3" /><rect
       x="2.8284271"
       y="2.1213203"
       width="662.55905"
       height="647.0027"
       id="rect2" /></defs><g
     inkscape:label="Icon"
     inkscape:groupmode="layer"
     id="layer1"><path
       style="fill:#000000;stroke-width:2.16516"
       d="m 37.937239,172.19819 c -2.326457,-0.80485 -4.720405,-1.92794 -5.319859,-2.4957 -0.599453,-0.56778 -2.010029,-3.55575 -3.134591,-6.63994 -1.594796,-4.37381 -1.965159,-6.07224 -1.683261,-7.71909 0.539439,-3.15153 2.24455,-6.97864 3.407026,-7.64703 0.564402,-0.32451 9.603536,-3.40523 20.086981,-6.84606 10.483446,-3.44082 21.547921,-7.24089 24.587717,-8.44461 5.72448,-2.26684 13.507451,-5.00283 14.231758,-5.00299 0.227983,-4e-5 0.414501,0.68594 0.414501,1.52439 0,1.17053 0.224558,1.45465 0.967205,1.22383 0.531982,-0.1654 3.165716,-0.73082 5.85276,-1.25666 9.036194,-1.76833 14.584884,-4.5501 20.183464,-10.11872 3.13269,-3.11595 6.60903,-5.02978 9.13621,-5.02978 1.61326,0 7.39943,7.29911 7.8552,9.90918 0.41753,2.39117 -0.11656,5.78753 -1.03783,6.59944 -0.37193,0.32776 -4.6556,2.37328 -9.51927,4.54557 -4.86368,2.17229 -9.03474,4.15428 -9.26906,4.40439 -0.23429,0.25014 5.11298,2.67371 11.88283,5.38576 6.76987,2.71202 12.60327,5.18272 12.9631,5.49044 0.35984,0.30773 1.03192,2.3383 1.49351,4.51239 l 0.83928,3.9529 -2.5989,5.29368 c -2.59178,5.27917 -2.6095,5.29892 -6.46773,7.20382 -6.21261,3.06732 -5.59856,3.09441 -13.95817,-0.61612 -19.238992,-8.53946 -31.116698,-14.12434 -30.969911,-14.56198 0.08815,-0.26273 3.227276,-2.65538 6.97588,-5.31699 3.748625,-2.6616 6.711511,-4.95122 6.584171,-5.088 -0.40922,-0.43966 -33.561972,15.44514 -51.488711,24.67026 -3.833414,1.97269 -7.153124,3.57418 -7.377118,3.55887 -0.223972,-0.0157 -2.310726,-0.68639 -4.637182,-1.49125 z m 5.321111,-5.57673 c 2.358417,-4.89973 -0.642401,-12.9509 -5.691433,-15.27011 -2.497788,-1.14733 -3.701771,-0.58594 -4.7438,2.21194 -1.153306,3.09666 -1.108499,3.67447 0.661076,8.52539 1.448656,3.97117 1.589072,4.14085 4.261472,5.14953 3.859274,1.45666 4.551976,1.37917 5.512685,-0.61675 z m 86.82621,0.77701 c 3.51239,-1.25707 3.91542,-1.63068 5.59077,-5.18261 1.08291,-2.29586 1.3371,-3.55728 1.12475,-5.58136 -0.3881,-3.69922 -0.94496,-4.09041 -4.02426,-2.82697 -3.80315,1.56039 -6.01325,3.9288 -7.08626,7.59379 -0.73703,2.51741 -0.79763,3.53306 -0.30193,5.06073 0.71345,2.19873 1.00658,2.25719 4.69693,0.93642 z m -9.71181,-4.95548 c 0,-1.14337 -13.49838,-7.67326 -14.23221,-6.88488 -0.40682,0.43706 2.36209,2.11621 7.96924,4.83279 5.80291,2.81141 6.26297,2.96216 6.26297,2.05209 z m -60.791564,-6.45027 c 9.762877,-4.45275 18.094792,-8.76134 15.747363,-8.14322 -5.803691,1.52819 -25.727153,9.6274 -26.971639,10.9644 -0.51901,0.55759 -0.08857,1.84029 0.617606,1.84029 0.212421,0 4.985403,-2.09765 10.60667,-4.66147 z m 67.106224,-3.84244 c 0.88743,-0.69714 0.29715,-1.05791 -5.28307,-3.22911 -3.45518,-1.34436 -7.02827,-2.63158 -7.9402,-2.86049 l -1.65807,-0.41623 1.45312,1.25688 c 1.82552,1.57899 10.34441,6.03377 11.53839,6.03377 0.48995,0 1.34037,-0.35317 1.88983,-0.78482 z m -74.264236,-3.40857 c 8.822076,-3.68666 20.104925,-9.08087 19.469814,-9.30832 -0.536807,-0.19233 -17.759355,5.91114 -24.639919,8.73194 -2.635489,1.08047 -3.089617,1.46241 -2.557614,2.15108 0.918721,1.18929 1.298965,1.1118 7.727719,-1.5747 z M 85.95897,138.57878 c 3.110924,-1.29363 5.799241,-2.60065 5.974041,-2.90451 1.241792,-2.15865 -9.877392,2.08598 -13.288324,5.07267 -1.080633,0.94622 -1.07445,0.95912 0.276341,0.57588 0.759965,-0.21567 3.927018,-1.45042 7.037942,-2.74404 z m -63.66749,2.51751 c -0.222573,-0.3869 -0.374416,-18.52709 -0.337421,-40.31156 l 0.06726,-39.608102 -1.454067,-3.849558 c -0.799755,-2.117264 -1.738551,-4.045881 -2.08625,-4.285808 -0.347677,-0.239949 -2.746201,-0.460868 -5.330009,-0.490985 -5.0025536,-0.05835 -8.8826126,-0.981679 -9.261937,-2.204227 -0.3635532,-1.171761 3.1909916,-2.43291 8.0957,-2.872345 2.465306,-0.220829 4.482374,-0.622765 4.482374,-0.893078 0,-0.270313 -0.621784,-2.001957 -1.381728,-3.848077 -1.816386,-4.41247 -1.750022,-5.183823 0.560955,-6.520892 2.690406,-1.556574 3.394702,-0.901605 5.841228,5.432188 1.892633,4.899841 2.166258,5.302091 3.606455,5.302091 1.426388,0 1.732204,-0.427654 3.609128,-5.047083 1.127883,-2.775913 2.346467,-5.40243 2.707974,-5.836727 0.813294,-0.977033 3.174656,-0.443812 4.576959,1.03352 0.972094,1.024116 0.958161,1.18581 -0.414522,4.815146 -0.781209,2.065512 -1.420393,4.110199 -1.420393,4.543755 0,0.633783 2.656879,0.788296 13.554575,0.788296 h 13.554576 l 0.534614,1.510613 c 0.294013,0.830846 0.687897,2.166861 0.875272,2.968891 l 0.340659,1.458256 H 47.260088 31.507294 l -1.482246,3.977837 -1.482246,3.977814 0.179855,39.613285 c 0.09901,21.78732 0.02716,39.77836 -0.159592,39.9801 -0.718083,0.77566 -5.863267,1.07647 -6.271585,0.36665 z m 119.47606,0.18717 c -0.21591,-0.23196 -0.39257,-18.67036 -0.39257,-40.97423 0,-39.56737 -0.0278,-40.632331 -1.1451,-43.84052 l -1.14507,-3.288039 h -15.63872 -15.6387 l -0.54641,-2.968891 -0.5464,-2.968869 h 14.84309 c 8.1637,0 14.8431,-0.233957 14.8431,-0.51989 0,-0.285955 -0.62178,-2.030368 -1.38173,-3.876489 -0.75994,-1.84612 -1.38172,-3.887687 -1.38172,-4.53682 0,-1.519366 3.53217,-3.462435 4.76684,-2.622231 0.46114,0.313806 1.77143,2.975355 2.91174,5.914533 1.93755,4.994098 2.17857,5.34399 3.68089,5.34399 1.50357,0 1.75382,-0.364973 3.86769,-5.640763 1.34997,-3.369233 2.61905,-5.715023 3.15145,-5.825168 0.95901,-0.198387 4.00194,1.295798 4.5386,2.228643 0.27292,0.474423 -0.41065,2.585156 -2.84726,8.791973 -0.21298,0.542534 0.53892,0.742222 2.79481,0.742222 4.75715,0 5.02474,0.71949 4.53612,12.197024 l -0.39077,9.178939 h 6.66812 c 5.9312,0 6.79028,0.131285 7.77349,1.187539 1.40982,1.51463 1.39788,2.654658 -0.0441,4.203804 -1.09745,1.179033 -1.5163,1.216399 -9.25756,0.825483 -5.20498,-0.262818 -8.36794,-0.672833 -8.83381,-1.145124 -0.51464,-0.52173 -0.82092,-3.619932 -1.053,-10.652455 l -0.32727,-9.916719 -2.24893,0.178189 c -2.13305,0.168988 -2.30664,0.331086 -3.36853,3.146968 -1.07669,2.855133 -1.13016,4.538594 -1.39593,43.939491 l -0.27634,40.97059 -3.06173,0.17438 c -1.68396,0.0958 -3.23839,-0.0157 -3.45432,-0.2474 z m -99.477983,-5.54014 c -2.972471,-1.25704 -5.770456,-2.61181 -6.217753,-3.01063 -1.2119,-1.08056 -1.017652,-5.68892 0.369569,-8.76758 1.650131,-3.6621 4.945735,-7.25032 6.659077,-7.25032 2.376423,0 7.781717,2.31639 10.949543,4.69234 4.310896,3.23326 7.844155,5.03636 13.502395,6.89051 3.525739,1.15538 4.686565,1.75986 4.079967,2.12456 -1.523272,0.91584 -21.698112,7.66043 -22.832911,7.63318 -0.607955,-0.0157 -3.537394,-1.05501 -6.509887,-2.31206 z M 65.086351,123.30678 C 55.859069,119.6201 49.524357,113.27814 46.778198,104.97765 45.564377,101.30881 45.128756,92.938054 45.982994,89.697952 l 0.469648,-1.78133 0.927683,2.190671 0.927683,2.190694 -0.03071,-4.016369 c -0.02841,-3.724377 0.201161,-4.520775 3.158467,-10.955355 4.006292,-8.717106 4.680716,-11.631104 3.829737,-16.547105 -0.349369,-2.018339 -0.561748,-3.748659 -0.471946,-3.845137 0.08982,-0.0965 1.156397,0.609209 2.370198,1.568199 3.254243,2.571108 5.196696,6.817642 5.574705,12.187149 l 0.310327,4.40834 1.044767,-1.426926 c 1.995761,-2.725823 3.90851,-8.122821 4.183577,-11.804357 0.240266,-3.215618 -0.03635,-4.636261 -2.315197,-11.890421 -2.092624,-6.661333 -2.521456,-8.706132 -2.240038,-10.681338 0.471319,-3.308393 3.171168,-9.209124 5.141424,-11.237091 l 1.610462,-1.657631 -0.268633,3.003587 c -0.429542,4.802668 0.686018,7.841129 4.601066,12.531857 3.40078,4.074584 5.166073,7.830761 5.264857,11.20262 0.04011,1.369072 0.152908,1.281301 1.09089,-0.847992 1.673652,-3.799782 1.44099,-10.125114 -0.600644,-16.328878 -3.246244,-9.86416 -2.658885,-16.958174 1.962527,-23.70261 2.156983,-3.1478659 5.553272,-6.4415078 6.069921,-5.8864509 0.117397,0.1261237 -0.04345,1.4244806 -0.357328,2.8852208 -0.313921,1.4607471 -0.463862,4.5560761 -0.33318,6.8785261 0.313983,5.580462 2.320335,10.062412 7.97139,17.807131 5.134203,7.036361 7.109283,11.406819 7.972373,17.641195 0.70363,5.082654 0.0813,11.581507 -1.69673,17.719135 -1.17996,4.073103 -0.89134,4.038901 3.36694,-0.39904 3.33851,-3.479378 4.85508,-6.467031 5.29128,-10.423884 0.2711,-2.459033 0.45099,-2.818059 1.11527,-2.225794 1.49068,1.329148 3.04454,5.448773 3.3036,8.758647 0.19657,2.511591 -0.10799,4.596269 -1.26402,8.652765 -2.06895,7.259838 -2.25436,10.203751 -0.85643,13.59895 1.93652,4.703273 3.56587,3.322711 4.77693,-4.047519 l 0.69135,-4.20744 1.51437,3.466855 c 2.14702,4.91517 3.03242,8.948506 3.03999,13.84819 0.0188,12.305554 -7.14277,22.229524 -19.21144,26.621124 -7.098379,2.58298 -7.170383,2.5461 -3.25042,-1.66526 3.94592,-4.23927 5.33504,-7.52912 5.33504,-12.63496 0,-3.87447 -1.51823,-9.212558 -3.61585,-12.713324 l -1.60104,-2.671984 -0.39267,3.660216 c -0.440322,4.104542 -1.357486,6.340392 -3.85377,9.394852 -2.181486,2.66927 -2.921564,2.67434 -2.457514,0.0157 0.524315,-3.00255 -0.395785,-5.92113 -3.559433,-11.290547 -4.721282,-8.013057 -5.39673,-13.165932 -2.790151,-21.285544 l 1.114661,-3.472219 -2.089721,1.987773 c -3.299991,3.139024 -7.091835,8.519012 -9.056786,12.850085 -1.670686,3.682478 -1.807133,4.428942 -1.812982,9.919905 -0.0042,3.265753 0.174424,6.808417 0.395284,7.872527 l 0.401634,1.93479 -2.059703,-1.12937 c -3.787354,-2.07669 -5.810083,-5.793034 -5.810083,-10.674787 v -3.212185 l -1.005223,1.416963 c -3.017759,4.253805 -5.469153,11.417029 -5.469153,15.981459 0,5.44762 3.139313,11.94518 7.558456,15.64404 2.547128,2.13198 2.556194,2.152 0.960771,2.12341 -0.885821,-0.0157 -3.483773,-0.77728 -5.773214,-1.69201 z M 105.84465,40.059847 c -0.16712,-1.338079 -1.22862,-4.042671 -2.35903,-6.010224 -2.62398,-4.56723 -2.9921,-7.60246 -1.39305,-11.48613 1.14516,-2.781299 2.61893,-5.013398 3.30505,-5.005768 0.1809,0.002 0.35355,1.326769 0.38371,2.943891 0.0445,2.381338 0.45603,3.566049 2.1654,6.232468 3.32155,5.181286 3.26283,10.523302 -0.16168,14.719499 -1.25898,1.542615 -1.60472,1.294272 -1.9403,-1.393736 z"
       id="path1" /></g></svg>
