<?xml version="1.0" encoding="UTF-8" standalone="no"?>
<!-- Created with Inkscape (http://www.inkscape.org/) -->

<svg
   width="240mm"
   height="180mm"
   viewBox="0 0 240 180"
   version="1.1"
   id="svg1"
   sodipodi:docname="harbor.svg"
   inkscape:version="1.4.2 (f4327f4, 2025-05-13)"
   xml:space="preserve"
   xmlns:inkscape="http://www.inkscape.org/namespaces/inkscape"
   xmlns:sodipodi="http://sodipodi.sourceforge.net/DTD/sodipodi-0.dtd"
   xmlns="http://www.w3.org/2000/svg"
   xmlns:svg="http://www.w3.org/2000/svg"><sodipodi:namedview
     id="namedview1"
     pagecolor="#505050"
     bordercolor="#ffffff"
     borderopacity="1"
     inkscape:showpageshadow="0"
     inkscape:pageopacity="0"
     inkscape:pagecheckerboard="1"
     inkscape:deskcolor="#505050"
     inkscape:document-units="mm"
     inkscape:zoom="0.70710678"
     inkscape:cx="138.59293"
     inkscape:cy="606.69762"
     inkscape:window-width="2560"
     inkscape:window-height="1351"
     inkscape:window-x="-9"
     inkscape:window-y="-9"
     inkscape:window-maximized="1"
     inkscape:current-layer="layer1"
     showguides="true" /><defs
     id="defs1"><rect
       x="101.82338"
       y="91.923882"
       width="384.66608"
       height="299.81326"
       id="rect3" /><rect
       x="2.8284271"
       y="2.1213202"
       width="662.55902"
       height="647.00269"
       id="rect2" /></defs><g
     inkscape:label="Icon"
     inkscape:groupmode="layer"
     id="layer1"><path
       style="fill:#000000;stroke-width:4.05404"
       d="m 48.662349,170.79103 c -1.966047,-0.48926 -7.621237,-2.30418 -12.567062,-4.03321 -8.77864,-3.06893 -9.23845,-3.11282 -19.336692,-1.84622 -6.144106,0.77066 -10.7181685,0.88503 -11.2651399,0.28187 -1.8999245,-2.09572 17.5907459,-10.28738 24.4770269,-10.28738 1.279534,0 6.630705,1.52085 11.891435,3.37961 11.531136,4.07435 18.292776,4.29439 27.885002,0.90755 10.164904,-3.58904 18.613778,-3.37128 26.66163,0.68724 3.510729,1.77046 6.383161,3.67276 6.383161,4.22728 0,0.57486 -4.499873,0.69683 -10.468423,0.28357 -10.077629,-0.69742 -10.764296,-0.59387 -18.394837,2.77406 -8.442157,3.7262 -18.856346,5.22059 -25.266101,3.62559 z m 100.912241,-0.16265 c -2.27583,-0.5914 -2.36576,-1.06704 -2.64516,-13.98801 -0.16096,-7.43841 0.14244,-13.8519 0.68327,-14.4484 1.52489,-1.682 85.13863,-1.0386 86.11912,0.66268 1.37384,2.38379 0.94043,23.81383 -0.5264,26.02651 -1.2395,1.86976 -4.19944,2.02648 -41.30502,2.18675 -21.98342,0.095 -41.03003,-0.10262 -42.32581,-0.43953 z M 98.706485,150.85683 c -9.883583,-3.64083 -17.84138,-3.83651 -27.174789,-0.66826 -9.746821,3.30859 -18.938525,3.19329 -29.966078,-0.37596 -4.745797,-1.53599 -10.818761,-2.79271 -13.495524,-2.79271 -4.477793,0 -5.076064,-0.33764 -7.483896,-4.22453 -3.245351,-5.23876 -6.648385,-17.04341 -6.648385,-23.06229 0,-5.14254 -1.141151,-5.05292 12.67441,-0.99581 4.443168,1.30476 11.035042,2.3723 14.648566,2.3723 14.311311,0 39.629947,-7.78941 59.952701,-18.44483 15.26725,-8.004786 17.91919,-10.107662 17.91919,-14.209253 0,-5.736751 0.87732,-6.774635 5.72645,-6.774635 h 4.48663 v 6.048378 c 0,7.924904 -2.51136,23.59057 -5.26505,32.84323 -1.20712,4.05602 -4.37855,11.0323 -7.04755,15.50283 -2.66905,4.47054 -4.64015,8.50848 -4.38029,8.97317 0.70079,1.25315 10.49023,1.01165 15.00137,-0.37 4.9654,-1.52083 5.7525,-0.66421 2.6917,2.92952 -5.47797,6.43184 -19.17927,7.83869 -31.639455,3.24872 z M 149.33079,133.22 c 0.3948,-1.39408 1.78165,-5.20211 3.08187,-8.46229 l 2.36405,-5.92757 39.62663,0.29506 39.6266,0.29506 0.31305,6.72775 c 0.24974,5.37058 -0.0471,7.01817 -1.47185,8.16739 -1.37896,1.1122 -11.16377,1.43962 -43.02155,1.43962 H 148.61296 Z M 32.832026,115.95932 c -14.396965,-3.74989 -17.241642,-5.1785 -13.021702,-6.53955 3.522696,-1.13613 24.625369,-4.08814 45.192959,-6.32189 11.515272,-1.25064 22.718458,-2.58094 24.895998,-2.95622 6.103382,-1.051843 3.746812,1.17153 -5.242355,4.94614 -17.91283,7.52156 -43.820629,12.95639 -51.8249,10.87152 z m 126.387014,-1.40033 c -2.82121,-0.4483 -2.88807,-2.60827 -0.27715,-8.95336 l 1.97608,-4.8021 36.5559,0.29593 36.55595,0.29591 0.30918,5.92694 c 0.21463,4.11764 -0.0969,6.07393 -1.02129,6.40858 -1.59544,0.57771 -70.80724,1.35117 -74.09871,0.8281 z M 51.726277,76.297159 c 0,-12.949709 -0.302244,-32.743619 -0.671303,-43.98656 L 50.383707,11.868912 54.369109,10.032153 C 57.307237,8.6780123 60.344917,8.33624 65.928733,8.7315323 75.304371,9.3951913 76.237696,10.504341 76.237696,20.982501 v 7.589476 l 5.361865,2.180959 c 18.946289,7.70648 31.852229,10.433327 52.972499,11.19236 21.07367,0.75733 35.55019,-1.334854 49.56922,-7.163998 5.83653,-2.426802 6.54652,-6.245425 1.74255,-9.371907 -2.84197,-1.849533 -3.43001,-2.90065 -3.43001,-6.131318 0,-4.922323 3.23442,-7.93921 10.30483,-9.6117467 14.30837,-3.3848001 27.48363,1.4280127 27.48363,10.0394397 0,2.773171 -0.71898,3.939333 -3.57457,5.797763 l -3.57458,2.326361 v 10.02752 c 0,8.995733 0.19377,10.027561 1.88429,10.027561 2.18692,0 4.72441,2.860541 5.71275,6.440048 0.55823,2.021888 0.20882,2.630281 -1.83659,3.196479 -3.33181,0.922405 -36.02718,0.167331 -36.94994,-0.853426 -1.7004,-1.880829 0.726,-6.726044 4.16112,-8.309212 2.87567,-1.325315 3.53825,-2.23831 3.53825,-4.875529 v -3.244806 l -7.7096,2.700492 c -12.66171,4.435106 -24.21975,6.200463 -40.8026,6.232142 -18.52765,0.03406 -33.14888,-2.221152 -49.388647,-7.622475 -6.539453,-2.174996 -12.916359,-4.23133 -14.170958,-4.56961 l -2.281029,-0.614992 -0.272135,30.231876 -0.272134,30.231888 -4.085224,0.735218 c -2.246907,0.404487 -7.417271,1.082534 -11.489719,1.507083 l -7.404494,0.77185 z M 181.17721,96.609328 c -17.42665,-0.322309 -18.12825,-0.423644 -18.12825,-2.618368 0,-1.255665 0.70117,-3.778677 1.55818,-5.606665 l 1.5582,-3.323668 27.2938,0.13157 c 15.0116,0.0724 30.28113,0.452645 33.93228,0.844911 l 6.63852,0.71321 0.32617,4.391471 c 0.2042,2.751712 -0.17718,4.743385 -1.0213,5.333801 -1.27659,0.892859 -9.9172,0.915 -52.15744,0.133686 z M 10.753721,91.687293 C 8.6704439,89.389342 8.5753318,88.5194 9.1329956,76.859351 9.4587851,70.046668 10.235315,63.908751 10.858484,63.219631 12.095943,61.85114 40.051353,60.754425 44.227366,61.910536 l 2.449636,0.678179 -0.284102,15.46043 -0.2841,15.460473 -16.571109,0.309551 c -15.827351,0.29549 -16.670429,0.199687 -18.78424,-2.131744 z m 69.313856,1.757493 c -0.672539,-0.767333 -1.167631,-30.806044 -0.510649,-30.984059 0.140508,-0.03833 19.627433,-0.324444 43.304462,-0.636325 27.80636,-0.366168 43.26982,-0.173291 43.67254,0.545591 0.71462,1.275372 -6.78611,25.145713 -9.15409,29.13204 -1.50876,2.539897 -2.00783,2.633269 -12.43977,2.326833 l -10.86793,-0.319327 0.25785,-6.924456 c 0.22774,-6.111607 -0.0154,-7.136535 -2.07976,-8.730645 -2.99383,-2.313032 -13.38486,-2.476104 -15.06993,-0.236309 -0.64957,0.863307 -1.51936,3.755788 -1.93289,6.427662 -1.18284,7.642527 -4.50045,9.186404 -21.031185,9.786872 -7.360529,0.267385 -13.727514,0.09277 -14.148802,-0.387877 z M 167.61622,78.589328 c 1.37971,-6.06353 0.55049,-5.920597 34.34807,-5.920597 h 31.51608 l 0.64027,2.813833 c 1.4478,6.362892 2.34654,6.198459 -33.87257,6.198459 h -33.33531 z m 6.4118,-9.093403 c -3.1837,-0.404062 -3.523,-1.960021 -1.21869,-5.588835 1.57911,-2.486794 1.785,-2.503696 30.43499,-2.503696 21.07338,0 29.17535,0.364039 30.07073,1.351842 1.6027,1.767825 1.57221,5.340863 -0.051,5.983361 -1.50098,0.594043 -55.12097,1.279588 -59.23595,0.757328 z"
       id="path1" /></g></svg>
