<?xml version="1.0" encoding="UTF-8" standalone="no"?>
<!-- Created with Inkscape (http://www.inkscape.org/) -->

<svg
   width="180mm"
   height="180mm"
   viewBox="0 0 180 180"
   version="1.1"
   id="svg1"
   sodipodi:docname="place_homestead.svg"
   inkscape:version="1.4.2 (f4327f4, 2025-05-13)"
   xml:space="preserve"
   xmlns:inkscape="http://www.inkscape.org/namespaces/inkscape"
   xmlns:sodipodi="http://sodipodi.sourceforge.net/DTD/sodipodi-0.dtd"
   xmlns="http://www.w3.org/2000/svg"
   xmlns:svg="http://www.w3.org/2000/svg"><sodipodi:namedview
     id="namedview1"
     pagecolor="#505050"
     bordercolor="#ffffff"
     borderopacity="1"
     inkscape:showpageshadow="0"
     inkscape:pageopacity="0"
     inkscape:pagecheckerboard="1"
     inkscape:deskcolor="#505050"
     inkscape:document-units="mm"
     inkscape:zoom="1"
     inkscape:cx="73"
     inkscape:cy="205"
     inkscape:window-width="2560"
     inkscape:window-height="1351"
     inkscape:window-x="-9"
     inkscape:window-y="-9"
     inkscape:window-maximized="1"
     inkscape:current-layer="layer1"
     showguides="true" /><defs
     id="defs1"><rect
       x="101.82338"
       y="91.923881"
       width="384.66609"
       height="299.81327"
       id="rect3" /><rect
       x="2.8284271"
       y="2.1213203"
       width="662.55905"
       height="647.0027"
       id="rect2" /></defs><g
     inkscape:label="Icon"
     inkscape:groupmode="layer"
     id="layer1"><path
       style="fill:#000000;stroke-width:4.21482"
       d="M 83.348554,160.33853 C 82.630065,158.99564 82.194311,146.1345 82.194311,126.27056 V 94.359885 l 2.736865,-2.7376 c 3.472886,-3.473768 6.663712,-3.473768 10.136598,0 l 2.736866,2.7376 v 32.729595 c 0,23.96926 -0.358212,33.08781 -1.338027,34.06798 -0.735936,0.73613 -3.728818,1.33838 -6.6509,1.33838 -4.111515,0 -5.573905,-0.4878 -6.467159,-2.15731 z m -34.604919,-31.87121 -28.433053,-14.9362 -0.603566,4.91737 c -0.725822,5.9133 -0.84281,6.04899 -5.926849,6.87424 -2.763921,0.44864 -4.8964626,0.0776 -6.8282787,-1.1887 L 4.142748,122.29288 V 89.923615 57.554314 l 2.7368658,-2.737597 c 3.2887652,-3.289685 6.1481392,-3.468755 9.6836072,-0.606509 2.161282,1.749722 2.732104,3.480853 3.189814,9.673969 l 0.557547,7.542882 6.132588,3.207232 c 3.372966,1.764012 16.544167,8.495264 29.269373,14.958374 l 23.1367,11.751065 v 5.60068 c 0,4.86995 -0.254541,5.50496 -1.951286,4.86692 C 75.824754,111.40792 63.002662,104.82943 48.404471,97.192835 33.806238,89.556245 21.36815,83.308118 20.764247,83.308118 c -0.66029,0 -0.969575,3.807546 -0.775845,9.550667 l 0.321969,9.550715 29.269331,15.15578 29.26933,15.15574 v 5.4072 c 0,2.97396 -0.376333,5.37753 -0.836277,5.34123 -0.459944,-0.0379 -13.631145,-6.78719 -29.269331,-15.00213 z m 52.406075,9.73159 v -5.33646 l 29.26933,-15.19136 29.26933,-15.19132 0.32197,-9.585825 c 0.177,-5.272224 -0.0738,-9.571157 -0.5575,-9.553242 -0.48384,0.01686 -13.67456,6.714982 -29.31278,14.882372 l -28.43306,14.849745 -0.34894,-4.41439 c -0.19217,-2.42793 -0.10451,-5.05193 0.19428,-5.8311 0.29879,-0.77917 13.62415,-8.124695 29.61161,-16.32336 l 29.06819,-14.906736 0.008,-5.782833 c 0.0126,-9.885244 3.51625,-14.775637 9.51035,-13.270787 6.12475,1.537603 6.10676,1.42716 6.10676,37.496811 0,31.821515 -0.0982,33.393345 -2.15673,34.495295 -1.18623,0.635 -3.93435,1.15455 -6.10693,1.15455 -4.83451,0 -7.86081,-3.79739 -7.10911,-8.92047 0.27013,-1.84141 0.30806,-3.34807 0.0843,-3.34807 -0.22377,0 -13.37782,6.7756 -29.23115,15.05685 -15.85332,8.28124 -29.13081,15.05684 -29.50554,15.05684 -0.37465,0 -0.68132,-2.40142 -0.68132,-5.33651 z M 23.098103,93.323325 v -5.599297 l 4.590128,2.342367 4.590128,2.34232 -3.753851,3.21161 c -2.064607,1.76638 -4.130184,3.23198 -4.590128,3.25693 -0.459944,0.0253 -0.836277,-2.47434 -0.836277,-5.55393 z m 128.872567,2.34459 -3.11733,-3.25465 3.41086,-1.76427 c 1.87597,-0.97038 3.68667,-1.764303 4.02373,-1.764303 0.33714,0 0.61288,2.258523 0.61288,5.018963 0,2.7604 -0.40794,5.01892 -0.90641,5.01892 -0.4985,0 -2.3092,-1.46459 -4.02373,-3.25466 z M 40.101919,77.934811 36.477825,76.000919 47.070827,66.809949 57.663829,57.618936 v -6.673543 c 0,-3.670419 -0.376333,-6.66351 -0.836277,-6.651244 -0.459944,0.01265 -7.81509,5.764412 -16.344748,12.782604 -8.529659,7.018235 -15.930613,12.499415 -16.446565,12.180437 -0.515952,-0.319105 -0.938136,-2.602916 -0.938136,-5.075449 0,-5.141504 -1.328503,-3.787649 19.787839,-20.165175 l 14.770217,-11.455559 0.0038,-5.68259 c 0.0042,-6.202474 2.177507,-9.374255 6.423373,-9.374255 5.558522,0 5.845682,1.499665 5.845682,30.527937 0,19.530506 -0.370855,27.393673 -1.338027,28.360977 -1.728352,1.728898 -7.860814,1.728898 -9.589166,0 -0.735936,-0.73609 -1.338027,-2.492725 -1.338027,-3.903614 0,-3.642008 -1.107886,-3.235687 -6.690135,2.453733 -2.70842,2.760402 -5.44714,4.997928 -6.086021,4.972214 -0.638924,-0.02529 -2.792494,-0.917015 -4.785754,-1.980598 z m 88.923341,-2.991616 c -2.70842,-2.760444 -5.32168,-5.018963 -5.80725,-5.018963 -0.48561,0 -0.88289,1.496124 -0.88289,3.324716 0,2.663363 -0.58565,3.471748 -2.94412,4.063841 -1.61929,0.406363 -4.25353,0.278636 -5.8539,-0.283696 l -2.90969,-1.022989 -0.29879,-27.188932 c -0.26508,-24.119668 -0.0885,-27.421705 1.56656,-29.250887 2.19942,-2.430969 5.84657,-2.663406 8.72765,-0.556135 1.43133,1.04689 2.21484,3.388241 2.57086,7.682242 l 0.51204,6.176381 16.53692,13.230024 16.53691,13.230025 0.0607,5.297768 c 0.0337,2.913758 -0.33377,5.297769 -0.81567,5.297769 -0.48199,0 -7.88294,-5.816809 -16.44657,-12.926265 l -15.57021,-12.926306 -0.33629,6.958376 c -0.38139,7.887195 0.32787,8.938722 13.20154,19.579574 l 6.57096,5.431269 -3.58549,1.913869 c -1.97202,1.052623 -4.10823,1.934903 -4.74711,1.960617 -0.63889,0.02529 -3.37761,-2.21177 -6.08603,-4.972172 z M 73.725295,63.914949 c -0.339669,-0.88523 -0.454592,-3.032125 -0.255384,-4.770887 l 0.362005,-3.161327 16.512138,-0.308988 16.512186,-0.308988 -0.34431,4.770298 -0.3443,4.770297 -15.912244,0.309409 c -13.040854,0.253766 -16.023706,0.01686 -16.529754,-1.29994 z m 0.663872,-28.476858 v -4.372533 l 6.968866,-0.722306 c 3.83291,-0.397089 10.98299,-0.56267 15.889103,-0.367582 l 8.920154,0.354514 0.34304,4.740115 0.34304,4.740115 H 90.621437 74.389504 Z"
       id="path1" /></g></svg>
