<?xml version="1.0" encoding="UTF-8" standalone="no"?>
<!-- Created with Inkscape (http://www.inkscape.org/) -->

<svg
   width="180mm"
   height="180mm"
   viewBox="0 0 180 180"
   version="1.1"
   id="svg1"
   sodipodi:docname="library.svg"
   inkscape:version="1.4.2 (f4327f4, 2025-05-13)"
   xml:space="preserve"
   xmlns:inkscape="http://www.inkscape.org/namespaces/inkscape"
   xmlns:sodipodi="http://sodipodi.sourceforge.net/DTD/sodipodi-0.dtd"
   xmlns="http://www.w3.org/2000/svg"
   xmlns:svg="http://www.w3.org/2000/svg"><sodipodi:namedview
     id="namedview1"
     pagecolor="#505050"
     bordercolor="#ffffff"
     borderopacity="1"
     inkscape:showpageshadow="0"
     inkscape:pageopacity="0"
     inkscape:pagecheckerboard="1"
     inkscape:deskcolor="#505050"
     inkscape:document-units="mm"
     inkscape:zoom="0.70710678"
     inkscape:cx="123.03658"
     inkscape:cy="132.93608"
     inkscape:window-width="2560"
     inkscape:window-height="1351"
     inkscape:window-x="-9"
     inkscape:window-y="-9"
     inkscape:window-maximized="1"
     inkscape:current-layer="layer1"
     showguides="true" /><defs
     id="defs1"><rect
       x="101.82338"
       y="91.923881"
       width="384.66609"
       height="299.81327"
       id="rect3" /><rect
       x="2.8284271"
       y="2.1213203"
       width="662.55905"
       height="647.0027"
       id="rect2" /></defs><g
     inkscape:label="Icon"
     inkscape:groupmode="layer"
     id="layer1"><path
       style="fill:#000000;stroke-width:0.787281"
       d="m 120.50182,176.64447 c -9.10439,-0.73522 -15.49848,-2.60095 -17.1178,-4.99481 -0.8734,-1.29116 -0.9202,-2.52741 -0.23254,-6.14313 1.60211,-8.42397 2.16949,-11.17992 2.41187,-11.71503 0.46209,-1.02022 2.15747,-2.3717 4.85638,-3.87132 3.48482,-1.93628 3.88854,-2.7064 2.28367,-4.35622 -1.40782,-1.44725 -1.60088,-1.91753 -1.60088,-3.89967 0,-3.53306 1.30221,-4.43915 7.83275,-5.45018 2.09406,-0.3242 3.57444,-0.40167 7.94463,-0.41577 8.45434,-0.0273 12.43077,0.71542 14.06536,2.62706 0.3528,0.4126 0.47608,0.91392 0.54832,2.22965 0.1186,2.16042 -0.19163,3.15555 -1.31209,4.20862 -0.98947,0.93 -1.04798,1.22758 -0.45928,2.33581 0.41274,0.77699 0.58372,0.88676 3.93888,2.52894 1.47007,0.71953 3.18144,2.12315 3.73517,3.06347 0.27575,0.46827 0.81271,2.60485 1.41427,5.62738 0.53336,2.67986 1.19053,5.96307 1.46039,7.29601 0.30753,1.51913 0.4456,2.80679 0.36996,3.45056 -0.14094,1.19949 -0.91124,2.44077 -2.05421,3.31018 -2.14733,1.63341 -7.14672,3.03792 -13.5551,3.80814 -2.46932,0.29679 -12.29816,0.54052 -14.52975,0.36031 z m 10.07068,-2.98977 c 6.28995,-0.49448 12.80701,-1.92077 15.1547,-3.31667 1.46213,-0.86935 1.59099,-1.49882 0.9762,-4.76885 -0.85511,-4.54833 -2.03058,-10.99532 -2.03128,-11.14081 -0.003,-0.47412 -1.67487,-1.63988 -3.55193,-2.47569 -3.07567,-1.36952 -4.44063,-2.64229 -4.84721,-4.51986 -0.0855,-0.39492 -0.1796,-0.71805 -0.20908,-0.71805 -0.0295,0 -0.37073,0.0958 -0.75836,0.21286 -0.65586,0.19807 -0.70477,0.27618 -0.70477,1.12522 0,1.16948 0.87278,2.71465 2.00913,3.55701 0.46787,0.34681 1.69265,1.01536 2.72171,1.48565 2.43674,1.11361 3.04321,1.48928 3.41747,2.11691 0.16984,0.28485 0.47649,1.73936 0.68143,3.23225 0.20495,1.4929 0.62204,4.0667 0.92686,5.71954 0.6543,3.54767 0.69959,4.15381 0.33855,4.53069 -0.79416,0.82902 -5.07196,1.91366 -10.56368,2.67842 -4.28588,0.59684 -12.99768,0.64478 -16.87541,0.0928 -5.44281,-0.77468 -8.18998,-1.60268 -8.65085,-2.60735 -0.18549,-0.40435 -0.13138,-1.10951 0.23378,-3.0466 0.26132,-1.38626 0.62945,-3.74194 0.81808,-5.23483 0.66203,-5.23968 0.54019,-4.83835 1.48965,-4.90667 0.45552,-0.0327 2.11718,0.17222 3.69257,0.45556 5.15638,0.92742 12.00249,0.84374 17.69646,-0.2163 1.01225,-0.18845 1.84045,-0.39682 1.84045,-0.46305 0,-0.0662 -3.09215,-0.27665 -6.87144,-0.46761 -6.34681,-0.32071 -10.65826,-0.70248 -10.96849,-0.97126 -0.19228,-0.16657 0.3818,-0.69028 1.11842,-1.02029 0.45739,-0.20492 0.96875,-0.25659 1.69475,-0.17126 2.02233,0.23771 7.07636,-0.36018 9.09625,-1.07608 0.62779,-0.22251 0.51883,-0.2543 -1.67844,-0.48983 -2.62929,-0.28182 -4.21867,-0.58667 -4.64073,-0.89014 -0.90472,-0.65051 0.35498,-1.24508 3.23959,-1.52904 3.64284,-0.3586 3.0276,-0.64767 -2.6319,-1.23661 -1.54121,-0.16039 -3.3425,-0.38037 -4.00287,-0.48887 -1.7566,-0.28862 -1.73489,-0.29774 -1.88387,0.792 -0.0744,0.5441 -0.38559,1.35938 -0.69158,1.81174 -0.55548,0.82115 -1.05618,1.15733 -4.87154,3.27076 -1.06889,0.59209 -2.11054,1.29747 -2.31478,1.56751 -0.24017,0.31756 -0.75517,2.58871 -1.45801,6.42984 -1.41502,7.73328 -1.47872,8.35287 -0.93553,9.09995 1.80246,2.47907 14.2875,4.34017 23.9957,3.57696 z m -15.56325,-7.02084 c 0.0667,-0.34526 0.22325,-1.71835 0.3476,-3.05129 0.12435,-1.33295 0.28932,-2.96883 0.36661,-3.63529 l 0.14052,-1.21178 h -1.3792 c -1.22544,0 -1.4006,0.0488 -1.57115,0.43738 -0.10557,0.24057 -0.36203,1.94771 -0.56991,3.79364 -0.42689,3.79069 -0.36317,4.06388 1.03291,4.42963 0.97543,0.25554 1.48133,0.0193 1.63262,-0.76229 z m 11.26437,-22.05891 c 0.15656,-0.21718 0.52037,-0.47252 0.80847,-0.56741 0.91948,-0.30286 5.76821,-0.8264 7.90416,-0.85346 2.51925,-0.0319 2.97049,-0.29798 3.14298,-1.85325 l 0.10948,-0.98702 -1.45093,0.58822 c -2.62048,1.06238 -5.40735,1.42193 -11.13873,1.43708 -5.50193,0.0145 -7.43461,-0.21265 -9.8044,-1.15258 -0.66496,-0.26374 -1.29901,-0.43134 -1.40902,-0.37244 -0.11,0.0589 -0.20001,0.52297 -0.20001,1.03126 0,0.99645 0.4607,1.56221 1.56795,1.92551 0.65026,0.21336 5.01893,0.75644 7.94324,0.98745 1.10778,0.0875 2.06545,0.17091 2.12816,0.18531 0.0627,0.0145 0.2421,-0.15148 0.39865,-0.36867 z m 3.59917,-4.66951 c 2.84707,-0.24084 4.61607,-0.56087 4.61607,-0.83507 0,-0.29085 -1.15133,-0.48003 -4.3229,-0.71031 -4.14489,-0.30094 -10.68734,0.14529 -12.20098,0.83217 -0.60645,0.27521 -0.36546,0.36707 1.68578,0.64259 2.36909,0.31821 6.92331,0.34968 10.22203,0.0706 z m -58.985844,30.91652 c -0.07841,-0.17712 -0.02554,-1.72576 0.117613,-3.44142 0.14314,-1.71566 0.317652,-4.07909 0.387805,-5.25209 0.231521,-3.87123 1.021001,-6.63655 2.695679,-9.44219 0.200276,-0.33553 0.452588,-1.22746 0.560693,-1.98206 0.134672,-0.94011 1.657905,-5.1255 4.838863,-13.29579 6.871588,-17.64971 6.221186,-15.79005 5.935363,-16.97061 -0.268526,-1.1091 -1.890592,-4.06882 -2.985503,-5.44753 -0.382207,-0.48127 -0.637655,-0.92464 -0.567663,-0.98527 0.225347,-0.19524 2.601759,1.17126 3.986333,2.29221 1.24821,1.01057 1.335389,1.04972 1.21946,0.54754 -0.06868,-0.29744 -0.729859,-1.71052 -1.469318,-3.14016 -1.278939,-2.47264 -2.26939,-5.29508 -2.601852,-7.41435 -0.171001,-1.09008 -0.131713,-1.07341 1.141474,0.48471 0.479248,0.58649 1.517454,1.76433 2.30713,2.61742 0.789666,0.85308 1.451883,1.56958 1.471574,1.59222 0.01971,0.0226 -0.186945,-0.74345 -0.459201,-1.70243 -0.830849,-2.92648 -1.047982,-4.92071 -0.920295,-8.45228 0.117417,-3.247712 0.437675,-5.181371 1.524413,-9.204199 0.53777,-1.990712 2.115169,-6.104772 2.926201,-7.631954 l 0.514823,-0.969409 0.159516,2.132705 c 0.178513,2.386637 0.789803,5.002129 1.744601,7.464484 0.881924,2.274425 2.496589,5.858048 2.599341,5.769028 0.105898,-0.0918 -0.125183,-1.296542 -1.050733,-5.478201 -2.534016,-11.448795 1.099986,-20.164649 14.469947,-34.704998 1.37273,-1.492896 2.91326,-3.10697 3.42339,-3.586829 l 0.92751,-0.872473 -0.16588,0.872473 c -0.0912,0.479859 -0.16453,2.486545 -0.16289,4.459301 0.003,3.092673 0.0787,3.880649 0.552,5.719536 l 0.54901,2.132711 0.2805,-2.423532 c 1.24618,-10.767049 5.37679,-17.322721 15.11947,-23.996054 0.9535,-0.653111 3.77328,-2.446985 6.26619,-3.986385 2.4929,-1.539401 5.33143,-3.331336 6.30785,-3.982079 0.97641,-0.650743 1.81119,-1.152081 1.85505,-1.114083 0.17236,0.14933 -0.96588,3.391112 -3.19703,9.105321 -1.28456,3.289875 -2.33555,6.077164 -2.33555,6.193973 0,0.425658 2.56252,-3.318018 3.82191,-5.583554 0.71132,-1.279625 1.90777,-3.846091 2.65876,-5.703256 0.75098,-1.857165 1.66665,-3.866277 2.0348,-4.464695 0.78219,-1.271387 2.4296,-2.796992 4.85747,-4.498298 2.85236,-1.998763 6.9633,-5.219261 9.292,-7.279326 6.30016,-5.573375 8.37617,-9.115686 9.18226,-15.6676619 0.0622,-0.50474 0.22757,-0.3026358 1.25145,1.5285079 4.33701,7.75648 5.42022,17.80881 3.01811,28.008621 -2.47288,10.500346 -9.2916,20.826656 -17.5949,26.645808 -5.73147,4.016761 -10.0997,5.857897 -18.7303,7.894527 -3.77012,0.889666 -7.73268,2.072367 -9.16333,2.734973 -0.69211,0.320549 -1.05697,0.522775 -0.8108,0.44938 2.59915,-0.774883 4.99197,-1.147058 12.39078,-1.927224 4.94932,-0.52189 9.52753,-1.943038 13.11591,-4.071405 0.8285,-0.491405 1.54595,-0.85919 1.59432,-0.817289 0.32819,0.284328 -5.20387,7.080981 -8.93646,10.979264 -6.16927,6.443143 -10.21234,9.217562 -19.05973,13.079067 -1.84629,0.805829 -3.2454,1.469095 -3.10912,1.473939 0.48817,0.01729 5.47527,-1.38023 7.6081,-2.132067 2.17296,-0.765981 6.34161,-2.674387 7.08367,-3.242896 0.79905,-0.612169 0.62981,-0.01752 -0.54935,1.930339 -3.30914,5.466311 -8.55679,10.877033 -13.61657,14.03971 -3.84824,2.40538 -7.1273,3.76936 -12.09324,5.03036 -1.52862,0.38816 -2.93038,0.75461 -3.11501,0.81432 -0.56512,0.18277 1.32452,0.41385 3.46879,0.42419 2.43698,0.0117 4.40072,-0.24678 6.48999,-0.85438 0.8616,-0.25056 1.59515,-0.4313 1.63013,-0.40163 0.0349,0.0297 -0.52826,0.74168 -1.2516,1.58223 -4.53138,5.26566 -9.83534,8.55185 -16.7154,10.3564 -1.10778,0.29056 -2.41697,0.67945 -2.90931,0.86421 -1.011676,0.37966 -1.026966,0.36991 1.34277,0.85562 1.09905,0.22528 4.66477,1.56763 4.51311,1.69903 -0.0425,0.0368 -1.5286,0.0935 -3.30231,0.1259 -2.81554,0.0513 -3.415536,0.12165 -4.726276,0.55345 -1.765558,0.58162 -3.537811,1.6956 -4.313801,2.71147 -0.794169,1.03969 -3.440755,7.42925 -3.173227,7.66101 0.03696,0.032 0.505477,-0.13673 1.041056,-0.37506 0.947416,-0.42161 0.996415,-0.49092 1.809715,-2.56022 0.963299,-2.45091 1.502136,-3.01101 2.896682,-3.01101 1.0851,0 2.856865,0.57262 4.467671,1.44392 0.67472,0.36496 1.26603,0.62956 1.314,0.58799 0.048,-0.0416 -0.16966,-0.45533 -0.48363,-0.91948 -0.62412,-0.92264 -2.099176,-2.18288 -3.235846,-2.76459 -0.39794,-0.20365 -0.723523,-0.43627 -0.723523,-0.51694 0,-0.0807 0.579063,-0.28595 1.286803,-0.45618 0.707746,-0.17023 1.434916,-0.35181 1.615936,-0.40351 0.18103,-0.0517 2.10789,-0.17005 4.28192,-0.263 3.60158,-0.15397 5.58795,-0.41281 6.09948,-0.79481 0.20942,-0.15639 -2.01607,-1.63465 -3.71677,-2.46883 -0.58454,-0.28671 -1.0629,-0.57291 -1.06302,-0.63602 -1.2e-4,-0.063 0.42777,-0.2256 0.95089,-0.36112 2.20399,-0.571 5.7631,-2.52592 9.14982,-5.02577 l 2.09577,-1.54697 0.3613,0.71831 c 0.40447,0.80413 1.48316,1.69704 2.86001,2.36745 0.95871,0.46681 1.17479,0.76376 0.55576,0.76376 -0.29738,0 -0.31267,0.0526 -0.0845,0.29084 0.34939,0.36472 0.1523,0.37332 -1.55471,0.0679 -2.64816,-0.47386 -4.32575,0.20355 -5.10154,2.05999 -0.26599,0.63651 -0.64573,1.10624 -1.11652,1.3811 -0.73048,0.42648 -0.74222,0.65951 -0.0332,0.65951 0.6593,0 1.47315,-0.40234 1.76302,-0.87158 0.24978,-0.40433 0.3211,-0.41911 0.85813,-0.17774 0.49053,0.22049 0.65934,0.22098 1.03897,0.003 0.53227,-0.30562 0.70681,-0.84736 0.36765,-1.14118 -0.17012,-0.1474 -0.37219,-0.10345 -0.69765,0.15172 -0.55351,0.43397 -1.01893,0.15854 -0.78965,-0.46732 0.15869,-0.43317 1.17993,-0.9868 1.82028,-0.9868 0.35776,0 0.35746,0.023 -0.005,0.36986 -0.37793,0.3618 -0.36619,0.36385 0.53834,0.0939 0.68633,-0.20485 1.46786,-0.24292 3.03169,-0.14769 1.83928,0.11201 2.12503,0.0876 2.24899,-0.19229 0.20355,-0.45956 -0.42842,-1.19419 -1.71749,-1.99653 -0.63621,-0.39599 -1.32454,-1.04099 -1.59638,-1.49591 -0.46109,-0.77164 -0.48288,-0.78272 -0.61942,-0.31505 l -0.14151,0.4847 -0.27944,-0.4452 c -0.1537,-0.24485 -0.24822,-0.72471 -0.21007,-1.06635 0.0529,-0.47394 0.18872,-0.63585 0.573,-0.68314 0.37884,-0.0466 0.48977,0.0254 0.44759,0.29083 -0.0309,0.19404 0.0195,0.37461 0.11177,0.40127 0.94434,0.2727 1.34101,-0.54265 0.59755,-1.22827 -0.27924,-0.25751 -0.63528,-0.46821 -0.79119,-0.46821 -0.62712,0 -0.46742,-0.39532 0.67457,-1.66978 0.65812,-0.73447 2.05579,-2.45759 3.10594,-3.82918 1.83354,-2.39477 1.92045,-2.4756 2.18935,-2.03577 0.71189,1.16446 8.07204,13.00773 8.77922,14.12675 0.43806,0.69313 0.9599,1.75482 1.15968,2.35931 0.54364,1.64511 0.0458,2.47582 -2.09473,3.49516 -0.92536,0.44068 -2.30269,2.33181 -2.93079,4.02414 -0.43077,1.16062 -0.49421,1.66235 -0.40243,3.18252 0.10524,1.74318 0.25258,2.16845 1.46986,4.2429 0.0469,0.08 -0.82551,0.14541 -1.93879,0.14541 h -2.0241 l -0.35494,-1.01789 c -0.89537,-2.56776 -0.84552,-5.73181 0.12575,-7.98079 0.26365,-0.61049 0.44188,-1.14245 0.39605,-1.18215 -0.0458,-0.0397 -5.97215,1.60799 -13.16966,3.66151 -7.19752,2.05351 -16.04499,4.55673 -19.661046,5.56272 -4.870734,1.35503 -6.653398,1.93223 -6.878491,2.22712 -0.16711,0.21893 -1.214308,3.05447 -2.3271,6.3012 -2.56168,7.47401 -3.266816,9.35374 -3.94167,10.5075 -0.456942,0.78123 -0.574793,1.36933 -0.74752,3.73036 -0.26268,3.59069 -0.508411,4.09417 -3.123848,6.40034 -2.228831,1.96529 -3.86718,3.83822 -5.59676,6.39813 -0.648431,0.95972 -1.38778,1.94125 -1.64301,2.18118 -0.546635,0.51387 -1.236587,0.56867 -1.437887,0.11421 z m 4.327922,-9.66293 c 0.174173,-0.85308 0.414017,-2.02837 0.532991,-2.61175 0.138598,-0.67961 0.409476,-1.22803 0.753974,-1.52648 1.193036,-1.03359 1.411446,0.49253 0.334915,2.3401 -0.845687,1.45139 -1.381487,2.72366 -1.110635,2.63719 0.477191,-0.15231 2.808471,-2.64366 3.22533,-3.44677 0.380303,-0.73269 0.474021,-1.39521 0.553081,-3.90993 l 0.0952,-3.02776 -1.020944,-0.30138 -1.020943,-0.30137 -0.378627,1.00254 c -0.208244,0.55139 -0.913794,2.09314 -1.567892,3.42607 -1.294484,2.63795 -1.556006,3.70959 -1.750649,7.17367 l -0.125276,2.22964 0.581408,-1.06635 c 0.319765,-0.58649 0.723903,-1.76433 0.898077,-2.61742 z m 6.123231,-12.00486 c 0,-0.15124 0.05295,-0.39446 0.117613,-0.54051 0.08281,-0.18703 -0.317754,-0.38817 -1.354979,-0.68032 l -1.472591,-0.4148 -0.247922,0.47141 c -0.293968,0.55896 -0.370144,0.49341 1.167534,1.00474 1.481388,0.4926 1.790345,0.52012 1.790345,0.15948 z m 0.857655,-2.5848 c 0.111117,-0.18662 1.119077,-2.91309 2.239921,-6.05884 7.084743,-19.8841 12.418112,-31.77119 20.050975,-44.689955 7.41782,-12.554789 14.35164,-21.872457 23.47232,-31.542125 4.05387,-4.297878 8.05526,-8.10328 16.27139,-15.474423 11.98321,-10.750779 17.99134,-17.356738 22.00417,-24.193643 1.26245,-2.150925 2.8445,-5.321385 2.82425,-5.659864 -0.003,-0.05575 -0.64087,0.989226 -1.41674,2.322169 -4.31058,7.405558 -9.47913,12.891847 -24.74955,26.271101 -12.09492,10.597011 -17.56967,15.925916 -24.12914,23.486372 -10.71334,12.348195 -20.665422,28.656573 -28.142929,46.117508 -2.219866,5.18368 -11.296457,28.19311 -11.296457,28.63685 0,0.14296 2.092146,1.06678 2.509792,1.10825 0.08798,0.009 0.25089,-0.13679 0.361998,-0.3234 z m 26.892636,-21.13398 c 2.79033,-0.8015 15.50915,-4.60504 20.29868,-6.07027 1.13276,-0.34654 2.11335,-0.75149 2.17908,-0.89989 0.0657,-0.1484 -0.29532,-0.98541 -0.80232,-1.86005 -1.18289,-2.04058 -5.33706,-8.71771 -5.54454,-8.91191 -0.087,-0.0815 -0.43148,0.21366 -0.76556,0.65572 l -0.60741,0.80376 0.66842,1.17792 0.66843,1.17793 -0.64087,0.23346 c -1.58011,0.57558 -0.86204,2.67592 0.79191,2.31628 0.69497,-0.15112 0.72526,-0.70393 0.0351,-0.64062 -0.40212,0.0368 -0.50353,-0.0514 -0.50353,-0.43853 0,-0.35029 0.12028,-0.48471 0.43375,-0.48471 0.3268,0 0.78094,0.57364 1.84194,2.3266 0.7745,1.27962 1.41015,2.41423 1.41254,2.52136 0.006,0.25154 -5.0449,1.88282 -5.92615,1.91411 -0.56836,0.0202 -0.67138,-0.0481 -0.67138,-0.44472 0,-0.57453 0.38926,-0.71757 0.85492,-0.31414 0.4093,0.35459 0.69521,0.0885 0.49425,-0.46 -0.28499,-0.77794 -2.18075,-0.60811 -2.48509,0.22261 -0.0756,0.20637 -0.0752,0.66286 8.5e-4,1.01444 0.10885,0.50276 0.0537,0.66818 -0.25849,0.7748 -0.2183,0.0746 -2.36449,0.77287 -4.76933,1.55183 -4.77192,1.54569 -8.52198,2.88975 -9.3087,3.33634 -0.27611,0.15673 -0.76816,0.58727 -1.09345,0.95675 l -0.59145,0.67178 0.63354,-0.13151 c 0.34845,-0.0723 1.99308,-0.52204 3.65474,-0.99934 z m -9.399296,-10.46455 c 1.292406,-0.54735 3.457606,-1.31811 4.811546,-1.71283 2.84445,-0.82925 6.11128,-2.0685 5.73744,-2.17646 -0.43074,-0.12439 -6.10587,0.89513 -7.87517,1.41475 -2.07067,0.60814 -3.717966,1.57139 -4.687491,2.74099 -0.408985,0.49339 -0.651933,0.85919 -0.539877,0.81288 0.112056,-0.0463 1.261162,-0.532 2.553552,-1.07933 z m 2.237936,-4.45463 c 1.5951,-0.53146 5.57856,-1.31202 7.77679,-1.52385 0.76929,-0.0742 1.3987,-0.19155 1.3987,-0.26091 0,-0.0694 -0.95234,-0.279 -2.11631,-0.46586 -1.93084,-0.30994 -2.24388,-0.31409 -3.57197,-0.0473 -0.80061,0.16086 -1.92307,0.48282 -2.49433,0.71545 -1.06368,0.43317 -3.705286,2.44051 -2.89512,2.19998 0.24616,-0.0731 1.10218,-0.35098 1.90224,-0.61755 z m -10.912435,-4.01174 c -0.139562,-1.07754 -0.611502,-3.21967 -1.048755,-4.76029 -0.437251,-1.54062 -0.794996,-2.953235 -0.794996,-3.139155 0,-0.18592 -0.116716,-0.400525 -0.259365,-0.476904 -0.39705,-0.212596 -0.04288,4.136219 0.498964,6.126349 0.246779,0.90641 0.671471,2.50242 0.943761,3.5467 0.461663,1.77054 0.509224,1.85697 0.704611,1.28059 0.135257,-0.39901 0.119583,-1.31261 -0.04424,-2.57729 z m 16.585525,-3.22989 c 1.49553,-0.62317 4.53185,-1.73617 6.7474,-2.47332 4.49286,-1.494875 7.96841,-2.939535 10.24739,-4.259486 2.07064,-1.199276 2.07022,-1.332767 -0.002,-0.43534 -0.95806,0.415035 -3.1518,1.113063 -4.87501,1.551181 -10.72763,2.727465 -14.88392,4.554665 -17.19863,7.560945 -0.63418,0.82365 -0.41434,0.82192 0.99598,-0.008 0.7508,-0.44172 2.58869,-1.31299 4.08423,-1.93617 z m -14.00723,-1.39517 c -0.0875,-1.2732 -0.36671,-2.252205 -1.368537,-4.7986 l -1.258613,-3.199067 -0.0025,1.123 c -0.0034,1.770848 0.859872,4.807662 2.340591,8.231847 0.274219,0.63413 0.388719,0.096 0.288835,-1.35718 z m 16.72636,-4.513941 c 1.84912,-0.705899 4.47891,-1.416327 7.84568,-2.119493 4.01229,-0.837976 6.33707,-1.612391 8.48192,-2.825428 0.92824,-0.524982 1.68772,-0.987757 1.68772,-1.028391 0,-0.04067 -0.88118,0.212406 -1.95819,0.562318 -1.077,0.349919 -3.06596,0.824602 -4.4199,1.054865 -5.22264,0.888187 -6.77654,1.226748 -8.58574,1.870676 -2.77528,0.987765 -5.60878,2.656879 -6.71913,3.957979 -0.43467,0.50935 -0.37811,0.49562 1.04457,-0.25344 0.82726,-0.435557 2.00764,-0.984149 2.62307,-1.219086 z M 98.983424,91.07045 c 0.006,-1.332943 -0.21641,-4.342974 -0.49352,-6.688955 l -0.503828,-4.265416 -0.267452,1.510511 c -0.402675,2.274249 -0.326288,4.572013 0.292032,8.784362 0.307708,2.096328 0.569518,3.86571 0.581788,3.93197 0.0122,0.06624 0.10294,-0.09765 0.20149,-0.364232 0.0985,-0.266594 0.18381,-1.575297 0.18949,-2.90824 z m 13.349956,0.557437 c 2.38435,-1.364702 6.2812,-3.081059 10.74205,-4.731306 3.87433,-1.433261 8.94112,-3.558308 8.79206,-3.687446 -0.1131,-0.09799 -7.22191,1.810139 -9.57533,2.570177 -3.86916,1.249559 -7.47668,2.999324 -9.66668,4.688664 -1.09503,0.844697 -2.76171,2.547696 -2.18797,2.235662 0.18113,-0.09852 1.03428,-0.582601 1.89587,-1.075751 z m -10.1966,-6.655629 c 0.007,-0.848073 -0.13652,-3.16012 -0.32054,-5.137891 -0.184,-1.977772 -0.36024,-4.119424 -0.39163,-4.75924 l -0.0571,-1.163295 -0.41958,1.066355 c -0.84322,2.14303 -0.67582,7.10794 0.45758,13.571784 l 0.15298,0.872475 0.2821,-1.454123 c 0.15516,-0.799762 0.28842,-2.14799 0.29616,-2.996065 z m 17.17379,-0.857453 c 2.742,-1.177944 6.15402,-2.268489 10.69435,-3.418089 5.08464,-1.287416 6.74457,-1.901248 9.58411,-3.544129 1.6614,-0.961252 2.19512,-1.425333 1.04835,-0.911563 -1.61667,0.724278 -3.9538,1.356898 -9.28161,2.512383 -5.85384,1.269564 -8.91275,2.237837 -11.99249,3.796111 -1.58069,0.799791 -4.29857,2.859019 -5.16529,3.913533 -0.4071,0.495311 -0.26493,0.446434 1.22691,-0.421813 0.92805,-0.540128 2.6766,-1.40702 3.88567,-1.926433 z m -13.93423,-4.152274 c -0.009,-2.048258 -0.11042,-5.556297 -0.22599,-7.795644 l -0.21013,-4.071536 -0.41267,1.163296 c -0.50499,1.423574 -0.84628,4.726793 -0.69108,6.688956 0.0633,0.799761 0.33736,2.956435 0.60912,4.792596 0.65035,4.394225 0.95171,4.142433 0.93075,-0.777668 z m 3.61748,-2.878702 c 0.26667,-1.338783 0.32584,-3.006813 0.2734,-7.70735 -0.0368,-3.299342 -0.13826,-5.889487 -0.22543,-5.755893 -0.0872,0.133601 -0.38692,0.933333 -0.66612,1.777186 -0.43414,1.31222 -0.50838,1.997301 -0.51287,4.733351 -0.003,1.759482 0.0865,4.632593 0.19862,6.384689 0.22112,3.454706 0.34264,3.528732 0.9324,0.568017 z m 14.41731,0.317312 c 3.22543,-1.406274 4.98077,-1.866946 9.95878,-2.613617 1.47703,-0.221543 3.23939,-0.535988 3.91637,-0.698762 1.26279,-0.303637 5.21289,-1.832673 5.06516,-1.960661 -0.0453,-0.03921 -0.56931,0.02323 -1.16451,0.138782 -0.59519,0.11556 -2.68001,0.337125 -4.63293,0.492373 -6.45173,0.512884 -9.95031,1.43439 -13.59046,3.579647 -1.12675,0.664027 -3.80448,2.908107 -3.80448,3.188361 0,0.06521 0.57907,-0.221843 1.28681,-0.637889 0.70774,-0.416039 2.04211,-1.085746 2.96526,-1.488234 z m 10.85394,-11.883156 c 1.23087,-0.421446 4.42694,-1.383343 7.10239,-2.13754 5.47269,-1.542737 7.90265,-2.462481 10.57348,-4.002078 2.21707,-1.278024 2.84708,-1.850004 1.1719,-1.063952 -2.08392,0.977843 -4.24112,1.667584 -8.43992,2.698562 -4.88582,1.199673 -8.12058,2.159797 -9.94551,2.951988 -1.67346,0.726432 -3.79016,2.022069 -4.80924,2.943744 l -0.76621,0.69298 1.43759,-0.658723 c 0.79068,-0.362296 2.44466,-1.003541 3.67552,-1.424981 z m -13.57353,-3.529937 c 0.49811,-1.86612 1.12005,-4.396289 1.38211,-5.622597 0.45845,-2.145358 1.15765,-4.910459 1.44627,-5.719539 0.0759,-0.213271 -0.25807,0.266589 -0.74256,1.066355 -1.01713,1.679086 -2.09175,4.34585 -2.58475,6.414307 -0.62413,2.618649 -1.05137,7.843643 -0.60824,7.43861 0.11084,-0.101307 0.60906,-1.711016 1.10717,-3.577136 z m 3.71957,-2.059994 c 0.41473,-1.05846 0.9155,-2.661801 1.11282,-3.562979 0.5113,-2.335143 1.82567,-6.672214 2.71675,-8.964552 0.41904,-1.078023 0.72526,-1.991786 0.68048,-2.030585 -0.0448,-0.0388 -0.39291,0.349986 -0.77361,0.863966 -2.04481,2.760669 -3.51003,6.97297 -4.35078,12.507926 -0.28763,1.893504 -0.43672,3.368026 -0.33133,3.276716 0.1054,-0.09131 0.53095,-1.03203 0.94567,-2.090492 z m 15.88084,-0.357853 c 1.3454,-0.392268 4.1338,-1.098041 6.19644,-1.568382 2.06265,-0.470342 4.41072,-1.07054 5.21796,-1.333773 1.29967,-0.423815 4.60231,-1.954063 4.60231,-2.13244 0,-0.0373 -0.73012,0.13283 -1.6225,0.378043 -0.89238,0.245212 -2.88134,0.677533 -4.4199,0.960713 -5.4614,1.00519 -6.84868,1.314511 -8.79023,1.959944 -2.3003,0.764697 -4.56533,1.894833 -5.98009,2.983761 l -1.00708,0.77513 1.67845,-0.65489 c 0.92315,-0.360189 2.77923,-0.975836 4.12464,-1.368106 z m -10.40912,-5.065437 c 0.47072,-0.949379 1.46928,-3.307872 2.219,-5.241098 1.56741,-4.04166 2.39806,-5.904726 3.51322,-7.879718 l 0.79139,-1.401582 -0.93,0.872472 c -1.1263,1.056635 -2.40096,2.657265 -3.18319,3.997258 -1.07986,1.849813 -3.73489,10.020887 -3.73489,11.494404 0,0.546553 0.45181,-0.08171 1.32447,-1.841736 z m 14.34102,-0.257848 c 1.16932,-0.324553 3.1331,-0.767999 4.36396,-0.985435 8.20153,-1.448835 12.14761,-3.068133 16.11308,-6.612098 0.98468,-0.880024 1.41608,-1.327595 0.95866,-0.994602 -3.19274,2.32425 -6.73617,3.76081 -13.28159,5.384567 -5.59549,1.388097 -7.44658,2.007739 -9.53121,3.190505 -0.78117,0.443218 -1.26925,0.761146 -1.08462,0.706506 0.18463,-0.05465 1.2924,-0.36489 2.46172,-0.689443 z m 7.38516,-6.019788 c 6.84102,-1.884043 10.27181,-3.625587 14.67495,-7.449336 3.10146,-2.693351 4.78092,-4.565545 2.08747,-2.327027 -3.23346,2.687317 -6.23177,4.342695 -12.25639,6.766779 -4.87074,1.959806 -5.98243,2.447904 -7.53468,3.308153 -1.13745,0.630369 -1.59498,1.023057 -0.94367,0.809923 0.15386,-0.05035 1.94141,-0.54917 3.97232,-1.108492 z m 4.31249,-5.94243 c 5.1573,-2.238914 9.40851,-5.297141 12.36393,-8.894343 1.22616,-1.49243 2.2458,-3.005181 2.02558,-3.005181 -0.0581,0 -0.40302,0.3708 -0.7664,0.824001 -2.23295,2.784832 -4.91264,4.906931 -9.99096,7.912041 -3.2529,1.924912 -6.30366,4.0307 -5.87009,4.05182 0.0948,0.0046 1.10185,-0.395136 2.23794,-0.888338 z m -6.18852,-5.147788 c 1.08671,-1.41617 2.85187,-4.540299 4.30774,-7.624208 l 0.9153,-1.938827 -0.91173,0.869921 c -1.35695,1.294732 -2.5265,3.123098 -3.91459,6.119705 -0.68366,1.475878 -1.49956,3.124396 -1.8131,3.663374 -0.5454,0.937549 -0.54881,0.963476 -0.0787,0.599059 0.27023,-0.209496 0.94304,-0.969556 1.49513,-1.689024 z M 47.805912,164.94878 c -4.011192,-0.99326 -7.319841,-4.4451 -9.765269,-10.18788 -0.454083,-1.06635 -1.785884,-4.07637 -2.959559,-6.68894 l -2.133953,-4.75013 -1.386253,-1.1633 c -2.020966,-1.69591 -2.425942,-2.55524 -2.603137,-5.52365 l -0.144789,-2.42553 -1.629484,-3.39295 c -0.896216,-1.86612 -2.307211,-4.83252 -3.135546,-6.59201 -5.059459,-10.74693 -9.914614,-21.04866 -10.524685,-22.33146 -0.604042,-1.2701 -0.87782,-1.59796 -1.861859,-2.229645 C 10.024449,98.612485 9.5318381,97.652954 9.2787651,95.022278 9.0779741,92.935065 9.0489281,92.855924 6.5830013,87.677503 3.7638897,81.757363 3.5430855,80.972199 3.9199623,78.207665 4.4990519,73.95988 6.9169437,70.09057 10.218069,68.128906 c 1.663173,-0.988329 3.49493,-1.482212 5.996339,-1.616751 1.774646,-0.09545 2.218505,-0.186223 2.685513,-0.549186 1.060579,-0.824294 1.706548,-1.051597 9.846884,-3.464923 4.49264,-1.331913 10.93787,-3.247597 14.322735,-4.257075 3.384866,-1.009478 12.347765,-3.682403 19.917558,-5.939834 7.569788,-2.257429 15.165289,-4.534879 16.878892,-5.061001 2.238888,-0.687396 3.450186,-0.956583 4.304483,-0.956583 2.044085,0 1.480179,-0.770966 11.003275,15.043481 1.868017,3.102092 3.396396,5.739722 3.396396,5.861394 0,0.268909 -2.515768,4.105991 -2.692082,4.105991 -0.06877,0 -2.857715,-4.602292 -6.197605,-10.227314 -5.278649,-8.890289 -6.142843,-10.23492 -6.610435,-10.285522 -0.295855,-0.03202 -4.708952,1.217932 -9.806892,2.777665 -12.714773,3.890132 -29.729495,8.979895 -42.837879,12.814469 -2.338634,0.684121 -4.391788,1.320287 -4.562564,1.413718 -0.360783,0.197368 -0.297732,0.338238 3.565493,7.96628 1.37714,2.719203 3.287773,6.514457 4.245849,8.4339 0.958076,1.919434 2.620345,5.234831 3.693932,7.367536 1.073586,2.132712 4.036132,8.065524 6.583434,13.184029 14.361093,28.85692 14.628485,29.37323 15.212049,29.37323 0.47161,0 12.458351,-3.47037 18.258281,-5.2861 l 2.014134,-0.63054 0.371717,-0.96781 c 0.204438,-0.53229 0.354488,-0.98322 0.333435,-1.00207 -0.02106,-0.0188 -2.843327,0.78819 -6.271716,1.79342 -3.428398,1.00522 -6.366273,1.82768 -6.528604,1.82768 -0.162341,0 -0.360909,-0.17946 -0.44127,-0.39881 -0.08035,-0.21934 -0.476203,-0.53518 -0.879673,-0.70186 -0.635159,-0.26242 -0.820227,-0.26708 -1.379575,-0.0348 -0.836655,0.34739 -0.922277,1.29334 -0.139774,1.54412 0.460192,0.1475 0.493162,0.11711 0.362515,-0.33386 -0.126917,-0.43811 -0.08171,-0.4885 0.386646,-0.43087 0.5251,0.0646 0.914326,0.74386 0.426248,0.74386 -0.139376,0 -0.197687,-0.0781 -0.12959,-0.17357 0.06809,-0.0955 -0.01531,-0.21981 -0.185253,-0.27632 -0.213311,-0.0709 -0.275538,0.008 -0.200843,0.25582 0.07604,0.25181 -0.08145,0.4407 -0.528864,0.63442 -0.784508,0.33967 -4.568214,1.35644 -4.681724,1.25811 -0.171577,-0.14865 -2.160447,-4.14154 -2.270464,-4.55824 -0.10044,-0.38041 -0.02597,-0.43623 0.582287,-0.43623 0.548276,0 0.697464,0.083 0.697464,0.38777 0,0.21326 -0.100706,0.38776 -0.22379,0.38776 -0.123086,0 -0.22379,0.0873 -0.22379,0.19388 0,0.27 0.749,0.24297 1.074205,-0.0387 0.413823,-0.35851 0.318954,-1.08084 -0.20113,-1.53142 -0.386333,-0.3347 -0.63653,-0.38524 -1.409873,-0.28476 -0.916059,0.11901 -0.950625,0.10334 -1.347217,-0.61097 -0.506912,-0.9131 -8.911678,-17.75167 -18.160743,-36.384341 l -7.014066,-14.130151 0.717277,-0.41771 c 0.921388,-0.536575 1.020692,-1.128562 0.294804,-1.757431 -0.632243,-0.547742 -1.581225,-0.643788 -1.874537,-0.189717 -0.142847,0.221139 -0.437403,-0.19339 -1.129858,-1.590034 -0.515151,-1.039037 -0.86121,-1.944672 -0.769019,-2.012521 0.140626,-0.103497 2.306887,-0.762733 5.067905,-1.542262 0.766449,-0.216399 1.030221,-0.114534 1.030221,0.397836 0,0.450729 -0.569198,0.500075 -0.844913,0.07328 -0.176193,-0.272757 -0.226372,-0.271138 -0.501676,0.01626 -0.742933,0.775536 1.141323,1.458851 2.052613,0.744363 0.327586,-0.256841 0.423442,-0.545836 0.37429,-1.128459 l -0.06608,-0.783201 3.800892,-1.135179 c 2.09049,-0.624348 11.051776,-3.305363 19.913964,-5.957815 10.535779,-3.153357 16.143891,-4.743977 16.202092,-4.59538 0.190321,0.485939 1.148884,1.121768 1.691154,1.121768 0.564339,0 1.464827,-0.59594 1.464827,-0.969414 0,-0.106635 -0.2098,-0.375647 -0.46623,-0.597805 -0.256431,-0.222157 -0.430063,-0.435259 -0.38586,-0.473558 0.162983,-0.141202 3.802331,-1.255229 4.10063,-1.255229 0.300769,0 2.346283,3.017408 2.346283,3.461083 0,0.122478 -0.181278,0.222688 -0.402826,0.222688 -0.572636,0 -0.939929,0.382229 -0.939929,0.97814 0,0.710175 0.60646,1.11647 1.775601,1.18954 l 0.991517,0.06197 4.323149,7.241767 c 2.377741,3.982972 4.323159,7.355117 4.323159,7.493649 0,0.444134 -1.687871,3.449709 -2.980419,5.307195 -0.689166,0.990388 -1.314354,1.968106 -1.389311,2.172707 -0.07494,0.204608 -0.213853,0.372013 -0.308652,0.372013 -0.0948,0 -1.260484,-1.94125 -2.590408,-4.313891 -1.329923,-2.37264 -3.016696,-5.382663 -3.748365,-6.688948 -0.731677,-1.306284 -1.40221,-2.375066 -1.490066,-2.375066 -0.08786,0 -1.061002,0.172154 -2.162544,0.382566 -6.167375,1.178076 -12.668642,0.89783 -18.511015,-0.797945 -1.09947,-0.31912 -2.021493,-0.552519 -2.048932,-0.518657 -0.02741,0.03386 -0.336911,0.497802 -0.687719,1.030977 -2.369433,3.601184 -6.416175,6.787838 -11.750422,9.252999 -1.046231,0.483506 -2.380595,1.03234 -2.965253,1.219632 -0.58466,0.1873 -1.063016,0.437158 -1.063016,0.555247 0,0.118087 0.59601,1.393134 1.324465,2.833429 0.728456,1.440296 2.703446,5.367004 4.388866,8.726024 1.68542,3.35902 3.45635,6.765334 3.935398,7.569587 2.38438,4.003054 7.110406,7.659124 13.018441,10.071134 2.390876,0.97609 7.856169,2.62154 10.60841,3.1939 l 1.608914,0.3346 1.188493,1.47884 c 0.653675,0.81336 1.558359,2.00492 2.010405,2.64788 l 0.821893,1.16904 -1.468252,0.13199 c -1.553402,0.13964 -3.910563,1.0007 -4.633215,1.69249 -0.392398,0.37565 -0.383458,0.37682 0.799555,0.10401 3.212507,-0.74078 6.172374,0.2412 6.751733,2.24 0.09716,0.3352 -0.450362,2.02151 -1.775178,5.46739 l -1.915663,4.98269 -0.932249,0.29838 c -0.512735,0.16412 -3.500268,1.04889 -6.63896,1.96615 -3.138691,0.91727 -7.796377,2.27985 -10.350414,3.02796 l -4.643699,1.3602 v 0.63429 c 0,0.34887 0.130325,0.72801 0.289616,0.84254 0.214647,0.15434 2.920823,-0.56717 10.455381,-2.78756 5.591179,-1.64768 10.294776,-2.99579 10.452439,-2.99579 0.380395,0 0.38641,-0.0257 -0.564372,2.41357 l -0.827409,2.12276 -3.916373,1.11095 c -2.154002,0.61102 -7.300983,2.06526 -11.437722,3.23164 -6.193866,1.7464 -7.758804,2.26039 -8.866726,2.91221 -2.547886,1.49899 -4.018158,3.42648 -4.704856,6.16794 -0.882571,3.52344 1.068277,7.48342 4.041978,8.20473 1.250731,0.30338 2.079233,0.18657 3.261097,-0.4598 0.484821,-0.26514 1.671034,-0.65856 2.636028,-0.87423 0.96499,-0.21569 4.11012,-1.0943 6.989167,-1.95249 2.879047,-0.85818 5.258446,-1.53623 5.287559,-1.50678 0.0291,0.0294 -0.134412,0.83876 -0.363386,1.79847 -0.228966,0.95973 -0.417992,2.06145 -0.420065,2.44827 -0.0017,0.38683 -0.133531,0.79663 -0.292141,0.91067 -0.370669,0.26651 -6.575023,2.31868 -7.488783,2.477 -0.441058,0.0764 -0.956947,0.007 -1.41614,-0.19196 -0.397287,-0.17171 -0.832746,-0.30903 -0.967699,-0.30515 -0.134943,0.004 -0.899947,0.44141 -1.700009,0.97228 -1.89655,1.25843 -3.639724,1.73974 -6.233821,1.72121 -1.148993,-0.008 -2.510414,-0.15639 -3.352542,-0.36492 z m -4.674859,-7.28788 c -0.51009,-1.60178 -0.499119,-5.71833 0.02013,-7.55317 0.948004,-3.34994 3.633406,-6.44231 6.755199,-7.77899 0.89437,-0.38295 2.415867,-0.88788 3.381099,-1.12207 l 1.754971,-0.42582 -0.01599,-0.77477 c -0.0118,-0.57167 -2.779559,-6.36304 -10.558218,-22.09237 C 31.605819,91.904411 25.208752,78.942846 22.481659,73.365093 20.814019,69.95425 20.310403,69.100702 19.882337,68.9597 c -0.292015,-0.09619 -0.657702,-0.140995 -0.812624,-0.09957 -0.154922,0.0414 -0.560041,0.128187 -0.900251,0.192818 -0.614539,0.116747 -0.616222,0.12143 -0.2594,0.719228 0.625737,1.048322 5.913304,12.434056 5.913304,12.733141 0,0.07829 -0.679768,0.235517 -1.510602,0.349385 -3.461512,0.47442 -6.588658,2.630185 -8.304705,5.725036 -1.673831,3.018714 -2.242475,6.167352 -1.40874,7.800252 0.49871,0.976737 0.929577,1.041046 0.929577,0.138746 0,-1.078314 0.91019,-3.646762 1.897266,-5.353866 1.204674,-2.083446 2.652094,-3.577177 4.432018,-4.573845 1.494811,-0.837015 3.889521,-1.587226 4.775312,-1.496002 0.662529,0.06822 0.2111,-0.792507 9.895996,18.868627 2.101107,4.26542 5.184283,10.49483 6.851502,13.84313 1.667219,3.34832 3.031308,6.11842 3.031308,6.15579 0,0.0373 -0.38167,0.068 -0.848153,0.068 -1.208255,0 -3.29347,0.5066 -4.615057,1.12121 -3.808617,1.77122 -6.616801,6.3809 -6.698976,10.99646 -0.02767,1.55373 0.04172,2.03212 0.349311,2.40854 0.447426,0.54755 0.381973,0.66417 1.143885,-2.03809 1.012634,-3.59152 3.014069,-6.51113 5.589391,-8.1536 1.604131,-1.02306 4.233966,-2.1726 5.303391,-2.31817 l 0.783275,-0.10663 3.324367,6.71553 c 1.828402,3.69353 3.288649,6.73644 3.244994,6.76201 -0.04365,0.0256 -0.683612,0.20376 -1.422128,0.39598 -4.232257,1.10161 -7.050123,3.60386 -8.53564,7.57962 -0.76364,2.04377 -0.964474,5.5127 -0.442326,7.64014 0.332378,1.35422 1.596671,4.0541 1.811356,3.86811 0.05439,-0.0471 -0.06663,-0.60544 -0.268935,-1.24072 z m -2.311042,-14.545 c 0.94324,-1.44795 3.108876,-3.2862 5.204689,-4.41788 1.78147,-0.96195 2.018589,-1.36784 0.936529,-1.60313 -0.980257,-0.21314 -1.735077,0.13593 -3.32844,1.53926 -1.171952,1.03218 -1.819546,1.81738 -2.506967,3.03968 -1.4288,2.54053 -1.625446,3.46782 -0.305811,1.44207 z m 21.342571,-13.87733 c 0.268856,-0.12136 0.99622,-0.68847 1.616366,-1.26024 0.813545,-0.75008 1.292852,-1.03959 1.721181,-1.03959 0.326508,0 0.655891,-0.0873 0.731957,-0.19388 0.07663,-0.10738 -0.09224,-0.19663 -0.378425,-0.20005 -0.502576,-0.006 -0.504834,-0.014 -0.0823,-0.29081 0.868236,-0.56894 2.8104,-0.1347 2.512861,0.56184 -0.09958,0.23312 -0.23778,0.23513 -0.896885,0.013 -0.335845,-0.11316 -0.397447,-0.0571 -0.335685,0.30513 0.04162,0.24406 0.236292,0.53092 0.432643,0.6375 0.564169,0.30619 1.519552,0.002 1.674601,-0.53321 0.11845,-0.40885 0.208235,-0.44635 0.68936,-0.28787 0.835038,0.27504 1.284868,0.22251 1.824593,-0.21311 0.7039,-0.56814 0.607086,-0.74436 -0.349447,-0.63607 -0.605581,0.0686 -1.181888,-0.0439 -2.070078,-0.40432 -2.243456,-0.91012 -4.068183,-0.48834 -5.591389,1.29245 -0.721409,0.84341 -0.793102,0.88066 -0.956838,0.4972 -0.173014,-0.40518 -0.184772,-0.4062 -0.522723,-0.0449 -0.320688,0.3428 -0.333351,0.3134 -0.174808,-0.40595 0.09401,-0.42655 0.176626,-1.35757 0.183604,-2.06894 0.01489,-1.52028 -0.373603,-2.01252 -2.225244,-2.81943 -1.419525,-0.61859 -1.902241,-0.98884 -1.902241,-1.45903 0,-0.21504 -0.118839,-0.33787 -0.279741,-0.28912 -0.164142,0.0497 -0.268272,0.38584 -0.25199,0.81339 0.02089,0.54836 0.182353,0.83544 0.652601,1.1603 0.419777,0.28998 0.539208,0.4775 0.363893,0.57138 -0.143529,0.0768 -0.260973,0.39326 -0.260973,0.70312 0,0.60355 0.670499,1.08097 1.248354,0.88886 0.425309,-0.14139 0.405364,-0.62914 -0.03172,-0.77443 -0.494253,-0.16432 -0.176753,-0.50682 0.469825,-0.50682 0.597723,0 1.100942,0.54081 1.353059,1.45412 l 0.160564,0.58165 -0.4811,-0.36935 c -0.572552,-0.43956 -0.587058,-0.38242 -0.138827,0.54695 0.238364,0.49426 0.298038,0.99848 0.196588,1.66106 -0.165173,1.0787 0.0395,2.32981 0.381166,2.32981 0.125606,0 0.448341,-0.0993 0.717188,-0.22064 z m -24.35217,-5.79562 c 1.107773,-0.45733 2.064487,-0.86871 2.126031,-0.91419 0.20957,-0.15487 -0.94291,-0.82485 -1.418876,-0.82485 -0.856309,0 -2.61807,1.23268 -3.972941,2.7798 -2.1452,2.4496 -2.311636,2.97497 -0.401804,1.26831 1.359307,-1.21471 2.011768,-1.62549 3.66759,-2.30907 z M 12.316473,86.111644 c 1.121665,-1.661619 3.574794,-3.665404 5.632337,-4.600636 1.15082,-0.523092 1.622489,-0.845157 1.622489,-1.107853 0,-0.514401 -0.696744,-0.794016 -1.488383,-0.597322 -2.695028,0.669626 -5.006379,2.616547 -6.015108,5.066723 -0.333528,0.810116 -0.784609,2.514119 -0.665542,2.514119 0.02944,0 0.440822,-0.573763 0.914207,-1.275031 z m -1.92067,-3.801204 c 0,-0.367235 1.927649,-2.557412 3.052443,-3.468154 0.601851,-0.487316 1.576129,-1.130672 2.165073,-1.429692 1.134183,-0.575838 1.333384,-1.124437 0.448146,-1.234171 -1.282474,-0.158978 -4.00269,1.934567 -5.082098,3.911312 -0.619613,1.134703 -1.1053989,2.706402 -0.78318,2.533868 0.109789,-0.05877 0.199616,-0.199706 0.199616,-0.313163 z m 0.759328,-7.062815 c 0.874767,-0.758205 2.320621,-1.787592 3.21299,-2.287513 1.676521,-0.939217 1.951297,-1.353145 1.282753,-1.932339 -0.703571,-0.609538 -3.375305,0.535709 -5.093466,2.183332 -1.4861749,1.425158 -2.5730766,3.732052 -2.9335866,6.226385 -0.1187885,0.821929 -0.066228,0.765768 0.9073567,-0.969416 0.815051,-1.452628 1.369586,-2.133224 2.6239529,-3.220449 z m 25.549007,3.177311 c -0.456206,-0.564274 -0.439562,-0.903722 0.09428,-1.922989 0.887121,-1.693744 0.416561,-2.833305 -1.770575,-4.287839 -0.983723,-0.654215 -1.289011,-0.954665 -1.050583,-1.03393 0.198104,-0.06588 0.280001,-0.238368 0.199475,-0.420172 -0.106954,-0.241467 -0.04315,-0.276421 0.293871,-0.160978 0.931557,0.319099 2.967723,0.550571 3.739605,0.425118 1.029893,-0.167383 2.043819,-1.037697 2.449929,-2.102931 0.205106,-0.53799 0.559888,-0.961026 1.017814,-1.213632 0.816698,-0.450501 0.878212,-0.597564 0.304346,-0.727574 -0.533804,-0.12094 -1.716722,0.308091 -1.982066,0.718862 -0.166644,0.257976 -0.319774,0.279345 -0.820376,0.114453 -1.014709,-0.33423 -1.881096,0.271534 -1.443238,1.009089 0.24629,0.414867 0.857056,0.44941 0.857056,0.04844 0,-0.35093 0.594401,-0.390362 0.730685,-0.04844 0.17591,0.441305 -0.334752,1.092495 -1.01872,1.299059 -1.096841,0.331255 -1.396808,0.256072 -0.799773,-0.200461 0.570059,-0.435904 0.587244,-0.436937 -0.998661,0.05994 -0.438461,0.137383 -1.014904,0.131316 -1.883614,-0.01986 -3.357431,-0.584155 -3.749849,0.210184 -1.080041,2.186227 0.705038,0.52183 1.30781,1.14702 1.388585,1.440223 0.225058,0.816916 0.385667,0.940537 0.544643,0.419211 0.145457,-0.476992 0.151295,-0.474771 0.489321,0.186149 0.207433,0.405582 0.275298,0.825366 0.172396,1.066356 -0.223429,0.52326 -1.012916,0.530815 -1.013313,0.0097 -2.71e-4,-0.354104 -0.125862,-0.405376 -0.78357,-0.319904 -0.313899,0.04081 -0.279836,1.066268 0.04476,1.347481 0.147704,0.127966 0.457031,0.232659 0.687394,0.232659 0.297245,0 0.407002,0.126647 0.378056,0.436234 -0.07738,0.827564 0.01026,1.116134 0.45634,1.502591 0.246173,0.213277 0.604357,0.387767 0.795964,0.387767 0.315312,0 0.315312,-0.04089 0,-0.430907 z M 85.813956,63.444578 c 0,-0.696134 -0.38443,-1.157615 -1.136636,-1.364447 -0.424209,-0.116643 -0.433387,-0.155172 -0.110567,-0.464202 0.193611,-0.185352 0.352026,-0.454134 0.352026,-0.597294 0,-0.387863 -0.68415,-0.969414 -1.140442,-0.969414 -0.586727,0 -0.778325,0.408551 -0.325991,0.695102 0.451665,0.286126 0.282389,0.662077 -0.298105,0.662077 -0.431517,0 -1.217286,-0.665508 -1.445694,-1.224445 -0.117393,-0.287248 -0.05879,-0.328592 0.31854,-0.224832 0.452883,0.124528 0.454651,0.11419 0.08619,-0.503115 -0.274937,-0.460603 -0.349125,-0.94807 -0.275622,-1.810935 0.05532,-0.649375 0.01117,-1.464234 -0.09812,-1.810799 -0.305395,-0.968537 -0.943574,-0.827755 -2.40111,0.529687 -0.771575,0.718588 -1.585865,1.266574 -2.140493,1.440458 -0.873845,0.273967 -0.879174,0.281143 -0.223799,0.301185 l 0.671379,0.02053 -0.559475,0.277084 c -0.66819,0.330918 -1.43595,0.365021 -2.028852,0.09012 -0.66007,-0.306046 -0.553216,-0.794732 0.159084,-0.727577 0.790885,0.07456 0.913667,-0.327506 0.22022,-0.721145 -0.643905,-0.365514 -1.360442,-0.155364 -1.587979,0.465734 -0.118857,0.324446 -0.22681,0.343299 -0.916162,0.160007 -0.665753,-0.177017 -0.869573,-0.150757 -1.376911,0.177399 -0.596471,0.385812 -1.048949,1.036946 -0.525997,0.756944 0.520541,-0.278715 1.707741,-0.131904 2.923496,0.361525 2.335973,0.948083 3.780703,0.543477 5.404148,-1.513462 0.634466,-0.803881 0.76118,-0.886105 0.821665,-0.533178 0.08154,0.475711 0.268509,0.522606 0.697447,0.174926 0.245993,-0.199393 0.273068,-0.156433 0.152706,0.242352 -0.08043,0.26659 -0.20749,1.012036 -0.282296,1.65655 -0.11313,0.974766 -0.05362,1.311793 0.354031,2.004009 0.423161,0.718605 0.718686,0.92244 2.165581,1.493689 1.350605,0.533228 1.720961,0.774351 1.909649,1.243297 0.293596,0.729633 0.638086,0.574232 0.638086,-0.287831 z m -33.34512,93.852612 c 0,-0.21358 1.765625,-0.96852 4.923438,-2.10515 3.719423,-1.33877 14.485588,-4.52315 14.690939,-4.34525 0.216998,0.188 -0.389116,1.48666 -0.777758,1.66644 -0.66528,0.30776 -8.117658,2.48899 -11.339563,3.31895 -5.049191,1.30069 -7.497056,1.77902 -7.497056,1.46501 z m 32.535914,-2.48266 c 0.202712,-1.88955 0.931835,-3.58659 1.682797,-3.91674 0.31958,-0.14049 3.249781,-1.00494 6.511566,-1.92099 3.261778,-0.91606 8.146047,-2.30769 10.853947,-3.0925 l 4.92343,-1.42694 1.00707,1.33732 c 0.55389,0.73554 0.97451,1.39613 0.93472,1.46802 -0.10369,0.1873 -1.53631,0.84377 -4.73919,2.17166 -1.53858,0.63787 -3.11203,1.3355 -3.49655,1.55027 -0.92077,0.51428 -16.701169,5.22504 -17.516152,5.22891 -0.251795,9.9e-4 -0.282939,-0.2683 -0.161638,-1.39901 z m -33.431085,-1.53369 c 0,-0.20946 2.445243,-1.19549 6.042399,-2.43658 2.830844,-0.9767 15.006874,-4.51724 15.534917,-4.51724 0.273889,0 0.289359,0.10886 0.08954,0.63011 -0.132846,0.34657 -0.3542,0.73538 -0.491893,0.86401 -0.286627,0.26779 -11.935366,3.65139 -15.132564,4.39555 -3.394852,0.79018 -6.042399,1.25643 -6.042399,1.06415 z m 0.111896,-4.20669 c 0.344829,-0.31806 4.985982,-1.99722 8.839814,-3.19822 5.080948,-1.58342 14.570002,-4.2464 14.70734,-4.12742 0.06513,0.0565 -0.02994,0.42496 -0.211272,0.81889 -0.32298,0.70154 -0.400459,0.73772 -3.776271,1.76381 -9.270381,2.81777 -20.397751,5.51601 -19.559611,4.74294 z m 36.478136,-1.63231 c 0.488036,-1.49948 0.02757,-1.29249 7.792071,-3.50292 3.961166,-1.12769 8.108482,-2.27729 9.216252,-2.55469 1.10777,-0.27739 2.29431,-0.5992 2.63674,-0.71512 0.76547,-0.25914 0.8975,-0.16118 0.70028,0.51959 -0.18258,0.6302 -1.1109,1.02447 -5.79875,2.46281 -4.670656,1.43308 -14.241011,4.22656 -14.479967,4.22656 -0.114729,0 -0.144713,-0.1963 -0.06665,-0.43623 z m 1.454727,-4.46578 c 0,-0.15122 0.106913,-0.54065 0.237586,-0.8654 0.210781,-0.52383 0.469596,-0.65991 2.293876,-1.20611 1.13096,-0.3386 4.020073,-1.21141 6.420258,-1.93956 14.065866,-4.26724 26.788446,-7.77493 28.126526,-7.75466 0.38922,0.006 0.38881,0.0181 -0.009,0.27947 -0.99191,0.6509 -5.33631,2.10247 -7.8346,2.61771 -4.37532,0.90237 -6.27284,1.49296 -7.90265,2.45964 -1.13246,0.6717 -2.66558,1.25053 -6.32201,2.38689 -3.83535,1.19197 -10.351284,3.06217 -14.506006,4.16351 -0.357905,0.0949 -0.50354,0.0539 -0.50354,-0.14149 z m 1.463177,-4.8577 c 0.320748,-1.33474 0.146304,-1.26503 10.664209,-4.26191 13.33948,-3.80084 22.9638,-6.33605 24.05328,-6.33605 1.00476,0 -1.08795,1.01806 -4.4021,2.14154 -4.13735,1.40255 -18.95897,5.86328 -26.029344,7.83384 l -4.433354,1.2356 z M 77.5774,109.87421 c -7.425481,-1.37329 -14.064669,-3.95733 -18.342238,-7.13901 -1.527164,-1.13593 -3.594502,-3.342815 -4.620801,-4.932728 -0.801952,-1.242364 -8.780968,-16.773028 -8.995257,-17.508708 -0.09956,-0.341785 0.0999,-0.488504 1.29595,-0.95325 4.749602,-1.84557 9.856323,-5.459966 12.52556,-8.865261 0.497763,-0.635031 1.043553,-1.119021 1.260939,-1.118186 0.210815,7.33e-4 1.037894,0.175202 1.837957,0.387526 2.991103,0.793783 5.305067,1.046886 9.623084,1.052595 3.052206,0.0036 4.748511,-0.08814 6.455195,-0.350756 1.275242,-0.196217 2.396678,-0.281718 2.496824,-0.190348 0.09999,0.09122 1.813994,3.132267 3.808903,6.757868 l 3.627106,6.592015 -0.391374,0.872468 c -3.22817,7.19627 -4.149897,10.784988 -4.171051,16.239945 l -0.01252,3.23924 -0.544004,-0.57864 c -0.299204,-0.31824 -1.018533,-1.22232 -1.59851,-2.00905 l -1.054506,-1.430445 -0.176034,1.333495 c -0.293352,2.22223 0.08018,6.01669 0.85176,8.65256 0.198761,0.67903 0.06242,0.67722 -3.876943,-0.0513 z M 30.83955,73.518831 c -0.164036,-0.370342 0.284574,-0.689242 0.751306,-0.534076 0.42248,0.140454 0.265385,0.713162 -0.217732,0.793768 -0.214359,0.03576 -0.454468,-0.08109 -0.533574,-0.259692 z M 84.303352,57.788107 c -0.368798,-0.128924 -0.358521,-0.579447 0.01607,-0.703978 0.315342,-0.104835 0.889694,0.516231 0.660797,0.71454 -0.152859,0.132427 -0.273205,0.130549 -0.676859,-0.01056 z m -7.193976,-2.569536 c -0.171796,-0.09414 -0.250484,-0.31084 -0.174867,-0.481555 0.173886,-0.392576 0.822909,-0.408008 0.822909,-0.01957 0,0.159954 0.0076,0.354079 0.01675,0.431389 0.02639,0.220964 -0.322143,0.25752 -0.664822,0.06974 z"
       id="path1" /></g></svg>
