<?xml version="1.0" encoding="UTF-8" standalone="no"?>
<!-- Created with Inkscape (http://www.inkscape.org/) -->

<svg
   width="180mm"
   height="180mm"
   viewBox="0 0 180 180"
   version="1.1"
   id="svg1"
   sodipodi:docname="place_orchard.svg"
   inkscape:version="1.4.2 (f4327f4, 2025-05-13)"
   xml:space="preserve"
   xmlns:inkscape="http://www.inkscape.org/namespaces/inkscape"
   xmlns:sodipodi="http://sodipodi.sourceforge.net/DTD/sodipodi-0.dtd"
   xmlns="http://www.w3.org/2000/svg"
   xmlns:svg="http://www.w3.org/2000/svg"><sodipodi:namedview
     id="namedview1"
     pagecolor="#505050"
     bordercolor="#ffffff"
     borderopacity="1"
     inkscape:showpageshadow="0"
     inkscape:pageopacity="0"
     inkscape:pagecheckerboard="1"
     inkscape:deskcolor="#505050"
     inkscape:document-units="mm"
     inkscape:zoom="0.35355339"
     inkscape:cx="-511.94531"
     inkscape:cy="486.48947"
     inkscape:window-width="2560"
     inkscape:window-height="1351"
     inkscape:window-x="-9"
     inkscape:window-y="-9"
     inkscape:window-maximized="1"
     inkscape:current-layer="layer1"
     showguides="true" /><defs
     id="defs1"><rect
       x="101.82338"
       y="91.923881"
       width="384.66609"
       height="299.81327"
       id="rect3" /><rect
       x="2.8284271"
       y="2.1213203"
       width="662.55905"
       height="647.0027"
       id="rect2" /></defs><g
     inkscape:label="Icon"
     inkscape:groupmode="layer"
     id="layer1"><path
       id="path1"
       style="fill:#000000;stroke-width:4.05869"
       d="M 135.70283 23.469885 C 132.13087 23.568378 129.83051 24.733339 127.05736 27.483077 C 125.26105 29.264224 122.53288 30.648667 120.38128 30.870467 C 113.40489 31.590121 106.5267 39.729606 107.07874 46.612142 C 107.34944 49.987059 107.83967 50.589176 111.02578 51.456291 C 118.87504 53.592611 124.83692 60.857898 126.0967 69.823128 C 126.4934 72.646104 127.69076 76.264941 128.75803 77.864498 C 131.16882 81.477608 133.0896 90.259558 132.24981 93.830448 C 131.90352 95.302088 131.92618 97.033982 132.29942 97.678792 C 133.30882 99.421702 141.50887 99.097269 143.83153 97.222489 C 144.95978 96.311769 148.14094 95.574857 151.04711 95.553857 C 159.57988 95.489167 164.68542 90.855854 166.58156 81.455493 C 166.97303 79.514726 167.99571 77.304573 168.85429 76.544165 C 174.59053 71.463655 174.97974 59.035734 169.59792 52.813314 C 168.44429 51.479539 167.61811 48.735391 167.52621 45.93363 C 167.27028 38.134882 161.18489 31.436479 153.94047 30.979504 C 152.34917 30.879129 149.56659 29.329205 147.75739 27.53527 C 145.46086 25.25803 143.04839 24.102559 139.76356 23.707597 C 138.22577 23.522621 136.89348 23.437054 135.70283 23.469885 z M 41.642419 23.47557 C 37.060914 23.547854 32.77403 25.39195 30.977954 28.973425 C 30.18794 30.548747 28.800772 31.181042 26.132255 31.181042 C 18.386126 31.181042 12.272636 38.396422 12.272636 47.539217 C 12.272636 50.508564 11.603037 52.560826 10.189042 53.926424 C 5.2299243 58.715826 5.4396685 70.267452 10.579199 75.420203 C 11.95088 76.795361 13.34992 79.799783 13.696838 82.114884 C 14.896749 90.122856 21.051336 95.491226 29.112952 95.562126 C 31.571196 95.583756 34.751937 96.314893 36.181254 97.186833 L 36.181254 97.1889 C 37.61061 98.06088 40.768041 98.792607 43.19788 98.813607 L 47.615698 98.851331 L 47.615698 91.990767 C 47.615698 85.202827 50.72094 75.554561 52.905815 75.554561 C 53.426545 75.554561 53.853044 73.538049 53.853044 71.073181 C 53.853044 62.350715 60.298144 53.663008 68.40616 51.456291 C 71.632535 50.578191 72.080148 50.009986 72.363025 46.436959 C 72.967165 38.804035 66.828095 31.595041 59.195353 30.974337 C 57.354292 30.824654 55.049348 29.7602 54.073185 28.609106 C 51.099868 25.10285 46.223925 23.403286 41.642419 23.47557 z M 53.580192 45.228247 C 53.580994 45.233403 53.58198 45.238574 53.582776 45.24375 L 47.757292 45.24375 L 53.580192 45.228247 z M 138.69903 45.429785 C 138.69956 45.433907 138.70005 45.438062 138.70058 45.442187 L 134.47448 45.442187 L 138.69903 45.429785 z M 160.86615 46.531527 C 160.90698 46.714732 160.92196 46.955254 160.92196 47.254997 C 160.92196 47.300561 160.91909 47.346596 160.91369 47.39349 A 8.3343744 12.170834 0 0 0 160.85943 47.318559 A 1.2567708 5.6885414 0 0 0 160.86667 46.698958 L 160.36644 46.698958 A 8.3343744 12.170834 0 0 0 160.35817 46.689657 L 160.86667 46.682939 A 1.2567708 5.6885414 0 0 0 160.86615 46.531527 z M 89.755762 46.848303 C 85.567431 46.855378 81.36544 48.621341 78.377645 52.144621 C 77.289864 53.427369 75.168106 54.477295 73.662687 54.477295 C 69.32036 54.477295 61.901012 59.088833 59.719869 63.143949 C 58.632677 65.165134 57.686695 68.994108 57.617155 71.652474 C 57.529188 75.022611 56.775499 77.298831 55.127384 79.170878 C 49.939838 85.063114 49.903361 95.391153 55.047803 101.64392 C 56.677531 103.62481 58.010929 106.35933 58.010929 107.72107 C 58.010929 115.46632 66.978842 123.6455 74.922042 123.14442 C 77.493202 122.9822 80.616542 123.62063 82.439412 124.68128 L 82.439412 124.68283 C 86.548129 127.07364 94.284596 127.0992 97.450899 124.73244 C 99.057329 123.53162 101.62672 122.96112 104.74348 123.1129 C 108.30813 123.28649 110.48104 122.68162 113.12488 120.78022 C 117.64495 117.5295 121.42101 111.60158 121.42101 107.75673 C 121.42101 106.0189 122.50404 103.70001 124.03119 102.16896 C 127.13365 99.058529 129.13099 92.012994 128.24695 87.295964 C 127.89827 85.435414 126.52615 82.157671 125.19804 80.01217 C 123.86997 77.86671 122.52827 73.6829 122.21631 70.715063 C 121.90452 67.747183 120.75209 64.003351 119.65523 62.395158 C 117.24991 58.868587 109.55018 54.478845 105.76925 54.478845 C 104.26383 54.478845 102.14086 53.411405 101.05171 52.106897 C 98.118708 48.593048 93.944092 46.841228 89.755762 46.848303 z M 29.649353 55.479818 C 29.650125 55.485313 29.65117 55.490839 29.651937 55.496354 L 25.4 55.496354 L 29.649353 55.479818 z M 162.53013 56.193986 C 162.5309 56.203953 162.53201 56.213958 162.53271 56.223958 L 155.17812 56.223958 L 162.53013 56.193986 z M 88.911886 73.816683 C 88.911787 73.817438 88.911467 73.817995 88.911369 73.81875 L 88.172396 73.81875 L 88.911886 73.816683 z M 150.31641 76.516777 C 150.32091 76.521365 150.32588 76.526153 150.33036 76.530729 L 146.38073 76.530729 L 150.31641 76.516777 z M 33.998958 76.850606 L 33.998958 76.861458 L 31.551562 76.861458 L 33.998958 76.850606 z M 114.72581 81.064303 C 114.72854 81.074468 114.7309 81.084596 114.73357 81.094792 L 106.69323 81.094792 L 114.72581 81.064303 z M 75.364392 92.858931 C 75.366706 92.862167 75.368805 92.865509 75.37111 92.86875 L 75.198511 92.86875 A 6.1515622 15.676562 0 0 0 75.197994 92.859448 L 75.364392 92.858931 z M 38.260197 102.37928 L 38.198185 107.54847 C 38.136149 112.72281 37.003001 120.50931 35.629867 125.19804 L 35.630383 125.19753 C 34.918671 127.62779 35.096978 127.6935 42.418083 127.6935 C 49.753058 127.6935 49.918491 127.63246 49.15979 125.19753 C 48.732016 123.82472 48.166893 118.16232 47.904053 112.61431 L 47.426046 102.52708 L 42.84338 102.45318 L 38.260197 102.37928 z M 142.01149 102.3829 L 137.43347 102.4568 L 132.85546 102.53018 L 132.80998 108.17893 C 132.76723 113.51092 131.84481 119.56567 130.21634 125.19804 L 130.21582 125.19804 C 129.51342 127.6274 129.69507 127.69401 137.01334 127.69401 L 144.53226 127.69401 L 143.79381 124.64355 C 143.38748 122.96567 142.81971 117.27073 142.5329 111.988 L 142.01149 102.3829 z M 101.22638 104.10011 C 101.23236 104.10462 101.23851 104.10899 101.24447 104.11354 L 96.440625 104.11354 L 101.22638 104.10011 z M 85.03667 130.46749 L 85.017033 134.90494 C 84.99236 140.1436 83.451308 151.83178 82.420809 154.59573 L 82.419775 154.59573 C 81.768135 156.34379 82.494759 156.53722 89.714421 156.53722 C 96.926187 156.53722 97.662366 156.3417 97.030253 154.59573 C 95.694992 150.90752 94.392171 141.79314 94.392171 136.14001 L 94.392171 130.46749 L 89.714421 130.46749 L 85.03667 130.46749 z M 174.49271 138.96516 L 172.97135 139.10779 C 172.13461 139.18623 168.53297 139.86502 164.96771 140.61622 C 161.40245 141.36742 157.47339 142.08449 156.23646 142.20992 C 153.48251 142.48917 152.48019 142.71007 152.13542 143.11375 C 151.9899 143.28413 148.83474 144.29435 145.12396 145.35857 C 141.41318 146.4228 136.76974 147.8129 134.80521 148.44779 C 130.58827 149.81058 126.43237 150.94333 125.64504 150.94427 C 125.33638 150.94464 123.84811 151.49477 122.33775 152.16694 C 117.45845 154.33844 106.33573 158.46668 105.79974 158.30507 C 105.67279 158.2668 105.03297 158.5514 104.37812 158.93759 C 103.72329 159.32377 102.86009 159.72017 102.4599 159.81867 C 102.05972 159.91716 101.73229 160.09951 101.73229 160.22381 C 101.73229 160.34811 98.249714 162.17074 93.993229 164.27369 C 87.465341 167.49886 81.060501 171.01102 74.656942 174.88958 L 94.922888 174.88958 C 111.82964 164.27777 129.34074 155.85944 147.24062 149.76502 C 150.07828 148.79887 155.97187 146.99373 160.3375 145.75338 C 168.59662 143.40682 173.32202 141.74613 174.06069 140.9299 C 174.29842 140.66721 174.49271 140.11771 174.49271 139.70878 L 174.49271 138.96516 z M 8.5390137 142.82229 C 6.8208157 142.97131 6.608808 143.4989 6.5339681 144.52451 C 6.4354316 145.87487 6.7814591 146.57895 7.8041748 147.10782 C 8.2314432 147.32877 11.35288 147.97834 14.741219 148.55166 C 24.417364 150.18891 34.395778 152.37366 45.751729 155.34091 C 54.636986 157.66259 59.332801 159.10422 69.188542 162.53582 C 73.772448 164.13186 77.761041 165.50037 78.052083 165.57697 C 78.982051 165.82169 80.368225 165.48576 82.946875 164.391 C 85.568718 163.2779 88.878391 161.46183 89.18267 160.9695 C 89.27988 160.81221 89.189441 160.51377 88.981649 160.30598 C 88.302302 159.62663 82.454552 157.43716 73.025 154.33218 C 62.738551 150.94504 61.675192 150.62652 60.721875 150.64352 C 60.358073 150.64999 57.679166 150.13302 54.76875 149.49527 C 51.858333 148.85752 45.131303 147.4732 39.819792 146.41897 C 34.508281 145.36475 30.102968 144.42911 30.030208 144.33951 C 29.769728 144.01885 27.952434 143.60367 27.736808 143.81551 C 27.61582 143.93437 23.944792 143.7443 19.579167 143.39331 C 13.48135 142.90306 10.257212 142.67327 8.5390137 142.82229 z M 173.21165 145.49603 C 172.76173 145.49835 172.12312 145.62439 171.07328 145.89652 C 167.21194 146.89743 154.38326 151.61814 147.10833 154.7151 C 134.31543 160.16109 121.79495 166.94062 109.74731 174.88958 L 126.36696 174.88958 C 128.48083 173.35683 130.60409 171.87549 132.73402 170.44748 C 142.86898 163.65248 151.66557 158.75395 164.17396 152.94054 C 172.94118 148.86587 175.96908 146.57885 173.86587 145.62057 C 173.68357 145.53751 173.4816 145.49463 173.21165 145.49603 z M 7.9157959 152.61756 C 7.6606385 152.61088 7.286069 152.78684 7.0248942 153.04802 C 6.5873186 153.48559 6.4822917 153.92878 6.4822917 155.33677 C 6.4822917 156.95679 6.5444476 157.14426 7.3421875 157.9299 C 7.9633635 158.54166 8.863154 158.97901 10.583333 159.50499 C 26.724876 164.44054 39.904848 169.34111 50.00625 174.16301 C 50.516533 174.4066 51.028833 174.65066 51.530705 174.88958 L 64.894747 174.88958 C 67.043698 173.64949 68.93005 172.40286 69.097591 171.96625 C 69.188339 171.72977 69.045167 171.39916 68.758594 171.18335 C 66.041124 169.13696 49.890884 163.32509 34.925 159.00838 C 28.221175 157.07475 22.211777 155.59591 15.08125 154.12393 C 11.443229 153.37292 8.2642994 152.70111 8.0170817 152.63151 C 7.9861795 152.62281 7.9522469 152.61851 7.9157959 152.61756 z M 173.76614 153.23457 C 172.90689 153.19854 171.08782 154.14464 167.34586 156.30002 C 157.74164 161.83207 148.64426 168.03596 140.07672 174.88958 L 153.84952 174.88958 C 156.69581 172.23227 159.53819 169.79601 163.76106 166.33093 C 172.20335 159.40363 174.48412 156.9132 174.49012 154.61537 C 174.49238 153.74389 174.35405 153.25923 173.76614 153.23457 z M 174.36042 164.10006 L 169.72711 169.09821 C 167.66822 171.31912 165.93006 173.20899 164.40909 174.88958 L 173.52429 174.88958 C 174.34366 172.56741 174.49318 170.60907 174.4338 167.70191 L 174.36042 164.10006 z M 7.8806559 166.02966 C 6.6524743 166.02474 6.4176416 166.65916 6.5246663 169.69145 C 6.612465 172.17902 6.6895094 173.1559 9.3095093 174.88958 L 30.813106 174.88958 C 20.883365 170.38746 10.091104 166.03854 7.8806559 166.02966 z " /></g></svg>
