<?xml version="1.0" encoding="UTF-8" standalone="no"?>
<!-- Created with Inkscape (http://www.inkscape.org/) -->

<svg
   width="180mm"
   height="180mm"
   viewBox="0 0 180 180"
   version="1.1"
   id="svg1"
   sodipodi:docname="place_ — kopia (17).svg"
   inkscape:version="1.4.2 (f4327f4, 2025-05-13)"
   xml:space="preserve"
   xmlns:inkscape="http://www.inkscape.org/namespaces/inkscape"
   xmlns:sodipodi="http://sodipodi.sourceforge.net/DTD/sodipodi-0.dtd"
   xmlns="http://www.w3.org/2000/svg"
   xmlns:svg="http://www.w3.org/2000/svg"><sodipodi:namedview
     id="namedview1"
     pagecolor="#505050"
     bordercolor="#ffffff"
     borderopacity="1"
     inkscape:showpageshadow="0"
     inkscape:pageopacity="0"
     inkscape:pagecheckerboard="1"
     inkscape:deskcolor="#505050"
     inkscape:document-units="mm"
     inkscape:zoom="1"
     inkscape:cx="73"
     inkscape:cy="204"
     inkscape:window-width="2560"
     inkscape:window-height="1351"
     inkscape:window-x="-9"
     inkscape:window-y="-9"
     inkscape:window-maximized="1"
     inkscape:current-layer="layer1"
     showguides="true" /><defs
     id="defs1"><rect
       x="101.82338"
       y="91.923881"
       width="384.66609"
       height="299.81327"
       id="rect3" /><rect
       x="2.8284271"
       y="2.1213203"
       width="662.55905"
       height="647.0027"
       id="rect2" /></defs><g
     inkscape:label="Icon"
     inkscape:groupmode="layer"
     id="layer1"><path
       style="fill:#000000;stroke-width:4.2591"
       d="m 66.901116,169.49427 c -9.260244,-1.95192 -17.578988,-5.03637 -22.077913,-8.1862 -5.492191,-3.84517 -7.940959,-11.36011 -5.45793,-16.74953 1.00449,-2.18024 1.352321,-2.11869 7.784471,1.37775 11.266378,6.1242 24.578132,8.72878 44.487692,8.7045 19.473604,-0.0229 32.759594,-2.53081 43.736074,-8.25285 3.4644,-1.80599 6.80357,-2.92127 7.42044,-2.47843 0.61686,0.44297 1.12158,3.17575 1.12158,6.0731 0,4.47585 -0.53736,5.81601 -3.57379,8.91286 -8.07362,8.23434 -25.10399,12.45065 -49.625413,12.28608 -8.981844,-0.0601 -19.698695,-0.81956 -23.815211,-1.68728 z m 1.557139,-20.09289 c -22.018597,-4.3161 -34.709929,-15.33106 -28.687574,-24.89818 1.41954,-2.25511 1.60045,-2.23317 7.05755,0.85523 6.184179,3.49993 12.704017,5.83584 16.317676,5.84626 4.752309,0.0138 2.125042,-2.15137 -6.621003,-5.45621 -9.721094,-3.67331 -16.119971,-9.17891 -16.119971,-13.86968 0,-1.4573 0.704633,-4.23246 1.565873,-6.16702 l 1.565872,-3.51742 5.585413,2.97034 c 12.151684,6.46228 20.590087,8.14805 41.469796,8.28456 21.702693,0.14185 31.161283,-1.60438 42.345223,-7.81781 5.74807,-3.19348 6.38283,-3.31682 7.58033,-1.47315 1.97606,3.04232 1.65016,11.75182 -0.52278,13.9708 -4.20235,4.29145 -12.84395,8.20713 -23.52511,10.65963 -3.96003,0.90926 -6.01201,1.97285 -6.01201,3.11613 0,0.95461 0.49527,1.73566 1.10056,1.73566 3.68843,0 17.22819,-4.43008 23.28971,-7.6202 5.96845,-3.1411 7.29398,-3.47147 8.0871,-2.01559 1.72058,3.15845 1.09549,10.24906 -1.15039,13.04938 -4.63661,5.78107 -18.85947,11.51931 -32.39102,13.06814 l -7.30042,0.83564 v -5.70217 c 0,-9.55486 -3.908658,-15.18417 -10.576014,-15.23177 -6.754611,-0.0482 -11.356913,6.94326 -11.374972,17.28014 -0.004,2.98649 -0.365535,3.32485 -3.4039,3.1971 -1.868931,-0.0785 -5.594937,-0.57348 -8.279939,-1.09981 z m 6.450209,-40.00239 C 59.907584,107.1442 48.121869,102.10728 45.032842,96.630915 43.050339,93.11625 43.766748,87.512599 46.57619,84.559153 c 1.732793,-1.821551 2.299787,-1.738052 7.700655,1.134144 9.808585,5.216224 19.45598,7.032083 37.360591,7.032083 18.033874,0 27.436184,-1.791484 37.007584,-7.051271 3.20888,-1.763392 6.35877,-2.829689 6.99966,-2.369596 0.64089,0.460139 1.83834,2.707815 2.66101,4.994922 1.23666,3.438005 1.26345,4.727165 0.15491,7.442554 -1.75888,4.307611 -10.6375,9.384701 -20.6283,11.795881 -9.29964,2.24437 -33.416925,3.29006 -42.923638,1.86112 z m -58.551459,-2.48853 c 0,-2.13535 0.260419,-2.25029 2.091136,-0.92239 1.150111,0.83435 2.091136,1.93204 2.091136,2.43937 0,0.50728 -0.941025,0.92239 -2.091136,0.92239 -1.397015,0 -2.091136,-0.8097 -2.091136,-2.43937 z m 2.984227,-2.32075 c -1.353783,-1.27489 -2.133341,-2.70061 -1.73232,-3.16828 0.400982,-0.46767 1.945911,0.26165 3.433104,1.62045 1.487194,1.35889 2.266751,2.78461 1.73232,3.16827 -0.534432,0.38376 -2.079321,-0.34565 -3.433104,-1.62044 z m 2.000958,-3.74162 c -0.957544,-1.781063 -2.438296,-2.429083 -5.550361,-2.429083 -2.334405,0 -4.809017,-0.65588 -5.499068,-1.45745 -3.8328212,-4.452246 1.960848,-7.388477 8.004306,-4.056647 l 3.810533,2.10083 -2.352504,-2.926179 c -2.703496,-3.362678 -3.044767,-5.805903 -0.811013,-5.805903 0.847804,0 2.293228,1.68866 3.212044,3.752583 1.642931,3.690568 1.70687,3.715677 3.866055,1.518174 1.20749,-1.228934 1.820404,-1.492697 1.362003,-0.586145 -0.638441,1.26272 -0.252515,1.478422 1.650005,0.922114 1.365915,-0.399362 1.895328,-0.412215 1.176509,-0.02754 -0.71882,0.383296 -1.306956,2.035234 -1.306956,3.670508 0,1.635275 -0.705739,3.287855 -1.568322,3.672345 -0.862584,0.38467 -1.568362,1.460423 -1.568362,2.390943 0,2.5287 -2.93163,2.04028 -4.424869,-0.73722 z m 136.39324,-3.831263 c 0.25766,-0.898794 1.30704,-1.82302 2.33196,-2.053778 1.19196,-0.268537 1.6947,0.169385 1.39508,1.214521 -0.25766,0.898797 -1.30704,1.822977 -2.33196,2.053777 -1.19196,0.26854 -1.6947,-0.16938 -1.39508,-1.21452 z m -2.31871,-3.283309 c 0,-1.381794 3.29104,-3.816252 5.15906,-3.816252 0.61287,0 1.11431,0.819794 1.11431,1.821781 0,1.001986 -0.66729,1.821827 -1.48285,1.821827 -0.81556,0 -2.22708,0.331884 -3.13669,0.737214 -0.9096,0.40533 -1.65383,0.151482 -1.65383,-0.56457 z M 76.9996,88.559112 C 67.209864,87.257053 56.248401,83.473943 52.596253,80.136926 49.180616,77.015932 48.939758,72.104738 51.981997,67.612141 c 2.462401,-3.636402 4.217008,-3.967735 7.555468,-1.42678 5.253981,3.998903 15.534166,5.96294 31.577196,6.032897 16.543639,0.07207 23.964109,-1.234443 31.725509,-5.586254 l 4.54089,-2.546096 2.45256,2.895745 c 1.34888,1.592676 2.76258,4.375359 3.14155,6.183783 2.34641,11.197525 -26.94996,19.254225 -55.97557,15.393676 z m 77.37153,-0.780547 c 0,-1.332126 -0.69586,-3.092901 -1.54635,-3.912833 -1.19153,-1.148649 -1.28672,-2.054376 -0.41485,-3.946757 0.86013,-1.866904 0.79216,-2.705795 -0.28334,-3.497496 -0.77822,-0.572787 -0.92087,-1.049819 -0.31693,-1.060055 0.60382,-0.0092 1.69031,0.664548 2.41446,1.499583 1.05567,1.217229 1.17857,1.096869 0.62003,-0.607306 -0.38292,-1.168985 -0.38648,-2.125435 -0.008,-2.125435 0.37897,0 1.19709,1.692976 1.81807,3.762132 l 1.12901,3.762177 2.51836,-3.154871 c 2.80722,-3.516776 5.57043,-4.148962 5.57043,-1.274471 0,1.034257 -1.52912,2.700929 -3.39809,3.703742 -2.90231,1.557284 -2.99668,1.727816 -0.6467,1.168893 1.51323,-0.359886 4.24416,-0.05003 6.06871,0.688923 2.52191,1.021266 3.24105,1.964587 2.9992,3.93427 -0.2537,2.065209 -0.95454,2.533565 -3.4548,2.308177 -7.08963,-0.639071 -8.46902,-0.605103 -10.71701,0.263947 -1.91488,0.740243 -2.3525,0.459037 -2.3525,-1.512574 z M 76.205619,67.880035 C 68.062568,66.523396 60.322318,63.244447 58.85263,60.528829 c -1.550065,-2.864026 0.196006,-8.016857 3.761888,-11.100531 2.794425,-2.416648 2.965456,-2.424543 6.78002,-0.311686 9.560812,5.29605 35.481462,5.350446 44.234032,0.09273 2.87903,-1.729423 3.77125,-1.795799 5.94783,-0.442512 3.69692,2.298262 6.00405,7.97692 4.64679,11.437281 -2.69749,6.87702 -28.272324,10.965252 -48.017571,7.675745 z m 2.750917,-19.198683 c -5.344515,-1.136713 -9.275893,-3.201738 -9.275893,-4.87245 0,-1.753385 3.041172,-4.787438 7.689432,-7.671477 5.892027,-3.655727 22.245464,-3.907325 27.859685,-0.428741 4.17753,2.588557 8.36447,6.758084 8.36447,8.329736 0,4.021258 -23.039647,7.109477 -34.637694,4.642795 z M 25.505691,44.142209 c -1.061829,-0.322245 -1.829729,-1.707435 -1.829729,-3.300295 0,-4.29792 1.239934,-4.685026 3.312457,-1.034073 2.855362,5.029947 2.662794,5.592772 -1.482728,4.334368 z m 128.865439,0.389263 c 0,-1.721022 3.91055,-7.964526 4.53453,-7.239752 1.04752,1.216816 0.83089,6.473206 -0.26674,6.473206 -0.52803,0 -1.7043,0.331884 -2.61391,0.737168 -0.90965,0.40533 -1.65388,0.418642 -1.65388,0.02754 z M 31.814073,41.639446 c -3.718221,-4.951498 -4.895955,-11.234432 -2.105916,-11.234432 0.914114,0 5.468956,10.142382 5.468956,12.177845 0,1.84432 -1.608552,1.393086 -3.36304,-0.943413 z m 116.280797,1.257303 c -0.002,-0.754841 3.72151,-10.022482 4.98673,-12.410761 0.15333,-0.289653 0.83089,0.115218 1.50561,0.898749 0.93865,1.090351 0.82267,2.409441 -0.49393,5.61655 -1.56852,3.820797 -5.99149,8.167834 -5.99841,5.895462 z M 36.21124,36.174056 c -2.397395,-4.56742 -2.610195,-6.574928 -0.772721,-7.28919 0.71882,-0.279554 -1.157224,-1.459647 -4.168994,-2.622755 -7.955778,-3.072428 -12.097822,-10.236761 -8.129931,-14.062056 2.619166,-2.5249797 7.008944,-0.220797 12.8217,6.730772 3.019041,3.610465 5.489188,6.281007 5.489188,5.934617 0,-0.346573 -0.940986,-2.772493 -2.091097,-5.391255 -2.501089,-5.69477 -2.609247,-7.704848 -0.522814,-9.7162577 1.255939,-1.210802 1.902679,-1.189687 3.246503,0.106038 1.288817,1.2424757 1.578123,3.2244607 1.246968,8.5426367 -0.399124,6.4094 -0.271088,6.904104 1.719911,6.646217 1.183108,-0.153318 3.17881,-0.924593 4.434907,-1.714045 1.256057,-0.789406 2.902821,-1.413468 3.659459,-1.386706 0.756637,0.02754 0.0818,0.864 -1.499602,1.860616 -3.489574,2.199064 -3.661,3.119296 -0.522775,2.806003 3.736557,-0.373197 6.011963,0.06105 6.011963,1.147088 0,0.552314 -1.411518,0.763517 -3.136685,0.469412 -2.789288,-0.475517 -3.136684,-0.190042 -3.136684,2.579054 0,3.516318 -2.446832,5.645791 -5.441847,4.73598 -1.283996,-0.390182 -2.571429,0.32408 -3.570229,1.980608 -2.127413,3.52816 -3.210068,3.267656 -5.63722,-1.356593 z m 105.7958,1.406582 c -1.03381,-1.922953 -2.00898,-2.353162 -4.01097,-1.769497 -3.23895,0.944332 -5.58173,-1.09843 -5.58173,-4.866896 0,-2.129795 -0.69365,-2.929025 -2.87528,-3.312918 -2.31283,-0.407166 -2.10833,-0.541572 1.04555,-0.687913 4.30742,-0.199681 5.51428,-2.61105 1.30695,-2.61105 -1.43764,0 -2.61391,-0.546576 -2.61391,-1.214567 0,-1.692424 2.13868,-1.443993 5.22782,0.607261 4.58713,3.046033 5.22782,2.394476 5.22782,-5.316662 0,-8.011577 1.84641,-11.4063407 4.70501,-8.6504647 2.08643,2.0114097 1.97828,4.0214877 -0.52277,9.7162577 -3.06666,6.982645 -2.61984,7.018496 2.64801,0.212534 5.25418,-6.788334 11.01667,-9.9498157 13.59865,-7.46064 3.89467,3.754649 -0.21814,10.97122 -7.95384,13.955788 -4.40539,1.699723 -5.00285,2.264431 -3.63132,3.432451 1.45933,1.242798 1.34556,1.903765 -1.02485,5.952566 -3.07934,5.259694 -3.68234,5.478701 -5.54514,2.013842 z"
       id="path1" /></g></svg>
