<?xml version="1.0" encoding="UTF-8" standalone="no"?>
<!-- Created with Inkscape (http://www.inkscape.org/) -->

<svg
   width="180mm"
   height="180mm"
   viewBox="0 0 180 180"
   version="1.1"
   id="svg1"
   sodipodi:docname="place_farmland.svg"
   inkscape:version="1.4.2 (f4327f4, 2025-05-13)"
   xml:space="preserve"
   xmlns:inkscape="http://www.inkscape.org/namespaces/inkscape"
   xmlns:sodipodi="http://sodipodi.sourceforge.net/DTD/sodipodi-0.dtd"
   xmlns="http://www.w3.org/2000/svg"
   xmlns:svg="http://www.w3.org/2000/svg"><sodipodi:namedview
     id="namedview1"
     pagecolor="#505050"
     bordercolor="#ffffff"
     borderopacity="1"
     inkscape:showpageshadow="0"
     inkscape:pageopacity="0"
     inkscape:pagecheckerboard="1"
     inkscape:deskcolor="#505050"
     inkscape:document-units="mm"
     inkscape:zoom="0.5"
     inkscape:cx="-770"
     inkscape:cy="410"
     inkscape:window-width="2560"
     inkscape:window-height="1351"
     inkscape:window-x="-9"
     inkscape:window-y="-9"
     inkscape:window-maximized="1"
     inkscape:current-layer="layer1"
     showguides="true" /><defs
     id="defs1"><rect
       x="101.82338"
       y="91.923881"
       width="384.66609"
       height="299.81327"
       id="rect3" /><rect
       x="2.8284271"
       y="2.1213203"
       width="662.55905"
       height="647.0027"
       id="rect2" /></defs><g
     inkscape:label="Icon"
     inkscape:groupmode="layer"
     id="layer1"><path
       id="path1"
       style="fill:#000000;stroke-width:0.928198"
       d="m 106.55461,3.759522 c -1.52861,0 -4.62996,8.119128 -4.63796,12.142928 -0.006,3.05627 2.0021,9.102118 3.73982,11.257711 0.37204,0.46148 0.7188,0.839225 0.7705,0.839225 0.0518,0 0.4143,-0.377745 0.80563,-0.839225 1.01467,-1.196592 2.42159,-4.855337 3.10679,-8.079094 0.50586,-2.379948 0.53408,-3.1216 0.20205,-5.322155 -0.59305,-3.930524 -3.01281,-9.99939 -3.98683,-9.99939 z m -93.794793,9.252665 -0.519348,0.901237 c -0.999205,1.733183 -2.161108,6.202417 -2.161108,8.313188 0,2.056523 0.753798,4.392498 1.893424,5.865792 0.740958,0.957888 1.346376,0.8069 2.542997,-0.635104 1.31626,-1.586176 1.963123,-4.32896 1.659847,-7.038846 -0.253237,-2.262795 -1.482846,-5.342831 -2.615861,-6.552572 z M 55.3598,14.201262 c -2.405942,0 -4.36038,7.687305 -3.153812,12.404411 0.294025,1.149446 0.915652,2.604442 1.381311,3.233394 1.518848,2.051491 2.996113,1.252765 4.447274,-2.403987 1.817112,-4.578897 0.06781,-13.233818 -2.674773,-13.233818 z m 112.18075,3.471623 c -0.91142,0.05298 -2.14512,1.742135 -2.60398,3.678845 -0.61154,2.58116 -0.27054,6.866626 0.74414,9.351367 0.48159,1.179354 1.03025,2.144055 1.21957,2.144055 0.63676,0 2.25108,-2.980679 2.65772,-4.907194 0.78211,-3.705252 -0.23867,-9.686088 -1.74615,-10.229866 -0.0862,-0.03109 -0.17702,-0.04269 -0.2713,-0.03721 z m -73.954142,3.170866 -0.26355,1.620056 c -0.144343,0.890954 -0.20888,2.994135 -0.14211,4.673616 0.103225,2.598695 0.298123,3.459609 1.308964,5.780009 1.735787,3.984448 4.263097,6.670165 6.971148,7.408334 2.29136,0.624583 3.44665,-0.496451 3.44165,-3.340882 -0.007,-4.264703 -2.58396,-8.585514 -7.830527,-13.125297 z m 26.249042,2.121317 -0.97979,0.131258 c -1.5888,0.213165 -4.28717,1.495186 -5.55315,2.638599 -2.74252,2.477046 -5.34277,7.072469 -6.25749,11.05824 -0.47347,2.06267 -0.46864,2.239919 0.0718,2.706811 0.8509,0.735054 4.74143,0.253083 6.86159,-0.850077 1.38854,-0.722481 1.89869,-1.263139 2.71767,-2.879928 1.80388,-3.561164 3.04366,-7.720313 3.09386,-10.381278 z m -98.729373,2.440678 c -1.929592,0.06721 -5.067634,3.512491 -6.260083,7.394897 -0.520214,1.693718 -0.661884,3.841036 -0.282153,4.272608 0.36971,0.420169 1.736074,0.276621 2.668571,-0.280603 1.405808,-0.840057 3.586048,-3.608075 4.282943,-5.437394 0.885323,-2.323895 1.194588,-4.735736 0.695048,-5.419825 -0.277794,-0.380415 -0.659035,-0.545193 -1.104326,-0.529683 z M 5.6775621,26.284762 c -0.6985449,-0.02375 -1.2421591,0.370529 -1.523938,1.212846 -0.3598256,1.075632 -0.1421746,2.347454 0.7456909,4.360974 0.7653764,1.735748 3.0093466,4.577163 4.3594239,5.51956 1.8840671,1.315127 2.7934291,0.693482 2.7822591,-1.90221 -0.0092,-2.156015 -0.836955,-4.193617 -2.6411825,-6.502445 C 8.050582,27.246905 6.6985124,26.319469 5.6775621,26.284762 Z m 40.4936519,1.707906 c -0.771258,-0.0021 -1.354565,0.458796 -1.672766,1.395264 -1.144338,3.367801 2.001902,9.747628 5.775358,11.710396 1.675588,0.871558 1.683543,0.87068 2.640149,-0.216524 1.809447,-2.056481 0.385434,-7.097053 -2.99775,-10.611239 -1.450899,-1.507067 -2.753374,-2.27517 -3.744991,-2.277897 z m 113.412196,0.0067 c -3.34441,0 -0.41429,9.373442 3.56412,11.401888 1.30936,0.667568 1.80022,0.651104 2.51665,-0.08578 1.45989,-1.501553 0.23077,-5.064435 -3.03599,-8.798946 -1.57857,-1.80464 -2.44064,-2.517159 -3.04478,-2.517159 z m 15.12983,0 c -0.90949,0 -5.15135,4.8556 -6.11281,6.997506 -0.82412,1.835944 -0.89438,3.53751 -0.17983,4.349605 0.63034,0.71643 0.85573,0.723939 2.2257,0.07338 1.70186,-0.808163 3.52965,-2.859218 4.35736,-4.889624 1.45212,-3.562178 1.32005,-6.530868 -0.29042,-6.530867 z m -110.00879,0.02429 c -1.377217,-0.02397 -3.643441,1.588612 -5.428609,4.143416 -2.704084,3.869875 -3.33062,6.973072 -1.766818,8.750371 0.974687,1.107753 1.877663,1.004601 3.815788,-0.436149 2.812958,-2.091067 5.434664,-8.860502 4.506185,-11.635983 -0.184691,-0.552095 -0.587635,-0.812274 -1.126546,-0.821655 z m -59.7048827,8.55245 c -0.944899,0 -1.3042734,1.658225 -0.8976196,4.143416 0.4957581,3.029745 1.7519826,5.361464 3.6095988,6.700366 1.7741792,1.278763 2.7755535,1.372022 3.6803955,0.343648 0.813705,-0.924794 0.8752,-3.284041 0.128674,-4.924764 C 10.295992,40.147296 6.5776677,36.576108 4.9995673,36.576108 Z M 21.395982,37.48613 c -0.911759,-0.02563 -2.368173,0.978342 -4.335653,3.001884 -3.245753,3.33823 -4.267584,6.739504 -2.295467,7.641394 2.110915,0.965345 4.364126,-0.028 5.772775,-2.544548 1.184716,-2.116495 2.098651,-5.203953 1.953369,-6.59753 -0.102621,-0.984301 -0.471188,-1.483661 -1.095024,-1.5012 z m 138.496458,2.528527 c -0.65615,-0.0049 -1.17435,0.339346 -1.50586,1.043348 -0.76045,1.614872 1.46684,6.220587 3.91501,8.095629 1.20085,0.919749 2.94059,1.11451 3.56929,0.399976 1.15123,-1.308401 0.0135,-4.819957 -2.3704,-7.317383 -1.39566,-1.462118 -2.64906,-2.214476 -3.60804,-2.22157 z m -41.25898,0.0083 c -3.74203,-0.252399 -10.24218,7.246245 -11.43807,13.583667 -0.36415,1.929897 -0.0456,3.718914 0.76637,4.30568 1.77499,1.282723 6.93219,-2.135387 9.41854,-6.242513 1.27217,-2.101485 3.01422,-8.02063 2.88355,-9.797335 -0.0787,-1.070475 -0.27823,-1.437768 -0.92088,-1.69292 -0.22256,-0.08836 -0.46005,-0.139753 -0.70951,-0.156579 z m 55.85912,0.05839 c -1.84204,-0.01225 -4.83882,1.87997 -5.98,4.32015 -0.66895,1.430391 -0.79636,3.755561 -0.26768,4.878255 1.53906,3.268393 8.75597,-4.444051 7.69927,-8.227922 -0.18692,-0.66932 -0.73079,-0.96569 -1.45159,-0.970483 z M 94.318146,40.73247 c -0.583989,0.03263 -1.025688,0.269876 -1.249019,0.744141 -0.690262,1.465853 -0.205986,4.867477 1.130163,7.940084 1.433509,3.296482 4.788154,7.413034 7.09311,8.703861 2.28841,1.281596 3.41092,0.571702 3.8039,-2.406571 0.47386,-3.591284 -0.75704,-7.098684 -3.73621,-10.648446 -2.257747,-2.689733 -5.289975,-4.430947 -7.041944,-4.333069 z m -48.033244,1.078487 c -1.91882,-0.08918 -2.710268,2.119994 -1.299145,6.019271 0.919948,2.542049 2.481927,4.86554 4.249869,6.321061 1.45188,1.195337 3.168426,1.413584 3.843694,0.488859 0.233741,-0.320085 0.489304,-1.463173 0.567924,-2.540413 0.194826,-2.670139 -0.819565,-5.278306 -2.923336,-7.514787 -1.730542,-1.839718 -3.287714,-2.72048 -4.439006,-2.773991 z m 18.724439,0.136426 c -0.465166,-0.01182 -1.448079,0.31089 -2.425175,0.809253 -2.185571,1.11473 -4.28136,3.42056 -5.077727,5.586739 -0.687341,1.869644 -0.66667,5.312558 0.03721,6.196521 0.762549,0.957648 2.367237,0.850841 3.79615,-0.252698 3.451952,-2.665896 6.192576,-11.463383 3.835942,-12.31346 -0.04378,-0.01579 -0.09995,-0.02467 -0.166398,-0.02636 z m -60.0361287,6.72671 c -0.1029612,0.005 -0.196913,0.025 -0.280603,0.0615 -1.9969942,0.870939 0.1614646,8.134777 3.1481283,10.593669 1.5163408,1.248388 2.7153674,1.413709 3.6070154,0.49661 0.814907,-0.838141 0.776187,-3.122817 -0.08578,-5.043103 C 10.086079,51.940374 6.5176337,48.59939 4.9732153,48.674098 Z m 15.5721757,0.138493 c -0.04901,-0.0018 -0.09823,0.0018 -0.148311,0.01189 -1.907979,0.384441 -6.30432,6.342026 -6.61355,8.962243 -0.142094,1.204005 -0.04519,1.534353 0.597379,2.04587 1.529129,1.217268 4.188431,0.610548 5.771741,-1.316715 0.798154,-0.971559 1.741661,-4.581281 1.734261,-6.635254 -0.0063,-1.705077 -0.606323,-3.040725 -1.34152,-3.06803 z m 139.371852,1.665015 c -0.14263,0.0015 -0.28063,0.02178 -0.41444,0.05994 -0.68961,0.196702 -0.78519,0.438195 -0.78497,1.987993 4.9e-4,3.283629 2.3938,7.612068 5.08548,9.197371 1.29231,0.761086 1.71114,0.734096 2.12132,-0.136942 0.96089,-2.040567 -0.0141,-5.571405 -2.32544,-8.421192 -1.46694,-1.808718 -2.68353,-2.697808 -3.68195,-2.687174 z m 14.99288,0.02584 c -1.3657,-0.07875 -3.79461,2.201316 -5.74642,5.615678 -1.33094,2.328221 -1.69509,4.797345 -0.84956,5.758305 1.36927,1.556212 5.97631,-3.13231 7.3148,-7.44399 0.59337,-1.911293 0.60084,-2.608244 0.0377,-3.483509 -0.183,-0.284438 -0.44138,-0.42831 -0.75655,-0.446484 z M 45.722663,55.58995 c -0.538145,0.01263 -0.952603,0.245242 -1.179257,0.726571 -0.576467,1.224189 -0.384677,2.431674 0.820105,5.168677 1.414179,3.212692 3.614418,6.07033 5.483903,7.122045 1.740993,0.979447 2.605944,0.99181 3.357418,0.04806 1.258865,-1.580934 -0.08296,-5.751138 -3.003951,-9.336897 -1.92011,-2.357099 -4.102959,-3.760729 -5.478218,-3.728455 z m 18.268652,0.0052 c -4.357736,0 -8.784813,8.002579 -6.818189,12.324829 1.027492,2.258215 3.650183,0.932678 6.204273,-3.135209 3.474298,-5.533499 3.718763,-9.18962 0.613916,-9.18962 z m 54.799755,2.113566 c -1.02029,-0.02184 -2.83068,0.681926 -4.58835,1.83348 -3.19408,2.092635 -6.67442,8.347227 -6.93653,12.465389 -0.12443,1.955213 -0.0514,2.280413 0.70435,3.139343 1.58216,1.798158 4.28822,0.891636 7.08742,-2.374532 3.52294,-4.110649 6.29241,-13.719326 4.3031,-14.929321 -0.14093,-0.08573 -0.33454,-0.129319 -0.56999,-0.134359 z m -24.13496,0.173633 c -0.405597,0.0063 -0.732525,0.189491 -1.16117,0.530717 -0.600682,0.478155 -0.729671,0.93613 -0.729671,2.59674 0,4.299896 3.37306,10.518441 7.218681,13.308749 3.07676,2.232436 5.12988,0.579536 4.81159,-3.873666 -0.097,-1.356902 -0.48727,-2.826498 -1.08675,-4.091223 -1.30969,-2.763037 -4.572634,-6.445483 -6.715872,-7.579382 -1.164211,-0.615945 -1.815327,-0.900011 -2.336808,-0.891935 z m 44.22469,0.322977 c -0.80511,0 -1.23919,2.174003 -1.56425,7.831564 -0.18265,3.179104 -0.40191,5.863956 -0.48731,5.966561 -0.15775,0.189429 -0.42259,-0.161473 -2.7373,-3.629753 -1.47326,-2.207462 -2.76763,-2.868304 -3.47265,-1.772502 -0.80305,1.248163 0.49429,4.743318 3.19929,8.619112 2.13144,3.053998 3.12937,5.056566 3.22202,6.757211 -5.90722,1.477792 -10.7179,2.662452 -11.04894,2.719214 -0.3638,0.06238 -2.14974,0.669654 -3.96875,1.349271 -1.81901,0.679617 -5.45041,1.920041 -8.06979,2.756421 -1.9141,0.611183 -3.89144,1.284624 -5.91798,2.014864 -0.0564,-1.041339 -0.112,-2.124413 -0.16123,-3.151745 -0.28526,-5.952754 -0.63455,-7.831047 -1.45676,-7.831047 -1.02794,0 -1.84992,4.579973 -2.25568,12.424048 -11.791674,4.521257 -24.900992,10.732435 -36.907305,17.544145 -18.69168,10.60462 -34.702492,21.77588 -53.511979,37.33674 l -6.0192707,4.97954 0.0093,7.67292 c 0.00874,7.18248 0.2590454,12.62675 0.6671427,14.50092 0.096728,0.44422 0.2550685,0.80771 0.3519165,0.80771 0.2416952,0 3.3159235,-2.75489 5.0870275,-4.5589 0.800064,-0.81493 3.694939,-3.87089 6.433199,-6.7908 8.85989,-9.44764 15.681081,-15.9285 25.852686,-24.56336 6.197405,-5.2611 9.559856,-7.93786 15.176851,-12.08195 18.871527,-13.92296 38.751912,-25.26916 59.531252,-33.9757 13.61897,-5.706346 24.70669,-9.331538 40.37221,-13.200745 8.65482,-2.137644 12.05581,-3.129621 13.68547,-3.990971 0.70015,-0.370082 0.86015,-0.588536 0.79375,-1.084688 -0.058,-0.43395 -0.25502,-0.642551 -0.65319,-0.691431 -0.28635,-0.03516 -2.74363,0.331265 -5.64462,0.837158 l -0.0822,-1.623673 c -0.18004,-3.563475 -0.74557,-7.202126 -1.23714,-7.958688 -1.04475,-1.607952 -1.71986,1.358322 -1.77456,7.798491 -0.008,0.907679 0.006,1.731936 0.0351,2.324923 -2.6437,0.464256 -5.27882,0.914775 -6.46886,1.104325 -3.54444,0.564556 -6.36039,1.210361 -19.61947,4.532023 0.0467,-1.828735 0.42086,-3.677471 1.0082,-4.72581 0.31474,-0.561791 1.2951,-2.141125 2.17816,-3.509346 1.64738,-2.552478 3.1301,-6.098313 3.144,-7.517371 0.009,-0.949369 -0.78962,-1.391712 -1.61127,-0.891935 -1.02717,0.624764 -2.7111,3.073352 -3.38998,4.929932 -0.36106,0.987386 -0.77499,1.795239 -0.92035,1.795239 -0.34022,0 -0.56713,-2.152946 -0.76585,-7.271391 -0.17506,-4.508862 -0.39526,-5.780526 -1.00097,-5.780526 z M 13.30397,63.49231 c -0.674181,0.01871 -0.927592,2.261982 -0.927592,7.969023 v 5.974829 c -2.019041,-0.08802 -2.8362059,-0.05357 -3.3300293,0.0739 -1.2175198,0.314274 -1.5439408,0.953803 -1.1632364,2.280998 0.3332212,1.161661 1.3041406,1.497867 6.3251947,2.191081 8.292051,1.144811 16.283189,2.583324 27.248983,4.905127 10.539724,2.23159 18.036024,4.133795 28.045833,7.117395 4.802188,1.431377 9.147969,2.703392 9.657292,2.8267 0.526438,0.12745 1.344985,0.145525 1.897042,0.04186 2.267279,-0.425761 9.480041,-3.521607 9.480041,-4.069002 0,-0.89535 -20.686461,-7.085355 -26.722916,-7.996411 -1.81901,-0.274536 -3.366824,-0.569507 -3.439584,-0.655257 -0.05524,-0.0651 -1.432268,-0.355835 -3.555855,-0.768429 -0.05602,-0.792824 -0.110939,-1.653654 -0.160197,-2.529044 -0.192667,-3.424094 -0.504779,-6.03215 -0.825789,-6.898804 -0.482575,-1.302793 -0.545534,-1.348316 -0.9679,-0.699182 -0.488205,0.750334 -0.693306,2.459019 -0.991671,8.25531 -0.02216,0.430417 -0.04708,0.867896 -0.07338,1.296562 -7.72115,-1.447682 -19.744984,-3.562857 -21.835877,-3.779098 -0.695263,-0.07191 -1.761277,-0.228514 -2.368331,-0.347782 -0.607053,-0.119268 -5.241646,-0.492926 -10.299629,-0.830441 -1.7022,-0.113586 -3.11445,-0.204547 -4.290694,-0.274918 0.0087,-0.999869 -0.023,-2.915162 -0.0894,-5.107182 -0.175901,-5.808709 -0.641782,-8.642648 -1.471745,-8.951908 -0.04873,-0.01816 -0.09561,-0.02657 -0.140559,-0.02532 z m 161.26302,16.319934 c -1.01305,-0.01897 -2.82469,0.380118 -5.80016,1.237651 -4.65864,1.342627 -11.0751,3.381418 -16.24604,5.161959 -20.44548,7.040119 -41.52754,17.720236 -59.989615,30.390916 -21.605819,14.82827 -41.391751,33.13904 -56.559855,52.34305 -3.839287,4.86084 -4.856299,6.38666 -4.413684,6.62234 0.191921,0.10219 1.188117,0.24446 2.213818,0.31626 1.0257,0.0717 2.281721,0.1648 2.791044,0.2067 0.509323,0.0419 4.508739,0.0926 8.88783,0.11266 l 7.961788,0.0367 3.799768,-5.07204 c 7.533075,-10.05506 13.291063,-16.99431 20.663855,-24.90391 19.746142,-21.18387 41.618141,-37.96419 65.710711,-50.413978 7.10583,-3.671922 10.93044,-5.384738 23.8125,-10.664466 3.89153,-1.594949 7.10518,-3.20949 7.90598,-3.97185 0.3068,-0.291898 0.4139,-0.620667 0.30179,-0.925008 -0.11181,-0.303511 -0.4319,-0.465594 -1.03973,-0.476974 z M 8.9874376,85.971558 c -0.5603243,0 -0.8135677,0.146911 -1.0066569,0.584461 -0.3712095,0.841179 -0.3176131,2.270358 0.1188558,3.170349 0.4698946,0.968913 1.4786716,1.422212 5.3118205,2.386934 12.127113,3.052135 30.646578,9.026158 38.29637,12.353768 1.201665,0.52271 3.435036,1.44594 4.963005,2.05156 1.527969,0.60562 2.897187,1.102 3.042708,1.10277 1.109001,0.006 10.715625,-4.68864 10.715625,-5.23637 0,-1.5827 -25.374055,-9.232618 -43.788542,-13.201782 -5.352226,-1.15365 -16.6642635,-3.21169 -17.6531854,-3.21169 z M 174.7923,86.448532 c -1.09019,0.03702 -3.62871,1.250562 -9.76994,4.418335 -24.83651,12.811183 -46.56797,30.027213 -64.30409,50.943663 -8.42065,9.93062 -23.145355,31.05716 -23.145355,33.20779 0,0.67263 0.310866,0.8124 2.229321,1.00149 0.883754,0.0871 5.423514,0.17204 10.088273,0.18914 l 8.481653,0.0315 2.606048,-4.84415 c 13.48988,-25.0727 29.4553,-45.28502 49.20888,-62.29801 5.93144,-5.10852 8.38436,-7.01476 15.22749,-11.837518 8.64757,-6.094455 10.68587,-8.140599 10.16889,-10.206613 -0.0992,-0.396369 -0.29563,-0.622473 -0.79117,-0.605647 z m 0.80874,9.322945 -5.36763,4.997113 c -6.284,5.85043 -9.97655,9.51972 -13.57489,13.49065 -14.46148,15.95889 -25.85548,34.42396 -35.3999,57.36859 -1.3477,3.23984 -1.53071,3.91682 -1.15394,4.26279 0.16651,0.1529 20.94833,-0.0123 21.1274,-0.16795 0.0331,-0.0288 1.27142,-3.95001 2.75228,-8.7142 7.4451,-23.95227 12.6728,-35.00242 24.96385,-52.77093 6.1486,-8.8887 6.85956,-10.54097 6.72673,-15.633162 z M 9.0081082,97.404969 c -0.054989,-4.5e-4 -0.1046565,0.0013 -0.1483114,0.0057 -0.8660182,0.08705 -1.0730985,0.59059 -1.1105265,2.695441 -0.064482,3.62629 0.3402435,3.94138 11.4830197,8.94881 7.252819,3.25934 12.16473,5.67991 15.696716,7.73441 1.502834,0.87418 3.229241,1.78353 3.836459,2.02106 0.607218,0.23752 1.302549,0.43419 1.545125,0.43719 1.07858,0.0122 6.95224,-3.12794 9.042859,-4.83434 1.279726,-1.04455 1.222151,-1.12676 -1.894975,-2.71301 C 38.122333,106.94926 12.472384,97.433302 9.0081082,97.404969 Z M 8.4153795,113.21796 c -0.1052128,0.003 -0.1825334,0.0329 -0.2439128,0.0858 -0.2217084,0.19098 -0.3162597,1.4804 -0.3162597,4.30723 0,5.4655 0.1165518,5.67252 5.534029,9.81129 3.697473,2.82475 5.420283,4.04913 6.89622,4.89996 0.579483,0.33404 1.184552,0.6072 1.344104,0.6072 0.63765,0 4.110802,-2.29489 8.672855,-5.73092 l 1.015959,-0.76584 -4.190959,-2.65721 c -4.633506,-2.93794 -13.701346,-8.23709 -16.70699,-9.76322 -1.1245026,-0.57096 -1.6894072,-0.80312 -2.0050455,-0.79427 z" /></g></svg>
