<?xml version="1.0" encoding="UTF-8" standalone="no"?>
<!-- Created with Inkscape (http://www.inkscape.org/) -->

<svg
   width="180mm"
   height="180mm"
   viewBox="0 0 180 180"
   version="1.1"
   id="svg1"
   sodipodi:docname="place_distillery.svg"
   inkscape:version="1.4.2 (f4327f4, 2025-05-13)"
   xml:space="preserve"
   xmlns:inkscape="http://www.inkscape.org/namespaces/inkscape"
   xmlns:sodipodi="http://sodipodi.sourceforge.net/DTD/sodipodi-0.dtd"
   xmlns="http://www.w3.org/2000/svg"
   xmlns:svg="http://www.w3.org/2000/svg"><sodipodi:namedview
     id="namedview1"
     pagecolor="#505050"
     bordercolor="#ffffff"
     borderopacity="1"
     inkscape:showpageshadow="0"
     inkscape:pageopacity="0"
     inkscape:pagecheckerboard="1"
     inkscape:deskcolor="#505050"
     inkscape:document-units="mm"
     inkscape:zoom="1"
     inkscape:cx="73"
     inkscape:cy="204"
     inkscape:window-width="2560"
     inkscape:window-height="1351"
     inkscape:window-x="-9"
     inkscape:window-y="-9"
     inkscape:window-maximized="1"
     inkscape:current-layer="layer1"
     showguides="true" /><defs
     id="defs1"><rect
       x="101.82338"
       y="91.923881"
       width="384.66609"
       height="299.81327"
       id="rect3" /><rect
       x="2.8284271"
       y="2.1213203"
       width="662.55905"
       height="647.0027"
       id="rect2" /></defs><g
     inkscape:label="Icon"
     inkscape:groupmode="layer"
     id="layer1"><path
       style="fill:#000000;stroke-width:4.28862"
       d="m 130.15115,177.28175 c -9.79975,-2.55906 -9.28261,-0.71532 -9.28261,-33.0971 v -28.64462 l 3.8391,-1.64497 c 2.11147,-0.90473 6.64955,-1.98367 10.08454,-2.39768 5.01901,-0.60494 6.24546,-0.42909 6.24546,0.89568 0,1.13394 -2.30565,2.05343 -7.38738,2.94607 -8.08127,1.41952 -9.3046,2.04544 -7.53817,3.85687 3.32398,3.40872 28.38806,4.04652 38.87062,0.98914 5.75312,-1.67798 4.09907,-3.18575 -5.30763,-4.83811 -4.68779,-0.82346 -7.4324,-1.85586 -7.4324,-2.7958 0,-1.80783 3.63823,-1.89795 11.02655,-0.27318 10.16197,2.23493 9.68303,0.72015 9.84907,31.15132 0.0831,15.24207 -0.31846,27.71799 -0.93058,28.9166 -0.59222,1.15947 -2.92709,2.91358 -5.18854,3.89795 -5.60958,2.44185 -28.95356,3.09925 -36.84803,1.0377 z m -1.43909,-28.87604 c 0,-13.40579 -0.41376,-21.25772 -1.12049,-21.25772 -0.70513,0 -1.12054,7.59659 -1.12054,20.49167 0,18.02084 0.33923,22.02378 1.86755,22.02378 0.2054,0 0.37352,-9.566 0.37352,-21.25773 z m -118.524755,11.85732 0.311272,-16.45358 38.937575,-0.30226 38.937574,-0.30227 0.0043,5.47296 c 0.0032,3.01012 0.331176,10.51445 0.729264,16.67632 l 0.723421,11.20341 H 86.43832 c -3.372656,0 -3.406959,-0.0652 -5.901195,-11.20341 -1.379842,-6.16187 -2.972408,-12.10825 -3.539048,-13.21427 -0.937413,-1.82963 -3.446387,-2.01085 -27.839802,-2.01085 H 22.348734 l -1.104992,4.309 c -0.607762,2.36994 -2.042321,8.18711 -3.187883,12.92698 -1.908325,7.89593 -2.338389,8.64872 -5.132206,8.9847 l -3.0493138,0.36654 z m 26.304409,10.96798 c -0.429893,-0.44085 -0.78165,-2.00804 -0.78165,-3.48268 0,-2.66069 0.103333,-2.68115 13.520521,-2.68115 h 13.520479 l -0.354468,3.15991 -0.354467,3.15996 -12.384319,0.32268 c -6.811377,0.17763 -12.736032,-0.0391 -13.165925,-0.47881 z m -8.115877,-12.43146 c -1.512694,-1.55125 -2.750326,-3.36103 -2.750326,-4.02177 0,-0.79753 7.908492,-1.2013 23.530623,-1.2013 25.263282,0 26.384705,0.29706 20.937289,5.54505 -2.442781,2.35335 -3.649496,2.49845 -20.780298,2.49845 -17.815599,0 -18.24312,-0.0578 -20.937288,-2.82043 z M 10.433061,138.30314 c -0.305765,-0.81655 -0.415876,-9.47761 -0.244782,-19.2469 l 0.310424,-17.76227 38.937574,-0.30226 38.937577,-0.30228 v 19.54905 19.54899 H 49.681229 c -30.591058,0 -38.808916,-0.31095 -39.248126,-1.48455 z m 9.589906,-18.04955 c 0,-11.4907 -0.279932,-13.7888 -1.680736,-13.7888 -1.400638,0 -1.680781,2.2981 -1.680781,13.7888 0,11.49065 0.279932,13.78879 1.680781,13.78879 1.400636,0 1.680736,-2.29814 1.680736,-13.78879 z M 144.39916,100.37471 c 0,-14.081038 0.68975,-16.89126 4.14583,-16.89126 1.12329,0 1.45667,3.5503 1.45667,15.512376 v 15.512414 h -2.80127 -2.80123 z M 11.058948,96.751747 c 0,-0.286198 0.592729,-1.854517 1.317165,-3.484982 1.139635,-2.565064 1.009451,-3.185582 -0.966084,-4.60459 C 10.15423,87.760149 8.4836987,85.430081 7.6977282,83.484232 6.4031787,80.27928 6.5124837,79.680131 8.8591299,77.118585 12.383143,73.271836 16.599408,73.473868 20.526888,77.67778 l 3.16421,3.386919 5.182051,-2.692876 c 4.795484,-2.492015 6.393174,-2.677675 21.416478,-2.488844 14.20752,0.178494 16.803819,0.512117 20.795375,2.671335 l 4.561034,2.467261 3.097381,-3.365336 c 3.595586,-3.906638 8.331102,-4.444075 11.13754,-1.264009 2.771754,3.140849 2.251655,6.860611 -1.496685,10.704494 -3.226041,3.308268 -3.287702,3.562286 -1.651983,6.80602 l 1.699118,3.369503 H 49.745178 c -21.277443,0 -38.68623,-0.234083 -38.68623,-0.5205 z m 16.971398,-8.327911 c 5.851306,-4.310922 5.97412,-6.479953 0.192269,-3.395779 -3.778496,2.015551 -9.137738,7.647896 -7.277056,7.647896 0.722276,0 3.910413,-1.913451 7.084744,-4.252117 z m -9.65233,-7.19797 c -1.135144,-1.286289 -3.010014,-2.33871 -4.166377,-2.33871 -3.303879,0 -3.725726,3.248119 -0.83213,6.406731 2.599474,2.837539 2.608071,2.838538 4.833258,0.556633 2.168353,-2.223623 2.172843,-2.349741 0.165164,-4.624654 z m 68.781582,-0.730958 c -1.677476,-2.072706 -2.725296,-2.025238 -6.154403,0.278815 l -2.807837,1.886656 2.556788,2.790896 2.556743,2.790939 2.574912,-3.069842 c 2.018223,-2.406113 2.293625,-3.417407 1.273797,-4.677551 z m 24.093492,6.349447 c -4.20148,-1.251024 -7.52293,-4.786818 -7.01025,-7.462627 0.85416,-4.457929 6.19705,-6.794163 16.4832,-7.20748 9.67358,-0.388693 19.19107,1.224488 19.19107,3.252897 0,2.269136 -3.73818,3.075835 -9.35559,2.018897 -5.95303,-1.120084 -16.52918,-0.400418 -19.54458,1.330239 -3.17411,1.821641 3.15486,3.935257 12.08787,4.036925 14.43665,0.164164 23.73857,-5.586351 21.80632,-13.481187 -0.42223,-1.724447 -0.0127,-3.227057 1.14424,-4.212771 2.60736,-2.219063 4.45563,0.148094 4.45563,5.70652 0,7.26446 -6.23708,14.164114 -14.60238,16.153739 -5.50634,1.309611 -20.07158,1.229787 -24.65553,-0.135065 z M 34.216046,72.375803 c -0.410792,-0.421264 -0.747008,-1.714023 -0.747008,-2.872674 0,-1.942461 1.222385,-2.106624 15.687096,-2.106624 h 15.687097 v 2.872673 2.872675 H 49.903143 c -8.217053,0 -15.276218,-0.344829 -15.687097,-0.76605 z m 77.155244,-5.383885 c -5.63371,-1.741428 -8.62992,-6.346712 -6.13564,-9.4308 2.78548,-3.444288 8.49944,-5.102723 17.55778,-5.096034 8.86533,0.0087 17.12368,1.624081 17.12368,3.354087 0,2.688533 -3.1867,3.507696 -9.08117,2.334367 -6.10375,-1.214978 -17.26784,-0.565015 -19.99623,1.164165 -2.96276,1.877752 3.60736,3.827857 12.79034,3.796372 11.00206,-0.03909 17.85316,-2.536749 20.30961,-7.408081 0.9325,-1.849218 1.3757,-4.395303 0.98489,-5.658054 -0.70746,-2.285813 1.07573,-5.632735 3.00103,-5.632735 2.04279,0 3.25192,5.863562 2.10776,10.221039 -2.37134,9.030902 -11.77893,13.98197 -26.26151,13.821022 -4.37008,-0.04864 -9.95031,-0.707984 -12.40054,-1.465348 z M 30.713462,57.152927 c -4.189415,-8.988688 -3.608502,-15.264002 1.84603,-19.942032 9.477086,-8.127877 10.793615,-9.682515 11.902376,-14.055366 0.640709,-2.52689 1.706402,-6.720898 2.368201,-9.32001 1.507612,-5.9208453 5.816538,-10.4243315 11.466894,-11.9846155 3.933198,-1.08607944 8.048754,-0.1867458 42.149087,9.2123935 20.78466,5.728757 39.96215,11.447568 42.61655,12.708406 11.74958,5.580967 8.99404,19.371546 -4.70421,23.543189 -11.62851,3.541311 -29.5405,1.501611 -32.89317,-3.745645 -2.24153,-3.508262 -1.09652,-5.816398 4.28216,-8.632049 8.6583,-4.53254 37.54558,-0.930341 29.21296,3.642806 -1.47386,0.808914 -4.01252,0.773128 -8.15505,-0.115088 -8.37103,-1.794498 -23.55069,0.415618 -20.97764,3.054294 0.36292,0.371754 3.75168,1.18701 7.53097,1.811175 8.32802,1.375362 19.57592,-0.201512 23.6662,-3.318301 3.83494,-2.922096 4.27262,-7.58588 0.92084,-9.813281 C 138.4095,27.848844 67.422292,8.7939434 62.203947,8.7939434 c -4.901146,0 -9.700525,4.1123186 -9.661691,8.2785326 0.05039,5.419888 4.202713,12.220827 10.12487,16.58395 5.574254,4.10676 8.900241,9.295429 8.89825,13.881606 -4.67e-4,1.126294 -1.491772,5.279524 -3.313916,9.22946 l -3.31307,7.181641 H 49.409768 33.881102 Z m 6.607971,-3.27739 C 35.371138,50.041642 35.224565,43.074586 37.054628,41.19779 c 0.876048,-0.898335 0.923862,-1.378879 0.137213,-1.378879 -4.044154,0 -5.470071,10.308548 -2.145653,15.511593 2.45324,3.839496 4.351106,2.625822 2.275202,-1.454967 z"
       id="path1" /></g></svg>
