<?xml version="1.0" encoding="UTF-8" standalone="no"?>
<!-- Created with Inkscape (http://www.inkscape.org/) -->

<svg
   width="180mm"
   height="180mm"
   viewBox="0 0 180 180"
   version="1.1"
   id="svg1"
   sodipodi:docname="place_sawmill.svg"
   inkscape:version="1.4.2 (f4327f4, 2025-05-13)"
   xml:space="preserve"
   xmlns:inkscape="http://www.inkscape.org/namespaces/inkscape"
   xmlns:sodipodi="http://sodipodi.sourceforge.net/DTD/sodipodi-0.dtd"
   xmlns="http://www.w3.org/2000/svg"
   xmlns:svg="http://www.w3.org/2000/svg"><sodipodi:namedview
     id="namedview1"
     pagecolor="#505050"
     bordercolor="#ffffff"
     borderopacity="1"
     inkscape:showpageshadow="0"
     inkscape:pageopacity="0"
     inkscape:pagecheckerboard="1"
     inkscape:deskcolor="#505050"
     inkscape:document-units="mm"
     inkscape:zoom="1"
     inkscape:cx="89"
     inkscape:cy="344"
     inkscape:window-width="2560"
     inkscape:window-height="1351"
     inkscape:window-x="-9"
     inkscape:window-y="-9"
     inkscape:window-maximized="1"
     inkscape:current-layer="layer1"
     showguides="true" /><defs
     id="defs1"><rect
       x="101.82338"
       y="91.923881"
       width="384.66609"
       height="299.81327"
       id="rect3" /><rect
       x="2.8284271"
       y="2.1213203"
       width="662.55905"
       height="647.0027"
       id="rect2" /></defs><g
     inkscape:label="Icon"
     inkscape:groupmode="layer"
     id="layer1"><path
       style="fill:#000000;stroke-width:4.22706"
       d="m 61.730962,172.41121 c -5.743552,-1.37344 -11.617612,-2.5322 -13.053489,-2.57498 -2.176444,-0.0648 -2.610733,-0.68443 -2.610733,-3.72475 v -3.647 l 4.351178,1.38035 c 2.393172,0.7592 8.658852,2.27467 13.923733,3.36768 9.160063,1.90169 9.572556,2.11551 9.572556,4.9617 0,1.63588 -0.391619,2.92033 -0.870201,2.85429 -0.478625,-0.066 -5.569493,-1.2438 -11.313044,-2.61729 z m 15.670537,-0.76623 c 0.0044,-2.11531 6.245421,-5.33023 48.789771,-25.13731 44.13335,-20.54688 48.75033,-22.4667 48.43664,-20.14062 -0.29425,2.18165 -4.65359,4.62556 -28.7744,16.13123 -36.52962,17.42477 -66.898429,31.57225 -67.772488,31.57225 -0.377148,0 -0.682987,-1.0915 -0.679523,-2.42555 z m -49.319574,-7.16604 c -10.27747,-2.50197 -11.64774,-3.11676 -11.993663,-5.38104 -0.335485,-2.19469 -0.0088,-2.47105 2.320636,-1.95351 23.718982,5.2735 24.176908,5.42462 24.176908,7.97746 0,2.93886 0.255671,2.9502 -14.503881,-0.64291 z m 31.908548,-1.14133 c -10.856127,-2.65725 -11.806141,-3.07671 -8.721344,-3.8508 2.226482,-0.55869 6.988311,-0.2078 13.343586,0.98344 l 9.881683,1.85215 36.549762,-15.80475 c 40.08651,-17.33403 57.96081,-24.60242 58.73439,-23.88369 0.79911,0.74243 -93.479153,43.90191 -95.651431,43.78807 -1.074342,-0.0563 -7.435843,-1.44429 -14.136646,-3.08442 z m -28.21957,-5.97065 c -5.629135,-1.37168 -10.496259,-2.7369 -10.815868,-3.0338 -1.921914,-1.78562 7.718046,-1.40478 18.149838,0.71706 10.720793,2.18062 11.879028,2.62983 9.648862,3.74206 -3.325119,1.65833 -4.855151,1.5299 -16.982832,-1.42532 z m 33.440992,-0.086 c -3.829048,-0.75621 -9.050426,-1.79493 -11.603097,-2.30827 -3.515533,-0.707 -4.731174,-1.51104 -5.012017,-3.31503 -0.452796,-2.90839 -0.4153,-2.90889 12.856408,-0.16624 11.637873,2.40522 12.56846,2.84693 11.459079,5.43887 -0.655578,1.53164 -1.520253,1.571 -7.700373,0.3504 z m 10.263042,-1.04426 c -0.378024,-0.91496 -0.486563,-1.84987 -0.241637,-2.07755 0.685135,-0.63659 49.32136,-21.40026 83.38346,-35.59793 6.7008,-2.79297 12.67929,-5.51418 13.28557,-6.04708 2.09681,-1.84306 4.2914,-1.03967 3.90969,1.4313 -0.29732,1.92467 -3.12943,3.54975 -14.29447,8.20232 -7.65805,3.19117 -24.10548,10.18078 -36.54982,15.5325 -26.022463,11.19104 -47.595613,20.21994 -48.31228,20.21994 -0.271457,0 -0.802796,-0.74859 -1.180688,-1.6635 z m -32.889131,-4.80464 c 0,-1.18582 -0.522128,-2.15606 -1.160296,-2.15606 -0.638167,0 -1.160297,0.76037 -1.160297,1.68971 0,1.15664 -0.680749,1.48894 -2.158024,1.05331 -2.468164,-0.72781 -17.704324,-3.77405 -19.017672,-3.80229 -0.478625,-0.008 -0.870244,-1.23148 -0.870244,-2.7138 0,-1.48227 0.391619,-2.68255 0.870244,-2.66728 0.478626,0.0164 6.613795,1.37769 13.633681,3.02749 11.046718,2.59627 12.8133,3.31752 13.134181,5.36235 0.2469,1.57427 -0.236813,2.36263 -1.450392,2.36263 -1.047635,0 -1.821181,-0.91581 -1.821181,-2.15606 z m 19.435252,-2.48808 c -6.222176,-1.17764 -11.313044,-2.50231 -11.313044,-2.94373 0,-1.72474 6.548188,-2.18617 13.840717,-0.97537 l 7.651607,1.27045 17.971519,-7.29093 c 9.884363,-4.01005 24.237203,-9.8138 31.895253,-12.89728 7.65806,-3.08348 20.01519,-8.13632 27.46024,-11.22852 10.85867,-4.51001 14.53121,-5.55574 18.56496,-5.28631 l 5.02851,0.33573 -5.80157,2.54163 c -3.19084,1.39789 -9.19545,3.87208 -13.34354,5.49818 -9.7956,3.84004 -37.89457,15.62077 -59.175866,24.80997 -9.253514,3.99561 -17.868814,7.49929 -19.145149,7.78592 -1.276334,0.28644 -7.411504,-0.44232 -13.633637,-1.61991 z m -31.479961,-6.5199 c -8.607367,-2.2364 -8.970217,-2.44941 -6.18297,-3.62929 2.410888,-1.02055 5.29172,-0.76418 15.504549,1.37982 6.898891,1.44832 12.814043,2.64075 13.144793,2.64983 0.330661,0.008 -0.181995,0.48673 -1.139159,1.06151 -2.808076,1.68603 -11.506749,1.08978 -21.327213,-1.46187 z M 62.31111,141.2408 c -3.62438,-0.85454 -5.221377,-1.79231 -5.221377,-3.06605 0,-2.20699 0.346448,-2.27397 6.981162,-1.34961 4.040908,0.56301 5.202082,1.17711 5.202082,2.75113 0,2.83147 -0.999088,3.07036 -6.961867,1.66453 z m 9.470463,-0.62213 c 0.325837,-2.07216 3.011211,-3.54646 15.914893,-8.73788 8.537503,-3.43484 17.411144,-6.82418 19.719244,-7.53191 2.30809,-0.70773 8.6374,-3.20131 14.06521,-5.54133 12.76194,-5.50188 50.01562,-19.37193 50.59226,-18.836148 1.45732,1.353928 -4.29968,4.624088 -18.09747,10.279958 -22.13282,9.07251 -64.489421,25.93813 -81.033797,32.26623 -1.087059,0.41576 -1.434911,-0.15361 -1.16034,-1.89892 z M 46.936984,138.1869 c -4.816822,-0.876 -5.511474,-1.34183 -5.511474,-3.69612 0,-2.01747 0.4624,-2.5289 1.841923,-2.03707 1.013034,0.36098 3.884788,0.96017 6.381675,1.33111 3.34345,0.49675 4.539839,1.1896 4.539839,2.62913 0,2.69862 -0.922256,2.92409 -7.251963,1.77295 z m -15.660451,-2.6267 c -2.850834,-0.3288 -3.943245,-1.08583 -4.490547,-3.11175 -0.397758,-1.47245 -0.509148,-2.87609 -0.247338,-3.11917 0.261811,-0.24324 2.804483,0.19435 5.650844,0.97191 3.793921,1.0365 5.274047,2.03102 5.5459,3.72622 0.228919,1.4275 -0.215324,2.24634 -1.160341,2.13984 -0.84209,-0.0949 -3.226359,-0.36791 -5.298343,-0.60705 z m 37.416296,-0.80584 c -0.638167,-0.21023 -2.670156,-0.6935 -4.5155,-1.07422 -2.954857,-0.60957 -1.501088,-1.40033 12.183245,-6.6272 8.54619,-3.2643 18.290255,-6.9472 21.653526,-8.18424 3.36323,-1.23706 5.88471,-2.46317 5.60322,-2.72467 -0.28155,-0.26158 -10.343254,3.06176 -22.359408,7.38512 -17.8554,6.4243 -22.978238,7.84353 -28.035206,7.76701 -7.23258,-0.10952 -10.425566,-1.96961 -5.394602,-3.14276 4.400907,-1.02623 30.48938,-11.14861 28.833091,-11.18732 -0.722763,-0.0164 -9.476515,2.65803 -19.45275,5.94419 -14.356049,4.72895 -18.981885,5.82797 -22.182195,5.27015 -2.223938,-0.38749 -4.04354,-1.03015 -4.04354,-1.42781 0,-0.39766 4.829803,-2.24671 10.732897,-4.10901 5.903091,-1.86224 16.737467,-5.4087 24.076436,-7.88096 7.33897,-2.47228 20.392453,-6.82986 29.007801,-9.68354 8.615306,-2.85368 20.885596,-6.927293 27.267266,-9.052511 12.08681,-4.025067 15.07913,-4.559394 16.18903,-2.890872 0.36399,0.547143 -4.69605,2.946206 -11.24454,5.331162 -15.55634,5.665681 -13.25754,5.663161 4.05793,-0.0046 12.41926,-4.065005 14.17909,-4.379713 19.61053,-3.507137 l 5.96695,0.958593 -12.40603,4.717235 c -6.82329,2.59448 -12.16123,4.94464 -11.8621,5.22255 0.67312,0.62538 22.91956,-7.021367 24.43955,-8.400587 1.32752,-1.204529 7.28547,-1.18745 10.50082,0.02852 2.08452,0.789333 1.96647,0.957486 -1.1603,1.652898 -3.05459,0.679379 -17.32064,6.003459 -37.71012,14.073399 -53.232852,21.06911 -57.036071,22.44036 -59.756001,21.54485 z M 4.2955394,112.19864 c 0,-3.19976 2.0897878,-4.27976 10.1527486,-5.24686 3.448524,-0.4136 4.931325,-0.1972 4.931325,0.72027 0,2.04222 -6.661859,6.11957 -11.0891692,6.78708 -3.7128341,0.55979 -3.9949044,0.40012 -3.9949044,-2.26049 z M 20.264636,104.26861 C 11.854614,84.06439 8.7842436,74.17623 8.1304202,65.190269 7.7637982,60.150544 6.5548679,53.759374 5.4441258,50.987671 4.0034699,47.392773 3.7822683,45.61596 4.672291,44.789058 c 1.8929695,-1.758722 5.424819,-1.385586 5.424819,0.573148 0,1.226808 0.592559,1.505905 2.030541,0.956347 2.073211,-0.79231 42.602326,-14.03783 47.862822,-15.642295 1.595463,-0.486611 14.126823,-4.605373 27.847507,-9.152813 13.72065,-4.54744 27.17154,-8.793426 29.89081,-9.43553 4.35171,-1.027563 4.90782,-1.500595 4.64123,-3.9476683 -0.23637,-2.1712072 0.27146,-2.8559862 2.31946,-3.1261164 2.23226,-0.2944568 3.14066,0.7274469 6.10709,6.8701577 1.91661,3.968829 5.11855,9.132573 7.11536,11.474979 1.99686,2.342407 4.39893,6.284934 5.33799,8.761169 8.63109,22.760055 12.82299,34.689619 12.40843,35.312755 -0.27146,0.408416 -2.05856,0.955939 -3.97087,1.216709 -3.98227,0.542988 -3.60119,1.259271 -11.33256,-21.301009 -2.56289,-7.478672 -6.72044,-16.62651 -9.79885,-21.560453 -2.94091,-4.713586 -5.7096,-9.696741 -6.15262,-11.073672 -0.57458,-1.785777 -1.3576,-2.298513 -2.73124,-1.788454 -3.89492,1.446288 -50.320671,16.786506 -77.983161,25.767582 -15.666634,5.08642 -29.428678,9.248029 -30.582307,9.248029 -1.549767,0 -1.874377,0.492719 -1.242919,1.886535 1.5481,3.417092 3.998239,13.68657 4.016746,16.835528 0.0088,1.69992 3.21636,11.849304 7.125399,22.554175 6.733824,18.440679 6.99651,19.538629 4.999607,20.895239 -3.591271,2.43981 -4.61391,1.66766 -7.740939,-5.84479 z m 5.496696,0.80853 c 0.39425,-0.59292 -0.09691,-1.07806 -1.09184,-1.07806 -0.994922,0 -1.808946,0.48514 -1.808946,1.07806 0,0.59291 0.4913,1.07801 1.091841,1.07801 0.600497,0 1.414519,-0.4851 1.808945,-1.07801 z M 151.65507,63.034215 c 0,-0.592921 -0.52213,-1.078058 -1.16029,-1.078058 -0.63822,0 -1.16034,0.485137 -1.16034,1.078058 0,0.592906 0.52212,1.077997 1.16034,1.077997 0.63816,0 1.16029,-0.485091 1.16029,-1.077997 z M 32.903571,104.80757 c -2.341907,-4.57377 -2.594287,-5.818393 -1.315366,-6.4872 0.870376,-0.455195 14.274261,-4.991943 29.786354,-10.081614 15.512134,-5.089685 36.035981,-11.825959 45.608521,-14.969487 9.57256,-3.143543 20.9913,-6.975005 25.37493,-8.514309 4.38363,-1.53932 8.36823,-2.798803 8.85465,-2.798803 0.48644,0 1.45912,2.120576 2.16158,4.712304 0.70242,2.591788 1.61367,5.527073 2.02498,6.522904 0.62159,1.50504 0.23373,1.690682 -2.29973,1.099961 -2.59042,-0.604024 -3.04751,-0.358954 -3.04751,1.634908 0,1.854998 -0.48539,2.202469 -2.32064,1.661256 -1.81447,-0.535055 -2.32064,-0.19353 -2.32064,1.564953 0,1.860853 -0.50086,2.132423 -2.90079,1.572796 -2.22977,-0.519932 -2.90074,-0.258723 -2.90074,1.130129 0,1.336401 -0.62518,1.622228 -2.40207,1.098262 -1.79022,-0.527926 -2.55456,-0.166243 -3.00086,1.419112 -0.41968,1.490994 -1.28366,1.961098 -2.88789,1.571339 -1.64883,-0.400514 -2.47185,0.09283 -2.94241,1.76496 -0.50445,1.792126 -1.00614,2.049134 -2.20126,1.127627 -1.83495,-1.41488 -3.97017,-0.452904 -3.97017,1.788668 0,1.276228 -0.47657,1.354374 -2.40659,0.39481 -2.03738,-1.013062 -2.50312,-0.853539 -3.03608,1.040076 -0.71877,2.553611 -1.6206,2.789353 -3.60775,0.943077 -1.08298,-1.006145 -1.39237,-0.718695 -1.39237,1.293627 0,2.012306 -0.30962,2.299802 -1.39238,1.293626 -1.922137,-1.785786 -4.409194,-1.622441 -4.409194,0.28968 0,0.964418 -0.680272,1.340693 -1.740496,0.962704 -0.957249,-0.341433 -1.740436,-0.05096 -1.740436,0.645479 0,0.759178 -0.894588,1.002217 -2.234505,0.607118 -1.460488,-0.430668 -2.627354,-0.0076 -3.368666,1.22396 -0.97309,1.615557 -1.405487,1.673607 -3.045588,0.408947 -1.664583,-1.283479 -1.99634,-1.172449 -2.568244,0.85946 -0.699695,2.48581 -2.110049,3.02444 -3.286878,1.2553 -1.161218,-1.74561 -2.6884,-1.24201 -3.50786,1.15676 -0.732981,2.14567 -0.853712,2.15883 -3.028753,0.33003 -2.178505,-1.8317 -2.290903,-1.81406 -2.931044,0.46029 -0.759643,2.69889 -1.628091,2.9363 -3.722,1.01746 -1.178058,-1.07956 -1.762943,-0.97981 -2.941131,0.50152 -1.15543,1.45269 -1.775968,1.5682 -2.894953,0.539 -1.119292,-1.02952 -1.677295,-0.89327 -2.605953,0.6363 -0.97146,1.60002 -1.494685,1.70498 -2.940824,0.58993 -1.444165,-1.11356 -1.963443,-1.01705 -2.900785,0.53902 -0.900811,1.49554 -1.489071,1.62752 -2.788475,0.62557 -1.271555,-0.98046 -2.063518,-0.94843 -3.475714,0.14061 -1.437763,1.10865 -2.017954,1.12597 -2.713089,0.081 -0.675268,-1.0151 -1.236339,-0.93504 -2.37427,0.33899 -2.321646,2.59904 -3.140054,2.07612 -6.246911,-3.99155 z M 20.511185,75.361268 c -0.62238,-1.520845 -1.131572,-2.941352 -1.131572,-3.156603 0,-0.523648 7.206354,-2.986795 38.870416,-13.285898 14.677939,-4.774156 36.962266,-12.107699 49.520721,-16.296728 12.55851,-4.189029 23.40582,-7.616428 24.10521,-7.616428 1.53643,0 3.81808,5.170107 2.89443,6.558588 -0.36136,0.54316 -1.16907,0.987557 -1.79496,0.987557 -1.13354,0 -20.33646,6.178241 -56.740586,18.255421 -36.71853,12.181482 -52.620003,17.319327 -53.602603,17.319327 -0.544187,0 -1.498676,-1.244331 -2.121056,-2.765236 z M 156.89868,63.23451 c -1.86929,-1.736717 -0.0592,-4.177457 4.34548,-5.859906 8.20071,-3.13233 14.00535,-1.785206 9.66873,2.243822 -1.93809,1.800647 -12.91864,4.633999 -14.01421,3.616084 z"
       id="path1" /></g></svg>
