<?xml version="1.0" encoding="UTF-8" standalone="no"?>
<!-- Created with Inkscape (http://www.inkscape.org/) -->

<svg
   width="180mm"
   height="180mm"
   viewBox="0 0 180 180"
   version="1.1"
   id="svg1"
   sodipodi:docname="place_stables.svg"
   inkscape:version="1.4.2 (f4327f4, 2025-05-13)"
   xml:space="preserve"
   xmlns:inkscape="http://www.inkscape.org/namespaces/inkscape"
   xmlns:sodipodi="http://sodipodi.sourceforge.net/DTD/sodipodi-0.dtd"
   xmlns="http://www.w3.org/2000/svg"
   xmlns:svg="http://www.w3.org/2000/svg"><sodipodi:namedview
     id="namedview1"
     pagecolor="#505050"
     bordercolor="#ffffff"
     borderopacity="1"
     inkscape:showpageshadow="0"
     inkscape:pageopacity="0"
     inkscape:pagecheckerboard="1"
     inkscape:deskcolor="#505050"
     inkscape:document-units="mm"
     inkscape:zoom="1"
     inkscape:cx="73"
     inkscape:cy="204"
     inkscape:window-width="2560"
     inkscape:window-height="1351"
     inkscape:window-x="-9"
     inkscape:window-y="-9"
     inkscape:window-maximized="1"
     inkscape:current-layer="layer1"
     showguides="true" /><defs
     id="defs1"><rect
       x="101.82338"
       y="91.923881"
       width="384.66609"
       height="299.81327"
       id="rect3" /><rect
       x="2.8284271"
       y="2.1213203"
       width="662.55905"
       height="647.0027"
       id="rect2" /></defs><g
     inkscape:label="Icon"
     inkscape:groupmode="layer"
     id="layer1"><path
       style="fill:#000000;stroke-width:4.03576"
       d="m 18.212114,175.41269 c -0.379257,-0.40407 -0.68966,-2.84768 -0.68966,-5.43009 0,-3.5449 0.443573,-4.81877 1.810344,-5.19935 1.653949,-0.46048 1.657976,-0.51509 0.04692,-0.6319 -2.721381,-0.19745 -2.996049,-4.41016 -2.672508,-40.99109 l 0.297932,-33.69905 2.586178,-4.043034 2.586216,-4.043035 9.568995,-0.0083 9.568955,-0.0083 v 6.429364 c 0,3.536192 -0.24984,6.695429 -0.554809,7.020521 -0.30536,0.325342 -2.283633,-0.06665 -4.396561,-0.870093 -2.112967,-0.803691 -6.052934,-1.482994 -8.755509,-1.509613 l -4.913835,-0.04832 -0.08484,35.54526 c -0.04653,19.54991 -0.01173,38.39718 0.07311,41.8828 0.138409,5.55523 -0.08524,6.33751 -1.811829,6.33751 -1.083345,0 -2.280075,-0.33076 -2.659371,-0.73475 z m 17.635234,0.0521 c -0.406274,-0.43286 -0.738691,-9.46672 -0.738691,-20.07517 0,-10.60849 0.233419,-19.03939 0.518839,-18.73534 0.599147,0.63831 6.432777,30.69599 6.916193,35.6354 0.290111,2.96632 4.69e-4,3.34028 -2.817016,3.63433 -1.727338,0.18038 -3.473052,-0.025 -3.879325,-0.45922 z m 9.24428,-3.3941 c -0.357361,-2.30435 -0.654941,-17.95315 -0.661197,-34.77518 -0.0078,-21.11947 -0.356579,-30.58543 -1.126352,-30.58543 -0.772863,0 -1.010895,7.27047 -0.775873,23.69775 0.1865,13.03382 -0.01173,23.69738 -0.436771,23.69688 -0.426722,-5.4e-4 -0.775873,-0.94895 -0.775873,-2.1076 0,-1.15865 -1.174796,-7.40394 -2.610653,-13.87841 -1.435858,-6.47448 -3.000389,-16.81004 -3.476727,-22.96792 -0.476378,-6.15789 -0.97336,-9.46021 -1.104419,-7.33853 -0.22599,3.65937 -0.338985,3.51778 -2.198866,-2.75546 -2.525653,-8.519302 -2.560647,-8.327721 1.373417,-7.526571 5.454921,1.110868 11.979775,4.781871 14.762893,8.305851 l 2.594779,3.28554 -0.27369,33.23728 c -0.270563,32.87299 -0.297541,33.24099 -2.45727,33.56946 -1.805652,0.27452 -2.296105,-0.39325 -2.833437,-3.85766 z m 9.672254,-11.10501 V 145.78403 L 59.3896,137.1358 c 8.61968,-16.1154 18.656645,-27.50634 25.526741,-28.97026 2.236049,-0.47647 2.975795,-1.49741 3.890976,-5.36981 0.621551,-2.62982 2.328323,-6.172803 3.792917,-7.87329 l 2.662811,-3.091793 -0.5812,8.541883 c -0.458002,6.73167 -0.285811,8.54188 0.811687,8.54188 0.766098,0 3.519657,1.99455 6.118968,4.43232 2.71564,2.5468 5.00392,3.95339 5.37915,3.30654 1.23634,-2.13139 2.70926,-1.11608 4.31281,2.9729 0.88406,2.25428 3.88617,7.88362 6.67136,12.50964 5.1713,8.58908 5.96578,12.04029 3.88941,16.89564 -1.84002,4.30269 -3.96663,4.43474 -7.79251,0.48393 -3.63003,-3.74864 -4.59104,-3.15369 -1.78946,1.10787 0.91146,1.38648 1.39152,2.80399 1.06676,3.14999 -0.95537,1.0179 -5.61397,-2.72742 -6.31356,-5.07584 -0.74725,-2.50855 -7.887834,-7.21897 -12.573646,-8.29448 -4.992893,-1.14598 -9.698919,-7.56535 -9.698919,-13.2301 0,-1.55535 -0.465508,-2.82789 -1.034471,-2.82789 -0.568963,0 -1.034471,2.46264 -1.034471,5.47254 0,4.46514 0.551408,6.14168 2.995579,9.10758 l 2.995619,3.63509 -1.892725,8.11477 c -1.041001,4.46315 -2.212982,11.30133 -2.604437,15.19598 -0.391494,3.89461 -1.386554,7.8001 -2.2113,8.67881 -1.148796,1.22397 -4.50635,1.59764 -14.356659,1.59764 H 54.763882 Z m 64.137988,-16.71651 c 0,-2.51776 -1.63096,-3.91611 -2.60639,-2.23457 -0.86901,1.49807 0.1431,4.37391 1.53947,4.37391 0.58683,0 1.06692,-0.96269 1.06692,-2.13934 z m -16.89912,-23.68779 c -0.81971,-2.27578 -5.859517,-2.30898 -5.859517,-0.0375 0,1.97534 4.234417,4.01246 5.568427,2.67889 0.50226,-0.50213 0.63324,-1.69028 0.29089,-2.64031 z m 27.24399,21.36832 v -34.21764 l 2.4473,-2.60744 c 3.19541,-3.40456 9.56696,-6.825493 14.57803,-7.827093 3.52752,-0.705047 3.91706,-0.574119 3.30954,1.11254 -0.37847,1.05142 -0.94849,3.229553 -1.26624,4.840313 -1.69313,8.58254 -1.78791,8.752 -2.56249,4.58187 -0.55121,-2.96774 -0.75273,-1.95064 -0.8735,4.4087 -0.14154,7.46188 -6.28061,41.1036 -7.79497,42.71707 -0.32804,0.3495 -0.62582,-10.73092 -0.66187,-24.62296 -0.0473,-18.19213 -0.35853,-24.4874 -1.11341,-22.50281 -0.62788,1.65104 -0.97222,13.5786 -0.85915,29.75882 0.28542,40.83996 0.439,38.57627 -2.61703,38.57627 h -2.58621 z m 8.58492,28.0393 c 0.32921,-3.39806 1.67444,-11.95373 2.98956,-19.01257 l 2.39103,-12.83428 0.76931,17.63485 c 0.42312,9.6992 0.5541,18.25487 0.29128,19.01261 -0.26313,0.75774 -1.9545,1.37773 -3.75886,1.37773 h -3.28065 z m 8.70398,5.49412 c -0.40546,-0.43194 -0.73717,-11.09571 -0.73717,-23.69725 0,-20.13911 0.32882,-24.75193 2.717,-38.117 1.49435,-8.36284 3.12965,-15.682709 3.63402,-16.266409 0.53405,-0.618067 0.80344,15.491839 0.64505,38.576269 l -0.27173,39.63748 -2.62493,0.32618 c -1.44371,0.17954 -2.95664,-0.0292 -3.36205,-0.45927 z m 10.68072,-40.23739 c -0.0442,-22.50685 -0.36714,-41.416577 -0.71809,-42.021605 -0.64958,-1.119828 -11.17958,-0.514341 -15.6136,0.897753 -2.23593,0.712129 -2.32758,0.475849 -2.32758,-6.000337 v -6.741626 l 9.56896,0.0083 9.56899,0.0083 2.32758,4.343049 c 2.30276,4.296684 2.32758,4.795279 2.32758,46.716206 0,44.39818 0.0653,43.71117 -4.16322,43.71117 -0.48982,0 -0.9266,-18.4147 -0.97062,-40.9216 z m -130.383549,0.50839 c 0,-21.6211 0.230681,-39.065246 0.512778,-38.764731 0.281901,0.300348 1.756505,6.210921 3.276659,13.134291 2.531362,11.52912 2.784056,14.78987 3.00379,38.76473 l 0.240066,26.17672 h -3.516569 -3.516568 z m 27.931071,-3.84921 c 0,-5.03206 0.436418,-6.49039 2.586217,-8.64215 1.422407,-1.42376 2.586177,-2.95416 2.586177,-3.40089 0,-0.44673 2.50497,-3.54589 5.566626,-6.88701 5.885123,-6.42236 14.358457,-11.75568 18.676899,-11.75568 3.886207,0 2.30498,2.34175 -3.68653,5.45979 -6.306606,3.282 -15.900076,13.93107 -21.106799,23.42923 -2.089939,3.81246 -3.98497,7.13845 -4.211234,7.39102 -0.226381,0.25244 -0.411356,-2.26486 -0.411356,-5.59431 z M 102.15726,109.4832 c -1.52441,-1.39706 -3.33022,-2.73846 -4.012881,-2.9809 -1.570201,-0.55767 -0.288548,-5.30483 1.430657,-5.29904 2.463324,0.008 7.890804,4.3972 9.475584,7.66241 1.66068,3.42151 0.95158,4.45415 -1.36423,1.98676 -0.95658,-1.01919 -1.47245,-1.04439 -2.02096,-0.0987 -0.51005,0.87926 -1.58874,0.48864 -3.50817,-1.27042 z M 46.668319,98.648197 c -1.846354,-2.093983 -2.249304,-3.870952 -2.249304,-9.919611 v -7.368691 h 45.000078 45.000037 l -0.0313,7.990799 c -0.0274,7.09921 -0.30379,8.200917 -2.46493,9.873613 -2.32085,1.796433 -2.52104,1.778563 -4.36282,-0.38991 C 122.25127,92.584371 107.87827,87.153279 94.145196,86.208037 78.365074,85.121868 62.084412,89.741729 53.5468,97.728362 c -2.040517,1.908855 -3.916586,3.470628 -4.169007,3.470628 -0.252577,0 -1.471163,-1.14791 -2.708282,-2.550923 z m 56.374761,1.17085 c -1.78164,-1.38801 -1.76921,-1.54452 0.27917,-3.519733 2.64052,-2.546002 3.32795,-1.970342 2.34122,1.960473 -0.67007,2.669593 -0.96789,2.846803 -2.62054,1.55926 z M 160.1547,77.233338 c -4.76663,-8.258113 -11.57323,-19.759609 -15.12577,-25.558867 -3.55258,-5.799258 -6.57846,-10.842689 -6.72418,-11.207647 -0.37026,-0.92708 -47.451402,-28.544185 -48.661778,-28.544185 -0.542493,0 -11.627497,6.25807 -24.633338,13.90678 L 41.362637,39.736199 28.732769,61.374712 C 21.786353,73.275867 15.019908,84.873092 13.696263,87.146364 11.04397,91.701365 9.7939872,92.149012 7.0676021,89.520155 5.096602,87.619756 5.0031172,87.802089 29.185452,46.389137 L 36.412283,34.013049 61.345781,19.510655 C 75.059229,11.534353 87.000844,4.528162 87.882752,3.9413794 89.096491,3.133814 95.889562,6.6047291 115.832,18.222075 l 26.34578,15.347617 6.01094,9.842334 c 12.84488,21.032193 25.5271,42.965097 25.53382,44.158658 0.004,0.688009 -1.09738,2.021913 -2.44714,2.964197 -2.44882,1.709526 -2.47303,1.680533 -11.1207,-13.301543 z M 27.0328,72.795186 c 1.312423,-2.285936 4.708841,-8.237701 7.547635,-13.226144 2.838794,-4.988485 5.515524,-9.069969 5.948307,-9.069969 0.432743,0 0.78682,5.951765 0.78682,13.226144 v 13.226144 h -8.334495 -8.334494 z m 17.386215,-9.68612 c 0,-7.613219 0.399392,-13.579272 0.887499,-13.257845 0.678283,0.446606 13.11606,21.696958 15.377836,26.273495 0.224817,0.454646 -3.343088,0.826645 -7.928377,0.826645 H 44.419015 Z M 67.177691,53.448024 V 29.944687 l 9.692624,-5.704405 c 5.33094,-3.137408 9.986138,-5.704404 10.344829,-5.704404 0.358925,0 0.652203,4.476102 0.652203,9.946893 0,9.448799 -0.122769,9.996591 -2.450349,10.9395 -1.34769,0.545917 -3.442515,2.336466 -4.655159,3.978966 -2.009316,2.721586 -2.204849,4.341466 -2.204849,18.268283 v 15.281841 h -5.68963 -5.689669 z m 12.955286,22.442954 c -0.332729,-0.573411 -0.307315,-2.305348 0.0563,-3.848745 0.646261,-2.743498 0.866269,-2.806109 9.859224,-2.806109 5.442487,0 9.198222,0.450022 9.198222,1.102165 0,0.606194 0.504528,1.102164 1.121117,1.102164 0.76172,0 1.01046,-4.204164 0.77587,-13.113877 -0.37026,-14.057121 -1.324779,-16.713139 -6.810783,-18.948503 -2.176112,-0.886673 -2.32758,-1.595802 -2.32758,-10.895302 0,-5.470791 0.216606,-9.946893 0.481617,-9.946893 0.778336,0 14.261416,7.910025 17.363226,10.186338 l 2.84481,2.087732 v 23.015323 23.015323 l -15.978583,0.04666 c -8.979309,0.025 -16.243557,-0.410323 -16.583403,-0.996105 z m 38.768893,0.435234 c 0,-0.560914 14.18341,-25.722371 15.12819,-26.83745 0.21387,-0.252442 0.38903,5.823169 0.38903,13.501664 v 13.960935 h -7.75861 c -4.26726,0 -7.75865,-0.281186 -7.75865,-0.625149 z m 19.65522,-12.600995 c 0,-7.274379 0.18064,-13.226144 0.4017,-13.226144 0.22091,0 2.23644,3.099875 4.47894,6.888634 2.24247,3.788717 5.80017,9.740482 7.90598,13.226144 l 3.82869,6.33751 h -8.30767 -8.30764 z M 54.871129,57.063989 C 50.662907,49.513007 47.053284,43.007077 46.849775,42.606418 46.437324,41.794396 62.050847,32.545384 62.687998,33.224271 c 0.221689,0.236196 0.275254,8.785825 0.118859,18.999116 L 62.52261,70.793101 Z m 61.961801,-5.33878 c 0,-10.474564 0.34915,-18.879352 0.77587,-18.677273 0.42672,0.202037 4.11841,2.270565 8.20379,4.596741 l 7.42795,4.229325 -5.2902,9.547902 c -2.9096,5.251341 -6.60133,11.752897 -8.20382,14.447906 l -2.91359,4.900047 z"
       id="path1" /></g></svg>
