<?xml version="1.0" encoding="UTF-8" standalone="no"?>
<!-- Created with Inkscape (http://www.inkscape.org/) -->

<svg
   width="180mm"
   height="180mm"
   viewBox="0 0 180 180"
   version="1.1"
   id="svg1"
   sodipodi:docname="place_watermill.svg"
   inkscape:version="1.4.2 (f4327f4, 2025-05-13)"
   xml:space="preserve"
   xmlns:inkscape="http://www.inkscape.org/namespaces/inkscape"
   xmlns:sodipodi="http://sodipodi.sourceforge.net/DTD/sodipodi-0.dtd"
   xmlns="http://www.w3.org/2000/svg"
   xmlns:svg="http://www.w3.org/2000/svg"><sodipodi:namedview
     id="namedview1"
     pagecolor="#505050"
     bordercolor="#ffffff"
     borderopacity="1"
     inkscape:showpageshadow="0"
     inkscape:pageopacity="0"
     inkscape:pagecheckerboard="1"
     inkscape:deskcolor="#505050"
     inkscape:document-units="mm"
     inkscape:zoom="1"
     inkscape:cx="73"
     inkscape:cy="204"
     inkscape:window-width="2560"
     inkscape:window-height="1351"
     inkscape:window-x="-9"
     inkscape:window-y="-9"
     inkscape:window-maximized="1"
     inkscape:current-layer="layer1"
     showguides="true" /><defs
     id="defs1"><rect
       x="101.82338"
       y="91.923881"
       width="384.66609"
       height="299.81327"
       id="rect3" /><rect
       x="2.8284271"
       y="2.1213203"
       width="662.55905"
       height="647.0027"
       id="rect2" /></defs><g
     inkscape:label="Icon"
     inkscape:groupmode="layer"
     id="layer1"><path
       style="fill:#000000"
       d="m 93.717827,154.78577 c 7.120513,-4.04571 8.846723,-4.59366 16.308403,-5.17677 4.58975,-0.35868 9.35695,-1.13343 10.59379,-1.72166 1.23683,-0.58823 5.30337,-4.34896 9.03675,-8.35718 10.07317,-10.81471 11.35841,-11.43279 30.44717,-14.64208 4.94819,-0.83191 9.74688,-1.76821 10.66375,-2.08066 1.46527,-0.49934 1.63106,1.64473 1.36971,17.71375 l -0.29734,18.28185 -43.04283,0.25369 -43.042827,0.25368 z m -57.186663,0.95252 c -5.096684,-1.16586 -7.997726,-1.28894 -13.094409,-0.55554 -3.600963,0.51818 -6.715597,0.81374 -6.92141,0.65681 -0.205814,-0.15693 1.170947,-0.99492 3.059469,-1.86219 5.379638,-2.47053 12.837679,-2.82178 22.552315,-1.06216 6.980245,1.26434 9.908888,1.3813 14.03339,0.56044 6.592402,-1.31201 7.637347,-0.51709 2.089402,1.58948 -5.826345,2.21229 -13.896812,2.46242 -21.718757,0.67316 z m 15.233851,-6.07958 c 0.336121,-0.48297 2.784021,-1.61509 5.439777,-2.5158 4.934723,-1.67363 10.127263,-1.58301 16.565625,0.28913 3.541082,1.02968 7.022681,-0.007 15.138382,-4.50935 3.886059,-2.15567 9.275207,-3.41693 9.275207,-2.17073 0,0.48536 -1.200763,1.1501 -2.668361,1.47722 -1.467599,0.32711 -4.983385,2.37411 -7.81286,4.54888 -4.956259,3.80945 -5.347736,3.93099 -10.698848,3.32162 -8.361528,-0.95218 -18.210412,-1.07393 -22.249405,-0.27502 -2.091027,0.4136 -3.344423,0.34402 -2.989517,-0.16595 z M 8.3418113,147.98189 c -1.0163277,-0.90256 -0.9158633,-31.11505 0.1053294,-31.67553 0.857219,-0.47049 21.6659773,2.6293 28.8393173,4.29606 2.837768,0.65937 5.538486,2.50534 9.134958,6.24384 4.345322,4.51692 5.663401,5.30771 8.846902,5.30771 4.271362,0 8.704369,1.79138 11.694776,4.72586 1.621427,1.59111 1.736113,2.10167 0.543024,2.41742 -0.831894,0.22016 -5.323304,1.58341 -9.980913,3.02944 -7.661692,2.37869 -9.376805,2.56795 -18.004812,1.98684 -8.505349,-0.57285 -10.412462,-0.37434 -17.638766,1.83605 -8.130102,2.48684 -12.1848941,3.03557 -13.5398157,1.83231 z M 99.228882,145.2858 c 1.788568,-1.91386 8.443808,-3.76231 10.730538,-2.98033 1.3366,0.45708 0.16515,1.15914 -4.13701,2.47935 -7.293778,2.23826 -8.287641,2.31377 -6.593528,0.50098 z m 22.419968,-11.31737 c -6.14013,-6.03563 -8.51092,-11.61767 -9.06091,-21.33401 -0.58244,-10.28945 2.18678,-18.798782 8.12154,-24.956122 7.20615,-7.476402 15.26924,-9.511735 23.8957,-6.031892 9.52809,3.843551 14.70109,12.631045 15.47111,26.281144 0.60349,10.69779 -0.44916,14.06764 -4.61528,14.7749 -2.5359,0.4305 -2.82112,0.23275 -2.2631,-1.56908 0.35118,-1.13392 0.95874,-3.76482 1.35014,-5.84644 l 0.71163,-3.78477 -4.25862,0.62467 c -2.34224,0.34357 -5.11794,0.62947 -6.16822,0.63534 -2.79783,0.0156 -2.37116,1.2748 2.00993,5.93165 3.53345,3.75586 3.72155,4.23241 1.9096,4.83803 -1.97733,0.6609 -2.78207,0.11072 -6.43832,-4.40168 -1.97395,-2.43618 -2.69037,-1.69205 -2.84381,2.95381 -0.12383,3.74926 -1.39775,6.19376 -3.22782,6.19376 -0.52667,0 -0.95759,-2.43476 -0.95759,-5.41057 0,-2.97581 -0.38701,-5.26521 -0.86003,-5.08755 -0.47301,0.17767 -3.03831,2.4402 -5.70066,5.02786 l -4.84064,4.70484 3.55563,2.82134 c 3.51151,2.78633 3.53147,2.85082 1.60866,5.19754 -1.07083,1.30691 -2.25811,2.3899 -2.63839,2.40665 -0.38028,0.0168 -2.52253,-1.76949 -4.76055,-3.96942 z m 8.7574,-18.31188 c 2.81967,-2.07818 1.75738,-2.77993 -4.65882,-3.07762 -4.94103,-0.22925 -6.34055,-0.64875 -6.62722,-1.98648 -0.31053,-1.44908 0.51214,-1.69584 5.6538,-1.69584 3.30947,0 6.28572,-0.38581 6.61388,-0.85736 0.32816,-0.47154 -1.3615,-3.0414 -3.75481,-5.7108 -2.3933,-2.669402 -4.36707,-5.445142 -4.38616,-6.168312 -0.0864,-3.272534 -3.13807,2.705147 -4.23387,8.293332 -1.23648,6.30558 -0.41137,13.23953 2.17538,18.28134 l 1.31054,2.55436 3.15115,-4.22486 c 1.73314,-2.32367 3.8734,-4.75716 4.75613,-5.40776 z m 8.69778,-5.38711 c 0,-1.85476 -0.55756,-2.82642 -1.62185,-2.82642 -1.79442,0 -2.73496,2.68789 -1.74346,4.98247 1.03662,2.39902 3.36531,0.90709 3.36531,-2.15605 z m 15.82241,-3.75912 c 0,-7.35659 -8.69686,-18.932962 -14.22358,-18.932962 -1.89575,0 -2.13181,0.646156 -2.03566,5.572076 0.0598,3.064642 0.44443,6.640367 0.85467,7.946056 0.72939,2.32148 0.83973,2.27428 4.98948,-2.134463 4.01536,-4.265956 6.05029,-5.037802 6.05029,-2.294868 0,0.672081 -1.76676,3.054984 -3.92613,5.295341 -5.08415,5.27482 -4.41366,6.93511 2.80068,6.93511 5.1065,0 5.49025,-0.1668 5.49025,-2.38629 z M 135.28483,95.329812 c 0,-9.021627 -1.14593,-9.74473 -7.76471,-4.899664 l -3.89716,2.85279 5.01253,4.892852 c 2.7569,2.69107 5.38082,4.89592 5.83094,4.89966 0.45012,0.004 0.8184,-3.481789 0.8184,-7.745638 z M 73.308715,136.34252 c -0.777961,-0.27705 -3.896308,-1.98692 -6.929659,-3.79972 -3.642349,-2.17676 -6.802903,-3.296 -9.307301,-3.296 -2.775344,0 -4.428286,-0.68747 -6.16475,-2.56393 -7.244485,-7.82857 -9.495051,-8.97542 -20.650245,-10.523 -3.661025,-0.5079 -4.092003,-0.86925 -4.092003,-3.43095 0,-2.80984 0.106875,-2.863 5.728804,-2.84916 3.150842,0.008 15.79513,0.65552 28.098419,1.43949 12.303288,0.78396 22.737895,1.43173 23.188015,1.43948 0.450121,0.008 0.818401,5.46505 0.818401,12.12731 v 12.11321 l -4.637603,-0.0765 c -2.550682,-0.0421 -5.274117,-0.30317 -6.052078,-0.58022 z m 13.963283,-11.39118 c 0,-11.23976 0.147972,-12.08961 2.205991,-12.66969 3.504108,-0.98767 8.547202,1.51923 9.316903,4.63138 0.380579,1.53881 0.12265,3.31186 -0.593216,4.07787 -0.696611,0.74542 -1.108325,2.58088 -0.914919,4.0788 0.273909,2.12142 1.13566,2.92849 3.898053,3.6507 3.6903,0.96481 4.68947,3.32881 2.1824,5.16349 -1.14234,0.83596 -12.266854,3.11536 -15.20442,3.11536 -0.489936,0 -0.890792,-5.42156 -0.890792,-12.04791 z m 20.248072,11.1663 c -1.46333,-2.10269 0.80566,-3.96367 4.83268,-3.96367 4.18295,0 7.32844,1.99389 6.04801,3.83377 -0.86423,1.24183 -10.03071,1.35126 -10.88069,0.1299 z m -6.71474,-11.12904 c -1.073099,-2.48343 0.57668,-3.49426 5.70297,-3.49426 4.48004,0 4.8906,0.19574 4.57321,2.18038 -0.29001,1.81344 -1.13085,2.2306 -4.99628,2.47879 -3.36524,0.21608 -4.82206,-0.10534 -5.2799,-1.16491 z m -3.510406,-14.88067 c 0.644796,-3.01947 11.801086,-2.77299 11.801086,0.26072 0,1.0958 -1.43797,1.43513 -6.08161,1.43513 -5.202509,0 -6.02927,-0.24514 -5.719476,-1.69585 z m 65.269926,-0.24227 c 0,-1.06596 0.49104,-1.93811 1.0912,-1.93811 0.60016,0 1.0912,0.87215 1.0912,1.93811 0,1.06596 -0.49104,1.93812 -1.0912,1.93812 -0.60016,0 -1.0912,-0.87216 -1.0912,-1.93812 z m -90.024062,-0.96905 -9.820806,-0.48453 -0.301477,-14.820057 -0.301476,-14.820055 -7.882529,0.284204 -7.88253,0.284205 -0.30276,13.809057 -0.302761,13.809056 -7.335645,-0.0132 C 25.045215,106.92115 26.162578,108.89989 26.178983,85.283958 L 26.19321,64.804526 39.344594,48.070188 c 7.233262,-9.203887 13.546058,-16.517721 14.028437,-16.252965 0.482379,0.264755 7.570423,8.113817 15.751209,17.442359 l 14.874156,16.960986 v 21.280828 c 0,11.704455 -0.36828,21.415584 -0.818401,21.580284 -0.45012,0.1647 -5.237763,0.0814 -10.639207,-0.18507 z M 87.271998,88.530325 V 68.164046 l 28.644022,0.258353 28.64402,0.258354 0.33869,4.735856 0.3387,4.735855 -3.4759,-0.617364 c -1.91174,-0.339551 -4.15108,-0.617365 -4.9763,-0.617365 -0.82522,0 -1.5004,-0.654113 -1.5004,-1.453585 0,-1.152002 -1.56626,-1.453585 -7.54916,-1.453585 -9.29636,0 -11.00125,0.541688 -11.00125,3.495376 0,2.092754 -0.46597,2.318964 -4.77679,2.318964 -5.61851,0 -7.79353,1.737688 -6.75859,5.399638 1.03814,3.673284 -0.21373,6.229042 -3.05113,6.229042 -1.33992,0 -3.025472,0.523291 -3.745664,1.162868 -1.588346,1.410554 -1.726569,5.277205 -0.21824,6.105057 0.60016,0.329401 1.0912,1.89075 1.0912,3.46966 0,2.12175 -0.711763,3.15876 -2.728002,3.97459 -1.500401,0.6071 -2.728001,1.46991 -2.728001,1.91734 0,0.44743 -1.473121,0.81351 -3.273603,0.81351 h -3.273602 z m 13.872182,9.105294 c -0.42778,-0.379892 -0.77777,-1.294936 -0.77777,-2.033431 0,-1.010943 1.41554,-1.270343 5.7288,-1.049811 4.21821,0.215672 5.7288,0.676193 5.7288,1.746491 0,1.036336 -1.42118,1.535951 -4.95103,1.740525 -2.72306,0.157816 -5.30102,-0.02388 -5.7288,-0.403774 z m 59.70776,-0.67891 c -0.87368,-2.021923 0.21792,-3.342164 1.68566,-2.038721 0.61982,0.550443 0.6359,1.475359 0.0405,2.33088 -0.8372,1.20299 -1.09927,1.158633 -1.72617,-0.292159 z M 108.66716,86.044517 c -1.24744,-2.886902 -0.65498,-3.312442 4.61179,-3.312442 6.09591,0 7.06964,0.531345 5.56108,3.034584 -1.42078,2.357591 -9.1826,2.569594 -10.17287,0.277858 z m 44.07688,-1.858857 c 0,-0.888302 0.52787,-1.458834 1.17304,-1.267849 0.64518,0.190985 1.17304,0.761517 1.17304,1.267849 0,0.506332 -0.52786,1.076864 -1.17304,1.267849 -0.64517,0.190985 -1.17304,-0.379547 -1.17304,-1.267849 z m -32.31506,-4.78429 c -1.00899,-2.335065 -0.20506,-2.626575 6.27839,-2.2766 5.64915,0.304939 5.74505,0.356312 2.80053,1.500207 -5.83423,2.2665 -8.34236,2.480985 -9.07892,0.776393 z M 15.252749,64.505606 c 0,-1.020686 30.82032,-40.379568 33.765838,-43.120436 1.810987,-1.685162 3.048244,-1.604356 33.434204,2.183611 17.354494,2.163442 32.590089,4.143182 33.856889,4.399422 1.32708,0.268435 9.37179,8.173246 18.98118,18.651108 l 16.67793,18.185215 -17.34439,0.307656 c -9.53941,0.169211 -24.21895,0.0078 -32.62119,-0.358735 L 86.726398,64.087057 69.95811,44.74179 C 57.566521,30.445842 52.867076,25.676915 51.953297,26.470774 51.273209,27.061612 44.084167,35.928413 35.977648,46.174776 23.583579,61.840454 20.762341,64.853313 18.245636,65.111158 16.599548,65.279805 15.252749,65.007306 15.252749,64.505606 Z"
       id="path1" /></g></svg>
