<?xml version="1.0" encoding="UTF-8" standalone="no"?>
<!-- Created with Inkscape (http://www.inkscape.org/) -->

<svg
   width="180mm"
   height="240mm"
   viewBox="0 0 180 240"
   version="1.1"
   id="svg1"
   sodipodi:docname="bluebell.svg"
   inkscape:version="1.4.2 (f4327f4, 2025-05-13)"
   xml:space="preserve"
   xmlns:inkscape="http://www.inkscape.org/namespaces/inkscape"
   xmlns:sodipodi="http://sodipodi.sourceforge.net/DTD/sodipodi-0.dtd"
   xmlns="http://www.w3.org/2000/svg"
   xmlns:svg="http://www.w3.org/2000/svg"><sodipodi:namedview
     id="namedview1"
     pagecolor="#505050"
     bordercolor="#ffffff"
     borderopacity="1"
     inkscape:showpageshadow="0"
     inkscape:pageopacity="0"
     inkscape:pagecheckerboard="1"
     inkscape:deskcolor="#505050"
     inkscape:document-units="mm"
     inkscape:zoom="1"
     inkscape:cx="73"
     inkscape:cy="444"
     inkscape:window-width="2560"
     inkscape:window-height="1351"
     inkscape:window-x="-9"
     inkscape:window-y="-9"
     inkscape:window-maximized="1"
     inkscape:current-layer="layer1"
     showguides="true" /><defs
     id="defs1"><rect
       x="101.82338"
       y="91.923882"
       width="384.66608"
       height="299.81326"
       id="rect3" /><rect
       x="2.8284271"
       y="2.1213202"
       width="662.55902"
       height="647.00269"
       id="rect2" /></defs><g
     inkscape:label="Icon"
     inkscape:groupmode="layer"
     id="layer1"><path
       style="fill:#000000;stroke-width:2.42294"
       d="m 60.135927,234.35668 c -1.934562,-0.641 -2.536764,-2.10557 -2.210287,-5.3755 0.496385,-4.97214 -1.317626,-12.98166 -4.24244,-18.73191 C 50.251058,203.50164 46.175358,197.5988 38.186712,187.8058 34.531094,183.32452 29.783005,177.13264 27.635411,174.0461 13.063641,153.10332 6.7953088,126.94112 10.332669,101.82948 c 1.013854,-7.197325 2.045613,-10.972487 2.998802,-10.972487 0.319259,0 1.199819,2.032888 1.956805,4.517548 2.977132,9.771829 5.863587,15.298379 15.377221,29.441929 13.69044,20.35307 19.405932,31.81461 24.54724,49.22567 1.214401,4.11252 2.221479,7.05673 2.237932,6.54266 0.05235,-1.63295 -2.389767,-15.48838 -4.832379,-27.41683 C 47.377246,127.57352 45.939966,114.08178 46.478055,95.530328 47.067819,75.197465 50.589002,60.227734 58.203534,45.681537 65.160549,32.391341 71.473731,25.69515 85.362509,16.874765 99.329313,8.0048526 105.59032,5.5226658 114.05371,5.5001514 c 3.39276,-0.00942 4.63044,0.8833362 2.3084,1.6643449 -0.63481,0.213604 -3.08338,1.2260917 -5.44126,2.2501663 l -4.28704,1.8619814 5.27637,0.866757 c 7.13901,1.172773 13.74163,4.208517 18.09156,8.318145 l 3.49526,3.302171 4.18074,-0.143187 c 7.7985,-0.267088 12.98876,3.328407 18.62192,12.900151 3.41372,5.80049 8.73982,10.976466 11.98852,11.650579 2.83826,0.588953 3.04927,1.409362 0.90956,3.536076 -2.81172,2.794633 -5.39991,3.833285 -9.56089,3.836889 l -3.71779,0.0024 -0.39994,2.756598 c -0.52168,3.595871 -2.68027,8.157859 -4.10431,8.674136 -1.60886,0.583254 -6.75258,-0.83819 -9.73538,-2.690351 l -2.54846,-1.582436 -1.96726,2.254806 c -2.57775,2.954471 -6.32792,4.711063 -10.05772,4.711063 -3.32655,0 -3.4139,-0.145071 -2.00491,-3.330997 1.65819,-3.749375 1.22741,-8.725547 -1.35681,-15.673847 -4.03963,-10.861422 -3.74342,-16.224154 1.17466,-21.264879 l 2.70279,-2.770187 -2.24965,-2.214629 c -1.23729,-1.218037 -3.94777,-3.030445 -6.02325,-4.027577 -13.89925,-6.677516 -34.043271,-0.400714 -46.466675,14.478818 -3.518367,4.213981 -9.156059,12.855334 -8.680215,13.304915 0.156795,0.148134 2.167511,-0.449133 4.468335,-1.327147 5.591602,-2.133779 13.033734,-1.94999 18.508549,0.457094 4.720329,2.075397 9.279775,6.436475 11.270848,10.780502 1.338641,2.920628 1.857708,3.467921 3.297628,3.47687 3.04507,0.01884 7.75345,1.699647 10.48281,3.741932 3.42324,2.561482 5.34826,5.743098 7.93548,13.115592 2.42725,6.916695 5.49765,11.267058 9.21725,13.059847 1.45391,0.700749 2.64346,1.528435 2.64346,1.839303 0,0.902247 -3.17232,3.012381 -5.72554,3.808463 -2.26171,0.705199 -6.6443,0.548328 -8.86882,-0.317439 -0.83876,-0.326435 -1.33739,0.274883 -2.27879,2.748214 -1.46811,3.857191 -4.52479,7.501741 -6.29169,7.501741 -1.8513,0 -4.85761,-1.5841 -7.84439,-4.13341 l -2.570015,-2.19358 -2.324705,2.19629 c -3.257125,3.07719 -8.107851,4.25131 -11.914581,2.88393 l -1.736287,-0.62367 1.262686,-1.71299 c 2.936505,-3.983732 3.554163,-10.043256 1.794244,-17.602341 -2.395399,-10.288483 -0.08899,-17.649743 6.844242,-21.845166 l 1.567876,-0.94876 -1.371471,-2.539791 c -3.511013,-6.501969 -7.819437,-9.150635 -14.955183,-9.193921 -7.229524,-0.0438 -12.806468,3.105477 -17.23442,9.732335 -4.586044,6.863424 -7.461252,20.510859 -7.485631,35.531106 l -0.01246,7.931798 2.993191,-1.99323 c 2.506128,-1.66889 3.726163,-2.03237 7.497446,-2.23371 7.661845,-0.409022 13.899222,3.28713 17.475072,10.35535 1.798806,3.55562 2.008448,3.73581 4.761609,4.09232 1.58398,0.20512 4.347362,1.07544 6.140858,1.93407 4.74775,2.27296 7.276082,5.75935 9.979389,13.76083 2.6717,7.90789 5.74019,12.13499 10.89347,15.00659 1.22661,0.68351 1.21584,0.75793 -0.33907,2.34366 -2.57897,2.63008 -8.8574,3.55522 -13.270247,1.95541 -0.691136,-0.25058 -1.286933,0.50322 -2.093493,2.64869 -0.620075,1.64939 -2.127751,4.09222 -3.350379,5.42846 l -2.223,2.42955 -2.974295,-1.07313 c -1.635854,-0.59023 -4.210533,-2.07288 -5.721524,-3.29478 l -2.747229,-2.22162 -2.287688,1.89768 c -2.836171,2.35261 -6.686873,3.49814 -9.865401,2.93478 -3.123088,-0.55351 -3.446001,-1.54654 -1.420104,-4.36696 2.389292,-3.32634 2.765401,-7.04493 1.485166,-14.68411 -1.286742,-7.67799 -1.33909,-9.70452 -0.346869,-13.42733 0.798409,-2.99554 5.005352,-8.04157 7.270729,-8.72086 1.755831,-0.5265 1.329767,-2.96005 -1.134059,-6.47748 -3.920949,-5.59762 -11.305099,-6.50107 -15.686561,-1.91923 -5.317921,5.56114 -5.067796,11.71174 1.913697,47.05729 3.382461,17.12454 4.274772,22.58715 5.578514,34.15066 0.726667,6.44529 1.321217,15.75757 1.321217,20.69397 0,10.33636 -1.090212,21.4725 -2.203706,22.50988 -1.005283,0.93658 -3.153476,1.44052 -4.391733,1.03022 z m -8.602515,-47.3452 C 48.71676,178.94811 44.37735,170.17325 36.31771,156.24334 c -4.448665,-7.68889 -9.960645,-17.90538 -12.248838,-22.70332 -2.288194,-4.79794 -4.161438,-8.264 -4.162765,-7.70237 -0.0047,2.0222 5.429258,15.94814 8.896595,22.79956 1.947489,3.84821 6.803447,12.5406 10.791003,19.31639 3.987555,6.77582 8.504574,14.91799 10.03785,18.09377 1.533277,3.17577 2.922122,5.64717 3.08637,5.49202 0.164274,-0.1552 -0.368804,-2.19272 -1.184513,-4.52791 z m 40.331954,-35.40843 c 0.905124,-1.93313 1.254011,-3.83062 1.117109,-6.0753 l -0.199172,-3.26421 -1.17549,3.11556 c -0.646524,1.71356 -1.599933,3.64542 -2.118702,4.29301 -0.858584,1.07184 -1.078571,1.09353 -2.451986,0.24187 -0.829842,-0.51458 -2.473399,-1.78785 -3.652328,-2.82947 -2.325303,-2.05446 -2.695504,-1.71731 -1.171501,1.06699 1.133187,2.07026 6.105759,6.26269 7.428098,6.26269 0.499226,0 1.499973,-1.26502 2.223897,-2.81114 z m -17.269568,-0.0742 c 2.638345,-3.16881 2.991894,-6.08605 1.651533,-13.62707 -0.670056,-3.76981 -1.208892,-8.59241 -1.197401,-10.71691 0.02493,-4.57483 -0.67038,-4.56359 -1.758124,0.0285 -0.593553,2.50576 -0.604421,4.57162 -0.04487,8.50043 1.011615,7.10166 0.927135,12.08473 -0.249999,14.74635 -1.163524,2.63089 -1.174268,2.7079 -0.377629,2.7079 0.336423,0 1.225793,-0.73761 1.97639,-1.63912 z m 28.426192,-7.47913 c -2.35417,-1.87148 -5.110292,-6.75448 -7.201126,-12.75824 -1.879621,-5.39723 -4.744235,-9.58034 -7.451804,-10.88167 l -2.181121,-1.04831 1.409535,1.48126 c 2.116335,2.22402 3.790726,5.76031 6.154518,12.99829 1.821191,5.57657 2.544941,6.92107 4.94747,9.19086 1.927108,1.82065 3.377278,2.65874 4.600448,2.65874 h 1.78627 z m 6.85117,-44.928204 c 1.46682,-2.90605 2.16388,-8.547457 1.13067,-9.150752 -0.43386,-0.253311 -0.74252,-0.01413 -0.74252,0.578167 0,1.10052 -2.61733,7.162281 -3.09252,7.162281 -0.87325,0 -3.48031,-1.666441 -5.72051,-3.656561 -2.354787,-2.09193 -2.509637,-2.145249 -2.048447,-0.705223 0.2744,0.856771 0.963947,2.229795 1.532377,3.051146 1.16664,1.685799 5.82791,5.049296 6.99749,5.049296 0.42253,0 1.29706,-1.04777 1.94346,-2.328354 z m -15.679649,-2.48075 c 1.263534,-2.820373 1.119427,-7.078229 -0.492197,-14.543724 -0.837769,-3.880786 -1.26488,-7.675967 -1.074482,-9.547816 0.277769,-2.73114 0.207647,-2.966858 -0.579793,-1.949472 -1.937254,2.503029 -1.981002,6.234104 -0.202911,17.308165 0.86135,5.364757 0.670704,7.429792 -1.10644,11.984173 l -0.486289,1.246208 1.521959,-1.246208 c 0.837071,-0.685417 1.926186,-2.148522 2.420253,-3.251326 z m 27.317739,-5.537901 c -2.59941,-2.066425 -4.97238,-5.897355 -7.29267,-11.773396 -2.22315,-5.630008 -4.79596,-9.892762 -6.75218,-11.187244 -2.23093,-1.476294 -2.7321,-1.149458 -1.15032,0.750157 1.75242,2.104482 2.89423,4.605957 5.04853,11.060189 2.6537,7.950402 6.67321,12.773755 10.64494,12.773755 1.4913,0 1.47432,-0.05534 -0.4983,-1.623461 z M 133.95033,59.62795 c 1.03754,-3.271721 0.52897,-5.985104 -2.59634,-13.851736 -1.38222,-3.479178 -2.73145,-7.726766 -2.9983,-9.43906 -0.37454,-2.40341 -0.60235,-2.829652 -0.9991,-1.869329 -1.02236,2.474533 -0.56314,5.894976 1.76587,13.153249 1.99649,6.221976 2.33448,8.105365 2.13257,11.883 -0.21912,4.098206 -0.14733,4.409898 0.82398,3.579457 0.58518,-0.500309 1.42726,-2.055309 1.87132,-3.455581 z m 15.9475,0.229383 c 0.9756,-2.760932 1.02341,-7.644809 0.0902,-9.220133 -0.54384,-0.91812 -0.73903,-0.629272 -1.10696,1.63818 -0.24579,1.514069 -0.75748,3.515046 -1.13733,4.446614 -0.67668,1.659493 -0.73668,1.675578 -2.96599,0.795586 -1.25142,-0.493997 -3.14849,-1.485572 -4.21569,-2.203512 -2.50942,-1.688155 -2.48634,-0.605086 0.0451,2.118848 1.66833,1.795121 6.46,4.6207 8.02137,4.730022 0.24404,0.01648 0.81506,-1.020425 1.26919,-2.305605 z m 12.46751,-9.50241 c 0,-0.342709 -0.40341,-0.623102 -0.89645,-0.623102 -1.96725,0 -7.13909,-5.302655 -10.61672,-10.885232 -3.50022,-5.618845 -7.63976,-9.835722 -10.30067,-10.493137 -0.91614,-0.226322 -0.46899,0.539897 1.55811,2.669955 1.56363,1.643056 3.83066,4.77213 5.03783,6.953458 5.03746,9.102569 7.20883,11.432524 11.57661,12.422168 2.91577,0.660641 3.64129,0.651857 3.64129,-0.04404 z"
       id="path1" /></g></svg>
