<?xml version="1.0" encoding="UTF-8" standalone="no"?>
<!-- Created with Inkscape (http://www.inkscape.org/) -->

<svg
   width="180mm"
   height="180mm"
   viewBox="0 0 180 180"
   version="1.1"
   id="svg1"
   sodipodi:docname="cornflower.svg"
   inkscape:version="1.4.2 (f4327f4, 2025-05-13)"
   xml:space="preserve"
   xmlns:inkscape="http://www.inkscape.org/namespaces/inkscape"
   xmlns:sodipodi="http://sodipodi.sourceforge.net/DTD/sodipodi-0.dtd"
   xmlns="http://www.w3.org/2000/svg"
   xmlns:svg="http://www.w3.org/2000/svg"><sodipodi:namedview
     id="namedview1"
     pagecolor="#505050"
     bordercolor="#ffffff"
     borderopacity="1"
     inkscape:showpageshadow="0"
     inkscape:pageopacity="0"
     inkscape:pagecheckerboard="1"
     inkscape:deskcolor="#505050"
     inkscape:document-units="mm"
     inkscape:zoom="1"
     inkscape:cx="73"
     inkscape:cy="204"
     inkscape:window-width="2560"
     inkscape:window-height="1351"
     inkscape:window-x="-9"
     inkscape:window-y="-9"
     inkscape:window-maximized="1"
     inkscape:current-layer="layer1"
     showguides="true" /><defs
     id="defs1"><rect
       x="101.82338"
       y="91.923881"
       width="384.66609"
       height="299.81327"
       id="rect3" /><rect
       x="2.8284271"
       y="2.1213203"
       width="662.55905"
       height="647.0027"
       id="rect2" /></defs><g
     inkscape:label="Icon"
     inkscape:groupmode="layer"
     id="layer1"><path
       style="fill:#000000;stroke-width:4.34197"
       d="m 87.127762,172.0631 c -0.916226,-1.78048 -2.255767,-5.43872 -2.976779,-8.12946 -0.720968,-2.69073 -1.695693,-4.89227 -2.165982,-4.89227 -0.470332,0 -1.695346,1.4245 -2.722286,3.16557 -1.02694,1.7411 -3.229061,4.44702 -4.893641,6.01323 -2.546529,2.3961 -3.195868,2.57866 -4.09502,1.15115 -2.572312,-4.084 -0.127832,-21.72095 5.086428,-36.69924 4.11426,-11.8182 9.988822,-24.33668 11.09766,-23.64862 0.508162,0.31543 1.24395,3.02174 1.635114,6.01428 1.343918,10.28192 2.421341,10.74553 3.950333,1.69986 0.775871,-4.59012 1.831627,-8.34564 2.346115,-8.34564 1.039165,0 10.206096,21.50694 13.002046,30.50476 3.85197,12.39627 5.30405,27.05617 3.0215,30.50475 -0.95462,1.44226 -1.75432,1.06297 -4.85507,-2.30282 -2.04175,-2.21625 -4.51817,-5.27749 -5.50317,-6.8028 -1.771951,-2.74399 -1.820401,-2.68316 -4.586021,5.75619 -3.135548,9.56824 -5.597578,11.34249 -8.341227,6.01106 z M 46.580463,152.13463 c 0.370061,-4.43184 0.361394,-8.05788 -0.02167,-8.05788 -0.380894,0 -2.801455,1.24073 -5.379183,2.75716 -2.577729,1.5164 -5.976611,2.9409 -7.553052,3.16557 -4.075564,0.58082 -4.331748,-3.895 -0.623773,-10.89685 3.766603,-7.11252 3.68752,-7.74942 -0.801784,-6.45674 -5.86035,1.68751 -12.332555,1.36338 -12.332555,-0.61754 0,-2.53972 7.39909,-9.46247 16.275522,-15.22771 12.511734,-8.12637 34.86158,-17.596706 37.56662,-15.91816 0.658482,0.40853 -0.824534,3.22969 -3.452658,6.5679 -2.533832,3.21839 -4.340977,6.11865 -4.015982,6.445 0.324995,0.3263 3.006895,-1.29643 5.959624,-3.60617 8.04544,-6.29337 8.536399,-5.90851 5.132924,4.02366 -7.145595,20.85268 -23.178496,45.87961 -29.391616,45.87961 -1.822094,0 -1.966218,-0.85109 -1.364458,-8.05785 z m 79.696997,3.69618 c -5.61864,-6.24421 -10.58486,-13.75674 -15.20755,-23.00484 -5.52547,-11.05409 -11.177091,-26.73627 -9.6354,-26.73627 0.68786,0 3.77046,1.85714 6.8502,4.12698 3.07978,2.26985 5.59953,3.75622 5.59953,3.30306 0,-0.45313 -1.80576,-3.34748 -4.01278,-6.43186 -2.20702,-3.08439 -4.01277,-5.90694 -4.01277,-6.27236 0,-2.359123 22.63272,6.43473 34.5573,13.42704 4.21201,2.46985 10.542,7.13689 14.06668,10.3712 9.43512,8.65789 8.53752,10.94066 -3.33687,8.48643 -3.78346,-0.78199 -6.98384,-1.33279 -7.11189,-1.22407 -0.12826,0.10877 1.29075,3.23035 3.15293,6.93693 5.977,11.89725 3.99575,13.686 -8.27207,7.46833 -5.88379,-2.9821 -6.87182,-3.21265 -6.1668,-1.43891 0.46176,1.16168 1.12137,5.09067 1.46573,8.73107 0.57554,6.08332 0.43857,6.61894 -1.69266,6.61894 -1.27537,0 -4.08497,-1.96273 -6.24358,-4.36167 z M 10.270099,109.77853 c -0.8694704,-1.4125 6.508951,-9.03484 9.743472,-10.065564 3.670751,-1.169773 2.409598,-2.388795 -4.710647,-4.553312 -3.77332,-1.147062 -7.6469534,-2.957997 -8.6080714,-4.02431 -1.571068,-1.742977 -1.543985,-2.121619 0.268229,-3.749129 1.108622,-0.995657 5.0791044,-2.698782 8.8233044,-3.784717 l 6.807686,-1.974347 -3.368158,-2.417249 C 13.44339,75.059856 9.3636226,70.491056 10.211079,69.114364 c 1.076339,-1.748546 17.14226,-0.636769 26.144443,1.809282 8.678226,2.357992 29.182535,10.405395 32.547487,12.774046 3.527623,2.483118 2.245194,3.957788 -3.526366,4.054983 -2.642727,0.04438 -5.836863,0.503158 -7.098016,1.019195 -2.533659,1.036815 -2.972228,0.859829 7.808671,3.151299 2.403055,0.510728 4.394622,1.446651 4.425735,2.079765 0.07713,1.570124 -18.009649,9.301146 -29.975306,12.812676 -10.873241,3.19098 -29.032909,4.96863 -30.267542,2.96292 z m 133.996641,-1.8956 c -15.20767,-3.9765 -34.96852,-12.122227 -34.96852,-14.41461 0,-0.578034 2.45067,-1.385307 5.44591,-1.793881 2.99528,-0.408531 6.4778,-1.034944 7.73895,-1.391963 l 2.29303,-0.649124 -2.29303,-0.899899 c -1.26115,-0.494936 -3.92758,-0.936271 -5.92539,-0.980778 -4.21952,-0.09398 -7.25947,-1.091852 -7.25947,-2.382922 0,-1.653875 24.06651,-11.516302 35.17136,-14.413172 11.10867,-2.897914 24.87649,-3.799118 26.16095,-1.712436 0.764,1.241168 -2.34473,4.626317 -8.58458,9.347957 l -3.97404,3.007074 6.28228,1.834472 c 13.04624,3.809603 13.43247,7.593842 1.19377,11.696682 l -7.22091,2.420686 4.43493,3.290004 c 5.19787,3.85598 7.30124,6.26048 7.30124,8.34651 0,2.45392 -14.16132,1.73775 -25.79648,-1.3046 z M 82.928483,102.98691 C 74.519482,98.633905 72.478775,86.359624 79.023736,79.500702 c 6.704382,-7.026032 16.766043,-6.903124 22.784654,0.278445 2.3283,2.778183 2.9038,4.705413 2.9038,9.724597 0,5.470918 -0.47453,6.779652 -3.76556,10.385208 -4.702761,5.152268 -11.719316,6.358718 -18.018147,3.098088 z M 61.718069,75.157877 C 48.270869,69.438665 42.492766,66.436943 34.618273,61.079535 25.968298,55.194517 19.870486,49.29027 19.870486,46.799973 c 0,-1.835778 0.84282,-1.960643 8.52093,-1.262051 l 8.52093,0.775251 -3.34086,-6.084323 c -6.177154,-11.249692 -3.598341,-14.096398 7.601758,-8.391369 3.102096,1.580174 5.991126,2.87516 6.420076,2.877814 0.428993,0.0027 0.299862,-1.67528 -0.286862,-3.728724 -1.617564,-5.662871 -1.353321,-12.382178 0.486972,-12.382178 2.419564,0 12.471912,11.319215 17.090261,19.244102 6.97716,11.972517 15.866157,33.976181 14.343318,35.505191 -0.417726,0.419407 -2.980072,-1.028506 -5.694601,-3.217038 -8.953649,-7.218768 -9.551249,-6.669231 -2.72558,2.506351 2.875207,3.865118 3.820985,7.005062 2.0895,6.937191 -0.472932,-0.0174 -5.503244,-2.008588 -11.178476,-4.422313 z m 44.771191,3.397984 c -0.31069,-0.504464 1.48428,-3.67434 3.98847,-7.044218 2.50415,-3.369878 4.55305,-6.31069 4.55305,-6.535186 0,-0.763417 -3.99974,1.74698 -8.44878,5.302807 -2.4398,1.949983 -4.87532,3.27277 -5.41229,2.939594 -2.569891,-1.594662 12.08733,-33.189879 20.64787,-44.50879 5.63094,-7.445266 8.69586,-10.105675 11.64235,-10.105675 1.4048,0 0.94235,8.813082 -0.77518,14.773584 -0.76738,2.663107 -0.71581,2.655493 5.85194,-0.863353 7.67686,-4.113108 12.03586,-4.623706 12.03586,-1.409931 0,1.177125 -1.5478,5.05238 -3.43953,8.611688 -1.89173,3.559307 -3.43953,6.685677 -3.43953,6.947545 0,0.261913 1.93472,0.02611 4.29942,-0.526347 6.68883,-1.559552 12.89822,-1.313172 12.89822,0.511816 0,2.0477 -9.85748,11.271358 -16.70676,15.632543 -12.2348,7.790319 -36.47534,18.255536 -37.69511,16.273923 z M 81.628937,62.634823 C 74.364048,46.491291 70.031954,31.339761 69.422351,19.941972 68.849407,9.230375 68.856643,9.1941772 71.494517,9.581868 c 1.652187,0.2427691 3.975163,2.420599 6.180664,5.794218 1.943469,2.97279 3.883904,5.433328 4.312074,5.467829 0.428126,0.03481 1.566301,-2.656798 2.529152,-5.980646 3.567619,-12.3158299 7.335738,-13.159213 10.584642,-2.369043 1.1072,3.677168 2.3615,7.106259 2.78738,7.620208 0.42596,0.513948 2.674491,-1.72105 4.996901,-4.966716 11.80901,-16.5033787 11.4604,7.445266 -0.55301,37.990354 -3.112541,7.913967 -6.114411,15.102889 -6.670761,15.975422 -1.629089,2.554731 -3.549981,0.349361 -3.696619,-4.244325 -0.07453,-2.336848 -0.493689,-5.80279 -0.931305,-7.702175 l -0.795587,-3.453368 -0.727122,3.453368 c -0.39996,1.899385 -1.058052,5.654909 -1.462519,8.345643 -0.404727,2.690777 -1.22757,4.892275 -1.829114,4.892275 -0.6015,0 -2.667167,-3.496527 -4.590356,-7.770089 z"
       id="path1" /></g></svg>
