<?xml version="1.0" encoding="UTF-8" standalone="no"?>
<!-- Created with Inkscape (http://www.inkscape.org/) -->

<svg
   width="180mm"
   height="180mm"
   viewBox="0 0 180 180"
   version="1.1"
   id="svg1"
   sodipodi:docname="daffodil.svg"
   inkscape:version="1.4.2 (f4327f4, 2025-05-13)"
   xml:space="preserve"
   xmlns:inkscape="http://www.inkscape.org/namespaces/inkscape"
   xmlns:sodipodi="http://sodipodi.sourceforge.net/DTD/sodipodi-0.dtd"
   xmlns="http://www.w3.org/2000/svg"
   xmlns:svg="http://www.w3.org/2000/svg"><sodipodi:namedview
     id="namedview1"
     pagecolor="#505050"
     bordercolor="#ffffff"
     borderopacity="1"
     inkscape:showpageshadow="0"
     inkscape:pageopacity="0"
     inkscape:pagecheckerboard="1"
     inkscape:deskcolor="#505050"
     inkscape:document-units="mm"
     inkscape:zoom="1"
     inkscape:cx="73"
     inkscape:cy="204"
     inkscape:window-width="2560"
     inkscape:window-height="1351"
     inkscape:window-x="-9"
     inkscape:window-y="-9"
     inkscape:window-maximized="1"
     inkscape:current-layer="layer1"
     showguides="true" /><defs
     id="defs1"><rect
       x="101.82338"
       y="91.923881"
       width="384.66609"
       height="299.81327"
       id="rect3" /><rect
       x="2.8284271"
       y="2.1213203"
       width="662.55905"
       height="647.0027"
       id="rect2" /></defs><g
     inkscape:label="Icon"
     inkscape:groupmode="layer"
     id="layer1"><path
       style="fill:#000000;stroke-width:2.33152"
       d="m 78.095964,168.08484 c -8.915391,-7.83614 -11.350806,-10.33902 -13.308886,-13.6775 -5.497385,-9.37296 -5.470204,-17.82417 0.09035,-28.07707 1.256318,-2.3165 2.771345,-4.66354 3.366748,-5.21564 1.002442,-0.92958 0.963629,-1.08565 -0.524395,-2.1093 -1.242521,-0.85478 -1.792087,-0.95354 -2.423529,-0.4355 -1.660684,1.36236 -6.04634,9.28923 -7.640164,13.80926 -1.580055,4.48091 -1.75666,4.70714 -4.532254,5.80566 -8.419833,3.33242 -18.733228,3.53685 -31.118239,0.61677 -3.888851,-0.91688 -9.486056,-2.08338 -12.4382803,-2.59224 -2.9521996,-0.50885 -5.4750652,-1.01535 -5.6064179,-1.12556 -0.5883784,-0.49377 6.2319292,-21.35702 8.2753722,-25.31421 3.914047,-7.57964 9.38565,-12.646758 17.282769,-16.005046 3.87073,-1.646072 4.844667,-1.666465 11.341568,-0.237443 5.32755,1.171799 8.754132,1.43528 8.754132,0.673116 0,-1.246556 -2.09913,-2.364578 -6.060542,-3.227935 C 37.182109,89.583458 25.966346,84.823289 21.980629,81.815985 15.729789,77.099624 11.162412,70.055976 8.7600317,61.427684 8.1803328,59.345661 6.9486528,55.099169 6.02292,51.991039 3.4716764,43.425058 3.4177201,43.653773 8.2010243,42.75586 10.423236,42.338712 15.423179,41.355779 19.31203,40.571563 c 8.350861,-1.684018 19.559166,-2.28746 24.971901,-1.344462 2.054158,0.357874 5.598859,1.39047 7.877089,2.294658 3.304697,1.311571 4.224194,1.964883 4.54755,3.231053 1.242649,4.865948 5.487256,13.544287 7.962655,16.280079 0.948333,1.048113 1.104094,1.062915 2.143797,0.203761 1.044945,-0.863531 0.983404,-1.170818 -0.905499,-4.520908 C 59.064044,44.574735 59.134696,34.6302 66.135783,24.873258 68.90476,21.014302 70.148834,19.794582 81.328559,9.9779533 l 8.588218,-7.5411152 1.565929,1.5869185 c 0.861265,0.8728036 5.827074,5.3045981 11.035124,9.8484274 8.16714,7.125534 9.8493,8.915554 12.23379,13.018138 4.28636,7.374869 5.40243,13.580754 2.79603,15.547513 -4.49776,3.393952 -11.72331,14.537609 -11.24128,17.337008 0.16466,0.956292 0.76142,0.42933 2.75624,-2.433908 6.01031,-8.626816 14.46946,-15.195243 22.26895,-17.291599 4.86853,-1.308568 17.12219,-1.643062 22.65921,-0.618543 2.40736,0.445442 8.41664,1.530468 13.35393,2.411169 8.29813,1.480201 8.95163,1.689426 8.64297,2.767074 -6.74824,23.558276 -8.13467,27.009456 -13.1299,32.68399 -3.22215,3.660346 -6.25369,5.756274 -12.47335,8.623785 l -4.61639,2.128351 -5.82121,-0.936045 c -3.20164,-0.514829 -7.67974,-0.934357 -9.95134,-0.932285 -3.52071,0.0022 -4.18063,0.165743 -4.47217,1.101254 -0.46779,1.501218 -0.0387,1.728068 3.26819,1.728068 4.21249,0 12.0878,1.393611 17.45523,3.088846 9.69045,3.060666 17.32979,9.2343 21.2799,17.19718 1.71924,3.4658 4.32055,11.07841 8.45055,24.73023 0.33218,1.09807 -0.0255,1.28491 -3.56972,1.87211 -2.1663,0.35876 -6.57443,1.27279 -9.7958,2.03116 -17.1284,4.0324 -26.67191,4.02762 -36.18553,-0.0171 -2.65244,-1.12796 -3.3884,-1.76377 -3.76613,-3.25345 -1.4447,-5.69794 -7.82851,-17.39042 -9.49544,-17.39163 -0.4176,-3.1e-4 -1.10416,0.34816 -1.52569,0.7744 -0.59291,0.59953 -0.15576,1.8468 1.9309,5.50988 5.28812,9.28299 6.60846,17.40521 3.99818,24.5957 -2.51764,6.93536 -5.43329,10.47433 -16.66172,20.22373 -5.751924,4.99429 -10.782028,9.13215 -11.177996,9.19526 -0.395968,0.063 -5.630443,-4.20133 -11.632193,-9.47655 z m 13.200159,-23.43681 c 0.414167,-6.82582 0.905907,-14.14193 1.092743,-16.25797 l 0.339696,-3.84736 -2.795166,0.17407 -2.795141,0.17408 0.123692,5.93371 c 0.1382,6.63449 1.150313,20.68243 1.831384,25.41761 0.746456,5.18987 1.390037,1.80261 2.202919,-11.59419 z M 79.693708,131.77484 c 2.922855,-7.4874 2.997172,-7.84162 1.804406,-8.59888 -0.684201,-0.4344 -1.547045,-0.71525 -1.917409,-0.62415 -1.271943,0.31292 -4.413398,13.30967 -4.321723,17.87978 0.04938,2.46247 0.07229,2.48932 0.718637,0.84768 0.367208,-0.93245 2.039447,-5.20944 3.716089,-9.50443 z m 23.164052,0.0621 c -2.20642,-10.20365 -2.52355,-10.79428 -4.963388,-9.24402 -1.152426,0.73226 -1.031483,1.25935 2.356878,10.27201 2.9498,7.84617 3.60773,9.13913 3.77897,7.42652 0.11402,-1.14048 -0.41356,-4.94502 -1.17246,-8.45451 z m -54.029791,-6.50633 c 7.252774,-4.85278 13.581213,-9.40141 13.581213,-9.76167 0,-0.21231 -0.72701,-0.66406 -1.615558,-1.00382 -1.497492,-0.5726 -1.98119,-0.27981 -6.618888,4.00638 -10.420366,9.63057 -11.299675,10.74216 -5.346767,6.75911 z m 80.399181,-3.40652 c -3.30571,-3.03044 -7.11917,-6.52708 -8.4744,-7.77033 -2.37911,-2.18255 -2.49866,-2.22265 -3.46806,-1.1635 -0.55221,0.60332 -1.00405,1.28475 -1.00405,1.51425 0,0.98726 16.93775,12.87478 18.40091,12.91441 0.3058,0.009 -2.14868,-2.46439 -5.4544,-5.49483 z m -80.285846,-7.87328 c 6.149136,-2.8946 7.047102,-3.50392 6.889992,-4.67536 -0.434654,-3.24129 -1.153901,-3.06407 -11.830865,2.91508 -11.005867,6.16335 -22.668245,13.24671 -22.668245,13.76794 0,0.37207 17.220999,-7.11761 27.609118,-12.00766 z M 158.3866,125.76426 c -0.5162,-0.70096 -20.32697,-12.34468 -28.85729,-16.96083 l -6.61644,-3.58045 -1.80098,1.5299 c -1.77941,1.51158 -1.78483,1.54003 -0.45417,2.37654 2.70383,1.69975 36.40496,16.93877 37.91811,17.14587 0.11453,0.0149 0.0293,-0.21429 -0.18935,-0.51103 z m -65.148049,-5.42285 c 1.376981,-0.48198 3.412687,-1.5941 4.523782,-2.47139 1.497968,-1.18274 2.940697,-1.68042 5.581117,-1.92518 6.56185,-0.6083 10.91701,-3.73338 10.91701,-7.83356 0,-1.57204 0.53404,-2.28694 3.00117,-4.01761 3.99587,-2.80306 5.3503,-7.127036 3.04428,-9.718939 -1.34127,-1.507536 -1.34217,-4.247875 -0.002,-7.58517 1.87938,-4.681867 1.1463,-7.107467 -3.03451,-10.040272 -1.6956,-1.189422 -3.00844,-2.596789 -3.00844,-3.225055 0,-3.927948 -5.4067,-8.252934 -10.31708,-8.252934 -3.24155,0 -5.018423,-0.640482 -8.448108,-3.04515 -2.456693,-1.722494 -3.415715,-2.040887 -6.147203,-2.040887 -2.035477,0 -4.573028,0.522198 -6.838557,1.40728 -2.433175,0.95057 -4.786968,1.409056 -7.252951,1.412772 -3.435949,0.0043 -3.818988,0.152927 -6.510287,2.510031 -1.572725,1.377485 -3.77511,2.901855 -4.894144,3.387465 -2.367512,1.027439 -4.136516,2.942865 -4.136516,4.478918 0,0.592661 -1.363644,2.143217 -3.030283,3.445712 -2.643325,2.065791 -3.030258,2.665116 -3.030258,4.693636 0,1.279002 0.283601,2.951451 0.630219,3.716562 0.453157,1.000249 0.364587,1.685393 -0.315288,2.438521 -1.272427,1.40961 -1.227048,3.618079 0.107145,5.216735 0.940061,1.126329 0.975362,1.618369 0.248657,3.466192 -1.140362,2.899779 -0.457814,4.745663 2.72202,7.361353 1.588097,1.30636 2.667682,2.72433 2.667682,3.50383 0,1.85708 1.60492,3.54573 4.181869,4.40004 1.218446,0.40394 3.455037,1.83766 4.970192,3.18602 2.59222,2.30688 2.97055,2.45159 6.409273,2.45159 2.848868,0 4.236639,0.332 6.295582,1.50613 4.257969,2.42812 7.842754,2.91159 11.666044,1.57336 z m -11.372974,-6.52664 c -1.778879,-1.39453 -2.667046,-1.69212 -4.510901,-1.51146 -1.949401,0.19094 -2.564427,-0.0575 -4.07528,-1.64659 -1.343334,-1.41286 -2.303961,-1.87151 -3.919825,-1.87151 -1.876,-2e-5 -4.256822,-1.17225 -4.256822,-2.09592 0,-0.17577 2.46733,-2.31928 5.482929,-4.76311 3.137102,-2.542279 5.020763,-4.443311 4.402708,-4.443311 -0.594105,0 -3.440225,0.632523 -6.324673,1.405574 -2.884449,0.773085 -5.915598,1.408817 -6.735887,1.412797 -2.15441,0.0102 -2.982283,-1.644196 -2.070345,-4.137838 0.628693,-1.719075 0.554376,-2.366071 -0.451934,-3.934229 -1.145936,-1.785695 -1.147769,-1.968718 -0.03793,-3.769789 1.006056,-1.63268 1.050035,-2.188966 0.319945,-4.045464 -0.682242,-1.734796 -0.680308,-2.320557 0.01023,-3.018495 1.179099,-1.192285 1.940799,-1.111315 7.743419,0.823099 2.786717,0.928997 5.818731,1.636866 6.737821,1.573025 l 1.671043,-0.115978 -1.83818,-1.699767 c -1.011019,-0.93487 -2.779514,-2.481281 -3.930031,-3.436463 -1.150491,-0.955162 -2.410779,-2.236832 -2.800638,-2.848139 -1.016517,-1.593957 0.470081,-3.073302 3.088311,-3.073302 1.148278,0 2.408336,-0.317881 2.800181,-0.706396 0.391846,-0.388515 1.291363,-1.296686 1.998954,-2.018161 0.997047,-1.016589 1.760173,-1.249121 3.391359,-1.033377 1.649256,0.218137 2.589725,-0.07902 4.345367,-1.37253 2.556715,-1.88388 4.095692,-2.087684 4.998493,-0.661971 0.714896,1.129021 0.555064,8.963602 -0.21328,10.454631 -0.300985,0.584033 -0.221425,0.98895 0.194446,0.98895 0.38729,0 0.901733,-1.20794 1.143188,-2.684296 1.219819,-7.458561 1.366214,-7.87952 2.994676,-8.610927 0.980301,-0.440266 1.690335,-0.203548 3.39258,1.130836 1.670075,1.309245 2.778547,1.688447 4.943489,1.691224 2.39299,0.0022 2.95419,0.244685 3.93785,1.695346 0.70342,1.037413 1.74526,1.725077 2.69356,1.777855 0.85055,0.04742 1.84949,0.145239 2.21985,0.217366 0.37037,0.07219 1.05217,0.160619 1.51513,0.196501 0.46295,0.03588 0.84174,0.656758 0.84174,1.379793 0,0.899265 -1.37448,2.359046 -4.35054,4.620503 -2.3928,1.818245 -4.52703,3.691872 -4.74273,4.163599 -0.31771,0.694777 -0.15398,0.67673 0.86218,-0.09505 1.33794,-1.016139 8.3573,-3.222343 10.25234,-3.222343 0.62534,0 1.66265,0.487448 2.30513,1.083228 0.91578,0.849221 1.01104,1.329514 0.44104,2.223312 -1.0359,1.62437 -0.90074,3.292143 0.40203,4.960726 1.06256,1.360912 1.05624,1.559611 -0.10715,3.372496 -1.09356,1.704103 -1.13454,2.184883 -0.35512,4.166828 0.71357,1.814439 0.71825,2.405136 0.0255,3.106441 -1.17389,1.187026 -1.89292,1.111516 -7.53732,-0.79161 -2.70392,-0.911678 -5.05975,-1.537185 -5.23513,-1.390003 -0.32572,0.273327 1.50773,1.711424 5.23946,4.109709 3.69952,2.37754 3.54124,4.88044 -0.34728,5.49263 -1.55692,0.2451 -2.58978,0.82003 -3.07335,1.71072 -0.40059,0.73783 -1.00062,1.34153 -1.3334,1.34153 -0.33277,0 -0.41778,0.2543 -0.18885,0.56511 0.2288,0.31081 -0.20768,0.59691 -0.97034,0.63576 -0.7626,0.0388 -1.99661,0.10253 -2.74229,0.14119 -0.745633,0.0389 -2.276131,0.89712 -3.401102,1.90727 -2.159576,1.9392 -3.570483,2.29755 -4.450022,1.13023 -0.292739,-0.38852 -1.051334,-2.84109 -1.685728,-5.45016 -0.63442,-2.60905 -1.397621,-4.94511 -1.696035,-5.19121 -0.298388,-0.24609 -0.613117,1.08235 -0.699371,2.95212 -0.207681,4.50256 -1.28332,7.68147 -2.834896,8.37833 -1.011477,0.45428 -1.702983,0.22175 -3.47751,-1.16937 z M 85.6992,95.081128 c -0.47698,-2.540673 -2.714029,-6.640775 -4.003611,-7.337837 -1.300627,-0.703043 -2.373366,-0.480827 -3.087955,0.639693 -0.562266,0.881666 -0.08781,1.697823 2.669895,4.592951 1.844492,1.936419 3.35364,3.742665 3.35364,4.013853 0,0.27121 0.341757,0.493081 0.759461,0.493081 0.515282,0 0.614492,-0.772191 0.30857,-2.401741 z m 4.91066,-1.859693 c 0.979792,-5.528487 0.959634,-9.468865 -0.05269,-10.318536 -1.38319,-1.160781 -3.867904,-0.800908 -4.66997,0.676366 -0.584459,1.0765 -0.349749,2.642156 1.143696,7.629048 1.033518,3.451005 2.091673,6.274567 2.351451,6.274567 0.259806,0 0.812247,-1.917656 1.227634,-4.261445 z m 2.102032,3.107006 c 0,-0.324126 1.363619,-1.812741 3.030258,-3.30802 3.251357,-2.917037 3.657655,-4.004024 1.943068,-5.19821 -0.93607,-0.651952 -1.30735,-0.542468 -2.670511,0.787474 -0.87081,0.849606 -1.914737,2.621442 -2.319842,3.937458 -0.40508,1.315993 -0.890432,2.837753 -1.078516,3.38168 -0.188083,0.543915 -0.01782,0.988947 0.376779,0.988947 0.395305,0 0.718764,-0.265191 0.718764,-0.589329 z M 37.02729,106.54046 c 3.404593,-0.92382 7.781061,-1.96209 9.7255,-2.3073 3.510087,-0.62315 4.091085,-1.18192 2.888393,-2.77786 -0.53628,-0.7116 -0.994578,-0.72371 -3.18831,-0.0842 -3.580561,1.04384 -16.36658,6.1466 -16.36658,6.53172 0,0.49425 0.356366,0.42427 6.940997,-1.36237 z m 111.23955,0.74422 c -3.14889,-2.10299 -21.39093,-8.709662 -22.19216,-8.037248 -0.18553,0.155703 -0.41976,0.871778 -0.52035,1.591138 -0.16671,1.19151 0.32667,1.42462 5.54099,2.61872 3.14812,0.72092 8.29957,2.06834 11.44766,2.99425 6.58761,1.93752 7.59757,2.08453 5.72386,0.83314 z m -10.1009,-30.964777 c 12.01147,-4.888513 15.18559,-7.103302 5.68318,-3.965475 -2.385,0.787559 -7.51818,2.211456 -11.40703,3.164204 -3.88883,0.952768 -7.28647,1.843276 -7.55027,1.978946 -0.26381,0.135628 -0.13108,0.888886 0.29518,1.673817 1.00992,1.860129 1.86223,1.672877 12.97894,-2.851492 z m -88.325551,1.851009 c 0.509072,-1.633727 0.153979,-2.002591 -2.3767,-2.469065 -1.174567,-0.216492 -5.266061,-1.380412 -9.0922,-2.586495 -8.067538,-2.543029 -9.704069,-2.739102 -5.928323,-0.710197 2.633069,1.414884 15.743055,6.92391 16.587954,6.970536 0.234659,0.01281 0.598737,-0.529205 0.809269,-1.204779 z m 78.142281,-6.241907 c 17.29013,-10.632227 30.77144,-19.236896 30.49838,-19.466049 -0.40854,-0.342863 -4.22368,1.279986 -13.91788,5.920283 -7.35552,3.520851 -23.86172,12.146473 -25.20966,13.173762 -0.66534,0.507077 2.03849,3.321297 3.19105,3.321297 0.35308,0 2.80026,-1.327186 5.43811,-2.949293 z M 56.348641,70.297158 c 0,-1.140276 -4.351247,-3.632408 -17.844933,-10.220453 -9.761564,-4.765914 -17.170377,-7.992365 -17.574261,-7.653415 -0.280649,0.235512 14.029076,9.285177 25.991676,16.437496 6.534543,3.906953 7.159978,4.160139 8.249082,3.33956 0.648137,-0.488346 1.178436,-1.344785 1.178436,-1.903188 z m 66.843829,-6.780187 c 2.45074,-2.674365 5.98903,-6.27025 7.86286,-7.990842 1.87382,-1.7206 3.40694,-3.29923 3.40694,-3.508075 0,-0.770513 -6.35947,3.488063 -12.6142,8.447016 l -6.43936,5.105325 1.16668,1.893299 c 0.64167,1.041321 1.39044,1.673367 1.66394,1.404547 0.2735,-0.26882 2.5024,-2.676885 4.95314,-5.35127 z m -61.823372,2.013013 c 1.267312,-0.804218 1.178717,-0.953986 -2.356873,-3.983972 -4.187749,-3.588922 -13.449198,-10.016329 -13.894414,-9.64269 -0.163142,0.136866 0.948384,1.356966 2.469927,2.711346 1.521543,1.354376 4.770171,4.560487 7.219152,7.124704 2.449006,2.564197 4.631081,4.654101 4.849069,4.644213 0.217862,-0.01064 0.988903,-0.394004 1.713139,-0.853601 z m 39.276412,-8.028988 c 1.97495,-5.659847 4.26035,-18.352157 3.43001,-19.049001 -0.20131,-0.168884 -1.22742,2.172573 -2.28042,5.203243 -1.05295,3.03067 -2.618379,7.105502 -3.478672,9.055182 -1.874423,4.248001 -1.930569,5.138979 -0.385743,6.123103 1.715438,1.092796 1.900163,1.002106 2.714825,-1.332527 z m -19.158467,0.168735 c 1.176502,-0.74826 1.068641,-1.212235 -2.356873,-10.137883 -3.507517,-9.139297 -5.145855,-11.804378 -4.293625,-6.984416 1.326766,7.503816 4.055759,17.939973 4.687099,17.924446 0.40177,-0.01064 1.285281,-0.370852 1.963399,-0.802147 z M 92.39556,51.849739 C 92.204167,49.440934 91.702909,42.278145 91.281489,35.932429 90.86007,29.586712 90.293605,23.737769 90.022678,22.934775 89.58408,21.634822 89.482606,21.753535 89.096971,24.017806 88.279838,28.8158 87.330207,42.387314 87.327484,49.30672 l -0.0025,6.922665 h 2.70932 2.709345 z"
       id="path1" /></g></svg>
