<?xml version="1.0" encoding="UTF-8" standalone="no"?>
<!-- Created with Inkscape (http://www.inkscape.org/) -->

<svg
   width="180mm"
   height="180mm"
   viewBox="0 0 180 180"
   version="1.1"
   id="svg1"
   sodipodi:docname="dwarf_furze.svg"
   inkscape:version="1.4.2 (f4327f4, 2025-05-13)"
   xml:space="preserve"
   xmlns:inkscape="http://www.inkscape.org/namespaces/inkscape"
   xmlns:sodipodi="http://sodipodi.sourceforge.net/DTD/sodipodi-0.dtd"
   xmlns="http://www.w3.org/2000/svg"
   xmlns:svg="http://www.w3.org/2000/svg"><sodipodi:namedview
     id="namedview1"
     pagecolor="#505050"
     bordercolor="#ffffff"
     borderopacity="1"
     inkscape:showpageshadow="0"
     inkscape:pageopacity="0"
     inkscape:pagecheckerboard="1"
     inkscape:deskcolor="#505050"
     inkscape:document-units="mm"
     inkscape:zoom="1"
     inkscape:cx="73"
     inkscape:cy="204"
     inkscape:window-width="2560"
     inkscape:window-height="1351"
     inkscape:window-x="-9"
     inkscape:window-y="-9"
     inkscape:window-maximized="1"
     inkscape:current-layer="layer1"
     showguides="true" /><defs
     id="defs1"><rect
       x="101.82338"
       y="91.923881"
       width="384.66609"
       height="299.81327"
       id="rect3" /><rect
       x="2.8284271"
       y="2.1213203"
       width="662.55905"
       height="647.0027"
       id="rect2" /></defs><g
     inkscape:label="Icon"
     inkscape:groupmode="layer"
     id="layer1"><path
       style="fill:#000000;stroke-width:4.0418"
       d="m 86.365666,172.23707 c -2.620653,-8.07478 -3.42483,-9.23737 -9.006159,-13.0201 l -5.871951,-3.97972 -4.612766,2.50035 c -5.598281,3.03455 -6.999659,2.05242 -3.269589,-2.29141 l 2.758675,-3.21258 -3.509931,-3.43829 c -2.084982,-2.04243 -5.228526,-3.76224 -7.743186,-4.23625 -3.925068,-0.73985 -4.505432,-0.5015 -7.9709,3.27397 -5.095938,5.55176 -6.795935,5.32178 -4.108357,-0.55581 1.163829,-2.54521 1.970378,-4.77733 1.792293,-4.96022 -0.177932,-0.18272 -3.96846,-1.4631 -8.423154,-2.84491 -10.473084,-3.24874 -15.692618,-5.59471 -15.692618,-7.05325 0,-1.15973 9.308567,-0.55491 14.701441,0.95524 2.450604,0.68623 2.488027,0.59568 1.861514,-4.50393 -0.797327,-6.49026 0.703884,-6.81084 3.182001,-0.67949 2.385629,5.90244 3.114615,6.48015 9.339714,7.40144 l 5.242034,0.77585 -3.387675,-10.58567 -3.387636,-10.58563 -5.313513,-2.69007 -5.313474,-2.69007 -4.439578,2.40647 c -5.730027,3.10593 -5.945842,3.04902 -3.423606,-0.90294 2.386586,-3.7394 2.484583,-3.61324 -5.343015,-6.88072 -3.171898,-1.3241 -5.552056,-2.79557 -5.289252,-3.27 0.585186,-1.05638 10.846857,0.43511 18.786533,2.7305 3.221031,0.93124 6.3552,1.69312 6.964799,1.69312 0.609638,0 -0.120535,-2.79565 -1.622588,-6.212587 l -2.730971,-6.212595 -5.610525,-0.04995 -5.610564,-0.04995 3.888831,-2.288935 c 3.738718,-2.200648 3.821255,-2.37227 2.138209,-4.447148 -1.43046,-1.763524 -1.517206,-2.471871 -0.474448,-3.873708 1.721082,-2.313696 3.392458,-2.15834 5.562503,0.516959 2.358079,2.907116 3.068353,2.278177 5.087711,-4.504868 1.882369,-6.323037 3.901994,-7.592486 3.123723,-1.963451 -2.193349,15.864075 -1.837484,18.355414 2.041245,14.289933 2.749223,-2.881587 2.819401,-2.686398 1.383431,3.847623 -0.860694,3.91627 -0.699177,5.713607 0.933054,10.383857 l 1.973898,5.64778 2.610437,-6.52719 c 3.08232,-7.707025 3.089361,-7.812005 0.945642,-14.074719 -1.915889,-5.597015 -1.041381,-7.684957 1.661121,-3.966008 1.015782,1.397824 2.070097,2.541502 2.342964,2.541502 0.272829,0 1.042835,-2.543081 1.711171,-5.651277 2.432237,-11.311777 4.733339,-6.880938 3.125292,6.017874 -0.572061,4.589013 -1.477984,9.628471 -2.013082,11.198808 -0.923448,2.7098 -0.763539,2.89248 3.141899,3.58925 4.711949,0.84065 4.416734,1.6159 -1.537908,4.03846 -7.219184,2.93709 -10.023892,12.53593 -6.408847,21.93373 l 1.698735,4.41616 2.511254,-2.63214 c 3.314741,-3.47432 4.155385,-2.2433 2.196983,3.2174 -1.527078,4.25815 -1.50278,4.51473 0.632597,6.67956 3.458235,3.50596 10.806143,8.58751 11.422745,7.89953 0.305354,-0.34068 0.06849,-3.55826 -0.526794,-7.15011 -0.595135,-3.59181 -1.082057,-8.62491 -1.082057,-11.1846 0,-3.83592 -0.622877,-5.32754 -3.54349,-8.48582 -4.522269,-4.89025 -4.48454,-5.97121 0.133163,-3.81855 4.283534,1.9968 4.710341,1.6343 6.41738,-5.45045 1.270512,-5.27307 1.250805,-5.36097 -2.468053,-11.01323 -2.061831,-3.133727 -3.464051,-5.697682 -3.115993,-5.697682 0.347829,0 2.452594,1.035835 4.67686,2.301825 4.701962,2.676277 5.459799,2.380507 6.968473,-2.719609 1.661159,-5.615715 0.102932,-9.032405 -4.879129,-10.697737 -5.864796,-1.96042 -6.18274,-3.568758 -0.705491,-3.568758 5.090121,0 5.04493,0.07556 3.549994,-5.930185 -1.191839,-4.788129 -2.643535,-5.223247 -8.42874,-2.526389 -3.964672,1.848225 -4.500611,1.250366 -2.185313,-2.437674 1.422807,-2.266352 1.200985,-2.49881 -5.568357,-5.834683 -3.877581,-1.910854 -7.050206,-4.01156 -7.050206,-4.668292 0,-1.527224 -0.05395,-1.532731 10.098853,1.028366 4.719143,1.190383 8.743929,1.981681 8.944017,1.758444 0.200126,-0.22328 -0.649319,-3.915503 -1.887611,-8.205075 -2.175709,-7.536858 -2.190976,-7.902131 -0.454359,-10.859197 2.070059,-3.524829 2.478193,-3.279178 4.597843,2.767385 l 1.556389,4.439847 3.433249,-2.826001 c 1.8883,-1.554333 3.611563,-2.6271 3.829482,-2.383968 0.21811,0.243344 -0.54673,2.504317 -1.699233,5.024814 -2.358232,5.157287 -2.631367,8.90198 -0.949737,13.019801 1.084506,2.655574 1.273994,2.711885 3.54349,1.052829 2.848636,-2.082434 3.124105,-0.688837 0.8385,4.242354 -1.519961,3.279348 -1.213918,10.558773 0.493427,11.736007 0.401247,0.276645 2.688268,-2.595849 5.082316,-6.383361 4.336875,-6.861171 4.350695,-6.914707 3.770555,-14.635013 -0.66122,-8.799305 0.50728,-10.073877 2.96156,-3.230381 0.89119,2.485063 1.88769,4.518273 2.21435,4.518273 0.32679,0 1.82643,-1.317349 3.33277,-2.927481 l 2.73874,-2.927438 0.67675,3.437694 c 0.57057,2.89845 0.008,4.425417 -3.58459,9.734774 -2.34372,3.463394 -4.07422,6.505802 -3.84555,6.76093 0.22883,0.255298 2.68437,1.628361 5.45716,3.051672 l 5.04137,2.58778 -7.57141,0.589492 -7.57145,0.589449 -4.347213,7.905974 c -2.390987,4.348316 -5.66976,11.718674 -7.286225,16.378644 l -2.939018,8.47266 4.437742,0.61144 c 2.440731,0.33641 4.749142,0.95886 5.129764,1.38356 0.632176,0.70532 -7.783478,5.34714 -9.694431,5.34714 -1.191342,0 -2.049204,3.03349 -2.049204,7.24626 0,4.65826 0.61002,5.29369 3.788003,3.94564 1.412054,-0.59901 2.735142,-0.90187 2.940242,-0.67304 0.2051,0.22883 -0.94304,2.44275 -2.551432,4.91992 l -2.924286,4.50393 2.250708,7.92006 c 3.357789,11.81601 3.436539,11.84278 7.343239,2.49539 2.977398,-7.12377 3.392573,-9.10963 2.863789,-13.69715 -0.691792,-6.00161 0.364283,-6.86202 2.972192,-2.42141 l 1.72893,2.94396 3.49566,-3.78008 c 2.71276,-2.9335 3.42866,-4.5415 3.19654,-7.17983 -0.25446,-2.89038 -0.86796,-3.55654 -4.09573,-4.44612 -4.55544,-1.25553 -4.98681,-2.90712 -0.75933,-2.90712 1.76226,0 3.03151,-0.59269 3.02347,-1.41191 -0.0386,-3.95072 -1.57434,-6.69382 -4.66274,-8.32892 -4.21447,-2.23126 -4.398907,-3.8139 -0.44449,-3.8139 h 2.9784 l -0.60566,-8.059917 c -0.48421,-6.443728 -0.33406,-7.958955 0.74846,-7.556369 0.74479,0.277072 1.8725,2.221312 2.50605,4.320694 1.20829,4.003792 2.90305,5.458732 4.01671,3.448322 0.36237,-0.654037 1.13242,-1.189187 1.7114,-1.189187 0.57899,0 0.18712,1.651967 -0.87095,3.671047 -1.54425,2.94712 -1.74381,4.5064 -1.01184,7.90696 0.9885,4.59238 1.30851,4.78522 5.20063,3.13423 3.09468,-1.31273 3.242,-0.44741 0.57214,3.36072 -2.06768,2.94921 -2.66179,7.33446 -1.13616,8.38643 1.28605,0.88676 9.98834,-6.82381 10.75904,-9.53296 1.26561,-4.4489 -0.5077,-8.98882 -4.65092,-11.90691 -4.89248,-3.44585 -5.0015,-4.374187 -0.41605,-3.544 4.07089,0.73704 3.98694,1.03243 2.02486,-7.123335 -1.95549,-8.128357 -2.01472,-12.031565 -0.1565,-10.310861 0.74923,0.693746 2.1852,3.297536 3.19103,5.786142 2.00291,4.955525 2.66975,5.369552 4.55855,2.830399 2.27125,-3.053294 3.09536,-1.776844 1.53787,2.381961 -1.52008,4.059037 -1.18568,12.278494 0.54822,13.474084 0.44422,0.30653 2.32065,-2.24159 4.16981,-5.66199 3.47201,-6.422083 6.13797,-7.692428 6.71397,-3.199217 0.17296,1.34941 -0.39088,3.975437 -1.25302,5.835617 l -1.56761,3.38215 3.7841,1.34903 c 6.11456,2.17977 5.96502,3.13945 -0.61874,3.97049 -5.713,0.72116 -6.469,1.15508 -9.7172,5.57768 -1.9372,2.63764 -6.71799,7.51487 -10.62396,10.83836 -3.90601,3.32345 -6.77038,6.37192 -6.3653,6.77442 0.40511,0.40259 2.9004,1.04207 5.54513,1.42131 4.72993,0.67825 4.84932,0.6175 7.29908,-3.71212 3.62059,-6.39899 4.77252,-6.7763 3.98859,-1.30642 l -0.65655,4.58086 4.62627,-1.7587 c 4.20918,-1.60014 4.77581,-2.26102 6.28498,-7.3304 1.69441,-5.69162 3.51564,-6.48634 3.51564,-1.5341 0,3.45341 0.87538,3.44521 7.08697,-0.0666 9.22512,-5.21556 9.72654,-2.84935 0.99864,4.71265 l -6.08834,5.27503 2.21512,2.63073 c 1.8078,2.1469 1.91551,2.63069 0.58592,2.63069 -0.89609,0 -2.80758,-0.49984 -4.2478,-1.11076 -1.93441,-0.82059 -3.67875,-0.63753 -6.67628,0.70062 -4.37009,1.95085 -4.48194,2.77955 -1.31318,9.72901 2.03375,4.46034 0.0731,3.90743 -5.13404,-1.44786 -3.87345,-3.98347 -4.94874,-4.51426 -8.58154,-4.23582 -4.00519,0.30695 -4.15515,0.45915 -4.20777,4.27172 -0.0513,3.71886 -0.1389,3.8194 -1.47603,1.69436 -0.78183,-1.24251 -2.02299,-3.17658 -2.75822,-4.29793 -0.73518,-1.12135 -3.07026,-2.47504 -5.18907,-3.00822 -3.76175,-0.94656 -3.92775,-0.85 -7.05985,4.10771 -1.76417,2.7924 -3.20756,5.63868 -3.20756,6.32508 0,0.68641 1.48066,1.67605 3.2904,2.19924 4.60443,1.33118 4.10086,2.59252 -1.51866,3.8037 l -4.80902,1.03647 -1.36243,6.4001 -1.362387,6.4001 -6.100738,0.37739 c -5.726621,0.35392 -6.156949,0.20407 -7.017222,-2.44664 z m 68.754854,-66.1532 c -3.5658,-2.15864 -6.06967,-7.522597 -5.23775,-11.220757 0.55327,-2.459448 0.32984,-2.803205 -1.65978,-2.551279 -3.10784,0.393621 -5.99624,-5.171162 -6.71371,-12.934673 -0.44888,-4.857119 -0.18099,-6.488084 1.42977,-8.706578 2.28549,-3.147601 4.93159,-2.636534 6.20302,1.198025 0.7593,2.290131 0.99926,2.112788 3.26607,-2.41381 2.779,-5.549414 4.97093,-7.463171 7.37106,-6.435616 2.14678,0.919118 2.21057,8.060477 0.12168,13.638068 l -1.5345,4.097414 4.64966,-3.959775 c 4.86734,-4.145144 8.70279,-5.810434 10.51092,-4.563654 0.58848,0.405574 1.06997,2.525919 1.06997,4.711454 0,6.809599 -4.78611,10.699529 -16.45195,13.37137 -3.61615,0.828183 -3.51961,2.779723 0.34018,6.878248 4.34368,4.612273 5.39413,7.040983 3.90888,9.037653 -1.51874,2.04166 -3.73317,1.99722 -7.27364,-0.14601 z m 6.09542,-8.865948 -3.76298,-4.912321 3.13023,-0.698442 c 5.81865,-1.298394 12.78429,-0.779344 14.4477,1.076523 2.15811,2.40779 2.01274,3.504934 -0.8941,6.748041 -4.02187,4.487187 -8.35653,3.744517 -12.92085,-2.213801 z M 9.571309,87.851794 C 6.9650817,86.788847 3.4967445,82.696342 3.4967445,80.684008 c 0,-3.546601 2.6175155,-4.666584 9.9839055,-4.271982 7.116787,0.381241 8.684427,-0.532583 3.213607,-1.8732 -6.124539,-1.500797 -11.9325873,-9.466881 -10.7464496,-14.73948 1.3629983,-6.058944 7.4392076,-4.165807 14.6527296,4.565362 2.388882,2.891449 4.100818,4.328336 3.804341,3.193026 -3.084233,-11.810292 -3.149934,-18.697932 -0.190559,-19.96499 2.418652,-1.035496 6.521844,3.648294 7.935888,9.05883 l 1.341914,5.134533 1.730648,-2.946905 c 1.948988,-3.318711 6.166056,-4.003577 7.144032,-1.1602 1.99548,5.80181 -0.528362,14.490671 -5.409519,18.623391 -1.78376,1.510232 -4.314644,3.924597 -5.624224,5.365241 -4.573238,5.030961 -16.36987,8.383271 -21.7618638,6.18416 z M 121.4359,65.560855 c -1.80676,-2.137379 -3.59932,-5.28323 -3.98346,-6.990827 -0.38414,-1.707597 -1.69323,-4.660651 -2.9091,-6.562326 -1.80958,-2.830314 -2.20601,-4.999114 -2.18523,-11.954719 0.0268,-8.931651 1.98163,-14.724666 5.85948,-17.363506 3.16711,-2.155181 5.75803,2.73511 5.75803,10.868163 v 6.783642 l 4.02418,-4.056216 c 7.27784,-7.335779 12.4479,-6.812246 12.98996,1.315343 0.42796,6.416746 -4.40349,12.486961 -10.68706,13.427254 -2.92605,0.437892 -4.30221,0.223706 -4.30221,-0.669924 0,-0.722564 0.68337,-1.606332 1.51862,-1.963921 0.83525,-0.35776 1.51866,-1.408155 1.51866,-2.334573 0,-1.363414 -0.62379,-1.243791 -3.27311,0.627701 -4.52253,3.194776 -4.53531,4.2304 -0.0834,6.765327 6.99698,3.984238 9.95662,9.967489 6.83446,13.816563 -2.82169,3.478678 -7.2757,2.792104 -11.0797,-1.707981 z M 57.380676,49.615622 c -2.81967,-2.203466 -2.972615,-7.328008 -0.299232,-10.027257 2.105377,-2.125809 9.185851,-4.361507 9.185851,-2.900542 0,0.489379 -0.748578,1.210277 -1.663531,1.601977 -0.914954,0.391913 -1.414695,0.989859 -1.110565,1.329218 0.719497,0.802739 8.84866,-3.81919 8.84866,-5.030962 0,-1.701578 -7.563416,-7.034543 -7.983297,-5.629078 -0.216963,0.726662 0.431973,1.995641 1.442398,2.81994 2.800307,2.284538 0.95318,3.172021 -3.50224,1.682708 -6.465901,-2.161372 -10.800863,-9.322454 -10.031354,-16.571184 0.775057,-7.3006428 6.813499,-6.459566 14.003182,1.950473 3.461717,4.0493 4.784805,5.063109 4.385739,3.360506 -0.880706,-3.757542 0.580059,-12.2425908 2.582695,-15.0018651 2.61698,-3.6057723 6.686957,-2.2193473 8.166319,2.7819003 0.947938,3.2044668 1.509132,3.7081908 3.627979,3.2562528 6.155571,-1.312824 7.619972,8.041307 2.632477,16.815638 -2.951645,5.192765 -7.597817,10.025037 -9.638985,10.025123 -0.620926,0 -2.438818,1.831532 -4.039748,4.070091 -4.707625,6.582648 -12.07501,9.008112 -16.60631,5.467061 z"
       id="path1" /></g></svg>
