<?xml version="1.0" encoding="UTF-8" standalone="no"?>
<!-- Created with Inkscape (http://www.inkscape.org/) -->

<svg
   width="180mm"
   height="180mm"
   viewBox="0 0 180 180"
   version="1.1"
   id="svg1"
   sodipodi:docname="heather.svg"
   inkscape:version="1.4.2 (f4327f4, 2025-05-13)"
   xml:space="preserve"
   xmlns:inkscape="http://www.inkscape.org/namespaces/inkscape"
   xmlns:sodipodi="http://sodipodi.sourceforge.net/DTD/sodipodi-0.dtd"
   xmlns="http://www.w3.org/2000/svg"
   xmlns:svg="http://www.w3.org/2000/svg"><sodipodi:namedview
     id="namedview1"
     pagecolor="#505050"
     bordercolor="#ffffff"
     borderopacity="1"
     inkscape:showpageshadow="0"
     inkscape:pageopacity="0"
     inkscape:pagecheckerboard="1"
     inkscape:deskcolor="#505050"
     inkscape:document-units="mm"
     inkscape:zoom="1"
     inkscape:cx="73"
     inkscape:cy="204"
     inkscape:window-width="2560"
     inkscape:window-height="1351"
     inkscape:window-x="-9"
     inkscape:window-y="-9"
     inkscape:window-maximized="1"
     inkscape:current-layer="layer1"
     showguides="true" /><defs
     id="defs1"><rect
       x="101.82338"
       y="91.923881"
       width="384.66609"
       height="299.81327"
       id="rect3" /><rect
       x="2.8284271"
       y="2.1213203"
       width="662.55905"
       height="647.0027"
       id="rect2" /></defs><g
     inkscape:label="Icon"
     inkscape:groupmode="layer"
     id="layer1"><path
       style="fill:#000000;stroke-width:3.93537"
       d="m 85.572794,170.83549 c -0.850676,-0.4735 -1.856003,-2.50055 -2.234046,-4.50457 -0.76903,-4.07698 -6.231518,-9.9822 -11.082151,-11.98044 -2.63916,-1.08719 -4.297144,-0.89128 -11.694164,1.38161 -12.901415,3.96427 -13.087201,4.00167 -13.841511,2.78787 -1.765202,-2.84054 7.105792,-8.07006 15.333401,-9.0392 5.037051,-0.59328 5.160645,-0.68185 2.799848,-2.00613 -5.75924,-3.2306 -12.835159,-4.58612 -18.430791,-3.53072 -5.16096,0.97338 -14.032388,0.15267 -15.640808,-1.447 -1.23961,-1.23279 2.19419,-2.58728 8.325238,-3.28394 l 5.958087,-0.67703 -3.869891,-2.56813 c -2.128447,-1.41246 -5.561419,-4.18452 -7.628818,-6.16012 -3.008561,-2.87496 -4.296118,-3.45788 -6.450214,-2.92021 -3.717174,0.92785 -7.213166,-0.33595 -6.804856,-2.45997 0.204806,-1.06537 1.677557,-1.92765 3.838915,-2.24766 l 3.506645,-0.51918 -2.057335,-2.51759 -2.057336,-2.51758 -3.260801,2.30919 c -2.615719,1.85236 -3.679292,2.08639 -5.3765,1.18306 -2.437156,-1.29719 -2.493191,-1.5265 -1.034923,-4.23647 0.705694,-1.31137 2.185468,-2.00849 4.263404,-2.00849 5.536557,0 2.80265,-2.55205 -3.33708,-3.11511 -4.8866622,-0.44815 -5.7071111,-0.83892 -5.9951027,-2.85557 -0.2860974,-2.00421 0.1400891,-2.33635 2.9990907,-2.33635 2.844045,0 3.142178,-0.22841 2.032988,-1.55755 -0.714888,-0.85666 -2.129906,-1.55759 -3.144467,-1.55759 -1.0145612,0 -2.9538672,-0.92636 -4.3095349,-2.05861 l -2.464897,-2.058599 2.2931596,-0.64387 2.2931202,-0.64387 -2.6757804,-4.021295 C 2.6869777,88.307449 3.105193,85.054472 6.6104586,86.920145 c 1.2123033,0.645281 2.9632192,2.488505 3.8908854,4.096057 1.458781,2.527868 1.847085,2.70475 2.873365,1.30889 1.909237,-2.596706 3.591648,-0.500189 3.591648,4.475719 0,2.53627 0.469831,4.611439 1.044078,4.611439 0.574247,0 1.044078,-0.88457 1.044078,-1.965669 0,-2.46578 2.994434,-3.75333 3.810462,-1.6384 0.329506,0.85403 0.289255,3.608349 -0.08958,6.120709 -0.813345,5.3942 0.56525,6.8441 2.997432,3.15243 2.926678,-4.44224 5.37654,0.0314 2.51379,4.5913 -0.681977,1.08598 -0.863935,2.77712 -0.417505,3.87977 0.73454,1.81427 0.858569,1.78134 1.725976,-0.4587 0.588296,-1.51929 1.613314,-2.28125 2.766661,-2.05661 1.473974,0.28689 1.832129,1.44355 1.832129,5.91621 0,5.35667 0.187048,5.72323 5.129667,10.04966 6.928806,6.06511 23.582833,14.66844 23.582833,12.18272 0,-0.31828 -1.939346,-4.07247 -4.309653,-8.34294 -3.449664,-6.21506 -5.064358,-8.07406 -8.091703,-9.31576 -5.108477,-2.09538 -10.568636,-6.30568 -10.568636,-8.14945 0,-2.02757 1.400456,-1.89586 6.306139,0.59316 2.274139,1.15383 4.134759,1.67756 4.134759,1.16384 0,-0.51369 -1.181405,-3.50043 -2.625348,-6.63712 -2.329307,-5.06009 -3.046208,-5.77107 -6.357716,-6.30552 -4.491493,-0.72491 -6.678303,-2.35676 -6.678303,-4.983569 0,-2.24714 4.020951,-2.72719 6.038352,-0.72082 2.178879,2.166959 2.452625,0.19858 0.622154,-4.473922 -2.283097,-5.827861 -1.996447,-5.618563 -5.007061,-3.656699 -3.179588,2.071949 -6.20709,1.180243 -5.472905,-1.611908 0.306223,-1.164034 -0.09431,-2.233524 -0.959985,-2.563857 -2.0483,-0.7817 -1.869696,-4.4165 0.256896,-5.228106 0.95809,-0.365772 3.126078,0.125195 4.817762,1.090801 2.91768,1.665361 3.039065,1.661201 2.36127,-0.08124 -0.393038,-1.010347 -0.978966,-3.140223 -1.302118,-4.733097 -0.323191,-1.592874 -0.877589,-2.746037 -1.231995,-2.56264 -5.786863,2.994699 -6.490149,3.175504 -7.694205,1.977994 -0.971468,-0.966156 -0.963182,-1.701585 0.03552,-3.294656 1.052365,-1.675879 1.020282,-2.050834 -0.175605,-2.050834 -1.699457,0 -3.041076,-2.814129 -2.079394,-4.361674 0.361863,-0.582527 2.242884,-0.803364 4.179744,-0.49077 3.797795,0.612943 4.068108,0.187203 2.494177,-3.930165 -0.832721,-2.178227 -1.506727,-2.567821 -3.557079,-2.056054 -3.019411,0.753679 -6.90051,-1.073454 -6.90051,-3.24862 0,-2.222536 2.830273,-2.997014 5.888278,-1.61132 2.288148,1.036877 2.577679,0.955324 2.26897,-0.638923 -0.194547,-1.005127 -1.928613,-2.566958 -3.853317,-3.470791 -5.931293,-2.785322 -6.641564,-7.22745 -0.901306,-5.636931 1.947395,0.539592 1.769107,0.158946 -1.062822,-2.269316 -3.455268,-2.962753 -4.766896,-7.302017 -1.873366,-6.197755 1.239808,0.473188 1.400891,-0.344186 0.898662,-4.561592 -0.508543,-4.27023 -0.3299,-5.138115 1.057771,-5.138115 1.045538,0 2.141152,1.565049 2.930978,4.186872 0.867013,2.878021 1.59816,3.85183 2.338896,3.115145 0.592675,-0.589474 1.453493,-1.071727 1.912906,-1.071727 1.204411,0 1.028254,6.008157 -0.245452,8.375314 -0.745037,1.384517 -0.745037,2.008488 0,2.008488 0.594452,0 1.080817,-0.467262 1.080817,-1.038368 0,-1.368348 2.822223,-1.339032 3.678069,0.03925 0.368178,0.592142 -0.235192,2.811695 -1.340357,4.932309 -1.909118,3.663135 -2.051772,6.451636 -0.330294,6.451636 0.434197,0 1.32465,-1.168155 1.978768,-2.595921 1.442483,-3.148582 5.410438,-3.592807 5.410438,-0.605722 0,1.094608 0.587308,2.233446 1.305117,2.530695 1.708613,0.707604 -2.011601,3.786093 -4.57531,3.786093 -2.758926,0 -3.212578,1.578549 -1.858331,6.465961 l 1.229509,4.437065 1.259578,-3.634329 c 0.971153,-2.80208 1.836035,-3.634329 3.776684,-3.634329 1.840099,0 2.470737,0.532449 2.344854,1.979603 -0.09471,1.0888 0.50878,2.656949 1.341146,3.484763 2.091826,2.080387 0.03157,4.400252 -3.906986,4.400252 -3.326859,0 -3.52401,0.693358 -1.875615,6.597317 l 1.117161,4.001357 1.748272,-3.482173 c 2.25646,-4.494442 6.022647,-4.906446 5.728065,-0.626639 -0.129434,1.882156 0.315299,2.855572 1.305078,2.855572 0.825934,0 1.501716,0.684449 1.501716,1.521015 0,1.799425 -3.158792,3.670867 -6.195924,3.670867 -2.623533,0 -2.636871,0.295914 -0.289649,6.442178 2.38479,6.244806 3.353457,7.170146 3.353457,3.203486 0,-3.584093 2.294935,-6.033863 4.768238,-5.089959 2.060414,0.786331 1.225049,6.067099 -1.585098,10.020068 -1.826328,2.56908 -1.801704,2.81264 0.992541,9.82451 l 2.865275,7.19009 1.207607,-5.60016 c 1.202083,-5.57449 2.663074,-8.33772 4.408347,-8.33772 1.470699,0 1.058482,7.14751 -0.790063,13.69961 -1.681897,5.96146 -1.67069,6.11479 0.781263,10.71155 1.368178,2.56496 2.78363,4.66351 3.145454,4.66351 1.599383,0 3.205436,-9.9424 3.737143,-23.13484 l 0.576654,-14.308589 -4.251211,-1.660804 c -4.169445,-1.628823 -6.00035,-3.764546 -4.834967,-5.639873 0.788405,-1.268664 4.355823,-1.203908 5.162223,0.0938 1.458939,2.34773 2.748588,0.903638 2.086499,-2.336348 -0.412651,-2.019438 -2.123198,-4.561985 -4.2593,-6.330995 -1.963339,-1.625958 -3.569707,-3.845511 -3.569707,-4.932309 0,-2.269591 0.411981,-2.385563 3.200898,-0.901125 2.823604,1.502844 2.515329,0.07261 -0.704747,-3.270088 -2.638213,-2.738658 -2.66481,-5.073516 -0.05761,-5.073516 0.853241,0 1.140167,-1.365365 0.872814,-4.153513 -0.30425,-3.17366 -0.02762,-4.153552 1.165818,-4.153552 1.804268,0 2.831575,2.148988 2.831575,5.92319 0,2.259505 0.231245,2.447375 1.610393,1.308969 1.253264,-1.034444 1.88848,-1.052615 2.864328,-0.08202 0.975889,0.970551 0.850321,1.946597 -0.566275,4.401351 -2.146441,3.719492 -2.468646,6.122912 -0.567341,4.232005 3.757149,-3.736604 5.387273,0.832406 1.879364,5.267587 -2.121067,2.681713 -2.842783,6.985302 -1.171461,6.985302 0.504242,0 1.595319,-1.016391 2.424686,-2.258642 0.989029,-1.481376 2.110768,-2.028621 3.259656,-1.590166 2.56947,0.980599 2.14139,3.562038 -1.119608,6.751554 l -2.871234,2.808359 -0.09352,16.094903 c -0.07577,13.04574 -0.511148,17.56043 -2.298764,23.83067 l -2.205396,7.73573 2.230021,3.94606 c 2.772264,4.90558 3.981607,5.04451 3.218813,0.36969 -0.673612,-4.12839 0.388697,-10.96103 1.704114,-10.96103 1.347381,0 2.997788,5.47795 3.815198,12.66333 0.634426,5.57684 1.285189,7.01179 4.995577,11.01503 4.15228,4.48008 4.284634,4.5373 4.959627,2.14404 0.381595,-1.35233 0.740381,-4.83054 0.7976,-7.72932 0.08721,-4.40909 -0.338581,-5.68195 -2.605499,-7.78785 -4.468408,-4.15143 -7.909588,-10.84584 -7.540186,-14.66859 l 0.330689,-3.42452 2.555304,2.8759 c 1.405389,1.58177 3.806042,5.00578 5.33475,7.60896 l 2.779446,4.73306 0.668797,-3.32562 c 1.231837,-6.12554 0.692514,-8.10436 -3.531823,-12.95849 -4.736669,-5.4429 -7.284396,-10.74349 -7.284396,-15.15548 0,-5.35322 2.741445,-3.26891 8.075208,6.13951 l 3.114358,5.49357 0.669745,-4.85971 c 1.218459,-8.841 0.845546,-12.71026 -1.337003,-13.8719 -3.233414,-1.721009 -5.301878,-4.197539 -5.301878,-6.347789 0,-2.636736 1.903159,-2.537484 4.892147,0.255099 l 2.416517,2.257741 v -4.940239 c 0,-2.717152 -0.352393,-4.769517 -0.783078,-4.560807 -0.430685,0.208788 -2.08788,1.029303 -3.682646,1.823601 -3.619981,1.802996 -6.1331,0.122447 -4.265298,-2.851844 0.859555,-1.368819 0.76682,-2.15099 -0.381595,-3.217851 -1.325006,-1.230988 -1.309458,-1.616029 0.122726,-3.04046 1.490587,-1.482436 1.974743,-1.472232 5.314861,0.111851 l 3.674872,1.742833 v -4.136716 c 0,-4.719165 0.13417,-4.6216 -3.664888,-2.661344 -1.572707,0.811487 -3.505778,1.22875 -4.295723,0.927302 -1.701708,-0.649441 -1.898345,-3.034494 -0.329505,-3.998688 0.703563,-0.432451 0.451678,-1.15642 -0.691685,-1.987884 -2.388933,-1.73726 -1.168659,-4.723168 1.930269,-4.723168 1.325875,0 3.454913,0.727384 4.731184,1.616422 2.295843,1.59931 2.320506,1.566422 2.320506,-3.098348 v -4.714769 l -3.674872,1.742833 c -3.463081,1.642363 -3.779011,1.637732 -5.481508,-0.08045 -1.712836,-1.728508 -1.711178,-1.893537 0.03157,-3.180528 1.591136,-1.174631 1.634662,-1.525842 0.323192,-2.608402 -0.833629,-0.688059 -1.258395,-1.917752 -0.943964,-2.732654 0.846059,-2.192748 4.573494,-1.798012 7.328593,0.776127 l 2.416517,2.257779 v -4.72619 -4.72615 l -4.562366,0.511414 c -4.822577,0.540612 -6.940132,-0.839235 -4.949209,-3.224994 0.78438,-0.93994 0.776211,-1.66026 -0.02762,-2.460013 -0.625428,-0.621969 -0.821435,-1.638831 -0.435578,-2.259741 1.100114,-1.770305 4.21751,-1.328709 7.224059,1.023298 l 2.751033,2.152129 v -2.477046 c 0,-1.396801 -1.366006,-3.778597 -3.132273,-5.46154 -3.217787,-3.066009 -4.186493,-6.749513 -1.774988,-6.749513 0.746537,0 1.913301,0.552975 2.592832,1.228751 2.586913,2.572766 2.446547,-0.253529 -0.165739,-3.341319 -1.507083,-1.781255 -2.740143,-3.876123 -2.740143,-4.655272 0,-2.120928 1.977348,-2.923311 3.700049,-1.501431 1.296791,1.070314 1.52042,0.488886 1.52042,-3.953045 0,-3.719768 0.457046,-5.3824211 1.599541,-5.8184041 2.153268,-0.82177 3.921942,3.9299681 3.006194,8.0765351 -0.62168,2.814992 -0.513634,3.019345 0.95521,1.806961 4.200694,-3.467181 4.545154,2.356795 0.405469,6.855162 -2.197702,2.388114 -1.70814,4.751111 0.524328,2.530813 1.937207,-1.926622 3.950157,-1.442209 3.950157,0.950614 0,1.198649 -1.40954,3.488845 -3.132281,5.089332 -1.722733,1.600488 -3.132266,3.890684 -3.132266,5.089332 0,2.737992 1.224891,2.772371 3.654306,0.102432 2.060491,-2.264411 5.209221,-2.736578 6.320781,-0.947906 0.38594,0.62087 0.19494,1.63259 -0.42409,2.24828 -0.80475,0.800342 -0.64406,1.469642 0.56371,2.347966 3.12635,2.273555 0.5321,3.915016 -5.02806,3.18147 L 96.315353,45.269016 V 50.158508 55.048 l 2.416477,-2.257778 c 3.02663,-2.827826 8.02442,-3.069895 8.02442,-0.388535 0,1.028007 -0.56379,2.429832 -1.25291,3.115145 -0.97447,0.969138 -0.97447,1.246057 0,1.246057 1.75774,0 1.57002,4.097706 -0.21901,4.780428 -0.80956,0.308865 -2.90052,-0.173075 -4.64658,-1.070943 -1.74606,-0.897986 -3.432891,-1.632708 -3.748545,-1.632708 -0.315694,0 -0.573892,2.140825 -0.573892,4.75739 v 4.757429 l 3.536596,-2.173792 c 1.945141,-1.195588 4.294341,-1.884628 5.220471,-1.53118 1.91839,0.732133 2.26265,4.095626 0.52827,5.161663 -0.81966,0.5038 -0.77542,0.943903 0.15232,1.514068 1.91042,1.174238 0.38436,4.128513 -2.13282,4.128513 -1.18674,0 -3.31577,-0.754659 -4.731183,-1.676978 l -2.573496,-1.677017 v 4.81881 4.81881 l 3.080418,-1.58424 c 1.694251,-0.871338 3.823251,-1.58424 4.731181,-1.58424 2.13445,0 3.18926,2.750511 1.72689,4.502959 -0.82393,0.987309 -0.79658,1.699034 0.0994,2.590152 0.9513,0.946101 0.85537,1.606846 -0.41707,2.872369 -1.50744,1.499155 -1.93465,1.498527 -4.86287,-0.0078 -1.765591,-0.908072 -3.468443,-1.650997 -3.784097,-1.650997 -0.315694,0 -0.573892,2.116689 -0.573892,4.70378 v 4.703816 l 3.139448,-2.308402 c 2.260291,-1.661986 3.457201,-1.992358 4.274261,-1.179772 1.9822,1.971364 0.5192,4.916024 -3.50787,7.060334 l -3.900196,2.076779 -0.0028,8.66079 -0.0028,8.66083 4.437396,-6.52852 c 4.9614,-7.29951 7.04762,-8.6958 7.04762,-4.71697 0,4.25422 -1.83359,7.85409 -7.33668,14.404 -4.710784,5.60691 -5.192414,6.66321 -5.192414,11.38744 v 5.20726 l 5.592874,-7.11524 c 6.96337,-8.85875 12.71551,-17.75858 15.19327,-23.50733 1.65029,-3.82898 1.70814,-4.68765 0.44327,-6.5822 -2.19158,-3.282649 -3.37239,-8.229279 -2.35251,-9.855238 1.35027,-2.152677 4.48945,0.191128 5.17801,3.865919 0.53909,2.87723 0.6383,2.78799 2.3492,-2.113196 2.26096,-6.476871 2.24209,-6.82408 -0.37055,-6.82408 -4.60234,0 -8.45589,-4.269642 -4.91345,-5.443997 0.70533,-0.233906 1.29264,-1.557789 1.30511,-2.94211 0.0355,-3.985187 3.81342,-3.284569 6.02454,1.11741 1.00407,1.998912 1.83146,2.933436 1.83864,2.076776 0.008,-0.85666 0.30425,-3.309844 0.66032,-5.451493 0.62811,-3.779382 0.55475,-3.893941 -2.49391,-3.893941 -3.9816,0 -6.66863,-2.767857 -4.39335,-4.525486 0.84417,-0.652071 1.37611,-2.274379 1.18216,-3.605091 -0.2936,-2.014963 0.0541,-2.362172 2.0801,-2.076736 1.33803,0.18838 2.89657,1.394054 3.46344,2.679044 1.35898,3.080647 2.58569,2.966088 2.78027,-0.259416 0.086,-1.427766 0.20363,-3.180057 0.26085,-3.893941 0.0572,-0.713883 -1.5192,-1.819872 -3.50361,-2.457736 -3.35953,-1.07993 -5.68896,-3.512941 -3.36336,-3.512941 0.56836,0 0.8015,-0.881817 0.51809,-1.959588 -0.87956,-3.345047 1.63324,-3.51302 4.84022,-0.323386 3.82936,3.808423 5.16569,1.793577 2.11297,-3.185788 -1.13203,-1.84652 -2.06002,-4.17502 -2.06215,-5.174456 -0.004,-2.349771 2.71268,-2.349771 4.08883,0 1.44063,2.459895 1.3988,0.633429 -0.0785,-3.429779 -1.53632,-4.225451 -0.52247,-7.513867 1.7407,-5.645879 1.29513,1.06902 1.55376,0.904265 1.55376,-0.989664 0,-3.217537 1.86903,-6.289198 3.82684,-6.289198 1.35598,0 1.56687,0.867767 1.13563,4.672737 -0.40018,3.530995 -0.17837,4.672697 0.90829,4.672697 2.4102,0 1.60301,3.998061 -1.17233,5.806591 -1.43562,0.935505 -2.61023,2.049657 -2.61023,2.475907 0,0.426211 1.17461,0.551641 2.61023,0.278646 3.99842,-0.760193 3.3254,2.511386 -1.04412,5.075361 -2.33286,1.368897 -3.65431,2.933279 -3.65431,4.326156 0,1.697032 0.2786,1.904996 1.25291,0.935818 1.56722,-1.558612 5.6965,-1.625801 6.63971,-0.107926 1.11984,1.802055 -2.26909,4.400017 -5.73959,4.400017 -2.00169,0 -3.334,0.604897 -3.62116,1.64409 -0.2498,0.904265 -0.75984,2.700551 -1.13319,3.991741 -0.63174,2.184664 -0.49717,2.265275 1.93876,1.161444 1.43968,-0.652346 3.35231,-0.905717 4.2503,-0.563022 2.54824,0.972514 1.91796,3.692688 -1.02589,4.427489 -2.54176,0.634449 -2.57957,0.7505 -0.85994,2.640269 1.40006,1.538597 1.52069,2.253108 0.54437,3.224091 -0.97632,0.970984 -1.70814,0.965568 -3.30224,-0.02355 -2.7663,-1.718108 -2.75837,-1.721993 -4.06234,1.998127 -1.62898,4.647266 -1.42686,5.611381 0.76315,3.640334 1.05015,-0.945199 2.94424,-1.71854 4.2091,-1.71854 2.89685,0 4.18673,3.001606 1.97968,4.606647 -1.15868,0.84257 -1.35401,1.695737 -0.66761,2.915618 0.71926,1.278161 0.45262,2.000051 -1.03031,2.789325 -1.54702,0.823419 -2.61856,0.581585 -4.72534,-1.066586 -2.04992,-1.603627 -2.83118,-1.79083 -3.15473,-0.755916 -0.23638,0.756544 -1.13602,3.564668 -1.99882,6.240257 l -1.56876,4.864729 3.18208,-1.924539 c 3.29363,-1.99205 6.0417,-1.78628 6.0417,0.45231 0,2.005969 -3.76377,4.900829 -7.31186,5.623819 -2.78509,0.56749 -3.90446,1.94326 -8.27125,10.16583 l -5.05027,9.50952 4.53683,-1.67227 c 8.93694,-3.29414 6.29253,1.95331 -3.34832,6.64438 -9.27919,4.51504 -17.798817,15.66857 -19.634932,25.70521 l -0.733159,4.00756 4.506133,-3.26515 c 2.478358,-1.79581 5.270238,-3.84209 6.204178,-4.5473 0.93394,-0.70521 2.54614,-3.95795 3.58269,-7.22828 1.03654,-3.27032 3.03661,-6.99923 4.44457,-8.28646 l 2.55996,-2.34043 -0.54584,4.67274 c -0.3003,2.56998 -0.91866,5.5832 -1.37441,6.69602 -0.75502,1.84357 -0.51024,1.80566 2.75589,-0.42664 8.1284,-5.55562 9.31912,-7.25661 9.43111,-13.47274 0.11089,-6.15379 0.68967,-8.68261 2.74808,-12.0067 2.08871,-3.37299 3.54867,0.0353 2.77842,6.48987 -0.35792,2.99835 -0.4181,5.45153 -0.13378,5.45153 0.28452,0 2.42686,-2.5159 4.76125,-5.59086 3.81501,-5.02528 4.09507,-5.78677 2.76888,-7.52827 -1.66193,-2.1823 -1.98209,-7.42603 -0.58716,-9.61701 1.70605,-2.6796 4.26416,-0.44113 4.28898,3.75309 l 0.0237,3.92651 2.0477,-2.59596 c 3.5366,-4.48349 3.50452,-5.9166 -0.20835,-9.31408 -3.20485,-2.93245 -3.32106,-3.25902 -1.6246,-4.564889 1.00493,-0.77361 1.82715,-1.88188 1.82715,-2.46287 0,-0.581 0.66245,-1.60312 1.47208,-2.2714 1.16775,-0.96384 1.81524,-0.727737 3.13228,1.14229 0.9131,1.29653 1.66019,3.53143 1.66019,4.966419 0,2.3252 0.23796,2.16739 2.18752,-1.450019 l 2.18756,-4.05913 -2.44856,-1.87309 c -1.34671,-1.030205 -2.83363,-1.883451 -3.30425,-1.896166 -0.47062,-0.01177 -0.6944,-1.074436 -0.49725,-2.359465 0.19691,-1.28499 0.93457,-2.219514 1.63876,-2.076737 0.74697,0.151489 1.2803,-0.853559 1.2803,-2.412486 0,-4.208575 3.36731,-2.780926 4.71591,1.999423 l 1.12379,3.9835 1.25717,-2.744114 c 1.02001,-2.226343 0.96157,-3.31263 -0.30977,-5.757376 -2.22201,-4.27341 -2.08457,-8.558161 0.26045,-8.11637 1.20338,0.226842 1.93887,1.493504 2.15433,3.710466 0.34174,3.51459 2.19194,4.705586 2.40669,1.549076 0.15903,-2.336977 0.15035,-2.41955 -0.57555,-5.470842 -0.337,-1.417131 -0.12943,-3.277505 0.46135,-4.134165 0.93887,-1.361166 1.25358,-1.324824 2.4956,0.288065 1.24446,1.615951 1.35373,1.249512 0.87829,-2.945445 -0.49173,-4.338558 -0.34844,-4.758175 1.51857,-4.443619 1.28405,0.216245 3.08366,-0.826715 4.77175,-2.765699 2.0075,-2.305855 3.01827,-2.811891 3.89834,-1.951699 0.88714,0.867138 0.7733,2.148753 -0.44943,5.059151 -1.97253,4.695107 -1.97667,4.749973 -0.33226,4.422937 2.78217,-0.553407 1.12462,2.94521 -2.17083,4.581804 -4.19656,2.084193 -5.6609,3.438923 -2.78864,2.579987 1.14853,-0.343402 2.76275,-0.203686 3.58719,0.31122 2.15354,1.344016 -0.19297,3.87526 -4.44237,4.791848 -5.03298,1.085621 -5.52799,2.958357 -0.94384,3.570633 3.31111,0.442223 3.88721,0.903912 3.88721,3.115145 0,2.116964 -0.48159,2.568135 -2.61023,2.445138 -1.43562,-0.08281 -3.63178,-0.478643 -4.88035,-0.879344 -1.82471,-0.585549 -2.58332,-0.125979 -3.8665,2.341725 l -1.59642,3.070208 3.86654,-0.114205 c 3.25681,-0.09615 3.91914,0.254313 4.20014,2.222226 0.1835,1.28502 -0.16889,2.33638 -0.78304,2.33638 -0.61422,0 -1.11672,1.16816 -1.11672,2.59596 0,3.486809 -2.92092,3.412829 -5.77444,-0.14638 l -2.19853,-2.74219 -2.20942,3.724199 -2.20942,3.72416 4.35973,0.31593 c 3.23665,0.23469 4.4527,0.80305 4.72057,2.20672 0.22809,1.19535 -0.39596,2.08761 -1.69685,2.42595 -1.41064,0.36695 -1.89444,1.15602 -1.5385,2.50973 0.9094,3.45839 -2.83339,3.78555 -5.67826,0.49635 -1.37457,-1.58934 -2.62732,-2.71896 -2.78383,-2.51029 -1.99041,2.65377 -4.82877,7.05253 -4.82877,7.48349 0,0.30416 1.63612,0.28924 3.6358,-0.0353 2.77602,-0.44803 3.79129,-0.18406 4.29316,1.1169 1.18717,3.07676 -1.65992,5.06296 -6.48245,4.52234 -4.3239,-0.48468 -4.44509,-0.40725 -9.783,6.25349 -4.62657,5.77307 -5.05185,6.65611 -2.95343,6.13233 9.98366,-2.49204 13.63276,-2.93226 14.7839,-1.78345 2.71299,2.7075 -7.59741,7.32015 -16.36221,7.32015 -4.00888,0 -5.7609,0.71816 -10.68319,4.37917 -3.23839,2.40853 -5.48948,4.49684 -5.00249,4.64068 0.487,0.14364 4.56419,0.70254 9.06037,1.24158 9.21297,1.10454 10.44655,1.73251 7.54631,3.84163 -2.47113,1.79703 -11.3426,1.91732 -19.39626,0.26294 -5.7712,-1.1855 -5.98366,-1.14488 -10.62752,2.03271 -2.60625,1.78333 -6.225677,5.54713 -8.043165,8.36397 -3.33633,5.17081 -6.675186,6.94264 -9.802605,5.20205 z"
       id="path1" /></g></svg>
