<?xml version="1.0" encoding="UTF-8" standalone="no"?>
<!-- Created with Inkscape (http://www.inkscape.org/) -->

<svg
   width="180mm"
   height="180mm"
   viewBox="0 0 180 180"
   version="1.1"
   id="svg1"
   sodipodi:docname="lily_of_the_valley.svg"
   inkscape:version="1.4.2 (f4327f4, 2025-05-13)"
   xml:space="preserve"
   xmlns:inkscape="http://www.inkscape.org/namespaces/inkscape"
   xmlns:sodipodi="http://sodipodi.sourceforge.net/DTD/sodipodi-0.dtd"
   xmlns="http://www.w3.org/2000/svg"
   xmlns:svg="http://www.w3.org/2000/svg"><sodipodi:namedview
     id="namedview1"
     pagecolor="#505050"
     bordercolor="#ffffff"
     borderopacity="1"
     inkscape:showpageshadow="0"
     inkscape:pageopacity="0"
     inkscape:pagecheckerboard="1"
     inkscape:deskcolor="#505050"
     inkscape:document-units="mm"
     inkscape:zoom="1"
     inkscape:cx="73"
     inkscape:cy="444"
     inkscape:window-width="2560"
     inkscape:window-height="1351"
     inkscape:window-x="-9"
     inkscape:window-y="-9"
     inkscape:window-maximized="1"
     inkscape:current-layer="layer1"
     showguides="true" /><defs
     id="defs1"><rect
       x="101.82338"
       y="91.923882"
       width="384.66608"
       height="299.81326"
       id="rect3" /><rect
       x="2.8284271"
       y="2.1213202"
       width="662.55902"
       height="647.00269"
       id="rect2" /></defs><g
     inkscape:label="Icon"
     inkscape:groupmode="layer"
     id="layer1"><path
       style="fill:#000000;stroke-width:4.11697"
       d="m 60.651866,172.83491 c -0.230575,-0.77439 -1.03127,-3.57813 -1.778904,-6.23046 C 56.279261,157.40301 51.285064,149.88588 38.924465,136.57868 18.388063,114.46953 11.026262,101.46675 7.2683851,80.666188 4.2733319,64.088001 6.9662518,39.511214 13.019338,28.18164 l 1.880089,-3.518948 1.545441,5.867709 c 2.467408,9.368027 5.055586,13.528714 18.658908,29.995839 7.67791,9.29423 14.325637,18.572622 16.566822,23.12267 3.704188,7.520254 8.308833,22.65988 8.308833,27.31864 0,5.97695 1.423835,0.0284 2.870643,-11.996834 C 66.103238,71.936092 72.389536,52.006237 82.297081,37.316488 91.72569,23.336929 104.41633,13.122824 118.10711,8.4946851 c 8.03682,-2.7168165 23.11955,-3.2951667 30.65317,-1.1753727 6.44356,1.8131007 14.68736,7.8994896 17.43836,12.8748246 0.85405,1.544562 2.18771,2.808314 2.96371,2.808314 0.77601,0 2.18654,1.071805 3.13449,2.381771 3.70302,5.117057 0.84267,12.621434 -4.81074,12.621434 -5.71815,0 -9.12267,-6.436541 -6.30065,-11.911812 2.30504,-4.472281 -0.5682,-8.960156 -8.17568,-12.770001 -3.27915,-1.642176 -10.25738,-3.273295 -9.74283,-2.277272 3.59509,6.959159 4.88581,8.813047 6.47586,9.30152 2.53863,0.779855 4.76667,6.252736 3.90237,9.585774 -0.38331,1.477488 -1.96278,3.489381 -3.51039,4.470863 -2.65995,1.686933 -2.97677,1.667167 -5.79519,-0.361292 -3.72352,-2.68012 -4.72278,-9.738026 -1.78179,-12.584657 1.62311,-1.570971 1.67186,-2.160662 0.37286,-4.509787 -3.14378,-5.685646 -11.55878,-7.2405769 -21.47899,-3.968903 l -5.35375,1.765631 3.99754,1.985039 c 2.19867,1.091773 4.89275,3.226959 5.98691,4.744829 1.09417,1.517871 3.60865,4.24777 5.58775,6.06642 2.82265,2.593807 3.5984,4.179967 3.5984,7.357795 0,2.228182 0.49823,4.349231 1.10718,4.71352 2.1667,1.296114 1.0573,2.679148 -2.14904,2.679148 -1.79095,0 -3.565,0.483532 -3.94238,1.07456 -0.4532,0.709703 -1.45015,0.678758 -2.93646,-0.09113 -1.23766,-0.641131 -3.41895,-0.881803 -4.84731,-0.534809 -2.7469,0.667296 -4.71286,-0.871596 -2.67266,-2.092049 0.73093,-0.437236 0.93205,-2.274194 0.51233,-4.678971 -0.5464,-3.130317 -0.17618,-4.592739 1.7689,-6.986053 2.94516,-3.624015 2.13611,-5.511764 -3.68615,-8.600525 -3.51144,-1.86284 -4.42956,-1.937609 -8.67579,-0.70622 -2.92287,0.847577 -6.91149,3.390958 -10.373586,6.614717 l -5.624826,5.237676 4.55627,0.0243 c 5.172372,0.0243 9.501672,2.751893 12.102192,7.619327 0.9169,1.716176 2.37342,3.120353 3.23668,3.120353 2.32956,0 5.01675,4.305163 5.01675,8.037404 0,1.800667 0.74018,4.296779 1.64487,5.546921 1.46501,2.02449 1.45409,2.343901 -0.10002,2.921076 -0.95963,0.356432 -2.24558,0.348331 -2.85763,-0.0162 -0.61209,-0.366152 -2.3417,-0.02835 -3.84362,0.74883 -2.03103,1.05212 -3.22939,1.113118 -4.67704,0.23816 -1.07048,-0.647084 -3.36338,-0.914286 -5.09534,-0.593822 -2.64835,0.490012 -3.03216,0.28798 -2.41413,-1.270961 0.40424,-1.019515 0.73491,-4.006207 0.73491,-6.637156 0,-3.631711 0.64532,-5.408115 2.68007,-7.37756 2.65932,-2.573961 2.66375,-2.614181 0.57113,-5.189154 -5.03073,-6.190199 -13.775437,-4.377259 -19.162951,3.972832 -1.957171,3.033433 -4.149395,6.841455 -4.871586,8.462327 l -1.313108,2.947079 h 5.597417 c 5.693832,0 6.010444,0.187936 12.811205,7.606446 0.505885,0.55182 2.231983,1.950449 3.835753,3.108081 2.08229,1.502965 3.12929,3.48205 3.66234,6.922503 0.41051,2.649783 1.2159,5.098628 1.78966,5.441855 2.247,1.344151 0.85647,2.640872 -2.83198,2.640872 -2.13134,0 -3.87517,0.482276 -3.87517,1.071684 0,1.396967 -5.199119,1.394497 -6.091417,-0.0029 -0.45366,-0.710473 -1.442958,-0.682526 -2.919854,0.08263 -2.876083,1.489842 -6.326931,0.406088 -4.460191,-1.400735 0.710767,-0.687993 1.292352,-3.655121 1.292352,-6.593654 0,-3.892716 0.609498,-5.970751 2.245663,-7.656509 2.748325,-2.831522 1.971273,-5.242861 -2.232565,-6.928254 -2.572778,-1.031504 -3.847638,-0.941911 -6.963796,0.489363 -4.29795,1.974063 -5.741286,4.465639 -8.031305,13.864124 -2.159542,8.862826 -2.163266,8.848042 2.103006,8.365969 4.352185,-0.491794 10.223781,2.105861 11.150937,4.933293 0.354023,1.078974 2.35756,2.752986 4.452742,3.720049 3.039118,1.402759 4.049549,2.687937 4.996623,6.355331 0.652935,2.528395 1.690817,5.460609 2.306382,6.516049 1.528743,2.62107 0.214674,4.27633 -2.932869,3.69397 -1.638341,-0.30297 -3.306267,0.26125 -4.479063,1.5156 -1.695085,1.81294 -2.103802,1.84956 -4.398885,0.3941 -1.564649,-0.99225 -2.788414,-1.2002 -3.206882,-0.54485 -0.372017,0.58284 -1.946165,1.05973 -3.497757,1.05973 -2.255036,0 -2.659736,-0.37628 -2.016845,-1.87539 0.44232,-1.03147 0.723028,-4.10411 0.623809,-6.82805 -0.14186,-3.889764 0.418467,-5.641462 2.609687,-8.162119 2.723719,-3.133072 2.740374,-3.253003 0.699761,-5.040506 -2.837082,-2.485095 -7.697243,-1.746797 -10.167706,1.544603 -3.677825,4.899958 -5.304323,38.379592 -3.904759,80.374242 0.156506,4.69675 0.06654,4.83123 -3.445282,5.15882 -2.274035,0.21224 -3.760974,-0.18389 -4.025529,-1.07168 z M 54.36833,131.23727 C 51.565437,121.4474 46.892958,111.58563 37.978603,96.645164 30.229888,83.658266 21.227613,66.186369 21.227613,64.134337 c 0,-0.744738 -0.469771,-1.635088 -1.043908,-1.978558 -1.880633,-1.124986 3.319407,14.772821 7.699252,23.538601 2.356012,4.715302 7.807426,14.60133 12.11429,21.96897 4.306864,7.36764 9.642781,17.62362 11.85756,22.79107 2.214822,5.16744 4.194757,9.23294 4.399806,9.03448 0.205049,-0.19847 -0.64377,-3.91171 -1.886283,-8.25163 z"
       id="path1" /></g></svg>
