<?xml version="1.0" encoding="UTF-8" standalone="no"?>
<!-- Created with Inkscape (http://www.inkscape.org/) -->

<svg
   width="180mm"
   height="240mm"
   viewBox="0 0 180 240"
   version="1.1"
   id="svg1"
   sodipodi:docname="mugwort.svg"
   inkscape:version="1.4.2 (f4327f4, 2025-05-13)"
   xml:space="preserve"
   xmlns:inkscape="http://www.inkscape.org/namespaces/inkscape"
   xmlns:sodipodi="http://sodipodi.sourceforge.net/DTD/sodipodi-0.dtd"
   xmlns="http://www.w3.org/2000/svg"
   xmlns:svg="http://www.w3.org/2000/svg"><sodipodi:namedview
     id="namedview1"
     pagecolor="#505050"
     bordercolor="#ffffff"
     borderopacity="1"
     inkscape:showpageshadow="0"
     inkscape:pageopacity="0"
     inkscape:pagecheckerboard="1"
     inkscape:deskcolor="#505050"
     inkscape:document-units="mm"
     inkscape:zoom="1"
     inkscape:cx="73"
     inkscape:cy="364"
     inkscape:window-width="2560"
     inkscape:window-height="1351"
     inkscape:window-x="-9"
     inkscape:window-y="-9"
     inkscape:window-maximized="1"
     inkscape:current-layer="layer1"
     showguides="true" /><defs
     id="defs1"><rect
       x="101.82338"
       y="91.923882"
       width="384.66608"
       height="299.81326"
       id="rect3" /><rect
       x="2.8284271"
       y="2.1213202"
       width="662.55902"
       height="647.00269"
       id="rect2" /></defs><g
     inkscape:label="Icon"
     inkscape:groupmode="layer"
     id="layer1"><path
       style="fill:#000000;stroke-width:2.46238"
       d="m 87.512891,234.91293 c -0.604072,-0.7572 -0.603275,-2.86926 0.0048,-9.6913 0.933039,-10.48594 0.603203,-16.14779 -1.273814,-21.86566 -2.694172,-8.20711 -6.867829,-12.32785 -12.486204,-12.32785 -2.621986,0 -3.838074,0.40347 -6.008593,1.99347 -7.776966,5.697 -11.557822,7.53385 -11.557822,5.61515 0,-1.56159 2.039616,-4.62466 4.593954,-6.89908 l 2.711121,-2.41406 -2.534686,0.94312 c -1.394068,0.51872 -4.526066,2.20865 -6.960005,3.75541 -2.433915,1.54677 -5.552949,2.96964 -6.931187,3.16194 l -2.505858,0.34964 1.018866,-2.04959 c 0.560375,-1.12729 1.659378,-2.5163 2.442203,-3.08668 1.807004,-1.31663 0.975097,-1.30945 -3.357305,0.0289 -3.4396,1.06257 -10.28512,1.06009 -11.299835,-0.005 -1.336922,-1.40212 5.528637,-4.9787 11.600049,-6.04298 l 2.510985,-0.44016 -2.591863,-1.20713 c -6.625002,-3.08552 -1.774894,-4.21972 7.460827,-1.74473 8.281283,2.21922 9.242908,2.17592 5.56473,-0.25065 -1.649762,-1.08836 -2.999552,-2.28444 -2.999552,-2.65797 0,-1.5806 3.689114,-0.55917 17.566271,4.86368 l 4.471431,1.74732 -2.874493,-2.72073 c -5.631557,-5.33036 -11.472406,-7.21232 -22.415196,-7.22231 -3.018239,-0.003 -7.764445,0.3137 -10.547124,0.70328 -3.616276,0.50626 -5.579144,0.50272 -6.881542,-0.0126 l -1.822165,-0.72068 2.319551,-1.91755 c 3.205755,-2.65018 7.638317,-3.61729 14.673823,-3.2016 3.205851,0.18936 6.403735,0.564 7.106382,0.83242 l 1.277555,0.48808 -1.277555,-0.9975 c -3.151192,-2.4604 -7.490611,-3.36251 -16.60813,-3.45265 -8.554456,-0.0846 -13.733628,-0.9869 -13.733628,-2.39273 0,-1.41104 4.277566,-2.86768 8.463752,-2.88217 2.371457,-0.008 4.311728,-0.11025 4.311728,-0.22679 0,-0.69906 -4.289373,-1.74297 -9.195877,-2.238 -5.581606,-0.56315 -9.42335,-2.09513 -8.267956,-3.29701 0.307118,-0.31949 1.703213,-0.83049 3.102448,-1.13556 l 2.544077,-0.55468 -2.874493,-2.16339 c -1.580956,-1.18987 -3.542062,-3.0432 -4.35801,-4.1185 l -1.48354,-1.9551 h 2.25835 c 3.475813,0 9.382838,2.73028 16.705537,7.72144 l 1.680738,1.14563 -1.971946,-3.23465 c -1.084584,-1.77907 -1.971969,-4.08368 -1.971969,-5.12138 0,-1.73989 0.111779,-1.82734 1.437234,-1.1232 0.790478,0.41996 4.886613,4.39803 9.102519,8.84014 4.215913,4.44213 8.915491,8.77966 10.443502,9.63898 2.471651,1.39001 2.705665,1.42533 2.120737,0.31996 -0.361632,-0.68334 -2.833475,-3.47761 -5.493003,-6.20949 -2.659527,-2.73186 -4.835526,-5.23118 -4.835526,-5.55406 0,-0.32287 0.718629,-0.39942 1.596939,-0.17002 1.960477,0.51186 1.960453,0.52426 0.0073,-3.02912 -0.874083,-1.59055 -1.592713,-3.72473 -1.596938,-4.74262 -0.0073,-1.61665 0.146546,-1.7648 1.212491,-1.17142 2.059994,1.14685 5.146025,4.69566 6.595211,7.58421 1.094747,2.18208 1.423352,2.47388 1.597131,1.41832 0.948998,-5.76371 1.528494,-5.42487 3.748432,2.19164 2.742916,9.41092 4.913458,13.7157 9.327407,18.49892 2.211416,2.39642 4.519669,4.63526 5.129463,4.97523 0.974059,0.54303 1.035187,0.41683 0.50318,-1.03878 -0.878671,-2.40412 -2.764017,-6.12499 -5.407803,-10.67275 -2.573677,-4.42714 -4.487511,-10.25459 -3.652925,-11.12277 0.297679,-0.30969 1.725377,0.70607 3.172631,2.25719 l 2.631402,2.82024 -0.926643,-3.62222 c -1.214156,-4.74605 -1.188009,-10.03785 0.0647,-13.11253 l 1.006627,-2.47049 1.154283,2.32573 c 1.007279,2.02951 2.192464,6.7649 2.741998,10.95559 0.14051,1.07109 0.439203,0.85143 1.58168,-1.16285 2.926086,-5.159 4.027087,-1.83834 2.136358,6.44323 -1.702901,7.45874 -1.727986,9.58165 -0.07508,6.35664 0.655592,-1.27913 2.07163,-3.1955 3.146774,-4.25857 1.793531,-1.77341 1.992273,-1.83128 2.409,-0.70155 0.268514,0.72792 -0.136407,2.87637 -0.990766,5.25529 -3.57178,9.94686 -3.499232,9.59162 -2.771163,13.56773 0.377277,2.06032 2.252845,7.15209 4.167959,11.31505 l 3.48197,7.56899 0.475079,-5.24329 c 0.80856,-8.92445 1.308626,-26.92144 0.893469,-32.15506 -0.734345,-9.25687 -5.376586,-19.598 -10.690498,-23.81428 -1.928441,-1.5301 -2.838546,-1.76854 -6.75011,-1.76854 -3.925856,0 -5.186125,0.33302 -9.571899,2.52931 -2.777899,1.39109 -5.867986,2.69931 -6.866815,2.90713 -2.837096,0.59027 -2.323123,-1.5299 1.197741,-4.94068 3.418474,-3.31158 3.402758,-3.31404 -4.8377,-0.75818 -4.190242,1.29965 -9.386129,1.63983 -10.798714,0.707 -1.751185,-1.15645 5.313896,-5.94147 9.909638,-6.71158 l 3.032385,-0.50812 -2.55511,-1.16712 c -5.364153,-2.45025 -5.043829,-3.67268 0.958173,-3.6565 2.349463,0.005 6.04244,0.87544 11.148413,2.62374 4.199344,1.43783 7.735055,2.51037 7.857121,2.38336 0.485773,-0.50532 -7.748794,-5.70109 -11.189794,-7.06042 -3.371928,-1.33202 -4.38867,-1.41314 -12.766234,-1.01864 -5.006415,0.23582 -9.10255,0.21799 -9.10255,-0.0397 0,-0.25755 0.47573,-1.01511 1.057182,-1.68346 1.007303,-1.15788 0.937458,-1.21516 -1.481005,-1.21516 -3.449451,0 -9.304495,-1.86428 -8.990135,-2.86248 0.541012,-1.71779 5.116402,-2.58841 11.649686,-2.21676 3.513235,0.19991 7.106365,0.54237 7.984674,0.76117 0.917927,0.22854 0.374741,-0.28638 -1.277556,-1.2113 -1.580955,-0.88499 -4.886619,-2.12851 -7.345907,-2.76338 -6.34927,-1.63907 -10.820726,-3.48436 -12.152359,-5.01504 -1.585591,-1.82259 -0.791927,-2.32842 3.424437,-2.18246 l 3.617748,0.12533 -1.60942,-1.45424 c -0.885189,-0.79982 -2.340893,-2.05225 -3.234918,-2.783194 -2.254003,-1.842827 -5.695438,-6.92199 -5.695438,-8.405807 0,-0.709485 0.454943,-1.229281 1.075868,-1.229281 1.750702,0 6.274474,2.53913 9.248218,5.190898 1.523931,1.358922 3.318235,2.914792 3.987348,3.45747 1.182288,0.95895 1.18731,0.92788 0.177931,-1.103108 -0.571238,-1.149417 -1.232481,-3.351183 -1.469465,-4.892813 -0.400984,-2.608521 -0.346857,-2.755642 0.780193,-2.12042 1.911831,1.077564 4.254293,3.985274 8.404031,10.432055 2.117261,3.2892 4.905589,7.02697 6.196301,8.3061 l 2.346761,2.32571 -3.183109,-6.37713 c -3.168285,-6.347434 -4.660758,-12.065858 -3.471902,-13.302573 0.985912,-1.025602 4.587412,3.237414 6.801773,8.051143 l 1.986866,4.31917 0.599751,-2.49181 c 1.047573,-4.352603 2.233507,-2.877424 4.236597,5.26993 1.982641,8.0641 3.974431,11.87358 8.681808,16.60458 2.327663,2.33937 4.359241,4.12117 4.514599,3.95953 0.410931,-0.42745 -1.371712,-3.81618 -4.277349,-8.13106 -2.315689,-3.43885 -3.83904,-7.79037 -3.024009,-8.63822 0.181069,-0.18835 1.301287,0.54582 2.48966,1.63122 l 2.160668,1.97347 -0.248885,-4.58162 c -0.136889,-2.51986 -0.06687,-5.07481 0.155478,-5.67761 1.135331,-3.07776 5.105176,5.0994 5.902751,12.1586 l 0.422931,3.74344 1.248922,-2.76044 c 2.52486,-5.5806 4.160088,-2.37284 2.957206,5.80111 -1.045448,7.10432 -0.447991,9.95314 3.821174,18.22026 l 3.707462,7.17937 0.392608,-10.50182 c 0.65581,-17.5424 -0.681619,-26.07644 -5.264759,-33.59425 -2.545018,-4.17464 -5.688751,-5.748544 -13.033734,-6.525337 -6.286957,-0.664882 -9.546284,-1.683477 -9.174005,-2.86705 0.432853,-1.37605 5.124176,-2.527978 8.918044,-2.189786 2.020111,0.180071 3.67294,0.212469 3.67294,0.07158 0,-0.140642 -1.171594,-0.877502 -2.603566,-1.637443 -1.677634,-0.89031 -5.180148,-1.693448 -9.848246,-2.258248 -7.017248,-0.849047 -11.803088,-2.459667 -12.301585,-4.13998 -0.428943,-1.445894 6.476041,-2.421769 11.147616,-1.57551 2.295505,0.415846 4.302071,0.622464 4.459045,0.459169 0.42351,-0.440559 -6.068297,-3.504758 -9.374146,-4.424729 -5.261209,-1.464127 -11.309903,-5.350425 -10.485963,-6.737249 0.45178,-0.760418 3.912723,-0.719983 6.583911,0.07685 2.078029,0.619953 1.989304,0.459697 -2.299295,-4.153064 -4.5913,-4.938321 -5.699181,-6.595001 -6.603257,-9.87418 -0.467835,-1.696914 -0.367065,-1.900844 0.939155,-1.900844 2.049709,0 5.893119,2.77169 9.486096,6.840948 2.527275,2.862278 2.940306,3.136101 2.395408,1.588017 -0.783767,-2.22673 -0.874784,-6.435499 -0.139062,-6.435499 1.234509,0 4.048839,4.036709 6.133241,8.797169 2.284858,5.218297 4.208639,8.69897 4.589151,8.30314 0.115161,-0.119796 -0.211248,-1.671774 -0.725316,-3.448778 -1.279294,-4.42194 -1.275214,-10.423309 0.0073,-9.91155 1.662196,0.663526 4.689053,6.625013 6.426405,12.657071 1.528735,5.30773 5.088566,12.840458 6.068152,12.840458 0.21487,0 -0.142441,-2.167912 -0.794074,-4.817545 -1.219383,-4.95827 -1.314915,-10.402774 -0.185934,-10.593946 0.351347,-0.05952 1.431319,1.066363 2.39997,2.501885 1.63122,2.417449 2.257529,4.624715 5.077098,17.893275 0.774158,3.643013 4.023224,11.628556 4.731303,11.628556 0.632513,0 -0.271605,-17.948276 -1.1137,-22.109202 -1.713589,-8.466862 -5.929736,-13.896122 -14.078187,-18.128774 -4.706774,-2.444925 -7.556255,-4.63667 -7.556255,-5.812131 0,-0.657448 4.854213,-0.282136 7.605483,0.588057 3.202688,1.012945 0.527781,-1.128069 -5.050348,-4.04236 -7.427479,-3.880446 -10.148232,-7.498546 -5.110221,-6.795615 2.924179,0.40801 3.26104,-0.211967 0.965367,-1.776728 -1.769582,-1.20615 -5.421469,-7.394471 -5.430787,-9.202743 -0.0024,-0.639567 0.328146,-1.162853 0.736543,-1.162853 1.454111,0 6.823672,4.081815 10.077252,7.660485 1.818061,1.999719 3.425887,3.635831 3.572964,3.635831 0.147029,0 -0.01207,-0.767023 -0.355549,-1.704473 -0.342631,-0.937476 -0.61117,-2.806348 -0.596781,-4.153065 l 0.02631,-2.448566 2.369188,2.74768 c 1.455294,1.687772 4.047078,6.593871 6.718797,12.718275 2.392245,5.483809 4.766141,10.526756 5.275309,11.206557 0.830288,1.10858 0.886686,0.859168 0.546999,-2.418681 -0.950471,-9.171601 -4.089737,-16.347626 -10.235556,-23.397325 -4.568919,-5.240876 -6.342822,-7.703381 -5.889207,-8.175258 0.158617,-0.165002 1.203679,-0.02712 2.322231,0.306598 1.118528,0.333697 2.033702,0.497971 2.033702,0.36504 0,-0.132856 -0.846441,-1.68192 -1.880975,-3.442198 -2.096595,-3.567243 -3.212515,-8.184022 -1.978151,-8.184022 1.28545,0 6.10905,3.777527 7.842587,6.141809 0.906918,1.236891 2.719353,4.323015 4.027617,6.858025 l 2.378653,4.609095 -0.437103,-2.989911 c -0.240455,-1.644474 -1.613181,-5.83074 -3.050608,-9.302849 -4.30562,-10.400279 -3.955696,-16.099093 0.623918,-10.160662 l 1.900869,2.464891 -0.05673,-5.28897 c -0.05552,-5.1796713 0.920848,-8.8782884 2.482924,-9.405342 1.044024,-0.3522564 2.740116,3.9658358 3.49916,8.908477 0.618775,4.02935 1.255948,6.231216 1.255948,4.340218 0,-0.938832 3.13074,-4.81315 3.889422,-4.81315 1.14229,0 0.53841,7.065948 -1.044602,12.222615 -1.40331,4.571347 -2.989314,13.017088 -2.543061,13.542232 0.08498,0.100207 0.810221,-1.694 1.611471,-3.986931 1.871102,-5.35462 5.050542,-10.521859 7.832252,-12.728975 1.20582,-0.956763 2.38085,-1.739558 2.61119,-1.739558 1.06115,0 0.26437,5.296002 -1.23868,8.233122 l -1.65744,3.23887 1.65744,-0.432748 c 2.78763,-0.72782 2.1455,1.022613 -3.68931,10.057013 -4.578192,7.088703 -6.810751,14.146464 -6.737576,21.299208 l 0.05239,5.115479 1.602274,-3.654692 c 0.88128,-2.010092 2.871792,-7.509873 4.423372,-12.221786 4.22674,-12.836012 7.06717,-16.623234 6.879,-9.172003 l -0.0855,3.386745 3.01681,-4.807374 c 3.0336,-4.83407 8.04689,-10.007764 9.06389,-9.353907 1.48846,0.956964 -0.52266,7.807078 -3.61601,12.316392 l -2.10799,3.072914 2.89009,-0.904801 c 3.55307,-1.112348 4.28365,-0.72355 3.10306,1.651381 -0.91562,1.841874 -3.33179,3.764769 -8.66633,6.897053 -2.43665,1.430725 -5.87552,4.484702 -5.04871,4.483622 0.1422,-1.76e-4 1.77088,-0.598228 3.6191,-1.328961 3.76422,-1.488312 4.53316,-1.578322 5.88508,-0.688992 0.79223,0.521177 0.691,0.898523 -0.63879,2.38131 -0.86911,0.969095 -2.8737,2.454895 -4.45468,3.301757 -8.52428,4.566199 -13.223932,10.288394 -14.955942,18.20997 -0.74352,3.400608 -1.013392,8.183369 -1.013392,17.959631 0,7.328594 0.227182,13.324744 0.504602,13.324744 0.62076,0 4.211012,-8.5961 5.208202,-12.469924 0.42123,-1.636388 0.66392,-6.62235 0.57406,-11.794136 -0.18035,-10.379635 0.41327,-12.064418 2.78181,-7.895205 l 1.47108,2.589509 0.17986,-1.993466 c 0.36738,-4.069559 1.44358,-8.395085 2.50995,-10.08808 l 1.09867,-1.744305 0.79169,1.929248 c 1.38101,3.365372 1.03323,11.09231 -0.74763,16.610978 -1.98668,6.156526 -1.98355,6.380849 0.0495,3.55471 2.80449,-3.898453 4.13526,-7.158244 5.41785,-13.271548 0.67967,-3.239423 1.5868,-6.728309 2.01591,-7.753082 1.40706,-3.360375 3.83844,-6.833287 4.49048,-6.414076 0.60943,0.391812 0.3497,7.232559 -0.4503,11.860238 -0.19339,1.118952 0.63466,-0.19288 1.88768,-2.990187 4.13161,-9.223764 5.84832,-12.29173 7.00875,-12.525421 1.02802,-0.206943 1.11802,0.155208 0.82555,3.321548 l -0.32826,3.553882 1.66606,-2.324802 c 4.6386,-6.472693 9.77209,-10.251576 8.79991,-6.477841 -0.21173,0.8223 -0.38908,1.994972 -0.39388,2.605934 -0.005,0.610986 -1.27672,3.077886 -2.8265,5.48205 -2.77216,4.300462 -2.79221,4.371184 -1.23984,4.371184 2.21034,0 1.48049,0.849549 -3.75894,4.375379 -4.96466,3.340885 -9.40059,6.978223 -9.41882,7.72317 -0.007,0.258479 1.64132,-0.532654 3.66143,-1.758092 4.81932,-2.923483 9.64826,-4.489474 13.05652,-4.234109 l 2.75313,0.20619 -2.68806,2.771012 c -1.47845,1.524075 -3.70616,3.153983 -4.9505,3.622068 -2.71254,1.020353 -2.8937,1.749202 -0.5058,2.03503 4.32722,0.517937 0.35489,2.45487 -7.62871,3.719814 -2.35135,0.372549 -5.80072,1.409402 -7.66529,2.304133 -3.48061,1.670191 -10.44292,7.005774 -9.89094,7.579963 0.16972,0.17656 1.54433,-0.334697 3.05462,-1.136202 5.00267,-2.654933 9.58475,-3.951671 13.92626,-3.941173 5.11843,0.01256 6.74116,0.774833 4.84739,2.277662 -1.21597,0.96495 -5.46197,2.479407 -9.57849,3.416483 l -1.91633,0.43621 2.50389,0.756884 c 1.37714,0.4163 2.61461,1.10245 2.74995,1.52478 0.35131,1.09635 -1.51774,1.56197 -8.60331,2.14332 -9.2489,0.75886 -13.22016,3.41578 -17.14334,11.46948 -2.573581,5.28319 -3.301501,10.88097 -3.744881,28.79838 l -0.411056,16.61224 4.292537,-7.97387 c 5.24443,-9.74208 5.7022,-12.44392 3.21516,-18.97742 -0.89598,-2.35383 -1.82679,-5.12788 -2.06843,-6.16458 -0.39621,-1.69968 -0.29213,-1.86293 1.05903,-1.66123 0.83863,0.12507 2.17516,1.24779 3.03526,2.54938 l 1.5368,2.32573 -0.42722,-3.32246 c -0.94632,-7.35921 -1.1407,-10.30378 -0.75005,-11.36276 0.37862,-1.02641 0.50635,-1.02038 1.67413,0.0791 0.6953,0.65458 1.26423,1.59233 1.26423,2.0839 0,0.49157 0.28744,0.89375 0.63876,0.89375 0.35132,0 0.6416,-0.8223 0.64502,-1.82736 0.007,-2.06933 2.6541,-8.38303 3.83216,-9.14041 2.12817,-1.36824 2.5035,4.45299 0.71878,11.14827 -0.65548,2.45901 -1.07785,4.47091 -0.93865,4.47091 0.13931,0 1.13565,-1.04559 2.21429,-2.32354 4.34188,-5.14419 3.43134,-0.0389 -1.81381,10.16978 -1.93556,3.7672 -3.38332,6.99083 -3.21725,7.16359 0.60323,0.62751 7.32299,-7.61498 8.70922,-10.68279 0.78274,-1.73228 2.10041,-6.33464 2.92811,-10.22749 1.66555,-7.83348 2.76181,-10.86573 3.8,-10.51089 0.37863,0.12934 0.84664,1.40797 1.04004,2.84128 l 0.35164,2.60601 1.63375,-3.6903 c 1.67656,-3.78705 5.27432,-8.60273 6.42701,-8.60273 0.3952,0 0.54714,1.61637 0.39041,4.15304 -0.27295,4.4182 -1.78216,8.32401 -5.27862,13.6612 -3.19976,4.88432 -3.29184,5.14694 -1.27637,3.64078 2.47552,-1.84997 4.61895,-4.32435 7.93661,-9.16199 3.37887,-4.92687 7.65953,-9.63509 8.76015,-9.63509 1.23245,0 0.99832,3.02231 -0.46538,6.00687 -1.49905,3.05667 -1.28147,3.20914 1.49284,1.04617 3.2339,-2.5213 7.22535,-4.38663 10.3354,-4.83007 2.41398,-0.3442 2.87655,-0.23256 2.87655,0.69439 0,1.72951 -5.25942,6.76706 -9.3672,8.97204 l -3.72767,2.00095 2.87447,0.0409 c 9.83518,0.14039 6.34034,3.50714 -6.52034,6.28139 -4.11731,0.88818 -8.69929,2.34572 -10.46308,3.32838 -1.72585,0.96151 -2.56305,1.6011 -1.8604,1.42126 5.15151,-1.31839 7.5876,-1.67484 11.54384,-1.68908 4.83116,-0.0176 10.70994,1.62436 10.31602,2.88089 -0.3561,1.13588 -4.21945,2.33891 -7.64715,2.38128 l -3.03417,0.0374 1.39733,1.45358 c 1.92757,2.00517 0.84171,2.23861 -5.57941,1.19952 -8.53597,-1.38135 -15.26427,0.21071 -21.37398,5.05764 -1.73833,1.37904 -3.05186,2.62048 -2.91893,2.75876 0.13302,0.13838 3.5041,-0.82856 7.49152,-2.14853 7.86395,-2.60322 14.3346,-3.59499 16.23539,-2.48844 1.06966,0.62271 0.93719,0.84407 -1.34441,2.24667 l -2.53094,1.55589 4.28611,0.44089 c 6.25955,0.64386 11.69607,4.16748 8.43711,5.46841 -1.55265,0.61978 -6.72979,0.47878 -9.17189,-0.24989 -2.77952,-0.82926 -3.17302,-0.40683 -1.42461,1.52917 3.52068,3.89846 0.29339,4.11916 -6.66508,0.45581 -5.47595,-2.88287 -8.11438,-3.51478 -5.18506,-1.24184 2.1005,1.62986 3.99595,5.13708 3.21522,5.94926 -0.3056,0.31787 -3.04965,-0.74613 -6.19488,-2.40208 -3.10546,-1.63499 -6.48541,-2.97271 -7.51099,-2.97271 -4.81285,0 -8.35802,3.35955 -12.62171,11.9608 -4.156301,8.38463 -5.318404,14.59812 -6.151783,32.89217 l -0.393501,8.63837 3.559683,-5.57013 c 4.612961,-7.21829 5.022181,-8.95971 4.525811,-19.2598 l -0.40454,-8.39451 1.63733,1.8644 c 0.90054,1.02543 1.63735,2.4281 1.63735,3.11709 0,0.68899 0.2466,1.41124 0.54796,1.60502 0.30138,0.19389 0.71444,-1.93743 0.91791,-4.736 0.27182,-3.73892 0.84646,-6.04936 2.16682,-8.71225 0.98828,-1.99319 2.08434,-3.58548 2.43566,-3.53846 0.35132,0.047 0.78251,2.51499 0.95817,5.48436 0.31745,5.36634 0.3267,5.39038 1.53624,3.99449 1.60932,-1.85732 2.29639,-1.77254 2.29639,0.28334 0,1.83002 -1.16482,4.43131 -4.73142,10.56624 -1.26229,2.17132 -2.29509,4.25196 -2.29509,4.62366 0,1.32788 5.89998,-5.33827 9.05659,-10.23272 5.58905,-8.66592 7.54931,-11.18649 9.85042,-12.66589 1.23183,-0.79198 2.41438,-1.25826 2.62785,-1.0362 0.70677,0.73523 -1.08287,5.57731 -3.36555,9.10591 -1.23657,1.91154 -2.43307,3.78646 -2.65888,4.16652 -0.71267,1.19957 3.33388,-2.04909 7.81857,-6.2769 6.90333,-6.50795 11.99534,-7.81647 7.98032,-2.05073 -1.06356,1.52729 -1.85013,2.77689 -1.7479,2.77689 0.10216,0 1.8215,-0.59802 3.82069,-1.32896 3.7922,-1.38652 10.34069,-1.79551 10.99928,-0.68701 0.65164,1.09683 -4.52923,4.43521 -8.9071,5.73943 -4.07535,1.21411 -5.42773,2.25694 -2.92689,2.25694 1.81403,0 4.50146,1.40971 4.50146,2.36127 0,1.30264 -1.58795,1.62041 -8.516,1.70427 -3.57233,0.0432 -7.35751,0.27953 -8.4115,0.52505 -1.72934,0.40286 -1.53079,0.5273 2.03498,1.27539 4.01499,0.84236 7.34477,2.86848 6.37321,3.87803 -0.29405,0.30557 -4.16978,0.48602 -8.61278,0.40101 -9.23047,-0.17656 -11.28631,0.25815 -15.55695,3.28972 -4.55506,3.2335 -4.31953,3.85348 0.92032,2.42243 4.87278,-1.33082 12.27983,-1.65972 12.92489,-0.57392 0.21705,0.36547 0.0903,0.66448 -0.28167,0.66448 -1.71857,0 -0.3977,1.23747 2.09619,1.9638 2.99231,0.87153 6.7706,3.60248 6.04203,4.3672 -0.98932,1.03841 -6.30948,1.06488 -11.00499,0.0548 -7.6402,-1.64362 -8.03768,-1.51652 -4.75867,1.52189 1.53831,1.42545 2.56225,2.84075 2.27539,3.14511 -0.28683,0.30439 -3.16133,-0.41506 -6.38773,-1.59876 -6.85081,-2.51341 -7.94628,-2.59318 -11.28421,-0.82175 -6.096181,3.23525 -9.815861,12.18916 -11.147014,26.83287 -0.685867,7.54496 -1.06143,9.45153 -2.002944,10.16767 -1.527359,1.1618 -3.761107,1.12078 -4.724495,-0.0867 z"
       id="path1" /></g></svg>
