<?xml version="1.0" encoding="UTF-8" standalone="no"?>
<!-- Created with Inkscape (http://www.inkscape.org/) -->

<svg
   width="180mm"
   height="180mm"
   viewBox="0 0 180 180"
   version="1.1"
   id="svg1"
   sodipodi:docname="rafflesia.svg"
   inkscape:version="1.4.2 (f4327f4, 2025-05-13)"
   xml:space="preserve"
   xmlns:inkscape="http://www.inkscape.org/namespaces/inkscape"
   xmlns:sodipodi="http://sodipodi.sourceforge.net/DTD/sodipodi-0.dtd"
   xmlns="http://www.w3.org/2000/svg"
   xmlns:svg="http://www.w3.org/2000/svg"><sodipodi:namedview
     id="namedview1"
     pagecolor="#505050"
     bordercolor="#ffffff"
     borderopacity="1"
     inkscape:showpageshadow="0"
     inkscape:pageopacity="0"
     inkscape:pagecheckerboard="1"
     inkscape:deskcolor="#505050"
     inkscape:document-units="mm"
     inkscape:zoom="1"
     inkscape:cx="73"
     inkscape:cy="204"
     inkscape:window-width="2560"
     inkscape:window-height="1351"
     inkscape:window-x="-9"
     inkscape:window-y="-9"
     inkscape:window-maximized="1"
     inkscape:current-layer="layer1"
     showguides="true" /><defs
     id="defs1"><rect
       x="101.82338"
       y="91.923881"
       width="384.66609"
       height="299.81327"
       id="rect3" /><rect
       x="2.8284271"
       y="2.1213203"
       width="662.55905"
       height="647.0027"
       id="rect2" /></defs><g
     inkscape:label="Icon"
     inkscape:groupmode="layer"
     id="layer1"><path
       style="fill:#000000;stroke-width:3.74163"
       d="m 56.938568,172.96212 c -2.323511,-0.85419 -6.270501,-3.31416 -8.771086,-5.46666 -2.50058,-2.15253 -8.833683,-7.24813 -14.073557,-11.32365 -7.712676,-5.99876 -9.969216,-8.36542 -11.848847,-12.427 -2.974766,-6.428 -3.067896,-13.94066 -0.2477,-19.98203 3.938824,-8.43767 16.357019,-17.62535 25.439382,-18.82151 l 4.497694,-0.59235 2.407547,4.56176 c 5.171746,9.7993 13.682614,17.06235 23.719434,20.24185 3.098019,0.9814 6.530023,2.16323 7.626675,2.62628 5.91984,2.49959 1.945718,25.33474 -6.051106,34.76946 -5.643655,6.65839 -14.910321,9.27687 -22.698436,6.41385 z M 70.886005,160.0425 c 1.820704,-1.28287 0.476055,-1.86205 -6.323444,-2.7237 -4.511412,-0.57172 -5.819184,-0.45421 -5.301999,0.47632 1.508253,2.71376 8.927891,4.14807 11.625443,2.24738 z m 6.238929,-12.91176 c -0.838492,-0.52181 -2.23817,-0.64101 -3.110399,-0.26475 -1.447977,0.62444 -1.429306,0.81205 0.214701,2.15758 1.378997,1.12861 2.107235,1.19064 3.110399,0.26476 1.109799,-1.02421 1.07701,-1.3537 -0.214701,-2.15755 z m -28.635509,-5.12859 c 0,-1.45716 -2.773133,-5.04096 -3.900676,-5.04096 -1.304458,0 -0.900411,2.31386 0.7604,4.35458 1.773684,2.17941 3.140276,2.47812 3.140276,0.68638 z m 16.898287,0.77634 c 0,-0.79366 -11.360933,-8.14707 -11.812072,-7.64539 -1.741653,1.93675 5.269427,8.09176 9.217173,8.09176 1.427194,0 2.594899,-0.20083 2.594899,-0.44637 z m 13.143113,-4.60809 c 0,-0.4833 -1.733801,-1.45637 -3.85289,-2.16235 -2.11909,-0.706 -4.442606,-1.53529 -5.163365,-1.84285 -0.792986,-0.33852 -1.310473,0.1164 -1.310473,1.15205 0,0.94119 0.950526,2.13612 2.112284,2.65536 2.709729,1.21118 8.214444,1.34372 8.214444,0.19768 z M 36.056092,127.07117 c -1.359243,-5.18363 -2.895545,-6.30138 -3.310797,-2.40876 -0.279137,2.61658 3.598521,10.4297 4.205,8.47267 0.207285,-0.66893 -0.19508,-3.39769 -0.894203,-6.06391 z m 25.576447,3.85468 c 0,-0.44862 -2.534744,-3.60487 -5.632763,-7.01397 -4.808318,-5.29107 -5.632763,-5.85525 -5.632763,-3.85463 0,2.66455 7.590321,11.68424 9.832628,11.68424 0.788094,0 1.432898,-0.36694 1.432898,-0.81564 z M 44.37423,121.62177 c -1.301787,-4.18129 -3.395153,-5.86264 -3.395153,-2.7269 0,2.20797 2.498381,6.58295 3.759265,6.58295 0.460027,0 0.296168,-1.7352 -0.364112,-3.85605 z m 64.91063,51.49829 c -7.99792,-3.31609 -12.727832,-9.40288 -15.74342,-20.25976 -1.850384,-6.66191 -2.477641,-17.41221 -1.149029,-19.69294 0.379344,-0.65119 3.323592,-1.9315 6.542771,-2.84515 11.595198,-3.29085 20.857458,-10.52664 26.065918,-20.36302 2.45887,-4.64364 3.20246,-5.3215 5.85762,-5.33957 5.25913,-0.0355 14.96853,5.05122 20.63744,10.81261 7.91607,8.04516 10.32498,15.85271 7.64129,24.76603 -1.75518,5.82941 -5.32478,10.22093 -12.41205,15.27005 -3.68697,2.62667 -8.99691,6.85188 -11.79985,9.38935 -2.80293,2.53747 -6.76456,5.56 -8.80364,6.71678 -4.80323,2.72489 -12.32708,3.41557 -16.83705,1.54562 z m 9.87896,-21.9039 c 3.15896,-1.46837 6.00022,-4.50429 5.12562,-5.47684 -0.72844,-0.81004 -10.08444,4.62174 -10.08444,5.8547 0,1.39431 1.37099,1.28987 4.95882,-0.37799 z m -11.75925,-2.51056 c 0.26012,-0.8809 -0.70783,-1.30494 -2.97868,-1.30494 -3.2092,0 -4.14943,0.8665 -2.69505,2.48381 1.03795,1.15421 5.24278,0.28053 5.67373,-1.17887 z m 3.40637,-11.68199 c 1.03483,-1.15074 1.62919,-2.37289 1.32074,-2.71589 -0.79323,-0.88208 -10.13101,3.73243 -10.13101,5.00651 0,1.7452 6.76193,-0.0118 8.81027,-2.29062 z m 12.97714,-1.24816 c 2.32709,-2.49351 3.55714,-4.50625 2.91151,-4.76413 -1.18513,-0.4734 -10.61702,6.86509 -10.61702,8.26062 0,2.21948 4.11271,0.35313 7.70551,-3.49649 z m 12.42504,-2.92425 c 2.23019,-2.74036 0.96014,-5.00514 -1.44787,-2.58186 -1.82314,1.83476 -2.41927,4.60399 -0.99109,4.60399 0.43633,0 1.53382,-0.90995 2.43896,-2.02213 z m 10.07163,-1.79349 c 1.70636,-1.71716 2.47487,-8.71172 0.9572,-8.71172 -0.41777,0 -1.43507,2.34887 -2.26066,5.21973 -1.61064,5.60065 -1.38707,6.1996 1.30346,3.49199 z M 129.2257,119.19766 c 0,-0.56509 -0.5922,-1.02744 -1.31599,-1.02744 -1.60333,0 -5.34689,6.29875 -4.57207,7.69281 0.59141,1.06414 5.88806,-4.93175 5.88806,-6.66537 z m 8.85697,0.14874 c 1.30552,-2.8073 1.14092,-4.3081 -0.47248,-4.3081 -0.92966,0 -2.74287,5.92554 -2.04922,6.69687 0.86459,0.96146 1.04181,0.79357 2.5217,-2.38877 z m -59.082446,5.76921 C 61.954981,118.84354 52.114923,102.52962 54.980358,85.29288 56.377297,76.889777 58.516881,72.488676 64.417167,65.881658 71.762026,57.656977 77.87045,55.096901 90.265749,55.048252 c 8.59358,-0.03157 9.904271,0.236738 15.490091,3.196701 7.65369,4.055701 13.54384,10.385145 16.75545,18.005161 2.04349,4.848454 2.48847,7.400836 2.48907,14.277418 6.7e-4,7.360197 -0.37323,9.218268 -3.08973,15.354378 -3.54828,8.01477 -8.56507,13.38354 -16.15479,17.28804 -4.13956,2.12961 -6.931744,2.72283 -14.081901,2.99184 -5.670227,0.21346 -10.286251,-0.16769 -12.673715,-1.04618 z m 21.920416,-19.17086 c 11.48628,-6.049766 14.62626,-22.180482 6.46171,-33.194914 -9.75201,-13.156034 -30.583456,-11.108218 -37.256511,3.662482 -3.853653,8.529993 -2.987486,16.854973 2.494667,23.977012 7.232722,9.39625 17.267789,11.36618 28.300134,5.55542 z M 81.816605,103.1369 c -3.432657,-1.68233 -7.90563,-6.551383 -9.028902,-9.828377 -1.253872,-3.657984 -0.992749,-11.428919 0.49056,-14.599105 6.613821,-14.135337 26.490156,-13.995663 33.144497,0.232792 2.87878,6.155559 1.3449,16.099939 -3.18685,20.660442 -4.681162,4.710908 -15.407102,6.480638 -21.419305,3.534088 z m 1.408191,-8.745147 c 0,-1.679374 -2.9768,-5.452017 -4.301916,-5.452017 -1.195703,0 -1.185421,0.416421 0.07735,3.131835 1.300989,2.797601 4.224572,4.403272 4.224572,2.320182 z m 17.367684,-2.320182 c 1.22132,-2.626322 1.24264,-3.131835 0.13206,-3.131835 -0.728371,0 -2.006596,1.157921 -2.840486,2.573135 -1.869119,3.172159 -1.887673,3.690535 -0.132064,3.690535 0.761244,0 2.039469,-1.409336 2.84049,-3.131835 z M 84.57255,85.916643 c 0.635219,-1.142927 -2.831781,-6.107227 -3.640194,-5.212281 -0.797476,0.882832 1.098404,6.147472 2.213798,6.147472 0.498645,0 1.140521,-0.420841 1.426396,-0.935191 z m 13.557405,-1.80958 c 0.618546,-1.509593 0.861222,-3.03639 0.539276,-3.392798 -0.814411,-0.901652 -4.288692,4.05152 -3.649076,5.202378 0.905411,1.629066 1.949887,1.021283 3.1098,-1.80958 z m -6.792797,-0.916882 c 0.76297,-2.210967 -0.559976,-9.338215 -1.525539,-8.218724 -0.786522,0.911951 -1.257496,4.457918 -1.057977,7.965573 0.127381,2.239652 1.840098,2.407459 2.583516,0.252914 z M 25.22327,103.38444 C 8.6708373,100.49361 2.7920357,87.062964 10.376189,69.464912 12.13272,65.389127 14.687003,57.981702 16.052374,53.003949 19.988772,38.653023 26.818656,32.663061 37.80746,33.924238 c 9.190374,1.054783 19.870254,9.89861 24.720433,20.47062 l 2.008362,4.377624 -4.411733,5.42712 c -6.434938,7.916016 -8.889847,14.579969 -9.61998,26.11392 l -0.606927,9.587617 -4.693966,1.691801 c -6.078456,2.19081 -13.753709,2.879 -19.980379,1.7915 z M 36.661911,91.770086 c -1.035442,-6.93549 -1.395006,-8.118742 -2.281912,-7.509183 -1.278619,0.878729 -1.139792,9.22687 0.1778,10.692035 1.710901,1.902538 2.651021,0.480458 2.104112,-3.182852 z M 25.369402,91.288602 c -0.343607,-1.578957 -1.015054,-4.045285 -1.492092,-5.4807 -0.787628,-2.370016 -0.953359,-2.438946 -1.803227,-0.75026 -1.20848,2.401264 0.681137,9.101832 2.566793,9.101832 1.001887,0 1.191051,-0.745445 0.728526,-2.870872 z m 23.911951,-23.96916 c 2.291171,-4.974241 2.399504,-5.522288 1.091551,-5.522288 -0.513098,0 -2.179392,1.913468 -3.702871,4.252115 -3.048933,4.680372 -5.278663,14.23812 -4.181667,17.924748 0.580961,1.952411 1.04929,1.104419 2.734773,-4.951752 1.11857,-4.019204 2.944765,-9.28546 4.058214,-11.702823 z m -18.998659,4.101589 c 0.399477,-2.221107 0.239503,-3.360207 -0.471922,-3.360207 -1.531756,0 -3.278111,4.745554 -2.536843,6.893627 0.830803,2.407577 2.237333,0.755744 3.008765,-3.53342 z m 7.689577,-1.539146 c 0.538049,-0.720943 1.270457,-2.605331 1.627575,-4.187564 0.525854,-2.329849 0.374183,-2.759408 -0.797719,-2.259341 -1.137034,0.485193 -3.455813,5.444717 -3.455813,7.391486 0,0.876282 1.731967,0.253308 2.625957,-0.944581 z m 10.60693,-15.463432 c 2.909539,-2.303848 3.543517,-4.104706 1.445021,-4.104706 -1.570418,0 -6.228764,3.960374 -6.228764,5.295493 0,1.579234 1.874864,1.112506 4.783743,-1.190787 z M 40.255816,44.238717 c -2.713913,-0.432913 -7.725883,3.553108 -7.725883,6.144394 0,1.748738 0.648621,1.497914 4.907881,-1.898001 4.233949,-3.375713 4.620905,-3.958837 2.818002,-4.246393 z M 135.79724,102.3507 c -2.3235,-0.60017 -4.70271,-1.52574 -5.28706,-2.05677 -0.58993,-0.536096 -1.24422,-5.249375 -1.47098,-10.596635 -0.46347,-10.928496 -2.72243,-17.210868 -9.39197,-26.119877 -4.51171,-6.026657 -4.36581,-7.565212 1.47296,-15.535756 13.31341,-18.174191 32.70185,-19.342173 40.26657,-2.425648 0.77025,1.7225 2.12314,5.925925 3.00636,9.340937 0.88324,3.414972 2.84043,8.92862 4.34934,12.252526 5.45514,12.017014 5.53188,20.997676 0.23915,27.992232 -4.37798,5.785701 -9.04024,7.686411 -19.57189,7.979221 -5.16337,0.14363 -11.28898,-0.23003 -13.61252,-0.83023 z m 10.6405,-11.331741 c 0.53763,-2.574082 -0.65542,-6.223069 -1.66687,-5.098331 -0.28385,0.315649 -0.78216,2.885983 -1.107,5.71148 -0.5251,4.567211 -0.4343,4.96347 0.81818,3.571298 0.77486,-0.86125 1.65491,-2.744257 1.95569,-4.184447 z m 9.61406,0.589949 c 0.6077,-2.692451 -0.0582,-4.757074 -1.5341,-4.757074 -0.48586,0 -0.88336,1.644217 -0.88336,3.6538 0,4.186696 1.56075,4.898998 2.41746,1.103274 z M 136.27284,72.63131 c -1.47425,-4.292636 -3.8109,-7.473239 -4.73517,-6.445444 -0.25264,0.280928 0.20153,2.268178 1.00863,4.416528 0.80722,2.148351 1.90961,6.565904 2.44972,9.816779 1.36843,8.236479 2.16,8.967444 2.4997,2.308383 0.17671,-3.461451 -0.3023,-7.415987 -1.22288,-10.096246 z m 16.67024,3.520084 c 0.53468,-1.727037 -1.13894,-7.046638 -2.21698,-7.046638 -0.96121,0 -1.13546,4.212895 -0.27711,6.700252 0.68292,1.979043 1.93479,2.152888 2.49409,0.346426 z m -9.63548,-7.452958 c 0,-2.825103 -3.2278,-7.828502 -4.29066,-6.650932 -0.81949,0.907926 2.32801,9.145155 3.49444,9.145155 0.43792,0 0.79622,-1.12241 0.79622,-2.494223 z m -8.41512,-15.18215 c -1.04505,-2.171431 -4.46754,-3.841966 -5.50282,-2.686019 -0.80343,0.897037 3.35336,4.703217 5.13643,4.703217 1.03068,0 1.11467,-0.462426 0.36639,-2.017198 z m 13.61943,-3.508483 c -1.7011,-2.887009 -7.61556,-6.756201 -8.62005,-5.639235 -0.3704,0.411922 1.61957,3.041479 4.42223,5.84346 5.10254,5.101449 7.26216,4.996377 4.19782,-0.204383 z M 63.601237,49.299959 C 54.283725,33.269265 55.11938,16.510408 65.621598,8.7818873 c 3.7197,-2.7372732 3.944655,-2.7670627 22.18073,-2.9379474 10.132603,-0.095089 20.012662,0.2611999 21.955722,0.7916489 12.59971,3.4391192 16.6938,21.3442982 8.73261,38.1914202 -5.2173,11.040551 -5.6113,11.30112 -12.86039,8.505688 -3.74861,-1.445595 -9.131915,-2.480334 -14.44083,-2.775703 -7.360869,-0.409516 -9.389316,-0.116002 -15.560674,2.252791 -3.903037,1.498032 -7.390728,2.723699 -7.750422,2.723699 -0.359695,0 -2.284393,-2.805098 -4.277107,-6.233525 z m 36.214532,-7.806091 c -2.640592,-2.225526 -10.387742,-3.023922 -15.669755,-1.614863 -8.082955,2.156241 -6.250762,3.128639 5.829631,3.093918 10.049005,-0.02762 11.331965,-0.221744 9.840124,-1.479055 z m 12.511641,-2.013726 c 0,-1.776791 -1.6248,-3.329509 -4.95944,-4.739359 -3.67187,-1.552402 -3.34255,0.866222 0.51249,3.763727 3.61067,2.713835 4.44695,2.897346 4.44695,0.975632 z M 70.506905,38.662808 c 2.412699,-1.222431 2.880841,-2.071766 1.802739,-3.270642 -0.775047,-0.861842 -5.983136,2.154308 -5.983136,3.465003 0,1.342891 1.262137,1.28422 4.180397,-0.194519 z M 87.689336,31.78374 c 0.576532,-1.94961 -5.846889,-1.660474 -7.332473,0.330248 -1.080554,1.447805 -0.752793,1.597187 2.863168,1.304935 2.245873,-0.181498 4.257063,-0.917277 4.469305,-1.634986 z m 25.507484,-6.095626 c -1.27093,-1.702929 -4.62458,-1.989657 -4.62458,-0.39539 0,1.251708 3.86782,3.087328 4.97426,2.360703 0.4123,-0.270669 0.25511,-1.155159 -0.34986,-1.965313 z m -14.417059,0.498174 c 0.924199,-1.662842 -1.482228,-3.082672 -4.686541,-2.765089 -3.896115,0.386276 -4.155981,2.646405 -0.363985,3.165845 1.709441,0.233975 3.399983,0.500976 3.756761,0.592869 0.356778,0.09193 0.938974,-0.355105 1.293765,-0.993625 z M 71.489873,23.860701 c 8.629456,-4.159984 8.59781,-4.138204 6.712503,-4.617242 -2.888093,-0.733885 -7.668317,0.694034 -9.833803,2.937434 -1.919982,1.989105 -2.87714,4.774119 -1.337972,3.893102 0.387254,-0.221743 2.393926,-1.217656 4.459272,-2.213294 z"
       id="path1" /></g></svg>
