<?xml version="1.0" encoding="UTF-8" standalone="no"?>
<!-- Created with Inkscape (http://www.inkscape.org/) -->

<svg
   width="180mm"
   height="180mm"
   viewBox="0 0 180 180"
   version="1.1"
   id="svg1"
   sodipodi:docname="redtop_grass.svg"
   inkscape:version="1.4.2 (f4327f4, 2025-05-13)"
   xml:space="preserve"
   xmlns:inkscape="http://www.inkscape.org/namespaces/inkscape"
   xmlns:sodipodi="http://sodipodi.sourceforge.net/DTD/sodipodi-0.dtd"
   xmlns="http://www.w3.org/2000/svg"
   xmlns:svg="http://www.w3.org/2000/svg"><sodipodi:namedview
     id="namedview1"
     pagecolor="#505050"
     bordercolor="#ffffff"
     borderopacity="1"
     inkscape:showpageshadow="0"
     inkscape:pageopacity="0"
     inkscape:pagecheckerboard="1"
     inkscape:deskcolor="#505050"
     inkscape:document-units="mm"
     inkscape:zoom="1"
     inkscape:cx="73"
     inkscape:cy="204"
     inkscape:window-width="2560"
     inkscape:window-height="1351"
     inkscape:window-x="-9"
     inkscape:window-y="-9"
     inkscape:window-maximized="1"
     inkscape:current-layer="layer1"
     showguides="true" /><defs
     id="defs1"><rect
       x="101.82338"
       y="91.923881"
       width="384.66609"
       height="299.81327"
       id="rect3" /><rect
       x="2.8284271"
       y="2.1213203"
       width="662.55905"
       height="647.0027"
       id="rect2" /></defs><g
     inkscape:label="Icon"
     inkscape:groupmode="layer"
     id="layer1"><path
       style="fill:#000000;stroke-width:3.93503"
       d="m 87.863992,170.25755 c 0,-4.25966 -0.796299,-7.02161 -3.440337,-11.93267 -4.052194,-7.52649 -8.920532,-11.62646 -15.937596,-13.42221 l -5.087228,-1.30187 -4.589795,4.83563 c -4.517396,4.75938 -6.93649,6.01895 -6.93649,3.61166 0,-0.67318 1.280017,-2.51638 2.844482,-4.09598 4.601523,-4.6461 0.302309,-3.52888 -4.710039,1.22396 -5.491179,5.2069 -8.094035,5.63235 -5.472835,0.89457 1.094299,-1.97793 1.028745,-1.99205 -2.064574,-0.44469 -3.868044,1.93492 -7.883667,2.11044 -7.27825,0.31813 0.237813,-0.704 2.007109,-1.78356 3.931795,-2.399 2.92939,-0.93672 3.179926,-1.23763 1.538015,-1.84707 -3.604346,-1.33794 0.510303,-2.47208 7.385387,-2.03563 6.094235,0.38702 6.274144,0.33555 3.078751,-0.87769 -1.866538,-0.70872 -4.010145,-1.91178 -4.763576,-2.67348 -1.144242,-1.15678 -0.672447,-1.29886 2.864415,-0.8626 2.328858,0.28717 6.139701,0.99933 8.468587,1.58242 5.189851,1.29935 15.771239,3.09654 16.170089,2.74636 0.92977,-0.81631 -13.633036,-14.11672 -16.805512,-15.3487 -3.569698,-1.3862 -4.11993,-1.32095 -8.684745,1.02972 -5.150445,2.65227 -8.146282,3.1931 -8.146282,1.47065 0,-0.57148 1.548162,-1.95219 3.440361,-3.06817 4.48083,-2.64279 1.920653,-2.63447 -3.440361,0.0116 -2.28247,1.1264 -5.002548,2.03335 -6.044619,2.01543 -1.750728,-0.031 -1.738561,-0.14669 0.160156,-1.53602 1.912015,-1.39894 1.746481,-1.50343 -2.381786,-1.50343 -4.44832,0 -5.898275,-1.28631 -2.762179,-2.45044 0.92094,-0.34174 2.707283,-0.63619 3.969648,-0.65411 2.245918,-0.031 2.251079,-0.065 0.240374,-1.53602 -1.942215,-1.42103 -1.865885,-1.50343 1.39281,-1.50343 1.896196,0 4.488121,0.56463 5.759828,1.25469 2.529758,1.37277 13.68474,3.87387 14.404071,3.22959 0.640432,-0.5736 -8.030041,-7.73416 -11.939479,-9.86027 -1.812297,-0.98559 -5.358353,-1.792 -7.880122,-1.792 -4.764484,0 -8.680147,-1.40203 -8.680147,-3.10803 0,-1.31998 8.071877,-1.26541 10.655316,0.072 1.126155,0.58301 2.04755,0.65558 2.04755,0.16139 0,-0.88625 -3.071316,-2.49948 -10.850364,-5.69927 -4.677856,-1.92417 -5.430793,-4.26195 -1.058571,-3.28673 2.881539,0.64273 2.889128,0.63089 0.748181,-1.16896 -5.484398,-4.610651 -5.554934,-8.456968 -0.07866,-4.290041 2.37746,1.809025 2.770854,1.871142 2.770854,0.437607 0,-2.83336 1.991412,-0.657436 3.317864,3.625254 0.692488,2.23587 1.974501,4.63573 2.848915,5.33303 1.379863,1.10038 1.427142,0.97243 0.357961,-0.96884 -1.520775,-2.76122 -1.607083,-6.467319 -0.150594,-6.467319 1.254919,0 2.639319,2.909679 4.150209,8.722739 0.766012,2.94718 2.440294,5.22319 5.900547,8.02114 l 4.831074,3.90638 -0.732545,-2.90112 c -0.402899,-1.59563 -1.850986,-4.2037 -3.217974,-5.79572 -2.782644,-3.2407 -3.335657,-6.34413 -0.974292,-5.4676 1.191981,0.44245 1.386301,-0.18306 0.920067,-2.96243 -0.325073,-1.93787 -0.147673,-3.523389 0.39429,-3.523389 1.927478,0 3.525934,2.502689 3.525934,5.520509 0,2.89505 0.0823,2.95407 1.501312,1.07681 2.541325,-3.36196 3.293135,-0.6255 1.311188,4.77255 -2.583708,7.03697 -1.280133,10.287 7.266659,18.11691 l 6.857988,6.28271 -0.012,-4.31674 c -0.004,-2.43171 -1.161503,-6.70878 -2.646437,-9.79444 -1.449848,-3.01271 -2.636076,-6.39193 -2.636076,-7.50934 0,-3.1179 2.482561,-1.64996 3.909883,2.31192 1.166823,3.23881 1.268046,3.30123 1.323218,0.81615 0.03201,-1.48001 -0.669951,-4.38029 -1.561792,-6.44506 -1.77412,-4.1074 -1.10933,-6.91534 0.982142,-4.14847 1.140818,1.5092 1.405357,1.40823 2.522128,-0.96272 1.811009,-3.844963 3.733083,-3.39261 2.885932,0.67919 -0.380886,1.83043 -0.958376,4.2496 -1.283369,5.37603 -0.582532,2.01879 -0.558767,2.02018 1.666895,0.0971 2.142284,-1.8509 2.25783,-1.85585 2.25783,-0.0968 0,1.01969 -1.122373,3.2799 -2.494123,5.02267 -1.37179,1.74277 -2.868648,4.32065 -3.32635,5.72868 -0.779496,2.39773 -0.628022,2.34904 2.389539,-0.76801 3.14507,-3.24879 5.548052,-4.28067 5.548052,-2.38244 0,0.52005 -1.667256,3.05846 -3.704996,5.64087 -5.743216,7.27833 -5.072625,10.64841 4.460407,22.41567 3.368919,4.15849 6.692749,8.43502 7.386267,9.5034 0.997744,1.53695 1.273806,-3.0814 1.322378,-22.12149 l 0.06161,-24.064 -3.045447,-6.22721 C 80.027811,92.711736 73.671017,89.508536 66.691082,93.368321 c -2.709051,1.498052 -7.410032,2.056875 -7.410032,0.880865 0,-0.360318 0.833628,-1.267231 1.852498,-2.015424 1.635169,-1.200702 1.33198,-1.364142 -2.583943,-1.392898 -5.418107,-0.03986 -7.026153,-1.859687 -2.429028,-2.749105 2.268471,-0.438846 2.891652,-0.9073 1.95332,-1.46829 -0.757891,-0.453089 -1.019469,-1.170592 -0.58133,-1.594421 0.809702,-0.783219 5.262947,0.264724 12.903511,3.036006 2.328846,0.844756 4.467448,1.313209 4.752433,1.041054 0.284864,-0.272077 -1.942319,-2.76536 -4.949517,-5.540357 L 64.73132,78.520319 h -8.01797 c -6.253783,0 -8.018013,-0.322778 -8.018013,-1.467013 0,-0.806828 -0.952715,-1.759486 -2.117142,-2.11698 -1.16443,-0.357609 -2.117145,-1.079756 -2.117145,-1.605025 0,-1.529981 9.233335,-1.101236 13.510105,0.627365 l 3.914963,1.582346 -2.971191,-2.999974 c -1.7746,-1.791764 -4.537372,-3.248753 -6.86004,-3.617741 -2.138859,-0.339807 -5.556085,-1.651778 -7.593837,-2.915526 l -3.705004,-2.297758 2.858724,-0.337872 c 1.572299,-0.185771 3.893567,0.197769 5.158377,0.852574 1.264809,0.654767 0.09746,-0.850638 -2.594082,-3.345353 -7.078533,-6.5609 -6.601681,-9.251991 0.780696,-4.405799 3.653945,2.398656 3.852722,2.425051 3.852722,0.511994 0,-1.109442 0.4596,-2.017128 1.021326,-2.017128 1.35233,0 3.040895,3.163801 4.87202,9.128491 0.822585,2.679403 2.453034,5.709797 3.623258,6.734248 2.651678,2.321367 2.650157,1.924165 -0.016,-3.903674 -1.911831,-4.180821 -1.987368,-5.049302 -0.701678,-8.066189 l 1.440806,-3.380883 2.289556,4.31121 c 1.478414,2.78386 2.289517,6.189628 2.289517,9.613471 0,4.762711 0.430897,5.754459 4.234316,9.745909 4.495494,4.717778 5.641193,3.699094 2.121079,-1.885849 -2.131121,-3.381192 -3.166156,-12.133574 -1.062521,-8.984751 0.802622,1.201399 1.029673,0.935707 1.042355,-1.21955 0.02401,-4.40692 1.917714,-4.322356 3.302145,0.147456 1.135737,3.666932 1.4168,3.917027 2.622473,2.333559 2.542534,-3.339355 2.826638,1.080685 0.4451,6.925321 -2.66176,6.532415 -2.266272,8.050011 4.642007,17.810977 l 4.883062,6.899545 V 83.393487 65.609215 L 84.796853,60.9349 C 82.30605,57.135606 80.97531,56.123191 77.688088,55.526633 72.943098,54.665544 68.678256,52.677869 66.74778,50.427792 c -1.176186,-1.370954 -1.044956,-1.603516 0.905044,-1.603516 1.254404,0 3.990901,0.691224 6.081053,1.536019 4.990846,2.017205 5.308398,1.946883 2.911856,-0.644704 -1.109129,-1.199386 -3.928766,-2.979616 -6.265854,-3.956077 -4.457366,-1.862357 -7.639403,-4.720138 -6.491744,-5.830315 0.371684,-0.359545 1.913831,-0.10798 3.427213,0.559171 l 2.751541,1.212738 -2.217781,-3.471291 c -1.219795,-1.909187 -2.21782,-4.313648 -2.21782,-5.343246 0,-1.50827 0.719962,-1.197025 3.704996,1.601735 2.161888,2.02692 3.705037,2.878294 3.705037,2.044065 0,-3.158693 2.387298,1.011602 3.307905,5.778454 0.523598,2.710984 1.636489,5.591251 2.473159,6.400595 1.322538,1.279345 1.443566,1.184331 0.926729,-0.727372 -0.326874,-1.20941 -0.274863,-3.430189 0.115626,-4.93513 0.654227,-2.521458 0.84447,-2.606139 2.423547,-1.078635 1.102929,1.066908 1.774881,3.643749 1.885586,7.230877 0.164036,5.311317 2.13144,11.910648 3.551361,11.911538 1.042475,6.58e-4 0.166037,-18.638239 -1.014029,-21.565259 C 86.130033,38.10597 84.234806,36.115314 82.499534,35.123721 78.44842,32.808856 76.63141,29.92855 75.800343,24.504299 c -0.700238,-4.570322 0.199245,-5.440157 2.912017,-2.816021 0.873316,0.844833 2.039581,1.536018 2.591665,1.536018 0.989263,0 5.498841,9.133755 5.498841,11.137376 0,0.56637 0.434378,1.289446 0.965257,1.606844 2.128521,1.272533 0.283665,-9.30927 -2.400302,-13.768206 -1.525543,-2.534424 -2.779467,-6.105606 -2.786508,-7.935995 -0.016,-3.75049 0.697797,-4.148543 2.74798,-1.536019 1.311456,1.671207 1.408518,1.646979 1.439885,-0.359157 0.02,-1.18317 0.582092,-3.6730083 1.252402,-5.5330433 1.136057,-3.1524613 1.315538,-3.2537067 2.646438,-1.4930593 0.785217,1.0388098 1.427722,3.7463875 1.427722,6.0168606 0,4.028257 0.04001,4.073074 1.647852,1.852295 0.906364,-1.251712 2.097233,-2.275853 2.646437,-2.275853 1.944399,0 0.956616,4.874096 -2.243066,11.068059 -2.294638,4.442024 -3.14503,7.406392 -2.911057,10.147563 l 0.330474,3.872364 1.587879,-5.051276 c 1.59652,-5.078755 7.433721,-11.8447 10.218821,-11.8447 1.79133,0 1.78701,0.07392 -0.31447,5.355245 -0.95705,2.405002 -3.902877,6.548283 -6.546313,9.207328 -4.461887,4.488195 -4.840573,5.29421 -5.285913,11.250038 -0.431978,5.776867 -0.31207,6.280927 1.204112,5.06366 0.926128,-0.743511 2.399581,-3.733422 3.274338,-6.644187 1.242041,-4.133024 2.586224,-6.0342 6.136106,-8.678886 5.13868,-3.828321 6.47554,-2.711487 3.47438,2.90256 -1.68538,3.152694 -1.67377,3.216514 0.46535,2.559735 2.25007,-0.690798 2.75862,0.10527 1.38367,2.166132 -0.42778,0.641143 -3.1123,2.489761 -5.96563,4.108061 -8.196165,4.648539 -9.462851,6.971261 -9.974647,18.290692 -0.304468,6.737731 -0.07602,9.715567 0.745568,9.715567 0.651667,0 1.184828,-0.395925 1.184828,-0.87982 0,-0.483896 1.905429,-2.973811 4.234275,-5.533121 2.979956,-3.274838 4.234316,-5.58649 4.234316,-7.803438 0,-3.49401 2.93578,-11.3836 4.23595,-11.3836 1.11126,0 2.15013,2.754523 1.64138,4.352002 -0.22405,0.703995 -0.71557,2.627657 -1.09193,4.274829 -1.18039,5.166183 2.05714,1.342004 4.61989,-5.457031 2.2223,-5.8958 4.80108,-9.224706 6.14154,-7.928022 0.37168,0.359545 0.13204,1.807516 -0.5322,3.217907 -1.57743,3.34903 -1.24176,3.249488 3.43765,-1.019691 2.16065,-1.971188 4.37092,-3.583992 4.91167,-3.583992 2.14918,0 0.78318,3.161324 -2.83447,6.560009 l -3.8177,3.586586 3.8177,-0.599267 c 2.45527,-0.385476 3.81766,-0.195447 3.81766,0.532389 0,1.587842 -4.99593,3.881304 -10.31809,4.736704 -2.47276,0.397434 -5.50628,1.514035 -6.7412,2.481323 -2.16565,1.696402 -1.99694,1.743425 4.76059,1.327181 4.06088,-0.250017 7.00587,-0.01935 7.00587,0.547406 0,1.605296 -5.42875,3.514522 -11.64432,4.095096 -6.47618,0.604957 -9.852541,2.911888 -14.653985,10.012569 -2.549695,3.770615 -2.800872,5.133132 -3.162033,17.151992 -0.271662,9.045555 -0.036,13.056005 0.772574,13.056005 0.640664,0 1.164863,-0.36883 1.164863,-0.81932 0,-0.45062 2.381778,-3.67851 5.292874,-7.17314 5.230417,-6.278915 5.292837,-6.439065 5.292837,-13.577133 0,-4.554764 0.39129,-6.98949 1.0586,-6.59043 0.58221,0.347934 1.05855,-0.03483 1.05855,-0.850097 0,-0.815652 0.90645,-2.56585 2.01434,-3.889354 l 2.0143,-2.406319 0.72988,4.708296 c 0.58469,3.771621 0.26606,5.602823 -1.60136,9.204889 l -2.33125,4.496594 4.34122,-4.038938 c 2.94915,-2.743803 4.52979,-5.20655 4.92912,-7.680017 0.70703,-4.379287 3.59773,-10.297032 5.02985,-10.297032 1.07096,0 0.51587,6.088693 -0.88688,9.727991 -1.33206,3.455926 1.64874,0.169903 4.73583,-5.220638 2.06767,-3.610581 3.68399,-5.07082 6.69535,-6.04879 4.93696,-1.6034 5.30984,-0.156357 1.18239,4.588551 l -2.78723,3.204284 2.78723,-0.676711 c 1.72515,-0.418837 2.78723,-0.254275 2.78723,0.431996 0,1.481255 -5.63384,4.232024 -8.68064,4.23841 -1.3389,0.0028 -3.86343,1.191723 -5.61006,2.642093 -2.00726,1.666756 -2.45792,2.416846 -1.22488,2.038569 4.97,-1.524717 7.26036,-1.783791 9.95808,-1.126393 l 2.91106,0.709414 -2.49905,1.96159 c -1.86829,1.46651 -4.17177,1.961629 -9.12637,1.961629 -6.23417,0 -6.90224,0.240341 -11.26239,4.053994 -3.17387,2.776003 -4.07076,4.06723 -2.84504,4.095986 0.98454,0.02322 2.07355,-0.401731 2.42007,-0.944067 1.30281,-2.039188 8.26534,-3.104664 12.41981,-1.900595 2.20673,0.639556 3.99998,1.435509 3.98497,1.768775 -0.016,0.333227 -1.89411,1.438063 -4.1757,2.455161 -3.28386,1.463878 -5.49064,1.702362 -10.58899,1.14439 l -6.44054,-0.704886 -3.93913,4.028373 c -7.994285,8.175415 -8.702645,10.866545 -8.702645,33.060715 v 19.69752 l 7.353299,-10.79258 c 4.044316,-5.93589 7.886496,-12.70814 8.538246,-15.0494 1.08356,-3.89265 0.95257,-4.58116 -1.53118,-8.04816 -2.79043,-3.89512 -3.54881,-7.26524 -1.63481,-7.26524 0.59469,0 1.62388,1.15201 2.28703,2.56 2.18585,4.64069 2.95375,2.66346 0.82835,-2.13288 -1.14374,-2.5811 -2.07951,-5.34592 -2.07951,-6.144 0,-1.96918 1.73627,-1.84018 2.54117,0.18887 0.55281,1.39359 0.96202,1.27822 2.72446,-0.76801 l 2.07394,-2.40791 0.036,2.94138 c 0.032,2.51778 0.26766,2.75487 1.64865,1.64609 2.9948,-2.40427 2.8717,-0.12811 -0.34408,6.36313 -1.75951,3.55156 -3.52559,8.531 -3.92468,11.06543 l -0.72561,4.60798 6.53432,-6.144 c 8.77086,-8.24689 9.95897,-10.61257 9.08466,-18.08813 -0.45835,-3.91912 -0.31648,-5.975876 0.4122,-5.975876 0.61114,0 1.13022,0.576008 1.15355,1.280006 0.024,0.70399 0.82639,-0.10256 1.78464,-1.791999 l 1.74223,-3.071999 0.75629,2.560006 c 0.41594,1.407991 0.80374,1.983998 0.8618,1.280003 0.13883,-1.682276 2.22265,-1.66513 2.22265,0.01935 0,0.714058 -1.12364,2.902869 -2.49695,4.863999 -1.37336,1.96113 -2.85949,4.67857 -3.30255,6.03877 -0.74057,2.27357 -0.42185,2.16892 3.95081,-1.29711 4.06408,-3.22143 4.8565,-4.47562 5.44427,-8.61709 0.37849,-2.665774 1.61897,-5.99886 2.75695,-7.40689 l 2.06898,-2.559967 0.024,2.749338 c 0.012,1.512139 -0.46799,3.999926 -1.06876,5.528437 -0.9084,2.311262 -0.84811,2.583112 0.35808,1.614812 0.79767,-0.640364 2.00593,-2.958287 2.68505,-5.150968 1.51262,-4.883772 4.40075,-7.726383 4.40075,-4.331413 0,2.100493 0.11483,2.124256 2.61251,0.541098 4.08733,-2.590658 5.74858,-1.266225 2.43375,1.940304 -2.77403,2.683427 -2.78439,2.741094 -0.49923,2.774455 l 2.33368,0.03483 -2.49908,2.013916 c -1.37447,1.107661 -3.54612,2.013958 -4.82589,2.013958 -1.27973,0 -3.20273,0.61954 -4.27324,1.37675 -1.69222,1.19696 -1.16559,1.31415 4.03195,0.89721 3.28814,-0.26357 5.97838,-0.16875 5.97838,0.21131 0,1.21421 -7.21863,3.65842 -10.81636,3.66241 -3.67258,0.004 -7.44832,1.97858 -13.53077,7.07603 -3.96793,3.32534 -3.07686,3.90785 3.18268,2.0806 2.0339,-0.5937 5.12712,-1.27919 6.87375,-1.52325 1.74663,-0.24421 4.84138,-0.74889 6.87719,-1.12183 3.35428,-0.6144 3.56557,-0.51954 2.2522,1.01129 -1.28266,1.49504 -1.13727,1.68932 1.26424,1.68932 4.47237,0 4.46272,2.03915 -0.012,2.12883 -2.21767,0.0445 -3.4337,0.31426 -2.7023,0.59946 0.73137,0.28523 1.07628,0.91539 0.76646,1.40036 -0.30967,0.48494 -2.51633,0.21519 -4.90327,-0.59946 -4.68313,-1.59833 -9.52015,-2.03419 -5.62483,-0.50684 1.18463,0.4645 2.79112,1.5873 3.56997,2.4951 2.08559,2.43093 -0.99359,2.19814 -6.43334,-0.48637 -6.43037,-3.1734 -10.11172,-2.08881 -18.41603,5.4258 -6.27578,5.67895 -11.05798,11.4182 -7.98172,9.57902 0.6359,-0.38006 4.07551,-1.14601 7.6436,-1.70186 3.90272,-0.60801 7.80709,-1.98198 9.79978,-3.44861 3.65425,-2.68962 9.13454,-4.40974 9.13454,-2.86715 0,1.13201 -2.98468,3.8063 -5.29283,4.74247 -1.49727,0.60724 -0.25007,0.48734 10.05642,-0.96659 3.15784,-0.44546 3.83063,-0.32007 2.64644,0.49257 -1.41145,0.96879 -1.41145,1.09415 0,1.12833 0.87332,0.0194 2.73889,0.89445 4.14577,1.94061 2.46532,1.83329 2.48129,1.92567 0.44115,2.55203 -1.16423,0.35761 -4.19615,-0.06 -6.7376,-0.92715 l -4.62081,-1.57708 2.51169,2.58624 2.51168,2.58629 h -2.62531 c -1.44388,0 -4.23943,-1.15202 -6.21233,-2.56001 -2.21749,-1.58262 -5.00216,-2.56001 -7.29359,-2.56001 h -3.7066 l 4.9708,3.04944 c 4.57724,2.80797 6.38456,5.14258 3.98117,5.14258 -2.31667,0 -7.15308,-2.36603 -9.76752,-4.77839 -2.45731,-2.26734 -3.38745,-2.50702 -7.26832,-1.87277 -6.32495,1.0337 -11.80742,6.25616 -16.899932,16.09836 -3.801858,7.34776 -4.241717,8.98204 -4.241717,15.75933 0,6.87876 -0.191244,7.56143 -2.117158,7.56143 -1.856379,0 -2.117158,-0.68267 -2.117158,-5.54252 z"
       id="path1" /></g></svg>
