<?xml version="1.0" encoding="UTF-8" standalone="no"?>
<!-- Created with Inkscape (http://www.inkscape.org/) -->

<svg
   width="180mm"
   height="180mm"
   viewBox="0 0 180 180"
   version="1.1"
   id="svg1"
   sodipodi:docname="wild_daisy.svg"
   inkscape:version="1.4.2 (f4327f4, 2025-05-13)"
   xml:space="preserve"
   xmlns:inkscape="http://www.inkscape.org/namespaces/inkscape"
   xmlns:sodipodi="http://sodipodi.sourceforge.net/DTD/sodipodi-0.dtd"
   xmlns="http://www.w3.org/2000/svg"
   xmlns:svg="http://www.w3.org/2000/svg"><sodipodi:namedview
     id="namedview1"
     pagecolor="#505050"
     bordercolor="#ffffff"
     borderopacity="1"
     inkscape:showpageshadow="0"
     inkscape:pageopacity="0"
     inkscape:pagecheckerboard="1"
     inkscape:deskcolor="#505050"
     inkscape:document-units="mm"
     inkscape:zoom="1"
     inkscape:cx="73"
     inkscape:cy="204"
     inkscape:window-width="2560"
     inkscape:window-height="1351"
     inkscape:window-x="-9"
     inkscape:window-y="-9"
     inkscape:window-maximized="1"
     inkscape:current-layer="layer1"
     showguides="true" /><defs
     id="defs1"><rect
       x="101.82338"
       y="91.923881"
       width="384.66609"
       height="299.81327"
       id="rect3" /><rect
       x="2.8284271"
       y="2.1213203"
       width="662.55905"
       height="647.0027"
       id="rect2" /></defs><g
     inkscape:label="Icon"
     inkscape:groupmode="layer"
     id="layer1"><path
       style="fill:#000000;stroke-width:3.95167"
       d="m 84.805639,172.66982 c -2.597989,-2.65378 -3.770217,-5.20677 -5.069043,-11.03987 -0.929243,-4.17334 -1.697965,-8.44501 -1.708273,-9.49264 -0.01008,-1.04766 -1.427944,0.70696 -3.150307,3.89916 -3.60091,6.67388 -7.722286,11.44508 -11.016602,12.75359 -2.896084,1.15035 -8.267775,-0.67765 -9.629657,-3.27696 -1.452298,-2.77192 -1.227579,-10.13462 0.513262,-16.81653 0.825755,-3.16954 1.391629,-5.87488 1.257504,-6.01189 -0.134114,-0.13684 -3.324174,1.91433 -7.088998,4.5585 -8.978692,6.30614 -14.96675,7.27698 -18.287215,2.96509 -1.229347,-1.59643 -2.235178,-4.11487 -2.235178,-5.59657 0,-3.72581 3.412152,-10.56837 8.000591,-16.044 3.603912,-4.30075 3.687107,-4.55071 1.288192,-3.87037 -17.296537,4.90559 -20.70456,4.73521 -24.100838,-1.20485 -1.675548,-2.93055 -1.780267,-3.89574 -0.70924,-6.53696 1.322373,-3.26103 5.732692,-7.18925 13.128619,-11.69349 l 4.436713,-2.70206 -7.487633,-1.29206 C 9.6012261,98.964962 3.1483869,93.091688 6.7153564,86.493738 8.7434687,82.742263 14.400147,80.034103 23.520734,78.448097 l 7.456643,-1.296689 -3.620742,-1.901952 C 20.820494,71.816104 14.185993,66.290165 12.954839,63.254089 11.422097,59.474268 12.81553,55.380216 16.466374,52.936734 c 2.998209,-2.006684 9.639115,-1.552792 17.212029,1.176466 2.390276,0.861478 4.564025,1.34355 4.830559,1.071292 0.266539,-0.272406 -0.80937,-2.060535 -2.39089,-3.973959 -3.723049,-4.504367 -7.703959,-13.249455 -7.716834,-16.951985 -0.0055,-1.598272 0.920943,-3.857009 2.058892,-5.01938 3.883995,-3.967393 11.383941,-2.222737 20.801657,4.838925 2.783443,2.08711 5.055766,3.635384 5.049607,3.440563 -0.0063,-0.194839 -0.704446,-2.688482 -1.551749,-5.541489 -0.8473,-2.853025 -1.540548,-7.930338 -1.540548,-11.282966 0,-5.326571 0.343877,-6.371924 2.725758,-8.285702 5.992396,-4.8148517 11.577493,-1.583759 18.288296,10.580025 l 3.496594,6.337869 1.217718,-7.531862 C 80.926113,9.5560766 84.660158,3.8781283 90.729958,3.8781283 c 4.93661,0 8.467729,5.9726593 10.419652,17.6241697 l 1.38464,8.265222 2.74669,-5.492565 c 3.50766,-7.014282 10.02201,-14.056573 13.00278,-14.056573 4.00238,0 8.16695,2.921716 8.87797,6.228473 0.67555,3.141688 -0.84615,13.99379 -2.63681,18.804735 -0.94514,2.539287 -0.79809,2.501131 3.94303,-1.022291 6.97252,-5.181748 11.02745,-7.103565 14.98824,-7.103565 5.35146,0 8.04031,2.511307 8.04031,7.509398 0,4.746841 -1.69378,8.628406 -7.03969,16.132481 -3.48444,4.891131 -3.54258,5.108395 -1.15925,4.330755 10.45539,-3.411351 16.65441,-4.342613 20.04931,-3.011899 2.01134,0.788392 4.70159,5.803656 4.70159,8.764747 0,3.333305 -5.52193,8.932237 -12.62164,12.797573 l -6.48753,3.532053 8.07699,1.393545 c 12.14064,2.094671 17.23917,5.512422 17.23917,11.556062 0,5.216004 -4.95808,8.565573 -15.9503,10.775601 l -8.84337,1.77795 5.66159,3.02787 c 3.11386,1.66532 7.3433,4.92928 9.39874,7.25324 3.13063,3.53965 3.63411,4.75168 3.10221,7.46817 -1.4715,7.51551 -6.00572,9.07494 -17.58642,6.04836 -4.50058,-1.17619 -8.34035,-2.13856 -8.53288,-2.13856 -0.19236,0 1.22103,2.25873 3.14123,5.01938 7.29934,10.49414 8.8151,17.27789 4.78124,21.39837 -3.90014,3.98386 -11.06768,2.32849 -19.92302,-4.6013 -2.70758,-2.11883 -5.1309,-3.85241 -5.38524,-3.85241 -0.25415,0 0.23772,2.021 1.09372,4.49102 0.85588,2.47009 1.64991,7.50249 1.7645,11.18316 0.18337,5.89474 -0.0825,6.93345 -2.23389,8.71783 -1.34325,1.11417 -3.99757,2.02578 -5.89857,2.02578 -4.26615,0 -9.08598,-4.7154 -13.59664,-13.30209 l -3.09528,-5.89231 -0.63895,6.16291 c -1.27463,12.29414 -5.772546,20.42845 -11.295997,20.42845 -1.118113,0 -3.553714,-1.55342 -5.412444,-3.45205 z m 8.747321,-7.37923 c 3.112593,-7.20149 4.513859,-21.25823 3.205467,-32.15551 -1.60508,-13.36829 -1.544183,-14.07556 1.211944,-14.07556 1.937672,0 3.085439,1.65541 6.719439,9.69144 2.41041,5.33025 4.63297,9.43566 4.93896,9.12311 0.30614,-0.31274 -1.02945,-5.10036 -2.96761,-10.6395 l -3.52394,-10.07125 2.33779,-1.08805 c 2.12639,-0.98965 2.88147,-0.37902 8.35058,6.75341 10.13317,13.21486 26.64405,26.0664 31.19617,24.28208 5.6784,-2.22579 -8.52691,-22.51796 -24.2545,-34.64736 -5.55795,-4.28637 -6.38642,-5.79075 -4.34017,-7.88092 0.82773,-0.84554 3.97963,-0.18488 11.55967,2.42248 5.73186,1.97177 10.57135,3.432 10.75442,3.24504 0.18299,-0.18696 -4.33191,-2.62528 -10.03328,-5.41842 -9.18974,-4.50221 -10.28992,-5.332078 -9.69498,-7.313258 0.36909,-1.229136 0.79156,-2.377256 0.93881,-2.55144 0.147,-0.174277 3.42289,0.244835 7.27924,0.930616 4.08039,0.725801 12.02796,1.036197 19.01107,0.742417 26.20605,-1.102459 29.63435,-10.243901 5.07722,-13.538219 -8.36327,-1.121914 -23.8124,-0.238436 -30.08188,1.719968 -0.99569,0.311134 -1.81036,0.097 -1.81036,-0.475949 0,-0.572788 -0.28113,-1.790195 -0.62504,-2.705283 -0.47975,-1.276956 1.6899,-2.806991 9.33191,-6.58091 5.4763,-2.704416 9.7767,-5.101258 9.55638,-5.326268 -0.22013,-0.224955 -4.86804,1.221888 -10.32827,3.215331 -9.91567,3.620095 -10.41184,3.622161 -12.38634,0.05145 -0.34955,-0.632078 2.35947,-3.395509 6.02017,-6.141087 17.07484,-12.80637 32.12531,-36.647551 21.43912,-33.961239 -7.53651,1.894582 -20.12441,12.560433 -29.17372,24.719233 -4.70546,6.322372 -5.82874,7.28836 -7.44653,6.403959 -2.53837,-1.387626 -2.43849,-2.425445 1.26492,-13.143211 1.74351,-5.045877 2.99711,-9.350979 2.78574,-9.566897 -0.21154,-0.216158 -2.44534,3.993544 -4.96441,9.354298 -2.51906,5.360829 -4.64877,9.888931 -4.73269,10.062506 -0.465988,0.963849 -5.363581,-1.241326 -5.023241,-2.261755 0.224557,-0.673167 0.899099,-5.908166 1.499034,-11.63326 1.788102,-17.063588 -1.440144,-35.484618 -6.381799,-36.415873 -5.436959,-1.0245713 -8.988293,24.047113 -6.024721,42.533245 0.553302,3.451388 0.899748,6.364291 0.769885,6.47319 -0.129854,0.109176 -1.244884,0.51429 -2.477821,0.900925 -2.008374,0.62981 -2.736324,-0.363453 -6.993765,-9.544103 -2.613631,-5.635908 -4.991374,-10.002624 -5.283874,-9.703865 -0.292502,0.298741 0.901733,4.533837 2.65385,9.411229 1.752116,4.877336 3.435474,9.654238 3.740784,10.615339 0.37461,1.179103 -0.220822,1.99892 -1.830825,2.520882 -1.995327,0.646888 -2.9756,0.0166 -5.987626,-3.86078 -5.95882,-7.667305 -20.030564,-21.619084 -23.828168,-23.625068 -9.85135,-5.203744 -12.644623,-3.849385 -8.933959,4.33164 3.287418,7.247936 13.203035,18.749889 22.153334,25.697553 4.077553,3.165169 7.398924,6.018301 7.38083,6.340242 -0.01788,0.321922 -0.636162,1.396349 -1.373482,2.387529 -1.244536,1.67307 -2.029479,1.537356 -10.95593,-1.894152 -5.288438,-2.033038 -10.067183,-3.542565 -10.619429,-3.354531 -0.552248,0.188126 3.457301,2.467013 8.910105,5.064337 8.912269,4.245203 9.889037,4.989427 9.665292,7.364212 -0.182362,1.935554 -0.802007,2.587107 -2.317898,2.437175 -1.137944,-0.112681 -6.200274,-0.723846 -11.249612,-1.35847 -10.061872,-1.264618 -18.78393,-0.710512 -27.544078,1.749881 -9.878723,2.774569 -10.9101937,5.566954 -3.362121,9.102013 4.321932,2.024075 6.72084,2.303341 19.914094,2.31815 8.250128,0.0074 17.095088,-0.220786 19.655474,-0.511487 4.18485,-0.475008 4.687668,-0.29555 4.976135,1.773745 0.274045,1.966082 -1.138045,3.01738 -9.673715,7.20205 -5.497034,2.695 -9.776933,5.12232 -9.510883,5.39408 0.266031,0.2716 5.044228,-1.17086 10.618178,-3.20585 9.445235,-3.44836 10.226283,-3.57648 11.484713,-1.88429 0.742642,0.99862 1.365062,2.08066 1.383157,2.40444 0.01788,0.3239 -2.88695,2.77865 -6.455651,5.45526 -12.58865,9.44171 -25.015734,25.30328 -24.366358,31.10063 0.284368,2.53869 0.742432,2.95163 2.923449,2.63542 6.535338,-0.94754 21.411733,-13.52044 30.000457,-25.35512 2.560384,-3.52803 4.915413,-6.43373 5.233395,-6.45709 0.317992,-0.0238 1.416746,0.58385 2.441696,1.34941 1.767331,1.32006 1.667653,1.92615 -1.930565,11.73936 -2.086756,5.69112 -3.546432,10.60044 -3.243709,10.90967 0.302705,0.30916 2.731256,-4.04557 5.396754,-9.67734 4.04992,-8.55684 5.201759,-10.18771 7.009007,-9.92401 1.946667,0.28397 2.110994,0.84327 1.645401,5.59915 -1.039441,10.61761 -0.481918,32.70114 0.933727,36.98488 1.456593,4.40764 3.894143,7.92531 5.491768,7.92531 0.512782,0 1.805821,-2.02092 2.873411,-4.49102 z m -4.455342,-27.21028 c -0.378167,-3.19654 -0.691632,-8.58101 -0.696579,-11.96546 -0.0078,-5.29991 0.242141,-6.10216 1.801381,-5.78293 1.586159,0.32469 1.764815,1.45611 1.442525,9.13497 -0.202305,4.82035 -0.70352,10.03805 -1.11379,11.59483 -0.630497,2.39242 -0.852367,1.931 -1.433537,-2.98141 z m 29.018522,-17.66468 c -6.38341,-5.59692 -7.73389,-7.27853 -6.78406,-8.44754 0.97557,-1.20076 1.90581,-0.74821 5.24543,2.55175 4.89764,4.83946 10.49937,11.87175 9.9245,12.45896 -0.22873,0.23364 -4.00239,-2.71974 -8.38587,-6.56317 z m -62.921758,4.19161 c 0.557468,-1.01709 3.557224,-4.70236 6.666114,-8.1895 4.728378,-5.30366 5.879407,-6.10838 7.040183,-4.92197 1.160701,1.18635 0.203312,2.52417 -5.853849,8.18027 -7.299105,6.81578 -9.71797,8.33477 -7.852448,4.9312 z M 81.239033,114.13896 C 74.663727,111.67447 68.204608,104.66171 66.218831,97.831337 64.214663,90.937634 64.203673,89.100173 66.127011,82.4845 70.79325,66.434196 89.594945,59.08968 103.51407,67.879988 c 16.38775,10.349296 15.23675,36.027062 -2.01796,45.018752 -5.532269,2.88293 -14.422065,3.42723 -20.25709,1.24022 z m -39.399422,-23.516499 -4.655243,-0.645153 3.491433,-0.7812 c 1.920289,-0.42966 7.157438,-0.781201 11.638109,-0.781201 6.551824,0 8.146675,0.310323 8.146675,1.585084 0,1.268049 -1.396485,1.553345 -6.982863,1.426391 -3.840577,-0.0876 -9.077726,-0.449043 -11.638111,-0.803921 z m 77.807929,-0.88665 c 0.30653,-1.522548 1.37065,-1.811311 6.0242,-1.634453 3.10861,0.118213 8.21238,0.559288 11.34172,0.980428 l 5.68975,0.765598 -4.65522,0.790513 c -2.56041,0.434787 -7.83168,0.825775 -11.71399,0.868818 -6.19675,0.06879 -7.01326,-0.147351 -6.68646,-1.770904 z M 60.786016,62.442976 c -10.567153,-12.211451 -9.273703,-13.068503 2.718912,-1.801518 4.137442,3.887097 6.347299,6.706978 5.87187,7.492715 -1.316062,2.175188 -2.411813,1.449277 -8.590782,-5.691197 z m 50.465754,5.490106 c -1.04004,-1.280054 0.10793,-2.729958 6.72991,-8.501618 4.39107,-3.827124 8.20089,-6.736559 8.46629,-6.465463 0.55091,0.562737 -6.3592,9.159534 -10.90217,13.563282 -2.60608,2.526212 -3.21923,2.726639 -4.29403,1.403799 z M 88.482674,53.356804 c 0.04984,-3.67507 0.430866,-9.059522 0.84671,-11.965454 l 0.756074,-5.283575 0.686446,3.698492 c 0.37754,2.034144 0.811195,7.250093 0.963666,11.590954 0.239011,6.804333 0.02775,7.944081 -1.53315,8.266981 -1.579168,0.32668 -1.7988,-0.478827 -1.719746,-6.307398 z"
       id="path1" /></g></svg>
