<?xml version="1.0" encoding="UTF-8" standalone="no"?>
<!-- Created with Inkscape (http://www.inkscape.org/) -->

<svg
   width="180mm"
   height="180mm"
   viewBox="0 0 180 180"
   version="1.1"
   id="svg1"
   sodipodi:docname="woad.svg"
   inkscape:version="1.4.2 (f4327f4, 2025-05-13)"
   xml:space="preserve"
   xmlns:inkscape="http://www.inkscape.org/namespaces/inkscape"
   xmlns:sodipodi="http://sodipodi.sourceforge.net/DTD/sodipodi-0.dtd"
   xmlns="http://www.w3.org/2000/svg"
   xmlns:svg="http://www.w3.org/2000/svg"><sodipodi:namedview
     id="namedview1"
     pagecolor="#505050"
     bordercolor="#ffffff"
     borderopacity="1"
     inkscape:showpageshadow="0"
     inkscape:pageopacity="0"
     inkscape:pagecheckerboard="1"
     inkscape:deskcolor="#505050"
     inkscape:document-units="mm"
     inkscape:zoom="1"
     inkscape:cx="73"
     inkscape:cy="204"
     inkscape:window-width="2560"
     inkscape:window-height="1351"
     inkscape:window-x="-9"
     inkscape:window-y="-9"
     inkscape:window-maximized="1"
     inkscape:current-layer="layer1"
     showguides="true" /><defs
     id="defs1"><rect
       x="101.82338"
       y="91.923881"
       width="384.66609"
       height="299.81327"
       id="rect3" /><rect
       x="2.8284271"
       y="2.1213203"
       width="662.55905"
       height="647.0027"
       id="rect2" /></defs><g
     inkscape:label="Icon"
     inkscape:groupmode="layer"
     id="layer1"><path
       style="fill:#000000;stroke-width:3.77735"
       d="m 88.239036,173.4989 c -0.761217,-0.52528 -1.622468,-3.21891 -1.913892,-5.98579 l -0.529857,-5.0307 -11.483339,-8.48982 c -6.315833,-4.66938 -12.733924,-8.78203 -14.262416,-9.13922 -3.87658,-0.90589 -9.621545,-6.31094 -17.517066,-16.48059 -8.6284,-11.11366 -12.416293,-17.69243 -14.316317,-24.86446 -0.836483,-3.15744 -2.271122,-6.91508 -3.18809,-8.350282 -2.875106,-4.500056 -6.770974,-13.569283 -5.828946,-13.569283 0.495375,0 3.579702,3.287945 6.854056,7.306549 3.274357,4.018565 6.47201,7.30651 7.105894,7.30651 2.432848,0 9.30561,6.582086 14.979634,14.346056 7.927371,10.84737 17.082276,26.13361 17.082276,28.52284 0,2.64692 2.852078,5.32895 12.673487,11.91789 l 8.379297,5.62147 -0.0036,-5.41415 c -0.004,-6.2182 -1.396606,-9.1707 -9.347869,-19.82015 -2.9552,-3.95801 -6.674409,-7.72551 -8.405142,-8.51428 C 64.765877,121.15187 55.557838,109.2369 49.396315,98.119611 44.853383,89.922747 40.34038,77.989349 40.34038,74.173677 c 0,-1.155617 -1.937812,-6.224033 -4.306252,-11.263137 -2.36844,-5.039065 -4.306252,-9.473791 -4.306252,-9.85492 0,-2.135721 2.301073,0.143204 6.741885,6.677238 2.755039,4.053597 6.977255,9.009303 9.382705,11.012707 2.405447,2.003365 6.205,6.31327 8.443448,9.577585 6.514045,9.499315 17.362607,31.50271 18.121419,36.75446 0.511817,3.5422 1.982035,6.42925 5.979922,11.74261 2.915687,3.87505 5.645988,7.04559 6.067337,7.04559 0.421347,0 0.766089,-5.78152 0.766089,-12.84786 v -12.84782 l -3.411137,-6.2013 C 79.384408,95.905858 75.296401,91.354201 71.806073,90.592771 c -3.848785,-0.83962 -7.283584,-4.874123 -8.077008,-9.487243 -0.908341,-5.28129 0.373015,-6.475569 5.240909,-4.884775 4.181339,1.36644 7.708095,5.766923 7.77748,9.704299 0.02604,1.472127 2.12449,4.90876 5.263196,8.6191 l 5.220054,6.170778 v -6.320058 c 0,-4.800154 0.364017,-6.472373 1.513682,-6.953588 3.993608,-1.671587 4.227988,-1.091195 4.227988,10.469753 v 11.103283 l 2.870835,-3.9403 c 1.578957,-2.1672 2.870835,-4.83648 2.870835,-5.931818 0,-2.651454 4.194086,-7.115531 6.685156,-7.115531 4.46314,0 2.90882,7.173207 -2.27755,10.510939 -1.80256,1.16007 -4.823556,4.55793 -6.713327,7.55078 -3.723206,5.89652 -4.005476,8.08341 -2.81616,21.81807 l 0.606183,7.00041 5.014114,-6.86285 c 3.81116,-5.21635 5.15747,-8.00364 5.61163,-11.61783 0.69103,-5.49914 11.93129,-29.655774 18.43397,-39.616776 2.34107,-3.586111 5.7638,-7.637419 7.60609,-9.002873 1.84227,-1.365493 5.51121,-5.829254 8.15317,-9.9195 2.64197,-4.090246 5.20486,-7.436774 5.69531,-7.436774 1.32124,0 1.18848,0.453126 -2.4273,8.28468 -1.82546,3.953866 -3.97471,10.618914 -4.77611,14.811218 -1.69744,8.879787 -6.35592,20.076885 -12.7099,30.549435 -5.20709,8.58229 -12.38269,17.33229 -14.21365,17.33229 -1.61854,0 -11.685202,13.70555 -14.503224,19.74586 -2.540889,5.44623 -2.967559,12.13207 -0.71404,11.18881 0.791501,-0.33138 5.491014,-3.49604 10.443374,-7.03276 7.80068,-5.5709 9.0856,-6.90329 9.61271,-9.96799 0.72381,-4.20836 11.37987,-21.83763 19.62974,-32.4752 3.74948,-4.83463 7.52615,-8.491478 10.42394,-10.09316 2.59557,-1.434649 5.65643,-4.262328 7.13797,-6.594196 1.42661,-2.245392 3.87753,-5.42406 5.44657,-7.063693 4.17965,-4.367779 3.76581,-0.98105 -0.93661,7.664798 -2.08414,3.831925 -4.66154,10.054101 -5.72756,13.827091 -2.38107,8.42745 -9.17264,19.20823 -19.47307,30.91108 -5.42957,6.16884 -8.63869,8.96859 -11.11281,9.69526 -3.6328,1.06698 -22.653198,14.52706 -24.730214,17.50074 -0.6579,0.94192 -1.196185,3.40768 -1.196185,5.47945 0,5.49318 -2.948465,7.8374 -6.647225,5.28492 z m 30.476334,-69.52834 c 2.1135,-3.90719 2.50625,-5.681155 1.25779,-5.681155 -1.05096,0 -4.0341,5.715085 -4.0341,7.728505 0,2.47192 0.55186,2.06495 2.77631,-2.04735 z m 9.05634,-17.138861 c 4.63096,-8.693425 5.59875,-11.770587 2.94698,-9.370116 -1.8506,1.675257 -9.03796,14.758868 -9.03796,16.452429 0,2.958615 1.95009,0.69113 6.09098,-7.082313 z M 82.372366,81.669036 c -1.564422,-1.706383 -2.797222,-4.174472 -2.797222,-5.600048 0,-3.04363 3.117478,-7.662904 5.797784,-8.590814 1.752448,-0.606667 1.646939,-0.865461 -1.20851,-2.964414 -5.695219,-4.186307 -5.856597,-10.873171 -0.357268,-14.803486 3.205827,-2.291154 7.047555,-0.894259 9.821944,3.571357 l 2.092149,3.367516 1.129924,-2.40418 c 2.926957,-6.22782 8.918963,-7.850016 12.911233,-3.495414 3.51309,3.831886 3.15424,8.366539 -1.00026,12.640308 -3.06714,3.155234 -3.1901,3.500345 -1.46038,4.099161 2.57388,0.891064 5.76645,5.518939 5.76645,8.358886 0,3.962348 -3.54005,7.828438 -7.16827,7.828438 -4.56371,0 -6.098911,-0.873154 -7.783808,-4.427073 l -1.484059,-3.130302 -1.778648,3.190188 c -3.427273,6.147144 -8.184305,7.046572 -12.481067,2.359877 z M 94.89386,70.091598 c 0.819158,-1.669497 0.714203,-2.236043 -0.509126,-2.748068 -1.968345,-0.82388 -3.753775,1.086579 -3.004877,3.215278 0.79077,2.247719 2.278989,2.049876 3.514003,-0.46721 z m 6.45206,-0.766796 c 0.52322,-1.714036 -2.475117,-2.937587 -3.761153,-1.534853 -0.550347,0.600315 -0.696563,1.628074 -0.324934,2.283975 0.84551,1.492207 3.553437,0.995765 4.086077,-0.749122 z M 94.886261,62.73897 c 0,-1.330145 -0.65736,-2.025969 -1.913887,-2.025969 -2.143439,0 -2.734431,3.68012 -0.717711,4.469205 1.743761,0.682253 2.631598,-0.142021 2.631598,-2.443236 z m 5.741669,-0.01578 c 0,-1.493746 -0.51533,-2.055873 -1.663662,-1.814634 -2.494503,0.523979 -2.7727,3.978759 -0.320412,3.978759 1.369484,0 1.984064,-0.670339 1.984064,-2.164125 z m -26.136466,0.450444 c -2.80391,-3.637515 -4.485765,-6.82853 -4.485765,-8.510888 v -2.691457 l 2.966383,3.065682 c 1.631517,1.686145 4.205344,5.013422 5.719618,7.393972 2.188584,3.440578 2.500186,4.557337 1.519378,5.445205 -0.938657,0.849681 -2.307044,-0.275363 -5.719614,-4.702514 z M 57.746267,60.476496 c -1.216326,-0.651166 -2.448415,-2.476019 -2.737972,-4.055214 -0.525445,-2.86563 -0.532657,-2.867997 -3.710059,-1.215306 -2.929221,1.52361 -3.37948,1.515917 -5.635292,-0.09626 -3.356915,-2.39917 -3.320685,-7.18808 0.0804,-10.626134 1.902097,-1.922768 2.145681,-2.559614 0.979003,-2.559614 -2.207145,0 -4.761206,-4.654701 -3.996354,-7.283234 0.346742,-1.191596 1.658726,-2.901412 2.91556,-3.799655 2.075642,-1.48345 2.565009,-1.480885 5.337641,0.02761 3.866793,2.104042 3.71539,2.145504 3.71539,-1.017147 0,-4.593553 1.652367,-6.715978 5.228514,-6.715978 4.481725,0 6.580221,2.534484 6.000676,7.247452 l -0.46018,3.742255 3.486205,-0.362548 c 6.125177,-0.637162 9.583235,6.387555 5.756563,11.693856 -1.780677,2.469194 -2.676298,2.861211 -5.795759,2.536733 -3.545426,-0.368861 -4.74429,0.402866 -2.73268,1.75893 1.351989,0.911421 1.19005,7.096556 -0.239251,9.137477 -1.604033,2.290445 -5.47683,3.040474 -8.192413,1.586652 z m 1.015326,-14.930831 c 2.10446,-1.178065 3.588545,-2.774027 3.588545,-3.859067 0,-2.637844 -1.607797,-2.286342 -3.431923,0.750305 -0.859182,1.43027 -1.964537,2.329224 -2.456339,1.997684 -1.169026,-0.788059 -3.818317,1.621841 -3.126054,2.843616 0.29372,0.518377 0.82727,0.792636 1.185645,0.609428 0.358352,-0.183049 2.266427,-1.237082 4.240126,-2.341966 z m -3.53701,-4.756443 c 0.986153,-1.740429 -1.231788,-3.736259 -2.551902,-2.296323 -1.104245,1.204418 -0.413136,3.431071 1.064953,3.431071 0.464194,0 1.133324,-0.510645 1.486949,-1.134748 z m 4.784726,-3.131367 c 0.98615,-1.740429 -1.231791,-3.736259 -2.551905,-2.296323 -1.104242,1.204417 -0.413133,3.431071 1.064956,3.431071 0.464194,0 1.13332,-0.510645 1.486949,-1.134748 z m 55.835031,18.775854 c -1.99127,-2.172015 -2.12333,-5.199075 -0.41671,-9.551745 0.60633,-1.546451 0.18669,-1.826627 -2.7355,-1.826627 -2.17576,0 -4.15916,-0.771687 -5.36558,-2.087591 -1.90368,-2.076427 -2.5234,-6.784898 -1.18153,-8.976914 1.29274,-2.111735 5.16351,-3.732669 7.43117,-3.11184 2.08991,0.572109 2.20753,0.371622 1.71703,-2.92512 -0.60194,-4.045983 2.08602,-7.949471 5.47406,-7.949471 2.51713,0 6.65511,4.499582 6.65511,7.236683 0,1.857556 0.28034,1.973343 2.3218,0.95876 3.39932,-1.68938 6.82098,-0.35742 8.1636,3.178234 1.36875,3.604337 0.18438,6.892913 -2.86236,7.947656 -1.88989,0.654283 -1.87724,0.73563 0.42089,2.707395 3.23005,2.771344 3.91973,5.720411 2.06129,8.814142 -1.13493,1.889314 -2.39218,2.558352 -4.8076,2.558352 -1.79893,0 -3.53691,-0.469695 -3.8622,-1.043776 -0.89385,-1.577538 -2.39236,-1.250653 -2.39236,0.521888 0,2.441342 -3.57498,5.740846 -6.22014,5.740846 -1.3158,0 -3.29623,-0.985902 -4.40097,-2.190872 z m 11.04629,-13.530188 c -0.98194,-1.183509 -2.47582,-1.954881 -3.31975,-1.714155 -1.05582,0.301006 -1.51526,-0.23828 -1.47304,-1.729816 0.0358,-1.26312 -0.63738,-2.321887 -1.6133,-2.537562 -2.68282,-0.592819 -1.96962,2.458109 1.26961,5.431083 1.61934,1.48625 3.83921,2.702266 4.93304,2.702266 1.94795,0 1.95213,-0.04418 0.20344,-2.151816 z m 2.44566,-5.753155 c 0,-0.972016 -0.65108,-1.504476 -1.59536,-1.304739 -2.40076,0.507843 -2.7304,2.946976 -0.39828,2.946976 1.17545,0 1.99364,-0.673969 1.99364,-1.642237 z m -4.9669,-3.315797 c -0.38846,-2.200143 -2.0868,-2.061396 -2.5196,0.205931 -0.18051,0.945662 0.347,1.620854 1.26635,1.620854 0.98562,0 1.45497,-0.684107 1.25325,-1.826667 z M 89.611383,45.815978 c -2.02484,-0.646472 -3.875611,-2.647549 -6.220143,-6.725407 -2.113846,-3.67661 -4.44555,-6.316702 -6.359285,-7.200428 -4.351039,-2.009164 -7.026256,-6.190816 -7.026256,-10.982725 0,-3.635068 0.243013,-4.034384 2.455268,-4.034384 1.350401,0 3.283758,0.483621 4.29635,1.074705 2.192475,1.279885 4.731718,6.298831 4.731718,9.35252 0,1.199328 1.507185,4.62172 3.349305,7.605346 l 3.349308,5.42481 v -6.327827 c 0,-5.465483 -0.338388,-6.672623 -2.483284,-8.858248 -1.365808,-1.391767 -3.088309,-3.798866 -3.827782,-5.349065 -2.471273,-5.180771 -1.156786,-11.0032391 1.86628,-8.266612 0.919231,0.832125 1.508422,0.207114 2.432558,-2.5804828 1.590274,-4.796919 4.719555,-4.6005354 6.253671,0.3925304 0.802217,2.6109784 1.318982,3.1374034 2.169277,2.2099664 1.580107,-1.7235048 4.115676,-0.368072 4.115676,2.199866 0,2.649324 -3.142298,9.552928 -5.193258,11.409538 -1.066801,0.965743 -1.505359,3.209557 -1.505359,7.701999 v 6.339307 l 2.965663,-5.100765 c 1.631112,-2.805429 3.147405,-6.772432 3.369534,-8.815602 0.50169,-4.614619 3.110366,-8.623874 6.457116,-9.923919 6.0645,-2.355735 7.26119,7.339254 1.50134,12.163196 -6.707861,5.617959 -7.756964,6.880763 -10.710059,12.891686 -3.018755,6.14458 -3.185294,6.294767 -5.987638,5.400074 z"
       id="path1" /></g></svg>
