<?xml version="1.0" encoding="UTF-8" standalone="no"?>
<!-- Created with Inkscape (http://www.inkscape.org/) -->

<svg
   width="180"
   height="180"
   viewBox="0 0 180 180"
   version="1.1"
   id="svg1"
   xml:space="preserve"
   inkscape:version="1.4.2 (f4327f4, 2025-05-13)"
   sodipodi:docname="food_berry_cranberry.svg"
   xmlns:inkscape="http://www.inkscape.org/namespaces/inkscape"
   xmlns:sodipodi="http://sodipodi.sourceforge.net/DTD/sodipodi-0.dtd"
   xmlns="http://www.w3.org/2000/svg"
   xmlns:svg="http://www.w3.org/2000/svg"><sodipodi:namedview
     id="namedview1"
     pagecolor="#505050"
     bordercolor="#ffffff"
     borderopacity="1"
     inkscape:showpageshadow="0"
     inkscape:pageopacity="0"
     inkscape:pagecheckerboard="1"
     inkscape:deskcolor="#505050"
     inkscape:document-units="px"
     inkscape:zoom="3.1"
     inkscape:cx="-20.483871"
     inkscape:cy="53.870968"
     inkscape:window-width="2560"
     inkscape:window-height="1351"
     inkscape:window-x="-9"
     inkscape:window-y="-9"
     inkscape:window-maximized="1"
     inkscape:current-layer="layer1" /><defs
     id="defs1" /><g
     inkscape:label="Warstwa 1"
     inkscape:groupmode="layer"
     id="layer1"><path
       style="fill:#000000;stroke-width:0.882491"
       d="m 72.14311,178.62026 c -8.984107,-1.31262 -22.351661,-8.83146 -27.026616,-15.20161 -3.604281,-4.91125 -6.83929,-12.34063 -8.224341,-18.88762 -0.957795,-4.52737 -1.388764,-5.24226 -3.279235,-5.43957 C 23.950287,138.08295 12.447101,131.18162 8.04327,123.75098 2.7670182,114.84828 1.8267909,102.7365 5.6590426,93.038056 8.23821,86.510874 16.108898,78.839126 23.55725,75.592261 c 4.302467,-1.875518 5.627966,-2.88049 5.627966,-4.267023 0,-3.342783 5.238963,-12.398453 9.589486,-16.575618 2.36931,-2.274909 6.550022,-5.193842 9.290455,-6.486517 4.504316,-2.1247 5.933477,-2.35032 14.887847,-2.35032 9.118968,0 10.286922,0.193086 14.713942,2.432496 2.644795,1.337874 6.576779,3.997792 8.737737,5.910931 l 3.929013,3.478434 5.219617,-1.447941 c 9.376007,-2.600942 17.041467,-7.110541 23.058557,-13.565382 7.77084,-8.336201 7.82418,-8.484268 3.05627,-8.484268 -2.74978,0 -4.43165,0.503411 -5.51179,1.649763 -2.65591,2.818701 -10.46062,5.506491 -17.184377,5.917958 C 86.999059,42.537468 75.069256,38.435213 66.477913,30.631155 59.181308,24.00319 57.068654,17.662187 60.211907,11.824133 64.351774,4.1350676 83.14674,3.6824821 99.230957,10.884548 c 7.258083,3.24997 15.804983,10.9879 17.868333,16.177096 l 1.53817,3.868365 4.12461,-0.580127 c 6.5519,-0.921523 11.08045,-3.287848 18.05237,-9.432983 6.87114,-6.056307 13.08309,-10.764432 22.30313,-16.9038354 4.67209,-3.11103558 5.84376,-3.55620868 6.97867,-2.6515523 0.75015,0.5979527 1.36391,1.3572812 1.36391,1.6873971 0,0.3301159 -3.06852,2.6579387 -6.81893,5.1729402 -12.40021,8.3154944 -17.20948,12.6122924 -17.86334,15.9598664 -0.86058,4.405925 0.15631,7.456708 2.49315,7.479725 5.81565,0.05727 15.10646,6.427924 20.32893,13.93941 11.1878,16.091405 8.718,34.502579 -4.62353,34.466136 -10.57955,-0.02889 -24.97115,-16.800513 -26.50034,-30.882838 -0.62582,-5.763148 0.7542,-12.437008 2.93041,-14.171691 1.34096,-1.068896 1.66189,-6.579506 0.48672,-8.357711 -1.04295,-1.578163 -11.88681,9.453055 -14.89233,15.149643 -3.43993,6.519958 -5.18138,14.723514 -4.87703,22.974474 l 0.26045,7.060652 4.91418,0.677012 c 14.2216,1.959265 26.80985,12.037202 31.58744,25.288382 2.14009,5.935771 2.53291,16.088851 0.85664,22.140611 -3.98305,14.37963 -17.97972,26.10269 -32.69534,27.38428 -3.7364,0.32542 -5.41182,0.86279 -5.75422,1.8456 -3.18511,9.14233 -11.5997,19.92934 -18.58222,23.82127 -8.697801,4.84801 -20.72803,7.06122 -30.56768,5.62359 z m 15.298893,-11.15534 c 1.582691,-0.92686 3.563924,-2.69124 4.40276,-3.92083 1.46862,-2.15279 1.445405,-2.31761 -0.626433,-4.44782 -4.26669,-4.38689 -10.222499,-6.00637 -16.845994,-4.5807 -8.373096,1.80225 -10.510421,6.60585 -5.206059,11.70048 2.88688,2.77273 3.413648,2.94036 9.229858,2.93733 4.524604,-0.003 6.935048,-0.4523 9.045868,-1.68846 z m -15.453904,-4.33019 c -2.123596,-2.25376 -1.286271,-3.98557 2.255992,-4.66601 4.765393,-0.9154 7.049599,-0.64889 10.990921,1.28231 l 3.750547,1.83773 -2.085228,1.62176 c -3.021901,2.35022 -12.672541,2.30119 -14.912232,-0.0757 z m 49.448571,-28.22252 c -0.0604,-8.75479 -3.21717,-16.63648 -9.63442,-24.05461 -5.97717,-6.90943 -9.91623,-9.60092 -16.70383,-11.413431 -3.06978,-0.81972 -5.581428,-1.80791 -5.581428,-2.19597 0,-2.043821 3.293863,-8.426794 5.535936,-10.727756 1.412583,-1.449669 2.568333,-3.103735 2.568333,-3.675685 0,-1.275421 -3.100675,-1.358412 -5.459098,-0.146127 -1.974794,1.015088 -5.364549,6.906146 -6.203998,10.781944 -0.557411,2.573616 -0.61633,2.596623 -7.282928,2.843342 l -6.720958,0.248732 -1.575198,-4.259678 C 68.464514,87.135508 61.805793,80.15602 56.199438,77.450241 48.077308,73.530277 35.310748,71.829614 34.23416,74.524194 c -0.997043,2.495539 -0.594467,2.70316 6.198015,3.196557 10.858783,0.788776 19.764942,5.574408 24.267952,13.040157 3.455038,5.728261 3.320918,6.546671 -1.355022,8.268551 -7.256471,2.672141 -14.539805,8.181081 -18.851831,14.259091 -3.747911,5.28286 -8.83998,19.18288 -7.499135,20.4707 1.642253,1.57732 3.773712,-0.16634 4.656676,-3.80947 1.433195,-5.91337 4.268394,-12.3285 6.929798,-15.67979 4.742712,-5.97216 15.297954,-11.28408 26.976544,-13.5759 6.83069,-1.340471 22.901176,2.7736 28.367433,7.26211 7.29034,5.98633 12.72121,16.66929 13.9651,27.47052 0.72547,6.29952 1.05466,7.15974 2.55106,6.66632 0.67789,-0.22352 1.02658,-2.73762 0.99592,-7.18083 z m 18.50688,0.0718 c 0,-1.61442 0.44695,-3.87745 0.99321,-5.02896 1.12514,-2.37177 6.8449,-5.77155 9.70997,-5.77155 1.31295,0 1.90347,-0.54503 1.90347,-1.75688 0,-2.52922 -2.21684,-2.98541 -6.5624,-1.35047 -4.36114,1.6408 -7.13773,3.68116 -8.61346,6.32956 -1.41045,2.53124 -1.34343,10.36449 0.0929,10.85935 1.85317,0.63845 2.4763,-0.18716 2.4763,-3.28105 z m -84.609352,-5.51206 c 1.428946,-1.37246 3.251611,-4.06409 4.050352,-5.98139 1.928052,-4.62816 7.874867,-8.50095 17.075565,-11.12026 2.930297,-0.83421 3.52425,-2.63498 1.311302,-3.97568 -2.394887,-1.45092 -14.992005,4.1863 -19.763325,8.84412 -4.170617,4.0714 -7.796509,11.15199 -6.882414,13.43989 0.716495,1.79334 1.241801,1.64271 4.20852,-1.20668 z m -35.780025,-7.50774 c 1.08568,-3.63587 -0.562585,-8.98367 -4.168376,-13.52424 -3.0879,-3.88843 -5.5028104,-4.99255 -7.2322588,-3.30667 -0.7759698,0.75643 -0.4114426,1.43952 1.4782197,2.77013 3.8790511,2.73147 6.3490901,8.09013 5.7297001,12.43041 -0.284542,1.99387 -0.24815,3.88377 0.08087,4.19977 1.2886,1.23764 3.361929,-0.0579 4.111864,-2.5694 z M 24.215497,93.08 c 1.361511,-2.528759 3.332689,-3.393018 11.174369,-4.899343 3.127742,-0.600803 4.551631,-2.444792 3.02216,-3.9138 -1.429745,-1.373194 -10.691213,0.08722 -13.95668,2.20081 -3.451726,2.234144 -5.69166,5.770528 -4.903901,7.742227 0.892893,2.234835 3.146381,1.688906 4.664052,-1.129894 z m 85.565613,-1.76517 c 0.8983,-0.953358 3.21064,-2.14133 5.13853,-2.639929 4.01043,-1.037198 5.20694,-2.922578 3.12424,-4.922929 -1.22163,-1.173308 -1.9705,-1.224223 -5.03517,-0.342339 -6.18561,1.77998 -10.86336,6.776532 -8.48381,9.062001 1.15422,1.108597 3.63637,0.562318 5.25621,-1.156804 z m -4.62846,-16.002981 c 1.78691,-0.717102 5.22152,-1.710137 7.63246,-2.206747 l 4.38353,-0.902925 0.50923,-9.685201 c 0.28007,-5.326861 0.78219,-10.463584 1.11581,-11.41494 0.50076,-1.427894 0.27366,-1.352433 -1.30136,0.432434 -4.83749,5.482012 -17.29665,25.081203 -15.94406,25.081203 0.19549,0 1.81746,-0.586722 3.60439,-1.303824 z m -2.11459,-10.726171 c 2.46863,-4.000267 4.48842,-7.359975 4.48842,-7.466019 0,-0.173722 -13.597254,4.049882 -14.215474,4.415639 -0.141969,0.084 0.567155,2.163675 1.57583,4.621518 1.008675,2.457843 1.857786,5.330078 1.886908,6.382744 0.0615,2.221465 -0.292105,2.67039 6.264316,-7.953882 z M 52.800903,61.916742 c 1.621567,-0.949212 4.882163,-1.973487 7.245773,-2.27617 4.908226,-0.628546 6.172389,-1.794962 3.77226,-3.480583 -2.345545,-1.647286 -7.411803,-1.414933 -11.910468,0.546248 -3.977655,1.734048 -5.279759,3.407349 -4.388133,5.639038 0.688414,1.723035 1.752502,1.636681 5.280568,-0.428533 z M 159.4073,59.803377 c 0.2735,-0.684536 -0.94165,-3.60267 -2.70032,-6.484739 -1.75868,-2.882069 -4.28498,-7.867965 -5.614,-11.079769 -2.64663,-6.39599 -3.80372,-7.642928 -5.5428,-5.973198 -0.9289,0.891847 -0.60994,2.242368 1.67774,7.103891 3.74032,7.948524 9.68066,17.678428 10.7931,17.678428 0.48896,0 1.11279,-0.560076 1.38628,-1.244613 z M 111.8342,31.566799 c 0.20915,-1.062234 -1.53069,-1.805346 -7.68779,-3.283572 -4.376989,-1.050842 -11.680887,-3.205294 -16.230902,-4.787669 -6.686886,-2.325522 -8.459902,-2.660473 -9.248979,-1.747286 -0.737188,0.853141 -0.453668,1.458613 1.157956,2.472838 1.855022,1.167393 13.404955,5.191805 23.199615,8.083576 4.37631,1.292057 8.47805,0.948518 8.8101,-0.737887 z"
       id="path2" /></g></svg>
