<?xml version="1.0" encoding="UTF-8" standalone="no"?>
<!-- Created with Inkscape (http://www.inkscape.org/) -->

<svg
   width="180"
   height="240"
   viewBox="0 0 180 240"
   version="1.1"
   id="svg1"
   xml:space="preserve"
   inkscape:version="1.4.2 (f4327f4, 2025-05-13)"
   sodipodi:docname="food_vegetable_carrot.svg"
   xmlns:inkscape="http://www.inkscape.org/namespaces/inkscape"
   xmlns:sodipodi="http://sodipodi.sourceforge.net/DTD/sodipodi-0.dtd"
   xmlns="http://www.w3.org/2000/svg"
   xmlns:svg="http://www.w3.org/2000/svg"><sodipodi:namedview
     id="namedview1"
     pagecolor="#505050"
     bordercolor="#ffffff"
     borderopacity="1"
     inkscape:showpageshadow="0"
     inkscape:pageopacity="0"
     inkscape:pagecheckerboard="1"
     inkscape:deskcolor="#505050"
     inkscape:document-units="px"
     inkscape:zoom="3.1"
     inkscape:cx="50.645161"
     inkscape:cy="133.22581"
     inkscape:window-width="2560"
     inkscape:window-height="1351"
     inkscape:window-x="-9"
     inkscape:window-y="-9"
     inkscape:window-maximized="1"
     inkscape:current-layer="layer1" /><defs
     id="defs1" /><g
     inkscape:label="Warstwa 1"
     inkscape:groupmode="layer"
     id="layer1"><path
       style="fill:#000000;stroke-width:1.06891"
       d="m 87.445594,235.76684 c -2.255667,-0.88187 -5.242032,-7.62023 -7.86158,-17.73867 -2.891879,-11.17031 -7.476498,-36.54559 -6.808268,-37.68285 0.255475,-0.4348 2.358035,-0.79055 4.672343,-0.79055 2.31431,0 4.509298,-0.47433 4.877752,-1.05406 0.408159,-0.64221 -1.209108,-1.05407 -4.139086,-1.05407 -2.644944,0 -5.282735,-0.59291 -5.861736,-1.31758 -0.955486,-1.19587 -3.548487,-18.67383 -3.548487,-23.9184 0,-1.79372 0.704401,-2.18024 4.064792,-2.23047 2.235637,-0.0334 6.015894,-0.43244 8.400572,-0.88673 3.872588,-0.73777 4.04628,-0.89395 1.625918,-1.46203 -1.490424,-0.34979 -5.281402,-0.8308 -8.424408,-1.06888 -3.142996,-0.23807 -5.905549,-0.62007 -6.139009,-0.8489 -0.826442,-0.80997 -2.7797,-16.99411 -2.7797,-23.03175 0,-6.89881 0.481814,-7.27098 9.755503,-7.53545 2.682764,-0.0765 6.341078,-0.45972 8.129586,-0.85161 l 3.251834,-0.71249 -4.335779,-0.73228 c -2.384678,-0.40277 -6.530767,-0.74478 -9.213531,-0.76004 -7.090896,-0.0404 -8.141022,-0.96836 -6.515494,-5.75799 1.805819,-5.32085 6.911623,-10.718283 11.54618,-12.205662 3.682291,-1.181769 3.808645,-1.387973 3.107442,-5.071167 -0.402013,-2.111621 -1.787826,-6.448123 -3.079596,-9.636672 -2.98514,-7.368388 -7.13524,-9.820041 -13.827103,-8.168286 -5.139318,1.268541 -7.711053,-0.100949 -5.360834,-2.85473 1.146218,-1.343044 1.102568,-1.625772 -0.251041,-1.625772 -0.901202,0 -2.77427,-0.894294 -4.162359,-1.987319 -2.163673,-1.703741 -2.316542,-2.230172 -1.071305,-3.68923 0.807376,-0.946019 3.063433,-1.701911 5.07956,-1.701911 2.778725,0 3.481131,-0.369805 3.003145,-1.581099 -0.892846,-2.262581 1.661903,-1.967351 6.111682,0.706271 2.15847,1.296905 5.277174,2.191994 7.23506,2.076514 1.892697,-0.111637 3.768897,0.312535 4.16934,0.942604 0.400441,0.630069 2.347661,6.927391 4.32715,13.994048 l 3.599076,12.848468 0.08411,-9.486591 C 87.247677,63.071814 85.14671,59.218084 75.571651,57.731931 c -2.522469,-0.391515 -5.137854,-1.358106 -5.811982,-2.147982 -1.695733,-1.986913 -0.421037,-4.625184 2.234682,-4.625184 2.751649,0 2.857106,-1.692973 0.191837,-3.080058 -1.105537,-0.575356 -2.790746,-2.607945 -3.744921,-4.516867 -1.44427,-2.8894 -1.493286,-3.707348 -0.292589,-4.883178 1.205184,-1.180222 1.999021,-1.132451 4.828876,0.290585 3.361173,1.690217 3.386591,1.683018 3.386591,-0.959235 0,-3.050917 2.236102,-3.525754 4.474047,-0.950066 0.818205,0.941692 2.587117,4.617746 3.930905,8.169009 l 2.443254,6.456843 -0.403715,-6.899057 C 86.360132,36.922217 84.837579,33.467711 79.16418,27.242287 75.081914,22.762813 74.280662,20.39086 76.849731,20.39086 c 1.281797,0 1.35647,-0.594354 0.407302,-3.242057 -2.279579,-6.358976 2.479503,-6.615065 6.802416,-0.366041 l 2.131404,3.081065 -0.691612,-5.346142 c -0.610574,-4.719728 -0.372758,-5.7066199 2.029698,-8.4226533 2.6893,-3.0403081 2.748039,-3.0529991 4.991794,-1.0784019 1.766786,1.5548429 2.270473,3.2516628 2.270473,7.6487342 v 5.650624 l 3.07539,-3.347078 c 3.694794,-4.021219 6.147264,-3.31843 5.160614,1.478854 -0.46467,2.259304 -0.14882,3.538871 1.09114,4.420567 1.54018,1.095165 1.20348,1.849429 -2.86726,6.423155 -5.392827,6.059168 -7.022093,9.508525 -8.067254,17.079369 -0.99078,7.17695 0.685844,7.155354 3.017908,-0.03888 2.307285,-7.117805 4.248096,-9.725081 6.588936,-8.851579 1.35867,0.507002 1.62508,1.388845 1.06967,3.54078 l -0.73962,2.865627 3.02707,-2.315448 c 3.48628,-2.666722 5.80183,-2.955944 6.64095,-0.829488 0.67681,1.715129 -1.88882,6.989123 -4.37675,8.997014 -2.33514,1.884565 -2.12591,3.219878 0.50451,3.219878 2.65278,0 3.93104,2.637526 2.23908,4.620027 -0.6717,0.78704 -3.18373,1.686947 -5.58229,1.999792 -5.2639,0.686576 -9.467507,3.193687 -10.718184,6.392536 -1.056694,2.702697 -2.025416,23.108117 -1.043687,21.984379 0.355372,-0.406779 1.990166,-5.720059 3.632873,-11.807288 1.642708,-6.08723 3.517278,-11.698745 4.165698,-12.470033 0.68605,-0.816046 2.33946,-1.176878 3.95473,-0.863061 1.87476,0.364225 4.08578,-0.332723 6.81139,-2.147043 3.78777,-2.521363 8.33978,-2.747536 6.80859,-0.338294 -0.39105,0.615273 0.60532,1.068296 2.37016,1.077652 6.62395,0.03511 7.6028,4.361088 1.49415,6.603288 -2.84351,1.043718 -2.98345,1.299454 -1.35246,2.471737 3.03456,2.18113 0.0922,3.986358 -4.87449,2.990711 -5.5906,-1.120702 -8.03417,-0.701662 -10.88502,1.866638 -2.41626,2.176784 -5.04628,8.69458 -6.288394,15.584114 -0.64318,3.567542 -0.482313,3.795987 4.246264,6.029978 3.073,1.451822 6.04545,3.981695 7.93202,6.750978 2.82313,4.1441 3.01725,5.1463 3.01725,15.57838 v 11.14933 l -10.29748,1.05979 c -11.427315,1.17605 -10.952396,2.14952 1.58777,3.25456 4.49225,0.39586 8.16774,0.93267 8.16774,1.19292 0,2.14763 -3.47636,27.19633 -3.85769,27.79632 -0.2709,0.42626 -4.14135,1.10749 -8.60099,1.51388 -4.459635,0.40639 -7.85958,1.1304 -7.555458,1.60894 0.304134,0.47853 3.951934,1.19575 8.106228,1.59382 l 7.55326,0.72376 -0.52115,3.81745 c -4.73083,34.65361 -11.468132,61.81613 -16.032288,64.63674 -1.460562,0.9026 -3.848188,0.95722 -5.948538,0.13608 z m 7.074627,-40.07362 c -1.043297,-0.26511 -2.75051,-0.26511 -3.793807,0 -1.043297,0.26513 -0.18969,0.48207 1.896903,0.48207 2.086594,0 2.9402,-0.21694 1.896904,-0.48207 z M 47.687171,54.19581 c -0.311113,-0.489527 0.175058,-1.487851 1.080389,-2.218499 1.411416,-1.139078 1.010021,-1.605367 -2.815763,-3.271007 -5.183391,-2.256705 -5.139102,-4.066904 0.143308,-5.857055 2.041817,-0.691947 3.249005,-1.284859 2.682644,-1.317581 -0.566361,-0.03272 -0.495059,-0.579446 0.158452,-1.214942 1.070514,-1.040998 4.582051,-0.01748 10.492878,3.058379 0.522515,0.271905 0.441578,-0.389148 -0.17988,-1.469007 C 58.627751,40.826239 55.055806,38.50811 51.311546,36.7547 43.723608,33.201321 42.32507,31.342838 46.476578,30.329599 l 2.784784,-0.67967 -2.70778,-3.129309 c -1.489276,-1.72112 -2.707781,-3.582133 -2.707781,-4.135584 0,-1.949866 3.651419,-2.336721 6.587762,-0.697948 2.799428,1.562363 3.00334,1.537105 3.534429,-0.437814 1.037714,-3.858847 4.375625,-1.776987 6.244389,3.89463 l 1.733325,5.26058 0.791681,-3.425714 c 1.005283,-4.350038 3.309728,-4.400519 4.849157,-0.106225 1.728936,4.822915 1.471617,7.000428 -0.977902,8.275235 -2.799657,1.45703 -2.813368,5.809047 -0.0323,10.244532 1.86821,2.979558 1.925476,3.503051 0.469868,4.295198 -0.911707,0.496152 -1.780434,1.715611 -1.930506,2.70991 -0.223564,1.481304 -1.771024,1.887341 -8.567868,2.248126 -4.562259,0.24217 -8.549572,0.03979 -8.860696,-0.449736 z m 72.305749,0.207426 c -3.08518,-0.270218 -4.60676,-0.902743 -4.60676,-1.915047 0,-0.831357 -0.9093,-2.063775 -2.02067,-2.738705 -1.94424,-1.180732 -1.92374,-1.36603 0.54198,-4.89932 3.24659,-4.652252 3.24037,-7.113834 -0.0233,-9.193304 -2.20515,-1.40504 -2.46295,-2.145847 -1.75085,-5.031111 1.91439,-7.756586 3.57744,-8.992152 5.61813,-4.174011 1.08152,2.553493 1.27918,2.647636 1.65989,0.790549 0.97355,-4.749029 2.83493,-7.905493 4.66188,-7.905493 1.05623,0 2.1916,0.687214 2.52305,1.527142 0.52305,1.325477 1.03752,1.316168 3.89598,-0.0705 1.81133,-0.878706 3.78732,-1.300762 4.39108,-0.937901 1.86227,1.119219 1.21461,5.376079 -1.13215,7.441332 l -2.2299,1.962407 2.31037,0.831106 c 3.80751,1.369662 2.11065,4.255276 -3.68875,6.27295 -4.87047,1.694492 -10.99532,5.955777 -9.97978,6.943313 0.23796,0.231404 2.4116,-0.561017 4.8303,-1.760932 5.20732,-2.583352 7.11454,-2.766328 6.2599,-0.600566 -0.44534,1.128552 0.10395,1.581099 1.9192,1.581099 1.3987,0 3.18852,0.756226 3.97734,1.6805 1.22419,1.434406 1.04521,1.971229 -1.2222,3.665792 -1.46101,1.091912 -3.63196,2.010264 -4.82429,2.040785 -1.99386,0.05104 -2.01561,0.141742 -0.271,1.12988 1.0433,0.590915 1.89691,1.762315 1.89691,2.603111 0,1.561336 -2.11618,1.687103 -12.73635,0.75693 z"
       id="path1" /></g></svg>
