<?xml version="1.0" encoding="UTF-8" standalone="no"?>
<!-- Created with Inkscape (http://www.inkscape.org/) -->

<svg
   width="180"
   height="180"
   viewBox="0 0 180 180"
   version="1.1"
   id="svg1"
   xml:space="preserve"
   inkscape:version="1.4.2 (f4327f4, 2025-05-13)"
   sodipodi:docname="food_vegetable_fennel.svg"
   xmlns:inkscape="http://www.inkscape.org/namespaces/inkscape"
   xmlns:sodipodi="http://sodipodi.sourceforge.net/DTD/sodipodi-0.dtd"
   xmlns="http://www.w3.org/2000/svg"
   xmlns:svg="http://www.w3.org/2000/svg"><sodipodi:namedview
     id="namedview1"
     pagecolor="#505050"
     bordercolor="#ffffff"
     borderopacity="1"
     inkscape:showpageshadow="0"
     inkscape:pageopacity="0"
     inkscape:pagecheckerboard="1"
     inkscape:deskcolor="#505050"
     inkscape:document-units="px"
     inkscape:zoom="3.1"
     inkscape:cx="50.645161"
     inkscape:cy="81.612903"
     inkscape:window-width="2560"
     inkscape:window-height="1351"
     inkscape:window-x="-9"
     inkscape:window-y="-9"
     inkscape:window-maximized="1"
     inkscape:current-layer="layer1" /><defs
     id="defs1" /><g
     inkscape:label="Warstwa 1"
     inkscape:groupmode="layer"
     id="layer1"><path
       style="fill:#000000;stroke-width:0.828551"
       d="m 77.00231,175.51114 c -5.978255,-2.4966 -9.14769,-4.76647 -12.6804,-9.08136 -5.727914,-6.99615 -6.823714,-15.54993 -3.83897,-29.96689 1.540281,-7.43989 1.575922,-8.43457 0.441225,-12.31382 -3.564612,-12.18649 -15.132353,-14.77656 -16.660972,-3.73046 -0.634623,4.5859 -2.078057,6.41793 -2.078057,2.6375 v -2.41807 l -3.754569,3.7315 c -4.60919,4.58087 -5.875361,4.04007 -1.751524,-0.74811 1.651401,-1.91744 2.875272,-3.61274 2.719712,-3.76734 -0.15556,-0.15461 -1.725736,0.31807 -3.48928,1.05041 -2.986667,1.24024 -3.127736,1.23725 -2.058134,-0.0436 0.63157,-0.75632 2.297545,-1.96046 3.702167,-2.67588 1.404621,-0.71542 3.611049,-2.17771 4.903172,-3.24954 l 2.349316,-1.94881 H 40.01314 c -4.757009,0 -4.826637,0.0355 -9.309762,4.74952 -2.484298,2.61223 -4.294935,4.09903 -4.023634,3.304 0.611355,-1.79153 0.211262,-1.80718 -2.418618,-0.0946 -1.140956,0.74299 -2.343037,1.08398 -2.671288,0.75774 -0.59983,-0.59614 2.633661,-3.79114 6.478946,-6.40181 l 2.06528,-1.40218 -2.333071,-0.0434 c -1.283189,-0.0238 -3.946652,0.36049 -5.918808,0.85403 -1.972155,0.49354 -4.475262,0.73915 -5.562459,0.54579 -1.839737,-0.3272 -1.781007,-0.42656 0.847492,-1.43381 l 2.824212,-1.08225 -4.278652,-1.58627 c -2.353261,-0.87241 -4.278657,-1.97173 -4.278657,-2.44289 0,-0.47115 0.534445,-0.65282 1.187646,-0.4037 0.653201,0.24912 2.616697,0.68363 4.363319,0.96558 2.970558,0.47954 3.072232,0.42986 1.574132,-0.76903 -2.743129,-2.19526 -0.927398,-2.23234 3.174336,-0.0648 2.154553,1.13854 4.728926,2.07008 5.72083,2.07008 1.652355,0 1.579034,-0.20372 -0.875086,-2.43144 -4.15475,-3.77146 -3.157917,-4.5161 1.547757,-1.15618 3.076293,2.19651 5.337806,3.12378 8.311084,3.40772 2.246629,0.21455 4.08478,0.13363 4.08478,-0.17981 0,-0.31345 -2.430992,-1.66539 -5.402205,-3.00432 -5.627775,-2.53607 -7.043595,-3.83226 -3.116656,-2.8533 l 2.285548,0.56979 -2.014868,-2.13223 c -2.784648,-2.946856 -0.294253,-2.914088 3.241345,0.0426 l 2.600673,2.17488 -0.549234,-2.17488 c -0.848461,-3.359772 0.881518,-2.57848 2.313607,1.04486 1.541812,3.90095 3.914283,5.505 9.249399,6.25359 4.656562,0.65337 4.790191,1.26923 -1.744669,-8.04073 -4.111828,-5.85798 -7.608723,-8.866617 -10.305535,-8.866617 -0.567498,0 -3.606686,1.520306 -6.753751,3.378454 -3.147065,1.858149 -5.892071,3.209364 -6.100013,3.002699 -0.396303,-0.393863 2.243775,-3.055728 5.076396,-5.118279 1.604529,-1.16833 1.581,-1.211249 -0.67797,-1.236607 -2.930483,-0.03288 -5.22433,1.121669 -8.672,4.36489 -2.65353,2.49618 -3.950296,1.92437 -1.395075,-0.615148 1.187298,-1.180001 0.907743,-1.298004 -3.075101,-1.298004 -5.7083623,0 -4.47479,-1.277337 2.630905,-2.724245 4.593211,-0.935298 5.130644,-1.221731 3.709265,-1.97687 C 20.908761,90.453776 17.394975,89.437612 14.014572,88.681325 10.634163,87.925037 7.0811743,86.726038 6.1190416,86.016877 4.4603155,84.794282 4.5581203,84.750075 8.0071454,85.163458 l 3.6374376,0.435966 -3.1827797,-3.239435 c -3.8000355,-3.867682 -2.7171012,-4.273068 1.8191547,-0.680984 1.777018,1.407148 4.323042,3.122037 5.657836,3.810866 l 2.426898,1.252414 -2.634675,-3.560589 c -1.44907,-1.958324 -2.634679,-3.859064 -2.634679,-4.223867 0,-1.767447 2.019055,-0.208818 5.499367,4.245291 2.264781,2.89847 4.867806,5.266253 6.356467,5.782016 4.91182,1.701746 5.219181,0.975698 1.291203,-3.050068 -2.105512,-2.157929 -4.097965,-4.85276 -4.427672,-5.988513 -0.564089,-1.943132 -0.421284,-1.896173 2.41968,0.795671 l 3.01915,2.860675 -0.559963,-2.78261 c -0.779863,-3.875358 1.017322,-2.620848 2.289099,1.597886 1.160764,3.850478 4.436707,7.189509 8.069603,8.225009 1.451197,0.413645 2.630852,0.499244 2.621456,0.190237 -0.0535,-1.759657 -8.252175,-14.724635 -10.231083,-16.178933 -2.025288,-1.488383 -3.326249,-1.696314 -9.34997,-1.494395 -7.237993,0.242622 -9.663666,-0.955484 -3.880677,-1.916774 4.76729,-0.792454 4.955687,-0.942009 2.43922,-1.936332 -1.286808,-0.508452 -4.350224,-0.924459 -6.807596,-0.924459 -5.3859063,0 -6.8953821,-1.450348 -1.8838809,-1.81009 L 13.511892,66.317526 9.9796821,63.936256 C 4.2753855,60.090655 5.5988924,58.52653 11.450644,62.197879 c 3.655081,2.293176 3.957018,2.155089 1.948675,-0.891204 -0.747591,-1.133946 -1.121589,-2.297922 -0.831109,-2.586611 0.290473,-0.288689 0.63466,-0.370014 0.764869,-0.180722 2.17341,3.15967 6.926267,8.406527 8.255472,9.113526 1.622431,0.862964 1.596612,0.68238 -0.413474,-2.891958 -3.101651,-5.515359 -0.875276,-4.68197 3.556782,1.331395 2.056994,2.790904 4.184731,5.214777 4.728305,5.386383 1.223351,0.386211 -2.754426,-10.304678 -4.642179,-12.476573 -1.529387,-1.759588 -6.931694,-4.661616 -8.677889,-4.661616 -0.647905,0 -1.691301,-0.62201 -2.318657,-1.382244 -1.01608,-1.231285 -0.936427,-1.32994 0.729342,-0.903331 2.328929,0.596446 2.325636,0.548234 -0.216889,-3.175366 -2.748434,-4.025159 -1.929585,-4.615768 1.636664,-1.180465 2.395265,2.307318 2.775155,2.462854 2.383942,0.976042 -0.738155,-2.805364 0.105442,-2.094605 3.047781,2.567858 3.817448,6.049172 4.246379,3.440131 0.58097,-3.533841 -3.236703,-6.158299 -5.031905,-11.540692 -3.849193,-11.540692 0.411502,0 1.669176,1.765579 2.794831,3.923508 l 2.046646,3.923509 -0.47526,-4.260936 c -0.461792,-4.140198 0.261564,-10.775343 1.08545,-9.956521 0.535832,0.53254 1.006965,4.216203 1.131698,8.848445 l 0.100089,3.717008 1.292728,-3.097506 c 1.284808,-3.078531 2.777163,-4.133035 2.777163,-1.962355 0,0.624334 -0.560998,2.715421 -1.246662,4.64686 -1.476598,4.159409 -1.509705,9.067795 -0.09193,13.62903 l 1.02699,3.304007 0.599678,-3.048048 c 0.329824,-1.676427 0.366164,-3.972731 0.08076,-5.102898 -0.285407,-1.130166 -0.240663,-2.918002 0.09943,-3.972966 0.585412,-1.815931 0.670943,-1.7641 1.60546,0.972888 l 0.987105,2.891006 1.120031,-4.336509 c 0.616017,-2.385081 1.423325,-4.33651 1.794019,-4.33651 0.947411,0 0.839465,4.4159 -0.172619,7.061527 -0.746594,1.951626 -0.672958,2.143772 0.623331,1.626534 0.808464,-0.32259 2.030934,-0.79068 2.716598,-1.040201 0.685664,-0.249521 -0.321107,1.180015 -2.237269,3.176748 -6.299066,6.563929 -6.311127,9.896355 -0.08403,23.216573 3.566208,7.628377 4.776983,8.157574 4.801895,2.098778 0.0098,-2.384357 -0.651842,-3.826206 -2.881215,-6.278693 -2.99689,-3.296817 -3.092173,-5.36018 -0.12983,-2.811509 1.614617,1.389148 1.610105,1.322835 -0.112302,-1.650201 -0.986985,-1.703629 -1.491097,-3.097507 -1.12025,-3.097507 1.143361,0 3.292739,2.793157 4.790423,6.225244 1.064742,2.43996 1.515767,2.884604 1.770837,1.745786 0.579116,-2.585583 -0.586839,-6.832659 -2.742468,-9.989638 -2.384791,-3.492593 -2.721941,-5.336216 -0.66896,-3.658044 1.257982,1.028315 1.337131,0.884225 0.851886,-1.550864 -0.794032,-3.984661 0.873848,-3.265266 1.915041,0.826002 2.331588,9.161741 2.810593,6.499343 1.226034,-6.814515 l -0.442383,-3.717008 1.652,2.891006 1.652,2.891007 0.04757,-2.478006 c 0.02616,-1.362903 0.363947,-2.974053 0.750639,-3.580334 1.271836,-1.994067 1.689614,2.118261 0.795233,7.827752 -0.463353,2.957927 -0.685176,5.534369 -0.492938,5.725425 0.192237,0.191057 1.224871,-1.510048 2.294741,-3.780231 2.973061,-6.308607 3.936784,-4.744845 1.206069,1.956998 -0.551851,1.354375 -0.417597,1.429611 1.105465,0.619501 3.314397,-1.762912 3.008064,-0.89684 -1.207694,3.414416 -3.798271,3.884314 -6.975129,9.928779 -5.821159,11.075659 0.239871,0.238397 1.448841,-1.087461 2.686601,-2.94635 2.476109,-3.718665 3.283899,-4.251396 2.619882,-1.727795 -0.558843,2.123889 0.08306,2.087259 2.469518,-0.140924 2.848293,-2.659392 3.440748,-1.070786 0.671868,1.801543 -2.28399,2.369323 -2.306794,2.46939 -0.562742,2.46939 0.99974,0 1.817709,0.328349 1.817709,0.729664 0,0.839998 -2.863124,1.7206 -5.64776,1.737062 -1.049274,0.0062 -2.825768,0.923635 -3.947765,2.038738 -1.69808,1.687647 -2.039993,2.832354 -2.039993,6.829798 0,4.088784 0.401345,5.366303 2.701103,8.597886 3.346504,4.702462 12.236861,16.531971 13.264648,17.649941 1.241144,1.35005 -3.374794,-10.76822 -7.317755,-19.211373 -2.01374,-4.312068 -3.661345,-7.988726 -3.661345,-8.170353 0,-0.883375 4.708893,-1.951816 6.693181,-1.518671 1.861717,0.406389 2.825507,1.727616 5.598382,7.674628 5.490546,11.775639 7.312889,15.959479 9.678362,22.220169 2.938316,7.77684 4.332973,9.41104 12.71208,14.89551 3.861922,2.52779 7.209992,5.08373 7.44016,5.67985 0.231904,0.60061 -2.033033,3.52035 -5.079827,6.54842 -3.024075,3.00549 -6.465415,7.36128 -7.647423,9.67953 -1.939353,3.80361 -2.238359,4.05929 -3.063601,2.61969 -0.502973,-0.87743 -1.751257,-4.38307 -2.773964,-7.79033 -1.022707,-3.40726 -1.879507,-5.42616 -1.903999,-4.48643 -0.06218,2.38534 2.339662,10.2917 3.829939,12.60741 1.046415,1.62601 1.088049,2.81814 0.267312,7.65413 l -0.972149,5.72814 -1.536062,-1.94079 c -2.276819,-2.87672 -4.132586,-7.97967 -5.369804,-14.76579 -0.804698,-4.41374 -1.12056,-5.21422 -1.175411,-2.97882 -0.177068,7.21619 3.088389,16.46093 6.854292,19.40499 1.093964,0.85522 2.307428,2.47009 2.696586,3.58859 0.552611,1.58828 0.829298,0.61799 1.26346,-4.43074 0.431828,-5.02158 1.217994,-7.79578 3.522406,-12.4298 3.032953,-6.09906 5.368739,-8.61152 19.913029,-21.41926 7.473665,-6.58134 9.439405,-9.65538 13.307665,-20.81071 1.57535,-4.54301 4.61716,-12.220872 6.75959,-17.061928 4.31334,-9.746435 6.25485,-11.519459 10.75296,-9.81979 2.51762,0.951317 2.47635,1.903782 -0.32375,7.470673 -1.5228,3.027479 -7.47477,18.529905 -7.47477,19.468695 0,0.73749 11.55495,-14.304019 13.3696,-17.40369 1.34012,-2.289115 1.9905,-6.447957 1.70653,-10.912345 -0.17194,-2.703024 -3.20603,-5.058505 -7.30223,-5.668993 -3.64314,-0.542966 -5.05964,-2.003701 -1.94302,-2.003701 1.44242,0 1.29807,-0.334999 -1.03831,-2.409741 -3.36668,-2.98964 -2.52871,-4.23532 1.11464,-1.656967 l 2.67848,1.895524 -0.47505,-1.805414 c -0.75534,-2.870687 0.44376,-2.092328 2.62667,1.705025 1.10587,1.923744 2.16445,3.039223 2.35239,2.478842 0.76238,-2.273067 -1.93395,-7.424225 -5.8494,-11.174889 -2.2734,-2.17772 -3.89979,-4.19172 -3.6142,-4.475556 0.28559,-0.283835 1.2055,0.101158 2.04423,0.855541 2.29338,2.062728 2.83207,1.657261 1.41544,-1.06538 -0.6974,-1.340343 -1.25036,-3.291772 -1.22879,-4.33651 0.0292,-1.412757 0.66097,-0.735345 2.46554,2.643487 l 2.42634,4.54301 -0.4552,-7.434016 c -0.32953,-5.381347 -0.21063,-7.091905 0.43059,-6.195014 0.4872,0.681452 0.89155,2.07533 0.89855,3.097507 0.0174,2.54523 1.16447,2.335355 2.2572,-0.413001 l 0.90313,-2.271505 0.0884,2.318736 c 0.0486,1.275304 -0.32805,3.962515 -0.83706,5.97158 -0.50903,2.009065 -0.64622,4.682642 -0.30488,5.941282 0.59005,2.175733 0.67367,2.089943 1.69792,-1.741955 1.31988,-4.937901 3.34638,-7.420375 2.44132,-2.990622 -0.4832,2.364982 -0.39328,2.70314 0.49421,1.858504 2.42456,-2.307486 2.22503,-0.746497 -0.54472,4.261489 -2.20137,3.980289 -2.78998,5.840249 -2.37202,7.49531 l 0.55591,2.201317 1.42492,-3.158799 c 1.47921,-3.279119 3.8684,-5.810498 4.70209,-4.981925 0.26413,0.26251 -0.1189,1.327435 -0.85119,2.366501 -1.85253,2.628603 -1.66436,3.729115 0.33078,1.934629 2.69457,-2.423569 1.87086,-0.273957 -1.2626,3.29498 -2.90992,3.314323 -3.56212,6.279608 -2.16111,9.825622 0.48579,1.229556 1.3293,0.097 4.01506,-5.390831 6.40669,-13.090938 6.57254,-17.416434 0.87834,-22.90928 -3.47216,-3.349386 -3.91021,-5.892436 -0.50275,-2.918633 1.78525,1.558039 1.8,1.5571 1.15994,-0.0739 -0.35656,-0.908602 -0.83955,-3.324657 -1.07331,-5.369011 -0.50359,-4.404327 0.68781,-3.765286 2.30995,1.239002 l 1.071,3.304008 1.03287,-2.478006 1.03288,-2.478005 0.57949,2.269658 c 0.31871,1.248312 0.35248,2.857579 0.075,3.576148 -0.27745,0.718571 -0.25588,2.851439 0.048,4.739708 l 0.55239,3.433216 1.04586,-2.879357 c 1.43717,-3.95666 1.4114,-9.680538 -0.0653,-14.518604 -1.43462,-4.699918 -1.49917,-5.293791 -0.57538,-5.293791 0.37418,0 1.26767,1.208027 1.98553,2.684506 l 1.30522,2.684505 0.62224,-6.059719 c 0.76284,-7.429047 1.99502,-6.303682 2.11286,1.929711 l 0.0828,5.782012 1.62364,-3.510508 c 0.893,-1.930779 1.98348,-3.510507 2.42329,-3.510507 0.43982,0 0.79966,0.172861 0.79966,0.384134 0,1.396547 -2.97771,8.655698 -4.55791,11.111399 -1.04741,1.627724 -2.15688,4.046586 -2.46549,5.375249 -0.50367,2.168529 -0.42195,2.300981 0.79857,1.294261 0.74782,-0.61682 2.08793,-2.540236 2.97803,-4.274255 1.77355,-3.455093 2.87644,-4.167021 2.14419,-1.384113 -0.39121,1.486812 -0.0113,1.331276 2.38394,-0.976042 3.55153,-3.42112 4.68815,-2.64218 1.74345,1.1948 -2.63181,3.429284 -2.688,3.768418 -0.53145,3.207934 0.91422,-0.237604 1.66221,-0.03128 1.66221,0.458494 0,0.489776 -1.58949,1.310792 -3.53221,1.82448 -5.77552,1.527149 -8.40057,4.10907 -11.25201,11.067109 -2.99917,7.318541 -1.88125,7.437313 3.55263,0.377447 4.29688,-5.582629 6.3466,-6.343887 3.33655,-1.239174 l -2.26525,3.841606 1.96349,-0.899093 c 1.07992,-0.4945 3.27249,-2.727437 4.87237,-4.962079 3.76669,-5.261144 5.48281,-5.742946 2.92141,-0.820193 l -1.23413,2.371876 3.72545,-2.069395 c 4.95618,-2.753044 6.33998,-2.119799 2.13143,0.975368 -1.84213,1.354788 -3.35817,2.742026 -3.36897,3.082752 -0.0108,0.340726 1.31142,0.619501 2.93828,0.619501 5.2099,0 2.283,1.411947 -3.82765,1.846475 -7.31275,0.52001 -9.2549,1.912025 -3.80164,2.724768 6.53812,0.974428 4.49776,2.266106 -2.60084,1.646492 -5.90151,-0.515125 -6.68376,-0.399152 -9.33801,1.384428 -1.91038,1.283722 -4.26779,4.424116 -6.9224,9.221592 -2.214,4.001219 -3.90238,7.394972 -3.75194,7.541678 0.15044,0.146706 1.7552,-0.240788 3.56614,-0.861107 3.68863,-1.263493 5.77619,-3.534507 7.1794,-7.810291 1.3572,-4.135605 2.7674,-5.270819 2.08984,-1.682335 l -0.54013,2.860675 2.92355,-2.816208 c 1.60796,-1.548916 2.92356,-2.602837 2.92356,-2.342049 0,1.93456 -2.90649,6.447828 -5.40764,8.397109 -1.65996,1.2937 -2.84173,2.527491 -2.62614,2.741756 0.21558,0.214264 1.91306,-0.06336 3.77216,-0.616933 2.5583,-0.76178 4.30905,-2.181559 7.20047,-5.839264 5.55699,-7.029699 6.95952,-6.05731 1.80488,1.251345 l -1.66946,2.367098 1.99508,-1.029635 c 1.09728,-0.566299 3.8082,-2.30751 6.02425,-3.869357 4.88124,-3.440249 5.96429,-2.994051 2.08672,0.859695 l -2.83238,2.814969 3.3449,-0.364915 c 3.18787,-0.347786 3.26686,-0.302468 1.68267,0.965445 -0.91422,0.731698 -2.41022,1.477093 -3.32444,1.656433 -7.37429,1.446601 -13.63651,3.187408 -13.31661,3.701842 0.21218,0.341196 2.65166,1.098252 5.42108,1.682351 6.26707,1.321793 7.18187,2.478005 1.9606,2.478005 -3.07631,0 -3.73363,0.22027 -2.95793,0.991202 0.54853,0.545161 0.99733,1.521752 0.99733,2.170204 0,0.689291 -1.54574,-0.237062 -3.72142,-2.230205 -2.95234,-2.704627 -4.35222,-3.409206 -6.77359,-3.409206 h -3.05215 l 3.44914,2.483184 c 3.0653,2.206854 4.42101,4.12483 2.91561,4.12483 -0.29343,0 -2.94287,-1.512294 -5.88763,-3.360646 -5.25475,-3.298291 -5.4174,-3.340442 -8.76421,-2.271505 -2.92741,0.934976 -4.16587,2.176407 -8.74932,8.770309 l -5.3392,7.68117 4.45586,-0.55807 c 4.30059,-0.53861 8.18899,-2.82847 8.20133,-4.82973 0.003,-0.48868 0.77748,-2.00362 1.72103,-3.36652 l 1.71555,-2.478009 -0.5796,2.861909 -0.57961,2.86191 3.04304,-2.65541 c 4.06614,-3.548175 6.49441,-3.574855 3.27194,-0.0359 -1.29602,1.42328 -1.26001,1.51289 0.62333,1.55117 1.45642,0.0296 0.47651,0.81717 -3.61118,2.90239 -3.08549,1.57398 -5.60998,3.08979 -5.60998,3.36847 0,0.27869 1.83387,0.33158 4.07527,0.11753 3.01183,-0.28762 5.18058,-1.19557 8.31108,-3.47944 2.3297,-1.69966 4.23009,-2.77985 4.2231,-2.40042 -0.0198,1.06972 -1.02253,2.23744 -3.63157,4.22882 -2.37401,1.812 -2.3781,1.82996 -0.41556,1.82248 1.09014,-0.004 3.85207,-0.92178 6.13762,-2.03917 5.27341,-2.57814 6.50642,-2.58314 3.3423,-0.0135 l -2.47545,2.01032 4.55322,-1.20422 c 5.40968,-1.43074 4.96879,-1.38186 4.96879,-0.55081 0,0.8392 -5.3735,3.43334 -7.3004,3.52436 -0.81244,0.0384 -0.17439,0.63362 1.48264,1.3831 2.27124,1.02732 2.57145,1.39151 1.36955,1.66145 -0.84664,0.19015 -3.16274,-0.0606 -5.14691,-0.5571 -1.98417,-0.49655 -4.80707,-0.90282 -6.27312,-0.90282 h -2.66555 l 3.24136,2.3403 c 3.8053,2.74746 5.76001,4.93088 5.04794,5.63857 -0.27942,0.27771 -1.44155,-0.10297 -2.58252,-0.84596 -2.62976,-1.7125 -3.02937,-1.69688 -2.42105,0.0946 0.26996,0.79503 -1.51828,-0.67575 -3.97385,-3.2684 -4.21018,-4.44519 -4.71344,-4.7277 -8.82852,-4.95601 -2.40011,-0.13316 -4.3636,-0.021 -4.36332,0.24937 8.3e-4,0.80123 2.64215,2.79434 6.92241,5.22359 4.35007,2.46889 4.67053,3.68052 0.60051,2.27042 -3.28469,-1.13802 -3.19944,-0.35597 0.37131,3.40645 2.4371,2.5679 2.64911,3.06309 1.31143,3.06309 -0.8776,0 -2.93378,-1.55371 -4.56929,-3.45269 l -2.97364,-3.45268 -0.0127,2.83318 c -0.01,2.13321 -0.21178,2.52707 -0.81839,1.59419 -0.44311,-0.68146 -0.81138,-2.2437 -0.81838,-3.47165 -0.0539,-9.44278 -9.95241,-10.51549 -14.5121,-1.57267 -2.55812,5.0172 -2.62004,7.41664 -0.46058,17.84734 3.11463,15.04436 1.77172,23.78921 -4.7624,31.01209 -2.09327,2.3139 -5.6326,4.97803 -8.36715,6.29811 -4.31072,2.08098 -5.71627,2.31072 -15.543683,2.54069 -9.806001,0.22946 -11.235076,0.0729 -15.464888,-1.69346 z m 16.08408,-14.40988 c 6.380428,-8.60761 10.90218,-15.91539 12.64962,-20.44354 0.72729,-1.88465 0.82886,-2.62972 0.23642,-1.73437 -11.506425,17.38945 -19.093273,29.40543 -18.566491,29.40543 0.177666,0 2.733864,-3.25238 5.680451,-7.22752 z m 9.40212,2.89101 c 4.61412,-5.07584 7.68991,-11.46695 8.7921,-18.26883 1.01656,-6.27349 0.324,-7.00891 -0.93307,-0.99083 -1.2621,6.04214 -5.79561,14.95317 -10.05301,19.76013 -1.868626,2.10982 -3.026376,3.83604 -2.572782,3.83604 0.453602,0 2.598642,-1.95143 4.766762,-4.33651 z m 11.64374,-4.37679 c 1.48604,-3.0187 2.19851,-6.04338 2.44284,-10.3707 l 0.34494,-6.10906 -0.78082,4.95601 c -0.99555,6.31896 -2.89767,11.4119 -6.01566,16.10704 -2.43498,3.66662 -2.43876,3.68963 -0.27882,1.69766 1.20429,-1.11063 3.13367,-3.93706 4.28752,-6.28095 z m -26.095733,-8.42256 c 1.475667,-2.13164 5.469583,-6.77443 8.875357,-10.31732 3.405776,-3.54288 6.008086,-6.62472 5.782896,-6.84852 -0.22519,-0.22381 -3.78049,3.0563 -7.900676,7.28912 -5.329026,5.47471 -8.245228,9.26615 -10.103495,13.13589 -1.436747,2.99192 -2.58584,5.94426 -2.553552,6.56077 0.03229,0.6165 0.769193,-0.46875 1.637569,-2.41167 0.868378,-1.94292 2.786227,-5.27664 4.261901,-7.40827 z M 83.67765,133.97386 c -1.108175,-1.17747 -2.762862,-2.52505 -3.677081,-2.99461 -1.00327,-0.51531 -0.526796,0.33338 1.201922,2.14085 1.575277,1.64704 3.229966,2.99461 3.677086,2.99461 0.44712,0 -0.09374,-0.96338 -1.201927,-2.14085 z m 1.937524,-7.68023 c -9.895216,-6.74503 -10.158457,-7.08885 -11.528935,-15.05785 -0.654745,-3.80718 -2.490361,-10.8257 -4.079148,-15.596712 -1.588786,-4.771011 -2.888702,-8.909297 -2.888702,-9.196185 0,-1.135232 3.336261,-1.296831 5.348884,-0.259086 1.920615,0.990305 2.131091,0.946768 2.131091,-0.440814 0,-1.914702 -3.62409,-6.281727 -6.540088,-7.880796 -3.279706,-1.79852 -7.976024,-6.066069 -7.354884,-6.683392 0.299949,-0.298107 1.478873,0.06589 2.61983,0.808879 2.920389,1.901755 3.191958,1.706856 1.677456,-1.203874 -1.244188,-2.391211 -0.980509,-4.710471 0.301207,-2.649353 0.322543,0.51868 1.596518,2.180569 2.831054,3.693087 1.234538,1.512519 2.994854,3.679286 3.911815,4.815039 1.530048,1.895126 1.667804,1.929102 1.674535,0.413001 0.01587,-3.574774 -1.780417,-9.043808 -3.724648,-11.340198 -2.903209,-3.429069 -2.778867,-5.719377 0.165712,-3.052317 1.573931,1.425591 2.066837,1.602952 1.710949,0.615642 -0.274949,-0.762765 -0.754198,-2.80712 -1.064999,-4.54301 -0.802314,-4.481096 1.052277,-2.537694 3.041826,3.187491 0.839894,2.416903 1.539289,3.814935 1.554211,3.106739 0.01493,-0.708197 0.614465,-2.00915 1.332316,-2.891006 1.233696,-1.515557 1.280499,-1.44503 0.854509,1.287629 -0.24787,1.590053 -0.812088,4.37781 -1.253816,6.195014 -0.862061,3.546385 -0.833682,3.530612 2.882543,-1.60217 2.297008,-3.172585 2.013943,-0.601498 -0.445329,4.044927 -2.479227,4.684127 -3.36459,10.565073 -1.74071,11.56252 0.836388,0.51374 1.329396,-0.736609 2.187512,-5.547882 0.304746,-1.708647 0.944056,-3.346166 1.420689,-3.63893 0.572883,-0.351887 0.698481,0.497357 0.370567,2.505637 -0.635828,3.894075 0.444006,3.251979 1.898828,-1.129089 0.61856,-1.862752 1.491459,-3.612122 1.939768,-3.887487 1.063951,-0.653518 0.0096,7.236551 -1.116639,8.355825 -1.327687,1.319531 -0.950272,2.018061 0.83909,1.553008 2.749581,-0.714613 1.879319,0.443015 -1.695705,2.255651 -5.507658,2.792533 -5.707846,4.65107 -1.911042,17.742062 2.839025,9.78866 3.538729,11.02961 10.313476,18.29129 3.167944,3.39564 5.759897,6.65175 5.759897,7.23581 0,1.23421 -2.682327,3.84135 -3.805429,3.69875 -0.421115,-0.0534 -3.849079,-2.19899 -7.617691,-4.76785 z m 10.592012,-2.78181 c -1.142774,-1.92729 -2.203028,-3.78468 -2.356118,-4.12756 -0.15309,-0.34288 0.6817,-1.75736 1.855092,-3.14328 1.173392,-1.38593 3.23268,-5.93751 4.57619,-10.11462 1.3435,-4.1771 3.2202,-9.722736 4.17043,-12.323618 2.379,-6.511543 2.21349,-7.71135 -1.59673,-11.574468 -3.210103,-3.254676 -4.05106,-4.759699 -2.65955,-4.759699 0.36569,0 1.08571,0.41824 1.60006,0.929422 0.6168,0.613014 0.56884,-0.129615 -0.1409,-2.181408 -0.59184,-1.710956 -0.86337,-3.894775 -0.60341,-4.85293 0.36881,-1.359298 0.74077,-0.834588 1.69279,2.387908 1.0781,3.649252 1.28096,3.889631 1.74272,2.065004 0.45737,-1.807275 0.59561,-1.876162 1.10766,-0.551945 0.32179,0.832184 0.58506,2.783613 0.58506,4.336509 0,4.180229 1.37787,3.424644 1.88339,-1.032802 0.26121,-2.303224 -0.03,-5.172621 -0.72302,-7.124866 -1.50185,-4.23054 -1.39652,-6.737118 0.14598,-3.473913 1.12688,2.383968 1.15117,2.308707 0.63988,-1.983247 -0.58406,-4.902886 0.72117,-5.436879 1.7561,-0.718447 l 0.59258,2.701694 1.17101,-3.817447 c 1.32735,-4.327084 4.38821,-7.835706 3.40213,-3.899806 -0.30243,1.207123 -0.80188,2.879777 -1.1099,3.717008 -0.53144,1.444552 -0.46774,1.4417 1.24822,-0.05587 2.90727,-2.537264 3.05177,-0.850549 0.21968,2.564165 -1.43055,1.724834 -2.23114,3.258588 -1.7791,3.408343 0.45205,0.149756 0.10105,1.266633 -0.78,2.48195 -1.95379,2.695067 -3.23543,7.294898 -1.78419,6.403496 0.5333,-0.327571 2.1179,-2.520291 3.52132,-4.872711 2.29666,-3.849642 2.82552,-3.564796 1.1105,0.598121 -0.57384,1.392891 -0.34986,1.352671 1.97325,-0.354326 3.48744,-2.562532 4.01636,-1.764282 1.00336,1.514266 -2.2958,2.498127 -2.32983,2.63783 -0.6426,2.63783 2.38812,0 0.97997,1.205779 -2.81367,2.409318 -3.46569,1.099494 -5.27174,2.880747 -5.99334,5.91107 -0.46549,1.954772 -0.31557,2.097579 1.86772,1.779106 1.30561,-0.190443 2.60426,0.02428 2.88589,0.477156 0.28162,0.452881 -0.604,3.429956 -1.96806,6.615738 -1.36405,3.185782 -3.31485,10.006219 -4.33511,15.156529 -1.70187,8.59109 -2.12323,9.654 -5.1038,12.87469 -1.78683,1.93078 -3.481649,3.50764 -3.766262,3.50415 -0.284613,-0.003 -1.452478,-1.58323 -2.595252,-3.51051 z m -6.621167,-8.2079 c -0.934598,-0.99701 -1.527502,-2.39089 -1.317573,-3.09751 0.20993,-0.70662 0.804222,-9.46218 1.32064,-19.456803 C 90.588112,73.414596 90.00784,53.202884 88.420232,52.037198 87.903407,51.657721 85.049555,50.893953 82.07834,50.339937 74.45479,48.918439 63.530681,43.419511 58.604877,38.523973 l -4.041471,-4.016638 -4.359708,0.679469 c -5.265186,0.820589 -6.356345,0.534182 -6.356345,-1.668408 0,-1.400192 0.387916,-1.608618 2.285548,-1.228015 1.257052,0.252123 2.940046,0.710054 3.739988,1.017625 0.799942,0.307571 1.45444,0.206586 1.45444,-0.22441 0,-0.430996 -1.495995,-1.229086 -3.324434,-1.773533 -3.386946,-1.008519 -4.441052,-3.02759 -2.055593,-3.937353 0.757357,-0.288839 2.081476,0.387553 3.284749,1.677928 1.10875,1.18901 2.220766,2.161836 2.471147,2.161836 1.139851,0 0.259703,-1.910988 -1.719962,-3.734407 -1.298353,-1.19588 -1.978926,-2.511864 -1.688301,-3.264567 0.662623,-1.716158 2.978795,-1.595525 3.541647,0.184459 1.189248,3.760926 2.219918,5.526026 2.605173,4.461556 0.221739,-0.612676 -0.08154,-2.014065 -0.673951,-3.114197 -1.2478,-2.31721 -0.09014,-4.167108 2.087939,-3.336438 1.032303,0.393697 1.2089,1.262462 0.819842,4.033187 -0.368159,2.621898 -0.267807,3.212301 0.389644,2.292401 0.487033,-0.681451 0.891241,-2.053392 0.89824,-3.048758 0.01506,-2.141075 1.021064,-2.930782 2.846606,-2.234561 1.917599,0.731331 1.641348,2.118849 -1.197233,6.013319 -2.887389,3.961435 -2.757793,4.421394 2.461145,8.735065 4.258492,3.519821 8.511244,5.798271 14.900057,7.982839 6.37054,2.178319 7.541524,1.930856 3.774554,-0.797675 C 73.81035,40.35911 66.866737,30.681049 65.169154,23.669943 64.8467,22.338191 63.915217,21.324573 62.76398,21.052692 c -5.134888,-1.212683 -8.527772,-2.973208 -8.527772,-4.424955 0,-2.169328 3.440826,-2.521331 4.111684,-0.420632 0.282955,0.886035 1.2845,1.811104 2.225656,2.055709 1.674769,0.435271 1.678605,0.406689 0.180251,-1.342818 -0.842017,-0.983156 -2.059206,-2.204506 -2.704864,-2.714113 -1.575386,-1.243424 -0.545541,-3.643455 1.563393,-3.643455 1.209514,0 1.688302,0.540846 1.688302,1.907131 0,1.048922 0.549103,2.628651 1.220231,3.510508 1.170857,1.5385 1.221299,1.513439 1.246662,-0.61938 0.01454,-1.222517 -0.347567,-2.452481 -0.804676,-2.733254 -0.45711,-0.280774 -0.831109,-1.231962 -0.831109,-2.113753 0,-1.1780457 0.576088,-1.6032557 2.172139,-1.6032557 2.096933,0 2.153102,0.1261552 1.622342,3.6437687 -0.337938,2.239686 -0.214172,3.849919 0.321188,4.178757 0.868084,0.533209 1.261525,-1.055523 0.992836,-4.009112 -0.186969,-2.055288 1.361687,-3.8297083 2.84779,-3.2629413 1.288035,0.4912282 1.635414,3.2702683 0.464649,3.7172043 -0.396687,0.151433 -1.011632,1.201671 -1.366546,2.333861 -0.573042,1.828028 -0.495258,1.934769 0.694677,0.953278 0.736987,-0.607886 1.258433,-1.475887 1.158769,-1.928891 -0.09966,-0.453005 0.483939,-1.253682 1.296893,-1.779282 1.156989,-0.748029 1.636809,-0.702742 2.208654,0.208461 1.097821,1.749316 0.40503,2.736311 -3.757966,5.353837 -3.311493,2.082134 -3.723372,2.65244 -3.255019,4.507044 1.764599,6.98752 8.239984,15.794733 15.194801,20.666547 l 2.726379,1.909813 -2.838786,-5.236643 c -1.561336,-2.880154 -3.098356,-6.348023 -3.415605,-7.706375 -0.669813,-2.867924 -1.704079,-3.6951 -4.642124,-3.712634 -2.301934,-0.01374 -4.113987,-1.365451 -4.113987,-3.068855 0,-0.590592 0.586201,-1.073803 1.30267,-1.073803 0.891471,0 1.147893,-0.484655 0.812343,-1.535386 -0.278235,-0.871255 0.03517,-1.968833 0.724559,-2.537456 1.006129,-0.829883 1.502878,-0.459607 2.890913,2.154888 1.798718,3.388056 2.403242,2.595695 0.757859,-0.993339 -0.804244,-1.754279 -0.770249,-2.299006 0.179903,-2.882623 1.96549,-1.207276 3.23446,0.630224 2.699183,3.908486 -0.347812,2.130144 -0.213362,2.801635 0.476158,2.378106 0.528452,-0.324595 0.960822,-1.695004 0.960822,-3.045354 0,-2.609476 1.967591,-4.082236 3.465259,-2.593773 0.592871,0.589223 0.270983,1.646985 -1.035713,3.403526 -1.042759,1.401735 -1.671869,2.771281 -1.398031,3.043436 0.27384,0.272155 1.131785,-0.466675 1.906547,-1.641844 1.465992,-2.223648 3.720174,-2.896698 3.698083,-1.10417 -0.01961,1.58956 -0.991138,2.668572 -3.93504,4.37031 -1.485609,0.858762 -2.70081,2.131722 -2.70045,2.828797 9.98e-4,1.884496 4.58921,10.814808 7.016952,13.657438 l 2.116335,2.478006 0.0025,-14.868032 0.0025,-14.868033 -5.021233,-2.43315 c -3.985211,-1.931119 -4.970838,-2.783261 -4.77697,-4.130009 0.316908,-2.201465 3.089908,-2.2303296 4.30923,-0.04485 1.010221,1.810677 2.203493,2.858769 3.277077,2.878358 0.381246,0.0069 -0.513209,-1.501172 -1.987679,-3.3513985 C 83.832873,6.7228319 83.654226,6.1647801 84.722544,5.10303 86.531476,3.3052139 88.96915,4.53295 88.49413,7.0025905 c -0.229253,1.1918627 0.229345,2.7171073 1.144578,3.8067505 l 1.527087,1.818096 0.02768,-1.819638 C 91.208667,9.8069972 90.780779,8.0276877 90.242603,6.8537772 89.450441,5.1258376 89.497207,4.4877281 90.488196,3.5028259 91.519435,2.4779187 91.952044,2.460495 93.234145,3.3922283 c 1.244344,0.9042944 1.351108,1.4230475 0.585516,2.8447825 -0.51498,0.9563457 -0.924966,2.7854243 -0.911061,4.0646192 0.02327,2.142978 0.09975,2.19817 0.972745,0.702105 0.521114,-0.893036 1.179568,-2.75154 1.463242,-4.130009 0.360884,-1.7564879 0.998884,-2.5063117 2.131951,-2.5063117 2.589842,0 2.412004,2.7286764 -0.361582,5.5481377 -1.403019,1.426225 -2.421759,2.721529 -2.263865,2.878452 0.666458,0.662369 2.992406,-0.849198 3.433866,-2.231576 0.575143,-1.8009963 2.884833,-2.8323058 3.956903,-1.7668196 1.6394,1.6293286 0.0407,3.6357276 -4.372457,5.4877296 l -4.571097,1.918256 -0.147056,11.841949 c -0.08087,6.513073 0.118358,13.127855 0.442748,14.699518 l 0.589796,2.857568 1.846848,-2.577719 c 2.336129,-3.26064 5.985478,-11.004982 5.954638,-12.636438 -0.0129,-0.681452 -1.50522,-2.257647 -3.31631,-3.502657 -3.247007,-2.232112 -4.38462,-4.757361 -2.143162,-4.757361 0.632349,0 1.345332,-0.743402 1.584408,-1.652004 0.463243,-1.760554 3.914724,-2.375941 3.914724,-0.697982 0,0.537308 0.73464,0.293277 1.68186,-0.558684 2.46748,-2.219323 3.91068,-0.539222 2.4818,2.889201 -0.58463,1.402745 -0.82731,2.784651 -0.53928,3.070903 0.28802,0.286252 0.93594,-0.654919 1.43983,-2.09149 0.61872,-1.763951 1.45867,-2.611948 2.58717,-2.611948 1.34609,0 1.57424,0.383204 1.17333,1.970739 -0.38768,1.535132 -0.11268,2.070801 1.24413,2.423432 2.79779,0.727146 1.37658,2.42809 -3.05559,3.65699 -4.01579,1.113453 -4.13725,1.241902 -5.62776,5.951561 -0.83788,2.647451 -2.4739,6.203729 -3.635612,7.902839 l -2.112204,3.089292 2.663606,-1.552903 c 6.24051,-3.638269 15.95246,-17.04771 15.78162,-21.789946 -0.0245,-0.681452 -1.80074,-2.38708 -3.94711,-3.790284 -4.20919,-2.751799 -5.00127,-4.72745 -2.06186,-5.142859 1.38867,-0.196252 1.972,0.260089 2.37565,1.858504 0.29427,1.165245 0.86848,2.118628 1.27604,2.118628 1.12375,0 0.90674,-0.752663 -0.97376,-3.377361 -2.10104,-2.932508 -1.39684,-4.3860539 1.81557,-3.74752 1.32723,0.263816 2.39252,0.116975 2.39252,-0.329786 0,-1.3347462 3.18585,-0.9047957 3.99924,0.539723 0.51924,0.922142 0.94007,1.0513 1.3384,0.410768 0.41221,-0.662889 1.04922,-0.6852601 2.19278,-0.07701 2.08981,1.111563 2.03336,1.706615 -0.43249,4.558671 -1.12435,1.300445 -1.83882,2.566287 -1.58772,2.812983 0.2511,0.246694 1.34937,-0.661888 2.4406,-2.019074 1.86145,-2.315129 2.0707,-2.381492 3.38632,-1.073957 1.93288,1.92101 0.68049,3.202612 -5.00728,5.124066 -3.96562,1.339676 -4.66479,1.898498 -5.147,4.11389 -0.77354,3.553831 -4.7768,11.272593 -7.53767,14.533531 -1.2652,1.494378 -4.18645,4.200489 -6.49164,6.013579 l -4.191258,3.296524 2.908878,-0.609382 c 6.28517,-1.316683 14.76985,-5.502701 19.18932,-9.46728 4.28219,-3.841425 4.44071,-4.12679 3.31457,-5.966854 -3.86165,-6.309759 -4.12468,-6.943235 -3.37823,-8.135876 0.63634,-1.016703 1.06358,-1.049927 2.4578,-0.191122 1.41245,0.870034 1.68758,0.836369 1.68758,-0.206501 0,-0.778401 0.77974,-1.246002 2.07777,-1.246002 1.50264,0 2.07777,0.443784 2.07777,1.603255 0,0.881791 -0.374,1.832979 -0.83111,2.113753 -0.45711,0.280774 -0.81785,1.510737 -0.80165,2.733254 l 0.0294,2.222757 1.18776,-2.065005 c 0.65327,-1.135752 1.20102,-2.861563 1.21721,-3.835135 0.0364,-2.186493 2.05894,-3.084613 3.38104,-1.501359 0.77863,0.932425 0.52813,1.706788 -1.22005,3.771629 -1.20992,1.429068 -1.96396,2.830408 -1.67564,3.114088 0.28831,0.28368 1.35767,-0.520665 2.37636,-1.787432 1.24977,-1.554132 2.30676,-2.129838 3.24994,-1.770131 1.59556,0.608513 1.85229,2.45767 0.45994,3.312899 -0.64119,0.393846 -0.50975,0.814147 0.41555,1.328795 1.55361,0.864097 1.82149,3.681922 0.39496,4.154509 -0.52714,0.174633 -2.86463,0.0666 -5.19443,-0.240067 l -4.23599,-0.557581 -4.62117,4.347899 c -5.83258,5.487693 -12.98136,9.090066 -22.34662,11.260783 l -7.335434,1.700238 -0.378711,31.096026 c -0.208301,17.102812 -0.664554,31.746512 -1.013902,32.541532 -0.83824,1.9076 -1.700739,1.82323 -3.754084,-0.36724 z M 135.26928,32.451476 c 1.09605,-1.312546 0.28347,-1.612228 -2.00502,-0.739449 -0.72043,0.274754 -1.10294,0.832305 -0.85004,1.239003 0.67309,1.082386 1.68137,0.905965 2.85506,-0.499554 z m -8.31108,-5.121211 c 0,-1.661084 -0.24025,-1.991431 -0.94147,-1.294524 -0.5178,0.514624 -0.71655,1.518216 -0.44164,2.230205 0.76082,1.97049 1.38311,1.549513 1.38311,-0.935681 z M 75.412804,25.823501 c -0.578219,-0.69243 -1.26768,-1.04392 -1.532135,-0.78109 -0.264456,0.262831 0.06934,0.823673 0.741764,1.246316 1.759433,1.105862 1.989322,0.970545 0.790371,-0.465226 z m 33.710736,0.378007 c 0.8945,-1.438435 -0.12427,-1.743063 -1.26417,-0.378007 -0.65553,0.785019 -0.71859,1.258964 -0.16748,1.258964 0.4861,0 1.13034,-0.396431 1.43165,-0.880957 z M 99.683987,23.59949 c -0.596371,-0.592707 -0.983476,-0.641476 -0.983476,-0.1239 0,1.102531 0.982877,2.079369 1.537549,1.528103 0.23618,-0.234721 -0.0131,-0.866613 -0.554073,-1.404203 z m 4.003173,-0.234033 c 0,-1.135753 -0.374,-2.065005 -0.83111,-2.065005 -0.92849,0 -1.1392,2.722471 -0.27703,3.579341 0.91616,0.910536 1.10814,0.648186 1.10814,-1.514336 z m 13.38195,-10.571724 c -1.50613,-1.496884 -2.07772,0.11583 -0.89127,2.514715 l 1.12518,2.274996 0.32686,-1.953771 c 0.17976,-1.074574 -0.0726,-2.350747 -0.56077,-2.83594 z m 4.30734,0.492548 c -0.65195,-1.688516 -1.89823,-0.358495 -1.89823,2.025779 0,2.057573 0.0619,2.090027 1.15421,0.605355 0.63481,-0.862825 0.96962,-2.046836 0.74402,-2.631134 z"
       id="path1" /></g></svg>
