<?xml version="1.0" encoding="UTF-8" standalone="no"?>
<!-- Created with Inkscape (http://www.inkscape.org/) -->

<svg
   width="180"
   height="240"
   viewBox="0 0 180 240"
   version="1.1"
   id="svg1"
   xml:space="preserve"
   inkscape:version="1.4.2 (f4327f4, 2025-05-13)"
   sodipodi:docname="food_vegetable_parsnip.svg"
   xmlns:inkscape="http://www.inkscape.org/namespaces/inkscape"
   xmlns:sodipodi="http://sodipodi.sourceforge.net/DTD/sodipodi-0.dtd"
   xmlns="http://www.w3.org/2000/svg"
   xmlns:svg="http://www.w3.org/2000/svg"><sodipodi:namedview
     id="namedview1"
     pagecolor="#505050"
     bordercolor="#ffffff"
     borderopacity="1"
     inkscape:showpageshadow="0"
     inkscape:pageopacity="0"
     inkscape:pagecheckerboard="1"
     inkscape:deskcolor="#505050"
     inkscape:document-units="px"
     inkscape:zoom="3.1"
     inkscape:cx="50.645161"
     inkscape:cy="133.22581"
     inkscape:window-width="2560"
     inkscape:window-height="1351"
     inkscape:window-x="-9"
     inkscape:window-y="-9"
     inkscape:window-maximized="1"
     inkscape:current-layer="layer1" /><defs
     id="defs1" /><g
     inkscape:label="Warstwa 1"
     inkscape:groupmode="layer"
     id="layer1"><path
       style="fill:#000000;stroke-width:1.24035"
       d="m 88.82881,232.49127 c -3.947514,-1.90941 -7.21338,-9.42631 -8.365864,-19.25534 -0.517957,-4.41738 -2.220101,-10.9111 -3.782555,-14.43049 -1.562467,-3.51939 -4.270704,-12.35719 -6.018327,-19.63957 -1.747623,-7.28237 -6.180974,-20.73365 -9.851913,-29.89172 -8.588902,-21.42725 -10.168639,-34.06487 -5.152628,-41.22045 2.59362,-3.69992 4.895352,-5.23922 10.94962,-7.32269 6.78662,-2.335481 9.47208,-2.635398 23.417918,-2.615356 12.095309,0.01738 17.165499,0.465903 21.839889,1.932006 17.65241,5.5366 19.63089,18.26395 7.44046,47.86314 -3.61347,8.77376 -8.69247,23.53415 -11.2867,32.80089 -2.59422,9.26674 -6.41086,20.65087 -8.481439,25.29808 -3.11951,7.00149 -3.67475,10.03957 -3.24007,17.72822 0.45355,8.02226 0.18394,9.34019 -1.99088,9.73239 -1.38351,0.2495 -3.848387,-0.19109 -5.477511,-0.97911 z m 4.261511,-36.4771 c 0,-0.56691 -1.7188,-1.03074 -3.819554,-1.03074 -2.16628,0 -3.420261,0.44615 -2.89708,1.03074 0.50736,0.56692 2.226161,1.03075 3.819553,1.03075 1.593401,0 2.897081,-0.46383 2.897081,-1.03075 z m -2.985167,-14.31026 c 0,-1.18738 -5.666111,-2.19764 -8.344614,-1.48784 -1.147485,0.30409 -1.714727,0.96812 -1.260534,1.47562 1.0699,1.19549 9.605148,1.20634 9.605148,0.0122 z m 8.078577,-12.08184 c 3.529309,-0.93527 1.29258,-2.46887 -3.60082,-2.46887 -5.30707,0 -7.257134,1.74919 -2.63417,2.36281 1.85926,0.24679 3.49344,0.51187 3.63152,0.58907 0.13807,0.0772 1.30965,-0.14015 2.60347,-0.48301 z M 83.289036,157.21068 c 8.701425,-0.82363 6.159599,-2.38797 -3.917036,-2.41068 -6.639511,-0.0149 -9.73685,0.9657 -7.634827,2.41732 1.194725,0.82505 2.77491,0.82414 11.551863,-0.006 z m 15.025335,-15.8262 c -0.50737,-0.56691 -4.20151,-1.03075 -8.209217,-1.03075 -4.007714,0 -7.701863,0.46384 -8.209222,1.03075 -0.576585,0.64426 2.501498,1.03075 8.209222,1.03075 5.707717,0 8.785807,-0.38649 8.209217,-1.03075 z m 18.657309,-10.71259 c 0,-0.78971 -1.06241,-1.71739 -2.36095,-2.06149 -3.08314,-0.81704 -12.31563,-0.62624 -17.042649,0.3522 -3.19847,0.66204 -2.66547,0.8798 3.731449,1.52445 4.10463,0.41365 8.1346,0.91089 8.95553,1.105 3.55494,0.84059 6.71662,0.40744 6.71662,-0.92016 z m -39.740077,-9.91818 c 4.486264,-0.0115 5.549402,-0.28303 3.918037,-1.00067 -4.182553,-1.83991 -14.970272,-2.40772 -18.806559,-0.98988 -4.625865,1.70966 -1.789207,3.33846 4.440426,2.54968 2.360151,-0.29884 7.061794,-0.55044 10.448096,-0.55913 z m 38.247497,-8.11549 c 0,-1.31901 -9.56973,-2.36773 -14.23201,-1.55965 -2.918319,0.50582 -3.433579,0.9184 -1.955109,1.56547 2.666849,1.16719 16.187119,1.16233 16.187119,-0.006 z M 77.732679,88.865954 c -1.443778,-2.807238 -4.415978,-6.573907 -6.604913,-8.370378 l -3.979875,-3.26631 -11.030741,0.69029 c -10.293285,0.64414 -11.084221,0.549089 -11.830529,-1.421738 -0.504315,-1.33178 -2.028527,-2.112028 -4.125818,-2.112028 -7.174962,0 -10.61955,-6.43656 -4.195717,-7.840093 8.487033,-1.854318 8.877194,-2.175564 4.138461,-3.407421 -8.445912,-2.195553 -11.194389,-3.5339 -11.194389,-5.450995 0,-1.05582 0.98224,-2.179967 2.182757,-2.498105 1.899209,-0.50329 1.884254,-0.893049 -0.115078,-3.000304 -1.263848,-1.332027 -2.078172,-3.49232 -1.809626,-4.800648 0.686484,-3.344434 7.727099,-3.777284 13.499762,-0.829952 l 4.367841,2.230081 0.813071,-2.147142 c 1.961958,-5.181103 12.472787,-0.729326 14.68259,6.218691 0.916194,2.880713 1.18568,2.993485 3.57904,1.49772 3.616161,-2.259982 5.628211,-2.026093 8.486586,0.98652 1.839492,1.938739 2.22925,3.82096 1.525467,7.366818 -0.773189,3.895569 -0.06179,6.371595 3.907124,13.59905 l 4.85244,8.836312 0.423894,-11.066768 C 85.835894,60.220108 84.07133,55.45709 76.649481,50.715931 73.51123,48.711187 68.492577,45.518924 65.496928,43.62201 60.44705,40.424321 60.22352,40.040884 62.428412,38.35837 c 2.127472,-1.623438 2.138188,-1.952231 0.101647,-3.11946 -3.132907,-1.795564 -2.919796,-6.93582 0.335488,-8.092026 3.382078,-1.201238 6.13763,-0.531016 11.194388,2.722765 3.406901,2.192181 4.10461,2.338549 4.10461,0.861091 0,-0.979018 -1.383014,-3.652147 -3.073367,-5.940289 -1.690353,-2.288141 -2.865764,-5.400563 -2.612024,-6.916493 0.405401,-2.422054 1.049495,-2.724516 5.312245,-2.494625 4.226941,0.227961 4.850902,-0.05566 4.850902,-2.204994 0,-1.356633 1.271189,-3.5507082 2.824851,-4.8757216 2.587934,-2.2070675 3.149355,-2.2891841 6.694049,-0.9791115 2.48111,0.9169903 4.19333,2.6232015 4.77272,4.7559801 0.80305,2.956107 1.428,3.310198 5.619779,3.184106 6.30708,-0.189722 6.7681,2.399075 1.80687,10.146156 -2.09399,3.269804 -3.80726,6.167351 -3.80726,6.438993 0,0.271643 2.37421,-0.945665 5.27601,-2.705129 5.58587,-3.386917 9.39584,-3.992895 12.33651,-1.962126 2.47414,1.708588 2.23991,4.547109 -0.62434,7.565894 -1.83423,1.933214 -2.00761,2.885113 -0.72054,3.956085 2.61752,2.178021 0.55185,4.371241 -7.46163,7.922356 -4.04092,1.790712 -8.69764,4.565597 -10.348259,6.16641 -4.12773,4.003195 -6.1159,12.452893 -5.60484,23.820503 l 0.43047,9.575097 4.8509,-8.83691 c 3.661299,-6.669948 4.850819,-10.47851 4.850819,-15.531383 0,-5.385429 0.58373,-7.059279 2.98518,-8.560102 2.78263,-1.739046 3.17037,-1.749885 5.71472,-0.159754 3.44256,2.151479 4.73337,2.15795 4.73337,0.02373 0,-2.406222 5.56662,-8.297796 8.59951,-9.101513 1.66987,-0.442516 3.46197,0.08105 5.12133,1.49621 2.40537,2.051376 2.81075,2.084737 7.02873,0.578445 5.72969,-2.046149 9.71264,-2.02831 12.21597,0.05471 1.67001,1.389612 1.57452,2.149264 -0.59896,4.764534 -2.42239,2.914783 -2.42675,3.191627 -0.069,4.382244 3.84276,1.940448 1.45897,4.455696 -6.51886,6.878397 l -7.12148,2.162647 4.57993,1.344331 c 7.3837,2.16731 8.87894,4.050317 5.22174,6.575905 -1.69678,1.171756 -4.35004,2.130467 -5.89614,2.130467 -1.58663,0 -3.16268,0.928484 -3.61827,2.131614 -0.75205,1.985978 -1.51362,2.083542 -11.147,1.42801 -6.59344,-0.44867 -11.44862,-0.293803 -13.40008,0.427425 -3.32994,1.230715 -10.8159,10.739154 -10.8159,13.738066 0,1.608454 -1.361449,1.859117 -10.097758,1.859117 H 80.357734 Z M 71.555197,71.842443 c -4.494278,-5.295987 -14.925702,-12.5704 -22.152263,-15.448011 -3.089248,-1.230136 -1.201755,0.393654 5.253318,4.519388 5.541222,3.541648 10.07495,6.850508 10.07495,7.353024 0,0.502514 -1.847074,0.661821 -4.104609,0.354012 -2.257535,-0.307808 -5.783768,-0.09369 -7.836073,0.475807 -3.382167,0.938534 -3.130726,1.041576 2.686147,1.100796 7.479568,0.07615 14.439896,2.280203 16.79415,5.318029 0.911761,1.17651 2.020766,1.888417 2.464452,1.582016 0.443702,-0.306401 -0.987345,-2.67118 -3.180072,-5.255061 z M 121.82689,70.23145 c 5.22744,-0.02585 5.85776,-0.224612 3.59419,-1.133356 -1.50975,-0.606107 -4.36433,-0.888243 -6.34349,-0.626967 -1.97916,0.261276 -3.59849,0.114448 -3.59849,-0.326283 0,-0.440732 4.14312,-3.390526 9.20694,-6.555099 5.0638,-3.164572 8.88175,-5.978316 8.48433,-6.252763 -1.71002,-1.180912 -14.58501,6.437293 -21.79588,12.896748 -9.32257,8.3511 -10.15723,10.932348 -1.86144,5.756626 4.85636,-3.029858 7.16118,-3.733429 12.31384,-3.758906 z M 91.552021,45.524818 c 0,-9.354047 -0.65108,-17.703114 -1.446867,-18.553481 -0.961189,-1.027119 -1.446871,5.200936 -1.446871,18.553481 0,13.352545 0.485682,19.580601 1.446871,18.553482 0.795787,-0.850368 1.446867,-9.199435 1.446867,-18.553482 z"
       id="path1" /></g></svg>
