<?xml version="1.0" encoding="UTF-8" standalone="no"?>
<!-- Created with Inkscape (http://www.inkscape.org/) -->

<svg
   width="180"
   height="180"
   viewBox="0 0 180 180"
   version="1.1"
   id="svg1"
   xml:space="preserve"
   inkscape:version="1.4.2 (f4327f4, 2025-05-13)"
   sodipodi:docname="food_vegetable_pumpkin.svg"
   xmlns:inkscape="http://www.inkscape.org/namespaces/inkscape"
   xmlns:sodipodi="http://sodipodi.sourceforge.net/DTD/sodipodi-0.dtd"
   xmlns="http://www.w3.org/2000/svg"
   xmlns:svg="http://www.w3.org/2000/svg"><sodipodi:namedview
     id="namedview1"
     pagecolor="#505050"
     bordercolor="#ffffff"
     borderopacity="1"
     inkscape:showpageshadow="0"
     inkscape:pageopacity="0"
     inkscape:pagecheckerboard="1"
     inkscape:deskcolor="#505050"
     inkscape:document-units="px"
     inkscape:zoom="3.1"
     inkscape:cx="50.645161"
     inkscape:cy="133.22581"
     inkscape:window-width="2560"
     inkscape:window-height="1351"
     inkscape:window-x="-9"
     inkscape:window-y="-9"
     inkscape:window-maximized="1"
     inkscape:current-layer="layer1" /><defs
     id="defs1" /><g
     inkscape:label="Warstwa 1"
     inkscape:groupmode="layer"
     id="layer1"><path
       style="fill:#000000;stroke-width:0.897092"
       d="M 85.552854,174.12916 C 74.22384,170.3383 66.625161,159.88823 61.797966,141.46031 c -2.013505,-7.68658 -2.280659,-10.4801 -2.305459,-24.10743 -0.03186,-17.491895 1.521341,-26.191199 6.663621,-37.32295 7.766295,-16.812082 22.482646,-23.669796 34.874962,-16.251487 18.04577,10.802594 25.87852,51.961147 15.88958,83.494577 -3.58742,11.32487 -10.67028,21.54843 -17.334812,25.02141 -3.95706,2.06209 -10.71358,2.94545 -14.033004,1.83473 z M 78.25378,79.429759 c 2.061739,-3.902983 3.748621,-7.268999 3.748621,-7.480036 0,-1.172452 -2.184815,-9.07e-4 -5.217008,2.797207 -5.713015,5.272183 -9.201708,16.538647 -8.2564,26.66347 0.368218,3.94388 0.416096,3.86184 3.17501,-5.440024 1.540631,-5.194365 4.488039,-12.637644 6.549777,-16.540617 z M 51.852554,169.33948 C 42.379255,164.30405 34.058565,151.81664 29.597369,135.93963 26.678649,125.55217 26.254148,108.25657 28.629357,96.499447 33.703752,71.381531 49.465612,55.697285 66.374579,58.940103 c 7.050196,1.3521 7.333016,2.140731 2.693524,7.510671 -19.425271,22.483606 -20.044877,75.035706 -1.172244,99.424016 1.984872,2.56497 3.381602,4.89572 3.103851,5.17944 -0.277762,0.28372 -3.407885,0.70052 -6.955843,0.9262 -5.986764,0.38082 -6.863787,0.19084 -12.191313,-2.64095 z M 48.294753,74.059347 c 4.741602,-5.422871 4.537912,-6.558667 -0.595056,-3.318198 -5.384421,3.3992 -10.965563,13.867378 -10.965563,20.567367 0,1.536762 1.085737,0.01596 3.5011,-4.904119 1.925615,-3.92243 5.552394,-9.477704 8.059519,-12.34505 z m 62.184607,97.156063 -2.14571,-0.87613 2.71938,-2.91976 c 10.41926,-11.18699 15.93584,-31.19981 15.05064,-54.59999 -0.78152,-20.659396 -5.68127,-35.86482 -14.86419,-46.128126 -5.05135,-5.645649 -4.92659,-5.967462 3.01838,-7.78619 8.24076,-1.886446 17.37698,1.714795 24.73476,9.74975 14.62563,15.971696 18.96466,46.851676 10.19769,72.574736 -4.70316,13.79945 -14.72145,26.52852 -23.18728,29.46137 -4.77965,1.65583 -12.14341,1.90455 -15.52367,0.52434 z M 36.207522,164.9253 C 30.086559,163.6857 26.667216,161.78419 21.160366,156.55752 14.803207,150.52382 10.762036,143.91754 7.4480029,134.14134 0.73769245,114.34633 2.4204807,90.24666 11.79872,71.833461 16.446766,62.70751 22.491918,56.272577 29.931636,52.531382 c 4.684191,-2.355532 6.764827,-2.855506 12.215552,-2.935366 6.045001,-0.08858 16.777273,2.334315 16.777273,3.787582 0,0.28959 -2.051789,1.024383 -4.559536,1.632868 -16.631552,4.035538 -30.106878,25.543531 -32.287028,51.533404 -1.58887,18.94113 4.812226,42.70514 14.621504,54.28222 3.082006,3.63744 4.226769,5.31491 3.363282,4.92833 -0.122047,-0.0547 -1.856869,-0.43043 -3.855161,-0.83512 z M 24.658576,67.207282 c 2.491964,-2.646636 5.84999,-5.651189 7.462278,-6.676788 3.663711,-2.330543 3.099757,-3.092636 -1.212756,-1.638826 -5.997796,2.021958 -13.701453,11.025445 -13.701453,16.013303 0,1.265169 0.304104,1.131109 1.460542,-0.643881 0.803298,-1.232963 3.499422,-4.407182 5.991389,-7.053808 z M 140.58487,165.45677 c 0,-0.30089 2.09698,-3.37134 4.65996,-6.82323 8.22232,-11.07403 12.06922,-23.60903 12.81992,-41.77333 0.77407,-18.729785 -2.54287,-32.57201 -10.87153,-45.369108 -6.26904,-9.632444 -14.5473,-15.802883 -22.69963,-16.91982 -4.16615,-0.570795 -3.68293,-1.270209 2.26948,-3.284868 6.30056,-2.132472 16.1282,-1.927266 22.44273,0.468621 10.60631,4.024305 20.41345,17.55449 25.28431,34.882884 2.66514,9.481415 2.87057,30.841701 0.39131,40.688341 -3.98562,15.82928 -13.79497,30.32703 -23.81701,35.20038 -4.79459,2.33144 -10.47954,3.92098 -10.47954,2.93013 z M 74.066936,56.685212 70.125738,54.57976 73.822585,52.195931 c 5.009937,-3.23054 6.311843,-5.556477 8.844789,-15.801777 2.508856,-10.147841 5.97448,-18.40463 9.520228,-22.681731 2.687355,-3.241648 10.634148,-8.3110806 13.050028,-8.3248893 1.95715,-0.011152 6.94361,6.2177403 6.94361,8.6737483 0,1.370724 -1.03484,2.399069 -3.60609,3.583436 -13.125322,6.045772 -14.265629,27.725341 -1.84247,35.02873 l 3.44356,2.024405 -3.81043,2.072007 c -3.60173,1.958508 -4.0148,1.998347 -7.541419,0.727367 -4.68002,-1.686653 -12.62153,-1.667558 -17.265796,0.04153 -1.952749,0.7186 -3.550453,1.294264 -3.550453,1.27924 0,-0.01505 -1.77354,-0.97478 -3.941206,-2.13278 z M 61.148162,49.304304 c -1.950174,-1.179207 -5.513346,-2.626163 -7.918148,-3.215453 l -4.372364,-1.071432 3.263655,-1.710307 c 4.968228,-2.603578 11.563966,-3.611578 16.39528,-2.505613 3.756121,0.859842 7.272525,2.987199 7.272525,4.399748 0,0.716061 -9.360191,6.445061 -10.346259,6.332533 -0.411897,-0.04706 -2.344505,-1.050269 -4.294689,-2.229476 z m 48.400758,-0.631741 c -2.62505,-1.620674 -4.80423,-3.354682 -4.8426,-3.853351 -0.0383,-0.498669 1.51596,-1.697179 3.45411,-2.663346 5.00494,-2.494986 12.87561,-2.315003 19.06114,0.435891 l 4.83277,2.149291 -4.83277,1.47761 c -2.65803,0.812695 -6.51442,2.360282 -8.56977,3.439103 -2.05535,1.078811 -3.87043,1.961482 -4.03353,1.961482 -0.16308,0 -2.4443,-1.326006 -5.06935,-2.94668 z"
       id="path1" /></g></svg>
