<?xml version="1.0" encoding="UTF-8" standalone="no"?>
<!-- Created with Inkscape (http://www.inkscape.org/) -->

<svg
   width="180"
   height="180"
   viewBox="0 0 180 180"
   version="1.1"
   id="svg1"
   xml:space="preserve"
   inkscape:version="1.4.2 (f4327f4, 2025-05-13)"
   sodipodi:docname="food_vegetable_peanut.svg"
   xmlns:inkscape="http://www.inkscape.org/namespaces/inkscape"
   xmlns:sodipodi="http://sodipodi.sourceforge.net/DTD/sodipodi-0.dtd"
   xmlns="http://www.w3.org/2000/svg"
   xmlns:svg="http://www.w3.org/2000/svg"><sodipodi:namedview
     id="namedview1"
     pagecolor="#505050"
     bordercolor="#ffffff"
     borderopacity="1"
     inkscape:showpageshadow="0"
     inkscape:pageopacity="0"
     inkscape:pagecheckerboard="1"
     inkscape:deskcolor="#505050"
     inkscape:document-units="px"
     inkscape:zoom="3.1"
     inkscape:cx="50.645161"
     inkscape:cy="133.22581"
     inkscape:window-width="2560"
     inkscape:window-height="1351"
     inkscape:window-x="-9"
     inkscape:window-y="-9"
     inkscape:window-maximized="1"
     inkscape:current-layer="layer1" /><defs
     id="defs1" /><g
     inkscape:label="Warstwa 1"
     inkscape:groupmode="layer"
     id="layer1"><path
       style="fill:#000000"
       d="m 40.487214,171.05793 c -10.45543,-3.30346 -21.03178,-11.79732 -24.87629,-19.97812 -8.88795,-18.91284 -4.4135,-42.74715 11.18858,-59.59884 5.54141,-5.985236 7.9941,-7.682818 19.53946,-13.523834 19.472314,-9.851413 20.334994,-10.708207 29.311954,-29.112154 6.47442,-13.273388 8.47152,-16.421574 13.74603,-21.668961 10.37408,-10.320714 21.213892,-14.590051 37.144642,-14.629687 6.73153,-0.01675 8.63424,-0.410541 12,-2.483571 7.02543,-4.3270805 11.99349,-3.0538605 19.38866,4.968945 10.03177,10.883189 13.48647,27.89838 9.126,44.947662 -4.30881,16.847277 -13.6051,27.493483 -32.61351,37.34931 -17.22733,8.93235 -21.43472,13.587 -27.92602,30.89468 -5.04376,13.44809 -8.722712,19.5566 -16.475132,27.35521 -8.22478,8.27379 -15.86023,12.85128 -25.64434,15.37391 -7.22815,1.86363 -18.192374,1.91199 -23.910034,0.10545 z m 23.883954,-12.8146 c 6.04345,-2.76679 12.67042,-7.38267 12.67042,-8.82534 0,-1.52022 -1.74189,-0.9816 -7.1634,2.21503 -5.8292,3.43702 -12.77671,6.34093 -20.336604,8.50024 l -5,1.42814 7.09412,-0.36769 c 4.89295,-0.2536 8.844524,-1.16905 12.735464,-2.95038 z M 42.322174,150.26576 C 57.033468,143.53071 68.962398,132.05343 83.094988,111.03668 94.222698,94.48853 103.69565,84.568156 117.43465,75.075112 139.23593,60.011399 151.26488,43.328527 150.94114,28.605175 l -0.10045,-4.568499 -0.9251,3.948191 c -3.37902,14.42118 -14.13651,27.664659 -35.374,43.548712 C 99.095068,83.086422 90.544898,91.87223 81.214138,105.7795 c -15.01354,22.37732 -24.56167,32.30189 -39.921234,41.49516 -4.81323,2.8809 -9.42632,5.6536 -10.25132,6.16156 -2.94197,1.81141 5.7106,-0.62044 11.28059,-3.17046 z m -10.54654,-17.22908 c 2.45123,-5.05688 8.26156,-13.41219 9.36648,-13.46908 0.33029,-0.017 1.97518,2.18044 3.65532,4.88322 1.68015,2.70279 3.99741,5.41862 5.14948,6.03519 2.725,1.45838 2.64201,0.83487 -0.5261,-3.95247 -1.44143,-2.17814 -2.84324,-5.93397 -3.11514,-8.34628 -0.48997,-4.34693 -0.43936,-4.4318 5.67639,-9.52139 7.234634,-6.02072 11.638654,-8.4939 13.338894,-7.49076 0.67135,0.39609 3.13313,2.26869 5.47063,4.16133 5.15804,4.17639 5.49173,3.31708 0.75,-1.93144 -1.925,-2.13075 -3.5,-4.29989 -3.5,-4.82031 0,-0.52043 1.6875,-2.1763 3.75,-3.67972 8.82978,-6.436279 18.47814,-17.1119 25.36633,-28.06707 8.359812,-13.295689 14.260882,-20.301224 17.100632,-20.301224 2.66246,0 8.20906,3.454846 10.76665,6.706285 1.62711,2.068538 2.01639,2.222331 2.01639,0.796608 0,-2.745028 -3.74558,-8.145407 -7.14019,-10.294722 l -3.07164,-1.944819 3.35592,-2.540331 c 1.84575,-1.397182 7.32787,-4.969605 12.18248,-7.938719 5.61979,-3.437105 9.59726,-6.649245 10.94789,-8.841345 2.10331,-3.413719 2.10376,-3.427771 0.0525,-1.654744 -1.13787,0.983518 -5.82144,3.370855 -10.40794,5.305193 -11.61717,4.899505 -18.44062,9.292936 -25.38768,16.346445 -3.28279,3.333082 -6.4611,6.060149 -7.06291,6.060149 -0.601822,0 -2.389662,-1.352154 -3.972982,-3.004787 l -2.87877,-3.004786 2.03459,-2.745214 c 1.11902,-1.509867 3.87989,-4.161672 6.135272,-5.892901 3.40397,-2.612888 4.74741,-3.064276 7.90709,-2.656747 3.09722,0.399471 3.57351,0.249988 2.5564,-0.802313 -0.6875,-0.711288 -1.25,-1.641696 -1.25,-2.067572 0,-1.185782 5.83213,-3.99229 12.5,-6.015189 l 6,-1.820279 -7.71984,0.352772 c -6.17441,0.282151 -8.99551,0.980779 -14.09208,3.489809 -12.416282,6.112514 -18.351262,13.161766 -25.819692,30.667207 -3.62261,8.491155 -5.25479,10.98526 -10.81736,16.529895 -5.30014,5.283042 -8.7774,7.62043 -18.210744,12.241133 -17.28862,8.468426 -26.06695,17.355036 -30.83591,31.216246 -1.10241,3.20421 -1.96414,7.89288 -1.91496,10.41928 l 0.0894,4.59345 1.28999,-4.5 c 2.0863,-7.27784 3.46095,-10.16144 4.5293,-9.50116 0.55103,0.34055 1.00187,1.26763 1.00187,2.06017 0,0.79254 0.41859,1.44099 0.9302,1.44099 0.55017,0 0.59164,-1.18047 0.1015,-2.8895 -0.66163,-2.30697 -0.26461,-3.86938 1.96934,-7.75 3.09708,-5.37999 8.37692,-10.87 9.6677,-10.05254 0.4572,0.28954 1.67592,2.11325 2.70828,4.05268 l 1.87702,3.52626 -4.62321,5.28501 c -7.71568,8.82018 -14.72872,24.34911 -14.56879,32.25959 0.0606,2.99656 0.11111,2.963 2.15519,-1.4315 1.15124,-2.475 3.18381,-6.75 4.51682,-9.5 z m 15.48401,-31.73727 c -0.60631,-0.73055 -1.56047,-2.53316 -2.12037,-4.00579 -0.89564,-2.35573 -0.68695,-2.91323 1.73653,-4.63889 1.51498,-1.07877 5.24848,-3.06434 8.29667,-4.412395 4.875084,-2.155992 5.832664,-2.29005 7.955644,-1.113768 3.41391,1.891554 4.15034,1.719218 2.87071,-0.671798 -0.99102,-1.851726 -0.29386,-2.875601 6.35467,-9.332792 6.40409,-6.219785 8.19343,-8.772321 12.56207,-17.920093 3.26473,-6.836232 5.65582,-10.667208 6.65789,-10.667208 0.86,0 2.66417,1.187497 4.00926,2.638881 l 2.44564,2.638882 -4.16194,7.611118 c -8.82623,16.14089 -13.26123,20.762361 -31.19078,32.502133 -13.785194,9.02616 -13.969704,9.1144 -15.415994,7.37172 z m 39.734904,38.30334 c 2.5849,-3.63016 5.29002,-11.06607 4.02574,-11.06607 -0.51293,0 -1.7142,1.2375 -2.66951,2.75 -0.9553,1.5125 -3.26988,4.6625 -5.14351,7 l -3.4066,4.25 h 2.55237 c 1.68181,0 3.26492,-1.0007 4.64151,-2.93393 z m 14.168062,-28.31607 c 5.51387,-10.77373 10.92237,-15.83681 24.69912,-23.121697 11.99077,-6.34049 18.37802,-11.177029 20.70609,-15.679016 2.62492,-5.076037 1.5703,-5.407204 -2.79665,-0.878192 -4.65242,4.825085 -10.6836,9.0567 -23.60674,16.563057 -12.44128,7.226458 -24.122842,21.775358 -24.122842,30.043978 0,2.52411 0.92149,1.27745 5.121022,-6.92813 z m 55.76337,-54.848196 c 1.22777,-3.521996 2.67121,-15.901808 1.85409,-15.901808 -0.29574,0 -1.28904,3.4875 -2.20732,7.75 -0.91829,4.2625 -1.89378,8.5375 -2.16777,9.5 -0.87835,3.085558 1.40016,1.867049 2.521,-1.348192 z"
       id="path1" /></g></svg>
