<?xml version="1.0" encoding="UTF-8" standalone="no"?>
<!-- Created with Inkscape (http://www.inkscape.org/) -->

<svg
   width="180"
   height="180"
   viewBox="0 0 180 180"
   version="1.1"
   id="svg1"
   xml:space="preserve"
   inkscape:version="1.4.2 (f4327f4, 2025-05-13)"
   sodipodi:docname="food_fruit_tree_peach.svg"
   xmlns:inkscape="http://www.inkscape.org/namespaces/inkscape"
   xmlns:sodipodi="http://sodipodi.sourceforge.net/DTD/sodipodi-0.dtd"
   xmlns="http://www.w3.org/2000/svg"
   xmlns:svg="http://www.w3.org/2000/svg"><sodipodi:namedview
     id="namedview1"
     pagecolor="#505050"
     bordercolor="#ffffff"
     borderopacity="1"
     inkscape:showpageshadow="0"
     inkscape:pageopacity="0"
     inkscape:pagecheckerboard="1"
     inkscape:deskcolor="#505050"
     inkscape:document-units="px"
     inkscape:zoom="3.1"
     inkscape:cx="-88.709677"
     inkscape:cy="103.87097"
     inkscape:window-width="2560"
     inkscape:window-height="1351"
     inkscape:window-x="-9"
     inkscape:window-y="-9"
     inkscape:window-maximized="1"
     inkscape:current-layer="layer1" /><defs
     id="defs1" /><g
     inkscape:label="Warstwa 1"
     inkscape:groupmode="layer"
     id="layer1"><path
       style="fill:#000000;stroke-width:1.17893"
       d="M 71.212529,171.43449 C 62.156616,168.12419 51.24636,163.40445 46.967515,160.94619 13.527931,141.73456 1.1241347,101.42271 18.840875,69.535665 27.341649,54.235731 41.247692,44.574695 57.991468,42.336296 c 6.638333,-0.887449 20.396797,0.188899 23.175372,1.813045 0.51682,0.302097 -2.517723,3.819206 -6.743423,7.815799 -22.885644,21.644834 -27.380548,55.58061 -11.434215,86.3263 6.191728,11.93809 9.305285,14.56048 4.532981,3.81792 -4.698271,-10.57596 -7.119996,-22.83988 -7.119996,-36.05654 0,-26.560962 13.262725,-49.867457 33.825749,-59.441746 7.495944,-3.49016 8.702524,-3.699672 21.306174,-3.699672 11.95785,0 14.08785,0.322541 20.29197,3.072751 13.50032,5.984526 23.8468,17.674248 29.30602,33.11068 9.15879,25.897277 2.83514,50.745337 -17.93512,70.474037 -7.73333,7.34554 -12.00382,10.3405 -20.121,14.11119 -11.56511,5.37233 -31.757241,12.80669 -36.367526,13.38982 -1.666845,0.21084 -10.440012,-2.32509 -19.495925,-5.63539 z M 85.902038,39.185195 C 86.088384,30.405111 91.453522,16.647954 98.050121,8.0353343 102.09152,2.7588518 104.46409,2.2534177 108.47257,5.8150186 l 2.76723,2.4587299 -5.93721,6.1440365 c -5.920225,6.126458 -10.957383,16.06396 -10.957383,21.617136 0,2.804121 -3.005421,5.156693 -6.587687,5.156693 -1.043941,0 -1.878903,-0.902889 -1.855482,-2.006419 z M 58.18778,33.831979 C 55.303024,32.939567 50.85747,30.842661 48.308798,29.172188 41.390192,24.637546 28.053192,8.9943084 29.377649,6.9674746 30.527299,5.2081629 45.007996,2.8031351 53.734807,2.9221158 67.371149,3.1080328 76.639885,8.351813 81.777961,18.787522 c 4.563165,9.268044 3.912877,10.497632 -3.049793,5.766656 -3.255475,-2.212015 -9.392494,-5.502856 -13.63782,-7.31298 -8.065759,-3.439072 -19.665337,-6.298549 -18.535289,-4.569239 0.360499,0.551679 1.386075,1.003054 2.279056,1.003054 5.945144,0 35.47991,17.815426 33.202964,20.028086 -1.696969,1.649051 -18.639312,1.740606 -23.849299,0.12888 z"
       id="path1" /></g></svg>
