<?xml version="1.0" encoding="UTF-8" standalone="no"?>
<!-- Created with Inkscape (http://www.inkscape.org/) -->

<svg
   width="180"
   height="180"
   viewBox="0 0 180 180"
   version="1.1"
   id="svg1"
   xml:space="preserve"
   inkscape:version="1.4.2 (f4327f4, 2025-05-13)"
   sodipodi:docname="food_fruit_tree_mango.svg"
   xmlns:inkscape="http://www.inkscape.org/namespaces/inkscape"
   xmlns:sodipodi="http://sodipodi.sourceforge.net/DTD/sodipodi-0.dtd"
   xmlns="http://www.w3.org/2000/svg"
   xmlns:svg="http://www.w3.org/2000/svg"><sodipodi:namedview
     id="namedview1"
     pagecolor="#505050"
     bordercolor="#ffffff"
     borderopacity="1"
     inkscape:showpageshadow="0"
     inkscape:pageopacity="0"
     inkscape:pagecheckerboard="1"
     inkscape:deskcolor="#505050"
     inkscape:document-units="px"
     inkscape:zoom="3.1"
     inkscape:cx="-14.83871"
     inkscape:cy="103.87097"
     inkscape:window-width="2560"
     inkscape:window-height="1351"
     inkscape:window-x="-9"
     inkscape:window-y="-9"
     inkscape:window-maximized="1"
     inkscape:current-layer="layer1" /><defs
     id="defs1" /><g
     inkscape:label="Warstwa 1"
     inkscape:groupmode="layer"
     id="layer1"><path
       style="fill:#000000;stroke-width:1.24743"
       d="M 40.328631,175.78555 C 19.554029,172.99927 5.4035103,160.46096 8.7321012,147.78891 c 1.4241248,-5.42169 3.4321278,-8.58453 10.3207298,-16.25637 7.988528,-8.89685 11.808818,-16.78823 16.575113,-34.238394 2.260426,-8.275767 6.048903,-18.477575 8.418819,-22.670683 6.081466,-10.759966 18.959438,-22.284106 30.521704,-27.313028 20.534619,-8.931387 37.197253,-8.619715 62.161263,1.162714 0.77765,0.304736 3.32655,-1.761404 5.66422,-4.591419 3.24872,-3.932959 3.86132,-5.419093 2.59961,-6.306576 -0.90788,-0.638601 -9.47708,-1.408182 -19.0427,-1.710181 C 110.34087,35.372146 106.70828,34.820964 90.497907,30.48561 80.564391,27.828958 68.255754,25.316382 63.145363,24.902107 l -9.29159,-0.753228 5.278048,-3.979127 C 66.330778,14.742467 79.635965,8.410071 89.595917,5.6708525 99.966161,2.8187934 118.0549,3.1948709 125.28194,6.4127896 c 10.3785,4.6211414 21.14607,16.7278694 19.56185,21.9947624 -0.72597,2.413533 2.35843,6.585693 4.86869,6.585693 0.69984,0 3.46618,-1.483258 6.14742,-3.296128 7.23225,-4.889931 8.89249,-5.106655 12.83859,-1.675914 1.91627,1.666002 3.27725,3.597109 3.02438,4.291349 -0.25286,0.694239 -3.43062,2.671345 -7.06171,4.393569 -3.63108,1.722224 -9.54169,5.736425 -13.13468,8.920447 l -6.53273,5.789133 4.82411,5.118302 c 8.54122,9.062133 12.07129,17.412851 12.66614,29.962947 0.64313,13.56881 -1.73175,22.39505 -9.54536,35.47528 -10.19992,17.07495 -33.32627,34.4278 -58.060192,43.56541 -17.592252,6.49922 -41.093721,10.05264 -54.549817,8.24791 z m 22.84571,-89.630631 c 6.26047,-10.357759 17.665298,-19.787533 27.99641,-23.14808 4.100034,-1.333676 8.241769,-2.424866 9.203859,-2.424866 0.96207,0 2.82866,-1.036995 4.14797,-2.304432 6.47638,-6.221683 -8.368402,-7.825264 -21.455438,-2.317687 -12.473326,5.249302 -23.105842,16.045079 -28.12404,28.555874 -1.30277,3.247943 -1.982209,6.780932 -1.509868,7.851087 1.697166,3.845148 4.894956,1.805913 9.741107,-6.211896 z M 139.92429,27.36449 c -5.02418,-4.649549 -20.89064,-10.854973 -30.69652,-12.005509 -8.29967,-0.97381 -19.842685,-0.184717 -28.753979,1.965651 -2.792047,0.673746 0.447136,0.988884 10.70278,1.041264 15.999199,0.08171 25.237039,1.99764 41.110449,8.526298 10.26772,4.22306 11.79212,4.317332 7.63727,0.472296 z"
       id="path1" /></g></svg>
