<?xml version="1.0" encoding="UTF-8" standalone="no"?>
<!-- Created with Inkscape (http://www.inkscape.org/) -->

<svg
   width="180"
   height="180"
   viewBox="0 0 180 180"
   version="1.1"
   id="svg1"
   xml:space="preserve"
   inkscape:version="1.4.2 (f4327f4, 2025-05-13)"
   sodipodi:docname="food_fruit_tree_lychee.svg"
   xmlns:inkscape="http://www.inkscape.org/namespaces/inkscape"
   xmlns:sodipodi="http://sodipodi.sourceforge.net/DTD/sodipodi-0.dtd"
   xmlns="http://www.w3.org/2000/svg"
   xmlns:svg="http://www.w3.org/2000/svg"><sodipodi:namedview
     id="namedview1"
     pagecolor="#505050"
     bordercolor="#ffffff"
     borderopacity="1"
     inkscape:showpageshadow="0"
     inkscape:pageopacity="0"
     inkscape:pagecheckerboard="1"
     inkscape:deskcolor="#505050"
     inkscape:document-units="px"
     inkscape:zoom="3.1"
     inkscape:cx="-88.709677"
     inkscape:cy="103.87097"
     inkscape:window-width="2560"
     inkscape:window-height="1351"
     inkscape:window-x="-9"
     inkscape:window-y="-9"
     inkscape:window-maximized="1"
     inkscape:current-layer="layer1" /><defs
     id="defs1" /><g
     inkscape:label="Warstwa 1"
     inkscape:groupmode="layer"
     id="layer1"><path
       style="fill:#000000;stroke-width:1.29835"
       d="m 85.677328,177.55652 c -2.192026,-0.99088 -6.760029,-1.8016 -10.151132,-1.8016 -4.72145,0 -6.980455,-0.70942 -9.644228,-3.02871 -1.91322,-1.6658 -4.651198,-3.02872 -6.084401,-3.02872 -4.443698,0 -7.033529,-1.37527 -9.080716,-4.82211 -1.083536,-1.82435 -3.796802,-3.9758 -6.029481,-4.781 -3.928682,-1.41687 -7.20328,-5.61367 -7.20328,-9.2319 0,-0.96812 -0.654599,-1.76023 -1.454673,-1.76023 -0.800074,0 -2.99158,-1.33814 -4.870014,-2.97365 -2.483846,-2.16261 -3.415342,-4.29084 -3.415342,-7.80315 0,-2.65623 -0.690038,-5.20082 -1.5334,-5.65464 -3.135538,-1.68725 -5.372126,-8.57674 -4.068827,-12.53339 0.899186,-2.72979 0.670393,-5.02793 -0.807058,-8.10668 -2.156527,-4.49379 -1.662609,-7.55199 2.009492,-12.442178 1.287605,-1.714724 2.011539,-4.920446 1.797035,-7.957541 -0.299158,-4.235691 0.322201,-5.679793 3.716574,-8.637585 2.24168,-1.953361 4.505555,-5.120631 5.030821,-7.038375 0.525279,-1.917757 2.777327,-4.91618 5.004565,-6.663173 5.227544,-4.100355 7.894433,-6.409541 11.904305,-10.307591 1.966624,-1.911776 4.72564,-3.16638 6.963215,-3.16638 2.162834,0 5.758366,-1.568962 8.63486,-3.767926 4.13588,-3.16173 5.759892,-3.670876 10.094301,-3.164695 8.0846,0.944135 8.967866,-0.147468 6.383156,-7.888712 L 80.655045,34.353453 73.161442,33.680067 C 56.384226,32.17244 43.443555,21.205299 39.601767,5.2384238 c -0.943182,-3.919986 -0.923006,-3.937326 4.582363,-3.937326 7.815747,0 22.475913,4.1996705 28.899949,8.2789145 4.061829,2.5792467 7.024133,6.2800797 11.647098,14.5508327 3.409895,6.100505 6.598053,11.091829 7.084766,11.091829 0.486725,0 1.604633,-2.091391 2.484215,-4.647534 3.720984,-10.813338 14.988592,-20.474711 27.233982,-23.3516851 6.53009,-1.5342026 28.13438,-0.9420906 31.82786,0.8723091 2.31355,1.1365182 2.22064,1.6327266 -1.41494,7.556855 -5.31867,8.666744 -14.8469,16.85736 -24.01984,20.647873 -6.53404,2.700041 -9.58544,3.17049 -20.87148,3.217859 l -13.218629,0.05547 0.482924,3.578975 c 0.71502,5.298917 2.675726,6.769735 7.889325,5.918148 4.93043,-0.805332 12.77967,1.972038 14.11113,4.993078 0.43369,0.98403 2.5801,1.753891 4.88991,1.753891 5.72619,0 8.82456,1.713548 10.8691,6.011125 0.96309,2.024414 2.66249,3.680754 3.77644,3.680754 2.98196,0 10.15991,6.700456 10.15991,9.48406 0,1.320846 2.25569,4.752268 5.01266,7.625389 4.39593,4.581133 4.92162,5.814825 4.2727,10.027206 -0.55604,3.609474 -0.0728,5.541913 1.9445,7.774753 2.85807,3.16355 3.70381,11.64499 1.2907,12.94351 -0.8403,0.45216 -1.03668,3.39538 -0.49454,7.41163 0.76483,5.66595 0.45324,7.18688 -2.08481,10.17581 -1.64123,1.93279 -2.98405,4.92624 -2.98405,6.6521 0,4.34096 -3.58233,9.95965 -6.94192,10.88804 -1.58028,0.43671 -2.79811,1.83281 -2.79811,3.20776 0,2.74487 -7.13268,9.51705 -10.02366,9.51705 -1.03902,0 -2.58052,1.59484 -3.42556,3.54408 -1.18215,2.72682 -2.93699,3.89174 -7.61008,5.05176 -3.3405,0.82922 -7.42191,2.5509 -9.06978,3.82594 -2.11693,1.63795 -4.62822,2.21565 -8.55781,1.96861 -3.05891,-0.1923 -6.406736,0.24065 -7.439598,0.96212 -3.512781,2.45366 -7.435144,2.79237 -11.429164,0.98691 z m -4.104926,-15.33911 c 3.21663,-2.63107 4.403443,-7.05773 1.892209,-7.05773 -0.730502,0 -2.893539,1.36292 -4.806759,3.02871 -4.468085,3.89023 -5.821837,3.8126 -10.562239,-0.60574 -4.570676,-4.26014 -5.565731,-4.48455 -5.565731,-1.25516 0,2.71762 8.926263,8.52406 13.104067,8.52406 1.494927,0 4.167229,-1.18536 5.938453,-2.63414 z m 33.088038,-2.22105 c 3.05048,-2.65258 3.71905,-3.94237 2.56455,-4.94756 -1.15449,-1.00518 -2.15635,-0.5693 -3.84307,1.67204 -3.28357,4.36328 -7.08549,4.80295 -11.7816,1.36248 -2.194841,-1.60801 -4.36985,-2.92364 -4.833351,-2.92364 -1.999585,0 -0.586918,4.32108 2.281896,6.97988 4.001675,3.70872 9.796725,2.91316 15.611575,-2.1432 z M 64.028343,146.77247 c 3.927152,-3.41927 5.314897,-7.75922 2.897102,-9.06026 -0.643579,-0.34631 -2.540756,0.98443 -4.215943,2.95722 -1.922223,2.2637 -4.293418,3.58688 -6.427867,3.58688 -3.362912,0 -4.614171,-0.82203 -8.295484,-5.44978 -2.755565,-3.46398 -4.244537,-1.3686 -2.152407,3.02903 2.081666,4.37566 7.610162,8.47818 11.425081,8.47818 1.486248,0 4.532527,-1.59357 6.769518,-3.54127 z m 34.785813,0 c 3.927154,-3.41927 5.314904,-7.75922 2.897104,-9.06026 -0.64358,-0.34631 -2.54076,0.98443 -4.215937,2.95722 -4.122458,4.85481 -9.830891,4.86252 -14.511229,0.0196 -1.896133,-1.962 -3.830238,-3.23406 -4.297996,-2.8268 -1.901852,1.6559 -0.625699,5.13584 3.186381,8.68892 5.378862,5.01344 11.348207,5.09141 16.941677,0.22131 z m 29.190144,2.29387 c 2.92843,-1.36458 6.88008,-7.22392 6.88008,-10.20155 0,-2.93887 -1.8663,-2.19998 -4.45743,1.76472 -3.31072,5.06574 -9.85922,5.10147 -13.37146,0.0729 -1.59333,-2.28119 -3.10017,-3.22134 -4.20778,-2.62533 -2.46768,1.32787 0.0365,6.44172 4.72751,9.65453 4.20423,2.87936 6.4871,3.17151 10.42908,1.33467 z M 44.455864,130.12401 c 3.609598,-1.85649 6.942553,-6.14977 6.942553,-8.94291 0,-2.02439 -2.54994,-1.24715 -6.127425,1.86767 -2.896976,2.52233 -4.058071,2.82784 -7.020403,1.84721 -4.215693,-1.39552 -4.751075,0.36661 -1.383321,4.55295 2.593908,3.22439 2.626344,3.22727 7.588596,0.67508 z m 35.746214,-0.70839 c 4.81579,-4.60352 6.567678,-8.32519 4.454213,-9.46247 -1.21571,-0.65418 -2.595079,0.13966 -4.176289,2.40349 -4.030785,5.77091 -12.265701,5.51566 -15.401907,-0.4774 -2.721878,-5.2013 -6.364802,-3.16615 -4.005169,2.23753 3.473155,7.95368 13.45841,10.71963 19.129152,5.29885 z m 35.339712,-1.03674 c 3.85151,-3.58985 5.53452,-9.56375 2.69435,-9.56375 -0.73836,0 -2.08438,1.22663 -2.99116,2.72584 -3.58427,5.92602 -11.10815,6.39899 -14.92242,0.93808 -1.870286,-2.67771 -2.922,-3.25321 -4.08873,-2.23738 -1.137083,0.99003 -1.15656,2.06896 -0.0705,3.90787 5.1859,8.78119 12.72868,10.42741 19.37853,4.22934 z m 28.35118,0.18829 c 2.54847,-4.29086 2.73657,-5.92502 0.45315,-3.93691 -2.8047,2.44199 -7.84307,1.67049 -10.2854,-1.57493 -2.94021,-3.90699 -6.67931,-4.11583 -5.42272,-0.30287 1.08765,3.30038 8.28753,9.389 11.10261,9.389 1.11621,0 2.98476,-1.60842 4.15236,-3.57429 z M 62.926329,110.6067 c 3.818091,-3.46983 5.532642,-8.76518 3.082134,-9.5191 -0.765288,-0.23545 -2.458063,1.20367 -3.761724,3.19804 -3.347885,5.12167 -10.000551,5.12134 -13.348045,-6.7e-4 -1.303662,-1.99473 -2.802943,-3.63024 -3.331743,-3.63446 -2.068616,-0.0165 -2.56782,2.4969 -1.016164,5.11612 5.127651,8.65554 12.143659,10.50353 18.375542,4.84007 z m 35.091736,0.43811 c 3.496825,-3.04458 5.881705,-8.70765 4.261235,-10.11855 -0.515,-0.4484 -2.514012,0.93992 -4.442263,3.08513 -4.697207,5.22573 -10.356872,5.32842 -14.655679,0.26592 -1.697409,-1.99895 -3.594585,-3.63445 -4.215958,-3.63445 -2.660099,0 -0.804609,6.10425 2.907079,9.56375 5.08719,4.74157 11.292453,5.06372 16.145586,0.8382 z m 33.394395,0 c 3.49682,-3.04458 5.88171,-8.70765 4.26123,-10.11855 -0.515,-0.4484 -2.51401,0.93992 -4.44226,3.08513 -2.1794,2.42462 -4.74576,3.90038 -6.78279,3.90038 -2.03704,0 -4.60338,-1.47576 -6.7828,-3.90038 -3.90244,-4.341537 -5.85943,-3.93796 -4.45918,0.91958 1.28983,4.47449 6.96632,9.03822 11.24198,9.03822 1.9828,0 5.11651,-1.31597 6.96382,-2.92438 z m -95.56564,-5.95928 c 0.651121,-2.92309 -2.071608,-2.48866 -2.960969,0.47244 -0.476149,1.58533 -0.155479,2.32025 0.881292,2.01972 0.896388,-0.25985 1.832252,-1.38131 2.079677,-2.49216 z m 111.56046,1.00901 c 0,-0.99947 -0.6065,-1.81723 -1.34777,-1.81723 -0.74128,0 -0.98734,0.81776 -0.54685,1.81723 0.4405,0.99948 1.047,1.81723 1.34777,1.81723 0.30076,0 0.54685,-0.81775 0.54685,-1.81723 z M 45.806806,92.465334 c 4.237524,-3.367504 6.145122,-8.731983 3.408801,-9.586104 -0.817912,-0.255296 -2.316513,0.885159 -3.330227,2.534341 -1.013715,1.649182 -3.631778,3.541401 -5.817914,4.204943 -3.744666,1.136567 -5.12203,3.564225 -3.047182,5.370743 1.812634,1.578213 4.650265,0.763114 8.786522,-2.523923 z m 33.789303,0.915907 c 4.170777,-2.856451 7.191289,-9.231612 4.946251,-10.43968 -0.811623,-0.436741 -3.011116,0.914126 -4.887769,3.001926 -2.153061,2.395323 -4.658433,3.796006 -6.789816,3.796006 -3.376269,0 -8.943461,-3.770674 -8.943461,-6.057424 0,-0.666317 -1.007091,-1.211485 -2.237994,-1.211485 -3.226857,0 -1.327134,5.765432 3.293271,9.99475 4.352415,3.983992 9.654692,4.316181 14.619518,0.915907 z m 35.119161,-0.508703 c 3.49682,-3.044582 5.88171,-8.707656 4.26122,-10.118552 -0.51499,-0.448394 -2.514,0.939919 -4.44225,3.085131 -4.50113,5.007576 -8.88569,5.067884 -13.60264,0.187078 -4.342549,-4.49341 -6.838014,-3.802742 -4.785191,1.324395 1.785487,4.459464 7.381751,8.446327 11.855931,8.446327 1.8448,0 4.86562,-1.315975 6.71293,-2.924379 z m 28.93257,2.159351 c 1.34355,-1.169798 -1.64889,-5.292396 -3.84155,-5.292396 -1.06553,0 -3.51499,-1.755175 -5.44326,-3.900376 -3.90244,-4.341537 -5.85943,-3.937955 -4.45918,0.919578 1.71074,5.93464 10.41328,11.173137 13.74399,8.273194 z M 130.71009,75.205745 c 0,-0.617191 -2.53242,-1.715886 -5.6276,-2.441542 -3.7484,-0.878811 -6.14614,-2.310298 -7.1805,-4.286892 -1.71734,-3.28171 -5.28053,-4.029137 -5.28053,-1.107664 0,5.610164 10.58954,12.452619 15.6341,10.101999 1.34998,-0.629051 2.45453,-1.64871 2.45453,-2.265901 z m -69.362369,1.109902 c 2.318947,-1.08056 6.747892,-7.749809 6.747892,-10.161197 0,-1.955718 -4.072223,-0.148556 -6.73715,2.9898 -1.852666,2.181794 -4.348677,3.634455 -6.244838,3.634455 -3.129749,0 -6.498074,2.00955 -6.498074,3.876751 0,1.430619 9.475433,1.177733 12.73217,-0.339809 z m 36.80284,-2.810051 c 2.954109,-2.572076 4.730869,-5.302029 4.730869,-7.268909 0,-4.012492 -2.44789,-4.074706 -4.180811,-0.10626 -2.940655,6.734244 -13.764137,6.687044 -16.716019,-0.07291 -1.403343,-3.213714 -4.14896,-3.05128 -4.14896,0.245465 0,2.87856 4.325018,8.576011 7.541843,9.935054 5.023946,2.122522 7.904798,1.506239 12.773078,-2.732443 z M 124.7965,21.784313 c 7.07892,-3.384981 12.87075,-6.3361 12.87075,-6.558042 0,-1.039822 -11.36163,2.508036 -19.6138,6.124735 -9.68536,4.244821 -17.95489,9.624039 -17.95489,11.679408 0,0.674745 2.66112,-0.194831 5.9136,-1.932391 3.25248,-1.737561 11.70542,-5.92873 18.78434,-9.31371 z"
       id="path1" /></g></svg>
