<?xml version="1.0" encoding="UTF-8" standalone="no"?>
<!-- Created with Inkscape (http://www.inkscape.org/) -->

<svg
   width="180mm"
   height="240mm"
   viewBox="0 0 180 240"
   version="1.1"
   id="svg1"
   sodipodi:docname="other_exclamation_mark.svg"
   inkscape:version="1.4.2 (f4327f4, 2025-05-13)"
   xml:space="preserve"
   xmlns:inkscape="http://www.inkscape.org/namespaces/inkscape"
   xmlns:sodipodi="http://sodipodi.sourceforge.net/DTD/sodipodi-0.dtd"
   xmlns="http://www.w3.org/2000/svg"
   xmlns:svg="http://www.w3.org/2000/svg"><sodipodi:namedview
     id="namedview1"
     pagecolor="#505050"
     bordercolor="#ffffff"
     borderopacity="1"
     inkscape:showpageshadow="0"
     inkscape:pageopacity="0"
     inkscape:pagecheckerboard="1"
     inkscape:deskcolor="#505050"
     inkscape:document-units="mm"
     inkscape:zoom="0.70710678"
     inkscape:cx="138.59293"
     inkscape:cy="606.69762"
     inkscape:window-width="2560"
     inkscape:window-height="1351"
     inkscape:window-x="-9"
     inkscape:window-y="-9"
     inkscape:window-maximized="1"
     inkscape:current-layer="layer1"
     showguides="true" /><defs
     id="defs1"><rect
       x="101.82338"
       y="91.923882"
       width="384.66608"
       height="299.81326"
       id="rect3" /><rect
       x="2.8284271"
       y="2.1213202"
       width="662.55902"
       height="647.00269"
       id="rect2" /></defs><g
     inkscape:label="Icon"
     inkscape:groupmode="layer"
     id="layer1"><path
       style="fill:#000000;stroke-width:3.17457"
       d="m 70.249407,230.81935 c -1.19171,-3.52375 -1.008569,-37.11282 0.212579,-38.99029 0.894007,-1.37449 2.806308,-1.49967 19.60645,-1.28344 l 18.615824,0.23966 v 20.92855 20.92853 L 89.855846,232.881 71.02743,233.11965 Z m 7.183785,-60.91601 C 76.557185,169.2803 75.110088,157.19516 71.329729,118.93145 68.60436,91.346096 66.358345,67.387336 66.338583,65.689815 c -0.02919,-2.508615 0.662048,-3.883104 3.692266,-7.341694 2.213983,-2.526994 3.420528,-4.55182 2.970673,-4.985389 -0.416635,-0.401593 -2.553411,-2.374011 -4.74839,-4.383185 L 64.262263,45.326505 62.88425,27.759364 C 61.592818,11.296021 61.589971,10.088248 62.838953,8.5367096 64.085327,6.9884022 65.821888,6.8811628 89.643327,6.8811628 c 29.561913,0 28.646583,-0.2346074 28.376293,7.2761932 -0.0939,2.610604 -2.00192,23.365948 -4.23994,46.122926 l -4.06911,41.376358 -3.48382,4.58437 c -1.9161,2.52141 -3.48382,4.92285 -3.48382,5.33653 0,0.41367 1.12215,2.05374 2.49366,3.64452 l 2.49367,2.8924 -2.55849,25.19973 c -1.40717,13.85987 -2.92944,25.70226 -3.38284,26.31641 -0.98644,1.33622 -22.521367,1.57735 -24.355738,0.27264 z"
       id="path1" /></g></svg>
