<?xml version="1.0" encoding="UTF-8" standalone="no"?>
<!-- Created with Inkscape (http://www.inkscape.org/) -->

<svg
   width="180mm"
   height="180mm"
   viewBox="0 0 180 180"
   version="1.1"
   id="svg1"
   sodipodi:docname="acacia.svg"
   inkscape:version="1.4.2 (f4327f4, 2025-05-13)"
   xml:space="preserve"
   xmlns:inkscape="http://www.inkscape.org/namespaces/inkscape"
   xmlns:sodipodi="http://sodipodi.sourceforge.net/DTD/sodipodi-0.dtd"
   xmlns="http://www.w3.org/2000/svg"
   xmlns:svg="http://www.w3.org/2000/svg"><sodipodi:namedview
     id="namedview1"
     pagecolor="#505050"
     bordercolor="#ffffff"
     borderopacity="1"
     inkscape:showpageshadow="0"
     inkscape:pageopacity="0"
     inkscape:pagecheckerboard="1"
     inkscape:deskcolor="#505050"
     inkscape:document-units="mm"
     inkscape:zoom="0.70710678"
     inkscape:cx="125.86501"
     inkscape:cy="429.92092"
     inkscape:window-width="2560"
     inkscape:window-height="1351"
     inkscape:window-x="-9"
     inkscape:window-y="-9"
     inkscape:window-maximized="1"
     inkscape:current-layer="layer1"
     showguides="true" /><defs
     id="defs1"><rect
       x="101.82338"
       y="91.923881"
       width="384.66609"
       height="299.81327"
       id="rect3" /><rect
       x="2.8284271"
       y="2.1213203"
       width="662.55905"
       height="647.0027"
       id="rect2" /></defs><g
     inkscape:label="Icon"
     inkscape:groupmode="layer"
     id="layer1"><path
       style="fill:#000000;stroke-width:3.26383"
       d="m 77.52488,165.86094 c 1.970793,-2.99745 7.186583,-20.54257 7.913293,-26.61911 1.25307,-10.47795 -4.795229,-29.32049 -12.533739,-39.04698 -2.514818,-3.160805 -3.350023,-4.702117 -2.304491,-4.252676 2.871913,1.234562 3.284696,1.074238 3.057882,-1.187493 C 73.153808,89.727932 65.813299,82.969988 60.7607,82.881062 57.701021,82.827094 50.434887,78.376156 47.51296,74.76581 44.819592,71.437918 44.199844,71.130783 39.153347,70.62321 30.945683,69.797639 28.084735,68.662527 23.288115,64.328496 18.959778,60.417545 18.833275,60.371106 11.448013,59.979443 2.9954059,59.531166 -0.32461195,57.915878 -0.32461195,54.251632 c 0,-2.697395 2.63539255,-4.889281 6.76447815,-5.626097 2.2661868,-0.40438 3.0747648,-0.990912 3.0747648,-2.230453 0,-2.406931 3.001685,-4.243283 8.164409,-4.994707 4.274719,-0.622212 4.393809,-0.710898 2.664795,-1.984299 -4.089837,-3.012127 -1.559428,-6.316301 7.209407,-9.413918 4.143552,-1.463698 7.384425,-1.870243 14.563217,-1.826829 l 9.233617,0.05568 -2.196475,-2.095706 c -4.160816,-3.969868 -1.285362,-6.372056 9.431557,-7.879237 4.427567,-0.622694 6.410043,-1.327575 7.18491,-2.554639 1.667837,-2.641262 7.979456,-4.10056 17.571246,-4.062611 6.670201,0.0275 9.428288,0.412803 11.540704,1.616802 1.976216,1.126347 4.485329,1.542552 8.710352,1.444791 6.87055,-0.15881 12.78366,2.170298 14.18783,5.588732 0.83747,2.038782 1.17613,2.099624 11.68841,2.100312 10.02446,6.87e-4 11.17273,0.18081 15.51008,2.435291 5.02022,2.609259 6.7267,5.751082 4.89282,9.0083 -0.82132,1.458781 -0.46472,1.682113 3.58111,2.242828 4.60796,0.638608 8.57028,3.17135 8.57028,5.478184 0,0.714025 0.68286,1.298219 1.5175,1.298219 3.39741,0 6.57175,1.979073 7.39967,4.613426 0.63774,2.029225 1.34725,2.662471 2.98314,2.662471 2.72313,0 5.04361,1.369169 6.12735,3.615296 1.87435,3.884826 -6.09023,7.298585 -17.02818,7.298585 -3.85819,0 -4.37795,0.265027 -6.45991,3.292657 -4.63107,6.734776 -11.46239,9.850921 -24.62916,11.234732 -14.1576,1.487932 -18.90706,3.869839 -29.37522,14.731849 -3.218443,3.33951 -6.107093,7.381525 -7.448267,10.422159 -1.988983,4.50935 -2.149231,5.63992 -1.739423,12.27161 0.248228,4.01757 0.636777,7.51036 0.863405,7.76174 0.226535,0.25127 1.676112,-1.07297 3.221105,-2.94293 3.75057,-4.53959 5.14538,-3.50117 2.86789,2.13503 -1.445583,3.57734 -1.766083,6.29601 -1.901013,16.1261 -0.0893,6.50286 -0.616228,13.66511 -1.171006,15.91609 -0.626117,2.54048 -0.815805,6.42104 -0.500082,10.23175 l 0.508635,6.13907 H 86.569887 75.88044 Z m 9.513572,-65.938034 c 0.308038,-1.12549 1.947148,-4.092687 3.642193,-6.593809 5.486331,-8.095208 5.947676,-10.572676 3.728655,-20.022654 -1.452675,-6.186228 -0.637025,-12.345506 2.44475,-18.461611 1.926077,-3.822505 1.975127,-4.225442 0.764238,-6.275327 -1.722069,-2.915295 -4.792533,-2.524423 -5.10119,0.649333 -0.650475,6.688336 -1.333179,8.529842 -4.739231,12.783712 -7.231859,9.032053 -10.048393,19.74505 -7.799622,29.666743 1.894806,8.360047 5.785723,12.908637 7.060207,8.253613 z M 73.469717,79.821257 c 0,-2.508096 -3.897208,-7.534394 -9.045812,-11.666544 -2.916693,-2.340898 -7.147939,-6.045155 -9.402784,-8.231678 l -4.099664,-3.97554 -4.658815,0.955746 -4.658802,0.955747 5.665358,7.924165 c 6.218024,8.697178 8.022123,10.095151 14.82871,11.490856 2.52117,0.516957 5.834469,1.544889 7.362914,2.284284 3.565804,1.724943 4.008895,1.754023 4.008895,0.262964 z M 106.7153,77.976416 c 3.87592,-2.89529 8.16454,-4.688535 16.77055,-7.012452 2.72418,-0.735613 4.74602,-2.206082 7.7263,-5.619326 3.61864,-4.144284 3.87332,-4.693896 2.45981,-5.308271 -3.03157,-1.317572 -6.43152,-0.795252 -9.33089,1.433482 -1.88315,1.447542 -4.90087,2.557355 -8.48458,3.120305 -9.72894,1.528253 -16.432833,7.820148 -15.01387,14.091143 0.29502,1.303342 0.81081,2.369705 1.14646,2.369705 0.33565,0 2.46245,-1.383571 4.72622,-3.074586 z M 78.837482,65.229003 c 0.366484,-2.16693 -0.110944,-4.44427 -1.782778,-8.505093 -2.411746,-5.85778 -3.574171,-6.682767 -8.326107,-5.909136 l -2.448841,0.39864 0.317025,6.051275 c 0.280768,5.358251 0.575046,6.257452 2.570042,7.851738 1.239187,0.990293 3.175457,2.862324 4.302894,4.160096 2.002403,2.304977 2.082418,2.319689 3.458549,0.635686 0.774774,-0.948116 1.633934,-3.055577 1.909216,-4.683206 z m 67.581148,2.647106 c 2.04334,-1.149413 4.41108,-2.944067 5.26166,-3.988155 1.886,-2.31505 1.50111,-2.506756 -6.46611,-3.220438 l -5.73958,-0.514138 -3.00746,4.940946 c -1.9534,3.209265 -2.67184,5.105359 -2.04984,5.410019 1.80189,0.88253 8.28352,-0.536928 12.00133,-2.628234 z m -41.64351,-5.25695 c 2.51426,-1.883856 5.54413,-5.055722 6.73308,-7.048545 l 2.16168,-3.623305 h -5.7889 -5.78892 l -2.0041,4.774814 c -2.206263,5.256434 -2.778237,11.293168 -0.952163,10.049604 0.58738,-0.400015 3.125063,-2.268677 5.639323,-4.152568 z m -63.282952,3.04028 c 0,-0.46182 -0.955228,-2.098902 -2.122729,-3.637948 -1.894041,-2.496787 -2.578635,-2.786666 -6.354509,-2.690659 -2.327481,0.05913 -5.336226,0.369698 -6.686102,0.689998 l -2.454316,0.582406 2.573996,2.033007 c 3.850639,3.041381 15.04366,5.29074 15.04366,3.023196 z M 62.810517,56.49477 c 0,-2.501118 0.09235,-4.854425 0.204842,-5.229588 0.112803,-0.375163 -1.204416,-0.810824 -2.927012,-0.968156 -3.072912,-0.280495 -5.477344,0.953719 -5.477344,2.811966 0,1.158555 6.331235,7.933206 7.413955,7.933206 0.431966,0 0.785404,-2.046345 0.785404,-4.547428 z m 59.240443,2.298549 c 1.59086,-0.747471 1.90717,-2.776938 0.57514,-3.690095 -0.59745,-0.409571 -0.59218,-0.946981 0.0186,-1.761552 0.66299,-0.886103 0.42257,-1.307259 -0.98511,-1.725596 -3.31435,-0.984999 -4.61006,-0.618773 -5.19419,1.468097 -0.31504,1.125488 -1.25142,3.115733 -2.08087,4.422752 -0.82944,1.307019 -1.3319,2.571826 -1.11656,2.81066 0.46872,0.519913 6.75537,-0.57096 8.78433,-1.524266 z M 87.515787,55.025951 c 0.735356,-1.443142 1.583235,-3.796449 1.884145,-5.229588 0.530452,-2.526486 0.464878,-2.590869 -2.156979,-2.118668 -5.183654,0.933644 -8.44331,2.076491 -8.39292,2.942657 0.02789,0.47973 0.886833,2.845 1.90872,5.256194 1.771156,4.17914 1.941197,4.322997 3.63897,3.078642 0.979555,-0.717944 2.382677,-2.48613 3.118064,-3.929237 z"
       id="path1" /></g></svg>
