<?xml version="1.0" encoding="UTF-8" standalone="no"?>
<!-- Created with Inkscape (http://www.inkscape.org/) -->

<svg
   width="180mm"
   height="240mm"
   viewBox="0 0 180 240"
   version="1.1"
   id="svg1"
   sodipodi:docname="bald_cypress.svg"
   inkscape:version="1.4.2 (f4327f4, 2025-05-13)"
   xml:space="preserve"
   xmlns:inkscape="http://www.inkscape.org/namespaces/inkscape"
   xmlns:sodipodi="http://sodipodi.sourceforge.net/DTD/sodipodi-0.dtd"
   xmlns="http://www.w3.org/2000/svg"
   xmlns:svg="http://www.w3.org/2000/svg"><sodipodi:namedview
     id="namedview1"
     pagecolor="#505050"
     bordercolor="#ffffff"
     borderopacity="1"
     inkscape:showpageshadow="0"
     inkscape:pageopacity="0"
     inkscape:pagecheckerboard="1"
     inkscape:deskcolor="#505050"
     inkscape:document-units="mm"
     inkscape:zoom="0.70710678"
     inkscape:cx="125.86501"
     inkscape:cy="429.92092"
     inkscape:window-width="2560"
     inkscape:window-height="1351"
     inkscape:window-x="-9"
     inkscape:window-y="-9"
     inkscape:window-maximized="1"
     inkscape:current-layer="layer1"
     showguides="true" /><defs
     id="defs1"><rect
       x="101.82338"
       y="91.923882"
       width="384.66608"
       height="299.81326"
       id="rect3" /><rect
       x="2.8284271"
       y="2.1213202"
       width="662.55902"
       height="647.00269"
       id="rect2" /></defs><g
     inkscape:label="Icon"
     inkscape:groupmode="layer"
     id="layer1"><path
       style="fill:#000000;stroke-width:4.30895"
       d="m 69.224776,234.80055 c -1.649938,-0.2729 -2.999888,-1.0154 -2.999888,-1.64975 0,-0.63438 2.138336,-7.97802 4.751865,-16.31924 4.343364,-13.86216 8.001994,-30.79394 6.911363,-31.98522 -0.244575,-0.26704 -2.056285,4.21912 -4.026073,9.96936 -1.969789,5.75024 -5.293157,14.20819 -7.385266,18.79549 -2.092104,4.58726 -4.406862,10.48521 -5.1439,13.10654 l -1.340072,4.766 -6.701775,0.35485 c -5.117266,0.27065 -6.701772,-0.0315 -6.701772,-1.28394 0,-3.24554 5.389361,-15.96753 11.358705,-26.81305 8.591904,-15.61038 9.813357,-18.50832 13.110874,-31.10553 3.872641,-14.79438 5.733859,-28.89788 4.371854,-33.12797 -0.617723,-1.91855 -3.195555,-4.70871 -6.265945,-6.78209 -6.158221,-4.15858 -7.202939,-3.57558 -10.477597,5.84701 -2.689309,7.73827 -4.248982,8.0513 -4.702842,0.94377 l -0.366285,-5.7361 -2.968949,6.88508 c -1.632917,3.78683 -2.968945,7.67409 -2.968945,8.63839 0,0.96434 -0.711838,1.75328 -1.581863,1.75328 -1.159584,0 -1.671471,-1.82888 -1.917525,-6.85112 l -0.335651,-6.85113 -3.535956,7.74476 c -1.944774,4.2596 -3.536342,8.59368 -3.536817,9.63129 -0.0012,2.74928 -1.22457,3.6466 -2.90038,2.1275 -1.738511,-1.57593 -1.901825,-6.77122 -0.352761,-11.22149 1.1775,-3.38275 1.38246,-3.34006 -4.16651,-0.86806 -1.066129,0.47496 -1.225015,-0.21212 -0.638932,-2.7626 l 0.780071,-3.39474 -3.17911,2.20681 c -1.74851,1.21372 -4.433197,3.47781 -5.965972,5.03128 -1.532774,1.55346 -3.339347,2.82452 -4.014607,2.82452 -1.690235,0 0.145129,-6.75457 2.677673,-9.85456 2.140479,-2.62008 2.641647,-2.59779 -5.056782,-0.22471 -2.652143,0.81752 -3.9688787,-1.39176 -2.209514,-3.70723 1.139493,-1.49969 0.860038,-1.72697 -1.8463264,-1.50171 -3.3062527,0.27515 -5.8537805,-0.81718 -5.8537805,-2.51006 0,-1.10115 4.1291887,-3.0374 9.8178149,-4.60379 l 3.818041,-1.0513 -4.242047,-2.27345 c -2.333129,-1.25039 -4.0512434,-2.80962 -3.81804,-3.46494 0.2434612,-0.68419 3.907686,-1.069 8.605522,-0.90373 l 8.181515,0.28776 -3.637621,-3.13394 c -4.46479,-3.84656 -3.117306,-5.15382 3.956318,-3.83823 2.824604,0.52536 7.344654,1.31596 10.04455,1.75688 l 4.908912,0.80173 -3.010286,-2.64457 c -3.531222,-3.1022 -2.888233,-5.35296 1.220271,-4.27153 9.153477,2.40941 11.460818,3.46417 14.9978,6.8562 3.382058,3.24343 3.856289,3.42122 3.531,1.32398 -0.206685,-1.33244 -0.130327,-2.58346 0.16966,-2.78008 1.553884,-1.01838 5.257224,1.75625 7.994874,5.98995 2.369445,3.66426 8.551096,8.30029 11.06761,8.30029 0.138203,0 0.577084,-4.62959 0.975285,-10.28791 0.693433,-9.85358 0.603367,-10.46071 -2.133228,-14.37954 -4.518871,-6.471091 -6.860518,-7.084308 -13.11804,-3.435136 -4.484864,2.615396 -5.389572,2.814076 -5.694729,1.250706 -0.199552,-1.022251 0.228742,-2.637187 0.951721,-3.588692 2.028344,-2.669476 -0.06,-2.032076 -6.043268,1.844513 -2.999887,1.943639 -5.822511,3.542989 -6.272492,3.554199 -1.769058,0.045 -0.658377,-3.222979 2.533872,-7.45299 1.843614,-2.442958 2.80584,-4.441756 2.138278,-4.441756 -1.979923,0 -8.998121,4.258876 -13.549096,8.222021 -2.332417,2.031175 -4.664148,3.693035 -5.181626,3.693035 -1.521647,0 -1.079447,-4.019706 0.75729,-6.883906 2.424325,-3.780533 0.477753,-3.279405 -5.912929,1.522121 -3.05275,2.293674 -6.086259,4.170255 -6.741131,4.170255 -1.516109,0 -0.284567,-4.628061 1.981618,-7.446868 2.104416,-2.617597 0.473518,-2.7182 -4.829834,-0.297669 -4.287185,1.956556 -9.104121,2.369466 -9.104121,0.780425 0,-1.502036 3.273747,-4.358715 8.181513,-7.139242 4.086718,-2.315334 4.177287,-2.475473 1.427964,-2.524785 -2.803478,-0.05044 -5.004214,-1.905442 -3.809028,-3.210863 0.310502,-0.339099 2.643115,-0.921154 5.183548,-1.293352 l 4.618976,-0.676669 -3.710732,-3.312999 c -4.970624,-4.437838 -2.622616,-5.408843 7.114775,-2.942287 9.352427,2.369059 9.405738,2.360188 5.634274,-0.935969 -6.953621,-6.077316 1.072495,-6.322656 10.884489,-0.332795 6.167835,3.765313 6.330213,3.786028 4.773674,0.609298 -0.839815,-1.713962 -0.875591,-2.89838 -0.112722,-3.731627 1.76101,-1.923457 7.905513,2.66925 11.628454,8.691669 3.26774,5.286039 3.274307,5.289595 3.625102,1.948181 0.661484,-6.300771 4.460762,-2.826462 7.857399,7.18531 0.716121,2.110794 2.843775,4.904246 4.728119,6.207686 3.175266,2.196358 3.480357,2.220676 4.167557,0.332345 1.799737,-4.945317 0.876213,-11.730733 -2.353756,-17.293724 l -3.248581,-5.59501 h -7.11467 c -7.494681,0 -8.688231,-1.044049 -4.69021,-4.102701 2.305423,-1.763769 2.091182,-1.854826 -4.363471,-1.854826 -7.336001,0 -8.52233,-1.279168 -3.788051,-4.084508 l 2.999892,-1.777594 -4.162474,-0.04773 c -2.28936,-0.02702 -4.98926,0.426013 -5.999774,1.00541 -1.010519,0.579217 -3.923594,1.430613 -6.473496,1.891979 -5.57859,1.009372 -6.23932,-0.86806 -1.370483,-3.894153 1.796138,-1.116327 3.268813,-2.491505 3.272605,-3.05595 0.0061,-0.929935 -1.968898,-0.704589 -11.174506,1.274798 -4.201712,0.903501 -3.793031,-1.361216 0.870222,-4.82233 3.080619,-2.286425 3.507486,-3.024382 2.092517,-3.617424 -0.977676,-0.409802 -2.690252,-0.745074 -3.80573,-0.745074 -1.115477,0 -2.337883,-0.547422 -2.716458,-1.216481 -0.997803,-1.763408 6.275251,-4.741046 11.580322,-4.741046 h 4.545625 l -2.874285,-2.469483 c -7.852446,-6.746508 2.587752,-6.271183 11.743369,0.534678 l 3.163533,2.351632 -0.557809,-3.187176 c -0.765569,-4.374251 1.494315,-4.12693 5.103903,0.558545 2.16539,2.810836 3.196974,3.405588 4.133184,2.383021 0.686177,-0.749488 3.173085,-1.362704 5.526466,-1.362704 5.596994,0 4.084422,-2.218288 -3.559819,-5.220694 -5.887144,-2.312272 -6.658575,-3.467868 -3.609856,-5.407402 1.64772,-1.048236 1.517067,-1.219408 -0.954507,-1.250706 -5.074849,-0.06439 -9.777659,-1.507439 -9.369419,-2.875367 0.634937,-2.127502 7.527413,-4.225867 11.687511,-3.55816 l 3.818041,0.612811 -2.72717,-2.405176 c -2.196194,-1.936877 -2.45925,-2.698747 -1.351092,-3.912976 1.109676,-1.215851 2.324018,-1.124028 6.272492,0.474379 5.477234,2.217253 6.72117,0.694817 2.688901,-3.290979 -3.931389,-3.8860918 -0.652076,-4.8147657 5.417088,-1.534054 5.758124,3.112512 6.608242,3.074684 6.608242,-0.294067 0,-3.0296062 3.558385,-7.2511048 5.162512,-6.1245552 0.739458,0.5193224 1.977754,2.9421514 2.751772,5.3840746 l 1.407296,4.4398646 3.732658,-3.0079 c 2.052965,-1.6543834 4.659105,-3.0079451 5.791425,-3.0079451 1.97584,0 1.9673,0.161669 -0.21192,4.0130401 -2.90794,5.139186 -2.86859,6.111541 0.15375,3.799314 2.71827,-2.079587 12.33404,-2.535053 13.40908,-0.635149 0.38166,0.674553 -1.66174,2.378518 -4.57181,3.812418 -3.92586,1.934355 -4.70798,2.701269 -3.08022,3.020329 4.97682,0.975463 5.59506,1.536621 3.52637,3.200551 -1.15171,0.926377 -1.65374,2.331323 -1.24687,3.48944 0.90994,2.589993 1.39336,2.461558 3.91517,-1.040131 1.17986,-1.638307 3.15145,-2.978763 4.38133,-2.978763 1.95796,0 2.04989,0.246331 0.73898,1.981008 -0.82344,1.089578 -1.00627,1.731525 -0.40628,1.426561 11.25744,-5.721958 13.63585,-6.436004 13.63585,-4.093694 0,1.021577 -0.98177,2.527125 -2.18173,3.345648 -2.80398,1.912649 -2.82075,3.758468 -0.0268,2.960436 3.17701,-0.907464 10.93559,1.548239 10.93559,3.461247 0,0.976996 -1.21531,1.676226 -2.99988,1.726077 -1.64995,0.04593 -3.98167,0.523151 -5.18163,1.06026 -2.03623,0.911427 -1.98165,1.062783 0.81815,2.269762 1.64995,0.711298 2.99988,2.049053 2.99988,2.972773 0,1.334829 -1.44086,1.55324 -7.0203,1.064044 -7.73365,-0.678064 -13.11799,0.601643 -8.33273,1.980424 5.44523,1.568956 3.5596,3.482234 -4.97571,5.048757 -9.91362,1.81943 -12.87676,4.075816 -17.75757,13.521928 -2.383768,4.613466 -3.366683,8.086423 -3.366683,11.895553 0,6.520171 1.17526,6.741285 6.981033,1.313303 3.07696,-2.876763 4.36021,-5.089468 4.63829,-7.997889 0.54048,-5.652787 2.55601,-10.574148 4.33061,-10.574148 0.82899,0 1.50396,1.19401 1.50396,2.660425 0,2.232294 0.80356,1.657085 4.99351,-3.574508 5.20595,-6.500175 7.66268,-7.914712 6.68997,-3.85191 -0.75421,3.150159 -0.53376,3.075809 5.2991,-1.787231 3.14145,-2.619129 6.21571,-4.170296 8.26523,-4.170296 h 3.26333 l -2.25554,3.459852 -2.25555,3.459853 5.61528,-2.330467 c 3.0884,-1.281778 6.8926,-2.168481 8.45375,-1.97047 l 2.83849,0.359815 -2.47728,2.371311 -2.47729,2.371267 5.1256,1.798983 c 6.82558,2.395631 7.4997,4.777705 1.35209,4.777705 h -4.65848 l 3.12446,3.562077 c 1.71845,1.959168 2.84162,3.871005 2.49594,4.248608 -0.54648,0.59687 -5.13582,-0.403047 -12.19374,-2.656821 -1.90189,-0.607317 -1.86963,-0.350358 0.39172,3.118276 1.35539,2.079046 2.25057,4.013581 1.98929,4.299001 -0.26127,0.28551 -3.47175,-0.586512 -7.13438,-1.937507 -3.66262,-1.350995 -8.2886,-2.260755 -10.27992,-2.021718 l -3.62058,0.43457 2.89391,1.360766 c 3.32837,1.565038 4.99894,3.853623 2.89752,3.969448 -0.78538,0.04503 -5.60054,0.03603 -10.70035,-0.01346 l -9.27238,-0.09142 -4.49853,4.681467 c -7.41403,7.715485 -9.13732,11.085497 -9.13732,17.868482 0,3.339307 0.32505,6.071417 0.72231,6.071417 0.39728,0 2.89634,-1.39157 5.5535,-3.09242 3.2485,-2.079369 5.36799,-4.518951 6.4698,-7.446918 3.19676,-8.495054 11.34212,-15.011398 9.67044,-7.736471 -0.71863,3.127373 -0.69386,3.143404 1.79076,1.157712 6.50665,-5.200069 12.34869,-9.094942 13.64173,-9.094942 1.96304,0 1.78148,2.358116 -0.38267,4.970085 -0.99294,1.198423 -1.26736,2.178929 -0.6098,2.178929 0.65756,0 1.45348,-0.455825 1.76873,-1.012975 0.93984,-1.660958 15.78719,-6.365393 17.16151,-5.437665 0.84004,0.567058 0.0153,2.026538 -2.44163,4.320528 -2.69195,2.51348 -3.11142,3.309667 -1.52844,2.90117 11.58242,-2.988851 13.90158,-3.340424 14.89273,-2.257828 0.71337,0.779164 0.12744,1.998932 -1.7245,3.590045 -3.67185,3.154753 -3.53883,3.85047 0.74034,3.872491 1.94993,0.009 4.27203,0.520133 5.16023,1.133575 1.28268,0.885892 0.85254,1.465513 -2.09077,2.817229 -3.33173,1.530136 -3.47625,1.781377 -1.43214,2.490018 2.88162,0.998971 7.90779,5.279017 7.90779,6.733947 0,1.77944 -6.36063,1.27048 -10.03101,-0.80267 -3.21396,-1.81533 -3.33656,-1.80087 -2.53272,0.29767 1.47639,3.85475 1.94221,7.56728 0.9495,7.56728 -0.52793,0 -3.51114,-1.87657 -6.62935,-4.17025 -5.90986,-4.34709 -7.85936,-5.21141 -6.04666,-2.68087 1.61408,2.25328 2.4132,6.85112 1.19074,6.85112 -0.59283,0 -3.12405,-1.80983 -5.62493,-4.02186 -4.36153,-3.85777 -10.65967,-7.893151 -12.31912,-7.893151 -0.43437,0 0.24787,1.206401 1.51608,2.680871 1.26821,1.47452 2.30387,2.949 2.30147,3.27666 -0.002,0.32784 0.33343,1.55716 0.74625,2.73225 1.28089,3.64589 -0.0902,3.43171 -5.88023,-0.91858 -3.0721,-2.30818 -5.83065,-4.19669 -6.1301,-4.19669 -0.29945,0 -0.24998,1.60823 0.10992,3.57379 l 0.65438,3.57379 -5.076,-3.09874 c -6.24081,-3.80985 -8.42131,-3.33885 -15.34042,3.31345 l -5.23544,5.03354 0.66835,9.46638 c 0.3676,5.2065 0.88935,9.70779 1.15947,10.00285 0.93732,1.02378 11.31896,-6.1205 10.84682,-7.46443 -1.04525,-2.97511 1.80263,-7.4741 6.25376,-9.87951 4.85996,-2.62633 7.03019,-2.39873 5.96758,0.62583 -0.47529,1.35284 -0.15536,1.57706 1.28922,0.9035 4.36545,-2.03559 12.9384,-4.1131 14.41884,-3.49417 1.20134,0.50226 0.80231,1.36626 -1.6363,3.54317 -2.81077,2.50906 -2.94481,2.88257 -1.04335,2.90761 1.19997,0.018 4.88165,-0.76282 8.18152,-1.73027 3.29987,-0.96744 6.91529,-1.76534 8.03426,-1.77313 1.94978,-0.0135 1.95569,0.11708 0.14179,3.14102 -1.88058,3.13489 -1.87614,3.14953 0.69268,2.28372 1.42197,-0.47929 5.16258,-1.16123 8.31247,-1.51541 6.68824,-0.7521 7.57314,0.89084 2.18173,4.05082 l -3.54532,2.07792 5.25762,0.69752 c 8.76268,1.16253 9.25717,6.47293 0.60275,6.47293 -4.16863,0 -4.3017,0.10268 -2.15199,1.66177 4.71081,3.41638 1.71287,6.60434 -3.40007,3.61553 -1.99886,-1.16848 -2.17547,-1.05986 -1.45301,0.89358 2.22972,6.02896 2.98005,8.95679 2.44515,9.54105 -0.32343,0.35351 -3.24743,-1.55072 -6.49773,-4.2311 -6.24753,-5.15205 -7.95346,-5.93325 -6.99415,-3.20266 0.82649,2.35245 -0.30658,3.20654 -2.52982,1.90693 -1.69339,-0.98987 -1.87657,-0.41115 -1.76559,5.58023 0.1537,8.29795 -1.80462,9.53294 -3.65706,2.30634 -0.74777,-2.91721 -2.72761,-7.09219 -4.39961,-9.27778 l -3.04004,-3.97372 0.15594,5.36174 c 0.11244,3.86659 -0.26722,5.36177 -1.3615,5.36177 -1.56964,0 -1.79831,-0.37377 -5.1048,-8.34055 l -1.97803,-4.76598 -0.60879,4.07554 c -0.85254,5.70745 -2.73685,5.78586 -4.27513,0.17788 -0.71648,-2.61201 -1.66013,-4.9904 -2.097,-5.28527 -1.93829,-1.30844 -6.81368,1.01172 -11.08314,5.27442 -4.61591,4.6086 -4.63453,4.66085 -3.89038,10.91761 1.05166,8.84226 5.80834,29.20031 7.84797,33.58844 0.94013,2.02261 4.39695,8.45074 7.68183,14.28465 5.79916,10.29931 8.8019,16.90733 11.78453,25.93379 l 1.44409,4.37033 -7.0518,0.39583 -7.0518,0.39585 -1.48317,-5.36174 c -0.81574,-2.949 -3.49818,-9.91928 -5.96099,-15.48956 -2.4628,-5.57025 -5.92244,-14.68526 -7.6881,-20.25551 -2.14946,-6.78114 -3.2301,-9.02253 -3.27026,-6.78303 -0.0868,4.84152 1.64637,12.32873 7.29441,31.51118 2.7503,9.34087 4.64086,17.37627 4.20124,17.85647 -0.43963,0.48019 -6.16483,1.07363 -12.72268,1.3188 l -11.923365,0.44582 -0.07385,-28.42997 c -0.0421,-16.2114 -0.461784,-27.40583 -0.976516,-26.047 -0.854258,2.25517 -1.347146,6.58696 -4.575595,40.21322 l -1.344153,14.00014 -4.969181,-0.17834 c -2.733053,-0.0982 -6.319136,-0.40169 -7.969074,-0.67491 z M 83.027439,62.828457 c 0.714011,-5.381327 0.687616,-5.438744 -3.749979,-8.162891 -2.457972,-1.508925 -4.668914,-2.525143 -4.913203,-2.258323 -1.014119,1.107637 1.964997,9.476509 4.583276,12.875207 1.551546,2.014018 2.942453,3.505156 3.090909,3.31363 0.148468,-0.191391 0.593506,-2.786922 0.988997,-5.767623 z m 22.121531,-16.45426 c 0.86122,-2.200635 1.33428,-4.254102 1.05124,-4.563255 -0.28304,-0.308928 -2.51702,0.687115 -4.96441,2.21392 -4.152345,2.590443 -4.450353,3.129399 -4.458196,8.062781 l -0.0083,5.286804 3.406956,-3.499527 c 1.87383,-1.924762 4.1116,-5.300088 4.97281,-7.500723 z"
       id="path1" /></g></svg>
