<?xml version="1.0" encoding="UTF-8" standalone="no"?>
<!-- Created with Inkscape (http://www.inkscape.org/) -->

<svg
   width="180mm"
   height="240mm"
   viewBox="0 0 180 240"
   version="1.1"
   id="svg1"
   sodipodi:docname="birch.svg"
   inkscape:version="1.4.2 (f4327f4, 2025-05-13)"
   xml:space="preserve"
   xmlns:inkscape="http://www.inkscape.org/namespaces/inkscape"
   xmlns:sodipodi="http://sodipodi.sourceforge.net/DTD/sodipodi-0.dtd"
   xmlns="http://www.w3.org/2000/svg"
   xmlns:svg="http://www.w3.org/2000/svg"><sodipodi:namedview
     id="namedview1"
     pagecolor="#505050"
     bordercolor="#ffffff"
     borderopacity="1"
     inkscape:showpageshadow="0"
     inkscape:pageopacity="0"
     inkscape:pagecheckerboard="1"
     inkscape:deskcolor="#505050"
     inkscape:document-units="mm"
     inkscape:zoom="0.70710678"
     inkscape:cx="125.86501"
     inkscape:cy="429.92092"
     inkscape:window-width="2560"
     inkscape:window-height="1351"
     inkscape:window-x="-9"
     inkscape:window-y="-9"
     inkscape:window-maximized="1"
     inkscape:current-layer="layer1"
     showguides="true" /><defs
     id="defs1"><rect
       x="101.82338"
       y="91.923882"
       width="384.66608"
       height="299.81326"
       id="rect3" /><rect
       x="2.8284271"
       y="2.1213202"
       width="662.55902"
       height="647.00269"
       id="rect2" /></defs><g
     inkscape:label="Icon"
     inkscape:groupmode="layer"
     id="layer1"><path
       style="fill:#000000;stroke-width:5.16318"
       d="m 69.100011,233.97243 c 3.160239,-14.54216 7.334137,-95.97216 4.919302,-95.97216 -0.451028,0 -3.805829,1.09132 -7.455178,2.42519 -3.649407,1.33383 -8.987571,2.4373 -11.862644,2.45213 -7.548086,0.037 -17.713799,-4.35157 -21.499261,-9.28523 -1.786731,-2.32863 -5.22576,-5.05744 -7.642255,-6.06401 -8.635674,-3.59707 -12.159559,-15.5138 -6.606288,-22.34055 2.514716,-3.09142 2.478011,-3.26343 -1.220015,-5.723754 C 8.5111484,93.328159 4.6770784,82.894514 8.1667239,73.429308 11.223984,65.136804 22.055424,57.080767 30.147504,57.080767 c 3.753242,0 3.722758,0.1886 0.861095,-5.328106 -6.526773,-12.582384 2.69316,-26.348313 19.102316,-28.520872 4.649319,-0.615567 5.866514,-1.528862 8.723749,-6.545571 9.199912,-16.15326837 35.601966,-18.9821722 50.439586,-5.404471 3.41659,3.126493 6.21204,6.077593 6.21204,6.557989 0,0.480396 3.30394,0.617745 7.34221,0.305374 15.64161,-1.210653 26.97377,7.733239 26.80798,21.158067 l -0.0908,7.356317 6.10348,2.452122 c 8.61455,3.460922 12.03466,7.807011 12.77079,16.228709 0.52581,6.012486 0.046,7.737502 -3.19856,11.567004 l -3.81623,4.500677 3.07861,2.242575 c 6.15393,4.482837 9.21959,11.320436 8.52809,19.021009 -0.77601,8.64148 -4.1383,12.81324 -13.39936,16.62527 -5.8133,2.39291 -6.92488,3.5081 -8.51054,8.53839 -2.24001,7.10608 -10.04917,13.31903 -18.30998,14.56731 -5.09309,0.76964 -13.00654,-0.21177 -20.51289,-2.54391 -1.749,-0.54338 -3.01015,0.33687 -4.42485,3.08775 -2.99702,5.8281 -0.42917,72.0895 3.58591,92.52528 0.14841,0.75579 -8.06701,1.35648 -21.419642,1.56607 l -21.660454,0.34013 z M 101.5125,212.48299 c -0.38256,-2.16927 -1.716588,-2.88956 -6.244757,-3.37162 -7.570284,-0.80593 -7.968852,-2.96218 -0.637535,-3.4492 l 5.781032,-0.38415 -0.453901,-6.97226 c -0.426291,-6.55076 -0.752717,-7.07833 -5.400472,-8.7261 -5.773726,-2.04698 -6.433243,-3.76342 -1.446051,-3.76342 1.925492,0 4.151571,-0.52168 4.946916,-1.15931 0.795276,-0.63767 1.228699,-6.3977 0.963151,-12.80009 -0.481519,-11.60472 -0.495329,-11.64193 -4.566369,-12.02076 -5.179788,-0.48201 -5.371939,-3.70411 -0.278434,-4.66675 3.267867,-0.61757 3.923469,-1.57775 4.642061,-6.79854 0.853277,-6.1995 5.568339,-14.63743 14.426989,-25.81805 5.06451,-6.39205 9.44933,-8.32652 24.67449,-10.88578 2.71116,-0.45598 5.38626,-1.42404 5.94458,-2.15175 0.6789,-0.88475 -0.44988,-1.09058 -3.40727,-0.62122 -16.49706,2.6182 -16.26855,2.61589 -14.59578,0.14782 0.85977,-1.26844 4.72594,-5.27314 8.59154,-8.89936 3.86554,-3.626213 6.64206,-6.904235 6.16999,-7.284493 -1.44473,-1.163758 -17.08064,11.954963 -30.20245,25.340163 l -12.438841,12.68865 -0.442976,-8.53004 c -0.41191,-7.92991 -0.732801,-8.63644 -4.564177,-10.0426 l -4.121315,-1.51255 4.183619,-1.76565 c 2.748856,-1.1601 4.183687,-2.7506 4.183687,-4.63747 0,-3.59304 3.164713,-10.885409 8.992623,-20.721557 4.00246,-6.755162 5.61494,-8.124295 14.49733,-12.309588 14.18238,-6.682641 15.63027,-8.788563 3.05789,-4.447664 -3.95512,1.36561 -7.51659,2.220843 -7.91423,1.900502 -0.39752,-0.320203 1.05888,-4.296507 3.23681,-8.835923 2.17796,-4.539415 3.62774,-8.521094 3.22171,-8.848155 -1.09162,-0.879237 -1.27743,-0.618487 -9.0418,12.68762 -7.72941,13.24633 -16.093429,25.134093 -17.683935,25.134093 -0.544793,0 -1.48861,-10.014461 -2.097613,-22.254309 -0.60906,-12.239892 -1.460374,-22.995316 -1.891789,-23.901011 -1.941881,-4.076165 -3.52433,0.634983 -3.687663,10.978637 -0.09781,6.19775 -0.611582,14.85485 -1.141606,19.238011 L 85.804289,80.988452 81.867124,76.08421 C 79.701678,73.386908 75.08446,67.59379 71.606606,63.210676 63.409881,52.880321 63.306501,57.02947 71.479466,68.301897 84.111213,85.723464 85.042955,88.366039 85.042955,106.7705 c 0,9.08421 -0.586564,16.51676 -1.303432,16.51676 -0.716925,0 -9.180761,-8.14269 -18.808519,-18.09491 C 47.053541,86.712432 39.909136,80.355831 43.928452,86.505667 c 1.101786,1.685813 4.492606,6.099603 7.535143,9.808439 3.042526,3.708794 6.108073,7.494414 6.812284,8.412484 1.047375,1.36547 -0.208826,1.51663 -6.905426,0.83086 -4.502215,-0.46107 -9.384464,-1.11149 -10.849506,-1.44532 -1.465031,-0.33364 -2.660302,-0.15616 -2.656102,0.39528 0.0046,0.5512 5.559194,2.34219 12.34444,3.98 6.785257,1.63786 13.615437,3.84475 15.178153,4.90425 3.317926,2.24952 15.089155,19.23685 15.089155,21.77553 0,0.95254 2.397349,2.53868 5.327411,3.52482 6.451583,2.17131 6.588963,2.75944 1.010789,4.32579 l -4.316696,1.2121 -0.253119,12.72779 -0.253131,12.7278 5.409454,1.43804 c 6.394221,1.69981 6.178206,3.81425 -0.556309,5.44413 -4.06062,0.98281 -4.849573,1.77835 -4.863611,4.90425 -0.01153,2.05212 -0.433772,5.76267 -0.943478,8.2457 -0.904184,4.40484 -0.792807,4.53483 4.583103,5.34715 3.030451,0.45783 5.509832,1.2639 5.509832,1.79105 0,1.19054 -3.899079,2.44683 -7.594217,2.44683 -2.297252,0 -2.884968,1.22183 -3.391107,7.04979 -0.336545,3.87742 -0.359556,7.4636 -0.05178,7.96934 0.308931,0.50574 5.363085,0.91955 11.232065,0.91955 10.195451,0 10.649181,-0.1228 10.184461,-2.75861 z"
       id="path1" /></g></svg>
