<?xml version="1.0" encoding="UTF-8" standalone="no"?>
<!-- Created with Inkscape (http://www.inkscape.org/) -->

<svg
   width="180mm"
   height="180mm"
   viewBox="0 0 180 180"
   version="1.1"
   id="svg1"
   sodipodi:docname="maple.svg"
   inkscape:version="1.4.2 (f4327f4, 2025-05-13)"
   xml:space="preserve"
   xmlns:inkscape="http://www.inkscape.org/namespaces/inkscape"
   xmlns:sodipodi="http://sodipodi.sourceforge.net/DTD/sodipodi-0.dtd"
   xmlns="http://www.w3.org/2000/svg"
   xmlns:svg="http://www.w3.org/2000/svg"><sodipodi:namedview
     id="namedview1"
     pagecolor="#505050"
     bordercolor="#ffffff"
     borderopacity="1"
     inkscape:showpageshadow="0"
     inkscape:pageopacity="0"
     inkscape:pagecheckerboard="1"
     inkscape:deskcolor="#505050"
     inkscape:document-units="mm"
     inkscape:zoom="0.70710678"
     inkscape:cx="125.86501"
     inkscape:cy="429.92092"
     inkscape:window-width="2560"
     inkscape:window-height="1351"
     inkscape:window-x="-9"
     inkscape:window-y="-9"
     inkscape:window-maximized="1"
     inkscape:current-layer="layer1"
     showguides="true" /><defs
     id="defs1"><rect
       x="101.82338"
       y="91.923881"
       width="384.66609"
       height="299.81327"
       id="rect3" /><rect
       x="2.8284271"
       y="2.1213203"
       width="662.55905"
       height="647.0027"
       id="rect2" /></defs><g
     inkscape:label="Icon"
     inkscape:groupmode="layer"
     id="layer1"><path
       style="fill:#000000;stroke-width:3.42399"
       d="m 81.232509,172.65173 c 1.530025,-11.4511 3.141787,-33.90081 2.652538,-36.94706 -0.636112,-3.96098 -5.756581,-10.36353 -10.741646,-13.43117 l -3.094983,-1.90458 -5.177533,2.75098 c -2.847648,1.51305 -6.16001,2.75099 -7.360759,2.75099 -2.139888,0 -5.260641,-2.55026 -7.126189,-5.82354 -0.894188,-1.56888 -1.188876,-1.57732 -6.04101,-0.17288 -5.616099,1.62562 -14.042173,1.93253 -16.170165,0.58902 -0.949399,-0.59941 -1.361836,-2.41524 -1.361836,-5.99574 V 109.3318 L 20.45569,105.93088 C 13.455554,102.18487 7.7357089,96.496325 6.8269788,92.37675 5.4470148,86.120907 9.5584226,79.901997 18.093815,75.334572 l 4.901243,-2.622725 -4.674274,-4.921043 c -2.570847,-2.706603 -4.67427,-5.564117 -4.67427,-6.350073 0,-0.785957 1.123512,-2.309559 2.496699,-3.385825 2.620808,-2.054099 2.649862,-2.285608 1.805406,-14.385696 l -0.21659,-3.103613 5.901286,-0.982514 c 7.033009,-1.17094 7.743281,-1.560194 9.665976,-5.29728 2.673676,-5.196661 3.655502,-5.295128 10.697999,-1.072644 2.90231,1.740181 5.43173,3.163916 5.620903,3.163916 0.18907,0 0.343963,-1.553327 0.343963,-3.451834 0,-8.572919 4.935963,-17.594028 10.993752,-20.092423 2.432277,-1.00315 3.533069,-0.930035 7.814218,0.518881 l 4.98311,1.686506 3.765547,-4.11879 c 6.697332,-7.3255489 11.407612,-8.9308081 17.875281,-6.0919143 2.226462,0.9772866 5.719006,3.6704279 7.761236,5.9848043 l 3.71308,4.207894 4.98486,-1.561151 c 3.94676,-1.23606 5.53687,-1.352908 7.63551,-0.561075 6.17199,2.328692 9.97813,8.432189 10.91081,17.49645 0.33868,3.290467 0.8025,5.982652 1.03097,5.982652 0.22853,0 1.57422,-0.821592 2.99053,-1.825733 1.41634,-1.004176 3.92497,-2.390874 5.57475,-3.081576 3.62544,-1.517794 5.59637,-0.690325 7.61547,3.197365 1.73848,3.347387 6.13761,5.325877 11.84206,5.325877 h 4.23421 l -0.61432,3.841907 c -1.77877,11.124203 -1.79936,10.888901 1.20136,13.728785 1.543,1.460293 2.80541,3.326171 2.80541,4.146464 0,0.82026 -2.11123,3.649553 -4.69168,6.287277 l -4.69172,4.795927 3.55685,1.811929 c 8.57905,4.370389 12.18181,8.717613 12.18181,14.698966 0,7.093493 -5.58947,13.630457 -15.06511,17.618797 l -5.11364,2.15236 0.55682,4.71697 c 0.42858,3.63083 0.22818,5.04411 -0.87021,6.13777 -2.2826,2.27279 -7.9455,2.22612 -16.20202,-0.13359 -5.14466,-1.47027 -5.41358,-1.46535 -6.35526,0.11684 -3.73899,6.28164 -7.01162,6.93008 -14.92147,2.9565 l -4.85927,-2.44113 -4.47564,3.27126 c -5.09593,3.72465 -8.454615,7.8378 -9.295753,11.3839 -0.517386,2.18127 -0.03088,11.24881 1.816376,33.95189 l 0.607289,7.45781 h -9.269097 -9.269131 z m 3.229459,-56.27259 c 0,-4.67057 -0.372478,-6.24672 -1.815758,-7.68382 -0.998708,-0.99437 -2.392164,-1.80796 -3.09663,-1.80796 -1.178274,0 -5.704733,7.81863 -4.95137,8.55252 0.464612,0.45256 9.360098,6.69242 9.636806,6.75983 0.124902,0.0307 0.226815,-2.58887 0.226815,-5.82057 z m 17.290642,2.53676 5.17935,-3.33912 -2.38307,-4.78742 c -1.31069,-2.63311 -2.66667,-4.79162 -3.01335,-4.79671 -0.34664,-0.003 -1.647786,0.90602 -2.891469,2.02468 -1.899519,1.70868 -2.31283,3.00983 -2.584185,8.1358 -0.177747,3.35603 -0.134854,6.10186 0.09505,6.10186 0.229904,0 2.748893,-1.50259 5.597534,-3.33909 z m 40.30101,52.4899 c -4.87986,-5.68732 -3.91869,-5.83089 -9.4988,1.41902 -1.99329,2.58975 -2.44538,2.80158 -3.43795,1.61072 -0.95471,-1.14538 -0.53952,-2.0652 2.52205,-5.58735 2.0157,-2.31892 3.66493,-4.35224 3.66493,-4.51849 0,-0.16639 -2.14489,-1.40929 -4.76641,-2.76233 -5.46697,-2.82161 -7.03619,-3.95274 -7.03619,-5.07192 0,-0.4363 0.5107,-0.79952 1.13487,-0.80714 3.31401,-0.0403 3.55781,-1.34738 1.64374,-8.81171 -2.25679,-8.80094 -2.24204,-8.27745 -0.21858,-7.75054 2.00092,0.521 3.20445,-0.86098 4.6551,-5.34535 0.60314,-1.86448 1.37136,-3.38716 1.70712,-3.38374 0.33594,0.003 1.59423,1.4443 2.79656,3.20204 1.51633,2.21684 2.47589,2.9073 3.13221,2.25377 2.24548,-2.23579 3.3067,-0.94254 3.3067,4.02979 0,2.73451 0.36112,4.97184 0.80247,4.97184 0.44135,0 2.12675,-2.65163 3.7453,-5.89248 2.81244,-5.63139 4.53113,-7.89855 4.53113,-5.97712 0,0.491 0.61635,1.50642 1.36964,2.25646 1.22089,1.21563 1.78776,1.12567 5.22036,-0.82852 5.71379,-3.25285 6.16824,-3.00737 4.68725,2.53187 -1.64889,6.16719 -1.71491,5.86536 1.43323,6.55384 3.37409,0.73789 3.42271,1.45541 0.22681,3.35132 -1.37321,0.81466 -3.92665,2.98936 -5.67433,4.83262 l -3.17761,3.35142 5.15715,-0.5703 c 4.85883,-0.53733 5.17397,-0.45263 5.44734,1.46412 0.18221,1.27846 1.38663,2.51497 3.24086,3.32757 1.62284,0.7112 2.95062,1.57243 2.95062,1.91382 0,0.34131 -1.67548,1.72473 -3.72334,3.07409 -3.0161,1.98734 -3.64356,2.86869 -3.30351,4.63999 0.41829,2.17864 0.39053,2.18666 -7.55316,2.18666 h -7.97299 l -0.59819,2.71194 c -0.32907,1.49155 -0.92469,2.71193 -1.3237,2.71193 -0.399,0 -2.68994,-2.28954 -5.09096,-5.08784 z"
       id="path1" /></g></svg>
