<?xml version="1.0" encoding="UTF-8" standalone="no"?>
<!-- Created with Inkscape (http://www.inkscape.org/) -->

<svg
   width="180mm"
   height="240mm"
   viewBox="0 0 180 240"
   version="1.1"
   id="svg1"
   sodipodi:docname="redwood.svg"
   inkscape:version="1.4.2 (f4327f4, 2025-05-13)"
   xml:space="preserve"
   xmlns:inkscape="http://www.inkscape.org/namespaces/inkscape"
   xmlns:sodipodi="http://sodipodi.sourceforge.net/DTD/sodipodi-0.dtd"
   xmlns="http://www.w3.org/2000/svg"
   xmlns:svg="http://www.w3.org/2000/svg"><sodipodi:namedview
     id="namedview1"
     pagecolor="#505050"
     bordercolor="#ffffff"
     borderopacity="1"
     inkscape:showpageshadow="0"
     inkscape:pageopacity="0"
     inkscape:pagecheckerboard="1"
     inkscape:deskcolor="#505050"
     inkscape:document-units="mm"
     inkscape:zoom="0.70710678"
     inkscape:cx="125.86501"
     inkscape:cy="429.92092"
     inkscape:window-width="2560"
     inkscape:window-height="1351"
     inkscape:window-x="-9"
     inkscape:window-y="-9"
     inkscape:window-maximized="1"
     inkscape:current-layer="layer1"
     showguides="true" /><defs
     id="defs1"><rect
       x="101.82338"
       y="91.923882"
       width="384.66608"
       height="299.81326"
       id="rect3" /><rect
       x="2.8284271"
       y="2.1213202"
       width="662.55902"
       height="647.00269"
       id="rect2" /></defs><g
     inkscape:label="Icon"
     inkscape:groupmode="layer"
     id="layer1"><path
       style="fill:#000000;stroke-width:4.60872"
       d="m 80.068143,233.97992 c -0.617999,-2.29317 -1.269028,-2.43386 -7.881145,-1.70335 -3.964152,0.43809 -8.182353,1.05869 -9.37381,1.37939 -3.019211,0.81272 -2.725206,-0.24334 1.49089,-5.35472 8.423722,-10.21281 10.380183,-19.62103 12.287336,-59.08722 l 1.07383,-22.22164 -6.033412,-5.19814 c -3.318361,-2.85897 -6.033413,-6.00559 -6.033413,-6.99251 0,-1.55227 -0.262471,-1.53969 -1.945232,0.0931 -1.069907,1.03813 -2.655447,1.88753 -3.523472,1.88753 -0.868025,0 -3.330946,0.84846 -5.473195,1.88545 -3.836659,1.85721 -8.864262,1.4232 -8.864262,-0.76524 0,-0.6161 -0.974838,-1.13741 -2.166296,-1.15839 -1.191459,-0.0227 -3.226661,-0.81694 -4.522639,-1.76872 -2.316481,-1.70127 -2.316481,-1.74304 0,-2.47304 5.083466,-1.60198 8.340162,-3.61391 8.839652,-5.46095 0.3654,-1.35052 1.612535,-1.81022 4.137589,-1.52494 2.487624,0.28102 3.614751,-0.12076 3.614751,-1.28896 0,-2.64709 4.808456,-3.55842 7.2878,-1.3812 1.187341,1.04267 3.932664,2.24001 6.100739,2.66076 4.341717,0.8426 5.297372,3.88367 2.04381,6.50376 -1.682855,1.35523 -1.588206,1.84858 0.83476,4.35117 4.885462,5.0461 6.014841,3.78325 6.014841,-6.72556 0,-9.37276 -0.07395,-9.60194 -4.023104,-12.46772 -2.529825,-1.83583 -6.550214,-3.21567 -10.83153,-3.71746 -12.70836,-1.48957 -13.794549,-1.66567 -14.501255,-2.35142 -0.388326,-0.37681 -0.07439,-1.4237 0.697395,-2.32622 0.771926,-0.90257 1.039965,-1.99382 0.59559,-2.42501 -0.44447,-0.43129 -2.130739,1.105 -3.747532,3.41374 -2.225668,3.17822 -3.812986,4.19774 -6.53557,4.19774 -4.64681,0 -5.544544,-1.53425 -2.475039,-4.22974 3.701633,-3.25058 2.932234,-4.48384 -1.431331,-2.29426 -2.766097,1.38797 -4.124582,1.55862 -4.738184,0.59522 -0.618233,-0.97062 -1.859659,-0.8475 -4.412551,0.43764 -2.602485,1.31016 -3.987217,1.43813 -5.178676,0.47864 -1.320682,-1.06356 -1.216629,-1.61134 0.553716,-2.91509 1.996368,-1.47019 1.906025,-1.60865 -1.072575,-1.64361 -1.788918,-0.0227 -3.870392,-0.76056 -4.625475,-1.64338 -1.080575,-1.2634 -0.477828,-1.87169 2.831129,-2.857113 2.312176,-0.688606 5.647006,-0.984332 7.410707,-0.65719 3.410576,0.632629 4.47604,-1.357916 1.349924,-2.521935 -1.021251,-0.38044 -1.856853,-1.543642 -1.856853,-2.585267 0,-1.513905 0.869335,-1.735632 4.33264,-1.105182 2.887694,0.52567 4.332593,0.333225 4.332593,-0.577016 0,-0.914645 1.206196,-0.760426 3.652182,0.466879 5.932026,2.976602 7.193758,2.095961 2.537217,-1.770907 -2.382917,-1.978832 -3.653772,-3.599107 -2.824065,-3.600696 0.831907,-0.0015 1.188932,-0.810954 0.795975,-1.804547 -0.783295,-1.980739 1.16072,-2.22571 5.122813,-0.645522 1.842535,0.734866 3.010647,0.330501 4.566945,-1.580188 l 2.091159,-2.567561 3.951706,3.597791 c 2.611842,2.377976 4.141331,3.088736 4.510896,2.096369 0.898951,-2.413751 4.845931,-1.730185 6.840475,1.184675 1.607951,2.34983 2.098364,2.476492 3.917132,1.011843 2.686373,-2.163377 5.886228,0.193398 3.459608,2.548085 -2.045774,1.985098 -1.862466,2.977919 0.680834,3.687498 1.191459,0.332318 3.141131,0.99382 4.33259,1.469778 1.876408,0.749576 2.166302,0.133926 2.166302,-4.600281 0,-6.288018 -2.924792,-9.20079 -9.250111,-9.212094 -4.735421,-0.0091 -12.713411,-2.125152 -13.669864,-3.6268 -0.44634,-0.7005 1.526683,-0.842415 5.101339,-0.36682 l 5.828818,0.775226 -4.836576,-4.323033 c -4.430843,-3.960343 -5.044305,-4.176758 -7.312361,-2.579364 -4.017067,2.829193 -8.334455,4.272095 -10.426034,3.48443 -1.697078,-0.639076 -1.64042,-0.9585 0.432773,-2.438947 3.643992,-2.602381 1.534869,-3.29648 -3.640672,-1.198159 -6.794252,2.754603 -12.246065,2.38397 -16.31558,-1.109177 -2.939018,-2.522707 -3.187639,-3.169046 -1.616417,-4.201954 1.02125,-0.671354 3.249445,-0.952326 4.951575,-0.624321 1.702084,0.327777 3.872123,0.111226 4.822305,-0.481452 1.336916,-0.833972 0.846971,-1.519626 -2.166297,-3.031625 -2.14164,-1.074629 -3.893925,-2.480532 -3.893925,-3.124238 0,-1.543142 7.06098,-1.516085 8.046251,0.03178 1.005576,1.578735 6.808381,1.556762 6.808381,-0.02724 0,-0.67485 -1.283393,-1.794333 -2.851949,-2.487841 -1.568556,-0.693509 -3.530864,-2.315735 -4.360618,-3.605009 -1.236234,-1.920767 -1.168253,-2.470907 0.376161,-3.045971 1.036642,-0.385888 2.859669,-0.288281 4.051128,0.216551 1.191505,0.505241 2.812133,0.820897 3.601417,0.701499 0.78933,-0.119398 2.540634,1.146631 3.89182,2.813439 2.676969,3.302291 3.625933,3.57668 6.426979,1.858436 1.595224,-0.978566 1.526355,-1.365544 -0.4986,-2.802317 -2.897753,-2.056055 -1.613049,-4.433714 2.395642,-4.433714 2.14281,0 2.782145,-0.50742 2.270303,-1.801778 -0.550862,-1.392919 0.283992,-1.801733 3.679457,-1.801733 2.415573,0 4.713574,0.504923 5.106625,1.122071 0.393005,0.617148 2.600239,0.825164 4.904789,0.462294 3.403136,-0.535885 4.453251,-0.182503 5.591377,1.880817 1.763603,3.197647 5.027794,3.314866 5.027794,0.180686 0,-2.982958 -3.242431,-4.676052 -10.781566,-5.62983 -3.261423,-0.412673 -6.59948,-1.260673 -7.417819,-1.88463 -0.818385,-0.623958 -2.527393,-0.81436 -3.797826,-0.423115 -3.788843,1.166879 -16.377244,1.830379 -16.377244,0.863208 0,-0.492574 0.668435,-1.544277 1.485463,-2.337027 1.155339,-1.121117 0.902788,-1.441404 -1.136625,-1.441404 -6.2658,0 -8.674824,-2.822746 -3.487259,-4.086143 1.856572,-0.452169 2.80404,-1.367586 2.420159,-2.338298 -0.479044,-1.211415 1.133725,-1.611422 6.701849,-1.662313 12.014801,-0.109865 17.154597,-2.984229 8.238449,-4.607273 -4.916112,-0.894942 -6.66166,-2.585221 -3.778458,-3.658761 1.064388,-0.396329 1.935267,-1.406038 1.935267,-2.243733 0,-2.119386 6.747746,-3.215806 10.736039,-1.744439 3.464989,1.278287 6.59438,0.759972 6.59438,-1.09229 0,-0.598761 -1.671157,-1.41303 -3.713657,-1.809404 -4.030916,-0.782263 -5.127352,-3.18312 -1.45365,-3.18312 1.242971,0 3.573113,-1.356327 5.178115,-3.0140558 1.944253,-2.0082053 3.698363,-2.7738066 5.256018,-2.29408 1.3925,0.4290164 3.331225,-0.1520852 4.794231,-1.4370006 2.015975,-1.7703167 2.884698,-1.8973873 4.846022,-0.708853 1.31436,0.7964723 3.23288,1.4481686 4.26335,1.4481686 1.03052,0 1.87365,0.6006683 1.87365,1.3348538 0,0.8749664 1.49257,1.0631434 4.3326,0.5461446 2.706719,-0.4927105 4.332599,-0.3173359 4.332599,0.4668788 0,0.6906029 1.33091,1.2556333 2.95758,1.2556333 1.62667,0 4.27261,1.0354503 5.87996,2.3009803 l 2.92237,2.301026 -3.40418,0.83211 c -5.22209,1.276517 -4.41456,4.183296 0.92843,3.34197 2.91791,-0.459479 4.3326,-0.215644 4.3326,0.746988 0,0.786076 0.59581,1.071905 1.32404,0.635171 1.73872,-1.042714 12.29266,4.414056 12.29266,6.355752 0,0.826935 -1.07781,1.503555 -2.39517,1.503555 -1.31736,0 -3.9148,0.560582 -5.77206,1.245782 -4.80809,1.773813 -2.0425,3.99294 5.39464,4.328707 3.41052,0.153901 5.73777,0.802692 5.55788,1.549272 -0.17546,0.728692 1.60977,1.284416 4.12626,1.284416 4.93137,0 5.39133,2.486706 0.66044,3.570369 -1.52159,0.348661 -2.62597,1.174234 -2.45418,1.834919 0.43324,1.665265 -5.77543,2.683418 -13.16405,2.158747 -5.26407,-0.37363 -6.74466,0.02724 -9.90306,2.694404 l -3.71365,3.133908 4.95152,-0.495934 c 2.72333,-0.272845 5.95959,-0.92386 7.1917,-1.446897 1.67776,-0.712258 2.40355,-0.344575 2.89106,1.46424 0.57234,2.12388 1.08044,2.257942 4.21151,1.111175 3.93094,-1.43977 6.17194,-0.37136 3.88199,1.850536 -2.75964,2.677788 -1.76884,4.597149 1.71051,3.31355 4.6703,-1.723012 5.74801,-1.450666 4.87096,1.230891 -1.20689,3.689722 0.859,2.863015 4.78914,-1.9165 3.26596,-3.971829 3.71146,-4.16323 5.54627,-2.38288 1.66044,1.61124 1.73255,2.343655 0.42997,4.367659 -1.97648,3.07094 -0.94817,4.736386 2.92442,4.736386 1.6619,0 3.00414,0.675667 2.98276,1.501467 -0.0585,2.254629 -5.83934,5.898317 -8.97056,5.654118 -4.64844,-0.36228 -5.17418,-0.01362 -2.67757,1.767411 2.16246,1.544278 2.19732,1.793334 0.34809,2.489249 -1.89803,0.714346 -6.02466,-0.936663 -11.19333,-4.478296 -3.00091,-2.056282 -4.27028,-0.180686 -1.72482,2.548812 2.58948,2.776439 1.42945,3.637741 -3.84939,2.858111 -2.35807,-0.348207 -4.75479,-1.752021 -5.9085,-3.460505 -2.33673,-3.460596 -4.4976,-3.642508 -7.31998,-0.616285 -2.01738,2.163014 -1.92348,2.291446 2.22758,3.04706 3.11639,0.5673 4.13848,1.2826 3.63866,2.546496 -0.38224,0.966671 -0.0786,1.75756 0.67527,1.75756 0.75368,0 1.37033,1.013523 1.37033,2.252222 0,1.563209 -1.18759,2.482666 -3.88205,3.005566 -6.46595,1.254817 -23.856959,19.966779 -18.5573,19.966779 2.44726,0 12.23325,-4.891234 14.37021,-7.182499 2.19924,-2.358047 2.20335,-2.532922 0.0954,-4.028714 -2.10355,-1.492523 -2.10472,-1.659726 -0.0234,-3.677646 1.27282,-1.235068 3.21018,-1.852261 4.65963,-1.484488 1.60668,0.40768 4.04027,-0.617647 6.90587,-2.909639 4.85394,-3.882393 7.57451,-4.512752 7.57451,-1.755108 0,1.45575 0.74044,1.346022 4.0231,-0.596128 5.27581,-3.121287 9.59361,-3.151795 9.59361,-0.06764 0,1.276789 -1.11411,2.664532 -2.47574,3.083879 -1.36171,0.419482 -2.47579,1.24964 -2.47579,1.844997 0,0.595402 0.77923,0.792386 1.73162,0.437642 0.95237,-0.354563 2.08807,-0.08535 2.52374,0.598943 0.43605,0.684928 2.43911,0.924088 4.45784,0.532298 2.87721,-0.558357 3.66565,-0.285103 3.66565,1.270252 0,1.089883 -1.45317,2.517759 -3.22928,3.172996 -2.7187,1.00299 -2.98141,1.481128 -1.6617,3.024089 2.61825,3.06127 -0.2344,3.981317 -7.48787,2.414976 -3.74462,-0.808639 -7.75594,-1.881543 -8.91408,-2.384241 -1.41509,-0.614243 -3.47303,0.09806 -6.27446,2.171276 -3.91512,2.897654 -14.52071,7.317335 -14.52071,6.051215 0,-0.86966 -6.42217,2.71656 -9.59362,5.35721 -2.21056,1.8405 -2.78523,3.58049 -2.78523,8.43265 0,4.52224 0.46412,6.11359 1.78377,6.11359 0.98106,0 2.08779,-0.47736 2.45942,-1.06078 0.37148,-0.58342 3.74674,-1.4331 7.50035,-1.88817 8.44416,-1.02374 8.96751,-3.05691 0.78689,-3.05691 -6.52354,0 -10.95023,-2.78289 -7.61156,-4.7851 0.91575,-0.54914 2.30881,-0.75875 3.09571,-0.46575 0.7869,0.29283 3.00339,-0.88154 4.92556,-2.6101 2.28382,-2.05383 4.36464,-2.92212 6.00497,-2.5059 1.43207,0.36318 3.96602,-0.36909 5.89984,-1.70513 4.04168,-2.79256 7.34006,-3.03535 7.34006,-0.54029 0,2.12715 0.13801,2.14804 4.22947,0.63862 2.57815,-0.95114 3.38092,-0.74939 4.40474,1.10696 1.01718,1.84422 0.61506,2.73122 -2.14375,4.72857 -2.73844,1.98265 -2.96068,2.46587 -1.14804,2.49656 1.23619,0.0227 3.43777,-0.57996 4.89235,-1.33535 1.91318,-0.99355 2.77073,-1.00653 3.10034,-0.0468 0.27182,0.7908 1.92039,1.04226 4.08233,0.62269 2.73606,-0.53099 3.62658,-0.25605 3.62658,1.11961 0,1.00286 -0.83555,2.13451 -1.85681,2.51477 -3.22819,1.20206 -2.10691,3.4956 1.39171,2.84662 1.78668,-0.33141 5.24868,-0.0667 7.69325,0.58828 4.20772,1.12733 4.31692,1.28151 2.04802,2.89139 -1.3182,0.9353 -3.09122,1.44195 -3.93996,1.12593 -0.8488,-0.31598 -1.83332,-0.11895 -2.1879,0.43764 -0.35465,0.55667 0.60241,1.37371 2.12665,1.81558 l 2.77134,0.80346 -2.79585,1.32301 c -2.04203,0.9663 -3.61536,0.96063 -5.83574,-0.0227 -1.89802,-0.83915 -3.31541,-0.91147 -3.77331,-0.19249 -0.43792,0.68783 -2.24677,0.39224 -4.49185,-0.73446 -4.49513,-2.25558 -6.37037,-1.22345 -2.52525,1.38988 3.56522,2.42314 3.42265,3.69621 -0.49537,4.423 -2.3758,0.44082 -4.14971,-0.30054 -6.85104,-2.86293 -4.3006,-4.07924 -5.24597,-4.31799 -4.17871,-1.0552 0.6432,1.96649 0.22269,2.40231 -2.31935,2.40231 -1.70779,0 -3.44932,-0.54051 -3.8701,-1.20115 -0.42062,-0.66064 -1.98556,-1.2249 -3.47725,-1.25391 -1.49169,-0.0272 -4.87714,-0.80142 -7.52314,-1.71652 -4.4468,-1.53788 -5.0793,-1.47132 -8.35574,0.87919 -3.33895,2.39536 -3.54476,3.05296 -3.54476,11.32589 0,9.03958 0.55199,9.86647 5.03293,7.53948 2.86225,-1.48644 3.14283,-4.55911 0.50595,-5.54099 -1.45622,-0.54224 -1.56317,-1.08343 -0.46739,-2.36462 0.78156,-0.91383 2.20803,-1.6615 3.16986,-1.6615 0.96183,0 3.10721,-0.86366 4.76747,-1.91923 2.81654,-1.79074 3.29015,-1.75047 7.07426,0.60113 4.87391,3.02881 9.62614,6.86094 9.62614,7.76233 0,1.42747 -8.5763,2.10069 -12.69672,0.99673 -4.20107,-1.12557 -4.6083,-0.94202 -10.25582,4.62162 l -5.88103,5.79376 0.86807,20.20018 c 1.38464,32.2194 4.33783,45.32193 12.16461,53.9718 2.06337,2.28028 3.38097,4.50554 2.92808,4.94504 -0.45289,0.43946 -3.32029,0.15118 -6.37196,-0.64093 -8.17898,-2.12266 -16.084839,-1.7705 -21.605469,0.96235 -6.246478,3.09219 -9.43656,3.06205 -10.287968,-0.0971 z m 10.135768,-12.4259 c 1.55822,-6.00482 1.68692,-18.93915 0.26948,-27.11543 -0.79447,-4.58352 -1.05095,-4.94876 -1.68706,-2.40235 -1.236934,4.95167 -2.121373,36.16331 -1.005801,35.49427 0.568115,-0.34094 1.658521,-3.03013 2.423111,-5.97649 z m -10.522835,-4.00701 c 1.041226,-3.13028 2.47644,-9.91963 3.189371,-15.08744 1.669145,-12.09876 1.711254,-46.06774 0.05855,-47.05901 -0.680837,-0.40814 -1.24363,-0.0363 -1.250599,0.82997 -0.137552,16.99749 -2.945426,56.18744 -4.346578,60.66846 -2.116755,6.76951 -2.232363,7.95187 -0.68687,7.02506 0.62876,-0.37726 1.995104,-3.24677 3.03633,-6.37704 z m 22.334824,-2.98882 c -0.90752,-4.129 -2.033519,-13.18283 -2.502139,-20.1196 -1.27651,-18.89474 -3.07956,-20.17643 -2.53474,-1.80173 0.44354,14.9542 3.242239,29.42866 5.690389,29.42866 0.54814,0 0.25405,-3.37828 -0.65351,-7.50733 z m 20.52531,-91.02633 c 0,-1.73945 -3.30624,-2.7734 -5.84529,-1.82798 -1.82601,0.67994 -1.87036,0.95406 -0.30972,1.91192 2.44898,1.50283 6.15473,1.4523 6.15473,-0.084 z M 78.976903,107.71337 c -0.319085,-4.22847 -1.023543,-5.4087 -4.349863,-7.28706 -2.232685,-1.260765 -5.645134,-2.074942 -7.799874,-1.861024 l -3.830623,0.380439 3.164667,4.204085 c 2.954645,3.92512 9.932761,9.38329 12.19671,9.5401 0.54978,0.0363 0.828297,-2.20129 0.618983,-4.97641 z m -15.408586,-0.9363 c -1.937652,-3.76899 -4.159344,-5.79018 -4.159344,-3.78411 0,0.65247 -0.871066,2.03154 -1.935734,3.06463 -2.67388,2.59457 -1.178872,4.29911 3.770785,4.29911 h 4.16463 z M 123.9514,94.781452 c 2.88662,-2.333486 2.88998,-2.362904 0.27416,-2.402356 -1.45646,-0.0227 -3.96317,1.023102 -5.57046,2.322409 -2.88662,2.333486 -2.88998,2.362859 -0.27417,2.402356 1.45646,0.0227 3.96317,-1.023102 5.57047,-2.322409 z m -21.00441,-5.631419 c 3.21141,-2.820068 2.82944,-5.219109 -0.83092,-5.219109 -2.613299,0 -3.094729,0.560581 -3.094729,3.603511 0,4.115924 0.73427,4.418097 3.925649,1.615598 z m 8.45325,-6.491131 c 0,-0.621688 -0.83561,-1.130288 -1.85685,-1.130288 -1.91427,0 -2.45933,1.417343 -1.06524,2.770084 0.98897,0.959635 2.92209,-0.1253 2.92209,-1.639796 z M 76.756841,72.95723 c -2.732968,-2.402038 -4.968977,-4.903362 -4.968977,-5.558509 0,-0.655146 -0.859182,-1.883087 -1.909299,-2.728771 -1.442607,-1.161704 -2.258419,-1.198794 -3.337637,-0.151631 -1.079265,1.047209 -0.839486,1.809314 0.980873,3.117973 2.378987,1.710254 2.379268,1.753519 0.01871,3.449882 -2.326773,1.672891 -2.310539,1.760647 0.618935,3.348143 12.510645,6.779685 17.094436,5.991975 8.596277,-1.477178 z m 25.379489,-3.140037 c 4.04826,-4.463041 3.93453,-6.561726 -0.32986,-6.085631 -2.955439,0.330047 -3.454819,0.973844 -3.788369,4.884476 -0.45851,5.376052 0.16609,5.558237 4.118079,1.201155 z M 81.690923,66.513994 c 0,-3.343604 -0.486017,-4.204133 -2.374502,-4.204133 -1.305983,0 -3.255659,-0.328232 -4.332589,-0.729101 -2.912536,-1.084481 -2.373934,1.266438 1.246672,5.441653 4.15068,4.786506 5.460419,4.66452 5.460419,-0.508419 z m 31.119497,0.689786 c 2.63725,-2.08738 2.71102,-2.392913 0.75611,-3.131411 -3.02276,-1.141865 -5.41644,-0.0091 -6.21124,2.94051 -0.86069,3.193698 1.55466,3.27823 5.45513,0.191128 z m -12.55116,-7.896807 c 0.84753,-0.991005 2.33281,-1.801778 3.30053,-1.801778 0.96774,0 1.59583,-0.780674 1.39578,-1.734815 -0.20024,-0.954187 0.74947,-2.53156 2.11011,-3.505314 4.35542,-3.11711 1.03126,-3.459324 -4.53078,-0.46647 -3.943849,2.122111 -5.474419,3.74243 -5.762059,6.099887 -0.43371,3.553073 1.11655,4.179255 3.486419,1.40849 z m 6.70718,-13.366153 c 5.20025,-1.508458 5.78376,-4.252755 0.69432,-3.265064 -2.68372,0.520812 -4.26883,0.245606 -4.9755,-0.863844 -1.50361,-2.36077 -6.139659,1.971523 -6.139659,5.737425 0,2.763728 0.1427,2.81244 3.40416,1.162021 1.872299,-0.947422 5.029819,-2.194203 7.016679,-2.770538 z M 77.977265,40.688797 c 0,-0.66064 -0.232994,-1.201155 -0.517697,-1.201155 -0.284929,0 -1.405123,-0.330501 -2.489771,-0.734321 -1.44345,-0.537474 -1.76693,-0.215644 -1.20671,1.201155 0.831064,2.101499 4.214178,2.691045 4.214178,0.734321 z m 6.189446,-1.801732 c 0,-2.202148 -0.660203,-3.002933 -2.475788,-3.002933 -2.757492,0 -3.268209,2.354051 -0.990275,4.564462 2.307541,2.239102 3.466063,1.7172 3.466063,-1.561529 z m 14.80962,0.05266 c 1.720939,-2.012109 0.72701,-4.256705 -1.88487,-4.256705 -1.07745,0 -1.78378,1.189079 -1.78378,3.002933 0,3.373976 1.43563,3.864598 3.66865,1.253772 z m 7.240229,-0.578151 c 0.30925,-0.900843 -0.15487,-1.351288 -1.08316,-1.051022 -0.89356,0.289189 -1.86841,1.234977 -2.16629,2.102044 -0.30972,0.900889 0.15486,1.351334 1.08315,1.051022 0.89362,-0.289188 1.86845,-1.234931 2.1663,-2.102044 z"
       id="path1" /></g></svg>
