<?xml version="1.0" encoding="UTF-8" standalone="no"?>
<!-- Created with Inkscape (http://www.inkscape.org/) -->

<svg
   width="180mm"
   height="180mm"
   viewBox="0 0 180 180"
   version="1.1"
   id="svg8"
   inkscape:version="1.4.2 (f4327f4, 2025-05-13)"
   sodipodi:docname="cave.svg"
   xml:space="preserve"
   xmlns:inkscape="http://www.inkscape.org/namespaces/inkscape"
   xmlns:sodipodi="http://sodipodi.sourceforge.net/DTD/sodipodi-0.dtd"
   xmlns="http://www.w3.org/2000/svg"
   xmlns:svg="http://www.w3.org/2000/svg"
   xmlns:rdf="http://www.w3.org/1999/02/22-rdf-syntax-ns#"
   xmlns:cc="http://creativecommons.org/ns#"
   xmlns:dc="http://purl.org/dc/elements/1.1/"><defs
     id="defs2" /><sodipodi:namedview
     id="base"
     pagecolor="#000000"
     bordercolor="#666666"
     borderopacity="1.0"
     inkscape:pageopacity="0.0"
     inkscape:pageshadow="2"
     inkscape:zoom="0.9899495"
     inkscape:cx="60.609152"
     inkscape:cy="288.90363"
     inkscape:document-units="mm"
     inkscape:current-layer="layer1"
     showgrid="false"
     inkscape:window-width="2560"
     inkscape:window-height="1351"
     inkscape:window-x="-9"
     inkscape:window-y="-9"
     inkscape:window-maximized="1"
     inkscape:showpageshadow="0"
     inkscape:pagecheckerboard="1"
     inkscape:deskcolor="#505050" /><metadata
     id="metadata5"><rdf:RDF><cc:Work
         rdf:about=""><dc:format>image/svg+xml</dc:format><dc:type
           rdf:resource="http://purl.org/dc/dcmitype/StillImage" /></cc:Work></rdf:RDF></metadata><g
     inkscape:label="Layer 1"
     inkscape:groupmode="layer"
     id="layer1"
     transform="translate(-142.727,-111.99871)"><g
       id="g1088-9"
       transform="translate(-26.446142,-18.272158)" /><path
       style="fill:#000000;stroke-width:2.09951"
       d="m 163.52529,281.24809 c -3.31383,-1.23469 -6.59347,-4.04832 -7.9014,-6.77872 -1.25183,-2.61325 -1.26444,-2.86886 -1.53152,-31.05908 -0.14808,-15.63329 -0.0883,-31.83954 0.13283,-36.01388 l 0.40224,-7.58973 3.1989,-3.30375 c 1.7594,-1.81706 3.58584,-3.30373 4.05874,-3.30373 0.47292,0 1.66441,-1.19364 2.64776,-2.65253 1.35876,-2.01582 9.02715,-12.54416 10.23677,-14.05458 0.10296,-0.12853 1.24347,0.52792 2.53465,1.45867 1.29115,0.93076 3.20811,2.13772 4.25992,2.68212 l 1.91236,0.98982 1.40314,-1.88591 c 0.77173,-1.03726 2.42827,-3.01861 3.6812,-4.403 2.59497,-2.86722 3.61157,-4.78796 6.55924,-12.39296 1.97235,-5.08869 2.30496,-5.57748 5.62518,-8.26625 l 3.52889,-2.85775 2.33227,2.02063 c 2.08399,1.80551 2.39111,1.91927 2.88487,1.06854 0.30392,-0.52365 1.46231,-2.36199 2.57423,-4.08521 1.1119,-1.72323 2.9374,-5.44903 4.05669,-8.27955 1.77795,-4.49625 2.32536,-5.33316 4.33306,-6.62456 1.2639,-0.81297 3.23669,-2.64339 4.38396,-4.06759 1.14726,-1.4242 3.57613,-4.22282 5.39747,-6.2192 l 3.31156,-3.62975 4.54901,4.83609 c 3.04734,3.23964 5.3846,5.19714 7.0802,5.92982 2.26147,0.97718 2.66873,1.44368 3.82205,4.37791 2.42287,6.16422 4.35087,9.42559 7.18224,12.14949 l 2.83011,2.72266 2.04001,-0.89408 c 1.12201,-0.49174 2.31206,-0.96306 2.64457,-1.04737 0.33251,-0.0844 2.98575,2.54259 5.89608,5.8376 3.9762,4.50176 5.58531,6.7921 6.47336,9.21401 0.65002,1.77267 1.95187,4.92332 2.89304,7.00144 l 1.71117,3.77838 1.98627,-0.34643 c 1.09246,-0.19058 3.28637,-0.93207 4.87537,-1.64785 l 2.88911,-1.30145 1.22971,1.77846 c 0.67634,0.97814 3.44077,4.66828 6.14321,8.20031 3.83285,5.00948 5.3869,6.61078 7.06592,7.28078 1.18382,0.47239 3.14936,1.84266 4.36783,3.04506 l 2.21542,2.18616 -0.006,38.27832 -0.006,38.2783 -1.32068,2.86639 c -1.3917,3.02052 -4.38651,5.57048 -8.00675,6.81747 -2.70745,0.93256 -136.06714,0.84256 -138.57957,-0.0935 z m 77.11705,-8.96061 c 3.73356,-3.79839 4.2641,-4.14292 6.85748,-4.45332 3.19385,-0.38227 6.63449,-2.75678 6.93196,-4.78399 0.19799,-1.34923 2.74204,-3.16137 5.20608,-3.70828 1.29537,-0.28753 1.50054,-0.55424 1.19562,-1.55434 -1.20185,-3.94191 -2.95354,-5.47775 -7.15446,-6.27281 -1.20517,-0.22809 -2.99139,-0.75223 -3.96937,-1.16472 -0.97799,-0.41251 -2.9284,-0.75002 -4.33426,-0.75002 -2.07703,0 -2.60937,-0.20578 -2.84034,-1.09834 -0.31624,-1.22209 -0.69587,-1.37931 -5.35209,-2.21626 -1.78924,-0.32163 -3.52988,-0.80546 -3.8681,-1.07521 -0.33819,-0.26975 -1.60956,-0.80221 -2.82524,-1.18325 -1.2157,-0.38107 -2.45901,-1.00126 -2.76293,-1.37825 -0.30392,-0.37699 -0.92558,-0.81585 -1.38146,-0.97522 -0.56026,-0.19586 0.10693,-0.88296 2.05887,-2.12018 1.58827,-1.00672 2.77635,-2.01252 2.64023,-2.23514 -0.13617,-0.22261 0.76994,-0.80865 2.01354,-1.30232 1.6197,-0.64294 2.16948,-1.13884 1.93812,-1.74815 -0.22546,-0.59372 0.13011,-0.95987 1.17712,-1.21248 0.82504,-0.19903 1.76077,-0.56726 2.0794,-0.81825 0.94617,-0.74535 4.61269,-0.78803 5.33105,-0.062 0.51879,0.52427 0.46856,0.67241 -0.22792,0.67241 -0.49132,0 -1.40349,0.69104 -2.02706,1.53568 -0.87796,1.18918 -1.13769,1.31518 -1.15124,0.55841 -0.028,-1.56128 -0.86306,-1.17369 -4.46074,2.0704 -1.85889,1.6762 -3.85759,3.20086 -4.44154,3.38817 -0.58396,0.18721 -1.06173,0.59634 -1.06173,0.90898 0,0.36744 1.41663,0.43742 4.00621,0.19798 2.26933,-0.20979 4.60518,-0.13381 5.3877,0.1756 1.4414,0.56983 1.41876,0.59406 -1.38147,1.47812 -1.29769,0.40971 -0.97136,1.8148 0.50868,2.19019 1.62638,0.41251 3.08313,-0.0838 3.08313,-1.05044 0,-0.94182 1.40285,-1.25412 4.313,-0.96014 2.29328,0.23166 2.34493,0.27832 1.43396,1.29556 -0.89797,1.00275 -0.88753,1.05527 0.20984,1.05527 1.86973,0 3.98971,-1.02357 3.98971,-1.92633 0,-0.95409 2.19172,-2.22212 4.8351,-2.7974 2.79101,-0.60741 2.22634,-1.63036 -0.67789,-1.22808 -2.09753,0.29052 -2.56228,0.1756 -3.05559,-0.75597 -0.32,-0.60422 -1.32043,-1.48458 -2.22317,-1.95636 -2.07539,-1.08456 -2.07282,-2.15425 0.0104,-4.25934 1.63334,-1.65062 3.51454,-1.78012 2.17562,-0.14985 -0.52248,0.63617 -0.42123,0.78792 0.52574,0.78792 0.87506,0 1.17284,0.34605 1.17284,1.3631 0,2.32824 0.97792,2.10566 1.20246,-0.2737 0.1558,-1.65064 -0.051,-2.49608 -0.77112,-3.15477 -2.17984,-1.99359 -0.53802,-6.17694 3.12812,-7.97045 2.97382,-1.45482 3.54022,-1.2578 2.22325,0.77336 -0.6051,0.93327 -1.4519,1.45243 -2.39263,1.46687 l -1.45604,0.0224 1.51959,0.83311 c 1.19937,0.65753 1.51962,1.23429 1.51962,2.73681 0,1.04702 0.24866,2.059 0.55258,2.2488 0.33775,0.21106 0.55257,-0.65223 0.55257,-2.22037 0,-2.58561 1.3562,-5.5726 2.27079,-5.00137 0.62278,0.38895 0.5742,-4.12952 -0.0603,-5.622 -0.40221,-0.94587 -0.48086,-0.84798 -0.51375,0.63938 -0.0359,1.62555 -0.19925,1.77169 -2.19507,1.96402 l -2.15621,0.2079 -0.35732,-2.80167 c -0.7075,-5.54743 -1.28921,-6.83376 -3.97023,-8.77946 -1.54002,-1.11766 -3.05095,-2.87292 -3.8574,-4.4812 -1.56193,-3.11492 -2.74977,-3.9688 -6.84303,-4.91921 -1.67158,-0.38814 -5.11895,-1.43165 -7.66084,-2.31892 -5.44948,-1.9022 -6.36648,-1.745 -11.81551,2.02548 -1.90181,1.31597 -5.00218,3.18048 -6.88971,4.14337 -1.8875,0.96288 -3.66296,2.19162 -3.94545,2.73052 -0.28249,0.53891 -0.78983,2.79134 -1.12746,5.0054 -0.33761,2.21408 -0.90796,4.67793 -1.26745,5.47524 l -0.6536,1.44965 -0.72663,-1.28705 c -0.62969,-1.11529 -0.68393,-0.69087 -0.40643,3.18033 0.23496,3.27777 0.74078,5.3596 1.89952,7.81794 2.13934,4.53867 2.53933,6.72979 1.31519,7.20448 -1.15498,0.44791 -3.53439,-1.64828 -3.53439,-3.11365 0,-0.56072 -0.24868,-1.0195 -0.5526,-1.0195 -0.89098,0 -0.64238,3.19622 0.27631,3.55249 1.67245,0.64856 0.92009,2.03175 -1.10518,2.03175 -2.0248,0 -2.38258,-0.44019 -1.27093,-1.56358 0.432,-0.4366 0.45558,-0.67011 0.0677,-0.67011 -0.3275,0 -0.89118,0.36011 -1.25266,0.80027 -0.5205,0.63378 -0.44099,1.01877 0.3822,1.85066 1.01747,1.02823 0.98038,1.11698 -1.75894,4.20836 -1.76765,1.99484 -3.58703,3.4332 -4.93973,3.90525 -1.89374,0.66086 -9.42906,6.48767 -8.97863,6.94285 0.17251,0.17434 5.49556,-2.20093 11.36159,-5.06963 1.65247,-0.80812 3.10208,-1.4693 3.22135,-1.4693 0.11925,0 -1.28673,1.68355 -3.12442,3.74124 -1.8377,2.05766 -3.2319,3.85174 -3.09824,3.98684 0.13367,0.13507 1.12013,-0.43046 2.19214,-1.25675 2.05459,-1.58367 2.29025,-1.38734 1.4051,1.17066 -0.49073,1.41814 -0.36902,1.35644 1.24331,-0.63018 0.98302,-1.2112 3.07507,-3.63965 4.64903,-5.39654 1.57396,-1.75691 3.55539,-4.25362 4.40318,-5.54827 1.01225,-1.54578 2.35366,-2.70572 3.9074,-3.37876 1.30128,-0.56369 2.36598,-1.28513 2.36598,-1.60317 0,-0.31805 0.90075,-0.57826 2.00171,-0.57826 1.75965,0 1.91428,-0.10637 1.27883,-0.8802 -0.93734,-1.14138 -0.15726,-1.66488 3.30373,-2.21688 l 2.53335,-0.40405 -1.58826,-0.67908 -1.58829,-0.67906 1.31198,-0.35487 c 1.73036,-0.46802 5.38506,-0.37127 7.11411,0.18826 1.27959,0.41412 1.23882,0.45409 -0.55257,0.542 -1.06372,0.0521 -2.42503,0.28879 -3.02512,0.52576 -0.98239,0.38793 -0.92734,0.48626 0.55258,0.98697 l 1.64367,0.55614 -2.21035,0.3996 c -1.21567,0.21979 -2.69198,0.5437 -3.28064,0.71981 -1.04052,0.31129 -1.04164,0.34141 -0.0403,1.08131 1.23589,0.91327 1.33656,0.83115 -2.62243,2.13912 -1.74929,0.57794 -3.94734,1.52204 -4.88455,2.09802 -2.3077,1.41822 -1.53439,2.24363 3.61566,3.85917 2.41201,0.75664 3.95769,1.52863 3.81469,1.90522 -0.14557,0.3832 1.02308,0.91947 2.96006,1.35839 7.01761,1.59019 9.86223,2.38202 10.51458,2.9268 0.3757,0.31376 2.45884,1.48492 4.62921,2.60258 2.17035,1.11767 3.94245,2.28341 3.93798,2.59054 -0.0125,0.88478 -7.19916,4.62348 -11.65486,6.06355 -3.9739,1.28433 -4.022,1.32187 -2.21033,1.72546 2.33305,0.51973 1.79587,0.69385 -3.56219,1.15467 -3.59764,0.30944 -4.20349,0.49909 -3.66988,1.14886 0.51012,0.62114 0.34818,0.89279 -0.8024,1.34589 -0.79284,0.31224 -2.12533,0.8421 -2.96113,1.17749 -0.83577,0.33542 -3.75755,1.05892 -6.49284,1.60782 -4.98094,0.99953 -5.15878,1.2937 -1.18686,1.96305 1.17077,0.19734 2.01209,0.47655 1.86959,0.62053 -0.14244,0.14394 -2.71669,0.63596 -5.72044,1.09326 -3.00377,0.4573 -6.7047,1.18034 -8.2243,1.60674 -2.50785,0.70373 -1.05275,0.7799 15.76247,0.82522 l 18.52537,0.05 z m -14.97911,-0.9253 c 2.28524,-2.10072 3.61395,-2.09646 5.10268,0.0169 l 1.18042,1.67527 -4.04387,-0.0169 -4.04384,-0.0169 z m 8.54056,-2.86758 c 0.11801,-0.35762 0.7097,-0.98254 1.31499,-1.38868 0.92686,-0.6219 1.29412,-0.60138 2.32743,0.13002 0.67482,0.47764 1.08377,1.10254 0.90879,1.38867 -0.47919,0.78353 -4.81173,0.65975 -4.55121,-0.13001 z m 7.33993,-4.37953 c 0.18922,-0.30933 1.03709,-0.92463 1.88427,-1.36736 1.35122,-0.70614 1.68724,-0.70095 2.73711,0.0422 1.73053,1.22491 0.95737,1.88755 -2.20241,1.88755 -1.71425,0 -2.63237,-0.21346 -2.41897,-0.56238 z m 8.26398,-5.32634 c 1.18327,-0.90418 2.04195,-0.83214 2.38234,0.19987 0.14035,0.42555 -0.44116,0.65677 -1.62323,0.64537 -1.74701,-0.0169 -1.78613,-0.0604 -0.75911,-0.84516 z m 0.85121,-3.60447 c 0,-0.30715 0.37299,-0.55844 0.82887,-0.55844 0.4559,0 0.82888,0.25129 0.82888,0.55844 0,0.30713 -0.37298,0.55841 -0.82888,0.55841 -0.45588,0 -0.82887,-0.25128 -0.82887,-0.55841 z m -3.03921,-2.23371 c -0.18776,-0.30713 0.0462,-0.55842 0.51998,-0.55842 0.47382,0 0.86148,0.25129 0.86148,0.55842 0,0.30713 -0.23399,0.55844 -0.51997,0.55844 -0.28598,0 -0.67365,-0.25131 -0.86149,-0.55844 z m -15.3342,-6.51249 c 0.3799,-0.15491 1.00157,-0.15491 1.38147,0 0.37989,0.15492 0.0691,0.28166 -0.69074,0.28166 -0.75979,0 -1.07063,-0.12685 -0.69073,-0.28166 z m -6.49284,-1.3384 c 0,-0.32526 0.24865,-0.43607 0.55257,-0.24626 0.30392,0.18974 0.5526,0.45595 0.5526,0.59138 0,0.1355 -0.24868,0.24626 -0.5526,0.24626 -0.30392,0 -0.55257,-0.26612 -0.55257,-0.59138 z m -3.86808,-3.31758 c 0,-0.30715 0.37298,-0.55843 0.82886,-0.55843 0.45588,0 0.82889,0.25128 0.82889,0.55843 0,0.30713 -0.37301,0.55842 -0.82889,0.55842 -0.45588,0 -0.82886,-0.25129 -0.82886,-0.55842 z m 24.99727,-0.81529 c 0.22775,-1.20407 0.0585,-1.6189 -0.74716,-1.83184 -1.37276,-0.36276 -1.32518,-1.05664 0.0982,-1.43281 1.48327,-0.39197 4.70299,0.97876 5.16658,2.19961 0.39095,1.02954 -0.48474,1.85792 -1.97869,1.87176 -0.50701,0.004 -1.35193,0.17539 -1.87761,0.37921 -0.80079,0.31055 -0.90804,0.11819 -0.66134,-1.18593 z m -3.03209,0.43034 c -0.53186,-0.14056 -0.96702,-0.61388 -0.96702,-1.05206 0,-1.19882 2.08654,-0.95706 2.76292,0.32016 0.62041,1.1715 0.32481,1.29197 -1.7959,0.7319 z m 1.53789,-5.21971 c 0.99649,-1.11274 1.91929,-1.43988 1.91144,-0.67762 -0.002,0.23035 -0.65433,0.72376 -1.44882,1.09644 -1.41249,0.6626 -1.42275,0.65331 -0.46262,-0.41882 z m -31.47312,-2.02373 c -0.17523,-0.46162 -0.31871,-1.28597 -0.31871,-1.8319 0,-0.5459 -0.74599,-2.40527 -1.65775,-4.13194 -1.94279,-3.67916 -2.09554,-6.31994 -0.56293,-9.73221 0.58881,-1.31097 1.34224,-3.94951 1.67429,-5.86347 0.91562,-5.27769 1.0198,-5.46215 3.77852,-6.69017 1.4135,-0.62923 4.36796,-2.36746 6.56549,-3.86278 6.16146,-4.1926 5.98902,-4.16903 13.36486,-1.82665 10.60382,3.36752 9.99707,3.05207 11.58479,6.02284 0.82814,1.54952 2.5457,3.52249 4.01607,4.61328 2.3908,1.7736 2.61136,2.15091 3.17737,5.43552 0.89169,5.17457 0.78812,6.2619 -0.68967,7.2404 -0.77189,0.5111 -1.58641,1.90083 -2.00983,3.42914 -0.68962,2.48911 -1.66886,3.92313 -1.66234,2.43435 0.002,-0.40205 0.24391,-2.21641 0.53812,-4.03195 0.51131,-3.15538 -0.11591,-8.15508 -1.02136,-8.14149 -0.19194,0.002 -0.39356,3.04624 -0.44824,6.76303 -0.0896,6.09506 -0.21737,6.88469 -1.30214,8.05158 -2.31584,2.49114 -3.77956,0.0648 -1.62824,-2.69898 0.95391,-1.22553 1.0586,-1.9005 0.7263,-4.68232 -0.30377,-2.54308 -0.46941,-2.94658 -0.76122,-1.85431 -0.20509,0.76782 -0.25486,2.07377 -0.11048,2.90206 0.17376,0.99744 -0.1322,2.01288 -0.90593,3.00703 -0.64261,0.82557 -1.16837,1.8441 -1.16837,2.26336 0,1.00736 -1.0571,0.98026 -1.44339,-0.0369 -0.16687,-0.43962 0.25833,-1.5673 0.94505,-2.50594 1.17209,-1.60209 1.20964,-1.91805 0.6131,-5.15969 -0.34951,-1.8992 -0.9279,-3.7242 -1.28531,-4.05554 -0.48067,-0.4456 -0.56993,-0.37082 -0.34282,0.28723 0.16896,0.48934 0.4833,2.31543 0.69875,4.05801 0.3447,2.78818 0.23477,3.4012 -0.91644,5.10954 l -1.30816,1.94123 -8.08255,0.004 -8.08258,0.004 -1.17319,-2.75603 c -0.64529,-1.51582 -1.17322,-3.91791 -1.17322,-5.33799 0,-1.5791 -0.21464,-2.4479 -0.5526,-2.23682 -0.98228,0.61351 -0.57691,4.39113 0.78944,7.35676 1.12927,2.45104 1.20542,2.93816 0.50199,3.21093 -1.28464,0.49818 -1.84288,0.38497 -1.85628,-0.37646 -0.0146,-0.81483 -2.16752,-3.74189 -2.18577,-2.97136 -0.006,0.28531 0.29124,1.36702 0.66222,2.4038 0.56348,1.57477 0.54076,1.9705 -0.13805,2.40439 -0.44696,0.28565 -0.95962,0.52322 -1.13924,0.52792 -0.3073,0.008 -2.55171,-5.51203 -3.74285,-9.20543 l -0.54027,-1.67527 -0.0436,1.72744 c -0.024,0.9501 0.45371,3.18824 1.06154,4.97364 1.48,4.34714 1.41453,5.08677 -0.51018,5.76484 -1.29251,0.45533 -1.67901,0.40132 -1.93404,-0.27026 z m 1.03189,-19.02458 c 0.2776,-0.73681 0.2124,-0.82843 -0.25566,-0.35927 -1.3555,1.35871 -2.09151,7.82168 -1.23194,10.81794 0.26908,0.93794 0.51774,-0.38674 0.75775,-4.0368 0.19653,-2.98807 0.5249,-5.87792 0.72985,-6.42187 z m 6.06575,6.9313 c 0.47981,-2.0908 0.87241,-4.41336 0.87241,-5.16125 0,-2.0255 3.52021,-5.5959 7.38526,-7.49057 2.3129,-1.13378 2.98631,-1.66636 2.11936,-1.67611 -2.6061,-0.0293 -8.42629,4.04032 -9.90196,6.92364 -0.45964,0.89808 -0.92479,2.40583 -1.03366,3.35055 -1.09864,9.5327 -0.94862,10.6214 0.55859,4.05374 z m 6.21754,-6.63205 c 0.55527,-0.62061 2.12856,-1.72879 3.4962,-2.46266 2.07338,-1.11253 2.21114,-1.27629 0.82886,-0.98545 -4.33951,0.91312 -7.48238,4.79642 -7.39734,9.14013 0.0351,1.79592 0.1203,1.69005 1.0505,-1.30457 0.55671,-1.79249 1.46651,-3.76683 2.02178,-4.38745 z m -9.45617,0.32079 c 0.7318,-3.5345 1.05585,-4.08574 4.52185,-7.69177 3.67474,-3.82323 3.0197,-3.89915 -1.67077,-0.19354 -2.76536,2.18466 -3.69009,4.14433 -4.08897,8.66536 -0.41075,4.65554 0.19109,4.27637 1.23789,-0.77999 z m 36.16088,1.77261 c 0,-1.84177 -0.35125,-2.88579 -1.36213,-4.04855 l -1.3621,-1.56681 1.08581,2.93771 c 0.59721,1.61574 1.08584,3.43761 1.08584,4.04858 0,0.61097 0.12426,1.11086 0.27629,1.11086 0.15204,0 0.27629,-1.11681 0.27629,-2.48179 z m -6.82263,-1.2617 c -2.26824,-4.43266 -6.57375,-6.87268 -11.96521,-6.78091 l -3.59181,0.0612 3.79933,0.44567 c 5.59084,0.65582 8.4538,2.35103 10.53051,6.23522 1.6631,3.11065 2.81777,3.14725 1.22718,0.0388 z m -5.118,-0.96 c -0.46261,-1.21822 -3.73001,-2.5615 -6.10186,-2.50855 -2.08606,0.0466 -2.07025,0.0614 0.82496,0.76922 1.62345,0.39696 3.35522,1.12946 3.84834,1.62779 1.10659,1.11829 1.83235,1.17496 1.42856,0.11165 z m 6.03594,-4.81478 c -2.58335,-4.41948 -6.54798,-6.12215 -14.22491,-6.10907 -2.75712,0.004 -5.30724,0.19776 -5.66693,0.42883 -0.35968,0.23115 1.62962,0.43963 4.42066,0.46332 6.80733,0.0578 10.637,1.31248 13.73156,4.49893 1.29172,1.33008 2.4352,2.41832 2.54104,2.41832 0.10589,0 -0.25477,-0.76515 -0.80142,-1.70033 z m 10.93222,62.56853 c 7.07291,-3.49537 7.47958,-3.51874 7.28857,-0.41882 l -0.1462,2.3733 0.88452,-2.42216 c 0.4865,-1.33218 0.67006,-2.61241 0.40793,-2.84496 -0.26213,-0.23254 -2.03884,-0.99813 -3.94823,-1.70129 -1.90942,-0.70318 -3.37448,-1.37671 -3.25571,-1.49674 0.11883,-0.12009 2.11979,0.20451 4.44672,0.72123 l 4.23074,0.93948 3.31379,-1.44495 3.31379,-1.44494 1.42117,2.05505 1.42118,2.05505 -0.38771,-1.95448 c -0.64017,-3.2271 -1.09387,-3.62235 -5.7036,-4.96841 l -4.42596,-1.29243 -4.87206,1.89734 -4.87207,1.89735 -2.05045,3.8856 c -2.03051,3.84779 -3.33948,6.95691 -2.92892,6.95691 0.11696,0 2.75509,-1.25645 5.86254,-2.79213 z m -81.34964,-0.57275 c -2.65562,-3.18271 -3.37835,-3.47372 -7.9699,-3.20924 l -3.29249,0.18974 1.79591,0.73396 c 0.98773,0.40367 1.79588,1.05972 1.79588,1.45788 0,0.39816 0.55949,0.72196 1.24331,0.71954 0.68384,-0.002 2.85962,0.63931 4.83512,1.42605 1.97547,0.78672 3.66875,1.44351 3.76284,1.45951 0.094,0.0169 -0.88273,-1.2338 -2.17067,-2.77735 z m 68.21668,2.23947 c 1.7339,-0.0127 2.67022,-0.77827 2.2629,-1.85097 -0.54631,-1.4387 -2.07546,-1.11057 -3.86244,0.82882 -1.15242,1.25071 -1.32952,1.6555 -0.61079,1.39606 0.55672,-0.20092 1.55137,-0.3692 2.21033,-0.37391 z m 34.95165,-0.82219 c 0.63309,-0.41148 2.31158,-0.92401 3.72994,-1.13896 1.41837,-0.21494 2.57793,-0.55073 2.57678,-0.74621 -0.001,-0.19544 -1.10052,-0.81188 -2.44305,-1.36977 -2.19846,-0.91356 -2.59632,-0.93216 -4.00419,-0.18721 -0.85973,0.45492 -2.43348,1.75919 -3.4972,2.89842 l -1.93404,2.07132 2.21033,-0.3897 c 1.21568,-0.21435 2.72832,-0.72637 3.36143,-1.13785 z m -85.14769,-5.45346 c -0.81251,-2.89335 -1.64136,-5.50102 -1.84185,-5.79481 -0.2005,-0.29381 -2.10521,-1.75254 -4.23267,-3.24166 l -3.86808,-2.70747 -3.59181,0.96593 c -1.97547,0.53127 -3.88614,1.21212 -4.24591,1.51303 -0.61659,0.5157 -2.53271,7.7682 -2.1536,8.15133 0.0971,0.0981 0.74524,-1.27547 1.44019,-3.05253 0.69497,-1.77704 1.42165,-3.41737 1.61483,-3.64514 0.19319,-0.22777 2.0133,0.75512 4.04468,2.18418 l 3.6934,2.59831 2.23132,-0.88575 2.23131,-0.88575 -1.12063,1.43971 c -1.0578,1.35901 -1.06962,1.52101 -0.2106,2.88977 1.516,2.41557 3.15045,4.01734 5.18444,5.08088 1.06372,0.5562 2.01689,0.93011 2.11814,0.83091 0.10129,-0.0992 -0.48067,-2.54762 -1.29316,-5.44094 z m -7.16313,1.398 c -0.3987,-3.30715 -0.99674,-4.59806 -1.64165,-3.54356 -0.35028,0.57277 1.28763,6.75449 1.78968,6.75449 0.13158,0 0.0649,-1.44492 -0.14807,-3.21093 z m 106.46361,-4.69184 c 3.59465,-2.45452 3.74511,-2.50086 3.80229,-1.17162 0.0434,1.00894 1.49884,-2.36925 1.57367,-3.65265 0.0232,-0.39652 -1.01476,-1.19546 -2.30644,-1.77542 -2.51899,-1.13108 -1.94697,-1.40176 1.33403,-0.63128 1.91443,0.44958 2.1553,0.34101 4.42066,-1.99249 2.30861,-2.37801 2.40902,-2.42125 2.75528,-1.18682 0.28558,1.01812 0.37067,0.8635 0.41444,-0.75322 0.0961,-3.55179 -2.44587,-3.65346 -8.47496,-0.33896 l -4.31705,2.3733 -2.4178,6.118 c -1.32977,3.3649 -2.41777,6.20075 -2.41777,6.30191 0,0.32094 2.38219,-1.07057 5.63365,-3.29075 z m -76.91695,0.64327 c 0.38729,-0.73132 1.15701,-1.11686 2.22977,-1.11686 2.17355,0 2.07401,-0.78066 -0.2411,-1.89085 -2.85569,-1.36944 -3.78205,-1.12242 -6.04352,1.61164 l -2.07857,2.51292 h 2.77097 c 2.20544,0 2.8917,-0.22796 3.36245,-1.11685 z m -3.28929,-7.81037 c 1.67517,-0.44584 3.34219,-1.52333 5.22333,-3.37617 1.51961,-1.49673 3.61282,-3.08005 4.65156,-3.51846 l 1.88865,-0.79714 -2.99381,-0.86907 c -5.8914,-1.71021 -5.7887,-1.70919 -7.06534,-0.069 -1.26173,1.62099 -1.55068,1.43467 -0.58959,-0.38012 0.32364,-0.61111 0.48771,-1.41128 0.36463,-1.77818 -0.12301,-0.36688 -0.74988,0.33809 -1.39288,1.56664 -1.39268,2.66093 -1.61177,2.26856 -0.29333,-0.52543 0.91595,-1.9411 0.91054,-1.9725 -0.58107,-3.36947 -0.82809,-0.77558 -1.5986,-1.41012 -1.71224,-1.41012 -0.48251,0 -7.50003,10.71635 -9.87336,15.07744 l -2.58313,4.74659 3.91361,-4.08766 c 2.57724,-2.6919 4.68406,-4.3624 6.16992,-4.89218 1.24097,-0.44248 2.33614,-0.72382 2.4337,-0.62524 0.0975,0.0986 -0.24806,0.79234 -0.76805,1.54163 -0.52,0.7493 -2.40915,3.62399 -4.19813,6.38818 l -3.25268,5.02581 4.09888,-3.99657 c 3.08274,-3.0058 4.70885,-4.15894 6.55933,-4.65142 z m -44.28777,3.5505 c -0.81351,-3.36743 -1.08961,-3.72264 -4.9552,-6.37547 l -3.12056,-2.14154 1.69549,-6.03648 c 0.93251,-3.32009 1.77247,-6.14647 1.86658,-6.2809 0.0942,-0.13444 1.23209,0.80793 2.52888,2.0941 2.62797,2.60639 3.03195,2.71492 5.43398,1.45965 2.41867,-1.26396 2.55777,-0.59533 0.18441,0.88693 -1.63805,1.02308 -1.94688,1.49482 -1.68682,2.57662 1.0854,4.51474 1.08494,4.4957 0.0792,3.27872 -0.9051,-1.09508 -0.91577,-1.08963 -0.54728,0.27921 0.20677,0.76782 0.84121,2.32839 1.41006,3.46791 0.56884,1.1395 1.03427,2.45878 1.03427,2.93172 0,1.04894 0.8812,1.13832 1.26473,0.12832 0.15288,-0.40238 1.7957,-1.19602 3.65092,-1.76368 1.8552,-0.56764 3.3731,-1.33513 3.3731,-1.70554 0,-0.37038 -0.86922,-3.28328 -1.9316,-6.47306 -1.0624,-3.1898 -1.93272,-5.83381 -1.93406,-5.8756 -0.001,-0.0418 -1.68554,-1.08644 -3.74268,-2.32149 l -3.74026,-2.24552 -3.28635,0.66527 c -3.17555,0.64284 -3.3075,0.73993 -3.91408,2.87993 -0.34528,1.21805 -0.96473,4.32932 -1.37656,6.91396 -0.66713,4.18679 -0.91681,4.79582 -2.28925,5.58423 -1.0681,0.61357 -1.64088,1.48424 -1.8679,2.8394 -0.18003,1.07498 -0.45669,2.42571 -0.61468,3.00167 -0.51399,1.87379 0.826,0.42427 1.49146,-1.61337 0.34966,-1.0707 0.86042,-1.94671 1.13502,-1.94671 0.27459,0 2.0975,0.79647 4.05092,1.76991 3.0799,1.53481 3.71763,2.12801 4.80112,4.46577 0.68722,1.48272 1.34283,2.6015 1.45694,2.48618 0.11403,-0.11524 -0.0883,-1.43385 -0.44974,-2.9301 z m 121.1773,-12.10543 4.03775,-3.82013 -3.3155,1.80492 c -1.82352,0.99271 -3.63233,2.05216 -4.01958,2.35435 -0.38725,0.3022 -0.78739,0.4508 -0.88922,0.33025 -0.10171,-0.12052 0.0576,-2.34275 0.35444,-4.93823 l 0.53956,-4.71904 -1.54284,-1.24322 c -0.84856,-0.68378 -2.49403,-1.67668 -3.65657,-2.20646 -1.16257,-0.52978 -2.11376,-1.14965 -2.11376,-1.37749 0,-0.57494 4.1801,0.42948 6.21671,1.49376 l 1.67993,0.87792 2.26611,-2.70878 c 1.24636,-1.48984 3.15111,-3.68081 4.23281,-4.86885 l 1.96673,-2.16005 0.99114,5.78982 c 0.69378,4.05263 1.33186,6.16316 2.1267,7.03411 0.62455,0.68438 1.31735,2.19212 1.53954,3.35055 l 0.404,2.10623 0.0635,-2.57721 c 0.0426,-1.72843 -0.27188,-3.01578 -0.95499,-3.90896 -0.56383,-0.73724 -1.31663,-3.23129 -1.68632,-5.58691 -1.18875,-7.57482 -0.94766,-7.21138 -5.89012,-8.87868 l -4.39073,-1.48116 -5.91567,5.58489 -5.91569,5.58491 -1.07769,4.79392 c -0.59274,2.63666 -1.23476,5.72575 -1.42674,6.86462 -0.23784,1.41079 -0.94285,2.56749 -2.21237,3.62975 -1.51757,1.26979 -1.97485,2.17242 -2.46448,4.86457 -0.33063,1.81801 -0.53965,3.35265 -0.46448,3.41029 0.0752,0.0576 1.70328,0.6311 3.618,1.27432 2.54551,0.85517 3.54081,0.98921 3.70265,0.49869 0.81203,-2.46108 1.58793,-6.17756 1.8888,-9.04723 l 0.35128,-3.35054 1.61619,4.74661 c 0.88891,2.61064 1.70853,4.30684 1.82137,3.76936 0.11278,-0.53748 0.43558,-0.97724 0.71721,-0.97724 0.28164,0 0.52965,2.07314 0.55109,4.607 l 0.0391,4.60699 1.58718,-5.85378 1.5872,-5.85377 z m -63.10114,8.65896 c 1.36764,-0.46701 2.99945,-1.07734 3.62625,-1.3563 0.6268,-0.27893 2.68095,-0.55274 4.56476,-0.60848 2.87084,-0.0848 3.26765,-0.21118 2.45216,-0.78028 -0.53514,-0.37345 -1.22163,-0.88914 -1.52555,-1.146 -1.00159,-0.84647 -5.66507,-1.92401 -6.77969,-1.56649 -0.60132,0.1929 -2.42836,1.90184 -4.06009,3.79771 -1.7449,2.02736 -2.51329,3.25386 -1.86564,2.978 0.60564,-0.25795 2.22014,-0.85113 3.5878,-1.31816 z m 35.2997,-11.25852 c 0.95091,-1.56177 1.45378,-2.91615 1.15256,-3.10428 -1.03905,-0.64896 -0.49232,-1.5475 3.42713,-5.63238 2.17881,-2.27075 3.80841,-4.12865 3.62132,-4.12865 -0.18713,0 -3.44726,1.89235 -7.24485,4.2052 -4.33294,2.63892 -7.7424,5.16697 -9.15384,6.78739 -1.23704,1.42021 -2.17029,2.66188 -2.0739,2.75931 0.0965,0.0973 2.15087,-0.56876 4.56551,-1.48034 2.41463,-0.9116 4.56572,-1.65837 4.78017,-1.65948 0.21447,-0.001 0.028,1.03473 -0.41444,2.30188 -1.30881,3.74876 -0.96418,3.73627 1.34034,-0.0488 z m -70.17017,-10.07318 2.8185,-4.74661 0.0188,3.62975 c 0.0188,3.62537 0.0209,3.62824 1.05666,2.37331 1.39639,-1.69157 1.58989,-1.6024 1.81789,0.83762 l 0.1957,2.0941 1.06607,-2.23369 c 1.22466,-2.56602 1.42167,-8.03025 0.37867,-10.50319 l -0.66151,-1.56841 -1.40007,1.56841 c -1.23886,1.38781 -1.16295,1.07317 0.65923,-2.7325 l 2.05931,-4.30092 0.62476,1.788 c 0.34362,0.9834 1.14201,2.63242 1.7742,3.66449 l 1.14945,1.87649 0.58812,-2.99334 c 0.32347,-1.64634 0.64957,-4.63678 0.72467,-6.64541 0.11404,-3.04964 -0.0725,-3.94883 -1.13101,-5.45104 l -1.26757,-1.79897 -1.7055,0.98366 c -3.47692,2.00536 -5.08738,4.26531 -7.58538,10.64461 -2.24642,5.73683 -2.56826,6.25411 -3.89118,6.25411 -0.79319,0 -1.82518,0.31412 -2.2933,0.69803 -0.89413,0.7333 -5.67246,9.3536 -5.18482,9.3536 0.15518,0 1.49466,-0.75387 2.97645,-1.67527 1.48182,-0.92139 2.84181,-1.67527 3.02222,-1.67527 0.18044,0 -0.62651,2.09785 -1.79317,4.66191 -1.16666,2.56404 -2.29059,5.20125 -2.49762,5.86044 -0.72075,2.29488 5.63541,-5.17372 8.47981,-9.96391 z m -30.41042,-7.87428 c 4.71118,-3.80305 7.89287,-5.77897 10.16068,-6.31012 1.759,-0.41198 1.80946,-0.18847 0.68482,3.03282 -1.11961,3.20681 -0.63687,3.45896 0.87306,0.45603 0.6713,-1.33509 2.07058,-3.77414 3.10951,-5.42013 1.8799,-2.97839 2.07478,-4.23849 0.44399,-2.87075 -0.47056,0.39468 -0.99649,0.57518 -1.16872,0.40112 -0.70655,-0.71401 1.34873,-3.57948 4.00188,-5.57949 2.51028,-1.8923 3.03621,-2.6702 4.64051,-6.86375 0.99516,-2.60129 1.89779,-4.64023 2.00589,-4.53099 0.26845,0.2713 -1.22547,8.99198 -2.64779,15.45628 -0.64198,2.91774 -2.00659,7.36393 -3.03248,9.8804 -1.02588,2.51646 -1.86525,4.77191 -1.86525,5.01207 0,0.24019 1.82569,-2.72473 4.05707,-6.5887 2.23138,-3.86396 4.48586,-7.62714 5.00994,-8.36262 0.94012,-1.31928 0.94823,-1.29975 0.60436,1.45489 -0.19173,1.53568 -0.48308,3.546 -0.6475,4.4674 -0.49907,2.7967 0.74048,0.95615 2.82973,-4.20174 1.04745,-2.58593 2.18305,-6.46777 2.52358,-8.62634 0.34051,-2.15855 0.80851,-4.67852 1.03998,-5.59991 0.39274,-1.56331 0.44904,-1.47935 0.84237,1.25583 0.43236,3.0065 1.42037,4.57665 1.42668,2.26727 0.002,-0.70917 0.73856,-4.11411 1.63693,-7.56651 1.62742,-6.25411 1.62995,-6.28853 0.6872,-9.38958 l -0.9462,-3.11247 -1.79667,1.87824 c -0.98818,1.03305 -2.66099,3.49932 -3.7174,5.48063 -1.05638,1.98128 -1.92635,3.43349 -1.93326,3.22712 -0.0386,-1.15702 3.47443,-10.44173 4.60304,-12.16521 2.02228,-3.08816 4.04211,-7.3411 4.49824,-9.47143 0.34454,-1.60917 0.49302,-1.75624 0.94643,-0.9375 0.29577,0.53412 0.7315,2.64943 0.96825,4.70072 l 0.43051,3.72963 0.0727,-5.15412 c 0.0516,-3.66268 -0.19528,-5.83098 -0.85349,-7.49319 -0.81435,-2.05678 -0.84516,-2.90496 -0.25522,-7.02829 0.369,-2.57908 0.82766,-5.48126 1.01921,-6.44927 l 0.34832,-1.76001 -2.22918,1.78422 c -2.00363,1.60366 -2.52072,2.59227 -5.11005,9.76938 -2.35496,6.52753 -3.15513,8.14426 -4.38344,8.85666 -2.55238,1.48036 -4.8589,5.81893 -7.76243,14.60124 -1.5334,4.63806 -2.71821,8.50333 -2.63289,8.58953 0.0852,0.0861 1.73291,-2.10244 3.6614,-4.86364 1.92846,-2.76121 3.75977,-5.17869 4.06953,-5.37214 0.72068,-0.45013 -4.32266,9.24526 -6.78545,13.04441 -1.52101,2.34633 -2.70987,3.34854 -6.32998,5.33607 l -4.45727,2.44715 -3.3155,6.39355 c -1.82351,3.51646 -4.88081,8.46549 -6.79399,10.99785 -1.91315,2.53234 -3.31502,4.60427 -3.11523,4.60427 0.19987,0 2.26241,-1.5331 4.58364,-3.40688 z m 30.72472,-50.05982 c 0.26188,-1.77502 1.88671,-4.86326 2.32545,-4.41989 0.12217,0.12347 -0.41133,1.57616 -1.18542,3.22836 -1.1813,2.52137 -1.36448,2.71279 -1.14003,1.19153 z m 69.66237,52.37789 c -0.20342,-0.33258 -0.62785,-0.44353 -0.94321,-0.24655 -0.37126,0.23186 -0.31474,0.51966 0.16039,0.81637 0.88678,0.55386 1.29041,0.26006 0.78288,-0.56982 z m 10.72829,-7.00834 c 3.49568,3.30139 3.52878,3.31777 2.25559,1.11685 -0.71068,-1.22854 -2.136,-3.1364 -3.16737,-4.23968 -1.17209,-1.25381 -2.16127,-3.10177 -2.63807,-4.92829 -0.75036,-2.87457 -4.86895,-8.44649 -6.05236,-8.1881 -0.73775,0.16104 -1.88072,3.62435 -1.93007,5.84816 -0.0787,3.54506 2.13929,9.64189 4.58119,12.593 l 2.28406,2.76039 0.55963,-4.15645 0.55966,-4.15642 z m 5.02682,-8.12322 c -0.6173,-2.85823 -1.626,-6.55712 -2.24157,-8.21977 -0.61556,-1.66265 -0.92784,-2.93105 -0.69395,-2.81864 3.7978,1.825 4.99176,2.88202 8.51866,7.54167 2.16396,2.85895 4.00966,5.19808 4.10155,5.19808 0.24292,0 -5.59178,-9.91387 -6.44905,-10.95774 -0.39861,-0.48537 -2.00068,-1.70731 -3.56019,-2.71545 -2.98865,-1.93205 -5.37525,-4.61662 -8.82661,-9.92863 -1.15041,-1.77065 -2.17169,-3.13851 -2.26945,-3.0397 -0.0977,0.0988 1.13431,4.18608 2.73799,9.08281 1.83859,5.61404 3.55522,9.79254 4.64665,11.31062 0.95198,1.32411 2.40842,4.15269 3.23656,6.28574 0.82811,2.13306 1.59929,3.78368 1.71372,3.66804 0.11445,-0.11566 -0.29701,-2.5488 -0.91431,-5.40703 z m 23.34157,-1.7888 c -3.00776,-5.91247 -3.39578,-6.41288 -6.59149,-8.5009 l -3.39559,-2.21862 -2.6343,-6.89986 -2.63429,-6.89986 -3.96229,-2.70199 c -3.36911,-2.29747 -4.11404,-3.10597 -4.97591,-5.40052 -1.81321,-4.82736 -2.54711,-6.45356 -2.79799,-6.20002 -0.13554,0.13698 -0.0104,0.98081 0.27882,1.87523 0.28888,0.89442 1.04651,3.44807 1.68365,5.6748 0.96614,3.37661 1.35191,4.04857 2.32423,4.04857 1.97725,0 5.79583,3.38497 6.50816,5.76912 0.88513,2.96258 7.72463,19.52541 8.31707,20.14104 0.26564,0.27602 0.13179,-0.84311 -0.29721,-2.48694 -0.42909,-1.64384 -0.7136,-3.05609 -0.63224,-3.13832 0.58042,-0.58655 4.31575,3.20639 7.65786,7.7759 2.1902,2.99455 4.06434,5.44464 4.16479,5.44464 0.10046,0 -1.25552,-2.82702 -3.01327,-6.28227 z m -41.06627,0.83763 c -0.0294,-0.67036 -2.19236,-3.11745 -2.48979,-2.81686 -0.1487,0.15027 0.24864,0.93965 0.88279,1.75437 1.17243,1.50624 1.64006,1.81542 1.607,1.06249 z m -53.40795,-5.02582 c 0.94822,-2.66112 5.65085,-8.08602 9.97119,-11.50269 2.16267,-1.71029 2.44562,-2.808 1.16495,-4.51911 -0.44623,-0.5962 -0.8113,-1.59444 -0.8113,-2.21835 0,-1.12662 0.006,-1.12641 0.80685,0.0298 0.44378,0.64029 1.55046,1.4754 2.4593,1.85584 1.43273,0.59974 2.09681,0.51755 4.99526,-0.61824 3.7908,-1.48544 3.99109,-2.03267 2.53421,-6.92463 -0.44472,-1.49337 -0.73404,-2.79055 -0.64292,-2.88263 0.0911,-0.092 1.15615,1.7668 2.36673,4.13091 2.34654,4.58251 3.85319,6.09794 6.60325,6.64173 l 1.71633,0.33938 -0.26939,-4.2419 c -0.14808,-2.33305 -0.13576,-4.2419 0.0276,-4.2419 0.16333,0 0.85057,2.11752 1.52712,4.70557 1.22829,4.69878 1.23408,4.70769 3.99005,6.15266 l 2.75995,1.44705 -0.95622,-1.47479 c -0.98243,-1.51524 -0.4168,-1.43781 1.47614,0.2022 0.84649,0.73336 0.98738,0.63155 1.46976,-1.06217 0.49065,-1.72276 0.53754,-1.59497 0.58336,1.59055 0.048,3.34643 0.12469,3.52467 2.26018,5.25889 1.40976,1.14488 2.21033,2.25488 2.21033,3.06468 0,0.69831 0.24866,1.42494 0.55258,1.61477 0.30392,0.18974 0.55259,0.0789 0.55259,-0.24627 0,-1.24935 1.10712,-0.49199 2.8349,1.93933 2.42191,3.4081 2.85782,2.41397 2.08589,-4.75684 -0.33554,-3.11678 -0.49499,-5.78312 -0.35438,-5.92524 0.14056,-0.14204 0.84919,1.12694 1.57457,2.82013 0.7254,1.69317 1.47979,3.08278 1.67644,3.08803 0.72509,0.019 -1.55618,-8.77372 -2.80682,-10.81866 -1.49347,-2.44204 -1.53624,-2.4057 -3.71155,3.15334 -0.81199,2.07505 -1.56211,3.68618 -1.66692,3.58025 -0.10484,-0.10595 0.19549,-2.42967 0.66728,-5.16391 0.8835,-5.11984 0.75395,-6.51544 -1.7194,-18.52309 -0.37017,-1.79703 0.23153,-1.57158 2.91868,1.09351 4.2372,4.20246 2.49731,1.15185 -2.21197,-3.87831 -2.51974,-2.69143 -5.40723,-6.11053 -6.41662,-7.59798 l -1.83525,-2.70443 -2.09427,3.18697 c -3.00572,4.57399 -3.65434,7.28986 -2.55374,10.69264 0.47991,1.48375 1.00666,3.82857 1.17054,5.21066 0.2553,2.15304 0.0597,1.83675 -1.36588,-2.20843 -0.96921,-2.75029 -1.66385,-5.83927 -1.66385,-7.39912 0,-1.47278 -0.12782,-2.67777 -0.28408,-2.67777 -0.98345,0 -3.71927,4.11845 -4.45142,6.70108 -1.68275,5.93599 -1.91967,6.11735 -1.64131,1.25645 0.14515,-2.53385 0.13742,-4.60699 -0.0167,-4.60699 -0.81506,0 -4.5388,2.29954 -5.56371,3.43581 -1.47697,1.63739 -3.70476,6.10082 -4.69569,9.40795 l -0.75297,2.5129 -0.27629,-2.97313 -0.27629,-2.97313 -3.55062,3.11274 c -1.95286,1.712 -3.743,3.11272 -3.97812,3.11272 -0.23511,0 -1.06376,0.84305 -1.84146,1.87344 l -1.414,1.87343 1.1435,2.61237 c 1.09262,2.49614 1.10442,2.74819 0.26526,5.6653 -0.48303,1.67909 -0.94931,3.05291 -1.03619,3.05291 -0.0869,0 -0.0583,-1.44492 0.0637,-3.21093 0.12197,-1.76603 -0.0654,-3.96259 -0.41618,-4.88128 l -0.63776,-1.67033 -1.80694,2.89607 c -1.39186,2.23082 -2.01277,4.14707 -2.70304,8.34206 -0.64744,3.93463 -0.73035,5.64787 -0.29876,6.17338 0.9577,1.16618 1.29272,0.88503 2.29405,-1.92512 z m 39.7483,-23.24342 c -0.47207,-2.51486 -0.50133,-4.49365 -0.10339,-6.991 0.46534,-2.91992 0.36389,-4.38588 -0.6273,-9.06423 -0.65034,-3.06952 -1.07157,-5.693 -0.93607,-5.82993 0.13555,-0.13698 0.94196,1.07158 1.79215,2.68556 0.85019,1.61401 2.39833,3.84117 3.44031,4.94927 l 1.8945,2.01476 -0.90668,3.536 c -0.49867,1.94479 -1.38495,4.48339 -1.96952,5.64132 -0.58455,1.15795 -1.06662,2.80642 -1.07128,3.66327 -0.0167,3.18427 -0.8651,2.84521 -1.51274,-0.60502 z m -76.80299,11.65614 c 1.23132,-1.84281 2.3356,-3.46638 2.45395,-3.60793 0.11842,-0.14162 0.80921,0.48665 1.53524,1.39604 l 1.32002,1.65345 -1.06819,-4.15041 c -1.16451,-4.52462 -1.30063,-7.00862 -0.56061,-10.22901 0.26465,-1.15174 0.3049,-2.09407 0.0894,-2.09407 -0.21547,0 -2.5642,3.12824 -5.2194,6.95165 -2.6552,3.82342 -5.28939,7.09978 -5.85379,7.2808 -0.56437,0.18109 -2.04372,1.44476 -3.28743,2.80828 -1.75436,1.92337 -2.2613,2.92009 -2.2613,4.4461 0,2.34641 0.4645,2.45262 2.25216,0.51485 0.7368,-0.79866 2.52899,-2.46241 3.98265,-3.69718 l 2.643,-2.24507 -1.0983,2.81585 c -0.60406,1.54872 -1.8556,4.50368 -2.78116,6.56654 -0.92556,2.06288 -1.68285,3.8815 -1.68285,4.04138 0,0.4672 7.09009,-8.78986 9.53659,-12.45127 z m 40.89639,-16.33124 c 1.84641,-2.83949 3.43549,-5.08354 3.53126,-4.98675 0.0959,0.0969 -0.28645,1.85463 -0.84941,3.90628 -0.56296,2.05167 -0.8594,3.73032 -0.65874,3.73032 1.0514,0 6.47946,-8.54816 11.07628,-17.44298 1.05562,-2.04262 1.99661,-3.63573 2.0911,-3.54024 0.0944,0.0954 -0.58269,2.88904 -1.50485,6.20786 -0.92218,3.31885 -1.67668,6.1401 -1.67668,6.26946 0,0.83676 4.26525,-5.18591 6.62952,-9.36107 1.55934,-2.75368 3.10202,-5.17337 3.42818,-5.37708 0.32616,-0.20367 1.05071,0.23117 1.61009,0.96639 1.3129,1.72561 1.2983,1.19853 -0.0635,-2.293 -0.82774,-2.12218 -1.11129,-4.19505 -1.12959,-8.25743 l -0.0244,-5.42395 -1.06098,2.02915 c -0.58355,1.11605 -2.5659,3.40544 -4.40525,5.08753 -3.0079,2.75078 -3.50405,3.5295 -4.93346,7.74325 -1.41217,4.16293 -4.29604,11.02739 -3.72677,8.87087 0.12197,-0.4619 0.9056,-3.68056 1.74148,-7.15252 1.45328,-6.03643 1.6652,-6.48845 4.84232,-10.32865 4.45152,-5.38056 4.59897,-5.65837 5.39171,-10.15861 0.37872,-2.14992 0.80595,-4.11595 0.94939,-4.36894 0.14348,-0.25298 1.49704,0.87783 3.00799,2.51292 1.51095,1.63508 2.25938,2.219 1.66318,1.2976 -1.7513,-2.70652 -2.78143,-5.62809 -3.68878,-10.46184 -0.46843,-2.49549 -0.92878,-4.61512 -1.02299,-4.71033 -0.0942,-0.0952 -1.97264,2.10037 -4.17428,4.87907 -2.20164,2.77868 -4.9722,5.72881 -6.15682,6.55579 -1.70161,1.1879 -2.5074,2.38302 -3.83763,5.69179 -1.89396,4.71096 -2.44017,5.80696 -4.87021,9.77242 -1.34612,2.19669 -1.87861,3.98009 -2.49693,8.36264 l -0.7859,5.57052 2.41247,-2.69281 c 1.32685,-1.48105 2.41245,-2.56215 2.41245,-2.40247 0,0.15977 -0.97848,2.13152 -2.17444,4.38182 -1.4455,2.71984 -3.20534,7.75867 -5.24954,15.03067 -1.6913,6.01657 -3.06313,11.16802 -3.04851,11.44768 0.0146,0.27967 0.7845,-0.99926 1.71086,-2.84207 0.92636,-1.84279 3.19499,-5.67378 5.04142,-8.51329 z m 8.5136,-29.73875 c 0.28061,-2.58001 3.00202,-9.49319 3.73703,-9.49319 0.37659,0 -1.93008,7.79375 -3.03604,10.25819 l -1.03502,2.30634 z m 5.22032,-9.49319 c -0.0104,-1.63863 0.45423,-3.38721 1.33792,-5.02582 1.52183,-2.8219 1.45408,-2.00241 -0.34625,4.18817 l -0.97442,3.35054 z M 294.58,185.9211 c -0.77517,-1.54589 -2.2602,-4.1548 -3.30009,-5.79755 l -1.89068,-2.98684 -3.0629,0.91132 c -1.6846,0.50124 -3.06337,1.14985 -3.06394,1.44132 -5.8e-4,0.29149 1.30444,1.77094 2.90002,3.28771 l 2.90106,2.75774 0.27631,-2.17085 0.27628,-2.17088 3.03922,3.75734 c 1.67155,2.06653 3.10556,3.76274 3.18666,3.76936 0.081,0.006 -0.48677,-1.25279 -1.26194,-2.79867 z m -26.52877,-6.26369 c -0.18066,-1.61244 -0.67655,-4.56512 -1.10206,-6.56147 -0.66586,-3.12418 -1.39038,-12.28534 -0.97158,-12.28534 0.0792,0 1.29699,0.88931 2.70606,1.97626 1.40907,1.08695 2.68811,1.84876 2.84233,1.69294 0.15413,-0.15576 -1.54629,-2.49006 -3.77884,-5.18719 -2.23255,-2.69713 -4.09896,-4.97611 -4.14758,-5.0644 -0.0675,-0.12241 -2.44169,0.78184 -3.41001,1.29881 -0.0768,0.0409 0.32038,1.43502 0.88254,3.09786 0.56219,1.66284 2.3337,7.73506 3.93673,13.4938 1.60301,5.75875 3.01724,10.47045 3.1427,10.47045 0.12552,0 0.0804,-1.31928 -0.10025,-2.93172 z M 248.81096,155.9244 c -0.72266,-1.4589 -1.8714,-4.36478 -2.55271,-6.45755 -0.68134,-2.09276 -1.34736,-3.69528 -1.48008,-3.56116 -0.42007,0.4245 0.93782,7.84323 1.59985,8.74067 0.92519,1.25419 3.35245,3.93055 3.5647,3.93055 0.10025,0 -0.40907,-1.19364 -1.13176,-2.65251 z m -10.25401,-1.30447 c -0.5951,-1.35568 -1.09954,-2.01708 -1.12101,-1.46972 -0.052,1.32779 1.6791,5.31321 1.97253,4.54106 0.12678,-0.33354 -0.25644,-1.71565 -0.85152,-3.07134 z"
       id="path1" /></g></svg>
