<?xml version="1.0" encoding="UTF-8" standalone="no"?>
<!-- Created with Inkscape (http://www.inkscape.org/) -->

<svg
   width="60mm"
   height="70mm"
   viewBox="0 0 60 70"
   version="1.1"
   id="svg8"
   inkscape:version="1.4.2 (f4327f4, 2025-05-13)"
   sodipodi:docname="gravestone.svg"
   xml:space="preserve"
   xmlns:inkscape="http://www.inkscape.org/namespaces/inkscape"
   xmlns:sodipodi="http://sodipodi.sourceforge.net/DTD/sodipodi-0.dtd"
   xmlns="http://www.w3.org/2000/svg"
   xmlns:svg="http://www.w3.org/2000/svg"
   xmlns:rdf="http://www.w3.org/1999/02/22-rdf-syntax-ns#"
   xmlns:cc="http://creativecommons.org/ns#"
   xmlns:dc="http://purl.org/dc/elements/1.1/"><defs
     id="defs2" /><sodipodi:namedview
     id="base"
     pagecolor="#000000"
     bordercolor="#666666"
     borderopacity="1.0"
     inkscape:pageopacity="0.0"
     inkscape:pageshadow="2"
     inkscape:zoom="1.4"
     inkscape:cx="82.142857"
     inkscape:cy="197.85714"
     inkscape:document-units="mm"
     inkscape:current-layer="layer1"
     showgrid="false"
     width="40mm"
     inkscape:window-width="2560"
     inkscape:window-height="1351"
     inkscape:window-x="-9"
     inkscape:window-y="-9"
     inkscape:window-maximized="1"
     inkscape:showpageshadow="0"
     inkscape:pagecheckerboard="1"
     inkscape:deskcolor="#505050" /><metadata
     id="metadata5"><rdf:RDF><cc:Work
         rdf:about=""><dc:format>image/svg+xml</dc:format><dc:type
           rdf:resource="http://purl.org/dc/dcmitype/StillImage" /></cc:Work></rdf:RDF></metadata><g
     inkscape:label="Layer 1"
     inkscape:groupmode="layer"
     id="layer1"
     transform="translate(0,-234)"><path
       style="fill:#000000"
       d="m 5.3947959,294.96879 c 0.0017,-5.44994 0.199673,-6.54342 1.330729,-7.3488 l 0.784463,-0.55859 v 6.36802 6.36802 h -1.058334 -1.058333 z m 3.438108,-2.27025 v -7.0989 l 1.144643,-0.82202 c 0.6295541,-0.45211 1.4499451,-0.89865 1.8230911,-0.9923 0.373146,-0.0936 1.018916,-0.53351 1.435044,-0.97746 l 0.756597,-0.80719 -1.106748,0.62584 c -0.608712,0.34421 -1.185683,0.5469 -1.282158,0.45042 -0.09647,-0.0965 0.0078,-0.8089 0.231804,-1.58318 l 0.407214,-1.40777 -0.530688,0.64509 c -0.291878,0.35479 -0.598373,0.98351 -0.6811,1.39714 -0.154996,0.77498 -1.1982591,1.79423 -1.8365051,1.79423 -0.523278,0 -0.539732,-30.74328 -0.01669,-31.17737 0.189479,-0.15726 1.4007511,-0.32066 2.6917161,-0.36313 l 2.347208,-0.0772 0.356886,-1.57431 c 0.456483,-2.01366 1.291007,-3.42459 2.935188,-4.96253 2.359883,-2.20739 6.433682,-3.82918 10.242203,-4.07745 2.265867,-0.14771 2.310567,-0.0385 0.414172,1.01228 -0.448841,0.24869 -1.061683,0.86843 -1.361872,1.37722 -0.596391,1.0108 -2.581882,1.95216 -4.642859,2.20125 -0.600953,0.0726 -1.434391,0.41483 -1.852083,0.76044 l -0.759441,0.62838 0.983689,-0.39462 c 1.095238,-0.43937 1.762044,-0.49107 2.259609,-0.17518 0.265093,0.16829 0.253599,0.47476 -0.05644,1.50495 -0.214129,0.7115 -0.345014,1.33794 -0.290856,1.3921 0.05416,0.0541 0.534458,-0.68116 1.067335,-1.63403 0.818545,-1.4637 1.119906,-1.77445 1.94235,-2.00288 1.35793,-0.37716 1.327948,-0.39003 1.791809,0.76927 0.229442,0.57344 0.704728,1.22828 1.056191,1.45521 0.351463,0.22694 0.93668,0.6049 1.300482,0.83991 0.957064,0.61827 0.815124,0.25674 -0.429209,-1.09319 -0.84659,-0.91845 -1.120683,-1.44954 -1.224794,-2.37321 -0.161532,-1.43311 0.08679,-1.78824 1.889037,-2.70151 0.72964,-0.36973 1.63008,-0.89447 2.001,-1.16609 0.65865,-0.48232 0.73166,-0.48203 3.12967,0.0124 5.90855,1.21823 9.82913,4.57068 10.59259,9.05761 l 0.19465,1.14398 2.37457,0.0733 c 1.84612,0.0569 2.44817,0.17124 2.7053,0.51359 0.25499,0.33951 0.33073,3.68901 0.33073,14.62751 v 14.18718 l -0.76997,0.56925 c -0.42348,0.3131 -1.06411,1.19869 -1.42362,1.96799 -0.99094,2.12047 -1.11046,2.88664 -0.21785,1.39653 0.43657,-0.72881 1.15775,-1.67382 1.60261,-2.10002 l 0.80883,-0.77491 v 8.52543 8.52542 l -2.70166,-0.0754 -2.70166,-0.0754 -0.17808,-0.87333 c -0.25954,-1.27269 -0.4051,-1.28388 -1.02011,-0.0784 l -0.553,1.08398 H 29.332735 c -8.073449,0 -14.678998,-0.0497 -14.678998,-0.11036 0,-0.0607 0.237037,-0.66334 0.526749,-1.33921 l 0.526749,-1.22886 -0.725186,0.52129 c -0.398853,0.28671 -1.074884,0.88935 -1.502292,1.33921 -0.730404,0.76877 -0.893385,0.81793 -2.711979,0.81793 H 8.8329039 Z m 32.8083351,0.91687 c 0,-0.88666 0.94393,-1.97536 1.93487,-2.23162 l 0.84325,-0.21807 0.0744,-3.06965 0.0743,-3.06965 -0.7358,-0.16763 c -1.09639,-0.24978 -1.67158,-0.78329 -2.05879,-1.9096 l -0.34761,-1.01113 h -11.4488 -11.448792 l -0.203839,0.76219 c -0.27399,1.02448 -1.186801,1.95135 -2.124617,2.15733 l -0.768722,0.16884 0.07435,3.06965 0.07434,3.06965 0.84325,0.21807 c 0.99094,0.25626 1.934875,1.34496 1.934875,2.23162 v 0.62578 h 11.641665 11.64167 z m -22.4942,-1.49994 c -0.341173,-0.66875 -0.886645,-1.23051 -1.460585,-1.50421 l -0.91605,-0.43683 0.0057,-2.13381 0.0057,-2.13381 0.85417,-0.39687 c 0.483191,-0.22451 1.083995,-0.82749 1.383336,-1.38835 l 0.529167,-0.99147 10.45104,0.005 10.45104,0.005 0.39688,0.85417 c 0.21828,0.46979 0.84336,1.14201 1.38906,1.49381 l 0.99219,0.63964 v 2.07234 c 0,1.5747 -0.0867,2.07234 -0.3612,2.07234 -0.6125,0 -1.80056,1.10163 -2.18796,2.0288 l -0.36836,0.88161 H 30.001399 19.691575 Z m 0.152598,-3.72051 c 0.09857,-0.15948 0.0163,-0.45283 -0.182822,-0.65189 -0.45899,-0.45883 -1.163624,-0.0695 -0.938061,0.51829 0.185951,0.48458 0.854704,0.56429 1.120883,0.1336 z m 22.341602,-0.22357 c 0,-0.66707 -0.45365,-0.93684 -0.92191,-0.54822 -0.48174,0.39982 -0.21925,1.06177 0.42105,1.06177 0.31939,0 0.50086,-0.18607 0.50086,-0.51355 z m -10.68498,-10.80823 0.82439,-0.99348 -0.90534,-1.04732 -0.90533,-1.04732 -0.877517,1.04521 -0.877511,1.04522 0.826164,0.99559 c 0.45439,0.54757 0.885694,0.99559 0.958454,0.99559 0.0728,0 0.50327,-0.44707 0.95669,-0.99349 z m -4.196237,0.011 c 0.0597,-0.18183 -0.08304,-0.40411 -0.317206,-0.49397 -0.54216,-0.20805 -5.533333,0.15669 -5.303823,0.38758 0.175476,0.17654 3.718463,0.51449 4.871423,0.46468 0.35258,-0.0152 0.689903,-0.17647 0.749606,-0.35829 z m 11.682837,0.0453 c 0.2928,-0.29279 -0.37959,-0.40858 -2.6505,-0.45642 -2.23422,-0.0471 -2.47885,-0.004 -2.57027,0.44921 -0.0957,0.47492 0.0358,0.4912 2.50408,0.31001 1.43282,-0.10517 2.65533,-0.24143 2.71669,-0.3028 z m -11.75058,-2.22823 c 0,-0.3125 -0.45001,-0.41526 -2.116667,-0.48336 -2.30576,-0.0942 -9.231178,0.20392 -9.0457,0.38939 0.203053,0.20306 6.055983,0.55739 8.648825,0.5236 2.043312,-0.0266 2.513542,-0.107 2.513542,-0.42963 z m 16.53646,0.0311 c 1.01364,-0.15727 0.76172,-0.21264 -1.69481,-0.37248 -4.13047,-0.26876 -8.03602,-0.23229 -8.22707,0.0768 -0.47002,0.76052 0.24511,0.86852 4.47098,0.67524 2.34315,-0.10717 4.79605,-0.27799 5.4509,-0.37959 z m -17.25679,-4.67635 c 0.773312,-0.54165 0.820774,-2.09078 0.07627,-2.48923 -0.834209,-0.44646 -1.565429,-0.31551 -2.007743,0.35955 -0.524901,0.8011 -0.267129,1.97026 0.502972,2.2813 0.77104,0.31141 0.766788,0.31186 1.428505,-0.15162 z m 10.20965,-0.1365 c 0.79609,-0.6262 0.87576,-1.19553 0.28526,-2.03859 -0.45376,-0.64783 -1.65477,-0.7968 -2.18104,-0.27054 -0.5446,0.54461 -0.38511,1.98639 0.27054,2.44563 0.7482,0.52406 0.78994,0.52055 1.62524,-0.1365 z m 11.80964,0.0192 c 0.64341,-0.64342 0.68006,-1.51139 0.0913,-2.16198 -0.88232,-0.97496 -2.47253,-0.33807 -2.47253,0.99025 0,0.71558 0.84299,1.70089 1.45521,1.70089 0.21828,0 0.635,-0.23812 0.92604,-0.52916 z m -31.485418,-0.0913 c 0,-0.19572 -0.238125,-0.57136 -0.529167,-0.83475 -0.448635,-0.40601 -0.529167,-0.81491 -0.529167,-2.68684 0,-1.98357 0.05048,-2.20796 0.49677,-2.20796 0.685471,0 0.920408,0.34715 1.880147,2.77813 1.296739,3.28459 1.319212,3.30729 3.273627,3.30729 0.918277,0 1.751064,-0.0815 1.850636,-0.18104 0.09957,-0.0996 -0.166562,-0.54606 -0.59141,-0.99219 -0.424849,-0.44613 -1.147682,-1.70177 -1.606296,-2.79031 -0.458614,-1.08855 -1.006073,-2.16948 -1.216575,-2.40209 -0.475293,-0.52519 -0.486786,-0.77812 -0.03536,-0.77812 1.096917,0 2.500523,-2.90492 2.136565,-4.42186 -0.640618,-2.67002 -1.803067,-3.23721 -6.651126,-3.24524 -2.164638,-0.004 -3.50573,0.0954 -3.50573,0.25877 0,0.14552 0.238125,0.50271 0.529167,0.79375 0.496143,0.49614 0.529167,0.88194 0.529167,6.18202 0,5.25223 -0.0375,5.70054 -0.529167,6.32559 -0.896018,1.1391 -0.718928,1.25072 1.984375,1.25072 1.929142,0 2.513542,-0.0827 2.513542,-0.35587 z m -1.058334,-10.22744 c 0,-2.93401 0.0324,-2.97595 1.818187,-2.35342 1.040712,0.36279 1.356813,0.92953 1.356813,2.43263 0,1.65616 -0.757665,2.56662 -2.13587,2.56662 h -1.03913 z m 17.462502,10.19576 c 0,-0.21316 -0.23813,-0.515 -0.52917,-0.67076 -0.50557,-0.27058 -0.52917,-0.55399 -0.52917,-6.35707 0,-5.78732 0.025,-6.08946 0.52917,-6.40433 1.17567,-0.73422 0.61788,-0.99694 -2.11667,-0.99694 -1.455204,0 -2.645829,0.0816 -2.645829,0.18139 0,0.0998 0.267891,0.46666 0.595313,0.81532 0.579794,0.61742 0.595312,0.7844 0.595312,6.40563 0,5.12562 -0.05183,5.82893 -0.46302,6.28311 -0.88423,0.97668 -0.604091,1.13122 2.050524,1.13122 2.03103,0 2.51354,-0.0744 2.51354,-0.38757 z m 10.05416,0.0317 c 0,-0.19572 -0.24272,-0.57553 -0.53939,-0.84401 -0.46684,-0.42248 -0.52912,-0.75434 -0.46302,-2.46724 l 0.0764,-1.97911 1.32292,-0.10158 c 1.81488,-0.13936 3.57227,-1.04961 4.22755,-2.18969 0.74836,-1.30203 0.74275,-3.9162 -0.0106,-4.92519 -1.25063,-1.67509 -1.67282,-1.81375 -5.82331,-1.91264 -3.187,-0.0759 -3.81763,-0.0281 -3.81763,0.28972 0,0.20938 0.23813,0.59618 0.52917,0.85957 0.49748,0.45021 0.52916,0.81491 0.52916,6.09074 0,5.21122 -0.0378,5.65988 -0.52916,6.28458 -0.89602,1.1391 -0.71893,1.25072 1.98437,1.25072 1.92914,0 2.51354,-0.0827 2.51354,-0.35587 z m -1.05833,-9.81497 c 0,-1.60014 0.11405,-2.833 0.27104,-2.93002 0.45246,-0.27964 1.83689,0.14903 2.38646,0.73892 0.38086,0.40881 0.5175,0.9319 0.5175,1.98114 0,1.22297 -0.10996,1.53564 -0.7734,2.19907 -0.51967,0.51967 -1.04048,0.7734 -1.5875,0.7734 h -0.8141 z m 10.58333,15.86356 v -23.41145 l -0.7713,-0.86407 c -0.7163,-0.80245 -0.91666,-0.87351 -2.80921,-0.99637 l -2.03789,-0.13229 -0.46239,-1.4985 c -0.62555,-2.02728 -1.33855,-3.11064 -3.12536,-4.74881 -1.95534,-1.79266 -5.17022,-3.3057 -8.48653,-3.99405 -2.0757,-0.43085 -3.16092,-0.50179 -5.855232,-0.38276 -1.81901,0.0804 -4.021667,0.34073 -4.894792,0.57861 -2.643336,0.72015 -5.701082,2.30452 -7.330303,3.7982 -1.786729,1.63809 -2.499732,2.72141 -3.125492,4.74881 l -0.462514,1.4985 -2.022962,0.14595 c -1.7442481,0.12583 -2.1221561,0.24512 -2.7429291,0.86579 l -0.719966,0.71984 -0.07211,16.31221 c -0.05029,11.37451 -0.160203,16.41835 -0.363126,16.66286 -0.401678,0.48399 -1.457992,0.44062 -1.653119,-0.0679 -0.08833,-0.23018 -0.160599,-7.75306 -0.160599,-16.71751 0,-16.00719 0.0099,-16.3195 0.554579,-17.4446 0.746133,-1.5413 2.305788,-2.46104 4.1733241,-2.46104 1.075118,0 1.406782,-0.10075 1.524218,-0.46302 1.130683,-3.48794 3.745382,-6.27342 7.638504,-8.1374 3.400548,-1.62815 5.163109,-2.01851 9.789583,-2.16813 3.32582,-0.10756 4.38257,-0.0409 6.52322,0.41124 6.45023,1.36251 11.14371,5.00345 12.75455,9.89429 0.11897,0.36122 0.45181,0.46302 1.51384,0.46302 1.9289,0 3.24079,0.79818 4.08007,2.4824 l 0.66061,1.32566 8.4e-4,11.65587 c 8e-4,11.09898 -0.0259,11.74611 -0.55907,13.54498 l -0.5599,1.88912 0.55906,1.49424 c 0.52621,1.40642 0.55907,1.99131 0.55907,9.95099 v 8.45674 h -1.05833 -1.05834 z"
       id="path1" /></g></svg>
