<?xml version="1.0" encoding="UTF-8" standalone="no"?>
<!-- Created with Inkscape (http://www.inkscape.org/) -->

<svg
   width="180mm"
   height="180mm"
   viewBox="0 0 180 180"
   version="1.1"
   id="svg1"
   xml:space="preserve"
   inkscape:version="1.4.2 (f4327f4, 2025-05-13)"
   sodipodi:docname="pickaxe.svg"
   xmlns:inkscape="http://www.inkscape.org/namespaces/inkscape"
   xmlns:sodipodi="http://sodipodi.sourceforge.net/DTD/sodipodi-0.dtd"
   xmlns="http://www.w3.org/2000/svg"
   xmlns:svg="http://www.w3.org/2000/svg"><sodipodi:namedview
     id="namedview1"
     pagecolor="#505050"
     bordercolor="#ffffff"
     borderopacity="1"
     inkscape:showpageshadow="0"
     inkscape:pageopacity="0"
     inkscape:pagecheckerboard="1"
     inkscape:deskcolor="#505050"
     inkscape:document-units="mm"
     inkscape:zoom="0.54800776"
     inkscape:cx="-153.2825"
     inkscape:cy="680.6473"
     inkscape:window-width="2560"
     inkscape:window-height="1351"
     inkscape:window-x="-9"
     inkscape:window-y="-9"
     inkscape:window-maximized="1"
     inkscape:current-layer="layer1" /><defs
     id="defs1" /><g
     inkscape:label="Warstwa 1"
     inkscape:groupmode="layer"
     id="layer1"><path
       style="fill:#000000;stroke-width:1.95201"
       d="M 9.6925698,168.21387 C 6.3417595,165.29908 3.5248724,162.70984 3.4328641,162.45996 3.2049626,161.84124 3.7130261,161.33067 51.800728,113.8565 85.358913,80.726486 94.120259,71.811572 93.863871,71.056186 c -0.239005,-0.704176 0.06805,-1.146237 1.172085,-1.687417 0.822773,-0.403289 2.415373,-1.770395 3.539139,-3.037987 2.043225,-2.304724 2.043225,-2.304724 4.218475,-0.808825 1.19639,0.822737 4.32722,3.465061 6.95744,5.871809 4.78217,4.375951 4.78217,4.375951 3.53063,5.137038 -2.57282,1.564571 -5.26681,4.155003 -5.26681,5.064364 0,0.517415 0.48069,1.39023 1.06819,1.939602 1.2579,1.176307 0.77394,1.356686 -0.57566,0.214566 -0.86204,-0.729528 -3.95771,2.209908 -44.313382,42.077134 -23.862601,23.57381 -44.516623,43.94722 -45.897796,45.27424 -2.511209,2.41278 -2.511209,2.41278 -8.6036122,-2.88684 z M 169.75937,115.57085 c -0.11204,-0.17723 -1.214,-2.7468 -2.44884,-5.71029 -1.78116,-4.27463 -2.42827,-5.33767 -3.13124,-5.144 -0.64213,0.17687 -2.43029,-1.62161 -6.49407,-6.531544 -3.08438,-3.726588 -6.00578,-6.918019 -6.49202,-7.092058 -0.48622,-0.174037 -5.50236,-4.347786 -11.1469,-9.275013 -5.64458,-4.927229 -10.76326,-9.337495 -11.37485,-9.800585 -1.11197,-0.842009 -1.11197,-0.842009 0.3948,-2.053973 1.36695,-1.099479 1.5523,-1.649985 1.99742,-5.931515 0.26985,-2.595757 0.34836,-5.868885 0.1744,-7.27365 -0.30874,-2.494298 -0.28081,-2.560704 1.19341,-2.83641 2.89378,-0.541198 10.76982,-0.982013 11.68408,-0.653926 0.80979,0.29056 0.73338,0.515225 -0.63252,1.859906 -1.55357,1.529442 -1.55357,1.529442 0.68332,3.396881 2.23687,1.867457 2.23687,1.867457 0.5341,3.468931 -1.93041,1.815567 -2.82068,0.775245 10.81832,12.64156 5.31675,4.625701 6.02059,5.420727 5.40905,6.109764 -0.4746,0.534742 -0.53208,0.994982 -0.17683,1.416412 13.68304,16.236586 13.08721,15.412148 11.96004,16.549006 -1.04463,1.05359 -1.04092,1.0705 1.6383,7.480134 2.6853,6.42416 2.6853,6.42416 1.42251,7.59238 -1.22673,1.1349 -5.60264,2.4362 -6.01247,1.78799 z M 125.37276,73.046697 c 0.53168,-0.549371 1.08686,-0.998851 1.23373,-0.998851 0.14697,0 -0.16794,0.44948 -0.69964,0.998851 -0.53169,0.54939 -1.08686,0.99887 -1.23374,0.99887 -0.14694,0 0.16795,-0.44948 0.69965,-0.99887 z m -6.48398,-5.789869 c -0.92247,-1.759939 -1.5233,-3.19432 -1.33524,-3.187525 0.61259,0.02209 5.41583,3.481823 5.41583,3.900875 0,0.224135 -0.54079,0.875306 -1.20172,1.447028 -1.20169,1.039529 -1.20169,1.039529 -2.87887,-2.160378 z m -8.11626,-1.961027 c -0.60648,-0.721013 -2.21222,-2.103127 -3.56832,-3.071379 -2.36665,-1.689796 -2.42872,-1.798635 -1.54587,-2.710864 1.16085,-1.199487 1.5649,-1.191162 2.90267,0.05984 1.10408,1.032433 3.91257,6.473848 3.52732,6.834099 -0.11728,0.109671 -0.7093,-0.390643 -1.3158,-1.111637 z m 11.92979,-4.128238 c -1.46875,-0.917645 -4.08896,-2.349025 -5.82269,-3.180823 -3.15225,-1.512358 -3.15225,-1.512358 -1.60228,-2.697443 1.34215,-1.026184 2.13095,-1.187499 5.88268,-1.203054 4.33273,-0.01888 4.33273,-0.01888 4.63675,2.604062 0.16714,1.442103 0.1403,3.414852 -0.06,4.383878 -0.36404,1.761864 -0.36404,1.761864 -3.03449,0.09343 z m -20.54179,-3.330228 c -0.52608,-0.592769 -0.21031,-1.165076 1.72245,-3.121458 2.36665,-2.395612 2.36665,-2.395612 -9.575749,-12.796156 C 87.738892,36.199421 82.492143,31.326497 82.647773,31.091 c 0.155641,-0.235495 -3.539632,-2.93143 -8.211716,-5.990965 -6.46042,-4.230622 -8.436109,-5.772411 -8.249939,-6.438112 0.204898,-0.732667 -0.850319,-1.189154 -6.474624,-2.800952 -5.278681,-1.512751 -6.670916,-2.093903 -6.493278,-2.710446 0.124346,-0.431648 0.371989,-1.596754 0.550253,-2.589122 0.178243,-0.992368 0.794665,-2.20251 1.369788,-2.689204 1.006295,-0.8515841 1.308946,-0.8071637 8.0398,1.180015 3.846755,1.135702 7.258122,2.064913 7.580799,2.064913 0.322677,0 1.018088,-0.365091 1.54539,-0.811315 0.898842,-0.760663 1.501682,-0.454563 9.655669,4.902861 10.658643,7.003046 9.92362,6.603096 10.835046,5.895772 0.615069,-0.477342 2.577503,1.009186 10.524879,7.97257 9.76885,8.559317 9.76885,8.559317 11.45588,6.843748 1.68703,-1.715568 1.68703,-1.715568 3.73862,0.256806 2.05162,1.972376 2.05162,1.972376 3.50929,0.348745 0.80173,-0.892999 1.6234,-1.468654 1.82597,-1.279235 0.20257,0.189418 0.84338,-0.0494 1.42401,-0.530698 1.02823,-0.852316 1.0384,-0.844267 0.39043,0.309246 -0.41914,0.74613 -0.60528,2.686455 -0.50313,5.244033 0.0892,2.232843 0.11325,5.140793 0.0536,6.462125 -0.10858,2.402446 -0.10858,2.402446 -5.049,2.074624 -4.74367,-0.314761 -8.079,0.179134 -7.74821,1.147331 0.12434,0.363725 -8.87169,8.60944 -9.39279,8.60944 -0.12091,0 -0.50955,-0.326633 -0.86386,-0.725845 z m 29.3868,-9.705411 c -0.31162,-0.5445 -0.5666,-1.914572 -0.5666,-3.044574 0,-2.054559 0,-2.054559 2.50855,-0.407405 1.3797,0.905925 3.24099,2.018429 4.13621,2.472231 1.62766,0.825115 1.62766,0.825115 -1.0398,1.165717 -1.46711,0.187252 -3.07343,0.444874 -3.5696,0.572345 -0.53445,0.137229 -1.13308,-0.171774 -1.46876,-0.758314 z m 11.34344,-0.742644 c -0.23492,-0.377202 -1.74898,-1.299926 -3.36461,-2.050538 -1.61563,-0.750591 -4.06214,-2.239922 -5.43671,-3.309634 -1.37457,-1.069713 -2.73428,-1.944926 -3.02159,-1.944926 -0.28731,0 -0.60471,-1.236408 -0.70533,-2.747555 -0.10049,-1.511156 -0.002,-2.747249 0.21763,-2.746875 0.22031,3.75e-4 0.40856,0.281612 0.41834,0.62497 0.01,0.34336 0.48865,0.09577 1.0642,-0.550171 1.04643,-1.174463 1.04643,-1.174463 7.47277,4.449491 6.42632,5.623928 6.42632,5.623928 5.28892,6.756083 -0.62558,0.622688 -0.97787,1.373545 -0.7829,1.668559 0.195,0.295036 0.11203,0.536404 -0.1845,0.536404 -0.29649,0 -0.73128,-0.308605 -0.96618,-0.685808 z"
       id="path1" /></g></svg>
