<?xml version="1.0" encoding="UTF-8" standalone="no"?>
<!-- Created with Inkscape (http://www.inkscape.org/) -->

<svg
   width="240mm"
   height="180mm"
   viewBox="0 0 240 180"
   version="1.1"
   id="svg8"
   inkscape:version="1.4.2 (f4327f4, 2025-05-13)"
   sodipodi:docname="trader.svg"
   xml:space="preserve"
   xmlns:inkscape="http://www.inkscape.org/namespaces/inkscape"
   xmlns:sodipodi="http://sodipodi.sourceforge.net/DTD/sodipodi-0.dtd"
   xmlns="http://www.w3.org/2000/svg"
   xmlns:svg="http://www.w3.org/2000/svg"
   xmlns:rdf="http://www.w3.org/1999/02/22-rdf-syntax-ns#"
   xmlns:cc="http://creativecommons.org/ns#"
   xmlns:dc="http://purl.org/dc/elements/1.1/"><defs
     id="defs2" /><sodipodi:namedview
     id="base"
     pagecolor="#000000"
     bordercolor="#666666"
     borderopacity="1.0"
     inkscape:pageopacity="0.0"
     inkscape:pageshadow="2"
     inkscape:zoom="1.28"
     inkscape:cx="442.96875"
     inkscape:cy="235.9375"
     inkscape:document-units="mm"
     inkscape:current-layer="layer1"
     showgrid="false"
     inkscape:window-width="2560"
     inkscape:window-height="1351"
     inkscape:window-x="-9"
     inkscape:window-y="-9"
     inkscape:window-maximized="1"
     inkscape:showpageshadow="0"
     inkscape:pagecheckerboard="1"
     inkscape:deskcolor="#505050" /><metadata
     id="metadata5"><rdf:RDF><cc:Work
         rdf:about=""><dc:format>image/svg+xml</dc:format><dc:type
           rdf:resource="http://purl.org/dc/dcmitype/StillImage" /></cc:Work></rdf:RDF></metadata><g
     inkscape:label="Layer 1"
     inkscape:groupmode="layer"
     id="layer1"
     transform="translate(-71.127325,-38.41696)"><path
       style="fill:#000000;stroke-width:3.78737"
       d="m 178.15572,216.69838 c -8.57377,-2.97727 -12.80138,-6.45161 -17.85616,-14.67452 -2.19867,-3.57671 -2.56024,-5.47387 -2.56834,-13.47668 -0.008,-8.09681 0.35695,-9.98897 2.79494,-14.47918 3.73341,-6.87649 8.75706,-11.65156 15.42669,-14.66337 4.49812,-2.03118 6.94577,-2.4823 13.57358,-2.50153 6.85009,-0.0211 8.82743,0.35531 12.93747,2.45477 6.65748,3.40078 10.13015,6.78978 13.68512,13.35553 2.672,4.93496 3.01832,6.62302 2.96197,14.43666 -0.0538,7.47442 -0.49778,9.66557 -2.85847,14.11192 -3.2325,6.08829 -9.32061,11.72153 -15.44157,14.28771 -5.14983,2.15908 -17.88597,2.80483 -22.65523,1.14869 z m 8.48971,-21.01571 c -0.22778,-0.38737 -8.129,7.06619 -9.24046,8.71705 -0.54194,0.80501 0.67884,1.82422 3.77343,3.15043 l 4.57461,1.96046 0.53906,-6.75611 c 0.29664,-3.71588 0.45547,-6.89821 0.35327,-7.07183 z m 15.77251,8.44647 c -0.0245,-0.37377 -1.96458,-2.56568 -4.30958,-4.87089 l -4.26358,-4.1913 -0.003,6.77157 -0.003,6.77154 4.31248,-1.90064 c 2.37184,-1.04533 4.29181,-2.20649 4.26651,-2.58028 z m -24.85543,-8.5965 4.54544,-4.65697 h -6.53291 c -5.63859,0 -6.53293,0.23586 -6.53293,1.72379 0,2.36166 2.18443,7.59019 3.17109,7.59019 0.44212,0 2.84931,-2.09565 5.34931,-4.65701 z m 31.19949,-0.80659 c 0.68683,-1.98046 1.24878,-3.86654 1.24878,-4.19132 0,-0.32491 -2.42579,-0.59048 -5.39061,-0.59048 -3.47992,0 -5.39063,0.39695 -5.39063,1.11993 0,1.16588 6.36963,7.26265 7.58771,7.26265 0.38263,0 1.25793,-1.62037 1.94475,-3.60078 z M 177.56251,179.6989 c -2.5,-2.56136 -4.73683,-4.65701 -4.97076,-4.65701 -0.6956,0 -3.54964,6.34141 -3.54964,7.88697 0,1.12476 1.38377,1.42701 6.53293,1.42701 h 6.53291 z m 31.56625,1.45017 c -0.18866,-1.50758 -0.86431,-3.5827 -1.50152,-4.61131 -1.09649,-1.76991 -1.35186,-1.67286 -4.76209,1.80973 -5.02847,5.13504 -4.7638,6.17299 1.48547,5.82656 4.9655,-0.27528 5.11069,-0.36717 4.77814,-3.02498 z m -23.21911,-15.13062 c -0.55511,-0.47955 -9.32069,3.22621 -9.32069,3.9405 0,0.25697 2.06193,2.40305 4.58202,4.76866 l 4.58203,4.30107 0.3215,-6.29486 c 0.17685,-3.46217 0.10272,-6.48408 -0.16503,-6.71537 z m 15.54806,3.04425 c -0.70134,-0.7301 -2.70253,-1.75731 -4.44698,-2.28267 l -3.17177,-0.95523 v 6.45054 6.45053 l 4.44698,-4.16786 c 3.58292,-3.35801 4.19923,-4.42583 3.17177,-5.49531 z m 68.82331,43.22317 c -6.72808,-0.98321 -10.62441,-2.8727 -15.46114,-7.49777 -6.79644,-6.49908 -8.69199,-11.15809 -8.69199,-21.36363 0,-7.78997 0.35857,-9.47877 2.99648,-14.11966 7.54037,-13.26504 21.71687,-19.73173 35.60828,-16.243 8.83685,2.21934 14.61417,6.46317 19.07481,14.01162 3.51528,5.94881 3.77102,6.97094 3.73843,14.94207 -0.0326,7.74102 -0.36919,9.14324 -3.54354,14.71335 -4.30701,7.55814 -11.31635,13.16811 -18.87615,15.10759 -5.87101,1.50621 -7.31434,1.54993 -14.84518,0.44943 z m 5.00117,-14.46694 c 0.41567,-3.35295 0.50237,-6.31518 0.19274,-6.58268 -0.77133,-0.66638 -9.34119,7.27825 -9.37476,8.69078 -0.0286,1.16382 4.90536,3.88414 7.16454,3.95091 0.76598,0.0211 1.55882,-2.35842 2.01755,-6.05901 z m 14.40684,2.01203 c 1.13584,-1.18239 0.64374,-2.06617 -3.01641,-5.41695 l -4.37372,-4.00407 -0.0286,6.77658 -0.0286,6.77654 3.04335,-1.35959 c 1.67388,-0.7478 3.65416,-1.99542 4.4007,-2.77251 z m -23.83205,-8.84102 c 2.43865,-2.49846 4.25413,-4.6989 4.03438,-4.88983 -0.21963,-0.1908 -3.10932,-0.20348 -6.42135,-0.0282 -4.88706,0.25874 -6.02185,0.62766 -6.02185,1.95667 0,2.29279 2.20218,7.50395 3.17109,7.50395 0.4421,0 2.79913,-2.0442 5.23773,-4.54268 z m 31.48174,-1.61321 c 0,-0.62862 0.29461,-1.8059 0.65437,-2.61618 0.5441,-1.22491 -0.27383,-1.47326 -4.85153,-1.47326 -3.02826,0 -5.50594,0.40454 -5.50594,0.89897 0,0.49445 1.548,2.42217 3.44006,4.28382 3.19729,3.14592 3.53965,3.2671 4.85154,1.71718 0.77633,-0.91721 1.4115,-2.18194 1.4115,-2.81053 z m -27.90481,-11.30777 c -0.56512,-0.8965 -2.75472,-3.0654 -4.8657,-4.81985 l -3.83821,-3.18987 -1.64091,3.39281 c -2.7987,5.78668 -2.44029,6.24685 4.86573,6.24685 5.86954,0 6.40607,-0.15947 5.47909,-1.62994 z m 28.98292,1.11099 c 0,-1.68814 -2.53252,-8.79505 -3.13405,-8.79505 -1.24909,0 -8.65322,8.1344 -7.95395,8.73847 0.82893,0.71616 11.088,0.76847 11.088,0.0567 z m -22.65708,-12.75349 c 0.0122,-3.67292 -0.40707,-5.35444 -1.33115,-5.35204 -1.65636,0.003 -8.35545,3.46071 -8.35545,4.31102 0,0.339 1.76483,2.47695 3.92183,4.75107 4.66942,4.92288 5.74028,4.23372 5.76477,-3.71005 z m 11.38568,3.38038 4.08203,-4.30365 -2.60452,-1.70047 c -5.60272,-3.65799 -6.37795,-3.18696 -6.37795,3.87517 0,3.53797 0.18419,6.43263 0.40919,6.43263 0.22494,0 2.24612,-1.93666 4.49125,-4.30368 z M 95.950738,210.53352 c -8.18354,-2.44195 -13.125124,-6.28648 -17.470932,-13.59221 -3.498172,-5.88083 -3.773423,-6.96181 -3.773423,-14.82003 0,-7.19985 0.422882,-9.24799 2.807736,-13.59916 3.918282,-7.14877 6.88734,-10.11443 8.637546,-8.62762 1.581834,1.34375 1.908714,10.29999 0.561344,15.38026 l -0.926324,3.49272 h 6.070226 c 5.930452,0 6.054657,-0.0534 5.396212,-2.3198 -0.459193,-1.58071 -0.176039,-2.48494 0.889365,-2.8381 0.859818,-0.28514 11.426542,0.33971 23.481572,1.38842 12.05504,1.04868 24.31548,1.90671 27.24551,1.90671 h 5.3273 l -0.77104,5.35551 c -0.42406,2.94554 -0.99417,5.67049 -1.26693,6.05542 -0.2726,0.38491 -3.77358,0.43669 -7.77964,0.11512 l -7.28373,-0.58482 -1.98226,4.54193 c -4.25544,9.75044 -11.45225,15.92259 -21.66097,18.57682 -6.69072,1.73956 -10.5454,1.64462 -17.501562,-0.4311 z m 8.404022,-14.06946 c 0,-3.5859 -0.22493,-6.51981 -0.50015,-6.51981 -0.97974,0 -9.149537,7.93484 -9.175985,8.91217 -0.02857,1.0339 5.970225,3.96362 8.328485,4.06785 0.95634,0.0423 1.34765,-1.83354 1.34765,-6.46021 z m 11.96254,3.99044 c 1.72212,-0.87883 3.13119,-2.05117 3.13119,-2.60514 0,-0.554 -1.94063,-2.64435 -4.31251,-4.64522 l -4.31249,-3.63793 v 6.24312 c 0,6.78798 0.48739,7.20009 5.49381,4.64517 z M 98.922731,184.93801 c 0.02447,-0.44824 -1.474715,-0.55303 -3.327726,-0.23269 -1.853021,0.31999 -4.763966,0.58214 -6.468741,0.58214 -3.610961,0 -3.887354,1.2266 -1.423447,6.31683 l 1.676166,3.46283 4.751169,-4.657 c 2.61313,-2.56133 4.769797,-5.0237 4.792579,-5.47193 z m 27.887449,2.70182 c -0.19478,-0.15242 -2.53709,-0.57855 -5.20547,-0.94716 l -4.85153,-0.67021 3.73348,3.37416 3.73353,3.37414 1.47194,-2.42699 c 0.80958,-1.33484 1.31269,-2.55162 1.11805,-2.70394 z m 105.30208,-4.38949 c -7.48458,-1.01891 -8.74727,-1.85574 -9.71385,-6.43772 l -0.70714,-3.35202 6.71632,-0.60643 c 3.69396,-0.33372 8.56289,-0.60647 10.81984,-0.60647 h 4.10356 l -0.63644,4.88984 c -0.60152,4.62152 -1.92472,7.35724 -3.43697,7.1059 -0.37202,-0.0619 -3.58748,-0.50876 -7.14532,-0.9931 z M 111.36255,170.69138 c -9.48747,-0.74201 -17.554478,-1.6384 -17.926576,-1.99201 -1.069398,-1.01611 -6.340547,-22.66752 -6.335616,-26.02355 0.0041,-2.87407 0.20863,-3.02768 4.047367,-3.03969 10.841945,-0.0352 50.700195,2.13532 52.856155,2.87667 2.4224,0.83292 2.45011,1.02643 2.15627,15.05651 l -0.29747,14.2127 -8.62498,0.1292 c -4.74371,0.0712 -16.38744,-0.47784 -25.87495,-1.21983 z m 38.83805,0.66075 c -0.35248,-0.49259 -0.30562,-7.02427 0.1043,-14.51486 0.69333,-12.67668 0.90115,-13.66854 3.00284,-14.3315 1.24187,-0.39178 33.24898,-1.44676 71.12691,-2.34438 51.83249,-1.22836 69.05884,-1.36667 69.63657,-0.55905 0.62059,0.86741 -0.56595,11.11995 -1.36701,11.81196 -0.12103,0.10457 -2.87196,-0.4044 -6.1135,-1.13081 -8.08794,-1.81246 -14.00776,-1.65629 -20.83206,0.54951 -7.22999,2.33696 -13.28969,6.78518 -17.46143,12.81781 l -3.22137,4.6584 -12.84904,0.66253 c -11.69565,0.60305 -12.94608,0.51279 -13.92974,-1.00571 -2.27299,-3.50887 -9.98944,-9.92765 -14.16739,-11.78489 -6.11232,-2.71715 -18.98394,-3.31022 -26.29738,-1.21167 -6.37477,1.82922 -15.17111,8.24712 -18.66574,13.61881 -1.87107,2.876 -3.01702,3.65942 -5.35294,3.65942 -1.63473,0 -3.26052,-0.40302 -3.61291,-0.89557 z m -15.11937,-34.36234 c -2.85043,-0.54487 -3.32083,-1.11468 -3.96302,-4.80087 -0.40096,-2.30045 -0.76464,-7.02982 -0.8086,-10.5098 -0.11169,-8.82887 -3.07745,-31.67412 -4.98278,-38.379902 -2.2215,-7.818533 -8.50801,-18.532641 -12.07403,-20.577832 -4.26671,-2.447028 -10.31252,-2.236763 -13.65361,0.474882 -8.792035,7.135568 -8.62109,26.814466 0.5404,62.223292 1.22239,4.72451 1.9145,9.02059 1.53803,9.54682 -1.20415,1.68321 -11.879989,1.15915 -13.712876,-0.67314 -2.871833,-2.87089 -9.721359,-30.17669 -11.732922,-46.773497 -3.55546,-29.33553 11.221046,-50.441292 33.709358,-48.148064 15.27823,1.557989 29.80218,16.275178 33.69948,34.147879 2.45891,11.276433 4.01135,31.916492 3.64282,48.432672 l -0.34267,15.36804 -4.31249,0.14398 c -2.37189,0.0792 -5.76795,-0.13447 -7.54688,-0.47439 z m 17.78905,-14.60138 c 0,-18.46283 -2.55572,-43.484251 -5.43484,-53.209524 -2.68032,-9.053716 -7.5942,-16.894213 -14.24804,-22.73391 -2.9438,-2.583578 -5.06493,-4.945768 -4.71362,-5.249282 0.35126,-0.303446 4.65009,0.225999 9.55279,1.177062 6.44588,1.250215 12.60591,1.684402 22.24773,1.568165 14.9459,-0.180238 16.66208,0.267889 22.91432,5.984063 8.23296,7.526879 12.22417,16.443867 13.89594,31.045734 1.01369,8.853624 0.21271,53.162542 -0.99038,54.780112 -0.35083,0.47189 -10.21987,1.16257 -21.93098,1.5348 l -21.29292,0.6768 z m 48.06921,13.66444 c -0.35166,-0.49151 -0.0546,-11.20434 0.65959,-23.80633 1.9755,-34.847301 -0.57602,-48.723399 -11.18605,-60.83346 -2.81198,-3.209511 -4.67706,-5.835438 -4.14464,-5.835438 0.53242,0 4.27291,0.669093 8.31225,1.486917 7.24157,1.466144 12.7727,1.432598 31.33049,-0.190093 6.21577,-0.543527 7.04895,-0.389269 10.78126,1.996188 5.19809,3.322301 7.28038,5.470318 10.55965,10.892972 6.31972,10.450407 7.24984,23.400681 3.72513,51.866454 -2.52735,20.41104 -3.12095,23.41028 -4.71591,23.82708 -3.27166,0.85503 -44.7463,1.40018 -45.32177,0.59574 z m 51.36929,-1.83887 c -0.34799,-0.78373 -0.0432,-4.80623 0.67768,-8.93899 4.5914,-26.32443 6.26923,-45.275192 4.66475,-52.686854 -1.77685,-8.2078 -5.3445,-15.326966 -9.94211,-19.839284 -2.35207,-2.308471 -4.27653,-4.373023 -4.27653,-4.587934 0,-0.214735 4.97285,-0.384482 11.05077,-0.376842 6.07792,0.007 14.28451,-0.33055 18.23695,-0.751783 9.80773,-1.04502 15.40964,1.246763 22.0256,9.010804 8.87405,10.414042 10.68,21.709448 6.96373,43.555581 -2.69518,15.843772 -7.22516,33.044102 -9.03087,34.290232 -0.69834,0.48193 -9.92486,1.07283 -20.50339,1.31312 -16.58066,0.3766 -19.32096,0.24043 -19.86658,-0.98805 z"
       id="path1" /></g></svg>
