<?xml version="1.0" encoding="UTF-8" standalone="no"?>
<!-- Created with Inkscape (http://www.inkscape.org/) -->

<svg
   width="180mm"
   height="180mm"
   viewBox="0 0 180 180"
   version="1.1"
   id="svg1"
   sodipodi:docname="vessel.svg"
   inkscape:version="1.4.2 (f4327f4, 2025-05-13)"
   xml:space="preserve"
   xmlns:inkscape="http://www.inkscape.org/namespaces/inkscape"
   xmlns:sodipodi="http://sodipodi.sourceforge.net/DTD/sodipodi-0.dtd"
   xmlns="http://www.w3.org/2000/svg"
   xmlns:svg="http://www.w3.org/2000/svg"><sodipodi:namedview
     id="namedview1"
     pagecolor="#505050"
     bordercolor="#ffffff"
     borderopacity="1"
     inkscape:showpageshadow="0"
     inkscape:pageopacity="0"
     inkscape:pagecheckerboard="1"
     inkscape:deskcolor="#505050"
     inkscape:document-units="mm"
     inkscape:zoom="0.70710678"
     inkscape:cx="974.39315"
     inkscape:cy="575.58492"
     inkscape:window-width="2560"
     inkscape:window-height="1351"
     inkscape:window-x="-9"
     inkscape:window-y="-9"
     inkscape:window-maximized="1"
     inkscape:current-layer="layer1"
     showguides="true" /><defs
     id="defs1"><rect
       x="101.82338"
       y="91.923881"
       width="384.66609"
       height="299.81327"
       id="rect3" /><rect
       x="2.8284271"
       y="2.1213203"
       width="662.55905"
       height="647.0027"
       id="rect2" /></defs><g
     inkscape:label="Icon"
     inkscape:groupmode="layer"
     id="layer1"><path
       style="fill:#000000"
       d="m 73.014107,173.9418 c -6.832027,-0.75316 -19.54896,-3.11219 -22.242157,-4.12599 -6.236015,-2.34744 -9.424611,-5.1529 -10.434794,-9.18099 -0.237214,-0.94589 -0.708804,-2.14529 -1.047978,-2.66534 -0.339174,-0.52005 -2.504115,-2.7166 -4.81098,-4.88122 C 21.561223,140.96778 15.46648,133.97931 10.485685,125.57753 7.0926654,119.85406 3.9842273,112.19915 3.1260718,107.45357 2.7770589,105.52354 2.5825958,90.748969 2.9020015,90.429563 c 0.074123,-0.07412 0.7907436,0.08669 1.5924897,0.357354 2.1197264,0.715615 5.5921238,1.383494 18.6362908,3.584494 6.408068,1.081261 13.60118,2.345694 15.984692,2.809852 5.044725,0.982393 4.492474,0.606313 8.82059,6.006757 2.450695,3.05788 11.055126,14.47503 11.055126,14.66896 0,0.0481 -0.803672,0.73279 -1.785938,1.52145 -2.998599,2.40757 -4.564062,3.98361 -4.564062,4.59489 0,0.70591 1.553771,2.22239 4.469313,4.36205 4.016618,2.94772 5.658676,3.66587 6.38394,2.79198 0.600461,-0.72351 -0.379825,-2.05392 -3.205606,-4.35053 -1.684611,-1.36914 -2.518162,-2.22956 -2.580816,-2.664 -0.07501,-0.52015 0.388599,-1.09626 2.447396,-3.04125 3.399459,-3.21156 3.411213,-2.93744 -0.323349,-7.54143 -1.383252,-1.70528 -2.290119,-3.41025 -1.97925,-3.72112 0.342455,-0.34245 7.397772,-0.95122 16.929421,-1.46075 l 8.515007,-0.45519 11.394889,5.65242 c 6.267185,3.10882 11.394885,5.79933 11.394885,5.9789 0,0.17957 -0.35718,1.87223 -0.79375,3.76145 -0.88116,3.81325 -0.98736,5.68175 -0.40248,7.08157 0.45891,1.09833 2.94712,3.64284 5.55184,5.67747 l 1.84206,1.43889 -2.37123,0.16945 c -1.30418,0.0932 -7.60998,0.25801 -14.012895,0.36623 -25.036568,0.42318 -46.005086,-1.35478 -65.821426,-5.58113 -3.023034,-0.64475 -5.791237,-1.17226 -6.151562,-1.17226 -1.1833,0 -0.580451,1.36452 1.047307,2.37053 4.641905,2.86885 25.225903,6.3342 45.773523,7.70603 5.512432,0.36803 34.889053,0.17147 41.159453,-0.2754 16.81596,-1.19841 31.02633,-3.28082 38.36458,-5.62199 3.16676,-1.01032 4.25703,-1.56498 5.71152,-2.90569 1.19561,-1.10207 1.30677,-1.63911 0.29154,-1.40842 -12.6438,2.87293 -23.26091,4.5983 -34.87201,5.66701 l -5.12558,0.47177 -3.11874,-2.93577 c -5.03706,-4.74157 -5.38051,-5.55 -4.44194,-10.45573 0.64828,-3.38849 0.73521,-4.99133 0.31343,-5.77944 -0.44202,-0.82591 -1.57418,-1.54188 -4.46491,-2.82356 -3.04525,-1.35019 -5.09331,-2.53785 -5.09331,-2.95358 0,-0.37731 3.53955,-1.98876 8.59896,-3.91484 5.5768,-2.12306 8.44421,-3.57345 8.55101,-4.32527 0.11477,-0.80798 -2.35575,-5.464682 -3.93399,-7.415202 -1.47054,-1.81742 -3.19719,-2.847985 -4.02729,-2.403727 -0.72144,0.386103 -0.49554,1.528226 0.84933,4.294031 2.40842,4.953068 1.1328,6.256728 -10.085791,10.307458 l -4.67798,1.68909 -3.780514,-1.69891 c -6.374748,-2.86472 -6.303583,-2.84727 -11.469777,-2.81333 -2.473854,0.0162 -8.595903,0.2857 -13.604552,0.59879 l -9.106637,0.56925 -1.031839,-1.00228 c -0.567512,-0.55125 -1.938886,-2.1929 -3.047498,-3.64811 -2.64393,-3.470531 -4.451998,-5.573757 -5.327456,-6.197138 C 46.921692,96.036426 45.25759,95.60616 42.709653,95.154499 36.537009,94.060301 21.239097,91.175505 13.218273,89.593176 9.2164506,88.803706 5.3277442,88.123783 4.5767038,88.082235 L 3.2111757,88.006694 3.8197263,86.091493 C 5.6659964,80.280999 10.456402,73.337748 15.760553,68.784367 c 4.723948,-4.055303 8.46167,-6.482224 17.036887,-11.062135 6.933514,-3.703098 10.022803,-6.114012 11.370771,-8.87387 1.089265,-2.230184 0.956737,-8.245762 -0.257897,-11.706213 -0.919704,-2.620203 -2.162016,-4.076794 -6.43884,-7.549431 -8.292246,-6.733025 -8.641171,-7.10403 -8.640319,-9.187063 7.68e-4,-1.880996 0.448689,-3.031 1.739947,-4.467189 4.971444,-5.529442 20.136659,-8.6570787 47.734671,-9.8446819 6.842692,-0.294456 27.123317,-0.1925883 27.453807,0.137898 0.076,0.075952 -0.15792,1.1828078 -0.51971,2.4596798 l -0.6578,2.3215851 -13.865755,-0.09103 c -18.834804,-0.123648 -28.04418,0.358973 -37.62646,1.971833 -8.179179,1.376694 -14.630609,3.507031 -16.037676,5.295827 -3.286635,4.178278 8.631534,8.215026 30.341866,10.276954 2.581943,0.245218 7.860316,0.422639 13.888117,0.466817 5.347795,0.03919 9.693576,0.150954 9.657292,0.248355 -0.03628,0.0974 -2.315266,1.813138 -5.064402,3.81275 l -4.998429,3.635657 -4.833698,-2.466076 c -4.661647,-2.378298 -4.907622,-2.470355 -6.91057,-2.586304 -1.813783,-0.104998 -2.39493,-0.01467 -4.587665,0.713085 -4.622037,1.534019 -10.051417,4.52899 -10.051417,5.544593 0,0.916655 3.235423,0.360453 8.306491,-1.427968 3.81744,-1.346303 5.807785,-1.659908 7.568509,-1.192519 0.654844,0.17383 2.96706,1.156485 5.138258,2.183677 5.819525,2.753214 6.094409,2.734478 10.473065,-0.713854 3.064526,-2.413413 4.618839,-3.298514 5.044673,-2.87268 0.432772,0.432773 0.96243,3.197622 1.578948,8.242213 0.607888,4.973982 1.139468,7.548206 1.751646,8.482508 0.415374,0.63394 0.432204,0.635982 4.024119,0.488144 5.299598,-0.218123 8.987568,-1.113652 10.098408,-2.45214 0.32489,-0.391462 0.29461,-0.508065 -0.24545,-0.945379 -0.67185,-0.544034 -0.79945,-0.558111 -5.45221,-0.601515 -3.557174,-0.03318 -4.369369,-0.302104 -5.537381,-1.833446 -1.275899,-1.67279 -1.772146,-3.898912 -2.391155,-10.726516 l -0.368424,-4.063677 0.708897,-0.631165 c 0.389894,-0.347141 0.947023,-0.683792 1.238065,-0.748113 0.291041,-0.06432 3.559748,-0.18496 7.263798,-0.268084 13.28929,-0.29823 24.93228,-1.846406 32.37545,-4.304983 2.93572,-0.969708 5.5983,-2.45329 6.36345,-3.545702 2.00347,-2.860346 -2.57765,-5.487515 -13.32666,-7.642548 -4.72539,-0.947378 -9.37437,-1.481534 -16.27187,-1.869597 -2.91042,-0.163744 -5.33975,-0.344266 -5.39851,-0.401159 -0.0588,-0.05689 0.189,-1.087239 0.55058,-2.2896587 l 0.65742,-2.1862176 2.22755,0.069618 c 5.14867,0.1609128 15.45146,1.3622652 21.14525,2.4656329 7.82446,1.5162594 12.97517,3.3044924 16.25095,5.6420434 2.21106,1.577781 3.13476,2.953307 3.27377,4.875139 0.10347,1.430455 0.0541,1.574129 -1.06049,3.087459 -0.8127,1.103429 -2.35506,2.5021 -5.06037,4.588951 -5.15622,3.977464 -6.53104,5.268335 -8.08431,7.59067 -1.76411,2.637565 -2.43827,4.522194 -2.60471,7.281541 -0.15585,2.583983 0.26651,4.45702 1.55114,6.878768 1.82401,3.438572 4.11663,5.080566 15.64081,11.202078 3.80551,2.021441 8.52512,5.168106 11.51866,7.67974 5.25233,4.406791 10.40448,12.054909 12.61935,18.732794 0.77456,2.335329 1.25981,6.453815 1.14518,9.71948 l -0.0785,2.236834 -1.45521,0.846417 -1.45521,0.846416 -8.33437,0.42424 c -4.58391,0.23334 -8.87609,0.42345 -9.53818,0.42248 l -1.2038,-0.002 -0.83851,-2.711982 c -1.01669,-3.28828 -1.58531,-4.254489 -2.89507,-4.919344 -1.85108,-0.939634 -7.60228,-1.864502 -9.44478,-1.518846 -2.14378,0.402175 -0.60813,1.396198 3.74657,2.425149 4.3481,1.027392 4.93054,1.486185 6.15862,4.851209 1.07319,2.940594 1.46921,3.655154 2.14453,3.869494 0.31383,0.0996 2.27967,0.0957 4.36853,-0.009 2.36594,-0.11827 3.79792,-0.0947 3.79792,0.0625 0,0.3871 -1.42071,2.26426 -4.35568,5.7551 -2.76398,3.28747 -3.8464,4.824 -3.8464,5.46008 0,0.82623 5.27845,3.64274 7.24159,3.86401 0.82134,0.0926 1.20785,0.0119 1.47275,-0.30724 0.30936,-0.37275 0.27123,-0.52743 -0.27499,-1.11552 -0.34878,-0.37552 -1.25165,-1.08009 -2.00638,-1.56569 -2.07572,-1.33557 -2.36909,-2.22861 -1.39389,-4.24312 0.5115,-1.05661 3.0987,-4.24756 5.73462,-7.07285 l 1.19124,-1.2768 3.74096,-0.36126 c 3.62479,-0.35003 5.02997,-0.67617 6.7536,-1.56749 0.45311,-0.23431 0.82383,-0.31651 0.82383,-0.18268 0,0.13384 -0.12483,1.47635 -0.27739,2.98336 -0.70285,6.94247 -3.85327,15.84639 -8.03751,22.71606 -4.73235,7.76956 -10.57849,14.44632 -22.06802,25.20343 -2.95889,2.77027 -5.66038,5.46584 -6.00332,5.99015 -0.34293,0.52431 -1.12214,2.41506 -1.73157,4.20167 -1.00858,2.95676 -1.21754,3.34475 -2.32761,4.32188 -1.60024,1.40858 -4.63487,2.83 -9.00241,4.21672 l -3.54262,1.1248 -3.40777,-1.68778 c -2.34258,-1.16022 -3.36483,-1.79967 -3.2704,-2.04576 0.0756,-0.19689 0.13737,-0.46191 0.13737,-0.58893 0,-0.12703 0.44648,-0.31096 0.99219,-0.40875 1.9148,-0.34311 7.00741,-1.98658 8.51674,-2.74849 1.82692,-0.92223 3.30728,-2.1144 3.00315,-2.41853 -0.12091,-0.12091 -1.70567,0.13299 -3.52169,0.56423 -2.81479,0.66841 -7.40249,1.57798 -7.97311,1.58076 -0.0953,4.6e-4 -0.11442,-0.68377 -0.0424,-1.52051 0.11768,-1.36706 0.0499,-1.6421 -0.66794,-2.71198 -1.41574,-2.10993 -6.5775,-6.08542 -7.9013,-6.08542 -1.14099,0 -0.63016,0.83486 2.41739,3.95077 1.66382,1.70113 3.1004,3.39291 3.19241,3.75951 0.092,0.3666 0.12969,1.19278 0.0837,1.83595 l -0.0836,1.1694 -2.84157,0.31439 c -4.95325,0.54803 -13.511124,0.87623 -22.847621,0.87623 -14.088627,0 -22.175254,-0.62944 -30.676063,-2.38775 -8.923793,-1.84579 -10.758364,-2.16426 -11.011181,-1.91144 -0.353802,0.3538 0.888267,1.77257 2.25067,2.57086 6.947167,4.07063 34.73972,6.74508 53.662755,5.16391 3.49563,-0.29208 9.22565,-0.98075 10.20455,-1.22644 0.46856,-0.1176 0.597,-0.0375 0.597,0.37233 0,0.98352 1.11385,1.95224 3.50329,3.04683 2.75763,1.26326 2.76532,1.25451 -1.65121,1.87778 -4.55091,0.64224 -8.14727,0.92255 -15.61042,1.21673 -6.334791,0.2497 -26.276588,0.31046 -28.310413,0.0863 z M 108.10819,86.807974 c 9.68458,-0.558811 23.50316,-2.04549 30.78312,-3.31182 11.0335,-1.919246 23.28738,-5.959594 23.28738,-7.678309 0,-0.208373 -0.25295,-0.631812 -0.56212,-0.940977 -0.78115,-0.781154 -1.9367,-0.598765 -7.77226,1.226757 -8.20975,2.568239 -13.32124,3.653023 -26.14186,5.547948 -8.86969,1.310966 -14.67864,1.558562 -36.96126,1.575405 C 71.783413,83.241307 67.265097,83.095544 57.800565,82.164296 49.039393,81.302253 40.113718,79.675774 31.077648,77.294717 18.508373,73.982641 18.675344,74.00761 17.820531,75.31222 c -0.358295,0.546827 -0.372907,0.729205 -0.08611,1.074772 1.336399,1.610263 10.605732,4.536188 20.354688,6.425089 9.296394,1.801216 21.802423,3.256866 34.263541,3.988135 5.270972,0.309322 30.4346,0.314782 35.75554,0.0078 z M 94.577648,65.656441 c 13.983282,-0.260637 17.525342,-0.473615 24.870832,-1.495438 8.77827,-1.221134 17.01492,-3.26583 17.70399,-4.394902 0.22016,-0.360749 0.15148,-0.587913 -0.31996,-1.058333 -0.82655,-0.824744 -2.75825,-0.757368 -7.99132,0.278732 -6.78338,1.343047 -14.62327,2.314672 -24.20937,3.000352 -6.046264,0.43248 -22.71127,0.435721 -28.045838,0.0055 -9.91823,-0.799967 -18.197319,-1.833919 -25.790415,-3.22089 -2.393553,-0.437212 -4.927912,-0.79493 -5.63191,-0.79493 -2.355101,0 -3.6755,1.305764 -2.245905,2.221012 1.417548,0.907534 7.717899,2.412264 15.015105,3.586099 7.961066,1.280624 13.37904,1.778788 22.621875,2.080003 0.582083,0.01897 6.892396,-0.07425 14.022916,-0.20716 z M 70.632857,24.194793 C 59.036353,23.872824 46.648514,21.498124 45.5148,19.37976 c -1.198606,-2.239617 9.960718,-4.429517 28.689932,-5.630097 6.264247,-0.401551 29.811558,-0.400479 33.998958,0.0015 1.67349,0.16067 5.17321,0.478938 7.77717,0.707264 7.99107,0.700691 13.62335,1.861664 17.2921,3.564393 2.52025,1.169691 2.14597,1.864323 -1.65365,3.069018 -5.64543,1.789927 -9.70348,2.343826 -21.1292,2.884006 -7.48339,0.353796 -30.454674,0.479958 -39.857253,0.218901 z"
       id="path4" /></g></svg>
