<?xml version="1.0" encoding="UTF-8" standalone="no"?>
<svg
   viewBox="0 0 119.18 158.66"
   version="1.1"
   id="svg1"
   sodipodi:docname="x.svg"
   xml:space="preserve"
   inkscape:version="1.4.2 (f4327f4, 2025-05-13)"
   xmlns:inkscape="http://www.inkscape.org/namespaces/inkscape"
   xmlns:sodipodi="http://sodipodi.sourceforge.net/DTD/sodipodi-0.dtd"
   xmlns="http://www.w3.org/2000/svg"
   xmlns:svg="http://www.w3.org/2000/svg"><sodipodi:namedview
     id="namedview1"
     pagecolor="#505050"
     bordercolor="#ffffff"
     borderopacity="1"
     inkscape:showpageshadow="0"
     inkscape:pageopacity="0"
     inkscape:pagecheckerboard="1"
     inkscape:deskcolor="#505050"
     inkscape:zoom="3.5169544"
     inkscape:cx="146.14918"
     inkscape:cy="79.045665"
     inkscape:window-width="2560"
     inkscape:window-height="1351"
     inkscape:window-x="-9"
     inkscape:window-y="-9"
     inkscape:window-maximized="1"
     inkscape:current-layer="svg1" /><defs
     id="defs1"><style
       id="style1">.cls-1{fill:#1d1d1b;}</style></defs><path
     style="fill:#000000"
     d="m 14.030234,156.86629 c -0.825,-0.45833 -2.2875,-1.07667 -3.25,-1.37409 -0.9625004,-0.29742 -1.7500003,-1.47724 -1.7500003,-2.62181 0,-1.14458 0.7138099,-3.4614 1.5862403,-5.1485 l 1.58624,-3.06745 -2.3087504,1.61711 c -1.2698099,0.88941 -3.3336099,1.61711 -4.5862399,1.61711 h -2.27749 v -2.86514 c 0,-1.57583 0.90251,-4.01249 2.00557,-5.41481 1.35633,-1.72429 1.6214,-2.67773 0.81883,-2.94525 -0.6527,-0.21757 2.77453,-4.4184 7.6160703,-9.33519 4.84155,-4.91678 12.42988,-13.77711 16.86297,-19.68961 4.43309,-5.9125 8.35657,-10.749996 8.71885,-10.749996 0.36227,0 3.67782,3.606796 7.36788,8.015096 4.1745,4.98703 6.42747,8.48164 5.96347,9.25 -0.41015,0.6792 -3.72475,5.2849 -7.36578,10.2349 -3.64104,4.95 -8.21203,11.475 -10.15776,14.5 -1.94574,3.025 -4.50349,6.35725 -5.6839,7.40499 -1.18041,1.04774 -2.1462,1.51183 -2.1462,1.0313 0,-0.48052 -2.5875,1.6572 -5.75,4.75049 -4.17733,4.08592 -6.16026,5.39626 -7.25,4.79085 z m 78.75,-6.66695 c -0.9625,-0.25153 -1.75,-0.87433 -1.75,-1.384 0,-0.50967 -0.8107,-0.92668 -1.80157,-0.92668 -1.13883,0 -4.17372,-3.39137 -8.25,-9.21905 -3.54663,-5.07048 -10.49843,-13.90169 -15.44843,-19.62492 -4.95,-5.72323 -12.04538,-14.06216 -15.7675,-18.53095 -3.72213,-4.468786 -8.03554,-9.700076 -9.58537,-11.625076 -1.54982,-1.925 -8.28294,-10.789672 -14.96247,-19.699275 C 18.535364,60.279787 11.423934,50.416449 9.4117236,47.270861 7.3995137,44.125273 4.7449037,39.039948 3.5125737,35.970138 c -1.23232,-3.069809 -2.53544,-6.706472 -2.89582,-8.081472 l -0.65522999,-2.5 2.04237999,3.5 2.04239,3.5 -0.62138,-3.760961 c -0.39259,-2.376209 -0.16637,-4.309213 0.61442,-5.25 0.67968,-0.818971 2.04319,-1.489039 3.03001,-1.489039 0.98682,0 1.98419,0.5625 2.21636,1.25 0.2321699,0.6875 1.1812303,-0.2125 2.1090103,-2 0.92779,-1.7875 2.01283,-3.245777 2.4112,-3.240615 0.39838,0.0052 3.00775,1.319103 5.79861,2.919872 l 5.07428,2.910488 4.11654,7.110274 c 2.2641,3.910651 8.30567,13.163575 13.42572,20.562053 5.12004,7.398478 13.93196,19.197412 19.58203,26.219853 5.65008,7.022443 16.87505,21.543073 24.94439,32.268069 8.06934,10.725 16.384066,21.9371 18.477146,24.91578 2.09309,2.97868 3.80561,5.81774 3.80561,6.30902 0,0.49128 -0.42085,0.63313 -0.93522,0.31523 -0.51438,-0.3179 -1.07688,0.88936 -1.25,2.6828 -0.20802,2.15489 -0.90932,3.37342 -2.0678,3.59289 -0.96416,0.18265 -3.15519,-1.07008 -4.868953,-2.78385 l -3.115953,-3.11594 0.65936,2.62708 c 0.36264,1.44489 0.38585,3.48881 0.0516,4.54203 -0.33428,1.05323 -1.13996,1.86276 -1.7904,1.79896 -0.65043,-0.0638 -1.97011,-0.3218 -2.93261,-0.57332 z m -26.90346,-75.551915 -6.49712,-8.293357 14.83964,-22.482701 c 8.16179,-12.365485 17.51361,-26.307701 20.78182,-30.982701 3.2682,-4.6750005 6.974256,-9.1154255 8.235656,-9.8676115 l 2.29347,-1.367611 -1.25,1.317611 c -0.6875,0.724686 -1.25,1.714313 -1.25,2.199171 0,0.484858 1.51562,-0.05514 3.36804,-1.2 1.85241,-1.144858 4.3762,-2.08156 5.6084,-2.08156 h 2.24038 l -0.6749,2.689006 c -0.37119,1.478952 -1.57562,3.953952 -2.6765,5.5000005 -1.10088,1.546047 -1.6689,2.810994 -1.26225,2.810994 0.40664,0 1.50937,-0.696854 2.4505,-1.548566 1.15629,-1.046436 2.59043,-1.327879 4.42286,-0.867969 l 2.71171,0.680597 -0.53352,2.617969 c -0.29344,1.439883 -0.84317,3.967969 -1.22162,5.617969 -0.37846,1.65 -1.48071,3.9 -2.44946,5 -0.96874,1.1 -10.59998,14.6 -21.402756,30 -10.80277,15.4 -20.00047,28.124228 -20.43932,28.276058 -0.43885,0.15183 -3.72162,-3.455953 -7.29503,-8.017299 z"
     id="path2" /></svg>
